<svg xmlns="http://www.w3.org/2000/svg" xmlns:xlink="http://www.w3.org/1999/xlink" width="110" height="110" viewBox="0 0 110 110"><defs><style>.cls-1{fill:url(#Безымянный_градиент_315);}.cls-2{fill:#bb1a23;}</style><radialGradient id="Безымянный_градиент_315" cx="42.333" cy="5.667" r="102.842" gradientUnits="userSpaceOnUse"><stop offset="0.622" stop-color="#fff"/><stop offset="1" stop-color="#fff" stop-opacity="0"/></radialGradient></defs><title>Монограмма - На груди</title><g id="Монограмма"><g id="На_груди" data-name="На груди"><g id="Цвет-78" data-name="Цвет"><polygon class="cls-1" points="2.583 22.167 11.333 18.417 11.917 16.667 17.583 4.417 37.417 0.417 57.5 4.417 63.25 16.667 63.667 18.5 101.417 34.5 108.75 47.583 98.167 108.25 89.417 93.917 88.5 107.833 2.583 107.917 2.583 22.167"/></g><g id="Монограмма-4" data-name="Монограмма"><path class="cls-2" d="M65.987,61.4l2.1-5.1h3.151v.211h-.251a1.083,1.083,0,0,0-.548.12.557.557,0,0,0-.228.268,2.319,2.319,0,0,0-.063.714v5.1a2.543,2.543,0,0,0,.063.742.569.569,0,0,0,.257.26,1.042,1.042,0,0,0,.519.111h.251v.211H67.2V63.83h.251A1.084,1.084,0,0,0,68,63.71a.555.555,0,0,0,.228-.274,2.35,2.35,0,0,0,.063-.719V57.762l-2.464,6.28h-.642l-2.654-6v4.442a4.792,4.792,0,0,0,.029.7.813.813,0,0,0,.322.465,1.343,1.343,0,0,0,.779.18v.211H60.65v-.211h.08a1.208,1.208,0,0,0,.479-.083.771.771,0,0,0,.337-.237,1.089,1.089,0,0,0,.177-.417q.011-.063.011-.582v-4.9a2.483,2.483,0,0,0-.063-.733.574.574,0,0,0-.257-.257,1.042,1.042,0,0,0-.519-.111H60.65V56.3h3.162Z"/><path class="cls-2" d="M75.268,58.768h1.8V59.4H76.044a1.939,1.939,0,0,1,.388.508,1.57,1.57,0,0,1,.137.645,1.6,1.6,0,0,1-.317.99,2.1,2.1,0,0,1-.862.657c-.494.214-1.052.2-1.545.416-.19.084-.5.311-.448.565.025.128.224.223.338.243a5.939,5.939,0,0,0,1.052.011,3.6,3.6,0,0,1,1.65.262,1.206,1.206,0,0,1,.645,1.125,1.437,1.437,0,0,1-.3.882,1.742,1.742,0,0,1-.782.585,4.763,4.763,0,0,1-1.7.28A5.731,5.731,0,0,1,73,66.424a1.826,1.826,0,0,1-.85-.388.726.726,0,0,1-.257-.522.668.668,0,0,1,.2-.471,1.586,1.586,0,0,1,.733-.351,1.121,1.121,0,0,1-.742-1.016,1.2,1.2,0,0,1,.3-.765,2.41,2.41,0,0,1,.959-.645,2.348,2.348,0,0,1-1.107-.736,1.712,1.712,0,0,1-.342-1.056,1.766,1.766,0,0,1,.639-1.356,2.368,2.368,0,0,1,1.644-.574A2.982,2.982,0,0,1,75.268,58.768Zm-1.239,6.061a1.7,1.7,0,0,0-.653.081.443.443,0,0,0-.276.4.546.546,0,0,0,.285.438,2.045,2.045,0,0,0,1.074.2,2.6,2.6,0,0,0,1.057-.175.545.545,0,0,0,.385-.493.287.287,0,0,0-.073-.2.7.7,0,0,0-.394-.194A10.517,10.517,0,0,0,74.029,64.829Zm.252-5.671a.7.7,0,0,0-.56.28,1.994,1.994,0,0,0-.228,1.16,1.559,1.559,0,0,0,.225.978.681.681,0,0,0,.534.265.725.725,0,0,0,.571-.263,1.634,1.634,0,0,0,.228-1.024,1.913,1.913,0,0,0-.257-1.167A.619.619,0,0,0,74.281,59.158Z"/></g><g id="Контур-78" data-name="Контур"><path d="M38,34.051V33.5a.5.5,0,0,0-1,0v.551a2.5,2.5,0,0,0,0,4.9V39.5a.5.5,0,0,0,1,0v-.551a2.5,2.5,0,0,0,0-4.9ZM37.5,38A1.5,1.5,0,1,1,39,36.5,1.5,1.5,0,0,1,37.5,38ZM38,60.051V59.5a.5.5,0,0,0-1,0v.551a2.5,2.5,0,0,0,0,4.9V65.5a.5.5,0,0,0,1,0v-.551a2.5,2.5,0,0,0,0-4.9ZM37.5,64A1.5,1.5,0,1,1,39,62.5,1.5,1.5,0,0,1,37.5,64ZM38,86.051V85.5a.5.5,0,0,0-1,0v.551a2.5,2.5,0,0,0,0,4.9V91.5a.5.5,0,0,0,1,0v-.551a2.5,2.5,0,0,0,0-4.9ZM37.5,90A1.5,1.5,0,1,1,39,88.5,1.5,1.5,0,0,1,37.5,90Zm72.056-41.911c-2.435-4.728-5-9.385-7.625-13.843a.558.558,0,0,0-.189-.175.487.487,0,0,0-.046-.032l-37.667-16c-.012-.005-.024,0-.036-.008a9.84,9.84,0,0,0-.706-2.275L57.994,4.29A.5.5,0,0,0,57.6,4C53.454,1.459,46.131,0,37.459,0,28.7,0,21.315,1.486,17.194,4.077c-.015.009-.023.024-.036.034a.478.478,0,0,0-.08.076.487.487,0,0,0-.044.063.479.479,0,0,0-.028.04L11.714,15.756a9.844,9.844,0,0,0-.707,2.276c-.012,0-.024,0-.036.008L1.184,22.2a.5.5,0,0,0,.2.96.493.493,0,0,0,.2-.04l9.281-3.942a13.834,13.834,0,0,0,2.262,8.219L1.177,32.678a.5.5,0,0,0,.2.957.493.493,0,0,0,.2-.043l12.067-5.34c2.751,4.276,6.543,9.7,10.261,14.963a.5.5,0,0,0,.408.212.552.552,0,0,0,.069,0,.5.5,0,0,0,.4-.33l4.582-13.1H32V109.5a.5.5,0,0,0,1,0V29.989h9V109.5a.5.5,0,0,0,1,0V29.989h2.629l4.582,13.1a.5.5,0,0,0,.4.33.552.552,0,0,0,.069,0,.5.5,0,0,0,.408-.212c3.71-5.25,7.494-10.663,10.243-14.936L97.041,44.01c-4.478,13.919-7.495,35.507-9.165,65.461a.5.5,0,0,0,.471.527h.028a.5.5,0,0,0,.5-.472q.417-7.473.946-14.244a89.366,89.366,0,0,1,8.293,13.894.5.5,0,1,0,.9-.43,90.24,90.24,0,0,0-9.074-14.993c2.294-28.407,6.108-47.544,11.581-58.219,2.456,4.2,4.859,8.572,7.144,13.008a.5.5,0,0,0,.445.271.493.493,0,0,0,.229-.056A.5.5,0,0,0,109.556,48.089ZM57.033,4.83c0,3.082-1.563,6.029-4.5,8.633a41.334,41.334,0,0,0-30.084-.022c-2.94-2.612-4.5-5.567-4.48-8.658C21.977,2.378,29.05,1,37.459,1,45.924,1,53.037,2.4,57.033,4.83ZM42.7,19.042A.5.5,0,0,0,42.5,19h-10a.5.5,0,0,0-.2.043,33.405,33.405,0,0,1-8.975-4.868,40.358,40.358,0,0,1,28.325.021A33.455,33.455,0,0,1,42.7,19.042Zm-18.535,22.8c-3.678-5.212-7.384-10.528-10.01-14.65-2.476-3.886-3.02-7.8-1.534-11.02L17.09,6.494c.892,5.354,6.125,10.163,14.736,13.444ZM32.864,20h.843A4.475,4.475,0,0,0,32,23.5v5.509H29.714Zm9.684,9.01a.125.125,0,0,0-.1,0H33V23.5A3.5,3.5,0,0,1,36.5,20h5.636l3.15,9.009Zm8.286,12.837L43.174,19.938c8.611-3.281,13.844-8.09,14.736-13.444l4.468,9.682c1.486,3.22.942,7.134-1.534,11.02C58.218,31.317,54.513,36.634,50.834,41.846Zm46.516,1.208L61.867,27.42a13.846,13.846,0,0,0,2.277-8.247L100.8,34.746A56.939,56.939,0,0,0,97.351,43.053ZM40.5,24h-.551a2.5,2.5,0,0,0-4.9,0H34.5a.5.5,0,0,0,0,1h.551a2.5,2.5,0,0,0,4.9,0H40.5a.5.5,0,0,0,0-1Zm-3,2A1.5,1.5,0,1,1,39,24.5,1.5,1.5,0,0,1,37.5,26Z"/></g></g></g></svg>