<?xml version="1.0" encoding="utf-8"?>
<!-- Generator: Adobe Illustrator 22.1.0, SVG Export Plug-In . SVG Version: 6.00 Build 0)  -->
<svg version="1.1" id="Слой_1" xmlns="http://www.w3.org/2000/svg" xmlns:xlink="http://www.w3.org/1999/xlink" x="0px" y="0px"
	 viewBox="0 0 120 120" style="enable-background:new 0 0 120 120;" xml:space="preserve">
<style type="text/css">
	.st0{fill:#FFFFFF;}
</style>
<g>
	<path class="st0" d="M70.2,60c0,5.7-4.6,10.2-10.2,10.2S49.8,65.7,49.8,60S54.3,49.8,60,49.8S70.2,54.3,70.2,60L70.2,60z M70.2,60"
		/>
	<path class="st0" d="M77.3,29.1H42.7c-7.5,0-13.7,6.1-13.7,13.7v34.6c0,7.5,6.1,13.7,13.7,13.7h34.6c7.5,0,13.7-6.1,13.7-13.7V42.7
		C90.9,35.2,84.8,29.1,77.3,29.1L77.3,29.1z M60,77.1c-9.4,0-17.1-7.7-17.1-17.1S50.6,42.9,60,42.9S77.1,50.6,77.1,60
		S69.4,77.1,60,77.1L60,77.1z M79.6,43.8c-1.9,0-3.4-1.5-3.4-3.4c0-1.9,1.5-3.4,3.4-3.4c1.9,0,3.4,1.5,3.4,3.4
		C83,42.3,81.5,43.8,79.6,43.8L79.6,43.8z M79.6,43.8"/>
	<path class="st0" d="M87.5,1.8H32.5C15.5,1.8,1.8,15.5,1.8,32.5v55.1c0,16.9,13.8,30.7,30.7,30.7h55.1c16.9,0,30.7-13.8,30.7-30.7
		V32.5C118.3,15.5,104.5,1.8,87.5,1.8L87.5,1.8z M97.8,77.3c0,11.3-9.2,20.5-20.5,20.5H42.7c-11.3,0-20.5-9.2-20.5-20.5V42.7
		c0-11.3,9.2-20.5,20.5-20.5h34.6c11.3,0,20.5,9.2,20.5,20.5V77.3z M97.8,77.3"/>
</g>
</svg>
