<?xml version="1.0" encoding="utf-8"?>
<!-- Generator: Adobe Illustrator 22.1.0, SVG Export Plug-In . SVG Version: 6.00 Build 0)  -->
<svg version="1.1" id="Слой_1" xmlns="http://www.w3.org/2000/svg" xmlns:xlink="http://www.w3.org/1999/xlink" x="0px" y="0px"
	 viewBox="0 0 120 71.3" style="enable-background:new 0 0 120 71.3;" xml:space="preserve">
<style type="text/css">
	.st0{fill:#F6C837;}
	.st1{fill:#FFFFFF;}
</style>
<g>
	<path d="M20.3,29.3h-9.3l-1.8,5.3H3.5l9.6-25.9h4.9l9.7,25.9h-5.7L20.3,29.3z M12.4,25h6.5l-3.3-9.7L12.4,25z"/>
	<path d="M33.8,34.7V8.8h9.1c3.1,0,5.5,0.6,7.1,1.8s2.4,3,2.4,5.3c0,1.3-0.3,2.4-1,3.3c-0.7,1-1.6,1.7-2.7,2.1c1.3,0.3,2.4,1,3.1,2
		c0.8,1,1.1,2.2,1.1,3.7c0,2.5-0.8,4.4-2.4,5.7c-1.6,1.3-3.8,1.9-6.8,2H33.8z M39.1,19.6h3.9c2.7,0,4-1.1,4-3.2c0-1.2-0.3-2-1-2.5
		c-0.7-0.5-1.8-0.8-3.2-0.8h-3.7V19.6z M39.1,23.4v7h4.6c1.3,0,2.2-0.3,2.9-0.9s1.1-1.4,1.1-2.5c0-2.4-1.2-3.6-3.7-3.6H39.1z"/>
	<path d="M79.7,13.1h-7.9v21.6h-5.3V13.1h-7.8V8.8h21.1V13.1z"/>
</g>
<g>
	<circle class="st0" cx="100.6" cy="21.7" r="16.1"/>
	<path class="st1" d="M109.5,20.5H109l-1.9-6.3c-0.2-0.7-0.9-1.2-1.6-1.2h-2.3l-0.2-0.9c-0.1-0.4-0.5-0.8-0.9-0.8h-3.2
		c-0.5,0-0.8,0.3-0.9,0.8L97.8,13h-2.1c-0.8,0-1.4,0.5-1.6,1.2l-1.9,6.3h-0.4c-1,0-1.8,0.8-1.8,1.8v4.4c0,1,0.8,1.8,1.8,1.8h0v1.5
		c0,0.4,0.3,0.7,0.7,0.7h3.2c0.4,0,0.7-0.3,0.7-0.7v-1.5h8.6v1.5c0,0.4,0.3,0.7,0.7,0.7h3.2c0.4,0,0.7-0.3,0.7-0.7v-1.5h0
		c1,0,1.8-0.8,1.8-1.8v-4.4C111.2,21.3,110.4,20.5,109.5,20.5z M93.3,26c-0.9,0-1.5-0.7-1.5-1.5c0-0.9,0.7-1.5,1.5-1.5
		c0.9,0,1.5,0.7,1.5,1.5C94.8,25.3,94.2,26,93.3,26z M102.6,20.5c0.1-0.7,0.8-1.2,1.5-1.2c0.7,0,1.4,0.5,1.5,1.2H102.6z M104.1,18.5
		c-1.2,0-2.1,0.9-2.3,2h-8.4l1.8-5.9c0.1-0.2,0.3-0.4,0.5-0.4h9.8c0.2,0,0.4,0.1,0.5,0.4l1.8,5.9h-1.4
		C106.3,19.4,105.3,18.5,104.1,18.5z M107.9,26c-0.9,0-1.5-0.7-1.5-1.5c0-0.9,0.7-1.5,1.5-1.5s1.5,0.7,1.5,1.5
		C109.4,25.3,108.7,26,107.9,26z"/>
</g>
<g>
	<path d="M20.3,61.7h-4.3v-17H7.8v17H3.5V41.3h16.8V61.7z"/>
	<path d="M32.7,61.7c-0.2-0.4-0.3-0.8-0.4-1.4c-1,1.1-2.3,1.6-3.9,1.6c-1.5,0-2.8-0.4-3.7-1.3c-1-0.9-1.5-1.9-1.5-3.2
		c0-1.6,0.6-2.8,1.8-3.7c1.2-0.9,3-1.3,5.2-1.3h1.9v-0.9c0-0.7-0.2-1.3-0.5-1.7c-0.4-0.4-0.9-0.6-1.7-0.6c-0.7,0-1.2,0.2-1.6,0.5
		c-0.4,0.3-0.6,0.8-0.6,1.3h-4.1c0-0.9,0.3-1.7,0.8-2.4c0.5-0.7,1.3-1.3,2.3-1.8c1-0.4,2.1-0.6,3.4-0.6c1.9,0,3.4,0.5,4.5,1.4
		c1.1,0.9,1.7,2.3,1.7,4v6.6c0,1.4,0.2,2.5,0.6,3.3v0.2H32.7z M29.3,58.9c0.6,0,1.2-0.1,1.7-0.4c0.5-0.3,0.9-0.6,1.1-1.1v-2.6h-1.5
		c-2.1,0-3.2,0.7-3.3,2.1l0,0.2c0,0.5,0.2,0.9,0.5,1.2C28.2,58.7,28.7,58.9,29.3,58.9z"/>
	<path d="M53.3,54.2c0,2.3-0.5,4.2-1.6,5.6c-1.1,1.4-2.5,2.1-4.4,2.1c-1.6,0-2.8-0.5-3.8-1.6v7.1h-4.1v-21h3.8l0.1,1.5
		c1-1.2,2.3-1.8,3.9-1.8c1.9,0,3.4,0.7,4.4,2.1c1.1,1.4,1.6,3.3,1.6,5.7V54.2z M49.2,54c0-1.4-0.3-2.5-0.8-3.3
		c-0.5-0.8-1.2-1.1-2.2-1.1c-1.3,0-2.2,0.5-2.7,1.5v6.2c0.5,1,1.4,1.5,2.7,1.5C48.2,58.7,49.2,57.1,49.2,54z"/>
	<path d="M68,49.8h-4.9v11.9h-4.1V49.8h-4.9v-3.3H68V49.8z"/>
	<path d="M83.4,61.7h-4.1v-5.8h-5.1v5.8h-4.1V46.5h4.1v6.1h5.1v-6.1h4.1V61.7z"/>
	<path d="M93.7,62c-2.3,0-4.1-0.7-5.5-2c-1.4-1.4-2.1-3.2-2.1-5.4v-0.4c0-1.5,0.3-2.9,0.9-4.1c0.6-1.2,1.4-2.1,2.5-2.8
		c1.1-0.6,2.3-1,3.7-1c2.1,0,3.8,0.7,5,2c1.2,1.3,1.8,3.2,1.8,5.6v1.7h-9.8c0.1,1,0.5,1.8,1.2,2.4c0.7,0.6,1.5,0.9,2.5,0.9
		c1.6,0,2.8-0.6,3.7-1.7l2,2.2c-0.6,0.9-1.5,1.5-2.5,2C96.1,61.7,95,62,93.7,62z M93.2,49.5c-0.8,0-1.5,0.3-2,0.8
		c-0.5,0.5-0.8,1.3-1,2.3H96v-0.3c0-0.9-0.3-1.6-0.7-2.1C94.8,49.8,94.1,49.5,93.2,49.5z"/>
	<path d="M116.2,54.2c0,2.3-0.5,4.2-1.6,5.6c-1.1,1.4-2.5,2.1-4.4,2.1c-1.6,0-2.8-0.5-3.8-1.6v7.1h-4.1v-21h3.8l0.1,1.5
		c1-1.2,2.3-1.8,3.9-1.8c1.9,0,3.4,0.7,4.4,2.1c1.1,1.4,1.6,3.3,1.6,5.7V54.2z M112.1,54c0-1.4-0.3-2.5-0.8-3.3
		c-0.5-0.8-1.2-1.1-2.2-1.1c-1.3,0-2.2,0.5-2.7,1.5v6.2c0.5,1,1.4,1.5,2.7,1.5C111.1,58.7,112.1,57.1,112.1,54z"/>
</g>
</svg>
