<?xml version="1.0" encoding="utf-8"?>
<!-- Generator: Adobe Illustrator 22.1.0, SVG Export Plug-In . SVG Version: 6.00 Build 0)  -->
<svg version="1.1" id="Слой_1" xmlns="http://www.w3.org/2000/svg" xmlns:xlink="http://www.w3.org/1999/xlink" x="0px" y="0px"
	 viewBox="0 0 398 95" style="enable-background:new 0 0 398 95;" xml:space="preserve">
<style type="text/css">
	.st0{fill:#F6C837;}
	.st1{fill:#FFFFFF;}
</style>
<g>
	<circle class="st0" cx="153.8" cy="28.9" r="23.9"/>
	<path class="st1" d="M167,27.2h-0.7l-2.8-9.3c-0.3-1-1.3-1.8-2.4-1.8h-3.4l-0.3-1.3c-0.1-0.6-0.7-1.2-1.3-1.2h-4.7
		c-0.7,0-1.2,0.4-1.3,1.2l-0.3,1.3h-3.1c-1.2,0-2.1,0.7-2.4,1.8l-2.8,9.3h-0.6c-1.5,0-2.7,1.2-2.7,2.7v6.5c0,1.5,1.2,2.7,2.7,2.7
		l0,0v2.2c0,0.6,0.4,1,1,1h4.7c0.6,0,1-0.4,1-1V39h12.8v2.2c0,0.6,0.4,1,1,1h4.7c0.6,0,1-0.4,1-1V39l0,0c1.5,0,2.7-1.2,2.7-2.7v-6.5
		C169.6,28.4,168.4,27.2,167,27.2z M143,35.3c-1.3,0-2.2-1-2.2-2.2c0-1.3,1-2.2,2.2-2.2c1.3,0,2.2,1,2.2,2.2
		C145.2,34.3,144.3,35.3,143,35.3z M156.8,27.2c0.1-1,1.2-1.8,2.2-1.8s2.1,0.7,2.2,1.8H156.8z M159,24.2c-1.8,0-3.1,1.3-3.4,3h-12.5
		l2.7-8.8c0.1-0.3,0.4-0.6,0.7-0.6h14.5c0.3,0,0.6,0.1,0.7,0.6l2.7,8.8h-2.1C162.3,25.5,160.8,24.2,159,24.2z M164.7,35.3
		c-1.3,0-2.2-1-2.2-2.2c0-1.3,1-2.2,2.2-2.2s2.2,1,2.2,2.2C166.9,34.3,165.9,35.3,164.7,35.3z"/>
</g>
<g>
	<g>
		<path d="M26,37.7H13.3l-2.7,7.7H4.7l12.4-32.9h5.1l12.5,32.9h-6L26,37.7z M14.9,33.1h9.5l-4.8-13.7L14.9,33.1z"/>
		<path d="M38.4,45.4V12.5h11.3c3.7,0,6.6,0.7,8.5,2.2c1.9,1.5,2.9,3.7,2.9,6.7c0,1.5-0.4,2.9-1.2,4.1c-0.8,1.2-2,2.1-3.6,2.8
			c1.8,0.5,3.2,1.4,4.1,2.7c1,1.3,1.5,2.9,1.5,4.8c0,3.1-1,5.5-3,7.1c-2,1.7-4.8,2.5-8.5,2.5H38.4z M44.1,26.3h5.6
			c1.8,0,3.2-0.4,4.2-1.2c1-0.8,1.5-1.9,1.5-3.4c0-1.6-0.5-2.8-1.4-3.5c-0.9-0.7-2.4-1.1-4.3-1.1h-5.6V26.3z M44.1,30.6v10.3h6.4
			c1.8,0,3.2-0.4,4.2-1.3c1-0.9,1.5-2.1,1.5-3.7c0-3.4-1.7-5.2-5.2-5.2H44.1z"/>
		<path d="M90.8,17.1H80.5v28.3h-5.7V17.1H64.7v-4.6h26.1V17.1z"/>
		<path d="M120.7,29.8c0,3.2-0.6,6.1-1.7,8.5s-2.7,4.3-4.8,5.6s-4.5,2-7.2,2c-2.7,0-5-0.7-7.1-2c-2.1-1.3-3.7-3.2-4.8-5.6
			s-1.7-5.2-1.7-8.3v-1.9c0-3.2,0.6-6,1.7-8.5c1.1-2.5,2.7-4.3,4.8-5.6s4.4-2,7.1-2s5.1,0.6,7.1,1.9c2.1,1.3,3.7,3.1,4.8,5.6
			c1.1,2.4,1.7,5.2,1.7,8.4V29.8z M115,28.1c0-3.6-0.7-6.4-2.1-8.4c-1.4-1.9-3.3-2.9-5.9-2.9c-2.5,0-4.4,1-5.8,2.9
			c-1.4,1.9-2.1,4.7-2.1,8.2v1.9c0,3.6,0.7,6.4,2.1,8.4c1.4,2,3.4,3,5.9,3c2.5,0,4.5-1,5.8-2.9c1.4-1.9,2-4.7,2-8.5V28.1z"/>
	</g>
	<g>
		<g>
			<path d="M212.8,45.4h-5.7V17.1h-14.5v28.3h-5.7V12.5h25.9V45.4z"/>
			<path d="M238.1,37.7h-12.8l-2.7,7.7h-5.9l12.4-32.9h5.1l12.5,32.9h-6L238.1,37.7z M227,33.1h9.5l-4.8-13.7L227,33.1z"/>
			<path d="M256.2,33.2v12.2h-5.7V12.5h12.6c3.7,0,6.6,1,8.8,2.9c2.2,1.9,3.2,4.5,3.2,7.6c0,3.2-1.1,5.7-3.2,7.5
				c-2.1,1.8-5.1,2.7-8.9,2.7H256.2z M256.2,28.6h6.9c2,0,3.6-0.5,4.7-1.4c1.1-1,1.6-2.3,1.6-4.1c0-1.8-0.5-3.2-1.6-4.3
				s-2.6-1.6-4.5-1.6h-7V28.6z"/>
			<path d="M303.9,17.1h-10.3v28.3h-5.7V17.1h-10.2v-4.6h26.1V17.1z"/>
			<path d="M334.3,45.4h-5.7V30.8h-14.7v14.6h-5.7V12.5h5.7v13.7h14.7V12.5h5.7V45.4z"/>
			<path d="M360.3,30.7h-13.5v10.1h15.8v4.6h-21.5V12.5h21.4v4.6h-15.6v9.1h13.5V30.7z"/>
			<path d="M373,33.2v12.2h-5.7V12.5h12.6c3.7,0,6.6,1,8.8,2.9c2.2,1.9,3.2,4.5,3.2,7.6c0,3.2-1.1,5.7-3.2,7.5
				c-2.1,1.8-5.1,2.7-8.9,2.7H373z M373,28.6h6.9c2,0,3.6-0.5,4.7-1.4c1.1-1,1.6-2.3,1.6-4.1c0-1.8-0.5-3.2-1.6-4.3
				s-2.6-1.6-4.5-1.6h-7V28.6z"/>
		</g>
	</g>
</g>
<g>
	<path d="M17.6,79.6h-2.1v-3.2H6.9v3.2H4.7l-0.1-5h1c0.5-0.5,0.9-1.2,1.2-2.2c0.3-1,0.5-2,0.6-3.2l0.3-5.8h8.2v11.2h1.7L17.6,79.6z
		 M8.3,74.6h5.6v-9.4H10l-0.2,3.7C9.7,71.3,9.1,73.2,8.3,74.6z"/>
	<path d="M27.4,63.4h2.3v13h-2.3v-9.3l-5.7,9.3h-2.3v-13h2.3v9.3L27.4,63.4z"/>
	<path d="M42.3,72.1c-0.1,1.4-0.6,2.5-1.5,3.2c-0.9,0.8-2.1,1.2-3.6,1.2c-1,0-1.9-0.2-2.7-0.7c-0.8-0.5-1.4-1.2-1.8-2.1
		c-0.4-0.9-0.7-2-0.7-3.2v-1.2c0-1.2,0.2-2.3,0.7-3.2c0.4-0.9,1.1-1.7,1.9-2.2c0.8-0.5,1.8-0.8,2.8-0.8c1.4,0,2.6,0.4,3.5,1.2
		c0.9,0.8,1.4,1.9,1.5,3.3H40c-0.1-0.9-0.4-1.6-0.8-2c-0.4-0.4-1.1-0.6-1.9-0.6c-1,0-1.7,0.4-2.3,1.1c-0.5,0.7-0.8,1.8-0.8,3.2v1.2
		c0,1.4,0.3,2.5,0.8,3.2c0.5,0.7,1.2,1.1,2.2,1.1c0.9,0,1.6-0.2,2-0.6c0.4-0.4,0.7-1.1,0.8-2H42.3z"/>
	<path d="M54.6,76.4h-2.2V65.2h-5.7v11.2h-2.2v-13h10.2V76.4z"/>
	<path d="M64.9,70.6h-5.3v4h6.2v1.8h-8.5v-13h8.4v1.8h-6.2v3.6h5.3V70.6z"/>
	<path d="M77.2,65.2h-4.1v11.2h-2.2V65.2h-4v-1.8h10.3V65.2z"/>
	<path d="M88.8,63.4v13h-2.2v-5.1c-1,0.2-2,0.4-3,0.4c-1.6,0-2.7-0.3-3.5-1c-0.8-0.7-1.2-1.7-1.2-3.1v-4.1h2.2v4.1
		c0,0.8,0.2,1.4,0.6,1.8c0.4,0.4,1,0.5,1.9,0.5c1,0,2-0.1,3-0.4v-6.1H88.8z"/>
	<path d="M99.1,70.6h-5.3v4h6.2v1.8h-8.5v-13h8.4v1.8h-6.2v3.6h5.3V70.6z"/>
	<path d="M104.1,71.5v4.8h-2.3v-13h5c1.5,0,2.6,0.4,3.5,1.1c0.9,0.8,1.3,1.8,1.3,3c0,1.3-0.4,2.3-1.3,3c-0.8,0.7-2,1.1-3.5,1.1
		H104.1z M104.1,69.7h2.7c0.8,0,1.4-0.2,1.8-0.6c0.4-0.4,0.6-0.9,0.6-1.6c0-0.7-0.2-1.3-0.6-1.7c-0.4-0.4-1-0.6-1.8-0.6h-2.8V69.7z"
		/>
	<path d="M123.5,72.1c-0.1,1.4-0.6,2.5-1.5,3.2c-0.9,0.8-2.1,1.2-3.6,1.2c-1,0-1.9-0.2-2.7-0.7c-0.8-0.5-1.4-1.2-1.8-2.1
		c-0.4-0.9-0.7-2-0.7-3.2v-1.2c0-1.2,0.2-2.3,0.7-3.2c0.4-0.9,1.1-1.7,1.9-2.2c0.8-0.5,1.8-0.8,2.8-0.8c1.4,0,2.6,0.4,3.5,1.2
		c0.9,0.8,1.4,1.9,1.5,3.3h-2.2c-0.1-0.9-0.4-1.6-0.8-2c-0.4-0.4-1.1-0.6-1.9-0.6c-1,0-1.7,0.4-2.3,1.1c-0.5,0.7-0.8,1.8-0.8,3.2
		v1.2c0,1.4,0.3,2.5,0.8,3.2c0.5,0.7,1.2,1.1,2.2,1.1c0.9,0,1.6-0.2,2-0.6c0.4-0.4,0.7-1.1,0.8-2H123.5z"/>
	<path d="M129.3,70.8h-1.5v5.6h-2.2v-13h2.2v5.5h1.2l3.8-5.5h2.8l-4.5,6.2l4.9,6.8h-2.7L129.3,70.8z"/>
	<path d="M144.5,73.3h-5l-1.1,3h-2.3l4.9-13h2l4.9,13h-2.4L144.5,73.3z M140.1,71.5h3.8l-1.9-5.4L140.1,71.5z"/>
	<path d="M155.8,76.4v-4.9h-2.5l-2.5,4.9h-2.4l2.9-5.5c-1.5-0.7-2.3-1.9-2.3-3.5c0-1.2,0.4-2.2,1.2-2.9c0.8-0.7,2-1,3.4-1.1h4.4v13
		H155.8z M151.3,67.4c0,0.7,0.2,1.3,0.6,1.7c0.4,0.4,1,0.6,1.8,0.6h2.1v-4.6h-2.1c-0.8,0-1.5,0.2-1.9,0.6
		C151.5,66.2,151.3,66.7,151.3,67.4z"/>
	<path d="M175.2,72.1c-0.1,1.4-0.6,2.5-1.5,3.2c-0.9,0.8-2.1,1.2-3.6,1.2c-1,0-1.9-0.2-2.7-0.7c-0.8-0.5-1.4-1.2-1.8-2.1
		c-0.4-0.9-0.7-2-0.7-3.2v-1.2c0-1.2,0.2-2.3,0.7-3.2s1.1-1.7,1.9-2.2c0.8-0.5,1.8-0.8,2.8-0.8c1.4,0,2.6,0.4,3.5,1.2
		c0.9,0.8,1.4,1.9,1.5,3.3H173c-0.1-0.9-0.4-1.6-0.8-2c-0.4-0.4-1.1-0.6-1.9-0.6c-1,0-1.7,0.4-2.3,1.1c-0.5,0.7-0.8,1.8-0.8,3.2v1.2
		c0,1.4,0.3,2.5,0.8,3.2c0.5,0.7,1.2,1.1,2.2,1.1c0.9,0,1.6-0.2,2-0.6c0.4-0.4,0.7-1.1,0.8-2H175.2z"/>
	<path d="M187.5,63.4v13h-2.2V65.2h-4l-0.2,5c-0.1,1.6-0.3,2.8-0.6,3.7c-0.3,0.9-0.7,1.5-1.3,1.9c-0.6,0.4-1.3,0.6-2.2,0.6h-0.6
		v-1.8l0.4,0c0.5,0,0.9-0.2,1.2-0.5c0.3-0.3,0.5-0.8,0.6-1.4c0.1-0.6,0.2-1.6,0.3-2.8l0.2-6.4H187.5z"/>
	<path d="M194.9,70.2l2.6-6.8h2.5l-4.5,10.8L195,75c-0.6,1.1-1.6,1.6-2.9,1.6l-0.9-0.1l0-1.8c0.1,0,0.4,0,0.8,0
		c0.6,0,1.1-0.3,1.4-0.8l0.5-1.1l-4.4-9.5h2.5L194.9,70.2z"/>
	<path d="M211.8,70.8h-1.5v5.6h-2.2v-5.6h-1.5l-3.2,5.6h-2.8l4.2-6.9l-3.9-6.1h2.7l3.1,5.4h1.4v-5.4h2.2v5.4h1.3l3.1-5.4h2.7
		l-3.9,6.1l4.1,6.9h-2.8L211.8,70.8z"/>
	<path d="M227.3,65.2h-6v3.2h2.7c1,0,1.8,0.2,2.5,0.5c0.7,0.3,1.2,0.8,1.6,1.4c0.4,0.6,0.6,1.3,0.6,2.1c0,1.2-0.4,2.2-1.2,2.9
		c-0.8,0.7-1.9,1.1-3.4,1.1h-5v-13h8.2V65.2z M221.3,70.2v4.4h2.7c0.8,0,1.4-0.2,1.8-0.6c0.4-0.4,0.6-1,0.6-1.6
		c0-0.7-0.2-1.2-0.6-1.6c-0.4-0.4-1-0.6-1.7-0.6H221.3z"/>
	<path d="M237.9,73.3h-5l-1.1,3h-2.3l4.9-13h2l4.9,13H239L237.9,73.3z M233.5,71.5h3.8l-1.9-5.4L233.5,71.5z"/>
	<path class="st0" d="M248.5,63.9l-0.3,3.5h-1.2v-4.7h1.6V63.9z M251.2,63.9l-0.3,3.5h-1.2v-4.7h1.6V63.9z"/>
	<path class="st0" d="M259.5,73.3h-5l-1.1,3H251l4.9-13h2l4.9,13h-2.4L259.5,73.3z M255.1,71.5h3.8l-1.9-5.4L255.1,71.5z"/>
	<path class="st0" d="M264.4,76.4v-13h4.5c1.5,0,2.6,0.3,3.4,0.9c0.8,0.6,1.2,1.5,1.2,2.6c0,0.6-0.2,1.1-0.5,1.6
		c-0.3,0.5-0.8,0.8-1.4,1.1c0.7,0.2,1.2,0.5,1.6,1.1c0.4,0.5,0.6,1.2,0.6,1.9c0,1.2-0.4,2.2-1.2,2.8c-0.8,0.7-1.9,1-3.4,1H264.4z
		 M266.6,68.8h2.2c0.7,0,1.3-0.2,1.6-0.5c0.4-0.3,0.6-0.8,0.6-1.4c0-0.6-0.2-1.1-0.5-1.4s-0.9-0.4-1.7-0.4h-2.2V68.8z M266.6,70.5
		v4.1h2.5c0.7,0,1.3-0.2,1.7-0.5c0.4-0.4,0.6-0.8,0.6-1.5c0-1.4-0.7-2-2.1-2.1H266.6z"/>
	<path class="st0" d="M285,65.2H281v11.2h-2.2V65.2h-4v-1.8H285V65.2z"/>
	<path class="st0" d="M296.9,70.2c0,1.3-0.2,2.4-0.7,3.4c-0.4,1-1.1,1.7-1.9,2.2c-0.8,0.5-1.8,0.8-2.8,0.8c-1.1,0-2-0.3-2.8-0.8
		c-0.8-0.5-1.5-1.2-1.9-2.2c-0.4-1-0.7-2-0.7-3.3v-0.7c0-1.3,0.2-2.4,0.7-3.4c0.5-1,1.1-1.7,1.9-2.2c0.8-0.5,1.8-0.8,2.8-0.8
		c1.1,0,2,0.3,2.8,0.8c0.8,0.5,1.5,1.2,1.9,2.2c0.4,1,0.7,2.1,0.7,3.3V70.2z M294.6,69.5c0-1.4-0.3-2.5-0.8-3.3
		c-0.5-0.8-1.3-1.2-2.3-1.2c-1,0-1.7,0.4-2.3,1.1c-0.6,0.8-0.8,1.8-0.8,3.2v0.7c0,1.4,0.3,2.5,0.8,3.3c0.6,0.8,1.3,1.2,2.3,1.2
		c1,0,1.8-0.4,2.3-1.1c0.5-0.8,0.8-1.9,0.8-3.3V69.5z"/>
	<path class="st0" d="M303.1,71.7h-4.7V70h4.7V71.7z"/>
	<path class="st0" d="M315.4,76.4h-2.2V65.2h-5.7v11.2h-2.2v-13h10.2V76.4z"/>
	<path class="st0" d="M325.4,73.3h-5l-1.1,3h-2.3l4.9-13h2l4.9,13h-2.4L325.4,73.3z M321,71.5h3.8l-1.9-5.4L321,71.5z"/>
	<path class="st0" d="M332.5,71.5v4.8h-2.3v-13h5c1.5,0,2.6,0.4,3.5,1.1c0.9,0.8,1.3,1.8,1.3,3c0,1.3-0.4,2.3-1.3,3
		c-0.8,0.7-2,1.1-3.5,1.1H332.5z M332.5,69.7h2.7c0.8,0,1.4-0.2,1.8-0.6c0.4-0.4,0.6-0.9,0.6-1.6c0-0.7-0.2-1.3-0.6-1.7
		c-0.4-0.4-1-0.6-1.8-0.6h-2.8V69.7z"/>
	<path class="st0" d="M351.3,65.2h-4.1v11.2H345V65.2h-4v-1.8h10.3V65.2z"/>
	<path class="st0" d="M363.4,76.4h-2.2v-5.8h-5.8v5.8H353v-13h2.3v5.4h5.8v-5.4h2.2V76.4z"/>
	<path class="st0" d="M373.6,70.6h-5.3v4h6.2v1.8H366v-13h8.4v1.8h-6.2v3.6h5.3V70.6z"/>
	<path class="st0" d="M378.6,71.5v4.8h-2.3v-13h5c1.5,0,2.6,0.4,3.5,1.1c0.9,0.8,1.3,1.8,1.3,3c0,1.3-0.4,2.3-1.3,3
		c-0.8,0.7-2,1.1-3.5,1.1H378.6z M378.6,69.7h2.7c0.8,0,1.4-0.2,1.8-0.6c0.4-0.4,0.6-0.9,0.6-1.6c0-0.7-0.2-1.3-0.6-1.7
		c-0.4-0.4-1-0.6-1.8-0.6h-2.8V69.7z"/>
	<path class="st0" d="M389.2,63.9l-0.3,3.5h-1.2v-4.7h1.6V63.9z M391.9,63.9l-0.3,3.5h-1.2v-4.7h1.6V63.9z"/>
</g>
</svg>
