<?xml version="1.0" encoding="utf-8"?>
<!-- Generator: Adobe Illustrator 22.1.0, SVG Export Plug-In . SVG Version: 6.00 Build 0)  -->
<svg version="1.1" id="Слой_1" xmlns="http://www.w3.org/2000/svg" xmlns:xlink="http://www.w3.org/1999/xlink" x="0px" y="0px"
	 viewBox="0 0 20 20" style="enable-background:new 0 0 20 20;" xml:space="preserve">
<style type="text/css">
	.st0{fill:#FFFFFF;}
</style>
<g>
	<path class="st0" d="M10,12.7l-2.3-2.1L1,16.5c0.2,0.2,0.6,0.4,0.9,0.4H18c0.4,0,0.7-0.1,0.9-0.4l-6.6-5.8L10,12.7z M10,12.7"/>
	<path class="st0" d="M19,3.5c-0.2-0.2-0.6-0.4-0.9-0.4H2C1.6,3.1,1.3,3.3,1,3.5l9,7.9L19,3.5z M19,3.5"/>
	<path class="st0" d="M0.6,4.3v11.4l6.5-5.6L0.6,4.3z M0.6,4.3"/>
	<path class="st0" d="M12.9,10.1l6.5,5.6V4.3L12.9,10.1z M12.9,10.1"/>
</g>
</svg>
