<?xml version="1.0" encoding="utf-8"?>
<!-- Generator: Adobe Illustrator 22.1.0, SVG Export Plug-In . SVG Version: 6.00 Build 0)  -->
<svg version="1.1" id="Слой_1" xmlns="http://www.w3.org/2000/svg" xmlns:xlink="http://www.w3.org/1999/xlink" x="0px" y="0px"
	 viewBox="0 0 20 20" style="enable-background:new 0 0 20 20;" xml:space="preserve">
<style type="text/css">
	.st0{fill:#FFFFFF;}
</style>
<g>
	<path class="st0" d="M18.2,1.8c-0.7-0.7-1.5-1-2.4-1H4.2c-1,0-1.8,0.3-2.4,1c-0.7,0.7-1,1.5-1,2.4v11.6c0,1,0.3,1.8,1,2.4
		c0.7,0.7,1.5,1,2.4,1h11.6c1,0,1.8-0.3,2.4-1c0.7-0.7,1-1.5,1-2.4V4.2C19.2,3.3,18.9,2.5,18.2,1.8L18.2,1.8z M15.9,14.8
		c-0.2,0.4-0.5,0.7-1.1,1c-0.6,0.3-1.1,0.4-1.6,0.4c-0.1,0-0.3,0-0.4,0c-0.1,0-0.3,0-0.4-0.1c-0.1,0-0.2-0.1-0.4-0.1
		c-0.2-0.1-0.3-0.1-0.4-0.1c-0.1,0-0.2-0.1-0.4-0.2c-0.2-0.1-0.3-0.1-0.4-0.1C9.6,15.1,8.3,14.2,7,13c-1.3-1.3-2.1-2.5-2.6-3.9
		c0,0-0.1-0.2-0.1-0.4C4.2,8.5,4.2,8.4,4.2,8.3C4.1,8.3,4.1,8.1,4,8C4,7.8,3.9,7.7,3.9,7.6c0-0.1,0-0.2-0.1-0.4c0-0.1,0-0.3,0-0.4
		c0-0.5,0.1-1,0.4-1.6c0.3-0.6,0.6-1,1-1.1C5.6,3.9,6,3.8,6.4,3.8c0.1,0,0.2,0,0.2,0c0,0,0.1,0.1,0.2,0.2C6.9,4.2,7,4.4,7.1,4.6
		C7.2,4.8,7.3,5,7.4,5.1c0.1,0.2,0.2,0.4,0.3,0.5C7.8,5.9,7.9,6,7.9,6c0,0,0.1,0.1,0.2,0.2c0.1,0.1,0.1,0.2,0.2,0.3
		c0,0.1,0.1,0.2,0.1,0.3c0,0.1-0.1,0.3-0.2,0.4C7.9,7.4,7.7,7.6,7.5,7.7C7.3,7.9,7.2,8,7,8.2C6.8,8.4,6.7,8.5,6.7,8.6
		c0,0.1,0,0.1,0,0.2c0,0.1,0.1,0.1,0.1,0.2c0,0,0.1,0.1,0.1,0.2C7,9.3,7.1,9.3,7.1,9.4c0.4,0.8,0.9,1.5,1.5,2.1
		c0.6,0.6,1.3,1.1,2.1,1.5c0,0,0.1,0,0.2,0.1c0.1,0.1,0.2,0.1,0.2,0.1c0,0,0.1,0,0.2,0.1c0.1,0,0.1,0,0.2,0c0.1,0,0.3-0.1,0.5-0.4
		c0.2-0.3,0.5-0.5,0.7-0.8c0.2-0.3,0.4-0.4,0.6-0.4c0.1,0,0.2,0,0.3,0.1c0.1,0,0.2,0.1,0.3,0.2c0.1,0.1,0.2,0.1,0.2,0.2l0.6,0.3
		c0.4,0.2,0.8,0.4,1.1,0.6c0.3,0.2,0.4,0.3,0.5,0.4c0,0,0,0.1,0,0.2C16.2,14,16.1,14.4,15.9,14.8L15.9,14.8z M15.9,14.8"/>
</g>
</svg>
