<?xml version="1.0" encoding="utf-8"?>
<!-- Generator: Adobe Illustrator 22.1.0, SVG Export Plug-In . SVG Version: 6.00 Build 0)  -->
<svg version="1.1" id="Слой_1" xmlns="http://www.w3.org/2000/svg" xmlns:xlink="http://www.w3.org/1999/xlink" x="0px" y="0px"
	 viewBox="0 0 20 20" style="enable-background:new 0 0 20 20;" xml:space="preserve">
<style type="text/css">
	.st0{fill-rule:evenodd;clip-rule:evenodd;fill:#F6C837;}
</style>
<g>
	<path class="st0" d="M10,0.3c-5.3,0-9.6,4.3-9.6,9.6c0,5.3,4.3,9.6,9.6,9.6c5.3,0,9.6-4.3,9.6-9.6C19.6,4.6,15.3,0.3,10,0.3L10,0.3
		z M14.9,10.9c0.4,0.4,0.9,0.8,1.3,1.3c0.2,0.2,0.3,0.4,0.5,0.7c0.2,0.4,0,0.7-0.3,0.8l-2,0c-0.5,0-0.9-0.2-1.2-0.5
		c-0.3-0.3-0.5-0.6-0.8-0.9c-0.1-0.1-0.2-0.2-0.4-0.3c-0.3-0.2-0.5-0.1-0.7,0.2c-0.2,0.3-0.2,0.6-0.2,0.9c0,0.5-0.2,0.6-0.6,0.6
		c-1,0-1.9-0.1-2.8-0.6C7,12.6,6.4,12,5.8,11.3c-1-1.4-1.8-2.9-2.5-4.4c-0.2-0.3,0-0.5,0.3-0.5c0.6,0,1.3,0,1.9,0
		c0.3,0,0.4,0.2,0.5,0.4c0.3,0.9,0.8,1.7,1.3,2.4c0.1,0.2,0.3,0.4,0.5,0.5c0.2,0.2,0.4,0.1,0.5-0.1C8.5,9.4,8.5,9.2,8.6,9
		c0.1-0.6,0.1-1.2,0-1.8C8.5,6.9,8.3,6.7,7.9,6.6c-0.2,0-0.2-0.1-0.1-0.2C8,6.2,8.1,6.1,8.4,6.1h2.2c0.3,0.1,0.4,0.2,0.5,0.6l0,2.5
		c0,0.1,0.1,0.5,0.3,0.6c0.2,0.1,0.3-0.1,0.4-0.2c0.5-0.6,0.9-1.2,1.2-1.9c0.2-0.3,0.3-0.6,0.4-0.9c0.1-0.2,0.2-0.3,0.5-0.3l2.1,0
		c0.1,0,0.1,0,0.2,0c0.4,0.1,0.5,0.2,0.3,0.6c-0.2,0.6-0.5,1-0.8,1.5c-0.4,0.5-0.7,1-1.1,1.5C14.4,10.3,14.5,10.5,14.9,10.9
		L14.9,10.9z M14.9,10.9"/>
</g>
</svg>
