<?xml version="1.0" encoding="utf-8"?>
<!-- Generator: Adobe Illustrator 22.1.0, SVG Export Plug-In . SVG Version: 6.00 Build 0)  -->
<svg version="1.1" id="Слой_1" xmlns="http://www.w3.org/2000/svg" xmlns:xlink="http://www.w3.org/1999/xlink" x="0px" y="0px"
	 viewBox="0 0 120 120" style="enable-background:new 0 0 120 120;" xml:space="preserve">
<style type="text/css">
	.st0{fill:#FFFFFF;}
</style>
<path class="st0" d="M66.4,65.9c-1.9-1.1-4.5-1.1-6.7-1.1h-7.1v14.5h6.5c2.4,0,5.5,0.2,7.5-1.3c1.9-1.3,3-3.8,3-6.2
	C69.6,69.7,68.3,67,66.4,65.9L66.4,65.9z M63.7,53.5c1.6-1.2,2.4-3.3,2.4-5.3c0-2.1-1-4.2-2.8-5.3c-1.9-1.1-5.4-0.8-7.6-0.8h-3.1
	v12.8h4.1C59,54.9,61.8,55,63.7,53.5L63.7,53.5z M98.5,0.5h-77C10,0.5,0.7,9.8,0.7,21.4v77c0,11.5,9.3,20.9,20.9,20.9h77
	c11.5,0,20.9-9.3,20.9-20.9v-77C119.3,9.8,110,0.5,98.5,0.5L98.5,0.5z M63.2,90.2H39V31.7h26.5c7.7,0,14.8,4.9,14.8,13.5
	c0,6.7-3.7,11.2-8.5,12.6V58c7,1.5,12,5.3,12,14.5C83.8,80.9,78,90.2,63.2,90.2L63.2,90.2z M63.2,90.2"/>
</svg>
