<?xml version="1.0" encoding="utf-8"?>
<!-- Generator: Adobe Illustrator 22.1.0, SVG Export Plug-In . SVG Version: 6.00 Build 0)  -->
<svg version="1.1" id="Слой_1" xmlns="http://www.w3.org/2000/svg" xmlns:xlink="http://www.w3.org/1999/xlink" x="0px" y="0px"
	 viewBox="0 0 20 20" style="enable-background:new 0 0 20 20;" xml:space="preserve">
<style type="text/css">
	.st0{fill:#FFFFFF;}
</style>
<path class="st0" d="M16.9,3.1c-1.7-1.7-4.1-2.7-6.5-2.7s-4.8,1-6.5,2.7S1.2,7.1,1.2,9.6c0,1.6,0.4,3.1,1.1,4.5l-2,5.6l5.6-2
	c1.4,0.7,2.9,1.1,4.5,1.1c2.5,0,4.8-1,6.5-2.7s2.7-4.1,2.7-6.5S18.7,4.8,16.9,3.1z M15,13l-1.1,1.1c-0.9,0.9-3.4-0.2-5.6-2.4
	C6.1,9.5,5,7,5.9,6.1L7,5c0.2-0.2,0.6-0.2,0.8,0l1.3,1.3c0.2,0.2,0.2,0.6,0,0.8L8.3,8c0.8,1.6,2.1,3,3.7,3.7l0.8-0.8
	c0.2-0.2,0.6-0.2,0.8,0l1.3,1.3C15.2,12.4,15.2,12.8,15,13z"/>
</svg>
