<?xml version="1.0" encoding="utf-8"?>
<!-- Generator: Adobe Illustrator 19.2.1, SVG Export Plug-In . SVG Version: 6.00 Build 0)  -->
<svg version="1.1" id="Слой_1" xmlns="http://www.w3.org/2000/svg" xmlns:xlink="http://www.w3.org/1999/xlink" x="0px" y="0px"
	 viewBox="0 0 500 500" style="enable-background:new 0 0 500 500;" xml:space="preserve">
<style type="text/css">
	.st0{fill:#647882;stroke:#647882;stroke-width:6.212;stroke-miterlimit:10;}
</style>
<g>
	<path class="st0" d="M143.323,371.85c-3.128,0-5.673-2.545-5.673-5.673c0-3.128,2.545-5.673,5.673-5.673l288.865-0.029
		c8.419,0,16.812-7.314,17.96-15.651l27.667-200.62L312.225,263.68c-0.568,0.37-0.985,0.568-1.504,0.752
		c-0.988,0.294-1.475,0.376-1.88,0.379h-0.014c-0.478-0.003-1.044-0.114-1.732-0.336c-1.07-0.417-1.577-0.711-1.971-1.053
		L168.582,143.702c-1.137-0.997-1.818-2.381-1.918-3.894c-0.102-1.51,0.393-2.971,1.393-4.11l0.606-0.7
		c0.889-1.038,1.729-2.017,2.962-2.959c5.658-3.889,8.701-3.889,15.371-3.889H467.11c6.539,0,12.322,2.504,16.281,7.049
		c3.965,4.544,5.652,10.617,4.761,17.094l-26.766,194.079c-1.901,13.794-15.272,25.448-29.198,25.448L143.323,371.85z
		 M309.17,251.901l155.789-112.405H180.992L309.17,251.901z"/>
	<path class="st0" d="M90.905,312.429c-3.128,0-5.673-2.544-5.673-5.673c0-3.128,2.545-5.673,5.673-5.673h143.293
		c3.128,0,5.673,2.545,5.673,5.673c0,3.128-2.545,5.673-5.673,5.673H90.905z"/>
	<path class="st0" d="M17.288,261.468c-3.128,0-5.673-2.545-5.673-5.673s2.544-5.673,5.673-5.673h185.363
		c3.128,0,5.673,2.545,5.673,5.673s-2.545,5.673-5.673,5.673H17.288z"/>
	<path class="st0" d="M72.47,210.504c-3.128,0-5.673-2.545-5.673-5.673s2.545-5.673,5.673-5.673h83.995
		c3.128,0,5.673,2.545,5.673,5.673s-2.545,5.673-5.673,5.673H72.47z"/>
</g>
</svg>
