<?xml version="1.0" encoding="utf-8"?>
<!-- Generator: Adobe Illustrator 19.2.1, SVG Export Plug-In . SVG Version: 6.00 Build 0)  -->
<svg version="1.1" id="Слой_1" xmlns="http://www.w3.org/2000/svg" xmlns:xlink="http://www.w3.org/1999/xlink" x="0px" y="0px"
	 viewBox="0 0 500 500" style="enable-background:new 0 0 500 500;" xml:space="preserve">
<style type="text/css">
	.st0{opacity:0.44;fill:#FFFFFF;stroke:#647882;stroke-width:16.483;stroke-miterlimit:10;}
	.st1{fill:#647882;}
</style>
<g>
	<circle class="st0" cx="250" cy="250" r="238.914"/>
	<g>
		<path class="st1" d="M212.378,220.908h20.545v-10.481c0-11.705,1.257-20.442,3.756-26.21c2.507-5.764,7.111-10.462,13.828-14.087
			s15.214-5.44,25.49-5.44c10.534,0,20.848,1.575,30.95,4.721l-5.006,25.683c-5.884-1.398-11.549-2.095-16.994-2.095
			c-5.354,0-9.201,1.243-11.526,3.734c-2.325,2.49-3.491,7.271-3.491,14.35v9.826h27.664v28.96h-27.664v110.209h-37.009V249.868
			h-20.545V220.908z"/>
	</g>
</g>
</svg>
