<?xml version="1.0" encoding="utf-8"?>
<!-- Generator: Adobe Illustrator 19.2.1, SVG Export Plug-In . SVG Version: 6.00 Build 0)  -->
<svg version="1.1" id="Слой_1" xmlns="http://www.w3.org/2000/svg" xmlns:xlink="http://www.w3.org/1999/xlink" x="0px" y="0px"
	 viewBox="0 0 500 500" style="enable-background:new 0 0 500 500;" xml:space="preserve">
<style type="text/css">
	.st0{fill:none;stroke:#FFFFFF;stroke-width:7.7993;stroke-miterlimit:10;}
	.st1{fill:#FFFFFF;}
</style>
<g>
	<circle class="st0" cx="250" cy="250" r="243.571"/>
	<g>
		<polygon class="st1" points="116.001,359.948 116.001,350.622 152.461,350.622 152.461,203.488 116.53,203.488 116.53,194.162 
			161.787,194.162 161.787,359.948 		"/>
		<path class="st1" d="M352.745,233.941c-2.571,0-4.663-2.092-4.663-4.663c0-2.572,2.092-4.663,4.663-4.663h10.707v-0.244
			c3.855-0.556,6.925-2.08,9.151-4.558c0.542-0.604,0.997-1.244,1.38-1.866h10.383c-1.191,3.136-2.806,5.844-4.821,8.089
			c-3.034,3.384-8.689,7.486-18.405,7.826l-0.671,0.067l0.012,0.012H352.745z"/>
		<path class="st1" d="M192.822,349.927v-9.326h140.571c8.286,0,13.294-3.647,16.229-7.311h10.876
			c-3.288,6.604-10.941,16.637-27.106,16.637H192.822z"/>
		<path class="st1" d="M192.822,196.711c18.894-7.651,56.618-29.243,56.618-79.499l0.024-0.52
			c0.616-7.778,7.186-19.702,22.733-20.038l0.249-0.004l0.245-0.036c0.771-0.115,1.943-0.242,3.383-0.242
			c4.809,0,20.67,1.759,22.826,24.377c0.168,1.426,3.8,33.008-4.577,60.15l-1.572,5.082h74.553c0.791-0.06,1.316-0.096,1.951-0.096
			c5.226,0,10.057,2.377,13.249,6.522c0.668,0.867,1.256,1.766,1.771,2.717l-106.339,0.17l3.366-6.735
			c12.899-25.79,8.521-65.148,8.329-66.811c-1.013-10.625-5.578-16.05-13.558-16.05c-1.102,0-1.908,0.117-2.195,0.17
			c0,0-1.411,0.125-1.428,0.125c-7.43,0-12.676,4.186-13.649,11.19l-0.036,0.259v0.264c-0.254,56.397-42.985,80.155-65.944,88.844
			V196.711z"/>
		<path class="st1" d="M347.685,272.647c-2.571,0-4.663-2.092-4.663-4.663c0-2.572,2.092-4.663,4.663-4.663h10.706v-0.244
			c3.856-0.556,6.925-2.08,9.151-4.558c0.522-0.582,0.966-1.2,1.339-1.802h10.397c-1.189,3.108-2.792,5.796-4.795,8.025
			c-3.033,3.384-8.689,7.486-18.405,7.826l-0.671,0.067l0.012,0.012H347.685z"/>
		<path class="st1" d="M339.71,310.893c-2.571,0-4.663-2.092-4.663-4.663c0-2.571,2.092-4.663,4.663-4.663h10.706v-0.244
			c3.856-0.556,6.925-2.08,9.151-4.558c0.465-0.518,0.867-1.064,1.21-1.598h10.445c-1.181,3.026-2.758,5.646-4.714,7.821
			c-3.033,3.383-8.689,7.486-18.405,7.826l-0.671,0.067l0.012,0.012H339.71z"/>
	</g>
</g>
</svg>
