<?xml version="1.0" encoding="utf-8"?>
<!-- Generator: Adobe Illustrator 19.2.1, SVG Export Plug-In . SVG Version: 6.00 Build 0)  -->
<svg version="1.1" id="Слой_1" xmlns="http://www.w3.org/2000/svg" xmlns:xlink="http://www.w3.org/1999/xlink" x="0px" y="0px"
	 viewBox="0 0 350.963 340" style="enable-background:new 0 0 350.963 340;" xml:space="preserve">
<style type="text/css">
	.st0{opacity:0.5;fill:#FFFFFF;}
	.st1{opacity:0.5;}
	.st2{fill:#FFFFFF;}
</style>
<g>
	<path class="st0" d="M175.482,334.403c-90.647,0-164.398-73.751-164.398-164.409c0-90.647,73.751-164.398,164.398-164.398
		S339.88,79.348,339.88,169.995C339.88,260.652,266.129,334.403,175.482,334.403z M175.482,16.561
		c-84.608,0-153.434,68.826-153.434,153.434s68.826,153.445,153.434,153.445s153.434-68.836,153.434-153.445
		S260.09,16.561,175.482,16.561z"/>
	<g class="st1">
		<path class="st2" d="M150.455,150.647h13.666v-6.972c0-7.786,0.836-13.598,2.499-17.434c1.667-3.834,4.73-6.959,9.198-9.37
			c4.468-2.411,10.12-3.619,16.956-3.619c7.007,0,13.868,1.048,20.588,3.14l-3.33,17.084c-3.914-0.93-7.682-1.393-11.304-1.393
			c-3.561,0-6.12,0.827-7.667,2.483c-1.546,1.656-2.322,4.837-2.322,9.545v6.536h18.401v19.264h-18.401v73.309h-24.617v-73.309
			h-13.666V150.647z"/>
	</g>
</g>
</svg>
