<?xml version="1.0" encoding="utf-8"?>
<!-- Generator: Adobe Illustrator 19.2.1, SVG Export Plug-In . SVG Version: 6.00 Build 0)  -->
<svg version="1.1" id="Слой_1" xmlns="http://www.w3.org/2000/svg" xmlns:xlink="http://www.w3.org/1999/xlink" x="0px" y="0px"
	 viewBox="0 0 350.963 340" style="enable-background:new 0 0 350.963 340;" xml:space="preserve">
<style type="text/css">
	.st0{opacity:0.5;fill:#FFFFFF;}
</style>
<g>
	<path class="st0" d="M175.476,334.403c-90.647,0-164.398-73.751-164.398-164.409c0-90.647,73.751-164.398,164.398-164.398
		c90.658,0,164.409,73.751,164.409,164.398C339.885,260.652,266.134,334.403,175.476,334.403z M175.476,16.561
		c-84.608,0-153.434,68.826-153.434,153.434s68.826,153.445,153.434,153.445s153.445-68.836,153.445-153.445
		S260.084,16.561,175.476,16.561z"/>
	<path class="st0" d="M133.952,117.509h47.245c9.352,0,16.329,0.39,20.924,1.168c4.595,0.781,8.707,2.407,12.334,4.879
		s6.654,5.764,9.075,9.875c2.414,4.115,3.627,8.723,3.627,13.828c0,5.538-1.491,10.617-4.479,15.238
		c-2.982,4.624-7.029,8.09-12.134,10.401c7.203,2.098,12.741,5.673,16.613,10.724c3.866,5.054,5.802,10.995,5.802,17.82
		c0,5.373-1.246,10.601-3.75,15.68c-2.498,5.079-5.912,9.139-10.236,12.176c-4.331,3.037-9.662,4.905-16.006,5.602
		c-3.976,0.432-13.573,0.7-28.786,0.807h-40.229V117.509z M157.813,137.182v27.333h15.645c9.3,0,15.077-0.136,17.336-0.403
		c4.086-0.484,7.293-1.894,9.636-4.234c2.336-2.336,3.505-5.415,3.505-9.23c0-3.656-1.007-6.625-3.021-8.91
		c-2.02-2.285-5.015-3.669-8.991-4.153c-2.369-0.268-9.165-0.403-20.402-0.403H157.813z M157.813,184.188v31.606h22.093
		c8.603,0,14.057-0.242,16.368-0.726c3.55-0.645,6.435-2.217,8.668-4.718c2.233-2.498,3.35-5.844,3.35-10.036
		c0-3.547-0.865-6.557-2.582-9.029c-1.723-2.472-4.208-4.276-7.461-5.402c-3.253-1.129-10.307-1.694-21.163-1.694H157.813z"/>
</g>
</svg>
