<?xml version="1.0" encoding="utf-8"?>
<!-- Generator: Adobe Illustrator 19.2.1, SVG Export Plug-In . SVG Version: 6.00 Build 0)  -->
<svg version="1.1" id="Слой_1" xmlns="http://www.w3.org/2000/svg" xmlns:xlink="http://www.w3.org/1999/xlink" x="0px" y="0px"
	 viewBox="0 0 350.963 340" style="enable-background:new 0 0 350.963 340;" xml:space="preserve">
<style type="text/css">
	.st0{fill:#FFFFFF;stroke:#FFFFFF;stroke-width:4.5094;stroke-miterlimit:10;}
</style>
<g>
	<path class="st0" d="M98.044,258.452c-2.27,0-4.118-1.847-4.118-4.118c0-2.271,1.847-4.118,4.118-4.118l209.689-0.021
		c6.111,0,12.204-5.309,13.037-11.361l20.084-145.632l-120.203,86.729c-0.413,0.269-0.715,0.413-1.092,0.546
		c-0.717,0.214-1.07,0.273-1.365,0.275h-0.01c-0.347-0.002-0.758-0.083-1.257-0.244c-0.777-0.303-1.145-0.516-1.431-0.764
		l-99.117-86.907c-0.825-0.724-1.32-1.729-1.392-2.827c-0.074-1.096,0.286-2.156,1.011-2.984l0.44-0.508
		c0.645-0.753,1.255-1.464,2.15-2.148c4.107-2.823,6.316-2.823,11.158-2.823h203.337c4.747,0,8.945,1.818,11.818,5.117
		c2.878,3.299,4.103,7.707,3.456,12.409l-19.43,140.884c-1.38,10.013-11.086,18.473-21.195,18.473L98.044,258.452z M218.434,171.38
		l113.089-81.596H125.388L218.434,171.38z"/>
	<path class="st0" d="M59.993,215.318c-2.27,0-4.118-1.847-4.118-4.118c0-2.27,1.847-4.118,4.118-4.118H164.01
		c2.27,0,4.118,1.847,4.118,4.118c0,2.271-1.847,4.118-4.118,4.118H59.993z"/>
	<path class="st0" d="M6.554,178.325c-2.271,0-4.118-1.847-4.118-4.118s1.847-4.118,4.118-4.118H141.11
		c2.27,0,4.118,1.847,4.118,4.118s-1.847,4.118-4.118,4.118H6.554z"/>
	<path class="st0" d="M46.611,141.329c-2.27,0-4.118-1.847-4.118-4.118s1.847-4.118,4.118-4.118h60.973
		c2.27,0,4.118,1.847,4.118,4.118s-1.847,4.118-4.118,4.118H46.611z"/>
</g>
</svg>
