<?xml version="1.0" encoding="utf-8"?>
<!-- Generator: Adobe Illustrator 19.2.1, SVG Export Plug-In . SVG Version: 6.00 Build 0)  -->
<svg version="1.1" id="Слой_1" xmlns="http://www.w3.org/2000/svg" xmlns:xlink="http://www.w3.org/1999/xlink" x="0px" y="0px"
	 viewBox="0 0 350.963 340" style="enable-background:new 0 0 350.963 340;" xml:space="preserve">
<style type="text/css">
	.st0{fill:#FFFFFF;}
</style>
<g>
	<path class="st0" d="M175.478,331.136c-2.442,0-4.727-1.303-5.977-3.402c-9.846-16.595-96.256-163.696-96.256-216.63
		c0-56.375,45.864-102.24,102.232-102.24c56.376,0,102.24,45.865,102.24,102.24c0,52.919-86.416,200.032-96.263,216.634
		C180.205,329.833,177.92,331.136,175.478,331.136z M175.478,22.76c-48.706,0-88.337,39.63-88.337,88.344
		c0,41.152,63.723,156.213,83.253,190.495l5.084,8.922l5.084-8.922c19.53-34.29,83.261-149.365,83.261-190.495
		C263.822,62.39,224.191,22.76,175.478,22.76z"/>
	<path class="st0" d="M175.478,167.344c-31.004,0-56.232-25.231-56.232-56.24c0-31.008,25.228-56.24,56.232-56.24
		c31.012,0,56.24,25.232,56.24,56.24C231.718,142.113,206.49,167.344,175.478,167.344z M175.478,68.76
		c-23.343,0-42.337,18.994-42.337,42.344c0,23.35,18.994,42.345,42.337,42.345c23.35,0,42.344-18.994,42.344-42.345
		C217.822,87.754,198.828,68.76,175.478,68.76z"/>
</g>
</svg>
