<?xml version="1.0" encoding="utf-8"?>
<!-- Generator: Adobe Illustrator 19.2.1, SVG Export Plug-In . SVG Version: 6.00 Build 0)  -->
<svg version="1.1" id="Слой_1" xmlns="http://www.w3.org/2000/svg" xmlns:xlink="http://www.w3.org/1999/xlink" x="0px" y="0px"
	 viewBox="0 0 342.333 71.718" style="enable-background:new 0 0 342.333 71.718;" xml:space="preserve">
<style type="text/css">
	.st0{opacity:0.73;}
	.st1{fill:#FFFFFF;}
	.st2{fill-rule:evenodd;clip-rule:evenodd;fill:#FFFFFF;}
</style>
<g class="st0">
	<path class="st1" d="M342.333,71.047V25.149h-9.114v45.898H342.333z M324.039,71.047l4.524-4.524V43.573l-4.524-4.59h-27.473
		V25.149h-9.18v45.898H324.039z M296.566,61.867V48.163h22.883v13.703H296.566z M239.718,71.047V40.098l12.261,17.638h7.672
		l11.999-17.638v30.948h9.18V25.149h-8.852l-16.26,22.228l-15.999-22.228h-9.18v45.898H239.718z M165.167,71.047V34.328H181.1v-9.18
		h-41.177v9.18h16.064v36.718H165.167z M131.465,71.047l4.524-4.524v-9.18h-9.114v4.524h-22.883V34.328h22.883v4.59h9.114v-9.114
		l-4.524-4.655H99.337l-4.525,4.655v36.718l4.525,4.524H131.465z M56.258,71.047l22.883-30.62v30.62h9.114V25.149h-9.114
		L56.258,55.703V25.149h-9.18v45.898H56.258z M36.653,71.047l4.524-4.524v-9.18h-9.114v4.524H9.18V34.328h22.883v4.59h9.114v-9.114
		l-4.524-4.655H4.525L0,29.804v36.718l4.525,4.524H36.653z"/>
	<rect x="201.327" y="61.87" class="st2" width="23.786" height="9.176"/>
	<rect x="201.327" y="25.149" class="st2" width="23.786" height="9.176"/>
	<rect x="201.327" y="43.51" class="st2" width="23.786" height="9.176"/>
	<rect x="186.95" y="25.148" class="st2" width="9.201" height="45.899"/>
	<path class="st1" d="M166.359,8.979c0.382-3.476,2.746-6.049,5.84-6.049c3.546,0,5.423,2.781,5.736,6.049H166.359z M172.616,19.443
		c3.407,0,5.597-1.356,7.404-3.372l-1.668-1.495c-1.46,1.53-3.198,2.538-5.666,2.538c-3.164,0-5.944-2.19-6.327-5.979h14.252
		c0.035-0.417,0.035-0.695,0.035-0.938c0-5.284-3.059-9.525-8.378-9.525c-4.971,0-8.621,4.171-8.621,9.386
		C163.647,15.653,167.68,19.443,172.616,19.443z M142.825,19.025h2.572l10.707-14.218v14.218h2.677V1.053h-2.607l-10.672,14.218
		V1.053h-2.677V19.025z M123.114,19.025h2.677V14.68l3.789-3.893l6.396,8.239h3.163L131.423,8.84l7.509-7.787h-3.302l-9.838,10.359
		V1.053h-2.677V19.025z M111.365,19.443c3.372,0,5.527-1.46,7.335-3.476l-1.773-1.634c-1.425,1.53-3.129,2.712-5.423,2.712
		c-3.754,0-6.605-3.094-6.605-6.987c0-3.928,2.781-7.022,6.431-7.022c2.433,0,4.102,1.147,5.527,2.642l1.703-1.808
		c-1.668-1.773-3.789-3.198-7.196-3.198c-5.249,0-9.212,4.31-9.212,9.386C102.153,15.167,106.116,19.443,111.365,19.443z
		 M84.529,16.661c1.251-2.329,2.12-6.292,2.12-10.742V3.417h7.543v13.244H84.529z M79.732,23.51h2.19l0.486-4.484h14.531v4.484
		h2.225l0.417-6.848h-2.712V1.053H84.077v3.129c0,6.049-0.938,9.803-2.399,12.479h-1.947V23.51z M68.121,17.253
		c-2.433,0-4.519-1.321-4.519-3.581c0-2.225,1.912-3.685,5.249-3.685c2.19,0,3.928,0.382,5.249,0.765v1.669
		C74.1,15.271,71.423,17.253,68.121,17.253z M67.599,19.408c3.163,0,5.214-1.46,6.466-3.059v2.677h2.642V8.04
		c0-2.294-0.626-4.032-1.877-5.284c-1.286-1.286-3.268-1.981-5.805-1.981c-2.642,0-4.554,0.626-6.536,1.529l0.8,2.19
		c1.668-0.765,3.337-1.286,5.458-1.286c3.372,0,5.318,1.668,5.318,4.866v0.556c-1.599-0.452-3.198-0.765-5.492-0.765
		c-4.554,0-7.682,2.016-7.682,5.875C60.891,17.496,64.228,19.408,67.599,19.408z M40.137,19.303c3.407,0,5.944-1.46,5.944-15.469
		V3.417h7.509v15.608h2.676V1.053H43.544v1.495c0,13.488-1.808,14.426-3.963,14.426c-0.313,0-0.939-0.139-1.286-0.243l-0.313,2.294
		C38.538,19.164,39.546,19.303,40.137,19.303z M21.296,19.025h2.677V14.68l3.789-3.893l6.396,8.239h3.164L29.604,8.84l7.509-7.787
		h-3.302l-9.838,10.359V1.053h-2.677V19.025z M9.547,19.443c3.372,0,5.527-1.46,7.335-3.476l-1.773-1.634
		c-1.425,1.53-3.129,2.712-5.423,2.712c-3.754,0-6.605-3.094-6.605-6.987c0-3.928,2.781-7.022,6.431-7.022
		c2.433,0,4.102,1.147,5.527,2.642l1.703-1.808c-1.668-1.773-3.789-3.198-7.196-3.198c-5.249,0-9.212,4.31-9.212,9.386
		C0.335,15.167,4.298,19.443,9.547,19.443z"/>
</g>
</svg>
