<?xml version="1.0" encoding="utf-8"?>
<!-- Generator: Adobe Illustrator 19.2.1, SVG Export Plug-In . SVG Version: 6.00 Build 0)  -->
<svg version="1.1" id="Слой_1" xmlns="http://www.w3.org/2000/svg" xmlns:xlink="http://www.w3.org/1999/xlink" x="0px" y="0px"
	 viewBox="0 0 500 500" style="enable-background:new 0 0 500 500;" xml:space="preserve">
<style type="text/css">
	.st0{fill:#FFFFFF;}
	.st1{fill:none;stroke:#FFFFFF;stroke-width:7.7993;stroke-miterlimit:10;}
</style>
<g>
	<g>
		<path class="st0" d="M153.018,403.698c-9.136,0-18.699-4.326-26.233-11.864c-6.251-6.249-10.341-13.975-11.523-21.759
			c-1.25-8.255,0.875-15.619,5.986-20.728l125.843-125.846c-10.295-28.825-3.142-61.046,18.608-82.793
			c14.948-14.95,34.834-23.185,55.997-23.185c11.229,0,22.107,2.308,32.333,6.854l5.62,2.496l-56.226,56.217l32.1,32.102
			l56.221-56.219l2.496,5.615c13.254,29.808,6.691,65.308-16.336,88.33c-14.971,14.974-34.88,23.222-56.065,23.222l0,0
			c-9.174-0.002-18.15-1.553-26.728-4.614L169.272,397.369C165.132,401.509,159.508,403.698,153.018,403.698z M321.697,125.966
			c-18.906,0-36.675,7.355-50.03,20.71c-20.023,20.025-26.206,49.986-15.745,76.327l1.026,2.581L127.216,355.315
			c-3.165,3.167-4.447,7.959-3.609,13.496c0.916,6.016,4.159,12.07,9.146,17.055c5.88,5.88,13.456,9.389,20.266,9.389
			c2.931,0,7.099-0.669,10.286-3.856L293.027,261.67l2.583,1.024c8.363,3.318,17.188,5.003,26.229,5.006
			c18.928,0,36.72-7.369,50.098-20.751c19.088-19.089,25.514-47.781,16.872-73.105l-53.286,53.286l-44.034-44.039l53.29-53.29
			C337.373,127.253,329.629,125.966,321.697,125.966z M156.247,379.114c-4.474,0-8.679-1.743-11.843-4.905
			c-6.526-6.529-6.526-17.147,0-23.675c6.329-6.327,17.353-6.327,23.682,0c3.16,3.163,4.9,7.367,4.9,11.837
			c0,4.472-1.74,8.676-4.9,11.839C164.921,377.371,160.717,379.114,156.247,379.114z M156.247,354.071
			c-2.221,0-4.305,0.863-5.876,2.432c-3.234,3.235-3.234,8.5,0,11.736c3.137,3.137,8.61,3.137,11.747,0
			c3.234-3.235,3.234-8.5,0-11.736C160.548,354.935,158.464,354.071,156.247,354.071z"/>
	</g>
	<circle class="st1" cx="250" cy="250" r="243.571"/>
</g>
</svg>
