<?xml version="1.0" encoding="utf-8"?>
<!-- Generator: Adobe Illustrator 19.2.1, SVG Export Plug-In . SVG Version: 6.00 Build 0)  -->
<svg version="1.1" id="Слой_1" xmlns="http://www.w3.org/2000/svg" xmlns:xlink="http://www.w3.org/1999/xlink" x="0px" y="0px"
	 viewBox="0 0 500 500" style="enable-background:new 0 0 500 500;" xml:space="preserve">
<style type="text/css">
	.st0{fill:#FFFFFF;}
	.st1{fill:none;stroke:#FFFFFF;stroke-width:7.7993;stroke-miterlimit:10;}
	.st2{fill:#FFFFFF;stroke:#2C638C;stroke-width:0.9749;stroke-miterlimit:10;}
</style>
<g>
	<g>
		<path class="st0" d="M153.446,3524.307c-9.136,0-18.699-4.326-26.233-11.864c-6.251-6.249-10.341-13.975-11.523-21.759
			c-1.25-8.255,0.875-15.619,5.986-20.728l125.843-125.846c-10.295-28.825-3.142-61.046,18.608-82.793
			c14.948-14.95,34.834-23.185,55.997-23.185c11.229,0,22.107,2.308,32.333,6.854l5.62,2.496l-56.226,56.217l32.1,32.102
			l56.221-56.219l2.496,5.615c13.254,29.808,6.691,65.308-16.336,88.331c-14.971,14.974-34.88,23.222-56.065,23.222l0,0
			c-9.174-0.002-18.15-1.553-26.728-4.614L169.7,3517.978C165.56,3522.118,159.936,3524.307,153.446,3524.307z M322.125,3246.575
			c-18.906,0-36.675,7.355-50.03,20.71c-20.023,20.025-26.206,49.986-15.745,76.327l1.026,2.581l-129.732,129.732
			c-3.165,3.167-4.447,7.959-3.609,13.496c0.916,6.016,4.159,12.07,9.146,17.055c5.88,5.88,13.456,9.389,20.266,9.389
			c2.931,0,7.099-0.669,10.286-3.856l129.722-129.729l2.583,1.024c8.363,3.318,17.188,5.003,26.229,5.006
			c18.928,0,36.72-7.369,50.098-20.751c19.088-19.089,25.514-47.781,16.872-73.105l-53.286,53.286l-44.034-44.039l53.29-53.29
			C337.801,3247.862,330.057,3246.575,322.125,3246.575z M156.675,3499.723c-4.474,0-8.679-1.743-11.843-4.905
			c-6.526-6.529-6.526-17.147,0-23.676c6.329-6.327,17.353-6.327,23.682,0c3.16,3.163,4.9,7.367,4.9,11.837
			c0,4.472-1.74,8.676-4.9,11.839C165.349,3497.98,161.145,3499.723,156.675,3499.723z M156.675,3474.681
			c-2.221,0-4.305,0.863-5.876,2.432c-3.234,3.236-3.234,8.5,0,11.736c3.137,3.137,8.61,3.137,11.747,0
			c3.234-3.235,3.234-8.5,0-11.736C160.976,3475.544,158.892,3474.681,156.675,3474.681z"/>
	</g>
	<circle class="st1" cx="250.428" cy="3370.609" r="243.571"/>
</g>
<g>
	<circle class="st1" cx="250" cy="250" r="243.571"/>
	<path class="st0" d="M247.691,273.153c-2.785,0-5.051-2.263-5.051-5.051v-40.188c0-2.785,2.266-5.051,5.051-5.051
		c2.785,0,5.051,2.266,5.051,5.051v40.188C252.742,270.89,250.476,273.153,247.691,273.153z"/>
	<g>
		<path class="st0" d="M350.124,379.983c-2.082,0-3.925-1.251-4.695-3.187l-49.457-124.315h-18.972v-10.102h14.927l-26.447-67.221
			c12.368-6.499,20.42-19.529,20.42-33.642c0-20.954-17.045-38-38-38s-38,17.045-38,38c0,14.165,7.745,26.891,20.048,33.468
			l-26.034,67.395h14.883v10.102H199.83l-49.457,124.315c-0.771,1.936-2.614,3.187-4.695,3.187c-0.636,0-1.264-0.12-1.864-0.358
			c-1.253-0.498-2.237-1.459-2.772-2.699c-0.532-1.235-0.553-2.606-0.054-3.862l47.972-120.582h-44.39
			c-2.785,0-5.051-2.263-5.051-5.051c0-2.788,2.266-5.051,5.051-5.051h48.411l25.104-63.107l-2.217-1.983
			c-10.211-9.126-16.069-22.166-16.069-35.773c0-26.522,21.58-48.102,48.102-48.102s48.102,21.58,48.102,48.102
			c0,13.606-5.858,26.647-16.069,35.773l-2.217,1.983l25.104,63.107h48.411c2.785,0,5.051,2.263,5.051,5.051
			c0,2.788-2.266,5.051-5.051,5.051h-44.39l47.972,120.582c0.499,1.257,0.477,2.627-0.055,3.862
			c-0.534,1.241-1.518,2.201-2.772,2.699C351.389,379.864,350.76,379.983,350.124,379.983z"/>
	</g>
</g>
<g>
	<circle class="st1" cx="250.428" cy="2593.115" r="243.571"/>
	<g>
		<g>
			<g>
				<path class="st2" d="M287.517,2688.768l-0.447-5.34c-0.315-3.773-1.19-7.469-2.597-10.982c-1.411-3.525-3.328-6.803-5.7-9.748
					l-3.363-4.172l118.549-47.437l12.106,30.232L287.517,2688.768z M288.014,2662.02c1.494,2.365,2.771,4.865,3.816,7.476
					c1.045,2.612,1.848,5.302,2.397,8.049l101.534-40.636l-6.213-15.52L288.014,2662.02z"/>
			</g>
		</g>
		<g>
			<g>
				<path class="st2" d="M237.168,2742.151h-0.002c-18.923,0-35.694-11.354-42.726-28.922c-7.561-18.896-1.997-40.164,13.848-52.927
					c3.562-2.863,7.523-5.181,11.772-6.884c4.278-1.706,8.743-2.763,13.277-3.134c15.007-1.242,30.207,5.259,39.647,16.984
					c2.865,3.556,5.182,7.519,6.884,11.772c1.701,4.253,2.757,8.719,3.138,13.266c1.693,20.277-9.864,38.98-28.758,46.541
					C248.769,2741.04,243.022,2742.151,237.168,2742.151z M237.152,2658.05c-1.052,0-2.105,0.042-3.162,0.132
					c-3.753,0.31-7.447,1.18-10.988,2.596c-3.516,1.409-6.795,3.324-9.744,5.7c-13.113,10.561-17.72,28.164-11.462,43.805
					c5.822,14.542,19.705,23.942,35.369,23.942h0.002c4.841,0,9.597-0.921,14.136-2.74c15.639-6.257,25.205-21.736,23.805-38.519
					c-0.315-3.765-1.19-7.461-2.599-10.982c-1.41-3.521-3.328-6.803-5.698-9.748C259.661,2663.355,248.572,2658.05,237.152,2658.05z
					 M237.164,2714.61c-7.598,0-14.336-4.559-17.158-11.613c-1.834-4.582-1.772-9.601,0.17-14.136
					c1.942-4.54,5.536-8.045,10.115-9.875c2.196-0.879,4.505-1.327,6.857-1.327c7.596,0,14.33,4.558,17.151,11.617
					c1.834,4.574,1.774,9.593-0.166,14.132c-1.942,4.536-5.533,8.045-10.115,9.88C241.819,2714.165,239.515,2714.61,237.164,2714.61
					z M237.148,2685.583c-1.339,0-2.657,0.256-3.914,0.762c-2.616,1.045-4.665,3.045-5.774,5.635
					c-1.109,2.589-1.144,5.456-0.099,8.072c1.614,4.029,5.462,6.633,9.802,6.633c1.339,0,2.655-0.256,3.91-0.759
					c2.612-1.045,4.663-3.049,5.772-5.638c1.109-2.593,1.143-5.456,0.097-8.068C245.329,2688.187,241.484,2685.583,237.148,2685.583
					z"/>
			</g>
		</g>
		<g>
			<g>
				<path class="st2" d="M207.471,2657.872l-49.602-123.949l-57.117-24.47l12.828-29.942l67.064,28.735l2.452,1.051l1.221,3.051
					l53.395,133.425l-5.338,0.445c-3.775,0.317-7.47,1.192-10.984,2.601c-3.516,1.401-6.792,3.32-9.744,5.696L207.471,2657.872z
					 M111.158,2505.288l52.849,22.644l46.959,117.34c2.368-1.498,4.872-2.775,7.48-3.816c2.608-1.045,5.3-1.846,8.043-2.395
					l-48.503-121.206l-3.159-3.481l-57.083-24.458L111.158,2505.288z"/>
			</g>
		</g>
		<g>
			<g>
				<path class="st2" d="M330.688,2498.356l40.936,102.292l-102.292,40.932l-40.936-102.291l38.022-15.214l10.957,27.384
					l26.248-10.502l-10.959-27.386L330.688,2498.356 M311.997,2596.105l3.38-1.354l4.984,12.457l3.748-1.498l-4.984-12.459
					l3.382-1.354l-8.9-7L311.997,2596.105 M298.851,2601.364l3.382-1.354l4.984,12.457l3.748-1.494l-4.984-12.46l3.382-1.354
					l-8.9-7.002L298.851,2601.364 M302.27,2620.548l30.995-12.401l-1.384-3.463l-30.992,12.4L302.27,2620.548 M335.101,2488.053
					l-7.358,2.945l-38.024,15.216l-7.358,2.945l2.945,7.358l8.014,20.028l-11.532,4.613l-8.012-20.026l-2.945-7.358l-7.358,2.945
					l-38.022,15.214l-7.359,2.945l2.945,7.358l40.936,102.291l2.945,7.356l7.359-2.945l102.292-40.93l7.358-2.945l-2.945-7.358
					l-40.936-102.293L335.101,2488.053L335.101,2488.053z"/>
			</g>
		</g>
	</g>
</g>
</svg>
