<?xml version="1.0" encoding="utf-8"?>
<!-- Generator: Adobe Illustrator 23.0.3, SVG Export Plug-In . SVG Version: 6.00 Build 0)  -->
<svg version="1.1" id="Слой_1" xmlns="http://www.w3.org/2000/svg" xmlns:xlink="http://www.w3.org/1999/xlink" x="0px" y="0px"
	 viewBox="0 0 16 16" style="enable-background:new 0 0 16 16;" xml:space="preserve">
<style type="text/css">
	.st0{fill:none;}
	.st1{fill-rule:evenodd;clip-rule:evenodd;fill:#FE3D32;}
	.st2{fill-rule:evenodd;clip-rule:evenodd;fill:#D72D24;}
</style>
<g>
	<rect y="0" class="st0" width="16" height="16"/>
	<path class="st1" d="M8,0C8,0,8,0,8,0c0,0.3-0.3,0.6-0.7,0.9C5.8,2.1,2.4,3.2,1,3.2c0,0.3,0,0.7,0,1C1.4,15,8,16,8,16s0,0,0,0v-5.1
		H7.1V8.6H4.7V6.9h2.4V4.6H8V0z"/>
	<path class="st2" d="M8,0c0,0.3,0.3,0.6,0.7,0.9c1.5,1.1,4.9,2.3,6.3,2.3c0,0.3,0,0.7,0,1C14.6,15,8,16,8,16v-5.1h0.9V8.6h2.4V6.9
		H8.9V4.6H8V0z"/>
</g>
</svg>
