<svg width="381" height="73" viewBox="0 0 381 73" fill="none" xmlns="http://www.w3.org/2000/svg">
<path d="M101.6 12.776C94.9867 12.776 91.68 19.1547 91.68 31.912V36.968C91.68 43.0267 92.5547 47.784 94.304 51.24C96.0534 54.6533 98.6347 56.36 102.048 56.36C106.741 56.36 111.051 51.7947 114.976 42.664H116.128L115.68 56.936H114.976C114.72 56.4667 114.485 56.1467 114.272 55.976C114.059 55.7627 113.739 55.656 113.312 55.656C112.928 55.656 111.392 55.9973 108.704 56.68C106.016 57.32 103.285 57.64 100.512 57.64C93.5574 57.64 88.16 55.7627 84.32 52.008C80.5227 48.2533 78.624 42.6213 78.624 35.112C78.624 27.56 80.608 21.736 84.576 17.64C88.5867 13.544 93.9627 11.496 100.704 11.496C103.307 11.496 105.845 11.8373 108.32 12.52C110.837 13.16 112.309 13.48 112.736 13.48C113.163 13.48 113.483 13.3947 113.696 13.224C113.909 13.0107 114.144 12.6693 114.4 12.2H115.104L115.616 26.088H114.464C112.544 21.7787 110.56 18.4933 108.512 16.232C106.507 13.928 104.203 12.776 101.6 12.776Z" fill="black"/>
<path d="M117.945 27.688V26.536H136.505V27.688H133.049L140.025 48.936L147.449 27.688H143.161V26.536H152.185V27.688H148.985L137.017 62.184C135.609 66.1947 134.03 68.9893 132.281 70.568C130.532 72.1893 128.398 73 125.881 73C123.364 73 121.38 72.424 119.929 71.272C118.478 70.12 117.753 68.648 117.753 66.856C117.753 65.064 118.222 63.6987 119.161 62.76C120.1 61.8213 121.337 61.352 122.873 61.352C126.414 61.352 128.185 62.824 128.185 65.768C128.185 66.408 128.057 67.176 127.801 68.072H125.561C125.22 69.0533 125.177 69.864 125.433 70.504C125.689 71.144 126.265 71.464 127.161 71.464C128.91 71.464 130.468 70.5893 131.833 68.84C133.198 67.1333 134.5 64.5093 135.737 60.968L137.145 57H131.513L120.569 27.688H117.945Z" fill="black"/>
<path d="M174.75 39.784C174.75 35.3893 174.537 32.4453 174.11 30.952C173.683 29.416 172.851 28.648 171.614 28.648C170.377 28.648 169.267 29.416 168.286 30.952C167.305 32.488 166.814 34.6 166.814 37.288V49.192C166.814 51.0267 167.177 52.584 167.902 53.864C168.67 55.144 169.737 55.784 171.102 55.784C172.51 55.784 173.47 54.8453 173.982 52.968C174.494 51.0907 174.75 47.8053 174.75 43.112V39.784ZM166.814 9V31.4C168.435 27.7307 171.209 25.896 175.134 25.896C183.113 25.896 187.102 31.208 187.102 41.832C187.102 47.2507 185.993 51.24 183.774 53.8C181.598 56.36 178.313 57.64 173.918 57.64C171.699 57.64 169.993 57.2987 168.798 56.616C167.646 55.9333 166.857 54.8027 166.43 53.224L165.982 57H151.39V55.848H154.91V10.152H151.39V9H166.814Z" fill="black"/>
<path d="M205.847 57.64C200.343 57.64 196.204 56.232 193.431 53.416C190.7 50.5573 189.335 46.6107 189.335 41.576C189.335 36.4987 190.871 32.616 193.943 29.928C197.058 27.24 201.004 25.896 205.783 25.896C215.468 25.896 220.119 30.76 219.735 40.488H201.687V42.984C201.687 47.1653 202.22 50.3227 203.287 52.456C204.354 54.5893 206.21 55.656 208.855 55.656C213.804 55.656 217.047 53.0107 218.583 47.72L219.735 47.912C218.924 50.984 217.452 53.3733 215.319 55.08C213.228 56.7867 210.071 57.64 205.847 57.64ZM201.751 39.208H208.343V36.072C208.343 32.616 208.13 30.2693 207.703 29.032C207.319 27.752 206.508 27.112 205.271 27.112C204.076 27.112 203.18 27.7947 202.583 29.16C202.028 30.4827 201.751 32.7867 201.751 36.072V39.208Z" fill="black"/>
<path d="M243.391 28.328C241.812 28.328 240.426 29.352 239.231 31.4C238.036 33.448 237.439 35.88 237.439 38.696V55.848H241.983V57H222.015V55.848H225.535V27.688H222.015V26.536H237.439V32.68C237.994 30.504 239.06 28.84 240.639 27.688C242.218 26.4933 244.01 25.896 246.015 25.896C248.02 25.896 249.642 26.472 250.879 27.624C252.159 28.7333 252.799 30.3333 252.799 32.424C252.799 34.472 252.33 36.0507 251.391 37.16C250.452 38.2693 249.002 38.824 247.039 38.824C245.119 38.824 243.69 38.184 242.751 36.904C241.855 35.624 241.748 33.8533 242.431 31.592H244.735C245.802 29.416 245.354 28.328 243.391 28.328Z" fill="black"/>
<path d="M256.903 47.848V27.688H253.383V26.536H256.903V18.28L268.807 15.336V26.536H277.127V27.688H268.807V49.256C268.807 51.2613 268.999 52.7333 269.383 53.672C269.809 54.6107 270.663 55.08 271.943 55.08C273.223 55.08 274.332 54.44 275.271 53.16C276.252 51.88 276.892 50.1307 277.191 47.912L278.279 48.04C277.937 50.984 276.999 53.3307 275.463 55.08C273.927 56.7867 271.388 57.64 267.847 57.64C264.305 57.64 261.596 56.936 259.719 55.528C257.841 54.12 256.903 51.56 256.903 47.848Z" fill="black"/>
<path d="M295.722 57.64C290.218 57.64 286.079 56.232 283.306 53.416C280.575 50.5573 279.21 46.6107 279.21 41.576C279.21 36.4987 280.746 32.616 283.818 29.928C286.933 27.24 290.879 25.896 295.658 25.896C305.343 25.896 309.994 30.76 309.61 40.488H291.562V42.984C291.562 47.1653 292.095 50.3227 293.162 52.456C294.229 54.5893 296.085 55.656 298.73 55.656C303.679 55.656 306.922 53.0107 308.458 47.72L309.61 47.912C308.799 50.984 307.327 53.3733 305.194 55.08C303.103 56.7867 299.946 57.64 295.722 57.64ZM291.626 39.208H298.218V36.072C298.218 32.616 298.005 30.2693 297.578 29.032C297.194 27.752 296.383 27.112 295.146 27.112C293.951 27.112 293.055 27.7947 292.458 29.16C291.903 30.4827 291.626 32.7867 291.626 36.072V39.208Z" fill="black"/>
<path d="M329.81 27.048C327.933 27.048 326.589 28.072 325.778 30.12C324.967 32.168 324.562 35.56 324.562 40.296V43.624C324.562 47.848 325.031 50.8773 325.97 52.712C326.909 54.5467 328.637 55.464 331.154 55.464C333.671 55.464 335.677 54.6107 337.17 52.904C338.663 51.1973 339.623 49.256 340.05 47.08L341.202 47.208C340.391 50.8773 338.898 53.5227 336.722 55.144C334.503 56.808 331.453 57.64 327.57 57.64C322.621 57.64 318.823 56.3173 316.178 53.672C313.533 50.984 312.21 47.08 312.21 41.96C312.21 36.7973 313.703 32.8293 316.69 30.056C319.719 27.2827 323.922 25.896 329.298 25.896C333.095 25.896 335.997 26.6427 338.002 28.136C340.007 29.5867 341.01 31.4213 341.01 33.64C341.01 35.8587 340.519 37.48 339.538 38.504C338.599 39.528 337.277 40.04 335.57 40.04C333.906 40.04 332.562 39.592 331.538 38.696C330.514 37.8 330.002 36.4773 330.002 34.728C330.002 33.96 330.109 33.192 330.322 32.424H332.434C332.733 31.5707 332.882 30.8027 332.882 30.12C332.882 28.072 331.858 27.048 329.81 27.048Z" fill="black"/>
<path d="M342.203 9H357.627V32.424C358.309 30.4613 359.355 28.8827 360.763 27.688C362.171 26.4933 364.304 25.896 367.163 25.896C373.776 25.896 377.083 29.4587 377.083 36.584V55.848H380.667V57H362.555V55.848H365.179V35.048C365.179 32.488 365.008 30.8453 364.667 30.12C364.325 29.352 363.707 28.968 362.811 28.968C361.445 28.968 360.229 29.864 359.163 31.656C358.139 33.448 357.627 35.624 357.627 38.184V55.848H360.379V57H342.203V55.848H345.723V10.152H342.203V9Z" fill="black"/>
<path fill-rule="evenodd" clip-rule="evenodd" d="M54 13.2923C48.6261 13.2923 35.4811 8.54831 29.7485 3.93874C28.0482 2.57158 27 1.21622 27 0C27 1.21622 25.9518 2.57158 24.2516 3.93874C18.5189 8.54831 5.37389 13.2923 0 13.2923C0 14.7013 0.0225665 16.0733 0.0664163 17.4092C1.53854 62.2833 27 66.4615 27 66.4615C27 66.4615 52.4615 62.2833 53.9336 17.4092C53.9774 16.0733 54 14.7013 54 13.2923ZM26.9981 14.5385C21.5941 19.4416 19.514 25.0898 23.8083 32.1638C24.7891 34.3128 25.5618 36.5316 25.4032 39.0702H28.5929C28.4343 36.5316 29.207 34.3128 30.1878 32.1638C34.4821 25.0898 32.402 19.4416 26.9981 14.5385ZM20.7267 39.0708H33.2734C33.9512 39.0708 34.5008 39.5405 34.5008 40.1198C34.5008 40.6992 33.9512 41.1689 33.2734 41.1689H30.3744C31.5832 43.6071 33.0379 44.7783 34.4934 45.9501L34.4941 45.9507L34.4942 45.9508C34.7044 46.12 34.9147 46.2893 35.1242 46.4624C33.2626 46.4697 31.412 46.1642 29.489 44.7854C29.4948 49.0443 28.7048 50.5385 26.9952 51.9231C25.266 50.4938 24.5486 49.0396 24.5159 44.7854C22.5929 46.1642 20.7374 46.4697 18.8758 46.4624C19.0875 46.2875 19.3 46.1165 19.5126 45.9455L19.5129 45.9453L19.5132 45.9451L19.5135 45.9448L19.5138 45.9446L19.5141 45.9443C20.9681 44.7745 22.4236 43.6035 23.6305 41.1689H20.7267C20.0488 41.1689 19.4993 40.6992 19.4993 40.1198C19.4993 39.5405 20.0488 39.0708 20.7267 39.0708ZM15.5488 26.7073C10.0995 26.819 6.46635 34.6404 17.9025 38.4547C14.1227 32.1267 21.1341 34.4719 22.0588 39.0702H24.7701C23.2732 29.7303 19.0398 26.6357 15.5488 26.7073ZM38.2395 26.7073C34.7905 26.7625 30.6979 29.9172 29.2309 39.0702H31.9373C32.8621 34.4719 39.8782 32.1267 36.0985 38.4547C47.6813 34.5915 43.8037 26.6182 38.2395 26.7073Z" fill="#FE3D32"/>
<path fill-rule="evenodd" clip-rule="evenodd" d="M27 66.4615C27 66.4615 52.4615 62.2833 53.9336 17.4092C53.9774 16.0733 54 14.7013 54 13.2923C48.6261 13.2923 35.4811 8.54831 29.7485 3.93874C28.0483 2.57158 27 1.21622 27 0C27 0.00299574 27 0.00599233 27 0.00898976V14.5402C32.4025 19.443 34.4816 25.0906 30.1878 32.1638C29.2071 34.3128 28.4343 36.5316 28.5929 39.0702H27V39.0708H33.2734C33.9513 39.0708 34.5008 39.5405 34.5008 40.1198C34.5008 40.6992 33.9513 41.1689 33.2734 41.1689H30.3744C31.5832 43.6071 33.038 44.7783 34.4934 45.9501L34.494 45.9506C34.7043 46.1199 34.9147 46.2892 35.1243 46.4624C33.2627 46.4697 31.412 46.1642 29.489 44.7854C29.4948 49.0403 28.7063 50.5357 27 51.9192L27 66.4615ZM29.2309 39.0702C30.6979 29.9172 34.7905 26.7625 38.2396 26.7073C43.8037 26.6182 47.6813 34.5915 36.0985 38.4547C39.8783 32.1267 32.8621 34.4719 31.9374 39.0702H29.2309Z" fill="#D72D24"/>
</svg>
