<?xml version="1.0" encoding="utf-8"?>
<!-- Generator: Adobe Illustrator 22.1.0, SVG Export Plug-In . SVG Version: 6.00 Build 0)  -->
<svg version="1.1" id="Слой_1" xmlns="http://www.w3.org/2000/svg" xmlns:xlink="http://www.w3.org/1999/xlink" x="0px" y="0px"
	 viewBox="0 0 434 241.5" style="enable-background:new 0 0 434 241.5;" xml:space="preserve">
<style type="text/css">
	.st0{fill:#0698BD;}
</style>
<path class="st0" d="M273.3,31.2c-0.6-1.1-2.1-1.5-3.2-0.9c-1.1,0.6-1.5,2.1-0.9,3.2c7,12.3,4.9,28-5.2,38l-1.8,1.8
	c-0.4-1.1-1.1-2.2-2-3.1L235.9,46c1.6-0.8,3.1-1.8,4.3-3.1l4.7-4.7c0.9-0.9,0.9-2.4,0-3.3c-0.9-0.9-2.4-0.9-3.3,0l-4.7,4.7
	c-2.2,2.2-5.1,3.4-8.2,3.4h-9.3c-0.6,0-1.2,0.2-1.7,0.7l-7.1,7.1c-2.1,2.1-5.6,2.1-7.7,0c-2.1-2.1-2.1-5.6,0-7.7l16.3-16.3
	c9.9-9.9,25.5-12.1,37.8-5.3c1.1,0.6,2.6,0.2,3.2-0.9c0.6-1.1,0.2-2.6-0.9-3.2c-6.8-3.8-14.8-5.3-22.5-4.2c-7.2,1-13.8,4-19.3,8.8
	c-6.7-5.9-15.1-9.1-24.1-9.1c-9.7,0-18.9,3.8-25.7,10.7c-6.9,6.9-10.7,16-10.7,25.7c0,9.7,3.8,18.9,10.7,25.7l0.9,0.9
	c0.2,0.2,0.3,0.3,0.5,0.4c0.2,2,1,4,2.6,5.6c1.7,1.7,4,2.6,6.3,2.6c0.1,0,0.2,0,0.4,0c0,0.1,0,0.2,0,0.4c0,2.4,0.9,4.6,2.6,6.3
	c1.7,1.7,4,2.6,6.3,2.6c0.1,0,0.2,0,0.4,0c0,0.1,0,0.2,0,0.4c0,2.4,0.9,4.6,2.6,6.3c1.7,1.7,4,2.6,6.3,2.6c0.1,0,0.2,0,0.4,0
	c-0.1,2.4,0.8,4.8,2.6,6.7c1.7,1.7,3.9,2.6,6.3,2.6s4.6-0.9,6.3-2.6l3.3-3.3l4.5,4.5c1.7,1.7,3.9,2.6,6.3,2.6c2.4,0,4.6-0.9,6.3-2.6
	c1.8-1.8,2.7-4.3,2.6-6.7c0.1,0,0.3,0,0.4,0c2.3,0,4.6-0.9,6.3-2.6c1.8-1.8,2.7-4.3,2.6-6.7c0.1,0,0.2,0,0.4,0
	c2.4,0,4.6-0.9,6.3-2.6c1.8-1.8,2.7-4.3,2.6-6.7c0.1,0,0.2,0,0.4,0c2.4,0,4.6-0.9,6.3-2.6c0.9-0.9,1.5-1.8,1.9-2.9
	c0.2-0.1,0.4-0.3,0.6-0.5l4.6-4.6C278.9,63.4,281.3,45.4,273.3,31.2z M177.9,79.7c-1.1,0-2.2-0.4-3-1.2c-0.8-0.8-1.2-1.8-1.2-3
	c0-1.1,0.4-2.2,1.2-3l4.1-4.1c0.8-0.8,1.8-1.2,3-1.2s2.2,0.4,3,1.2c1.6,1.6,1.6,4.3,0,5.9l-4.1,4.1
	C180.1,79.2,179.1,79.7,177.9,79.7z M184.2,87.7c-0.8-0.8-1.2-1.8-1.2-3c0-1.1,0.4-2.2,1.2-3l4.1-4.1l0,0c0.8-0.8,1.8-1.2,3-1.2
	c1.1,0,2.2,0.4,3,1.2c1.6,1.6,1.6,4.3,0,5.9l-4.1,4.1C188.5,89.3,185.9,89.3,184.2,87.7z M193.5,96.9c-0.8-0.8-1.2-1.8-1.2-3
	c0-1.1,0.4-2.2,1.2-3l4.1-4.1l0,0c0.8-0.8,1.8-1.2,3-1.2c1.1,0,2.2,0.4,3,1.2c1.6,1.6,1.6,4.3,0,5.9l-4.1,4.1
	C197.8,98.6,195.1,98.6,193.5,96.9z M212.7,102.1l-4.1,4.1c-0.8,0.8-1.8,1.2-3,1.2s-2.2-0.4-3-1.2c-1.6-1.6-1.6-4.3,0-5.9l4.1-4.1
	c0,0,0,0,0,0c0.8-0.8,1.8-1.2,3-1.2c1.1,0,2.2,0.4,3,1.2c0.8,0.8,1.2,1.8,1.2,3C213.9,100.3,213.5,101.3,212.7,102.1z M256.9,79.5
	c-0.8,0.8-1.8,1.2-3,1.2c-1.1,0-2.2-0.4-3-1.2l-9.8-9.8c0,0,0,0,0,0l-9.3-9.3c-0.9-0.9-2.4-0.9-3.3,0c-0.9,0.9-0.9,2.4,0,3.3
	l19.1,19.1c1.6,1.6,1.6,4.3,0,5.9c-0.8,0.8-1.8,1.2-3,1.2c-1.1,0-2.2-0.4-3-1.2l-19.1-19.1c-0.9-0.9-2.4-0.9-3.3,0
	c-0.9,0.9-0.9,2.4,0,3.3l9.3,9.3c0,0,0,0,0,0l9.8,9.8c1.6,1.6,1.6,4.3,0,5.9s-4.3,1.6-5.9,0l-9.8-9.8c-0.2-0.2-0.4-0.3-0.6-0.4
	l-2.8-2.8c-0.9-0.9-2.4-0.9-3.3,0c-0.9,0.9-0.9,2.4,0,3.3l13.2,13.2c1.6,1.6,1.6,4.3,0,5.9c-0.8,0.8-1.8,1.2-3,1.2
	c-1.1,0-2.2-0.4-3-1.2l-5-5c0.4-1,0.6-2.1,0.6-3.2c0-2.4-0.9-4.6-2.6-6.3c-1.7-1.7-3.9-2.6-6.3-2.6c-0.1,0-0.2,0-0.4,0
	c0.1-2.4-0.8-4.8-2.6-6.7c-1.7-1.7-3.9-2.6-6.3-2.6c-0.1,0-0.2,0-0.4,0c0.1-2.4-0.8-4.8-2.6-6.7c-1.7-1.7-3.9-2.6-6.3-2.6
	c-0.1,0-0.2,0-0.4,0c0.1-2.4-0.8-4.8-2.6-6.7c-3.5-3.5-9.1-3.5-12.6,0l-4.1,4.1c-0.5,0.5-0.9,1.1-1.3,1.7
	c-5.6-5.9-8.6-13.6-8.6-21.7c0-8.5,3.3-16.4,9.3-22.4c6-6,13.9-9.3,22.4-9.3c7.7,0,15,2.7,20.7,7.7l-14.5,14.5c-1.9,1.9-3,4.5-3,7.2
	c0,2.7,1.1,5.3,3,7.2c2,2,4.6,3,7.2,3c2.6,0,5.2-1,7.2-3l6.4-6.4h8.3c0.7,0,1.4,0,2-0.1l26.1,26.1C258.5,75.2,258.5,77.9,256.9,79.5
	z"/>
<path class="st0" d="M5.4,188.8v-45.5h16.3c5.9,0,10.3,1.1,13.3,3.2c3.1,2.1,4.6,5.3,4.6,9.3c0,2.4-0.5,4.4-1.6,6
	c-1.1,1.7-2.7,2.9-4.8,3.7c2.4,0.6,4.2,1.8,5.5,3.5c1.3,1.7,1.9,3.8,1.9,6.3c0,4.5-1.4,7.8-4.3,10.1c-2.8,2.2-7,3.4-12.5,3.4H5.4z
	 M16.4,169.4v10.9h7.2c2,0,3.5-0.4,4.6-1.3c1.1-0.9,1.6-2.2,1.6-3.8c0-3.8-1.9-5.7-5.7-5.7H16.4z M16.4,162.2h5.7
	c2.4,0,4.1-0.5,5.1-1.3s1.5-2.1,1.5-3.8c0-1.9-0.6-3.3-1.7-4.1c-1.1-0.9-2.9-1.3-5.3-1.3h-5.4V162.2z M75,169.5H57.7v10.8h20.4v8.4
	H46.8v-45.5h31.4v8.5H57.7v9.6H75V169.5z M93.5,180.3h19.1v8.4H82.6v-45.5h11V180.3z M143.7,180.3h-15l-2.6,8.5h-11.7l16.7-45.5
	h10.3l16.8,45.5h-11.8L143.7,180.3z M131.3,171.8h9.8l-4.9-15.8L131.3,171.8z M178.4,172.7h-5.9v16.1h-11v-45.5h17.9
	c5.4,0,9.6,1.2,12.7,3.6c3,2.4,4.6,5.8,4.6,10.2c0,3.2-0.6,5.8-1.9,7.9c-1.3,2.1-3.3,3.8-6,5.1l9.5,18.3v0.5h-11.8L178.4,172.7z
	 M172.5,164.2h6.9c2.1,0,3.6-0.5,4.7-1.6c1.1-1.1,1.6-2.6,1.6-4.6s-0.5-3.5-1.6-4.6c-1.1-1.1-2.6-1.7-4.7-1.7h-6.9V164.2z
	 M238.9,143.3V173c0,3.4-0.7,6.3-2.2,8.8c-1.4,2.5-3.5,4.3-6.2,5.6c-2.7,1.3-5.9,1.9-9.5,1.9c-5.5,0-9.9-1.4-13.1-4.3
	c-3.2-2.9-4.8-6.8-4.9-11.8v-30h11v30.2c0.1,5,2.4,7.5,6.9,7.5c2.3,0,4-0.6,5.2-1.9c1.2-1.3,1.8-3.3,1.8-6.1v-29.7H238.9z
	 M269.3,176.7c0-1.6-0.6-2.9-1.7-3.8c-1.1-0.9-3.1-1.8-6-2.8s-5.2-1.9-7-2.8c-5.9-2.9-8.8-6.9-8.8-11.9c0-2.5,0.7-4.7,2.2-6.7
	c1.5-1.9,3.6-3.4,6.3-4.5c2.7-1.1,5.7-1.6,9.1-1.6c3.3,0,6.2,0.6,8.8,1.8c2.6,1.2,4.6,2.8,6.1,5c1.4,2.1,2.2,4.6,2.2,7.4h-10.9
	c0-1.9-0.6-3.3-1.7-4.3c-1.1-1-2.7-1.5-4.6-1.5c-2,0-3.5,0.4-4.7,1.3c-1.1,0.9-1.7,1.9-1.7,3.3c0,1.2,0.6,2.2,1.9,3.2
	c1.3,0.9,3.4,1.9,6.6,2.9c3.1,1,5.7,2.1,7.8,3.3c4.9,2.8,7.4,6.7,7.4,11.7c0,4-1.5,7.1-4.5,9.4s-7.1,3.4-12.3,3.4c-3.7,0-7-0.7-10-2
	c-3-1.3-5.2-3.1-6.8-5.4c-1.5-2.3-2.3-5-2.3-8h11c0,2.4,0.6,4.2,1.9,5.4c1.3,1.1,3.3,1.7,6.2,1.7c1.8,0,3.2-0.4,4.3-1.2
	C268.8,179.2,269.3,178.1,269.3,176.7z M316.2,143.3l10.2,31.7l10.1-31.7h14.4v45.5h-11v-10.6l1.1-21.8l-11,32.4h-7.3l-11-32.4
	l1.1,21.8v10.6h-11v-45.5H316.2z M386.2,169.5h-17.3v10.8h20.4v8.4h-31.3v-45.5h31.4v8.5h-20.4v9.6h17.3V169.5z M393.8,188.8v-45.5
	h14.7c4,0,7.6,0.9,10.8,2.8c3.2,1.8,5.7,4.4,7.5,7.7c1.8,3.3,2.7,7,2.8,11.2v2.1c0,4.2-0.9,7.9-2.7,11.2c-1.8,3.3-4.2,5.9-7.4,7.8
	c-3.2,1.9-6.8,2.8-10.7,2.8H393.8z M404.7,151.7v28.6h3.8c3.1,0,5.6-1.1,7.3-3.3c1.7-2.3,2.5-5.6,2.5-10v-2c0-4.4-0.8-7.7-2.5-9.9
	c-1.7-2.2-4.1-3.3-7.4-3.3H404.7z"/>
<path class="st0" d="M125.1,216.2h-1.9v5.6h-1.4v-12.2h1.4v5.4h1.8l4.5-5.4h1.7l-5,5.9l5.5,6.3H130L125.1,216.2z M143,209.6v12.2
	h-1.3v-11h-5l-0.2,4.5c-0.1,1.7-0.3,3-0.5,3.9c-0.2,0.9-0.6,1.5-1.1,2c-0.5,0.4-1.1,0.6-1.9,0.6h-0.5v-1.2l0.4,0
	c0.8,0,1.3-0.4,1.7-1.1c0.3-0.7,0.6-2,0.7-3.9l0.2-5.9H143z M154.6,209.6h1.3v12.2h-1.3v-10l-6.6,10h-1.3v-12.2h1.3v10L154.6,209.6z
	 M168.9,221.8h-1.3v-5.6H161v5.6h-1.3v-12.2h1.3v5.4h6.5v-5.4h1.3V221.8z M180.5,209.6h1.3v12.2h-1.3v-10l-6.6,10h-1.3v-12.2h1.3v10
	L180.5,209.6z M188.8,216.2h-1.9v5.6h-1.4v-12.2h1.4v5.4h1.8l4.5-5.4h1.7l-5,5.9l5.5,6.3h-1.8L188.8,216.2z M205,221.8
	c-0.1-0.4-0.2-0.9-0.3-1.7c-0.5,0.6-1.1,1.1-1.8,1.4c-0.7,0.3-1.5,0.5-2.3,0.5c-1.2,0-2.1-0.3-2.8-1c-0.7-0.7-1.1-1.5-1.1-2.5
	c0-1.2,0.5-2.1,1.5-2.8c1-0.7,2.4-1,4.1-1h2.4v-1.4c0-0.9-0.3-1.5-0.8-2c-0.5-0.5-1.3-0.8-2.3-0.8c-0.9,0-1.7,0.2-2.3,0.7
	c-0.6,0.5-0.9,1.1-0.9,1.7l-1.3,0c0-1,0.4-1.8,1.3-2.5c0.9-0.7,2-1.1,3.3-1.1c1.4,0,2.4,0.3,3.2,1c0.8,0.7,1.2,1.6,1.2,2.8v5.8
	c0,1.2,0.1,2.1,0.4,2.6v0.1H205z M200.8,220.8c0.9,0,1.7-0.2,2.4-0.7c0.7-0.4,1.2-1,1.5-1.7v-2.7h-2.4c-1.3,0-2.4,0.3-3.1,0.7
	c-0.8,0.5-1.1,1.1-1.1,2c0,0.7,0.3,1.2,0.8,1.7C199.4,220.6,200,220.8,200.8,220.8z M215.4,221.8v-12.2h4.5c1.5,0,2.7,0.3,3.5,0.8
	c0.8,0.5,1.2,1.4,1.2,2.4c0,0.6-0.2,1.1-0.5,1.6c-0.4,0.5-0.9,0.8-1.6,1c0.8,0.1,1.4,0.5,1.9,1c0.5,0.5,0.7,1.1,0.7,1.9
	c0,1.1-0.4,1.9-1.2,2.5c-0.8,0.6-1.9,0.9-3.3,0.9H215.4z M216.8,216.2v4.5h3.9c1,0,1.8-0.2,2.3-0.6c0.5-0.4,0.8-1,0.8-1.7
	c0-0.7-0.3-1.2-0.8-1.6c-0.5-0.4-1.3-0.6-2.3-0.6H216.8z M216.8,215h3.4c2.1,0,3.2-0.7,3.2-2.2c0-0.7-0.3-1.3-0.9-1.6
	c-0.6-0.3-1.4-0.5-2.6-0.5h-3.1V215z M235.9,205.4l6,14.4l6.1-14.4h1.8v16.4h-1.4v-7.1l0.1-7.3l-6.1,14.4h-1.1l-6.1-14.4l0.1,7.2
	v7.2h-1.4v-16.4H235.9z M261.7,209.6h1.3v12.2h-1.3v-10l-6.6,10h-1.3v-12.2h1.3v10L261.7,209.6z M275.9,221.8h-1.3v-5.6H268v5.6
	h-1.3v-12.2h1.3v5.4h6.5v-5.4h1.3V221.8z M284,220.8c0.9,0,1.7-0.3,2.3-0.8c0.6-0.5,1-1.2,1-2.1h1.3c0,0.7-0.3,1.4-0.7,2
	c-0.4,0.6-1,1.1-1.7,1.4c-0.7,0.3-1.5,0.5-2.3,0.5c-1.6,0-2.9-0.6-3.8-1.7c-0.9-1.1-1.4-2.6-1.4-4.5v-0.4c0-1.2,0.2-2.3,0.6-3.2
	c0.4-0.9,1-1.6,1.8-2.1c0.8-0.5,1.7-0.8,2.8-0.8c1.3,0,2.4,0.4,3.3,1.2c0.9,0.8,1.3,1.8,1.4,3.1h-1.3c-0.1-1-0.4-1.7-1-2.3
	c-0.6-0.6-1.4-0.9-2.4-0.9c-1.2,0-2.2,0.4-2.8,1.3c-0.7,0.9-1,2.1-1,3.7v0.4c0,1.5,0.3,2.8,1,3.6C281.9,220.4,282.8,220.8,284,220.8
	z M294.7,216.2h-1.9v5.6h-1.4v-12.2h1.4v5.4h1.8l4.5-5.4h1.7l-5,5.9l5.5,6.3h-1.8L294.7,216.2z M307.9,222c-1,0-2-0.3-2.8-0.8
	c-0.8-0.5-1.5-1.2-1.9-2.1c-0.5-0.9-0.7-1.9-0.7-3.1v-0.5c0-1.2,0.2-2.2,0.7-3.2c0.5-0.9,1.1-1.7,1.9-2.2c0.8-0.5,1.7-0.8,2.6-0.8
	c1.5,0,2.6,0.5,3.5,1.5c0.9,1,1.3,2.4,1.3,4.1v0.8h-8.7v0.3c0,1.4,0.4,2.5,1.2,3.4c0.8,0.9,1.8,1.4,3,1.4c0.7,0,1.4-0.1,1.9-0.4
	c0.6-0.3,1.1-0.7,1.5-1.3l0.8,0.6C311.2,221.3,309.7,222,307.9,222z M307.6,210.5c-1,0-1.9,0.4-2.6,1.1c-0.7,0.7-1.1,1.7-1.3,3h7.3
	v-0.1c0-1.2-0.4-2.1-1-2.9C309.4,210.9,308.6,210.5,307.6,210.5z"/>
</svg>
