<svg xmlns="http://www.w3.org/2000/svg" width="110" height="110" viewBox="0 0 110 110"><defs><style>.cls-1{fill:#fff;}</style></defs><title>Карман - Закругленный</title><g id="Карман"><g id="Закругленный"><g id="Цвет-17" data-name="Цвет"><path class="cls-1" d="M76.5,109.5h-43a22,22,0,0,1-22-22V6.5l6-6h75l6,6v81A22,22,0,0,1,76.5,109.5Z"/></g><g id="Контур-17" data-name="Контур"><path d="M98.854,6.146l-6-6A.5.5,0,0,0,92.5,0h-75a.5.5,0,0,0-.354.146l-6,6A.5.5,0,0,0,11,6.5v81A22.526,22.526,0,0,0,33.5,110h43A22.526,22.526,0,0,0,99,87.5V6.5A.5.5,0,0,0,98.854,6.146ZM98,87.5A21.524,21.524,0,0,1,76.5,109h-43A21.524,21.524,0,0,1,12,87.5V6.707L17.707,1H92.293L98,6.707ZM95.5,16a.5.5,0,0,1,0,1H93v1.5a.5.5,0,0,1-1,0V17H18v1.5a.5.5,0,0,1-1,0V17H14.5a.5.5,0,0,1,0-1ZM19.508,94.177a.5.5,0,0,1-.9.432,16.434,16.434,0,0,1-1.285-3.857.5.5,0,1,1,.98-.2A15.432,15.432,0,0,0,19.508,94.177ZM17,76.839a.5.5,0,0,1,1,0v3.953a.5.5,0,0,1-1,0Zm6.593,22.583a.5.5,0,0,1-.64.77,16.6,16.6,0,0,1-2.783-2.964.5.5,0,0,1,.808-.59A15.556,15.556,0,0,0,23.593,99.422ZM36.738,103.5a.5.5,0,0,1-.5.5H33.5q-.631,0-1.25-.046a.5.5,0,0,1,.073-1c.388.028.78.044,1.176.044h2.738A.5.5,0,0,1,36.738,103.5ZM17,69.921a.5.5,0,0,1,1,0v3.953a.5.5,0,0,1-1,0Zm12.852,33.17a.5.5,0,0,1-.482.371.493.493,0,0,1-.129-.017,16.434,16.434,0,0,1-3.769-1.527.5.5,0,1,1,.487-.873,15.4,15.4,0,0,0,3.54,1.434A.5.5,0,0,1,29.852,103.091Zm13.8.409a.5.5,0,0,1-.5.5H39.2a.5.5,0,0,1,0-1h3.953A.5.5,0,0,1,43.656,103.5Zm6.918,0a.5.5,0,0,1-.5.5H46.121a.5.5,0,0,1,0-1h3.953A.5.5,0,0,1,50.574,103.5ZM17,28.414a.5.5,0,0,1,1,0v3.953a.5.5,0,0,1-1,0Zm0-2.965V21.5a.5.5,0,1,1,1,0v3.952a.5.5,0,0,1-1,0ZM17,63a.5.5,0,0,1,1,0v3.952a.5.5,0,0,1-1,0Zm.5,25.206a.5.5,0,0,1-.5-.493v-3.96a.5.5,0,0,1,1,0V87.7a.5.5,0,0,1-.493.507ZM17,35.332a.5.5,0,0,1,1,0v3.953a.5.5,0,0,1-1,0Zm0,20.754a.5.5,0,0,1,1,0v3.953a.5.5,0,0,1-1,0Zm0-6.918a.5.5,0,0,1,1,0v3.953a.5.5,0,0,1-1,0Zm0-6.918a.5.5,0,0,1,1,0V46.2a.5.5,0,0,1-1,0ZM64.41,103.5a.5.5,0,0,1-.5.5H59.957a.5.5,0,1,1,0-1H63.91A.5.5,0,0,1,64.41,103.5ZM93,49.136v3.953a.5.5,0,0,1-1,0V49.136a.5.5,0,0,1,1,0ZM93,69.89v3.953a.5.5,0,0,1-1,0V69.89a.5.5,0,0,1,1,0Zm0-27.672v3.953a.5.5,0,0,1-1,0V42.218a.5.5,0,0,1,1,0Zm0,20.754v3.953a.5.5,0,0,1-1,0V62.972a.5.5,0,0,1,1,0Zm0-6.918v3.953a.5.5,0,0,1-1,0V56.054a.5.5,0,0,1,1,0ZM93,35.3v3.953a.5.5,0,0,1-1,0V35.3a.5.5,0,0,1,1,0Zm0-13.836v3.953a.5.5,0,0,1-1,0V21.465a.5.5,0,0,1,1,0Zm0,6.918v3.953a.5.5,0,0,1-1,0V28.383a.5.5,0,0,1,1,0ZM89.737,96.5a.5.5,0,0,1,.11.7,16.664,16.664,0,0,1-2.777,2.969.5.5,0,0,1-.642-.768,15.675,15.675,0,0,0,2.61-2.789A.5.5,0,0,1,89.737,96.5Zm-11.495,6.91a.5.5,0,0,1-.46.537Q77.147,104,76.5,104H73.792a.5.5,0,1,1,0-1H76.5q.609,0,1.206-.046A.489.489,0,0,1,78.243,103.415Zm6.505-2.191a.5.5,0,0,1-.191.681,16.444,16.444,0,0,1-3.766,1.533.5.5,0,1,1-.26-.965,15.455,15.455,0,0,0,3.536-1.441A.5.5,0,0,1,84.748,101.224ZM71.328,103.5a.5.5,0,0,1-.5.5H66.875a.5.5,0,1,1,0-1h3.953A.5.5,0,0,1,71.328,103.5ZM92.687,90.719a16.43,16.43,0,0,1-1.278,3.861.5.5,0,0,1-.452.285.5.5,0,0,1-.451-.715,15.383,15.383,0,0,0,1.2-3.625.5.5,0,0,1,.981.193ZM93,83.725v3.958a.5.5,0,0,1-.5.5h0a.5.5,0,0,1-.5-.5v-3.95a.5.5,0,0,1,1,0Zm0-6.917v3.953a.5.5,0,0,1-1,0V76.808a.5.5,0,0,1,1,0ZM57.492,103.5a.5.5,0,0,1-.5.5H53.039a.5.5,0,0,1,0-1h3.953A.5.5,0,0,1,57.492,103.5Z"/></g></g></g></svg>