<svg xmlns="http://www.w3.org/2000/svg" width="110" height="110" viewBox="0 0 110 110"><defs><style>.cls-1{fill:#fff;}</style></defs><title>Карман - Скошенный</title><g id="Карман"><g id="Скошенный-2" data-name="Скошенный"><g id="Цвет-18" data-name="Цвет"><path class="cls-1" d="M98.5,91.5,37,109.5l-25.5-18V6.5l6-6h75l6,6Z"/></g><g id="Контур-18" data-name="Контур"><path d="M98.854,6.146l-6-6A.5.5,0,0,0,92.5,0h-75a.5.5,0,0,0-.354.146l-6,6A.5.5,0,0,0,11,6.5v85a.5.5,0,0,0,.211.408l25.5,18a.5.5,0,0,0,.429.071l61.5-18A.5.5,0,0,0,99,91.5V6.5A.5.5,0,0,0,98.854,6.146ZM98,91.123,37.089,108.952,12,91.239V6.707L17.707,1H92.293L98,6.707ZM93,63.841v4.03a.5.5,0,0,1-1,0v-4.03a.5.5,0,0,1,1,0Zm0-7.053v4.03a.5.5,0,1,1-1,0v-4.03a.5.5,0,0,1,1,0Zm0-7.054v4.03a.5.5,0,0,1-1,0v-4.03a.5.5,0,0,1,1,0Zm0,28.212v4.03a.5.5,0,0,1-1,0v-4.03a.5.5,0,0,1,1,0Zm0-7.053v4.03a.5.5,0,0,1-1,0v-4.03a.5.5,0,0,1,1,0Zm0-28.212v4.03a.5.5,0,0,1-1,0v-4.03a.5.5,0,0,1,1,0Zm0-14.106v4.03a.5.5,0,0,1-1,0v-4.03a.5.5,0,1,1,1,0Zm0-7.053v4.03a.5.5,0,1,1-1,0v-4.03a.5.5,0,0,1,1,0Zm0,14.106v4.03a.5.5,0,0,1-1,0v-4.03a.5.5,0,0,1,1,0ZM93,85v2a.5.5,0,0,1-.362.48l-1.922.554a.484.484,0,0,1-.138.02.5.5,0,0,1-.138-.98L92,86.624V85a.5.5,0,0,1,1,0ZM54.162,98.055a.5.5,0,0,1-.342.619l-3.884,1.119a.49.49,0,0,1-.139.02.5.5,0,0,1-.139-.98l3.884-1.119A.5.5,0,0,1,54.162,98.055Zm-6.8,1.959a.5.5,0,0,1-.342.619l-3.884,1.12a.49.49,0,0,1-.139.02.5.5,0,0,1-.139-.98l3.884-1.12A.5.5,0,0,1,47.366,100.014Zm20.39-5.879a.5.5,0,0,1-.342.619l-3.884,1.12a.49.49,0,0,1-.139.02.5.5,0,0,1-.139-.98l3.884-1.12A.5.5,0,0,1,67.756,94.135Zm-6.8,1.96a.5.5,0,0,1-.342.619l-3.884,1.12a.49.49,0,0,1-.139.02.5.5,0,0,1-.139-.98l3.884-1.12A.5.5,0,0,1,60.959,96.095Zm27.187-7.839a.5.5,0,0,1-.342.619L83.92,90a.49.49,0,0,1-.139.02.5.5,0,0,1-.139-.98l3.884-1.12A.5.5,0,0,1,88.146,88.256ZM74.553,92.175a.5.5,0,0,1-.342.619l-3.884,1.12a.491.491,0,0,1-.139.02.5.5,0,0,1-.138-.98l3.884-1.12A.5.5,0,0,1,74.553,92.175Zm6.8-1.959a.5.5,0,0,1-.342.619l-3.884,1.119a.49.49,0,0,1-.139.02.5.5,0,0,1-.139-.98l3.884-1.119A.5.5,0,0,1,81.349,90.216Zm-40.78,11.758a.5.5,0,0,1-.342.619l-1.922.555a.517.517,0,0,1-.139.02.5.5,0,0,1-.285-.089l-1.643-1.14a.5.5,0,0,1,.57-.822l1.448,1,1.693-.489A.5.5,0,0,1,40.569,101.974Zm-11-5.88a.5.5,0,0,1-.569.822l-2.9-2.009a.5.5,0,0,1,.57-.822Zm5.069,3.516a.5.5,0,0,1-.57.822l-2.9-2.009a.5.5,0,0,1,.57-.822ZM24.5,92.578a.5.5,0,0,1-.57.822l-2.9-2.009a.5.5,0,0,1,.57-.822Zm-5.069-3.517a.5.5,0,0,1-.57.822l-1.644-1.14A.5.5,0,0,1,17,88.333v-2a.5.5,0,0,1,1,0v1.738ZM17,35.6a.5.5,0,0,1,1,0v4.142a.5.5,0,0,1-1,0Zm0,7.247a.5.5,0,0,1,1,0v4.142a.5.5,0,0,1-1,0Zm0-14.494a.5.5,0,0,1,1,0V32.5a.5.5,0,0,1-1,0Zm0-3.106V21.107a.5.5,0,0,1,1,0v4.142a.5.5,0,1,1-1,0ZM17,50.1a.5.5,0,0,1,1,0v4.142a.5.5,0,0,1-1,0Zm0,28.989a.5.5,0,0,1,1,0v4.142a.5.5,0,0,1-1,0Zm0-7.247a.5.5,0,0,1,1,0V75.98a.5.5,0,0,1-1,0Zm0-7.247a.5.5,0,0,1,1,0v4.142a.5.5,0,0,1-1,0Zm0-7.247a.5.5,0,0,1,1,0v4.141a.5.5,0,0,1-1,0ZM18,16H95.5a.5.5,0,0,1,0,1H93v1.5a.5.5,0,0,1-1,0V17H18v1a.5.5,0,1,1-1,0V17H14.5a.5.5,0,0,1,0-1H17a.5.5,0,0,1,1,0Z"/></g></g></g></svg>