<svg xmlns="http://www.w3.org/2000/svg" width="110" height="110" viewBox="0 0 110 110"><defs><style>.cls-1{fill:#fff;}</style></defs><title>Карман - На уголок</title><g id="Карман"><g id="На_уголок" data-name="На уголок"><g id="Цвет-19" data-name="Цвет"><path class="cls-1" d="M98.5,91.5,55,109.5l-43.5-18V6.5l6-6h75l6,6Z"/></g><g id="Контур-19" data-name="Контур"><path d="M98.854,6.146l-6-6A.5.5,0,0,0,92.5,0h-75a.5.5,0,0,0-.354.146l-6,6A.5.5,0,0,0,11,6.5v85a.5.5,0,0,0,.309.462l43.5,18a.5.5,0,0,0,.383,0l43.5-18A.5.5,0,0,0,99,91.5V6.5A.5.5,0,0,0,98.854,6.146ZM98,91.164,55,108.959,12,91.164V6.707L17.707,1H92.293L98,6.707ZM95.5,16a.5.5,0,0,1,0,1H93v1.5a.5.5,0,0,1-1,0V17H18v1.5a.5.5,0,0,1-1,0V17H14.5a.5.5,0,0,1,0-1ZM93,57.075v4.061a.5.5,0,0,1-1,0V57.075a.5.5,0,0,1,1,0Zm0-7.105V54.03a.5.5,0,0,1-1,0V49.97a.5.5,0,0,1,1,0Zm0,21.317v4.061a.5.5,0,0,1-1,0V71.287a.5.5,0,0,1,1,0Zm0,7.105v4.061a.5.5,0,0,1-1,0V78.393a.5.5,0,0,1,1,0Zm0-14.211v4.061a.5.5,0,0,1-1,0V64.182a.5.5,0,1,1,1,0Zm0-28.424v4.061a.5.5,0,1,1-1,0V35.758a.5.5,0,0,1,1,0Zm0,7.105v4.061a.5.5,0,1,1-1,0V42.863a.5.5,0,0,1,1,0Zm0-14.212v4.061a.5.5,0,0,1-1,0V28.651a.5.5,0,0,1,1,0Zm0-7.105v4.061a.5.5,0,0,1-1,0V21.546a.5.5,0,0,1,1,0ZM93,85.5v2a.5.5,0,0,1-.311.463l-1.851.757a.5.5,0,1,1-.379-.926L92,87.163V85.5a.5.5,0,0,1,1,0ZM57.245,101.915a.5.5,0,0,1-.274.652l-1.782.729a.5.5,0,0,1-.378,0l-1.782-.729a.5.5,0,1,1,.378-.926l1.593.651,1.593-.651A.5.5,0,0,1,57.245,101.915ZM44.768,98.649a.5.5,0,0,1-.652.273l-3.565-1.458a.5.5,0,1,1,.379-.926L44.495,98A.5.5,0,0,1,44.768,98.649Zm6.239,2.551a.5.5,0,0,1-.652.273l-3.565-1.458a.5.5,0,1,1,.379-.926l3.565,1.458A.5.5,0,0,1,51.007,101.2ZM38.53,96.1a.5.5,0,0,1-.652.273l-3.565-1.458a.5.5,0,1,1,.379-.926l3.565,1.458A.5.5,0,0,1,38.53,96.1Zm-6.239-2.551a.5.5,0,0,1-.652.273l-3.565-1.458a.5.5,0,1,1,.379-.926L32.018,92.9A.5.5,0,0,1,32.291,93.548ZM26.052,91a.5.5,0,0,1-.463.311.5.5,0,0,1-.189-.037l-3.565-1.457a.5.5,0,1,1,.378-.926l3.565,1.457A.5.5,0,0,1,26.052,91ZM82.2,91.71a.5.5,0,0,1-.273.652L78.361,93.82a.5.5,0,1,1-.379-.926l3.564-1.458A.5.5,0,0,1,82.2,91.71Zm6.239-2.551a.5.5,0,0,1-.273.652L84.6,91.27a.5.5,0,1,1-.379-.926l3.565-1.458A.5.5,0,0,1,88.438,89.159Zm-24.954,10.2a.5.5,0,0,1-.273.652l-3.565,1.458a.5.5,0,1,1-.379-.926l3.565-1.458A.5.5,0,0,1,63.484,99.363Zm6.238-2.551a.5.5,0,0,1-.273.652l-3.564,1.458A.5.5,0,0,1,65.505,98l3.564-1.458A.5.5,0,0,1,69.722,96.813Zm6.239-2.551a.5.5,0,0,1-.274.652l-3.565,1.457a.5.5,0,0,1-.189.037.5.5,0,0,1-.189-.963l3.565-1.457A.5.5,0,0,1,75.961,94.262ZM19.814,88.445a.5.5,0,0,1-.652.273l-1.851-.757A.5.5,0,0,1,17,87.5v-2a.5.5,0,0,1,1,0v1.664l1.541.63A.5.5,0,0,1,19.814,88.445ZM17,35.757a.5.5,0,0,1,1,0v4.061a.5.5,0,0,1-1,0Zm0,7.106a.5.5,0,0,1,1,0v4.061a.5.5,0,1,1-1,0Zm0-17.257V21.546a.5.5,0,0,1,1,0v4.061a.5.5,0,0,1-1,0Zm0,3.045a.5.5,0,0,1,1,0v4.061a.5.5,0,0,1-1,0Zm0,28.424a.5.5,0,0,1,1,0v4.061a.5.5,0,0,1-1,0Zm0,14.212a.5.5,0,0,1,1,0v4.061a.5.5,0,0,1-1,0Zm0,7.105a.5.5,0,0,1,1,0v4.061a.5.5,0,0,1-1,0Zm0-28.424a.5.5,0,0,1,1,0v4.061a.5.5,0,1,1-1,0Zm0,14.212a.5.5,0,0,1,1,0v4.061a.5.5,0,0,1-1,0Z"/></g></g></g></svg>