<svg xmlns="http://www.w3.org/2000/svg" width="110" height="110" viewBox="0 0 110 110"><defs><style>.cls-1{fill:#fff;}</style></defs><title>Манжет - Срезанный</title><g id="Манжет"><g id="Срезанный"><g id="Цвет-10" data-name="Цвет"><path class="cls-1" d="M.5,94.75V15c0-3.769,10.839-7.031,25.352-8.923C41.094,4.09,61.333,2.854,75.583,3.6A3.862,3.862,0,0,1,78.5,5.625c14.937.938,31.021,4.452,31,9.5-.083,19.875,0,59.25,0,79.75,0,7.517-31.875,10.87-56.625,10.625C27,105.245.5,101.5.5,94.75Z"/></g><g id="Контур-10" data-name="Контур"><path d="M78.7,5.133l-.017-.028a4.757,4.757,0,0,0-3.818-2.041A342.308,342.308,0,0,0,27.5,5.337C21.051,6.066,0,8.92,0,15V95c0,6.886,27.964,11,55,11s55-4.114,55-11V15C110,10.545,96.26,6.217,78.7,5.133Zm-51.084,1.2a347.745,347.745,0,0,1,39.7-2.354q3.757,0,7.528.087a3.806,3.806,0,0,1,3.52,5.008L55.45,77.614a8.712,8.712,0,0,1-7.78,5.962c-6.562.392-13.158.968-20.166,1.761C21.9,85.972,5.255,88.21,1,92.778V88.2l.008-.005a10.8,10.8,0,0,1,2.632-1.709.5.5,0,0,0-.438-.9A13.5,13.5,0,0,0,1,86.91v-67.3a.463.463,0,0,0,.054-.042,10.252,10.252,0,0,1,3-2.3.5.5,0,1,0-.482-.875A13.233,13.233,0,0,0,1,18.186V15C1,12.183,9.23,8.41,27.616,6.331ZM55,105C22.7,105,1,99.829,1,95a1.683,1.683,0,0,1,.051-.369c.013-.053.024-.106.043-.159.008-.025.022-.05.031-.075a3.443,3.443,0,0,1,.967-1.256A16.534,16.534,0,0,0,5.378,94.89a.488.488,0,0,0,.191.038.5.5,0,0,0,.191-.962,16.6,16.6,0,0,1-2.836-1.461A17.693,17.693,0,0,1,6.04,90.914C14.24,87.643,31.908,85,55,85c26.721,0,46.172,3.539,52.1,7.5a14.659,14.659,0,0,1-1.986,1.089.5.5,0,0,0,.42.908,14.673,14.673,0,0,0,2.4-1.366A2.631,2.631,0,0,1,109,95C109,99.829,87.3,105,55,105Zm0-21q-2.327,0-4.657.042A9.648,9.648,0,0,0,55.4,79.993c.012,0,.023.007.035.007q2.016,0,3.995.034h.008a.5.5,0,0,0,.008-1c-1.155-.018-2.325-.026-3.5-.03a9.838,9.838,0,0,0,.45-1.074L78.753,11.053c1.225.115,2.431.236,3.6.366l.056,0a.5.5,0,0,0,.055-1c-1.1-.122-2.239-.235-3.388-.344l.231-.692a4.748,4.748,0,0,0-.063-3.217C97.074,7.352,109,11.655,109,15v2.81a10.3,10.3,0,0,0-3.037-2.1.5.5,0,0,0-.44.9,8.356,8.356,0,0,1,3.021,2.183.5.5,0,0,0,.4.2c.019,0,.036-.016.055-.018V89.069a.491.491,0,0,0-.078.436A1.657,1.657,0,0,1,109,90v2.827C103.824,87.259,79.054,84,55,84ZM26.536,98.956a.5.5,0,0,1-.5.44.414.414,0,0,1-.06,0q-2.053-.246-3.979-.529a.5.5,0,0,1,.146-.99q1.912.281,3.953.527A.5.5,0,0,1,26.536,98.956ZM19.6,97.984a.5.5,0,0,1-.493.417.486.486,0,0,1-.083-.007c-1.367-.23-2.7-.479-3.951-.737a.5.5,0,1,1,.2-.979c1.243.256,2.561.5,3.915.729A.5.5,0,0,1,19.6,97.984Zm-6.869-1.354a.5.5,0,0,1-.485.382A.553.553,0,0,1,12.128,97c-1.405-.342-2.714-.7-3.889-1.077a.5.5,0,1,1,.3-.953c1.153.366,2.439.722,3.822,1.058A.5.5,0,0,1,12.732,96.631ZM33.5,99.652a.5.5,0,0,1-.5.458l-.043,0q-2.041-.173-3.993-.378a.5.5,0,0,1-.445-.549.489.489,0,0,1,.549-.445q1.94.2,3.973.376A.5.5,0,0,1,33.5,99.652Zm41.971.082a.5.5,0,0,1-.461.537q-1.963.148-4,.269h-.03a.5.5,0,0,1-.029-1q2.027-.12,3.983-.269A.5.5,0,0,1,75.474,99.734ZM96.268,96.86a.5.5,0,0,1-.383.595c-1.242.271-2.569.53-3.946.773a.444.444,0,0,1-.087.008.5.5,0,0,1-.086-.992c1.364-.241,2.678-.5,3.908-.766A.5.5,0,0,1,96.268,96.86ZM82.445,99.075a.5.5,0,0,1-.443.552q-1.947.212-3.991.4l-.045,0a.5.5,0,0,1-.044-1q2.033-.183,3.972-.395A.5.5,0,0,1,82.445,99.075Zm6.94-.927a.5.5,0,0,1-.418.57q-1.919.294-3.975.555a.466.466,0,0,1-.063,0,.5.5,0,0,1-.062-1q2.041-.258,3.95-.551A.5.5,0,0,1,89.385,98.148Zm13.624-3.17a.5.5,0,0,1-.311.635c-1.154.4-2.458.782-3.874,1.147a.5.5,0,1,1-.25-.969c1.392-.358,2.669-.737,3.8-1.124A.5.5,0,0,1,103.009,94.979Zm-62.52,5.146a.5.5,0,0,1-.5.473h-.028q-2.033-.113-4-.253a.5.5,0,0,1,.071-1q1.958.141,3.985.253A.5.5,0,0,1,40.489,100.124Zm14,.376a.5.5,0,0,1-.5.5h0q-2.024-.007-4.008-.042a.5.5,0,0,1-.491-.509A.489.489,0,0,1,50,99.956q1.978.035,3.995.042A.5.5,0,0,1,54.488,100.5Zm-7-.1a.5.5,0,0,1-.5.485h-.015q-2.028-.059-4.006-.144a.5.5,0,0,1-.478-.521.512.512,0,0,1,.521-.479q1.969.085,3.992.144A.5.5,0,0,1,47.486,100.4Zm21-.227a.5.5,0,0,1-.476.522q-1.976.1-4.006.159h-.017a.5.5,0,0,1-.016-1q2.021-.064,3.99-.157A.492.492,0,0,1,68.486,100.177Zm-7,.249a.5.5,0,0,1-.489.511q-1.984.042-4.008.057h0a.5.5,0,0,1,0-1q2.016-.015,3.994-.057A.519.519,0,0,1,61.489,100.426Zm-27-67.907c.058,0,.116,0,.181-.006q1.354-.1,2.695-.182a9.558,9.558,0,0,0,18.442-.672q1.31-.01,2.622-.012h.236a2.5,2.5,0,0,0,0-5q-1.518,0-3.036.015a9.558,9.558,0,0,0-18.437.669q-1.436.092-2.882.193a2.5,2.5,0,0,0,.177,4.994Zm24.177-4.872a1.5,1.5,0,1,1,0,3H58.43c-.816,0-1.63.005-2.444.011a9.59,9.59,0,0,0,.069-1c.871-.006,1.744-.009,2.611-.011h0a.5.5,0,0,0,0-1c-.881,0-1.765,0-2.647.011a9.529,9.529,0,0,0-.139-1C56.81,27.653,57.738,27.646,58.667,27.646ZM46.5,21.063A8.438,8.438,0,1,1,38.063,29.5,8.447,8.447,0,0,1,46.5,21.063Zm-12.115,7.46c.881-.063,1.756-.121,2.629-.177a9.585,9.585,0,0,0-.069,1.006q-1.244.081-2.489.169a.5.5,0,0,0,.035,1h.036q1.226-.088,2.453-.167a9.529,9.529,0,0,0,.139.993q-1.255.081-2.514.17l-.115,0a1.5,1.5,0,0,1-.105-3ZM40,29.5a6.5,6.5,0,0,1,13,0,.5.5,0,0,1-1,0A5.5,5.5,0,1,0,46.5,35a.5.5,0,0,1,0,1A6.508,6.508,0,0,1,40,29.5Zm6-2a1.5,1.5,0,1,0-2,1.408v1.184a1.5,1.5,0,1,0,1,0V28.908A1.5,1.5,0,0,0,46,27.5ZM44.5,27a.5.5,0,1,1-.5.5A.5.5,0,0,1,44.5,27Zm0,5a.5.5,0,1,1,.5-.5A.5.5,0,0,1,44.5,32ZM50,27.5a1.5,1.5,0,1,0-2,1.408v1.184a1.5,1.5,0,1,0,1,0V28.908A1.5,1.5,0,0,0,50,27.5ZM48.5,27a.5.5,0,1,1-.5.5A.5.5,0,0,1,48.5,27Zm0,5a.5.5,0,1,1,.5-.5A.5.5,0,0,1,48.5,32ZM23,58.2a2.508,2.508,0,0,0,2.492,2.321c.058,0,.116,0,.181-.006q1.354-.1,2.695-.182a9.558,9.558,0,0,0,18.442-.672q1.31-.01,2.622-.012h.236a2.5,2.5,0,0,0,0-5q-1.518,0-3.036.015a9.558,9.558,0,0,0-18.437.669q-1.436.092-2.882.193A2.5,2.5,0,0,0,23,58.2Zm26.669-2.551a1.5,1.5,0,1,1,0,3H49.43c-.816,0-1.63.005-2.444.011a9.59,9.59,0,0,0,.069-1c.871-.005,1.745-.008,2.611-.011h0a.5.5,0,0,0,0-1q-1.323,0-2.647.011a9.529,9.529,0,0,0-.139-1C47.81,55.653,48.738,55.646,49.667,55.646ZM37.5,49.063A8.438,8.438,0,1,1,29.063,57.5,8.447,8.447,0,0,1,37.5,49.063Zm-12.115,7.46c.881-.063,1.756-.121,2.629-.177a9.585,9.585,0,0,0-.069,1.006q-1.244.081-2.489.169a.5.5,0,0,0,.035,1h.036q1.226-.088,2.453-.167a9.529,9.529,0,0,0,.139.993q-1.255.081-2.514.17l-.115,0a1.5,1.5,0,0,1-.105-3ZM31,57.5a6.5,6.5,0,0,1,13,0,.5.5,0,0,1-1,0A5.5,5.5,0,1,0,37.5,63a.5.5,0,0,1,0,1A6.508,6.508,0,0,1,31,57.5Zm6-2a1.5,1.5,0,1,0-2,1.408v1.184a1.5,1.5,0,1,0,1,0V56.908A1.5,1.5,0,0,0,37,55.5ZM35.5,55a.5.5,0,1,1-.5.5A.5.5,0,0,1,35.5,55Zm0,5a.5.5,0,1,1,.5-.5A.5.5,0,0,1,35.5,60ZM41,55.5a1.5,1.5,0,1,0-2,1.408v1.184a1.5,1.5,0,1,0,1,0V56.908A1.5,1.5,0,0,0,41,55.5ZM39.5,55a.5.5,0,1,1-.5.5A.5.5,0,0,1,39.5,55Zm0,5a.5.5,0,1,1,.5-.5A.5.5,0,0,1,39.5,60ZM33.426,10.236a.5.5,0,0,1,.448-.547q2.008-.2,3.99-.372a.5.5,0,1,1,.088,1q-1.978.174-3.979.372l-.05,0A.5.5,0,0,1,33.426,10.236ZM40.4,9.6a.5.5,0,0,1,.459-.538q2.008-.161,4-.3a.491.491,0,0,1,.533.465.5.5,0,0,1-.465.533q-1.982.136-3.985.295l-.04,0A.5.5,0,0,1,40.4,9.6Zm6.985-.5a.5.5,0,0,1,.469-.529q2.01-.12,4-.217a.478.478,0,0,1,.524.475.5.5,0,0,1-.475.523q-1.986.1-3.99.217h-.03A.5.5,0,0,1,47.386,9.1ZM60.292,50.511,59.023,54.3a.5.5,0,1,1-.948-.316l1.268-3.794a.5.5,0,1,1,.948.316Zm2.219-6.639-1.268,3.794a.5.5,0,1,1-.948-.316l1.268-3.794a.5.5,0,1,1,.948.316ZM54.378,8.746a.5.5,0,0,1,.48-.52q2.009-.079,4.005-.132a.507.507,0,0,1,.513.486.5.5,0,0,1-.487.514q-1.991.053-3.993.132h-.02A.5.5,0,0,1,54.378,8.746ZM66.952,27.433l1.268-3.794a.5.5,0,1,1,.948.316L67.9,27.749a.5.5,0,1,1-.948-.316Zm6.339-17.388a.5.5,0,0,1,.315.633l-1.268,3.793a.5.5,0,1,1-.948-.316l1.268-3.793A.5.5,0,0,1,73.291,10.045Zm-1.9,7.271L70.119,21.11a.5.5,0,1,1-.948-.316L70.439,17a.5.5,0,1,1,.948.316ZM68.377,8.48a.5.5,0,0,1,.5-.5h0c1.332.006,2.671.021,4.006.044a.5.5,0,0,1-.009,1h-.009C71.537,9,70.2,8.988,68.875,8.982A.5.5,0,0,1,68.377,8.48Zm-7,.057a.5.5,0,0,1,.491-.509q2.008-.035,4.007-.045h0a.5.5,0,0,1,0,1q-1.993.01-3.994.045h-.009A.5.5,0,0,1,61.377,8.537Zm-3.3,48.612L56.8,60.943a.5.5,0,1,1-.948-.316l1.268-3.794a.5.5,0,1,1,.948.316Zm8.562-27.188a.5.5,0,0,1,.315.633l-1.268,3.794a.5.5,0,1,1-.948-.316L66,30.277A.5.5,0,0,1,66.634,29.961ZM26.465,11a.5.5,0,0,1,.437-.556l1.163-.137q1.417-.16,2.82-.309a.5.5,0,0,1,.106.994q-1.4.149-2.813.309l-1.157.135a.423.423,0,0,1-.06,0A.5.5,0,0,1,26.465,11ZM64.73,37.233l-1.268,3.793a.5.5,0,1,1-.948-.316l1.268-3.793a.5.5,0,1,1,.948.316ZM12.461,83.164a.5.5,0,0,1,.383-.594c1.245-.27,2.573-.527,3.948-.769a.493.493,0,0,1,.579.406.5.5,0,0,1-.406.578c-1.362.239-2.678.5-3.91.761a.493.493,0,0,1-.106.012A.5.5,0,0,1,12.461,83.164ZM6.066,15.738a.5.5,0,0,1,.274-.652c1.146-.468,2.43-.92,3.815-1.344a.5.5,0,0,1,.292.957c-1.356.414-2.611.855-3.729,1.313a.5.5,0,0,1-.652-.273Zm6.64-2.2a.5.5,0,0,1,.36-.608c1.236-.316,2.556-.619,3.922-.9a.494.494,0,0,1,.59.389.5.5,0,0,1-.389.59c-1.351.278-2.654.578-3.875.89a.5.5,0,0,1-.608-.36Zm6.838-1.493a.5.5,0,0,1,.406-.579q1.909-.335,3.967-.63a.5.5,0,0,1,.142.99q-2.041.292-3.936.624a.439.439,0,0,1-.087.008A.5.5,0,0,1,19.544,12.043Zm-.2,69.841a.5.5,0,0,1,.419-.569c1.33-.2,2.662-.389,3.975-.559a.5.5,0,1,1,.128.992c-1.305.168-2.629.354-3.952.555a.5.5,0,0,1-.569-.419Zm18.878-2.136a.5.5,0,0,1-.455.541q-1.975.171-3.977.365l-.049,0a.5.5,0,0,1-.048-1q2.009-.195,3.988-.365A.5.5,0,0,1,38.225,79.748Zm-32.5,5.314a.5.5,0,0,1,.306-.637c1.15-.4,2.453-.795,3.872-1.162a.5.5,0,0,1,.251.969c-1.392.36-2.668.742-3.792,1.137A.492.492,0,0,1,6.2,85.4.5.5,0,0,1,5.725,85.063Zm45.593-7.94a4.747,4.747,0,0,1-3.556,2.43.473.473,0,0,1-.064,0,.5.5,0,0,1-.063-1,3.743,3.743,0,0,0,2.805-1.916.5.5,0,1,1,.878.479Zm2.316-6.694-1.268,3.794a.5.5,0,1,1-.948-.316l1.268-3.794a.5.5,0,1,1,.948.316ZM45.2,79.222a.5.5,0,0,1-.465.532q-1.986.133-3.983.289l-.04,0a.5.5,0,0,1-.039-1q2.005-.158,3.994-.291A.5.5,0,0,1,45.2,79.222ZM31.257,80.4a.5.5,0,0,1-.445.549q-1.862.195-3.758.41l-.209.023a.438.438,0,0,1-.062,0,.5.5,0,0,1-.061-1l.22-.025q1.9-.215,3.766-.41A.494.494,0,0,1,31.257,80.4Zm24.6-16.614-1.268,3.793a.5.5,0,1,1-.948-.316L54.9,63.473a.5.5,0,1,1,.948.316Zm51.9,22.949a.5.5,0,1,1-.565.824,17.492,17.492,0,0,0-3.465-1.737.5.5,0,0,1,.363-.932A18.4,18.4,0,0,1,107.752,86.738ZM80.907,80.76a.5.5,0,0,1-.5.449l-.051,0q-1.944-.2-3.976-.365a.5.5,0,1,1,.082-1q2.041.168,3.995.367A.5.5,0,0,1,80.907,80.76Zm6.95.86a.5.5,0,0,1-.495.43.582.582,0,0,1-.071,0q-1.915-.272-3.957-.514a.5.5,0,0,1-.438-.555.494.494,0,0,1,.555-.437q2.052.242,3.98.516A.5.5,0,0,1,87.857,81.62ZM73.931,80.152a.5.5,0,0,1-.5.465H73.4q-1.96-.138-3.986-.244a.5.5,0,0,1-.473-.525.484.484,0,0,1,.526-.473q2.034.107,4,.244A.5.5,0,0,1,73.931,80.152Zm-6.993-.4a.5.5,0,0,1-.5.479h-.021q-1.969-.082-3.991-.135a.5.5,0,0,1-.487-.513.554.554,0,0,1,.513-.487q2.028.053,4.007.135A.5.5,0,0,1,66.938,79.752Zm27.819,3.064a.5.5,0,0,1-.49.4.489.489,0,0,1-.1-.01c-1.243-.248-2.562-.487-3.921-.711a.5.5,0,0,1-.412-.574.492.492,0,0,1,.574-.412c1.371.225,2.7.466,3.955.717A.5.5,0,0,1,94.757,82.816Zm6.787,1.715a.5.5,0,0,1-.624.333c-1.17-.355-2.461-.7-3.835-1.023a.5.5,0,1,1,.229-.973c1.4.328,2.706.678,3.9,1.039A.5.5,0,0,1,101.543,84.531Zm1.9-69.349a.5.5,0,0,1-.471.332.505.505,0,0,1-.168-.029c-1.114-.4-2.387-.787-3.785-1.159a.5.5,0,1,1,.257-.967c1.425.379,2.725.777,3.864,1.185A.5.5,0,0,1,103.443,15.183Zm-13.6-3.257a.5.5,0,0,1-.494.423.531.531,0,0,1-.078-.006q-1.905-.3-3.947-.563a.5.5,0,1,1,.128-.992q2.055.267,3.975.567A.5.5,0,0,1,89.845,11.926Zm6.875,1.316a.5.5,0,0,1-.488.392.524.524,0,0,1-.109-.012c-1.223-.272-2.536-.536-3.9-.783a.5.5,0,1,1,.178-.984c1.38.25,2.707.516,3.942.791A.5.5,0,0,1,96.719,13.242Z"/></g></g></g></svg>