<?xml version="1.0" encoding="UTF-8"?>
<svg width="60px" height="37px" viewBox="0 0 60 37" version="1.1" xmlns="http://www.w3.org/2000/svg" xmlns:xlink="http://www.w3.org/1999/xlink">
    <!-- Generator: Sketch 58 (84663) - https://sketch.com -->
    <title>Chat</title>
    <desc>Created with Sketch.</desc>
    <g id="1200" stroke="none" stroke-width="1" fill="none" fill-rule="evenodd">
        <g id="01_Home_1200-4" transform="translate(-923.000000, -194.000000)" fill="#FFFFFF">
            <g id="1" transform="translate(-468.000000, -1093.000000)">
                <g id="Chat" transform="translate(1391.000000, 1287.000000)">
                    <path d="M27.8359366,29 C26.855596,26.2459066 25.7445967,24.7804346 18.1961345,25.8786511 C11.3001665,26.8819879 5.92268678,26.6008987 1.9838928,20.9647534 C-1.21172949,16.3919709 -1.58515447,4.64673396 8.84339792,1.44599595 C19.2717904,-1.75474207 31.6111272,0.0463588468 32.8291164,9.99969237 C34.1030793,20.408868 27.8359366,29 27.8359366,29" id="Fill-264"></path>
                    <path d="M56.7137778,37 C56.0899247,35.2905627 55.3829252,34.3809594 50.5793583,35.062611 C46.191015,35.6853718 42.7689825,35.5109027 40.2624772,32.0126056 C38.2288994,29.1743268 37.9912653,21.8841797 44.6276169,19.8975147 C51.2638666,17.9108498 59.1161719,19.0287745 59.8912559,25.2067056 C60.7019596,31.6675733 56.7137778,37 56.7137778,37" id="Fill-264" transform="translate(49.500000, 28.000000) scale(-1, 1) translate(-49.500000, -28.000000) "></path>
                </g>
            </g>
        </g>
    </g>
</svg>