<svg width="72" height="75" viewBox="0 0 72 75" fill="none" xmlns="http://www.w3.org/2000/svg">
<path d="M32.6958 0.652222H29.3914C25.7415 0.652222 22.7827 3.61104 22.7827 7.26092V7.26092C22.7827 10.9108 25.7415 13.8696 29.3914 13.8696H32.6958M39.3045 0.652222H42.6088C46.2587 0.652222 49.2175 3.61104 49.2175 7.26092V7.26092C49.2175 10.9108 46.2587 13.8696 42.6088 13.8696H39.3045" stroke="#D72D24" stroke-linecap="round"/>
<path d="M31.0435 7.26086H40.9565" stroke="#D72D24" stroke-linecap="round"/>
<path d="M51.7827 54.5205H49.9131C47.7039 54.5205 45.9131 52.7297 45.9131 50.5205V33.1932C45.9131 30.9841 47.7039 29.1932 49.9131 29.1932H66.6957C68.9048 29.1932 70.6957 30.9841 70.6957 33.1932V50.5205C70.6957 52.7297 68.9048 54.5205 66.6957 54.5205H64.8261" stroke="#D72D24"/>
<rect x="54.239" y="16.0553" width="8.13043" height="10.6895" rx="4.06522" stroke="#D72D24"/>
<path d="M51.1306 37.6354V74.6522" stroke="#D72D24"/>
<path d="M65.4783 37.6354V74.6522" stroke="#D72D24"/>
<path d="M58.304 59.7157V74.6523" stroke="#D72D24"/>
<path d="M7.17401 54.5205H5.30444C3.0953 54.5205 1.30444 52.7297 1.30444 50.5205V33.1932C1.30444 30.9841 3.0953 29.1932 5.30444 29.1932H22.087C24.2962 29.1932 26.0871 30.9841 26.0871 33.1932V50.5205C26.0871 52.7297 24.2962 54.5205 22.0871 54.5205H20.2175" stroke="#D72D24"/>
<rect x="9.63037" y="16.0553" width="8.13043" height="10.6895" rx="4.06522" stroke="#D72D24"/>
<path d="M6.52173 37.6354V74.6522" stroke="#D72D24"/>
<path d="M20.8694 37.6354V74.6522" stroke="#D72D24"/>
<path d="M13.6953 59.7157V74.6523" stroke="#D72D24"/>
</svg>
