<svg width="56" height="76" viewBox="0 0 56 76" fill="none" xmlns="http://www.w3.org/2000/svg">
<path d="M0.5 34.5H55.5V48C55.5 63.1878 43.1878 75.5 28 75.5C12.8122 75.5 0.5 63.1878 0.5 48V34.5Z" stroke="#D72D24"/>
<path d="M7.5 34.5H48.5V21C48.5 9.67816 39.3218 0.5 28 0.5C16.6782 0.5 7.5 9.67816 7.5 21V34.5Z" stroke="#D72D24"/>
<path d="M11.5 34.5H44.5V22C44.5 12.8873 37.1127 5.5 28 5.5C18.8873 5.5 11.5 12.8873 11.5 22V34.5Z" stroke="#D72D24"/>
<path d="M31.054 58.1613L30.8044 58.3057V58.5941V62.7826C30.8044 64.3314 29.5489 65.587 28.0001 65.587C26.4513 65.587 25.1957 64.3314 25.1957 62.7826V58.5941V58.3057L24.9461 58.1613C23.1189 57.1043 21.8914 55.13 21.8914 52.8696C21.8914 49.4958 24.6263 46.7609 28.0001 46.7609C31.3738 46.7609 34.1087 49.4958 34.1087 52.8696C34.1087 55.13 32.8812 57.1043 31.054 58.1613Z" stroke="#D72D24"/>
<circle cx="28.0001" cy="52.8695" r="2.80435" stroke="#D72D24"/>
<path d="M0.739258 39.6522H55.261" stroke="#D72D24"/>
</svg>
