<svg width="68" height="76" viewBox="0 0 68 76" fill="none" xmlns="http://www.w3.org/2000/svg">
<path d="M30.5585 7.14143C32.1369 5.77345 33.3583 4.25557 34 2.60285C34.6417 4.25557 35.8631 5.77345 37.4416 7.14143C39.8216 9.20407 43.077 10.9842 46.614 12.4406C53.454 15.2571 61.4697 16.9119 66.5424 17.0165C66.4333 41.3783 58.2739 55.9831 50.1597 64.503C46.0703 68.7968 41.9829 71.5551 38.9221 73.2385C37.3918 74.0802 36.1187 74.6528 35.2313 75.0142C34.7876 75.1948 34.4405 75.3225 34.2059 75.4046C34.123 75.4337 34.0541 75.457 34 75.4749C33.946 75.457 33.8771 75.4337 33.7941 75.4046C33.5596 75.3225 33.2124 75.1948 32.7687 75.0142C31.8813 74.6528 30.6082 74.0802 29.0779 73.2385C26.0171 71.5551 21.9297 68.7968 17.8404 64.503C9.72613 55.9831 1.56671 41.3783 1.45765 17.0165C6.53038 16.9119 14.546 15.2571 21.386 12.4406C24.923 10.9842 28.1785 9.20407 30.5585 7.14143Z" stroke="#D72D24"/>
<path d="M31.4981 15.2924C32.6024 14.3492 33.4849 13.3023 34.0001 12.1603C34.5154 13.3023 35.3979 14.3492 36.5022 15.2924C38.3014 16.8291 40.7565 18.1509 43.4154 19.2298C48.5014 21.2937 54.4538 22.5168 58.2812 22.6179C58.1712 40.5133 52.0794 51.2387 46.0319 57.4966C42.9754 60.6593 39.9207 62.6907 37.6342 63.9301C36.491 64.5497 35.5405 64.971 34.8788 65.2365C34.548 65.3692 34.2895 65.463 34.1154 65.523C34.0716 65.5382 34.0331 65.5511 34.0001 65.5621C33.9672 65.5511 33.9287 65.5382 33.8849 65.523C33.7107 65.463 33.4522 65.3692 33.1215 65.2365C32.4598 64.971 31.5093 64.5497 30.3661 63.9301C28.0796 62.6907 25.0248 60.6593 21.9684 57.4966C15.9209 51.2387 9.82905 40.5133 9.71904 22.6179C13.5465 22.5168 19.4989 21.2937 24.5849 19.2298C27.2438 18.1509 29.6989 16.8291 31.4981 15.2924Z" stroke="#D72D24"/>
<path d="M35.6522 48.7391L24.9131 38" stroke="#D72D24"/>
<path d="M35.6522 40.4783L24.9131 29.7391" stroke="#D72D24"/>
<path d="M44.7391 40.4783L34 29.7391" stroke="#D72D24"/>
</svg>
