<svg width="180" height="80" viewBox="0 0 180 80" fill="none" xmlns="http://www.w3.org/2000/svg">
<g clip-path="url(#clip0)">
<path d="M88.9785 0H90.0042V7.68701H88.9785V0Z" fill="black"/>
<path d="M88.9785 47.1471H90.0042V54.8342H88.9785V47.1471Z" fill="black"/>
<path fill-rule="evenodd" clip-rule="evenodd" d="M170.412 57.417C170.412 57.4101 170.412 57.4032 170.412 57.3964C170.412 57.7997 170.06 58.2494 169.488 58.7028C167.559 60.2318 163.136 61.8054 161.328 61.8054C161.328 62.2727 161.336 62.7278 161.351 63.1708C161.846 78.0553 170.412 79.4413 170.412 79.4413V79.4412V72.3553H169.227V69.2061H166.068V66.8442H169.227V63.6949H170.412V57.417Z" fill="#FE3D32"/>
<path fill-rule="evenodd" clip-rule="evenodd" d="M170.412 57.4102C170.412 57.406 170.412 57.4016 170.412 57.3974C170.412 57.8009 170.765 58.2504 171.338 58.7039C173.265 60.2329 177.689 61.8064 179.496 61.8064C179.496 62.2738 179.489 62.7288 179.474 63.1721C178.979 78.0565 170.412 79.4424 170.412 79.4424V72.3565H171.597V69.2072H174.758V66.8453H171.597V63.6959H170.412V57.4102Z" fill="#D72D24"/>
<path d="M0 22.461H20.4601L20.8536 30.2317H20.1453C19.0437 27.5891 17.8895 25.7839 16.6828 24.8157C15.4762 23.8215 13.7057 23.3245 11.3711 23.3245H9.99399V35.4514H11.3318C12.5646 35.4514 13.6007 34.9937 14.4401 34.0778C15.2796 33.1359 15.8697 31.88 16.2108 30.3102H16.8009V41.9271H16.132C15.6598 39.9647 15.0173 38.5649 14.2041 37.7278C13.4171 36.8905 12.3285 36.4719 10.9383 36.4719H9.99399V49.0699H11.4892C13.9024 49.0699 15.9485 48.3503 17.6273 46.9114C19.3321 45.4723 20.4995 43.6277 21.129 41.3776H21.9159L21.6012 49.9333H0V49.0699H2.32144V23.3245H0V22.461Z" fill="black"/>
<path d="M32.1076 41.8093C32.1076 44.5043 32.2387 46.3226 32.501 47.2645C32.7632 48.1803 33.2749 48.6381 34.0355 48.6381C34.7962 48.6381 35.4782 48.1671 36.0815 47.2252C36.6848 46.2833 36.9865 44.9883 36.9865 43.3399V36.0402C36.9865 34.9151 36.7504 33.9602 36.2782 33.1752C35.8324 32.3902 35.2028 31.9978 34.3897 31.9978C33.4715 31.9978 32.8552 32.5864 32.5403 33.7638C32.2517 34.9151 32.1076 36.9166 32.1076 39.7685V41.8093ZM36.9865 74.1139V46.9506C35.9897 49.2006 34.2847 50.3257 31.8715 50.3257C26.9663 50.3257 24.5137 47.0683 24.5137 40.5535C24.5137 37.2306 25.1825 34.7843 26.5204 33.2145C27.8843 31.6445 29.9173 30.8597 32.6191 30.8597C34.7962 30.8597 36.3307 31.6838 37.2226 33.3321L37.498 31.2521H46.469V31.9585H44.305V74.1139V74.8203H36.9865V74.1139Z" fill="black"/>
<path d="M70.2694 49.9332H61.2985L60.8656 47.0682C60.4459 48.1148 59.8163 48.9258 58.9769 49.5015C58.1638 50.0509 56.9441 50.3256 55.3178 50.3256C51.2519 50.3256 49.2191 48.141 49.2191 43.7716V31.9585H47.0156V31.2521H56.5375V44.7135C56.5375 46.2833 56.6425 47.3168 56.8523 47.8139C57.0883 48.311 57.5342 48.5596 58.19 48.5596C58.8721 48.5596 59.4754 48.154 59.9999 47.343C60.5246 46.5319 60.787 45.4069 60.787 43.9678V31.9585H58.9769V31.2521H68.1053V49.2268H70.2694V49.9332Z" fill="black"/>
<path d="M76.8583 28.5441C75.4681 28.5441 74.4712 28.1909 73.8679 27.4844C73.2909 26.778 73.0023 25.9014 73.0023 24.8549C73.0023 23.8084 73.3171 22.945 73.9467 22.2647C74.6025 21.5845 75.586 21.2444 76.8976 21.2444C78.2092 21.2444 79.206 21.5583 79.888 22.1863C80.5699 22.7879 80.911 23.6645 80.911 24.8156C80.911 25.9407 80.5831 26.8434 79.9273 27.5237C79.2715 28.2039 78.2485 28.5441 76.8583 28.5441ZM70.917 31.252H80.5569V49.2268H82.7602V49.9332H71.0743V49.2268H73.2384V31.9585H70.917V31.252Z" fill="black"/>
<path d="M85.7266 5.12463H93.0449V49.2268V49.9332H85.7266V49.2268V5.83106V5.12463Z" fill="black"/>
<path d="M101.796 28.5441C100.405 28.5441 99.4087 28.1909 98.8054 27.4844C98.2284 26.778 97.9398 25.9014 97.9398 24.8549C97.9398 23.8084 98.2546 22.945 98.8842 22.2647C99.54 21.5845 100.524 21.2444 101.835 21.2444C103.147 21.2444 104.143 21.5583 104.826 22.1863C105.507 22.7879 105.849 23.6645 105.849 24.8156C105.849 25.9407 105.521 26.8434 104.865 27.5237C104.209 28.2039 103.186 28.5441 101.796 28.5441ZM95.8545 31.252H105.494V49.2268H107.698V49.9332H96.0118V49.2268H98.1759V31.9585H95.8545V31.252Z" fill="black"/>
<path d="M122.861 39.376C122.861 36.681 122.73 34.8757 122.468 33.9601C122.206 33.0182 121.694 32.5472 120.933 32.5472C120.173 32.5472 119.491 33.0182 118.887 33.9601C118.284 34.902 117.982 36.197 117.982 37.8453V45.1451C117.982 46.2702 118.205 47.2251 118.651 48.0101C119.123 48.7951 119.779 49.1875 120.619 49.1875C121.484 49.1875 122.074 48.6119 122.389 47.4606C122.704 46.3094 122.861 44.2948 122.861 41.4168V39.376ZM117.982 20.4987V34.2347C118.979 31.9847 120.684 30.8596 123.098 30.8596C128.003 30.8596 130.455 34.117 130.455 40.6318C130.455 43.9547 129.773 46.401 128.409 47.9708C127.071 49.5408 125.052 50.3256 122.35 50.3256C120.986 50.3256 119.937 50.1163 119.202 49.6977C118.494 49.2791 118.009 48.5857 117.746 47.6177L117.471 49.9332H108.5V49.2267H110.664V21.2051H108.5V20.4987H117.982Z" fill="black"/>
<path d="M144.773 32.351C143.802 32.351 142.95 32.979 142.215 34.2348C141.481 35.4907 141.113 36.9821 141.113 38.7088V49.2268H143.907V49.9333H131.631V49.2268H133.795V31.9585H131.631V31.2521H141.113V35.0197C141.454 33.6854 142.11 32.665 143.081 31.9585C144.051 31.226 145.153 30.8597 146.386 30.8597C147.619 30.8597 148.615 31.2128 149.376 31.9193C150.163 32.5996 150.556 33.5808 150.556 34.8628C150.556 36.1186 150.268 37.0867 149.691 37.7669C149.114 38.4473 148.222 38.7874 147.015 38.7874C145.835 38.7874 144.956 38.3949 144.379 37.61C143.828 36.825 143.763 35.7392 144.182 34.3526H145.599C146.255 33.0183 145.979 32.351 144.773 32.351Z" fill="black"/>
<path d="M156.897 28.5441C155.506 28.5441 154.509 28.1909 153.906 27.4844C153.328 26.778 153.04 25.9014 153.04 24.8549C153.04 23.8084 153.355 22.945 153.984 22.2647C154.641 21.5845 155.623 21.2444 156.936 21.2444C158.247 21.2444 159.244 21.5583 159.925 22.1863C160.608 22.7879 160.948 23.6645 160.948 24.8156C160.948 25.9407 160.621 26.8434 159.966 27.5237C159.309 28.2039 158.286 28.5441 156.897 28.5441ZM150.955 31.252H160.594V49.2268H162.798V49.9332H151.113V49.2268H153.276V31.9585H150.955V31.252Z" fill="black"/>
<path d="M164.505 50.3256V43.3006H164.977C165.66 45.5768 166.578 47.1729 167.731 48.0887C168.886 49.0044 170.328 49.4623 172.06 49.4623C174.735 49.4623 176.073 48.6119 176.073 46.9113C176.073 46.1786 175.744 45.6291 175.089 45.263C174.066 44.6872 172.755 44.2425 171.154 43.9285C169.371 43.4575 167.875 42.8297 166.669 42.0447C165.226 41.1028 164.505 39.6115 164.505 37.5706C164.505 35.5299 165.135 33.9078 166.393 32.7042C167.653 31.4745 169.332 30.8597 171.43 30.8597C172.716 30.8597 174.04 31.1605 175.404 31.7623C175.902 31.9715 176.283 32.0763 176.545 32.0763C176.808 32.0763 177.03 31.9847 177.214 31.8016C177.397 31.6184 177.621 31.2783 177.883 30.7811H178.315V36.7858H177.843C176.506 33.3844 174.433 31.6837 171.627 31.6837C170.394 31.6837 169.476 31.9062 168.873 32.3509C168.27 32.7695 167.967 33.306 167.967 33.9601C167.967 34.3525 168.06 34.6665 168.243 34.902C168.427 35.1113 168.571 35.2682 168.676 35.373C168.781 35.4776 168.951 35.5953 169.188 35.7261C169.423 35.8307 169.62 35.9223 169.777 36.0009C169.935 36.0532 170.17 36.1317 170.485 36.2363C170.827 36.341 171.076 36.4065 171.234 36.4325C173.017 36.8774 174.303 37.2698 175.089 37.6099C175.876 37.9239 176.623 38.3163 177.331 38.7873C178.774 39.7815 179.496 41.3906 179.496 43.6146C179.496 45.8123 178.84 47.4869 177.529 48.638C176.217 49.7631 174.42 50.3256 172.138 50.3256C170.512 50.3256 168.939 49.9463 167.416 49.1875C167.101 48.9783 166.852 48.8735 166.669 48.8735C166.092 48.8735 165.528 49.3576 164.977 50.3256H164.505Z" fill="black"/>
<path d="M56.6541 63.6968L59.5201 72.6594L62.3863 63.6968H64.1664V74.6813H62.7861V70.4036L62.9143 66.1186L60.0406 74.6813H58.9846L56.1261 66.1487L56.2543 70.4036V74.6813H54.874V63.6968H56.6541Z" fill="#FE3D32"/>
<path d="M70.5624 74.6812C70.482 74.5051 70.4242 74.2084 70.389 73.7909C69.9163 74.485 69.3129 74.832 68.5788 74.832C67.8396 74.832 67.2613 74.6258 66.844 74.2134C66.4317 73.796 66.2256 73.2101 66.2256 72.4557C66.2256 71.6258 66.5071 70.9668 67.0702 70.4791C67.6335 69.9912 68.4054 69.7422 69.3858 69.7322H70.3663V68.8646C70.3663 68.3768 70.2582 68.0298 70.042 67.8235C69.8259 67.6173 69.4965 67.5141 69.054 67.5141C68.6517 67.5141 68.3248 67.635 68.0734 67.8763C67.822 68.1127 67.6963 68.4145 67.6963 68.7816H66.3613C66.3613 68.3642 66.4845 67.9668 66.7309 67.5897C66.9772 67.2073 67.3092 66.9081 67.7265 66.6918C68.1438 66.4756 68.6089 66.3675 69.1218 66.3675C69.9565 66.3675 70.5901 66.5761 71.0226 66.9936C71.46 67.4061 71.6838 68.0095 71.6938 68.8042V72.9233C71.6988 73.5521 71.7843 74.0977 71.9503 74.5604V74.6812H70.5624ZM68.7825 73.6175C69.1093 73.6175 69.421 73.527 69.7177 73.3459C70.0144 73.1648 70.2306 72.9385 70.3663 72.6669V70.7204H69.6121C68.9785 70.7305 68.4783 70.8739 68.1112 71.1505C67.744 71.4221 67.5606 71.8043 67.5606 72.2973C67.5606 72.76 67.6536 73.0969 67.8396 73.3081C68.0257 73.5144 68.34 73.6175 68.7825 73.6175Z" fill="#FE3D32"/>
<path d="M75.0281 66.5183L75.0658 67.401C75.5837 66.7119 76.2449 66.3675 77.0495 66.3675C78.4926 66.3675 79.2242 67.3305 79.2443 69.2569V74.6813H77.9168V69.3173C77.9168 68.6785 77.8088 68.2258 77.5925 67.9593C77.3813 67.6877 77.0621 67.5519 76.6346 67.5519C76.3028 67.5519 76.0035 67.6625 75.7371 67.8838C75.4755 68.1052 75.2644 68.3943 75.1036 68.7515V74.6813H73.7686V66.5183H75.0281Z" fill="#FE3D32"/>
<path d="M85.4512 74.6812C85.3708 74.5051 85.3129 74.2084 85.2777 73.7909C84.805 74.485 84.2017 74.832 83.4675 74.832C82.7284 74.832 82.1502 74.6258 81.7327 74.2134C81.3205 73.796 81.1143 73.2101 81.1143 72.4557C81.1143 71.6258 81.3958 70.9668 81.9591 70.4791C82.5222 69.9912 83.2941 69.7422 84.2746 69.7322H85.2552V68.8646C85.2552 68.3768 85.147 68.0298 84.9307 67.8235C84.7146 67.6173 84.3852 67.5141 83.9427 67.5141C83.5405 67.5141 83.2137 67.635 82.9623 67.8763C82.7107 68.1127 82.585 68.4145 82.585 68.7816H81.25C81.25 68.3642 81.3733 67.9668 81.6196 67.5897C81.8661 67.2073 82.1979 66.9081 82.6153 66.6918C83.0326 66.4756 83.4978 66.3675 84.0106 66.3675C84.8452 66.3675 85.4788 66.5761 85.9113 66.9936C86.3488 67.4061 86.5725 68.0095 86.5825 68.8042V72.9233C86.5876 73.5521 86.6731 74.0977 86.839 74.5604V74.6812H85.4512ZM83.6712 73.6175C83.998 73.6175 84.3097 73.527 84.6064 73.3459C84.9031 73.1648 85.1193 72.9385 85.2552 72.6669V70.7204H84.5008C83.8672 70.7305 83.367 70.8739 82.9999 71.1505C82.6329 71.4221 82.4493 71.8043 82.4493 72.2973C82.4493 72.76 82.5423 73.0969 82.7284 73.3081C82.9144 73.5144 83.2287 73.6175 83.6712 73.6175Z" fill="#FE3D32"/>
<path d="M88.3926 70.2301C88.3926 68.9576 88.6239 67.9969 89.0865 67.3482C89.5491 66.6944 90.2254 66.3675 91.1154 66.3675C91.945 66.3675 92.5761 66.722 93.0085 67.4313L93.0765 66.5183H94.2832V74.7566C94.2832 75.7675 94.0243 76.5421 93.5064 77.0802C92.9884 77.6234 92.2669 77.895 91.3417 77.895C90.9394 77.895 90.4869 77.7945 89.9841 77.5933C89.4862 77.3971 89.1117 77.1532 88.8603 76.8614L89.4033 75.9411C89.9565 76.4843 90.5673 76.7559 91.2361 76.7559C92.3473 76.7559 92.9181 76.1499 92.9482 74.9377V73.8739C92.5158 74.5126 91.9024 74.832 91.1079 74.832C90.2631 74.832 89.6044 74.5152 89.1318 73.8814C88.6591 73.2428 88.4127 72.3274 88.3926 71.1355V70.2301ZM89.7276 70.992C89.7276 71.9074 89.8609 72.5814 90.1273 73.0139C90.3988 73.4414 90.8413 73.6551 91.4548 73.6551C92.1186 73.6551 92.6164 73.3156 92.9482 72.6368V68.5553C92.6013 67.8863 92.1085 67.5519 91.47 67.5519C90.8565 67.5519 90.414 67.7682 90.1425 68.2006C89.871 68.6283 89.7327 69.287 89.7276 70.1772V70.992Z" fill="#FE3D32"/>
<path d="M99.1942 74.832C98.1786 74.832 97.3992 74.5303 96.8562 73.9267C96.313 73.3182 96.0366 72.428 96.0264 71.2561V70.2678C96.0264 69.0507 96.2904 68.0977 96.8184 67.4086C97.3515 66.7145 98.0931 66.3675 99.0435 66.3675C99.9988 66.3675 100.713 66.6718 101.185 67.2803C101.658 67.8889 101.899 68.8369 101.91 70.1245V70.9997H97.3539V71.1882C97.3539 72.0633 97.5174 72.6996 97.8442 73.0969C98.176 73.4943 98.6512 73.6929 99.2697 73.6929C99.6619 73.6929 100.006 73.62 100.303 73.474C100.605 73.3233 100.886 73.0869 101.148 72.7649L101.842 73.6098C101.263 74.4246 100.381 74.832 99.1942 74.832ZM99.0435 67.5141C98.4903 67.5141 98.0805 67.7053 97.8141 68.0875C97.5475 68.4647 97.3966 69.0532 97.3615 69.8529H100.575V69.6718C100.539 68.8973 100.399 68.3441 100.152 68.0121C99.9108 67.6802 99.5412 67.5141 99.0435 67.5141Z" fill="#FE3D32"/>
<path d="M104.775 66.5183L104.806 67.2728C105.303 66.6692 105.96 66.3675 106.774 66.3675C107.684 66.3675 108.32 66.7623 108.682 67.5519C109.195 66.7623 109.909 66.3675 110.825 66.3675C112.328 66.3675 113.097 67.3055 113.132 69.1815V74.6813H111.805V69.3097C111.805 68.7163 111.699 68.2762 111.488 67.9894C111.277 67.6978 110.92 67.5519 110.417 67.5519C110.015 67.5519 109.688 67.7078 109.437 68.0196C109.185 68.3315 109.039 68.7288 108.999 69.2116V74.6813H107.657V69.2494C107.642 68.1177 107.181 67.5519 106.276 67.5519C105.603 67.5519 105.127 67.8889 104.851 68.5628V74.6813H103.523V66.5183H104.775Z" fill="#FE3D32"/>
<path d="M118.065 74.832C117.05 74.832 116.27 74.5303 115.727 73.9267C115.184 73.3182 114.908 72.428 114.897 71.2561V70.2678C114.897 69.0507 115.161 68.0977 115.689 67.4086C116.222 66.7145 116.964 66.3675 117.914 66.3675C118.87 66.3675 119.584 66.6718 120.057 67.2803C120.529 67.8889 120.771 68.8369 120.781 70.1245V70.9997H116.225V71.1882C116.225 72.0633 116.388 72.6996 116.715 73.0969C117.047 73.4943 117.522 73.6929 118.141 73.6929C118.533 73.6929 118.877 73.62 119.174 73.474C119.476 73.3233 119.757 73.0869 120.019 72.7649L120.713 73.6098C120.134 74.4246 119.252 74.832 118.065 74.832ZM117.914 67.5141C117.361 67.5141 116.952 67.7053 116.685 68.0875C116.419 68.4647 116.268 69.0532 116.232 69.8529H119.446V69.6718C119.41 68.8973 119.27 68.3441 119.023 68.0121C118.782 67.6802 118.412 67.5141 117.914 67.5141Z" fill="#FE3D32"/>
<path d="M123.646 66.5183L123.684 67.401C124.202 66.7119 124.863 66.3675 125.668 66.3675C127.111 66.3675 127.842 67.3305 127.863 69.2569V74.6813H126.535V69.3173C126.535 68.6785 126.427 68.2258 126.211 67.9593C126 67.6877 125.68 67.5519 125.253 67.5519C124.921 67.5519 124.622 67.6625 124.355 67.8838C124.094 68.1052 123.883 68.3943 123.722 68.7515V74.6813H122.387V66.5183H123.646Z" fill="#FE3D32"/>
<path d="M131.619 64.5417V66.5183H132.848V67.5972H131.619V72.6594C131.619 72.9812 131.672 73.2251 131.777 73.3912C131.883 73.5571 132.064 73.6402 132.32 73.6402C132.496 73.6402 132.675 73.6099 132.856 73.5496L132.841 74.6813C132.539 74.7819 132.23 74.8321 131.913 74.8321C131.385 74.8321 130.983 74.6435 130.706 74.2662C130.43 73.8891 130.291 73.356 130.291 72.6669V67.5972H129.047V66.5183H130.291V64.5417H131.619Z" fill="#FE3D32"/>
<path d="M143.295 71.8144H139.584L138.731 74.6813H137.313L140.851 63.6968H142.035L145.58 74.6813H144.162L143.295 71.8144ZM139.946 70.6224H142.94L141.439 65.6281L139.946 70.6224Z" fill="#FE3D32"/>
<path d="M153.853 73.3156L153.612 73.6175C152.919 74.4272 151.903 74.8321 150.565 74.8321C149.378 74.8321 148.446 74.4398 147.767 73.6551C147.093 72.8655 146.749 71.7516 146.733 70.3131V68.1554C146.733 66.6165 147.04 65.4647 147.654 64.7002C148.272 63.9308 149.195 63.546 150.421 63.546C151.468 63.546 152.284 63.8377 152.874 64.4211C153.466 65.0044 153.793 65.8369 153.853 66.9182H152.473C152.418 66.2343 152.227 65.7011 151.9 65.3189C151.578 64.9316 151.089 64.7379 150.429 64.7379C149.64 64.7379 149.062 64.9969 148.694 65.515C148.327 66.028 148.136 66.8503 148.121 67.982V70.2225C148.121 71.329 148.332 72.179 148.755 72.7726C149.177 73.3609 149.783 73.6551 150.573 73.6551C151.317 73.6551 151.882 73.4741 152.269 73.1121L152.473 72.9234V70.3886H150.468V69.2117H153.853V73.3156Z" fill="#FE3D32"/>
</g>
<defs>
<clipPath id="clip0">
<rect width="180" height="79.4413" fill="white"/>
</clipPath>
</defs>
</svg>
