<svg width="60" height="60" viewBox="0 0 60 60" fill="none" xmlns="http://www.w3.org/2000/svg">
<g clip-path="url(#clip0)">
<path d="M58.3666 39.8286L55.2305 39.0443C54.9682 38.1785 54.62 37.3405 54.1913 36.544L55.8555 33.7707C56.0919 33.3771 56.0299 32.8731 55.7056 32.5484L52.5841 29.4229C52.2594 29.0982 51.7554 29.0367 51.3618 29.273L48.5885 30.9373C48.2285 30.7444 47.8584 30.5662 47.4814 30.404C47.0243 30.2102 46.5569 30.0412 46.0813 29.8981L45.297 26.7615C45.1861 26.3161 44.7862 26.0035 44.3271 26.0035H39.9154C39.4564 26.0035 39.0564 26.3161 38.9451 26.7615L38.1613 29.8981C37.295 30.1603 36.4574 30.5085 35.661 30.9373L32.8876 29.273C32.494 29.0367 31.9901 29.0982 31.6653 29.4229L28.5399 32.5445C28.2151 32.8692 28.1536 33.3732 28.39 33.7668L30.0542 36.5401C29.625 37.3366 29.2773 38.1741 29.015 39.0404L25.8784 39.8242C25.433 39.9356 25.1205 40.3355 25.1205 40.7946V45.2092C25.1205 45.6683 25.433 46.0682 25.8784 46.1791L29.015 46.9634C29.2773 47.8292 29.625 48.6667 30.0542 49.4637L28.39 52.237C28.1536 52.6306 28.2151 53.1346 28.5399 53.4594L31.6614 56.5809C31.9861 56.9051 32.4901 56.9671 32.8832 56.7308L35.6566 55.0665C36.4535 55.4953 37.291 55.8435 38.1569 56.1057L38.9412 59.2419C39.0525 59.6872 39.4525 59.9998 39.9115 60.0003H44.3262C44.7852 59.9998 45.1852 59.6872 45.296 59.2419L46.0803 56.1057C46.9461 55.8435 47.7837 55.4953 48.5806 55.0665L51.354 56.7308C51.7476 56.9671 52.2515 56.9051 52.5763 56.5809L55.6973 53.4594C56.0221 53.1346 56.0841 52.6306 55.8477 52.237L54.1834 49.4637C54.6122 48.6667 54.9604 47.8292 55.2226 46.9634L58.3588 46.1791C58.8042 46.0682 59.1167 45.6683 59.1167 45.2092V40.7985C59.1177 40.3419 58.8091 39.9424 58.3666 39.8286ZM57.1247 44.4318L54.1815 45.1682C53.8235 45.2571 53.5442 45.535 53.4534 45.8924C53.1779 46.9761 52.7477 48.0143 52.1749 48.9744C51.9864 49.2908 51.9864 49.6849 52.1749 50.0009L53.7371 52.6013L51.7241 54.6226L49.1237 53.0604C48.8077 52.8714 48.4136 52.8714 48.0977 53.0604C47.1371 53.6327 46.0989 54.0634 45.0152 54.3384C44.6578 54.4292 44.3799 54.709 44.291 55.0665L43.5487 58.0078H40.6963L39.9604 55.0645C39.8715 54.7071 39.5931 54.4273 39.2361 54.3364C38.1525 54.061 37.1143 53.6308 36.1537 53.0579C35.8377 52.8694 35.4436 52.8694 35.1277 53.0579L32.5272 54.6201L30.506 52.6072L32.0682 50.0067C32.2572 49.6908 32.2572 49.2967 32.0682 48.9807C31.4958 48.0201 31.0651 46.9819 30.7902 45.8983C30.6994 45.5413 30.4195 45.2629 30.0621 45.1741L27.1207 44.4318V41.5798L30.064 40.8434C30.4215 40.7545 30.7013 40.4767 30.7921 40.1192C31.0671 39.0356 31.4978 37.9973 32.0701 37.0372C32.2591 36.7208 32.2591 36.3267 32.0701 36.0107L30.5079 33.4103L32.5214 31.389L35.1218 32.9512C35.4378 33.1402 35.8319 33.1402 36.1478 32.9512C37.1084 32.3789 38.1466 31.9482 39.2303 31.6732C39.5873 31.5824 39.8656 31.3026 39.9545 30.9451L40.6963 28.0038H43.5487L44.2851 30.9471C44.374 31.3045 44.6519 31.5844 45.0089 31.6752C46.0925 31.9496 47.1307 32.3799 48.0903 32.9527C48.4068 33.1417 48.8014 33.1417 49.1178 32.9527L51.7178 31.3905L53.739 33.4044L52.1768 36.0049C51.9883 36.3208 51.9883 36.7149 52.1768 37.0309C52.7497 37.9915 53.1799 39.0297 53.4553 40.1133C53.5461 40.4703 53.8255 40.7487 54.1834 40.8376L57.1247 41.5798V44.4318Z" fill="#D72D24"/>
<path d="M42.1226 35.0046C37.7036 35.0046 34.1216 38.5867 34.1216 43.0057C34.1216 47.4248 37.7036 51.0068 42.1226 51.0068C46.5412 51.0068 50.1237 47.4248 50.1237 43.0057C50.1188 38.5891 46.5392 35.0095 42.1226 35.0046ZM42.1226 49.0065C38.8082 49.0065 36.1218 46.3196 36.1218 43.0057C36.1218 39.6918 38.8082 37.0049 42.1226 37.0049C45.4366 37.0049 48.1234 39.6918 48.1234 43.0057C48.12 46.3186 45.4351 49.0031 42.1226 49.0065Z" fill="#D72D24"/>
<path d="M47.1234 12.0017H49.1237V28.0038H47.1234V12.0017Z" fill="#D72D24"/>
<path d="M5.11772 51.0068V55.0073C5.11772 55.5597 5.56553 56.0075 6.11785 56.0075H27.1207V54.0072H7.11799V51.0068H19.1196C19.2744 51.0083 19.4272 50.9741 19.5664 50.9067L23.567 48.9064C23.9064 48.7375 24.1212 48.3907 24.1212 48.0113C24.1212 47.6323 23.9064 47.2856 23.567 47.1161L19.5664 45.1159C19.4282 45.0451 19.2749 45.0075 19.1196 45.006H7.11799V11.0015H45.1231C47.3323 11.0015 49.1236 9.21021 49.1236 7.00093V5.00067C49.1236 4.44835 48.6758 4.00053 48.1235 4.00053H45.1231V6.0008H47.1233V7.00093C47.1233 8.10557 46.2277 9.0012 45.1231 9.0012C44.0184 9.0012 43.1228 8.10557 43.1228 7.00093V4.00053C43.1228 2.89589 44.0184 2.00027 45.1231 2.00027H49.1236C50.2282 2.00027 51.1239 2.89589 51.1239 4.00053V27.0036H53.1241V4.00053C53.1241 1.79125 51.3329 0 49.1236 0H5.11772C2.90795 0 1.11719 1.79125 1.11719 4.00053V7.00093C1.11719 9.21021 2.90795 11.0015 5.11772 11.0015V45.006H4.11759C2.46063 45.006 1.11719 46.3494 1.11719 48.0064C1.11719 49.6634 2.46063 51.0068 4.11759 51.0068H5.11772ZM3.11745 7.00093V4.00053C3.11745 2.89589 4.01308 2.00027 5.11772 2.00027H41.6783C41.3184 2.60582 41.1264 3.29634 41.1225 4.00053V7.00093C41.1264 7.70513 41.3184 8.39565 41.6783 9.0012H5.11772C4.01308 9.0012 3.11745 8.10557 3.11745 7.00093ZM20.8835 48.0064L18.8832 49.0065H18.1195V47.0063H18.8832L20.8835 48.0064ZM3.11745 48.0064C3.11745 47.4541 3.56527 47.0063 4.11759 47.0063H16.1192V49.0065H4.11759C3.56527 49.0065 3.11745 48.5587 3.11745 48.0064Z" fill="#D72D24"/>
<path d="M1.11719 15.0021H3.11745V35.0047H1.11719V15.0021Z" fill="#D72D24"/>
<path d="M40.1224 16.0022V14.0019H27.1207C26.8555 14.0019 26.6011 14.1074 26.4136 14.2949L24.5862 16.1223C20.2174 12.9202 14.1653 13.3876 10.3401 17.2226C9.94994 17.6128 9.94994 18.2461 10.3401 18.6363L17.4124 25.7086C17.5994 25.8966 17.8538 26.003 18.1195 26.0035H28.1208C28.6731 26.0035 29.1209 25.5557 29.1209 25.0034C29.12 22.1881 28.0358 19.4812 26.0922 17.4443L27.5348 16.0022H40.1224ZM27.0645 24.0033H18.5336L12.5006 17.9702C15.5752 15.5085 19.8961 15.3405 23.1529 17.5556L20.4128 20.2957L21.827 21.71L24.6833 18.8536C26.0136 20.2674 26.8492 22.0743 27.0645 24.0033Z" fill="#D72D24"/>
<path d="M42.1227 14.0018H44.1229V16.0021H42.1227V14.0018Z" fill="#D72D24"/>
<path d="M12.1188 29.0039H14.119V31.0042H12.1188V29.0039Z" fill="#D72D24"/>
<path d="M16.1193 29.0039H26.1206V31.0042H16.1193V29.0039Z" fill="#D72D24"/>
<path d="M10.1184 33.0044H26.1205V35.0047H10.1184V33.0044Z" fill="#D72D24"/>
<path d="M32.1213 18.0024H34.1216V20.0027H32.1213V18.0024Z" fill="#D72D24"/>
<path d="M36.1219 18.0024H44.123V20.0027H36.1219V18.0024Z" fill="#D72D24"/>
<path d="M32.1213 22.0029H44.1229V24.0032H32.1213V22.0029Z" fill="#D72D24"/>
<path d="M10.1184 37.0049H23.1201V39.0052H10.1184V37.0049Z" fill="#D72D24"/>
</g>
<defs>
<clipPath id="clip0">
<rect width="60" height="60" fill="white"/>
</clipPath>
</defs>
</svg>
