<svg width="60" height="60" viewBox="0 0 60 60" fill="none" xmlns="http://www.w3.org/2000/svg">
<path d="M18.4364 5.75215L18.0398 5.65304C17.9016 5.61851 17.7573 5.61592 17.618 5.64549C17.4786 5.67506 17.3478 5.736 17.2355 5.82368C17.1232 5.91136 17.0324 6.02348 16.9699 6.15152C16.9075 6.27956 16.875 6.42015 16.875 6.56261V15.6397C16.875 19.8262 18.0741 23.9251 20.3305 27.4516C22.5868 30.978 25.806 33.7844 29.6071 35.5388C29.7303 35.5957 29.8643 35.6251 30 35.6251C30.1357 35.6251 30.2697 35.5957 30.3929 35.5388C34.194 33.7844 37.4132 30.978 39.6695 27.4516C41.9259 23.9251 43.125 19.8262 43.125 15.6397V6.56261C43.125 6.42015 43.0925 6.27956 43.0301 6.15152C42.9676 6.02348 42.8768 5.91136 42.7645 5.82368C42.6522 5.736 42.5214 5.67506 42.382 5.64549C42.2427 5.61592 42.0984 5.6185 41.9602 5.65304L41.5636 5.75226C39.6059 6.23447 37.5524 6.15844 35.6358 5.53277C33.7192 4.90711 32.0162 3.75686 30.7202 2.21249C30.6322 2.1069 30.5221 2.02195 30.3976 1.96364C30.2732 1.90534 30.1374 1.87512 30 1.87512C29.8626 1.87512 29.7268 1.90534 29.6024 1.96364C29.4779 2.02195 29.3678 2.1069 29.2798 2.21249C27.9838 3.75688 26.2808 4.90715 24.3642 5.53279C22.4476 6.15844 20.394 6.23443 18.4364 5.75215ZM30 4.20616C31.4107 5.63373 33.1424 6.70318 35.0506 7.32525C37.0501 7.97893 39.1815 8.12089 41.25 7.73815V15.6397C41.2429 19.3926 40.1853 23.0685 38.1971 26.2515C36.2089 29.4344 33.3694 31.9972 30 33.6499C26.6306 31.9972 23.7911 29.4344 21.8029 26.2515C19.8147 23.0685 18.7571 19.3926 18.75 15.6397V7.73815C20.8185 8.12072 22.9499 7.97876 24.9494 7.32525C26.8576 6.70318 28.5893 5.63373 30 4.20616Z" fill="#D72D24"/>
<path d="M22.5 10.3125H20.625V12.1875H22.5V10.3125Z" fill="#D72D24"/>
<path d="M22.5 14.0625H20.625V17.0167C20.6266 19.946 21.477 22.812 23.0732 25.2682C24.6694 27.7244 26.9431 29.6655 29.6193 30.8567C29.7391 30.91 29.8688 30.9375 30 30.9375C30.1312 30.9375 30.2609 30.91 30.3807 30.8567C33.0569 29.6655 35.3306 27.7244 36.9268 25.2682C38.523 22.812 39.3734 19.946 39.375 17.0167V10.3125C39.375 10.17 39.3425 10.0294 39.2801 9.90138C39.2176 9.77334 39.1267 9.66122 39.0145 9.57354C38.9022 9.48587 38.7713 9.42494 38.632 9.3954C38.4926 9.36585 38.3483 9.36846 38.2101 9.40303C37.1409 9.67344 36.0288 9.72909 34.9379 9.56676C33.8471 9.40442 32.7993 9.02732 31.8553 8.45729L30.4823 7.63354L29.5177 9.24144L30.8906 10.0652C32.873 11.2625 35.2042 11.7488 37.5 11.4441V17.0167C37.4985 19.5119 36.7942 21.9563 35.4677 24.0698C34.1413 26.1833 32.2464 27.8805 30 28.9668C27.7536 27.8805 25.8587 26.1833 24.5323 24.0698C23.2058 21.9563 22.5015 19.5119 22.5 17.0167V14.0625Z" fill="#D72D24"/>
<path d="M30 27.1875C30.5563 27.1875 31.1 27.0226 31.5625 26.7135C32.0251 26.4045 32.3855 25.9652 32.5984 25.4513C32.8113 24.9374 32.867 24.3719 32.7585 23.8263C32.6499 23.2807 32.3821 22.7796 31.9887 22.3863C31.5954 21.9929 31.0943 21.7251 30.5487 21.6165C30.0031 21.508 29.4376 21.5637 28.9237 21.7766C28.4098 21.9895 27.9705 22.3499 27.6615 22.8125C27.3524 23.275 27.1875 23.8187 27.1875 24.375C27.1883 25.1207 27.4849 25.8355 28.0122 26.3628C28.5395 26.8901 29.2543 27.1867 30 27.1875ZM30 23.4375C30.1854 23.4375 30.3667 23.4925 30.5208 23.5955C30.675 23.6985 30.7952 23.8449 30.8661 24.0162C30.9371 24.1875 30.9557 24.376 30.9195 24.5579C30.8833 24.7398 30.794 24.9068 30.6629 25.0379C30.5318 25.169 30.3648 25.2583 30.1829 25.2945C30.001 25.3307 29.8125 25.3121 29.6412 25.2411C29.4699 25.1702 29.3235 25.05 29.2205 24.8958C29.1175 24.7417 29.0625 24.5604 29.0625 24.375C29.0628 24.1264 29.1616 23.8882 29.3374 23.7124C29.5132 23.5366 29.7514 23.4378 30 23.4375Z" fill="#D72D24"/>
<path d="M28.1344 19.8201C28.1663 20.0435 28.2778 20.2479 28.4482 20.3958C28.6187 20.5436 28.8368 20.625 29.0625 20.625H30.9375C31.1631 20.625 31.3812 20.5436 31.5517 20.3958C31.7222 20.2479 31.8336 20.0435 31.8655 19.8201L32.803 13.2576C32.822 13.1247 32.8122 12.9892 32.7743 12.8603C32.7364 12.7315 32.6712 12.6123 32.5832 12.5108C32.4952 12.4093 32.3864 12.3279 32.2642 12.2722C32.142 12.2164 32.0093 12.1875 31.875 12.1875H28.125C27.9907 12.1875 27.8579 12.2164 27.7357 12.2722C27.6135 12.3279 27.5048 12.4093 27.4168 12.5108C27.3288 12.6123 27.2636 12.7315 27.2257 12.8603C27.1877 12.9892 27.1779 13.1247 27.1969 13.2576L28.1344 19.8201ZM30.794 14.0625L30.1244 18.75H29.8756L29.2059 14.0625H30.794Z" fill="#D72D24"/>
<path d="M57.1875 3.75C57.1875 3.50136 57.0887 3.2629 56.9129 3.08709C56.7371 2.91128 56.4986 2.8125 56.25 2.8125H48.75C48.5014 2.8125 48.2629 2.91128 48.0871 3.08709C47.9113 3.2629 47.8125 3.50136 47.8125 3.75V10.3125H45V12.1875H47.8125V56.25H42.1875V29.0625H40.3125V56.25H34.6875V35.625H32.8125V56.25H27.1875V36.5625H25.3125V56.25H19.6875V35.625H23.4375V33.75H18.75C18.5014 33.75 18.2629 33.8488 18.0871 34.0246C17.9113 34.2004 17.8125 34.4389 17.8125 34.6875V42.1875H11.25C11.0014 42.1875 10.7629 42.2863 10.5871 42.4621C10.4113 42.6379 10.3125 42.8764 10.3125 43.125V47.8125H3.75C3.50136 47.8125 3.2629 47.9113 3.08709 48.0871C2.91128 48.2629 2.8125 48.5014 2.8125 48.75V56.25H1.875V58.125H58.125V56.25H57.1875V3.75ZM4.6875 49.6875H10.3125V56.25H4.6875V49.6875ZM12.1875 44.0625H17.8125V56.25H12.1875V44.0625ZM49.6875 56.25V4.6875H55.3125V56.25H49.6875Z" fill="#D72D24"/>
</svg>
