<?xml version="1.0" encoding="UTF-8"?>
<svg width="100px" height="100px" viewBox="0 0 100 100" version="1.1" xmlns="http://www.w3.org/2000/svg" xmlns:xlink="http://www.w3.org/1999/xlink">
    <!-- Generator: sketchtool 52.2 (67145) - http://www.bohemiancoding.com/sketch -->
    <title>4D010BF0-1A9F-4B0A-AA26-C63E37D92DA9</title>
    <desc>Created with sketchtool.</desc>
    <g id="Page-1" stroke="none" stroke-width="1" fill="none" fill-rule="evenodd">
        <g id="Партнерам" transform="translate(-122.000000, -1227.000000)">
            <rect fill="#FFFFFF" x="0" y="0" width="1440" height="8058"></rect>
            <g id="Group-33" transform="translate(124.000000, 1239.000000)">
                <path d="M71.6343,76.5383 L85.3933,76.5383 L83.0383,71.3483 C77.8213,60.9123 57.6103,57.5113 57.6103,57.5113" id="Stroke-1" stroke="#5968AE" stroke-width="2" stroke-linecap="round"></path>
                <path d="M36.3901,57.5109 C36.3901,57.5109 16.1791,60.9119 10.9611,71.3479 L8.6071,76.5379 L64.5271,76.5379" id="Stroke-3" stroke="#5968AE" stroke-width="2" stroke-linecap="round"></path>
                <path d="M63.7759,28.2238 C63.7759,28.2238 63.2029,40.2578 59.9559,43.8878 C56.7089,47.5168 49.6699,51.5288 47.1719,51.7188 C44.6739,51.5288 37.6349,47.5168 34.3879,43.8878 C31.1399,40.2578 30.5679,28.2238 30.5679,28.2238" id="Stroke-5" stroke="#5968AE" stroke-width="2" stroke-linecap="round"></path>
                <path d="M55.7817,11.7971 C55.7817,11.7971 53.0117,16.5721 41.3597,16.8591 C29.7077,17.1451 30.5677,28.2241 30.5677,28.2241 C30.5677,28.2241 28.6197,25.0641 28.2747,18.7691 C28.0197,14.1121 23.4907,13.1581 23.4907,13.1581 C23.4907,13.1581 42.7927,-9.8839 55.7817,5.0161 C55.7817,5.0161 65.8097,5.9711 66.1917,14.3751 C66.5737,22.7801 63.7757,28.2241 63.7757,28.2241 C63.7757,28.2241 64.0917,15.6171 55.7817,11.7971" id="Fill-7" fill="#E5EFF7"></path>
                <path d="M55.7817,11.7971 C55.7817,11.7971 53.0117,16.5721 41.3597,16.8591 C29.7077,17.1451 30.5677,28.2241 30.5677,28.2241 C30.5677,28.2241 28.6197,25.0641 28.2747,18.7691 C28.0197,14.1121 23.4907,13.1581 23.4907,13.1581 C23.4907,13.1581 42.7927,-9.8839 55.7817,5.0161 C55.7817,5.0161 65.8097,5.9711 66.1917,14.3751 C66.5737,22.7801 63.7757,28.2241 63.7757,28.2241 C63.7757,28.2241 64.0917,15.6171 55.7817,11.7971 Z" id="Stroke-9" stroke="#5967AD" stroke-width="2" stroke-linecap="round" stroke-linejoin="round"></path>
                <path d="M56.4927,46.9523 L56.4927,57.1953 C56.4927,57.1953 54.6997,63.3713 47.1717,63.4983 C39.6437,63.3713 37.8507,57.1953 37.8507,57.1953 L37.8507,46.9523" id="Stroke-11" stroke="#5968AE" stroke-width="2" stroke-linecap="round"></path>
                <path d="M25.1391,38.927 C25.1391,38.927 24.8271,45.475 23.0601,47.45 C21.2931,49.425 17.4621,51.608 16.1041,51.712 C14.7441,51.608 10.9141,49.425 9.1471,47.45 C7.3801,45.475 7.0681,38.927 7.0681,38.927" id="Stroke-13" stroke="#5968AE" stroke-width="2" stroke-linecap="round"></path>
                <path d="M20.7895,29.9875 C20.7895,29.9875 19.2815,32.5865 12.9405,32.7425 C6.6005,32.8975 7.0675,38.9265 7.0675,38.9265 C7.0675,38.9265 6.7615,37.0805 5.8205,33.7815 C4.2675,28.3275 14.0915,19.3795 20.7895,26.2975 C20.7895,26.2975 26.2465,26.8165 26.4545,31.3905 C26.6615,35.9645 25.1395,38.9265 25.1395,38.9265 C25.1395,38.9265 25.3105,32.0665 20.7895,29.9875 Z" id="Stroke-15" stroke="#5968AE" stroke-width="2" stroke-linecap="round"></path>
                <path d="M21.1763,49.1184 L21.1763,54.6914 C21.1763,54.6914 20.1993,58.0534 16.1043,58.1224 C12.0073,58.0534 11.0313,54.6914 11.0313,54.6914 L11.0313,49.1184" id="Stroke-17" stroke="#5968AE" stroke-width="2" stroke-linecap="round"></path>
                <path d="M23.5552,54.2492 C22.1592,53.8072 21.1762,53.6202 21.1762,53.6202" id="Stroke-19" stroke="#5968AE" stroke-width="2" stroke-linecap="round"></path>
                <path d="M11.0317,53.6203 C11.0317,53.6203 2.4947,55.2463 0.0007,60.2353" id="Stroke-21" stroke="#5968AE" stroke-width="2" stroke-linecap="round"></path>
                <path d="M68.8608,38.8176 C68.8608,38.8176 69.1728,45.3656 70.9398,47.3406 C72.7068,49.3156 76.5378,51.4986 77.8958,51.6026 C79.2558,51.4986 83.0858,49.3156 84.8528,47.3406 C86.6198,45.3656 86.9318,38.8176 86.9318,38.8176" id="Stroke-23" stroke="#5968AE" stroke-width="2" stroke-linecap="round"></path>
                <path d="M73.2114,29.8781 C73.2114,29.8781 74.7184,32.4771 81.0594,32.6331 C87.3994,32.7881 86.9324,38.8171 86.9324,38.8171 C86.9324,38.8171 87.2384,36.9711 88.1794,33.6721 C89.7324,28.2181 79.9084,19.2701 73.2114,26.1881 C73.2114,26.1881 67.7534,26.7071 67.5464,31.2811 C67.3384,35.8551 68.8604,38.8171 68.8604,38.8171 C68.8604,38.8171 68.6894,31.9571 73.2114,29.8781 Z" id="Stroke-25" stroke="#5968AE" stroke-width="2" stroke-linecap="round"></path>
                <path d="M72.8237,49.009 L72.8237,54.582 C72.8237,54.582 73.8007,57.944 77.8957,58.013 C81.9927,57.944 82.9687,54.582 82.9687,54.582 L82.9687,49.009" id="Stroke-27" stroke="#5968AE" stroke-width="2" stroke-linecap="round"></path>
                <path d="M70.4448,54.1398 C71.8408,53.6978 72.8238,53.5108 72.8238,53.5108" id="Stroke-29" stroke="#5968AE" stroke-width="2" stroke-linecap="round"></path>
                <path d="M82.9682,53.5109 C82.9682,53.5109 91.5052,55.1369 94.0002,60.1259" id="Stroke-31" stroke="#5968AE" stroke-width="2" stroke-linecap="round"></path>
            </g>
        </g>
    </g>
</svg>