<?xml version="1.0" encoding="UTF-8"?>
<svg width="100px" height="100px" viewBox="0 0 100 100" version="1.1" xmlns="http://www.w3.org/2000/svg" xmlns:xlink="http://www.w3.org/1999/xlink">
    <!-- Generator: sketchtool 52.2 (67145) - http://www.bohemiancoding.com/sketch -->
    <title>CB36F434-5656-40D4-B52C-E7361C434AF1</title>
    <desc>Created with sketchtool.</desc>
    <g id="Page-1" stroke="none" stroke-width="1" fill="none" fill-rule="evenodd">
        <g id="Партнерам" transform="translate(-958.000000, -1227.000000)">
            <rect fill="#FFFFFF" x="0" y="0" width="1440" height="8058"></rect>
            <g id="Group-61" transform="translate(960.000000, 1233.000000)">
                <path d="M44.6626,85.4481 C45.3426,86.8471 46.8406,87.8251 48.5886,87.8251 C50.9746,87.8251 52.9096,86.0121 52.9096,83.7761 C52.9096,83.1441 52.7416,82.5531 52.4666,82.0201 C53.2456,83.0801 54.5466,83.7761 56.0236,83.7761 C58.4106,83.7761 60.3456,81.9631 60.3456,79.7261 C60.3456,78.9401 60.0966,78.2131 59.6826,77.5921 C60.4746,78.4651 61.6416,79.0301 62.9606,79.0301 C65.3476,79.0301 67.2816,77.2181 67.2816,74.9811 C67.2816,74.2171 67.0426,73.5101 66.6496,72.9001 L66.7556,72.8331 C67.5346,73.5471 68.5986,73.9901 69.7736,73.9901 C72.1606,73.9901 74.0956,72.1771 74.0956,69.9401 C74.0956,69.1841 73.8596,68.4851 73.4746,67.8791 C73.4716,67.8721 73.4796,67.8571 73.4746,67.8511 C73.4606,67.8371 73.4466,67.8211 73.4336,67.8061 C73.1986,67.4551 72.9066,67.1461 72.5716,66.8781" id="Stroke-1" stroke="#5968AE" stroke-width="2" stroke-linecap="round"></path>
                <path d="M16.3735,57.2703 C17.9335,57.7733 18.9035,59.2723 19.4185,60.7973 C19.7135,61.6743 20.5315,62.9973 21.2075,63.6303 L21.3805,63.7923" id="Stroke-3" stroke="#5968AE" stroke-width="2" stroke-linecap="round"></path>
                <path d="M66.3833,38.8543 C66.3833,38.8543 64.7303,39.6803 61.8813,39.9813 C59.1723,40.2683 57.8073,40.4523 54.3173,38.9663 C50.8263,37.4823 47.4113,38.5213 47.4113,38.5213 C47.4113,38.5213 42.6593,40.0063 40.4313,40.6003 C38.5753,41.0953 36.4613,42.7253 35.8083,43.2543 C35.6653,43.3703 35.5213,43.4773 35.3673,43.5783 C34.1913,44.3493 29.0083,47.7493 27.9573,48.4713 C26.7693,49.2883 27.9573,51.0703 27.9573,51.0703 C27.9573,51.0703 30.5223,54.6743 36.3873,52.9763 C36.8143,52.8533 37.2123,52.6643 37.5933,52.4353 C38.3473,51.9843 39.8153,51.0933 41.8423,49.8073 C43.1973,48.9483 44.7753,48.5303 46.1063,48.3313 C47.8123,48.0763 49.5353,48.6503 50.7903,49.8333 C52.5993,51.5413 55.2943,54.0423 56.2473,54.7083 C57.7323,55.7483 69.4643,64.2123 70.5033,64.9563 C71.1533,65.4183 71.7713,66.0313 72.3803,66.6753 L72.7323,66.7373 C74.5873,61.8363 80.1933,56.8893 80.1933,56.8893" id="Stroke-5" stroke="#5968AE" stroke-width="2" stroke-linecap="round"></path>
                <path d="M51.7056,79.3455 L42.7436,86.5975 C41.3436,87.7315 39.2886,87.5145 38.1556,86.1145 L37.5406,85.3535 C36.4066,83.9515 36.6236,81.8985 38.0236,80.7655 L46.9866,73.5135 C48.3876,72.3795 50.4406,72.5965 51.5746,73.9965 L52.1896,74.7575 C53.3236,76.1585 53.1066,78.2125 51.7056,79.3455 Z" id="Stroke-7" stroke="#5968AE" stroke-width="2" stroke-linecap="round"></path>
                <path d="M46.9741,73.4559 L34.8811,83.2399 C33.4811,84.3739 31.4271,84.1569 30.2931,82.7569 L29.6781,81.9959 C28.5451,80.5959 28.7621,78.5409 30.1621,77.4079 L42.2551,67.6229 C43.6561,66.4899 45.7091,66.7069 46.8431,68.1069 L47.4581,68.8679 C48.5911,70.2679 48.3741,72.3229 46.9741,73.4559 Z" id="Stroke-9" stroke="#5968AE" stroke-width="2" stroke-linecap="round"></path>
                <path d="M40.8042,68.9061 L28.7112,78.6901 C27.3112,79.8241 25.2562,79.6071 24.1232,78.2071 L23.5082,77.4461 C22.3742,76.0461 22.5912,73.9911 23.9922,72.8581 L36.0842,63.0731 C37.4852,61.9401 39.5392,62.1571 40.6722,63.5571 L41.2872,64.3181 C42.4212,65.7181 42.2042,67.7731 40.8042,68.9061 Z" id="Stroke-11" stroke="#5968AE" stroke-width="2" stroke-linecap="round"></path>
                <path d="M34.1733,64.1317 L24.2813,70.8987 C22.7943,71.9157 20.7643,71.5347 19.7473,70.0487 L19.1943,69.2407 C18.1773,67.7537 18.5583,65.7237 20.0443,64.7067 L29.9363,57.9397 C31.4233,56.9217 33.4533,57.3027 34.4703,58.7887 L35.0233,59.5967 C36.0403,61.0837 35.6593,63.1137 34.1733,64.1317 Z" id="Stroke-13" stroke="#5968AE" stroke-width="2" stroke-linecap="round"></path>
                <path d="M30.4087,39.3201 C30.4087,39.3201 33.5627,41.4921 37.0717,41.1011 C38.0527,40.9931 39.0597,41.1301 39.0597,41.1301" id="Stroke-15" stroke="#5968AE" stroke-width="2" stroke-linecap="round"></path>
                <polygon id="Fill-17" fill="#E5EFF7" points="28.8188 35.8231 31.4308 37.8711 15.0778 58.7331 12.4648 56.6861"></polygon>
                <polygon id="Stroke-19" stroke="#5967AD" stroke-width="2" stroke-linecap="round" stroke-linejoin="round" points="28.8188 35.8231 31.4308 37.8711 15.0778 58.7331 12.4648 56.6861"></polygon>
                <polyline id="Stroke-21" stroke="#5968AE" stroke-width="2" stroke-linecap="round" stroke-linejoin="round" points="0.0473 11.3836 29.7473 34.6646 11.0643 58.4996 0.0003 49.8266"></polyline>
                <path d="M9.0952,49.3768 C10.0432,49.1148 11.0252,49.6708 11.2872,50.6198 C11.5502,51.5678 10.9932,52.5498 10.0452,52.8128 C9.0972,53.0748 8.1152,52.5188 7.8532,51.5698 C7.5902,50.6208 8.1462,49.6398 9.0952,49.3768" id="Fill-23" fill="#E5EFF7"></path>
                <path d="M9.0952,49.3768 C10.0432,49.1148 11.0252,49.6708 11.2872,50.6198 C11.5502,51.5678 10.9932,52.5498 10.0452,52.8128 C9.0972,53.0748 8.1152,52.5188 7.8532,51.5698 C7.5902,50.6208 8.1462,49.6398 9.0952,49.3768 Z" id="Stroke-25" stroke="#5967AD" stroke-width="2" stroke-linecap="round" stroke-linejoin="round"></path>
                <path d="M4.3237,45.4969 C5.2717,45.2339 6.2537,45.7909 6.5157,46.7389 C6.7787,47.6879 6.2217,48.6699 5.2737,48.9329 C4.3257,49.1939 3.3437,48.6389 3.0807,47.6899 C2.8187,46.7409 3.3747,45.7599 4.3237,45.4969" id="Fill-27" fill="#E5EFF7"></path>
                <path d="M4.3237,45.4969 C5.2717,45.2339 6.2537,45.7909 6.5157,46.7389 C6.7787,47.6879 6.2217,48.6699 5.2737,48.9329 C4.3257,49.1939 3.3437,48.6389 3.0807,47.6899 C2.8187,46.7409 3.3747,45.7599 4.3237,45.4969 Z" id="Stroke-29" stroke="#5967AD" stroke-width="2" stroke-linecap="round" stroke-linejoin="round"></path>
                <polygon id="Fill-31" fill="#E5EFF7" points="67.8325 35.3231 65.2205 37.3701 81.5735 58.2331 84.1865 56.1851"></polygon>
                <polygon id="Stroke-33" stroke="#5967AD" stroke-width="2" stroke-linecap="round" stroke-linejoin="round" points="67.8325 35.3231 65.2205 37.3701 81.5735 58.2331 84.1865 56.1851"></polygon>
                <polyline id="Stroke-35" stroke="#5968AE" stroke-width="2" stroke-linecap="round" stroke-linejoin="round" points="80.1929 23.7469 66.9039 34.1639 85.5879 57.9989 95.6239 50.1319"></polyline>
                <path d="M95.9653,11.3836 L85.8643,19.3016" id="Stroke-37" stroke="#5968AE" stroke-width="2" stroke-linecap="round" stroke-linejoin="round"></path>
                <path d="M87.5561,48.8768 C86.6081,48.6138 85.6251,49.1708 85.3641,50.1188 C85.1011,51.0668 85.6571,52.0488 86.6061,52.3118 C87.5541,52.5738 88.5351,52.0178 88.7981,51.0688 C89.0611,50.1208 88.5041,49.1388 87.5561,48.8768" id="Fill-39" fill="#E5EFF7"></path>
                <path d="M87.5561,48.8768 C86.6081,48.6138 85.6251,49.1708 85.3641,50.1188 C85.1011,51.0668 85.6571,52.0488 86.6061,52.3118 C87.5541,52.5738 88.5351,52.0178 88.7981,51.0688 C89.0611,50.1208 88.5041,49.1388 87.5561,48.8768 Z" id="Stroke-41" stroke="#5967AD" stroke-width="2" stroke-linecap="round" stroke-linejoin="round"></path>
                <path d="M92.3276,44.9959 C91.3796,44.7339 90.3976,45.2899 90.1356,46.2389 C89.8726,47.1869 90.4296,48.1689 91.3776,48.4319 C92.3256,48.6939 93.3076,48.1379 93.5696,47.1889 C93.8326,46.2409 93.2756,45.2589 92.3276,44.9959" id="Fill-43" fill="#E5EFF7"></path>
                <path d="M92.3276,44.9959 C91.3796,44.7339 90.3976,45.2899 90.1356,46.2389 C89.8726,47.1869 90.4296,48.1689 91.3776,48.4319 C92.3256,48.6939 93.3076,48.1379 93.5696,47.1889 C93.8326,46.2409 93.2756,45.2589 92.3276,44.9959 Z" id="Stroke-45" stroke="#5967AD" stroke-width="2" stroke-linecap="round" stroke-linejoin="round"></path>
                <path d="M25.4302,70.1131 L26.1112,71.1431" id="Stroke-47" stroke="#5968AE" stroke-width="2" stroke-linecap="round"></path>
                <path d="M52.2944,6.1072 L52.2944,2.2212 C52.2944,1.4672 51.6774,0.8502 50.9234,0.8502 L24.2924,0.8502 C23.5374,0.8502 22.9214,1.4672 22.9214,2.2212 L22.9214,17.9382 C22.9214,18.6922 23.5374,19.3092 24.2924,19.3092 L28.9244,19.3092 L29.5484,25.4902 L34.7004,19.3092 L37.9854,19.3092" id="Stroke-49" stroke="#5968AE" stroke-width="1.701" stroke-linecap="round"></path>
                <path d="M39.3569,6.1072 L65.9879,6.1072 C66.7419,6.1072 67.3589,6.7242 67.3589,7.4782 L67.3589,23.1942 C67.3589,23.9482 66.7419,24.5652 65.9879,24.5652 L61.3549,24.5652 L60.7309,30.7462 L55.5799,24.5652 L39.3569,24.5652 C38.6029,24.5652 37.9859,23.9482 37.9859,23.1942 L37.9859,7.4782 C37.9859,6.7242 38.6029,6.1072 39.3569,6.1072" id="Fill-51" fill="#E5EFF7"></path>
                <path d="M39.3569,6.1072 L65.9879,6.1072 C66.7419,6.1072 67.3589,6.7242 67.3589,7.4782 L67.3589,23.1942 C67.3589,23.9482 66.7419,24.5652 65.9879,24.5652 L61.3549,24.5652 L60.7309,30.7462 L55.5799,24.5652 L39.3569,24.5652 C38.6029,24.5652 37.9859,23.9482 37.9859,23.1942 L37.9859,7.4782 C37.9859,6.7242 38.6029,6.1072 39.3569,6.1072 Z" id="Stroke-53" stroke="#5967AD" stroke-width="2" stroke-linecap="round" stroke-linejoin="round"></path>
                <path d="M48.0639,14.9236 C48.0639,15.6006 47.5159,16.1496 46.8389,16.1496 C46.1629,16.1496 45.6139,15.6006 45.6139,14.9236 C45.6139,14.2466 46.1629,13.6976 46.8389,13.6976 C47.5159,13.6976 48.0639,14.2466 48.0639,14.9236" id="Fill-55" fill="#5968AE"></path>
                <path d="M53.8979,14.9236 C53.8979,15.6006 53.3489,16.1496 52.6719,16.1496 C51.9959,16.1496 51.4469,15.6006 51.4469,14.9236 C51.4469,14.2466 51.9959,13.6976 52.6719,13.6976 C53.3489,13.6976 53.8979,14.2466 53.8979,14.9236" id="Fill-57" fill="#5968AE"></path>
                <path d="M59.7309,14.9236 C59.7309,15.6006 59.1819,16.1496 58.5049,16.1496 C57.8289,16.1496 57.2799,15.6006 57.2799,14.9236 C57.2799,14.2466 57.8289,13.6976 58.5049,13.6976 C59.1819,13.6976 59.7309,14.2466 59.7309,14.9236" id="Fill-59" fill="#5968AE"></path>
            </g>
        </g>
    </g>
</svg>