<?xml version="1.0" encoding="UTF-8"?>
<svg width="100px" height="100px" viewBox="0 0 100 100" version="1.1" xmlns="http://www.w3.org/2000/svg" xmlns:xlink="http://www.w3.org/1999/xlink">
    <!-- Generator: sketchtool 52.2 (67145) - http://www.bohemiancoding.com/sketch -->
    <title>1FA62183-B555-4547-946E-F127989FB02B</title>
    <desc>Created with sketchtool.</desc>
    <g id="Page-1" stroke="none" stroke-width="1" fill="none" fill-rule="evenodd">
        <g id="Партнерам" transform="translate(-536.000000, -1227.000000)">
            <rect fill="#FFFFFF" x="0" y="0" width="1440" height="8058"></rect>
            <g id="Group-29" transform="translate(543.000000, 1237.000000)">
                <path d="M55.4913951,33.0666316 C55.4913951,33.0666316 54.866322,46.2445263 51.3235415,50.2171579 C47.780761,54.1908421 40.1015902,58.5834737 37.3779073,58.7918947 C34.6531756,58.5834737 26.9729561,54.1908421 23.4312244,50.2171579 C19.8884439,46.2445263 19.262322,33.0666316 19.262322,33.0666316" id="Stroke-1" stroke="#5968AE" stroke-width="2" stroke-linecap="round"></path>
                <path d="M46.7703659,15.0793684 C46.7703659,15.0793684 43.7477805,20.3088421 31.036561,20.6225263 C18.3253415,20.9351579 19.2619024,33.0667368 19.2619024,33.0667368 C19.2619024,33.0667368 17.1370732,29.6067368 16.7626585,22.7141053 C16.4836829,17.6151579 13.578561,14.1309474 16.8109024,11.2593684 C23.9730244,4.89621053 37.3774878,-2.91536842 46.7703659,7.65410526 C46.7703659,7.65410526 57.7112439,8.70042105 58.1276098,17.9035789 C58.5439756,27.1067368 55.4909756,33.0667368 55.4909756,33.0667368 C55.4909756,33.0667368 55.8349756,19.2635789 46.7703659,15.0793684" id="Fill-3" fill="#E5EFF7"></path>
                <path d="M46.7703659,15.0793684 C46.7703659,15.0793684 43.7477805,20.3088421 31.036561,20.6225263 C18.3253415,20.9351579 19.2619024,33.0667368 19.2619024,33.0667368 C19.2619024,33.0667368 17.1370732,29.6067368 16.7626585,22.7141053 C16.4836829,17.6151579 13.578561,14.1309474 16.8109024,11.2593684 C23.9730244,4.89621053 37.3774878,-2.91536842 46.7703659,7.65410526 C46.7703659,7.65410526 57.7112439,8.70042105 58.1276098,17.9035789 C58.5439756,27.1067368 55.4909756,33.0667368 55.4909756,33.0667368 C55.4909756,33.0667368 55.8349756,19.2635789 46.7703659,15.0793684 Z" id="Stroke-5" stroke="#5967AD" stroke-width="2" stroke-linecap="round" stroke-linejoin="round"></path>
                <path d="M47.5456244,53.5734737 L47.5456244,63.6103158 C47.5456244,63.6103158 45.5896488,70.3724211 37.3776976,70.5124211 C29.1657463,70.3724211 27.2076732,63.6103158 27.2076732,63.6103158 L27.2076732,53.5734737" id="Stroke-7" stroke="#5968AE" stroke-width="2" stroke-linecap="round"></path>
                <path d="M63.4638049,79.7576842 L74.1760488,79.7576842 L71.9190732,74.7650526 C66.917439,64.7261053 47.5454146,61.4534737 47.5454146,61.4534737" id="Stroke-9" stroke="#5968AE" stroke-width="2" stroke-linecap="round"></path>
                <path d="M27.2080927,61.4537895 C27.2080927,61.4537895 7.83606829,64.7253684 2.83548293,74.7653684 L0.578507317,79.758 L57.1707024,79.758" id="Stroke-11" stroke="#5968AE" stroke-width="2" stroke-linecap="round"></path>
                <path d="M58.5025488,19.2282105 L71.4434512,19.2282105 L68.3631829,28.3061053 L77.4393293,19.2282105 L84.3675732,19.2282105 C85.1510122,19.2282105 85.7918171,18.5861053 85.7918171,17.8008421 L85.7918171,1.42821053 C85.7918171,0.642947368 85.1510122,-0.000210526316 84.3675732,-0.000210526316 L56.7280122,-0.000210526316 C55.945622,-0.000210526316 55.3048171,0.642947368 55.3048171,1.42821053 L55.3048171,11.1650526" id="Stroke-13" stroke="#5967AD" stroke-width="2" stroke-linecap="round" stroke-linejoin="round"></path>
                <path d="M74.0027902,9.45547368 C74.0027902,10.1596842 74.572278,10.7312632 75.274961,10.7312632 C75.9776439,10.7312632 76.5471317,10.1596842 76.5471317,9.45547368 C76.5471317,8.75021053 75.9776439,8.17863158 75.274961,8.17863158 C74.572278,8.17863158 74.0027902,8.75021053 74.0027902,9.45547368" id="Fill-15" fill="#5968AE"></path>
                <path d="M64.5493976,9.45547368 C64.5493976,10.1596842 65.1188854,10.7312632 65.8215683,10.7312632 C66.5232024,10.7312632 67.0926902,10.1596842 67.0926902,9.45547368 C67.0926902,8.75021053 66.5232024,8.17863158 65.8215683,8.17863158 C65.1188854,8.17863158 64.5493976,8.75021053 64.5493976,9.45547368" id="Fill-17" fill="#5968AE"></path>
                <path d="M69.2761463,9.45547368 C69.2761463,10.1596842 69.8456341,10.7312632 70.5483171,10.7312632 C71.251,10.7312632 71.8204878,10.1596842 71.8204878,9.45547368 C71.8204878,8.75021053 71.251,8.17863158 70.5483171,8.17863158 C69.8456341,8.17863158 69.2761463,8.75021053 69.2761463,9.45547368" id="Fill-19" fill="#5968AE"></path>
                <path d="M56.4705366,42.5403158 L55.0934878,42.3413684 L57.0725366,28.5529474 L58.4506341,28.7518947 C61.5613171,29.2013684 63.7176098,32.0971579 63.2697805,35.2182105 L62.9131951,37.7024211 C62.4653659,40.8245263 59.5812195,42.9897895 56.4705366,42.5403158 Z" id="Stroke-21" stroke="#5968AE" stroke-width="2" stroke-linecap="round"></path>
                <path d="M18.0077707,42.5403158 L19.3858683,42.3413684 L17.4068195,28.5529474 L16.028722,28.7518947 C12.918039,29.2013684 10.7606976,32.0971579 11.2095756,35.2182105 L11.5651122,37.7024211 C12.0139902,40.8245263 14.8981366,42.9897895 18.0077707,42.5403158 Z" id="Stroke-23" stroke="#5968AE" stroke-width="2" stroke-linecap="round"></path>
                <path d="M14.8921585,42.5691579 C15.4238902,46.0817895 18.3499878,48.7302105 21.8864756,48.8975789 L30.2075,49.2902105" id="Stroke-25" stroke="#5968AE" stroke-width="2" stroke-linecap="round"></path>
                <path d="M34.6499244,51.0836842 L31.8685585,51.0836842 C30.9508756,51.0836842 30.2072902,50.3373684 30.2072902,49.4163158 L30.2072902,48.5994737 C30.2072902,47.6784211 30.9508756,46.9321053 31.8685585,46.9321053 L34.6499244,46.9321053 C35.5665585,46.9321053 36.3101439,47.6784211 36.3101439,48.5994737 L36.3101439,49.4163158 C36.3101439,50.3373684 35.5665585,51.0836842 34.6499244,51.0836842 Z" id="Stroke-27" stroke="#5968AE" stroke-width="2" stroke-linecap="round"></path>
            </g>
        </g>
    </g>
</svg>