<?xml version="1.0" encoding="UTF-8"?>
<svg width="104px" height="108px" viewBox="0 0 104 108" version="1.1" xmlns="http://www.w3.org/2000/svg" xmlns:xlink="http://www.w3.org/1999/xlink">
    <!-- Generator: sketchtool 52.2 (67145) - http://www.bohemiancoding.com/sketch -->
    <title>15B2C45E-1B54-4F1F-8035-DD4801292E33</title>
    <desc>Created with sketchtool.</desc>
    <defs>
        <polygon id="path-1" points="0 68 102 68 102 0.049 0 0.049"></polygon>
    </defs>
    <g id="Page-1" stroke="none" stroke-width="1" fill="none" fill-rule="evenodd">
        <g id="-g-скальпинг" transform="translate(-120.000000, -7091.000000)">
            <rect fill="#FFFFFF" x="0" y="0" width="1440" height="10518"></rect>
            <g id="Group-5" transform="translate(119.000000, 6958.000000)">
                <g id="Group-37" transform="translate(2.000000, 152.000000)">
                    <polygon id="Stroke-1" stroke="#5967AD" stroke-width="2" stroke-linecap="round" stroke-linejoin="round" points="69.979 40.2922 74.437 40.2922 74.437 30.1592 69.979 30.1592"></polygon>
                    <path d="M72.2073,27.1195 L72.2073,30.1595" id="Stroke-2" stroke="#5967AD" stroke-width="2" stroke-linecap="round" stroke-linejoin="round"></path>
                    <path d="M72.2073,40.2923 L72.2073,44.9023" id="Stroke-3" stroke="#5967AD" stroke-width="2" stroke-linecap="round" stroke-linejoin="round"></path>
                    <polygon id="Stroke-4" stroke="#5967AD" stroke-width="2" stroke-linecap="round" stroke-linejoin="round" points="55.793 45.2572 60.251 45.2572 60.251 33.9082 55.793 33.9082"></polygon>
                    <path d="M58.0212,31.5179 L58.0212,33.9089" id="Stroke-5" stroke="#5967AD" stroke-width="2" stroke-linecap="round" stroke-linejoin="round"></path>
                    <path d="M58.0212,45.2572 L58.0212,48.6202" id="Stroke-6" stroke="#5967AD" stroke-width="2" stroke-linecap="round" stroke-linejoin="round"></path>
                    <polygon id="Stroke-7" stroke="#5967AD" stroke-width="2" stroke-linecap="round" stroke-linejoin="round" points="84.582 40.7352 89.04 40.7352 89.04 32.7142 84.582 32.7142"></polygon>
                    <path d="M86.8108,30.0111 L86.8108,32.4021" id="Stroke-8" stroke="#5967AD" stroke-width="2" stroke-linecap="round" stroke-linejoin="round"></path>
                    <path d="M86.8108,40.7347 L86.8108,44.0977" id="Stroke-9" stroke="#5967AD" stroke-width="2" stroke-linecap="round" stroke-linejoin="round"></path>
                    <polygon id="Stroke-10" stroke="#5967AD" stroke-width="2" stroke-linecap="round" stroke-linejoin="round" points="63.24 50.6672 67.698 50.6672 67.698 42.6822 63.24 42.6822"></polygon>
                    <path d="M65.469,40.2923 L65.469,42.6823" id="Stroke-11" stroke="#5967AD" stroke-width="2" stroke-linecap="round" stroke-linejoin="round"></path>
                    <polygon id="Stroke-12" stroke="#5967AD" stroke-width="2" stroke-linecap="round" stroke-linejoin="round" points="77.072 31.2892 81.53 31.2892 81.53 26.8572 77.072 26.8572"></polygon>
                    <path d="M79.3005,31.2894 L79.3005,34.1374" id="Stroke-13" stroke="#5967AD" stroke-width="2" stroke-linecap="round" stroke-linejoin="round"></path>
                    <polygon id="Stroke-14" stroke="#5967AD" stroke-width="2" stroke-linecap="round" stroke-linejoin="round" points="47.371 43.6572 51.829 43.6572 51.829 37.9362 47.371 37.9362"></polygon>
                    <path d="M49.5998,35.5472 L49.5998,37.9372" id="Stroke-15" stroke="#5967AD" stroke-width="2" stroke-linecap="round" stroke-linejoin="round"></path>
                    <path d="M49.5998,43.6576 L49.5998,46.5056" id="Stroke-16" stroke="#5967AD" stroke-width="2" stroke-linecap="round" stroke-linejoin="round"></path>
                    <g id="Group-36" transform="translate(0.000000, 0.951200)">
                        <path d="M41.5852,24.6058 C41.5852,24.6058 41.1062,34.6498 38.3962,37.6788 C35.6862,40.7088 29.8112,44.0558 27.7262,44.2148 C25.6422,44.0558 19.7672,40.7088 17.0562,37.6788 C14.3462,34.6498 13.8682,24.6058 13.8682,24.6058" id="Stroke-17" stroke="#5968AE" stroke-width="2" stroke-linecap="round"></path>
                        <path d="M34.9128,10.8949 C34.9128,10.8949 32.6008,14.8799 22.8758,15.1199 C13.1508,15.3589 13.8678,24.6059 13.8678,24.6059 C13.8678,24.6059 12.2428,21.9679 11.9548,16.7139 C11.7428,12.8279 7.9608,12.0319 7.9608,12.0319 C7.9608,12.0319 24.0718,-7.2011 34.9128,5.2349 C34.9128,5.2349 43.2828,6.0329 43.6008,13.0469 C43.9198,20.0619 41.5848,24.6059 41.5848,24.6059 C41.5848,24.6059 41.8478,14.0829 34.9128,10.8949" id="Fill-19" fill="#E5EFF7"></path>
                        <path d="M34.9128,10.8949 C34.9128,10.8949 32.6008,14.8799 22.8758,15.1199 C13.1508,15.3589 13.8678,24.6059 13.8678,24.6059 C13.8678,24.6059 12.2428,21.9679 11.9548,16.7139 C11.7428,12.8279 7.9608,12.0319 7.9608,12.0319 C7.9608,12.0319 24.0718,-7.2011 34.9128,5.2349 C34.9128,5.2349 43.2828,6.0329 43.6008,13.0469 C43.9198,20.0619 41.5848,24.6059 41.5848,24.6059 C41.5848,24.6059 41.8478,14.0829 34.9128,10.8949 Z" id="Stroke-21" stroke="#5967AD" stroke-width="2" stroke-linecap="round" stroke-linejoin="round"></path>
                        <path d="M35.5061,40.2366 L35.5061,48.7856 C35.5061,48.7856 34.0091,53.9406 27.7261,54.0476 C21.4431,53.9406 19.9471,48.7856 19.9471,48.7856 L19.9471,40.2366" id="Stroke-23" stroke="#5968AE" stroke-width="2" stroke-linecap="round"></path>
                        <path d="M17.2331,67.0003 L54.4531,67.0003 L53.1021,57.2883 C49.2751,49.6363 35.5061,47.1423 35.5061,47.1423" id="Stroke-25" stroke="#5968AE" stroke-width="2" stroke-linecap="round"></path>
                        <path d="M1.0002,67.0003 L3.0262,57.2883 C6.8532,49.6363 19.9472,47.1423 19.9472,47.1423" id="Stroke-27" stroke="#5968AE" stroke-width="2" stroke-linecap="round"></path>
                        <polyline id="Stroke-29" stroke="#5967AD" stroke-width="2" stroke-linecap="round" stroke-linejoin="round" points="97.0525 17.7493 97.0525 67.0003 53.7555 67.0003"></polyline>
                        <mask id="mask-2" fill="white">
                            <use xlink:href="#path-1"></use>
                        </mask>
                        <g id="Clip-32"></g>
                        <polygon id="Stroke-31" stroke="#5967AD" stroke-width="2" stroke-linecap="round" stroke-linejoin="round" mask="url(#mask-2)" points="43.631 17.749 101 17.749 101 12.827 43.631 12.827"></polygon>
                        <path d="M1.0002,67.0003 L5.8412,67.0003" id="Stroke-33" stroke="#5967AD" stroke-width="2" stroke-linecap="round" stroke-linejoin="round" mask="url(#mask-2)"></path>
                        <path d="M10.4734,67.0003 L12.5424,67.0003" id="Stroke-34" stroke="#5967AD" stroke-width="2" stroke-linecap="round" stroke-linejoin="round" mask="url(#mask-2)"></path>
                        <path d="M60.4568,12.8275 L60.4568,7.9215" id="Stroke-35" stroke="#5967AD" stroke-width="2" stroke-linecap="round" stroke-linejoin="round" mask="url(#mask-2)"></path>
                    </g>
                </g>
            </g>
        </g>
    </g>
</svg>