<?xml version="1.0" encoding="UTF-8"?>
<svg width="102px" height="108px" viewBox="0 0 102 108" version="1.1" xmlns="http://www.w3.org/2000/svg" xmlns:xlink="http://www.w3.org/1999/xlink">
    <!-- Generator: sketchtool 52.2 (67145) - http://www.bohemiancoding.com/sketch -->
    <title>D77EA47C-55C6-4543-8D81-FD83AD50720F</title>
    <desc>Created with sketchtool.</desc>
    <g id="Page-1" stroke="none" stroke-width="1" fill="none" fill-rule="evenodd">
        <g id="-g-скальпинг" transform="translate(-537.000000, -7091.000000)">
            <rect fill="#FFFFFF" x="0" y="0" width="1440" height="10518"></rect>
            <g id="Group-5" transform="translate(119.000000, 6958.000000)">
                <g id="Group-23" transform="translate(421.000000, 148.000000)">
                    <path d="M79.0569,3.7919 L87.7799,3.7919 C88.9619,3.7919 89.9219,4.7499 89.9229,5.9329 L89.9999,58.9069 C89.9999,59.7589 89.3099,60.4489 88.4579,60.4489 L1.6819,60.4489 C0.7529,60.4489 -0.0001,59.6959 -0.0001,58.7679 L-0.0001,42.9139 L-0.0001,5.3329 C-0.0001,4.4809 0.6899,3.7919 1.5419,3.7919 L8.3149,3.7919" id="Stroke-1" stroke="#5967AD" stroke-width="2" stroke-linecap="round" stroke-linejoin="round"></path>
                    <path d="M0.0002,47.8456 L90.0002,47.8456" id="Stroke-3" stroke="#5967AD" stroke-width="2" stroke-linecap="round" stroke-linejoin="round"></path>
                    <path d="M40.0993,71.8886 L66.9963,71.8886 C68.6063,71.8886 69.9113,73.1936 69.9113,74.8026 C69.9113,76.4116 68.6063,77.7166 66.9963,77.7166 L23.0033,77.7166 C21.3933,77.7166 20.0893,76.4116 20.0893,74.8026 C20.0893,73.1936 21.3933,71.8886 23.0033,71.8886 L31.7173,71.8886" id="Stroke-5" stroke="#5967AD" stroke-width="2" stroke-linecap="round" stroke-linejoin="round"></path>
                    <path d="M54.5569,60.4491 C54.5569,60.4491 55.0299,68.6741 62.4039,71.8881" id="Stroke-7" stroke="#5967AD" stroke-width="2" stroke-linecap="round" stroke-linejoin="round"></path>
                    <path d="M35.4431,60.4491 C35.4431,60.4491 34.9701,68.6741 27.5961,71.8881" id="Stroke-9" stroke="#5967AD" stroke-width="2" stroke-linecap="round" stroke-linejoin="round"></path>
                    <polygon id="Fill-11" fill="#E5EFF7" points="74.654 11.2831 44.967 20.2651 15.281 11.2831 44.967 0.0001"></polygon>
                    <polygon id="Stroke-13" stroke="#5967AD" stroke-width="2" stroke-linecap="round" stroke-linejoin="round" points="74.654 11.2831 44.967 20.2651 15.281 11.2831 44.967 0.0001"></polygon>
                    <path d="M25.0813,15.1786 L25.0813,28.7346 C25.0813,31.3486 33.9843,33.4686 44.9673,33.4686 C55.9513,33.4686 64.8543,31.3486 64.8543,28.7346 L64.8543,15.1786" id="Stroke-15" stroke="#5968AE" stroke-width="2" stroke-linecap="round"></path>
                    <path d="M17.4934,11.952 L17.4934,27.394" id="Stroke-17" stroke="#5968AE" stroke-width="2" stroke-linecap="round"></path>
                    <polygon id="Fill-19" fill="#E5EFF7" points="21.781 37.6659 13.206 37.6659 15.35 28.1979 19.637 28.1979"></polygon>
                    <polygon id="Stroke-21" stroke="#5967AD" stroke-width="2" stroke-linecap="round" stroke-linejoin="round" points="21.781 37.6659 13.206 37.6659 15.35 28.1979 19.637 28.1979"></polygon>
                </g>
            </g>
        </g>
    </g>
</svg>