<?xml version="1.0" encoding="UTF-8"?>
<svg width="104px" height="108px" viewBox="0 0 104 108" version="1.1" xmlns="http://www.w3.org/2000/svg" xmlns:xlink="http://www.w3.org/1999/xlink">
    <!-- Generator: sketchtool 52.2 (67145) - http://www.bohemiancoding.com/sketch -->
    <title>52E647CC-916C-4F90-BAF9-A39F78D7CB16</title>
    <desc>Created with sketchtool.</desc>
    <g id="Page-1" stroke="none" stroke-width="1" fill="none" fill-rule="evenodd">
        <g id="-g-скальпинг" transform="translate(-746.000000, -2400.000000)">
            <rect fill="#FFFFFF" x="0" y="0" width="1440" height="10518"></rect>
            <g id="Group-43" transform="translate(747.000000, 2405.000000)">
                <path d="M35.3491,20.5175 C35.3491,20.5175 34.9321,29.2655 32.5721,31.9045 C30.2111,34.5425 25.0941,37.4585 23.2781,37.5975 C21.4631,37.4585 16.3461,34.5425 13.9851,31.9045 C11.6241,29.2655 11.2081,20.5175 11.2081,20.5175" id="Stroke-1" stroke="#5968AE" stroke-width="2" stroke-linecap="round"></path>
                <path d="M29.5376,8.576 C29.5376,8.576 27.5236,12.047 19.0536,12.256 C10.5826,12.464 11.2076,20.517 11.2076,20.517 C11.2076,20.517 9.7916,18.22 9.5416,13.644 C9.3566,10.259 6.0636,9.565 6.0636,9.565 C6.0636,9.565 20.0946,-7.185 29.5376,3.646 C29.5376,3.646 36.8276,4.341 37.1056,10.45 C37.3826,16.56 35.3496,20.517 35.3496,20.517 C35.3496,20.517 35.5776,11.352 29.5376,8.576" id="Fill-3" fill="#E5EFF7"></path>
                <path d="M29.5376,8.576 C29.5376,8.576 27.5236,12.047 19.0536,12.256 C10.5826,12.464 11.2076,20.517 11.2076,20.517 C11.2076,20.517 9.7916,18.22 9.5416,13.644 C9.3566,10.259 6.0636,9.565 6.0636,9.565 C6.0636,9.565 20.0946,-7.185 29.5376,3.646 C29.5376,3.646 36.8276,4.341 37.1056,10.45 C37.3826,16.56 35.3496,20.517 35.3496,20.517 C35.3496,20.517 35.5776,11.352 29.5376,8.576 Z" id="Stroke-5" stroke="#5967AD" stroke-width="2" stroke-linecap="round" stroke-linejoin="round"></path>
                <path d="M30.0542,34.1317 L30.0542,41.5777 C30.0542,41.5777 28.7502,46.0687 23.2782,46.1597 C17.8062,46.0687 16.5022,41.5777 16.5022,41.5777 L16.5022,34.1317" id="Stroke-7" stroke="#5968AE" stroke-width="2" stroke-linecap="round"></path>
                <path d="M23.2783,57.4423 L12.9593,57.4423" id="Stroke-9" stroke="#5968AE" stroke-width="2" stroke-linecap="round"></path>
                <path d="M23.2783,57.4423 L46.5563,57.4423 L45.3803,48.9843 C42.0473,42.3183 30.0543,40.1463 30.0543,40.1463" id="Stroke-11" stroke="#5968AE" stroke-width="2" stroke-linecap="round"></path>
                <path d="M0,57.4423 L1.765,48.9843 C5.098,42.3183 16.502,40.1463 16.502,40.1463" id="Stroke-13" stroke="#5968AE" stroke-width="2" stroke-linecap="round"></path>
                <path d="M0,57.4423 L3.679,57.4423" id="Stroke-15" stroke="#5968AE" stroke-width="2" stroke-linecap="round"></path>
                <path d="M6.0634,57.4423 L8.9254,57.4423" id="Stroke-17" stroke="#5968AE" stroke-width="2" stroke-linecap="round"></path>
                <polyline id="Stroke-19" stroke="#5967AD" stroke-width="2" stroke-linecap="round" stroke-linejoin="round" points="54.7153 76.8495 70.9253 64.8105 77.2013 70.0855 100.2533 53.0145"></polyline>
                <polyline id="Stroke-21" stroke="#5967AD" stroke-width="2" stroke-linecap="round" stroke-linejoin="round" points="92.5586 52.4442 100.5676 52.5702 98.9716 61.2192"></polyline>
                <polyline id="Stroke-23" stroke="#5967AD" stroke-width="2" stroke-linecap="round" stroke-linejoin="round" points="90.9482 33.4706 89.6442 40.6846 82.0702 37.9576"></polyline>
                <polygon id="Fill-25" fill="#E5EFF7" points="67.1919 97.746 57.6599 97.596 57.8289 86.885 67.3599 87.034"></polygon>
                <polygon id="Stroke-27" stroke="#5967AD" stroke-width="2" stroke-linecap="round" stroke-linejoin="round" points="67.1919 97.746 57.6599 97.596 57.8289 86.885 67.3599 87.034"></polygon>
                <polygon id="Fill-29" fill="#E5EFF7" points="83.3667 97.9999 73.8347 97.8509 74.1537 77.6159 83.6847 77.7659"></polygon>
                <polygon id="Stroke-31" stroke="#5967AD" stroke-width="2" stroke-linecap="round" stroke-linejoin="round" points="83.3667 97.9999 73.8347 97.8509 74.1537 77.6159 83.6847 77.7659"></polygon>
                <polygon id="Fill-33" fill="#E5EFF7" points="99.5459 97.9706 90.0139 97.8216 90.4279 71.5326 99.9599 71.6836"></polygon>
                <polygon id="Stroke-35" stroke="#5967AD" stroke-width="2" stroke-linecap="round" stroke-linejoin="round" points="99.5459 97.9706 90.0139 97.8216 90.4279 71.5326 99.9599 71.6836"></polygon>
                <path d="M44.0195,17.2762 C62.8605,12.9692 81.6335,23.0252 88.8775,40.2462" id="Stroke-37" stroke="#5967AD" stroke-width="2" stroke-linecap="round" stroke-linejoin="round"></path>
                <path d="M42.0341,95.3134 C27.9441,91.9864 16.2461,80.9484 12.8031,65.8814" id="Stroke-39" stroke="#5967AD" stroke-width="2" stroke-linecap="round" stroke-linejoin="round"></path>
                <polyline id="Stroke-41" stroke="#5967AD" stroke-width="2" stroke-linecap="round" stroke-linejoin="round" points="9.165 71.2889 11.942 64.5039 18.783 68.7479"></polyline>
            </g>
        </g>
    </g>
</svg>