<?xml version="1.0" encoding="UTF-8"?>
<svg width="104px" height="108px" viewBox="0 0 104 108" version="1.1" xmlns="http://www.w3.org/2000/svg" xmlns:xlink="http://www.w3.org/1999/xlink">
    <!-- Generator: sketchtool 52.2 (67145) - http://www.bohemiancoding.com/sketch -->
    <title>94A8D9C8-9B21-4D6E-9D3E-0D17ACEECED0</title>
    <desc>Created with sketchtool.</desc>
    <g id="Page-1" stroke="none" stroke-width="1" fill="none" fill-rule="evenodd">
        <g id="-g-скальпинг" transform="translate(-120.000000, -2669.000000)">
            <rect fill="#FFFFFF" x="0" y="0" width="1440" height="10518"></rect>
            <g id="Group-36" transform="translate(121.000000, 2677.000000)">
                <polygon id="Fill-1" fill="#E5EFF7" points="36.479 52.4445 43.673 52.4445 43.673 31.0235 36.479 31.0235"></polygon>
                <polygon id="Stroke-2" stroke="#5967AD" stroke-width="2" stroke-linecap="round" stroke-linejoin="round" points="36.479 52.4445 43.673 52.4445 43.673 31.0235 36.479 31.0235"></polygon>
                <path d="M40.0763,26.1188 L40.0763,31.0238" id="Stroke-3" stroke="#5967AD" stroke-width="2" stroke-linecap="round" stroke-linejoin="round"></path>
                <path d="M63.9967,61.3883 L63.9967,69.0723" id="Stroke-4" stroke="#5967AD" stroke-width="2" stroke-linecap="round" stroke-linejoin="round"></path>
                <path d="M40.0763,52.7731 L40.0763,64.2681" id="Stroke-5" stroke="#5967AD" stroke-width="2" stroke-linecap="round" stroke-linejoin="round"></path>
                <polygon id="Fill-6" fill="#E5EFF7" points="13.589 55.3865 20.783 55.3865 20.783 37.0745 13.589 37.0745"></polygon>
                <polygon id="Stroke-7" stroke="#5967AD" stroke-width="2" stroke-linecap="round" stroke-linejoin="round" points="13.589 55.3865 20.783 55.3865 20.783 37.0745 13.589 37.0745"></polygon>
                <path d="M17.1857,33.2164 L17.1857,37.0734" id="Stroke-8" stroke="#5967AD" stroke-width="2" stroke-linecap="round" stroke-linejoin="round"></path>
                <path d="M17.1857,55.3863 L17.1857,65.8833" id="Stroke-9" stroke="#5967AD" stroke-width="2" stroke-linecap="round" stroke-linejoin="round"></path>
                <polygon id="Fill-10" fill="#E5EFF7" points="25.606 75.2715 32.8 75.2715 32.8 51.2325 25.606 51.2325"></polygon>
                <polygon id="Stroke-11" stroke="#5967AD" stroke-width="2" stroke-linecap="round" stroke-linejoin="round" points="25.606 75.2715 32.8 75.2715 32.8 51.2325 25.606 51.2325"></polygon>
                <path d="M29.2032,47.3746 L29.2032,51.2316" id="Stroke-12" stroke="#5967AD" stroke-width="2" stroke-linecap="round" stroke-linejoin="round"></path>
                <polygon id="Fill-13" fill="#E5EFF7" points="47.925 30.8195 55.119 30.8195 55.119 20.6265 47.925 20.6265"></polygon>
                <polygon id="Stroke-14" stroke="#5967AD" stroke-width="2" stroke-linecap="round" stroke-linejoin="round" points="47.925 30.8195 55.119 30.8195 55.119 20.6265 47.925 20.6265"></polygon>
                <path d="M51.5221,30.8199 L51.5221,35.4149" id="Stroke-15" stroke="#5967AD" stroke-width="2" stroke-linecap="round" stroke-linejoin="round"></path>
                <polygon id="Fill-16" fill="#E5EFF7" points="8.8817842e-16 52.8055 7.194 52.8055 7.194 43.5755 8.8817842e-16 43.5755"></polygon>
                <polygon id="Stroke-17" stroke="#5967AD" stroke-width="2" stroke-linecap="round" stroke-linejoin="round" points="8.8817842e-16 52.8055 7.194 52.8055 7.194 43.5755 8.8817842e-16 43.5755"></polygon>
                <path d="M3.5973,33.6334 L3.5973,43.5744" id="Stroke-19" stroke="#5967AD" stroke-width="2" stroke-linecap="round" stroke-linejoin="round"></path>
                <path d="M3.5973,52.8053 L3.5973,57.4013" id="Stroke-20" stroke="#5967AD" stroke-width="2" stroke-linecap="round" stroke-linejoin="round"></path>
                <path d="M78.5387,27.3326 L78.5387,31.1886" id="Stroke-21" stroke="#5967AD" stroke-width="2" stroke-linecap="round" stroke-linejoin="round"></path>
                <polygon id="Fill-22" fill="#E5EFF7" points="60.4 61.2175 67.594 61.2175 67.594 33.8785 60.4 33.8785"></polygon>
                <polygon id="Stroke-23" stroke="#5967AD" stroke-width="2" stroke-linecap="round" stroke-linejoin="round" points="60.4 61.2175 67.594 61.2175 67.594 33.8785 60.4 33.8785"></polygon>
                <path d="M63.9967,25.8434 L63.9967,33.8784" id="Stroke-24" stroke="#5967AD" stroke-width="2" stroke-linecap="round" stroke-linejoin="round"></path>
                <g id="Group-35" transform="translate(30.000000, 0.029500)">
                    <path d="M17.528,41.2338 C8.687,37.0758 4.889,26.5378 9.047,17.6958 C13.205,8.8538 23.742,5.0568 32.585,9.2148 C41.426,13.3728 45.223,23.9108 41.066,32.7528 C36.908,41.5938 26.37,45.3908 17.528,41.2338 M46.999,35.5428 C52.698,23.4238 47.493,8.9798 35.375,3.2818 C23.256,-2.4172 8.812,2.7878 3.113,14.9058 C-2.585,27.0248 2.619,41.4678 14.738,47.1678 C26.857,52.8658 41.3,47.6618 46.999,35.5428" id="Fill-25" fill="#FEFEFE"></path>
                    <path d="M17.528,41.2338 C8.687,37.0758 4.889,26.5378 9.047,17.6958 C13.205,8.8538 23.742,5.0568 32.585,9.2148 C41.426,13.3728 45.223,23.9108 41.066,32.7528 C36.908,41.5938 26.37,45.3908 17.528,41.2338 Z M46.999,35.5428 C52.698,23.4238 47.493,8.9798 35.375,3.2818 C23.256,-2.4172 8.812,2.7878 3.113,14.9058 C-2.585,27.0248 2.619,41.4678 14.738,47.1678 C26.857,52.8658 41.3,47.6618 46.999,35.5428 Z" id="Stroke-27" stroke="#5967AD" stroke-width="2" stroke-linecap="round" stroke-linejoin="round"></path>
                    <path d="M62.8644,89.8451 L41.1504,56.9751 C40.4164,55.8501 40.6594,54.3931 41.6914,53.7201 L46.6644,50.4781 C47.6974,49.8051 49.1284,50.1711 49.8624,51.2961 L71.5764,84.1651 C72.3094,85.2901 72.0674,86.7481 71.0344,87.4211 L66.0614,90.6621 C65.0294,91.3361 63.5974,90.9691 62.8644,89.8451" id="Fill-29" fill="#FEFEFE"></path>
                    <path d="M62.8644,89.8451 L41.1504,56.9751 C40.4164,55.8501 40.6594,54.3931 41.6914,53.7201 L46.6644,50.4781 C47.6974,49.8051 49.1284,50.1711 49.8624,51.2961 L71.5764,84.1651 C72.3094,85.2901 72.0674,86.7481 71.0344,87.4211 L66.0614,90.6621 C65.0294,91.3361 63.5974,90.9691 62.8644,89.8451 Z" id="Stroke-31" stroke="#5967AD" stroke-width="2" stroke-linecap="round" stroke-linejoin="round"></path>
                    <polygon id="Stroke-33" stroke="#5967AD" stroke-width="2" stroke-linecap="round" stroke-linejoin="round" points="41.9283 53.5668 46.0743 50.9108 41.4003 43.6128 37.2543 46.2688"></polygon>
                </g>
            </g>
        </g>
    </g>
</svg>