<svg id="Ткани" xmlns="http://www.w3.org/2000/svg" width="55" height="55" viewBox="0 0 55 55"><defs><style>.cls-1{fill:#fff;}.cls-2{fill:#af9c94;}.cls-3{fill:#010101;}</style></defs><title>Ткани</title><polygon class="cls-1" points="36.598 32.052 41.145 27.505 36.598 22.958 41.145 18.411 36.599 13.864 41.145 9.318 36.599 4.771 32.052 9.318 27.505 4.771 22.958 9.317 18.411 4.771 13.864 9.317 9.318 4.771 4.771 9.317 9.317 13.864 4.771 18.411 9.317 22.958 4.771 27.505 9.317 32.052 4.771 36.598 9.317 41.145 13.864 36.598 18.411 41.145 22.958 36.599 27.505 41.145 32.052 36.599 36.598 41.145 41.145 36.599 36.598 32.052"/><polygon class="cls-2" points="45.682 41.136 50.229 36.589 45.682 32.042 50.229 27.495 45.682 22.948 50.229 18.402 45.683 13.855 41.136 18.402 36.589 13.855 32.042 18.401 27.495 13.855 22.948 18.401 18.401 13.855 13.855 18.401 18.401 22.948 13.855 27.495 18.401 32.042 13.855 36.589 18.401 41.136 13.855 45.682 18.401 50.229 22.948 45.682 27.495 50.229 32.042 45.683 36.589 50.229 41.136 45.683 45.682 50.229 50.229 45.683 45.682 41.136"/><path class="cls-1" d="M18.4,15.976l3.486,3.486a1.5,1.5,0,0,0,2.121,0L27.5,15.976l3.486,3.486a1.5,1.5,0,0,0,2.121,0l3.486-3.486,3.486,3.486a1.5,1.5,0,0,0,2.121,0l3.486-3.486L48.108,18.4l-3.486,3.486a1.5,1.5,0,0,0,0,2.121L48.108,27.5l-3.486,3.486a1.5,1.5,0,0,0,0,2.121l3.486,3.486-3.486,3.486a1.5,1.5,0,0,0,0,2.121l3.486,3.486-2.426,2.426L42.2,44.622a1.5,1.5,0,0,0-2.121,0l-3.486,3.486L33.1,44.622a1.5,1.5,0,0,0-2.121,0L27.5,48.108l-3.486-3.486a1.5,1.5,0,0,0-2.121,0L18.4,48.108l-2.426-2.426L19.462,42.2a1.5,1.5,0,0,0,0-2.121l-3.486-3.486L19.462,33.1a1.5,1.5,0,0,0,0-2.121L15.976,27.5l3.486-3.486a1.5,1.5,0,0,0,0-2.121L15.976,18.4,18.4,15.976m0-2.121L13.855,18.4,18.4,22.948,13.855,27.5,18.4,32.042l-4.547,4.547L18.4,41.136l-4.547,4.547L18.4,50.229l4.547-4.547L27.5,50.229l4.547-4.547,4.547,4.547,4.547-4.547,4.547,4.547,4.547-4.547-4.547-4.547,4.547-4.547-4.547-4.547L50.229,27.5l-4.547-4.547L50.229,18.4l-4.547-4.547L41.136,18.4l-4.547-4.547L32.042,18.4,27.5,13.855,22.948,18.4,18.4,13.855Z"/><path class="cls-3" d="M50.583,27.142,46.39,22.948l4.193-4.193a.5.5,0,0,0,0-.707L46.036,13.5a.5.5,0,0,0-.707,0l-4.193,4.193-3.83-3.83L41.5,9.671a.5.5,0,0,0,0-.707L36.952,4.417a.5.5,0,0,0-.707,0L32.052,8.61,27.858,4.417a.5.5,0,0,0-.707,0L22.958,8.61,18.765,4.417a.5.5,0,0,0-.707,0L13.864,8.61,9.671,4.417a.5.5,0,0,0-.707,0L4.417,8.964a.5.5,0,0,0,0,.707L8.61,13.864,4.417,18.058a.5.5,0,0,0,0,.707L8.61,22.958,4.417,27.151a.5.5,0,0,0,0,.707L8.61,32.052,4.417,36.245a.5.5,0,0,0,0,.707L8.964,41.5a.5.5,0,0,0,.707,0l4.193-4.193,3.83,3.83L13.5,45.329a.5.5,0,0,0,0,.707l4.547,4.547a.5.5,0,0,0,.707,0l4.193-4.193,4.193,4.193a.5.5,0,0,0,.707,0l4.193-4.193,4.193,4.193a.5.5,0,0,0,.707,0l4.193-4.193,4.193,4.193a.5.5,0,0,0,.707,0l4.547-4.547a.5.5,0,0,0,0-.707L46.39,41.136l4.193-4.193a.5.5,0,0,0,0-.707L46.39,32.042l4.193-4.193A.5.5,0,0,0,50.583,27.142ZM9.317,40.438,5.478,36.6l4.193-4.193a.5.5,0,0,0,0-.707L5.478,27.5l4.193-4.193a.5.5,0,0,0,0-.707L5.478,18.411l4.193-4.193a.5.5,0,0,0,0-.707L5.478,9.317l3.84-3.84,4.193,4.193a.5.5,0,0,0,.707,0l4.193-4.193L22.6,9.671a.5.5,0,0,0,.707,0L27.5,5.478,31.7,9.671a.5.5,0,0,0,.707,0L36.6,5.478l3.84,3.84-8.4,8.377L27.849,13.5a.5.5,0,0,0-.707,0l-4.193,4.193L18.755,13.5a.5.5,0,0,0-.707,0L13.5,18.048a.5.5,0,0,0,0,.707l4.193,4.193L13.5,27.142a.5.5,0,0,0,0,.707l4.193,4.193Zm36.012-8.75a.5.5,0,0,0,0,.707l4.193,4.193-4.193,4.193a.5.5,0,0,0,0,.707l4.193,4.193-3.84,3.84-4.193-4.193a.5.5,0,0,0-.707,0l-4.193,4.193L32.4,45.329a.5.5,0,0,0-.707,0L27.5,49.522,23.3,45.329a.5.5,0,0,0-.707,0L18.4,49.522l-3.84-3.84,4.193-4.193a.5.5,0,0,0,0-.707l-4.193-4.193L18.755,32.4a.5.5,0,0,0,0-.707L14.562,27.5,18.755,23.3a.5.5,0,0,0,0-.707L14.562,18.4l3.84-3.84,4.193,4.193a.5.5,0,0,0,.707,0L27.5,14.562l4.193,4.193a.5.5,0,0,0,.707,0l4.193-4.193,4.193,4.193a.5.5,0,0,0,.707,0l4.193-4.193,3.84,3.84-4.193,4.193a.5.5,0,0,0,0,.707L49.522,27.5Z"/></svg>