<svg xmlns="http://www.w3.org/2000/svg" width="55" height="55" viewBox="0 0 55 55"><defs><style>.cls-1{fill:#fff;}</style></defs><title>Пуговицы</title><g id="Пуговицы"><path class="cls-1" d="M27.5,3.5a24,24,0,1,0,24,24A24,24,0,0,0,27.5,3.5Zm-5,32a2.991,2.991,0,0,1-1.486-5.591v1.307a1.486,1.486,0,0,0,2.973,0V29.909A2.991,2.991,0,0,1,22.5,35.5Zm1.486-10.409V23.784a1.486,1.486,0,0,0-2.973,0v1.307a3,3,0,1,1,2.973,0ZM32.5,35.5a2.991,2.991,0,0,1-1.486-5.591v1.307a1.486,1.486,0,0,0,2.973,0V29.909A2.991,2.991,0,0,1,32.5,35.5Zm1.486-10.409V23.784a1.486,1.486,0,0,0-2.973,0v1.307a3,3,0,1,1,2.973,0Z"/><path d="M27.5,52A24.5,24.5,0,1,1,52,27.5,24.528,24.528,0,0,1,27.5,52Zm0-48A23.5,23.5,0,1,0,51,27.5,23.527,23.527,0,0,0,27.5,4Zm.716,41.716a.5.5,0,0,0-.5-.5,17.5,17.5,0,1,1,17.5-17.5.5.5,0,0,0,1,0,18.5,18.5,0,1,0-18.5,18.5A.5.5,0,0,0,28.216,45.716Zm-.5-1.5a16.5,16.5,0,1,1,16.5-16.5A16.519,16.519,0,0,1,27.716,44.216Zm0-32a15.5,15.5,0,1,0,15.5,15.5A15.517,15.517,0,0,0,27.716,12.216ZM24.486,29.638V25.362a3.5,3.5,0,1,0-3.973,0v4.277a3.5,3.5,0,1,0,3.973,0ZM20,22.5a2.5,2.5,0,0,1,5,0,2.448,2.448,0,0,1-.514,1.485v-.2a1.986,1.986,0,1,0-3.973,0v.2A2.448,2.448,0,0,1,20,22.5Zm3.486,1.284v7.432a.986.986,0,1,1-1.973,0V23.784a.986.986,0,1,1,1.973,0ZM22.5,35A2.5,2.5,0,0,1,20,32.5a2.448,2.448,0,0,1,.514-1.485v.2a1.986,1.986,0,1,0,3.973,0v-.2A2.448,2.448,0,0,1,25,32.5,2.5,2.5,0,0,1,22.5,35Zm11.986-5.362V25.362a3.5,3.5,0,1,0-3.973,0v4.277a3.5,3.5,0,1,0,3.973,0ZM30,22.5a2.5,2.5,0,0,1,5,0,2.448,2.448,0,0,1-.514,1.485v-.2a1.986,1.986,0,1,0-3.973,0v.2A2.448,2.448,0,0,1,30,22.5Zm3.486,1.284v7.432a.986.986,0,1,1-1.973,0V23.784a.986.986,0,1,1,1.973,0ZM32.5,35A2.5,2.5,0,0,1,30,32.5a2.448,2.448,0,0,1,.514-1.485v.2a1.986,1.986,0,1,0,3.973,0v-.2A2.448,2.448,0,0,1,35,32.5,2.5,2.5,0,0,1,32.5,35Z"/></g></svg>