<svg xmlns="http://www.w3.org/2000/svg" width="110" height="110" viewBox="0 0 110 110">
<style type="text/css">
	.st0{fill:#AF9C94;}
	.st1{fill:#FFFFFF;}
	.st2{fill:#020203;}
</style>
<path class="st0" d="M59.8323631,104.1299896c-1.4998055,0-3.1201019-0.0139999-4.8159027-0.0415497l-0.0481339-0.000824
	l-0.0487213,0.000824c-1.6952171,0.0275497-3.3155136,0.0415497-4.8153191,0.0415497
	c-1.7520256,0-3.3849983-0.0190811-4.8535652-0.0566864l-0.0452156-0.0009689h-0.074604l-0.7502403-0.0240631
	c-3.5645905-0.1141434-6.1454201-0.3429413-7.6708412-0.6798706c-1.4390411-0.3180084-2.281414-1.1933365-4.0497093-3.1429825
	c-0.3923111-0.4326096-0.8083954-0.8914413-1.2589531-1.3661652c0.0084038,0.0013809,0.0168991,0.0027695,0.0253487,0.0041046
	c2.0173264,0.323494,5.3837624,0.5420303,10.005825,0.6495056l0.9827766,0.0226746h0.1013947l0.03339,0.0006638
	c1.8862305,0.0350418,3.9809494,0.0527878,6.2266312,0.0527878c1.9217796,0,3.9966774-0.0129776,6.1671257-0.0385742
	l0.0428314-0.0005646l0.0425644,0.0005646c2.1708069,0.0255966,4.2457047,0.0385742,6.1674843,0.0385742
	c2.247345,0,4.3420677-0.017746,6.2260017-0.0528336c6.4531479-0.1200409,9.6006622-0.4300003,11.1065826-0.6700287
	c-0.4486313,0.4727783-0.8627319,0.9293976-1.2523956,1.3590317c-1.7684326,1.9499054-2.6108475,2.8252335-4.0500259,3.1432419
	c-1.1352234,0.2508011-3.5384293,0.5767059-8.5407639,0.7048569
	C63.2185745,104.1109085,61.5856018,104.1299896,59.8323631,104.1299896z"/>
<path class="st1" d="M42.1179848,12.1292582"/>
<circle class="st2" cx="54.7840576" cy="24.8051701" r="0.9846131"/>
<circle class="st2" cx="54.7840576" cy="83.881958" r="0.9846131"/>
<circle class="st2" cx="54.9986954" cy="15.9436512" r="0.9846131"/>
<circle class="st2" cx="54.7840576" cy="72.066597" r="0.9846131"/>
<circle class="st2" cx="54.7840576" cy="36.6205254" r="0.9846131"/>
<circle class="st2" cx="54.7840576" cy="48.4358826" r="0.9846131"/>
<circle class="st2" cx="54.7840576" cy="60.2512398" r="0.9846131"/>
<path class="st2" d="M59.1416016,107.3603516c-1.3398438,0-2.7060547-0.0117188-4.0717773-0.03125
	c-1.3808594,0.0195313-2.7480469,0.03125-4.0864258,0.03125c-6.1074219,0-10.359375-0.2294922-12.6376953-0.6806641
	c-0.7412109-0.1464844-1.3989258-0.2324219-1.9970703-0.3105469c-1.5991211-0.2080078-2.6552734-0.3457031-3.7714844-1.4482422
	c-0.6108398-0.6044922-1.2680664-1.1708984-1.9633789-1.7705078c-0.3203125-0.2763672-0.6499023-0.5605469-0.9887695-0.8603516
	c-0.9296875-0.8222656-0.8100586-2.015625-0.6948242-3.1699219c0.0175781-0.1748047,0.034668-0.3466797,0.0478516-0.5126953
	c1.1147461-14.1289063,1.3271484-28.4638672,0.6308594-42.6064453c-0.0834961-1.5024414-0.1777344-2.9404297-0.2768555-4.3432617
	l-0.1015625-1.4423828l-0.8110352,1.1972656c-2.440918,3.6025391-4.2592773,7.5571289-5.4047852,11.753418L22.9916992,63.25
	l2.9545898,38.3183594c0.0205078,0.2636719-0.1762695,0.4980469-0.4389648,0.5214844l-10.8305664,0.984375
	c-0.2739258,0-0.4682617-0.1542969-0.519043-0.3759766L8.4472656,77.9365234
	C6.1875,68.1699219,6.71875,57.9990234,9.9824219,48.5214844c3.3857422-10.0195313,7.7900391-19.7373047,13.0922852-28.887207
	c0.0654297-0.1108398,0.1791992-0.190918,0.3095703-0.2158203l0.0522461-0.0102539l18.2978516-7.7724609l0.0610352-0.2402344
	c0.0732422-0.2895508,0.1723633-0.5727539,0.2939453-0.8422852l2.6035156-5.640625l0.0727539-0.09375
	c0.0234375-0.027832,0.050293-0.0537109,0.0810547-0.0766602l0.0561523-0.0473633l0.0439453-0.0219727
	c2.8217773-1.3271484,5.9804688-2.0327148,9.1171875-2.0327148c0.2978516,0,0.5961914,0.0063477,0.894043,0.0185547
	c0.3378906-0.012207,0.6337891-0.0180664,0.9296875-0.0180664c3.1201172,0,6.2646484,0.6948242,9.0947266,2.0102539
	c0.1699219,0.0605469,0.2705078,0.1499023,0.3251953,0.2641602l2.6025391,5.6376953
	c0.1210938,0.269043,0.2197266,0.5527344,0.2919922,0.8383789l0.0605469,0.2402344l18.2929688,7.7763672l0.0517578,0.0102539
	c0.1298828,0.0253906,0.2441406,0.105957,0.3125,0.2207031c5.3007813,9.1455078,9.7080078,18.8637695,13.0947266,28.8803711
	c3.265625,9.4799805,3.7978516,19.6518555,1.5400391,29.4194336l-0.1416016,0.6123047h0.0039063l-5.5693359,24.1494141
	c-0.0507813,0.2197266-0.2451172,0.3740234-0.4707031,0.3740234l-10.8857422-0.9824219
	c-0.2646484-0.0234375-0.4619141-0.2568359-0.4404297-0.5205078l2.9599609-38.3291016l-0.0224609-0.0839844
	c-1.1455078-4.1972656-2.9638672-8.1513672-5.4042969-11.753418l-0.8115234-1.1982422l-0.1015625,1.4433594
	c-0.0986328,1.4111328-0.1972656,2.8496094-0.2763672,4.3413086c-0.7119141,14.4570313-0.4746094,29.1015625,0.7041016,43.53125
	l0.0087891,0.1054688c0.0966797,1.171875,0.1611328,1.9472656-1.2841797,3.1884766
	c-0.7617188,0.6542969-1.5068359,1.3427734-2.2753906,2.1044922c-1.1162109,1.1025391-2.1728516,1.2402344-3.7714844,1.4482422
	c-0.5869141,0.0761719-1.2529297,0.1630859-1.9970703,0.3105469
	C69.5009766,107.1308594,65.2490234,107.3603516,59.1416016,107.3603516z M51.3481445,106.3125l0.5024414-0.0019531
	c1.0625-0.0048828,2.1401367-0.015625,3.2192383-0.03125c0.8735352,0.0136719,1.7612305,0.0224609,2.6411133,0.0283203
	l0.5029297,0.0029297V19.8564453h-6.8657227V106.3125z M26.1533203,24.6264648l0.1333008,0.4267578
	c2.1064453,6.7348633,3.5107422,16.8417969,4.2929688,30.8969727c0.7265625,14.6992188,0.4711914,29.6015625-0.7602539,44.2910156
	c-0.0439453,0.5175781,0.1757813,1.0146484,0.5874023,1.3271484c1.1557617,0.8808594,2.0849609,1.7988281,2.9042969,2.6083984
	c1.2128906,1.1982422,2.315918,1.2480469,3.4833984,1.2998047c0.5419922,0.0244141,1.1025391,0.0498047,1.7539063,0.1787109
	c2.0786133,0.4111328,5.8901367,0.6318359,11.3286133,0.6552734l0.5019531,0.0019531V23.0859375l-0.9716797-0.1655273
	l-0.4453125,1.2700195c-0.0600586,0.171875-0.2084961,0.2944336-0.3876953,0.3208008
	c-0.2241211-0.0053711-0.3691406-0.0786133-0.4609375-0.2011719c-1.4516602-2.0561523-3.3066406-4.7011719-4.7089844-6.8349609
	l-0.2324219-0.3540039L26.1533203,24.6264648z M59.1875,21.875v84.4375l0.5009766-0.0009766
	c5.7314453-0.0087891,9.7314453-0.2294922,11.8876953-0.65625c0.6513672-0.1289063,1.2119141-0.1542969,1.7539063-0.1787109
	c1.1679688-0.0517578,2.2705078-0.1015625,3.4833984-1.2998047c0.7939453-0.7841797,1.6933594-1.6728516,2.7929688-2.5234375
	c0.4091797-0.3144531,0.6279297-0.8095703,0.5839844-1.3251953c-1.2392578-14.7177734-1.4990234-29.6513672-0.7724609-44.3847656
	c0.7851563-14.0644531,2.1894531-24.1704102,4.2929688-30.8920898L83.84375,24.625l-17.0195313-7.512207l-0.2324219,0.3554688
	c-1.1337891,1.7348633-2.6318359,3.9091797-4.7148438,6.8427734c-0.0908203,0.128418-0.2382813,0.2050781-0.3964844,0.2050781
	c-0.2421875-0.0209961-0.390625-0.1435547-0.4511719-0.3149414l-0.8701172-2.4912109L59.1875,21.875z M85.0566406,101.1738281
	l9.9335938,0.9033203l1.4814453-6.4199219l-10.8945313-1.2441406L85.0566406,101.1738281z M13.5263672,95.6494141
	l1.4799805,6.4199219l9.9350586-0.9033203l-0.5209961-6.7607422L13.5263672,95.6494141z M86.0097656,21.6479492
	c-0.359375,0.8076172-0.6806641,1.6235352-0.9804688,2.4941406l-0.0380859,0.1108398l0.0146484,0.1166992
	c0.0107422,0.078125,0,0.1582031-0.0302734,0.230957l-0.0615234,0.078125l-0.1083984,0.1533203
	c-2.1679688,7.7363281-3.484375,15.7231445-3.9140625,23.7382813l-0.0097656,0.1835938l0.1113281,0.1464844
	c3.2441406,4.2543945,5.5878906,9.0322266,6.9677734,14.2011719c0.0097656,0.0400391,0.0136719,0.0947266,0.0097656,0.1474609
	l-2.3222656,30.1943359L96.6875,94.7050781l3.9189453-16.9765625c2.2216797-9.5908203,1.7011719-19.5810547-1.5048828-28.8901367
	h-0.0019531c-3.2011719-9.4174805-7.3046875-18.5795898-12.1972656-27.2329102l-0.4882813-0.8637695L86.0097656,21.6479492z
	 M23.0991211,21.6010742c-4.8959961,8.6557617-9.0019531,17.8203125-12.2036133,27.2387695
	C7.690918,58.1445313,7.1694336,68.1328125,9.3886719,77.7207031l3.9189453,16.9765625l11.0400391-1.2617188l-2.3271484-30.1914063
	c-0.0043945-0.0527344,0-0.1054688,0.0126953-0.1572266c1.3798828-5.1591797,3.7275391-9.9370117,6.9750977-14.1904297
	l0.1118164-0.1459961l-0.0097656-0.184082c-0.4306641-8.0180664-1.7475586-16.0048828-3.9150391-23.7382813l-0.0263672-0.0942383
	l-0.0834961-0.1074219l-0.0883789-0.090332c-0.0009766-0.0117188-0.0117188-0.0917969-0.0019531-0.1704102l0.0151367-0.1166992
	l-0.0380859-0.1108398c-0.2983398-0.8637695-0.6191406-1.6791992-0.980957-2.4941406l-0.4033203-0.9077148L23.0991211,21.6010742z
	 M68.3466797,13.4106445c-0.1044922,0.8408203-0.3525391,1.6499023-0.7373047,2.4042969l-0.2402344,0.4711914l16.796875,7.4091797
	l0.1816406-0.5053711c0.34375-0.9604492,0.7119141-1.8476563,1.0927734-2.6376953l0.2275391-0.472168l-17.2392578-7.3271484
	L68.3466797,13.4106445z M24.3291016,20.0795898l0.2275391,0.472168c0.3847656,0.7978516,0.7578125,1.6870117,1.1098633,2.6420898
	l0.184082,0.4995117l16.793457-7.4072266l-0.2402344-0.4711914c-0.3847656-0.7548828-0.6328125-1.5634766-0.7368164-2.4042969
	l-0.0810547-0.6577148L24.3291016,20.0795898z M64.7197266,7.7993164c-1.4345703,2.2680664-3.6220703,3.996582-6.1591797,4.8671875
	l-0.4755859,0.1635742l3.5507813,10.1542969l0.5595703-0.7963867c1.6933594-2.4091797,2.9785156-4.2988281,3.9267578-5.7744141
	l0.1630859-0.2451172c1.1152344-1.4643555,1.4072266-3.4086914,0.7607422-5.1704102l-1.8349609-3.9746094L64.7197266,7.7993164z
	 M43.8764648,16.4130859c0.9541016,1.484375,2.1962891,3.3100586,3.9213867,5.7685547l0.5595703,0.7973633l3.543457-10.1308594
	l-0.4433594-0.1782227c-1.5268555-0.6137695-2.9389648-1.4604492-4.1977539-2.5166016l-0.0234375-0.0268555l-0.0844727-0.0756836
	c-0.7485352-0.628418-1.3730469-1.3779297-1.855957-2.2270508l-0.480957-0.8457031l-1.8413086,3.9887695
	c-0.6606445,1.7929688-0.3725586,3.7324219,0.7558594,5.2250977l0.0092773,0.0146484v0.0664063L43.8764648,16.4130859z
	 M50.8085938,18.9228516h8.3798828l-2.0771484-5.940918h-4.2260742L50.8085938,18.9228516z M54.9985352,8.9277344
	c-1.8364258,0-3.6679688,0.2368164-5.4438477,0.7036133l-1.1381836,0.2988281l1.0053711,0.6118164
	c0.9365234,0.5698242,1.9296875,1.0556641,2.9511719,1.4438477l0.0859375,0.0327148h5.0957031l0.0859375-0.0332031
	c1.0166016-0.3891602,2.0039063-0.875,2.9355469-1.4438477l1.0009766-0.6118164l-1.1347656-0.2983398
	C58.6669922,9.1645508,56.8349609,8.9277344,54.9985352,8.9277344z M54.9790039,7.9536133
	c2.4086914,0,4.7836914,0.4023438,7.0581055,1.1958008l0.2783203,0.097168l0.2197266-0.1967773
	c0.953125-0.8515625,1.5878906-2.0161133,1.7880859-3.2797852l0.0615234-0.3881836l-0.3632813-0.1513672
	c-2.5800781-1.0771484-5.3066406-1.6235352-8.1035156-1.6235352c-0.3203125,0-0.6411133,0.0073242-0.9619141,0.0219727
	c-0.2709961-0.0141602-0.5869141-0.0214844-0.9033203-0.0214844c-2.7851563,0-5.5029297,0.5395508-8.0771484,1.6030273
	l-0.3623047,0.1494141l0.059082,0.3876953c0.1928711,1.2670898,0.8251953,2.4360352,1.7792969,3.2919922l0.2197266,0.1967773
	l0.2783203-0.0966797C50.215332,8.3525391,52.5805664,7.9536133,54.9790039,7.9536133z"/>
</svg>
