<svg xmlns="http://www.w3.org/2000/svg" width="110" height="110" viewBox="0 0 110 110">
<style type="text/css">
	.st0{fill:#FFFFFF;}
	.st1{fill:#020203;}
	.st2{fill:none;stroke:#020203;stroke-width:0.9604709;stroke-linecap:round;stroke-linejoin:round;stroke-miterlimit:10;}
</style>
<path class="st0" d="M55.0066261,106.5638428c9.0839272-0.0297318,17.9153709-2.9923248,25.1795387-8.4467239l0.1587219-50.1181259
	c2.8926926,4.1784821,4.998848,8.849617,6.2150421,13.7840118L83.691452,99.0732727l10.5177612,0.9561615l5.736969-24.8601761
	c2.2262726-10.2505646,1.2242355-20.9389915-2.8684845-30.5971451c-3.0481262-8.6235161-6.8892136-16.9458599-11.4739304-24.8601818
	l-18.1077728-7.5594063l-0.1396027-0.5736971l-2.7881622-6.2093077c-2.9973259-1.3655157-6.2696419-2.0199792-9.5616035-1.9123213
	c-3.2919655-0.1076579-6.5642815,0.5468056-9.5616074,1.9123213l-2.788166,6.215045l-0.1395988,0.5736971l-18.1077728,7.553669
	c-4.5847187,7.91432-8.4257984,16.2366657-11.4739294,24.8601818c-4.0927191,9.6581535-5.094759,20.3465805-2.8684826,30.5971451
	l5.7369642,24.8601761l10.5177689-0.9561615l-2.8684826-37.2902679c1.2161942-4.9343948,3.3223534-9.6055298,6.2150459-13.7840118
	l0.1587219,50.1181259C37.0912552,103.5715179,45.9226913,106.534111,55.0066261,106.5638428z"/>
<path class="st0" d="M78.8073807,31.0825958c-1.0136871,5.5917091-1.4621582,11.2712288-1.3386307,16.9527321
	c0.1396027,10.9786415-0.0937042,41.7651024-0.1472473,48.6724052c-6.4721146,4.7105637-14.3120003,7.1655197-22.3148766,6.9876251
	h-0.1338615c-7.9549751,0.0620117-15.7235947-2.4072037-22.1829338-7.0507278
	c-0.0554543-7.0143967-0.2868462-37.527401-0.1472473-48.6093063c0.1985741-5.6001129-0.1324539-11.2064552-0.9886703-16.7442856
	l47.2611198-0.2084446 M82.3834229,28.1988125l-54.3806877,0.2390404
	c1.4198647,6.4177647,1.9825306,12.9954624,1.6732826,19.5611401c-0.1663761,12.6691284,0.1510696,50.1181259,0.1510696,50.1181259
	c7.1795044,5.5217514,15.9942093,8.4938583,25.0514145,8.4467239h0.1338615
	c9.1183586,0.1985016,18.0205803-2.7885284,25.1738014-8.4467239c0,0,0.3193588-37.6096306,0.1587219-50.1181259
	c-0.180481-6.6600494,0.5021591-13.3154411,2.0308838-19.8001785L82.3834229,28.1988125z"/>
<path class="st1" d="M55.0068359,107.0195313c-9.2548828-0.1806641-18.1176758-3.1347656-25.6298828-8.5439453
	c-0.105957-0.0791016-0.1743164-0.2158203-0.1743164-0.3583984V51.1601563l-0.9379883-0.2416992
	c-1.8833008,3.4130859-3.3432617,7.0541992-4.3383789,10.8227539l-0.0214844,0.0820313l2.8745117,37.2158203
	c0.0195313,0.2480469-0.1660156,0.4677734-0.4135742,0.4902344l-10.5170898,0.9560547
	c-0.2578125,0-0.440918-0.1455078-0.4887695-0.3544922L9.8144531,76.0859375
	c-2.1943359-9.4814453-1.6791992-19.3554688,1.4902344-28.5566406c3.2885742-9.730957,7.5654297-19.1674805,12.7133789-28.0507813
	l0.0932617-0.0917969l0.0395508-0.0209961l0.1069336-0.0771484l17.9423828-7.6420898l0.0605469-0.2412109
	c0.0644531-0.2592773,0.1474609-0.5126953,0.2490234-0.7597656l2.5209961-5.4624023
	c0.0371094-0.0795898,0.097168-0.1479492,0.1728516-0.1962891c2.715332-1.3027344,5.7998047-2.0063477,8.8686523-2.0063477
	c0.3041992,0,0.6079102,0.0063477,0.9125977,0.0200195c0.3505859-0.0136719,0.6567383-0.0205078,0.9624023-0.0205078
	c3.0664063,0,6.1484375,0.7021484,8.9130859,2.03125c0.0253906,0.0195313,0.0849609,0.0878906,0.1230469,0.1694336
	l2.5292969,5.4814453c0.0927734,0.2270508,0.1757813,0.4814453,0.2402344,0.7407227l0.0605469,0.2416992l17.9775391,7.6494141
	l0.1123047,0.0849609l0.0244141,0.0341797l0.0830078,0.0898438c5.1367188,8.8579102,9.4121094,18.2944336,12.6972656,28.0234375
	c3.0615234,8.9111328,3.6357422,18.4882813,1.6591797,27.6992188l-0.0146484,0.0683594l0.0048828,0.0703125
	c0.0048828,0.0712891-0.0087891,0.1445313-0.0400391,0.2119141l-0.0234375,0.0498047c0,0-0.0751953,0.3955078-0.0908203,0.4599609
	l-5.5458984,24.046875c-0.0478516,0.2070313-0.2304688,0.3525391-0.4443359,0.3525391l-10.5625-0.9541016
	c-0.25-0.0214844-0.4365234-0.2421875-0.4169922-0.4902344l2.875-37.2216797l-0.0214844-0.0820313
	c-0.9960938-3.7695313-2.4560547-7.4111328-4.3388672-10.8227539l-0.9375,0.2416992v46.9609375
	c0,0.1425781-0.0683594,0.2792969-0.1826172,0.3642578C73.1240234,103.8847656,64.2617188,106.8388672,55.0068359,107.0195313z
	 M28.4887695,29.3847656c1.1689453,5.1303711,1.7197266,10.3984375,1.6357422,15.6577148v52.855957l0.2128906,0.1494141
	c7.2612305,5.0947266,15.7885742,7.8818359,24.659668,8.0595703c8.8886719-0.1757813,17.4150391-2.9609375,24.6787109-8.0556641
	l0.2128906-0.1494141l-0.0019531-52.8481445c-0.0830078-5.2709961,0.4677734-10.5405273,1.6376953-15.6694336l0.1396484-0.6113281
	H28.3491211L28.4887695,29.3847656z M14.7133789,93.2861328l1.4433594,6.2539063l4.4560547-0.4013672l-1.2988281-6.3847656
	L14.7133789,93.2861328z M89.4824219,99.1376953l4.3710938,0.3984375l1.4472656-6.25L90.78125,92.7685547L89.4824219,99.1376953z
	 M84.1816406,98.6601563l4.3769531,0.3994141l1.3017578-6.4023438l-5.1835938-0.59375L84.1816406,98.6601563z
	 M20.2197266,92.6474609l1.3027344,6.4033203l4.309082-0.390625l-0.5083008-6.5966797L20.2197266,92.6474609z
	 M14.5068359,92.3847656l4.6191406-0.5283203l-2.4824219-12.2109375c-0.4013672-1.9404297-1.9956055-3.3671875-3.9672852-3.5537109
	l-1.96875-0.1787109L14.5068359,92.3847656z M97.4248047,76.0917969c-1.9726563,0.1875-3.5673828,1.6142578-3.9707031,3.5517578
	l-2.4902344,12.2148438l4.5419922,0.5205078l3.8037109-16.4580078L97.4248047,76.0917969z M85.2089844,21.5854492
	c-2.1796875,4.7373047-4.4082031,11.2299805-4.4082031,23.4648438v2.4301758l0.0771484,0.1225586
	c2.7568359,4.3520508,4.8183594,9.0883789,6.1259766,14.0776367c0.0126953,0.046875,0.0166016,0.0927734,0.0126953,0.1386719
	l-2.2578125,29.3378906l5.2939453,0.6054688l2.5009766-12.3056641c0.4863281-2.3339844,2.4101563-4.0556641,4.7851563-4.28125
	l2.1425781-0.1933594l0.0742188-0.3642578c1.8408203-8.9179688,1.25-18.1835938-1.7070313-26.796875
	c-3.0869141-9.0786133-7.0410156-17.918457-11.75-26.2724609l-0.4804688-0.8525391L85.2089844,21.5854492z M23.9125977,21.5546875
	c-4.7089844,8.3544922-8.6616211,17.1943359-11.7490234,26.2734375C9.2080078,56.4375,8.6171875,65.7021484,10.4550781,74.6181641
	l0.0751953,0.3642578l2.2265625,0.2011719c2.3740234,0.2246094,4.2963867,1.9462891,4.78125,4.2832031l2.5009766,12.2861328
	l5.2177734-0.5957031l-2.2612305-29.3378906c-0.0043945-0.0498047-0.0004883-0.0976563,0.0112305-0.1435547
	c1.3061523-4.9804688,3.3676758-9.7158203,6.1259766-14.0698242l0.0776367-0.1225586V45.050293
	c0-12.237793-2.2285156-18.7260742-4.4082031-23.4589844l-0.4091797-0.8886719L23.9125977,21.5546875z M25.0366211,19.9433594
	l0.2294922,0.4726563c1.1035156,2.2744141,2.0200195,4.6577148,2.7250977,7.0849609l0.1044922,0.3603516h53.8212891
	l0.1054688-0.3603516c0.7070313-2.4311523,1.6240234-4.8149414,2.7275391-7.0849609l0.2294922-0.4726563l-17.5976563-7.4931641
	h-24.746582L25.0366211,19.9433594z M54.0073242,3.8876953c-2.7792969,0-5.4775391,0.5698242-8.0205078,1.6938477
	l-0.1728516,0.0766602l-2.7124023,5.8793945h23.8105469L64.1992188,5.659668l-0.1728516-0.0766602
	c-2.5439453-1.1245117-5.2441406-1.6948242-8.0244141-1.6948242c-0.3408203,0-0.6801758,0.0083008-1.0209961,0.0258789
	C54.6904297,3.8964844,54.3486328,3.8876953,54.0073242,3.8876953z M92.3769531,96.7871094
	c-0.2519531,0-0.4560547-0.2041016-0.4560547-0.4560547c0-0.2509766,0.2041016-0.4560547,0.4560547-0.4560547h0.0722656
	c0.0966797,0.015625,0.1835938,0.0595703,0.2529297,0.1298828c0.0849609,0.0859375,0.1318359,0.2011719,0.1308594,0.3222656
	C92.8330078,96.5830078,92.6279297,96.7871094,92.3769531,96.7871094z M17.7163086,96.78125
	c-0.2514648,0-0.4560547-0.2050781-0.4560547-0.4560547c0-0.2519531,0.2045898-0.4560547,0.4560547-0.4560547
	s0.4560547,0.2041016,0.4560547,0.4560547C18.1723633,96.5761719,17.9677734,96.78125,17.7163086,96.78125z M95.0068359,84.9560547
	c-0.2519531,0-0.4560547-0.2050781-0.4560547-0.4570313s0.2041016-0.4560547,0.4560547-0.4560547h0.078125
	c0.0947266,0.0166016,0.1796875,0.0605469,0.2470703,0.1289063c0.0849609,0.0869141,0.1318359,0.2021484,0.1308594,0.3232422
	C95.4628906,84.7509766,95.2587891,84.9560547,95.0068359,84.9560547z M15.0869141,84.9482422
	c-0.2514648,0-0.4560547-0.2041016-0.4560547-0.4560547c0-0.2509766,0.2045898-0.4560547,0.4560547-0.4560547
	s0.4560547,0.2050781,0.4560547,0.4560547C15.5429688,84.7441406,15.3383789,84.9482422,15.0869141,84.9482422z"/>
<g>
	<path class="st2" d="M70.504715,45.5216255c-1.3830643,13.8452148-1.7979889,27.6904106-1.2447586,41.5356255"/>
	<path class="st2" d="M41.1262054,87.057251c0.5532417-13.8452148,0.1383209-27.6904106-1.2447624-41.5356255"/>
</g>
</svg>
