<svg xmlns="http://www.w3.org/2000/svg" width="110" height="110" viewBox="0 0 110 110">
<style type="text/css">
	.st0{fill:#FFFFFF;}
	.st1{fill:#020203;}
	.st2{fill:none;stroke:#020203;stroke-width:0.9604709;stroke-linecap:round;stroke-linejoin:round;stroke-miterlimit:10;}
</style>
<path class="st0" d="M55.006485,105.4838638c8.8936729-0.0291061,17.5401459-2.9296494,24.6521683-8.2698135l0.1553955-49.068428
	c2.8321152,4.0909691,4.8941574,8.6642723,6.084877,13.4953194l-2.808403,36.509243l10.2974777,0.9361343l5.6168137-24.3394928
	c2.1796417-10.0358734,1.1985931-20.5004349-2.8084106-29.9563065c-2.9842834-8.4429054-6.7449188-16.5909386-11.2336121-24.3395004
	l-17.7285156-7.4010801l-0.1366806-0.5616808l-2.7297668-6.0792575c-2.9345474-1.3369155-6.1383247-1.9776721-9.3613434-1.8722687
	c-3.2230148-0.1054034-6.4267921,0.5353532-9.3613434,1.8722687l-2.7297707,6.0848746l-0.136673,0.5616817l-17.7285175,7.395462
	c-4.4886932,7.74856-8.2493248,15.896595-11.2336149,24.3395004c-4.006999,9.4558716-4.9880514,19.920433-2.808403,29.9563065
	l5.616807,24.3394928l10.2974796-0.9361343l-2.808403-36.509243c1.1907215-4.8310471,3.2527676-9.4043503,6.0848751-13.4953194
	l0.1553974,49.068428C37.4663429,102.5542145,46.112812,105.4547577,55.006485,105.4838638z"/>
<path class="st0" d="M78.3087463,31.5835323c-0.9924469,5.474596-1.4315262,11.0351582-1.3105927,16.5976658
	c0.1366806,10.7486992-0.0917358,40.890358-0.144165,47.6529922c-6.3365631,4.6119003-14.0122375,7.0154419-21.8475037,6.8412704
	h-0.1310577c-7.7883606,0.0607147-15.3942719-2.356781-21.7183228-6.9030533
	c-0.0542946-6.867485-0.280838-36.7414131-0.1441612-47.5912132c0.1944122-5.4828186-0.1296844-10.9717445-0.9679642-16.3935871
	l46.2712593-0.2040768 M81.8098984,28.7601471l-53.2417221,0.2340336c1.3901253,6.28335,1.9410057,12.72328,1.6382351,19.1514416
	c-0.1628914,12.4037857,0.1479053,49.068428,0.1479053,49.068428c7.0291348,5.4061127,15.6592197,8.3159714,24.5267277,8.2698135
	h0.1310577c8.9273796,0.1943436,17.6431541-2.7301178,24.6465492-8.2698135c0,0,0.3126678-36.8219147,0.1553955-49.068428
	c-0.1766968-6.5205574,0.4916458-13.0365524,1.9883499-19.3854733L81.8098984,28.7601471z"/>
<path class="st1" d="M55.0063477,105.9199219c-9.0595703-0.1777344-17.734375-3.0693359-25.0864258-8.3632813
	c-0.1015625-0.0761719-0.1665039-0.2060547-0.1665039-0.3427734V51.2407227l-0.9379883-0.2416992
	c-1.8442383,3.3417969-3.2734375,6.9082031-4.2485352,10.5986328l-0.0214844,0.0820313l2.8144531,36.4375
	c0.0185547,0.2373047-0.1582031,0.4472656-0.3945313,0.46875l-10.2978516,0.9365234
	c-0.246582,0-0.4208984-0.1396484-0.4667969-0.3388672l-5.4296875-23.5419922
	c-2.1479492-9.2802734-1.6435547-18.9462891,1.4584961-27.953125c3.21875-9.5244141,7.4057617-18.762207,12.4462891-27.4604492
	l0.0888672-0.0874023l0.0361328-0.0195313l0.1015625-0.0722656L42.4770508,12.5625l0.0605469-0.2416992
	c0.0629883-0.2524414,0.144043-0.5004883,0.2431641-0.7416992l2.4682617-5.3481445
	c0.0356445-0.0766602,0.0932617-0.1420898,0.1655273-0.1879883c2.6557617-1.2744141,5.6738281-1.9624023,8.6777344-1.9624023
	c0.2973633,0,0.5942383,0.0063477,0.8920898,0.0195313c0.3442383-0.0136719,0.6445313-0.0200195,0.9443359-0.0200195
	c3,0,6.015625,0.6875,8.7207031,1.987793c0.0214844,0.0175781,0.0791016,0.0825195,0.1142578,0.159668l2.4775391,5.3671875
	c0.0898438,0.2211914,0.1708984,0.4707031,0.234375,0.7250977l0.0605469,0.2412109l17.6054688,7.4907227l0.1074219,0.081543
	l0.0273438,0.0385742l0.0839844,0.0883789c5.0205078,8.6630859,9.2050781,17.9008789,12.421875,27.4257813
	c2.9970703,8.7231445,3.5595703,18.0981445,1.625,27.1137695l-0.0136719,0.0673828l0.0039063,0.0693359
	c0.0048828,0.0693359-0.0087891,0.1396484-0.0390625,0.203125l-0.0234375,0.0507813c0,0-0.0742188,0.3886719-0.0888672,0.4521484
	l-5.4296875,23.5429688c-0.0458984,0.1982422-0.2207031,0.3369141-0.4248047,0.3369141l-10.3408203-0.9345703
	c-0.2392578-0.0205078-0.4169922-0.2304688-0.3984375-0.46875l2.8154297-36.4433594L85.4462891,61.59375
	c-0.9755859-3.6923828-2.4052734-7.2583008-4.2490234-10.5986328l-0.9375,0.2416992v45.9770508
	c0,0.1367188-0.0654297,0.2666016-0.1748047,0.3486328C72.7402344,102.8505859,64.0654297,105.7421875,55.0063477,105.9199219z
	 M29.0336914,29.9238281c1.1445313,5.0209961,1.6835938,10.1777344,1.6015625,15.3271484v51.7548828l0.2128906,0.1494141
	c7.1113281,4.9902344,15.4614258,7.71875,24.1484375,7.8925781c8.7045898-0.1728516,17.0551758-2.9003906,24.168457-7.8886719
	l0.2128906-0.1494141L79.3759766,45.262207c-0.0810547-5.1611328,0.4580078-10.3188477,1.6035156-15.3383789L81.1191406,29.3125
	H28.894043L29.0336914,29.9238281z M15.543457,92.4755859l1.4189453,6.1425781l4.3833008-0.3945313l-1.2758789-6.2714844
	L15.543457,92.4755859z M88.7480469,98.2226563l4.3007813,0.3916016l1.4208984-6.1386719l-4.4462891-0.5097656
	L88.7480469,98.2226563z M83.5585938,97.7548828l4.3056641,0.3935547l1.2792969-6.2890625l-5.0976563-0.5839844
	L83.5585938,97.7548828z M20.9355469,91.8496094l1.2797852,6.2900391l4.2382813-0.3847656l-0.4995117-6.4794922
	L20.9355469,91.8496094z M15.347168,91.6132813l4.5424805-0.5195313l-2.4321289-11.9658203
	c-0.3945313-1.9052734-1.9589844-3.3066406-3.8935547-3.4882813l-1.9418945-0.1767578L15.347168,91.6132813z M96.5351563,75.6396484
	c-1.9355469,0.1845703-3.5,1.5849609-3.8964844,3.4853516l-2.4404297,11.9707031l4.4677734,0.5117188l3.7285156-16.1367188
	L96.5351563,75.6396484z M84.5664063,22.2807617C82.4316406,26.9208984,80.25,33.2792969,80.25,45.2587891v2.3823242
	l0.0771484,0.1225586c2.7001953,4.2626953,4.7167969,8.8984375,5.9960938,13.7792969
	c0.0126953,0.046875,0.0166016,0.0898438,0.0136719,0.1318359l-2.2128906,28.734375l5.203125,0.5947266l2.4501953-12.0576172
	c0.4755859-2.2802734,2.3554688-3.9619141,4.6757813-4.1826172l2.1054688-0.1904297l0.0742188-0.3642578
	c1.8017578-8.7333984,1.2236328-17.8076172-1.671875-26.2407227c-3.0224609-8.8896484-6.8935547-17.5449219-11.5048828-25.7241211
	l-0.4804688-0.8525391L84.5664063,22.2807617z M24.5546875,22.25c-4.6108398,8.1801758-8.480957,16.8354492-11.5039063,25.7250977
	c-2.894043,8.4311523-3.4726563,17.503418-1.6728516,26.2338867l0.0751953,0.3642578l2.1870117,0.1982422
	c2.3203125,0.2197266,4.1987305,1.9013672,4.6723633,4.1845703l2.4506836,12.0390625l5.1279297-0.5859375l-2.2148438-28.7333984
	c-0.0039063-0.0478516,0-0.09375,0.0107422-0.1386719c1.2788086-4.8740234,3.2963867-9.5087891,5.9960938-13.7705078
	l0.0776367-0.1225586v-2.3852539c0-11.9838867-2.1821289-18.3378906-4.3164063-22.972168l-0.4091797-0.8891602L24.5546875,22.25z
	 M25.6499023,20.6723633l0.2294922,0.4726563c1.0795898,2.2246094,1.9770508,4.5576172,2.6674805,6.9345703l0.1044922,0.3603516
	h52.7099609l0.1054688-0.3603516c0.6894531-2.3740234,1.5878906-4.7075195,2.6689453-6.9345703l0.2285156-0.4726563
	l-17.2402344-7.3417969H42.8920898L25.6499023,20.6723633z M54.0302734,4.9472656
	c-2.7241211,0-5.3681641,0.5585938-7.8588867,1.659668l-0.1728516,0.0766602l-2.6640625,5.7749023h23.3442383l-2.6640625-5.7729492
	L63.8417969,6.609375c-2.4921875-1.1025391-5.1376953-1.6616211-7.8632813-1.6616211
	c-0.3320313,0-0.6650391,0.0083008-0.9980469,0.0253906C54.6982422,4.9560547,54.3637695,4.9472656,54.0302734,4.9472656z
	 M91.5947266,95.9013672c-0.2402344,0-0.4365234-0.1953125-0.4365234-0.4355469s0.1962891-0.4365234,0.4365234-0.4365234h0.0703125
	c0.0908203,0.0146484,0.1738281,0.0576172,0.2392578,0.1240234c0.0820313,0.0830078,0.1269531,0.1923828,0.1259766,0.3095703
	C92.0302734,95.7060547,91.8349609,95.9013672,91.5947266,95.9013672z M18.4970703,95.8955078
	c-0.2402344,0-0.4360352-0.1953125-0.4360352-0.4355469s0.1958008-0.4365234,0.4360352-0.4365234
	c0.2407227,0,0.4365234,0.1962891,0.4365234,0.4365234S18.737793,95.8955078,18.4970703,95.8955078z M94.1689453,84.3173828
	c-0.2402344,0-0.4365234-0.1953125-0.4365234-0.4355469s0.1962891-0.4365234,0.4365234-0.4365234h0.0761719
	c0.0898438,0.015625,0.1708984,0.0585938,0.2353516,0.1230469c0.0810547,0.0830078,0.125,0.1923828,0.1240234,0.3085938
	C94.6044922,84.1220703,94.4091797,84.3173828,94.1689453,84.3173828z M15.9228516,84.3105469
	c-0.2402344,0-0.4360352-0.1962891-0.4360352-0.4365234s0.1958008-0.4355469,0.4360352-0.4355469
	s0.4360352,0.1953125,0.4360352,0.4355469S16.1630859,84.3105469,15.9228516,84.3105469z"/>
<g>
	<path class="st2" d="M42.2020226,51.7851677c0,0,1.8492851,4.7142868,2.2523422,9.2115631
		c1.2862473,14.3518333,0.5716667,42.4612999,0.5716667,42.4612999"/>
	<path class="st2" d="M67.7979736,51.7851677c0,0-1.8492813,4.7142868-2.2523422,9.2115631
		c-1.2862473,14.3518333-0.5716629,42.4612999-0.5716629,42.4612999"/>
</g>
</svg>
