<svg xmlns="http://www.w3.org/2000/svg" width="55" height="55" viewBox="0 0 55 55"><defs><style>.cls-1{fill:#fff;}.cls-2{fill:#010101;}</style></defs><title>Манжет</title><g id="Манжет"><path class="cls-1" d="M3.5,45.458V10.339c0-1.66,4.773-3.1,11.164-3.93A145.228,145.228,0,0,1,37.335,5.348a1.579,1.579,0,0,1,1.229.862c6.514.862,12.945,1.961,12.936,4.183-.037,8.752,0,26.092,0,35.119,0,3.31-14.037,4.787-24.936,4.679C15.17,50.08,3.5,48.431,3.5,45.458Z"/><path class="cls-2" d="M38.871,5.765a2.239,2.239,0,0,0-1.761-.939,150.946,150.946,0,0,0-21.75.98C11.644,6.227,3,7.51,3,10.34V45.569c0,3.364,12.325,5.124,24.5,5.124S52,48.933,52,45.569V10.34C52,7.548,43.868,6.28,38.871,5.765ZM51,10.34v.631c-.093-.069-.173-.14-.28-.207a.5.5,0,1,0-.533.847c.524.33.813.661.813.932v29.4a4.835,4.835,0,0,0-.463-.316.5.5,0,0,0-.5.864c.623.362.966.726.966,1.024v.492c-2.928-2.169-11.9-3.373-21.251-3.54.108-.088.223-.166.322-.265l.764-.764c.606.016,1.208.035,1.8.06h.021a.5.5,0,0,0,.021-1c-.287-.012-.583-.019-.873-.03l6.258-6.258a4.208,4.208,0,0,0,1.241-3V9.023c.494.054.989.108,1.459.169a.585.585,0,0,0,.064,0,.5.5,0,0,0,.063-1c-.512-.066-1.049-.125-1.587-.184V7.094a2.287,2.287,0,0,0-.027-.277C47.849,7.754,51,9.422,51,10.34ZM15.472,6.8a149.606,149.606,0,0,1,21.609-.974A1.272,1.272,0,0,1,38.3,7.094v22.12a3.215,3.215,0,0,1-.948,2.289l-7.99,7.99a3.238,3.238,0,0,1-2.262.946c-.156,0-.308.007-.463.01C16.805,40.516,7.073,41.729,4,44.005v-.491c0-.3.343-.667.967-1.028a.5.5,0,0,0-.5-.865A4.841,4.841,0,0,0,4,41.938V12.387c.017-.023.043-.035.056-.061a2.747,2.747,0,0,1,1.3-1.015.5.5,0,0,0-.447-.895,6.107,6.107,0,0,0-.91.554V10.34C4,9.438,7.055,7.752,15.472,6.8ZM27.5,49.693c-14.56,0-23.5-2.4-23.5-4.124a.776.776,0,0,1,.224-.463,8.744,8.744,0,0,0,1.547.765.5.5,0,1,0,.365-.931,8.97,8.97,0,0,1-1.04-.48c1.886-1.01,6.171-2.034,12.352-2.591a.448.448,0,0,0,.13.013c2.715-.229,5.613-.369,8.617-.425.435,0,.858-.013,1.3-.013,14.56,0,23.5,2.4,23.5,4.124S42.06,49.693,27.5,49.693ZM42.313,8.9a.5.5,0,0,1,.573-.415q1.044.167,1.987.355a.5.5,0,0,1-.1.99.481.481,0,0,1-.1-.01q-.924-.184-1.95-.349A.5.5,0,0,1,42.313,8.9Zm3.93.749a.5.5,0,0,1,.609-.36c.724.187,1.383.385,1.958.591a.5.5,0,1,1-.336.941c-.547-.195-1.176-.385-1.871-.563A.5.5,0,0,1,46.242,9.65ZM37.148,39.278a.5.5,0,0,1-.5.46h-.04q-.973-.078-1.987-.139a.5.5,0,0,1-.469-.529.514.514,0,0,1,.529-.469q1.022.062,2.005.14A.5.5,0,0,1,37.148,39.278Zm3.978.427a.5.5,0,0,1-.5.438.552.552,0,0,1-.063,0q-.957-.121-1.976-.224a.5.5,0,1,1,.1-1q1.031.1,2,.227A.5.5,0,0,1,41.126,39.705Zm.991.139a.5.5,0,0,1,.571-.417c.7.109,1.36.226,1.989.348a.5.5,0,0,1-.095.991.493.493,0,0,1-.1-.009q-.927-.18-1.953-.341A.5.5,0,0,1,42.117,39.844Zm3.934.732a.5.5,0,0,1,.606-.363c.718.18,1.378.373,1.961.572a.5.5,0,0,1-.162.973.508.508,0,0,1-.162-.027c-.557-.191-1.189-.375-1.88-.549A.5.5,0,0,1,46.051,40.576ZM37.1,13.693v2a.5.5,0,0,1-1,0v-2a.5.5,0,1,1,1,0ZM34.279,7.475a.475.475,0,0,1,.506-.494c.61.007,1.221.019,1.829.035a.5.5,0,0,1,.487.5v.178a.5.5,0,0,1-.89.313c-.479-.011-.958-.02-1.437-.025A.5.5,0,0,1,34.279,7.475Zm-8,.143a.5.5,0,0,1,.479-.52q1.008-.04,2-.068a.475.475,0,0,1,.514.486.5.5,0,0,1-.486.514Q27.8,8.057,26.8,8.1h-.021A.5.5,0,0,1,26.283,7.617ZM22.29,7.84a.5.5,0,0,1,.467-.531q1.009-.065,2-.118a.5.5,0,1,1,.053,1q-.988.051-1.99.117h-.033A.5.5,0,0,1,22.29,7.84Zm7.991-.345a.5.5,0,0,1,.493-.507q1.007-.015,2.006-.017h0a.5.5,0,0,1,0,1q-.992,0-1.993.017H30.78A.5.5,0,0,1,30.28,7.495Zm6.821,2.2v2a.5.5,0,0,1-1,0v-2a.5.5,0,1,1,1,0Zm-5.739,25.4a.5.5,0,0,1,0,.707L29.948,37.21a.5.5,0,0,1-.707-.707l1.414-1.414A.5.5,0,0,1,31.362,35.089Zm-2.838,2.838a.488.488,0,0,1,.009.7,2.6,2.6,0,0,1-1.608.757l-.57.006h-.006a.5.5,0,0,1-.006-1l.574-.006a1.635,1.635,0,0,0,.891-.445A.513.513,0,0,1,28.524,37.927ZM37.1,17.693v2a.5.5,0,0,1-1,0v-2a.5.5,0,1,1,1,0ZM20.85,39.074a.5.5,0,0,1-.469.529q-1.014.062-1.986.14h-.041a.5.5,0,0,1-.04-1q.982-.078,2.006-.141A.5.5,0,0,1,20.85,39.074Zm4-.161a.5.5,0,0,1-.486.514q-1.01.028-1.992.071h-.022a.5.5,0,0,1-.021-1q.989-.043,2.007-.072A.506.506,0,0,1,24.849,38.913ZM37.1,21.693v2a.5.5,0,0,1-1,0v-2a.5.5,0,1,1,1,0Zm0,4v2a.5.5,0,0,1-1,0v-2a.5.5,0,1,1,1,0ZM37,29.837a2.041,2.041,0,0,1-.5.816l-.9.9a.5.5,0,0,1-.707-.707l.9-.9a1.015,1.015,0,0,0,.253-.413.5.5,0,1,1,.953.3Zm-4.935,3.837,1.414-1.414a.5.5,0,0,1,.707.707l-1.414,1.414a.5.5,0,0,1-.707-.707ZM13.878,39.711a.5.5,0,0,1,.434-.559q.968-.122,2-.227a.5.5,0,0,1,.1,1q-1.017.1-1.976.224a.559.559,0,0,1-.063,0A.5.5,0,0,1,13.878,39.711Zm-3.947.653a.5.5,0,0,1,.4-.586q.943-.184,1.989-.346a.5.5,0,1,1,.154.988c-.684.106-1.336.22-1.953.339a.493.493,0,0,1-.1.009A.5.5,0,0,1,9.931,40.364Zm.45-31.1a.5.5,0,0,1,.4-.586q.947-.184,1.987-.348a.5.5,0,0,1,.156.987q-1.021.162-1.953.342a.493.493,0,0,1-.1.009A.5.5,0,0,1,10.381,9.26ZM6.515,10.283a.5.5,0,0,1,.322-.629c.587-.19,1.248-.375,1.961-.55a.5.5,0,1,1,.237.972c-.69.168-1.327.347-1.891.529a.5.5,0,0,1-.629-.322ZM18.3,8.159a.5.5,0,0,1,.454-.542q1.008-.089,2-.166a.5.5,0,1,1,.077,1q-.987.076-1.988.165l-.044,0A.5.5,0,0,1,18.3,8.159ZM14.327,8.6a.5.5,0,0,1,.432-.56q.97-.125,2-.232a.492.492,0,0,1,.549.445.5.5,0,0,1-.445.549q-1.015.107-1.975.23a.578.578,0,0,1-.064,0A.5.5,0,0,1,14.327,8.6ZM6.073,41.418a.5.5,0,0,1,.311-.635c.581-.2,1.241-.391,1.962-.57a.5.5,0,1,1,.241.971c-.694.173-1.326.356-1.879.546a.508.508,0,0,1-.162.027A.5.5,0,0,1,6.073,41.418Zm24.142,6.544a.5.5,0,0,1-.491.509q-.994.018-2.009.02h0a.5.5,0,0,1,0-1q1.006,0,1.992-.02A.487.487,0,0,1,30.215,47.962Zm7.987-.454a.5.5,0,0,1-.453.543q-.979.088-2,.16h-.036a.5.5,0,0,1-.035-1q1.014-.072,1.984-.159A.5.5,0,0,1,38.2,47.509Zm11.7-2.464a.5.5,0,0,1-.26.658,16.885,16.885,0,0,1-1.944.685.5.5,0,1,1-.28-.96,15.91,15.91,0,0,0,1.827-.643A.5.5,0,0,1,49.9,45.045Zm-7.727,1.983a.5.5,0,0,1-.425.565q-.965.135-2,.254a.454.454,0,0,1-.057,0,.5.5,0,0,1-.056-1q1.02-.116,1.972-.251A.5.5,0,0,1,42.175,47.028Zm-15.96.957a.5.5,0,0,1-.5.493h-.007q-1.017-.014-2.009-.044a.5.5,0,0,1-.485-.515.535.535,0,0,1,.515-.485q.984.03,1.992.044A.5.5,0,0,1,26.214,47.985Zm19.892-1.693a.5.5,0,0,1-.38.6q-.932.207-1.984.392a.526.526,0,0,1-.087.007.5.5,0,0,1-.086-.993c.685-.12,1.333-.248,1.941-.383A.5.5,0,0,1,46.106,46.292ZM34.213,47.809a.5.5,0,0,1-.474.525q-.988.051-2.007.085h-.018a.5.5,0,0,1-.017-1q1.01-.034,1.99-.085A.5.5,0,0,1,34.213,47.809Zm-12,.071a.5.5,0,0,1-.5.476h-.024q-1.021-.048-2.006-.114a.5.5,0,0,1-.466-.532.509.509,0,0,1,.532-.466q.976.064,1.988.113A.5.5,0,0,1,22.214,47.879Zm-7.973-.655a.5.5,0,0,1-.5.433.526.526,0,0,1-.067,0q-1.039-.141-1.994-.3a.5.5,0,1,1,.165-.986q.94.157,1.963.3A.5.5,0,0,1,14.242,47.224Zm-3.952-.632a.5.5,0,0,1-.592.387q-1.064-.223-1.975-.473a.5.5,0,1,1,.265-.965c.587.161,1.228.314,1.916.459A.5.5,0,0,1,10.29,46.592Zm7.931,1.042a.5.5,0,0,1-.5.457l-.043,0q-1.027-.088-2-.194a.5.5,0,0,1-.443-.551.494.494,0,0,1,.551-.443q.963.1,1.98.192A.5.5,0,0,1,18.221,47.634Zm1.4-22.406c.049,0,.1,0,.146-.005.413-.03.827-.057,1.246-.084a4.537,4.537,0,0,0,8.162-.341c.392,0,.779-.005,1.228,0,.066,0,.132,0,.181,0a2,2,0,0,0,0-4c-.522,0-1.05,0-1.574.006l-.023,0a4.538,4.538,0,0,0-8.164.341q-.674.043-1.348.091a2,2,0,0,0,.143,3.995Zm10.966-3.436a1,1,0,1,1-.023,2h-.237c-.281,0-.564,0-.846,0a4.615,4.615,0,0,0,.05-.5c.352,0,.7,0,1.054,0h0a.5.5,0,0,0,0-1c-.367,0-.728,0-1.089,0a4.5,4.5,0,0,0-.1-.5C29.789,21.794,30.189,21.792,30.585,21.792ZM25,19.532A3.438,3.438,0,1,1,21.938,24.5a.467.467,0,0,0,0-.06.489.489,0,0,0-.122-.2A3.423,3.423,0,0,1,25,19.532Zm-6.135,3.042a1,1,0,0,1,.684-.343c.324-.023.647-.044.97-.065a4.589,4.589,0,0,0-.051.5c-.294.02-.588.038-.882.06a.5.5,0,0,0,.035,1h.036l.852-.057a4.472,4.472,0,0,0,.107.493l-1,.066a1,1,0,0,1-.755-1.654Zm4.573,1.4v-2a.563.563,0,0,1,1.125,0v2a.563.563,0,0,1-1.125,0Zm2,0v-2a.563.563,0,0,1,1.125,0v2a.563.563,0,0,1-1.125,0Z"/></g></svg>