<svg xmlns="http://www.w3.org/2000/svg" width="110" height="110" viewBox="0 0 110 110"><defs><style>.cls-1{fill:#fff;}.cls-2{fill:#af9c94;}</style></defs><title>Пуговицы - 01</title><g id="Пуговицы"><g id="_01" data-name="01"><g id="Цвет-31" data-name="Цвет"><path class="cls-1" d="M109.5,55A54.5,54.5,0,1,1,55,.5,54.5,54.5,0,0,1,109.5,55Zm-65-16.5a6,6,0,1,0,6,6A6,6,0,0,0,44.5,38.5Zm0,21a6,6,0,1,0,6,6A6,6,0,0,0,44.5,59.5Zm21-21a6,6,0,1,0,6,6A6,6,0,0,0,65.5,38.5Zm0,21a6,6,0,1,0,6,6A6,6,0,0,0,65.5,59.5Z"/></g><g id="Контур-31" data-name="Контур"><path d="M55,110a55,55,0,1,1,55-55A55.062,55.062,0,0,1,55,110ZM55,1a54,54,0,1,0,54,54A54.061,54.061,0,0,0,55,1Z"/><path d="M55.5,96A40.5,40.5,0,1,1,96,55.5a.5.5,0,0,1-1,0A39.5,39.5,0,1,0,55.5,95a.5.5,0,0,1,0,1Z"/><path d="M55.5,93A37.5,37.5,0,1,1,93,55.5,37.542,37.542,0,0,1,55.5,93Zm0-74A36.5,36.5,0,1,0,92,55.5,36.542,36.542,0,0,0,55.5,19Z"/><path d="M44.5,51A6.5,6.5,0,1,1,51,44.5,6.508,6.508,0,0,1,44.5,51Zm0-12A5.5,5.5,0,1,0,50,44.5,5.507,5.507,0,0,0,44.5,39Z"/><path d="M44.5,72A6.5,6.5,0,1,1,51,65.5,6.508,6.508,0,0,1,44.5,72Zm0-12A5.5,5.5,0,1,0,50,65.5,5.507,5.507,0,0,0,44.5,60Z"/><path d="M65.5,51A6.5,6.5,0,1,1,72,44.5,6.508,6.508,0,0,1,65.5,51Zm0-12A5.5,5.5,0,1,0,71,44.5,5.507,5.507,0,0,0,65.5,39Z"/><path d="M65.5,72A6.5,6.5,0,1,1,72,65.5,6.508,6.508,0,0,1,65.5,72Zm0-12A5.5,5.5,0,1,0,71,65.5,5.507,5.507,0,0,0,65.5,60Z"/><rect class="cls-2" x="41.5" y="44.5" width="6" height="21" rx="3" ry="3"/><path d="M44.5,66A3.5,3.5,0,0,1,41,62.5v-15a3.5,3.5,0,0,1,7,0v15A3.5,3.5,0,0,1,44.5,66Zm0-21A2.5,2.5,0,0,0,42,47.5v15a2.5,2.5,0,0,0,5,0v-15A2.5,2.5,0,0,0,44.5,45Z"/><rect class="cls-2" x="62.5" y="44.5" width="6" height="21" rx="3" ry="3"/><path d="M65.5,66A3.5,3.5,0,0,1,62,62.5v-15a3.5,3.5,0,0,1,7,0v15A3.5,3.5,0,0,1,65.5,66Zm0-21A2.5,2.5,0,0,0,63,47.5v15a2.5,2.5,0,0,0,5,0v-15A2.5,2.5,0,0,0,65.5,45Z"/></g></g></g></svg>