<svg xmlns="http://www.w3.org/2000/svg" width="110" height="110" viewBox="0 0 110 110"><defs><style>.cls-1{fill:#fff;}</style></defs><title>Манжет - Закругленный по запонку и пуговицу</title><g id="Манжет"><g id="Закругленный_по_запонку_и_пуговицу" data-name="Закругленный по запонку и пуговицу"><g id="Цвет-14" data-name="Цвет"><path class="cls-1" d="M.5,94.75V15c0-3.769,10.839-7.031,25.352-8.923,15.242-1.987,37.232-3.16,51.482-2.41a3.585,3.585,0,0,1,2.792,1.958c14.792,1.958,29.4,4.452,29.375,9.5-.083,19.875,0,59.25,0,79.75,0,7.517-31.875,10.87-56.625,10.625C27,105.245.5,101.5.5,94.75Z"/></g><g id="Контур-14" data-name="Контур"><path d="M80.478,5.214a4.444,4.444,0,0,0-3.657-2.1A341.054,341.054,0,0,0,27.5,5.337C21.052,6.066,0,8.92,0,15V95c0,6.886,27.965,11,55,11s55-4.114,55-11V15C110,8.733,87.628,5.944,80.478,5.214ZM27.616,6.331A348.324,348.324,0,0,1,67.322,3.978q4.724,0,9.469.138a3.471,3.471,0,0,1,3.376,3.5V63.549A19.552,19.552,0,0,1,61.141,83.041c-10.835.21-21.838.961-33.638,2.3C21.895,85.972,5.255,88.21,1,92.778V19.131a21.372,21.372,0,0,1,3.132-1.889.5.5,0,0,0-.448-.895A24.1,24.1,0,0,0,1,17.9V15C1,12.183,9.229,8.41,27.616,6.331ZM55,105C22.7,105,1,99.829,1,95a1.683,1.683,0,0,1,.051-.369c.013-.053.024-.106.043-.159.008-.025.022-.05.031-.075a3.445,3.445,0,0,1,.967-1.257A16.6,16.6,0,0,0,5.378,94.89a.492.492,0,0,0,.191.038.5.5,0,0,0,.191-.962A16.593,16.593,0,0,1,2.924,92.5a17.69,17.69,0,0,1,3.114-1.59C14.238,87.643,31.906,85,55,85c26.721,0,46.172,3.539,52.1,7.5a14.614,14.614,0,0,1-1.985,1.089.5.5,0,0,0,.42.908,14.693,14.693,0,0,0,2.4-1.366A2.631,2.631,0,0,1,109,95C109,99.829,87.3,105,55,105Zm52.447-87.251A3.076,3.076,0,0,1,109,20V87.815a9.4,9.4,0,0,0-2.521-1.839.5.5,0,0,0-.469.883,6.375,6.375,0,0,1,2.783,2.335A.49.49,0,0,0,109,89.4v3.424c-4.782-5.144-26.285-8.315-48.5-8.769.22,0,.441-.013.661-.017A20.133,20.133,0,0,0,72.11,80.53q1.958.126,3.851.277l.041,0a.5.5,0,0,0,.039-1c-.885-.072-1.8-.132-2.7-.195a20.532,20.532,0,0,0,7.83-16.067V11.295c1.19.126,2.363.257,3.5.4a.462.462,0,0,0,.063,0,.5.5,0,0,0,.062-1c-1.174-.147-2.388-.284-3.621-.413V7.613a4.528,4.528,0,0,0-.222-1.345C100.312,8.3,109,12.1,109,15v2.794a6.927,6.927,0,0,0-.959-.849.5.5,0,0,0-.594.8ZM33.5,99.652a.5.5,0,0,1-.5.458l-.043,0q-2.042-.173-3.993-.378a.5.5,0,1,1,.1-.994q1.941.2,3.974.376A.5.5,0,0,1,33.5,99.652Zm6.985.472a.5.5,0,0,1-.5.473h-.027q-2.035-.113-4-.253a.5.5,0,1,1,.072-1q1.957.141,3.984.253A.5.5,0,0,1,40.489,100.124ZM26.535,98.956a.5.5,0,0,1-.5.44.42.42,0,0,1-.061,0q-2.052-.246-3.979-.529a.5.5,0,0,1-.423-.567.506.506,0,0,1,.567-.423q1.913.281,3.953.527A.5.5,0,0,1,26.535,98.956ZM19.6,97.984a.5.5,0,0,1-.492.417.487.487,0,0,1-.084-.007c-1.363-.229-2.692-.478-3.951-.737a.5.5,0,0,1,.2-.979c1.247.256,2.564.5,3.916.729A.5.5,0,0,1,19.6,97.984ZM47.486,100.4a.5.5,0,0,1-.5.485h-.015q-2.026-.059-4-.144a.5.5,0,1,1,.043-1q1.97.085,3.991.144A.5.5,0,0,1,47.486,100.4ZM12.732,96.631a.5.5,0,0,1-.486.382A.549.549,0,0,1,12.128,97c-1.4-.342-2.712-.7-3.889-1.077a.5.5,0,1,1,.3-.953c1.154.366,2.44.723,3.822,1.058A.5.5,0,0,1,12.732,96.631Zm90.275-1.652a.5.5,0,0,1-.311.635c-1.153.4-2.456.781-3.873,1.147a.5.5,0,1,1-.25-.969c1.392-.359,2.67-.737,3.8-1.124A.5.5,0,0,1,103.008,94.979ZM54.487,100.5a.5.5,0,0,1-.5.5h0q-2.023-.007-4.008-.042a.5.5,0,0,1,.009-1H50q1.978.035,3.994.042A.5.5,0,0,1,54.487,100.5Zm34.9-2.352a.5.5,0,0,1-.418.57q-1.92.294-3.977.555a.462.462,0,0,1-.063,0,.5.5,0,0,1-.062-1q2.041-.258,3.949-.551A.5.5,0,0,1,89.386,98.148Zm6.881-1.288a.5.5,0,0,1-.382.595c-1.239.27-2.566.53-3.945.773a.446.446,0,0,1-.088.008.5.5,0,0,1-.086-.992c1.365-.241,2.68-.5,3.906-.766A.5.5,0,0,1,96.267,96.86ZM82.445,99.075a.5.5,0,0,1-.442.552q-1.948.212-3.991.4l-.046,0a.5.5,0,0,1-.044-1q2.033-.183,3.972-.395A.5.5,0,0,1,82.445,99.075Zm-6.971.659a.5.5,0,0,1-.461.537q-1.966.148-4,.269h-.029a.5.5,0,0,1-.029-1q2.026-.12,3.983-.269A.488.488,0,0,1,75.475,99.734Zm-13.985.691a.5.5,0,0,1-.489.511q-1.983.042-4.008.057h0a.5.5,0,0,1,0-1q2.017-.015,3.994-.057h.011A.5.5,0,0,1,61.489,100.426Zm7-.249a.5.5,0,0,1-.476.522q-1.975.1-4.006.159h-.016a.5.5,0,0,1-.016-1q2.021-.064,3.99-.157A.488.488,0,0,1,68.486,100.177ZM75.167,19.9v-4a.5.5,0,0,1,1,0v4a.5.5,0,0,1-1,0ZM6.852,84.636a.5.5,0,0,1-.316.633,32.331,32.331,0,0,0-3.658,1.453.5.5,0,1,1-.432-.9,33.485,33.485,0,0,1,3.773-1.5A.5.5,0,0,1,6.852,84.636Zm67.4-16.022a14.435,14.435,0,0,0,.859-3.758.526.526,0,0,1,.543-.453.5.5,0,0,1,.453.543,15.405,15.405,0,0,1-.92,4.02.5.5,0,0,1-.468.324.482.482,0,0,1-.176-.032A.5.5,0,0,1,74.249,68.613ZM75.167,26.9v-4a.5.5,0,0,1,1,0v4a.5.5,0,0,1-1,0Zm0,28v-4a.5.5,0,0,1,1,0v4a.5.5,0,0,1-1,0Zm0,7v-4a.5.5,0,0,1,1,0v4a.5.5,0,0,1-1,0Zm0-14v-4a.5.5,0,0,1,1,0v4a.5.5,0,0,1-1,0Zm0-14v-4a.5.5,0,0,1,1,0v4a.5.5,0,0,1-1,0Zm0,7v-4a.5.5,0,0,1,1,0v4a.5.5,0,0,1-1,0ZM68.894,76.1a.5.5,0,0,1-.164.688,15.255,15.255,0,0,1-3.769,1.667.49.49,0,0,1-.139.02.5.5,0,0,1-.139-.98,14.3,14.3,0,0,0,3.522-1.558A.5.5,0,0,1,68.894,76.1ZM34.438,80.09a.5.5,0,0,1-.45.546q-1.973.189-3.973.4l-.054,0a.5.5,0,0,1-.052-1q2-.212,3.982-.4A.512.512,0,0,1,34.438,80.09Zm-6.96.722a.5.5,0,0,1-.441.553c-1.311.147-2.636.309-3.963.483a.5.5,0,0,1-.131-.992c1.333-.175,2.664-.336,3.982-.485A.515.515,0,0,1,27.478,80.812Zm-6.949.885a.5.5,0,0,1-.42.568c-1.326.2-2.642.416-3.934.649a.558.558,0,0,1-.09.008A.5.5,0,0,1,16,81.93c1.3-.235,2.627-.453,3.963-.653A.5.5,0,0,1,20.528,81.7Zm-6.9,1.2a.5.5,0,0,1-.386.593c-1.371.291-2.671.6-3.863.925a.508.508,0,0,1-.131.018.5.5,0,0,1-.131-.982c1.21-.328,2.528-.644,3.918-.938A.51.51,0,0,1,13.632,82.9Zm41.75-4.2a.5.5,0,0,1-.481.519q-1.988.075-3.989.174h-.024a.5.5,0,0,1-.024-1q2.008-.1,4-.176A.525.525,0,0,1,55.382,78.7Zm6.992-.234a.5.5,0,0,1-.462.536c-.281.021-.564.034-.848.04q-1.583.031-3.172.077h-.015a.5.5,0,0,1-.015-1q1.594-.047,3.181-.077c.265-.006.53-.018.794-.038A.5.5,0,0,1,62.374,78.466ZM75.167,12.9v-4a.5.5,0,0,1,1,0v4a.5.5,0,0,1-1,0ZM48.391,79.026a.5.5,0,0,1-.47.528q-1.983.116-3.986.255H43.9a.5.5,0,0,1-.033-1q2.007-.139,4-.255A.488.488,0,0,1,48.391,79.026Zm-6.982.466a.5.5,0,0,1-.459.537q-1.978.154-3.979.332l-.045,0a.5.5,0,0,1-.043-1q2.005-.179,3.989-.332A.493.493,0,0,1,41.408,79.492ZM19.653,12.037a.5.5,0,0,1,.4-.58c1.259-.225,2.593-.438,3.966-.636a.508.508,0,0,1,.566.424.5.5,0,0,1-.424.566c-1.362.2-2.686.407-3.933.63a.546.546,0,0,1-.089.008A.5.5,0,0,1,19.653,12.037ZM40.508,9.6a.5.5,0,0,1,.458-.538q2.008-.161,4-.3a.5.5,0,0,1,.068,1q-1.983.135-3.985.294l-.041,0A.5.5,0,0,1,40.508,9.6Zm-6.977.629a.5.5,0,0,1,.449-.547q2.007-.2,3.991-.371a.506.506,0,0,1,.541.455.5.5,0,0,1-.455.541q-1.979.173-3.979.371l-.05,0A.5.5,0,0,1,33.531,10.226Zm-6.959.76a.5.5,0,0,1,.437-.556l1.056-.124q1.472-.166,2.927-.32a.511.511,0,0,1,.55.444.5.5,0,0,1-.444.55q-1.452.155-2.92.32l-1.049.122a.411.411,0,0,1-.061,0A.5.5,0,0,1,26.572,10.985ZM6.183,15.758a.5.5,0,0,1,.279-.65c1.18-.47,2.462-.92,3.812-1.336a.5.5,0,0,1,.295.955c-1.324.409-2.581.85-3.735,1.311a.52.52,0,0,1-.186.035A.5.5,0,0,1,6.183,15.758Zm6.639-2.2a.5.5,0,0,1,.357-.609c1.244-.324,2.563-.633,3.918-.917a.5.5,0,0,1,.205.979c-1.34.281-2.643.586-3.871.905a.47.47,0,0,1-.126.017A.5.5,0,0,1,12.821,13.557ZM73.654,71.048a.5.5,0,0,1,.159.688,15.735,15.735,0,0,1-2.622,3.178.5.5,0,1,1-.682-.732,14.728,14.728,0,0,0,2.456-2.975A.5.5,0,0,1,73.654,71.048ZM54.485,8.742a.5.5,0,0,1,.48-.52q2.01-.078,4-.131h.014a.5.5,0,0,1,.014,1q-1.989.053-3.993.131h-.02A.5.5,0,0,1,54.485,8.742ZM47.493,9.1a.5.5,0,0,1,.469-.529q2.01-.12,4-.216a.461.461,0,0,1,.523.475.5.5,0,0,1-.475.523q-1.986.1-3.99.216h-.03A.5.5,0,0,1,47.493,9.1Zm13.991-.562a.5.5,0,0,1,.491-.509q2.008-.035,4.007-.044a.474.474,0,0,1,.5.5.5.5,0,0,1-.5.5q-1.992.009-3.993.044h-.009A.5.5,0,0,1,61.484,8.536Zm7-.056a.5.5,0,0,1,.5-.5h0c1.331.007,2.669.021,4.006.045a.5.5,0,0,1-.009,1h-.009C71.643,9,70.309,8.99,68.981,8.983A.5.5,0,0,1,68.484,8.48Zm30.5,5.317a.5.5,0,0,1-.608.36c-1.193-.3-2.5-.6-3.877-.882a.5.5,0,0,1,.2-.98c1.4.284,2.716.585,3.926.894A.5.5,0,0,1,98.983,13.8Zm6.608,2.284a.5.5,0,0,1-.456.295.491.491,0,0,1-.205-.044,33,33,0,0,0-3.692-1.369.5.5,0,1,1,.3-.955,34.032,34.032,0,0,1,3.806,1.412A.5.5,0,0,1,105.592,16.082ZM92.143,12.315a.5.5,0,0,1-.491.414.436.436,0,0,1-.087-.008q-1.891-.33-3.937-.626a.5.5,0,0,1-.424-.566.509.509,0,0,1,.566-.424q2.06.3,3.967.632A.5.5,0,0,1,92.143,12.315ZM90.4,82.016a.5.5,0,0,1-.492.42.462.462,0,0,1-.081-.007q-1.9-.306-3.944-.577a.5.5,0,0,1-.431-.562.509.509,0,0,1,.562-.431q2.057.274,3.974.583A.5.5,0,0,1,90.4,82.016Zm-6.934-.974a.5.5,0,0,1-.5.443.555.555,0,0,1-.058,0q-1.935-.223-3.97-.416a.5.5,0,0,1-.451-.545.521.521,0,0,1,.545-.451q2.045.195,3.989.418A.5.5,0,0,1,83.467,81.042Zm13.8,2.328a.5.5,0,0,1-.6.375c-1.22-.28-2.531-.552-3.9-.807a.5.5,0,0,1,.184-.982c1.379.257,2.7.531,3.938.814A.5.5,0,0,1,97.268,83.37Zm6.7,2.013a.5.5,0,0,1-.468.324.482.482,0,0,1-.176-.032c-1.1-.413-2.37-.818-3.768-1.2a.5.5,0,0,1,.266-.965c1.427.394,2.724.809,3.854,1.232A.5.5,0,0,1,103.97,85.383Zm-62.367-44A2.48,2.48,0,0,0,41,43.2a2.508,2.508,0,0,0,2.492,2.322c.058,0,.115,0,.181-.006q1.408-.1,2.8-.19,1.261-.081,2.525-.151V52.5a.5.5,0,0,0,.146.354l4,4A.5.5,0,0,0,53.5,57h5a.5.5,0,0,0,.354-.147l4-4A.5.5,0,0,0,63,52.5V44.678q.814-.011,1.629-.019,1.4-.013,2.8-.013h.236a2.5,2.5,0,0,0,0-5q-1.523,0-3.048.014-.81.007-1.62.019V33.5a.5.5,0,0,0-.147-.354l-4-4A.5.5,0,0,0,58.5,29h-5a.5.5,0,0,0-.354.146l-4,4A.5.5,0,0,0,49,33.5v6.665q-1.387.077-2.772.163-1.452.091-2.914.2A2.485,2.485,0,0,0,41.6,41.382ZM62,52H59V34h3Zm-4,1v3H54V53Zm1,0h2.293L59,55.293Zm-1-1H54V34h4Zm6.629-11.34q1.521-.013,3.039-.014a1.5,1.5,0,1,1,0,3H67.43q-1.408,0-2.81.013-.811.007-1.62.019v-1q.783-.011,1.565-.019c1.033-.009,2.064-.012,3.1-.013a.5.5,0,0,0,0-1c-1.039,0-2.076,0-3.11.013q-.779.007-1.557.019v-1Q63.815,40.668,64.629,40.66ZM50,33.707,53.707,30h4.586l3,3H59V31.5a.5.5,0,0,0-1,0V33H54V31.5a.5.5,0,0,0-1,0V33H51.5a.5.5,0,0,0,0,1H53V52H51.5a.5.5,0,0,0,0,1H53v2.293l-3-3Zm-3.71,7.619q1.355-.086,2.71-.16v1q-1.352.076-2.7.159-1.419.091-2.84.192a.5.5,0,0,0,.034,1h.036q1.418-.1,2.833-.192,1.32-.084,2.64-.156v1q-1.295.073-2.59.154-1.4.089-2.806.19l-.114,0A1.5,1.5,0,0,1,42,43.125a1.5,1.5,0,0,1,1.39-1.6Q44.843,41.417,46.29,41.326Z"/></g></g></g></svg>