<svg xmlns="http://www.w3.org/2000/svg" width="110" height="110" viewBox="0 0 110 110"><defs><style>.cls-1{fill:#fff;}</style></defs><title>Манжет - Квадратный по запонку и пуговицу</title><g id="Манжет"><g id="Квадратный_по_запонку_и_пуговицу" data-name="Квадратный по запонку и пуговицу"><g id="Цвет-15" data-name="Цвет"><path class="cls-1" d="M.5,94.75V15c0-3.769,10.839-7.031,25.352-8.923,15.242-1.987,37.232-3.16,51.482-2.41a3.585,3.585,0,0,1,2.792,1.958c14.792,1.958,29.4,4.452,29.375,9.5-.083,19.875,0,59.25,0,79.75,0,7.517-31.875,10.87-56.625,10.625C27,105.245.5,101.5.5,94.75Z"/></g><g id="Контур-15" data-name="Контур"><path d="M80.478,5.214a4.444,4.444,0,0,0-3.657-2.1A341.054,341.054,0,0,0,27.5,5.337C21.052,6.066,0,8.92,0,15V95c0,6.886,27.965,11,55,11s55-4.114,55-11V15C110,8.733,87.628,5.944,80.478,5.214ZM27.616,6.331A348.324,348.324,0,0,1,67.322,3.978q4.724,0,9.469.138a3.471,3.471,0,0,1,3.376,3.5v72A3.478,3.478,0,0,1,79.1,82.126a3.415,3.415,0,0,1-2.517.982A341.855,341.855,0,0,0,27.5,85.337C21.895,85.972,5.255,88.21,1,92.778V19.762a12.819,12.819,0,0,1,2.848-2.286.5.5,0,0,0-.52-.854A15.02,15.02,0,0,0,1,18.352V15C1,12.183,9.229,8.41,27.616,6.331ZM55,105C22.7,105,1,99.829,1,95a1.683,1.683,0,0,1,.051-.369c.013-.053.024-.106.043-.159.008-.025.022-.05.031-.075a3.445,3.445,0,0,1,.967-1.257A16.6,16.6,0,0,0,5.378,94.89a.492.492,0,0,0,.191.038.5.5,0,0,0,.191-.962A16.593,16.593,0,0,1,2.924,92.5a17.69,17.69,0,0,1,3.114-1.59C14.238,87.643,31.906,85,55,85c26.721,0,46.172,3.539,52.1,7.5a14.619,14.619,0,0,1-1.985,1.089.5.5,0,0,0,.42.908,14.7,14.7,0,0,0,2.4-1.366A2.632,2.632,0,0,1,109,95C109,99.829,87.3,105,55,105Zm52.447-87.251A3.076,3.076,0,0,1,109,20V87.794a7.065,7.065,0,0,0-1.053-.919.5.5,0,1,0-.584.811C108.45,88.469,109,89.247,109,90v2.828c-4.776-5.137-26.232-8.307-48.419-8.767,5.331-.111,10.631-.1,15.979.049A4.4,4.4,0,0,0,79.8,82.843a4.487,4.487,0,0,0,1.046-1.584c1.264.132,2.5.27,3.705.421a.462.462,0,0,0,.063,0,.5.5,0,0,0,.062-1c-1.16-.145-2.36-.278-3.577-.406a4.527,4.527,0,0,0,.067-.671V11.295c1.19.126,2.363.257,3.5.4a.462.462,0,0,0,.063,0,.5.5,0,0,0,.062-1c-1.175-.147-2.388-.284-3.621-.413V7.613a4.528,4.528,0,0,0-.222-1.345C100.312,8.3,109,12.1,109,15v2.794a6.923,6.923,0,0,0-.959-.849.5.5,0,0,0-.594.8ZM26.535,98.956a.5.5,0,0,1-.5.44.42.42,0,0,1-.061,0q-2.052-.246-3.979-.529a.5.5,0,0,1-.423-.567.506.506,0,0,1,.567-.423q1.913.281,3.953.527A.5.5,0,0,1,26.535,98.956Zm6.969.7a.5.5,0,0,1-.5.458l-.043,0q-2.042-.173-3.993-.378a.5.5,0,1,1,.1-.994q1.941.2,3.974.376A.5.5,0,0,1,33.5,99.652Zm6.985.472a.5.5,0,0,1-.5.473h-.027q-2.035-.113-4-.253a.5.5,0,1,1,.072-1q1.957.141,3.984.253A.5.5,0,0,1,40.489,100.124ZM12.732,96.631a.5.5,0,0,1-.486.382A.549.549,0,0,1,12.128,97c-1.4-.342-2.712-.7-3.889-1.077a.5.5,0,1,1,.3-.953c1.154.366,2.44.723,3.822,1.058A.5.5,0,0,1,12.732,96.631Zm6.87,1.354a.5.5,0,0,1-.492.417.487.487,0,0,1-.084-.007c-1.363-.229-2.692-.478-3.951-.737a.5.5,0,0,1,.2-.979c1.247.256,2.564.5,3.916.729A.5.5,0,0,1,19.6,97.984ZM47.486,100.4a.5.5,0,0,1-.5.485h-.015q-2.026-.059-4-.144a.5.5,0,0,1-.479-.521.494.494,0,0,1,.521-.479q1.97.085,3.991.144A.5.5,0,0,1,47.486,100.4Zm48.78-3.543a.5.5,0,0,1-.382.595c-1.239.27-2.566.53-3.945.773a.446.446,0,0,1-.088.008.5.5,0,0,1-.086-.992c1.365-.241,2.68-.5,3.906-.766A.5.5,0,0,1,96.267,96.86Zm-6.881,1.288a.5.5,0,0,1-.418.57q-1.92.294-3.977.555a.462.462,0,0,1-.063,0,.5.5,0,0,1-.062-1q2.041-.258,3.949-.551A.5.5,0,0,1,89.386,98.148Zm-6.94.927a.5.5,0,0,1-.442.552q-1.948.212-3.991.4l-.046,0a.5.5,0,0,1-.044-1q2.033-.183,3.972-.395A.5.5,0,0,1,82.445,99.075Zm20.563-4.1a.5.5,0,0,1-.311.635c-1.153.4-2.456.781-3.873,1.147a.5.5,0,1,1-.25-.969c1.392-.359,2.67-.737,3.8-1.124A.5.5,0,0,1,103.008,94.979ZM54.487,100.5a.5.5,0,0,1-.5.5h0q-2.023-.007-4.008-.042a.5.5,0,0,1,.018-1q1.978.035,3.994.042A.5.5,0,0,1,54.487,100.5Zm7-.074a.5.5,0,0,1-.489.511q-1.983.042-4.008.057h0a.5.5,0,0,1,0-1q2.017-.015,3.994-.057h.011A.5.5,0,0,1,61.489,100.426Zm13.985-.691a.5.5,0,0,1-.461.537q-1.966.148-4,.269h-.029a.5.5,0,0,1-.029-1q2.026-.12,3.983-.269A.488.488,0,0,1,75.475,99.734Zm-6.988.442a.5.5,0,0,1-.476.522q-1.975.1-4.006.159h-.016a.5.5,0,0,1-.016-1q2.021-.064,3.99-.157A.5.5,0,0,1,68.486,100.177ZM6.825,85.013a.5.5,0,0,1-.295.643,22.421,22.421,0,0,0-3.551,1.632.5.5,0,0,1-.51-.859,23.256,23.256,0,0,1,3.713-1.71A.5.5,0,0,1,6.825,85.013ZM20.438,81.77a.5.5,0,0,1-.41.576c-1.35.227-2.669.47-3.921.724a.509.509,0,0,1-.1.01.5.5,0,0,1-.1-.99c1.264-.256,2.594-.5,3.954-.729A.5.5,0,0,1,20.438,81.77ZM76.166,57.479v4a.5.5,0,1,1-1,0v-4a.5.5,0,0,1,1,0Zm-62.6,25.627a.5.5,0,0,1-.371.6c-1.377.325-2.67.667-3.843,1.016a.519.519,0,0,1-.143.021.5.5,0,0,1-.143-.979c1.191-.354,2.5-.7,3.9-1.029A.492.492,0,0,1,13.563,83.105Zm62.6-46.627v4a.5.5,0,1,1-1,0v-4a.5.5,0,0,1,1,0Zm0-7v4a.5.5,0,1,1-1,0v-4a.5.5,0,0,1,1,0ZM27.379,80.822a.5.5,0,0,1-.44.554c-1.274.145-2.6.314-3.956.511a.6.6,0,0,1-.072,0,.5.5,0,0,1-.07-1c1.363-.2,2.7-.368,3.985-.515A.5.5,0,0,1,27.379,80.822ZM76.166,50.479v4a.5.5,0,1,1-1,0v-4a.5.5,0,0,1,1,0Zm0-7v4a.5.5,0,1,1-1,0v-4a.5.5,0,0,1,1,0ZM41.308,79.5a.5.5,0,0,1-.459.537q-1.979.155-3.979.332l-.045,0a.5.5,0,0,1-.043-1q2.005-.177,3.988-.332A.5.5,0,0,1,41.308,79.5Zm27.963-1.017a.5.5,0,0,1-.5.5h0l-1.325,0q-1.333,0-2.668.011h0a.5.5,0,0,1,0-1q1.339-.01,2.676-.011l1.329,0A.5.5,0,0,1,69.271,78.484Zm-7,.035a.5.5,0,0,1-.491.509q-1.991.035-3.992.094h-.015a.5.5,0,0,1-.015-1q2.008-.059,4-.094A.492.492,0,0,1,62.272,78.52Zm-7,.185a.5.5,0,0,1-.48.52q-1.988.076-3.989.176h-.025a.5.5,0,0,1-.025-1q2.008-.1,4-.178h.02A.5.5,0,0,1,55.277,78.7Zm-6.989.329a.5.5,0,0,1-.47.528q-1.983.116-3.983.256H43.8a.5.5,0,0,1-.034-1q2.005-.141,4-.256A.5.5,0,0,1,48.288,79.033ZM76.166,64.479v4a.5.5,0,0,1-1,0v-4a.5.5,0,1,1,1,0Zm0-42v4a.5.5,0,1,1-1,0v-4a.5.5,0,0,1,1,0Zm0,49v4a.5.5,0,0,1-1,0v-4a.5.5,0,0,1,1,0ZM34.338,80.1a.5.5,0,0,1-.45.546q-1.973.189-3.972.4a.482.482,0,0,1-.054,0,.5.5,0,0,1-.052-1q2-.214,3.981-.4A.512.512,0,0,1,34.338,80.1Zm41.828-1.622v.1a.5.5,0,0,1-.5.5h-.013c-1.29-.032-2.589-.058-3.889-.075a.5.5,0,0,1,.014-1q1.8.025,3.592.067A.523.523,0,0,1,76.166,78.479ZM26.151,11.034a.5.5,0,0,1,.437-.556c.486-.059.979-.117,1.478-.173q1.255-.142,2.5-.275a.5.5,0,0,1,.551.444.5.5,0,0,1-.443.55q-1.244.133-2.5.275c-.5.056-.986.112-1.471.171a.411.411,0,0,1-.061,0A.5.5,0,0,1,26.151,11.034Zm-6.923,1.035a.5.5,0,0,1,.407-.577q1.9-.33,3.967-.621a.5.5,0,1,1,.139.99q-2.048.289-3.936.615a.426.426,0,0,1-.086.008A.5.5,0,0,1,19.229,12.069Zm13.883-1.8a.5.5,0,0,1,.447-.547q2.007-.2,3.991-.376a.513.513,0,0,1,.542.454.5.5,0,0,1-.454.542q-1.979.176-3.979.374l-.051,0A.5.5,0,0,1,33.111,10.269Zm6.974-.639a.5.5,0,0,1,.458-.538q2.008-.163,4-.3a.5.5,0,1,1,.068,1q-1.982.138-3.984.3l-.041,0A.5.5,0,0,1,40.085,9.63ZM5.794,15.876a.5.5,0,0,1,.255-.659,37.688,37.688,0,0,1,3.792-1.423.5.5,0,0,1,.3.953,36.846,36.846,0,0,0-3.692,1.384.492.492,0,0,1-.2.043A.5.5,0,0,1,5.794,15.876Zm70.372-.4v4a.5.5,0,1,1-1,0v-4a.5.5,0,0,1,1,0ZM12.393,13.564a.5.5,0,0,1,.357-.609c1.226-.319,2.545-.624,3.922-.906a.5.5,0,0,1,.2.98c-1.36.277-2.663.578-3.871.893a.47.47,0,0,1-.126.017A.5.5,0,0,1,12.393,13.564ZM68.06,8.479a.489.489,0,0,1,.5-.5c1.33,0,2.668.019,4.006.04a.5.5,0,0,1-.008,1h-.008c-1.334-.021-2.668-.035-3.994-.04A.5.5,0,0,1,68.06,8.479Zm7.106.413a.5.5,0,0,1,.406-.81l.107,0a.5.5,0,0,1,.486.5v3.893a.5.5,0,1,1-1,0ZM61.06,8.543a.5.5,0,0,1,.491-.509Q63.559,8,65.557,7.985h0a.5.5,0,0,1,0,1Q63.57,9,61.568,9.034H61.56A.5.5,0,0,1,61.06,8.543Zm-7,.218a.5.5,0,0,1,.479-.521q2.011-.081,4.006-.136a.51.51,0,0,1,.514.486.5.5,0,0,1-.486.514q-1.989.056-3.992.136h-.021A.5.5,0,0,1,54.062,8.761Zm-6.993.363a.5.5,0,0,1,.469-.529q2.01-.123,4-.221a.485.485,0,0,1,.523.475.5.5,0,0,1-.475.523q-1.988.1-3.99.221h-.03A.5.5,0,0,1,47.068,9.124Zm45.074,3.191a.5.5,0,0,1-.491.414.436.436,0,0,1-.087-.008q-1.891-.33-3.937-.626a.5.5,0,0,1-.424-.566.509.509,0,0,1,.566-.424q2.06.3,3.967.632A.5.5,0,0,1,92.143,12.315Zm13.449,3.767a.5.5,0,0,1-.456.295.491.491,0,0,1-.205-.044,33,33,0,0,0-3.692-1.369.5.5,0,1,1,.3-.955,34.032,34.032,0,0,1,3.806,1.412A.5.5,0,0,1,105.592,16.082ZM98.983,13.8a.5.5,0,0,1-.608.36c-1.193-.3-2.5-.6-3.877-.882a.5.5,0,0,1,.2-.98c1.4.284,2.716.585,3.926.894A.5.5,0,0,1,98.983,13.8Zm6.509,72.236a.5.5,0,0,1-.66.254,33.487,33.487,0,0,0-3.7-1.358.5.5,0,0,1,.295-.955,34.492,34.492,0,0,1,3.809,1.4A.5.5,0,0,1,105.492,86.034ZM92.033,82.3a.5.5,0,0,1-.491.414.443.443,0,0,1-.087-.008q-1.891-.328-3.937-.623a.5.5,0,1,1,.143-.99q2.06.3,3.967.629A.5.5,0,0,1,92.033,82.3Zm6.843,1.473a.5.5,0,0,1-.484.378.481.481,0,0,1-.122-.016c-1.209-.3-2.514-.6-3.88-.877a.5.5,0,1,1,.2-.98c1.381.28,2.7.579,3.925.889A.5.5,0,0,1,98.876,83.769ZM41.6,41.382A2.48,2.48,0,0,0,41,43.2a2.508,2.508,0,0,0,2.492,2.322c.058,0,.115,0,.181-.006q1.408-.1,2.8-.19,1.261-.081,2.525-.151V52.5a.5.5,0,0,0,.146.354l4,4A.5.5,0,0,0,53.5,57h5a.5.5,0,0,0,.354-.147l4-4A.5.5,0,0,0,63,52.5V44.678q.814-.011,1.629-.019,1.4-.013,2.8-.013h.236a2.5,2.5,0,0,0,0-5q-1.523,0-3.048.014-.81.007-1.62.019V33.5a.5.5,0,0,0-.147-.354l-4-4A.5.5,0,0,0,58.5,29h-5a.5.5,0,0,0-.354.146l-4,4A.5.5,0,0,0,49,33.5v6.665q-1.387.077-2.772.163-1.452.091-2.914.2A2.485,2.485,0,0,0,41.6,41.382ZM62,52H59V34h3Zm-4,1v3H54V53Zm1,0h2.293L59,55.293Zm-1-1H54V34h4Zm6.629-11.34q1.521-.013,3.039-.014a1.5,1.5,0,1,1,0,3H67.43q-1.408,0-2.81.013-.811.007-1.62.019v-1q.783-.011,1.565-.019c1.032-.009,2.063-.012,3.1-.013a.5.5,0,0,0,0-1c-1.041,0-2.076,0-3.11.013q-.779.007-1.557.019v-1Q63.815,40.668,64.629,40.66ZM50,33.707,53.707,30h4.586l3,3H59V31.5a.5.5,0,0,0-1,0V33H54V31.5a.5.5,0,0,0-1,0V33H51.5a.5.5,0,0,0,0,1H53V52H51.5a.5.5,0,0,0,0,1H53v2.293l-3-3Zm-3.71,7.619q1.355-.086,2.71-.16v1q-1.352.076-2.7.159-1.419.091-2.84.192a.5.5,0,0,0,.034,1h.036q1.418-.1,2.833-.192,1.32-.084,2.64-.156v1q-1.295.073-2.59.154-1.4.089-2.806.19l-.114,0A1.5,1.5,0,0,1,42,43.125a1.5,1.5,0,0,1,1.39-1.6Q44.843,41.417,46.29,41.326Z"/></g></g></g></svg>