<?xml version="1.0" encoding="utf-8"?>
<!-- Generator: Adobe Illustrator 19.2.1, SVG Export Plug-In . SVG Version: 6.00 Build 0)  -->
<svg version="1.1" id="Слой_1" xmlns="http://www.w3.org/2000/svg" xmlns:xlink="http://www.w3.org/1999/xlink" x="0px" y="0px"
	 viewBox="0 0 500 500" style="enable-background:new 0 0 500 500;" xml:space="preserve">
<style type="text/css">
	.st0{fill:none;stroke:#020202;stroke-width:0.8;stroke-miterlimit:10;}
</style>
<circle class="st0" cx="250" cy="250" r="237.694"/>
<g>
	<polygon points="119.055,378.608 119.055,369.507 154.636,369.507 154.636,225.923 119.572,225.923 119.572,216.822 
		163.737,216.822 163.737,378.608 	"/>
	<path d="M350.087,255.641c-2.509,0-4.551-2.041-4.551-4.55c0-2.509,2.042-4.551,4.551-4.551h10.448v-0.238
		c3.762-0.543,6.758-2.03,8.93-4.448c0.529-0.589,0.973-1.214,1.347-1.821h10.132c-1.162,3.061-2.738,5.703-4.705,7.894
		c-2.961,3.302-8.479,7.305-17.961,7.637l-0.655,0.066l0.011,0.011H350.087z"/>
	<path d="M194.023,368.829v-9.101h137.18c8.086,0,12.973-3.559,15.838-7.134h10.614c-3.208,6.445-10.677,16.235-26.452,16.235
		H194.023z"/>
	<path d="M194.023,219.31c18.438-7.467,55.252-28.538,55.252-77.581l0.023-0.507c0.601-7.591,7.013-19.226,22.185-19.554
		l0.243-0.004l0.239-0.035c0.753-0.112,1.896-0.236,3.302-0.236c4.693,0,20.171,1.716,22.276,23.788
		c0.164,1.391,3.709,32.211-4.466,58.699l-1.534,4.96h72.754c0.772-0.058,1.284-0.093,1.904-0.093c5.1,0,9.814,2.319,12.929,6.365
		c0.652,0.846,1.225,1.723,1.728,2.652l-103.773,0.166l3.285-6.573c12.588-25.168,8.316-63.576,8.128-65.199
		c-0.989-10.368-5.444-15.662-13.231-15.662c-1.076,0-1.861,0.114-2.142,0.166c0,0-1.377,0.122-1.394,0.122
		c-7.251,0-12.37,4.085-13.319,10.92l-0.035,0.252v0.257c-0.248,55.036-41.948,78.221-64.352,86.7V219.31z"/>
	<path d="M345.149,293.414c-2.509,0-4.551-2.042-4.551-4.551c0-2.509,2.042-4.551,4.551-4.551h10.448v-0.238
		c3.763-0.543,6.758-2.03,8.931-4.448c0.51-0.568,0.942-1.171,1.307-1.758h10.146c-1.16,3.033-2.724,5.656-4.679,7.831
		c-2.96,3.302-8.479,7.305-17.961,7.637l-0.655,0.066l0.012,0.012H345.149z"/>
	<path d="M337.367,330.736c-2.509,0-4.551-2.042-4.551-4.551s2.042-4.551,4.551-4.551h10.448v-0.238
		c3.763-0.543,6.758-2.03,8.931-4.448c0.454-0.505,0.846-1.038,1.181-1.56h10.193c-1.153,2.953-2.691,5.509-4.6,7.633
		c-2.96,3.302-8.479,7.305-17.961,7.637l-0.655,0.066l0.012,0.011H337.367z"/>
</g>
</svg>
