<?xml version="1.0" encoding="utf-8"?>
<!-- Generator: Adobe Illustrator 19.2.1, SVG Export Plug-In . SVG Version: 6.00 Build 0)  -->
<svg version="1.1" id="Слой_1" xmlns="http://www.w3.org/2000/svg" xmlns:xlink="http://www.w3.org/1999/xlink" x="0px" y="0px"
	 viewBox="0 0 500 500" style="enable-background:new 0 0 500 500;" xml:space="preserve">
<style type="text/css">
	.st0{fill:none;stroke:#FFFFFF;stroke-width:7.7993;stroke-miterlimit:10;}
	.st1{fill:#FFFFFF;stroke:#2C638C;stroke-width:0.9749;stroke-miterlimit:10;}
</style>
<g>
	<circle class="st0" cx="250" cy="250" r="243.571"/>
	<g>
		<g>
			<g>
				<path class="st1" d="M287.089,345.653l-0.447-5.34c-0.315-3.773-1.19-7.469-2.597-10.982c-1.411-3.526-3.328-6.803-5.7-9.748
					l-3.363-4.171l118.549-47.437l12.106,30.232L287.089,345.653z M287.586,318.905c1.494,2.365,2.771,4.865,3.816,7.476
					c1.045,2.612,1.848,5.302,2.397,8.049l101.534-40.636l-6.213-15.52L287.586,318.905z"/>
			</g>
		</g>
		<g>
			<g>
				<path class="st1" d="M236.74,399.036h-0.002c-18.923,0-35.694-11.354-42.726-28.922c-7.561-18.896-1.997-40.164,13.848-52.927
					c3.562-2.863,7.523-5.182,11.772-6.884c4.278-1.706,8.743-2.763,13.277-3.134c15.007-1.242,30.207,5.259,39.647,16.984
					c2.865,3.556,5.181,7.519,6.884,11.772c1.701,4.253,2.757,8.719,3.138,13.266c1.693,20.277-9.864,38.98-28.758,46.541
					C248.341,397.925,242.594,399.036,236.74,399.036z M236.724,314.935c-1.052,0-2.105,0.042-3.162,0.132
					c-3.753,0.309-7.447,1.18-10.988,2.596c-3.516,1.409-6.795,3.324-9.744,5.7c-13.113,10.561-17.72,28.164-11.462,43.805
					c5.822,14.542,19.705,23.942,35.369,23.942h0.002c4.841,0,9.597-0.921,14.136-2.74c15.639-6.257,25.205-21.736,23.805-38.519
					c-0.315-3.765-1.19-7.461-2.599-10.982c-1.41-3.522-3.328-6.803-5.698-9.748C259.233,320.24,248.144,314.935,236.724,314.935z
					 M236.736,371.495c-7.598,0-14.336-4.559-17.158-11.613c-1.834-4.582-1.772-9.601,0.17-14.136
					c1.942-4.54,5.536-8.045,10.115-9.876c2.196-0.879,4.505-1.327,6.857-1.327c7.596,0,14.33,4.559,17.151,11.617
					c1.834,4.574,1.774,9.593-0.166,14.132c-1.942,4.536-5.533,8.045-10.115,9.88C241.391,371.05,239.087,371.495,236.736,371.495z
					 M236.72,342.468c-1.339,0-2.657,0.256-3.914,0.762c-2.616,1.045-4.665,3.045-5.774,5.634c-1.109,2.589-1.144,5.456-0.099,8.072
					c1.614,4.028,5.462,6.633,9.802,6.633c1.339,0,2.655-0.256,3.91-0.758c2.612-1.045,4.663-3.049,5.772-5.638
					c1.109-2.593,1.143-5.456,0.097-8.068C244.901,345.072,241.056,342.468,236.72,342.468z"/>
			</g>
		</g>
		<g>
			<g>
				<path class="st1" d="M207.043,314.757l-49.602-123.949l-57.117-24.47l12.828-29.942l67.064,28.735l2.452,1.05l1.221,3.051
					l53.395,133.425l-5.338,0.445c-3.775,0.317-7.47,1.192-10.984,2.601c-3.516,1.401-6.792,3.32-9.744,5.696L207.043,314.757z
					 M110.73,162.173l52.849,22.644l46.959,117.34c2.368-1.498,4.872-2.775,7.48-3.816c2.608-1.045,5.3-1.846,8.043-2.395
					L177.558,174.74l-3.159-3.481l-57.083-24.458L110.73,162.173z"/>
			</g>
		</g>
		<g>
			<g>
				<path class="st1" d="M330.26,155.241l40.936,102.292l-102.292,40.932l-40.936-102.291l38.022-15.214l10.957,27.384
					l26.248-10.503l-10.959-27.386L330.26,155.241 M311.569,252.99l3.38-1.354l4.984,12.457l3.748-1.497l-4.984-12.459l3.382-1.354
					l-8.9-7L311.569,252.99 M298.423,258.249l3.382-1.354l4.984,12.456l3.748-1.493l-4.984-12.46l3.382-1.354l-8.9-7.002
					L298.423,258.249 M301.842,277.433l30.995-12.401l-1.384-3.463l-30.992,12.401L301.842,277.433 M334.673,144.937l-7.358,2.945
					l-38.024,15.216l-7.358,2.945l2.945,7.359l8.014,20.028l-11.532,4.612l-8.012-20.026l-2.945-7.358l-7.358,2.945l-38.022,15.214
					l-7.359,2.945l2.945,7.358l40.936,102.291l2.945,7.356l7.359-2.945l102.292-40.93l7.358-2.945l-2.945-7.358l-40.936-102.293
					L334.673,144.937L334.673,144.937z"/>
			</g>
		</g>
	</g>
</g>
</svg>
