<?xml version="1.0" encoding="utf-8"?>
<!-- Generator: Adobe Illustrator 19.2.1, SVG Export Plug-In . SVG Version: 6.00 Build 0)  -->
<svg version="1.1" id="Слой_1" xmlns="http://www.w3.org/2000/svg" xmlns:xlink="http://www.w3.org/1999/xlink" x="0px" y="0px"
	 viewBox="0 0 500 500" style="enable-background:new 0 0 500 500;" xml:space="preserve">
<style type="text/css">
	.st0{fill:#647882;}
</style>
<g>
	<path class="st0" d="M249.995,467.529c-3.297,0-6.382-1.759-8.069-4.593c-13.292-22.402-129.942-220.985-129.942-292.445
		c0-76.105,61.915-138.021,138.011-138.021c76.106,0,138.021,61.916,138.021,138.021c0,71.44-116.659,270.037-129.952,292.45
		C256.377,465.77,253.292,467.529,249.995,467.529z M249.995,51.23c-65.752,0-119.252,53.5-119.252,119.262
		c0,55.554,86.024,210.883,112.389,257.164l6.863,12.045l6.863-12.045c26.365-46.29,112.4-201.639,112.4-257.164
		C369.258,104.73,315.757,51.23,249.995,51.23z"/>
	<path class="st0" d="M249.995,246.414c-41.855,0-75.912-34.061-75.912-75.922c0-41.86,34.057-75.922,75.912-75.922
		c41.865,0,75.922,34.062,75.922,75.922C325.917,212.353,291.86,246.414,249.995,246.414z M249.995,113.328
		c-31.512,0-57.153,25.642-57.153,57.163c0,31.522,25.641,57.164,57.153,57.164c31.522,0,57.163-25.642,57.163-57.164
		C307.158,138.97,281.517,113.328,249.995,113.328z"/>
</g>
</svg>
