<?xml version="1.0" encoding="utf-8"?>
<!-- Generator: Adobe Illustrator 19.2.1, SVG Export Plug-In . SVG Version: 6.00 Build 0)  -->
<svg version="1.1" id="Слой_1" xmlns="http://www.w3.org/2000/svg" xmlns:xlink="http://www.w3.org/1999/xlink" x="0px" y="0px"
	 viewBox="0 0 350.963 340" style="enable-background:new 0 0 350.963 340;" xml:space="preserve">
<style type="text/css">
	.st0{fill:#647882;}
	.st1{fill:#FFFFFF;}
</style>
<g>
	<path class="st0" d="M337.605,170c0,87.205-71.35,158.555-158.555,158.555S20.495,257.205,20.495,170S91.845,11.445,179.05,11.445
		S337.605,82.795,337.605,170z"/>
</g>
<path class="st1" d="M204.873,169.977l-61.604-72.69c-0.88-1.038-0.875-2.559,0.005-3.597l2.097-2.472
	c1.054-1.255,3.184-1.244,4.243,0l65.217,76.961c0.875,1.038,0.875,2.559,0,3.597l-65.217,76.96
	c-0.532,0.625-1.304,0.983-2.124,0.983c-0.815,0-1.592-0.359-2.119-0.983l-2.097-2.472c-0.88-1.038-0.886-2.559-0.005-3.597
	L204.873,169.977z"/>
</svg>
