<?xml version="1.0" encoding="utf-8"?>
<!-- Generator: Adobe Illustrator 19.2.1, SVG Export Plug-In . SVG Version: 6.00 Build 0)  -->
<svg version="1.1" id="Слой_1" xmlns="http://www.w3.org/2000/svg" xmlns:xlink="http://www.w3.org/1999/xlink" x="0px" y="0px"
	 viewBox="0 0 500 500" style="enable-background:new 0 0 500 500;" xml:space="preserve">
<style type="text/css">
	.st0{fill:none;stroke:#FFFFFF;stroke-width:7.7993;stroke-miterlimit:10;}
	.st1{fill:#FFFFFF;}
</style>
<g>
	<circle class="st0" cx="250" cy="250" r="243.571"/>
	<g>
		<path class="st1" d="M132.64,287.294c-15.713,0-28.498-12.785-28.498-28.498v-92.524c0-15.713,12.785-28.498,28.498-28.498
			h179.549c15.713,0,28.498,12.785,28.498,28.498v34.631h-9.102v-18.748H113.244v76.641c0,10.697,8.699,19.396,19.396,19.396h3.807
			v9.102H132.64z M132.64,146.876c-10.697,0-19.396,8.699-19.396,19.396v6.782h218.341v-6.782c0-10.697-8.699-19.396-19.396-19.396
			H132.64z"/>
		<path class="st1" d="M189.527,375.011c-15.713,0-28.498-12.785-28.498-28.498v-92.527c0-15.712,12.785-28.498,28.498-28.498
			h179.549c15.713,0,28.498,12.785,28.498,28.498v92.527c0,15.712-12.785,28.498-28.498,28.498H189.527z M189.527,234.59
			c-10.697,0-19.396,8.699-19.396,19.396v92.527c0,10.697,8.699,19.396,19.396,19.396h179.549c10.697,0,19.396-8.699,19.396-19.396
			v-92.527c0-10.697-8.7-19.396-19.396-19.396H189.527z"/>
		<path class="st1" d="M201.982,338.756c-2.509,0-4.551-2.041-4.551-4.551c0-2.509,2.042-4.551,4.551-4.551h67.659
			c2.51,0,4.551,2.042,4.551,4.551c0,2.51-2.041,4.551-4.551,4.551H201.982z"/>
		<path class="st1" d="M201.982,306.003c-2.509,0-4.551-2.042-4.551-4.551c0-2.51,2.042-4.551,4.551-4.551h122.989
			c2.509,0,4.551,2.041,4.551,4.551c0,2.509-2.042,4.551-4.551,4.551H201.982z"/>
	</g>
</g>
</svg>
