<?xml version="1.0" encoding="utf-8"?>
<!-- Generator: Adobe Illustrator 19.2.1, SVG Export Plug-In . SVG Version: 6.00 Build 0)  -->
<svg version="1.1" id="Слой_1" xmlns="http://www.w3.org/2000/svg" xmlns:xlink="http://www.w3.org/1999/xlink" x="0px" y="0px"
	 viewBox="0 0 500 500" style="enable-background:new 0 0 500 500;" xml:space="preserve">
<style type="text/css">
	.st0{opacity:0.44;fill:#FFFFFF;stroke:#647882;stroke-width:16.483;stroke-miterlimit:10;}
	.st1{fill:#647882;}
</style>
<g>
	<circle class="st0" cx="250" cy="250" r="238.914"/>
	<path class="st1" d="M187.572,171.09h71.026c14.06,0,24.548,0.587,31.457,1.756c6.909,1.174,13.089,3.619,18.542,7.335
		s10.004,8.665,13.642,14.846c3.629,6.186,5.453,13.114,5.453,20.789c0,8.325-2.241,15.961-6.734,22.909
		c-4.483,6.952-10.567,12.163-18.242,15.636c10.829,3.153,19.154,8.529,24.975,16.121c5.812,7.597,8.723,16.529,8.723,26.79
		c0,8.078-1.873,15.937-5.637,23.573c-3.755,7.636-8.888,13.739-15.389,18.305c-6.511,4.565-14.525,7.374-24.063,8.422
		c-5.977,0.65-20.405,1.053-43.275,1.213h-60.479V171.09z M223.443,200.665v41.092h23.52c13.982,0,22.666-0.204,26.062-0.606
		c6.142-0.728,10.964-2.848,14.487-6.365c3.512-3.512,5.269-8.141,5.269-13.875c0-5.497-1.514-9.96-4.541-13.395
		c-3.037-3.435-7.539-5.516-13.516-6.244c-3.561-0.403-13.778-0.606-30.671-0.606H223.443z M223.443,271.332v47.515h33.213
		c12.934,0,21.133-0.364,24.607-1.092c5.337-0.97,9.674-3.333,13.031-7.093c3.357-3.755,5.036-8.786,5.036-15.088
		c0-5.332-1.3-9.858-3.881-13.574c-2.591-3.716-6.326-6.428-11.217-8.121c-4.89-1.698-15.496-2.547-31.816-2.547H223.443z"/>
</g>
</svg>
