<?xml version="1.0" encoding="utf-8"?>
<!-- Generator: Adobe Illustrator 23.0.3, SVG Export Plug-In . SVG Version: 6.00 Build 0)  -->
<svg version="1.1" id="Слой_1" xmlns="http://www.w3.org/2000/svg" xmlns:xlink="http://www.w3.org/1999/xlink" x="0px" y="0px"
	 viewBox="0 0 253.2813721 152.6018219" enable-background="new 0 0 253.2813721 152.6018219" xml:space="preserve">
<g>
	<path fill="#F7BECA" d="M235.9583588,90.5470352c0.9858551,18.3953323-11.8151703,31.6932983-29.4473572,38.633934
		c-23.2862701,9.1662445-50.3725739,12.9098816-75.3281555,14.0060577
		c-25.5651474,1.1229401-52.1129532-2.1697693-75.15625-13.3307953
		c-16.269146-7.8799667-32.4562225-20.9892197-34.7628593-38.6793594
		c-2.3649693-18.1375351,12.0262108-30.8504829,28.6543884-37.9432945
		c23.2944603-9.9363937,50.4346657-15.1722412,75.7300262-16.6566658
		c25.7285614-1.5098495,53.3449249,2.0470238,76.67836,13.0787315
		C219.668457,57.8546333,234.9516296,71.7626419,235.9583588,90.5470352z"/>
	<path fill="#CC869A" d="M235.0077972,84.0544586c-4.7915955,9.9516296-14.4151764,17.440712-26.2070923,22.0824356
		c-23.2863922,9.1662292-50.3726044,12.9098816-75.3282623,14.0060501
		c-25.5650635,1.122963-52.112999-2.1697845-75.1562042-13.33078
		c-14.5942879-7.0686646-29.1146317-18.3481216-33.6165543-33.3645782
		c-2.9143505,5.1771088-4.3019238,11.0879135-3.4359531,17.7292938
		c2.3065968,17.6901474,18.4938583,30.7993622,34.7628136,38.6793213
		c23.043438,11.1610565,49.5911369,14.4537964,75.156311,13.3308258
		c24.9555511-1.0961609,52.0418701-4.8398132,75.3281555-14.0060425
		c17.6321106-6.9406509,30.4331818-20.2386169,29.4473724-38.6339417
		C235.838562,88.3126068,235.5109711,86.1494827,235.0077972,84.0544586z"/>
	<path fill="#E49FB2" d="M183.8265991,94.095665c-5.7162933,2.0235977-11.6628571,3.5260468-17.6665955,4.7227249
		c-1.5010071,0.3054199-3.0092773,0.5686417-4.5174255,0.8436356c-1.5097046,0.2580948-3.0232544,0.5028229-4.5381927,0.7312927
		c-1.5141296,0.2412338-3.0327606,0.440567-4.5513916,0.6458282c-1.5191193,0.198082-3.0381165,0.3991241-4.559845,0.5677872
		c-1.5211182,0.1734161-3.0429993,0.3430252-4.5642853,0.5018845c-1.5218353,0.1611176-3.0440826,0.297821-4.5659485,0.4434052
		c-3.0626373,0.286644-6.1366425,0.4944153-9.2177582,0.6582947c-3.0824432,0.1537857-6.1735153,0.2149429-9.2695923,0.2271194
		c-3.096138-0.0003052-6.1976776-0.1030579-9.2990646-0.2793427c-3.0999374-0.1972656-6.1991119-0.4845276-9.2874985-0.8839722
		c-3.0780258-0.4128342-6.1820831-0.9535522-9.1685715-1.5737381c-3.0092621-0.6242294-6.0220642-1.2925415-9.0018158-2.0993271
		c-1.4909592-0.3992233-2.9763031-0.8233032-4.4526367-1.275177l-2.2037201-0.7119675l-2.1875381-0.7576904l-2.1661301-0.8125839
		c-0.7176056-0.2808456-1.4270401-0.582283-2.1397247-0.8723221c-1.4156265-0.6044388-2.8239746-1.2229538-4.1939087-1.9130707
		c-0.3431091-0.1710129-0.6914215-0.3309326-1.0295258-0.5109177l-1.014801-0.537117l-1.0131683-0.5367661
		c-0.3336601-0.1857452-0.661644-0.3809891-0.9914856-0.5722198c-0.6578407-0.3855286-1.3216248-0.7588348-1.9576263-1.1752167
		l-0.9620438-0.6091919c-0.3216438-0.2022018-0.6415405-0.4046021-0.9479599-0.6178818
		c-2.4866982-1.6728897-4.9030991-3.4436646-7.1754227-5.3584824c-2.2743874-1.9089737-4.4001007-3.9761734-6.2317772-6.2253189
		c4.5701675,3.7368088,9.6609688,6.7355499,14.9023361,9.4816971c5.2045555,2.7176743,10.7080116,4.8304901,16.392849,6.4792328
		l2.1386337,0.5992813l2.1547318,0.5556793l2.1649551,0.5278244c0.7214813,0.1756592,1.4522476,0.3281631,2.17733,0.4934311
		c2.9137268,0.6260223,5.8474426,1.2023468,8.8093872,1.7077484l2.2239532,0.3785172
		c0.7441254,0.1312485,1.4685059,0.2350082,2.2033691,0.3540878c1.4670181,0.2218857,2.9394073,0.4200287,4.4176788,0.5876083
		c2.9532471,0.3559418,5.9262314,0.6127853,8.9101486,0.7872467c2.9827347,0.193306,5.9775314,0.2998352,8.979126,0.3378143
		c3.001442,0.0572968,6.0085602,0.0264282,9.0199738-0.0204926c3.0119781-0.0581284,6.0256195-0.1802444,9.0441437-0.3060989
		l4.5516357-0.2232437c1.5174561-0.068634,3.0323944-0.147728,4.5472107-0.2305984
		C159.7105713,96.9832382,171.7672272,96.0528793,183.8265991,94.095665z"/>
	<path fill="#E49FB2" d="M168.3320313,42.5116348c-13.1882629-2.3531952-27.1764679-3.2532921-41.4437027-2.4188347
		c-16.747139,0.9795113-29.7559814,2.0044212-49.4183807,7.0043716c-7.7915115,1.9813004-16.4823799,4.621994-21.6405869,7.0104065
		c-13.7177544,6.3517494-5.5389214,15.0829811,9.9527817,23.549633c9.526001,5.2062302,20.5627136,7.8929596,32.4848404,10.0202332
		c12.1386261,2.1659088,25.7373047,2.5177536,39.6358337,1.8727188c15.5199585-0.7202377,29.8433685-1.7956467,42.6463318-4.5704346
		c16.426712-3.5601654,57.4261169-16.5700607,21.9395142-33.0646973
		C192.4036713,47.2273979,180.5606232,44.6935959,168.3320313,42.5116348z"/>
	<path fill="#FCE7EE" d="M166.8806915,42.2361298c-11.6841431-2.084816-24.1078186-2.7378006-36.8131104-1.6925354
		c-14.9136887,1.226963-26.5034485,2.4378738-44.0875244,7.6377754c-6.9679413,2.0605354-14.7484894,4.7794724-19.3822403,7.1950073
		c-12.3230171,6.4238777-5.217247,14.817585,8.3976517,22.8348274c8.3719406,4.9298782,18.1360931,7.3751297,28.6985168,9.2597961
		c10.7542419,1.9188919,22.842041,2.0428162,35.215744,1.1884689c13.8172455-0.9539642,26.5771637-2.2354279,38.0175629-5.1517258
		c14.6784821-3.7417221,51.3940887-17.1077423,20.1507111-32.6411438
		C188.1988983,46.4521484,177.7146454,44.1692429,166.8806915,42.2361298z"/>
	<path fill="#B46C83" d="M212.7798157,123.0851593c-24.3036652,9.2555847-52.5600128,13.0639801-78.5891571,14.2065277
		c-26.6648636,1.1704407-54.3461227-2.0981903-78.3573074-13.2852783
		c-14.6124763-6.8081207-29.1526394-17.5241318-34.4074783-31.7436447
		c2.8131161,17.1409988,18.6664715,29.8757095,34.6007233,37.5934677
		c23.0432968,11.161026,49.5911026,14.4537354,75.15625,13.3307953
		c24.9555817-1.0961761,52.0418854-4.8398132,75.3281555-14.0060577
		c8.1128387-3.1934967,15.2012634-7.7339096,20.3961639-13.4964523
		C222.7342987,118.6375656,217.9558868,121.1139526,212.7798157,123.0851593z"/>
	<g>
		<path fill="#E1EFFB" d="M175.3749847,67.5115433c0.4693756,0.8636627,0.6479492,1.8681107,0.430603,2.8880081
			c-0.5249329,2.4632416-3.132782,4.0707016-5.8247528,3.5903702c-1.1146088-0.1988831-2.0648193-0.7276917-2.7631683-1.4502411
			c0.6642456,1.2222672,1.9157867,2.1603775,3.4931793,2.4418335c2.6919556,0.4803314,5.2998199-1.1271286,5.8247528-3.5903702
			C176.8431854,69.9477921,176.363327,68.5340576,175.3749847,67.5115433z"/>
		<g>
			<path fill="#B0D5E9" d="M170.6666412,75.1889572c-2.8127289-0.5018768-4.6547699-3.0039749-4.1062927-5.5777054
				c0.5484924-2.5737305,3.2829437-4.2592468,6.0956726-3.75737s4.6547699,3.0039825,4.1062927,5.577713
				C176.2138214,74.0053253,173.4793701,75.6908417,170.6666412,75.1889572z M172.5676117,66.2687759
				c-2.5626678-0.4572601-5.0541229,1.0784683-5.553833,3.423378c-0.4997253,2.3449097,1.1786194,4.6246567,3.741272,5.0819168
				c2.5626678,0.4572525,5.0541229-1.0784683,5.553833-3.423378
				C176.808609,69.0057755,175.1302643,66.7260361,172.5676117,66.2687759z"/>
		</g>
		<g>
			<path fill="#E1EFFB" d="M169.7377472,68.4413757l-0.6362-1.04142c-0.8182526,0.5599213-1.4237213,1.3847351-1.6343536,2.3731003
				c-0.1999664,0.9383469-0.0120239,1.8643417,0.4591064,2.6412735c-0.1003418-0.476738-0.1076355-0.977684-0.0000153-1.4826813
				C168.1518707,69.8731079,168.8295898,69.0006638,169.7377472,68.4413757z"/>
			<path fill="#E1EFFB" d="M170.1339569,68.2237473c0.713028-0.3438644,1.5337982-0.509079,2.3793488-0.4370651
				l-0.1588745-1.1193314c-1.0260315-0.1546478-2.0314331,0.0435944-2.8679047,0.496521L170.1339569,68.2237473z"/>
		</g>
	</g>
	<path fill="#E49FB2" d="M220.0927277,103.7580643c6.2551117-5.4875412,11.0739441-12.00354,15.0620117-19.0269928
		c-0.0497589-0.2252731-0.0931854-0.4529037-0.1469421-0.6766129c-4.7915955,9.9516296-14.4151764,17.440712-26.2070923,22.0824356
		c-23.2863922,9.1662292-50.3726044,12.9098816-75.3282623,14.0060501
		c-25.5650635,1.122963-52.112999-2.1697845-75.1562042-13.33078
		c-14.5942879-7.0686646-29.1146317-18.3481216-33.6165543-33.3645782
		c-2.9143505,5.1771088-4.3019238,11.0879135-3.4359531,17.7292938c0.1457767,1.1178055,0.3476563,2.21698,0.6007099,3.2980576
		c0.2133827,0.2311783,0.4117432,0.4636383,0.6293507,0.6944427c12.9334717,13.7148895,30.7496223,23.3723526,49.6221275,28.5333481
		c28.1693115,7.7033997,58.3740997,6.334549,87.4326172,2.2440491
		C181.3872681,122.8725891,204.1433868,117.7502594,220.0927277,103.7580643z"/>
	<g>
		<path fill="none" d="M50.0633354,115.2842712l0.0326309,0.0308762l0.0413132,0.0062866
			C50.1126328,115.309082,50.0879822,115.2966232,50.0633354,115.2842712z"/>
		<g>
			<path fill="#F9CCDA" d="M21.0362663,87.801712c-0.077467-4.6078949,0.9352207-8.8411255,2.7943954-12.6886368
				c-1.8610535,3.8426208-2.893692,8.0639877-2.8169308,12.6672592L21.0362663,87.801712z"/>
			<path fill="#F9CCDA" d="M58.3162422,106.8121643c23.0432014,11.1609955,49.5911369,14.453743,75.1562042,13.33078
				c24.955658-1.0961685,52.0418701-4.8398209,75.3282623-14.0060501
				c11.7919159-4.6417236,21.4154968-12.1307526,26.2070923-22.0823822
				c-1.0665588-4.4406204-2.9455719-8.5656509-5.4466553-12.3603745
				c-2.3334808,8.1159668-7.380249,15.5896988-14.4030914,20.9984665
				c-8.7641754,6.7498016-19.9984436,10.1472015-31.1160583,12.6737061
				c-42.2909393,9.6106415-91.1171646,11.5321655-130.4434052-7.8221283
				c-11.6181984-5.7179642-22.7091599-13.6953964-28.8817616-24.127739
				c-0.0058689,0.0103607-0.0112686,0.0208817-0.0171356,0.0311966
				C29.2016106,88.4640961,43.7219543,99.7434998,58.3162422,106.8121643z"/>
			<path fill="#F9CCDA" d="M23.8663425,75.0396118c0.2615051-0.5373688,0.538269-1.0677567,0.8324032-1.5899887
				C24.4046116,73.9718552,24.1283169,74.5023499,23.8663425,75.0396118z"/>
		</g>
	</g>
	<path fill="#FAD6E1" d="M165.2772217,43.4442291c-9.6931915-1.7295647-20.0251007-2.1528664-30.618866-1.0349045
		c-12.4351501,1.3122978-22.1029358,2.565155-36.8252335,7.5103226c-5.8339233,1.9595947-12.3549423,4.5262337-16.2514267,6.7756767
		c-10.3623276,5.9821815-4.5823669,13.4851799,6.6223907,20.5594215c6.8899155,4.3500137,14.97892,6.4318314,23.7415085,7.9953461
		c8.92173,1.5919113,18.9825668,1.5407867,29.2972183,0.6001511c11.5179749-1.0503387,22.161026-2.3828735,31.7319946-5.1776352
		c12.2799225-3.5857925,43.0606079-16.1824188,17.3017883-29.8230209
		C182.9561615,46.9730492,174.2650757,45.0479393,165.2772217,43.4442291z"/>
	<g>
		<ellipse opacity="0.18" fill="#FFFFFF" cx="132.688797" cy="82.7302322" rx="6.5858564" ry="6.0262461"/>
		<g>
			<path fill="#C6E1F7" d="M137.8539734,78.5439072c0.652832,1.2012405,0.9012146,2.5982819,0.5989075,4.0168152
				c-0.7301178,3.426033-4.3572693,5.6617813-8.1014099,4.9937057c-1.5502777-0.276619-2.8718796-1.0121155-3.8431854-2.0170746
				c0.9238663,1.7000046,2.6645813,3.004776,4.8585205,3.3962479c3.7441406,0.6680679,7.3712921-1.5676804,8.1014099-4.9937134
				C139.8960419,81.9323959,139.2286072,79.9660873,137.8539734,78.5439072z"/>
			<g>
				<path fill="#A2CCEE" d="M131.3053131,89.2221298c-3.912117-0.6980438-6.4741287-4.1781235-5.7112656-7.7578201
					c0.7628632-3.5797043,4.5661087-5.9240189,8.4782333-5.225975c3.9121094,0.6980438,6.4741211,4.1781158,5.7112579,7.7578201
					C139.0206757,87.5758514,135.2174377,89.9201736,131.3053131,89.2221298z M133.949295,76.8153915
					c-3.5643005-0.6359863-7.0295639,1.5-7.7246017,4.7614441c-0.6950455,3.2614441,1.6392899,6.432251,5.2036057,7.0682373
					c3.5643005,0.6359787,7.0295563-1.5,7.7245941-4.7614441C139.8479462,80.6221848,137.5136108,77.4513779,133.949295,76.8153915z
					"/>
			</g>
			<g>
				<path fill="#C6E1F7" d="M130.0133514,79.8371811l-0.8848572-1.4484787
					c-1.1380768,0.7787704-1.9802017,1.925972-2.2731552,3.3006592c-0.2781296,1.3051071-0.0167236,2.5930328,0.6385574,3.673645
					c-0.1395798-0.6630783-0.1497192-1.3598251-0.0000305-2.0622101
					C127.8076172,81.8285141,128.7502441,80.6150665,130.0133514,79.8371811z"/>
				<path fill="#C6E1F7" d="M130.5644226,79.5344772c0.9917297-0.4782562,2.133316-0.7080536,3.3093414-0.6078949
					l-0.2209625-1.5568314c-1.427063-0.2150955-2.8254395,0.0606308-3.9888611,0.6905975L130.5644226,79.5344772z"/>
			</g>
		</g>
	</g>
	<g>
		<ellipse opacity="0.18" fill="#FFFFFF" cx="144.3217621" cy="83.7977676" rx="4.3870993" ry="4.0143209"/>
		<g>
			<path fill="#C6E1F7" d="M147.7624817,81.0090866c0.4348755,0.8001938,0.6003418,1.7308197,0.3989563,2.6757584
				c-0.4863586,2.2822189-2.9025421,3.7715378-5.3966675,3.3265076c-1.0326996-0.1842651-1.9130707-0.6742096-2.5600891-1.3436508
				c0.6154175,1.1324387,1.7749786,2.0016022,3.2364502,2.2623749c2.4941101,0.4450226,4.9103088-1.0442963,5.3966675-3.3265076
				C149.1227875,83.2662964,148.6781921,81.956459,147.7624817,81.0090866z"/>
			<g>
				<path fill="#A2CCEE" d="M143.4001617,88.1222763c-2.6060181-0.4649963-4.3126678-2.7832108-3.8045044-5.1677933
					c0.5081787-2.3845825,3.0416718-3.9462204,5.6476898-3.4812241c2.6060181,0.4649887,4.3126831,2.7832108,3.8045044,5.1677856
					C148.5396729,87.0256271,146.0061798,88.587265,143.4001617,88.1222763z M145.1614227,79.8576584
					c-2.3743286-0.4236526-4.682663,0.9992065-5.1456604,3.1717834s1.0919952,4.2847748,3.4663239,4.7084274
					c2.3743286,0.4236603,4.682663-0.9992065,5.1456604-3.1717834S147.5357513,80.281311,145.1614227,79.8576584z"/>
			</g>
			<g>
				<path fill="#C6E1F7" d="M142.5395355,81.8705902l-0.5894318-0.9648895
					c-0.7581177,0.5187683-1.3190918,1.2829666-1.5142517,2.1987c-0.1852722,0.8693848-0.0111389,1.7273254,0.4253693,2.4471588
					c-0.0929718-0.4417038-0.0997314-0.9058304-0.0000153-1.3737183
					C141.0702057,83.1970978,141.6981354,82.3887711,142.5395355,81.8705902z"/>
				<path fill="#C6E1F7" d="M142.9066315,81.6689529c0.6606293-0.3185883,1.4210815-0.4716644,2.204483-0.4049454
					l-0.1472015-1.0370712c-0.9506226-0.14328-1.8821259,0.04039-2.657135,0.4600372L142.9066315,81.6689529z"/>
			</g>
		</g>
	</g>
	<g>
		<ellipse opacity="0.18" fill="#FFFFFF" cx="153.1908417" cy="74.2446213" rx="3.4842126" ry="3.188154"/>
		<g>
			<path fill="#C6E1F7" d="M155.9234467,72.0298691c0.3453827,0.6355057,0.4767761,1.3746033,0.3168488,2.1250687
				c-0.386261,1.8125305-2.305191,2.9953384-4.2860107,2.6418991c-0.8201599-0.146347-1.5193481-0.5354538-2.0332184-1.0671234
				c0.4887695,0.8993759,1.4096832,1.5896606,2.5703735,1.7967606c1.9808197,0.353447,3.8997498-0.8293686,4.2860107-2.6418915
				C157.0037842,73.822525,156.6506958,72.7822647,155.9234467,72.0298691z"/>
			<g>
				<path fill="#A2CCEE" d="M152.4589081,77.6791229c-2.0696716-0.3692932-3.4250946-2.2104111-3.0215149-4.1042328
					c0.403595-1.8938217,2.4156799-3.1340714,4.4853668-2.7647781c2.0696869,0.3693008,3.4251099,2.2104111,3.0215149,4.1042328
					S154.528595,78.0484161,152.4589081,77.6791229z M153.8576965,71.1154022
					c-1.8856812-0.3364639-3.7189484,0.7935715-4.0866547,2.5190201s0.8672485,3.4029465,2.7529297,3.7394104
					s3.7189636-0.7935638,4.0866699-2.5190125C156.9783478,73.129364,155.7433777,71.4518661,153.8576965,71.1154022z"/>
			</g>
			<g>
				<path fill="#C6E1F7" d="M151.7754059,72.7140656l-0.4681244-0.7663116
					c-0.6020966,0.4120102-1.0476227,1.0189285-1.2026062,1.7462006c-0.1471405,0.6904602-0.0088501,1.3718338,0.3378296,1.9435196
					c-0.0738525-0.3507996-0.0792084-0.7194061-0.0000153-1.0910034
					C150.6084747,73.7675705,151.1071625,73.1256027,151.7754059,72.7140656z"/>
				<path fill="#C6E1F7" d="M152.0669556,72.5539246c0.5246582-0.2530212,1.1286163-0.3745956,1.7507782-0.3216019
					l-0.1168976-0.8236389c-0.7549744-0.1137924-1.4947815,0.0320816-2.1102753,0.3653564L152.0669556,72.5539246z"/>
			</g>
		</g>
	</g>
	<g>
		<ellipse opacity="0.18" fill="#FFFFFF" cx="243.3080292" cy="71.4896317" rx="3.4842126" ry="3.188154"/>
		<g>
			<path fill="#C6E1F7" d="M246.0406494,69.2748718c0.3453674,0.6355133,0.4767761,1.3746109,0.3168488,2.1250763
				c-0.386261,1.8125305-2.305191,2.9953384-4.2860107,2.6418991c-0.8201752-0.146347-1.5193634-0.5354538-2.0332184-1.0671234
				c0.4887695,0.8993759,1.4096832,1.5896606,2.5703735,1.7967606c1.9808197,0.3534393,3.8997498-0.8293686,4.2860107-2.6418915
				C247.1209869,71.0675354,246.7678833,70.0272751,246.0406494,69.2748718z"/>
			<g>
				<path fill="#A2CCEE" d="M242.5761108,74.9241333c-2.0696869-0.3693008-3.4251099-2.2104111-3.0215149-4.1042328
					s2.4156799-3.1340714,4.4853668-2.7647781c2.0696869,0.3693008,3.4250946,2.2104111,3.0215149,4.1042328
					C246.6578827,74.0531769,244.6457977,75.2934265,242.5761108,74.9241333z M243.9748993,68.3604126
					c-1.8856812-0.3364639-3.7189636,0.7935638-4.0866699,2.5190201c-0.3677063,1.7254486,0.8672638,3.4029465,2.7529449,3.7394104
					s3.7189484-0.7935638,4.0866547-2.5190201C247.0955353,70.3743744,245.8605804,68.6968765,243.9748993,68.3604126z"/>
			</g>
			<g>
				<path fill="#C6E1F7" d="M241.8926086,69.9590759l-0.4681396-0.7663116
					c-0.6020813,0.4120102-1.0476074,1.0189285-1.2025909,1.7462006c-0.1471405,0.6904602-0.0088501,1.3718262,0.3378143,1.9435196
					c-0.0738373-0.3507996-0.0791931-0.7194061-0.0000153-1.0910034
					C240.7256775,71.0125809,241.2243652,70.3706131,241.8926086,69.9590759z"/>
				<path fill="#C6E1F7" d="M242.1841431,69.7989349c0.5246735-0.2530212,1.1286163-0.3745956,1.7507935-0.3216019
					l-0.1168976-0.8236389c-0.7549896-0.1137924-1.4947815,0.0320816-2.1102905,0.3653564L242.1841431,69.7989349z"/>
			</g>
		</g>
	</g>
	<g>
		<ellipse opacity="0.18" fill="#FFFFFF" cx="170.9999084" cy="32.8850021" rx="6.5858564" ry="6.0262461"/>
		<g>
			<path fill="#C6E1F7" d="M176.1651001,28.6986752c0.6528168,1.2012405,0.9011993,2.5982819,0.5989075,4.0168171
				c-0.7301178,3.426033-4.3572845,5.6617813-8.1014252,4.9937096c-1.5502777-0.276619-2.8718719-1.0121193-3.8431854-2.0170784
				c0.9238739,1.7000046,2.6645813,3.0047798,4.8585205,3.396244c3.7441406,0.6680717,7.3713074-1.5676765,8.1014252-4.9937057
				C178.2071533,32.087162,177.5397339,30.1208591,176.1651001,28.6986752z"/>
			<g>
				<path fill="#A2CCEE" d="M169.6164398,39.3768959c-3.9121246-0.69804-6.4741364-4.1781158-5.7112732-7.7578182
					s4.5661011-5.924017,8.4782257-5.2259731s6.4741364,4.1781178,5.7112732,7.7578201
					S173.5285492,40.0749397,169.6164398,39.3768959z M172.2604218,26.9701614
					c-3.5643158-0.6359825-7.0295715,1.4999981-7.7246094,4.7614441c-0.6950531,3.2614441,1.6392822,6.432251,5.203598,7.0682335
					s7.0295563-1.4999962,7.7246094-4.7614403C178.1590576,30.7769508,175.8247223,27.6061459,172.2604218,26.9701614z"/>
			</g>
			<g>
				<path fill="#C6E1F7" d="M168.3244629,29.9919491l-0.8848572-1.4484749
					c-1.1380615,0.7787704-1.9801941,1.925972-2.2731476,3.3006573c-0.2781372,1.3051071-0.0167236,2.5930367,0.6385498,3.673645
					c-0.1395721-0.6630783-0.1497192-1.3598213-0.0000305-2.0622139
					C166.1187286,31.9832821,167.0613708,30.7698345,168.3244629,29.9919491z"/>
				<path fill="#C6E1F7" d="M168.8755493,29.6892509c0.9917145-0.4782581,2.1333008-0.7080574,3.3093262-0.6078968
					l-0.2209625-1.5568333c-1.427063-0.2150936-2.8254395,0.0606327-3.9888458,0.6905975L168.8755493,29.6892509z"/>
			</g>
		</g>
	</g>
	<g>
		<ellipse opacity="0.18" fill="#FFFFFF" cx="129.6639404" cy="21.8305149" rx="6.5858564" ry="6.0262461"/>
		<g>
			<path fill="#C6E1F7" d="M134.8291321,17.6441898c0.6528168,1.2012386,0.9011993,2.5982819,0.5989075,4.0168171
				c-0.7301178,3.4260311-4.3572845,5.6617794-8.1014252,4.9937077c-1.5502777-0.276619-2.8718796-1.0121174-3.8431778-2.0170784
				c0.9238663,1.7000046,2.6645813,3.0047798,4.8585129,3.396246c3.7441406,0.6680717,7.3713074-1.5676765,8.1014252-4.9937077
				C136.8711853,21.0326767,136.2037659,19.0663719,134.8291321,17.6441898z"/>
			<g>
				<path fill="#A2CCEE" d="M128.2804718,28.3224106c-3.9121246-0.6980419-6.474144-4.1781178-5.7112732-7.7578182
					c0.7628632-3.5797005,4.5661087-5.924017,8.4782257-5.2259741c3.9121246,0.6980429,6.4741364,4.1781187,5.7112732,7.7578192
					S132.1925812,29.0204544,128.2804718,28.3224106z M130.9244537,15.9156752
					c-3.5643158-0.6359825-7.0295715,1.4999971-7.7246094,4.7614431c-0.6950455,3.261446,1.6392899,6.4322529,5.203598,7.0682354
					c3.5643158,0.6359825,7.0295563-1.4999981,7.7246094-4.7614422
					C136.8230896,19.7224655,134.4887543,16.5516586,130.9244537,15.9156752z"/>
			</g>
			<g>
				<path fill="#C6E1F7" d="M126.9884949,18.9374619l-0.8848572-1.4484749
					c-1.1380692,0.7787724-1.9801941,1.925972-2.2731552,3.3006573c-0.2781296,1.3051071-0.016716,2.5930386,0.6385574,3.6736469
					c-0.1395721-0.6630783-0.1497116-1.3598213-0.0000305-2.062212
					C124.7827682,20.9287968,125.7253952,19.7153492,126.9884949,18.9374619z"/>
				<path fill="#C6E1F7" d="M127.5395813,18.6347637c0.9917145-0.4782562,2.1333008-0.7080555,3.3093262-0.6078949
					l-0.2209625-1.5568352c-1.427063-0.2150936-2.8254395,0.0606346-3.9888535,0.6905994L127.5395813,18.6347637z"/>
			</g>
		</g>
	</g>
	<g>
		<ellipse opacity="0.18" fill="#FFFFFF" cx="59.6485901" cy="42.1504211" rx="4.2767272" ry="3.9133272"/>
		<g>
			<path fill="#C6E1F7" d="M63.0027618,39.4319038c0.4239311,0.7800598,0.585228,1.6872749,0.388916,2.6084442
				c-0.4741211,2.2247963-2.8295288,3.6766472-5.2609024,3.2428169c-1.0067215-0.1796303-1.8649445-0.6572495-2.4956894-1.3098526
				c0.5999451,1.1039505,1.7303314,1.9512444,3.1550293,2.2054558c2.4313736,0.4338341,4.7867813-1.0180168,5.2609024-3.2428169
				C64.3288345,41.6323204,63.8954201,40.355442,63.0027618,39.4319038z"/>
			<g>
				<path fill="#A2CCEE" d="M58.7501869,46.3661346c-2.5404549-0.4532967-4.2041779-2.713192-3.708786-5.0377769
					c0.495388-2.3245888,2.9651413-3.8469429,5.5055962-3.3936462c2.540451,0.4532928,4.2041779,2.7131882,3.708786,5.0377769
					C63.7603951,45.2970772,61.2906418,46.8194275,58.7501869,46.3661346z M60.4671364,38.3094406
					c-2.3145943-0.4129944-4.5648613,0.9740677-5.0162086,3.0919876s1.0645256,4.1769791,3.3791161,4.5899734
					c2.3145943,0.4129982,4.5648651-0.9740677,5.0162125-3.0919876
					C64.2975998,40.7814941,62.7817307,38.722435,60.4671364,38.3094406z"/>
			</g>
			<g>
				<path fill="#C6E1F7" d="M57.9112091,40.2717285l-0.5746117-0.940609
					c-0.7390404,0.5057182-1.2859001,1.2506866-1.4761429,2.143383c-0.1806107,0.8475113-0.0108566,1.6838684,0.414669,2.3855934
					c-0.0906372-0.4305916-0.0972252-0.8830414-0.0000191-1.3391609
					C56.4788513,41.5648651,57.0909729,40.7768745,57.9112091,40.2717285z"/>
				<path fill="#C6E1F7" d="M58.2690697,40.0751648c0.6440048-0.3105736,1.3853264-0.4598007,2.1490173-0.3947563
					l-0.1434898-1.0109787c-0.9267082-0.139679-1.8347855,0.0393753-2.5902863,0.4484634L58.2690697,40.0751648z"/>
			</g>
		</g>
	</g>
	<g>
		<ellipse opacity="0.18" fill="#FFFFFF" cx="42.081295" cy="81.7201157" rx="4.9588013" ry="4.5374446"/>
		<g>
			<path fill="#C6E1F7" d="M45.9704018,78.5680313c0.4915428,0.9044724,0.678566,1.9563751,0.4509468,3.0244522
				c-0.5497398,2.5796204-3.2807961,4.2630234-6.0999374,3.7600021c-1.1672821-0.2082825-2.1623764-0.7620697-2.8937149-1.5187531
				c0.6956253,1.280014,2.0062904,2.2624359,3.6582108,2.5571899c2.8191376,0.5030212,5.5501976-1.1803741,6.0999374-3.7599945
				C47.5079651,81.1193848,47.0054321,79.6388626,45.9704018,78.5680313z"/>
			<g>
				<path fill="#A2CCEE" d="M41.039608,86.6081696c-2.9456177-0.525589-4.8746796-3.1459045-4.3002815-5.8412247
					c0.5743942-2.6953278,3.4380341-4.4604721,6.3836555-3.9348831c2.9456177,0.525589,4.8746796,3.1459045,4.3002815,5.8412247
					C46.8488655,85.3686142,43.9852257,87.1337585,41.039608,86.6081696z M43.0303879,77.2665558
					c-2.6837387-0.4788589-5.2928925,1.1294174-5.8162231,3.5851135c-0.5233269,2.4556961,1.2343025,4.8431473,3.9180374,5.3220062
					c2.6837387,0.4788666,5.2928886-1.1294174,5.8162193-3.5851135S45.7141228,77.7454147,43.0303879,77.2665558z"/>
			</g>
			<g>
				<path fill="#C6E1F7" d="M40.0668259,79.5418015l-0.6662521-1.0906219
					c-0.8569069,0.5863724-1.4909859,1.4501495-1.7115669,2.4852142c-0.2094154,0.9826813-0.0125885,1.9524231,0.4808006,2.7660599
					c-0.1050911-0.4992599-0.1127281-1.0238724-0.0000229-1.5527344
					C38.4060249,81.0411682,39.1157761,80.1275101,40.0668259,79.5418015z"/>
				<path fill="#C6E1F7" d="M40.4817581,79.3138885c0.7467155-0.3601074,1.606266-0.5331345,2.4917564-0.4577179
					L42.8071404,77.68396c-1.0745087-0.1619568-2.1274109,0.0456543-3.0033989,0.5199814L40.4817581,79.3138885z"/>
			</g>
		</g>
	</g>
	<g>
		<ellipse opacity="0.18" fill="#FFFFFF" cx="10.5518513" cy="67.5115433" rx="4.9588013" ry="4.5374446"/>
		<g>
			<path fill="#C6E1F7" d="M14.4409599,64.3594589c0.4915419,0.9044724,0.6785631,1.9563675,0.4509459,3.0244522
				c-0.5497398,2.5796204-3.280797,4.2630157-6.0999384,3.7599945c-1.1672807-0.2082748-2.162374-0.7620697-2.8937135-1.5187531
				c0.6956248,1.280014,2.00629,2.2624435,3.6582084,2.5571976c2.8191404,0.5030212,5.5501986-1.1803818,6.0999374-3.7600021
				C15.9785223,66.9108124,15.4759874,65.4302902,14.4409599,64.3594589z"/>
			<g>
				<path fill="#A2CCEE" d="M9.5101652,72.3995972c-2.9456191-0.525589-4.8746805-3.1459045-4.3002834-5.8412323
					c0.5743966-2.6953201,3.4380369-4.4604683,6.3836555-3.9348793s4.8746805,3.1459007,4.3002834,5.8412285
					S12.4557838,72.9251862,9.5101652,72.3995972z M11.5009432,63.0579796
					c-2.6837368-0.4788628-5.2928901,1.1294212-5.8162198,3.5851173s1.2342992,4.8431396,3.918036,5.3220062
					c2.6837368,0.4788589,5.2928896-1.1294174,5.8162203-3.5851135
					C15.9423094,65.9242935,14.18468,63.5368423,11.5009432,63.0579796z"/>
			</g>
			<g>
				<path fill="#C6E1F7" d="M8.5373812,65.3332214l-0.6662507-1.0906219
					c-0.8569069,0.5863724-1.490984,1.4501572-1.7115655,2.4852219c-0.2094164,0.9826736-0.0125895,1.9524231,0.4808002,2.7660599
					c-0.1050935-0.4992599-0.1127286-1.0238724-0.0000234-1.5527344
					C6.8765836,66.8325958,7.5863323,65.9189301,8.5373812,65.3332214z"/>
				<path fill="#C6E1F7" d="M8.9523153,65.1053085c0.7467136-0.3600998,1.606267-0.5331268,2.4917555-0.4577103
					l-0.1663752-1.1722145c-1.0745058-0.1619568-2.127408,0.0456543-3.0033979,0.5199814L8.9523153,65.1053085z"/>
			</g>
		</g>
	</g>
	<g>
		<ellipse opacity="0.18" fill="#FFFFFF" cx="76.8411407" cy="37.1343002" rx="4.9588013" ry="4.5374446"/>
		<g>
			<path fill="#C6E1F7" d="M80.7302475,33.9822197c0.4915466,0.9044724,0.678566,1.9563713,0.4509506,3.0244522
				c-0.5497437,2.5796204-3.2807999,4.2630196-6.0999374,3.7599983c-1.1672821-0.2082787-2.1623764-0.7620735-2.8937149-1.5187531
				c0.6956253,1.280014,2.0062866,2.2624397,3.6582031,2.5571938c2.8191452,0.5030212,5.5502014-1.180378,6.0999451-3.7599983
				C82.2678146,36.5335732,81.7652817,35.0530472,80.7302475,33.9822197z"/>
			<g>
				<path fill="#A2CCEE" d="M75.7994537,42.0223579c-2.9456177-0.5255928-4.8746796-3.1459045-4.3002853-5.8412285
					c0.5744019-2.6953239,3.4380417-4.4604721,6.3836594-3.9348831s4.8746796,3.1459045,4.3002853,5.8412285
					C81.6087112,40.7827988,78.7450714,42.5479469,75.7994537,42.0223579z M77.7902374,32.6807404
					c-2.6837387-0.4788628-5.2928925,1.1294212-5.8162231,3.5851135c-0.5233307,2.4556961,1.2342987,4.8431473,3.9180374,5.32201
					c2.6837311,0.4788589,5.2928848-1.1294212,5.8162155-3.5851173
					C82.2315979,35.5470543,80.4739685,33.1596031,77.7902374,32.6807404z"/>
			</g>
			<g>
				<path fill="#C6E1F7" d="M74.8266678,34.955986l-0.6662445-1.0906258
					c-0.8569107,0.5863762-1.4909897,1.4501572-1.7115707,2.4852219c-0.2094116,0.9826775-0.0125885,1.9524193,0.4808044,2.7660599
					c-0.1050949-0.4992638-0.1127319-1.0238724-0.0000229-1.5527344
					C73.1658707,36.4553566,73.8756256,35.5416946,74.8266678,34.955986z"/>
				<path fill="#C6E1F7" d="M75.2416077,34.7280693c0.7467117-0.3600998,1.6062622-0.5331268,2.4917526-0.4577103
					l-0.1663742-1.1722145c-1.0745087-0.161953-2.1274109,0.0456543-3.0033951,0.5199852L75.2416077,34.7280693z"/>
			</g>
		</g>
	</g>
	<g>
		<ellipse opacity="0.18" fill="#FFFFFF" cx="113.5017166" cy="31.7024555" rx="4.9588013" ry="4.5374446"/>
		<g>
			<path fill="#C6E1F7" d="M117.3908234,28.5503731c0.4915466,0.9044704,0.678566,1.9563694,0.4509506,3.0244522
				c-0.5497437,2.5796204-3.2807999,4.2630196-6.0999374,3.7599983c-1.1672821-0.2082787-2.1623764-0.7620735-2.8937149-1.5187531
				c0.6956253,1.280014,2.0062866,2.2624397,3.6582108,2.5571938c2.8191376,0.5030212,5.5501938-1.180378,6.0999374-3.7599983
				C118.9283905,31.1017265,118.4258575,29.6212025,117.3908234,28.5503731z"/>
			<g>
				<path fill="#A2CCEE" d="M112.4600296,36.5905113c-2.9456177-0.5255928-4.8746796-3.1459045-4.3002777-5.8412285
					c0.5743942-2.6953259,3.4380341-4.4604721,6.3836517-3.9348812c2.9456177,0.525589,4.8746796,3.1459007,4.3002853,5.8412266
					S115.4056473,37.1161003,112.4600296,36.5905113z M114.4508133,27.2488937
					c-2.6837387-0.4788609-5.2928925,1.1294193-5.8162231,3.5851154s1.2342987,4.8431454,3.9180374,5.3220081
					c2.6837387,0.4788589,5.2928925-1.1294212,5.8162155-3.5851173
					C118.8921738,30.1152058,117.1345444,27.7277565,114.4508133,27.2488937z"/>
			</g>
			<g>
				<path fill="#C6E1F7" d="M111.4872513,29.5241394l-0.6662521-1.0906239
					c-0.8569107,0.5863743-1.4909897,1.4501553-1.7115707,2.48522c-0.2094116,0.9826756-0.0125885,1.9524193,0.4808044,2.7660599
					c-0.1050949-0.4992638-0.1127319-1.0238724-0.0000229-1.5527344
					C109.8264465,31.02351,110.5362015,30.109848,111.4872513,29.5241394z"/>
				<path fill="#C6E1F7" d="M111.9021835,29.2962246c0.7467117-0.3601036,1.6062622-0.5331287,2.4917526-0.4577141
					l-0.1663742-1.1722126c-1.0745087-0.1619549-2.1274109,0.0456524-3.0033951,0.5199833L111.9021835,29.2962246z"/>
			</g>
		</g>
	</g>
	<g>
		<ellipse opacity="0.18" fill="#FFFFFF" cx="95.1714325" cy="40.0340805" rx="6.1150694" ry="5.5954628"/>
		<g>
			<path fill="#C6E1F7" d="M99.9673843,36.1470146c0.6061554,1.1153679,0.8367844,2.4125443,0.5560913,3.7296753
				c-0.6779251,3.1811256-4.0457993,5.2570496-7.5222931,4.6367378c-1.4394608-0.2568474-2.6665802-0.9397697-3.5684509-1.8728905
				c0.8578262,1.5784798,2.4741058,2.7899857,4.5112076,3.1534691c3.4764938,0.6203117,6.844368-1.4556122,7.5222931-4.6367378
				C101.8634644,39.2932777,101.2437515,37.4675331,99.9673843,36.1470146z"/>
			<g>
				<path fill="#A2CCEE" d="M93.8868484,46.0619087c-3.6324615-0.6481438-6.0113297-3.8794479-5.3030014-7.2032547
					s4.2397003-5.5005417,7.8721619-4.8523979c3.6324692,0.6481438,6.0113373,3.8794479,5.3030014,7.2032547
					C101.0506821,44.5333176,97.51931,46.7100525,93.8868484,46.0619087z M96.3418274,34.5420609
					c-3.3095169-0.590519-6.5270615,1.3927727-7.1724167,4.4210739c-0.6453552,3.0283051,1.5221024,5.9724464,4.8316193,6.5629654
					c3.3095169,0.5905228,6.5270615-1.3927689,7.1724167-4.4210739
					C101.8188095,38.076725,99.6513443,35.1325836,96.3418274,34.5420609z"/>
			</g>
			<g>
				<path fill="#C6E1F7" d="M92.687233,37.3478394l-0.8216019-1.3449326
					c-1.0567169,0.7231026-1.8386459,1.7882957-2.1106567,3.0647125c-0.2582474,1.2118111-0.0155258,2.4076729,0.5929108,3.4110374
					c-0.1296005-0.6156807-0.1390152-1.262619-0.0000305-1.9147987C90.639183,39.1968231,91.5144272,38.070118,92.687233,37.3478394
					z"/>
				<path fill="#C6E1F7" d="M93.1989212,37.0667801c0.9208298-0.4440727,1.9808121-0.657444,3.0727692-0.5644417
					l-0.2051697-1.4455452c-1.3250504-0.1997185-2.6234665,0.0562973-3.7037125,0.6412315L93.1989212,37.0667801z"/>
			</g>
		</g>
	</g>
	<g>
		<ellipse opacity="0.18" fill="#FFFFFF" cx="41.3886261" cy="42.2710152" rx="7.792109" ry="7.1300015"/>
		<g>
			<path fill="#C6E1F7" d="M47.499855,37.3179321c0.7723923,1.4212532,1.0662727,3.0741768,0.7085991,4.7525291
				c-0.863842,4.0535355-5.1553421,6.6987762-9.5852547,5.9083443c-1.8342285-0.327282-3.3978882-1.1974945-4.5470924-2.3865204
				c1.0930824,2.0113716,3.1526222,3.5551262,5.7483978,4.0182953c4.4299088,0.790432,8.7214127-1.8548088,9.5852547-5.9083481
				C49.9159317,41.3270454,49.1262665,39.0005989,47.499855,37.3179321z"/>
			<g>
				<path fill="#A2CCEE" d="M39.7517548,49.9519539c-4.6286583-0.8258934-7.6599236-4.9433746-6.7573357-9.1787262
					c0.9025917-4.2353516,5.4024277-7.0090485,10.0310822-6.1831512c4.6286545,0.8258934,7.6599236,4.9433746,6.7573357,9.1787262
					C48.8802452,48.0041542,44.3804092,50.7778511,39.7517548,49.9519539z M42.8800011,35.2728271
					c-4.2171402-0.7524719-8.3170853,1.7747307-9.139431,5.6335373c-0.8223419,3.8588066,1.9395409,7.6103706,6.1566811,8.3628387
					s8.3170891-1.7747345,9.139431-5.6335373C49.8590279,39.7768593,47.0971451,36.0252953,42.8800011,35.2728271z"/>
			</g>
			<g>
				<path fill="#C6E1F7" d="M38.2231483,38.8480759l-1.0469246-1.7137756
					c-1.3465157,0.9214134-2.3428879,2.2787323-2.6895027,3.905201c-0.329071,1.5441475-0.019783,3.0679741,0.7555161,4.3465042
					c-0.1651421-0.7845268-0.1771393-1.6088829-0.0000381-2.4399223
					C35.6134224,41.2041397,36.7287025,39.7684402,38.2231483,38.8480759z"/>
				<path fill="#C6E1F7" d="M38.875164,38.4899368c1.1733665-0.5658531,2.5240402-0.8377419,3.9154701-0.7192383l-0.2614365-1.84198
					c-1.688446-0.2544899-3.3429451,0.0717392-4.7194481,0.8170891L38.875164,38.4899368z"/>
			</g>
		</g>
	</g>
	<g>
		<ellipse opacity="0.18" fill="#FFFFFF" cx="23.8663425" cy="79.0568695" rx="7.792109" ry="7.1300015"/>
		<g>
			<path fill="#C6E1F7" d="M29.9775696,74.1037827c0.7723942,1.421257,1.0662727,3.0741806,0.708601,4.752533
				c-0.863842,4.0535355-5.155344,6.6987762-9.5852566,5.9083481c-1.8342285-0.3272858-3.3978882-1.1974945-4.5470924-2.386528
				c1.0930843,2.0113754,3.1526222,3.55513,5.7483978,4.0182953c4.4299107,0.7904358,8.7214127-1.854805,9.5852566-5.9083405
				C32.3936462,78.1128998,31.603981,75.7864532,29.9775696,74.1037827z"/>
			<g>
				<path fill="#A2CCEE" d="M22.2294693,86.7378082c-4.6286564-0.8258972-7.6599245-4.9433746-6.7573347-9.1787262
					c0.9025908-4.2353516,5.4024267-7.0090485,10.0310831-6.1831512s7.6599216,4.9433746,6.7573338,9.1787262
					C31.3579617,84.7900085,26.8581238,87.5637054,22.2294693,86.7378082z M25.3577175,72.0586777
					c-4.2171421-0.7524643-8.3170853,1.7747345-9.139431,5.6335449c-0.8223448,3.8588028,1.939539,7.6103668,6.156683,8.3628387
					c4.2171421,0.7524643,8.3170853-1.7747345,9.1394291-5.6335449
					C32.3367424,76.5627136,29.5748596,72.8111496,25.3577175,72.0586777z"/>
			</g>
			<g>
				<path fill="#C6E1F7" d="M20.7008667,75.633934l-1.0469265-1.7137756
					c-1.3465176,0.9214096-2.3428879,2.2787323-2.6895008,3.9051971c-0.329071,1.5441513-0.019783,3.0679779,0.7555141,4.3465042
					c-0.1651421-0.784523-0.1771393-1.6088867-0.0000362-2.4399261
					C18.0911388,77.9899979,19.2064171,76.5542908,20.7008667,75.633934z"/>
				<path fill="#C6E1F7" d="M21.3528824,75.275795c1.1733627-0.5658569,2.5240364-0.8377457,3.9154663-0.7192383l-0.2614365-1.84198
					c-1.6884441-0.2544937-3.3429432,0.0717392-4.7194481,0.8170853L21.3528824,75.275795z"/>
			</g>
		</g>
	</g>
	<g>
		<ellipse opacity="0.18" fill="#FFFFFF" cx="216.1020966" cy="45.4667664" rx="6.5858564" ry="6.0262461"/>
		<g>
			<path fill="#C6E1F7" d="M221.2672729,41.2804413c0.652832,1.2012367,0.9012146,2.5982819,0.5989075,4.0168152
				c-0.7301178,3.426033-4.3572693,5.6617813-8.1014099,4.9937096c-1.5502777-0.276619-2.8718872-1.0121193-3.8431854-2.0170784
				c0.9238739,1.7000046,2.6645813,3.0047798,4.8585205,3.396244c3.7441406,0.6680717,7.3712921-1.5676765,8.1014099-4.9937057
				C223.3093414,44.6689262,222.6419067,42.7026215,221.2672729,41.2804413z"/>
			<g>
				<path fill="#A2CCEE" d="M214.7186127,51.9586601c-3.9121094-0.69804-6.4741364-4.1781158-5.7112579-7.7578163
					c0.7628632-3.5797005,4.5661011-5.9240189,8.4782257-5.225975c3.9121094,0.6980438,6.4741211,4.1781197,5.7112579,7.7578201
					S218.6307373,52.6567039,214.7186127,51.9586601z M217.3625946,39.5519257
					c-3.5643005-0.6359825-7.0295563,1.4999962-7.7246094,4.7614441c-0.6950378,3.2614441,1.6392975,6.432251,5.2036133,7.0682335
					c3.5643005,0.6359825,7.0295563-1.4999962,7.7245941-4.7614403
					C223.2612457,43.3587151,220.9269104,40.1879082,217.3625946,39.5519257z"/>
			</g>
			<g>
				<path fill="#C6E1F7" d="M213.426651,42.5737114l-0.8848572-1.4484749
					c-1.1380768,0.7787743-1.9801941,1.925972-2.2731628,3.3006592c-0.2781219,1.3051071-0.0167084,2.5930367,0.6385651,3.673645
					c-0.1395721-0.6630783-0.1497192-1.3598213-0.0000305-2.0622139
					C211.2209167,44.5650482,212.1635437,43.3516006,213.426651,42.5737114z"/>
				<path fill="#C6E1F7" d="M213.9777222,42.2710152c0.9917297-0.4782562,2.133316-0.7080574,3.3093414-0.6078949
					l-0.2209625-1.5568352c-1.427063-0.2150955-2.8254395,0.0606346-3.9888611,0.6905975L213.9777222,42.2710152z"/>
			</g>
		</g>
	</g>
	<g>
		<ellipse opacity="0.18" fill="#FFFFFF" cx="221.2321777" cy="76.5348969" rx="7.6533885" ry="7.0030689"/>
		<g>
			<path fill="#C6E1F7" d="M227.2346039,71.6699905c0.7586517,1.3959503,1.047287,3.0194473,0.6959839,4.6679153
				c-0.848465,3.9813766-5.0635529,6.5795288-9.4146118,5.8031693c-1.8015747-0.3214569-3.3373871-1.176178-4.4661407-2.3440399
				c1.0736237,1.975563,3.0964966,3.4918365,5.6460571,3.9467621c4.351059,0.7763596,8.5661621-1.8217926,9.4146271-5.8031616
				C229.607666,75.6077347,228.8320618,73.3227005,227.2346039,71.6699905z"/>
			<g>
				<path fill="#A2CCEE" d="M219.6244507,84.0790939c-4.5462646-0.8111954-7.5235596-4.8553696-6.6370392-9.0153198
					s5.3062439-6.8842697,9.8524933-6.073082c4.5462646,0.8111954,7.5235596,4.8553696,6.6370392,9.0153275
					C228.5904236,82.1659698,224.1707001,84.8902817,219.6244507,84.0790939z M222.6970062,69.661293
					c-4.1420746-0.7390747-8.1690216,1.7431335-8.9767303,5.5332489c-0.8077087,3.7901077,1.905014,7.474884,6.0470734,8.2139587
					c4.1420746,0.7390671,8.1690216-1.7431412,8.9767303-5.5332489S226.8390656,70.4003677,222.6970062,69.661293z"/>
			</g>
			<g>
				<path fill="#C6E1F7" d="M218.1230469,73.1728897l-1.0282745-1.6832581
					c-1.3225555,0.9050064-2.301178,2.2381592-2.6416321,3.8356705c-0.3232117,1.5166626-0.0194244,3.0133591,0.7420654,4.2691269
					c-0.1622009-0.7705612-0.1739807-1.5802383-0.0000305-2.3964844
					C215.5597839,75.4870148,216.6552124,74.0768738,218.1230469,73.1728897z"/>
				<path fill="#C6E1F7" d="M218.7634583,72.8211288c1.1524811-0.5557785,2.4791107-0.8228302,3.8457642-0.7064285
					l-0.2567749-1.8091888c-1.6583862-0.2499619-3.283432,0.0704575-4.635437,0.802536L218.7634583,72.8211288z"/>
			</g>
		</g>
	</g>
	<g>
		<ellipse opacity="0.18" fill="#FFFFFF" cx="195.3474426" cy="43.7500839" rx="6.1375017" ry="5.6159887"/>
		<g>
			<path fill="#C6E1F7" d="M200.1609955,39.8487549c0.6083832,1.1194611,0.839859,2.4213982,0.558136,3.7433586
				c-0.6804199,3.1927948-4.0606384,5.2763367-7.5498962,4.6537437c-1.4447327-0.2577858-2.6763611-0.9432106-3.581543-1.8797569
				c0.8609772,1.5842705,2.4831848,2.8002205,4.527771,3.1650352c3.4892426,0.6225891,6.8694611-1.4609528,7.549881-4.6537437
				C202.0640259,43.0065613,201.4420471,41.174118,200.1609955,39.8487549z"/>
			<g>
				<path fill="#A2CCEE" d="M194.0581512,49.8000221c-3.6457825-0.6505203-6.0333862-3.8936806-5.3224487-7.2296791
					c0.7109222-3.3360023,4.255249-5.5207214,7.9010468-4.8701973c3.6457825,0.6505203,6.033371,3.8936768,5.3224487,7.2296791
					C201.2482605,48.2658234,197.703949,50.4505424,194.0581512,49.8000221z M196.5221405,38.2379189
					c-3.3216553-0.5926895-6.5510101,1.3978767-7.1987305,4.4372902c-0.6477203,3.0394096,1.5276947,5.9943542,4.84935,6.5870399
					s6.5509949-1.3978806,7.1987305-4.4372902C202.0192108,41.7855453,199.8437958,38.8306046,196.5221405,38.2379189z"/>
			</g>
			<g>
				<path fill="#C6E1F7" d="M192.8541412,41.0539856l-0.8246155-1.349865
					c-1.0605927,0.7257538-1.8453827,1.7948532-2.1184082,3.0759544c-0.2591858,1.2162552-0.0155792,2.4165077,0.5950928,3.4235497
					c-0.1300812-0.617939-0.1395264-1.2672462-0.0000305-1.9218216
					C190.7985687,42.9097519,191.6770325,41.7789154,192.8541412,41.0539856z"/>
				<path fill="#C6E1F7" d="M193.3677063,40.7718964c0.9242096-0.4457016,1.9880676-0.6598549,3.0840454-0.5665131
					l-0.2059326-1.4508476c-1.3299103-0.2004509-2.6330872,0.0565071-3.7173004,0.6435852L193.3677063,40.7718964z"/>
			</g>
		</g>
	</g>
	<g>
		<ellipse opacity="0.18" fill="#FFFFFF" cx="142.5395355" cy="29.6769352" rx="4.4530892" ry="4.0747032"/>
		<g>
			<path fill="#C6E1F7" d="M146.0320282,26.8463116c0.4414063,0.8122292,0.6093597,1.7568531,0.404953,2.7160091
				c-0.4936829,2.3165436-2.9462128,3.8282661-5.4778595,3.3765411c-1.048233-0.1870384-1.9418488-0.6843529-2.5986023-1.3638649
				c0.6246948,1.1494751,1.8016815,2.0317116,3.285141,2.296402c2.5316315,0.451725,4.9841766-1.0599976,5.4778442-3.3765411
				C147.4127808,29.1374702,146.9615021,27.8079338,146.0320282,26.8463116z"/>
			<g>
				<path fill="#A2CCEE" d="M141.6040802,34.0664902c-2.6452179-0.4719849-4.3775482-2.8250732-3.8617249-5.2455215
					s3.0874176-4.005579,5.7326355-3.5335903s4.3775482,2.8250732,3.8617249,5.2455215
					S144.2492981,34.5384789,141.6040802,34.0664902z M143.3918304,25.6775608
					c-2.4100342-0.430027-4.7530975,1.0142365-5.223053,3.2194939c-0.4699707,2.2052574,1.1084137,4.3492298,3.5184631,4.779253
					c2.4100342,0.430027,4.7530975-1.0142365,5.223053-3.2194939
					C147.3802643,28.2515583,145.8018799,26.1075859,143.3918304,25.6775608z"/>
			</g>
			<g>
				<path fill="#C6E1F7" d="M140.7304993,27.7207699l-0.5982971-0.9794006
					c-0.769516,0.5265751-1.3389282,1.3022652-1.5370178,2.2317715c-0.1880646,0.8824596-0.0113068,1.7533073,0.4317627,2.4839706
					c-0.0943756-0.4483471-0.1012268-0.9194565-0.0000153-1.3943844
					C139.2390747,29.0672302,139.8764496,28.2467461,140.7304993,27.7207699z"/>
				<path fill="#C6E1F7" d="M141.1031189,27.516098c0.6705627-0.3233776,1.4424591-0.4787598,2.2376404-0.4110355
					l-0.1493988-1.0526676c-0.9649353-0.1454372-1.9104462,0.0409985-2.697113,0.4669552L141.1031189,27.516098z"/>
			</g>
		</g>
	</g>
	<g>
		<ellipse opacity="0.18" fill="#FFFFFF" cx="68.6219482" cy="26.6782932" rx="3.8179872" ry="3.4935672"/>
		<g>
			<path fill="#C6E1F7" d="M71.616333,24.2513733c0.3784637,0.6963902,0.5224533,1.5062904,0.3472061,2.3286514
				c-0.4232712,1.9861565-2.5260239,3.2822762-4.6965942,2.8949776c-0.8987427-0.1603622-1.6649017-0.5867481-2.2279968-1.1693497
				c0.5355911,0.9855347,1.5447311,1.7419453,2.8166122,1.9688892c2.1705704,0.3872967,4.2733231-0.9088211,4.6965942-2.8949795
				C72.8001709,26.215765,72.4132462,25.0758495,71.616333,24.2513733z"/>
			<g>
				<path fill="#A2CCEE" d="M67.8199081,30.4418087c-2.267952-0.4046726-3.753212-2.4221611-3.3109665-4.4974041
					c0.4422531-2.075243,2.6470947-3.4343014,4.9150467-3.0296288c2.267952,0.4046745,3.7532196,2.4221611,3.3109665,4.4974041
					S70.0878677,30.8464813,67.8199081,30.4418087z M69.3526917,23.2493114
					c-2.0663147-0.3686962-4.0752106,0.869585-4.4781494,2.7603283c-0.4029312,1.8907413,0.9503403,3.7289391,3.0166626,4.0976353
					c2.0663223,0.3686943,4.0752182-0.8695869,4.4781494-2.7603302
					C72.7722855,25.4562035,71.419014,23.6180058,69.3526917,23.2493114z"/>
			</g>
			<g>
				<path fill="#C6E1F7" d="M67.0709229,25.0011177l-0.51297-0.8397179
					c-0.6597672,0.4514732-1.1479721,1.1165352-1.3178101,1.913475c-0.161232,0.7566032-0.0096893,1.5032482,0.3701935,2.1297054
					c-0.0809174-0.3844051-0.0867996-0.7883244-0.0000229-1.1955185
					C65.7922058,26.1555443,66.3386765,25.4520779,67.0709229,25.0011177z"/>
				<path fill="#C6E1F7" d="M67.3904037,24.8256359c0.5749207-0.2772579,1.2367249-0.4104786,1.9185028-0.3524132
					l-0.1280975-0.9025364c-0.8273087-0.1246948-1.6379852,0.0351505-2.312439,0.4003582L67.3904037,24.8256359z"/>
			</g>
		</g>
	</g>
	<g>
		<ellipse opacity="0.18" fill="#FFFFFF" cx="22.7779064" cy="58.1060066" rx="3.8179872" ry="3.4935672"/>
		<g>
			<path fill="#C6E1F7" d="M25.7722931,55.6790848c0.3784599,0.6963921,0.5224533,1.5062904,0.3472023,2.3286514
				c-0.4232674,1.9861565-2.526022,3.2822762-4.6965961,2.8949776c-0.8987389-0.1603622-1.6649017-0.5867462-2.2279911-1.1693497
				c0.5355911,0.9855347,1.5447273,1.7419472,2.8166065,1.9688911c2.1705742,0.3872948,4.2733288-0.9088211,4.6965961-2.8949814
				C26.9561272,57.6434784,26.5692043,56.5035629,25.7722931,55.6790848z"/>
			<g>
				<path fill="#A2CCEE" d="M21.9758701,61.8695221c-2.2679558-0.4046745-3.7532196-2.4221611-3.3109684-4.497406
					c0.4422531-2.0752411,2.647089-3.4342995,4.9150429-3.0296288c2.2679539,0.4046745,3.7532196,2.4221611,3.3109665,4.497406
					C26.4486599,60.9151344,24.243824,62.2741928,21.9758701,61.8695221z M23.5086517,54.6770248
					c-2.0663204-0.3686981-4.0752163,0.8695831-4.4781494,2.7603264s0.9503384,3.7289391,3.0166588,4.0976372
					c2.0663204,0.3686943,4.0752163-0.8695869,4.4781494-2.7603302S25.5749722,55.0457191,23.5086517,54.6770248z"/>
			</g>
			<g>
				<path fill="#C6E1F7" d="M21.2268829,56.4288292l-0.5129738-0.8397179
					c-0.6597691,0.4514732-1.1479721,1.1165352-1.3178062,1.913475c-0.1612377,0.7566032-0.0096931,1.5032501,0.3701878,2.1297073
					c-0.0809155-0.384407-0.0867939-0.7883263-0.0000172-1.1955185
					C19.9481659,57.5832558,20.4946308,56.8797913,21.2268829,56.4288292z"/>
				<path fill="#C6E1F7" d="M21.5463581,56.2533493c0.5749264-0.2772598,1.2367306-0.4104805,1.9185047-0.3524132
					l-0.1280975-0.9025383c-0.8273067-0.1246948-1.6379814,0.0351524-2.3124409,0.4003601L21.5463581,56.2533493z"/>
			</g>
		</g>
	</g>
	<g>
		<ellipse opacity="0.18" fill="#FFFFFF" cx="88.7073669" cy="21.8305149" rx="2.6255782" ry="2.4024789"/>
		<g>
			<path fill="#C6E1F7" d="M90.766571,20.1615562c0.2602615,0.4788971,0.3592834,1.0358543,0.2387619,1.6013813
				c-0.2910767,1.3658524-1.737114,2.2571774-3.2297821,1.9908371c-0.6180496-0.1102791-1.1449356-0.4034996-1.5321579-0.8041477
				c0.3683167,0.6777401,1.0622864,1.1979141,1.9369354,1.3539791c1.4926758,0.2663403,2.9387131-0.6249847,3.2297897-1.9908371
				C91.5806732,21.5124416,91.3145905,20.7285366,90.766571,20.1615562z"/>
			<g>
				<path fill="#A2CCEE" d="M88.1558151,24.4186344c-1.559639-0.2782879-2.5810318-1.6656876-2.2769012-3.092804
					s1.8203659-2.3617229,3.3800049-2.0834351s2.5810394,1.6656876,2.2769089,3.092804S89.7154617,24.6969223,88.1558151,24.4186344
					z M89.2098923,19.4724503c-1.4209824-0.2535477-2.8024673,0.5980034-3.0795593,1.898241
					s0.6535339,2.5643406,2.0745087,2.8178883c1.4209824,0.2535458,2.802475-0.5980034,3.079567-1.898241
					S90.6308746,19.7259979,89.2098923,19.4724503z"/>
			</g>
			<g>
				<path fill="#C6E1F7" d="M87.6407471,20.6771431l-0.3527603-0.5774612
					c-0.4537125,0.3104725-0.789444,0.7678261-0.9062424,1.3158703c-0.110878,0.5203056-0.0066605,1.0337639,0.2545776,1.4645691
					c-0.0556488-0.264349-0.0596848-0.5421181-0.0000153-0.8221397
					C86.7613907,21.4710274,87.1371918,20.9872627,87.6407471,20.6771431z"/>
				<path fill="#C6E1F7" d="M87.8604507,20.5564671c0.3953705-0.1906662,0.8504791-0.28228,1.3193283-0.2423496l-0.088089-0.6206608
					c-0.5689316-0.0857525-1.1264191,0.0241718-1.5902328,0.2753201L87.8604507,20.5564671z"/>
			</g>
		</g>
	</g>
	<g>
		<ellipse opacity="0.18" fill="#FFFFFF" cx="187.506134" cy="20.9761391" rx="2.6255782" ry="2.4024789"/>
		<g>
			<path fill="#C6E1F7" d="M189.5653229,19.3071804c0.2602692,0.4788971,0.3592834,1.0358543,0.2387695,1.6013813
				c-0.2910767,1.3658543-1.7371063,2.2571774-3.2297821,1.9908371c-0.6180573-0.1102791-1.144928-0.4034996-1.5321655-0.8041458
				c0.3683319,0.6777382,1.0622864,1.1979122,1.9369507,1.3539772c1.4926758,0.2663403,2.9387054-0.6249828,3.2297821-1.9908371
				C190.3794403,20.6580658,190.1133575,19.8741608,189.5653229,19.3071804z"/>
			<g>
				<path fill="#A2CCEE" d="M186.9545746,23.5642586c-1.5596313-0.2782879-2.5810394-1.6656876-2.2769012-3.092804
					c0.3041229-1.4271164,1.8203735-2.3617229,3.3800049-2.0834351c1.5596466,0.2782879,2.5810394,1.6656876,2.2769165,3.092804
					C190.0304565,22.9079399,188.5142212,23.8425465,186.9545746,23.5642586z M188.0086517,18.6180744
					c-1.4209747-0.2535458-2.802475,0.5980034-3.0795593,1.898241c-0.2770996,1.3002377,0.6535339,2.5643406,2.0745087,2.8178883
					c1.42099,0.2535477,2.802475-0.5980034,3.0795746-1.898241C190.36026,20.135725,189.4296417,18.8716221,188.0086517,18.6180744z
					"/>
			</g>
			<g>
				<path fill="#C6E1F7" d="M186.4395142,19.8227673l-0.3527679-0.5774612
					c-0.4537201,0.3104725-0.789444,0.7678261-0.9062347,1.3158703c-0.1108856,0.5203056-0.0066681,1.0337639,0.2545776,1.4645691
					c-0.0556488-0.264349-0.0596924-0.5421181-0.0000153-0.8221397
					C185.5601501,20.6166515,185.9359589,20.1328869,186.4395142,19.8227673z"/>
				<path fill="#C6E1F7" d="M186.6592102,19.7020912c0.3953705-0.1906662,0.8504791-0.28228,1.3193359-0.2423496
					l-0.088089-0.6206608c-0.5689392-0.0857506-1.1264191,0.0241718-1.5902405,0.2753201L186.6592102,19.7020912z"/>
			</g>
		</g>
	</g>
	<g>
		<ellipse opacity="0.18" fill="#FFFFFF" cx="34.6164818" cy="57.0563965" rx="2.6255782" ry="2.4024789"/>
		<g>
			<path fill="#C6E1F7" d="M36.6756821,55.3874397c0.2602615,0.4788971,0.3592834,1.0358543,0.2387657,1.6013794
				c-0.2910767,1.3658562-1.7371101,2.2571793-3.2297859,1.9908371c-0.6180496-0.1102791-1.1449318-0.4034996-1.5321579-0.8041458
				c0.3683167,0.677742,1.0622864,1.1979141,1.9369431,1.353981c1.492672,0.2663383,2.9387093-0.6249847,3.2297859-1.9908409
				C37.4897881,56.7383232,37.2237053,55.9544182,36.6756821,55.3874397z"/>
			<g>
				<path fill="#A2CCEE" d="M34.0649338,59.644516c-1.5596428-0.278286-2.5810394-1.6656876-2.2769089-3.092804
					s1.8203659-2.361721,3.3800087-2.0834351c1.5596428,0.2782898,2.5810356,1.6656876,2.2769051,3.092804
					S35.6245728,59.9228058,34.0649338,59.644516z M35.1190071,54.6983337
					c-1.4209824-0.2535477-2.8024712,0.5980034-3.0795631,1.8982391c-0.277092,1.3002396,0.6535339,2.5643425,2.0745163,2.8178902
					c1.4209785,0.2535477,2.8024712-0.5980034,3.0795631-1.898243
					C37.4706154,56.2159843,36.5399857,54.9518814,35.1190071,54.6983337z"/>
			</g>
			<g>
				<path fill="#C6E1F7" d="M33.5498657,55.9030266l-0.3527679-0.5774612
					c-0.4537125,0.3104706-0.789444,0.7678261-0.9062347,1.3158684c-0.1108818,0.5203056-0.0066681,1.0337677,0.2545738,1.4645729
					c-0.055645-0.2643509-0.0596886-0.5421219-0.0000153-0.8221436
					C32.6705093,56.6969109,33.0463028,56.2131462,33.5498657,55.9030266z"/>
				<path fill="#C6E1F7" d="M33.7695618,55.7823524c0.3953705-0.19067,0.8504829-0.28228,1.3193321-0.2423515l-0.0880928-0.6206627
					c-0.5689278-0.0857506-1.1264153,0.0241737-1.5902328,0.275322L33.7695618,55.7823524z"/>
			</g>
		</g>
	</g>
	<g>
		<ellipse opacity="0.18" fill="#FFFFFF" cx="101.8017502" cy="23.6831722" rx="3.8179872" ry="3.4935672"/>
		<g>
			<path fill="#C6E1F7" d="M104.7961349,21.2562542c0.3784637,0.6963882,0.5224533,1.5062885,0.3472061,2.3286495
				c-0.4232712,1.9861565-2.5260239,3.2822762-4.6966019,2.8949795c-0.898735-0.1603642-1.6649017-0.58675-2.2279892-1.1693516
				c0.5355911,0.9855347,1.5447311,1.7419472,2.8166122,1.9688892c2.1705704,0.3872967,4.2733231-0.9088211,4.6965942-2.8949795
				C105.9799728,23.2206459,105.5930481,22.0807285,104.7961349,21.2562542z"/>
			<g>
				<path fill="#A2CCEE" d="M100.9997101,27.4466877c-2.267952-0.4046726-3.7532196-2.4221611-3.3109665-4.4974041
					s2.6470871-3.4343014,4.9150467-3.0296288c2.267952,0.4046745,3.7532196,2.4221611,3.3109665,4.4974041
					S103.2676697,27.8513622,100.9997101,27.4466877z M102.5324936,20.2541904
					c-2.0663147-0.3686962-4.0752106,0.8695869-4.4781494,2.7603283c-0.4029312,1.8907433,0.9503403,3.7289391,3.0166626,4.0976353
					c2.0663223,0.3686943,4.0752182-0.8695869,4.4781494-2.7603302
					C105.9520874,22.4610825,104.5988159,20.6228867,102.5324936,20.2541904z"/>
			</g>
			<g>
				<path fill="#C6E1F7" d="M100.2507248,22.0059967l-0.51297-0.8397179
					c-0.6597672,0.4514732-1.1479721,1.1165352-1.3178101,1.913475c-0.1612396,0.7566032-0.0096893,1.5032482,0.3701935,2.1297054
					c-0.0809174-0.3844051-0.0867996-0.7883244-0.0000229-1.1955166
					C98.9720078,23.1604233,99.5184708,22.4569569,100.2507248,22.0059967z"/>
				<path fill="#C6E1F7" d="M100.5702057,21.8305149c0.5749207-0.2772579,1.2367249-0.4104786,1.9185028-0.3524132
					l-0.1280975-0.9025364c-0.8273087-0.1246948-1.6379852,0.0351505-2.3124466,0.4003582L100.5702057,21.8305149z"/>
			</g>
		</g>
	</g>
	<g>
		<ellipse opacity="0.18" fill="#FFFFFF" cx="178.2290802" cy="44.7449417" rx="4.4530892" ry="4.0747032"/>
		<g>
			<path fill="#C6E1F7" d="M181.7215729,41.9143181c0.4414063,0.8122292,0.6093597,1.7568512,0.404953,2.7160072
				c-0.4936829,2.3165474-2.9462128,3.8282661-5.4778595,3.376545c-1.048233-0.1870384-1.9418488-0.6843529-2.5986023-1.3638649
				c0.6246948,1.1494713,1.8016815,2.0317078,3.285141,2.296402c2.5316315,0.4517212,4.9841766-1.0599976,5.4778442-3.376545
				C183.1023254,44.2054749,182.6510468,42.8759422,181.7215729,41.9143181z"/>
			<g>
				<path fill="#A2CCEE" d="M177.2936249,49.1344986c-2.6452179-0.4719887-4.3775482-2.8250732-3.8617249-5.2455215
					s3.0874176-4.0055809,5.7326355-3.5335922s4.3775482,2.8250732,3.8617249,5.2455215
					S179.9388428,49.6064873,177.2936249,49.1344986z M179.0813751,40.7455673
					c-2.4100342-0.430027-4.7530975,1.0142365-5.223053,3.2194939c-0.4699707,2.2052574,1.1084137,4.3492279,3.5184631,4.7792549
					c2.4100342,0.430027,4.7530975-1.0142365,5.223053-3.2194939
					C183.069809,43.3195648,181.4914246,41.1755943,179.0813751,40.7455673z"/>
			</g>
			<g>
				<path fill="#C6E1F7" d="M176.4200439,42.7887764l-0.5982971-0.9794006
					c-0.769516,0.5265732-1.3389282,1.3022652-1.5370178,2.2317734c-0.1880646,0.8824577-0.0113068,1.7533035,0.4317627,2.4839706
					c-0.0943756-0.448349-0.1012268-0.9194565-0.0000153-1.3943863
					C174.9286194,44.1352348,175.5659943,43.3147507,176.4200439,42.7887764z"/>
				<path fill="#C6E1F7" d="M176.7926636,42.5841064c0.6705627-0.3233795,1.4424591-0.4787598,2.2376404-0.4110374
					l-0.1493988-1.0526657c-0.9649353-0.1454391-1.9104462,0.0409966-2.697113,0.4669533L176.7926636,42.5841064z"/>
			</g>
		</g>
	</g>
	<g>
		<ellipse opacity="0.18" fill="#FFFFFF" cx="230.9889526" cy="50.3802795" rx="4.4530892" ry="4.0747032"/>
		<g>
			<path fill="#C6E1F7" d="M234.4814453,47.5496559c0.4414063,0.8122292,0.6093597,1.7568512,0.404953,2.7160072
				c-0.4936676,2.3165474-2.9462128,3.8282661-5.4778442,3.376545c-1.0482483-0.1870384-1.9418488-0.6843529-2.5986023-1.3638649
				c0.6246796,1.1494713,1.8016815,2.0317078,3.2851257,2.296402c2.5316467,0.4517212,4.9841766-1.0599976,5.4778595-3.3765411
				C235.8621979,49.8408127,235.4109192,48.5112801,234.4814453,47.5496559z"/>
			<g>
				<path fill="#A2CCEE" d="M230.0535126,54.7698364c-2.6452179-0.4719887-4.3775482-2.8250732-3.8617401-5.2455215
					c0.5158234-2.4204483,3.0874176-4.0055809,5.7326355-3.5335922s4.3775482,2.8250732,3.8617249,5.2455215
					C235.2703247,53.6566925,232.6987152,55.2418251,230.0535126,54.7698364z M231.8412628,46.3809052
					c-2.4100494-0.430027-4.7531128,1.0142365-5.2230682,3.2194939s1.1084137,4.3492279,3.5184631,4.7792549
					c2.4100342,0.430027,4.7531128-1.0142365,5.2230682-3.2194939S234.251297,46.8109322,231.8412628,46.3809052z"/>
			</g>
			<g>
				<path fill="#C6E1F7" d="M229.1799316,48.4241142l-0.5983124-0.9794006
					c-0.769516,0.526577-1.3389282,1.3022652-1.5370178,2.2317734c-0.1880493,0.8824577-0.0112915,1.7533073,0.431778,2.4839706
					c-0.0943756-0.448349-0.1012421-0.9194565-0.0000305-1.3943863
					C227.6885071,49.7705727,228.3258667,48.9500885,229.1799316,48.4241142z"/>
				<path fill="#C6E1F7" d="M229.5525513,48.2194443c0.6705627-0.3233795,1.4424438-0.4787598,2.2376404-0.4110374
					l-0.1494141-1.0526657c-0.96492-0.1454391-1.9104462,0.0409966-2.6970978,0.4669533L229.5525513,48.2194443z"/>
			</g>
		</g>
	</g>
	<g>
		<ellipse opacity="0.18" fill="#FFFFFF" cx="238.8544617" cy="83.8809509" rx="4.4530892" ry="4.0747032"/>
		<g>
			<path fill="#C6E1F7" d="M242.3469543,81.0503311c0.4414063,0.8122253,0.6093597,1.7568512,0.404953,2.7160034
				c-0.4936829,2.3165512-2.9462128,3.82827-5.4778442,3.3765488c-1.0482483-0.1870422-1.9418488-0.6843567-2.5986176-1.3638687
				c0.6246948,1.1494751,1.8016968,2.0317078,3.285141,2.296402c2.5316315,0.4517212,4.9841766-1.0599976,5.4778442-3.3765411
				C243.7277069,83.3414841,243.2764282,82.0119553,242.3469543,81.0503311z"/>
			<g>
				<path fill="#A2CCEE" d="M237.9190063,88.2705078c-2.6452179-0.4719849-4.3775482-2.8250732-3.8617249-5.2455215
					s3.0874176-4.0055771,5.7326355-3.5335922c2.6452179,0.4719925,4.3775482,2.8250732,3.8617249,5.2455215
					S240.5642242,88.7425003,237.9190063,88.2705078z M239.7067566,79.8815765
					c-2.4100342-0.4300232-4.7530975,1.0142365-5.223053,3.2194977c-0.4699707,2.2052536,1.1084137,4.3492279,3.5184631,4.7792511
					c2.4100342,0.4300308,4.7530975-1.0142365,5.2230682-3.2194901
					C243.6951904,82.455574,242.116806,80.3116074,239.7067566,79.8815765z"/>
			</g>
			<g>
				<path fill="#C6E1F7" d="M237.0454407,81.9247894l-0.5983124-0.9794006
					c-0.769516,0.5265732-1.3389282,1.3022614-1.5370178,2.2317734c-0.1880493,0.8824539-0.0113068,1.7533035,0.431778,2.4839706
					c-0.0943909-0.448349-0.1012421-0.9194565-0.0000305-1.3943863
					C235.5540161,83.2712479,236.1913757,82.4507599,237.0454407,81.9247894z"/>
				<path fill="#C6E1F7" d="M237.418045,81.7201157c0.6705627-0.3233795,1.4424591-0.4787598,2.2376404-0.4110336
					l-0.1493988-1.0526657c-0.96492-0.1454391-1.9104462,0.0409927-2.697113,0.4669495L237.418045,81.7201157z"/>
			</g>
		</g>
	</g>
	<g>
		<ellipse opacity="0.18" fill="#FFFFFF" cx="189.8084564" cy="30.7499313" rx="3.5184278" ry="3.2194617"/>
		<g>
			<path fill="#C6E1F7" d="M192.5679016,28.5134296c0.3487701,0.6417503,0.4814606,1.3881054,0.3199615,2.1459446
				c-0.3900604,1.8303223-2.3278351,3.0247498-4.3280945,2.6678391c-0.8282318-0.1477814-1.5342865-0.5407143-2.0531921-1.0776062
				c0.493576,0.9082108,1.4235382,1.6052742,2.5956268,1.8144112c2.0002594,0.3569107,3.9380341-0.837513,4.3280945-2.6678371
				C193.6588593,30.3236942,193.3022919,29.2732162,192.5679016,28.5134296z"/>
			<g>
				<path fill="#A2CCEE" d="M189.0693512,34.2181625c-2.0900116-0.372921-3.4587402-2.2321186-3.0511932-4.144537
					s2.4393921-3.1648464,4.5294037-2.7919254c2.0900116,0.3729229,3.4587402,2.2321186,3.0511932,4.1445389
					S191.1593628,34.5910835,189.0693512,34.2181625z M190.4818726,27.5899887
					c-1.9042053-0.3397675-3.7554779,0.8013573-4.1268005,2.5437527s0.8757782,3.4363651,2.7799683,3.7761326
					c1.9042053,0.3397675,3.7554779-0.8013573,4.1268005-2.5437527
					C193.6331635,29.6237278,192.3860626,27.9297562,190.4818726,27.5899887z"/>
			</g>
			<g>
				<path fill="#C6E1F7" d="M188.3791199,29.2043476l-0.4727173-0.7738342
					c-0.6080017,0.4160519-1.0579071,1.0289326-1.2144165,1.7633438c-0.1485901,0.6972408-0.0089264,1.3853054,0.3411407,1.9626102
					c-0.0745544-0.3542442-0.0799713-0.7264729-0.0000153-1.101717
					C187.2007446,30.268198,187.7043304,29.6199265,188.3791199,29.2043476z"/>
				<path fill="#C6E1F7" d="M188.6735382,29.042635c0.5298157-0.2555046,1.1396942-0.378273,1.7679749-0.3247623
					l-0.118042-0.8317242c-0.7624054-0.114912-1.5094757,0.0323925-2.131012,0.3689461L188.6735382,29.042635z"/>
			</g>
		</g>
	</g>
	<g>
		<ellipse opacity="0.18" fill="#FFFFFF" cx="176.8589478" cy="18.9151802" rx="3.5184278" ry="3.2194617"/>
		<g>
			<path fill="#C6E1F7" d="M179.6183929,16.6786766c0.3487701,0.6417503,0.4814606,1.3881073,0.3199615,2.1459446
				c-0.3900604,1.8303242-2.3278198,3.0247498-4.3280945,2.6678391c-0.8282318-0.1477814-1.5342712-0.5407143-2.0531769-1.0776043
				c0.4935608,0.9082108,1.4235229,1.6052742,2.5956116,1.8144112c2.0002747,0.3569088,3.9380341-0.8375168,4.3280945-2.6678391
				C180.7093506,18.4889431,180.3527832,17.4384632,179.6183929,16.6786766z"/>
			<g>
				<path fill="#A2CCEE" d="M176.1198425,22.3834095c-2.0900116-0.3729229-3.4587402-2.2321167-3.0511932-4.144537
					c0.4075623-1.9124184,2.4394073-3.1648464,4.5294189-2.7919245c2.0900116,0.3729229,3.4587402,2.2321177,3.051178,4.1445379
					C180.2416992,21.5039043,178.2098541,22.7563324,176.1198425,22.3834095z M177.5323639,15.7552357
					c-1.9041901-0.3397675-3.7554779,0.8013592-4.1268005,2.5437527c-0.3713074,1.7423954,0.8757782,3.436367,2.7799835,3.7761345
					c1.9041901,0.3397675,3.7554626-0.8013592,4.1267853-2.5437527
					C180.6836548,17.7889748,179.436554,16.0950031,177.5323639,15.7552357z"/>
			</g>
			<g>
				<path fill="#C6E1F7" d="M175.4296265,17.3695946l-0.4727325-0.7738323
					c-0.6080017,0.41605-1.0579071,1.0289307-1.2144165,1.7633419c-0.1485748,0.6972408-0.0089264,1.3853054,0.341156,1.9626102
					c-0.0745697-0.3542442-0.0799866-0.7264729-0.0000153-1.101717
					C174.251236,18.433445,174.7548218,17.7851734,175.4296265,17.3695946z"/>
				<path fill="#C6E1F7" d="M175.7240295,17.2078819c0.5298157-0.2555046,1.1396942-0.378273,1.7679749-0.3247623
					l-0.118042-0.8317242c-0.7623901-0.1149111-1.5094604,0.0323944-2.131012,0.3689461L175.7240295,17.2078819z"/>
			</g>
		</g>
	</g>
	<g>
		<ellipse opacity="0.18" fill="#FFFFFF" cx="207.2569275" cy="33.0437775" rx="3.5184278" ry="3.2194617"/>
		<g>
			<path fill="#C6E1F7" d="M210.0163727,30.8072758c0.3487701,0.6417503,0.4814606,1.3881054,0.3199615,2.1459446
				c-0.3900604,1.8303223-2.3278198,3.0247498-4.3280945,2.6678391c-0.8282318-0.1477814-1.5342712-0.5407143-2.0531921-1.0776024
				c0.493576,0.9082108,1.4235382,1.6052704,2.5956268,1.8144073c2.0002594,0.3569107,3.9380341-0.837513,4.3280945-2.6678352
				C211.1073303,32.6175423,210.7507629,31.5670643,210.0163727,30.8072758z"/>
			<g>
				<path fill="#A2CCEE" d="M206.5178223,36.5120087c-2.0900116-0.372921-3.4587402-2.2321167-3.0511932-4.1445351
					c0.4075623-1.9124203,2.4394073-3.1648483,4.5294189-2.7919254c2.0899963,0.3729229,3.4587402,2.2321186,3.051178,4.144537
					C210.639679,35.6325035,208.6078339,36.8849335,206.5178223,36.5120087z M207.9303436,29.8838348
					c-1.9042053-0.3397675-3.7554779,0.8013592-4.1268005,2.5437546c-0.3713074,1.7423935,0.8757782,3.436367,2.7799835,3.7761345
					c1.9041901,0.3397675,3.7554626-0.8013611,4.1267853-2.5437546
					C211.0816345,31.9175739,209.8345337,30.2236023,207.9303436,29.8838348z"/>
			</g>
			<g>
				<path fill="#C6E1F7" d="M205.8276062,31.4981937l-0.4727325-0.7738323
					c-0.6080017,0.4160519-1.0579071,1.0289307-1.2144165,1.7633438c-0.1485748,0.6972389-0.0089264,1.3853035,0.341156,1.9626083
					c-0.0745697-0.3542442-0.0799866-0.7264709-0.0000305-1.1017151
					C204.6492157,32.5620461,205.1528015,31.9137726,205.8276062,31.4981937z"/>
				<path fill="#C6E1F7" d="M206.1220093,31.3364811c0.5298157-0.2555046,1.1396942-0.3782711,1.7679749-0.3247623
					l-0.118042-0.8317223c-0.7623901-0.114912-1.5094604,0.0323925-2.131012,0.3689442L206.1220093,31.3364811z"/>
			</g>
		</g>
	</g>
	<g>
		<ellipse opacity="0.18" fill="#FFFFFF" cx="231.1832275" cy="62.442997" rx="3.5184278" ry="3.2194617"/>
		<g>
			<path fill="#C6E1F7" d="M233.9426727,60.2064934c0.3487701,0.6417503,0.4814758,1.3881073,0.3199615,2.1459465
				c-0.3900452,1.8303223-2.3278198,3.0247498-4.3280945,2.6678391c-0.8282166-0.1477814-1.5342712-0.5407181-2.0531769-1.0776062
				c0.4935608,0.9082108,1.4235229,1.6052704,2.5956116,1.8144073c2.0002747,0.3569107,3.9380493-0.8375092,4.3280945-2.6678352
				C235.0336304,62.016758,234.677063,60.9662819,233.9426727,60.2064934z"/>
			<g>
				<path fill="#A2CCEE" d="M230.4441223,65.9112244c-2.0900116-0.3729172-3.4587402-2.2321167-3.0511932-4.1445351
					c0.4075623-1.9124184,2.4394073-3.1648445,4.5294189-2.7919235s3.4587402,2.2321167,3.051178,4.1445389
					C234.565979,65.031723,232.5341339,66.2841492,230.4441223,65.9112244z M231.8566437,59.2830544
					c-1.9041901-0.3397675-3.7554779,0.8013573-4.1267853,2.5437508c-0.3713226,1.7423973,0.8757629,3.4363708,2.7799683,3.7761383
					c1.9041901,0.3397675,3.7554779-0.8013611,4.1267853-2.5437584
					C235.0079346,61.3167915,233.760849,59.6228218,231.8566437,59.2830544z"/>
			</g>
			<g>
				<path fill="#C6E1F7" d="M229.7539063,60.8974113l-0.4727325-0.7738342
					c-0.6080017,0.4160538-1.0578918,1.0289345-1.2144012,1.7633438c-0.1485901,0.6972427-0.0089417,1.3853073,0.3411407,1.9626083
					c-0.0745697-0.3542404-0.0799866-0.7264709-0.0000153-1.1017151
					C228.5755157,61.9612617,229.0791016,61.3129883,229.7539063,60.8974113z"/>
				<path fill="#C6E1F7" d="M230.0483093,60.7356987c0.5298157-0.2555046,1.1396942-0.378273,1.7679749-0.3247643
					l-0.118042-0.8317223c-0.7623901-0.1149101-1.5094604,0.0323944-2.131012,0.3689461L230.0483093,60.7356987z"/>
			</g>
		</g>
	</g>
	<g>
		<ellipse opacity="0.18" fill="#FFFFFF" cx="156.8453827" cy="19.1933594" rx="8.1147432" ry="7.4252214"/>
		<g>
			<path fill="#C6E1F7" d="M163.2096405,14.0351915c0.8043823,1.4801035,1.1104279,3.2014647,0.7379456,4.9493093
				c-0.8996124,4.2213745-5.3688049,6.9761448-9.982132,6.1529827c-1.9101868-0.3408356-3.5385895-1.2470779-4.7353668-2.4853363
				c1.1383362,2.0946541,3.2831573,3.7023296,5.9864044,4.1846733c4.613327,0.8231621,9.0825195-1.9316063,9.982132-6.1529827
				C165.7257538,18.2103062,164.9033966,15.7875299,163.2096405,14.0351915z"/>
			<g>
				<path fill="#A2CCEE" d="M155.1407318,27.1923313c-4.8203125-0.8600922-7.9770813-5.148056-7.0371246-9.5587749
					s5.6261139-7.2992592,10.4464264-6.439168c4.8202972,0.8600922,7.9770813,5.148057,7.0371246,9.558774
					C164.6471863,25.1638794,159.9610291,28.0524235,155.1407318,27.1923313z M158.3984985,11.9054089
					c-4.3917542-0.7836256-8.6614532,1.848217-9.5178528,5.8667965c-0.8563843,4.0185814,2.0198517,7.9254818,6.4116058,8.7091064
					s8.6614532-1.848217,9.5178528-5.8667984S162.7902527,12.6890335,158.3984985,11.9054089z"/>
			</g>
			<g>
				<path fill="#C6E1F7" d="M153.5488281,15.6286936l-1.090271-1.7847338
					c-1.4022675,0.9595613-2.4398956,2.3730812-2.8008575,4.0668945c-0.3426971,1.6080837-0.0205994,3.1950035,0.7867889,4.526474
					c-0.1719666-0.8170109-0.1844635-1.6755009-0.0000305-2.5409508
					C150.8310547,18.0823097,151.9925079,16.5871639,153.5488281,15.6286936z"/>
				<path fill="#C6E1F7" d="M154.2278442,15.2557259c1.2219543-0.5892839,2.6285553-0.8724298,4.0775909-0.7490177
					l-0.2722626-1.9182491c-1.7583618-0.2650261-3.4813538,0.0747099-4.914856,0.8509197L154.2278442,15.2557259z"/>
			</g>
		</g>
	</g>
</g>
</svg>
