<?xml version="1.0" encoding="utf-8"?>
<!-- Generator: Adobe Illustrator 23.0.3, SVG Export Plug-In . SVG Version: 6.00 Build 0)  -->
<svg version="1.1" xmlns="http://www.w3.org/2000/svg" xmlns:xlink="http://www.w3.org/1999/xlink" x="0px" y="0px"
	 viewBox="0 0 76.2519684 76.2519684" enable-background="new 0 0 76.2519684 76.2519684" xml:space="preserve">
<g>
	<path fill="#FFFFFF" d="M51.6301346,35.6286697c-0.3847656,0-1.125,0.6115723-1.4672852,1.4807129h-0.7783203
		c-0.2158203-2.4216309-1.1982422-4.621582-2.7016602-6.3577881l1.4311523-1.4294434
		c0.8579102,0.3730469,1.8139648,0.2802734,2.0864258,0.0095215c0.3598633-0.3597412-0.1098633-1.4105225-1.0488281-2.3476563
		c-0.9370117-0.9371338-1.9916992-1.4049072-2.3515625-1.0450439c-0.2724609,0.270752-0.3632813,1.2268066,0.0092773,2.0805664
		L45.366951,29.46241c-1.7626953-1.4711914-3.9833984-2.4140625-6.4145508-2.5900879v-0.7592773
		c0.8691406-0.3426514,1.4804688-1.0828857,1.4804688-1.465332c0-0.5075684-1.0751953-0.920166-2.4023438-0.920166
		s-2.4047852,0.4125977-2.4047852,0.920166c0,0.3824463,0.6118164,1.1226807,1.4804688,1.465332v0.7763672
		c-2.4233398,0.2156982-4.6269531,1.1964111-6.3686523,2.6958008l-1.4316406-1.4273682
		c0.3730469-0.855835,0.2822266-1.8099365,0.0097656-2.0826416c-0.3598633-0.3579102-1.4125977,0.1098633-2.3515625,1.0469971
		c-0.9389648,0.9353027-1.4086914,1.987915-1.046875,2.3458252c0.2705078,0.272583,1.2285156,0.3634033,2.0844727-0.0075684
		l1.4443359,1.4388428c-1.4726563,1.7607422-2.4174805,3.973999-2.59375,6.4031982h-0.7612305
		c-0.3422852-0.8691406-1.0844727-1.4787598-1.4672852-1.4787598c-0.5092773,0-0.9238281,1.0736084-0.9238281,2.3988037
		c0,1.3253174,0.4145508,2.4007568,0.9238281,2.4007568c0.3847656,0,1.125-0.6115723,1.4672852-1.4805908h0.7783203
		c0.2158203,2.4215088,1.1987305,4.62146,2.7016602,6.357666l-1.4311523,1.4294434
		c-0.8579102-0.3729248-1.8139648-0.2802734-2.0864258-0.0095215c-0.3598633,0.3597412,0.1098633,1.4105225,1.046875,2.3477783
		c0.9389648,0.9372559,1.9936523,1.4047852,2.3535156,1.045166c0.2705078-0.270752,0.3632813-1.2269287-0.0097656-2.0827637
		l1.4428711-1.4389648c1.7626953,1.4692383,3.9814453,2.4122314,6.4145508,2.5881348v0.7592773
		c-0.8710938,0.3427734-1.4824219,1.0830078-1.4824219,1.465332c0,0.5075684,1.0771484,0.920166,2.4042969,0.920166
		s2.4047852-0.4125977,2.4047852-0.920166c0-0.3823242-0.6118164-1.1225586-1.480957-1.465332v-0.776123
		c2.4238281-0.2159424,4.6274414-1.1966553,6.3671875-2.697998l1.4335938,1.4293213
		c-0.375,0.855835-0.2822266,1.8101807-0.0117188,2.0806885c0.3618164,0.3598633,1.4145508-0.107666,2.3535156-1.0449219
		c0.9389648-0.9353027,1.4086914-1.9880371,1.046875-2.3477783c-0.2705078-0.270752-1.2285156-0.3615723-2.0844727,0.0093994
		l-1.4443359-1.4388428c1.4726563-1.7607422,2.4174805-3.9759521,2.59375-6.4030762h0.7612305
		c0.3422852,0.8690186,1.0825195,1.4786377,1.4672852,1.4786377c0.5092773,0,0.921875-1.0734863,0.921875-2.3988037
		S52.1394119,35.6286697,51.6301346,35.6286697z M31.5271072,41.3540115c0.0019531,0,0.003418,0.0019531,0.003418,0.0039063
		c-0.0112305,0.0056152-0.0244141,0.0075684-0.0336914,0.0131836c-0.059082,0.0264893-0.121582,0.0493164-0.1835938,0.0681152
		c-0.0268555,0.0075684-0.0512695,0.019043-0.0795898,0.0246582c-0.0913086,0.020874-0.1855469,0.0341797-0.2841797,0.0341797
		c-0.0854492,0-0.1704102-0.0095215-0.2539063-0.0266113c-0.5771484-0.1174316-1.0107422-0.626709-1.0107422-1.2363281
		c0-0.5224609,0.3178711-0.9711914,0.7724609-1.1623535c0.1513672-0.0644531,0.3178711-0.1004639,0.4921875-0.1004639
		c0.0986328,0,0.1928711,0.0133057,0.2841797,0.0360107c0.0283203,0.0056152,0.0546875,0.0151367,0.0810547,0.0246582
		c0.0625,0.0187988,0.121582,0.0397949,0.1801758,0.0661621c0.0112305,0.0056152,0.0244141,0.0075684,0.0356445,0.0151367
		c-0.0014648,0-0.0014648,0.0019531-0.003418,0.0039063c0.4067383,0.208252,0.6889648,0.628418,0.6889648,1.1169434
		C32.2160721,40.7255936,31.9338455,41.1439285,31.5271072,41.3540115z M36.0046463,46.0721512
		c0.0019531,0,0.0039063,0.0019531,0.0073242,0.0037842c-0.0170898,0.0095215-0.0395508,0.0133057-0.0566406,0.0227051
		c-0.0869141,0.041748-0.1782227,0.0739746-0.2709961,0.1022949c-0.0415039,0.0131836-0.0791016,0.0283203-0.1210938,0.0378418
		c-0.1362305,0.0322266-0.2763672,0.0511475-0.421875,0.0511475c-0.2597656,0-0.5058594-0.0531006-0.7290039-0.145874
		c-0.6743164-0.2858887-1.1474609-0.9504395-1.1474609-1.7247314c0-0.5169678,0.2104492-0.9844971,0.5493164-1.3233643
		c0.3408203-0.3371582,0.8081055-0.5471191,1.3271484-0.5471191c0.1455078,0,0.2856445,0.0187988,0.421875,0.0510254
		c0.0419922,0.0095215,0.0795898,0.0246582,0.1196289,0.0378418c0.0942383,0.0285645,0.1855469,0.0605469,0.2724609,0.1022949
		c0.0170898,0.0093994,0.0395508,0.0131836,0.0566406,0.0227051c-0.003418,0-0.0053711,0.0037842-0.0073242,0.0037842
		c0.5981445,0.3123779,1.0126953,0.9315186,1.0126953,1.652832S36.6027908,45.7579422,36.0046463,46.0721512z
		 M43.4167557,36.1096268c0.0058594,0,0.0097656,0.0039063,0.0131836,0.0057373
		c-0.0756836,0.0264893-0.1572266,0.0435791-0.2363281,0.0625c-0.0512695,0.0131836-0.1005859,0.0321045-0.1538086,0.041626
		c-0.1552734,0.0302734-0.315918,0.0491943-0.4804688,0.0491943c-1.3974609,0-2.53125-1.130249-2.53125-2.5256348
		s1.1337891-2.5238037,2.53125-2.5238037c0.1645508,0,0.3251953,0.019043,0.4804688,0.0473633
		c0.0532227,0.0113525,0.1005859,0.0283203,0.1499023,0.041626c0.081543,0.0189209,0.1625977,0.0360107,0.2402344,0.0643311
		c-0.003418,0-0.0073242,0.0039063-0.0131836,0.0057373c0.9750977,0.3502197,1.6738281,1.2723389,1.6738281,2.3647461
		S44.3918533,35.7574539,43.4167557,36.1096268z"/>
	<path fill="#FFFFFF" d="M68.2024002,35.9716873c-1.0625-14.8728027-13.0224609-26.7724609-27.921875-27.7368164V0.5859452
		h-4.309082v7.6794434C21.2600174,9.4160233,9.5046463,21.2331619,8.4514236,35.9716873H0.5861893v4.3085938h7.8652344
		c1.0532227,14.7385254,12.8085938,26.5556641,27.5200195,27.7062988v7.6794434h4.309082v-7.6489258
		c14.8994141-0.9643555,26.859375-12.8640137,27.921875-27.7368164h7.4633789v-4.3085938H68.2024002z M64.1193924,40.2802811
		c-1.0473633,12.6300049-11.1821289,22.6973877-23.8388672,23.6486816v-5.1518555h-4.309082v5.1315918
		c-12.4702148-1.1308594-22.4008789-11.1312256-23.4370117-23.628418h4.9404297v-4.3085938h-4.9404297
		c1.0361328-12.4971924,10.9667969-22.4975586,23.4370117-23.628418v5.1315918h4.309082v-5.1518555
		c12.6567383,0.9512939,22.7915039,11.0186768,23.8388672,23.6486816h-5.3422852v4.3085938H64.1193924z"/>
</g>
</svg>
