<?xml version="1.0" encoding="utf-8"?>
<!-- Generator: Adobe Illustrator 23.0.3, SVG Export Plug-In . SVG Version: 6.00 Build 0)  -->
<svg version="1.1" id="Слой_1" xmlns="http://www.w3.org/2000/svg" xmlns:xlink="http://www.w3.org/1999/xlink" x="0px" y="0px"
	 viewBox="0 0 76 76" enable-background="new 0 0 76 76" xml:space="preserve">
<circle fill="#EA5637" cx="38" cy="38" r="33.6000977"/>
<path fill="#FFFFFF" d="M56.1883621,53.9350395c0.7976837,0.8310661,0.7710953,2.151207-0.059967,2.9488907
	c-0.4045029,0.3880959-0.9244118,0.5810089-1.4443207,0.5810089c-0.5476303,0-1.094696-0.214695-1.5042877-0.6412582L38,41.0112991
	L22.8202152,56.8236809c-0.4090271,0.4265633-0.9566574,0.6412582-1.5042877,0.6412582
	c-0.5199108,0-1.0398197-0.1929131-1.4443207-0.5810089c-0.8310642-0.7976837-0.8576527-2.1178246-0.059967-2.9488907L35.109169,38
	L19.8116398,22.0649586c-0.7976856-0.8310642-0.7710972-2.1512051,0.059967-2.9488907
	c0.8304977-0.7965527,2.1503563-0.7716618,2.9486084,0.0602512L38,34.9887009l15.1797867-15.8123817
	c0.7976837-0.8313465,2.1181068-0.8565216,2.9486084-0.0602512c0.8310623,0.7976856,0.8576508,2.1178265,0.059967,2.9488907
	L40.890831,38L56.1883621,53.9350395z"/>
</svg>
