<?xml version="1.0" encoding="utf-8"?>
<!-- Generator: Adobe Illustrator 23.0.3, SVG Export Plug-In . SVG Version: 6.00 Build 0)  -->
<svg version="1.1" id="Слой_1" xmlns="http://www.w3.org/2000/svg" xmlns:xlink="http://www.w3.org/1999/xlink" x="0px" y="0px"
	 viewBox="0 0 76 76" enable-background="new 0 0 76 76" xml:space="preserve">
<g>
	<path fill="#EA5637" d="M77.816925,25.1570454L38.0002747,1.511852L-1.816927,25.1570454v5.9219551h6.9111009v43.4091492
		h40.7092781h17.7595367h7.3428345V31.0790005h6.9111023V25.1570454z M68.3714981,63.7469559h-4.8085098V44.5115356
		c0-2.0165138-1.6400528-3.6568413-3.6562958-3.6568413H49.4602928c-2.0162392,0-3.6568413,1.6403275-3.6568413,3.6568413
		v19.2354202H7.6285005V30.5331402L38.0002747,12.496685l30.3712234,18.0364552V63.7469559z M7.6285005,71.9538193v-5.6725311
		h38.1749496v5.6725311H7.6285005z M48.3377762,71.9538193V44.5115356c0-0.6190071,0.503788-1.1225166,1.1225166-1.1225166
		h10.4463997c0.6187325,0,1.1219673,0.5035095,1.1219673,1.1225166v27.4422836H48.3377762z M63.5629883,71.9538193v-5.6725311
		h4.8085098v5.6725311H63.5629883z M75.2826004,28.544672h-5.2959366L38.0002747,9.5493202L6.0133691,28.544672H0.7174v-1.9450188
		L38.0002747,4.4592171l37.2823257,22.1404362V28.544672z"/>
	<path fill="#EA5637" d="M27.8134689,34.1162872c-3.2575569,0-5.9079304,2.6500969-5.9079304,5.9076538
		s2.6503735,5.9079285,5.9079304,5.9079285s5.9073792-2.6503716,5.9073792-5.9079285S31.0710239,34.1162872,27.8134689,34.1162872z
		 M27.8134689,43.3975449c-1.8600464,0-3.3736038-1.5132828-3.3736038-3.3736038
		c0-1.8600464,1.5135574-3.3733253,3.3736038-3.3733253s3.3730526,1.513279,3.3730526,3.3733253
		C31.1865215,41.8842621,29.6735153,43.3975449,27.8134689,43.3975449z"/>
	<path fill="#EA5637" d="M27.8134689,29.2173023c-5.9585285,0-10.8066387,4.8478374-10.8066387,10.8066387
		c0,1.8267746,0.4647369,3.6320953,1.3447113,5.2237511c0.278841,0.576107,3.2674561,6.6545334,8.4692059,13.2111664
		l0.9927216,1.2512169l0.9927216-1.2512169c5.2017479-6.556633,8.1903648-12.6350594,8.4692039-13.2111664
		c0.8799744-1.5916557,1.3447113-3.3969765,1.3447113-5.2237511C38.6201057,34.0651398,33.7719955,29.2173023,27.8134689,29.2173023
		z M35.0430107,44.0476265l-0.0363007,0.0698471c-0.0274963,0.0577469-2.6393738,5.4662933-7.1932411,11.4847679
		c-4.5538692-6.0184746-7.1657429-11.427021-7.193243-11.4847679l-0.0362988-0.0698471
		c-0.6819801-1.2234421-1.0427704-2.6148987-1.0427704-4.0236855c0-4.5612946,3.710743-8.2723103,8.2723122-8.2723103
		s8.2723122,3.7110157,8.2723122,8.2723103C36.0857811,41.4327278,35.7249908,42.8241844,35.0430107,44.0476265z"/>
</g>
</svg>
