<?xml version="1.0" encoding="utf-8"?>
<!-- Generator: Adobe Illustrator 23.0.3, SVG Export Plug-In . SVG Version: 6.00 Build 0)  -->
<svg version="1.1" id="Слой_1" xmlns="http://www.w3.org/2000/svg" xmlns:xlink="http://www.w3.org/1999/xlink" x="0px" y="0px"
	 viewBox="0 0 76 76" enable-background="new 0 0 76 76" xml:space="preserve">
<g>
	<path fill="#EA5637" d="M73.303093,36.7800102h-3.5868988c-0.628891-16.5359039-13.9601669-29.867178-30.4960709-30.4960709
		V2.6970394h-2.4399834v3.5869005C20.2440071,6.9127994,6.9127002,20.2440739,6.2838078,36.7800102H2.696907v2.4399796h3.5869007
		C6.9127002,55.755928,20.2440071,69.087204,36.7801399,69.7160568v3.5869064h2.4399834v-3.5869064
		c16.5359039-0.628891,29.8671799-13.9601631,30.4960709-30.496067h3.5868988V36.7800102z M39.2201233,67.2760773v-14.222374
		h-2.4399834v14.222374C21.5892944,66.6502304,9.349637,54.4106064,8.7237892,39.2199898h14.2226391v-2.4399796H8.7237892
		C9.349637,21.5893936,21.5892944,9.3497696,36.7801399,8.7239218v14.222373h2.4399834V8.7239218
		C54.4107399,9.3497696,66.6503601,21.5893936,67.276207,36.7800102H53.0535736v2.4399796H67.276207
		C66.6503601,54.4106064,54.4107399,66.6502304,39.2201233,67.2760773z"/>
	<rect x="36.7801399" y="29.7020493" fill="#EA5637" width="2.4399819" height="4.5747018"/>
	<rect x="29.7019157" y="36.7800102" fill="#EA5637" width="4.5749664" height="2.4399819"/>
	<rect x="36.7801399" y="41.7232513" fill="#EA5637" width="2.4399819" height="4.5747018"/>
	<rect x="41.723381" y="36.7800102" fill="#EA5637" width="4.5747018" height="2.4399819"/>
</g>
</svg>
