<?xml version="1.0" encoding="utf-8"?>
<!-- Generator: Adobe Illustrator 23.0.3, SVG Export Plug-In . SVG Version: 6.00 Build 0)  -->
<svg version="1.1" id="Слой_1" xmlns="http://www.w3.org/2000/svg" xmlns:xlink="http://www.w3.org/1999/xlink" x="0px" y="0px"
	 viewBox="0 0 76 76" enable-background="new 0 0 76 76" xml:space="preserve">
<g>
	<path fill="#EA5637" d="M43.9677277,11.1849251c0.8801918,0,1.7652397-0.2962322,2.4923325-0.9032755
		c0.7980499-0.6665821,1.2889366-1.6041222,1.3817673-2.6398396c0.0933151-1.035717-0.222599-2.0456748-0.8894234-2.8439689
		c-1.3759346-1.6476214-3.8352165-1.8685193-5.4833221-0.4928284c-1.6476212,1.3759336-1.868763,3.8359442-0.4928284,5.4838085
		C41.7451401,10.7095928,42.8523026,11.1849251,43.9677277,11.1849251z M42.9047966,6.0240793
		c0.3086243-0.2578359,0.6843185-0.3834729,1.0580711-0.3834729c0.4738731,0,0.9443474,0.2017002,1.2709541,0.5929494
		c0.5842018,0.6998744,0.4903984,1.7445827-0.2094765,2.3290262c-0.6993904,0.5849304-1.744339,0.4903984-2.3295135-0.2094755
		C42.11063,7.6534748,42.2049217,6.6085234,42.9047966,6.0240793z"/>
	<path fill="#EA5637" d="M61.7613106,7.2365875C61.6844864,7.1946073,61.6080284,7.1525664,61.528595,7.11657
		c-0.0048294-0.0023084-0.0091133-0.004921-0.0139427-0.0071993l-0.0006371,0.0013671
		c-0.2515488-0.1126966-0.5136681-0.1992092-0.7847786-0.2502418c-0.1291924-0.8299465-0.4760284-1.6130829-1.0298843-2.2762628
		c-1.6563683-1.9837067-4.6196594-2.2505338-6.6055527-0.5936782c-1.3921852,1.1626604-1.9577942,2.9877412-1.5567017,4.6801987
		c-2.2563057,0.9257231-4.1278343,2.685009-5.1519775,4.870203c-0.3148499-0.092679-0.6410942-0.1551332-0.9753571-0.1852055
		c-1.3351097-0.119319-2.6308479,0.2862673-3.6573296,1.143857c-1.8972893,1.5847731-2.3182449,4.2852125-1.1155777,6.354125
		c-1.262661,1.2851696-1.3699188,3.3498287-0.1918297,4.7612419c0.4763336,0.5705624,1.115303,0.9606571,1.8108368,1.1468964
		l-0.5889702,1.9658451c-0.3042221,0.9797935-0.1414337,2.0159664,0.4292488,2.8454876l-0.091465,0.047327
		c1.5737457,3.0432377,5.5017929,7.2451572,7.9926643,7.2449169c0.1054688,0,0.2094765-0.0077782,0.309597-0.0233307
		l7.033741-1.2400894c3.0366783-0.5353546,5.4988747-2.694519,6.4257202-5.6349621l4.6133385-14.6327229l0.0306244-0.1181049
		C69.0182266,14.1642513,66.9195709,9.793438,61.7613106,7.2365875z M54.5295143,5.7096219
		c1.0366898-0.8658519,2.5851631-0.7268491,3.4512558,0.3103261c0.2537956,0.304069,0.415493,0.6587753,0.4995728,1.0336213
		L53.6971397,8.051012C53.5334091,7.1968551,53.8300667,6.2936707,54.5295143,5.7096219z M53.6643944,10.345561l6.1204987-1.2762985
		c0.3198624-0.0672836,0.5833817-0.0156136,0.7909126,0.0740271c0.0647011,0.0308628,0.1222954,0.0643072,0.1856918,0.0956564
		c0.1341705,0.0848408,0.231163,0.1786137,0.2890015,0.2427082c0.1550407,0.1710796,0.4923439,0.6400928,0.2843246,1.3001137
		l-4.6133385,14.6327238c-0.675087,2.1411781-2.4680328,3.7132225-4.6789551,4.103014l-7.0337372,1.2400894
		c-0.5326843,0.0940456-0.866581-0.2102051-0.9851723-0.3450775c-0.1185875-0.1351147-0.3781242-0.5049782-0.2148209-1.0313416
		l1.8228951-6.0835629c0.9051552-0.1207771,1.7881088-0.4855385,2.5391693-1.1129951
		c2.1185799-1.7696133,2.4029007-4.9328995,0.6332893-7.0514774c-0.1436806-0.1720829-0.3004227-0.3286743-0.4626656-0.4780045
		C49.2835541,12.4952145,51.2988853,10.8386326,53.6643944,10.345561z M43.1881485,16.2184315
		c0.5020599-0.4194384,1.1222267-0.6434956,1.7686386-0.6434956c0.0835953,0,0.1681633,0.0038881,0.2522469,0.0114212
		c0.7363281,0.0663424,1.4026642,0.4150658,1.8765373,0.9824982c0.9778824,1.1705875,0.8204117,2.9188156-0.3504219,3.8969402
		c-1.1708298,0.9783649-2.9185753,0.8206501-3.8974266-0.3504238C41.8603287,18.94454,42.0173149,17.196312,43.1881485,16.2184315z
		 M42.1645813,24.1797466c-0.4148216-0.4966545-0.3953514-1.2105942,0.0106316-1.6870499
		c0.3715019,0.2490883,0.7677345,0.4498158,1.1830711,0.5895176l-0.457531,1.5271168
		C42.6185265,24.5489426,42.3553734,24.4079952,42.1645813,24.1797466z M66.2237396,16.7243824l-4.5929298,14.5690536
		c-0.675087,2.14118-2.468029,3.7132244-4.6789513,4.103014l-6.9885368,1.2340164
		c-0.6783371-0.0001831-2.7340698-1.5779381-4.4214821-3.6927185l6.8895111-1.2146664
		c3.0366783-0.5353546,5.4988747-2.6945171,6.425724-5.6349621l4.6133385-14.6329651
		c0.0379677-0.1203222,0.0642471-0.2417059,0.0893669-0.36306C65.8248672,13.1108551,66.4560242,15.412118,66.2237396,16.7243824z"
		/>
	<path fill="#EA5637" d="M59.6240196,40.6773453H39.3159332c0.3782196-1.6461029,0.7253609-3.3222466,0.8083191-4.9387321
		c0.1078949-2.1042404,0.0029144-5.2422562-1.1110497-8.2424812c-0.5978127-1.6087399-2.0524826-3.6721554-4.1861267-4.1924438
		c-0.9681587-0.2364502-2.4398384-0.2296448-3.9499149,1.138998c-1.227211,1.1132374-1.8721657,2.8595219-1.917366,5.1907349
		c-0.0092335,0.4806786,0.00243,0.9637871,0.0136089,1.4466515c0.0262451,1.0925808,0.051033,2.1244106-0.1769123,3.082365
		c-0.3552837,1.4913635-1.3351078,2.9003448-2.9963379,4.3078728c-0.2580776,0.218708-0.534626,0.4386368-0.8233242,0.6544304
		c-0.6692543,0.5015755-1.3598957,0.9598961-2.0908756,1.4449501c-0.6519394,0.4327126-1.319191,0.8773041-1.9714336,1.3546677
		c-0.5989647-0.7580757-1.5241718-1.2470131-2.5631695-1.2470131h-7.5950966c-1.8021765,0-3.2685108,1.4660912-3.2685108,3.2682648
		v23.4841919c0,1.8021774,1.4663343,3.2685089,3.2685108,3.2685089h7.5950966c1.0740223,0,2.0256577-0.5231094,2.6216736-1.3254166
		c1.582798,2.2483521,4.1930199,3.7239456,7.1454639,3.7239456h10.624485h2.243h5.6407928
		c1.8605003,0,3.3739777-1.5134735,3.3739777-3.3739777v-3.1868591c0-0.5516052-0.1357231-1.0711975-0.3715363-1.5314255
		c1.0629654-0.5685577,1.7882957-1.6889687,1.7882957-2.9764442v-3.1868591c0-0.4759102-0.1002121-0.9284592-0.2787323-1.3394203
		c1.2599564-0.4636078,2.1625633-1.672226,2.1625633-3.0911751v-2.5423889c0-0.3698654-0.064003-0.7244186-0.1768532-1.0566177
		h6.4995384c2.793663,0,5.0667992-2.2731323,5.0667992-5.0672874
		C64.6908188,42.9504776,62.4176826,40.6773453,59.6240196,40.6773453z M19.3797779,67.4298019
		c0,0.5671921-0.461237,1.0289154-1.0284271,1.0289154h-7.5950966c-0.5671892,0-1.0289125-0.4617233-1.0289125-1.0289154V43.94561
		c0-0.5671883,0.4617233-1.0286674,1.0289125-1.0286674h7.5950966c0.5671902,0,1.0284271,0.4614792,1.0284271,1.0286674v20.4130096
		V67.4298019z M21.6193752,64.3586197V44.1993179c0.7873592-0.6238136,1.6223488-1.1778793,2.5049686-1.763298
		c0.7251472-0.4814034,1.4750824-0.9788513,2.1948833-1.5183372c0.3241787-0.242527,0.636692-0.491127,0.928793-0.7387581
		c2.0101948-1.7030258,3.2641354-3.5528336,3.7268314-5.4979019c0.2955017-1.2400894,0.2658539-2.4675446,0.2376652-3.6544132
		c-0.0106926-0.4507866-0.0218716-0.9015751-0.0131226-1.3504181c0.0320778-1.689661,0.43013-2.8923283,1.1824951-3.5747051
		c0.6371765-0.5773964,1.2660942-0.7810402,1.9144478-0.6221104c1.02211,0.2493286,2.0981674,1.3992615,2.6172409,2.7965813
		c0.9812813,2.6422691,1.0711975,5.4541607,0.9739914,7.3479519c-0.0879707,1.7125053-0.5122681,3.5258598-0.9618416,5.4454117
		c-0.8602638,3.6733704-1.7491989,7.4718895-0.3479919,11.0529137c0.3256645,0.8318024,0.9555206,1.4150314,1.5897827,1.9120483
		v0.3763962c0,0.5334129,0.1301956,1.0359917,0.3560448,1.482193c-1.0352325,0.576786-1.7378082,1.6815186-1.7378082,2.9484024
		v3.1868591c0,0.5518494,0.1357803,1.071682,0.3716545,1.5320396c-1.0627213,0.5685883-1.7879295,1.6887817-1.7879295,2.9758301
		v3.1868591c0,0.3984528,0.0730247,0.7792206,0.2003937,1.1343842h-7.4513855
		C24.5350342,70.8572464,21.6193752,67.94207,21.6193752,64.3586197z M49.177906,58.8412743v3.1868591
		c0,0.6255112-0.5088654,1.1343803-1.1343803,1.1343803h-1.4167595h-6.4670334c-0.625515,0-1.1343803-0.5088692-1.1343803-1.1343803
		v-3.1868591c0-0.625515,0.5088654-1.1343803,1.1343803-1.1343803h1.3040009h6.579792
		C48.6690407,57.7068939,49.177906,58.2157593,49.177906,58.8412743z M47.7611465,69.7228622
		c0,0.6255112-0.5088692,1.1343842-1.1343803,1.1343842h-5.6407928h-2.243c-0.6250267,0-1.1338959-0.508873-1.1338959-1.1343842
		v-3.1868591c0-0.6250229,0.5088692-1.1338882,1.1338959-1.1338882h1.4167595h6.4670334
		c0.6255112,0,1.1343803,0.5088654,1.1343803,1.1338882V69.7228622z M51.0617332,51.8682899v2.5423889
		c0,0.5825005-0.4738731,1.0566177-1.0566139,1.0566177h-1.9615936h-6.579792c-0.5827408,0-1.0566177-0.4741173-1.0566177-1.0566177
		v-2.5423889c0-0.5825005,0.473877-1.0566177,1.0566177-1.0566177h4.2706909h4.2706947
		C50.5878601,50.8116722,51.0617332,51.2857895,51.0617332,51.8682899z M59.6240196,48.5720749h-9.6189003h-4.2706947h-4.2706909
		c-1.3630829,0-2.5354042,0.8315544-3.0365562,2.0139008c-0.6645775-2.3689423-0.2220535-5.027462,0.3709564-7.6690331h20.8258858
		c1.5591621,0,2.8272018,1.26828,2.8272018,2.8274422C62.4512215,47.3035507,61.1831818,48.5720749,59.6240196,48.5720749z"/>
	<path fill="#EA5637" d="M14.5536814,61.9836617c-0.9658508,0-1.7488356,0.7829857-1.7488356,1.7488365
		s0.7829847,1.7488327,1.7488356,1.7488327c0.9658813,0,1.7488661-0.7829819,1.7488661-1.7488327
		S15.5195627,61.9836617,14.5536814,61.9836617z"/>
</g>
</svg>
