<?xml version="1.0" encoding="utf-8"?>
<!-- Generator: Adobe Illustrator 23.0.3, SVG Export Plug-In . SVG Version: 6.00 Build 0)  -->
<svg version="1.1" id="Слой_1" xmlns="http://www.w3.org/2000/svg" xmlns:xlink="http://www.w3.org/1999/xlink" x="0px" y="0px"
	 viewBox="0 0 76 76" enable-background="new 0 0 76 76" xml:space="preserve">
<g>
	<path fill="#EA5637" d="M24.8625412,44.2969208c0-3.9751129-3.2337551-7.2091026-7.2091007-7.2091026
		s-7.2090998,3.2339897-7.2090998,7.2091026c0,3.9748726,3.2337561,7.2088623,7.2090998,7.2088623
		S24.8625412,48.2717934,24.8625412,44.2969208z M12.6098909,44.2969208c0-2.7809563,2.2623606-5.0435524,5.0435495-5.0435524
		s5.0435524,2.2625961,5.0435524,5.0435524c0,2.7809525-2.2623615,5.0433159-5.0435524,5.0433159
		S12.6098909,47.0778732,12.6098909,44.2969208z"/>
	<path fill="#EA5637" d="M17.6534405,69.3360901l0.8482685-1.0691452
		c6.8806019-8.6723061,10.8061314-16.698185,11.1186523-17.3457832c1.1184902-2.0165749,1.7096939-4.306427,1.7096939-6.6242409
		c0-7.5413589-6.1352558-13.6766148-13.6766148-13.6766148S3.9770632,36.7555618,3.9770632,44.2969208
		c0,2.3175774,0.5909677,4.6074295,1.7094593,6.6240044c0.3120494,0.6468925,4.2375784,8.6730118,11.1186514,17.3460197
		L17.6534405,69.3360901z M7.5940671,49.8954849c-0.9493079-1.7021751-1.4512191-3.6381493-1.4512191-5.5985641
		c0-6.3472061,5.1633892-11.5110664,11.5105925-11.5110664S29.164505,37.9497147,29.164505,44.2969208
		c0,1.9606476-0.5019112,3.896389-1.4516888,5.5985641l-0.0310173,0.060154
		c-0.0375977,0.0787201-3.6858521,7.6372299-10.0283585,15.8797569c-6.3425035-8.242527-9.9907598-15.8010368-10.0283566-15.8797569
		L7.5940671,49.8954849z"/>
	<path fill="#EA5637" d="M58.3463249,8.3820629c-3.9753456,0-7.2091026,3.2339916-7.2091026,7.2091007
		c0,3.9748745,3.233757,7.2088661,7.2091026,7.2088661s7.2091026-3.2339916,7.2091026-7.2088661
		C65.5554276,11.6160545,62.3216667,8.3820629,58.3463249,8.3820629z M58.3463249,20.6344795
		c-2.7811928,0-5.0435524-2.2623596-5.0435524-5.0433159s2.2623596-5.0435505,5.0435524-5.0435505
		c2.781189,0,5.0435486,2.2625952,5.0435486,5.0435505S61.1275139,20.6344795,58.3463249,20.6344795z"/>
	<path fill="#EA5637" d="M58.3463249,1.9145508c-7.5413589,0-13.6766129,6.1352549-13.6766129,13.6766129
		c0,2.3168755,0.5912018,4.606493,1.7096939,6.6240082c0.3120499,0.6468925,4.2375793,8.6727734,11.1186485,17.3460159
		l0.8482704,1.0691452l0.8482666-1.0691452c6.8806038-8.6725388,10.8061333-16.698185,11.1186485-17.3457813
		c1.1184921-2.0165749,1.7096939-4.306427,1.7096939-6.6242428C72.022934,8.0498056,65.8876801,1.9145508,58.3463249,1.9145508z
		 M68.4057007,21.1897316l-0.0310211,0.060154c-0.0375977,0.0787163-3.6773911,7.6271248-10.0283546,15.8797607
		c-6.3425064-8.2427673-9.9907608-15.8010445-10.0283585-15.8797607l-0.0310173-0.060154
		c-0.9497757-1.7028809-1.4516907-3.6388569-1.4516907-5.598568c0-6.3472042,5.1638603-11.5110626,11.5110664-11.5110626
		s11.5110588,5.1638589,11.5110588,11.5110626C69.8573837,17.5518131,69.3554764,19.4875565,68.4057007,21.1897316z"/>
	<path fill="#EA5637" d="M65.6061783,34.122406l-1.0705566,1.8821678c1.422081,0.8090248,2.2379227,1.8600807,2.2379227,2.8836403
		c0,2.0461807-3.460743,4.3259315-8.4272194,4.3259315c-4.966011,0-8.426754-2.2797508-8.426754-4.3259315
		c0-1.3884811,1.3802567-2.3899536,2.2026749-2.8634338l-1.0799522-1.8769951
		c-2.1204338,1.2202339-3.2882729,2.9036102-3.2882729,4.7404289c0,0.3974342,0.0650291,0.7832947,0.1715927,1.1592598
		L27.3973293,64.9933014c-0.5647678-0.8143768-1.4016094-1.5494995-2.4840317-2.1651382l-1.0705566,1.882637
		c1.4220829,0.8087921,2.2379227,1.8596115,2.2379227,2.8831711c0,2.0461807-3.4607449,4.3259277-8.4272232,4.3259277
		c-4.9660072,0-8.4267511-2.279747-8.4267511-4.3259277c0-1.3882446,1.3802557-2.3899536,2.2026758-2.8634338l-1.0799551-1.8769989
		c-2.1204348,1.2204742-3.288271,2.9040833-3.288271,4.7404327c0,3.6400299,4.6525488,6.491478,10.5923014,6.491478
		s10.5927734-2.8514481,10.5927734-6.491478c0-0.071701-0.005022-0.142662-0.0085468-0.2138596l20.832901-25.3160629
		c1.7886467,1.9923401,5.2319145,3.3156471,9.2757568,3.3156471c5.9397545,0,10.5927696-2.8514519,10.5927696-6.4914818
		C68.9390945,37.0373001,67.7552795,35.3447571,65.6061783,34.122406z"/>
</g>
</svg>
