<?xml version="1.0" encoding="utf-8"?>
<!-- Generator: Adobe Illustrator 23.0.3, SVG Export Plug-In . SVG Version: 6.00 Build 0)  -->
<svg version="1.1" id="Слой_1" xmlns="http://www.w3.org/2000/svg" xmlns:xlink="http://www.w3.org/1999/xlink" x="0px" y="0px"
	 viewBox="0 0 76 76" enable-background="new 0 0 76 76" xml:space="preserve">
<g>
	<path fill="#EA5637" d="M37.577076,28.849535c7.624321,0,13.8270721-6.2027493,13.8270721-13.8270712
		S45.2013969,1.1953908,37.577076,1.1953908S23.7500019,7.3981419,23.7500019,15.0224638S29.9527531,28.849535,37.577076,28.849535z
		 M37.577076,3.5517204c6.3249626,0,11.4707413,5.1457777,11.4707413,11.4707432S43.9020386,26.493206,37.577076,26.493206
		s-11.4707451-5.1457767-11.4707451-11.4707422S31.2521095,3.5517204,37.577076,3.5517204z"/>
	<polygon fill="#EA5637" points="33.2852631,21.1940212 37.577076,16.7234573 41.8688889,21.1940212 43.568634,19.5622845 
		39.210186,15.0223351 43.568634,10.4823866 41.8688889,8.8506489 37.577076,13.3212128 33.2852631,8.8506489 
		31.5855141,10.4823866 35.9439621,15.0223351 31.5855141,19.5622845 	"/>
	<path fill="#EA5637" d="M74.671875,45.2714844L62.9546623,25.4587326
		c-0.3395424-0.5745087-0.8831139-0.9823151-1.5294685-1.1482506c-0.6468658-0.1656799-1.319809-0.0695438-1.8935509,0.2697411
		l-8.4245949,4.9818878c-0.4487152,0.265522-0.7911949,0.657732-1.0006256,1.1239281
		c-0.528904-0.1012802-1.0547066-0.1950817-1.5735397-0.2799339c-3.8125763-0.6247501-7.6457024-0.2616882-11.2245903,1.0463619
		c-1.4998703-0.2720737-5.5553741-0.870615-10.8218956-0.5902653c-0.1907997-0.3609219-0.4590054-0.6770039-0.8080711-0.910181
		l-8.1484604-5.4428768c-1.1428814-0.7629433-2.6943359-0.4538288-3.4583025,0.688797L1.3996439,44.1695137
		c-0.7634549,1.1431351-0.4545957,2.6945915,0.6882856,3.4583015l8.1223497,5.4252663l2.7239952,2.0350075
		c-1.208559,1.6206131-1.1916838,3.920311,0.1703138,5.5263863c0.7368317,0.8684082,1.7572117,1.4068336,2.8835058,1.5346107
		c-0.0377445,0.1811142-0.0685225,0.3643723-0.0838308,0.5517197c-0.0971575,1.1822586,0.2720423,2.3315277,1.039588,3.2358627
		c0.876976,1.0339661,2.1292858,1.565773,3.3892689,1.565773c0.5421658,0,1.0850334-0.1018219,1.6009922-0.3011856
		c0.1196251,0.8115845,0.4588776,1.5766678,1.0028324,2.2177505c0.8774872,1.0334473,2.1297989,1.565773,3.389782,1.565773
		c0.9381466,0,1.8787537-0.2990189,2.6740417-0.9011078c0.1496983,0.6871338,0.4630966,1.3485718,0.9489174,1.9212646
		c0.8774872,1.0334473,2.129797,1.565773,3.38978,1.565773c1.0155525,0,2.0362206-0.3456802,2.8697319-1.0523758
		l0.0256958-0.0217972l1.9302406,1.4423447c0.7721481,0.5681152,1.6854286,0.8657303,2.6258125,0.8657303
		c0.2249985,0,0.4515305-0.0168762,0.6785698-0.0511398c1.1735649-0.1789703,2.2080383-0.8038483,2.9116631-1.7600861
		c0.4638977-0.6304398,0.7344055-1.3439102,0.8262253-2.0703201c0.6681519,0.3386459,1.4013062,0.5152893,2.1514015,0.5152893
		c0.242897,0,0.4878349-0.0184097,0.7322617-0.0557404c1.2681656-0.1927795,2.385479-0.8682861,3.1468887-1.9022446
		l0.1667023-0.2270432c0.6461601-0.8777771,0.9651184-1.9253845,0.9288788-2.9984055
		c0.2380676,0.0374908,0.4794922,0.0572128,0.7228012,0.0570831c0.236248,0,0.4740257-0.0178986,0.7118073-0.053688
		c1.2323685-0.1876678,2.3179779-0.8437424,3.0568886-1.8477859c0.7389107-1.0040512,1.0426559-2.2359085,0.8549881-3.4685326
		c-0.0303307-0.1996841-0.077343-0.3937454-0.1318016-0.5848961c0.0637245-0.0073509,0.1274223-0.0121117,0.1911163-0.0218277
		c1.3637886-0.2076111,2.5654755-0.9339943,3.3831329-2.0449142c0.8176613-1.1114311,1.1536217-2.4747086,0.9465218-3.8387527
		c-0.2076111-1.3640404-0.9337349-2.5657272-2.0449142-3.3833885L42.4917183,38.1661911l-13.9053097,6.9971428
		c-1.3883305,0.6977463-3.0906372,0.1378098-3.7896595-1.2523117l-0.2076111-0.4131775
		c-0.6995354-1.390377-0.1375561-3.0906334,1.2543564-3.7906837l10.1028671-5.1002655
		c3.7917061-1.9134941,8.0134621-2.5616379,12.2060699-1.8756561c0.7104988,0.1163673,1.4361153,0.2546883,2.1640625,0.4025993
		l11.629261,19.6637878c0.3395424,0.5747643,0.8826027,0.9825706,1.5294685,1.1485062
		c0.2070999,0.0531807,0.4172668,0.0795174,0.6253853,0.0795174c0.4418106,0,0.8774872-0.1181259,1.2676544-0.3490028
		l8.4251022-4.982399C74.9792023,47.9926682,75.3734589,46.4573212,74.671875,45.2714844z M3.3591609,45.4780731
		l12.6719189-18.9713154c0.0260792-0.0396309,0.070055-0.0608521,0.1145439-0.0608521
		c0.0260792,0,0.0526695,0.0074158,0.0756798,0.0230122l8.1479511,5.4426193
		c0.0311928,0.02071,0.051136,0.0501137,0.0582943,0.0871868c0.0071583,0.0368176,0.0005112,0.0713329-0.0204544,0.1025257
		l-12.67243,18.9718285c-0.0209656,0.0311928-0.0501127,0.0508804-0.0869312,0.0580368
		c-0.0383511,0.0076714-0.0721006,0.0002556-0.1027822-0.0204544l-8.1479502-5.4423637
		C3.3341045,45.6263657,3.3172297,45.5409698,3.3591609,45.4780731z M15.1428537,56.1518669l4.1373835-3.5107155
		c0.3911877-0.331871,0.8703289-0.493969,1.3474236-0.493969c0.5911274,0,1.1791878,0.2495422,1.5908298,0.7348175
		c0.3605061,0.4246826,0.5333443,0.9639053,0.487833,1.5189857c-0.0455093,0.554821-0.3042564,1.0587616-0.7286816,1.4190102
		l-4.1378956,3.5107193c-0.423914,0.359993-0.9633942,0.5338554-1.5187283,0.4883423
		c-0.5553322-0.0455093-1.0595293-0.304512-1.4195242-0.7289352C14.1579819,58.2136574,14.2663898,56.8953781,15.1428537,56.1518669
		z M18.740757,64.4123154c-0.3605061-0.4246788-0.5338573-0.9641609-0.4883461-1.5189819
		c0.0455112-0.5550766,0.3042564-1.059021,0.7291946-1.4192696l7.2315998-6.1352539
		c0.3911877-0.3321228,0.8698158-0.4942245,1.3469124-0.4942245c0.5911274,0,1.1791878,0.2497978,1.5908298,0.7348175
		c0.3605061,0.4246826,0.5338554,0.9641647,0.4883442,1.5189857c-0.0455112,0.5550766-0.3042564,1.0590172-0.7291946,1.4192696
		l-7.2310886,6.1355095C20.8015213,65.3966751,19.4847794,65.2887802,18.740757,64.4123154z M24.7338524,67.8941422
		c-0.7435131-0.8759537-0.6356163-2.1942291,0.2413597-2.9377441l6.6767788-5.6648026
		c0.3906765-0.331871,0.8698177-0.4942245,1.3463993-0.4942245c0.5916405,0,1.1796989,0.2497978,1.5913429,0.7350731
		c0.3605042,0.4246826,0.5333443,0.9639053,0.4878311,1.5187263c-0.0455093,0.5550804-0.3042564,1.059021-0.7291946,1.4192696
		l-1.2190094,1.0343781c-0.0891991,0.0650711-0.1783981,0.1302032-0.2634087,0.2023392l-2.4033756,2.0382652
		c-0.0861969,0.0731583-0.1652012,0.1515198-0.2443962,0.22966l-2.5460758,2.1604156
		C26.7951279,68.8795242,25.4773636,68.7700958,24.7338524,67.8941422z M31.7465916,70.480072
		c-0.3605061-0.4244308-0.5338573-0.9639053-0.4883461-1.5187302c0.0406532-0.4954758,0.2592258-0.9445038,0.6061172-1.2925797
		l2.6757336-2.2702942c0.3609543-0.2554245,0.777935-0.3886337,1.1966057-0.3886337
		c0.5916405,0,1.1796989,0.2498016,1.5913429,0.7350769c0.359993,0.4244232,0.5333443,0.9639053,0.4878349,1.5187302
		c-0.0455132,0.5548172-0.3042603,1.0590134-0.7286835,1.419014l-2.4023514,2.0387726
		C33.807869,71.4649429,32.4901047,71.3565369,31.7465916,70.480072z M24.783453,37.602932
		c-1.2359486,0.6215515-2.1558781,1.6874771-2.5900192,3.0008926c-0.4341412,1.3134193-0.3308468,2.71735,0.290451,3.9522743
		l0.2076092,0.4131737c0.621809,1.2356949,1.6874771,2.1553688,3.0011501,2.5897636
		c1.3131638,0.4341431,2.7168369,0.3316154,3.9532948-0.2909584l12.6136246-6.3472099l16.3674889,12.0449944
		c0.6044235,0.4448814,0.9991913,1.0983925,1.1122017,1.8401146s-0.0700569,1.4831886-0.5149345,2.0876122
		c-0.4443703,0.6044235-1.0978813,0.9994469-1.8398628,1.1122017c-0.7404747,0.1120834-1.4807892-0.0696106-2.0853081-0.5131798
		l-5.622364-4.137352l-1.3970222,1.897644l5.6208916,4.1362991l-0.0000648,0.000061
		c0.0006371,0.0004807,0.0013428,0.0008621,0.0019798,0.0013428l0.5328979,0.3921471
		c0.497551,0.3658752,0.8222618,0.9035645,0.915329,1.5136147c0.092556,0.610302-0.057785,1.2200966-0.4239159,1.7173882
		c-0.3656197,0.4972954-0.9030533,0.8220062-1.5131035,0.9148178c-0.6146507,0.0928116-1.2206078-0.0580406-1.7171326-0.4231491
		l-6.2446823-4.5955582l-1.3970261,1.897644l4.9315186,3.629097l0,0c1.0861206,0.7992477,1.3198128,2.3335724,0.5195389,3.4212265
		l-0.1661911,0.226532c-0.3876076,0.5266953-0.956749,0.8703308-1.6030998,0.9685059
		c-0.6478882,0.0997162-1.2921982-0.0608521-1.8183861-0.4484558l-2.4779663-1.8232727
		c-0.0016289-0.0012131-0.0030365-0.0025864-0.0046654-0.0038071l-0.0001945,0.0002594l-1.0705872-0.7877426l-1.3960037,1.8981552
		l1.0699501,0.7872314l-0.0001907,0.0002518c0.928112,0.682663,1.1275406,1.9932709,0.4443665,2.9213791
		c-0.3303337,0.4489746-0.8166351,0.7430038-1.3683891,0.8268661c-0.5507278,0.0838623-1.1035042-0.0521622-1.5458298-0.3778915
		l-1.4905396-1.1137009l0.5332832-0.4525833c0.9040756-0.7675476,1.4558296-1.8408813,1.5529861-3.02314
		c0.0966492-1.1822586-0.2725525-2.3315277-1.0395851-3.2358627c-0.5701294-0.6719208-1.3096809-1.147995-2.136734-1.3886528
		c0.2401772-0.4912224,0.3918915-1.0266113,0.4380074-1.5879517c0.0971603-1.1822548-0.2720413-2.3315277-1.0395851-3.2358627
		c-0.7675476-0.9045906-1.8413963-1.4560852-3.02314-1.55299c-0.4702568-0.0387039-0.9341202-0.0006714-1.3801823,0.103775
		c-0.0745945-0.9177589-0.427845-1.7879257-1.0354633-2.5038261c-0.7675457-0.9045868-1.8413944-1.4560852-3.0236492-1.5529861
		c-1.062088-0.0883064-2.0933971,0.2039986-2.9478092,0.8185844c-0.1489334-0.7167625-0.4740925-1.3893242-0.9609985-1.9630013
		c-1.5846939-1.8669624-4.3915272-2.0975838-6.2595119-0.513401l-3.0738897,2.6079788l-1.1566563-0.8641281
		c0.0568562-0.068264,0.1188269-0.1312561,0.1688433-0.2062035l12.67243-18.9715729
		c0.0397263-0.0594749,0.0656452-0.1246719,0.0998421-0.1865807c2.6365528-0.1478462,4.9782772-0.0628319,6.8103714,0.0912476
		L24.783453,37.602932z M72.5937271,46.6662102l-8.4251022,4.982399c-0.0332413,0.0199432-0.0690384,0.0247993-0.1073914,0.0153389
		c-0.0378342-0.0097122-0.0674973-0.0317039-0.0874405-0.0657082L52.2565765,31.7854881
		c-0.0199432-0.0337505-0.0250549-0.0700569-0.0153389-0.1078968s0.0317039-0.0672436,0.0654526-0.0871868l8.4245949-4.9821434
		c0.0230103-0.0135498,0.0465317-0.0201988,0.0715904-0.0201988c0.0117607,0,0.0240326,0.0015354,0.0363045,0.004858
		c0.038353,0.009716,0.0675011,0.0317039,0.0874443,0.0654545L72.643837,46.4711266
		C72.6837234,46.5386276,72.6612244,46.6260681,72.5937271,46.6662102z"/>
	<path fill="#EA5637" d="M13.4359465,46.2599373c1.2354374-1.6792946,0.8744192-4.0507088-0.8043633-5.2863998
		c-0.8140783-0.5990562-1.8127575-0.8452721-2.8099022-0.6926346c-0.9986792,0.1518745-1.8782115,0.6834297-2.4770098,1.4969978
		c-0.5982866,0.8133125-0.8442488,1.8112221-0.6923761,2.8096466c0.1518726,0.9986763,0.6836834,1.8779564,1.4967394,2.4764977
		c0.6565819,0.4832306,1.4328203,0.7366104,2.2330933,0.7366104c0.191247,0,0.3840284-0.0143204,0.5768099-0.0437241
		C11.9576159,47.6050606,12.8371487,47.0735054,13.4359465,46.2599373z M11.5377922,44.8634224
		c-0.2255077,0.3063049-0.5568666,0.5067558-0.9332247,0.5640259c-0.376358,0.0575294-0.7522049-0.0352821-1.0585079-0.2610474
		c-0.3068132-0.2255058-0.5067539-0.5571213-0.5640259-0.9332237c-0.057272-0.376358,0.035284-0.7522049,0.2607918-1.0587616
		c0.2255087-0.3065605,0.5568676-0.5067558,0.9332256-0.5640297c0.0726128-0.0112495,0.1452246-0.0166168,0.2173262-0.0166168
		c0.3011885,0,0.5941963,0.0953674,0.8411808,0.2774086C11.8676176,43.3370247,12.0036383,44.2306213,11.5377922,44.8634224z"/>
</g>
</svg>
