<?xml version="1.0" encoding="utf-8"?>
<!-- Generator: Adobe Illustrator 23.0.3, SVG Export Plug-In . SVG Version: 6.00 Build 0)  -->
<svg version="1.1" id="Слой_1" xmlns="http://www.w3.org/2000/svg" xmlns:xlink="http://www.w3.org/1999/xlink" x="0px" y="0px"
	 viewBox="0 0 76 76" enable-background="new 0 0 76 76" xml:space="preserve">
<g>
	<path fill="#EA5637" d="M72.0393677,18.583353c-0.1152115-0.2279587-0.2242584-0.4429798-0.3721237-0.5926933
		c-2.0861359-2.1132441-4.1581039-4.1716547-6.4561768-6.4518633c-0.4516068-0.4479084-0.9888535-0.5705137-1.5987968-0.3715115
		c-0.5243073,0.1731253-0.9136848,0.5933104-1.0412216,1.1243935c-0.127533,0.5316992,0.0283432,1.0843468,0.4183388,1.4780388
		c0.4251137,0.4300413,0.8533058,0.8557711,1.2704086,1.2710266l0.746109,0.7436399l-4.3490982,4.3503246l-0.2224121-0.1934566
		c-5.3299332-4.6552973-11.6259232-7.2651234-18.7136078-7.7586241l-0.2932663-0.0203314V4.7684069l0.3715134-0.0190997
		c0.0566788-0.0036964,0.1053543-0.0061607,0.1534081-0.0061607l6.2239037-0.0018482
		c0.145401-0.0006161,0.266777-0.0030808,0.376442-0.0252604c0.8157234-0.1645002,1.3794632-0.8797996,1.3110733-1.6628704
		c-0.075779-0.8625486-0.7380943-1.4657165-1.6092682-1.4663327c-5.6231995-0.0043128-11.2464027-0.0024644-16.8708344,0
		c-0.1263008,0-0.2717018,0.0036967-0.3973885,0.0332698c-0.8181877,0.1934574-1.3036804,0.9007472-1.2087994,1.7608312
		c0.085638,0.7738295,0.7658195,1.3585138,1.5821609,1.3603625c1.4583225,0.0024643,2.9184933,0.0012321,4.3774319,0.0018482
		l2.4416313-0.0006161v7.4148374l-0.60009,0.0560656c-0.1799011,0.017251-0.3536453,0.033885-0.5267715,0.0480556
		c-2.8279266,0.2285757-5.6330566,0.8662453-8.3383789,1.8963747c-4.1014175,1.5618296-7.7641678,3.9289093-10.8865948,7.0353165
		c-0.3567257,0.3548756-0.5304661,0.7202282-0.5458698,1.1515026c-0.0240269,0.6499901,0.3468685,1.2476139,0.9235439,1.487896
		c0.6543045,0.2741661,1.2359085,0.1725082,1.7768497-0.30867c0.2538357-0.2254944,0.5052071-0.4553013,0.7565784-0.684494
		c0.6210346-0.5674343,1.2630177-1.1533508,1.9425831-1.6782722c4.3466282-3.3571625,9.3481789-5.2923517,14.866024-5.7519674
		c2.7934227-0.2328882,5.5702133-0.0462074,8.2515068,0.5532637c6.1635284,1.3788452,11.3511391,4.5142097,15.4174423,9.3192215
		c3.8697624,4.5739708,6.0686455,9.9895458,6.535038,16.09762c0.1983871,2.5987358,0.0110855,5.226429-0.5569611,7.809761
		c-1.5316391,6.9681587-5.1869965,12.6024513-10.8656464,16.746994c-6.210968,4.5320816-13.2887955,6.2306824-21.0474205,5.0409851
		c-3.2462616-0.4972-6.405653-1.6123505-9.3894558-3.3140411c-2.0627232-1.1767578-4.0311813-2.6751328-5.850544-4.4538269
		c-0.3037395-0.2969627-0.6949673-0.4596138-1.1052933-0.4596138c-0.0073929,0-0.0154037,0-0.0234127,0
		c-0.418951,0.0067749-0.8144913,0.1811333-1.1133041,0.4922676c-0.3031235,0.3154449-0.4626942,0.7214584-0.4497566,1.1422577
		c0.0135536,0.4134064,0.1946888,0.8003235,0.5107517,1.0905075l0.3154469,0.2895737
		c0.7997055,0.7350159,1.6265202,1.495285,2.4933815,2.1613007c5.0502224,3.8826981,10.8576374,6.047081,17.2595978,6.4333801
		c3.4317093,0.2094727,6.8418579-0.1601868,10.1380234-1.0917435c6.3865585-1.805191,11.7405205-5.3330154,15.9127884-10.485508
		c3.944313-4.8709335,6.2300644-10.5766945,6.7938004-16.9583206c0.231041-2.6190681,0.1127472-5.2898865-0.351181-7.9385262
		c-0.8865738-5.0680885-2.9388199-9.708601-6.1000595-13.7933846c-0.2606201-0.3357773-0.5304718-0.6647797-0.7941628-0.9851532
		l-0.5446396-0.6684761l4.3287621-4.3293781l0.8107986,0.8089485c0.4423599,0.4429798,0.8896561,0.8908882,1.3424911,1.3332539
		c0.3493347,0.3407059,0.8138733,0.513216,1.2778015,0.4694729c0.4589996-0.0425129,0.8631668-0.2797127,1.1373367-0.6697083
		c0.0887146-0.1250687,0.1527939-0.2834091,0.2211838-0.4509888c0.0264893-0.0659237,0.0535965-0.1312313,0.0819397-0.1959229
		v-0.5440216C72.1330185,18.7694187,72.0861893,18.6763859,72.0393677,18.583353z"/>
	<path fill="#EA5637" d="M34.7686462,39.7065506c-0.9962425,1.403492-1.3757668,3.1335182-1.04245,4.7464828
		c0.7146797,3.4569702,3.968338,5.6158066,7.4173012,4.9079018c2.7084007-0.5538788,4.807476-3.0595818,4.8826408-5.8289795
		c0.0308037-1.1262436-0.2100945-2.1705437-0.7356339-3.1926613l-0.1158257-0.2248802l0.2871056-0.2372017
		c0.0554504-0.0437431,0.1096649-0.0862541,0.1577225-0.1343117l6.8646545-6.8615723
		c0.8988991-0.8976669,1.7977982-1.7953339,2.6930008-2.6966972c0.6444473-0.6487598,0.6616974-1.6166611,0.0394287-2.2506351
		c-0.3092842-0.3154469-0.7072906-0.4904194-1.120697-0.4922695c-0.0030785,0-0.0055428,0-0.0055428,0
		c-0.4244995,0-0.8360558,0.1786709-1.1613617,0.5033588c-3.2105293,3.2068329-6.4192085,6.414896-9.622345,9.6278896
		c-0.2538376,0.2556839-0.5125999,0.300045-0.8379059,0.1466331c-0.8705559-0.4103241-1.7799301-0.6161041-2.7133293-0.6161041
		c-0.2834091,0-0.5692825,0.0191002-0.8570023,0.0572968C37.2688026,37.3770561,35.7636566,38.3049088,34.7686462,39.7065506z
		 M37.6267624,41.2203255c0.5822182-0.5828362,1.3566666-0.9032135,2.181633-0.9032135c0.0036964,0,0.0067749,0,0.0104713,0
		c1.6585579,0.0055466,3.0053673,1.3720703,3.0010529,3.0466461c-0.0018463,0.8181877-0.3185272,1.5827751-0.8915062,2.1520576
		c-0.5705109,0.5674362-1.3338699,0.8791847-2.1495934,0.8791847c-0.0030785,0-0.0061607,0-0.008625,0
		c-1.6665649-0.0043144-3.0269279-1.3628273-3.0324745-3.0281639C36.734642,42.559124,37.0507011,41.7970009,37.6267624,41.2203255z
		"/>
	<path fill="#EA5637" d="M23.8808193,56.0777245c0.2871056-0.4947357,0.2914181-1.0806503,0.0123215-1.5679893
		c-0.282793-0.4928856-0.8003216-0.7886162-1.3837738-0.7910805c-2.0682678-0.0073929-4.1365376-0.0067787-6.2048054-0.0036964
		l-2.3547573,0.0012321l-2.455183-0.0012321c-0.8188047,0-1.6376095-0.000618-2.4564152-0.000618
		c-1.2266669,0-2.4533343,0.0012321-3.6800013,0.0049286c-0.8804159,0.0030823-1.5427299,0.6863441-1.5408816,1.5889397
		c0.0018485,0.8606987,0.6949677,1.5618286,1.543962,1.5624428c5.7285547,0.0055466,11.4571085,0.0055466,17.184433-0.0018463
		C23.1279373,56.8675728,23.5770779,56.6014137,23.8808193,56.0777245z"/>
	<path fill="#EA5637" d="M9.3961639,41.8173332c-0.8348236,0.1983833-1.3246279,0.9136848-1.2180414,1.7811623
		c0.093648,0.7590408,0.7719812,1.3314056,1.5778475,1.3314056l8.5577145,0.0006142l8.5583286-0.0006142
		c0.8662453-0.000618,1.5723038-0.7054443,1.5735359-1.5716896c0.0006161-0.4201813-0.163269-0.8163376-0.46208-1.1151505
		c-0.2963467-0.2969627-0.6888065-0.4602318-1.1059093-0.4602318c-5.7162342-0.0012321-11.4318495-0.0012321-17.1480827,0.0012321
		C9.6031761,41.7840614,9.491044,41.7951508,9.3961639,41.8173332z"/>
	<path fill="#EA5637" d="M5.4037967,32.9293861c2.0202117,0.0043106,4.0410399,0.0036964,6.06002,0.0024643l2.4958458-0.000618
		l2.3960371,0.000618c2.0516319,0.0012321,4.1063461,0.0024643,6.1598282-0.0030823
		c0.436203-0.0012321,0.8354397-0.163269,1.1250095-0.4571495c0.2951145-0.299427,0.4546871-0.7116032,0.4491405-1.1607456
		c-0.0110893-0.8736382-0.7183781-1.5328712-1.6456184-1.5334873L8.4251804,29.7749214
		c-0.4214163-0.0006161-0.8428326-0.0006161-1.2636333-0.0006161c-0.5883813,0-1.1773787,0.0006161-1.7657599,0.0043125
		c-0.4306583,0.0024643-0.8305111,0.1700459-1.1262422,0.4725533c-0.2994275,0.3062057-0.459615,0.7165318-0.4522219,1.154583
		C3.8321099,32.2578278,4.5289259,32.927536,5.4037967,32.9293861z"/>
	<path fill="#EA5637" d="M38.2028198,23.8510609l-0.0012321,0.2335052c-0.0018463,0.4146385-0.0036964,0.829895,0.0043144,1.2445335
		c0.0166359,0.8754864,0.6481438,1.5618286,1.4687958,1.5963306c0.9179993,0.0474415,1.6012611-0.5440216,1.6881332-1.4533939
		c0.0301895-0.3172951,0.0258751-0.6376705,0.0209465-0.9765282l-0.0030823-0.2846413
		c-0.0012321-0.2476749,0-0.4953499,0.0012321-0.743639c0.0036964-0.6315098,0.0073929-1.2839661-0.0381966-1.91609
		c-0.0548325-0.7584267-0.7220764-1.3628273-1.5193176-1.3763828c-0.7861519,0.0080109-1.4909782,0.5631218-1.5704536,1.3147717
		c-0.0474434,0.4534531-0.0357361,0.9112206-0.0234146,1.3954792c0.0055466,0.2168694,0.0110893,0.4343548,0.0110893,0.6506081
		v0.3154469H38.2028198z"/>
	<path fill="#EA5637" d="M38.2028198,63.4186287l-0.0006142,0.2408981c-0.0024643,0.402317-0.0043144,0.8040199,0.0036964,1.2057152
		c0.0172501,0.8754883,0.6635475,1.5679932,1.5026817,1.6098862c0.8705597,0.036972,1.5686073-0.5735931,1.6523972-1.4650955
		c0.0326538-0.3481064,0.0283394-0.6986694,0.0227966-1.0695648l-0.0030823-0.2864876
		c-0.0012321-0.2353516-0.0006142-0.4707031,0.000618-0.7060585c0.0024643-0.6228828,0.0049286-1.266098-0.0412788-1.889595
		c-0.0542183-0.7337837-0.7060585-1.3215485-1.4841995-1.3369522c-0.0135536-0.0006142-0.0264931-0.0006142-0.0394325-0.0006142
		c-0.8255806,0-1.4774208,0.5310822-1.556282,1.2741051c-0.0499039,0.4694748-0.0375824,0.9414101-0.0246468,1.4416885
		c0.0055466,0.2224159,0.0110931,0.444828,0.0110931,0.666626v0.3154488H38.2028198z"/>
	<path fill="#EA5637" d="M57.7481728,44.9071045c1.1712151,0.0295715,2.3880272,0.0295715,3.617775,0.0006142
		c0.8730202-0.0197144,1.5347176-0.6678581,1.5741501-1.5402641c0.0369682-0.8385201-0.5871506-1.5285606-1.4527779-1.6061897
		c-0.428196-0.0381966-0.8576202-0.0277252-1.3135376-0.0184822c-0.2051659,0.0049286-0.4103279,0.009243-0.6148758,0.009243
		L59.00811,41.7347717c-0.1823692-0.0012321-0.3653526-0.0024643-0.547718-0.0024643
		c-0.2211838,0-0.4423676,0.0018501-0.6635475,0.0067787c-0.9186134,0.0215645-1.5944824,0.6740189-1.6068039,1.5501213
		C56.1771011,44.2047424,56.8326378,44.884922,57.7481728,44.9071045z"/>
	<path fill="#EA5637" d="M53.5555687,54.8947983c-0.3320808-0.3289986-0.7319336-0.3980026-0.9451065-0.4090919
		c0,0-0.0043106,0-0.0067749,0c-0.6998978,0-1.2932091,0.3604202-1.5495071,0.9432564
		c-0.2741699,0.6222687-0.1497154,1.2710266,0.341938,1.7811623c0.4016991,0.4171066,0.8144913,0.8243523,1.2266655,1.2315979
		l0.1737442,0.1712761c0.1207542,0.1189079,0.239666,0.240284,0.3585739,0.3616562
		c0.299427,0.3055878,0.6087112,0.6210327,0.9364815,0.8896561c0.6315079,0.5181465,1.547657,0.4331245,2.1304932-0.197155
		c0.5581932-0.6031647,0.5520325-1.5334854-0.0141716-2.1181717c-0.7559624-0.7806053-1.5291748-1.5445786-2.3023872-2.3079338
		L53.5555687,54.8947983z"/>
</g>
</svg>
