<?xml version="1.0" encoding="utf-8"?>
<!-- Generator: Adobe Illustrator 23.0.3, SVG Export Plug-In . SVG Version: 6.00 Build 0)  -->
<svg version="1.1" id="Слой_1" xmlns="http://www.w3.org/2000/svg" xmlns:xlink="http://www.w3.org/1999/xlink" x="0px" y="0px"
	 viewBox="0 0 76 76" enable-background="new 0 0 76 76" xml:space="preserve">
<g>
	<path fill="#EA5637" d="M67.613884,49.2737923c0.733139-0.8375511,1.1813202-1.9304428,1.1813202-3.1283569
		c0-2.6247864-2.1355972-4.7601357-4.7662964-4.7601357l-4.3681145,0.0222282l-20.0667381-7.3633652
		c0.9536285-1.0536346,1.6945267-2.2884369,2.1709709-3.6356239c0.2310486-0.6534863,0.481308-1.3690453,0.7177773-2.061945
		c0.0658913-0.1931133,0.1196175-0.3821964,0.1751022-0.5718307c1.651947-0.6750107,2.7496109-1.6947136,3.8482895-3.0076904
		c0.4443626-0.531559,0.9291191-1.1145992,1.3917084-1.6808891c0.7478256-0.913847,1.3128853-1.835577,1.679409-2.7393246
		c0.3995323-0.984787,0.2157784-2.1003704-0.4793396-2.9110107c-0.7049675-0.8217239-1.7961655-1.1771641-2.8445015-0.9283791
		l-33.1862068,7.859333L6.143208,21.7858601l-0.7931504,2.1272202l7.5704002,2.8213501l33.8561935-8.0179634
		c0.3182449-0.0763588,0.5251541,0.1123219,0.5980644,0.1973019c0.0847359,0.098774,0.2103577,0.3054371,0.0990219,0.5795918
		c-0.2812958,0.6926517-0.729599,1.4180641-1.3330841,2.1557922c-0.4581566,0.560379-0.9370003,1.1365204-1.3759422,1.6616745
		c-0.5614281,0.6710377-1.0803604,1.2103558-1.6750717,1.6463108c-0.0525551-0.9692078-0.5914116-1.8453064-1.4561501-2.3236904
		c-0.9468536-0.5234299-2.0927353-0.4756432-2.9898338,0.1231594L10.292223,41.7111816H2.9026217v2.2700844h8.0783119
		l28.9243774-19.3373547c0.275383-0.1835079,0.531559-0.077837,0.6295929-0.0238934
		c0.1138,0.0630589,0.3034668,0.212822,0.2950897,0.5081596c-0.0216751,0.7483196-0.1886787,1.5845757-0.4960861,2.4856148
		c-0.2335129,0.6852627-0.4808159,1.3924465-0.7089081,2.0380516c-0.5074196,1.4343224-1.3931885,2.7090263-2.5617294,3.6864243
		L24.487154,43.8566284l39.5476685-0.2012444c1.3729858,0,2.4902954,1.1170616,2.4902954,2.4900513
		c0,1.3729858-1.1173096,2.4900475-2.4902954,2.4900475h-26.100071v2.2700844h27.3085213
		c1.3729858,0,2.4897995,1.1168175,2.4897995,2.4898033c0,1.3729897-1.1168137,2.4900513-2.4897995,2.4900513h-2.4878349H37.8638115
		v2.2700844h24.8916245c1.3729897,0,2.4902916,1.1170616,2.4902916,2.4900513c0,1.3729858-1.1173019,2.4897995-2.4902916,2.4897995
		H37.8638115v2.2700844h18.4473991c1.3729858,0,2.4898033,1.1170654,2.4898033,2.4900513s-1.1168175,2.4900513-2.4898033,2.4900513
		H20.0947742c-1.9873085,0-3.953928-0.3115997-5.8441887-0.9259186l-2.6193666-0.8512802
		c-0.6473293-0.2106018-1.3207684-0.3172607-2.0025826-0.3172607H2.9026217v2.2700882h6.7260146
		c0.4428835,0,0.8803482,0.0692139,1.3005705,0.2059174l2.6198597,0.8512878
		c2.1173668,0.6882172,4.3194675,1.0372467,6.5457077,1.0372467h36.2164383c2.6247864,0,4.7598877-2.1353455,4.7598877-4.7601318
		c0-0.913414-0.2630692-1.7645416-0.7108498-2.4900513h2.3951874c2.6247826,0,4.7603798-2.1353455,4.7603798-4.7598839
		c0-1.0057564-0.3155365-1.9381104-0.8500214-2.70755c1.9318924-0.6063499,3.3373642-2.4132309,3.3373642-4.5426369
		C70.0031586,51.6342773,69.0394287,50.097023,67.613884,49.2737923z M37.6981583,35.7667084l15.4626198,5.6738892
		l-22.3826103,0.1139221L37.6981583,35.7667084z"/>
	<path fill="#EA5637" d="M73.0151596,21.2607059c-0.0093613-0.2069092-0.0177383-0.3667698-0.0206909-0.4731808
		c0.0054169-0.0406418,0.0088654-0.0827637,0.0108337-0.1271019l0.0305481-0.6815662l-1.1695328-0.6961002L71.2840195,19.6313
		c-0.0379333,0.0229073-0.0734024,0.0460606-0.1064072,0.0699539c-0.0950851,0.0475407-0.2389297,0.1157703-0.425148,0.2049389
		c-1.3941727,0.6682663-5.0978394,2.4439869-8.5325279,5.0345345c-2.6036034,1.9821377-4.018959,4.5044556-3.8834839,6.9201145
		c0.1187286,2.1131802,1.4050102,4.0068874,3.6223831,5.3318424c1.332592,0.7961082,2.6868629,1.1988411,3.9716682,1.1988411
		c0.8532486,0,1.6759567-0.1778412,2.4415207-0.5359917c2.1917572-1.0256767,3.7416-3.4672012,4.2529602-6.6984272
		l0.0004959-0.0049267C73.2777328,26.9075928,73.0870819,22.8051319,73.0151596,21.2607059z M70.3824921,30.8048687
		c-0.3921432,2.473547-1.4754639,4.2938519-2.9725952,4.9946308c-1.2311096,0.5768814-2.7139511,0.3840141-4.2864609-0.5556984
		c-1.572998-0.9397087-2.4444809-2.1535759-2.5203438-3.5103054c-0.092617-1.6508369,0.9975929-3.4684334,2.9878616-4.9835472
		c2.6543465-2.0018425,5.513134-3.5058727,7.200428-4.3394203C70.8569031,24.2904434,70.8864594,27.5201912,70.3824921,30.8048687z"
		/>
	<path fill="#EA5637" d="M59.8459015,17.6252689c1.0650902,0.6362438,2.1503754,0.9581852,3.1829491,0.9581852
		c0.6931458,0,1.3626442-0.1448364,1.9863243-0.4369717c1.7887726-0.8369961,3.0006714-2.7331676,3.4130096-5.3389874
		l0.0004959-0.0049267c0.5054474-3.2873869,0.3576508-6.4555554,0.3019867-7.6482368
		c-0.0064087-0.1440973-0.0123138-0.2576509-0.0147781-0.336966c0.0034485-0.0312824,0.0059128-0.0635505,0.0073853-0.0968037
		l0.0295639-0.6781192l-1.1655884-0.698071l-0.5832901,0.3485429C66.9748993,3.7101572,66.9473114,3.7278922,66.921196,3.74612
		c-0.0714264,0.03547-0.1743927,0.0842414-0.3049393,0.1468067c-1.0764236,0.5162868-3.9361954,1.8875504-6.5944824,3.8921027
		c-2.0996323,1.5986176-3.1947708,3.564744-3.0844193,5.5360432C57.0334206,15.0334892,58.0664864,16.5619049,59.8459015,17.6252689
		z M68.3902512,5.4693747c-0.0689697,0.0689697-0.1512375,0.1330132-0.2492752,0.1879425L68.14048,5.6563315
		C68.232605,5.5989394,68.3168488,5.5378518,68.3902512,5.4693747z M66.5009766,4.3439388
		c-0.0246277,0.0963111-0.0384216,0.1982875-0.0453186,0.3054366h-0.0009918
		C66.4566422,4.5382853,66.4733887,4.4365549,66.5009766,4.3439388z M61.3927917,9.5942497
		c1.8380394-1.3857956,3.8071213-2.4597516,5.1165619-3.1208744c0.0379333,1.4658504,0.0256195,3.7073631-0.3236694,5.9818821
		c-0.2872086,1.8104525-1.0641022,3.1351614-2.132637,3.635191c-1.0892258,0.510376-2.2557983,0.0564079-3.0425453-0.4140635
		c-0.7872353-0.4699793-1.7390175-1.2823429-1.8065109-2.4824133C59.1379776,12.0158224,59.9370422,10.7026901,61.3927917,9.5942497
		z"/>
</g>
</svg>
