<?xml version="1.0" encoding="utf-8"?>
<!-- Generator: Adobe Illustrator 23.0.3, SVG Export Plug-In . SVG Version: 6.00 Build 0)  -->
<svg version="1.1" id="Слой_1" xmlns="http://www.w3.org/2000/svg" xmlns:xlink="http://www.w3.org/1999/xlink" x="0px" y="0px"
	 viewBox="0 0 588.65448 140.3625641" enable-background="new 0 0 588.65448 140.3625641" xml:space="preserve">
<g>
	<g>
		<path fill="#1E273B" d="M114.3627014,134.4182739H97.2057266l-13.4748764-33.8762817H35.7837219l-12.6914558,33.8762817H7.0320902
			l44.1067276-111.351181h16.3751755L114.3627014,134.4182739z M79.1086578,88.8448029
			c-9.4010849-24.103302-14.7022476-37.788002-15.903492-41.0541c-1.201252-3.266098-2.5347023-7.6335564-3.9970932-13.1023712
			h-0.3917122c-1.4623871,7.4943047-3.4209442,14.4315987-5.8756714,20.811882L40.0925484,88.8448029H79.1086578z"/>
		<path fill="#1E273B" d="M198.1106415,134.4182739h-71.8399124V23.0670967h15.1984177v98.1348724h56.6414948V134.4182739z"/>
	</g>
	<g>
		<path fill="#1E273B" d="M402.0846558,30.6500149c11.8721313,0,18.9327393,2.1774006,24.5505066,7.4689846
			c5.4545898,5.1333466,7.5404663,11.8206177,7.5404663,23.6444016v41.5383186
			c0,11.8237839-2.0858765,18.5142212-7.5404663,23.6475677c-5.6177673,5.288414-12.6783752,7.4658127-24.5505066,7.4658127
			H327.150238V30.6500149H402.0846558z M344.3169861,118.859993h53.4327393c10.4325867,0,13.4781189-0.6234665,16.0471191-3.1110229
			c2.5689697-2.6457901,3.2087708-5.9118881,3.2087708-15.5582733V64.8744202c0-9.6432152-0.639801-12.9124794-3.2087708-15.5551071
			c-2.5690002-2.490715-5.6145325-3.1110229-16.0471191-3.1110229h-53.4327393V118.859993z"/>
		<path fill="#1E273B" d="M469.3023682,134.4151001h-18.1329956l59.3704224-104.0752411h11.7121582l59.3704224,104.0752411
			h-18.1329346l-16.3670654-28.9359818h-61.4530029L469.3023682,134.4151001z M516.477478,51.3416367l-21.9848022,38.5823669
			h43.8063965L516.477478,51.3416367z"/>
	</g>
	<g>
		<path fill="#1E273B" d="M279.9279785,76.302681l-11.7296753-14.0737991l-0.1200256,72.1869354h22.8299561l0.1200562-71.990799
			L279.9279785,76.302681z"/>
	</g>
	
		<linearGradient id="SVGID_1_" gradientUnits="userSpaceOnUse" x1="279.4976501" y1="-16232.2783203" x2="279.4976501" y2="-16164.9794922" gradientTransform="matrix(1 0 0 -1 0 -16159.0351563)">
		<stop  offset="0" style="stop-color:#F38F1C"/>
		<stop  offset="0.1574414" style="stop-color:#F1881D"/>
		<stop  offset="0.4117502" style="stop-color:#EE7420"/>
		<stop  offset="0.7292889" style="stop-color:#E95021"/>
		<stop  offset="1" style="stop-color:#E52521"/>
	</linearGradient>
	<path fill="url(#SVGID_1_)" d="M306.078186,31.7278347c0,5.1618862-1.5812988,9.9915638-4.2959595,14.0289249l-1.0015564,1.4055748
		l0,0L279.9267273,73.243515l-21.2375488-25.4679184l0,0l-1.4231873-1.9421005l-0.0791321-0.0767365
		c-2.7146454-4.0373611-4.2697601-8.8670387-4.2697601-14.0289249c0-14.2333984,11.8868256-25.7835388,26.5674286-25.7835388
		C294.1651611,5.9442949,306.078186,17.4944363,306.078186,31.7278347z"/>
	<path fill="#1E273B" d="M293.2181396,31.4676476c0,5.8320198-4.0024719,10.7668228-9.4855957,12.3593903
		c-1.2030945,0.3476715-2.4870911,0.5383148-3.8058472,0.5383148c-1.3186646,0-2.6027527-0.1906433-3.8057556-0.5383148
		c-5.4831238-1.5814095-9.4855957-6.5161438-9.4855957-12.3593903c0-7.1105232,5.9458313-12.8864803,13.2913513-12.8864803
		C287.2607117,18.5811672,293.2181396,24.3571243,293.2181396,31.4676476z"/>
</g>
</svg>
