<?xml version="1.0" encoding="utf-8"?>
<!-- Generator: Adobe Illustrator 23.0.3, SVG Export Plug-In . SVG Version: 6.00 Build 0)  -->
<svg version="1.1" id="Слой_1" xmlns="http://www.w3.org/2000/svg" xmlns:xlink="http://www.w3.org/1999/xlink" x="0px" y="0px"
	 viewBox="0 0 76 76" enable-background="new 0 0 76 76" xml:space="preserve">
<g>
	<path fill="#E63C11" d="M73.6427155,37.4626884h-4.2982788C69.0584564,20.5990868,55.4011192,6.9412327,38.5374489,6.6553922
		V2.3574207c0-0.2968585-0.2403145-0.53745-0.5371704-0.53745c-0.2968597,0-0.5374527,0.2405914-0.5374527,0.53745v4.2980061
		C20.599329,6.9414063,6.9415445,20.5991917,6.6555653,37.4626884H2.3575592c-0.2968585,0-0.53745,0.240593-0.53745,0.5374489
		c0,0.2968597,0.2405914,0.5374527,0.53745,0.5374527h4.2980061C6.9415445,55.4013977,20.5992947,69.0585938,37.4628258,69.344574
		v4.2982788c0,0.2965851,0.240593,0.537178,0.5374527,0.537178c0.2968559,0,0.5371704-0.240593,0.5371704-0.537178v-4.2982483
		C55.4011574,69.0587692,69.0584564,55.4015007,69.3444366,38.53759h4.2982788c0.2965851,0,0.537178-0.240593,0.537178-0.5374527
		C74.1798935,37.7032814,73.9393005,37.4626884,73.6427155,37.4626884z M38.5374489,68.2702637V53.1986923
		c0-0.2965813-0.2403145-0.5371742-0.5371704-0.5371742c-0.2968597,0-0.5374527,0.240593-0.5374527,0.5371742v15.0715714
		C21.1919384,67.9845276,8.0161676,54.808754,7.7304306,38.53759h15.0712929c0.2968597,0,0.5374508-0.240593,0.5374508-0.5374527
		c0-0.2968559-0.240591-0.5374489-0.5374508-0.5374489H7.7304306C8.0161676,21.1917992,21.1919384,8.0160284,37.4628258,7.7302918
		v15.0712948c0,0.2968578,0.240593,0.5374489,0.5374527,0.5374489c0.2968559,0,0.5371704-0.240591,0.5371704-0.5374489V7.7302918
		c16.2710648,0.2855639,29.4469414,13.4614048,29.7326775,29.7323971H53.198555
		c-0.2965851,0-0.5371742,0.240593-0.5371742,0.5374489c0,0.2968597,0.2405891,0.5374527,0.5371742,0.5374527h15.0715714
		C67.9843903,54.8088608,54.8085136,67.9846954,38.5374489,68.2702637z"/>
	<path fill="#E63C11" d="M38.0002785,29.0846786c-0.2968597,0-0.5374527,0.240591-0.5374527,0.5374489v4.6189117
		c0,0.2968559,0.240593,0.5374489,0.5374527,0.5374489c0.2968559,0,0.5371704-0.240593,0.5371704-0.5374489v-4.6189117
		C38.5374489,29.3252697,38.2971344,29.0846786,38.0002785,29.0846786z"/>
	<path fill="#E63C11" d="M34.2411766,37.4626884h-4.6186333c-0.2968578,0-0.5374489,0.240593-0.5374489,0.5374489
		c0,0.2968597,0.240591,0.5374527,0.5374489,0.5374527h4.6186333c0.2968597,0,0.5374489-0.240593,0.5374489-0.5374527
		C34.7786255,37.7032814,34.5380363,37.4626884,34.2411766,37.4626884z"/>
	<path fill="#E63C11" d="M38.0002785,41.2215118c-0.2968597,0-0.5374527,0.2408676-0.5374527,0.5374489v4.6189117
		c0,0.2965813,0.240593,0.5371742,0.5374527,0.5371742c0.2968559,0,0.5371704-0.240593,0.5371704-0.5371742v-4.6189117
		C38.5374489,41.4623795,38.2971344,41.2215118,38.0002785,41.2215118z"/>
	<path fill="#E63C11" d="M46.3782883,37.4626884h-4.6189117c-0.2965813,0-0.5371704,0.240593-0.5371704,0.5374489
		c0,0.2968597,0.2405891,0.5374527,0.5371704,0.5374527h4.6189117c0.2965813,0,0.5371742-0.240593,0.5371742-0.5374527
		C46.9154625,37.7032814,46.6748695,37.4626884,46.3782883,37.4626884z"/>
</g>
</svg>
