<svg width="24" height="24" viewBox="0 0 24 24" fill="none" xmlns="http://www.w3.org/2000/svg">
<path d="M9.56592 2.39389L10.7445 1.44679C11.4858 0.851069 12.5142 0.851069 13.2556 1.44679L14.3407 2.31881" stroke="#A78307" stroke-width="1.5" stroke-miterlimit="10"/>
<path d="M19.1487 6.1825L22.8144 9.1282C23.2465 9.47543 23.5 10.0149 23.5 10.5871V21.6646C23.5 22.6783 22.7192 23.5001 21.756 23.5001H2.24398C1.28081 23.5001 0.5 22.6783 0.5 21.6646V10.5871C0.5 10.0149 0.753534 9.47543 1.18564 9.1282L4.85135 6.1825" stroke="#A78307" stroke-width="1.5" stroke-miterlimit="10"/>
<path d="M4.85132 12.4851V2.78909C4.85132 2.52938 5.05135 2.31885 5.29811 2.31885H18.7018C18.9486 2.31885 19.1486 2.52938 19.1486 2.78909V12.7168" stroke="#A78307" stroke-width="1.5" stroke-miterlimit="10"/>
<path d="M22.5676 23.2741L12.9774 16.1473C12.3884 15.7097 11.6015 15.7097 11.0126 16.1473L1.42236 23.2741" stroke="#A78307" stroke-width="1.5" stroke-miterlimit="10"/>
<path d="M22.8143 9.12805L14.4935 17.2741" stroke="#A78307" stroke-width="1.5" stroke-miterlimit="10"/>
<path d="M1.42236 9.12805L9.74316 17.2741" stroke="#A78307" stroke-width="1.5" stroke-miterlimit="10"/>
<path d="M7.02698 6.53052L17.206 6.57232" stroke="#A78307" stroke-width="1.5" stroke-miterlimit="10" stroke-linecap="round" stroke-linejoin="round"/>
<path d="M7.02698 9.45837L17.206 9.50017" stroke="#A78307" stroke-width="1.5" stroke-miterlimit="10" stroke-linecap="round" stroke-linejoin="round"/>
</svg>
