<svg width="24" height="24" viewBox="0 0 24 24" fill="none" xmlns="http://www.w3.org/2000/svg">
<path d="M11.9988 11.9071C14.2411 11.9071 16.0653 10.0829 16.0653 7.84064C16.0653 5.59839 14.2411 3.77417 11.9988 3.77417C9.75654 3.77417 7.93231 5.59839 7.93231 7.84064C7.93231 10.0829 9.75654 11.9071 11.9988 11.9071ZM11.9988 4.56564C13.8047 4.56564 15.2738 6.0348 15.2738 7.84064C15.2738 9.64651 13.8047 11.1157 11.9988 11.1157C10.193 11.1157 8.72378 9.64651 8.72378 7.84064C8.72378 6.0348 10.193 4.56564 11.9988 4.56564Z" fill="#A78307" stroke="#A78307" stroke-width="0.5"/>
<path d="M23.5 23.6496V8.73761L19.4885 7.8011C19.4783 5.81519 18.7005 3.94966 17.2951 2.54428C15.8804 1.12958 13.9995 0.350464 11.9988 0.350464C9.99807 0.350464 8.11713 1.12958 6.70242 2.54428C5.30659 3.94011 4.53007 5.7899 4.50957 7.76068L0.5 6.82451V21.7365L8.29851 23.5572L15.7015 21.8288L23.5 23.6496ZM22.7085 22.652L16.0972 21.1085V14.7692L17.6045 12.8078C18.6499 11.6289 19.2906 10.1593 19.4496 8.60477L22.7085 9.36558V22.652ZM11.9988 1.14192C15.6925 1.14192 18.6975 4.14697 18.6975 7.84064C18.6975 9.48435 18.096 11.0653 17.0037 12.2924L16.9942 12.303L11.9988 18.8035L7.01204 12.3144L6.99385 12.2924C5.9016 11.0653 5.30006 9.48433 5.30006 7.84064C5.30006 4.14697 8.3051 1.14192 11.9988 1.14192ZM1.29147 21.1085V7.82206L4.54565 8.58187C4.7006 10.1448 5.34255 11.6231 6.39303 12.8078L7.90277 14.7724V22.652L1.29147 21.1085ZM8.69424 15.8023L11.9988 20.1024L15.3058 15.7991V21.1085L8.69424 22.652V15.8023Z" fill="#A78307" stroke="#A78307" stroke-width="0.5"/>
</svg>
