<svg width="24" height="24" viewBox="0 0 24 24" fill="none" xmlns="http://www.w3.org/2000/svg">
<path d="M21.3053 17.9059L17.7859 14.3865C17.3516 13.9522 16.6476 13.9522 16.2134 14.3865L14.6544 15.9454C13.2101 15.1209 11.8916 14.1027 10.7063 12.9247C9.52833 11.7394 8.51008 10.4209 7.6856 8.97656L9.24452 7.41763C9.67876 6.9834 9.67876 6.27935 9.24452 5.84512L5.72508 2.32568C5.29085 1.89144 4.58681 1.89144 4.15257 2.32568L4.0864 2.39185L1.97129 4.50695L1.80959 4.66866C1.05451 5.42374 0.798451 6.5489 1.16544 7.5517C2.46286 11.0969 4.43072 14.1665 6.96866 16.6623C9.4645 19.2003 12.5341 21.1681 16.0793 22.4656C17.0821 22.8326 18.2073 22.5765 18.9623 21.8214L19.124 21.6597L21.2392 19.5446L21.3053 19.4784C21.7396 19.0442 21.7396 18.3402 21.3053 17.9059Z" stroke="#A78307" stroke-width="1.5" stroke-miterlimit="10" stroke-linecap="round" stroke-linejoin="round"/>
<path d="M23.1972 11.7869C23.1059 9.05477 22.0184 6.34974 19.9329 4.26427C17.8474 2.17879 15.1424 1.09121 12.4103 1" stroke="#A78307" stroke-width="1.5" stroke-miterlimit="10" stroke-linecap="round" stroke-linejoin="round"/>
<path d="M20.0335 11.9916C19.9914 10.0013 19.2112 8.0237 17.6924 6.50488C16.1735 4.98607 14.196 4.20582 12.2057 4.1637" stroke="#A78307" stroke-width="1.5" stroke-miterlimit="10" stroke-linecap="round" stroke-linejoin="round"/>
<path d="M16.8533 12.1972C16.8624 10.9523 16.3923 9.70457 15.4425 8.75473C14.4926 7.8049 13.2449 7.33481 12 7.34388" stroke="#A78307" stroke-width="1.5" stroke-miterlimit="10" stroke-linecap="round" stroke-linejoin="round"/>
</svg>
