<svg width="26" height="26" viewBox="0 0 26 26" fill="none" xmlns="http://www.w3.org/2000/svg">
<path d="M24.0568 8.32893C23.4524 6.89993 22.5872 5.61663 21.4853 4.51472C20.3834 3.4128 19.1001 2.5476 17.6711 1.94319C16.1914 1.31734 14.6198 1 13 1L12.9965 1.00002L12.9944 1C11.3766 1.00073 9.80691 1.31806 8.32892 1.94319C6.89992 2.5476 5.61663 3.4128 4.51472 4.51472C3.41279 5.61663 2.5476 6.89993 1.94319 8.32893C1.31733 9.80862 1 11.3802 1 13C1 14.6198 1.31733 16.1914 1.94319 17.6711C2.5476 19.1001 3.41279 20.3834 4.51472 21.4853C5.61663 22.5872 6.89992 23.4524 8.32892 24.0568C9.80691 24.6819 11.3766 24.9992 12.9944 25L12.9965 25L13 25C14.6198 25 16.1914 24.6827 17.6711 24.0568C19.1001 23.4524 20.3834 22.5872 21.4853 21.4853C22.5872 20.3834 23.4524 19.1001 24.0568 17.6711C24.6827 16.1914 25 14.6198 25 13C25 11.3802 24.6827 9.80862 24.0568 8.32893ZM22.2103 6.68435C21.3741 7.2539 20.1927 7.73099 18.7572 8.07902C18.5094 6.89631 18.17 5.81017 17.7473 4.8656C17.2484 3.7508 16.65 2.86783 15.9674 2.22876C18.5361 2.93724 20.7368 4.54215 22.2103 6.68435ZM18.4131 13C18.4131 14.2409 18.3251 15.4452 18.1565 16.5765C16.703 16.2933 15.0797 16.133 13.4143 16.1081V9.53803C15.0584 9.51284 16.662 9.35279 18.1008 9.07022C18.3058 10.3027 18.4131 11.629 18.4131 13ZM7.58131 13C7.58131 11.6347 7.68775 10.3137 7.89108 9.08562C9.33599 9.36359 10.9418 9.51938 12.5857 9.53966V16.1065C10.9207 16.1266 9.29517 16.2827 7.83564 16.5612C7.66848 15.4344 7.58131 14.2353 7.58131 13ZM13.4143 8.70938V1.85513C15.2217 2.08452 16.3501 3.772 16.991 5.20404C17.3913 6.09838 17.713 7.12981 17.9485 8.25583C16.5595 8.5292 15.008 8.68431 13.4143 8.70938ZM12.5857 1.85442V8.71099C10.992 8.69082 9.43796 8.53993 8.04272 8.2711C8.27854 7.13912 8.60136 6.10242 9.00341 5.20404C9.64493 3.77052 10.7751 2.08104 12.5857 1.85442ZM12.5857 16.9351V23.6881V24.1456C10.7751 23.919 9.64493 22.2295 9.00341 20.796C8.56025 19.8057 8.21364 18.6471 7.9734 17.3784C9.38696 17.1072 10.9655 16.9552 12.5857 16.9351ZM13.4143 24.1449V23.6881V16.9367C15.0346 16.9617 16.6109 17.1178 18.0182 17.3935C17.778 18.6563 17.4324 19.8096 16.991 20.796C16.3501 22.228 15.2217 23.9155 13.4143 24.1449ZM10.0246 2.23097C9.34304 2.86987 8.74546 3.7521 8.24715 4.8656C7.82218 5.81519 7.48155 6.90796 7.23337 8.09799C5.79718 7.75674 4.6098 7.28717 3.76165 6.72526C5.23372 4.5648 7.44302 2.94509 10.0246 2.23097ZM1.82854 13C1.82854 10.9717 2.37198 9.06792 3.32079 7.42654C4.25807 8.04246 5.54349 8.55119 7.08054 8.9133C6.86539 10.198 6.75277 11.5774 6.75277 13C6.75277 14.2928 6.84587 15.5497 7.02424 16.7324C5.42072 17.1073 4.09682 17.6385 3.15864 18.2829C2.31038 16.709 1.82854 14.9098 1.82854 13ZM3.57967 18.9991C4.42398 18.4044 5.65262 17.9081 7.16361 17.5509C7.4161 18.8773 7.78073 20.0922 8.24715 21.1344C8.74546 22.2479 9.34304 23.1301 10.0246 23.769C7.33435 23.0249 5.04834 21.2973 3.57967 18.9991ZM15.9674 23.7712C16.65 23.1322 17.2484 22.2492 17.7473 21.1344C18.2115 20.0971 18.5749 18.8888 18.8272 17.5697C20.3384 17.9342 21.5615 18.4388 22.3926 19.0422C20.9215 21.3211 18.6443 23.0329 15.9674 23.7712ZM22.8173 18.3275C21.8911 17.6738 20.5717 17.1339 18.9673 16.7515C19.1475 15.5631 19.2417 14.2997 19.2417 13C19.2417 11.5703 19.128 10.1843 18.9107 8.89417C20.4477 8.52489 21.7283 8.00829 22.6544 7.38409C23.6185 9.03507 24.1715 10.9541 24.1715 13C24.1715 14.9278 23.6806 16.7431 22.8173 18.3275Z" fill="#A78307" stroke="#A78307" stroke-width="0.5"/>
</svg>
