<svg width="23" height="11" viewBox="0 0 23 11" fill="none" xmlns="http://www.w3.org/2000/svg">
<path fill-rule="evenodd" clip-rule="evenodd" d="M19.2462 8.73074C17.0286 10.2415 14.357 10.9968 11.683 10.9968C9.00901 10.9968 6.33742 10.2415 4.11982 8.73074C2.89114 7.89371 1.80133 6.82452 0.92749 5.5233C1.80133 4.22209 2.89114 3.15289 4.11979 2.3159C6.33742 0.805169 9.00901 0.0498047 11.683 0.0498047C14.357 0.0498047 17.0286 0.805169 19.2462 2.3159C20.4748 3.15289 21.5646 4.22209 22.4385 5.5233C21.5647 6.82452 20.4748 7.89371 19.2462 8.73074ZM7.69946 5.5233C7.69946 6.65619 8.14534 7.6819 8.86623 8.42431C9.58707 9.16675 10.583 9.62593 11.683 9.62593C12.783 9.62593 13.7789 9.16675 14.4998 8.42431C15.2207 7.6819 15.6665 6.65619 15.6665 5.5233C15.6665 4.39038 15.2207 3.36474 14.4998 2.62229C13.7789 1.87985 12.783 1.42066 11.683 1.42066C10.583 1.42066 9.58707 1.87985 8.86623 2.62229C8.14534 3.36474 7.69946 4.39038 7.69946 5.5233Z" fill="#C4C4C4"/>
<path fill-rule="evenodd" clip-rule="evenodd" d="M13.8489 5.52323C13.8489 6.13925 13.6065 6.69699 13.2146 7.10058C12.8226 7.5042 12.2811 7.75391 11.683 7.75391C11.0849 7.75391 10.5434 7.5042 10.1514 7.10058C9.75954 6.69699 9.51709 6.13925 9.51709 5.52323C9.51709 4.90723 9.75954 4.34952 10.1514 3.94592C10.5434 3.54227 11.0849 3.2926 11.683 3.2926C12.2811 3.2926 12.8226 3.54227 13.2146 3.94592C13.6065 4.34952 13.8489 4.90723 13.8489 5.52323Z" fill="#C4C4C4"/>
</svg>
