<svg xmlns="http://www.w3.org/2000/svg" xmlns:xlink="http://www.w3.org/1999/xlink" width="110" height="110" viewBox="0 0 110 110"><defs><style>.cls-1{fill:url(#Безымянный_градиент_668);}.cls-2{fill:#af9c94;}</style><linearGradient id="Безымянный_градиент_668" x1="51.667" y1="55.208" x2="83.005" y2="55.208" gradientUnits="userSpaceOnUse"><stop offset="0" stop-color="#fff"/><stop offset="1" stop-color="#fff" stop-opacity="0"/></linearGradient></defs><title>Детали - Латка</title><g id="Детали"><g id="Латка"><g id="Цвет-48" data-name="Цвет"><path class="cls-1" d="M44.417,42.417A54.663,54.663,0,0,0,36.5,60.333l3.667,47.833-13.583,1.417-7.5-32.75A66.351,66.351,0,0,1,22,40.417,182.024,182.024,0,0,1,37.667,6.5L50.333.833C72,3.167,84.911,17.6,84.333,35.167,83.5,60.5,62,71.167,44.583,70.667Z"/><path class="cls-2" d="M18.084,68.848a3.115,3.115,0,0,0,1.574,2.3A4.465,4.465,0,0,0,26.1,69.081c1.186-2.8.369-5.938.623-8.867.207-2.383.933-6.051-.321-8.2a4.774,4.774,0,0,0-3.924-2.443,3.651,3.651,0,0,0-3.532,2.28A59.71,59.71,0,0,0,18.084,68.848Z"/></g><g id="Контур-48" data-name="Контур"><path d="M28.478,103.242a1.5,1.5,0,1,0,1.5,1.5A1.5,1.5,0,0,0,28.478,103.242Zm0,2a.5.5,0,1,1,.5-.5A.5.5,0,0,1,28.478,105.242ZM25.1,91.051a1.5,1.5,0,1,0-1.5-1.5A1.5,1.5,0,0,0,25.1,91.051Zm0-2a.5.5,0,1,1-.5.5A.5.5,0,0,1,25.1,89.051ZM86.5,17.542H42.517A57.821,57.821,0,0,0,38.368,6.634L51.014,1.251a.5.5,0,1,0-.392-.92L37.489,5.921a108.457,108.457,0,0,0-.133.092.485.485,0,0,0-.062.07.479.479,0,0,0-.039.044,198.581,198.581,0,0,0-16.317,36,66.445,66.445,0,0,0-1.912,36.619l7.125,30.871a.5.5,0,0,0,.487.388l.046,0,13.5-1.228a.5.5,0,0,0,.453-.536l-3.676-47.8a62.529,62.529,0,0,1,6.975-16.452V72.134a.5.5,0,0,0,1,0V38.912a83.792,83.792,0,0,0-2.166-20.37H74.626v13a.5.5,0,0,0,1,0v-13H78.31v13a.5.5,0,1,0,1,0v-13H86.5a.5.5,0,0,0,0-1ZM19.373,52.082a.457.457,0,0,0,.037-.057,3.165,3.165,0,0,1,3.066-1.959h.005a4.275,4.275,0,0,1,3.485,2.2c.956,1.642.646,4.375.4,6.571-.054.476-.1.926-.141,1.339a25.418,25.418,0,0,0-.007,3.175,12.638,12.638,0,0,1-.578,5.54,3.966,3.966,0,0,1-5.717,1.838,2.6,2.6,0,0,1-1.336-1.914.492.492,0,0,0-.08-.224A65.377,65.377,0,0,1,19.373,52.082Zm.611,26.363,2.428.231a4.124,4.124,0,0,1,3.666,3.281l3.6,17.275-4.767.545L20,78.517C19.993,78.493,19.989,78.469,19.984,78.445Zm5.148,22.313,4.745-.542,1.734,8.33-4.585.417Zm7.482,7.7L30.875,100.1l8.064-.921.665,8.639Zm11.323-66.36a.477.477,0,0,0-.077.081,64.1,64.1,0,0,0-7.888,18.1.508.508,0,0,0-.013.158l2.9,37.748-8.192.936L27.057,81.754a5.121,5.121,0,0,0-4.55-4.074l-2.741-.261q-.672-3.158-1.032-6.348a4.345,4.345,0,0,0,.665.507A5.009,5.009,0,0,0,22,72.3a4.918,4.918,0,0,0,1.5-.232,5.032,5.032,0,0,0,3.053-2.79,13.582,13.582,0,0,0,.657-5.971,24.708,24.708,0,0,1,0-3.049c.035-.4.085-.847.138-1.312.266-2.344.6-5.26-.525-7.188a5.229,5.229,0,0,0-4.349-2.691h-.008a4.429,4.429,0,0,0-2.672.863,65.435,65.435,0,0,1,2.08-7.48,198.444,198.444,0,0,1,15.769-35c3.317,6.827,6.286,15.506,6.286,31.462Z"/></g></g></g></svg>