<svg xmlns="http://www.w3.org/2000/svg" xmlns:xlink="http://www.w3.org/1999/xlink" width="110" height="110" viewBox="0 0 110 110"><defs><style>.cls-1{fill:url(#Безымянный_градиент_1183);}.cls-2{fill:#af9c94;}.cls-3{fill:#fff;}</style><radialGradient id="Безымянный_градиент_1183" cx="55.333" cy="81.002" r="77.71" gradientTransform="translate(1.467 136.335) rotate(-90) scale(1 0.665)" gradientUnits="userSpaceOnUse"><stop offset="0.596" stop-color="#fff"/><stop offset="0.723" stop-color="#fff" stop-opacity="0.652"/><stop offset="0.859" stop-color="#fff" stop-opacity="0.304"/><stop offset="0.954" stop-color="#fff" stop-opacity="0.085"/><stop offset="1" stop-color="#fff" stop-opacity="0"/></radialGradient></defs><title>Детали - Круглая декоративная деталь</title><g id="Детали"><g id="Круглая_декоративная_деталь" data-name="Круглая декоративная деталь"><g id="Цвет-52" data-name="Цвет"><path class="cls-1" d="M106.872,0V87.754c-14.9-4.5-34.734-7.17-51.872-7.17s-36.971,2.67-51.872,7.17V0Z"/><path class="cls-2" d="M34.56,81.577Q34.5,80.8,34.5,80a20.5,20.5,0,0,1,41,0q0,.8-.06,1.579A194.3,194.3,0,0,0,34.56,81.577Z"/><path class="cls-3" d="M55,62A18.023,18.023,0,0,1,72.962,78.825C66.919,78.277,60.849,78,54.881,78c-5.945,0-11.934.275-17.843.819A18.024,18.024,0,0,1,55,62m0-2.5A20.5,20.5,0,0,0,34.5,80q0,.8.06,1.577A191.544,191.544,0,0,1,54.881,80.5,197.9,197.9,0,0,1,75.44,81.579Q75.5,80.8,75.5,80A20.5,20.5,0,0,0,55,59.5Z"/></g><g id="Контур-52" data-name="Контур"><path d="M109.657,88.025a169.409,169.409,0,0,0-33.7-6.854c.021-.389.044-.777.044-1.171a21,21,0,0,0-42,0c0,.394.023.782.044,1.171a169.409,169.409,0,0,0-33.7,6.854.5.5,0,0,0,.314.949c10.589-3.5,24.178-6.046,37.843-7.23.016,0,.03.009.046.009h.039a.48.48,0,0,0,.076-.021C44.16,81.258,49.67,81,55,81c18.627,0,39.45,3.056,54.343,7.975A.5.5,0,0,0,109.5,89a.5.5,0,0,0,.157-.975ZM39.026,80.7c-.01-.232-.026-.462-.026-.7a16.116,16.116,0,0,1,.176-2.3c.384-.032.769-.072,1.153-.1a.5.5,0,0,0,.459-.537.509.509,0,0,0-.537-.459q-1.994.157-4,.352a.5.5,0,0,0,.048,1l.05,0c.6-.059,1.2-.106,1.806-.16A17.159,17.159,0,0,0,38,80c0,.263.017.521.029.781q-1.5.133-2.988.288C35.022,80.714,35,80.359,35,80a19.987,19.987,0,0,1,39.759-2.943q-1.535-.158-3.068-.293c-.062-.32-.131-.639-.212-.955a.494.494,0,0,0-.607-.361.5.5,0,0,0-.361.607A16.065,16.065,0,0,1,71,79.892a.5.5,0,0,0,.5.5h0a.5.5,0,0,0,.5-.5,17.125,17.125,0,0,0-.144-2.1q1.523.136,3.047.291c.061.634.1,1.275.1,1.925,0,.36-.022.714-.041,1.069A196.027,196.027,0,0,0,55,80C49.788,80,44.405,80.246,39.026,80.7Zm-17.1-1.334a.5.5,0,0,1,.411-.575q1.967-.33,3.963-.622a.509.509,0,0,1,.567.423.5.5,0,0,1-.423.567q-1.983.29-3.943.618a.476.476,0,0,1-.083.007A.5.5,0,0,1,21.927,79.362Zm6.924-1.049a.5.5,0,0,1,.431-.562q1.985-.262,3.982-.486a.5.5,0,0,1,.111.994q-1.985.223-3.963.484a.5.5,0,0,1-.562-.431ZM8.228,82.249a.5.5,0,0,1,.361-.607q1.916-.485,3.9-.934a.5.5,0,0,1,.221.975q-1.975.445-3.879.928a.489.489,0,0,1-.123.016A.5.5,0,0,1,8.228,82.249Zm6.819-1.584a.5.5,0,0,1,.388-.591q1.945-.4,3.939-.769a.51.51,0,0,1,.582.4.5.5,0,0,1-.4.582q-1.98.363-3.916.763a.457.457,0,0,1-.1.011A.5.5,0,0,1,15.047,80.665Zm76.52-.677a.5.5,0,0,1,.586-.4q1.991.384,3.931.8a.5.5,0,0,1-.1.988.494.494,0,0,1-.106-.012q-1.928-.416-3.909-.8A.5.5,0,0,1,91.566,79.988Zm13.631,3.19a.5.5,0,0,1,.619-.342c1.314.381,2.606.78,3.841,1.188A.5.5,0,0,1,109.5,85a.5.5,0,0,1-.157-.025c-1.222-.4-2.5-.8-3.8-1.177A.5.5,0,0,1,105.2,83.179Zm-6.778-1.752a.493.493,0,0,1,.6-.371q1.985.469,3.895.975a.5.5,0,0,1-.128.983.485.485,0,0,1-.128-.017q-1.9-.5-3.869-.969A.5.5,0,0,1,98.419,81.427ZM1.5,84.174a.5.5,0,0,1,.327-.626c1.236-.389,2.533-.771,3.854-1.136a.5.5,0,1,1,.266.963c-1.31.362-2.6.741-3.821,1.126a.468.468,0,0,1-.149.023A.5.5,0,0,1,1.5,84.174Zm83.169-5.359a.5.5,0,0,1,.57-.418q1.994.309,3.956.652a.5.5,0,0,1-.085.992.436.436,0,0,1-.087-.008q-1.953-.341-3.937-.648A.5.5,0,0,1,84.666,78.814Zm-6.937-.933a.512.512,0,0,1,.556-.437q2,.24,3.978.516a.5.5,0,0,1-.068,1,.567.567,0,0,1-.07,0q-1.972-.274-3.958-.514A.5.5,0,0,1,77.729,77.882ZM54.774,76.5a.5.5,0,0,1-.5.5q-1.973.009-3.988.064h-.014a.5.5,0,0,1-.014-1q2.024-.056,4.012-.064h0A.5.5,0,0,1,54.774,76.5Zm7,.131a.5.5,0,0,1-.5.482h-.018q-2.011-.072-3.989-.1a.5.5,0,0,1,.007-1h.007q1.988.026,4.011.1A.5.5,0,0,1,61.774,76.631Zm6.991.395a.5.5,0,0,1-.5.464H68.23q-2-.144-3.983-.245a.5.5,0,0,1-.474-.524.487.487,0,0,1,.524-.474q1.994.1,4,.245A.5.5,0,0,1,68.766,77.025Zm-20.991-.376a.5.5,0,0,1-.479.521q-1.979.085-3.984.213H43.28a.5.5,0,0,1-.031-1q2.013-.127,4-.215A.5.5,0,0,1,47.774,76.649Zm-6.2-6.252a.5.5,0,0,1,.136.694,15.95,15.95,0,0,0-1.753,3.449.5.5,0,0,1-.939-.342,16.932,16.932,0,0,1,1.862-3.666A.5.5,0,0,1,41.572,70.4ZM65.5,67.927a16.092,16.092,0,0,0-3.2-2.17.5.5,0,0,1,.457-.889,17.07,17.07,0,0,1,3.4,2.3.5.5,0,1,1-.656.754ZM52.888,64.14a15.823,15.823,0,0,0-3.743.966.486.486,0,0,1-.184.035.5.5,0,0,1-.184-.965,16.875,16.875,0,0,1,3.979-1.028.5.5,0,1,1,.131.992ZM70.449,72.9a.5.5,0,1,1-.908.418,16.119,16.119,0,0,0-2.03-3.292.5.5,0,0,1,.781-.623A17.1,17.1,0,0,1,70.449,72.9ZM59.6,64.672a16.028,16.028,0,0,0-3.812-.653.5.5,0,0,1-.475-.523.483.483,0,0,1,.523-.475,16.97,16.97,0,0,1,4.051.694.5.5,0,0,1-.144.979A.492.492,0,0,1,59.6,64.672ZM42.832,68.846a.5.5,0,0,1-.01-.707,17.05,17.05,0,0,1,3.2-2.577.5.5,0,1,1,.527.85,16.03,16.03,0,0,0-3.012,2.425.5.5,0,0,1-.707.01Z"/></g></g></g></svg>