<svg xmlns="http://www.w3.org/2000/svg" width="73" height="85" viewBox="0 0 73 85">
    <g fill="none" fill-rule="evenodd">
        <path stroke="#5967AD" stroke-linecap="round" stroke-linejoin="round" stroke-width="2" d="M69 33.69c0 17.218-8.053 28.604-14.81 35.124C46.522 76.214 38.322 79.5 36.5 79.5c-1.822 0-10.022-3.287-17.69-10.686C12.054 62.293 4 50.908 4 33.69V17.119c11.442-3.2 22.098-7.665 32.501-13.619C46.644 9.296 57.831 13.983 69 17.118V33.69z"/>
        <path stroke="#5967AD" stroke-linecap="round" stroke-linejoin="round" stroke-width="2" d="M65 34.512c0 15.405-7.062 25.593-12.987 31.427C45.289 72.559 38.099 75.5 36.5 75.5c-1.597 0-8.788-2.94-15.512-9.561C15.062 60.105 8 49.917 8 34.512V19.686C18.034 16.823 27.378 12.828 36.5 7.5c8.896 5.187 18.706 9.38 28.5 12.186v14.826z"/>
        <path fill="#E5EFF7" d="M52.187 29.142a2.24 2.24 0 0 1 1.58-.642c.597 0 1.158.228 1.58.642.87.855.87 2.248 0 3.104L33.35 53.858a2.24 2.24 0 0 1-1.58.642 2.24 2.24 0 0 1-1.58-.642L19.654 43.505a2.17 2.17 0 0 1-.001-3.103 2.24 2.24 0 0 1 1.58-.643c.597 0 1.158.228 1.58.642l7.695 7.562c.335.328.788.513 1.262.513s.927-.185 1.262-.513l19.155-18.821z"/>
        <path stroke="#5967AD" stroke-linecap="round" stroke-linejoin="round" stroke-width="1.768" d="M51.188 26.142a2.243 2.243 0 0 1 1.58-.642c.596 0 1.157.228 1.579.642a2.17 2.17 0 0 1 0 3.104L32.35 50.858a2.24 2.24 0 0 1-1.58.642 2.24 2.24 0 0 1-1.58-.642L18.653 40.506a2.17 2.17 0 0 1 0-3.104 2.24 2.24 0 0 1 1.58-.643 2.24 2.24 0 0 1 1.58.643l7.695 7.561c.335.328.788.513 1.262.513a1.8 1.8 0 0 0 1.262-.513l19.156-18.821z"/>
    </g>
</svg>
