<svg xmlns="http://www.w3.org/2000/svg" xmlns:xlink="http://www.w3.org/1999/xlink" width="100" height="85" viewBox="0 0 100 85">
    <defs>
        <path id="a" d="M0 75.174h92.305V.665H0z"/>
    </defs>
    <g fill="none" fill-rule="evenodd">
        <path fill="#E5EFF7" d="M48 39.377V37h-7v10zM41 54.451V64h7V50zM24 48l-7-4.39V34h7zM6 79h7V55H6zM29 34h7V24h-7z"/>
        <g transform="translate(4 3)">
            <path stroke="#5967AD" stroke-linecap="round" stroke-linejoin="round" stroke-width="2" d="M11.7 48.76a25.33 25.33 0 0 0 3.994 2.362h-3.995v-2.363zM18.898 29.808v15.02a19.044 19.044 0 0 1-7.199-5.882v-9.138h7.2z"/>
            <path fill="#FEFEFE" d="M15.3 24.933v4.88"/>
            <path stroke="#5967AD" stroke-linecap="round" stroke-linejoin="round" stroke-width="2" d="M15.3 24.933v4.88"/>
            <path fill="#FEFEFE" d="M39.217 60.017v7.643"/>
            <path stroke="#5967AD" stroke-linecap="round" stroke-linejoin="round" stroke-width="2" d="M39.217 60.017v7.643"/>
            <path fill="#FEFEFE" d="M15.3 51.447v11.436"/>
            <path stroke="#5967AD" stroke-linecap="round" stroke-linejoin="round" stroke-width="2" d="M15.3 51.447v11.436"/>
            <mask id="b" fill="#fff">
                <use xlink:href="#a"/>
            </mask>
            <path stroke="#5967AD" stroke-linecap="round" stroke-linejoin="round" stroke-width="2" d="M.831 73.827h7.194V49.914H.83z" mask="url(#b)"/>
            <g mask="url(#b)">
                <path fill="#FEFEFE" d="M4.428 46.077v3.837"/>
                <path stroke="#5967AD" stroke-linecap="round" stroke-linejoin="round" stroke-width="2" d="M4.428 46.077v3.837"/>
            </g>
            <path stroke="#5967AD" stroke-linecap="round" stroke-linejoin="round" stroke-width="2" d="M23.147 29.61h7.193V19.47h-7.193z" mask="url(#b)"/>
            <g mask="url(#b)">
                <path fill="#FEFEFE" d="M26.744 29.61v4.57"/>
                <path stroke="#5967AD" stroke-linecap="round" stroke-linejoin="round" stroke-width="2" d="M26.744 29.61v4.57"/>
            </g>
            <path stroke="#5967AD" stroke-linecap="round" stroke-linejoin="round" stroke-width="2" d="M42.813 32.65v5.8a19.27 19.27 0 0 1-7.191 6.196V32.651h7.19zM35.622 52.278a25.691 25.691 0 0 0 7.191-3.8v11.367h-7.19v-7.567z" mask="url(#b)"/>
            <g mask="url(#b)">
                <path fill="#FEFEFE" d="M39.217 24.66v7.992"/>
                <path stroke="#5967AD" stroke-linecap="round" stroke-linejoin="round" stroke-width="2" d="M39.217 24.66v7.992"/>
            </g>
            <path stroke="#5967AD" stroke-linecap="round" stroke-linejoin="round" stroke-width="2" d="M46.21 28.264a18.877 18.877 0 0 1-3.397 10.186 19.255 19.255 0 0 1-7.19 6.196 19.083 19.083 0 0 1-9.219 1.99 19.011 19.011 0 0 1-7.506-1.809 19.05 19.05 0 0 1-7.2-5.881 18.898 18.898 0 0 1-3.76-12.012C8.311 16.426 17.172 8.198 27.742 8.57c10.57.364 18.832 9.186 18.467 19.694zM27.99 1.507C13.501 1.012 1.352 12.279.847 26.695c-.316 9.02 4.01 17.141 10.852 22.065 1.245.9 2.583 1.692 3.995 2.362a26.161 26.161 0 0 0 10.462 2.568c3.322.117 6.51-.387 9.466-1.412a25.71 25.71 0 0 0 7.191-3.8C48.941 43.91 53.009 36.715 53.3 28.513c.506-14.408-10.827-26.5-25.309-27.005z" mask="url(#b)"/>
            <path stroke="#5967AD" stroke-linecap="round" stroke-linejoin="round" stroke-width="2" d="M90.248 61.065L62.858 42.89c-1.208-.803-2.788-.559-3.528.545l-.44.654-7.722-5.216-2.993 4.385 7.758 5.241-.17.253c-.74 1.104-.36 2.649.848 3.45l27.39 18.176c1.209.802 2.789.559 3.53-.545l3.565-5.316c.74-1.103.361-2.649-.848-3.452zM55.763 48.752l3.128-4.663" mask="url(#b)"/>
        </g>
    </g>
</svg>
