<svg version="1.1" id="Слой_1" xmlns="http://www.w3.org/2000/svg" xmlns:xlink="http://www.w3.org/1999/xlink" x="0px" y="0px" viewBox="0 0 32 32" enable-background="new 0 0 32 32" xml:space="preserve">
        <path fill="#fff" d="M17.3,20.1c-0.4,0.4-0.4,1.1,0,1.5c0.4,0.4,1.1,0.4,1.5,0l4.8-4.8c0.2-0.2,0.3-0.5,0.3-0.8c0-0.3-0.1-0.6-0.3-0.8
        l-4.8-4.8c-0.4-0.4-1.1-0.4-1.5,0c-0.4,0.4-0.4,1.1,0,1.5l3.1,3.1H1c-0.6,0-1,0.4-1,1v0c0,0.6,0.4,1,1,1h19.4L17.3,20.1z M29,0H14
        c-1.7,0-3,1.3-3,3v8c0,0.6,0.4,1,1,1s1-0.4,1-1V4c0-1.1,0.9-2,2-2h13c1.1,0,2,0.9,2,2v24c0,1.1-0.9,2-2,2H15c-1.1,0-2-0.9-2-2v-7
        h0c0,0,0,0,0,0c0-0.6-0.4-1-1-1s-1,0.4-1,1c0,0,0,0,0,0h0v8c0,1.7,1.3,3,3,3h15c1.7,0,3-1.3,3-3V3C32,1.3,30.7,0,29,0z"></path>
        </svg>