# 3ds Max Wavefront OBJ Exporter v0.97b - (c)2007 guruware
# File Created: 06.02.2019 06:10:45

mtllib Butterfly.mtl

#
# object Butterfly
#

v  -0.0678 5.3584 0.2199
v  -0.0444 5.3737 0.2174
v  -0.0695 5.3843 0.2046
v  -0.0887 5.3693 0.2074
v  -0.0939 5.3957 0.1912
v  -0.1100 5.3802 0.1946
v  -0.1175 5.4080 0.1770
v  -0.1322 5.3910 0.1811
v  -0.1401 5.4212 0.1620
v  -0.1521 5.4038 0.1664
v  -0.1602 5.4355 0.1448
v  -0.1746 5.4145 0.1490
v  -0.1778 5.4511 0.1252
v  -0.1830 5.4347 0.1315
v  -0.1914 5.4668 0.1044
v  -0.1954 5.4391 0.1205
v  -0.1962 5.4114 0.1376
v  -0.1955 5.3840 0.1549
v  -0.1752 5.3875 0.1638
v  -0.1930 5.3572 0.1714
v  -0.1714 5.3640 0.1785
v  -0.1894 5.3307 0.1872
v  -0.1684 5.3402 0.1919
v  -0.1851 5.3044 0.2022
v  -0.1641 5.3172 0.2051
v  -0.1805 5.2781 0.2169
v  -0.1588 5.2947 0.2181
v  -0.1369 5.3113 0.2193
v  -0.1436 5.3296 0.2077
v  -0.1145 5.3274 0.2200
v  -0.1246 5.3408 0.2095
v  -0.0916 5.3431 0.2204
v  -0.1075 5.3547 0.2088
v  -0.1245 5.3644 0.1977
v  -0.1472 5.3712 0.1855
v  -0.1585 5.3874 0.1723
v  -0.1481 5.3481 0.1968
v  -0.1326 5.3514 0.2013
v  0.0719 5.3849 0.2108
v  0.0472 5.3744 0.2245
v  0.0702 5.3582 0.2248
v  0.0910 5.3694 0.2117
v  0.1946 5.4394 0.1211
v  0.1896 5.4670 0.1047
v  0.1767 5.4510 0.1265
v  0.1821 5.4349 0.1327
v  0.1595 5.4358 0.1459
v  0.1735 5.4146 0.1499
v  0.1396 5.4216 0.1636
v  0.1514 5.4034 0.1677
v  0.1184 5.4083 0.1804
v  0.1326 5.3906 0.1835
v  0.0956 5.3962 0.1960
v  0.1115 5.3799 0.1980
v  0.1618 5.2950 0.2202
v  0.1841 5.2790 0.2190
v  0.1875 5.3052 0.2036
v  0.1662 5.3174 0.2065
v  0.1906 5.3315 0.1880
v  0.1698 5.3402 0.1931
v  0.1935 5.3579 0.1722
v  0.1717 5.3639 0.1793
v  0.1951 5.3847 0.1556
v  0.1750 5.3875 0.1646
v  0.1956 5.4118 0.1386
v  0.0937 5.3424 0.2240
v  0.1094 5.3542 0.2118
v  0.1167 5.3267 0.2227
v  0.1265 5.3403 0.2118
v  0.1394 5.3109 0.2214
v  0.1455 5.3292 0.2094
v  0.1582 5.3871 0.1732
v  0.1479 5.3707 0.1868
v  0.1494 5.3479 0.1980
v  0.1258 5.3639 0.2000
v  0.1340 5.3507 0.2033
# 76 vertices

vn -0.2504 0.4811 0.8402
vn -0.2271 0.4849 0.8446
vn -0.2403 0.4694 0.8497
vn -0.2682 0.4638 0.8444
vn -0.2623 0.4560 0.8505
vn -0.2846 0.4544 0.8441
vn -0.2856 0.4509 0.8456
vn -0.3115 0.4453 0.8394
vn -0.3402 0.4465 0.8276
vn -0.3680 0.4490 0.8142
vn -0.4192 0.4488 0.7892
vn -0.4426 0.4470 0.7774
vn -0.5279 0.4451 0.7234
vn -0.4990 0.4414 0.7458
vn -0.5175 0.4855 0.7046
vn -0.4762 0.4852 0.7334
vn -0.4666 0.4687 0.7501
vn -0.4214 0.4632 0.7796
vn -0.4158 0.4388 0.7966
vn -0.4041 0.4397 0.8021
vn -0.3836 0.4301 0.8172
vn -0.3755 0.4234 0.8244
vn -0.3685 0.4148 0.8320
vn -0.3655 0.4097 0.8358
vn -0.3591 0.4086 0.8391
vn -0.3583 0.4077 0.8399
vn -0.3540 0.4046 0.8432
vn -0.3402 0.4108 0.8459
vn -0.3417 0.4121 0.8447
vn -0.3152 0.4199 0.8511
vn -0.3182 0.4198 0.8500
vn -0.2908 0.4457 0.8466
vn -0.2987 0.4394 0.8472
vn -0.3112 0.4409 0.8419
vn -0.3435 0.4280 0.8359
vn -0.3906 0.4167 0.8209
vn -0.3507 0.4171 0.8385
vn -0.3277 0.4256 0.8435
vn 0.3044 0.4271 0.8514
vn 0.2906 0.4308 0.8544
vn 0.3022 0.4322 0.8496
vn 0.3257 0.4252 0.8445
vn 0.4886 0.4987 0.7159
vn 0.5311 0.5007 0.6835
vn 0.5405 0.4561 0.7070
vn 0.5078 0.4279 0.7477
vn 0.4417 0.4391 0.7824
vn 0.4391 0.4461 0.7798
vn 0.3921 0.4347 0.8108
vn 0.4031 0.4388 0.8031
vn 0.3582 0.4321 0.8276
vn 0.3705 0.4316 0.8225
vn 0.3326 0.4276 0.8406
vn 0.3472 0.4298 0.8335
vn 0.3548 0.4342 0.8280
vn 0.3580 0.4365 0.8254
vn 0.3635 0.4385 0.8219
vn 0.3601 0.4327 0.8265
vn 0.3804 0.4414 0.8127
vn 0.3718 0.4359 0.8196
vn 0.3878 0.4561 0.8010
vn 0.3842 0.4440 0.8095
vn 0.4169 0.4697 0.7782
vn 0.4082 0.4478 0.7955
vn 0.4452 0.4813 0.7551
vn 0.3285 0.4322 0.8398
vn 0.3447 0.4206 0.8392
vn 0.3435 0.4285 0.8357
vn 0.3498 0.4242 0.8353
vn 0.3492 0.4297 0.8327
vn 0.3558 0.4288 0.8304
vn 0.3958 0.4314 0.8107
vn 0.3759 0.4299 0.8210
vn 0.3631 0.4287 0.8273
vn 0.3565 0.4265 0.8313
vn 0.3595 0.4226 0.8320
# 76 vertex normals

vt 0.2081 0.0750 0.0000
vt 0.2113 0.0864 0.0000
vt 0.1983 0.0842 0.0000
vt 0.1966 0.0739 0.0000
vt 0.1853 0.0823 0.0000
vt 0.1851 0.0726 0.0000
vt 0.1722 0.0807 0.0000
vt 0.1733 0.0708 0.0000
vt 0.1591 0.0792 0.0000
vt 0.1614 0.0700 0.0000
vt 0.1460 0.0780 0.0000
vt 0.1485 0.0672 0.0000
vt 0.1328 0.0769 0.0000
vt 0.1371 0.0706 0.0000
vt 0.1197 0.0761 0.0000
vt 0.1299 0.0678 0.0000
vt 0.1402 0.0595 0.0000
vt 0.1505 0.0512 0.0000
vt 0.1577 0.0581 0.0000
vt 0.1608 0.0430 0.0000
vt 0.1673 0.0511 0.0000
vt 0.1710 0.0347 0.0000
vt 0.1764 0.0434 0.0000
vt 0.1813 0.0264 0.0000
vt 0.1855 0.0363 0.0000
vt 0.1916 0.0182 0.0000
vt 0.1949 0.0295 0.0000
vt 0.1982 0.0409 0.0000
vt 0.1896 0.0458 0.0000
vt 0.2015 0.0523 0.0000
vt 0.1931 0.0546 0.0000
vt 0.2048 0.0637 0.0000
vt 0.1949 0.0639 0.0000
vt 0.1853 0.0632 0.0000
vt 0.1744 0.0598 0.0000
vt 0.1645 0.0626 0.0000
vt 0.1817 0.0514 0.0000
vt 0.1866 0.0564 0.0000
vt 0.0262 0.0829 0.0000
vt 0.0132 0.0851 0.0000
vt 0.0165 0.0737 0.0000
vt 0.0280 0.0726 0.0000
vt 0.0946 0.0664 0.0000
vt 0.1049 0.0747 0.0000
vt 0.0918 0.0756 0.0000
vt 0.0875 0.0693 0.0000
vt 0.0786 0.0766 0.0000
vt 0.0761 0.0658 0.0000
vt 0.0655 0.0779 0.0000
vt 0.0633 0.0686 0.0000
vt 0.0523 0.0793 0.0000
vt 0.0514 0.0694 0.0000
vt 0.0393 0.0810 0.0000
vt 0.0396 0.0712 0.0000
vt 0.0297 0.0282 0.0000
vt 0.0330 0.0168 0.0000
vt 0.0432 0.0251 0.0000
vt 0.0391 0.0349 0.0000
vt 0.0535 0.0333 0.0000
vt 0.0482 0.0420 0.0000
vt 0.0638 0.0416 0.0000
vt 0.0573 0.0496 0.0000
vt 0.0741 0.0499 0.0000
vt 0.0669 0.0566 0.0000
vt 0.0844 0.0582 0.0000
vt 0.0198 0.0623 0.0000
vt 0.0298 0.0625 0.0000
vt 0.0231 0.0509 0.0000
vt 0.0315 0.0532 0.0000
vt 0.0264 0.0395 0.0000
vt 0.0350 0.0445 0.0000
vt 0.0602 0.0612 0.0000
vt 0.0503 0.0584 0.0000
vt 0.0430 0.0500 0.0000
vt 0.0394 0.0618 0.0000
vt 0.0380 0.0550 0.0000
# 76 texture coords

o Butterfly
g Butterfly
usemtl Unwrap_Texture_Checker_Material
s 1
f 1/1/1 2/2/2 3/3/3 4/4/4 
f 4/4/4 3/3/3 5/5/5 6/6/6 
f 6/6/6 5/5/5 7/7/7 8/8/8 
f 7/7/7 9/9/9 10/10/10 8/8/8 
f 9/9/9 11/11/11 12/12/12 10/10/10 
f 11/11/11 13/13/13 14/14/14 12/12/12 
f 13/13/13 15/15/15 16/16/16 14/14/14 
f 14/14/14 16/16/16 17/17/17 12/12/12 
f 12/12/12 17/17/17 18/18/18 19/19/19 
f 19/19/19 18/18/18 20/20/20 21/21/21 
f 20/20/20 22/22/22 23/23/23 21/21/21 
f 22/22/22 24/24/24 25/25/25 23/23/23 
f 24/24/24 26/26/26 27/27/27 25/25/25 
f 25/25/25 27/27/27 28/28/28 29/29/29 
f 29/29/29 28/28/28 30/30/30 31/31/31 
f 30/30/30 32/32/32 33/33/33 31/31/31 
f 32/32/32 1/1/1 4/4/4 33/33/33 
f 33/33/33 4/4/4 6/6/6 34/34/34 
f 34/34/34 6/6/6 8/8/8 35/35/35 
f 8/8/8 10/10/10 36/36/36 35/35/35 
f 10/10/10 12/12/12 19/19/19 36/36/36 
f 36/36/36 19/19/19 21/21/21 35/35/35 
f 21/21/21 23/23/23 37/37/37 35/35/35 
f 23/23/23 25/25/25 29/29/29 37/37/37 
f 29/29/29 31/31/31 38/38/38 37/37/37 
f 31/31/31 33/33/33 34/34/34 38/38/38 
f 37/37/37 38/38/38 34/34/34 35/35/35 
f 39/39/39 40/40/40 41/41/41 42/42/42 
f 43/43/43 44/44/44 45/45/45 46/46/46 
f 46/46/46 45/45/45 47/47/47 48/48/48 
f 48/48/48 47/47/47 49/49/49 50/50/50 
f 50/50/50 49/49/49 51/51/51 52/52/52 
f 51/51/51 53/53/53 54/54/54 52/52/52 
f 53/53/53 39/39/39 42/42/42 54/54/54 
f 55/55/55 56/56/56 57/57/57 58/58/58 
f 58/58/58 57/57/57 59/59/59 60/60/60 
f 60/60/60 59/59/59 61/61/61 62/62/62 
f 61/61/61 63/63/63 64/64/64 62/62/62 
f 63/63/63 65/65/65 48/48/48 64/64/64 
f 65/65/65 43/43/43 46/46/46 48/48/48 
f 42/42/42 41/41/41 66/66/66 67/67/67 
f 67/67/67 66/66/66 68/68/68 69/69/69 
f 68/68/68 70/70/70 71/71/71 69/69/69 
f 70/70/70 55/55/55 58/58/58 71/71/71 
f 64/64/64 48/48/48 50/50/50 72/72/72 
f 72/72/72 50/50/50 52/52/52 73/73/73 
f 71/71/71 58/58/58 60/60/60 74/74/74 
f 52/52/52 54/54/54 75/75/75 73/73/73 
f 54/54/54 42/42/42 67/67/67 75/75/75 
f 67/67/67 69/69/69 76/76/76 75/75/75 
f 76/76/76 69/69/69 71/71/71 74/74/74 
f 74/74/74 60/60/60 62/62/62 73/73/73 
f 62/62/62 64/64/64 72/72/72 73/73/73 
f 75/75/75 76/76/76 74/74/74 73/73/73 
# 54 polygons

