# 3ds Max Wavefront OBJ Exporter v0.97b - (c)2007 guruware
# File Created: 06.02.2019 06:11:39

mtllib Shark_Maxi.mtl

#
# object Shark_Maxi
#

v  -0.2009 5.4862 0.0764
v  -0.2072 5.4533 0.0812
v  -0.1974 5.4765 0.0909
v  -0.0716 5.3606 0.2087
v  -0.0444 5.3737 0.2174
v  -0.0695 5.3843 0.2046
v  -0.0839 5.3724 0.2006
v  -0.0939 5.3957 0.1911
v  -0.1105 5.3725 0.1879
v  -0.1175 5.4080 0.1770
v  -0.1341 5.3899 0.1719
v  -0.1401 5.4212 0.1620
v  -0.1528 5.4044 0.1572
v  -0.1600 5.4354 0.1449
v  -0.1694 5.4175 0.1415
v  -0.1775 5.4508 0.1256
v  -0.1832 5.4304 0.1237
v  -0.1914 5.4668 0.1044
v  -0.1963 5.4399 0.1026
v  -0.2116 5.4229 0.0859
v  -0.1997 5.4177 0.1057
v  -0.2144 5.3962 0.0946
v  -0.2024 5.3963 0.1108
v  -0.2176 5.3695 0.1029
v  -0.2026 5.3742 0.1186
v  -0.2209 5.3426 0.1109
v  -0.2033 5.3496 0.1265
v  -0.2241 5.3155 0.1187
v  -0.2037 5.3250 0.1348
v  -0.2273 5.2888 0.1267
v  -0.2035 5.3005 0.1430
v  -0.1793 5.3124 0.1587
v  -0.1829 5.3347 0.1500
v  -0.1542 5.3245 0.1735
v  -0.1617 5.3449 0.1640
v  -0.1276 5.3368 0.1861
v  -0.1387 5.3572 0.1762
v  -0.1001 5.3488 0.1978
v  -0.1887 5.4114 0.1228
v  -0.1927 5.3962 0.1225
v  -0.1867 5.3807 0.1337
v  -0.1858 5.3570 0.1414
v  -0.1524 5.3747 0.1640
v  -0.1646 5.3891 0.1517
v  -0.1686 5.3635 0.1544
v  -0.1778 5.3995 0.1376
v  -0.1735 5.3777 0.1468
v  0.1836 5.3927 0.1360
v  0.2019 5.3933 0.1195
v  0.1989 5.4108 0.1168
v  0.0719 5.3849 0.2108
v  0.0472 5.3744 0.2245
v  0.0745 5.3615 0.2135
v  0.0863 5.3732 0.2054
v  0.1949 5.4762 0.0917
v  0.1896 5.4670 0.1047
v  0.2091 5.4547 0.0857
v  0.1985 5.4847 0.0793
v  0.1769 5.4512 0.1262
v  0.1916 5.4327 0.1172
v  0.1595 5.4358 0.1459
v  0.1722 5.4170 0.1394
v  0.1396 5.4216 0.1636
v  0.1528 5.4052 0.1575
v  0.1184 5.4083 0.1804
v  0.1338 5.3907 0.1737
v  0.0956 5.3962 0.1960
v  0.1115 5.3731 0.1906
v  0.2026 5.3004 0.1439
v  0.2268 5.2888 0.1284
v  0.2253 5.3161 0.1221
v  0.2039 5.3253 0.1366
v  0.2237 5.3433 0.1156
v  0.2051 5.3493 0.1293
v  0.2221 5.3705 0.1086
v  0.2055 5.3719 0.1231
v  0.2199 5.3977 0.1009
v  0.2150 5.4263 0.0929
v  0.1012 5.3488 0.2010
v  0.1274 5.3363 0.1874
v  0.1382 5.3582 0.1764
v  0.1529 5.3242 0.1735
v  0.1615 5.3464 0.1632
v  0.1780 5.3122 0.1589
v  0.1830 5.3351 0.1502
v  0.1877 5.3567 0.1415
v  0.1921 5.3737 0.1337
v  0.1516 5.3770 0.1639
v  0.1713 5.3682 0.1516
v  0.1632 5.3916 0.1528
# 90 vertices

vn -0.9021 0.2268 0.3673
vn -0.8480 0.1762 0.4998
vn -0.8830 0.1936 0.4275
vn -0.3994 0.2053 0.8935
vn -0.3811 0.1928 0.9042
vn -0.3964 0.1738 0.9015
vn -0.4176 0.1930 0.8879
vn -0.4215 0.1765 0.8895
vn -0.4419 0.1813 0.8786
vn -0.4540 0.1710 0.8744
vn -0.4882 0.1774 0.8545
vn -0.5234 0.1575 0.8374
vn -0.5645 0.1715 0.8074
vn -0.6143 0.1726 0.7699
vn -0.6569 0.1763 0.7331
vn -0.7342 0.1454 0.6631
vn -0.7598 0.1705 0.6274
vn -0.8434 0.1192 0.5240
vn -0.8207 0.1606 0.5483
vn -0.8071 0.2253 0.5457
vn -0.7962 0.2170 0.5648
vn -0.7749 0.2678 0.5726
vn -0.7670 0.2282 0.5996
vn -0.7355 0.2761 0.6187
vn -0.7280 0.2311 0.6454
vn -0.6982 0.2785 0.6595
vn -0.6921 0.2396 0.6809
vn -0.6697 0.2826 0.6868
vn -0.6555 0.2430 0.7151
vn -0.6336 0.2888 0.7177
vn -0.6199 0.2455 0.7453
vn -0.5878 0.2109 0.7810
vn -0.6223 0.2027 0.7561
vn -0.5273 0.1937 0.8273
vn -0.5697 0.1838 0.8010
vn -0.4635 0.1706 0.8695
vn -0.4939 0.1748 0.8518
vn -0.4315 0.1799 0.8840
vn -0.7563 0.1877 0.6267
vn -0.7498 0.1775 0.6375
vn -0.6991 0.1945 0.6880
vn -0.6611 0.2019 0.7226
vn -0.5536 0.1780 0.8135
vn -0.6195 0.1807 0.7639
vn -0.6157 0.1814 0.7668
vn -0.6867 0.1748 0.7056
vn -0.6629 0.1788 0.7270
vn 0.6355 0.1957 0.7469
vn 0.6603 0.2262 0.7161
vn 0.6972 0.2218 0.6817
vn 0.4459 0.1446 0.8833
vn 0.4298 0.1504 0.8903
vn 0.4477 0.1546 0.8807
vn 0.4914 0.1532 0.8573
vn 0.1583 -0.8359 -0.5256
vn 0.7536 0.2751 0.5969
vn 0.7467 0.3195 0.5834
vn 0.7826 0.3820 0.4916
vn 0.6956 0.2188 0.6843
vn 0.7171 0.2363 0.6557
vn 0.6286 0.1625 0.7605
vn 0.6408 0.1870 0.7446
vn 0.5696 0.1559 0.8070
vn 0.5872 0.1758 0.7901
vn 0.5269 0.1410 0.8381
vn 0.5481 0.1443 0.8239
vn 0.4907 0.1367 0.8605
vn 0.5149 0.1477 0.8444
vn 0.5882 0.1989 0.7839
vn 0.5976 0.2111 0.7735
vn 0.6098 0.2130 0.7634
vn 0.6032 0.1997 0.7722
vn 0.6239 0.2210 0.7496
vn 0.6204 0.1993 0.7585
vn 0.6473 0.2417 0.7229
vn 0.6390 0.2104 0.7399
vn 0.6571 0.2837 0.6984
vn 0.6855 0.3065 0.6604
vn 0.4946 0.1580 0.8546
vn 0.5224 0.1639 0.8368
vn 0.5389 0.1589 0.8273
vn 0.5436 0.1722 0.8215
vn 0.5611 0.1687 0.8104
vn 0.5667 0.1831 0.8034
vn 0.5856 0.1821 0.7899
vn 0.6113 0.1852 0.7694
vn 0.6247 0.1885 0.7577
vn 0.5671 0.1492 0.8100
vn 0.5895 0.1809 0.7872
vn 0.6118 0.1464 0.7774
# 90 vertex normals

vt 0.1316 0.0836 0.0000
vt 0.1393 0.0741 0.0000
vt 0.1393 0.0841 0.0000
vt 0.2306 0.0838 0.0000
vt 0.2381 0.0950 0.0000
vt 0.2252 0.0928 0.0000
vt 0.2226 0.0851 0.0000
vt 0.2122 0.0909 0.0000
vt 0.2122 0.0786 0.0000
vt 0.1992 0.0893 0.0000
vt 0.1979 0.0786 0.0000
vt 0.1862 0.0878 0.0000
vt 0.1858 0.0784 0.0000
vt 0.1731 0.0866 0.0000
vt 0.1743 0.0777 0.0000
vt 0.1600 0.0855 0.0000
vt 0.1630 0.0770 0.0000
vt 0.1470 0.0846 0.0000
vt 0.1515 0.0757 0.0000
vt 0.1469 0.0645 0.0000
vt 0.1567 0.0671 0.0000
vt 0.1546 0.0550 0.0000
vt 0.1623 0.0592 0.0000
vt 0.1623 0.0454 0.0000
vt 0.1694 0.0521 0.0000
vt 0.1700 0.0359 0.0000
vt 0.1770 0.0440 0.0000
vt 0.1777 0.0263 0.0000
vt 0.1849 0.0360 0.0000
vt 0.1854 0.0168 0.0000
vt 0.1929 0.0280 0.0000
vt 0.2004 0.0391 0.0000
vt 0.1920 0.0456 0.0000
vt 0.2080 0.0503 0.0000
vt 0.1988 0.0553 0.0000
vt 0.2155 0.0615 0.0000
vt 0.2053 0.0659 0.0000
vt 0.2230 0.0726 0.0000
vt 0.1658 0.0689 0.0000
vt 0.1681 0.0626 0.0000
vt 0.1761 0.0597 0.0000
vt 0.1839 0.0523 0.0000
vt 0.1945 0.0683 0.0000
vt 0.1849 0.0696 0.0000
vt 0.1903 0.0597 0.0000
vt 0.1753 0.0689 0.0000
vt 0.1838 0.0630 0.0000
vt 0.0767 0.0647 0.0000
vt 0.0859 0.0592 0.0000
vt 0.0899 0.0659 0.0000
vt 0.0262 0.0927 0.0000
vt 0.0132 0.0949 0.0000
vt 0.0207 0.0838 0.0000
vt 0.0287 0.0851 0.0000
vt 0.1123 0.0840 0.0000
vt 0.1052 0.0845 0.0000
vt 0.1118 0.0740 0.0000
vt 0.1194 0.0836 0.0000
vt 0.0920 0.0854 0.0000
vt 0.0931 0.0754 0.0000
vt 0.0788 0.0865 0.0000
vt 0.0787 0.0762 0.0000
vt 0.0656 0.0877 0.0000
vt 0.0662 0.0783 0.0000
vt 0.0525 0.0892 0.0000
vt 0.0539 0.0788 0.0000
vt 0.0393 0.0908 0.0000
vt 0.0393 0.0787 0.0000
vt 0.0583 0.0280 0.0000
vt 0.0658 0.0169 0.0000
vt 0.0735 0.0264 0.0000
vt 0.0663 0.0360 0.0000
vt 0.0811 0.0359 0.0000
vt 0.0741 0.0436 0.0000
vt 0.0888 0.0455 0.0000
vt 0.0810 0.0510 0.0000
vt 0.0964 0.0550 0.0000
vt 0.1041 0.0645 0.0000
vt 0.0282 0.0726 0.0000
vt 0.0357 0.0615 0.0000
vt 0.0465 0.0662 0.0000
vt 0.0432 0.0503 0.0000
vt 0.0533 0.0556 0.0000
vt 0.0508 0.0392 0.0000
vt 0.0596 0.0455 0.0000
vt 0.0681 0.0514 0.0000
vt 0.0752 0.0557 0.0000
vt 0.0576 0.0690 0.0000
vt 0.0638 0.0603 0.0000
vt 0.0668 0.0707 0.0000
# 90 texture coords

o Shark_Maxi
g Shark_Maxi
usemtl Unwrap_Texture_Checker_Material
s 1
f 1/1/1 2/2/2 3/3/3 
f 4/4/4 5/5/5 6/6/6 7/7/7 
f 7/7/7 6/6/6 8/8/8 9/9/9 
f 9/9/9 8/8/8 10/10/10 11/11/11 
f 11/11/11 10/10/10 12/12/12 13/13/13 
f 13/13/13 12/12/12 14/14/14 15/15/15 
f 14/14/14 16/16/16 17/17/17 15/15/15 
f 16/16/16 18/18/18 19/19/19 17/17/17 
f 18/18/18 3/3/3 2/2/2 19/19/19 
f 19/19/19 2/2/2 20/20/20 21/21/21 
f 21/21/21 20/20/20 22/22/22 23/23/23 
f 23/23/23 22/22/22 24/24/24 25/25/25 
f 24/24/24 26/26/26 27/27/27 25/25/25 
f 26/26/26 28/28/28 29/29/29 27/27/27 
f 28/28/28 30/30/30 31/31/31 29/29/29 
f 29/29/29 31/31/31 32/32/32 33/33/33 
f 32/32/32 34/34/34 35/35/35 33/33/33 
f 34/34/34 36/36/36 37/37/37 35/35/35 
f 36/36/36 38/38/38 9/9/9 37/37/37 
f 38/38/38 4/4/4 7/7/7 9/9/9 
f 17/17/17 19/19/19 21/21/21 39/39/39 
f 39/39/39 21/21/21 23/23/23 40/40/40 
f 40/40/40 23/23/23 25/25/25 41/41/41 
f 25/25/25 27/27/27 42/42/42 41/41/41 
f 27/27/27 29/29/29 33/33/33 42/42/42 
f 37/37/37 9/9/9 11/11/11 43/43/43 
f 43/43/43 11/11/11 13/13/13 44/44/44 
f 33/33/33 35/35/35 45/45/45 42/42/42 
f 35/35/35 37/37/37 43/43/43 45/45/45 
f 44/44/44 13/13/13 15/15/15 46/46/46 
f 15/15/15 17/17/17 39/39/39 46/46/46 
f 46/46/46 39/39/39 40/40/40 41/41/41 
f 45/45/45 43/43/43 44/44/44 47/47/47 
f 47/47/47 44/44/44 46/46/46 41/41/41 
f 42/42/42 45/45/45 47/47/47 41/41/41 
f 48/48/48 49/49/49 50/50/50 
f 51/51/51 52/52/52 53/53/53 54/54/54 
f 55/55/55 56/56/56 57/57/57 58/58/58 
f 56/56/56 59/59/59 60/60/60 57/57/57 
f 59/59/59 61/61/61 62/62/62 60/60/60 
f 61/61/61 63/63/63 64/64/64 62/62/62 
f 63/63/63 65/65/65 66/66/66 64/64/64 
f 65/65/65 67/67/67 68/68/68 66/66/66 
f 67/67/67 51/51/51 54/54/54 68/68/68 
f 69/69/69 70/70/70 71/71/71 72/72/72 
f 72/72/72 71/71/71 73/73/73 74/74/74 
f 74/74/74 73/73/73 75/75/75 76/76/76 
f 75/75/75 77/77/77 49/49/49 76/76/76 
f 77/77/77 78/78/78 50/50/50 49/49/49 
f 78/78/78 57/57/57 60/60/60 50/50/50 
f 54/54/54 53/53/53 79/79/79 68/68/68 
f 68/68/68 79/79/79 80/80/80 81/81/81 
f 81/81/81 80/80/80 82/82/82 83/83/83 
f 83/83/83 82/82/82 84/84/84 85/85/85 
f 84/84/84 69/69/69 72/72/72 85/85/85 
f 85/85/85 72/72/72 74/74/74 86/86/86 
f 74/74/74 76/76/76 87/87/87 86/86/86 
f 66/66/66 68/68/68 81/81/81 88/88/88 
f 88/88/88 81/81/81 83/83/83 89/89/89 
f 85/85/85 86/86/86 89/89/89 83/83/83 
f 50/50/50 60/60/60 62/62/62 48/48/48 
f 62/62/62 64/64/64 90/90/90 48/48/48 
f 64/64/64 66/66/66 88/88/88 90/90/90 
f 87/87/87 76/76/76 49/49/49 48/48/48 
f 89/89/89 86/86/86 87/87/87 48/48/48 
f 90/90/90 88/88/88 89/89/89 48/48/48 
# 64 polygons - 2 triangles

