<svg width="38" height="28" viewBox="0 0 38 28" fill="none" xmlns="http://www.w3.org/2000/svg">
<path d="M35.2898 12.45C33.6831 11.1167 32.3231 10.45 31.2098 10.45C31.5172 9.20082 32.0752 8.0271 32.8498 7C33.8133 5.46219 35.0424 4.10781 36.4798 3C36.424 2.36483 36.205 1.75485 35.8441 1.22923C35.4832 0.703606 34.9925 0.280173 34.4198 0C31.6907 0.889647 29.2195 2.43074 27.2198 4.49C25.0041 6.65529 23.1924 9.19845 21.8698 12C20.6197 14.4503 19.9362 17.1501 19.8698 19.9C19.8146 21.0044 20.0018 22.1075 20.4181 23.1319C20.8344 24.1563 21.4699 25.0772 22.2798 25.83C23.9916 27.3072 26.2005 28.0793 28.4598 27.99C29.7119 27.9927 30.9489 27.7158 32.0803 27.1795C33.2118 26.6432 34.2092 25.861 34.9998 24.89C36.725 23.0714 37.6969 20.6666 37.7198 18.16C37.7764 17.086 37.5869 16.0133 37.1658 15.0237C36.7446 14.0341 36.103 13.1538 35.2898 12.45Z" fill="#D9A912"/>
<path d="M15.44 12.45C13.8333 11.1167 12.4733 10.45 11.36 10.45C11.6723 9.20257 12.2298 8.02979 13 7C13.9606 5.47537 15.1708 4.12318 16.58 3C16.5341 2.36203 16.319 1.74781 15.957 1.22054C15.5949 0.693258 15.0989 0.271965 14.52 0C10.72 1.18 7.35 3.82333 4.41 7.93C1.47 12.0367 0 15.6767 0 18.85C0 22.03 0.813333 24.34 2.44 25.78C4.16351 27.2574 6.38167 28.0289 8.65 27.94C9.88813 27.9406 11.1111 27.6675 12.2313 27.1402C13.3516 26.6129 14.3414 25.8445 15.13 24.89C16.8552 23.0714 17.8271 20.6666 17.85 18.16C17.9136 17.0871 17.7293 16.014 17.3114 15.0237C16.8934 14.0335 16.2531 13.1529 15.44 12.45Z" fill="#D9A912"/>
</svg>
