<svg xmlns="http://www.w3.org/2000/svg" width="110" height="110" viewBox="0 0 110 110"><defs><style>.cls-1{fill:#fff;}.cls-2{fill:#af9c94;}</style></defs><title>Пуговицы - 02</title><g id="Пуговицы"><g id="_02" data-name="02"><g id="Цвет-32" data-name="Цвет"><path class="cls-1" d="M109.5,55A54.5,54.5,0,1,1,55,.5,54.5,54.5,0,0,1,109.5,55Zm-65-16.5a6,6,0,1,0,6,6A6,6,0,0,0,44.5,38.5Zm0,21a6,6,0,1,0,6,6A6,6,0,0,0,44.5,59.5Zm21-21a6,6,0,1,0,6,6A6,6,0,0,0,65.5,38.5Zm0,21a6,6,0,1,0,6,6A6,6,0,0,0,65.5,59.5Z"/></g><g id="Контур-32" data-name="Контур"><path d="M55,110a55,55,0,1,1,55-55A55.062,55.062,0,0,1,55,110ZM55,1a54,54,0,1,0,54,54A54.061,54.061,0,0,0,55,1Z"/><path d="M55.5,96A40.5,40.5,0,1,1,96,55.5a.5.5,0,0,1-1,0A39.5,39.5,0,1,0,55.5,95a.5.5,0,0,1,0,1Z"/><path d="M55.5,93A37.5,37.5,0,1,1,93,55.5,37.542,37.542,0,0,1,55.5,93Zm0-74A36.5,36.5,0,1,0,92,55.5,36.542,36.542,0,0,0,55.5,19Z"/><path d="M44.5,51A6.5,6.5,0,1,1,51,44.5,6.508,6.508,0,0,1,44.5,51Zm0-12A5.5,5.5,0,1,0,50,44.5,5.507,5.507,0,0,0,44.5,39Z"/><path d="M44.5,72A6.5,6.5,0,1,1,51,65.5,6.508,6.508,0,0,1,44.5,72Zm0-12A5.5,5.5,0,1,0,50,65.5,5.507,5.507,0,0,0,44.5,60Z"/><path d="M65.5,51A6.5,6.5,0,1,1,72,44.5,6.508,6.508,0,0,1,65.5,51Zm0-12A5.5,5.5,0,1,0,71,44.5,5.507,5.507,0,0,0,65.5,39Z"/><path d="M65.5,72A6.5,6.5,0,1,1,72,65.5,6.508,6.508,0,0,1,65.5,72Zm0-12A5.5,5.5,0,1,0,71,65.5,5.507,5.507,0,0,0,65.5,60Z"/><path class="cls-2" d="M63,66a2.989,2.989,0,0,1-2.121-.879l-16-16a3,3,0,0,1,4.242-4.242l16,16A3,3,0,0,1,63,66Z"/><path d="M63,66.5a3.475,3.475,0,0,1-2.475-1.025l-16-16a3.5,3.5,0,0,1,0-4.949,3.583,3.583,0,0,1,4.949,0l16,16A3.5,3.5,0,0,1,63,66.5Zm-16-22a2.5,2.5,0,0,0-1.768,4.268l16,16a2.558,2.558,0,0,0,3.535,0,2.5,2.5,0,0,0,0-3.535l-16-16A2.481,2.481,0,0,0,47,44.5Z"/><path class="cls-2" d="M47,66a2.989,2.989,0,0,0,2.121-.879l16-16a3,3,0,0,0-4.242-4.242l-16,16A3,3,0,0,0,47,66Z"/><path d="M47,66.5a3.5,3.5,0,0,1-2.475-5.975l16-16a3.583,3.583,0,0,1,4.949,0,3.5,3.5,0,0,1,0,4.949l-16,16A3.475,3.475,0,0,1,47,66.5Zm16-22a2.481,2.481,0,0,0-1.768.732l-16,16a2.5,2.5,0,0,0,0,3.535,2.558,2.558,0,0,0,3.535,0l16-16A2.5,2.5,0,0,0,63,44.5Z"/></g></g></g></svg>