<svg xmlns="http://www.w3.org/2000/svg" width="36.01" height="33.391" viewBox="0 0 36.01 33.391">
  <path id="Контур_349" data-name="Контур 349" d="M26.23,29.138H13.915a.859.859,0,1,0,0,1.719H26.23a.859.859,0,0,0,0-1.719ZM25.56,33.6H14.586a.859.859,0,0,0,0,1.719H25.56a.859.859,0,0,0,0-1.719ZM14.675,45.344a3.078,3.078,0,1,0,3.078,3.078A3.082,3.082,0,0,0,14.675,45.344Zm0,4.437a1.359,1.359,0,1,1,1.359-1.359A1.361,1.361,0,0,1,14.675,49.782Zm10.8-4.437a3.078,3.078,0,1,0,3.078,3.078A3.082,3.082,0,0,0,25.472,45.344Zm0,4.437a1.359,1.359,0,1,1,1.359-1.359A1.361,1.361,0,0,1,25.472,49.782Zm9.14-24.473a1.712,1.712,0,0,0-1.332-.633H6.513l-.541-2.624a1.721,1.721,0,0,0-1-1.23L1.2,19.185a.859.859,0,0,0-.684,1.576L4.289,22.4,8.447,42.583a1.725,1.725,0,0,0,1.683,1.372H30.718a.859.859,0,0,0,0-1.719H10.13l-.506-2.455H30.877a1.725,1.725,0,0,0,1.683-1.372l2.4-11.667A1.712,1.712,0,0,0,34.613,25.309ZM30.877,38.062H9.27L6.867,26.4H33.28Z" transform="translate(0.505 -18.61)" fill="#3b485d" stroke="#00fccb" stroke-width="1" opacity="0.8"/>
</svg>
