<svg xmlns="http://www.w3.org/2000/svg" xmlns:xlink="http://www.w3.org/1999/xlink" width="20" height="20" viewBox="0 0 20 20">
  <defs>
    <clipPath id="clip-path">
      <circle id="Эллипс_26" data-name="Эллипс 26" cx="10" cy="10" r="10" transform="translate(0.667 1150.667)" fill="none"/>
    </clipPath>
  </defs>
  <g id="Сгруппировать_968" data-name="Сгруппировать 968" transform="translate(-0.667 -1150.667)">
    <g id="Сгруппировать_533" data-name="Сгруппировать 533" clip-path="url(#clip-path)">
      <g id="Сгруппировать_532" data-name="Сгруппировать 532">
        <g id="Сгруппировать_530" data-name="Сгруппировать 530">
          <path id="Контур_336" data-name="Контур 336" d="M17.629,1173.362a7.216,7.216,0,1,0-14.029,0Z" fill="#00ffcb"/>
          <path id="Контур_337" data-name="Контур 337" d="M4.055,1173.362a6.775,6.775,0,1,1,13.119,0h.914a7.658,7.658,0,1,0-14.947,0Z" fill="#3b485d"/>
        </g>
        <g id="Сгруппировать_531" data-name="Сгруппировать 531">
          <circle id="Эллипс_25" data-name="Эллипс 25" cx="5.285" cy="5.285" r="5.285" transform="translate(5.33 1154.293)" fill="#00ffcb"/>
          <path id="Контур_338" data-name="Контур 338" d="M10.615,1154.689a4.888,4.888,0,1,1-4.889,4.888,4.887,4.887,0,0,1,4.889-4.888m0-.792a5.681,5.681,0,1,0,5.68,5.68,5.687,5.687,0,0,0-5.68-5.68Z" fill="#3b485d"/>
        </g>
        <path id="Контур_339" data-name="Контур 339" d="M6.372,1159.891a1.419,1.419,0,0,1-.571-.119c-.267-.114-.531-.227-.8-.335a.542.542,0,0,1-.375-.571c0-.066,0-.135,0-.208s0-.124,0-.186a.986.986,0,0,1,.9-.987h.009c.287-.019.579-.028.867-.028.147,0,.3,0,.442.007h6.485q1.1,0,2.191,0l.068,0a.75.75,0,0,1,.081,0,1.017,1.017,0,0,1,.934,1.1,2.1,2.1,0,0,0,0,.286.6.6,0,0,1-.333.595l-.583.334-.015.009a.917.917,0,0,1-.426.1H7.29c-.3,0-.6,0-.906,0Z" fill="#0d93ec" stroke="#3b485d" stroke-miterlimit="10" stroke-width="0.781"/>
        <path id="Контур_340" data-name="Контур 340" d="M15.4,1158.091q-.5,0-.995,0H11.3a.5.5,0,0,1-.373-.152.509.509,0,0,1-.138-.379,9.412,9.412,0,0,1,.623-3.255,2.9,2.9,0,0,1,.4-.707.548.548,0,0,1,.651-.208,5.06,5.06,0,0,1,3.316,3.2l0,.009a4.519,4.519,0,0,1,.19.842.533.533,0,0,1-.563.648Z" fill="#0d93ec" stroke="#3b485d" stroke-miterlimit="10" stroke-width="0.781"/>
        <path id="Контур_341" data-name="Контур 341" d="M10.017,1158.089l-.962,0H5.988a.511.511,0,0,1-.568-.645,4.727,4.727,0,0,1,1.3-2.677,5.333,5.333,0,0,1,2.167-1.365.567.567,0,0,1,.688.209,3.59,3.59,0,0,1,.519,1.03,9.07,9.07,0,0,1,.441,2.144c.022.238.038.482.048.723a.528.528,0,0,1-.559.583Z" fill="#0d93ec" stroke="#3b485d" stroke-miterlimit="10" stroke-width="0.781"/>
        <path id="Контур_342" data-name="Контур 342" d="M10.941,1158.088c-.083,0-.165,0-.248,0s-.179,0-.269,0H10.4a.506.506,0,0,1-.522-.534c0-.163,0-.318,0-.506v-.274a14.5,14.5,0,0,0-.369-2.866.973.973,0,0,1-.025-.122,1.007,1.007,0,0,1,.849-1.136,2.021,2.021,0,0,1,.727,0,1.053,1.053,0,0,1,.812.7.688.688,0,0,1,.02.409,14.459,14.459,0,0,0-.407,3.775.544.544,0,0,1-.145.405.513.513,0,0,1-.379.152Z" fill="#0d93ec" stroke="#3b485d" stroke-miterlimit="10" stroke-width="0.781"/>
      </g>
    </g>
  </g>
</svg>
