<svg id="Layer_1" data-name="Layer 1" xmlns="http://www.w3.org/2000/svg" viewBox="0 0 512 512" width="57" height="57">
  <title>Artboard 10</title>
  <g>
    <g>
      <path d="M345.78,352.17a92.36,92.36,0,1,0-179.56,0Z" style="fill: #00ffcb"/>
      <path d="M172,352.17a86.71,86.71,0,1,1,167.92,0h11.7a98,98,0,1,0-191.32,0Z" style="fill: #3b485d"/>
    </g>
    <g>
      <circle cx="256" cy="175.72" r="67.64" style="fill: #00ffcb"/>
      <path d="M256,113.15a62.58,62.58,0,1,1-62.58,62.57A62.57,62.57,0,0,1,256,113.15M256,103a72.71,72.71,0,1,0,72.71,72.7A72.79,72.79,0,0,0,256,103Z" style="fill: #3b485d"/>
    </g>
    <path d="M201.69,179.74a18.16,18.16,0,0,1-7.3-1.52c-3.42-1.47-6.8-2.91-10.23-4.3a6.93,6.93,0,0,1-4.8-7.3c0-.84,0-1.73,0-2.67,0-.79,0-1.59,0-2.37a12.63,12.63,0,0,1,11.48-12.64H191c3.67-.24,7.41-.36,11.09-.36,1.88,0,3.79,0,5.66.09h83q14,0,28,0,.44,0,.87,0c.34,0,.69,0,1,0a13,13,0,0,1,11.95,14,27.78,27.78,0,0,0,0,3.65,7.68,7.68,0,0,1-4.26,7.62c-2.5,1.42-5,2.84-7.47,4.28l-.19.11a11.79,11.79,0,0,1-5.46,1.35H213.45q-5.8,0-11.6,0Z" style="fill: #0d93ec;stroke: #3b485d;stroke-miterlimit: 10;stroke-width: 10px"/>
    <path d="M317.31,156.7q-6.37-.06-12.75,0H264.77a6.41,6.41,0,0,1-4.77-1.94,6.51,6.51,0,0,1-1.77-4.86,120.67,120.67,0,0,1,8-41.66,36.63,36.63,0,0,1,5.1-9,7,7,0,0,1,8.33-2.66c21.18,7.27,35.46,21.07,42.46,41l0,.11a59.71,59.71,0,0,1,2.43,10.79,6.83,6.83,0,0,1-7.21,8.29Z" style="fill: #0d93ec;stroke: #3b485d;stroke-miterlimit: 10;stroke-width: 10px"/>
    <path d="M248.35,156.67q-6.15,0-12.31,0H196.79a6.55,6.55,0,0,1-7.28-8.26,60.45,60.45,0,0,1,16.59-34.26,68.18,68.18,0,0,1,27.74-17.48,7.45,7.45,0,0,1,2.76-.54,7.35,7.35,0,0,1,6.05,3.22,46,46,0,0,1,6.63,13.18A115.51,115.51,0,0,1,254.93,140c.28,3,.49,6.16.61,9.25a6.73,6.73,0,0,1-7.15,7.46Z" style="fill: #0d93ec;stroke: #3b485d;stroke-miterlimit: 10;stroke-width: 10px"/>
    <path d="M260.17,156.66c-1.05,0-2.11,0-3.17,0s-2.29,0-3.44,0h-.26a6.48,6.48,0,0,1-6.69-6.85c0-2.08,0-4.06,0-6.47v-3.51a185.92,185.92,0,0,0-4.73-36.68,11.66,11.66,0,0,1-.32-1.56,12.91,12.91,0,0,1,10.87-14.54,26.2,26.2,0,0,1,4.59-.41,25.74,25.74,0,0,1,4.72.43A13.46,13.46,0,0,1,272.14,96a8.74,8.74,0,0,1,.26,5.23,185.42,185.42,0,0,0-5.21,48.32,6.91,6.91,0,0,1-1.85,5.18,6.57,6.57,0,0,1-4.86,1.95Z" style="fill: #0d93ec;stroke: #3b485d;stroke-miterlimit: 10;stroke-width: 10px"/>
    <g>
      <path d="M250.24,420.34a5.67,5.67,0,0,1-3.14-.95c-7.52-5-15.31-9.78-23.16-14.18a366.19,366.19,0,0,0-108.78-39.72,5.66,5.66,0,0,1-4.56-5.55V226a5.65,5.65,0,0,1,6.23-5.62,280.13,280.13,0,0,1,136.73,51.95,5.68,5.68,0,0,1,2.33,4.58V414.69a5.65,5.65,0,0,1-5.65,5.65Zm14.59-.95c7.52-5,15.32-9.78,23.16-14.18a366.15,366.15,0,0,1,108.79-39.72,5.66,5.66,0,0,0,4.56-5.55V226a5.67,5.67,0,0,0-5.65-5.65,5.83,5.83,0,0,0-.59,0,280,280,0,0,0-136.72,51.95,5.67,5.67,0,0,0-2.34,4.58V414.69a5.65,5.65,0,0,0,8.79,4.7Z" style="fill: #0d93ec"/>
      <path d="M403.26,217.56a11.32,11.32,0,0,0-7.57-2.91,11.46,11.46,0,0,0-1.17.06A285.17,285.17,0,0,0,256,267.08a285.16,285.16,0,0,0-138.56-52.37A11.31,11.31,0,0,0,104.94,226v134a11.37,11.37,0,0,0,9.26,11.12,360.53,360.53,0,0,1,107,39.08c7.74,4.34,15.41,9,22.8,14,.24.16,2.34,1.73,4.71,3.53a12,12,0,0,0,14.37,0c1.5-1.12,3.15-2.31,4.91-3.55,0,0,11.22-7.46,22.8-14a360.53,360.53,0,0,1,107-39.08A11.37,11.37,0,0,0,407,359.94V226A11.31,11.31,0,0,0,403.26,217.56Zm-153,197.13c-7.37-4.91-15.21-9.74-23.53-14.41a371.7,371.7,0,0,0-110.46-40.34V226a277.75,277.75,0,0,1,93.17,26.42,274.19,274.19,0,0,1,40.82,24.49Zm145.44-54.75a371.65,371.65,0,0,0-110.45,40.34c-8.33,4.67-16.17,9.5-23.53,14.41V276.86a273.16,273.16,0,0,1,40.82-24.49A277.71,277.71,0,0,1,395.68,226Z" style="fill: #3b485d"/>
    </g>
    <g>
      <path d="M110,335.12a22,22,0,1,1,22-22A22,22,0,0,1,110,335.12Z" style="fill: #00ffcb"/>
      <path d="M110,296.81a16.33,16.33,0,1,1-16.33,16.33A16.33,16.33,0,0,1,110,296.81m0-11.3a27.63,27.63,0,1,0,27.63,27.63A27.66,27.66,0,0,0,110,285.51Z" style="fill: #3b485d"/>
    </g>
    <g>
      <path d="M402,335.12a22,22,0,1,1,22-22A22,22,0,0,1,402,335.12Z" style="fill: #00ffcb"/>
      <path d="M402,296.81a16.33,16.33,0,1,1-16.32,16.33A16.33,16.33,0,0,1,402,296.81m0-11.3a27.63,27.63,0,1,0,27.64,27.63A27.66,27.66,0,0,0,402,285.51Z" style="fill: #3b485d"/>
    </g>
  </g>
</svg>
