<svg xmlns="http://www.w3.org/2000/svg" xmlns:xlink="http://www.w3.org/1999/xlink" width="30" height="30" viewBox="0 0 30 30">
  <defs>
    <clipPath id="clip-path">
      <ellipse id="Ellipse_26" data-name="Ellipse 26" cx="13.016" cy="13.516" rx="13.016" ry="13.516" fill="none"/>
    </clipPath>
  </defs>
  <g id="Group_982" data-name="Group 982" transform="translate(-7235 6503)">
    <g id="Group_981" data-name="Group 981" transform="translate(7237 -6502.016)">
      <g id="Group_533" data-name="Group 533" transform="translate(0 0)" clip-path="url(#clip-path)">
        <g id="Group_532" data-name="Group 532" transform="translate(2.981 2.638)">
          <g id="Group_530" data-name="Group 530" transform="translate(0 15.438)">
            <path id="Path_336" data-name="Path 336" d="M21.921,1176.485a10.078,10.078,0,0,0,.262-2.249,9.589,9.589,0,0,0-9.391-9.753,9.589,9.589,0,0,0-9.393,9.753,10.078,10.078,0,0,0,.262,2.249Z" transform="translate(-2.824 -1163.885)" fill="#00ffcb"/>
            <path id="Path_337" data-name="Path 337" d="M4.386,1176.64a9.476,9.476,0,0,1-.28-2.249,8.993,8.993,0,0,1,8.819-9.158,8.992,8.992,0,0,1,8.817,9.158,9.476,9.476,0,0,1-.28,2.249h1.19a10.754,10.754,0,0,0,.24-2.249,10.175,10.175,0,0,0-9.967-10.351,10.176,10.176,0,0,0-9.968,10.351,10.754,10.754,0,0,0,.24,2.249Z" transform="translate(-2.957 -1164.04)" fill="#3b485d"/>
          </g>
          <g id="Group_531" data-name="Group 531" transform="translate(2.573 1.729)">
            <ellipse id="Ellipse_25" data-name="Ellipse 25" cx="6.879" cy="7.143" rx="6.879" ry="7.143" transform="translate(0.515 0.535)" fill="#00ffcb"/>
            <path id="Path_338" data-name="Path 338" d="M12.329,1154.967a6.612,6.612,0,0,1,0,13.215,6.612,6.612,0,0,1,0-13.215m0-1.071a7.683,7.683,0,0,0,0,15.356,7.684,7.684,0,0,0,0-15.356Z" transform="translate(-4.934 -1153.897)" fill="#3b485d"/>
          </g>
          <path id="Path_339" data-name="Path 339" d="M6.9,1160.747a1.789,1.789,0,0,1-.743-.161c-.348-.154-.691-.307-1.04-.453a.733.733,0,0,1-.488-.772c0-.089,0-.183,0-.281s0-.167,0-.251a1.315,1.315,0,0,1,1.168-1.334h.012c.374-.026.754-.038,1.129-.038.191,0,.384,0,.575.009h8.441q1.427,0,2.852.005c.03,0,.059,0,.089,0a.953.953,0,0,1,.105.005,1.3,1.3,0,0,1,.9.479,1.408,1.408,0,0,1,.312,1,2.945,2.945,0,0,0,0,.387.817.817,0,0,1-.433.8q-.381.225-.759.452l-.02.012a1.159,1.159,0,0,1-.555.142H8.094c-.393,0-.786,0-1.179,0Z" transform="translate(-2.454 -1150.917)" fill="#0d93ec" stroke="#3b485d" stroke-miterlimit="10" stroke-width="0.781"/>
          <path id="Path_340" data-name="Path 340" d="M16.8,1159.757q-.648-.006-1.3-.005H11.454a.641.641,0,0,1-.486-.205.7.7,0,0,1-.18-.512,13.153,13.153,0,0,1,.811-4.4,3.96,3.96,0,0,1,.519-.956.707.707,0,0,1,.594-.33.688.688,0,0,1,.254.048,6.707,6.707,0,0,1,4.316,4.331l0,.012a6.311,6.311,0,0,1,.247,1.138.772.772,0,0,1-.15.626.715.715,0,0,1-.583.25Z" transform="translate(-0.595 -1152.36)" fill="#0d93ec" stroke="#3b485d" stroke-miterlimit="10" stroke-width="0.781"/>
          <path id="Path_341" data-name="Path 341" d="M11.407,1159.753q-.625,0-1.252,0H6.163a.716.716,0,0,1-.6-.229.776.776,0,0,1-.139-.643,6.49,6.49,0,0,1,1.687-3.618,6.914,6.914,0,0,1,2.821-1.845.721.721,0,0,1,.281-.058.738.738,0,0,1,.614.34,4.927,4.927,0,0,1,.676,1.392,12.671,12.671,0,0,1,.574,2.9c.029.322.049.652.062.977a.765.765,0,0,1-.187.57.7.7,0,0,1-.54.218Z" transform="translate(-2.218 -1152.358)" fill="#0d93ec" stroke="#3b485d" stroke-miterlimit="10" stroke-width="0.781"/>
          <path id="Path_342" data-name="Path 342" d="M11.382,1160.011c-.108,0-.215-.005-.323-.005s-.233,0-.35.005h-.027a.672.672,0,0,1-.679-.722c0-.22,0-.43,0-.684v-.37a20.309,20.309,0,0,0-.48-3.874,1.354,1.354,0,0,1-.033-.165,1.4,1.4,0,0,1,.253-1.01,1.3,1.3,0,0,1,.853-.526,2.535,2.535,0,0,1,.946,0,1.387,1.387,0,0,1,1.057.941.963.963,0,0,1,.026.553,20.262,20.262,0,0,0-.53,5.1.754.754,0,0,1-.189.547.655.655,0,0,1-.493.206Z" transform="translate(-0.99 -1152.618)" fill="#0d93ec" stroke="#3b485d" stroke-miterlimit="10" stroke-width="0.781"/>
        </g>
      </g>
    </g>
    <g id="Rectangle_2" data-name="Rectangle 2" transform="translate(7235 -6503)" fill="none" stroke="#5d6879" stroke-width="2">
      <rect width="30" height="30" rx="15" stroke="none"/>
      <rect x="1" y="1" width="28" height="28" rx="14" fill="none"/>
    </g>
  </g>
</svg>
