<svg xmlns="http://www.w3.org/2000/svg" width="44.518" height="29.724" viewBox="0 0 44.518 29.724">
  <g id="Сгруппировать_492" data-name="Сгруппировать 492" transform="translate(-941.506 11.421)" opacity="0.91">
    <path id="Контур_299" data-name="Контур 299" d="M952.3-.985a9.523,9.523,0,0,0-2.289.037,17.793,17.793,0,0,1,2.179-2.677,17.985,17.985,0,0,1,3.7-2.861,2.511,2.511,0,0,0,.9-3.435,2.511,2.511,0,0,0-3.436-.9,23.021,23.021,0,0,0-4.729,3.661,24.794,24.794,0,0,0-6.8,14.634s0,.008,0,.011,0,.015,0,.023A9.542,9.542,0,1,0,952.3-.985Z" transform="translate(0 0)" fill="none" stroke="#cdd1d5" stroke-width="0.5"/>
    <path id="Контур_300" data-name="Контур 300" d="M1071.3-.985a9.523,9.523,0,0,0-2.289.037,17.785,17.785,0,0,1,2.179-2.677,17.979,17.979,0,0,1,3.7-2.861,2.511,2.511,0,0,0,.9-3.435,2.511,2.511,0,0,0-3.435-.9,23.011,23.011,0,0,0-4.729,3.661,24.793,24.793,0,0,0-6.8,14.634s0,.008,0,.011,0,.015,0,.023A9.542,9.542,0,1,0,1071.3-.985Z" transform="translate(-94.079 0)" fill="none" stroke="#cdd1d5" stroke-width="0.5"/>
  </g>
</svg>
