<svg width="20" height="12" viewBox="0 0 20 12" fill="none" xmlns="http://www.w3.org/2000/svg">
<path d="M19 6.5C19.2761 6.5 19.5 6.27614 19.5 6C19.5 5.72386 19.2761 5.5 19 5.5V6.5ZM1 5.5C0.723858 5.5 0.5 5.72386 0.5 6C0.5 6.27614 0.723858 6.5 1 6.5L1 5.5ZM19 5.5L1 5.5L1 6.5L19 6.5V5.5Z" fill="black"/>
<path d="M5.64645 11.3536C5.84171 11.5488 6.15829 11.5488 6.35355 11.3536C6.54881 11.1583 6.54881 10.8417 6.35355 10.6464L5.64645 11.3536ZM1 6L0.646447 5.64645C0.451185 5.84171 0.451184 6.15829 0.646447 6.35355L1 6ZM6.35355 1.35355C6.54882 1.15829 6.54882 0.841709 6.35355 0.646447C6.15829 0.451184 5.84171 0.451184 5.64645 0.646447L6.35355 1.35355ZM6.35355 10.6464L1.35355 5.64645L0.646447 6.35355L5.64645 11.3536L6.35355 10.6464ZM1.35355 6.35355L6.35355 1.35355L5.64645 0.646447L0.646447 5.64645L1.35355 6.35355Z" fill="black"/>
</svg>
