<svg width="24" height="24" viewBox="0 0 24 24" fill="none" xmlns="http://www.w3.org/2000/svg">
<path d="M22.4833 17.8303C23.4778 16.0481 23.9999 14.041 23.9999 12C23.9999 9.95897 23.4778 7.95187 22.4833 6.16966C22.4781 6.1117 22.4604 6.05556 22.4314 6.00512C22.4024 5.95468 22.3628 5.91114 22.3153 5.87752C20.974 3.61605 18.9273 1.85782 16.4897 0.873153C14.0522 -0.111512 11.3587 -0.2681 8.82351 0.427462C6.2883 1.12302 4.05168 2.63223 2.45751 4.72304C0.863339 6.81386 -0.00012207 9.37054 -0.00012207 12C-0.00012207 14.6295 0.863339 17.1861 2.45751 19.277C4.05168 21.3678 6.2883 22.877 8.82351 23.5725C11.3587 24.2681 14.0522 24.1115 16.4897 23.1268C18.9273 22.1422 20.974 20.384 22.3153 18.1225C22.3628 18.0889 22.4024 18.0453 22.4314 17.9949C22.4604 17.9444 22.4781 17.8883 22.4833 17.8303ZM5.12703 18.2069H7.02135C7.41798 19.7684 8.14305 21.2274 9.14816 22.4863C7.38035 21.5324 5.96943 20.0308 5.12703 18.2069ZM0.843199 12.4138H2.9092C2.94693 14.1114 3.27201 15.7903 3.87063 17.3793H2.21585C1.37504 15.8548 0.904806 14.1538 0.843199 12.4138ZM2.21667 6.62069H3.87146C3.27284 8.20965 2.94776 9.88859 2.91003 11.5862H0.843199C0.90506 9.84616 1.37558 8.1451 2.21667 6.62069ZM18.8783 5.79311H16.984C16.5874 4.23158 15.8623 2.77264 14.8572 1.51366C16.625 2.46762 18.0359 3.96918 18.8783 5.79311ZM23.1621 11.5862H21.0961C21.0584 9.88859 20.7333 8.20965 20.1347 6.62069H21.7895C22.6303 8.14518 23.1005 9.84622 23.1621 11.5862ZM20.2687 11.5862H17.7895C17.7716 9.91463 17.5737 8.24985 17.1991 6.62069H19.2515C19.8861 8.20128 20.2307 9.88334 20.2687 11.5862ZM11.589 6.62069V11.5862H7.04327C7.06542 9.91249 7.27721 8.24668 7.67457 6.62069H11.589ZM7.90294 5.79311C8.73033 3.06786 10.0757 1.16814 11.589 0.871451V5.79311H7.90294ZM11.589 12.4138V17.3793H7.67457C7.27721 15.7533 7.06542 14.0875 7.04327 12.4138H11.589ZM11.589 18.2069V23.1285C10.0757 22.8319 8.73074 20.9321 7.90294 18.2069H11.589ZM12.4164 17.3793V12.4138H16.9621C16.9399 14.0875 16.7281 15.7533 16.3308 17.3793H12.4164ZM16.1024 18.2069C15.275 20.9321 13.9293 22.8319 12.4164 23.1285V18.2069H16.1024ZM12.4164 11.5862V6.62069H16.3308C16.7281 8.24668 16.9399 9.91249 16.9621 11.5862H12.4164ZM12.4164 5.79311V0.871451C13.9293 1.16814 15.2742 3.06786 16.1024 5.79311H12.4164ZM9.14816 1.51366C8.14305 2.77264 7.41798 4.23158 7.02135 5.79311H5.12703C5.96943 3.96918 7.38035 2.46762 9.14816 1.51366ZM6.80581 6.62069C6.43142 8.24986 6.23363 9.91465 6.21588 11.5862H3.73659C3.77453 9.88337 4.11899 8.20131 4.75346 6.62069H6.80581ZM3.73659 12.4138H6.21588C6.23363 14.0854 6.43142 15.7501 6.80581 17.3793H4.75346C4.11899 15.7987 3.77453 14.1166 3.73659 12.4138ZM14.8572 22.4863C15.8623 21.2274 16.5874 19.7684 16.984 18.2069H18.8783C18.0359 20.0308 16.625 21.5324 14.8572 22.4863ZM17.1991 17.3793C17.5737 15.7502 17.7716 14.0854 17.7895 12.4138H20.2687C20.2307 14.1167 19.8861 15.7987 19.2515 17.3793H17.1991ZM21.0961 12.4138H23.1621C23.1003 14.1538 22.6298 15.8549 21.7887 17.3793H20.1339C20.7328 15.7904 21.0581 14.1115 21.0961 12.4138ZM21.2848 5.79311H19.7893C19.1566 4.37965 18.2415 3.11061 17.1002 2.064C18.7873 2.93395 20.2269 4.21681 21.2848 5.79311ZM6.90468 2.064C5.76372 3.11074 4.84878 4.37976 4.21607 5.79311H2.72055C3.77831 4.21683 5.21771 2.93396 6.90468 2.064ZM2.72055 18.2069H4.21607C4.8489 19.6203 5.76399 20.8893 6.9051 21.936C5.21797 21.0661 3.77843 19.7832 2.72055 18.2069ZM17.1002 21.936C18.2415 20.8894 19.1566 19.6203 19.7893 18.2069H21.2848C20.2269 19.7832 18.7873 21.0661 17.1002 21.936Z" fill="black"/>
</svg>
