<svg width="24" height="24" viewBox="0 0 24 24" fill="none" xmlns="http://www.w3.org/2000/svg">
<path d="M22.4833 17.8303C23.4778 16.0481 23.9999 14.041 23.9999 12C23.9999 9.95897 23.4778 7.95187 22.4833 6.16966C22.4781 6.1117 22.4604 6.05556 22.4314 6.00512C22.4024 5.95468 22.3628 5.91114 22.3154 5.87752C20.9741 3.61605 18.9274 1.85782 16.4898 0.873153C14.0522 -0.111512 11.3588 -0.2681 8.82357 0.427462C6.28836 1.12302 4.05174 2.63223 2.45757 4.72304C0.8634 6.81386 -6.10352e-05 9.37054 -6.10352e-05 12C-6.10352e-05 14.6295 0.8634 17.1861 2.45757 19.277C4.05174 21.3678 6.28836 22.877 8.82357 23.5725C11.3588 24.2681 14.0522 24.1115 16.4898 23.1268C18.9274 22.1422 20.9741 20.384 22.3154 18.1225C22.3628 18.0889 22.4024 18.0453 22.4314 17.9949C22.4604 17.9444 22.4781 17.8883 22.4833 17.8303ZM5.12709 18.2069H7.02141C7.41804 19.7684 8.14311 21.2274 9.14822 22.4863C7.38041 21.5324 5.96949 20.0308 5.12709 18.2069ZM0.84326 12.4138H2.90926C2.94699 14.1114 3.27207 15.7903 3.87069 17.3793H2.21591C1.3751 15.8548 0.904867 14.1538 0.84326 12.4138ZM2.21673 6.62069H3.87152C3.2729 8.20965 2.94782 9.88859 2.91009 11.5862H0.84326C0.905121 9.84616 1.37564 8.1451 2.21673 6.62069ZM18.8784 5.79311H16.9841C16.5874 4.23158 15.8624 2.77264 14.8572 1.51366C16.6251 2.46762 18.036 3.96918 18.8784 5.79311ZM23.1622 11.5862H21.0962C21.0585 9.88859 20.7334 8.20965 20.1348 6.62069H21.7896C22.6304 8.14518 23.1006 9.84622 23.1622 11.5862ZM20.2688 11.5862H17.7895C17.7716 9.91463 17.5737 8.24985 17.1992 6.62069H19.2515C19.8861 8.20128 20.2307 9.88334 20.2688 11.5862ZM11.589 6.62069V11.5862H7.04333C7.06549 9.91249 7.27727 8.24668 7.67464 6.62069H11.589ZM7.903 5.79311C8.73039 3.06786 10.0757 1.16814 11.589 0.871451V5.79311H7.903ZM11.589 12.4138V17.3793H7.67464C7.27727 15.7533 7.06549 14.0875 7.04333 12.4138H11.589ZM11.589 18.2069V23.1285C10.0757 22.8319 8.7308 20.9321 7.903 18.2069H11.589ZM12.4164 17.3793V12.4138H16.9621C16.94 14.0875 16.7282 15.7533 16.3308 17.3793H12.4164ZM16.1025 18.2069C15.2751 20.9321 13.9293 22.8319 12.4164 23.1285V18.2069H16.1025ZM12.4164 11.5862V6.62069H16.3308C16.7282 8.24668 16.94 9.91249 16.9621 11.5862H12.4164ZM12.4164 5.79311V0.871451C13.9293 1.16814 15.2742 3.06786 16.1025 5.79311H12.4164ZM9.14822 1.51366C8.14311 2.77264 7.41804 4.23158 7.02141 5.79311H5.12709C5.96949 3.96918 7.38041 2.46762 9.14822 1.51366ZM6.80587 6.62069C6.43148 8.24986 6.23369 9.91465 6.21594 11.5862H3.73666C3.77459 9.88337 4.11905 8.20131 4.75352 6.62069H6.80587ZM3.73666 12.4138H6.21594C6.23369 14.0854 6.43148 15.7501 6.80587 17.3793H4.75352C4.11905 15.7987 3.77459 14.1166 3.73666 12.4138ZM14.8572 22.4863C15.8624 21.2274 16.5874 19.7684 16.9841 18.2069H18.8784C18.036 20.0308 16.6251 21.5324 14.8572 22.4863ZM17.1992 17.3793C17.5737 15.7502 17.7716 14.0854 17.7895 12.4138H20.2688C20.2307 14.1167 19.8861 15.7987 19.2515 17.3793H17.1992ZM21.0962 12.4138H23.1622C23.1003 14.1538 22.6298 15.8549 21.7887 17.3793H20.1339C20.7328 15.7904 21.0582 14.1115 21.0962 12.4138ZM21.2848 5.79311H19.7893C19.1566 4.37965 18.2415 3.11061 17.1003 2.064C18.7874 2.93395 20.2269 4.21681 21.2848 5.79311ZM6.90475 2.064C5.76378 3.11074 4.84884 4.37976 4.21613 5.79311H2.72062C3.77837 4.21683 5.21777 2.93396 6.90475 2.064ZM2.72062 18.2069H4.21613C4.84896 19.6203 5.76405 20.8893 6.90516 21.936C5.21804 21.0661 3.77849 19.7832 2.72062 18.2069ZM17.1003 21.936C18.2415 20.8894 19.1566 19.6203 19.7893 18.2069H21.2848C20.2269 19.7832 18.7874 21.0661 17.1003 21.936Z" fill="white"/>
</svg>
