<svg width="54" height="54" viewBox="0 0 54 54" fill="none" xmlns="http://www.w3.org/2000/svg">
<path d="M52.875 51.75H43.875V39.7575C46.935 41.625 46.8225 41.625 47.25 41.625C47.5484 41.625 47.8345 41.5065 48.0455 41.2955C48.2565 41.0845 48.375 40.7984 48.375 40.5C48.375 34.4813 48.555 34.3575 47.835 33.9188C33.75 25.29 34.875 26.055 34.875 25.875V17.5725C35.5612 17.91 36 18.2138 36.5962 17.8313C37.1925 17.4488 37.125 17.145 37.125 12.375C37.125 11.43 37.2712 11.7563 28.125 7.1775V4.5H29.25C29.5484 4.5 29.8345 4.38147 30.0455 4.1705C30.2565 3.95952 30.375 3.67337 30.375 3.375C30.375 3.07663 30.2565 2.79048 30.0455 2.5795C29.8345 2.36853 29.5484 2.25 29.25 2.25H28.125V1.125C28.125 0.826631 28.0065 0.540483 27.7955 0.329505C27.5845 0.118526 27.2984 0 27 0C26.7016 0 26.4155 0.118526 26.2045 0.329505C25.9935 0.540483 25.875 0.826631 25.875 1.125V2.25H24.75C24.4516 2.25 24.1655 2.36853 23.9545 2.5795C23.7435 2.79048 23.625 3.07663 23.625 3.375C23.625 3.67337 23.7435 3.95952 23.9545 4.1705C24.1655 4.38147 24.4516 4.5 24.75 4.5H25.875V7.1775L17.4937 11.3737C17.3082 11.4672 17.1522 11.6103 17.043 11.787C16.9338 11.9637 16.8756 12.1672 16.875 12.375C16.875 17.235 16.7062 17.4038 17.4037 17.8313C18.1012 18.2588 18.5287 17.8313 19.125 17.5725C19.125 27.3713 19.125 25.6725 19.125 25.9762C4.89375 34.695 5.625 33.9975 5.625 34.875C5.625 40.86 5.43375 41.0512 6.19875 41.4787C6.96375 41.9062 7.21125 41.535 10.125 39.7575V51.75H1.125C0.826631 51.75 0.540483 51.8685 0.329505 52.0795C0.118526 52.2905 0 52.5766 0 52.875C0 53.1734 0.118526 53.4595 0.329505 53.6705C0.540483 53.8815 0.826631 54 1.125 54H52.875C53.1734 54 53.4595 53.8815 53.6705 53.6705C53.8815 53.4595 54 53.1734 54 52.875C54 52.5766 53.8815 52.2905 53.6705 52.0795C53.4595 51.8685 53.1734 51.75 52.875 51.75ZM19.125 13.0725L27 9.135L34.875 13.0725V15.0525C27 11.0925 27.1912 11.025 26.4937 11.3737L19.125 15.0525V13.0725ZM21.375 16.4475L27 13.635L32.625 16.4475V24.615L27.585 21.5437C26.7975 21.06 26.73 21.3525 21.375 24.615V16.4475ZM7.875 35.505L27 23.8162L36.5625 29.6606L46.125 35.505V38.4975C26.1225 26.2688 27.2475 26.6512 26.415 27.1687L7.875 38.4975V35.505ZM24.75 51.75V45H29.25V51.75H24.75ZM31.5 51.75V43.875C31.5 43.5766 31.3815 43.2905 31.1705 43.0795C30.9595 42.8685 30.6734 42.75 30.375 42.75H23.625C23.3266 42.75 23.0405 42.8685 22.8295 43.0795C22.6185 43.2905 22.5 43.5766 22.5 43.875V51.75H12.375V38.385L27 29.4412L41.625 38.385V51.75H31.5Z" fill="black"/>
</svg>
