<svg width="22" height="20" viewBox="0 0 22 20" fill="none" xmlns="http://www.w3.org/2000/svg">
<path d="M21.35 7.825L17.375 4.88125V3.25C17.375 3.15054 17.3355 3.05516 17.2652 2.98484C17.1948 2.91451 17.0995 2.875 17 2.875H14.6675L11.225 0.325C11.1601 0.276317 11.0811 0.25 11 0.25C10.9189 0.25 10.8399 0.276317 10.775 0.325L7.3325 2.875H5C4.90054 2.875 4.80516 2.91451 4.73484 2.98484C4.66451 3.05516 4.625 3.15054 4.625 3.25V4.88125L0.65 7.825C0.603427 7.85993 0.565625 7.90522 0.53959 7.95729C0.513554 8.00937 0.5 8.06678 0.5 8.125V18.625C0.5 18.9234 0.618526 19.2095 0.829505 19.4205C1.04048 19.6315 1.32663 19.75 1.625 19.75H20.375C20.6734 19.75 20.9595 19.6315 21.1705 19.4205C21.3815 19.2095 21.5 18.9234 21.5 18.625V8.125C21.5 8.06678 21.4864 8.00937 21.4604 7.95729C21.4344 7.90522 21.3966 7.85993 21.35 7.825ZM20.375 8.0425L17.375 9.38125V5.815L20.375 8.0425ZM11 1.09L13.4075 2.875H8.5925L11 1.09ZM16.625 3.625V9.715L11 12.2162L5.375 9.715V3.625H16.625ZM4.625 9.38125L1.625 8.0425L4.625 5.815V9.38125ZM20.375 19H1.625C1.52554 19 1.43016 18.9605 1.35984 18.8902C1.28951 18.8198 1.25 18.7245 1.25 18.625V8.7025L10.8463 12.9662C10.8946 12.988 10.947 12.9992 11 12.9992C11.053 12.9992 11.1054 12.988 11.1537 12.9662L20.75 8.7025V18.625C20.75 18.7245 20.7105 18.8198 20.6402 18.8902C20.5698 18.9605 20.4745 19 20.375 19ZM15.125 5.875H6.875V5.125H15.125V5.875ZM15.125 8.125H6.875V7.375H15.125V8.125ZM8 9.625H14V10.375H8V9.625Z" fill="black"/>
</svg>
