<svg width="24" height="24" viewBox="0 0 24 24" fill="none" xmlns="http://www.w3.org/2000/svg">
<path d="M18.3214 17.4241C19.3125 15.7678 20.25 13.8961 20.25 12.7501C20.2506 11.8669 19.9896 11.0032 19.5 10.268V1.12513C19.5 1.06952 19.4877 1.0146 19.4638 0.964352C19.44 0.914104 19.4053 0.869785 19.3622 0.834608C19.3191 0.79943 19.2688 0.774274 19.2148 0.76096C19.1608 0.747647 19.1045 0.746511 19.05 0.757634L11.634 2.24076L5.71575 0.761384C5.64669 0.743876 5.57405 0.74661 5.5065 0.769259L1.0065 2.26926C0.931798 2.29414 0.866822 2.3419 0.820784 2.40578C0.774746 2.46965 0.749981 2.5464 0.75 2.62513V16.1251C0.749996 16.1836 0.763655 16.2412 0.789888 16.2935C0.81612 16.3457 0.854199 16.3911 0.901086 16.426C0.947973 16.4609 1.00237 16.4843 1.05993 16.4945C1.1175 16.5046 1.17663 16.5012 1.23262 16.4844L8.61188 14.2719L12.177 15.6095C12.477 16.214 12.8246 16.8331 13.1786 17.4253C10.1648 17.8389 8.25 18.923 8.25 20.2501C8.25 22.2001 12.1144 23.2501 15.75 23.2501C19.3856 23.2501 23.25 22.2001 23.25 20.2501C23.25 18.923 21.3352 17.8389 18.3214 17.4241ZM5.25 14.4961L1.5 15.6211V11.5205L5.25 10.2706V14.4961ZM5.25 9.47976L1.5 10.7296V7.02051L5.25 5.77063V9.47976ZM5.25 4.97976L1.5 6.22963V2.89551L5.25 1.64526V4.97976ZM15 2.33263L18.75 1.58263V4.97976L15 6.23001V2.33263ZM15 7.02013L18.75 5.77026V9.40513C18.2501 8.94856 17.6519 8.61303 17.0017 8.42446C16.3515 8.23589 15.6666 8.19934 15 8.31763V7.02013ZM10.5 2.73051L11.5343 2.98888C11.588 3.0025 11.6442 3.00378 11.6985 2.99263L14.25 2.48263V6.37513H10.5V2.73051ZM10.5 7.12513H14.25V8.51263C13.6835 8.71454 13.163 9.02751 12.719 9.43319C12.275 9.83887 11.9165 10.3291 11.6644 10.8751H10.5V7.12513ZM9.75 13.8965L8.757 13.5238C8.68011 13.4951 8.59598 13.4924 8.51737 13.5159L6 14.2711V10.2706L9.75 11.5205V13.8965ZM9.75 10.73L6 9.47976V5.77063L9.75 7.02051V10.73ZM9.75 6.23001L6 4.97976V1.60476L9.75 2.54226V6.23001ZM10.5 14.18V11.6251H11.4C11.3025 11.9922 11.252 12.3703 11.25 12.7501C11.2948 13.405 11.4593 14.0461 11.7353 14.6416L10.5 14.18ZM12 12.7501C12 11.7556 12.3951 10.8017 13.0983 10.0985C13.8016 9.39522 14.7554 9.00013 15.75 9.00013C16.7446 9.00013 17.6984 9.39522 18.4016 10.0985C19.1049 10.8017 19.5 11.7556 19.5 12.7501C19.5 14.3761 17.025 18.1944 15.75 19.985C14.475 18.1948 12 14.3769 12 12.7501ZM15.75 22.5001C11.7724 22.5001 9 21.3144 9 20.2501C9 19.472 10.6159 18.4805 13.6088 18.1273C14.523 19.5864 15.3713 20.7436 15.4481 20.8475C15.483 20.8948 15.5285 20.9332 15.5809 20.9597C15.6333 20.9862 15.6913 21 15.75 21C15.8087 21 15.8667 20.9862 15.9191 20.9597C15.9715 20.9332 16.017 20.8948 16.0519 20.8475C16.1269 20.7436 16.977 19.5864 17.8913 18.1273C20.8841 18.4805 22.5 19.472 22.5 20.2501C22.5 21.3144 19.7276 22.5001 15.75 22.5001Z" fill="black"/>
</svg>
