<svg width="100" height="100" viewBox="0 0 100 100" fill="none" xmlns="http://www.w3.org/2000/svg">
<g clip-path="url(#clip0_22_25766)">
<path d="M50 52.625C49.3325 52.625 48.68 52.8229 48.125 53.1938C47.5699 53.5646 47.1374 54.0917 46.8819 54.7084C46.6265 55.3251 46.5596 56.0037 46.6899 56.6584C46.8201 57.3131 47.1415 57.9145 47.6135 58.3865C48.0855 58.8585 48.6869 59.1799 49.3416 59.3102C49.9963 59.4404 50.6749 59.3735 51.2916 59.1181C51.9083 58.8626 52.4354 58.4301 52.8062 57.875C53.1771 57.32 53.375 56.6675 53.375 56C53.375 55.1049 53.0194 54.2464 52.3865 53.6135C51.7536 52.9806 50.8951 52.625 50 52.625ZM50 57.125C49.7016 57.125 49.4155 57.0065 49.2045 56.7955C48.9935 56.5845 48.875 56.2984 48.875 56C48.875 55.7016 48.9935 55.4155 49.2045 55.2045C49.4155 54.9935 49.7016 54.875 50 54.875C50.2984 54.875 50.5845 54.9935 50.7955 55.2045C51.0065 55.4155 51.125 55.7016 51.125 56C51.125 56.2984 51.0065 56.5845 50.7955 56.7955C50.5845 57.0065 50.2984 57.125 50 57.125Z" fill="black"/>
<path d="M75.875 71.75H66.875V59.7575C69.935 61.625 69.8225 61.625 70.25 61.625C70.5484 61.625 70.8345 61.5065 71.0455 61.2955C71.2565 61.0845 71.375 60.7984 71.375 60.5C71.375 54.4813 71.555 54.3575 70.835 53.9188C56.75 45.29 57.875 46.055 57.875 45.875V37.5725C58.5612 37.91 59 38.2138 59.5962 37.8313C60.1925 37.4488 60.125 37.145 60.125 32.375C60.125 31.43 60.2712 31.7563 51.125 27.1775V24.5H52.25C52.5484 24.5 52.8345 24.3815 53.0455 24.1705C53.2565 23.9595 53.375 23.6734 53.375 23.375C53.375 23.0766 53.2565 22.7905 53.0455 22.5795C52.8345 22.3685 52.5484 22.25 52.25 22.25H51.125V21.125C51.125 20.8266 51.0065 20.5405 50.7955 20.3295C50.5845 20.1185 50.2984 20 50 20C49.7016 20 49.4155 20.1185 49.2045 20.3295C48.9935 20.5405 48.875 20.8266 48.875 21.125V22.25H47.75C47.4516 22.25 47.1655 22.3685 46.9545 22.5795C46.7435 22.7905 46.625 23.0766 46.625 23.375C46.625 23.6734 46.7435 23.9595 46.9545 24.1705C47.1655 24.3815 47.4516 24.5 47.75 24.5H48.875V27.1775L40.4937 31.3737C40.3082 31.4672 40.1522 31.6103 40.043 31.787C39.9338 31.9637 39.8756 32.1672 39.875 32.375C39.875 37.235 39.7062 37.4038 40.4037 37.8313C41.1012 38.2588 41.5287 37.8313 42.125 37.5725C42.125 47.3713 42.125 45.6725 42.125 45.9762C27.8938 54.695 28.625 53.9975 28.625 54.875C28.625 60.86 28.4338 61.0512 29.1988 61.4787C29.9638 61.9062 30.2113 61.535 33.125 59.7575V71.75H24.125C23.8266 71.75 23.5405 71.8685 23.3295 72.0795C23.1185 72.2905 23 72.5766 23 72.875C23 73.1734 23.1185 73.4595 23.3295 73.6705C23.5405 73.8815 23.8266 74 24.125 74H75.875C76.1734 74 76.4595 73.8815 76.6705 73.6705C76.8815 73.4595 77 73.1734 77 72.875C77 72.5766 76.8815 72.2905 76.6705 72.0795C76.4595 71.8685 76.1734 71.75 75.875 71.75ZM42.125 33.0725L50 29.135L57.875 33.0725V35.0525C50 31.0925 50.1912 31.025 49.4937 31.3737L42.125 35.0525V33.0725ZM44.375 36.4475L50 33.635L55.625 36.4475V44.615L50.585 41.5437C49.7975 41.06 49.73 41.3525 44.375 44.615V36.4475ZM30.875 55.505L50 43.8162L59.5625 49.6606L69.125 55.505V58.4975C49.1225 46.2688 50.2475 46.6512 49.415 47.1687L30.875 58.4975V55.505ZM47.75 71.75V65H52.25V71.75H47.75ZM54.5 71.75V63.875C54.5 63.5766 54.3815 63.2905 54.1705 63.0795C53.9595 62.8685 53.6734 62.75 53.375 62.75H46.625C46.3266 62.75 46.0405 62.8685 45.8295 63.0795C45.6185 63.2905 45.5 63.5766 45.5 63.875V71.75H35.375V58.385L50 49.4412L64.625 58.385V71.75H54.5Z" fill="black"/>
</g>
<rect x="0.5" y="0.5" width="99" height="99" rx="49.5" stroke="black"/>
<defs>
<clipPath id="clip0_22_25766">
<rect width="54" height="54" fill="white" transform="translate(23 20)"/>
</clipPath>
</defs>
</svg>
