<svg width="24" height="24" viewBox="0 0 24 24" fill="none" xmlns="http://www.w3.org/2000/svg">
<path d="M13.379 15.0593C13.2088 14.8892 12.9339 14.8892 12.7637 15.0593L10.9833 16.8397C10.7608 17.0622 9.62187 16.7524 8.43933 15.5699C7.25678 14.3873 6.9426 13.2484 7.16951 13.0259L8.94988 11.2455C9.03278 11.1626 9.07642 11.0535 9.07642 10.9357C9.07642 10.8179 9.02842 10.7088 8.94988 10.6259L3.80515 5.48988C3.63497 5.3197 3.36006 5.3197 3.18988 5.48988L1.86333 6.81643C0.894603 7.78516 0.837876 9.50879 1.70188 11.6644C2.52224 13.6979 4.07569 15.9233 6.0786 17.9262C9.22478 21.0724 12.6808 22.9052 15.0677 22.9052C15.9404 22.9052 16.6735 22.6608 17.1928 22.1415L18.5193 20.815C18.6022 20.7321 18.6459 20.623 18.6459 20.5052C18.6459 20.3873 18.5979 20.2782 18.5193 20.1953L13.379 15.0593ZM16.5731 21.5219C15.2073 22.8877 10.9091 21.5219 6.69387 17.3066C4.76951 15.3822 3.28588 13.2615 2.50915 11.3372C1.79351 9.55243 1.78478 8.12552 2.4786 7.4317L3.49533 6.41498L8.01606 10.9357L6.54551 12.4062C5.72951 13.2222 6.59351 14.9633 7.81533 16.1852C9.04151 17.4113 10.7782 18.271 11.5942 17.455L13.0648 15.9844L17.5855 20.5052L16.5731 21.5219ZM11.7601 1.0957C11.5201 1.0957 11.3237 1.29207 11.3237 1.53207C11.3237 1.77207 11.5201 1.96843 11.7601 1.96843C17.4241 1.96843 22.0364 6.57643 22.0364 12.2448C22.0364 12.4848 22.2328 12.6812 22.4728 12.6812C22.7128 12.6812 22.9091 12.4848 22.9091 12.2448C22.9091 6.09643 17.9084 1.0957 11.7601 1.0957Z" fill="black"/>
<path d="M11.76 4.1543C11.52 4.1543 11.3236 4.35066 11.3236 4.59066C11.3236 4.83066 11.52 5.02702 11.76 5.02702C15.7396 5.02702 18.9731 8.26484 18.9731 12.2401C18.9731 12.4801 19.1694 12.6765 19.4094 12.6765C19.6494 12.6765 19.8458 12.4801 19.8458 12.2401C19.8502 7.78484 16.2196 4.1543 11.76 4.1543Z" fill="black"/>
<path d="M15.9142 12.2398C15.9142 12.4798 16.1105 12.6762 16.3505 12.6762C16.5905 12.6762 16.7869 12.4798 16.7869 12.2398C16.7869 9.46889 14.5309 7.21289 11.76 7.21289C11.52 7.21289 11.3236 7.40925 11.3236 7.64925C11.3236 7.88925 11.52 8.08562 11.76 8.08562C14.0509 8.08998 15.9142 9.95325 15.9142 12.2398Z" fill="black"/>
</svg>
