<svg width="24" height="23" viewBox="0 0 24 23" fill="none" xmlns="http://www.w3.org/2000/svg">
<g filter="url(#filter0_d_212_22)">
<path d="M13.3789 14.0588C13.2087 13.8887 12.9338 13.8887 12.7636 14.0588L10.9833 15.8392C10.7607 16.0618 9.62181 15.7519 8.43927 14.5694C7.25672 13.3869 6.94254 12.2479 7.16945 12.0254L8.94981 10.245C9.03272 10.1621 9.07636 10.053 9.07636 9.93521C9.07636 9.8174 9.02836 9.70831 8.94981 9.6254L3.80509 4.4894C3.63491 4.31921 3.36 4.31921 3.18981 4.4894L1.86327 5.81594C0.894542 6.78467 0.837815 8.5083 1.70181 10.6639C2.52218 12.6974 4.07563 14.9229 6.07854 16.9258C9.22472 20.0719 12.6807 21.9047 15.0676 21.9047C15.9404 21.9047 16.6734 21.6603 17.1927 21.141L18.5193 19.8145C18.6022 19.7316 18.6458 19.6225 18.6458 19.5047C18.6458 19.3869 18.5978 19.2778 18.5193 19.1949L13.3789 14.0588ZM16.5731 20.5214C15.2073 21.8872 10.9091 20.5214 6.69381 16.3061C4.76945 14.3818 3.28581 12.261 2.50909 10.3367C1.79345 8.55194 1.78472 7.12503 2.47854 6.43121L3.49527 5.41449L8.016 9.93521L6.54545 11.4058C5.72945 12.2218 6.59345 13.9629 7.81527 15.1847C9.04145 16.4109 10.7782 17.2705 11.5942 16.4545L13.0647 14.9839L17.5854 19.5047L16.5731 20.5214ZM11.76 0.0952148C11.52 0.0952148 11.3236 0.291578 11.3236 0.531578C11.3236 0.771578 11.52 0.967942 11.76 0.967942C17.424 0.967942 22.0364 5.57594 22.0364 11.2443C22.0364 11.4843 22.2327 11.6807 22.4727 11.6807C22.7127 11.6807 22.9091 11.4843 22.9091 11.2443C22.9091 5.09594 17.9084 0.0952148 11.76 0.0952148Z" fill="white"/>
<path d="M11.76 3.15417C11.52 3.15417 11.3236 3.35054 11.3236 3.59054C11.3236 3.83054 11.52 4.0269 11.76 4.0269C15.7396 4.0269 18.9731 7.26472 18.9731 11.24C18.9731 11.48 19.1694 11.6764 19.4094 11.6764C19.6494 11.6764 19.8458 11.48 19.8458 11.24C19.8502 6.78472 16.2196 3.15417 11.76 3.15417Z" fill="white"/>
<path d="M15.9142 11.24C15.9142 11.48 16.1105 11.6764 16.3505 11.6764C16.5905 11.6764 16.7869 11.48 16.7869 11.24C16.7869 8.46913 14.5309 6.21313 11.76 6.21313C11.52 6.21313 11.3236 6.4095 11.3236 6.6495C11.3236 6.8895 11.52 7.08586 11.76 7.08586C14.0509 7.09023 15.9142 8.9535 15.9142 11.24Z" fill="white"/>
</g>
<defs>
<filter id="filter0_d_212_22" x="-2.90717" y="0.0952148" width="29.8162" height="29.8094" filterUnits="userSpaceOnUse" color-interpolation-filters="sRGB">
<feFlood flood-opacity="0" result="BackgroundImageFix"/>
<feColorMatrix in="SourceAlpha" type="matrix" values="0 0 0 0 0 0 0 0 0 0 0 0 0 0 0 0 0 0 127 0" result="hardAlpha"/>
<feOffset dy="4"/>
<feGaussianBlur stdDeviation="2"/>
<feComposite in2="hardAlpha" operator="out"/>
<feColorMatrix type="matrix" values="0 0 0 0 0 0 0 0 0 0 0 0 0 0 0 0 0 0 0.25 0"/>
<feBlend mode="normal" in2="BackgroundImageFix" result="effect1_dropShadow_212_22"/>
<feBlend mode="normal" in="SourceGraphic" in2="effect1_dropShadow_212_22" result="shape"/>
</filter>
</defs>
</svg>
