<?xml version="1.0" encoding="utf-8"?>							
	<svg version="1.1" id="insta" xmlns="http://www.w3.org/2000/svg" xmlns:xlink="http://www.w3.org/1999/xlink" x="0px" y="0px" viewBox="0 0 14 14" style="enable-background:new 0 0 14 14;" xml:space="preserve" width="14px" height="14px" fill="#ffffff">
	<g>
		<path class="st0" d="M10.1,0H3.9C1.7,0,0,1.7,0,3.9v6.3C0,12.3,1.7,14,3.9,14h6.3c2.1,0,3.9-1.7,3.9-3.9V3.9C14,1.7,12.3,0,10.1,0
		L10.1,0z M12.8,10.1c0,1.4-1.2,2.6-2.6,2.6H3.9c-1.4,0-2.6-1.2-2.6-2.6V3.9c0-1.4,1.2-2.6,2.6-2.6h6.3c1.4,0,2.6,1.2,2.6,2.6V10.1z
		M12.8,10.1"/>
	<path class="st0" d="M7,3.4C5,3.4,3.4,5,3.4,7c0,2,1.6,3.6,3.6,3.6c2,0,3.6-1.6,3.6-3.6C10.6,5,9,3.4,7,3.4L7,3.4z M7,9.4
										C5.7,9.4,4.6,8.3,4.6,7c0-1.3,1.1-2.4,2.4-2.4S9.4,5.7,9.4,7C9.4,8.3,8.3,9.4,7,9.4L7,9.4z M7,9.4"/>
	<path class="st0" d="M10.8,2.3c-0.2,0-0.5,0.1-0.6,0.3C9.9,2.8,9.8,3,9.8,3.3c0,0.2,0.1,0.5,0.3,0.6c0.2,0.2,0.4,0.3,0.6,0.3
										c0.2,0,0.5-0.1,0.6-0.3c0.2-0.2,0.3-0.4,0.3-0.6c0-0.2-0.1-0.5-0.3-0.6C11.2,2.4,11,2.3,10.8,2.3L10.8,2.3z M10.8,2.3"/>
	</g>
</svg>