<?xml version="1.0" encoding="utf-8"?>
<!-- Generator: Adobe Illustrator 23.0.3, SVG Export Plug-In . SVG Version: 6.00 Build 0)  -->
<svg version="1.1" id="Слой_1" xmlns="http://www.w3.org/2000/svg" xmlns:xlink="http://www.w3.org/1999/xlink" x="0px" y="0px"
	 viewBox="0 0 256 61" style="enable-background:new 0 0 256 61;" xml:space="preserve" width="256px" height="61px">
<style type="text/css">
	.st0{fill:#95969A;}
	.st1{fill:#325B75;}
	.st2{fill:#FFFFFF;}
	.st3{clip-path:url(#SVGID_2_);}
</style>
<g>
	<path class="st0" d="M88.1,41.3c1.3,0,2.4,0.5,3.3,1.5l-1.1,1c-0.6-0.6-1.3-0.9-2.2-0.9c-0.8,0-1.4,0.3-1.9,0.8
		c-0.5,0.5-0.8,1.2-0.8,2.1c0,0.8,0.3,1.5,0.8,2.1c0.5,0.5,1.2,0.8,1.9,0.8c0.9,0,1.6-0.3,2.2-0.9l1.1,1c-0.9,1-2,1.5-3.3,1.5
		c-1.2,0-2.3-0.4-3.1-1.3c-0.9-0.9-1.3-1.9-1.3-3.2c0-1.2,0.4-2.3,1.3-3.2C85.9,41.7,86.9,41.3,88.1,41.3z"/>
	<path class="st0" d="M94.1,42.6c0.9-0.9,1.9-1.3,3.1-1.3c1.2,0,2.3,0.4,3.1,1.3c0.9,0.9,1.3,1.9,1.3,3.2c0,1.2-0.4,2.3-1.3,3.2
		c-0.9,0.9-1.9,1.3-3.1,1.3c-1.2,0-2.3-0.4-3.1-1.3c-0.9-0.9-1.3-1.9-1.3-3.2C92.8,44.5,93.2,43.5,94.1,42.6z M99.2,43.7
		c-0.5-0.5-1.2-0.8-1.9-0.8c-0.8,0-1.4,0.3-1.9,0.8c-0.5,0.5-0.8,1.2-0.8,2.1c0,0.8,0.3,1.5,0.8,2.1c0.5,0.5,1.2,0.8,1.9,0.8
		c0.8,0,1.4-0.3,2-0.8c0.5-0.5,0.8-1.2,0.8-2.1C100,44.9,99.7,44.3,99.2,43.7z"/>
	<path class="st0" d="M110.5,50.2h-1l-4.1-5.6v5.6h-1.7v-8.8h1l4.1,5.6v-5.6h1.7V50.2z"/>
	<path class="st0" d="M115.7,41.3L115.7,41.3c0.7,0,1.3,0.1,1.9,0.4c0.6,0.3,1.1,0.6,1.6,1.1l-1.1,1c-0.3-0.3-0.7-0.5-1.1-0.6
		c-0.4-0.2-0.8-0.2-1.1-0.2h-0.1c-0.4,0-0.7,0.1-1,0.2c-0.3,0.2-0.5,0.4-0.5,0.7c0,0.3,0.1,0.5,0.4,0.6s0.6,0.2,1.1,0.3l0.7,0.1
		c1,0.1,1.7,0.4,2.3,0.8c0.5,0.4,0.8,1.1,0.8,1.9c0,0.8-0.3,1.5-1,2c-0.6,0.5-1.4,0.7-2.4,0.7H116c-0.8,0-1.6-0.2-2.2-0.5
		c-0.6-0.3-1.1-0.8-1.5-1.3l1.1-1c0.2,0.3,0.6,0.6,1,0.8c0.4,0.2,1,0.4,1.6,0.4h0.1c0.5,0,0.9-0.1,1.2-0.3c0.3-0.2,0.5-0.5,0.5-0.8
		c0-0.4-0.1-0.6-0.4-0.8c-0.3-0.2-0.7-0.3-1.2-0.3l-0.7-0.1c-2-0.2-3-1-3-2.4c0-0.8,0.3-1.5,0.9-1.9C114,41.5,114.8,41.3,115.7,41.3
		z"/>
	<path class="st0" d="M124.8,43v7.2h-1.7V43h-2.4v-1.6h6.5V43H124.8z"/>
	<path class="st0" d="M129,41.4h3c1.2,0,2.1,0.3,2.8,0.9c0.7,0.6,1,1.4,1,2.4c0,0.7-0.2,1.2-0.5,1.7c-0.3,0.5-0.8,0.8-1.4,1.1
		c0.4,0.2,0.8,0.8,1.3,1.5l0.7,1.2h-1.9l-0.6-0.9c-0.3-0.5-0.6-0.9-0.8-1c-0.2-0.2-0.5-0.2-0.9-0.2h-1v2.2H129V41.4z M130.7,43v3.4
		h1.4c0.6,0,1.1-0.1,1.4-0.4s0.5-0.7,0.5-1.3c0-0.5-0.2-1-0.6-1.2c-0.4-0.3-0.8-0.4-1.4-0.4H130.7z"/>
	<path class="st0" d="M144.8,41.4v5.1c0,1.2-0.3,2.1-1,2.8c-0.7,0.7-1.5,1-2.5,1c-1,0-1.8-0.3-2.5-1c-0.7-0.7-1-1.6-1-2.8v-5.1h1.7
		v5.1c0,0.8,0.2,1.3,0.5,1.7c0.3,0.3,0.8,0.5,1.3,0.5c0.5,0,0.9-0.2,1.3-0.5c0.3-0.3,0.5-0.9,0.5-1.7v-5.1H144.8z"/>
	<path class="st0" d="M151.1,41.3c1.3,0,2.4,0.5,3.3,1.5l-1.1,1c-0.6-0.6-1.3-0.9-2.2-0.9c-0.8,0-1.4,0.3-1.9,0.8
		c-0.5,0.5-0.8,1.2-0.8,2.1c0,0.8,0.3,1.5,0.8,2.1c0.5,0.5,1.2,0.8,1.9,0.8c0.9,0,1.6-0.3,2.2-0.9l1.1,1c-0.9,1-2,1.5-3.3,1.5
		c-1.2,0-2.3-0.4-3.1-1.3c-0.9-0.9-1.3-1.9-1.3-3.2c0-1.2,0.4-2.3,1.3-3.2C148.9,41.7,149.9,41.3,151.1,41.3z"/>
	<path class="st0" d="M159.7,43v7.2H158V43h-2.4v-1.6h6.5V43H159.7z"/>
	<path class="st0" d="M171,42.6c0.9-0.9,1.9-1.3,3.1-1.3c1.2,0,2.3,0.4,3.1,1.3c0.9,0.9,1.3,1.9,1.3,3.2c0,1.2-0.4,2.3-1.3,3.2
		c-0.9,0.9-1.9,1.3-3.1,1.3c-1.2,0-2.3-0.4-3.1-1.3c-0.9-0.9-1.3-1.9-1.3-3.2C169.7,44.5,170.2,43.5,171,42.6z M176.1,43.7
		c-0.5-0.5-1.2-0.8-1.9-0.8s-1.4,0.3-1.9,0.8c-0.5,0.5-0.8,1.2-0.8,2.1c0,0.8,0.3,1.5,0.8,2.1c0.5,0.5,1.2,0.8,1.9,0.8
		c0.8,0,1.4-0.3,2-0.8s0.8-1.2,0.8-2.1C176.9,44.9,176.6,44.3,176.1,43.7z"/>
	<path class="st0" d="M187.4,50.2h-1l-4.1-5.6v5.6h-1.7v-8.8h1l4.1,5.6v-5.6h1.7V50.2z"/>
	<path class="st0" d="M198,41.3c1.3,0,2.4,0.5,3.3,1.5l-1.1,1c-0.6-0.6-1.3-0.9-2.2-0.9c-0.8,0-1.4,0.3-1.9,0.8
		c-0.5,0.5-0.8,1.2-0.8,2.1c0,0.8,0.3,1.5,0.8,2.1c0.5,0.5,1.2,0.8,1.9,0.8c0.6,0,1.1-0.2,1.6-0.5v-1.5h-1.6v-1.3h3.3v3.5
		c-0.9,1-2,1.5-3.3,1.5c-1.2,0-2.3-0.4-3.1-1.3c-0.9-0.9-1.3-1.9-1.3-3.2c0-1.2,0.4-2.3,1.3-3.2C195.7,41.7,196.7,41.3,198,41.3z"/>
	<path class="st0" d="M203.5,41.4h3c1.2,0,2.1,0.3,2.8,0.9c0.7,0.6,1,1.4,1,2.4c0,0.7-0.2,1.2-0.5,1.7c-0.3,0.5-0.8,0.8-1.4,1.1
		c0.4,0.2,0.8,0.8,1.3,1.5l0.7,1.2h-1.9l-0.6-0.9c-0.3-0.5-0.6-0.9-0.8-1c-0.2-0.2-0.5-0.2-0.9-0.2h-1v2.2h-1.7V41.4z M205.3,43v3.4
		h1.4c0.6,0,1.1-0.1,1.4-0.4c0.4-0.3,0.5-0.7,0.5-1.3c0-0.5-0.2-1-0.6-1.2c-0.4-0.3-0.8-0.4-1.4-0.4H205.3z"/>
	<path class="st0" d="M213,42.6c0.9-0.9,1.9-1.3,3.1-1.3c1.2,0,2.3,0.4,3.1,1.3c0.9,0.9,1.3,1.9,1.3,3.2c0,1.2-0.4,2.3-1.3,3.2
		c-0.9,0.9-1.9,1.3-3.1,1.3c-1.2,0-2.3-0.4-3.1-1.3c-0.9-0.9-1.3-1.9-1.3-3.2C211.7,44.5,212.2,43.5,213,42.6z M218.1,43.7
		c-0.5-0.5-1.2-0.8-1.9-0.8s-1.4,0.3-1.9,0.8c-0.5,0.5-0.8,1.2-0.8,2.1c0,0.8,0.3,1.5,0.8,2.1c0.5,0.5,1.2,0.8,1.9,0.8
		c0.8,0,1.4-0.3,2-0.8s0.8-1.2,0.8-2.1C218.9,44.9,218.6,44.3,218.1,43.7z"/>
	<path class="st0" d="M229.7,41.4v5.1c0,1.2-0.3,2.1-1,2.8c-0.7,0.7-1.5,1-2.5,1c-1,0-1.8-0.3-2.5-1c-0.7-0.7-1-1.6-1-2.8v-5.1h1.7
		v5.1c0,0.8,0.2,1.3,0.5,1.7c0.3,0.3,0.8,0.5,1.3,0.5c0.5,0,0.9-0.2,1.3-0.5c0.3-0.3,0.5-0.9,0.5-1.7v-5.1H229.7z"/>
	<path class="st0" d="M232.2,41.4h2.9c1.2,0,2.1,0.3,2.8,1c0.7,0.6,1,1.4,1,2.4c0,1-0.3,1.8-1,2.5c-0.7,0.6-1.6,1-2.8,1h-1.1v2h-1.7
		V41.4z M233.9,46.5h1.3c0.6,0,1.1-0.1,1.5-0.4c0.4-0.3,0.6-0.7,0.6-1.3c0-0.6-0.2-1-0.6-1.3c-0.4-0.3-0.9-0.5-1.5-0.5h-1.3V46.5z"
		/>
</g>
<g>
	<path class="st1" d="M82.6,13.4c2.6,0,4.7,0.9,6.4,2.7l0.4,0.4l2.4-2.2L91.4,14c-2.4-2.6-5.3-4-8.9-4c-3.3,0-6.1,1.2-8.5,3.5
		c-2.3,2.3-3.5,5.2-3.5,8.5c0,3.3,1.2,6.2,3.5,8.5c2.3,2.3,5.2,3.5,8.5,3.5c3.5,0,6.5-1.3,8.9-3.9l0.3-0.4l-2.4-2.3L89,28
		c-1.7,1.8-3.8,2.7-6.4,2.7c-2.4,0-4.3-0.8-5.9-2.5c-1.6-1.6-2.4-3.7-2.4-6.2c0-2.5,0.8-4.5,2.4-6.2C78.2,14.2,80.2,13.4,82.6,13.4z
		"/>
	<path class="st1" d="M102.9,10.2l-9.7,23.7h3.9l2.4-6h8.9l2.4,6h3.9L105,10.2H102.9z M107.1,24.5h-6.2l3.1-7.7L107.1,24.5z"/>
	<polygon class="st1" points="121.8,10.2 118.3,10.2 118.3,33.9 133.3,33.9 133.3,30.5 121.8,30.5 	"/>
	<path class="st1" d="M144.9,10.2h-7.6v23.7h7.6c3.4,0,6.2-1.1,8.5-3.3c2.3-2.2,3.4-5.1,3.4-8.5c0-3.5-1.2-6.3-3.5-8.5
		C151.1,11.4,148.3,10.2,144.9,10.2z M144.9,30.5h-4V13.7h4c2.4,0,4.4,0.8,6,2.3c1.6,1.5,2.4,3.6,2.4,6.1c0,2.6-0.8,4.6-2.4,6.1
		C149.4,29.7,147.4,30.5,144.9,30.5z"/>
	<polygon class="st1" points="183.9,27.2 177.2,10.2 175.1,10.2 168.3,27.2 161.9,10.2 157.9,10.2 167.3,33.9 169.4,33.9 
		176.1,17.3 182.9,33.9 185,33.9 194.3,10.2 190.4,10.2 	"/>
	<polygon class="st1" points="198.1,33.9 213.4,33.9 213.4,30.5 201.7,30.5 201.7,23.7 212.6,23.7 212.6,20.3 201.7,20.3 
		201.7,13.7 213.4,13.7 213.4,10.2 198.1,10.2 	"/>
	<polygon class="st1" points="221.3,10.2 217.7,10.2 217.7,33.9 232.7,33.9 232.7,30.5 221.3,30.5 	"/>
	<polygon class="st1" points="240.4,30.5 240.4,10.2 236.8,10.2 236.8,33.9 251.8,33.9 251.8,30.5 	"/>
</g>
<g>
	<rect x="4.2" y="1" class="st1" width="49.1" height="59"/>
	<g>
		<path class="st2" d="M33.6,54c-12.9,0-23.5-10.5-23.5-23.5C10.2,17.6,20.7,7,33.6,7c6.3,0,12.2,2.4,16.6,6.9l-1.8,1.8
			c-3.9-3.9-9.2-6.1-14.7-6.1c-11.5,0-20.8,9.4-20.8,20.8c0,11.5,9.4,20.8,20.8,20.8c5.6,0,10.9-2.2,14.9-6.2l1.9,1.8
			C45.9,51.5,40,54,33.6,54z"/>
	</g>
	<g>
		<defs>
			<rect id="SVGID_1_" x="4.2" y="1" width="49.1" height="59"/>
		</defs>
		<clipPath id="SVGID_2_">
			<use xlink:href="#SVGID_1_"  style="overflow:visible;"/>
		</clipPath>
		<g class="st3">
			<path class="st2" d="M33.6,61C16.8,61,3.1,47.3,3.1,30.5S16.8,0,33.6,0s30.5,13.7,30.5,30.5S50.4,61,33.6,61z M33.6,2.6
				C18.3,2.6,5.7,15.1,5.7,30.5s12.5,27.9,27.9,27.9s27.9-12.5,27.9-27.9S49,2.6,33.6,2.6z"/>
		</g>
	</g>
</g>
<rect x="165" y="41.3" class="st0" width="1.7" height="8.8"/>
</svg>
