# 3ds Max Wavefront OBJ Exporter v0.97b - (c)2007 guruware
# File Created: 06.02.2019 05:11:29

mtllib Buttonhole.mtl

#
# object Buttonhole
#

v  -0.8370 3.3791 -0.1005
v  -0.8456 3.3804 -0.0944
v  -0.8353 3.3897 -0.1022
v  -0.8541 3.3816 -0.0882
v  -0.8499 3.4032 -0.0918
v  -0.8332 3.4009 -0.1041
v  -0.8463 3.4082 -0.0958
v  -0.8340 3.4066 -0.1049
v  -0.8509 3.4087 -0.0927
v  -0.8727 3.3841 -0.0766
v  -0.8825 3.3853 -0.0710
v  -0.8796 3.4069 -0.0750
v  -0.8753 3.4117 -0.0788
v  -0.8802 3.4124 -0.0756
v  -0.8982 3.3895 -0.0561
v  -0.8952 3.4102 -0.0592
v  -0.8983 3.3888 -0.0559
v  -0.8958 3.4157 -0.0598
# 18 vertices

vn -0.4965 0.0164 -0.8679
vn -0.5028 0.0269 -0.8640
vn -0.5077 0.0351 -0.8608
vn -0.4815 0.0295 -0.8759
vn -0.4573 -0.0284 -0.8888
vn -0.5170 -0.0422 -0.8550
vn -0.5180 -0.1375 -0.8443
vn -0.5218 -0.1333 -0.8426
vn -0.4343 -0.1617 -0.8862
vn -0.4253 -0.0179 -0.9049
vn -0.5559 -0.0003 -0.8313
vn -0.5295 -0.0253 -0.8479
vn -0.4273 -0.1552 -0.8907
vn -0.6187 -0.0930 -0.7801
vn -0.6281 0.0340 -0.7774
vn -0.6408 0.0214 -0.7674
vn -0.6197 0.0173 -0.7846
vn -0.6510 -0.0929 -0.7534
# 18 vertex normals

vt 0.0000 0.0000 0.0000
vt 0.1404 0.0000 0.0000
vt 0.0000 0.3818 0.0000
vt 0.2826 0.0000 0.0000
vt 0.2826 0.7955 0.0000
vt 0.0000 0.7955 0.0000
vt 0.2074 1.0000 0.0000
vt 0.0000 1.0000 0.0000
vt 0.2826 1.0000 0.0000
vt 0.5752 0.0000 0.0000
vt 0.7174 0.0000 0.0000
vt 0.7174 0.7955 0.0000
vt 0.6422 1.0000 0.0000
vt 0.7174 1.0000 0.0000
vt 1.0000 0.0272 0.0000
vt 1.0000 0.7955 0.0000
vt 1.0000 0.0000 0.0000
vt 1.0000 1.0000 0.0000
# 18 texture coords

o Buttonhole
g Buttonhole
usemtl Unwrap_Texture_Checker_Material
s 1
f 1/1/1 2/2/2 3/3/3 
f 3/3/3 2/2/2 4/4/4 
f 3/3/3 4/4/4 5/5/5 
f 3/3/3 5/5/5 6/6/6 
f 6/6/6 5/5/5 7/7/7 
f 6/6/6 7/7/7 8/8/8 
f 5/5/5 9/9/9 7/7/7 
f 4/4/4 10/10/10 5/5/5 
f 10/10/10 11/11/11 12/12/12 
f 10/10/10 12/12/12 5/5/5 
f 5/5/5 12/12/12 13/13/13 
f 5/5/5 13/13/13 9/9/9 
f 12/12/12 14/14/14 13/13/13 
f 15/15/15 16/16/16 12/12/12 
f 11/11/11 17/17/17 15/15/15 
f 11/11/11 15/15/15 12/12/12 
f 12/12/12 16/16/16 18/18/18 
f 12/12/12 18/18/18 14/14/14 
# 0 polygons - 18 triangles

