<?xml version="1.0" encoding="utf-8"?>
<!-- Generator: Adobe Illustrator 22.1.0, SVG Export Plug-In . SVG Version: 6.00 Build 0)  -->
<svg version="1.1" id="Слой_1" xmlns="http://www.w3.org/2000/svg" xmlns:xlink="http://www.w3.org/1999/xlink" x="0px" y="0px"
	 viewBox="0 0 521 521" style="enable-background:new 0 0 521 521;" xml:space="preserve">
<style type="text/css">
	.st0{fill:#7C3AFF;}
</style>
<g>
	<g>
		<g>
			<g>
				<path class="st0" d="M493,42.9c2.1,1,3.1,3.7,1.5,5.7c0,0.5-0.5,1-1.5,1.5l-15.4,9.3c-2.6,1-5.2,0.5-6.2-1.5
					c-1-2.1-0.5-4.7,1.5-6.2l9.2-5.2l-9.2-5.7c-2.1-1-2.6-3.6-1.5-5.7c1-2.1,3.6-3.1,6.2-1.6L493,42.9z"/>
				<path class="st0" d="M449.3,213.3c-2.6,3.1-6.1,4.6-10.3,4.6s-7.7-2.1-10.8-4.6c-2.6-2.6-4.1-6.3-4.1-10.4c0-4.2,1.5-7.8,4.1-11
					h0.5c2.5-2.6,6.1-4.1,10.3-4.1s7.7,1.5,10.3,4.1l0.5,0.5c2.6,2.6,4.1,6.2,4.1,10.4S452.4,210.6,449.3,213.3z M443.2,207
					c1.5-1,2.1-2.6,2.1-4.1c0-2.1-0.5-3.7-2.1-4.7c-1-1-2.6-1.5-4.1-1.5c-2.1,0-3.6,0.5-4.6,1.5s-1.6,2.6-1.6,4.7
					c0,1.5,0.5,3.1,1.6,4.1c1,1,2.6,2.1,4.6,2.1C440.6,209.1,442.1,208.1,443.2,207z"/>
				<polygon class="st0" points="338.8,159.3 335,163.6 328.4,157.9 332.1,153.5 				"/>
				<polygon class="st0" points="335,163.6 143,389.8 136.2,383.8 328.4,157.9 				"/>
				<path class="st0" d="M439.6,59.6c3.1,3.1,5.7,6.3,7.7,9.9c1.6,3.1,2.6,7.3,3.1,10.9v1v6.8c-0.5,3.1-1,5.7-2.1,8.8l-0.5,0.5
					c-1,2.6-3,5.7-5.1,7.8l-30.8,36.9c-1.5,1.6-4.1,2.1-6.2,0L307.9,58c-1.5-1.5-2-4.2-0.5-6.2l31.3-36.4c3.1-3.6,6.7-6.2,10.8-8.3
					C353.7,5,358.3,4,363,4c4.1,0,7.7,0.5,11.3,2.1c3.6,1,7.2,3.2,9.8,5.7L439.6,59.6z M441.6,81.3c0-2.6-1-5.7-2.1-7.8
					c-1.5-2.6-3.6-5.2-5.7-7.2l-55.5-47.8c-2.1-2.1-4.6-3.7-7.2-4.7c-2.6-0.5-5.1-1-8.2-1s-6.7,0.5-9.8,2.1
					c-2.5,1.5-5.6,3.7-7.7,6.2l-28.3,33.3l91,78.4l27.7-33.3c2.1-1.5,3.1-3.6,4.1-5.7s1.6-4.2,1.6-6.8L441.6,81.3L441.6,81.3z"/>
				<polygon class="st0" points="305.9,134.8 304.1,137 297.1,130.9 298.7,129.1 				"/>
				<polygon class="st0" points="304.1,137 111.8,362.9 104.9,356.9 297.1,130.9 				"/>
				<path class="st0" d="M376.8,169.6l17-20.2l-91-78.4l-17,20.2L376.8,169.6z M403,145.7c1.6,1.5,2.1,4.2,0.5,6.3l-23.1,27
					c-1.6,1.6-4.1,2.1-6.2,0.5l-97.6-84.6c-1.5-1.5-2.1-4.2-0.5-6.3l23.1-27c1.5-1.5,4.1-2.1,6.2-0.5L403,145.7z"/>
				<path class="st0" d="M234.9,407.5c3.1,0,6.2,1.5,8.3,3.6s3.6,5.2,3.6,8.3c0,3.2-1.5,6.3-3.6,8.3c-2.1,2.1-5.2,3.1-8.3,3.1
					s-6.1-1-8.2-3.1c-2.1-2.1-3.1-5.2-3.1-8.3c0-3.1,1-6.2,3.1-8.3C228.8,409,231.8,407.5,234.9,407.5z M237,417.3
					c-0.5-0.5-1-1-2.1-1c-0.5,0-1.6,0.5-2.1,1s-0.5,1-0.5,2.1c0,0.5,0,1.6,0.5,2.1s1.6,0.5,2.1,0.5c1,0,1.5,0,2.1-0.5
					c0.5-0.6,1-1.6,1-2.1C238,418.4,237.5,417.8,237,417.3z"/>
				<path class="st0" d="M209.8,21.7c0.5,2.6-1,4.6-3.1,5.7l-7.7,2.1c-2.6,0.5-4.6-1-5.2-3.2c-1-2.6,0.5-5.2,3.1-5.7l7.7-2.1
					C206.7,18,209.2,19.6,209.8,21.7z"/>
				<path class="st0" d="M199,40.9c0.5,2.1-1,4.6-3.1,5.2c-2.6,0.6-4.6-0.5-5.2-3.1l-2.1-7.8c-1-2.1,0.5-4.6,3.1-5.2
					c2.1-0.5,4.6,0.5,5.2,3.1L199,40.9z"/>
				<path class="st0" d="M192.8,18c0.5,2.6-0.5,4.7-3.1,5.7c-2.1,0.5-4.6-1-5.2-3.1l-2-7.3c-0.5-2.6,1-5.2,3.1-5.7
					c2.5-0.5,4.6,1.1,5.6,3.2L192.8,18z"/>
				<path class="st0" d="M176.9,35.1c-2.1,0.5-4.6-0.5-5.2-3.1c-0.5-2.6,1-4.7,3.1-5.2l7.7-2.1c2.6-1,5.1,0.5,5.6,3.1
					c0.5,2.1-1,4.7-3,5.2L176.9,35.1z"/>
				<polygon class="st0" points="136.2,383.8 143,389.8 140.8,392.4 134.2,386.2 				"/>
				<polygon class="st0" points="104.9,356.9 111.8,362.9 107.9,367.5 100.8,361.8 				"/>
				<path class="st0" d="M371.7,189.4L173.8,422c-1.6,2.1-4.1,2.1-6.1,0.5l-68.3-59.1l1.4-1.7l7.2,5.7l3.9-4.6l24.4,20.9l-2,2.4
					l6.7,6.2l2.2-2.6l27.2,23.4l191.7-226.4l-26.9-23.2l3.7-4.4l2.1-2.4l30.3,26.3C372.7,184.7,373.2,187.3,371.7,189.4z"/>
				<polygon class="st0" points="100.8,225.2 103.3,233.5 94.6,235.6 92.6,227.8 				"/>
				<polygon class="st0" points="94.6,235.6 97.2,243.9 89,246 86.4,238.2 				"/>
				<path class="st0" d="M93.5,495.8c2.1,0,4.1,2.1,4.1,4.1c0,2.6-2.1,4.7-4.1,4.7H71c-2.6,0-4.6-2.1-4.6-4.7c0-2.1,2.1-4.1,4.6-4.1
					H93.5z"/>
				<polygon class="st0" points="90,220 92.6,227.8 84.3,230.4 81.7,222.6 				"/>
				<polygon class="st0" points="84.3,230.4 86.4,238.2 78.1,240.7 76.1,233 				"/>
				<path class="st0" d="M78.1,507.2c2.6,0,4.6,2.1,4.6,4.6c0,2.6-2.1,4.2-4.6,4.2H29.8c-2.6,0-4.1-1.6-4.1-4.2
					c0-2.6,1.5-4.6,4.1-4.6L78.1,507.2L78.1,507.2z"/>
				<path class="st0" d="M270.9,108.3L78.6,334.2l26.3,22.6l-4.1,4.9l-1.4,1.7L70,337.9c-2.1-1.6-2.1-4.2-0.5-6.2L267.3,99
					c1.5-1.5,4.1-2.1,6.2-0.5l67.3,58.4l-2.1,2.4l-6.6-5.7l-3.7,4.4l-24.3-21l1.8-2.1l-7.2-5.7l-1.6,1.8L270.9,108.3z"/>
				<path class="st0" d="M150.6,431.4l-86.9-75.9l-28.8,109c-0.5,2.6,0,4.7,1,6.8c0.5,1.6,1.5,2.6,2.6,3.6c1,0.5,2.6,1.5,3.6,1.5
					c1.5,0.6,3.6,0,5.6-0.5L150.6,431.4z M162.5,430.8c1,2.1,0,4.7-2.1,5.7l-109,47.2c-3.6,1.6-7.7,2.1-10.8,1.6
					c-3.1-0.6-5.7-2.1-7.7-3.7c-2.1-2.1-3.6-4.1-4.6-6.8c-2.1-3.6-2.6-7.7-1.6-12.4l30.8-115.8c0-0.5,0.5-1,0.5-1.5
					c1.5-2.1,4.6-2.1,6.1-0.5l97.2,84.1C161.9,429.3,162.5,429.8,162.5,430.8z"/>
			</g>
		</g>
	</g>
</g>
</svg>
