<?xml version="1.0" encoding="utf-8"?>
<!-- Generator: Adobe Illustrator 22.0.1, SVG Export Plug-In . SVG Version: 6.00 Build 0)  -->
<svg version="1.1" id="Слой_1" xmlns="http://www.w3.org/2000/svg" xmlns:xlink="http://www.w3.org/1999/xlink" x="0px" y="0px"
	 viewBox="0 0 512 640" style="enable-background:new 0 0 512 640;" xml:space="preserve">
<style type="text/css">
	.st0{fill:#7C3AFF;}
</style>
<g>
	<g>
		<g>
			<g>
				<path class="st0" d="M488.5,38.9c2.1,1,3.1,3.7,1.5,5.7c0,0.5-0.5,1-1.5,1.5l-15.4,9.3c-2.6,1-5.2,0.5-6.2-1.5
					c-1-2.1-0.5-4.7,1.5-6.2l9.2-5.2l-9.2-5.7c-2.1-1-2.6-3.6-1.5-5.7c1-2.1,3.6-3.1,6.2-1.6L488.5,38.9z"/>
				<path class="st0" d="M444.8,209.3c-2.6,3.1-6.1,4.6-10.3,4.6s-7.7-2.1-10.8-4.6c-2.6-2.6-4.1-6.3-4.1-10.4c0-4.2,1.5-7.8,4.1-11
					h0.5c2.5-2.6,6.1-4.1,10.3-4.1s7.7,1.5,10.3,4.1l0.5,0.5c2.6,2.6,4.1,6.2,4.1,10.4S447.9,206.6,444.8,209.3z M438.7,203
					c1.5-1,2.1-2.6,2.1-4.1c0-2.1-0.5-3.7-2.1-4.7c-1-1-2.6-1.5-4.1-1.5c-2.1,0-3.6,0.5-4.6,1.5s-1.6,2.6-1.6,4.7
					c0,1.5,0.5,3.1,1.6,4.1c1,1,2.6,2.1,4.6,2.1C436.1,205.1,437.6,204.1,438.7,203z"/>
				<polygon class="st0" points="334.3,155.3 330.5,159.6 323.9,153.9 327.6,149.5 				"/>
				<polygon class="st0" points="330.5,159.6 138.5,385.8 131.7,379.8 323.9,153.9 				"/>
				<path class="st0" d="M435.1,55.6c3.1,3.1,5.7,6.3,7.7,9.9c1.6,3.1,2.6,7.3,3.1,10.9v1v6.8c-0.5,3.1-1,5.7-2.1,8.8l-0.5,0.5
					c-1,2.6-3,5.7-5.1,7.8l-30.8,36.9c-1.5,1.6-4.1,2.1-6.2,0L303.4,54c-1.5-1.5-2-4.2-0.5-6.2l31.3-36.4c3.1-3.6,6.7-6.2,10.8-8.3
					C349.2,1,353.8,0,358.5,0c4.1,0,7.7,0.5,11.3,2.1c3.6,1,7.2,3.2,9.8,5.7L435.1,55.6z M437.1,77.3c0-2.6-1-5.7-2.1-7.8
					c-1.5-2.6-3.6-5.2-5.7-7.2l-55.5-47.8c-2.1-2.1-4.6-3.7-7.2-4.7c-2.6-0.5-5.1-1-8.2-1s-6.7,0.5-9.8,2.1
					c-2.5,1.5-5.6,3.7-7.7,6.2l-28.3,33.3l91,78.4l27.7-33.3c2.1-1.5,3.1-3.6,4.1-5.7s1.6-4.2,1.6-6.8L437.1,77.3L437.1,77.3z"/>
				<polygon class="st0" points="301.4,130.8 299.6,133 292.6,126.9 294.2,125.1 				"/>
				<polygon class="st0" points="299.6,133 107.3,358.9 100.4,352.9 292.6,126.9 				"/>
				<path class="st0" d="M372.3,165.6l17-20.2l-91-78.4l-17,20.2L372.3,165.6z M398.5,141.7c1.6,1.5,2.1,4.2,0.5,6.3l-23.1,27
					c-1.6,1.6-4.1,2.1-6.2,0.5l-97.6-84.6c-1.5-1.5-2.1-4.2-0.5-6.3l23.1-27c1.5-1.5,4.1-2.1,6.2-0.5L398.5,141.7z"/>
				<path class="st0" d="M230.4,403.5c3.1,0,6.2,1.5,8.3,3.6s3.6,5.2,3.6,8.3c0,3.2-1.5,6.3-3.6,8.3c-2.1,2.1-5.2,3.1-8.3,3.1
					s-6.1-1-8.2-3.1c-2.1-2.1-3.1-5.2-3.1-8.3c0-3.1,1-6.2,3.1-8.3C224.3,405,227.3,403.5,230.4,403.5z M232.5,413.3
					c-0.5-0.5-1-1-2.1-1c-0.5,0-1.6,0.5-2.1,1s-0.5,1-0.5,2.1c0,0.5,0,1.6,0.5,2.1s1.6,0.5,2.1,0.5c1,0,1.5,0,2.1-0.5
					c0.5-0.6,1-1.6,1-2.1C233.5,414.4,233,413.8,232.5,413.3z"/>
				<path class="st0" d="M205.3,17.7c0.5,2.6-1,4.6-3.1,5.7l-7.7,2.1c-2.6,0.5-4.6-1-5.2-3.2c-1-2.6,0.5-5.2,3.1-5.7l7.7-2.1
					C202.2,14,204.7,15.6,205.3,17.7z"/>
				<path class="st0" d="M194.5,36.9c0.5,2.1-1,4.6-3.1,5.2c-2.6,0.6-4.6-0.5-5.2-3.1l-2.1-7.8c-1-2.1,0.5-4.6,3.1-5.2
					c2.1-0.5,4.6,0.5,5.2,3.1L194.5,36.9z"/>
				<path class="st0" d="M188.3,14c0.5,2.6-0.5,4.7-3.1,5.7c-2.1,0.5-4.6-1-5.2-3.1l-2-7.3c-0.5-2.6,1-5.2,3.1-5.7
					c2.5-0.5,4.6,1.1,5.6,3.2L188.3,14z"/>
				<path class="st0" d="M172.4,31.1c-2.1,0.5-4.6-0.5-5.2-3.1c-0.5-2.6,1-4.7,3.1-5.2l7.7-2.1c2.6-1,5.1,0.5,5.6,3.1
					c0.5,2.1-1,4.7-3,5.2L172.4,31.1z"/>
				<polygon class="st0" points="131.7,379.8 138.5,385.8 136.3,388.4 129.7,382.2 				"/>
				<polygon class="st0" points="100.4,352.9 107.3,358.9 103.4,363.5 96.3,357.8 				"/>
				<path class="st0" d="M367.2,185.4L169.3,418c-1.6,2.1-4.1,2.1-6.1,0.5l-68.3-59.1l1.4-1.7l7.2,5.7l3.9-4.6l24.4,20.9l-2,2.4
					l6.7,6.2l2.2-2.6l27.2,23.4l191.7-226.4l-26.9-23.2l3.7-4.4l2.1-2.4l30.3,26.3C368.2,180.7,368.7,183.3,367.2,185.4z"/>
				<polygon class="st0" points="96.3,221.2 98.8,229.5 90.1,231.6 88.1,223.8 				"/>
				<polygon class="st0" points="90.1,231.6 92.7,239.9 84.5,242 81.9,234.2 				"/>
				<path class="st0" d="M89,491.8c2.1,0,4.1,2.1,4.1,4.1c0,2.6-2.1,4.7-4.1,4.7H66.5c-2.6,0-4.6-2.1-4.6-4.7c0-2.1,2.1-4.1,4.6-4.1
					H89z"/>
				<polygon class="st0" points="85.5,216 88.1,223.8 79.8,226.4 77.2,218.6 				"/>
				<polygon class="st0" points="79.8,226.4 81.9,234.2 73.6,236.7 71.6,229 				"/>
				<path class="st0" d="M73.6,503.2c2.6,0,4.6,2.1,4.6,4.6c0,2.6-2.1,4.2-4.6,4.2H25.3c-2.6,0-4.1-1.6-4.1-4.2s1.5-4.6,4.1-4.6
					L73.6,503.2L73.6,503.2z"/>
				<path class="st0" d="M266.4,104.3L74.1,330.2l26.3,22.6l-4.1,4.9l-1.4,1.7l-29.4-25.5c-2.1-1.6-2.1-4.2-0.5-6.2L262.8,95
					c1.5-1.5,4.1-2.1,6.2-0.5l67.3,58.4l-2.1,2.4l-6.6-5.7l-3.7,4.4l-24.3-21l1.8-2.1l-7.2-5.7l-1.6,1.8L266.4,104.3z"/>
				<path class="st0" d="M146.1,427.4l-86.9-75.9l-28.8,109c-0.5,2.6,0,4.7,1,6.8c0.5,1.6,1.5,2.6,2.6,3.6c1,0.5,2.6,1.5,3.6,1.5
					c1.5,0.6,3.6,0,5.6-0.5L146.1,427.4z M158,426.8c1,2.1,0,4.7-2.1,5.7l-109,47.2c-3.6,1.6-7.7,2.1-10.8,1.6
					c-3.1-0.6-5.7-2.1-7.7-3.7c-2.1-2.1-3.6-4.1-4.6-6.8c-2.1-3.6-2.6-7.7-1.6-12.4L53,342.6c0-0.5,0.5-1,0.5-1.5
					c1.5-2.1,4.6-2.1,6.1-0.5l97.2,84.1C157.4,425.3,158,425.8,158,426.8z"/>
			</g>
		</g>
	</g>
</g>
</svg>
