<?xml version="1.0" encoding="utf-8"?>
<!-- Generator: Adobe Illustrator 22.1.0, SVG Export Plug-In . SVG Version: 6.00 Build 0)  -->
<svg version="1.1" id="Слой_1" xmlns="http://www.w3.org/2000/svg" xmlns:xlink="http://www.w3.org/1999/xlink" x="0px" y="0px"
	 viewBox="0 0 512 470" style="enable-background:new 0 0 512 470;" xml:space="preserve">
<style type="text/css">
	.st0{fill:#FFFFFF;}
</style>
<g>
	<g>
		<g>
			<g>
				<path class="st0" d="M496.7,290.5c-1.6,0-3.2,0.6-4.2,2.2c-1.1,1-2.2,2.6-2.2,4.2s1.1,3.2,2.2,4.8c1.1,1.1,2.6,1.6,4.2,1.6
					c2.1,0,3.7-0.5,4.8-1.6c1-1.6,1.6-3.2,1.6-4.8c0-1.6-0.5-3.2-1.6-4.2C500.4,291.1,498.7,290.5,496.7,290.5z M486.1,307.7
					c-3.2-2.7-4.8-6.4-4.8-10.7c0-4.2,2.1-8,4.8-10.7v-0.5c2.6-2.7,6.3-4.3,10.6-4.3c4.2,0,8.5,1.6,11.1,4.8
					c2.6,2.7,4.2,6.5,4.2,10.7c0,4.3-1.6,8-4.2,11.2c-3.2,2.7-6.9,4.3-11.1,4.3s-7.9-1.6-10.6-4.3L486.1,307.7L486.1,307.7z"/>
				<path class="st0" d="M465.4,41.9L449,51.5c-2.1,1.1-4.8,0.5-5.8-1.6c-1.6-2.2-0.5-4.8,1.6-6.4l9.6-5.4l-9.6-5.9
					c-2.1-1.1-3.2-3.8-1.6-5.9c1-2.1,3.7-3.2,5.8-1.6l16.4,9.1c2.1,1.6,2.6,4.2,1.6,6.4C466.5,40.8,466,41.4,465.4,41.9z"/>
				<path class="st0" d="M373.3,440.3c2.6,0,4.8,2.1,4.8,4.8c0,2.2-2.1,4.3-4.8,4.3H350c-2.1,0-4.2-2.1-4.2-4.3
					c0-2.7,2.2-4.8,4.2-4.8H373.3z"/>
				<path class="st0" d="M357.9,452.6c2.6,0,4.8,2.2,4.8,4.2c0,2.7-2.1,4.8-4.8,4.8h-49.7c-2.6,0-4.8-2.2-4.8-4.8
					c0-2.1,2.1-4.2,4.8-4.2H357.9z"/>
				<path class="st0" d="M172.1,311.4l147.2-85.6l-147.2-85.6L172.1,311.4L172.1,311.4z M163.1,132.3c0-1.1,0.5-1.6,0.5-2.2
					c1.6-2.1,4.2-3.2,6.3-1.6l160.4,93c0.5,0.5,1.1,1,1.6,2.1c1,2.2,0.5,4.8-1.6,5.9L170,323.2c-0.5,0.5-1.6,0.5-2.2,0.5
					c-2.6,0-4.7-2.1-4.7-4.3V132.3L163.1,132.3z"/>
				<path class="st0" d="M153.5,25.3c-0.5-2.6,0.5-4.8,3.2-5.3l7.9-2.2c2.1-1.1,4.8,0.5,5.3,3.2c0.5,2.2-0.5,4.8-3.2,5.3l-7.9,2.2
					C156.7,29.1,154.1,27.5,153.5,25.3z"/>
				<path class="st0" d="M150.4,42.5l-2.1-7.5c-0.5-2.7,0.6-4.8,3.2-5.9c2.1-0.5,4.7,1.1,5.3,3.2l2.1,8c0.5,2.7-0.5,4.8-3.2,5.4
					C153.5,46.8,150.9,45.1,150.4,42.5z"/>
				<path class="st0" d="M150.9,9.9l1.6,7.5c1.1,2.2-0.5,4.8-3.2,5.4c-2.1,0.5-4.8-0.5-5.3-3.2l-2.2-7.5c-0.5-2.7,1.1-4.8,3.2-5.4
					C147.8,5.6,149.8,7.2,150.9,9.9z"/>
				<path class="st0" d="M144.5,409.8c0.5-0.5,1.1-1.6,1.1-2.1c0-1.1-0.5-1.6-1.1-2.2c-0.5-0.5-1-1.1-2.1-1.1
					c-0.5,0-1.6,0.5-2.1,1.1c-0.5,0.5-0.5,1.1-0.5,2.2c0,0.5,0,1.6,0.5,2.1s1.6,0.5,2.1,0.5C143.5,410.3,144.1,410.3,144.5,409.8z
					 M150.9,399.1c2.1,2.2,3.7,4.8,3.7,8.6c0,3.2-1.6,5.8-3.7,8c-2.1,2.7-5.3,3.7-8.5,3.7s-6.3-1-8.5-3.7c-2.1-2.2-3.2-4.8-3.2-8
					c0-3.8,1.1-6.5,3.2-8.6c2.2-2.1,5.3-3.7,8.5-3.7C145.6,395.4,148.8,397,150.9,399.1z"/>
				<path class="st0" d="M147.8,26.9c0.5,2.1-0.5,4.8-3.2,5.4l-7.9,2.2c-2.6,1.1-5.3-0.5-5.8-3.2c-0.5-2.2,1.1-4.8,3.2-5.4l8.5-2.1
					C144.5,23.2,147.2,24.2,147.8,26.9z"/>
				<path class="st0" d="M437.9,370.3V81H57.8v289.3H437.9z M48.7,375.1V76.7c0-2.7,2.1-4.8,4.2-4.8h389.7c2.6,0,4.2,2.2,4.2,4.8
					v298.4c0,2.1-1.6,4.3-4.2,4.3H53C50.8,379.4,48.7,377.2,48.7,375.1z"/>
				<polygon class="st0" points="26,193.3 28.1,201.3 19.6,203.9 17.5,195.4 				"/>
				<polygon class="st0" points="11.1,206.1 19.6,203.9 22.3,211.9 13.8,214.6 				"/>
				<polygon class="st0" points="14.9,187.3 17.5,195.4 9,198.1 6.4,190 				"/>
				<polygon class="st0" points="9,198.1 11.1,206.1 2.7,208.8 0,200.7 				"/>
			</g>
		</g>
	</g>
</g>
</svg>
