<?xml version="1.0" encoding="utf-8"?>
<!-- Generator: Adobe Illustrator 22.1.0, SVG Export Plug-In . SVG Version: 6.00 Build 0)  -->
<svg version="1.1" id="Слой_1" xmlns="http://www.w3.org/2000/svg" xmlns:xlink="http://www.w3.org/1999/xlink" x="0px" y="0px"
	 viewBox="0 0 172 157.9" style="enable-background:new 0 0 172 157.9;" xml:space="preserve">
<style type="text/css">
	.st0{fill:#FFFFFF;}
</style>
<g>
	<path class="st0" d="M162.9,93.9c-0.8-1-2.1-1.5-3.4-1.5c-1.3,0-2.4,0.5-3.2,1.3v0.2c-0.8,0.8-1.5,2-1.5,3.3c0,1.3,0.5,2.4,1.5,3.3
		l0,0.2c0.8,0.8,2,1.3,3.2,1.3s2.4-0.5,3.4-1.3c0.8-1,1.3-2.1,1.3-3.4C164.2,95.9,163.7,94.7,162.9,93.9z M161,98.6
		c-0.3,0.3-0.8,0.5-1.5,0.5c-0.5,0-0.9-0.2-1.3-0.5c-0.3-0.5-0.7-1-0.7-1.5c0-0.5,0.3-1,0.7-1.3c0.3-0.5,0.8-0.7,1.3-0.7
		c0.6,0,1.1,0.2,1.5,0.7c0.3,0.3,0.5,0.8,0.5,1.3C161.5,97.6,161.3,98.1,161,98.6z"/>
	<path class="st0" d="M149.9,16.8l-5-2.8c-0.6-0.5-1.5-0.2-1.8,0.5c-0.5,0.6-0.2,1.5,0.5,1.8l2.9,1.8l-2.9,1.6c-0.6,0.5-1,1.3-0.5,2
		c0.3,0.6,1.1,0.8,1.8,0.5l5-2.9c0.2-0.2,0.3-0.3,0.5-0.5C150.7,18.1,150.6,17.3,149.9,16.8z"/>
	<path class="st0" d="M121.8,140.9h-7.1c-0.6,0-1.3,0.6-1.3,1.5c0,0.7,0.6,1.3,1.3,1.3h7.1c0.8,0,1.5-0.6,1.5-1.3
		C123.3,141.6,122.6,140.9,121.8,140.9z"/>
	<path class="st0" d="M117.1,144.7h-15.2c-0.8,0-1.5,0.6-1.5,1.3c0,0.8,0.7,1.5,1.5,1.5h15.2c0.8,0,1.5-0.6,1.5-1.5
		C118.6,145.3,117.9,144.7,117.1,144.7z"/>
	<path class="st0" d="M59.1,105.3c0.2,0,0.5,0,0.7-0.2l48.9-28.6c0.6-0.3,0.8-1.1,0.5-1.8c-0.2-0.3-0.3-0.5-0.5-0.6l-49-28.4
		c-0.6-0.5-1.4-0.2-1.9,0.5c0,0.2-0.2,0.3-0.2,0.7V104C57.6,104.7,58.3,105.3,59.1,105.3z M105.3,75.4l-44.9,26.1l0-52.3L105.3,75.4
		z"/>
	<path class="st0" d="M56.3,15.2l2.4-0.7c0.8-0.2,1.1-0.9,1-1.6c-0.2-0.8-1-1.3-1.6-1l-2.4,0.7c-0.8,0.2-1.1,0.8-1,1.6
		C54.9,14.9,55.7,15.4,56.3,15.2z"/>
	<path class="st0" d="M54.1,15.4c-0.8,0.3-1.1,1-1,1.8l0.6,2.3c0.2,0.8,0.9,1.3,1.6,1c0.8-0.2,1.1-0.8,1-1.6l-0.6-2.4
		C55.5,15.7,54.7,15.2,54.1,15.4z"/>
	<path class="st0" d="M51.8,12.5c0.2,0.8,1,1.1,1.6,1c0.8-0.2,1.3-1,1-1.6l-0.5-2.3c-0.3-0.8-0.9-1.3-1.8-1c-0.6,0.2-1.1,0.8-1,1.6
		L51.8,12.5z"/>
	<path class="st0" d="M51.3,127.2c-1,0-1.9,0.5-2.6,1.1c-0.6,0.6-1,1.5-1,2.6c0,1,0.3,1.8,1,2.4c0.7,0.8,1.6,1.1,2.6,1.1
		c1,0,2-0.3,2.6-1.1c0.6-0.7,1.1-1.5,1.1-2.4c0-1.2-0.5-2-1.1-2.6C53.3,127.7,52.3,127.2,51.3,127.2z M52,131.6
		c-0.1,0.2-0.3,0.2-0.6,0.2c-0.2,0-0.5,0-0.6-0.2c-0.2-0.2-0.2-0.5-0.2-0.6c0-0.3,0-0.5,0.2-0.7c0.2-0.2,0.5-0.3,0.6-0.3
		c0.3,0,0.5,0.2,0.6,0.3c0.2,0.2,0.3,0.3,0.3,0.7C52.3,131.1,52.1,131.5,52,131.6z"/>
	<path class="st0" d="M49.6,17l2.4-0.7c0.8-0.2,1.1-1,1-1.6c-0.2-0.8-1-1.1-1.6-0.9l-2.6,0.6c-0.6,0.2-1.1,1-1,1.6
		C48,16.9,48.8,17.3,49.6,17z"/>
	<path class="st0" d="M143,28.4H24c-0.6,0-1.3,0.6-1.3,1.5V121c0,0.6,0.6,1.3,1.3,1.3h119c0.8,0,1.3-0.7,1.3-1.3V29.9
		C144.3,29.1,143.8,28.4,143,28.4z M141.5,119.5H25.5V31.2h116.1V119.5z"/>
	<polygon class="st0" points="15.8,65.5 13.2,66.1 13.8,68.7 16.4,67.9 	"/>
	<polygon class="st0" points="12,72 14.6,71.2 13.8,68.7 11.2,69.4 	"/>
	<polygon class="st0" points="12.4,63.7 9.8,64.5 10.6,67 13.2,66.1 	"/>
	<polygon class="st0" points="7.8,67.8 8.7,70.2 11.2,69.4 10.6,67 	"/>
</g>
</svg>
