<?xml version="1.0" encoding="utf-8"?>
<!-- Generator: Adobe Illustrator 22.0.1, SVG Export Plug-In . SVG Version: 6.00 Build 0)  -->
<svg version="1.1" id="Слой_1" xmlns="http://www.w3.org/2000/svg" xmlns:xlink="http://www.w3.org/1999/xlink" x="0px" y="0px"
	 viewBox="0 0 512 640" style="enable-background:new 0 0 512 640;" xml:space="preserve">
<style type="text/css">
	.st0{fill:#FFFFFF;}
</style>
<g>
	<g>
		<g>
			<g>
				<path class="st0" d="M496.7,312.5c-1.6,0-3.2,0.6-4.2,2.2c-1.1,1-2.2,2.6-2.2,4.2s1.1,3.2,2.2,4.8c1.1,1.1,2.6,1.6,4.2,1.6
					c2.1,0,3.7-0.5,4.8-1.6c1-1.6,1.6-3.2,1.6-4.8c0-1.6-0.5-3.2-1.6-4.2C500.4,313.1,498.7,312.5,496.7,312.5z M486.1,329.7
					c-3.2-2.7-4.8-6.4-4.8-10.7c0-4.2,2.1-8,4.8-10.7v-0.5c2.6-2.7,6.3-4.3,10.6-4.3c4.2,0,8.5,1.6,11.1,4.8
					c2.6,2.7,4.2,6.5,4.2,10.7c0,4.3-1.6,8-4.2,11.2c-3.2,2.7-6.9,4.3-11.1,4.3s-7.9-1.6-10.6-4.3L486.1,329.7L486.1,329.7z"/>
				<path class="st0" d="M465.4,63.9L449,73.5c-2.1,1.1-4.8,0.5-5.8-1.6c-1.6-2.2-0.5-4.8,1.6-6.4l9.6-5.4l-9.6-5.9
					c-2.1-1.1-3.2-3.8-1.6-5.9c1-2.1,3.7-3.2,5.8-1.6l16.4,9.1c2.1,1.6,2.6,4.2,1.6,6.4C466.5,62.8,466,63.4,465.4,63.9z"/>
				<path class="st0" d="M373.3,462.3c2.6,0,4.8,2.1,4.8,4.8c0,2.2-2.1,4.3-4.8,4.3H350c-2.1,0-4.2-2.1-4.2-4.3
					c0-2.7,2.2-4.8,4.2-4.8H373.3z"/>
				<path class="st0" d="M357.9,474.6c2.6,0,4.8,2.2,4.8,4.2c0,2.7-2.1,4.8-4.8,4.8h-49.7c-2.6,0-4.8-2.2-4.8-4.8
					c0-2.1,2.1-4.2,4.8-4.2H357.9z"/>
				<path class="st0" d="M172.1,333.4l147.2-85.6l-147.2-85.6L172.1,333.4L172.1,333.4z M163.1,154.3c0-1.1,0.5-1.6,0.5-2.2
					c1.6-2.1,4.2-3.2,6.3-1.6l160.4,93c0.5,0.5,1.1,1,1.6,2.1c1,2.2,0.5,4.8-1.6,5.9L170,345.2c-0.5,0.5-1.6,0.5-2.2,0.5
					c-2.6,0-4.7-2.1-4.7-4.3V154.3L163.1,154.3z"/>
				<path class="st0" d="M153.5,47.3c-0.5-2.6,0.5-4.8,3.2-5.3l7.9-2.2c2.1-1.1,4.8,0.5,5.3,3.2c0.5,2.2-0.5,4.8-3.2,5.3l-7.9,2.2
					C156.7,51.1,154.1,49.5,153.5,47.3z"/>
				<path class="st0" d="M150.4,64.5l-2.1-7.5c-0.5-2.7,0.6-4.8,3.2-5.9c2.1-0.5,4.7,1.1,5.3,3.2l2.1,8c0.5,2.7-0.5,4.8-3.2,5.4
					C153.5,68.8,150.9,67.1,150.4,64.5z"/>
				<path class="st0" d="M150.9,31.9l1.6,7.5c1.1,2.2-0.5,4.8-3.2,5.4c-2.1,0.5-4.8-0.5-5.3-3.2l-2.2-7.5c-0.5-2.7,1.1-4.8,3.2-5.4
					C147.8,27.6,149.8,29.2,150.9,31.9z"/>
				<path class="st0" d="M144.5,431.8c0.5-0.5,1.1-1.6,1.1-2.1c0-1.1-0.5-1.6-1.1-2.2c-0.5-0.5-1-1.1-2.1-1.1
					c-0.5,0-1.6,0.5-2.1,1.1c-0.5,0.5-0.5,1.1-0.5,2.2c0,0.5,0,1.6,0.5,2.1s1.6,0.5,2.1,0.5C143.5,432.3,144.1,432.3,144.5,431.8z
					 M150.9,421.1c2.1,2.2,3.7,4.8,3.7,8.6c0,3.2-1.6,5.8-3.7,8c-2.1,2.7-5.3,3.7-8.5,3.7s-6.3-1-8.5-3.7c-2.1-2.2-3.2-4.8-3.2-8
					c0-3.8,1.1-6.5,3.2-8.6c2.2-2.1,5.3-3.7,8.5-3.7C145.6,417.4,148.8,419,150.9,421.1z"/>
				<path class="st0" d="M147.8,48.9c0.5,2.1-0.5,4.8-3.2,5.4l-7.9,2.2c-2.6,1.1-5.3-0.5-5.8-3.2c-0.5-2.2,1.1-4.8,3.2-5.4l8.5-2.1
					C144.5,45.2,147.2,46.2,147.8,48.9z"/>
				<path class="st0" d="M437.9,392.3V103H57.8v289.3H437.9z M48.7,397.1V98.7c0-2.7,2.1-4.8,4.2-4.8h389.7c2.6,0,4.2,2.2,4.2,4.8
					v298.4c0,2.1-1.6,4.3-4.2,4.3H53C50.8,401.4,48.7,399.2,48.7,397.1z"/>
				<polygon class="st0" points="26,215.3 28.1,223.3 19.6,225.9 17.5,217.4 				"/>
				<polygon class="st0" points="11.1,228.1 19.6,225.9 22.3,233.9 13.8,236.6 				"/>
				<polygon class="st0" points="14.9,209.3 17.5,217.4 9,220.1 6.4,212 				"/>
				<polygon class="st0" points="9,220.1 11.1,228.1 2.7,230.8 0,222.7 				"/>
			</g>
		</g>
	</g>
</g>
</svg>
