<?xml version="1.0" encoding="utf-8"?>
<!-- Generator: Adobe Illustrator 22.1.0, SVG Export Plug-In . SVG Version: 6.00 Build 0)  -->
<svg version="1.1" id="Слой_1" xmlns="http://www.w3.org/2000/svg" xmlns:xlink="http://www.w3.org/1999/xlink" x="0px" y="0px"
	 viewBox="0 0 512 512" style="enable-background:new 0 0 512 512;" xml:space="preserve">
<style type="text/css">
	.st0{fill:#7C3AFF;}
</style>
<g>
	<g>
		<g>
			<path class="st0" d="M441.7,92c2.1,1.2,2.7,3.9,1.6,6c-0.5,0.6-1,1.2-1.6,1.5l-16.1,9.3c-2,1.2-4.7,0.5-5.9-1.6
				c-1.3-2.1-0.5-4.7,1.6-5.9l9.5-5.6l-9.5-5.4c-2.1-1.3-2.8-3.9-1.6-6.1c1.2-2,3.9-2.7,5.9-1.5L441.7,92z"/>
			<path class="st0" d="M402.4,327.8c1.2-1.1,1.8-2.6,1.8-4.5c0-1.6-0.6-3.3-1.8-4.4c-1.2-1.1-2.7-1.8-4.4-1.8
				c-1.8,0-3.4,0.7-4.5,1.8c-1.2,1.1-1.8,2.7-1.8,4.4c0,1.8,0.6,3.4,1.7,4.5c1.2,1.2,2.7,1.8,4.6,1.8
				C399.7,329.6,401.2,328.9,402.4,327.8z M387.3,312.7l0.2-0.2c2.7-2.6,6.5-4.3,10.6-4.3s7.8,1.7,10.6,4.5l0.2,0.1
				c2.6,2.7,4.3,6.5,4.3,10.5c0,4.2-1.7,7.9-4.5,10.7l-0.1,0.2c-2.8,2.6-6.5,4.3-10.5,4.3c-4.2,0-7.9-1.6-10.7-4.4l-0.2-0.2
				c-2.6-2.7-4.3-6.5-4.3-10.6S384.6,315.5,387.3,312.7z"/>
			<path class="st0" d="M351.8,492.7c2.3,0,4.1,1.8,4.1,4.1s-1.8,4.1-4.1,4.1h-21.6c-2.3,0-4.1-1.8-4.1-4.1c0-2.3,1.8-4.1,4.1-4.1
				H351.8z"/>
			<path class="st0" d="M337.3,503.7c2.4,0,4.2,1.8,4.2,4.1c0,2.4-1.8,4.2-4.2,4.2h-46c-2.3,0-4.1-1.8-4.1-4.2
				c0-2.3,1.8-4.1,4.1-4.1L337.3,503.7L337.3,503.7z"/>
			<path class="st0" d="M237.4,194.4c-6.1-6.2-9.8-14.8-9.8-24c0-9.5,3.8-18.1,10.1-24.3c6.3-6.3,14.8-10.1,24.3-10.1
				s18.1,3.8,24.4,10c6.2,6.3,10.1,14.8,10.1,24.4c0,9.5-3.9,18.1-10.1,24.3c-6.3,6.3-14.8,10.1-24.4,10.1
				c-9.5,0-18.1-3.8-24.3-10.1L237.4,194.4z M236.4,170.4c0,7,2.7,13.3,7.3,17.9l0.2,0.2c4.6,4.7,11.1,7.5,18.1,7.5
				c7.1,0,13.5-2.8,18.1-7.5c4.6-4.6,7.6-11.1,7.6-18.1c0-7.1-2.9-13.5-7.6-18.1s-11-7.6-18.1-7.6s-13.5,2.9-18.1,7.5
				C239.2,156.9,236.4,163.3,236.4,170.4z"/>
			<path class="st0" d="M197.8,146.2c-0.4,0.5-0.6,1-0.7,1.6l-3.1,12.1c-0.2,1,0,2.2,0.4,3c0.5,1,1.3,1.8,2.2,2.3l12.9,6.1
				c1.5,0.7,2.4,2.1,2.5,3.6l0.3,2.8l0.5,2.9c0.3,1.5-0.3,3.1-1.4,4.1l-10.5,9.6c-0.8,0.8-1.4,1.8-1.5,2.8c-0.2,1.1,0,2.2,0.6,3.2
				l6.4,10.6c0.5,0.9,1.5,1.6,2.5,2l0.3,0.1c0.9,0.3,1.9,0.3,2.9-0.1l13.4-4.7c1.5-0.5,3.1-0.3,4.3,0.6l2.4,1.9l2.5,1.7
				c1.4,0.9,2,2.5,1.9,4l-0.6,14c-0.1,1.1,0.3,2.2,0.9,3c0.6,0.8,1.5,1.5,2.6,1.7l12.1,3.1c0.5,0.1,1.2,0.1,1.7,0.1h0.2
				c0.5-0.2,1.1-0.4,1.6-0.6l1.1-0.9c0.3-0.3,0.5-0.7,0.8-1.2l6-12.8c0.7-1.5,2.1-2.4,3.6-2.5c2-0.3,3.7-0.5,5.7-0.8
				c1.6-0.4,3.4,0.3,4.4,1.5l9.4,10.3c0.7,0.9,1.7,1.4,2.8,1.5c1,0.2,2.1-0.1,3.1-0.6l10.6-6.4c1-0.6,1.7-1.5,2.1-2.5s0.4-2.1,0-3.2
				l-4.8-13.4c-0.5-1.5-0.2-3.1,0.8-4.3l1.7-2.3l1.6-2.4c0.9-1.5,2.6-2.2,4.1-2l14.2,0.6c0.5,0,0.9-0.1,1.4-0.2h0.1
				c0.4-0.1,0.7-0.3,1-0.5l0.4-0.2c0.4-0.3,0.8-0.6,1.1-1.1c0.4-0.5,0.6-1,0.7-1.6l3-12c0.4-1.1,0.2-2.2-0.3-3.2l-0.1-0.2
				c-0.5-0.8-1.2-1.5-2.2-2l-12.8-6.1c-1.5-0.7-2.4-2.1-2.5-3.6l-0.4-2.9l-0.5-2.9c-0.3-1.5,0.3-3.1,1.4-4.1l10.7-9.7
				c0.7-0.7,1.1-1.6,1.3-2.6c0.2-1.1-0.1-2.2-0.6-3.1l-6.5-10.8c-0.6-0.9-1.4-1.5-2.4-1.9s-2.1-0.4-3.2,0l-13.4,4.8
				c-1.5,0.5-3.2,0.2-4.4-0.7c-1.6-1.4-2.9-2.4-4.6-3.5c-1.4-1-2.1-2.6-1.9-4.1l0.5-14c0.1-1.2-0.3-2.2-0.9-3.1
				c-0.6-0.8-1.5-1.5-2.6-1.7l-12-3c-0.6-0.2-1.2-0.2-1.8-0.1c-0.6,0.1-1.2,0.4-1.7,0.6l-0.2,0.1c-0.3,0.2-0.6,0.6-0.9,0.8l-0.7,1.1
				l-6.1,12.8c-0.7,1.5-2.1,2.5-3.6,2.6l-2.9,0.4l-2.8,0.5c-1.6,0.3-3.3-0.4-4.3-1.5l-9.5-10.5c-0.7-0.7-1.7-1.3-2.8-1.5
				c-1-0.1-2.1,0.1-3.1,0.6l-10.7,6.4c-0.9,0.6-1.6,1.5-2,2.5s-0.4,2.2,0,3.2l4.8,13.4c0.5,1.5,0.2,3.2-0.8,4.4l-1.7,2.3l-1.6,2.4
				c-0.9,1.4-2.5,2.1-4,2c-4.6-0.2-9.8-0.7-14.3-0.7c-0.4,0-0.8,0.1-1.2,0.2c-0.5,0.1-0.9,0.3-1.4,0.5
				C198.6,145.1,198.1,145.6,197.8,146.2z M186.4,166.7c-1.3-2.7-1.6-5.8-0.9-8.9l3-12.2c0.5-1.7,1.3-3.3,2.3-4.6
				c1-1.5,2.4-2.7,3.8-3.6h0.1c1.1-0.6,2.4-1.2,3.6-1.5c1.3-0.4,2.5-0.6,3.9-0.5L214,136l1.1-1.5l-4-11c-1.1-3.1-1-6.3,0-9.1
				c1-2.9,3-5.4,5.8-7l10.7-6.4c2.7-1.6,5.8-2.3,8.9-1.8c2.9,0.5,5.8,1.9,7.9,4.3l7.9,8.7l1.8-0.3l5-10.7c0.6-1.2,1.3-2.2,2.1-3.1
				l0.2-0.2c0.8-0.9,1.7-1.7,2.8-2.4l0.2-0.2c1.5-0.9,3.3-1.5,5-1.7c1.6-0.3,3.5-0.3,5.3,0.2l12,3c3.1,0.8,5.7,2.6,7.6,5.1
				c1.7,2.4,2.7,5.4,2.6,8.5c0,3.9-0.4,8.1-0.6,11.9l1.5,1.1l11.1-4c3-1,6.2-1,9.1,0.1c2.7,0.9,5.2,2.8,6.8,5.5l6.6,10.8
				c1.6,2.7,2.2,5.9,1.7,8.9c-0.4,2.8-1.7,5.6-3.9,7.7l-9,8.2l0.3,1.8l10.6,5c2.8,1.3,5,3.5,6.3,6.1l0.2,0.4c1.4,2.6,1.7,5.9,0.9,9
				l-3,12c-0.4,1.6-1.2,3.3-2.2,4.7s-2.3,2.6-3.7,3.5l-0.2,0.1c-1.1,0.6-2.3,1.2-3.6,1.5h-0.1c-1.2,0.3-2.5,0.5-3.7,0.5
				c-3.8,0-8.1-0.5-12-0.6l-1.1,1.5l4,11.1c1.1,3,1,6.2,0,9c-1.1,2.9-3,5.5-5.8,7.1l-10.6,6.4c-2.8,1.6-5.9,2.2-8.9,1.8
				c-3-0.5-5.9-2-8.1-4.4l-7.8-8.7l-1.8,0.3l-5,10.7c-0.6,1.2-1.4,2.3-2.3,3.3c-0.8,0.9-1.7,1.7-2.7,2.4l-0.3,0.2
				c-1.5,0.8-3.1,1.5-4.7,1.7h-0.2c-1.6,0.3-3.5,0.2-5.2-0.2l-12.2-3.1c-3.1-0.7-5.7-2.6-7.6-5c-1.7-2.4-2.7-5.4-2.6-8.6l0.5-11.9
				l-1.4-1.1l-11.2,4c-2.9,1.1-5.9,1-8.7,0.1l-0.3-0.1c-2.8-1-5.4-3-7-5.7l-6.5-10.7c-1.6-2.7-2.2-5.9-1.7-8.9
				c0.4-2.9,1.8-5.7,4.1-7.8l8.8-8.1l-0.2-1.7l-10.7-5.1C189.8,171.7,187.7,169.5,186.4,166.7z"/>
			<path class="st0" d="M175.9,13.2l7.9-2.1c2.3-0.6,4.7,0.7,5.4,3.1c0.5,2.4-0.8,4.8-3.2,5.4l-7.8,2.2c-2.3,0.5-4.7-0.8-5.4-3.2
				C172.2,16.2,173.6,13.8,175.9,13.2z"/>
			<path class="st0" d="M167.7,27.8c-0.6-2.4,0.7-4.7,3.1-5.4c2.3-0.6,4.7,0.8,5.4,3.1l2,7.6c0.6,2.4-0.7,4.8-3.1,5.4
				c-2.4,0.7-4.7-0.7-5.4-3.1L167.7,27.8z"/>
			<path class="st0" d="M171.4,170.4c0,24.9,10.1,47.4,26.3,63.8l0.3,0.2c16.4,16.4,39,26.5,64,26.5s47.7-10.1,64-26.5
				c16.5-16.3,26.6-39,26.6-64s-10.1-47.7-26.6-64.1c-16.3-16.4-39-26.5-64-26.5s-47.6,10.1-64,26.5S171.4,145.3,171.4,170.4z
				 M191.5,240.4c-17.9-18-28.9-42.7-28.9-70c0-27.5,11.1-52.3,29.1-70.3S234.6,71,262,71s52.3,11.1,70.3,29.1s29.1,42.8,29.1,70.3
				c0,27.4-11,52.3-29.1,70.2c-18,18-42.9,29.1-70.3,29.1s-52.3-11.1-70.3-29L191.5,240.4z"/>
			<path class="st0" d="M169.1,16c-2.4,0.6-4.7-0.8-5.4-3.1l-2-7.4c-0.6-2.4,0.7-4.7,3.1-5.4c2.4-0.6,4.7,0.7,5.4,3.1l2,7.4
				C172.8,12.9,171.4,15.4,169.1,16z"/>
			<path class="st0" d="M156.1,27.6c-2.4,0.6-4.7-0.7-5.4-3.1c-0.6-2.4,0.7-4.7,3.1-5.4l8-2.1c2.4-0.6,4.7,0.7,5.4,3.1
				c0.6,2.3-0.7,4.7-3.1,5.4L156.1,27.6z"/>
			<path class="st0" d="M148.8,377.8c3.3,0,6.2,1.4,8.3,3.5s3.4,5,3.4,8.3c0,3.2-1.3,6.1-3.4,8.2c-2.1,2.1-5,3.5-8.3,3.5
				c-3.2,0-6.1-1.4-8.2-3.5c-2.1-2.1-3.5-5-3.5-8.2c0-3.3,1.4-6.2,3.5-8.3C142.7,379.2,145.6,377.8,148.8,377.8z M148.8,392.4
				c0.8,0,1.5-0.4,2.1-0.8c0.5-0.6,0.8-1.3,0.8-2c0-0.8-0.4-1.5-0.8-2.1c-0.5-0.5-1.3-0.8-2.1-0.8c-0.7,0-1.5,0.4-2,0.8
				c-0.5,0.5-0.8,1.3-0.8,2.1c0,0.7,0.3,1.5,0.8,2S148,392.4,148.8,392.4z"/>
			<path class="st0" d="M296,451.2h-68c2.6,5.5,6.6,10.3,11.5,13.8c6.2,4.6,14,7.5,22.5,7.5s16.3-2.8,22.6-7.5
				C289.4,461.5,293.3,456.6,296,451.2z M196,438.6c0.7,1.5,1.5,2.6,2.6,3.7h22.8h0.1h80.9h0.1h22.9c1-1.1,1.9-2.5,2.6-3.9l0.1-0.3
				c0.8-1.7,1.3-3.7,1.3-5.7c0-1.8-0.4-3.4-0.9-4.9c-0.3-0.9-0.7-1.8-1.3-2.6H196.8c-0.5,0.8-1,1.7-1.3,2.7
				c-0.5,1.5-0.8,3.1-0.8,4.8c0,2.2,0.5,4.2,1.3,6V438.6z M195.7,412.9c0.5,1.1,1,2.2,1.7,3.1h129.1c0.7-0.9,1.4-2,1.8-3.1
				c0.6-1.6,1-3.4,1-5.4c0-2.3-0.6-4.5-1.5-6.4c-0.7-1.5-1.8-3-3.1-4.2H199.2c-1.3,1.3-2.3,2.6-3.1,4.2c-0.9,1.9-1.5,4.1-1.5,6.4
				C194.7,409.5,195,411.3,195.7,412.9z M105.7,174.2c0-41,17.6-78.2,45.9-105.2C179.9,42.1,219,25.5,262,25.5
				c43.1,0,82.1,16.7,110.4,43.5c28.3,27,45.9,64.2,45.9,105.2c0,56.6-21.7,88.7-42.8,119.7l-0.4,0.6c-8.5,12.4-17,25-23.6,38.6
				l-0.1,0.4c-6.6,13.7-11.2,28.6-11.7,45.5c-0.1,2.7-0.6,5.3-1.4,7.6l-0.2,0.2c-0.8,2.4-2.2,4.6-3.7,6.5c-0.3,0.3-0.4,0.5-0.7,0.7
				c0.8,1.1,1.5,2.2,2.1,3.5c1.5,3,2.4,6.6,2.4,10.2c0,3-0.5,5.9-1.6,8.6c-0.6,1.4-1.2,2.7-2,3.9c1,1.4,1.7,2.9,2.3,4.5
				c0.9,2.5,1.4,5.1,1.4,7.9c0,3.3-0.7,6.5-2,9.4l-0.2,0.4c-1.3,2.9-3.3,5.5-5.6,7.6c-0.8,0.8-2,1.4-3.3,1.4h-21.5
				c-3.1,8.4-8.6,15.7-15.8,20.9c-7.7,5.8-17.3,9.3-27.8,9.3c-10.4,0-19.9-3.5-27.8-9.3c-7-5.2-12.6-12.5-15.8-20.9H197
				c-1,0-2-0.4-2.8-1c-2.5-2.1-4.6-4.8-6-7.7l-0.1-0.3c-1.4-3-2.2-6.3-2.2-9.7c0-2.7,0.5-5.4,1.4-7.9c0.6-1.5,1.4-3.1,2.3-4.5
				c-0.8-1.2-1.5-2.5-2-3.9c-1.1-2.6-1.6-5.5-1.6-8.6c0-3.6,0.8-7.2,2.5-10.2c0.5-1.3,1.3-2.4,2.1-3.6l-0.4-0.4
				c-1.7-1.9-3.1-4.2-4.1-6.7c-0.9-2.4-1.5-5-1.6-7.7c-1-34.2-18.5-59.9-35.4-84.8l-0.2-0.1C127.5,263,105.7,231,105.7,174.2z
				 M114.5,174.2c0,54.1,21,85,41.4,114.8l0.1,0.3c17.7,25.9,36,52.6,37.1,89.3c0,1.6,0.4,3.3,1,4.8c0.4,0.9,0.8,1.8,1.4,2.6h133.2
				c0.5-0.8,1-1.6,1.4-2.6v-0.2c0.5-1.4,0.9-3,0.9-4.6h0.1c0.5-18.5,5.5-34.4,12.4-49.1l0.2-0.4c6.9-14.4,15.8-27.3,24.4-40l0.1-0.2
				c20.4-29.9,41.4-60.7,41.4-114.8c0-38.5-16.6-73.5-43.2-98.8c-26.7-25.2-63.7-41-104.4-41S184.4,50,157.7,75.4
				C131,100.7,114.5,135.7,114.5,174.2z"/>
			<polygon class="st0" points="84.9,199.3 93.4,196.7 95.7,204.6 87.3,207.1 			"/>
			<polygon class="st0" points="78.9,209.6 87.3,207.1 89.7,215 81.3,217.6 			"/>
			<polygon class="st0" points="82.6,191.3 84.9,199.3 76.5,201.7 74.2,193.9 			"/>
			<polygon class="st0" points="68.2,204.3 76.5,201.7 78.9,209.6 70.5,212.2 			"/>
		</g>
	</g>
</g>
</svg>
