<?xml version="1.0" encoding="utf-8"?>
<!-- Generator: Adobe Illustrator 22.1.0, SVG Export Plug-In . SVG Version: 6.00 Build 0)  -->
<svg version="1.1" id="Слой_1" xmlns="http://www.w3.org/2000/svg" xmlns:xlink="http://www.w3.org/1999/xlink" x="0px" y="0px"
	 viewBox="0 0 216 216" style="enable-background:new 0 0 216 216;" xml:space="preserve">
<style type="text/css">
	.st0{fill:#7C3AFF;}
</style>
<g>
	<path class="st0" d="M182.7,42l-6.5-3.7c-0.8-0.5-1.9-0.2-2.4,0.6c-0.5,0.9-0.2,1.9,0.6,2.5l3.8,2.2l-3.8,2.3
		c-0.8,0.5-1.2,1.5-0.6,2.4c0.5,0.8,1.6,1.1,2.4,0.6l6.5-3.7c0.2-0.1,0.4-0.4,0.6-0.6C183.8,43.6,183.6,42.5,182.7,42z"/>
	<path class="st0" d="M169.5,130.8c-1.1-1.1-2.6-1.8-4.3-1.8c-1.6,0-3.2,0.7-4.3,1.7l-0.1,0.1c-1.1,1.1-1.8,2.6-1.8,4.3
		c0,1.6,0.7,3.2,1.7,4.3l0.1,0.1c1.1,1.1,2.6,1.8,4.3,1.8c1.6,0,3.1-0.7,4.2-1.7l0-0.1c1.1-1.1,1.8-2.6,1.8-4.3
		C171.3,133.5,170.6,131.9,169.5,130.8L169.5,130.8z M166.9,136.9c-0.5,0.4-1.1,0.7-1.8,0.7c-0.8,0-1.4-0.2-1.9-0.7
		c-0.4-0.4-0.7-1.1-0.7-1.8c0-0.7,0.2-1.3,0.7-1.8c0.4-0.4,1.1-0.7,1.8-0.7c0.7,0,1.3,0.3,1.8,0.7c0.5,0.4,0.7,1.1,0.7,1.8
		C167.7,135.8,167.4,136.4,166.9,136.9z"/>
	<path class="st0" d="M146.6,203.2h-8.7c-0.9,0-1.6,0.7-1.6,1.6c0,0.9,0.7,1.6,1.6,1.6h8.7c0.9,0,1.6-0.7,1.6-1.6
		C148.2,204,147.5,203.2,146.6,203.2z"/>
	<path class="st0" d="M140.7,207.7l-18.5,0c-0.9,0-1.6,0.7-1.6,1.6c0,1,0.7,1.7,1.6,1.7h18.5c1,0,1.7-0.7,1.7-1.7
		C142.4,208.4,141.7,207.7,140.7,207.7z"/>
	<path class="st0" d="M110.4,59.7c-3.8,0-7.2,1.5-9.8,4.1c-2.5,2.5-4.1,6-4.1,9.8c0,3.7,1.5,7.2,3.9,9.7l0.1,0.1
		c2.5,2.5,6,4.1,9.8,4.1c3.9,0,7.3-1.5,9.8-4.1c2.5-2.5,4.1-6,4.1-9.8c0-3.9-1.6-7.3-4.1-9.8C117.7,61.2,114.2,59.7,110.4,59.7z
		 M117.7,80.8c-1.9,1.9-4.4,3-7.3,3c-2.8,0-5.4-1.1-7.3-3l-0.1-0.1c-1.9-1.9-2.9-4.4-2.9-7.2c0-2.9,1.1-5.4,3-7.3
		c1.9-1.9,4.4-3,7.3-3c2.9,0,5.4,1.2,7.3,3.1c1.9,1.9,3.1,4.4,3.1,7.3C120.8,76.4,119.6,79,117.7,80.8z"/>
	<path class="st0" d="M133,53.1c-1.2-0.4-2.5-0.4-3.7,0l-4.5,1.6l-0.6-0.4c0.1-1.5,0.2-3.2,0.2-4.8c0-1.2-0.4-2.5-1-3.4
		c-0.8-1-1.8-1.7-3.1-2.1l-4.8-1.2c-0.7-0.2-1.5-0.2-2.1-0.1c-0.7,0.1-1.4,0.3-2,0.7l-0.1,0.1c-0.4,0.3-0.8,0.6-1.1,1l-0.1,0.1
		c-0.3,0.4-0.6,0.8-0.8,1.2l-2,4.3l-0.7,0.1l-3.2-3.5c-0.8-1-2-1.5-3.2-1.7c-1.2-0.2-2.5,0.1-3.6,0.7l-4.3,2.6
		c-1.1,0.6-1.9,1.6-2.3,2.8c-0.4,1.1-0.4,2.4,0,3.7l1.6,4.4l-0.4,0.6l-4.7-0.2c-0.6,0-1,0-1.6,0.2c-0.5,0.1-1,0.4-1.4,0.6h0
		c-0.6,0.4-1.1,0.8-1.5,1.4c-0.4,0.5-0.7,1.2-0.9,1.9l-1.2,4.9c-0.3,1.2-0.2,2.5,0.4,3.6c0.5,1.1,1.4,2,2.6,2.6l4.3,2.1l0.1,0.7
		l-3.5,3.3c-0.9,0.8-1.5,2-1.6,3.1c-0.2,1.2,0,2.5,0.7,3.6l2.6,4.3c0.6,1.1,1.7,1.9,2.8,2.3l0.1,0c1.1,0.4,2.3,0.4,3.5,0l4.5-1.6
		l0.6,0.4l-0.2,4.8c0,1.3,0.4,2.5,1,3.5c0.8,1,1.8,1.7,3.1,2l4.9,1.2c0.7,0.2,1.4,0.2,2.1,0.1h0.1c0.6-0.1,1.3-0.4,1.9-0.7l0.1-0.1
		c0.4-0.3,0.8-0.6,1.1-1c0.4-0.4,0.7-0.8,0.9-1.3l2-4.3l0.7-0.1l3.1,3.5c0.9,1,2.1,1.6,3.3,1.8c1.2,0.2,2.5-0.1,3.6-0.7l4.3-2.6
		c1.1-0.6,1.9-1.7,2.3-2.9c0.4-1.1,0.4-2.4,0-3.6l-1.6-4.5l0.4-0.6c1.6,0,3.3,0.2,4.8,0.2c0.5,0,1-0.1,1.5-0.2h0
		c0.5-0.1,1-0.4,1.4-0.6l0.1,0c0.6-0.4,1.1-0.8,1.5-1.4c0.4-0.6,0.7-1.2,0.9-1.9l1.2-4.8c0.3-1.2,0.2-2.6-0.4-3.6l-0.1-0.2
		c-0.5-1-1.4-1.9-2.5-2.5l-4.3-2l-0.1-0.7l3.6-3.3c0.9-0.8,1.4-2,1.6-3.1c0.2-1.2,0-2.5-0.7-3.6l-2.7-4.3
		C135.1,54.2,134,53.4,133,53.1z M135.6,62.7c-0.1,0.4-0.2,0.8-0.5,1l-4.3,3.9c-0.4,0.4-0.7,1-0.6,1.6l0.2,1.2l0.2,1.2
		c0,0.6,0.4,1.2,1,1.4l5.2,2.5c0.4,0.2,0.7,0.5,0.9,0.8l0,0.1c0.2,0.4,0.3,0.8,0.1,1.3l-1.2,4.8c0,0.2-0.1,0.4-0.3,0.6
		c-0.1,0.2-0.3,0.3-0.4,0.4l-0.2,0.1c-0.1,0.1-0.2,0.2-0.4,0.2h0c-0.2,0-0.4,0.1-0.6,0.1l-5.7-0.2c-0.6-0.1-1.3,0.2-1.6,0.8l-0.6,1
		l-0.7,0.9c-0.4,0.5-0.5,1.1-0.3,1.7l1.9,5.4c0.2,0.4,0.2,0.9,0,1.3c-0.2,0.4-0.4,0.8-0.8,1l-4.3,2.6c-0.4,0.2-0.8,0.3-1.2,0.2
		c-0.4,0-0.8-0.2-1.1-0.6l-3.8-4.1c-0.4-0.5-1.1-0.8-1.8-0.6c-0.8,0.1-1.5,0.2-2.3,0.3c-0.6,0-1.2,0.4-1.4,1l-2.4,5.2
		c-0.1,0.2-0.2,0.4-0.3,0.5l-0.4,0.4c-0.2,0.1-0.4,0.2-0.6,0.2h-0.1c-0.2,0-0.5,0-0.7,0l-4.9-1.2c-0.4-0.1-0.8-0.4-1-0.7
		c-0.2-0.3-0.4-0.8-0.4-1.2l0.2-5.6c0-0.6-0.2-1.2-0.8-1.6l-1-0.7l-1-0.8c-0.5-0.4-1.1-0.4-1.7-0.2l-5.4,1.9c-0.4,0.2-0.8,0.2-1.2,0
		l-0.1,0c-0.4-0.2-0.8-0.4-1-0.8l-2.6-4.3c-0.2-0.4-0.3-0.8-0.2-1.3c0-0.4,0.3-0.8,0.6-1.1l4.2-3.9c0.4-0.4,0.7-1,0.6-1.6l-0.2-1.2
		l-0.1-1.1c0-0.6-0.4-1.2-1-1.4l-5.2-2.5c-0.4-0.2-0.7-0.5-0.9-0.9c-0.2-0.3-0.2-0.8-0.2-1.2l1.2-4.9c0-0.2,0.1-0.4,0.3-0.6
		c0.1-0.2,0.3-0.4,0.6-0.6c0.2-0.1,0.4-0.2,0.6-0.2c0.2,0,0.3-0.1,0.5-0.1c1.8,0,3.9,0.2,5.8,0.3c0.6,0,1.2-0.2,1.6-0.8l0.6-1
		l0.7-0.9c0.4-0.5,0.5-1.2,0.3-1.8l-1.9-5.4c-0.2-0.4-0.2-0.9,0-1.3c0.2-0.4,0.4-0.8,0.8-1l4.3-2.6c0.4-0.2,0.8-0.3,1.2-0.2
		c0.4,0.1,0.8,0.3,1.1,0.6l3.8,4.2c0.4,0.4,1.1,0.7,1.7,0.6l1.1-0.2l1.2-0.2c0.6,0,1.2-0.4,1.4-1l2.5-5.2l0.3-0.4
		c0.1-0.1,0.2-0.2,0.4-0.3l0.1,0c0.2-0.1,0.4-0.2,0.7-0.2c0.2,0,0.5,0,0.7,0l4.8,1.2c0.4,0.1,0.8,0.4,1,0.7c0.2,0.4,0.4,0.8,0.4,1.2
		l-0.2,5.6c-0.1,0.6,0.2,1.2,0.8,1.6c0.7,0.4,1.2,0.8,1.9,1.4c0.5,0.4,1.2,0.5,1.8,0.3l5.4-1.9c0.4-0.2,0.9-0.2,1.3,0
		c0.4,0.2,0.7,0.4,1,0.8l2.6,4.3C135.6,61.8,135.7,62.2,135.6,62.7z"/>
	<path class="st0" d="M76.7,13.7l3.1-0.9c1-0.2,1.5-1.2,1.3-2.2c-0.3-1-1.2-1.5-2.2-1.2l-3.2,0.8c-0.9,0.2-1.5,1.2-1.2,2.2
		C74.8,13.4,75.8,13.9,76.7,13.7z"/>
	<path class="st0" d="M75.9,15.2c-0.3-0.9-1.2-1.5-2.2-1.2c-1,0.3-1.5,1.2-1.2,2.2l0.8,3.1c0.3,1,1.2,1.5,2.2,1.2
		c1-0.2,1.5-1.2,1.2-2.2L75.9,15.2z"/>
	<path class="st0" d="M110.4,33.5c-11,0-21,4.5-28.3,11.7c-7.2,7.2-11.7,17.2-11.7,28.3c0,11,4.4,20.9,11.6,28.2l0.1,0.1
		c7.2,7.2,17.3,11.7,28.3,11.7c11,0,21-4.5,28.3-11.7c7.3-7.2,11.7-17.2,11.7-28.2c0-11.1-4.5-21-11.7-28.3
		C131.5,38,121.5,33.5,110.4,33.5z M136.2,99.3c-6.6,6.6-15.7,10.7-25.8,10.7s-19.2-4.1-25.8-10.7l-0.1-0.1C78,92.6,74,83.6,74,73.5
		c0-10.1,4.1-19.2,10.7-25.8c6.6-6.6,15.7-10.7,25.8-10.7s19.2,4.1,25.8,10.7c6.6,6.6,10.7,15.7,10.7,25.8S142.8,92.7,136.2,99.3z"
		/>
	<path class="st0" d="M70.9,10.2c0.3,0.9,1.2,1.5,2.2,1.2c0.9-0.2,1.5-1.2,1.2-2.2l-0.8-3c-0.3-1-1.2-1.5-2.2-1.2
		c-1,0.3-1.5,1.2-1.2,2.2L70.9,10.2z"/>
	<path class="st0" d="M67.8,16.1l3.2-0.8c1-0.3,1.5-1.2,1.2-2.2c-0.3-1-1.2-1.5-2.2-1.2l-3.2,0.8c-1,0.3-1.5,1.2-1.2,2.2
		C65.9,15.8,66.8,16.3,67.8,16.1z"/>
	<path class="st0" d="M64.9,157c-1.3,0-2.5,0.6-3.3,1.4c-0.8,0.8-1.4,2-1.4,3.3c0,1.3,0.6,2.5,1.4,3.3c0.8,0.8,2,1.4,3.3,1.4
		c1.3,0,2.5-0.6,3.3-1.4c0.8-0.8,1.4-2,1.4-3.3c0-1.3-0.5-2.5-1.4-3.3C67.4,157.6,66.2,157,64.9,157z M65.7,162.6
		c-0.2,0.2-0.5,0.3-0.8,0.3c-0.3,0-0.6-0.1-0.8-0.3c-0.2-0.2-0.3-0.5-0.3-0.8c0-0.3,0.1-0.6,0.3-0.8c0.2-0.2,0.5-0.3,0.8-0.3
		c0.3,0,0.6,0.1,0.8,0.3c0.2,0.2,0.3,0.5,0.3,0.8C66,162,65.9,162.3,65.7,162.6z"/>
	<path class="st0" d="M154.9,32.7c-11.4-10.8-27.1-17.5-44.4-17.5c-17.3,0-33,6.7-44.4,17.5C54.6,43.6,47.5,58.6,47.5,75.1
		c0,22.9,8.8,35.7,17.4,48.3l0.1,0c6.8,10,13.8,20.4,14.2,34.1c0,1.1,0.3,2.1,0.6,3.1c0.4,1,1,1.9,1.6,2.7l0.2,0.2
		c-0.3,0.5-0.6,0.9-0.8,1.4c-0.7,1.2-1,2.7-1,4.1c0,1.2,0.2,2.4,0.6,3.5c0.2,0.6,0.5,1.1,0.8,1.6c-0.4,0.6-0.7,1.2-0.9,1.8
		c-0.4,1-0.6,2.1-0.6,3.2c0,1.4,0.3,2.7,0.9,3.9l0,0.1c0.6,1.2,1.4,2.3,2.4,3.1c0.3,0.2,0.7,0.4,1.1,0.4h8.7
		c1.3,3.4,3.5,6.3,6.4,8.4c3.2,2.3,7,3.7,11.2,3.7c4.2,0,8.1-1.4,11.2-3.7c2.9-2.1,5.1-5,6.4-8.4h8.7c0.5,0,1-0.2,1.3-0.6
		c0.9-0.8,1.7-1.9,2.3-3.1l0.1-0.2c0.5-1.2,0.8-2.5,0.8-3.8c0-1.1-0.2-2.2-0.6-3.2c-0.2-0.6-0.5-1.2-0.9-1.8c0.3-0.5,0.6-1,0.8-1.6
		c0.4-1.1,0.6-2.3,0.6-3.5c0-1.4-0.4-2.9-1-4.1c-0.2-0.5-0.5-1-0.8-1.4c0.1-0.1,0.2-0.2,0.3-0.3c0.6-0.8,1.2-1.6,1.5-2.6l0.1-0.1
		c0.3-0.9,0.5-2,0.6-3.1c0.2-6.8,2.1-12.8,4.7-18.3l0-0.2c2.7-5.5,6.1-10.5,9.5-15.5l0.2-0.2c8.5-12.5,17.2-25.4,17.2-48.2
		C173.3,58.6,166.2,43.6,154.9,32.7z M119.5,192.1c-2.5,1.9-5.7,3-9.1,3s-6.6-1.2-9.1-3c-2-1.4-3.6-3.3-4.6-5.6h27.4
		C123,188.7,121.5,190.7,119.5,192.1z M137,181.3l0,0.1c-0.3,0.6-0.6,1.1-1,1.6h-9.2h0H94.1h0h-9.2c-0.4-0.4-0.8-0.9-1-1.5v-0.1
		c-0.3-0.7-0.5-1.5-0.5-2.4c0-0.7,0.1-1.3,0.3-1.9c0.1-0.4,0.3-0.8,0.5-1.1h52.5c0.2,0.3,0.4,0.7,0.5,1c0.2,0.6,0.4,1.2,0.4,2
		C137.5,179.8,137.3,180.6,137,181.3z M83.3,169c0-0.9,0.2-1.8,0.6-2.6c0.3-0.6,0.7-1.2,1.2-1.7h50.5c0.5,0.5,1,1.1,1.2,1.7
		c0.4,0.8,0.6,1.6,0.6,2.6c0,0.8-0.2,1.5-0.4,2.2c-0.2,0.4-0.4,0.9-0.7,1.2h-52c-0.3-0.4-0.5-0.8-0.7-1.2
		C83.5,170.5,83.3,169.8,83.3,169z M153.2,121.2L153.2,121.2c-3.5,5.2-7.1,10.4-9.9,16.2l-0.1,0.2c-2.8,5.9-4.8,12.3-5,19.8h0
		c0,0.6-0.2,1.3-0.4,1.9v0.1c-0.2,0.4-0.4,0.7-0.6,1H83.7c-0.2-0.3-0.4-0.7-0.6-1c-0.2-0.6-0.4-1.3-0.4-1.9
		c-0.4-14.8-7.8-25.5-14.9-35.9l0-0.1c-8.2-12-16.7-24.4-16.7-46.2c0-15.5,6.6-29.6,17.4-39.8c10.7-10.2,25.6-16.5,42-16.5
		c16.4,0,31.3,6.4,42,16.5c10.7,10.2,17.4,24.3,17.4,39.8C169.8,96.8,161.4,109.2,153.2,121.2z"/>
	<polygon class="st0" points="42.6,84.1 39.2,85.2 40.1,88.3 43.5,87.3 	"/>
	<polygon class="st0" points="37.7,92.5 41.1,91.5 40.1,88.3 36.7,89.3 	"/>
	<polygon class="st0" points="38.2,82 34.9,83 35.8,86.1 39.2,85.2 	"/>
	<polygon class="st0" points="32.4,87.2 33.4,90.4 36.7,89.3 35.8,86.1 	"/>
</g>
</svg>
