<?xml version="1.0" encoding="utf-8"?>
<!-- Generator: Adobe Illustrator 22.0.1, SVG Export Plug-In . SVG Version: 6.00 Build 0)  -->
<svg version="1.1" id="Слой_1" xmlns="http://www.w3.org/2000/svg" xmlns:xlink="http://www.w3.org/1999/xlink" x="0px" y="0px"
	 viewBox="0 0 512 640" style="enable-background:new 0 0 512 640;" xml:space="preserve">
<style type="text/css">
	.st0{fill:#7C3AFF;}
</style>
<g>
	<g>
		<path class="st0" d="M285.3,326c0-1.6,1.3-2.9,2.9-2.9s2.9,1.3,2.9,2.9v43.2c0,1.6-1.3,2.9-2.9,2.9s-2.9-1.3-2.9-2.9V326z
			 M204.8,325.6H114v57.7h90.8V325.6z M111.1,319.8h96.6c1.6,0,2.9,1.3,2.9,2.9v63.4c0,1.6-1.3,2.9-2.9,2.9h-96.6
			c-1.6,0-2.9-1.3-2.9-2.9v-63.4C108.2,321.1,109.5,319.8,111.1,319.8z M304.3,339.2h96.6c1.6,0,2.9,1.3,2.9,2.9v44
			c0,1.6-1.3,2.9-2.9,2.9h-96.6c-1.6,0-2.9-1.3-2.9-2.9v-44C301.4,340.5,302.7,339.2,304.3,339.2z M398,344.9h-90.8v38.3H398V344.9z
			 M301.4,300.9h-90.8v82.4h90.8V300.9L301.4,300.9z M207.7,295.1h96.6c1.6,0,2.9,1.3,2.9,2.9v88.1c0,1.6-1.3,2.9-2.9,2.9h-96.6
			c-1.6,0-2.9-1.3-2.9-2.9V298C204.8,296.4,206.1,295.1,207.7,295.1z M266.7,133.2c-2.7-2.7-6.5-4.4-10.7-4.4
			c-4.2,0-7.9,1.7-10.7,4.4c-2.7,2.7-4.4,6.5-4.4,10.6s1.7,7.9,4.4,10.6c2.7,2.7,6.5,4.4,10.7,4.4c4.2,0,7.9-1.7,10.7-4.4
			c2.7-2.7,4.4-6.5,4.4-10.6C271.1,139.6,269.4,135.9,266.7,133.2z M256,123c5.7,0,11,2.3,14.8,6.1s6.1,9,6.1,14.7
			s-2.3,10.9-6.1,14.7c-3.8,3.8-9,6.1-14.8,6.1s-11-2.3-14.8-6.1s-6.1-9-6.1-14.7s2.3-10.9,6.1-14.7C245,125.3,250.2,123,256,123z
			 M256.1,171.1H244c-0.7,0-1.2-0.2-1.7-0.6l-35.4-23.8c-1-0.7-2.4-0.5-3.8,0.2c-1.2,0.6-2.4,1.7-3.4,2.9c-1.1,1.3-2,2.7-2.5,4.2
			c-0.8,2.1-0.9,4.2,0.2,5.6l36.1,30.7c0.7,0.6,1,1.4,1,2.2v88.6c0.2,2.6,2.5,4.7,5.3,5.8c1.3,0.5,2.6,0.8,4,0.8
			c1.3,0,2.5-0.2,3.7-0.7c2.4-1.1,4.3-3.8,4.4-8.4l1.2-45.7c0-1.6,1.4-2.8,2.9-2.8c1.6,0,3,1.2,3,2.8l1.3,45.7
			c0.1,4.6,2,7.3,4.4,8.4c1.1,0.5,2.4,0.8,3.7,0.7c1.3,0,2.7-0.3,4-0.8c2.8-1.1,5.1-3.2,5.3-5.8v-88.6c0-0.8,0.4-1.6,1-2.2
			l36.1-30.7c1.1-1.4,1-3.5,0.2-5.6c-0.5-1.5-1.4-2.9-2.5-4.2c-1-1.2-2.2-2.2-3.4-2.9c-1.4-0.7-2.8-0.9-3.8-0.2l-35.4,23.8
			c-0.5,0.4-1.1,0.6-1.7,0.6C268,171.1,256.1,171.1,256.1,171.1z M256,165.3h11.1l34.8-23.4c3.1-2,6.5-1.8,9.7-0.2
			c1.9,1,3.7,2.5,5.2,4.3c1.5,1.7,2.7,3.8,3.5,5.9c1.5,4,1.4,8.3-1.4,11.5c-10,9.9-24.5,20.9-35.6,30.3v87.6c-0.4,5-4.2,9-9,10.8
			c-1.9,0.7-4,1.1-6,1.1c-2.1,0-4.2-0.4-6.1-1.3c-2.6-1.2-4.8-3.2-6.2-6.3c-1.4,3-3.6,5-6.2,6.3c-1.9,0.9-4,1.3-6.1,1.3
			s-4.1-0.4-6-1.1c-4.8-1.8-8.6-5.8-9-10.8v-87.6c-11.1-9.4-25.6-20.4-35.6-30.3c-2.8-3.2-2.9-7.5-1.4-11.5c0.8-2.1,2-4.2,3.5-5.9
			c1.5-1.8,3.3-3.3,5.2-4.3c3.2-1.6,6.6-1.9,9.7,0.2l34.8,23.4H256L256,165.3z"/>
	</g>
</g>
<path class="st0" d="M375,76.6c0.9,2.3-0.3,4.6-2.6,5.5c-0.7,0.3-1.5,0.4-2.2,0.3l-18-3.1c-2.3-0.3-3.9-2.6-3.6-4.9
	c0.4-2.4,2.6-3.9,5-3.5l10.5,1.8l-3.7-10.1c-0.9-2.3,0.3-4.7,2.5-5.6c2.3-0.9,4.7,0.4,5.6,2.5L375,76.6z"/>
<path class="st0" d="M414.4,191.8c2.6,2.7,4.2,6.3,4.2,10.3s-1.7,7.7-4.3,10.4l-0.1,0.1c-2.7,2.6-6.3,4.3-10.3,4.3
	c-4.1,0-7.8-1.7-10.5-4.4l-0.1-0.1c-2.6-2.7-4.3-6.3-4.3-10.3c0-4.1,1.7-7.8,4.3-10.5l0.2-0.1c2.7-2.6,6.3-4.2,10.3-4.2
	s7.7,1.7,10.4,4.3L414.4,191.8z M410,202.1c0-1.7-0.7-3.3-1.8-4.3c-1.1-1.1-2.7-1.9-4.3-1.9c-1.7,0-3.3,0.7-4.4,1.8
	s-1.8,2.7-1.8,4.4s0.7,3.2,1.8,4.3s2.7,1.8,4.4,1.8c1.7,0,3.2-0.7,4.3-1.8S410,203.8,410,202.1z"/>
<path class="st0" d="M237.6,44c0.6,2.3-0.7,4.7-3,5.3l-7.7,2.1c-2.3,0.6-4.7-0.8-5.3-3.1s0.7-4.7,3.1-5.3l7.7-2.1
	C234.7,40.4,237,41.7,237.6,44z"/>
<path class="st0" d="M226.9,62.6c0.6,2.3-0.7,4.7-3.1,5.3c-2.3,0.6-4.7-0.7-5.3-3.1l-2-7.5c-0.6-2.3,0.7-4.7,3.1-5.3
	c2.3-0.6,4.7,0.8,5.3,3.1L226.9,62.6z"/>
<path class="st0" d="M112.3,242.2c2.1,2.1,3.3,4.9,3.3,8.1s-1.3,6.1-3.3,8.1c-2.1,2.1-4.9,3.3-8.1,3.3c-3.1,0-6-1.3-8.1-3.3
	c-2.1-2.1-3.4-4.9-3.4-8.1c0-3.1,1.3-6,3.4-8.1s4.9-3.4,8.1-3.4S110.3,240.2,112.3,242.2z M107.1,250.3c0-0.7-0.3-1.5-0.9-2
	c-0.5-0.5-1.2-0.8-2-0.8c-0.7,0-1.5,0.3-1.9,0.8c-0.5,0.5-0.9,1.3-0.9,2c0,0.8,0.3,1.5,0.9,2c0.5,0.5,1.2,0.8,1.9,0.8
	c0.8,0,1.5-0.3,2-0.8S107.1,251.1,107.1,250.3z"/>
<path class="st0" d="M221,40.5c0.6,2.3-0.7,4.7-3.1,5.3c-2.3,0.6-4.7-0.7-5.3-3.1l-1.9-7.2c-0.6-2.3,0.7-4.7,3.1-5.3
	c2.3-0.6,4.7,0.7,5.3,3.1L221,40.5z"/>
<path class="st0" d="M216.1,49.8c0.7,2.3-0.7,4.7-3,5.3l-7.9,2.1c-2.3,0.6-4.7-0.7-5.3-3.1c-0.6-2.3,0.7-4.7,3.1-5.3l7.8-2.1
	C213.2,46.1,215.5,47.4,216.1,49.8z"/>
<polygon class="st0" points="129,132.9 131.3,140.6 123.1,143.1 120.7,135.3 "/>
<rect x="115.7" y="144.1" transform="matrix(0.9581 -0.2863 0.2863 0.9581 -37.3959 40.5593)" class="st0" width="8.6" height="8.1"/>
<polygon class="st0" points="118.4,127.6 120.7,135.3 112.5,137.8 110.1,130.1 "/>
<polygon class="st0" points="112.5,137.8 114.7,145.6 106.5,148.1 104.2,140.3 "/>
</svg>
