<?xml version="1.0" encoding="utf-8"?>
<!-- Generator: Adobe Illustrator 22.1.0, SVG Export Plug-In . SVG Version: 6.00 Build 0)  -->
<svg version="1.1" id="Слой_1" xmlns="http://www.w3.org/2000/svg" xmlns:xlink="http://www.w3.org/1999/xlink" x="0px" y="0px"
	 viewBox="0 0 325.9 373.4" style="enable-background:new 0 0 325.9 373.4;" xml:space="preserve">
<style type="text/css">
	.st0{fill:#7C3AFF;}
</style>
<g>
	<g>
		<path class="st0" d="M192.6,295.9c0-1.6,1.3-2.9,2.9-2.9s2.9,1.3,2.9,2.9v43.2c0,1.6-1.3,2.9-2.9,2.9s-2.9-1.3-2.9-2.9V295.9z
			 M112.1,295.5H21.3v57.7h90.8V295.5z M18.4,289.7H115c1.6,0,2.9,1.3,2.9,2.9V356c0,1.6-1.3,2.9-2.9,2.9H18.4
			c-1.6,0-2.9-1.3-2.9-2.9v-63.4C15.5,291,16.8,289.7,18.4,289.7z M211.6,309.1h96.6c1.6,0,2.9,1.3,2.9,2.9v44
			c0,1.6-1.3,2.9-2.9,2.9h-96.6c-1.6,0-2.9-1.3-2.9-2.9v-44C208.7,310.4,210,309.1,211.6,309.1z M305.3,314.8h-90.8v38.3h90.8V314.8
			z M208.7,270.8h-90.8v82.4h90.8V270.8L208.7,270.8z M115,265h96.6c1.6,0,2.9,1.3,2.9,2.9V356c0,1.6-1.3,2.9-2.9,2.9H115
			c-1.6,0-2.9-1.3-2.9-2.9v-88.1C112.1,266.3,113.4,265,115,265z M174,103.1c-2.7-2.7-6.5-4.4-10.7-4.4c-4.2,0-7.9,1.7-10.7,4.4
			c-2.7,2.7-4.4,6.5-4.4,10.6s1.7,7.9,4.4,10.6c2.7,2.7,6.5,4.4,10.7,4.4c4.2,0,7.9-1.7,10.7-4.4c2.7-2.7,4.4-6.5,4.4-10.6
			C178.4,109.5,176.7,105.8,174,103.1z M163.3,92.9c5.7,0,11,2.3,14.8,6.1s6.1,9,6.1,14.7s-2.3,10.9-6.1,14.7
			c-3.8,3.8-9,6.1-14.8,6.1c-5.8,0-11-2.3-14.8-6.1c-3.8-3.8-6.1-9-6.1-14.7s2.3-10.9,6.1-14.7C152.3,95.2,157.5,92.9,163.3,92.9z
			 M163.4,141h-12.1c-0.7,0-1.2-0.2-1.7-0.6l-35.4-23.8c-1-0.7-2.4-0.5-3.8,0.2c-1.2,0.6-2.4,1.7-3.4,2.9c-1.1,1.3-2,2.7-2.5,4.2
			c-0.8,2.1-0.9,4.2,0.2,5.6l36.1,30.7c0.7,0.6,1,1.4,1,2.2V251c0.2,2.6,2.5,4.7,5.3,5.8c1.3,0.5,2.6,0.8,4,0.8
			c1.3,0,2.5-0.2,3.7-0.7c2.4-1.1,4.3-3.8,4.4-8.4l1.2-45.7c0-1.6,1.4-2.8,2.9-2.8c1.6,0,3,1.2,3,2.8l1.3,45.7
			c0.1,4.6,2,7.3,4.4,8.4c1.1,0.5,2.4,0.8,3.7,0.7c1.3,0,2.7-0.3,4-0.8c2.8-1.1,5.1-3.2,5.3-5.8v-88.6c0-0.8,0.4-1.6,1-2.2
			l36.1-30.7c1.1-1.4,1-3.5,0.2-5.6c-0.5-1.5-1.4-2.9-2.5-4.2c-1-1.2-2.2-2.2-3.4-2.9c-1.4-0.7-2.8-0.9-3.8-0.2l-35.4,23.8
			c-0.5,0.4-1.1,0.6-1.7,0.6C175.3,141,163.4,141,163.4,141z M163.3,135.2h11.1l34.8-23.4c3.1-2,6.5-1.8,9.7-0.2
			c1.9,1,3.7,2.5,5.2,4.3c1.5,1.7,2.7,3.8,3.5,5.9c1.5,4,1.4,8.3-1.4,11.5c-10,9.9-24.5,20.9-35.6,30.3v87.6c-0.4,5-4.2,9-9,10.8
			c-1.9,0.7-4,1.1-6,1.1c-2.1,0-4.2-0.4-6.1-1.3c-2.6-1.2-4.8-3.2-6.2-6.3c-1.4,3-3.6,5-6.2,6.3c-1.9,0.9-4,1.3-6.1,1.3
			s-4.1-0.4-6-1.1c-4.8-1.8-8.6-5.8-9-10.8v-87.6c-11.1-9.4-25.6-20.4-35.6-30.3c-2.8-3.2-2.9-7.5-1.4-11.5c0.8-2.1,2-4.2,3.5-5.9
			c1.5-1.8,3.3-3.3,5.2-4.3c3.2-1.6,6.6-1.9,9.7,0.2l34.8,23.4H163.3L163.3,135.2z"/>
	</g>
</g>
<path class="st0" d="M282.3,46.5c0.9,2.3-0.3,4.6-2.6,5.5c-0.7,0.3-1.5,0.4-2.2,0.3l-18-3.1c-2.3-0.3-3.9-2.6-3.6-4.9
	c0.4-2.4,2.6-3.9,5-3.5l10.5,1.8l-3.7-10.1c-0.9-2.3,0.3-4.7,2.5-5.6c2.3-0.9,4.7,0.4,5.6,2.5L282.3,46.5z"/>
<path class="st0" d="M321.7,161.7c2.6,2.7,4.2,6.3,4.2,10.3s-1.7,7.7-4.3,10.4l-0.1,0.1c-2.7,2.6-6.3,4.3-10.3,4.3
	c-4.1,0-7.8-1.7-10.5-4.4l-0.1-0.1c-2.6-2.7-4.3-6.3-4.3-10.3c0-4.1,1.7-7.8,4.3-10.5l0.2-0.1c2.7-2.6,6.3-4.2,10.3-4.2
	s7.7,1.7,10.4,4.3L321.7,161.7z M317.3,172c0-1.7-0.7-3.3-1.8-4.3c-1.1-1.1-2.7-1.9-4.3-1.9c-1.7,0-3.3,0.7-4.4,1.8
	s-1.8,2.7-1.8,4.4s0.7,3.2,1.8,4.3s2.7,1.8,4.4,1.8c1.7,0,3.2-0.7,4.3-1.8S317.3,173.7,317.3,172z"/>
<path class="st0" d="M144.9,13.9c0.6,2.3-0.7,4.7-3,5.3l-7.7,2.1c-2.3,0.6-4.7-0.8-5.3-3.1s0.7-4.7,3.1-5.3l7.7-2.1
	C142,10.3,144.3,11.6,144.9,13.9z"/>
<path class="st0" d="M134.2,32.5c0.6,2.3-0.7,4.7-3.1,5.3c-2.3,0.6-4.7-0.7-5.3-3.1l-2-7.5c-0.6-2.3,0.7-4.7,3.1-5.3
	c2.3-0.6,4.7,0.8,5.3,3.1L134.2,32.5z"/>
<path class="st0" d="M19.6,212.1c2.1,2.1,3.3,4.9,3.3,8.1s-1.3,6.1-3.3,8.1c-2.1,2.1-4.9,3.3-8.1,3.3c-3.1,0-6-1.3-8.1-3.3
	c-2.1-2.1-3.4-4.9-3.4-8.1c0-3.1,1.3-6,3.4-8.1s4.9-3.4,8.1-3.4S17.6,210.1,19.6,212.1z M14.4,220.2c0-0.7-0.3-1.5-0.9-2
	c-0.5-0.5-1.2-0.8-2-0.8c-0.7,0-1.5,0.3-1.9,0.8c-0.5,0.5-0.9,1.3-0.9,2c0,0.8,0.3,1.5,0.9,2c0.5,0.5,1.2,0.8,1.9,0.8
	c0.8,0,1.5-0.3,2-0.8S14.4,221,14.4,220.2z"/>
<path class="st0" d="M128.3,10.4c0.6,2.3-0.7,4.7-3.1,5.3c-2.3,0.6-4.7-0.7-5.3-3.1L118,5.4c-0.6-2.3,0.7-4.7,3.1-5.3
	c2.3-0.6,4.7,0.7,5.3,3.1L128.3,10.4z"/>
<path class="st0" d="M123.4,19.7c0.7,2.3-0.7,4.7-3,5.3l-7.9,2.1c-2.3,0.6-4.7-0.7-5.3-3.1c-0.6-2.3,0.7-4.7,3.1-5.3l7.8-2.1
	C120.5,16,122.8,17.3,123.4,19.7z"/>
<polygon class="st0" points="36.3,102.8 38.6,110.5 30.4,113 28,105.2 "/>
<rect x="23" y="114" transform="matrix(0.9581 -0.2863 0.2863 0.9581 -32.6683 12.7575)" class="st0" width="8.6" height="8.1"/>
<polygon class="st0" points="25.7,97.5 28,105.2 19.8,107.7 17.4,100 "/>
<polygon class="st0" points="19.8,107.7 22,115.5 13.8,118 11.5,110.2 "/>
</svg>
