<?xml version="1.0" encoding="utf-8"?>
<!-- Generator: Adobe Illustrator 22.1.0, SVG Export Plug-In . SVG Version: 6.00 Build 0)  -->
<svg version="1.1" id="Слой_1" xmlns="http://www.w3.org/2000/svg" xmlns:xlink="http://www.w3.org/1999/xlink" x="0px" y="0px"
	 viewBox="0 0 325 357" style="enable-background:new 0 0 325 357;" xml:space="preserve">
<style type="text/css">
	.st0{fill:#FFFFFF;}
</style>
<path class="st0" d="M311.5,243.8c0-1.7-0.5-3.3-1.6-4.4c-1.6-1.1-3.2-2.2-4.8-2.2c-1.6,0-3.2,1.1-4.3,2.2c-1.6,1.1-2.2,2.7-2.2,4.4
	c0,2.2,0.5,3.8,1.6,4.9c1.6,1.1,3.2,1.6,4.9,1.6c1.6,0,3.2-0.5,4.8-1.6C310.9,247.6,311.5,246,311.5,243.8z M316.3,233
	c2.7,2.7,4.3,6.5,4.3,10.9c0,4.3-1.6,8.7-4.3,11.4h-0.5c-2.7,2.7-6.4,4.3-10.7,4.3c-4.3,0-8.1-1.6-10.8-4.3h-0.5
	c-2.6-3.2-4.3-7.1-4.3-11.4c0-4.4,1.6-8.2,4.8-10.9c2.7-3.3,6.5-4.9,10.8-4.9s8,2.2,10.7,4.9H316.3z"/>
<path class="st0" d="M303.1,57.8c2.1,1.1,2.6,4.3,1.6,6.5c-0.5,0.6-1,1.1-1.6,1.7l-16.7,9.2c-2.2,1.6-4.9,0.5-5.9-1.7
	c-1.6-2.2-0.5-4.9,1.6-5.9l9.7-6l-9.7-5.4c-2.2-1.7-3.2-4.4-1.6-6.5c1.1-2.2,3.8-2.7,5.9-1.6L303.1,57.8z"/>
<path class="st0" d="M176.4,312.9v-26h-25.8v26H176.4z M178,322.1h-29c-2.2,0-3.8-0.5-5.4-2.2c-1.1-1.6-2.2-3.2-2.2-5.5v-29.3
	c0-1.6,1.1-3.8,2.2-5.4c1.6-1.1,3.2-2.2,5.4-2.2h29c2.2,0,3.8,1.1,5.3,2.2c1.1,1.6,2.2,3.8,2.2,5.4v29.3c0,2.2-1.1,3.8-2.2,5.5
	C181.8,321.6,180.1,322.1,178,322.1z"/>
<path class="st0" d="M145.2,128.4c2.2-1.1,4.3-2.2,6.4-3.2c2.7-1.1,4.9-1.6,7.5-2.2c2.7-0.6,5.4-0.6,8-0.6c2.7,0,5.4,0,8.1,0.6
	c2.7,0.5,5.4,1.6,7.6,2.2c2.6,1.1,4.8,2.7,7.5,3.8c2.2,1.6,4.3,3.2,5.9,5.5c2.1,1.6,3.8,3.8,5.3,5.9c1.6,2.2,2.7,4.4,3.8,6.5
	c1.1,2.2,1.6,4.9,2.2,7.1c0.5,2.7,1.1,5.4,1.1,7.6c0,1.6-0.5,2.7-0.5,4.3c0,1.1-0.5,2.7-0.5,4.3c-0.5,1.1-1.1,2.2-1.6,3.3v0.5
	c-0.5,1.1-1.1,2.2-1.6,3.8c-0.5,1.1-1.6,2.2-2.7,3.8c-1,1.6-2.2,2.7-3.8,4.3c-1.6,1.6-3.2,3.2-4.8,4.9c-2.2,2.2-4.3,3.8-5.9,5.9
	c-5.3,4.9-10.2,9.2-15,14.1L169,214c-1.1,1.6-2.1,2.7-3.2,3.8c-0.5,1.7-1.6,2.8-2.2,3.8l-0.5,1.1c-0.5,1.1-1.6,2.2-2.2,3.8
	c-0.5,1.1-1.1,2.2-1.6,3.8c-0.5,1.6-1.1,3.8-1.6,5.4c-0.5,2.2-1.1,4.4-1.6,6c0,2.2-0.5,4.3-0.5,7.1c-0.5,2.2-0.5,4.3-0.5,7v6h21.5
	v-5.5l0.5-6.5c0-1.6,0.5-3.3,0.5-4.9c0.5-1.6,0.5-3.2,1.1-4.3c0-1.1,0.5-2.2,1.1-3.3l1.1-3.2c0.5-1.1,1.1-2.2,1.6-2.7l2.1-3.3
	c0.5-0.5,1.6-1.6,2.7-3.2l3.2-3.2c3.2-3.8,7-6.5,10.2-9.8c3.2-2.8,5.9-5.5,8.6-8.2c2.7-2.2,4.9-4.9,6.9-7.1c1.6-2.2,3.8-4.3,5.4-6.5
	c1.1-2.2,2.7-4.4,3.8-6c1.1-1.6,1.6-3.8,2.7-6c0.5-1.6,1.1-3.8,1.6-5.4c0.5-2.2,1-4.4,1-6.5c0.5-2.2,0.5-4.3,0.5-6.5
	c0-3.8-0.5-7.6-1.1-10.8c-0.5-3.2-1.6-7.1-3.2-9.8v-0.5c-1.6-3.2-3.2-6.5-5.4-9.2c-2.2-3.2-4.9-5.9-7.5-8.7c-3.2-2.7-6.5-4.9-9.7-7
	c-3.2-2.2-7-3.8-10.7-4.9c-8.1-2.7-17.2-4.3-26.8-4.3c-4.9,0-9.2,0.5-13.5,1.1c-4.3,0.5-8,1.6-11.8,2.7c-3.8,1.1-6.9,2.7-10.2,4.9
	c-3.2,1.6-6.5,3.8-9.2,6.5s-5.3,5.5-7.5,8.2c-2.7,3.2-4.3,6.5-5.9,10.3c-1.6,3.8-3.2,7.6-4.3,11.9c-1.1,3.3-2.2,7.6-2.6,12l23.1,2.7
	c0.5-3.2,1.1-6,2.2-8.7c0.5-3.2,1.6-6.5,2.7-9.2c1.6-2.7,2.7-5.5,4.3-7.6c1.7-2.2,3.2-4.3,5.4-5.9
	C140.9,131.6,143.1,130,145.2,128.4z M147.4,240.8c0-2.7,0.5-4.9,1.1-7.1c0.5-2.2,1.6-4.3,2.2-6.5c0.5-1.6,1.6-3.2,2.1-4.9
	c0.5-1.6,1.6-3.2,2.7-4.9v-0.6c1.1-1.1,2.2-2.7,3.2-4.3c1.1-1.1,2.2-2.7,3.2-4.4l3.2-3.8c7-7.1,14.5-13,21.5-20.1
	c1.6-1.6,3.2-3.2,4.3-4.4c1.6-1.6,2.7-2.7,3.2-3.8c1.1-1.1,1.6-2.2,2.2-3.2c0.5-0.5,1.1-1.6,1.6-2.8c0-1.1,0.5-1.6,0.5-2.7
	c0.6-0.5,0.6-1.6,0.6-2.7c0.5-1.1,0.5-2.2,0.5-3.2c0-1.7-0.5-3.8-0.5-5.5c-0.6-2.2-1.1-3.8-2.2-5.5c-0.5-1.6-1.6-3.2-2.7-4.9
	c-1.1-1.6-2.7-3.2-3.8-4.9c-1.6-1.6-3.8-3.2-5.4-4.3s-3.2-1.6-5.3-2.7c-1.6-0.5-3.8-1.1-5.9-1.7c-2.2-0.5-4.3-0.5-6.5-0.5
	c-2.1,0-4.3,0-6.4,0.5c-2.2,0.6-3.8,1.1-5.9,1.7c-1.6,0.5-3.2,1.6-4.8,2.2c-1.6,1.1-3.2,2.7-4.9,3.8c-1.1,1.6-2.7,2.8-3.8,4.9
	c-1.1,1.6-2.2,3.8-3.2,5.9c-1.1,2.2-2.1,4.9-2.6,7.6c-1.1,2.7-1.7,6-2.2,9.2c0,2.2-1,3.8-2.6,4.9c-1.6,1.1-3.8,1.6-5.4,1.6
	c-9.1-1.1-17.7-2.2-26.3-3.3c-2.2-0.5-3.8-1.6-4.9-2.7c-1.1-1.6-1.6-3.2-1.6-5.4v-0.5c0.5-4.9,1.6-9.8,2.7-14.7
	c1.6-4.9,3.2-9.2,4.9-13c2.1-4.4,4.3-8.1,7-12c2.7-3.2,5.4-6.5,9.2-9.7c3.2-2.8,6.4-5.5,10.2-7.6c3.8-2.2,8.1-3.8,12.4-5.5
	c4.3-1.6,8.6-2.7,13.4-3.2c4.3-0.5,9.7-1.1,14.6-1.1c10.7,0,20.9,1.6,29.5,4.9c4.3,1.1,8.6,3.2,12.3,5.5c4.3,2.7,8,5.4,11.3,8.7
	c3.8,3.2,6.5,6.5,8.6,9.8h0.5c2.1,3.8,4.3,7,5.9,10.8l0.5,0.5c1.6,3.8,2.7,7.6,3.8,11.4c0.5,4.4,1.1,8.7,1.1,13c0,2.8,0,4.9-0.5,7.6
	c0,2.7-0.5,4.9-1.1,7.6c-0.5,2.2-1.6,4.3-2.7,7.1c-0.5,2.2-1.6,4.3-3.2,6.5c-1.1,2.2-2.7,4.4-4.3,7.1c-1.6,2.2-3.8,4.9-5.9,7.1
	c-2.2,2.7-4.3,4.9-7,7.6c-2.6,2.8-5.9,5.5-9.1,8.2c-3.2,3.3-6.4,6.5-9.7,9.8l-3.2,3.3l-2.2,2.2l-1.1,2.2l-1.1,2.2l-1.1,2.7l-1.1,2.7
	c0,1.1-0.5,2.2-0.5,3.2l-0.5,4.4l-0.5,6v6.5c0,2.2-1.1,3.8-2.2,5.5c-1.6,1.1-3.2,2.2-5.3,2.2H154c-2.2,0-4.3-1.1-5.3-2.2
	c-1.6-1.6-2.2-3.3-2.2-5.5l-0.5-8.1c0-2.7,0.5-4.9,0.5-7.6C146.3,245.6,146.8,242.9,147.4,240.8z"/>
<path class="st0" d="M101.7,19.8c1,2.2-0.5,4.9-3.2,5.4l-8.1,2.2c-2.2,0.5-4.8-0.5-5.3-3.2c-0.5-2.2,0.5-4.9,3.2-5.5l8.1-2.2
	C99,16,101.2,17.1,101.7,19.8z"/>
<path class="st0" d="M81.8,42.1L79.6,34c-0.5-2.7,1.1-4.9,3.2-5.5c2.7-1.1,4.8,0.5,5.3,3.3l2.2,7.6c1.1,2.7-0.5,4.9-3.2,5.9
	C85,45.8,82.3,44.2,81.8,42.1z"/>
<path class="st0" d="M75.3,18.1l-1.6-7.6c-1.1-2.2,0.5-4.9,3.2-5.4c2.2-0.5,4.9,0.5,5.4,3.2l2.2,7.6c0.5,2.2-1.1,4.9-3.2,5.5
	C78.6,22,76.4,20.9,75.3,18.1z"/>
<path class="st0" d="M79.1,25.8c0.5,2.7-0.5,4.9-3.2,5.5l-8,2.7c-2.7,0.5-4.9-1.1-5.4-3.2c-1.1-2.8,0.5-5.5,3.2-6l8-2.2
	C75.9,22,78.6,23.6,79.1,25.8z"/>
<path class="st0" d="M66.9,341c0.5-0.5,0.5-1.1,0.5-1.6c0-1.1,0-1.6-0.5-2.2c-0.5-0.5-1.6-1.1-2.2-1.1c-1.1,0-1.6,0.5-2.2,1.1
	c-0.5,0.5-1.1,1.1-1.1,2.2c0,0.5,0.5,1.1,1.1,1.6c0.5,0.5,1.1,1.1,2.2,1.1C65.2,342.1,66.3,341.5,66.9,341z M73.3,330.7
	c2.2,2.2,3.2,4.9,3.2,8.7c0,3.2-1,6-3.2,8.2s-5.4,3.8-8.6,3.8c-3.2,0-6.4-1.6-8.6-3.8c-2.2-2.2-3.8-4.9-3.8-8.2
	c0-3.8,1.6-6.5,3.8-8.7s5.3-3.8,8.6-3.8C67.9,326.9,71.2,328.5,73.3,330.7z"/>
<polygon class="st0" points="25.9,197.8 17.3,200.6 14.6,192.4 23.3,189.8 "/>
<polygon class="st0" points="21.1,181.6 12.5,183.8 9.8,175.6 18.4,172.9 21.1,181.1 29.7,178.8 31.8,187 23.3,189.8 "/>
<polygon class="st0" points="11.9,183.8 14.6,192.4 6.1,194.6 3.4,186.5 "/>
</svg>
