<?xml version="1.0" encoding="utf-8"?>
<!-- Generator: Adobe Illustrator 22.1.0, SVG Export Plug-In . SVG Version: 6.00 Build 0)  -->
<svg version="1.1" id="Слой_1" xmlns="http://www.w3.org/2000/svg" xmlns:xlink="http://www.w3.org/1999/xlink" x="0px" y="0px"
	 viewBox="0 0 158 143" style="enable-background:new 0 0 158 143;" xml:space="preserve">
<style type="text/css">
	.st0{fill:#FFFFFF;}
</style>
<g>
	<path class="st0" d="M153.6,77L153.6,77c-0.8-0.8-1.9-1.2-3-1.2s-2.1,0.4-2.9,1.2l0,0c-0.7,0.8-1.2,1.8-1.2,2.9
		c0,1.1,0.4,2.1,1.2,2.9l0,0c0.8,0.7,1.8,1.2,2.9,1.2c1.1,0,2.1-0.5,2.9-1.2l0.1,0c0.7-0.8,1.2-1.8,1.2-2.9
		C154.8,78.7,154.3,77.7,153.6,77z M151.8,81.1c-0.3,0.3-0.7,0.5-1.2,0.5c-0.5,0-0.9-0.2-1.2-0.5c-0.3-0.3-0.5-0.7-0.5-1.2
		c0-0.5,0.2-0.9,0.5-1.2c0.3-0.3,0.7-0.5,1.2-0.5c0.4,0,0.9,0.2,1.2,0.5s0.5,0.7,0.5,1.2C152.4,80.3,152.2,80.8,151.8,81.1z"/>
	<path class="st0" d="M140.3,27.2h-30.6c1-0.5,1.9-1.1,2.6-1.7c1.1-0.9,2-1.9,2.5-2.9l0-0.1c0.5-1,0.8-2.2,0.8-3.3
		c0-1.2-0.2-2.4-0.6-3.6l0-0.1c-0.4-1.3-1.2-2.7-2.1-4.1c-1-1.4-2.2-2.9-3.5-4.4c-0.3-0.3-0.8-0.8-1-1.1c-3-3.2-4.6-4.9-9.3-4.7
		c-4.4,0.2-7.6,2.5-10,5.7c-2.4,3-4,6.9-5.7,10.6l-0.1,0.3c-0.6,1.3-1.1,2.5-1.7,3.7c-0.5-1-1.7-3-1.9-4c-3.5-7.4-7.3-15.6-16-15.8
		c-2.4-0.1-4,0.4-5.4,1.3C57,3.8,55.9,5,54.5,6.7l-0.9,1c-1.4,1.5-2.6,3.1-3.5,4.6c-0.9,1.5-1.6,2.9-2,4.2l0,0.1
		c-0.4,1.2-0.6,2.4-0.5,3.6c0.1,1.2,0.4,2.3,1,3.3l0.1,0.1c0.6,1,1.4,1.9,2.4,2.8c0.4,0.3,1,0.7,1.5,1H23.1c-1.1,0-2,0.4-2.7,1.1
		l-0.1,0.1c-0.6,0.7-1,1.6-1,2.6v20.9c0,1,0.4,1.9,1.1,2.6c0.7,0.6,1.6,1.1,2.6,1.1v52.9c0,3.1,1.3,5.9,3.3,8c2,2,4.9,3.3,8,3.3
		h41.1h0h0h12.8h0h0H129c3.1,0,5.9-1.3,8-3.3c2.1-2,3.3-4.9,3.3-8V55.6c1,0,1.9-0.4,2.6-1.1c0.7-0.7,1.1-1.6,1.1-2.6V31
		c0-1-0.4-2-1.1-2.7C142.3,27.6,141.3,27.2,140.3,27.2z M74.3,117.4l-39.9,0c-2.5,0-4.7-1-6.3-2.6c-1.6-1.6-2.6-3.8-2.6-6.3V55.6
		h48.9V117.4z M74.3,53.2H24.2h0h-1.2c-0.4,0-0.7-0.1-1-0.4c-0.3-0.3-0.4-0.6-0.4-0.9V31c0-0.4,0.1-0.7,0.4-0.9l0-0.1
		c0.3-0.3,0.6-0.4,1-0.4h36.4c4,0.8,9.2,1.3,14.8,1.6V53.2z M87.2,54.3L87.2,54.3L87.2,54.3v63l-10.4,0v-63v0v0v-23
		c1.9,0.1,3.8,0.1,5.7,0c1.6,0,3.2-0.1,4.7-0.1V54.3z M82.6,28.8c-10.8,0.1-21.6-0.9-26.5-2.8c-1.4-0.5-2.5-1.2-3.4-1.9
		c-0.8-0.6-1.4-1.3-1.8-2l0-0.1c-0.4-0.7-0.6-1.4-0.6-2.2c-0.1-0.8,0.1-1.7,0.4-2.7l0-0.1c0.3-1.2,0.9-2.4,1.7-3.6
		c0.8-1.3,1.9-2.8,3.2-4.2l0.9-1c1.2-1.5,2.2-2.6,3.3-3.3c1-0.6,2.2-1,4-0.9c7.2,0.1,10.6,7.6,13.8,14.4l0.6,1.4
		c0.8,1.6,1.5,3.2,2.3,4.5c0.2,0.4,0.6,0.7,1.1,0.7h0.4c0.5,0,0.9-0.3,1.1-0.7c0.9-1.7,1.7-3.6,2.6-5.6l0.1-0.3
		c1.5-3.5,3.2-7.3,5.3-10.1c2-2.7,4.6-4.5,8.2-4.7c3.6-0.1,4.9,1.3,7.4,4c0.3,0.4,0.6,0.7,1,1.1c1.3,1.4,2.4,2.8,3.3,4.1
		c0.8,1.2,1.4,2.4,1.8,3.5l0,0.1c0.3,1,0.5,1.9,0.4,2.7c0,0.8-0.2,1.6-0.5,2.3l0,0c-0.4,0.8-1,1.5-1.8,2.1c-0.9,0.7-2,1.3-3.3,1.9
		C102.3,27.7,92.5,28.8,82.6,28.8z M137.9,108.5c0,2.4-1,4.7-2.6,6.3c-1.6,1.6-3.9,2.6-6.3,2.6H89.7V55.6h48.2V108.5z M141.6,51.9
		c0,0.3-0.1,0.7-0.3,0.9c-0.2,0.2-0.6,0.4-0.9,0.4h-1.2h0H89.7V31.1c4.5-0.3,8.7-0.8,12.3-1.5h38.3c0.4,0,0.7,0.1,0.9,0.4
		c0.2,0.3,0.4,0.6,0.4,1V51.9z"/>
	<path class="st0" d="M130.7,15.2l2.6,1.5l-2.6,1.5c-0.6,0.3-0.8,1.1-0.4,1.7c0.3,0.6,1.1,0.8,1.7,0.4l4.4-2.5
		c0.2-0.1,0.3-0.3,0.4-0.4c0.3-0.6,0.2-1.3-0.4-1.7l-4.4-2.5c-0.6-0.3-1.3-0.2-1.7,0.4C129.9,14.1,130.1,14.8,130.7,15.2z"/>
	<path class="st0" d="M123.7,126.3h-6.3c-0.7,0-1.2,0.5-1.2,1.2c0,0.7,0.5,1.2,1.2,1.2h6.3c0.7,0,1.2-0.5,1.2-1.2
		C124.9,126.8,124.4,126.3,123.7,126.3z"/>
	<path class="st0" d="M119.5,129.6H106c-0.7,0-1.2,0.5-1.2,1.2c0,0.7,0.5,1.2,1.2,1.2h13.5c0.7,0,1.2-0.5,1.2-1.2
		C120.7,130.1,120.2,129.6,119.5,129.6z"/>
	<path class="st0" d="M105.3,11.7c-0.5-0.2-0.8,0-1.2,0.1l-0.1,0.1c-0.4,0.1-0.8,0.3-1.2,0.4c-0.4,0.1-0.8,0.3-1.3,0.5
		c-1.2,0.4-4.5,2.5-5.6,3.3c-0.6,0.4-1.2,0.8-1.8,1.3l-1.8,1.4c-0.7,0.6-1.4,1.2-2,1.8c-0.8,0.8-1.9,1.7-2.7,2.4
		c-0.6,0.5-1.3,1.1-1.9,1.5c-0.5,0.4-0.6,1.2-0.2,1.7l0.1,0.1c0.2,0.2,0.4,0.4,0.6,0.6c0.1,0.2,0.2,0.4,0.3,0.6
		c0.1,0.6,0.8,1.1,1.4,0.9l0.2-0.1c2.3-0.6,4.2-1.3,5.8-1.9l0.1,0c1.9-0.8,3.4-1.6,4.5-2.3l0.1,0c1.3-0.9,2.4-1.7,3.1-2.6
		c0.8-0.9,1.3-1.8,1.7-2.6c0.3-0.6,0.7-1.3,1-2l0.8-1.5l0.8-1.5c0.1-0.1,0.2-0.2,0.2-0.3c0.1-0.2,0.1-0.4,0.1-0.6
		c0-0.3-0.1-0.7-0.4-0.9C105.6,11.9,105.5,11.7,105.3,11.7z M102.1,15.8c-0.3,0.5-0.5,1-0.7,1.5l-0.3,0.6c-0.3,0.6-0.7,1.3-1.3,2
		c-0.6,0.7-1.5,1.4-2.6,2.2l-0.1,0c-1.1,0.7-2.4,1.4-4.2,2.1l-0.1,0c-1.3,0.6-2.9,1.1-4.6,1.6l-0.2-0.3l2.3-2c0.5-0.4,1-0.9,1.4-1.2
		c0.6-0.6,1.3-1.2,1.9-1.7l1.8-1.3c0.6-0.4,1.1-0.8,1.7-1.2l1.5-1l1.4-0.9c0.8-0.4,1.6-1,2.4-1.3L102.1,15.8z"/>
	<path class="st0" d="M77.8,24.4c-0.6-0.5-1.3-1-1.9-1.6c-0.8-0.7-1.9-1.6-2.7-2.4c-0.6-0.6-1.3-1.2-2-1.8l-1.9-1.4
		c-0.6-0.4-1.2-0.9-1.8-1.3c-1.1-0.8-4.3-2.9-5.5-3.3c-0.5-0.2-0.9-0.4-1.3-0.5c-0.4-0.1-0.8-0.3-1.2-0.4l-0.1-0.1
		c-0.3-0.1-0.7-0.2-1.2-0.1c-0.2,0.1-0.4,0.2-0.5,0.3c-0.3,0.3-0.4,0.6-0.4,1c0,0.2,0,0.4,0.1,0.6c0.1,0.1,0.1,0.3,0.2,0.3l0.8,1.5
		l0.8,1.5c0.3,0.6,0.7,1.3,1,2c0.4,0.8,0.9,1.7,1.7,2.6c0.8,0.8,1.8,1.7,3.1,2.6l0.1,0c1.2,0.8,2.7,1.6,4.5,2.3l0.1,0
		c1.6,0.7,3.6,1.3,5.8,1.9l0.2,0.1c0.6,0.1,1.3-0.3,1.4-0.9c0-0.2,0.1-0.4,0.3-0.6c0.1-0.2,0.3-0.4,0.6-0.6l0.1-0.1
		C78.4,25.6,78.3,24.8,77.8,24.4z M75.1,25.9c-1.7-0.5-3.3-1-4.6-1.6l-0.1,0c-1.7-0.7-3.1-1.4-4.2-2.1l-0.1,0
		c-1.1-0.8-2-1.5-2.6-2.2c-0.6-0.7-1-1.4-1.3-2L62,17.2c-0.2-0.4-0.4-0.9-0.7-1.5l-0.5-1c0.8,0.4,1.7,0.9,2.4,1.3l1.4,0.9l1.5,1
		c0.6,0.4,1.2,0.8,1.7,1.2l1.7,1.3c0.7,0.6,1.3,1.2,2,1.7c0.5,0.4,1,0.8,1.4,1.2l2.3,2L75.1,25.9z"/>
	<path class="st0" d="M37,13.4l2.2-0.6c0.7-0.2,1-0.8,0.9-1.5c-0.2-0.6-0.8-1-1.5-0.9l-2.2,0.6c-0.6,0.2-1,0.8-0.9,1.5
		C35.7,13.2,36.4,13.6,37,13.4z"/>
	<path class="st0" d="M35.3,130.6c-0.9,0-1.7,0.3-2.3,0.9c-0.6,0.6-0.9,1.4-0.9,2.3c0,0.9,0.3,1.7,0.9,2.3c0.6,0.6,1.4,0.9,2.3,0.9
		c0.9,0,1.7-0.3,2.3-0.9c0.6-0.6,1-1.4,1-2.3c0-0.9-0.4-1.7-1-2.3C37.1,130.9,36.2,130.6,35.3,130.6z M35.9,134.4
		c-0.1,0.1-0.3,0.2-0.5,0.2c-0.2,0-0.4-0.1-0.6-0.2c-0.1-0.1-0.2-0.4-0.2-0.6c0-0.2,0.1-0.4,0.2-0.6c0.1-0.1,0.3-0.2,0.6-0.2
		c0.2,0,0.4,0.1,0.5,0.2c0.2,0.1,0.3,0.4,0.3,0.6C36.2,134,36,134.2,35.9,134.4z"/>
	<path class="st0" d="M36.4,14.5c-0.2-0.7-0.8-1-1.5-0.9c-0.6,0.2-1,0.8-0.9,1.5l0.6,2.1c0.2,0.7,0.8,1,1.5,0.9
		c0.6-0.2,1-0.8,0.9-1.5L36.4,14.5z"/>
	<path class="st0" d="M33,11c0.2,0.7,0.8,1,1.5,0.9c0.7-0.2,1-0.8,0.9-1.5l-0.5-2c-0.2-0.7-0.8-1.1-1.5-0.9
		c-0.7,0.2-1.1,0.8-0.9,1.5L33,11z"/>
	<path class="st0" d="M30.9,15.1l2.2-0.6c0.6-0.2,1-0.8,0.8-1.5c-0.2-0.6-0.8-1-1.5-0.9l-2.2,0.6c-0.6,0.2-1,0.8-0.8,1.5
		C29.6,14.9,30.3,15.2,30.9,15.1z"/>
	<polygon class="st0" points="10.1,75.5 7.8,76.2 8.5,78.4 10.8,77.7 	"/>
	<polygon class="st0" points="6.8,81.3 9.1,80.6 8.5,78.4 6.2,79.1 	"/>
	<polygon class="st0" points="4.8,74.7 5.5,76.9 7.8,76.2 7.2,74 	"/>
	<polygon class="st0" points="3.2,77.6 3.8,79.8 6.1,79.1 5.5,76.9 	"/>
</g>
</svg>
