<?xml version="1.0" encoding="utf-8"?>
<!-- Generator: Adobe Illustrator 22.0.1, SVG Export Plug-In . SVG Version: 6.00 Build 0)  -->
<svg version="1.1" id="Слой_1" xmlns="http://www.w3.org/2000/svg" xmlns:xlink="http://www.w3.org/1999/xlink" x="0px" y="0px"
	 viewBox="0 0 540.2 605.2" style="enable-background:new 0 0 540.2 605.2;" xml:space="preserve">
<style type="text/css">
	.st0{fill:#FFFFFF;}
</style>
<g>
	<g>
		<g>
			<g>
				<path class="st0" d="M535.9,270.2c2.7,2.7,4.3,6.3,4.3,10.3c0,4.1-1.7,7.7-4.3,10.4l-0.2,0.1c-2.7,2.6-6.3,4.3-10.3,4.3
					c-4.1,0-7.8-1.7-10.5-4.3l-0.1-0.1c-2.6-2.7-4.2-6.3-4.2-10.3c0-4.1,1.7-7.8,4.3-10.5l0.1-0.1c2.7-2.6,6.3-4.2,10.3-4.2
					s7.7,1.7,10.4,4.3L535.9,270.2z M531.5,280.6c0-1.7-0.7-3.2-1.8-4.3c-1.1-1.1-2.7-1.8-4.3-1.8c-1.7,0-3.3,0.7-4.3,1.8
					c-1.1,1.1-1.9,2.6-1.9,4.3c0,1.7,0.7,3.2,1.8,4.3c1.1,1.1,2.7,1.8,4.4,1.8s3.2-0.7,4.3-1.7C530.9,283.8,531.5,282.2,531.5,280.6
					z"/>
				<path class="st0" d="M501.8,106.3v74.5c0,3.5-1.5,6.9-3.9,9.3c-2.4,2.3-5.6,3.8-9.3,3.8v188.6c0,11.1-4.5,21.2-11.9,28.5
					c-7.3,7.3-17.4,11.8-28.5,11.8H303.9h-0.1h-0.1H258h-0.1h-0.1H111.2c-11.1,0-21.2-4.5-28.5-11.8s-11.9-17.4-11.9-28.5V194
					c-3.7,0-6.9-1.5-9.4-3.8c-2.5-2.5-3.9-5.8-3.9-9.3v-74.5c0-3.5,1.3-6.7,3.6-9.1l0.3-0.4c2.4-2.4,5.7-3.9,9.5-3.9H176
					c-2-1.1-3.8-2.3-5.4-3.5c-3.8-3-6.7-6.3-8.7-9.9l-0.2-0.3c-2.1-3.7-3.1-7.7-3.4-11.9c-0.2-4.1,0.5-8.4,1.8-12.7l0.1-0.2
					c1.4-4.8,3.9-9.9,7.1-15.1c3.3-5.3,7.5-10.8,12.4-16.3l3.1-3.4c4.9-5.8,8.8-10.2,13.7-13.3c5.1-3.3,10.9-4.9,19.3-4.7
					C247,2.4,260.5,31.5,272.9,58c1,3.3,5.2,10.7,6.9,14.1c2-4.2,3.9-8.6,6-13.1l0.3-0.9c5.8-13.1,11.8-26.9,20.2-37.7
					c8.8-11.4,20-19.5,35.8-20.3c16.8-0.7,22.6,5.5,33.2,16.9c0.8,1.2,2.5,2.7,3.5,3.9c4.9,5.3,9.2,10.7,12.6,15.7
					c3.3,5,5.9,9.9,7.5,14.5l0.1,0.3c1.5,4.5,2.2,8.8,2.1,12.9s-1.1,8.1-3,11.8l-0.1,0.3c-1.9,3.8-4.9,7.3-8.9,10.5
					c-2.7,2.1-5.8,4.1-9.4,5.9h108.9c3.7,0,7.1,1.5,9.4,3.9C500.3,99.2,501.8,102.6,501.8,106.3z M493.1,180.8v-74.5
					c0-1.4-0.5-2.6-1.3-3.5c-0.8-0.8-1.9-1.3-3.3-1.3H352.1c-12.9,2.6-28,4.3-44,5.3v78.6h176.3h0.1h4.1c1.3,0,2.5-0.5,3.3-1.3
					S493.1,182,493.1,180.8z M480,382.6V194H308.1v220.3h140.1c8.7,0,16.7-3.5,22.5-9.3C476.4,399.2,480,391.3,480,382.6z M392.1,64
					c0.1-3-0.4-6.3-1.6-9.7l-0.1-0.3c-1.4-3.9-3.6-8.1-6.5-12.5c-3.2-4.8-7.1-9.7-11.8-14.7c-1.1-1.3-2.3-2.5-3.4-3.8
					c-8.7-9.4-13.5-14.6-26.2-14.1c-12.7,0.6-21.8,7.3-29.1,16.8c-7.7,10-13.5,23.3-19,35.9l-0.4,0.9c-3.2,7.1-6.2,13.9-9.4,20.1
					c-0.8,1.5-2.3,2.4-4,2.4h-1.3c-1.7,0-3.3-1-4-2.4c-2.7-4.7-5.3-10.3-8.1-16l-2.3-4.9c-11.3-24.1-23.7-50.7-49.2-51.2
					c-6.5-0.1-10.7,1-14.3,3.3c-3.8,2.4-7.3,6.5-11.7,11.7l-3.1,3.5c-4.7,5.2-8.5,10.3-11.5,15.1c-2.8,4.5-4.9,8.8-6.1,12.9
					l-0.1,0.3c-1,3.3-1.5,6.5-1.3,9.5c0.1,2.9,0.9,5.5,2.3,7.9L170,75c1.4,2.5,3.6,5,6.4,7.2c3.2,2.4,7.2,4.7,12.1,6.6
					c17.3,6.7,55.7,10.3,94.3,9.9c35.3-0.3,70.5-4.1,89.2-12c4.8-2,8.7-4.3,11.8-6.7c2.9-2.4,5.1-4.9,6.5-7.6l0.1-0.1
					C391.3,69.6,392,66.9,392.1,64z M299.4,414.2V189.8v-0.1v-0.1v-82.3c-5.5,0.2-11.2,0.3-16.8,0.4c-6.9,0.1-13.7,0.1-20.4-0.1
					v82.1v0.1v0.1v224.4L299.4,414.2L299.4,414.2z M253.5,414.2V194H79.4v188.6c0,8.7,3.5,16.7,9.3,22.4c5.7,5.7,13.7,9.3,22.5,9.3
					L253.5,414.2L253.5,414.2z M253.5,185.4v-78.1c-20.1-0.9-38.8-2.8-52.9-5.7H70.8c-1.3,0-2.5,0.5-3.4,1.4l-0.1,0.2
					c-0.8,0.8-1.3,1.9-1.3,3.2v74.5c0,1.2,0.5,2.3,1.4,3.2c0.9,0.8,2.1,1.3,3.4,1.3h4.1H75H253.5L253.5,185.4z"/>
				<path class="st0" d="M474.4,51.5c2.1,1.2,2.7,3.9,1.5,5.9c-0.4,0.7-0.9,1.2-1.5,1.6l-15.8,9c-2.1,1.2-4.7,0.5-5.9-1.5
					c-1.2-2.1-0.5-4.7,1.5-5.9l9.3-5.3l-9.3-5.3c-2.1-1.2-2.7-3.9-1.5-5.9c1.2-2.1,3.8-2.7,5.9-1.5L474.4,51.5z"/>
				<path class="st0" d="M429.4,446c2.4,0,4.3,1.9,4.3,4.3s-1.9,4.3-4.3,4.3h-22.5c-2.4,0-4.3-1.9-4.3-4.3s1.9-4.3,4.3-4.3H429.4z"
					/>
				<path class="st0" d="M414.4,457.6c2.4,0,4.3,1.9,4.3,4.3s-1.9,4.3-4.3,4.3h-48.1c-2.4,0-4.3-1.9-4.3-4.3s1.9-4.3,4.3-4.3H414.4z
					"/>
				<path class="st0" d="M366.9,42c0,0.7-0.1,1.3-0.4,2.1c-0.1,0.4-0.4,0.9-0.7,1.2l-2.7,5.5l-2.9,5.5c-1.2,2.3-2.5,4.8-3.6,7.1
					c-1.4,3-3.3,6.1-6.1,9.3c-2.7,3-6.3,6.1-11.1,9.2l-0.2,0.1c-4.2,2.7-9.5,5.5-16.2,8.3l-0.2,0.1c-5.9,2.4-12.7,4.7-20.8,6.9
					l-0.6,0.2c-2.3,0.5-4.7-1-5.1-3.3c-0.2-0.8-0.5-1.6-0.9-2.3c-0.5-0.9-1.2-1.6-2-2.3l-0.5-0.5c-1.5-1.9-1.2-4.6,0.7-6.1
					c2.2-1.7,4.7-3.6,6.8-5.5c3.1-2.6,6.9-5.7,9.7-8.5c2.3-2.1,4.7-4.3,7.3-6.3l6.5-5c2.1-1.6,4.3-3.1,6.5-4.5
					c3.9-2.9,15.5-10.4,19.8-11.9c1.7-0.7,3.1-1.4,4.5-1.9c1.5-0.5,2.9-1,4.4-1.4l0.5-0.2c1.3-0.3,2.5-0.8,4.2-0.2
					c0.6,0.2,1.2,0.6,1.7,1.1C366.4,39.6,366.9,40.8,366.9,42z M352.6,52.2l1.9-3.4c-2.9,1.3-5.9,3.1-8.7,4.7l-5.1,3.2l-5.5,3.7
					c-2.1,1.4-4.1,2.8-6.1,4.3l-6.3,4.7c-2.4,2-4.7,4.1-6.9,6.1c-1.7,1.3-3.4,2.9-5.1,4.4l-8.3,7.1l0.7,1.1
					c6.3-1.8,11.7-3.7,16.5-5.7l0.2-0.1c6.1-2.5,10.9-5.1,14.8-7.5l0.2-0.1c4.1-2.7,7.1-5.3,9.3-7.8c2.2-2.5,3.7-4.9,4.8-7.2
					l1.1-2.3C350.7,55.8,351.6,54.1,352.6,52.2z"/>
				<path class="st0" d="M265.8,83c1.9,1.5,2.1,4.2,0.7,6.1l-0.5,0.5c-0.8,0.7-1.5,1.5-2,2.3c-0.5,0.7-0.8,1.5-0.9,2.3
					c-0.5,2.3-2.8,3.8-5.1,3.3l-0.6-0.2c-8.1-2.2-15-4.5-20.8-6.9l-0.2-0.1c-6.7-2.7-12-5.5-16.2-8.3l-0.2-0.1
					c-4.8-3.1-8.4-6.2-11.1-9.2c-2.9-3.2-4.7-6.3-6.1-9.3c-1.1-2.3-2.4-4.8-3.6-7.1l-2.9-5.5l-2.7-5.5c-0.3-0.3-0.5-0.8-0.7-1.2
					c-0.3-0.7-0.4-1.4-0.4-2.1c0-1.3,0.4-2.5,1.4-3.4c0.5-0.5,1.1-0.9,1.8-1.1c1.6-0.6,2.9-0.1,4.1,0.2l0.5,0.2
					c1.5,0.4,2.9,0.9,4.3,1.4c1.4,0.5,2.9,1.2,4.6,1.9c4.3,1.5,15.9,9.1,19.7,11.9c2.3,1.4,4.4,2.9,6.5,4.5l6.6,5
					c2.5,2,4.9,4.1,7.2,6.3c2.8,2.7,6.7,5.9,9.7,8.5C261.1,79.4,263.6,81.2,265.8,83z M256.2,88.1l0.7-1.1l-8.3-7.1
					c-1.7-1.5-3.3-3.1-5.1-4.4c-2.2-2-4.5-4.1-7-6.1l-6.2-4.7c-2-1.5-4.1-2.9-6.1-4.3l-5.5-3.7l-5.1-3.2c-2.8-1.6-5.8-3.3-8.7-4.7
					l1.9,3.4c1,1.9,1.9,3.7,2.6,5.2l1.1,2.3c1.1,2.3,2.6,4.7,4.8,7.2c2.3,2.5,5.3,5.1,9.3,7.8l0.3,0.1c3.9,2.5,8.7,5.1,14.8,7.5
					l0.2,0.1C244.5,84.4,250,86.3,256.2,88.1z"/>
				<path class="st0" d="M131.3,36.4c0.6,2.3-0.7,4.7-3.1,5.3l-7.7,2.1c-2.3,0.6-4.7-0.7-5.3-3.1c-0.6-2.3,0.8-4.7,3.1-5.3l7.7-2.1
					C128.3,32.8,130.7,34.2,131.3,36.4z"/>
				<path class="st0" d="M122.7,464.6c2.1,2.1,3.4,4.9,3.4,8.1c0,3.1-1.3,6.1-3.4,8.1c-2.1,2.1-4.9,3.3-8.1,3.3s-6.1-1.3-8.1-3.3
					c-2.1-2.1-3.3-5-3.3-8.1c0-3.2,1.3-6,3.3-8.1c2.1-2.1,4.9-3.3,8.1-3.3C117.8,461.2,120.7,462.5,122.7,464.6z M117.5,472.7
					c0-0.7-0.3-1.5-0.9-2c-0.5-0.5-1.1-0.8-1.9-0.8s-1.5,0.3-2,0.8s-0.8,1.3-0.8,2s0.3,1.5,0.8,2s1.2,0.8,2,0.8s1.5-0.3,1.9-0.8
					C117.1,474.2,117.5,473.4,117.5,472.7z"/>
				<path class="st0" d="M120.5,55.1c0.6,2.3-0.8,4.7-3.1,5.3c-2.3,0.6-4.7-0.7-5.3-3.1l-2.1-7.5c-0.6-2.3,0.8-4.7,3.1-5.3
					c2.3-0.6,4.7,0.7,5.3,3.1L120.5,55.1z"/>
				<path class="st0" d="M114.6,33c0.6,2.3-0.7,4.7-3.1,5.3c-2.3,0.6-4.7-0.7-5.3-3.1l-1.9-7.2c-0.7-2.3,0.7-4.7,3.1-5.3
					c2.3-0.7,4.7,0.7,5.3,3.1L114.6,33z"/>
				<path class="st0" d="M109.7,42.2c0.7,2.3-0.7,4.7-3,5.3l-7.9,2.1c-2.3,0.6-4.7-0.7-5.3-3.1c-0.6-2.3,0.7-4.7,3-5.3l7.9-2.1
					C106.8,38.6,109.1,40,109.7,42.2z"/>
				<polygon class="st0" points="24.7,265 27.1,272.8 18.8,275.2 16.5,267.5 				"/>
				<polygon class="st0" points="18.8,275.2 21.1,283 12.9,285.5 10.6,277.7 				"/>
				<polygon class="st0" points="14.2,259.8 16.5,267.5 8.3,270 5.9,262.2 				"/>
				<polygon class="st0" points="8.2,270 10.5,277.7 2.3,280.2 0,272.4 				"/>
			</g>
		</g>
	</g>
</g>
</svg>
