<?xml version="1.0" encoding="utf-8"?>
<!-- Generator: Adobe Illustrator 22.1.0, SVG Export Plug-In . SVG Version: 6.00 Build 0)  -->
<svg version="1.1" id="Слой_1" xmlns="http://www.w3.org/2000/svg" xmlns:xlink="http://www.w3.org/1999/xlink" x="0px" y="0px"
	 viewBox="0 0 100 100" style="enable-background:new 0 0 100 100;" xml:space="preserve">
<style type="text/css">
	.st0{fill:none;stroke:#7C3AFF;stroke-miterlimit:10;}
	.st1{fill:none;stroke:#7C3AFF;stroke-linecap:round;stroke-linejoin:round;}
</style>
<g transform="matrix( 1, 0, 0, 1, 0,0) ">
	<g>
		<g id="b">
			<path class="st0" d="M36.9,40.8c0.1-0.1,0.2-0.2,0.2-0.4s-0.1-0.3-0.2-0.5c-0.1-0.1-0.2-0.1-0.4-0.1s-0.3,0-0.5,0.1
				c-0.1,0.1-0.2,0.3-0.2,0.5s0.1,0.3,0.2,0.4c0.1,0.1,0.3,0.1,0.5,0.1S36.9,40.9,36.9,40.8 M20.9,42.6c0,0.1,0.1,0.3,0.1,0.3
				c0.1,0.1,0.2,0.2,0.4,0.2s0.3,0,0.4-0.2c0.1-0.1,0.1-0.2,0.1-0.3s-0.1-0.3-0.1-0.3c-0.1-0.1-0.2-0.2-0.4-0.2s-0.3,0-0.4,0.2
				C21,42.4,20.9,42.5,20.9,42.6 M63.8,21.1c-0.2,0-0.4,0.1-0.6,0.2c-0.1,0.1-0.2,0.3-0.2,0.5s0.1,0.4,0.2,0.5
				c0.2,0.3,0.4,0.3,0.6,0.3c0.2,0,0.4-0.1,0.6-0.3c0.1-0.1,0.2-0.3,0.2-0.5s-0.1-0.4-0.2-0.5C64.2,21.2,64,21.1,63.8,21.1
				 M74.5,38.8c-0.1-0.1-0.2-0.2-0.3-0.2c-0.2,0-0.3,0.1-0.4,0.2c-0.1,0.1-0.2,0.2-0.2,0.4c0,0.1,0.1,0.3,0.2,0.4
				c0.1,0.1,0.2,0.1,0.4,0.1c0.1,0,0.3,0,0.3-0.1c0.1-0.1,0.2-0.2,0.2-0.4S74.6,38.9,74.5,38.8 M59.3,40.6c-0.1,0.1-0.2,0.2-0.2,0.4
				s0,0.2,0.2,0.3c0.1,0.1,0.2,0.2,0.3,0.2s0.2,0,0.3-0.2s0.2-0.2,0.2-0.3s-0.1-0.3-0.2-0.4s-0.2-0.1-0.3-0.1
				C59.5,40.5,59.4,40.6,59.3,40.6z"/>
		</g>
	</g>
	<g>
		<path id="a" class="st1" d="M87.5,46.5c-0.1,0,0.2-0.2,0.8-0.7c0.9,0.4,1.7,0.6,2.3,0.5c0.7,0,1.5-0.3,2.4-0.8l-0.8-1.9
			c-0.5,0.4-1.3,0.6-2.4,0.5s-0.8-1,0.7-2.8c-0.6-1-0.9-1.6-1.2-1.7c-0.2-0.1-0.6,0.4-1.4,1.3c-0.7,1.1-1,2.3-0.9,3.4l-1,1
			c0.3,0.3,0.5,0.6,0.8,1c0.1,0.2,0.3,0.3,0.4,0.5l0.8,1.5c-0.2,0.1-0.3,0.3-0.5,0.3c-0.2,0.1-0.4,0.3-0.6,0.4
			c-0.5,0.3-1.1,0.6-1.8,0.9c-0.7,0.3-1.2,0.5-1.5,0.6c-0.3,0-0.5,0-0.6-0.2c0,0,0,0-0.1,0c-0.2,0.2-0.4,0.4-0.7,0.6
			c-0.9,0.9-1.5,1.4-1.9,1.6l0.1,0.8c0,1.2-0.6,1.9-1.6,2.2c0,0.1,0,0.1,0,0.2c0.3,1.1,0.6,2.1,0.8,3c0.4,1.6,0.5,2.8,0.4,3.5
			c-0.1,0.5-0.3,0.8-0.7,0.7L77,63.2l0.3,2c0.2,1.4,0.5,2.4,0.8,2.9c0.8,0,1.5,0.2,2.2,0.6c0.5,0.3,0.9,0.6,1.1,0.9
			c0.3,0.5,0.6,1.2,0.7,2s-0.2,1.4-0.7,1.8c-0.6,0.4-2.6,0.6-6.1,0.7c-0.6,0-1-0.3-1.2-0.8l-0.2-0.8c0-1.2,0.5-2.2,1.4-3.1
			c0.4-0.3,0.7-0.5,1-0.7c0.1-0.6,0-1.6-0.3-3.1l-0.5-2L72.9,64c-2.5,0.4-4.5,0.7-6.2,0.8v1.9c0,1.4,0.2,2.4,0.4,3
			c1.7,0.9,2.5,2.3,2.5,4.1c-0.3,0.5-0.9,0.9-2,1.2c-1,0.2-2.1,0.3-3.2,0.3s-1.8-0.3-2.1-1s-0.2-1.4,0.2-2.2
			c0.7-1.4,1.6-2.2,2.8-2.4c0.2-0.6,0.2-1.6,0.1-2.9l-0.2-2c-1.4,0.1-2.4,0-3-0.1l-0.5-0.3c-0.2-0.4-0.2-1.8-0.2-4.3v-2.9
			c-1.3-0.1-2.2-0.7-2.6-1.8V55c-0.3,0.1-0.7,0.5-1.2,1.1c-0.1,0.1-0.2,0.3-0.3,0.4c0,0.2,0,0.4-0.2,0.5c-0.1,0.2-0.3,0.6-0.8,1
			c-0.4,0.4-0.7,0.7-0.9,0.9l-2.2,1.5c-0.3-0.2-0.5-0.5-0.7-0.8v0.1c-0.4,0.4-0.8,0.8-1.2,1.2V61c-0.2,0.2-0.4,0.4-0.6,0.7
			c-0.8-0.4-1.5-0.6-2.1-0.6c-1.3,0-1.6,0.9-0.9,2.7l0.6,0.8l-1,1.1c-0.9-0.9-1.5-1.7-1.7-2.4c-0.2-0.7-0.3-1.6,0-2.8
			c-0.7-0.6-1.1-0.8-1-0.8 M86.1,45.3c-0.3-0.3-0.6-0.6-0.9-0.7l-1.8,1.9c-0.2,0.2-0.4,0.5-0.8,1c-0.3,0.5-0.5,0.9-0.6,1.1
			c-0.1,0.2-0.1,0.5,0.1,0.8l0,0l0.1,0.2c0.1,0.2,0.4,0.4,0.8,0.7 M16.5,37.5c-1.1,0.1-1.7,1-1.6,2.7l0.3,1.3c0.2,1.8,1.3,2.5,3,2.3
			c0-0.1,0-0.1,0-0.2c-0.9-4-1.5-8-1.8-12c-0.2-0.8,0.1-1.2,0.7-1.4c6.6-2,13.2-3.2,19.7-3.6c0.6-0.1,1,0.2,1.2,1
			c0.6,2.2,1.1,4.3,1.5,6.3c1.3-0.1,2.1,0.7,2.4,2.5h1.2c0.2,0.7,0.2,1.1,0,1.2h-0.9l0.1,0.6c0,1.3-0.6,2-1.7,2
			c0.1,1.1,0.2,2.3,0.3,3.5c0.1,0.8-0.2,1.2-0.8,1.3c-2.9,0.9-5.8,1.7-8.7,2.3l-0.1,0.8c0,0.6,0.2,1,0.6,1.4c1.3-0.2,2.7-0.4,4-0.5
			c0.4,0,0.6,0.2,0.7,0.6c0.3,0.8,0.5,1.6,0.7,2.4c0.1,0.3,0.2,0.7,0.3,1.1l0.2,1c0.9,0.6,1.6,0.8,2,0.5c0.1-0.1,0.2-0.1,0.3-0.2
			c0.3-0.2,0.5-0.3,0.9-0.3c0.3,0,0.8,0.1,1.5,0.3c0.6,0.2,1.1,0.4,1.3,0.5l2.7,1.5c-0.1,0.4-0.3,0.8-0.5,1.2l1.4,0.8
			c1.1-0.4,2.4-0.4,3.8,0c0.1,0,0.1,0,0.2,0c0,0,0.1,0,0.1,0.1c0.7-0.3,1-0.5,0.9-0.5 M41.8,36.3l0.3,1.2 M60.1,41
			c0,0.1-0.1,0.2-0.2,0.3s-0.2,0.2-0.3,0.2s-0.3,0-0.3-0.2c-0.1-0.1-0.2-0.2-0.2-0.3s0-0.3,0.2-0.4c0.1-0.1,0.2-0.1,0.3-0.1
			s0.2,0,0.3,0.1S60.1,40.9,60.1,41z M53.2,59.6c-0.2-0.4-0.5-0.7-0.7-1.1c0-0.2-0.1-0.4-0.3-0.6l-0.5-1.6c0.2-0.1,0.4-0.2,0.6-0.3
			c0.2-0.1,0.4-0.2,0.6-0.3c0.6-0.1,1.3-0.3,2-0.6c0.7-0.2,1.2-0.3,1.6-0.3c0.1,0,0.3,0,0.4,0.1l0.3,0.3c1.4-1.5,2.1-2.3,2.1-2.4
			c0.2-0.9,0.8-1.5,1.6-1.7c0.5-0.1,0.9-0.1,1.4,0c0.4-1.2,1.4-2.1,2.9-2.5c0.8-0.2,1.4-0.3,2.1-0.3c0.1-0.5,0.2-1.1,0.1-1.6
			L67.3,46c-3.1,0.5-6.3,0.9-9.6,1.1c-0.7,0.1-1.1-0.2-1.2-1.1c-1.5-4.7-2.3-9.6-2.4-14.6c-0.1-0.8,0.1-1.3,0.8-1.3
			c1.9-0.5,3.8-0.9,5.6-1.3c-0.1-1.7,0.5-3,1.9-3.8c0.6-0.4,1.2-0.6,1.9-0.7c-0.1,0-0.2-0.6-0.4-1.8c-0.2,0-0.4-0.1-0.6-0.3
			c-0.1-0.1-0.2-0.3-0.2-0.5s0.1-0.4,0.2-0.5c0.2-0.1,0.4-0.2,0.6-0.2s0.4,0.1,0.6,0.2c0.1,0.1,0.2,0.3,0.2,0.5s-0.1,0.4-0.2,0.5
			c-0.3,0.4-0.5,0.4-0.7,0.4 M64.2,24.5l0.1-0.1c0.7-0.1,1.3-0.1,1.7,0c1.6,0.1,2.7,0.6,3.4,1.6c0.4,0.5,0.6,1,0.6,1.5l4.3-0.4
			c0.7-0.1,1.1,0.2,1.3,1c1.3,4.6,2.1,9.5,2.5,14.6c0.1,0.8-0.2,1.3-0.8,1.4c-2.6,0.7-4.9,1.2-6.8,1.6l-0.2,0.8
			c-0.1,0.6,0,1.2,0.3,1.8l3.1-0.3c0.9-0.1,1.8,0.6,2.8,1.9l1.3-0.2c1,0.1,1.8,0.6,2.4,1.5c0.1-0.1,0.2-0.2,0.3-0.3
			c0.8-0.6,1.3-1.1,1.8-1.5 M60.5,28.9c3.2-0.7,6.4-1.2,9.5-1.5 M74.7,39.2c0,0.1,0,0.3-0.2,0.4c-0.1,0.1-0.2,0.1-0.3,0.1
			c-0.2,0-0.3,0-0.4-0.1s-0.2-0.2-0.2-0.4s0.1-0.3,0.2-0.4c0.1-0.1,0.2-0.2,0.4-0.2c0.1,0,0.3,0.1,0.3,0.2
			C74.6,38.9,74.7,39,74.7,39.2z M14.9,40.2H14c-0.2,0.1-0.2,0.5,0,1.3h1.2 M21.9,42.6c0,0.1-0.1,0.3-0.1,0.3
			c-0.1,0.1-0.2,0.2-0.4,0.2s-0.3,0-0.4-0.2c-0.1-0.1-0.1-0.2-0.1-0.3s0.1-0.3,0.1-0.3c0.1-0.1,0.2-0.2,0.4-0.2s0.3,0,0.4,0.2
			C21.8,42.4,21.9,42.5,21.9,42.6z M37.1,40.4c0,0.2-0.1,0.3-0.2,0.4s-0.2,0.1-0.4,0.1s-0.3,0-0.5-0.1c-0.1-0.1-0.2-0.2-0.2-0.4
			s0.1-0.3,0.2-0.5c0.1-0.1,0.3-0.1,0.5-0.1s0.3,0,0.4,0.1C37,40.1,37.1,40.2,37.1,40.4z M39.7,54.4l-0.2,0.2
			c-0.2,0.2-0.4,0.6-0.5,1.3l0,0c-0.1,0.1,0,0.3,0.1,0.7c0.1,0.3,0.5,0.8,1,1.5c0.6,0.7,1.1,1.3,1.6,1.8c0.2,0.2,0.3,0.4,0.5,0.5
			c0.2,0.2,0.4,0.4,0.6,0.5l1.4-1.4c0.2-0.2,0.3-0.4,0.5-0.6c0.3-0.4,0.6-0.8,0.9-1.3 M15.7,52.3l-0.4-0.1c-0.2-0.1-0.5-0.2-0.9-0.3
			c0.1-0.4,0-1.1-0.3-2s-1.4-1.7-3.3-2.3l-1.2,2.3c1.4,0.6,2.1,1.1,2.1,1.5c0.4,1.5-0.6,2-3,1.5C8.2,54.7,8,55.6,8,55.6l2.2,0.3
			c1.7,0.2,2.9-0.4,3.7-1.7l1.6,0.3c0.1-0.5,0.2-0.9,0.4-1.4c0.1-0.2,0.1-0.5,0.3-0.8l0.8-1.8c0.2,0,0.4,0.1,0.5,0.2
			c0,0,0.1,0.1,0.2,0.1c0.2,0.1,0.4,0.2,0.8,0.3l0.1,0.1c0.2,0.1,0.4,0.2,0.7,0.4c0.3,0.1,0.6,0.3,0.9,0.5c0.7,0.4,1.2,0.8,1.5,1.1
			c0.4,0.3,0.5,0.7,0.5,1.3c0.2,0.1,0.4,0.2,0.5,0.4c0.3,0.1,0.6,0.2,0.9,0.2c0.1,0,0.2,0,0.3,0c-0.2-1.1-0.4-2.2-0.5-3.3
			c-0.1-0.4,0-0.7,0.4-0.8c1.6-0.5,3.2-0.9,4.8-1.2c0.3-0.6,0.2-1.3-0.2-2.1c-2.7,0.4-5.4,0.7-8.1,0.9c-0.6,0.1-1-0.2-1.1-1
			c-0.4-1.3-0.7-2.6-1-3.9 M22.2,54.4v0.2c0.2,0.1,0.3,0.2,0.5,0.3 M39.1,56.6c-0.6-0.5-1-0.8-1.3-0.9c0.2,1.1,0.3,2.2,0.3,3.3
			c0.1,0.5,0,0.7-0.5,0.8l-1.1,0.3l0.1,1.2c0.2,0.8,0.3,1.4,0.5,1.7c0.5-0.1,0.8-0.1,0.9-0.1c0.2,0,0.7,0.9,1.4,2.5
			c0.8,2.1,1.3,4,1.3,5.8c0,0.6-0.1,1.3-0.3,1.9c-0.7,0.3-1.6,0.5-2.8,0.8c-1.1,0.3-2.5,0.1-4.1-0.5c-0.1-0.5-0.2-1.1-0.2-1.8
			c-0.1-0.6-0.1-1.3,0-2c0-2.8,0.6-4.9,1.6-6.3c0.3-0.1,0.6-0.1,0.8-0.2c0.1-0.3,0.1-0.7,0-1c-0.1-0.4-0.2-0.9-0.4-1.6
			c-2.1,0.5-4.4,1-7.1,1.3c-0.3,0.9-0.3,1.5,0,2c0.6,0,1,0,1,0c0.1,0.2,0.4,0.9,1.1,2.1c0.8,2.1,1.3,4,1.3,5.8
			c0,0.6-0.1,1.3-0.3,1.9c-0.7,0.3-1.6,0.5-2.6,0.7c-1.9,0.3-3.3,0.2-4.3-0.3c-0.1-0.5-0.2-1.1-0.2-1.8c-0.1-0.6-0.1-1.3-0.1-2.1
			c0-2.8,0.6-4.9,1.7-6.3h1c0.2-0.3,0.2-1,0.1-2c-0.3,0-0.6,0.1-1,0.1c-0.4,0.1-0.6-0.1-0.7-0.6c-0.4-1.5-0.8-3.1-1.1-4.6
			c-0.1,0-0.1,0-0.2,0c-0.2-0.2-0.6-0.3-1.1-0.5c-0.2,0-0.5,0-0.6,0c-0.2,0-0.4-0.1-0.6-0.1c-0.2,0.2-0.5,0.3-1,0.3s-0.9,0-1.3,0
			c-0.1,0-0.2,0-0.3,0c-0.3-0.1-0.6-0.1-0.8-0.1c-0.1,0-0.2,0-0.2,0l-2.4-0.4c-0.1-0.4-0.1-0.9,0-1.4 M24.2,56.7
			c-0.1-0.3-0.1-0.6-0.2-0.9c0-0.2-0.1-0.5-0.1-0.7 M21.5,56.1L21.5,56.1l0.7-1.5 M27.9,63.7c0.1,0,0.2,0,0.3,0
			c-0.3,0-0.7,0-1.3,0.1C27.3,63.7,27.6,63.7,27.9,63.7L27.9,63.7l-1,0.1 M28.2,63.7h0.1 M26.9,61.8c0.3,0,0.6,0,0.7,0l0.6-0.1
			 M36.6,60l-1.2,0.4 M35.8,63c0.6-0.1,1.1-0.2,1.4-0.2 M37.4,54.1c0.1,0.6,0.3,1.1,0.4,1.6 M28.6,49.9c1-0.2,2-0.4,3-0.5
			 M31.2,47.2c-0.9,0.2-1.9,0.4-2.8,0.6 M31.6,71.6c-2.2,0.7-4.7,0.9-7.4,0.5 M80,51.2l0.3,0.5l0.2,0.9 M62.4,51.3
			c-0.2,0.4-0.3,0.9-0.3,1.5L62,57.3 M61.9,60.2l2.6,1c2.1,0.4,4,0,5.7-1.3c1.1-0.9,2.2-1.4,3.3-1.7c2.4-0.5,4.5-0.3,6.3,0.6
			 M65.7,64.8c0.2,0,0.7,0,1.4,0 M75.8,63.5l1.4-0.3 M79,55.6c-0.7-2.3-1.5-4.3-2.6-5.8 M70.5,48.3l-3.2,0.3 M70.4,45.6l-3.1,0.5
			 M59.3,52.9c0,0.1-0.1,0.2-0.1,0.4v0.6l0.2,1.1 M57.9,56.6c0-0.1,0-0.2,0-0.3l0,0V56l-0.6-0.7 M52,60.8c0.1-0.1,0.2-0.2,0.2-0.3
			c0.3-0.3,0.5-0.5,0.5-0.7c0,0,0-0.1,0.1-0.1c0-0.2-0.6-0.6-1.7-1.2c0,0,0,0-0.1,0c-0.1-0.1-0.2-0.1-0.3-0.2 M52.7,59.9l0.4-0.3
			 M78.3,68.2c-0.4,0-0.9,0.1-1.3,0.2l-0.4,0.3 M65.7,69.7c0.1,0,0.2,0,0.3,0h1.5 M40.7,71c-2.5,0.6-5,0.8-7.3,0.5 M39.4,33.8
			c0.4,2.1,0.7,4.2,1,6.4 M24.9,44.6c4,0.6,7.2,0,9.6-1.8 M64.6,43.1c2.5,0.3,4.3,0,5.5-1"/>
	</g>
</g>
<path class="st1" d="M85.2,8.9c0.4,0.2,0.5,0.8,0.3,1.2c-0.1,0.1-0.2,0.2-0.3,0.3L82,12.2c-0.4,0.2-0.9,0.1-1.2-0.3
	c-0.2-0.4-0.1-0.9,0.3-1.2L83,9.6l-1.8-1c-0.4-0.2-0.6-0.8-0.3-1.2c0.2-0.4,0.8-0.5,1.2-0.3L85.2,8.9z"/>
<path class="st1" d="M51.5,15.3c0.5,0.5,0.8,1.3,0.8,2.1c0,0.8-0.3,1.5-0.9,2.1l0,0c-0.5,0.5-1.3,0.9-2.1,0.9s-1.6-0.3-2.1-0.9l0,0
	c-0.5-0.5-0.9-1.3-0.9-2.1c0-0.8,0.3-1.6,0.9-2.1l0,0c0.5-0.5,1.3-0.8,2.1-0.8S50.9,14.7,51.5,15.3L51.5,15.3z M50.6,17.3
	c0-0.3-0.1-0.7-0.4-0.9C50,16.2,49.7,16,49.3,16c-0.3,0-0.7,0.1-0.9,0.4c-0.2,0.2-0.4,0.5-0.4,0.9c0,0.3,0.1,0.6,0.4,0.9
	c0.2,0.2,0.5,0.4,0.9,0.4c0.3,0,0.6-0.1,0.9-0.4C50.5,18,50.6,17.7,50.6,17.3z"/>
<path class="st1" d="M82.1,80c0.5,0,0.9,0.4,0.9,0.9s-0.4,0.9-0.9,0.9h-4.5c-0.5,0-0.9-0.4-0.9-0.9s0.4-0.9,0.9-0.9H82.1z"/>
<path class="st1" d="M79.1,82.3c0.5,0,0.9,0.4,0.9,0.9s-0.4,0.9-0.9,0.9h-9.6c-0.5,0-0.9-0.4-0.9-0.9s0.4-0.9,0.9-0.9H79.1z"/>
<path class="st1" d="M27,9.5c0.1,0.5-0.1,0.9-0.6,1.1L24.9,11c-0.5,0.1-0.9-0.2-1.1-0.6c-0.1-0.5,0.1-0.9,0.6-1.1l1.5-0.4
	C26.4,8.8,26.8,9.1,27,9.5z"/>
<path class="st1" d="M24.8,13.3c0.1,0.5-0.1,0.9-0.6,1.1c-0.5,0.1-0.9-0.1-1.1-0.6l-0.4-1.5c-0.1-0.5,0.1-0.9,0.6-1.1
	c0.5-0.1,0.9,0.2,1.1,0.6L24.8,13.3z"/>
<path class="st1" d="M29.7,82.7c0.4,0.4,0.7,1,0.7,1.6s-0.3,1.2-0.7,1.6c-0.4,0.4-1,0.7-1.6,0.7s-1.2-0.3-1.6-0.7
	c-0.4-0.4-0.7-1-0.7-1.6s0.3-1.2,0.7-1.6c0.4-0.4,1-0.7,1.6-0.7S29.3,82.3,29.7,82.7z M28.7,84.3c0-0.1-0.1-0.3-0.2-0.4
	s-0.2-0.2-0.4-0.2c-0.1,0-0.3,0.1-0.4,0.2s-0.2,0.3-0.2,0.4c0,0.2,0.1,0.3,0.2,0.4s0.2,0.2,0.4,0.2c0.2,0,0.3-0.1,0.4-0.2
	C28.6,84.6,28.7,84.5,28.7,84.3z"/>
<path class="st1" d="M23.6,8.8c0.1,0.5-0.1,0.9-0.6,1.1c-0.5,0.1-0.9-0.1-1.1-0.6l-0.4-1.4c-0.1-0.5,0.1-0.9,0.6-1.1
	c0.5-0.1,0.9,0.1,1.1,0.6L23.6,8.8z"/>
<path class="st1" d="M22.7,10.7c0.1,0.5-0.1,0.9-0.6,1.1l-1.6,0.4c-0.5,0.1-0.9-0.1-1.1-0.6c-0.1-0.5,0.1-0.9,0.6-1.1l1.6-0.4
	C22.1,10,22.5,10.2,22.7,10.7z"/>
<polygon class="st1" points="51.7,95.9 52.1,97.4 50.5,97.9 50,96.3 "/>
<rect x="49" y="98.1" transform="matrix(0.9581 -0.2863 0.2863 0.9581 -26.2243 18.4035)" class="st1" width="1.7" height="1.6"/>
<polygon class="st1" points="49.5,94.8 50,96.3 48.4,96.9 47.9,95.3 "/>
<polygon class="st1" points="48.4,96.9 48.8,98.4 47.2,98.9 46.7,97.4 "/>
</svg>
