<?xml version="1.0" encoding="utf-8"?>
<!-- Generator: Adobe Illustrator 22.0.1, SVG Export Plug-In . SVG Version: 6.00 Build 0)  -->
<svg version="1.1" id="Слой_1" xmlns="http://www.w3.org/2000/svg" xmlns:xlink="http://www.w3.org/1999/xlink" x="0px" y="0px"
	 viewBox="0 0 100 125" style="enable-background:new 0 0 100 125;" xml:space="preserve">
<style type="text/css">
	.st0{fill:none;stroke:#7C3AFF;stroke-miterlimit:10;}
	.st1{fill:none;stroke:#7C3AFF;stroke-linecap:round;stroke-linejoin:round;}
	.st2{fill:#FFFFFF;}
</style>
<g transform="matrix( 1, 0, 0, 1, 0,0) ">
	<g>
		<g id="b">
			<path class="st0" d="M37.5,47.2c0.1-0.1,0.2-0.2,0.2-0.4s-0.1-0.3-0.2-0.5c-0.1-0.1-0.2-0.1-0.4-0.1s-0.3,0-0.5,0.1
				c-0.1,0.1-0.2,0.3-0.2,0.5s0.1,0.3,0.2,0.4c0.1,0.1,0.3,0.1,0.5,0.1S37.5,47.3,37.5,47.2 M21.5,49c0,0.1,0.1,0.3,0.1,0.3
				c0.1,0.1,0.2,0.2,0.4,0.2s0.3,0,0.4-0.2c0.1-0.1,0.1-0.2,0.1-0.3s-0.1-0.3-0.1-0.3c-0.1-0.1-0.2-0.2-0.4-0.2s-0.3,0-0.4,0.2
				C21.6,48.8,21.5,48.9,21.5,49 M64.4,27.5c-0.2,0-0.4,0.1-0.6,0.2c-0.1,0.1-0.2,0.3-0.2,0.5s0.1,0.4,0.2,0.5
				C64,29,64.2,29,64.4,29c0.2,0,0.4-0.1,0.6-0.3c0.1-0.1,0.2-0.3,0.2-0.5s-0.1-0.4-0.2-0.5C64.8,27.6,64.6,27.5,64.4,27.5
				 M75.1,45.2C75,45.1,74.9,45,74.8,45c-0.2,0-0.3,0.1-0.4,0.2c-0.1,0.1-0.2,0.2-0.2,0.4c0,0.1,0.1,0.3,0.2,0.4
				c0.1,0.1,0.2,0.1,0.4,0.1c0.1,0,0.3,0,0.3-0.1c0.1-0.1,0.2-0.2,0.2-0.4S75.2,45.3,75.1,45.2 M59.9,47c-0.1,0.1-0.2,0.2-0.2,0.4
				s0,0.2,0.2,0.3c0.1,0.1,0.2,0.2,0.3,0.2s0.2,0,0.3-0.2s0.2-0.2,0.2-0.3s-0.1-0.3-0.2-0.4s-0.2-0.1-0.3-0.1
				C60.1,46.9,60,47,59.9,47z"/>
		</g>
	</g>
	<g>
		<path id="a" class="st1" d="M88.1,52.9c-0.1,0,0.2-0.2,0.8-0.7c0.9,0.4,1.7,0.6,2.3,0.5c0.7,0,1.5-0.3,2.4-0.8L92.8,50
			c-0.5,0.4-1.3,0.6-2.4,0.5s-0.8-1,0.7-2.8c-0.6-1-0.9-1.6-1.2-1.7c-0.2-0.1-0.6,0.4-1.4,1.3c-0.7,1.1-1,2.3-0.9,3.4l-1,1
			c0.3,0.3,0.5,0.6,0.8,1c0.1,0.2,0.3,0.3,0.4,0.5l0.8,1.5c-0.2,0.1-0.3,0.3-0.5,0.3c-0.2,0.1-0.4,0.3-0.6,0.4
			c-0.5,0.3-1.1,0.6-1.8,0.9c-0.7,0.3-1.2,0.5-1.5,0.6c-0.3,0-0.5,0-0.6-0.2c0,0,0,0-0.1,0c-0.2,0.2-0.4,0.4-0.7,0.6
			c-0.9,0.9-1.5,1.4-1.9,1.6l0.1,0.8c0,1.2-0.6,1.9-1.6,2.2c0,0.1,0,0.1,0,0.2c0.3,1.1,0.6,2.1,0.8,3c0.4,1.6,0.5,2.8,0.4,3.5
			c-0.1,0.5-0.3,0.8-0.7,0.7l-2.3,0.3l0.3,2c0.2,1.4,0.5,2.4,0.8,2.9c0.8,0,1.5,0.2,2.2,0.6c0.5,0.3,0.9,0.6,1.1,0.9
			c0.3,0.5,0.6,1.2,0.7,2s-0.2,1.4-0.7,1.8c-0.6,0.4-2.6,0.6-6.1,0.7c-0.6,0-1-0.3-1.2-0.8l-0.2-0.8c0-1.2,0.5-2.2,1.4-3.1
			c0.4-0.3,0.7-0.5,1-0.7c0.1-0.6,0-1.6-0.3-3.1l-0.5-2l-2.6,0.4c-2.5,0.4-4.5,0.7-6.2,0.8v1.9c0,1.4,0.2,2.4,0.4,3
			c1.7,0.9,2.5,2.3,2.5,4.1c-0.3,0.5-0.9,0.9-2,1.2c-1,0.2-2.1,0.3-3.2,0.3s-1.8-0.3-2.1-1s-0.2-1.4,0.2-2.2
			c0.7-1.4,1.6-2.2,2.8-2.4c0.2-0.6,0.2-1.6,0.1-2.9l-0.2-2c-1.4,0.1-2.4,0-3-0.1l-0.5-0.3c-0.2-0.4-0.2-1.8-0.2-4.3v-2.9
			c-1.3-0.1-2.2-0.7-2.6-1.8v-0.4c-0.3,0.1-0.7,0.5-1.2,1.1c-0.1,0.1-0.2,0.3-0.3,0.4c0,0.2,0,0.4-0.2,0.5c-0.1,0.2-0.3,0.6-0.8,1
			c-0.4,0.4-0.7,0.7-0.9,0.9l-2.2,1.5c-0.3-0.2-0.5-0.5-0.7-0.8v0.1c-0.4,0.4-0.8,0.8-1.2,1.2v0.1c-0.2,0.2-0.4,0.4-0.6,0.7
			c-0.8-0.4-1.5-0.6-2.1-0.6c-1.3,0-1.6,0.9-0.9,2.7L49,71l-1,1.1c-0.9-0.9-1.5-1.7-1.7-2.4c-0.2-0.7-0.3-1.6,0-2.8
			c-0.7-0.6-1.1-0.8-1-0.8 M86.7,51.7c-0.3-0.3-0.6-0.6-0.9-0.7L84,52.9c-0.2,0.2-0.4,0.5-0.8,1c-0.3,0.5-0.5,0.9-0.6,1.1
			c-0.1,0.2-0.1,0.5,0.1,0.8l0,0l0.1,0.2c0.1,0.2,0.4,0.4,0.8,0.7 M17.1,43.9c-1.1,0.1-1.7,1-1.6,2.7l0.3,1.3c0.2,1.8,1.3,2.5,3,2.3
			c0-0.1,0-0.1,0-0.2c-0.9-4-1.5-8-1.8-12c-0.2-0.8,0.1-1.2,0.7-1.4c6.6-2,13.2-3.2,19.7-3.6c0.6-0.1,1,0.2,1.2,1
			c0.6,2.2,1.1,4.3,1.5,6.3c1.3-0.1,2.1,0.7,2.4,2.5h1.2c0.2,0.7,0.2,1.1,0,1.2h-0.9l0.1,0.6c0,1.3-0.6,2-1.7,2
			c0.1,1.1,0.2,2.3,0.3,3.5c0.1,0.8-0.2,1.2-0.8,1.3c-2.9,0.9-5.8,1.7-8.7,2.3l-0.1,0.8c0,0.6,0.2,1,0.6,1.4c1.3-0.2,2.7-0.4,4-0.5
			c0.4,0,0.6,0.2,0.7,0.6c0.3,0.8,0.5,1.6,0.7,2.4c0.1,0.3,0.2,0.7,0.3,1.1l0.2,1c0.9,0.6,1.6,0.8,2,0.5c0.1-0.1,0.2-0.1,0.3-0.2
			c0.3-0.2,0.5-0.3,0.9-0.3c0.3,0,0.8,0.1,1.5,0.3c0.6,0.2,1.1,0.4,1.3,0.5l2.7,1.5c-0.1,0.4-0.3,0.8-0.5,1.2l1.4,0.8
			c1.1-0.4,2.4-0.4,3.8,0c0.1,0,0.1,0,0.2,0c0,0,0.1,0,0.1,0.1c0.7-0.3,1-0.5,0.9-0.5 M42.4,42.7l0.3,1.2 M60.7,47.4
			c0,0.1-0.1,0.2-0.2,0.3s-0.2,0.2-0.3,0.2s-0.3,0-0.3-0.2c-0.1-0.1-0.2-0.2-0.2-0.3s0-0.3,0.2-0.4c0.1-0.1,0.2-0.1,0.3-0.1
			s0.2,0,0.3,0.1S60.7,47.3,60.7,47.4z M53.8,66c-0.2-0.4-0.5-0.7-0.7-1.1c0-0.2-0.1-0.4-0.3-0.6l-0.5-1.6c0.2-0.1,0.4-0.2,0.6-0.3
			c0.2-0.1,0.4-0.2,0.6-0.3c0.6-0.1,1.3-0.3,2-0.6c0.7-0.2,1.2-0.3,1.6-0.3c0.1,0,0.3,0,0.4,0.1l0.3,0.3c1.4-1.5,2.1-2.3,2.1-2.4
			c0.2-0.9,0.8-1.5,1.6-1.7c0.5-0.1,0.9-0.1,1.4,0c0.4-1.2,1.4-2.1,2.9-2.5c0.8-0.2,1.4-0.3,2.1-0.3c0.1-0.5,0.2-1.1,0.1-1.6
			l-0.1-0.7c-3.1,0.5-6.3,0.9-9.6,1.1c-0.7,0.1-1.1-0.2-1.2-1.1c-1.5-4.7-2.3-9.6-2.4-14.6c-0.1-0.8,0.1-1.3,0.8-1.3
			c1.9-0.5,3.8-0.9,5.6-1.3c-0.1-1.7,0.5-3,1.9-3.8c0.6-0.4,1.2-0.6,1.9-0.7c-0.1,0-0.2-0.6-0.4-1.8c-0.2,0-0.4-0.1-0.6-0.3
			c-0.1-0.1-0.2-0.3-0.2-0.5s0.1-0.4,0.2-0.5c0.2-0.1,0.4-0.2,0.6-0.2s0.4,0.1,0.6,0.2c0.1,0.1,0.2,0.3,0.2,0.5s-0.1,0.4-0.2,0.5
			C64.8,29,64.6,29,64.4,29 M64.8,30.9l0.1-0.1c0.7-0.1,1.3-0.1,1.7,0c1.6,0.1,2.7,0.6,3.4,1.6c0.4,0.5,0.6,1,0.6,1.5l4.3-0.4
			c0.7-0.1,1.1,0.2,1.3,1c1.3,4.6,2.1,9.5,2.5,14.6c0.1,0.8-0.2,1.3-0.8,1.4c-2.6,0.7-4.9,1.2-6.8,1.6l-0.2,0.8
			c-0.1,0.6,0,1.2,0.3,1.8l3.1-0.3c0.9-0.1,1.8,0.6,2.8,1.9l1.3-0.2c1,0.1,1.8,0.6,2.4,1.5c0.1-0.1,0.2-0.2,0.3-0.3
			c0.8-0.6,1.3-1.1,1.8-1.5 M61.1,35.3c3.2-0.7,6.4-1.2,9.5-1.5 M75.3,45.6c0,0.1,0,0.3-0.2,0.4c-0.1,0.1-0.2,0.1-0.3,0.1
			c-0.2,0-0.3,0-0.4-0.1s-0.2-0.2-0.2-0.4s0.1-0.3,0.2-0.4c0.1-0.1,0.2-0.2,0.4-0.2c0.1,0,0.3,0.1,0.3,0.2
			C75.2,45.3,75.3,45.4,75.3,45.6z M15.5,46.6h-0.9c-0.2,0.1-0.2,0.5,0,1.3h1.2 M22.5,49c0,0.1-0.1,0.3-0.1,0.3
			c-0.1,0.1-0.2,0.2-0.4,0.2s-0.3,0-0.4-0.2c-0.1-0.1-0.1-0.2-0.1-0.3s0.1-0.3,0.1-0.3c0.1-0.1,0.2-0.2,0.4-0.2s0.3,0,0.4,0.2
			C22.4,48.8,22.5,48.9,22.5,49z M37.7,46.8c0,0.2-0.1,0.3-0.2,0.4s-0.2,0.1-0.4,0.1s-0.3,0-0.5-0.1c-0.1-0.1-0.2-0.2-0.2-0.4
			s0.1-0.3,0.2-0.5c0.1-0.1,0.3-0.1,0.5-0.1s0.3,0,0.4,0.1C37.6,46.5,37.7,46.6,37.7,46.8z M40.3,60.8L40.1,61
			c-0.2,0.2-0.4,0.6-0.5,1.3l0,0c-0.1,0.1,0,0.3,0.1,0.7c0.1,0.3,0.5,0.8,1,1.5c0.6,0.7,1.1,1.3,1.6,1.8c0.2,0.2,0.3,0.4,0.5,0.5
			c0.2,0.2,0.4,0.4,0.6,0.5l1.4-1.4c0.2-0.2,0.3-0.4,0.5-0.6c0.3-0.4,0.6-0.8,0.9-1.3 M16.3,58.7l-0.4-0.1c-0.2-0.1-0.5-0.2-0.9-0.3
			c0.1-0.4,0-1.1-0.3-2s-1.4-1.7-3.3-2.3l-1.2,2.3c1.4,0.6,2.1,1.1,2.1,1.5c0.4,1.5-0.6,2-3,1.5C8.8,61.1,8.6,62,8.6,62l2.2,0.3
			c1.7,0.2,2.9-0.4,3.7-1.7l1.6,0.3c0.1-0.5,0.2-0.9,0.4-1.4c0.1-0.2,0.1-0.5,0.3-0.8l0.8-1.8c0.2,0,0.4,0.1,0.5,0.2
			c0,0,0.1,0.1,0.2,0.1c0.2,0.1,0.4,0.2,0.8,0.3l0.1,0.1c0.2,0.1,0.4,0.2,0.7,0.4c0.3,0.1,0.6,0.3,0.9,0.5c0.7,0.4,1.2,0.8,1.5,1.1
			c0.4,0.3,0.5,0.7,0.5,1.3c0.2,0.1,0.4,0.2,0.5,0.4c0.3,0.1,0.6,0.2,0.9,0.2c0.1,0,0.2,0,0.3,0c-0.2-1.1-0.4-2.2-0.5-3.3
			c-0.1-0.4,0-0.7,0.4-0.8c1.6-0.5,3.2-0.9,4.8-1.2c0.3-0.6,0.2-1.3-0.2-2.1c-2.7,0.4-5.4,0.7-8.1,0.9c-0.6,0.1-1-0.2-1.1-1
			c-0.4-1.3-0.7-2.6-1-3.9 M22.8,60.8V61c0.2,0.1,0.3,0.2,0.5,0.3 M39.7,63c-0.6-0.5-1-0.8-1.3-0.9c0.2,1.1,0.3,2.2,0.3,3.3
			c0.1,0.5,0,0.7-0.5,0.8l-1.1,0.3l0.1,1.2c0.2,0.8,0.3,1.4,0.5,1.7c0.5-0.1,0.8-0.1,0.9-0.1c0.2,0,0.7,0.9,1.4,2.5
			c0.8,2.1,1.3,4,1.3,5.8c0,0.6-0.1,1.3-0.3,1.9c-0.7,0.3-1.6,0.5-2.8,0.8c-1.1,0.3-2.5,0.1-4.1-0.5c-0.1-0.5-0.2-1.1-0.2-1.8
			c-0.1-0.6-0.1-1.3,0-2c0-2.8,0.6-4.9,1.6-6.3c0.3-0.1,0.6-0.1,0.8-0.2c0.1-0.3,0.1-0.7,0-1c-0.1-0.4-0.2-0.9-0.4-1.6
			c-2.1,0.5-4.4,1-7.1,1.3c-0.3,0.9-0.3,1.5,0,2c0.6,0,1,0,1,0c0.1,0.2,0.4,0.9,1.1,2.1c0.8,2.1,1.3,4,1.3,5.8
			c0,0.6-0.1,1.3-0.3,1.9c-0.7,0.3-1.6,0.5-2.6,0.7C27.4,81,26,80.9,25,80.4c-0.1-0.5-0.2-1.1-0.2-1.8c-0.1-0.6-0.1-1.3-0.1-2.1
			c0-2.8,0.6-4.9,1.7-6.3h1c0.2-0.3,0.2-1,0.1-2c-0.3,0-0.6,0.1-1,0.1c-0.4,0.1-0.6-0.1-0.7-0.6c-0.4-1.5-0.8-3.1-1.1-4.6
			c-0.1,0-0.1,0-0.2,0c-0.2-0.2-0.6-0.3-1.1-0.5c-0.2,0-0.5,0-0.6,0c-0.2,0-0.4-0.1-0.6-0.1c-0.2,0.2-0.5,0.3-1,0.3s-0.9,0-1.3,0
			c-0.1,0-0.2,0-0.3,0c-0.3-0.1-0.6-0.1-0.8-0.1c-0.1,0-0.2,0-0.2,0l-2.4-0.4c-0.1-0.4-0.1-0.9,0-1.4 M24.8,63.1
			c-0.1-0.3-0.1-0.6-0.2-0.9c0-0.2-0.1-0.5-0.1-0.7 M22.1,62.5L22.1,62.5l0.7-1.5 M28.5,70.1c0.1,0,0.2,0,0.3,0
			c-0.3,0-0.7,0-1.3,0.1C27.9,70.1,28.2,70.1,28.5,70.1L28.5,70.1l-1,0.1 M28.8,70.1h0.1 M27.5,68.2c0.3,0,0.6,0,0.7,0l0.6-0.1
			 M37.2,66.4L36,66.8 M36.4,69.4c0.6-0.1,1.1-0.2,1.4-0.2 M38,60.5c0.1,0.6,0.3,1.1,0.4,1.6 M29.2,56.3c1-0.2,2-0.4,3-0.5
			 M31.8,53.6c-0.9,0.2-1.9,0.4-2.8,0.6 M32.2,78c-2.2,0.7-4.7,0.9-7.4,0.5 M80.6,57.6l0.3,0.5l0.2,0.9 M63,57.7
			c-0.2,0.4-0.3,0.9-0.3,1.5l-0.1,4.5 M62.5,66.6l2.6,1c2.1,0.4,4,0,5.7-1.3c1.1-0.9,2.2-1.4,3.3-1.7c2.4-0.5,4.5-0.3,6.3,0.6
			 M66.3,71.2c0.2,0,0.7,0,1.4,0 M76.4,69.9l1.4-0.3 M79.6,62c-0.7-2.3-1.5-4.3-2.6-5.8 M71.1,54.7L67.9,55 M71,52l-3.1,0.5
			 M59.9,59.3c0,0.1-0.1,0.2-0.1,0.4v0.6l0.2,1.1 M58.5,63c0-0.1,0-0.2,0-0.3l0,0v-0.3l-0.6-0.7 M52.6,67.2c0.1-0.1,0.2-0.2,0.2-0.3
			c0.3-0.3,0.5-0.5,0.5-0.7c0,0,0-0.1,0.1-0.1c0-0.2-0.6-0.6-1.7-1.2c0,0,0,0-0.1,0c-0.1-0.1-0.2-0.1-0.3-0.2 M53.3,66.3l0.4-0.3
			 M78.9,74.6c-0.4,0-0.9,0.1-1.3,0.2l-0.4,0.3 M66.3,76.1c0.1,0,0.2,0,0.3,0h1.5 M41.3,77.4c-2.5,0.6-5,0.8-7.3,0.5 M40,40.2
			c0.4,2.1,0.7,4.2,1,6.4 M25.5,51c4,0.6,7.2,0,9.6-1.8 M65.2,49.5c2.5,0.3,4.3,0,5.5-1"/>
	</g>
</g>
<path class="st2" d="M85.8,15.3c0.4,0.2,0.5,0.8,0.3,1.2c-0.1,0.1-0.2,0.2-0.3,0.3l-3.2,1.8c-0.4,0.2-0.9,0.1-1.2-0.3
	c-0.2-0.4-0.1-0.9,0.3-1.2l1.9-1.1l-1.8-1c-0.4-0.2-0.6-0.8-0.3-1.2c0.2-0.4,0.8-0.5,1.2-0.3L85.8,15.3z"/>
<path class="st2" d="M52.1,21.7c0.5,0.5,0.8,1.3,0.8,2.1c0,0.8-0.3,1.5-0.9,2.1l0,0c-0.5,0.5-1.3,0.9-2.1,0.9s-1.6-0.3-2.1-0.9l0,0
	c-0.5-0.5-0.9-1.3-0.9-2.1c0-0.8,0.3-1.6,0.9-2.1l0,0c0.5-0.5,1.3-0.8,2.1-0.8S51.5,21.1,52.1,21.7L52.1,21.7z M51.2,23.7
	c0-0.3-0.1-0.7-0.4-0.9c-0.2-0.2-0.5-0.4-0.9-0.4c-0.3,0-0.7,0.1-0.9,0.4c-0.2,0.2-0.4,0.5-0.4,0.9c0,0.3,0.1,0.6,0.4,0.9
	c0.2,0.2,0.5,0.4,0.9,0.4c0.3,0,0.6-0.1,0.9-0.4C51.1,24.4,51.2,24.1,51.2,23.7z"/>
<path class="st2" d="M82.7,86.4c0.5,0,0.9,0.4,0.9,0.9s-0.4,0.9-0.9,0.9h-4.5c-0.5,0-0.9-0.4-0.9-0.9s0.4-0.9,0.9-0.9H82.7z"/>
<path class="st2" d="M79.7,88.7c0.5,0,0.9,0.4,0.9,0.9s-0.4,0.9-0.9,0.9h-9.6c-0.5,0-0.9-0.4-0.9-0.9s0.4-0.9,0.9-0.9H79.7z"/>
<path class="st2" d="M27.6,15.9c0.1,0.5-0.1,0.9-0.6,1.1l-1.5,0.4c-0.5,0.1-0.9-0.2-1.1-0.6c-0.1-0.5,0.1-0.9,0.6-1.1l1.5-0.4
	C27,15.2,27.4,15.5,27.6,15.9z"/>
<path class="st2" d="M25.4,19.7c0.1,0.5-0.1,0.9-0.6,1.1c-0.5,0.1-0.9-0.1-1.1-0.6l-0.4-1.5c-0.1-0.5,0.1-0.9,0.6-1.1
	c0.5-0.1,0.9,0.2,1.1,0.6L25.4,19.7z"/>
<path class="st2" d="M30.3,89.1c0.4,0.4,0.7,1,0.7,1.6s-0.3,1.2-0.7,1.6c-0.4,0.4-1,0.7-1.6,0.7s-1.2-0.3-1.6-0.7
	c-0.4-0.4-0.7-1-0.7-1.6s0.3-1.2,0.7-1.6c0.4-0.4,1-0.7,1.6-0.7S29.9,88.7,30.3,89.1z M29.3,90.7c0-0.1-0.1-0.3-0.2-0.4
	s-0.2-0.2-0.4-0.2c-0.1,0-0.3,0.1-0.4,0.2s-0.2,0.3-0.2,0.4c0,0.2,0.1,0.3,0.2,0.4s0.2,0.2,0.4,0.2c0.2,0,0.3-0.1,0.4-0.2
	C29.2,91,29.3,90.9,29.3,90.7z"/>
<path class="st2" d="M24.2,15.2c0.1,0.5-0.1,0.9-0.6,1.1c-0.5,0.1-0.9-0.1-1.1-0.6l-0.4-1.4c-0.1-0.5,0.1-0.9,0.6-1.1
	c0.5-0.1,0.9,0.1,1.1,0.6L24.2,15.2z"/>
<path class="st2" d="M23.3,17.1c0.1,0.5-0.1,0.9-0.6,1.1l-1.6,0.4c-0.5,0.1-0.9-0.1-1.1-0.6c-0.1-0.5,0.1-0.9,0.6-1.1l1.6-0.4
	C22.7,16.4,23.1,16.6,23.3,17.1z"/>
<polygon class="st2" points="52.3,102.3 52.7,103.8 51.1,104.3 50.6,102.7 "/>
<rect x="49.6" y="104.5" transform="matrix(0.9581 -0.2863 0.2863 0.9581 -28.0382 18.8507)" class="st2" width="1.7" height="1.6"/>
<polygon class="st2" points="50.1,101.2 50.6,102.7 49,103.3 48.5,101.7 "/>
<polygon class="st2" points="49,103.3 49.4,104.8 47.8,105.3 47.3,103.8 "/>
</svg>
