<?xml version="1.0" encoding="utf-8"?>
<!-- Generator: Adobe Illustrator 22.0.1, SVG Export Plug-In . SVG Version: 6.00 Build 0)  -->
<svg version="1.1"
	 id="Слой_1" xmlns:cc="http://creativecommons.org/ns#" xmlns:dc="http://purl.org/dc/elements/1.1/" xmlns:inkscape="http://www.inkscape.org/namespaces/inkscape" xmlns:rdf="http://www.w3.org/1999/02/22-rdf-syntax-ns#" xmlns:sodipodi="http://sodipodi.sourceforge.net/DTD/sodipodi-0.dtd" xmlns:svg="http://www.w3.org/2000/svg"
	 xmlns="http://www.w3.org/2000/svg" xmlns:xlink="http://www.w3.org/1999/xlink" x="0px" y="0px" viewBox="0 0 100 125"
	 style="enable-background:new 0 0 100 125;" xml:space="preserve">
<style type="text/css">
	.st0{fill:#FFFFFF;}
</style>
<g transform="translate(0,-952.36218)">
	<path class="st0" d="M18.3,974.3c-4.6,0-8.3,3.7-8.3,8.3v39.5c0,4.6,3.7,8.3,8.3,8.3h63.3c4.6,0,8.3-3.7,8.3-8.3v-39.5
		c0-4.5-3.8-8.3-8.3-8.3H18.3z M83.5,979.2c1.7-0.2,3.1,1.9,1.3,3.6l-25.9,20.9l18.8,17.2c1.5,1.5-0.4,4.6-2.7,2.9l-19.2-17.6
		l-5.6,4.5c-0.7,0.6-1.8,0.6-2.5,0l-6-5l-18.9,17.4c-1.6,1.4-4.5-0.8-2.7-2.9l18.5-17l-24.3-20.3c-1.7-1.4,0.2-4.8,2.6-3.1
		l32.2,26.8l33.3-26.8C82.7,979.4,83.1,979.2,83.5,979.2z"/>
</g>
</svg>
