<?xml version="1.0" encoding="utf-8"?>
<!-- Generator: Adobe Illustrator 22.0.1, SVG Export Plug-In . SVG Version: 6.00 Build 0)  -->
<svg version="1.1" id="Слой_1" xmlns="http://www.w3.org/2000/svg" xmlns:xlink="http://www.w3.org/1999/xlink" x="0px" y="0px"
	 viewBox="0 0 100 125" style="enable-background:new 0 0 100 125;" xml:space="preserve">
<style type="text/css">
	.st0{fill:#FFFFFF;}
</style>
<path class="st0" d="M50,5C31.9,5,17.3,19.6,17.3,37.7c0,12.1,4.7,17.3,31.8,56.7c0.5,0.7,1.3,0.7,1.9,0
	C78,55.1,82.7,49.9,82.7,37.7C82.7,19.6,68.1,5,50,5z M50,53.2c-8.6,0-15.5-6.9-15.5-15.5c0-8.6,6.9-15.5,15.5-15.5
	c8.6,0,15.5,6.9,15.5,15.5C65.5,46.3,58.6,53.2,50,53.2z"/>
</svg>
