<?xml version="1.0" encoding="utf-8"?>
<!-- Generator: Adobe Illustrator 22.0.1, SVG Export Plug-In . SVG Version: 6.00 Build 0)  -->
<svg version="1.1" id="Слой_1" xmlns="http://www.w3.org/2000/svg" xmlns:xlink="http://www.w3.org/1999/xlink" x="0px" y="0px"
	 viewBox="0 0 333 416.3" style="enable-background:new 0 0 333 416.3;" xml:space="preserve">
<style type="text/css">
	.st0{fill:#FFFFFF;}
</style>
<g>
	<path class="st0" d="M213,299c41,8,83-31,83-31s7-10,2-18s-47-39-47-39s-11-7-20,0c-8,7-30,27-30,27s-9,3-28-11c-11-7-60-56-67-66
		c-14-20-11-29-11-29s21-22,27-30c7-8,1-19,1-19S91,41,83,35c-7-5-18,2-18,2s-38,43-31,83C47,186,147,286,213,299z"/>
</g>
</svg>
