<svg xmlns="http://www.w3.org/2000/svg" width="110" height="110" viewBox="0 0 110 110"><defs><style>.cls-1{fill:#fff;}.cls-2{fill:#af9c94;}</style></defs><title>Рукав - Короткий</title><g id="Рукав"><g id="Короткий"><g id="Цвет-6" data-name="Цвет"><path class="cls-1" d="M26.75,51.042l1.75-3.958.167,56.417c6,0,13.5,6.083,23.667,6.083h5.333c10.167,0,17.667-6.083,23.667-6.083l.1-56.438,1.813,4.063L95.376,34.656A177.854,177.854,0,0,0,87,18L68.062,10.094,67.917,9.5,65,3A22.358,22.358,0,0,0,55,1,22.358,22.358,0,0,0,45,3L42.083,9.5l-.146.593L23,18a178.489,178.489,0,0,0-8.276,16.425Z"/><path class="cls-2" d="M87,18a148.662,148.662,0,0,1,8.359,16.56L83.287,51.189l-1.662-3.814C81.121,36.461,82.73,26.58,87,18Z"/><path class="cls-1" d="M87.3,23.624c1.83,3.39,3.568,6.945,5.2,10.626L84.07,45.857A59.424,59.424,0,0,1,87.3,23.624M87,18c-4.27,8.579-5.879,18.46-5.375,29.375l1.662,3.814L95.359,34.561A148.661,148.661,0,0,0,87,18Z"/><path class="cls-2" d="M23,18a148.661,148.661,0,0,0-8.359,16.56L26.713,51.189l1.662-3.814C29.047,36.639,27.5,26.754,23,18Z"/><path class="cls-1" d="M22.745,23.54a54.555,54.555,0,0,1,3.207,22.346L17.5,34.25c1.64-3.711,3.394-7.295,5.24-10.71M23,18a148.661,148.661,0,0,0-8.359,16.56L26.713,51.189l1.662-3.814C29.047,36.639,27.5,26.754,23,18Z"/></g><g id="Контур-6" data-name="Контур"><path d="M56,13a1,1,0,1,1-1-1A1,1,0,0,1,56,13Zm-1,7a1,1,0,1,0-1-1A1,1,0,0,0,55,20Zm0,13a1,1,0,1,0-1-1A1,1,0,0,0,55,33Zm0,13a1,1,0,1,0-1-1A1,1,0,0,0,55,46Zm0,13a1,1,0,1,0-1-1A1,1,0,0,0,55,59Zm0,13a1,1,0,1,0-1-1A1,1,0,0,0,55,72Zm0,13a1,1,0,1,0-1-1A1,1,0,0,0,55,85ZM95.764,34.854,83.692,51.483a.5.5,0,0,1-.4.206l-.054,0a.5.5,0,0,1-.4-.3L82,49.488V103.5a.5.5,0,0,1-.5.5c-3.478,0-6.112,1.153-9.162,2.49C68.581,108.136,64.323,110,57.5,110h-5c-6.823,0-11.081-1.865-14.838-3.51-3.05-1.337-5.685-2.49-9.162-2.49a.5.5,0,0,1-.5-.5V49.487l-.829,1.9a.5.5,0,0,1-.4.3l-.054,0a.5.5,0,0,1-.4-.206L14.236,34.854a.5.5,0,0,1-.054-.492,149.651,149.651,0,0,1,8.387-16.615.476.476,0,0,1,.04-.045.483.483,0,0,1,.062-.069,111.266,111.266,0,0,1,.134-.093l18.719-7.9a5.17,5.17,0,0,1,.355-1.116l2.646-5.733a.476.476,0,0,1,.029-.041.481.481,0,0,1,.041-.059.476.476,0,0,1,.088-.084c.011-.009.018-.021.03-.029s.029-.015.042-.023l.007,0C46.87,1.249,50.586.5,54.979.5c4.363,0,8.054.739,10.169,2.025a.487.487,0,0,1,.325.265L68.12,8.524a5.17,5.17,0,0,1,.355,1.116l18.719,7.9a1221.8,1221.8,0,0,1,.134.093.481.481,0,0,1,.062.07.472.472,0,0,1,.04.045,149.828,149.828,0,0,1,8.387,16.615A.5.5,0,0,1,95.764,34.854ZM67.542,14.338,84.689,21.9c.52-1.3,1.067-2.506,1.626-3.646L68.6,10.779A7.309,7.309,0,0,1,67.542,14.338Zm-9.389-3.473,3.59,10.267c1.7-2.409,3.374-4.824,4.607-6.746,0-.008,0-.017.005-.025a.5.5,0,0,1,.116-.163,5.506,5.506,0,0,0,.741-5.253L65.28,4.758C64.525,7.187,62.032,9.343,58.153,10.865Zm3.395-2.927a19.671,19.671,0,0,0-13.109-.01,17.139,17.139,0,0,0,3.991,2.086A.466.466,0,0,1,52.5,10h5a.466.466,0,0,1,.07.014A17.162,17.162,0,0,0,61.548,7.938ZM45.486,3.294a5.565,5.565,0,0,0,2.048,3.9,20.78,20.78,0,0,1,14.92.01,5.584,5.584,0,0,0,2.059-3.884C62.533,2.164,59.089,1.5,54.979,1.5,50.9,1.5,47.472,2.156,45.486,3.294ZM43.529,14.2a.494.494,0,0,1,.116.163c0,.008,0,.017.005.025,1.233,1.922,2.909,4.338,4.607,6.746l3.59-10.267c-3.879-1.522-6.372-3.679-7.127-6.107L42.788,8.944A5.506,5.506,0,0,0,43.529,14.2ZM23.684,18.255c.559,1.141,1.107,2.347,1.626,3.646l17.148-7.563A7.309,7.309,0,0,1,41.4,10.779ZM28,44.5c0-10.1-1.462-16.616-3.381-21.625-.024-.031-.06-.051-.077-.089a.5.5,0,0,1-.04-.207c-.489-1.251-1.006-2.41-1.535-3.507A149.1,149.1,0,0,0,15.213,34.5L26.6,50.188l1.313-3.014A.486.486,0,0,1,28,47.057Zm24-28.51h-.886l-2.233,6.388a.5.5,0,0,1-.4.33.552.552,0,0,1-.069,0A.5.5,0,0,1,48,22.5c-1.809-2.559-3.652-5.195-5.017-7.3l-17.31,7.634C27.571,27.892,29,34.457,29,44.5v58.508c3.448.106,6.179,1.3,9.063,2.566A32.779,32.779,0,0,0,52,109Zm5,0H53V109h4Zm.553-.98h.99L57.141,11H52.859l-1.4,4.01h.994a.125.125,0,0,1,.1,0h4.9a.138.138,0,0,1,.107,0Zm26.773,7.822L67.016,15.2c-1.365,2.109-3.208,4.744-5.017,7.3a.5.5,0,0,1-.408.212.552.552,0,0,1-.069,0,.5.5,0,0,1-.4-.33l-2.233-6.388H58V109a32.779,32.779,0,0,0,13.937-3.422c2.884-1.264,5.615-2.46,9.063-2.566V44.5C81,34.457,82.429,27.892,84.326,22.833ZM94.787,34.5a149.269,149.269,0,0,0-7.754-15.424c-.529,1.1-1.046,2.256-1.535,3.507a.5.5,0,0,1-.04.207c-.017.038-.052.058-.077.089C83.462,27.885,82,34.4,82,44.5v2.556a.487.487,0,0,1,.083.119L83.4,50.188Z"/></g></g></g></svg>