<svg xmlns="http://www.w3.org/2000/svg" width="110" height="110" viewBox="0 0 110 110"><defs><style>.cls-1{fill:#fff;}</style></defs><title>Карман - Прямой</title><g id="Карман"><g id="Прямой-2" data-name="Прямой"><g id="Цвет-20" data-name="Цвет"><path class="cls-1" d="M78.5,109.5h-47l-20-20V6.5l6-6h75l6,6v83Z"/></g><g id="Контур-20" data-name="Контур"><path d="M98.854,6.146l-6-6A.5.5,0,0,0,92.5,0h-75a.5.5,0,0,0-.354.146l-6,6A.5.5,0,0,0,11,6.5v83a.5.5,0,0,0,.146.354l20,20A.5.5,0,0,0,31.5,110h47a.5.5,0,0,0,.354-.146l20-20A.5.5,0,0,0,99,89.5V6.5A.5.5,0,0,0,98.854,6.146ZM98,89.293,78.293,109H31.707L12,89.293V6.707L17.707,1H92.293L98,6.707ZM95.5,16a.5.5,0,0,1,0,1H93v1.5a.5.5,0,0,1-1,0V17H18v1.5a.5.5,0,0,1-1,0V17H14.5a.5.5,0,0,1,0-1ZM93,79.282V83.4a.5.5,0,0,1-1,0v-4.12a.5.5,0,0,1,1,0Zm0-7.212v4.121a.5.5,0,0,1-1,0V72.07a.5.5,0,0,1,1,0ZM83.371,96.629a.5.5,0,0,1,0,.707l-2.912,2.913a.5.5,0,0,1-.707-.707l2.912-2.913A.5.5,0,0,1,83.371,96.629ZM93,64.859V68.98a.5.5,0,0,1-1,0V64.859a.5.5,0,0,1,1,0Zm0,21.634V87.5a.5.5,0,0,1-.146.354l-2.2,2.2a.5.5,0,0,1-.707-.707L92,87.293v-.8a.5.5,0,0,1,1,0Zm-4.532,5.039a.5.5,0,0,1,0,.707l-2.913,2.913a.5.5,0,0,1-.707-.707l2.913-2.913A.5.5,0,0,1,88.468,91.532ZM93,43.225v4.121a.5.5,0,1,1-1,0V43.225a.5.5,0,0,1,1,0Zm0-21.634v4.121a.5.5,0,0,1-1,0V21.591a.5.5,0,1,1,1,0Zm0,36.057v4.121a.5.5,0,0,1-1,0V57.647a.5.5,0,0,1,1,0ZM93,28.8v4.121a.5.5,0,0,1-1,0V28.8a.5.5,0,1,1,1,0Zm0,7.212v4.121a.5.5,0,1,1-1,0V36.014a.5.5,0,0,1,1,0Zm0,14.423v4.121a.5.5,0,0,1-1,0V50.437a.5.5,0,0,1,1,0Zm-14.732,51.3a.5.5,0,0,1,0,.707l-1.415,1.414A.5.5,0,0,1,76.5,104h-2a.5.5,0,0,1,0-1h1.793l1.268-1.268A.5.5,0,0,1,78.268,101.732ZM57.552,103.5a.5.5,0,0,1-.5.5h-4.1a.5.5,0,0,1,0-1h4.1A.5.5,0,0,1,57.552,103.5Zm-7.184,0a.5.5,0,0,1-.5.5h-4.1a.5.5,0,1,1,0-1h4.1A.5.5,0,0,1,50.368,103.5Zm-7.184,0a.5.5,0,0,1-.5.5H38.579a.5.5,0,0,1,0-1h4.105A.5.5,0,0,1,43.184,103.5Zm21.553,0a.5.5,0,0,1-.5.5H60.131a.5.5,0,0,1,0-1h4.105A.5.5,0,0,1,64.737,103.5Zm7.184,0a.5.5,0,0,1-.5.5H67.315a.5.5,0,0,1,0-1h4.105A.5.5,0,0,1,71.921,103.5ZM36,103.5a.5.5,0,0,1-.5.5h-2a.5.5,0,0,1-.354-.146l-1.415-1.414a.5.5,0,1,1,.707-.707L33.707,103H35.5A.5.5,0,0,1,36,103.5ZM17,36.021a.5.5,0,0,1,1,0v4.121a.5.5,0,0,1-1,0Zm0,7.212a.5.5,0,0,1,1,0v4.12a.5.5,0,0,1-1,0Zm0,7.211a.5.5,0,0,1,1,0v4.121a.5.5,0,1,1-1,0Zm0-24.725V21.6a.5.5,0,0,1,1,0v4.121a.5.5,0,0,1-1,0Zm0,3.091a.5.5,0,1,1,1,0v4.12a.5.5,0,0,1-1,0Zm3.06,60.543a.5.5,0,1,1-.707.707l-2.206-2.206A.5.5,0,0,1,17,87.5v-1a.5.5,0,0,1,1,0v.793ZM17,79.289a.5.5,0,0,1,1,0V83.41a.5.5,0,0,1-1,0Zm0-21.635a.5.5,0,0,1,1,0v4.121a.5.5,0,1,1-1,0ZM30.253,99.547a.5.5,0,1,1-.707.707l-2.912-2.913a.5.5,0,0,1,.707-.707Zm-5.1-5.1a.5.5,0,1,1-.707.707l-2.912-2.912a.5.5,0,0,1,.707-.707ZM17,64.866a.5.5,0,0,1,1,0v4.121a.5.5,0,0,1-1,0Zm0,7.211a.5.5,0,0,1,1,0V76.2a.5.5,0,0,1-1,0Z"/></g></g></g></svg>