<?xml version="1.0" standalone="no"?>
<!DOCTYPE svg PUBLIC "-//W3C//DTD SVG 1.1//EN" "http://www.w3.org/Graphics/SVG/1.1/DTD/svg11.dtd" >
<svg xmlns="http://www.w3.org/2000/svg" xmlns:xlink="http://www.w3.org/1999/xlink" version="1.1">
<metadata>
Created by FontForge 20161003 at Wed Apr 26 15:12:25 2017
 By www-data
(URW)++,Copyright 2007 by (URW)++ Design &#38; Development
</metadata>
<defs>
<font id="BMWGlobal_Pro_bold" horiz-adv-x="1024" vert-adv-y="2048" >
  <font-face 
    font-family="BMWGlobal_Pro_bold"
    font-weight="400"
    font-stretch="normal"
    units-per-em="2048"
    panose-1="0 0 0 0 0 0 0 0 0 0"
    ascent="1638"
    descent="-410"
    x-height="1081"
    cap-height="1544"
    bbox="-1503 -1070 3225 2381"
    underline-thickness="102"
    underline-position="-564"
    unicode-range="U+0020-FFE5"
  />
<missing-glyph horiz-adv-x="510" vert-adv-y="2457" 
d="M51 0v1544h408v-1544h-408zM408 51v1442h-306v-1442h306z" />
    <glyph glyph-name="uniFDF2" unicode="&#xfedf;&#xfee0;&#xfeea;" horiz-adv-x="2704" vert-adv-y="2457" arabic-form="isolated" 
d="M679 1101l184 195l63 5q7 -144 17 -462q11 -328 38 -410q38 -110 204 -110h332q-32 279 -51 423q-9 60 -35 210q-6 36 -14 89l161 296h67q16 -114 41 -180q29 -72 108 -130l-94 -123l4 -48l10 -119q20 -228 23 -254q11 -105 63 -136q49 -28 157 -28h308q-9 132 -45 386
q-43 306 -82 478l170 283h68q15 -111 39 -175q30 -78 110 -136l-95 -125q59 -531 59 -736q0 -207 -171 -268q-73 -26 -305 -26h-165q-132 0 -207 58q-49 -32 -117 -45q-72 -13 -257 -13h-186q-195 0 -264 118q-47 79 -62 243q-3 34 -22 316l-6 88q-149 -156 -368 -244
q217 -87 345 -229l-145 -253q-137 132 -415 250l83 298q13 46 83 79q179 85 287 183q50 45 107 113q-12 86 -25 139zM1857 1888q1 -52 42 -183q14 -47 14 -95q0 -87 -53 -135q-42 -38 -107 -38q-112 0 -156 97q-35 -97 -149 -97q-156 0 -189 162q-24 113 -24 279l92 15
q9 -104 22 -169q21 -102 98 -102q64 0 64 64q0 43 -22 192l89 15q15 -57 30 -129q20 -91 38 -114q20 -27 61 -27q67 0 67 69q0 22 -6 63q-8 53 -8 85q0 13 2 53zM1843 2339l-82 -161l-448 -221l-23 41l82 161l448 222z" />
    <glyph glyph-name="uniFEF5" unicode="&#xfedf;&#xfe82;" horiz-adv-x="1296" vert-adv-y="2457" arabic-form="isolated" 
d="M213 45v-45h388q197 3 239 17q70 24 137 137q85 144 85 241q0 70 -63 190q-32 63 -42 82q73 151 84 457l93 124q-78 63 -106 160q-16 56 -28 148h-67l-133 -270q31 -102 52 -234q21 -129 21 -202q0 -22 -5 -50q-161 247 -304 408q-128 144 -327 317l-51 -30q2 -35 2 -60
q0 -170 -23 -297q78 -68 171 -195l47 12l-4 83q240 -177 405 -419q-66 -96 -171 -171q-131 -93 -288 -131zM573 293q171 106 272 226q9 -18 50 -98q27 -53 52 -116q-116 -17 -229 -17q-56 0 -145 5zM335 1629l77 -46l51 96q118 -60 201 -60q103 0 185 105q31 41 79 115
l-55 44q-82 -93 -155 -93q-104 0 -262 93z" />
    <glyph glyph-name="uniFEF6" unicode="&#xfee0;&#xfe82;" horiz-adv-x="1399" vert-adv-y="2457" arabic-form="final" 
d="M1008 194q47 -113 103 -148q71 -46 195 -46h51l114 319h-83q-153 0 -193 72q-27 49 -34 122q-5 53 -26 369l-13 196l-3 47l99 121q-87 60 -119 146q-22 62 -36 164h-67l-143 -291q44 -159 79 -582q-209 427 -677 842l-51 -30q3 -37 3 -64q0 -145 -24 -293
q80 -72 171 -195l47 12l-5 78q372 -287 515 -668q-83 -84 -257 -84q-204 0 -396 116l-59 -38q79 -165 138 -233q127 -147 337 -147q183 0 269 108q31 39 65 107zM377 1629l77 -46l51 96q117 -60 201 -60q103 0 184 105q32 41 80 115l-56 44q-81 -93 -154 -93q-104 0 -263 93
z" />
    <glyph glyph-name="uniFEF7" unicode="&#xfedf;&#xfe84;" horiz-adv-x="1296" vert-adv-y="2457" arabic-form="isolated" 
d="M213 45v-45h388q197 3 239 17q70 24 137 137q85 144 85 241q0 70 -63 190q-32 63 -42 82q73 151 84 457l93 124q-78 63 -106 160q-16 56 -28 148h-67l-133 -270q31 -102 52 -234q21 -129 21 -202q0 -22 -5 -50q-161 247 -304 408q-128 144 -327 317l-51 -30q2 -35 2 -60
q0 -170 -23 -297q78 -68 171 -195l47 12l-4 83q240 -177 405 -419q-66 -96 -171 -171q-131 -93 -288 -131zM573 293q171 106 272 226q9 -18 50 -98q27 -53 52 -116q-116 -17 -229 -17q-56 0 -145 5zM887 1761l-22 39q-57 -15 -146 -50q-148 10 -183 76q40 44 102 44
q54 0 83 -36l32 5q22 50 22 81q0 34 -26 56q-28 26 -82 26q-86 0 -153 -78q-69 -81 -69 -154q0 -68 102 -105l-78 -42l-51 -100l20 -49q190 130 391 184z" />
    <glyph glyph-name="uniFEF8" unicode="&#xfee0;&#xfe84;" horiz-adv-x="1399" vert-adv-y="2457" arabic-form="final" 
d="M1008 194q47 -113 103 -148q71 -46 195 -46h51l114 319h-83q-153 0 -193 72q-27 49 -34 122q-5 53 -26 369l-13 196l-3 47l99 121q-87 60 -119 146q-22 62 -36 164h-67l-143 -291q44 -159 79 -582q-209 427 -677 842l-51 -30q3 -37 3 -64q0 -145 -24 -293
q80 -72 171 -195l47 12l-5 78q372 -287 515 -668q-83 -84 -257 -84q-204 0 -396 116l-59 -38q79 -165 138 -233q127 -147 337 -147q183 0 269 108q31 39 65 107zM937 1761l-21 39q-57 -15 -146 -50q-148 10 -183 76q39 44 102 44q53 0 83 -36l31 5q23 50 23 81q0 34 -26 56
q-29 26 -82 26q-86 0 -153 -78q-69 -81 -69 -154q0 -68 101 -105l-77 -42l-52 -100l21 -49q189 130 391 184z" />
    <glyph glyph-name="uniFEF9" unicode="&#xfedf;&#xfe88;" horiz-adv-x="1296" vert-adv-y="2457" arabic-form="isolated" 
d="M213 45v-45h388q197 3 239 17q70 24 137 137q85 144 85 241q0 70 -63 190q-32 63 -42 82q73 151 84 457l93 124q-78 63 -106 160q-16 56 -28 148h-67l-133 -270q31 -102 52 -234q21 -129 21 -202q0 -22 -5 -50q-161 247 -304 408q-128 144 -327 317l-51 -30q2 -35 2 -60
q0 -170 -23 -297q78 -68 171 -195l47 12l-4 83q240 -177 405 -419q-66 -96 -171 -171q-131 -93 -288 -131zM573 293q171 106 272 226q9 -18 50 -98q27 -53 52 -116q-116 -17 -229 -17q-56 0 -145 5zM784 -379l-22 40q-56 -16 -145 -50q-148 10 -183 75q39 44 102 44
q53 0 83 -35l31 5q22 49 22 81q0 33 -25 56q-29 26 -82 26q-86 0 -153 -78q-70 -81 -70 -155q0 -68 102 -104l-78 -42l-51 -100l21 -49q189 130 391 184z" />
    <glyph glyph-name="uniFEFA" unicode="&#xfee0;&#xfe88;" horiz-adv-x="1399" vert-adv-y="2457" arabic-form="final" 
d="M1008 194q47 -113 103 -148q71 -46 195 -46h51l114 319h-83q-153 0 -193 72q-27 49 -34 122q-5 53 -26 369l-13 196l-3 47l99 121q-87 60 -119 146q-22 62 -36 164h-67l-143 -291q44 -159 79 -582q-209 427 -677 842l-51 -30q3 -37 3 -64q0 -145 -24 -293
q80 -72 171 -195l47 12l-5 78q372 -287 515 -668q-83 -84 -257 -84q-204 0 -396 116l-59 -38q79 -165 138 -233q127 -147 337 -147q183 0 269 108q31 39 65 107zM895 -379l-21 40q-57 -16 -146 -50q-148 10 -183 75q39 44 102 44q53 0 83 -35l31 5q22 49 22 81q0 33 -25 56
q-29 26 -82 26q-86 0 -153 -78q-69 -81 -69 -155q0 -68 101 -104l-77 -42l-52 -100l21 -49q189 130 391 184z" />
    <glyph glyph-name="uniFEFB" unicode="&#xfedf;&#xfe8e;" horiz-adv-x="1296" vert-adv-y="2457" arabic-form="isolated" 
d="M213 45v-45h388q197 3 239 17q70 24 137 137q85 144 85 241q0 70 -63 190q-32 63 -42 82q73 151 84 457l93 124q-78 63 -106 160q-16 56 -28 148h-67l-133 -270q31 -102 52 -234q21 -129 21 -202q0 -22 -5 -50q-161 247 -304 408q-128 144 -327 317l-51 -30q2 -35 2 -60
q0 -170 -23 -297q78 -68 171 -195l47 12l-4 83q240 -177 405 -419q-66 -96 -171 -171q-131 -93 -288 -131zM573 293q171 106 272 226q9 -18 50 -98q27 -53 52 -116q-116 -17 -229 -17q-56 0 -145 5z" />
    <glyph glyph-name="uniFEFC" unicode="&#xfee0;&#xfe8e;" horiz-adv-x="1399" vert-adv-y="2457" arabic-form="final" 
d="M1008 194q47 -113 103 -148q71 -46 195 -46h51l114 319h-83q-153 0 -193 72q-27 49 -34 122q-5 53 -26 369l-13 196l-3 47l99 121q-87 60 -119 146q-22 62 -36 164h-67l-143 -291q44 -159 79 -582q-209 427 -677 842l-51 -30q3 -37 3 -64q0 -145 -24 -293
q80 -72 171 -195l47 12l-5 78q372 -287 515 -668q-83 -84 -257 -84q-204 0 -396 116l-59 -38q79 -165 138 -233q127 -147 337 -147q183 0 269 108q31 39 65 107z" />
    <glyph glyph-name="uniFB50" unicode="&#x671;" vert-adv-y="2457" arabic-form="isolated" 
d="M512 1517l-216 -216l216 -216l215 216z" />
    <glyph glyph-name="uniFB51" unicode="&#x671;" vert-adv-y="2457" arabic-form="final" 
d="M512 1517l-216 -216l216 -216l215 216z" />
    <glyph glyph-name="uniFB52" unicode="&#x67b;" vert-adv-y="2457" arabic-form="isolated" 
d="M512 1517l-216 -216l216 -216l215 216z" />
    <glyph glyph-name="uniFB53" unicode="&#x67b;" vert-adv-y="2457" arabic-form="final" 
d="M512 1517l-216 -216l216 -216l215 216z" />
    <glyph glyph-name="uniFB54" unicode="&#x67b;" vert-adv-y="2457" arabic-form="initial" 
d="M512 1517l-216 -216l216 -216l215 216z" />
    <glyph glyph-name="uniFB55" unicode="&#x67b;" vert-adv-y="2457" arabic-form="medial" 
d="M512 1517l-216 -216l216 -216l215 216z" />
    <glyph glyph-name="uniFB56" unicode="&#x67e;" horiz-adv-x="2060" vert-adv-y="2457" arabic-form="isolated" 
d="M1031 -330l-192 192l-198 -198l198 -199l192 192l191 -192l198 199l-198 198zM1031 -873l191 194l-191 194l-192 -194zM414 813q-221 -309 -221 -525q0 -172 135 -244q160 -86 500 -86q333 0 583 40q199 32 305 127q152 136 152 343q0 216 -195 483l-72 -37l-118 -298
q132 -116 187 -260q-99 -34 -220 -47q-265 -30 -510 -30q-313 0 -451 74q-89 48 -89 162q0 110 75 260z" />
    <glyph glyph-name="uniFB57" unicode="&#x67e;" horiz-adv-x="2139" vert-adv-y="2457" arabic-form="final" 
d="M1064 -330l-192 192l-198 -198l198 -199l192 192l191 -192l198 199l-198 198zM1064 -873l191 194l-191 194l-192 -194zM2100 0l114 319h-71q-134 0 -200 33q-54 26 -73 137q-28 160 -87 280q-41 83 -111 182l-74 -37l-117 -298q131 -117 189 -260q-91 -33 -219 -47
q-266 -30 -511 -30q-313 0 -451 74q-89 48 -89 162q0 110 75 260l-61 38q-221 -309 -221 -525q0 -172 135 -244q160 -86 500 -86q214 0 468 29q237 26 342 80q44 23 86 63q42 -67 91 -91q78 -39 228 -39h57z" />
    <glyph glyph-name="uniFB58" unicode="&#x67e;" horiz-adv-x="805" vert-adv-y="2457" arabic-form="initial" 
d="M240 -330l-192 192l-198 -198l198 -199l192 192l191 -192l198 199l-198 198zM240 -873l191 194l-191 194l-192 -194zM-73 0h84q259 0 400 75q83 43 140 142q62 109 62 232q0 226 -194 502l-73 -37l-118 -297q134 -132 184 -268q-121 -30 -319 -30h-53z" />
    <glyph glyph-name="uniFB59" unicode="&#x67e;" horiz-adv-x="890" vert-adv-y="2457" arabic-form="medial" 
d="M324 -330l-191 192l-198 -198l198 -199l191 192l192 -192l198 199l-198 198zM324 -873l192 194l-192 194l-191 -194zM-74 0h82q175 0 307 37q93 26 158 89q48 -71 102 -93q84 -33 216 -33h57l113 319h-71q-139 0 -205 36q-47 25 -68 137q-34 171 -95 290q-40 79 -104 169
l-73 -37l-117 -297q131 -133 182 -266q-122 -32 -320 -32h-50z" />
    <glyph glyph-name="uniFB5A" unicode="&#x680;" vert-adv-y="2457" arabic-form="isolated" 
d="M512 1517l-216 -216l216 -216l215 216z" />
    <glyph glyph-name="uniFB5B" unicode="&#x680;" vert-adv-y="2457" arabic-form="final" 
d="M512 1517l-216 -216l216 -216l215 216z" />
    <glyph glyph-name="uniFB5C" unicode="&#x680;" vert-adv-y="2457" arabic-form="initial" 
d="M512 1517l-216 -216l216 -216l215 216z" />
    <glyph glyph-name="uniFB5D" unicode="&#x680;" vert-adv-y="2457" arabic-form="medial" 
d="M512 1517l-216 -216l216 -216l215 216z" />
    <glyph glyph-name="uniFB5E" unicode="&#x67a;" vert-adv-y="2457" arabic-form="isolated" 
d="M512 1517l-216 -216l216 -216l215 216z" />
    <glyph glyph-name="uniFB5F" unicode="&#x67a;" vert-adv-y="2457" arabic-form="final" 
d="M512 1517l-216 -216l216 -216l215 216z" />
    <glyph glyph-name="uniFB60" unicode="&#x67a;" vert-adv-y="2457" arabic-form="initial" 
d="M512 1517l-216 -216l216 -216l215 216z" />
    <glyph glyph-name="uniFB61" unicode="&#x67a;" vert-adv-y="2457" arabic-form="medial" 
d="M512 1517l-216 -216l216 -216l215 216z" />
    <glyph glyph-name="uniFB62" unicode="&#x67f;" vert-adv-y="2457" arabic-form="isolated" 
d="M512 1517l-216 -216l216 -216l215 216z" />
    <glyph glyph-name="uniFB63" unicode="&#x67f;" vert-adv-y="2457" arabic-form="final" 
d="M512 1517l-216 -216l216 -216l215 216z" />
    <glyph glyph-name="uniFB64" unicode="&#x67f;" vert-adv-y="2457" arabic-form="initial" 
d="M512 1517l-216 -216l216 -216l215 216z" />
    <glyph glyph-name="uniFB65" unicode="&#x67f;" vert-adv-y="2457" arabic-form="medial" 
d="M512 1517l-216 -216l216 -216l215 216z" />
    <glyph glyph-name="uniFB66" unicode="&#x679;" vert-adv-y="2457" arabic-form="isolated" 
d="M512 1517l-216 -216l216 -216l215 216z" />
    <glyph glyph-name="uniFB67" unicode="&#x679;" vert-adv-y="2457" arabic-form="final" 
d="M512 1517l-216 -216l216 -216l215 216z" />
    <glyph glyph-name="uniFB68" unicode="&#x679;" vert-adv-y="2457" arabic-form="initial" 
d="M512 1517l-216 -216l216 -216l215 216z" />
    <glyph glyph-name="uniFB69" unicode="&#x679;" vert-adv-y="2457" arabic-form="medial" 
d="M512 1517l-216 -216l216 -216l215 216z" />
    <glyph glyph-name="uniFB6A" unicode="&#x6a4;" horiz-adv-x="2420" vert-adv-y="2457" arabic-form="isolated" 
d="M1829 1466l191 -192l198 199l-198 198l-191 -191l-191 191l-198 -198l198 -199zM1829 2009l-191 -193l191 -194l191 194zM416 839q-223 -327 -223 -548q0 -153 110 -226q95 -63 208 -80q162 -24 406 -24q257 0 705 19q247 10 352 74q124 76 195 247q71 170 71 366
t-85 346q-86 152 -209 152q-111 0 -233 -181q-76 -113 -119 -238q-35 -100 -35 -179q0 -155 242 -230q-43 -28 -165 -37q-243 -19 -630 -19q-291 0 -411 32t-163 92q-32 44 -32 112q0 116 90 281zM2068 518q-355 36 -355 217q0 68 44 109q33 29 74 29q104 0 180 -161
q38 -79 57 -194z" />
    <glyph glyph-name="uniFB6B" unicode="&#x6a4;" horiz-adv-x="2459" vert-adv-y="2457" arabic-form="final" 
d="M1883 1934l-191 -193l191 -194l191 194zM1883 1391l191 -192l199 199l-199 198l-191 -191l-191 191l-198 -198l198 -199zM1990 60q187 -60 384 -60h45l114 319h-104q-126 0 -241 14q43 140 43 236q0 145 -61 282q-84 187 -219 187q-130 0 -256 -201q-148 -236 -148 -409
q0 -63 51 -128q-395 -19 -593 -19q-292 0 -414 33q-116 32 -159 91q-32 44 -32 112q0 117 90 281l-74 41q-65 -96 -117 -198q-106 -210 -106 -350q0 -167 138 -244q86 -48 180 -62q166 -23 428 -23q324 0 697 23q219 13 354 75zM2053 351q-175 35 -262 92q-90 58 -90 148
q0 75 50 122q36 33 84 33q99 0 168 -152q52 -115 52 -207q0 -8 -2 -36z" />
    <glyph glyph-name="uniFB6C" unicode="&#x6a4;" horiz-adv-x="1074" vert-adv-y="2457" arabic-form="initial" 
d="M523 1466l191 -192l198 199l-198 198l-191 -191l-192 191l-198 -198l198 -199zM523 2009l-192 -193l192 -194l191 194zM39 319l-113 -319h231q357 0 492 79q134 78 207 271q54 142 54 317q0 213 -94 361q-88 137 -196 137q-112 0 -227 -172q-66 -99 -116 -225
q-47 -120 -47 -207q0 -141 236 -214q-17 -17 -57 -21q-54 -7 -133 -7h-237zM738 518q-354 35 -354 217q0 69 44 109q32 29 73 29q103 0 179 -157q38 -81 58 -198z" />
    <glyph glyph-name="uniFB6D" unicode="&#x6a4;" horiz-adv-x="1117" vert-adv-y="2457" arabic-form="medial" 
d="M540 1391l192 -192l198 199l-198 198l-192 -191l-191 191l-198 -198l198 -199zM540 1934l-191 -193l191 -194l192 194zM-74 0h225q196 0 306 17q71 12 157 55q200 -72 418 -72h44l114 319h-104q-126 0 -241 14q43 142 43 236q0 149 -63 287q-84 182 -217 182
q-143 0 -284 -249q-127 -225 -119 -366q2 -50 47 -104h-212zM706 353q-348 64 -348 238q0 75 50 122q36 33 84 33q99 0 169 -155q50 -109 50 -196q0 -16 -5 -42z" />
    <glyph glyph-name="uniFB6E" unicode="&#x6a6;" vert-adv-y="2457" arabic-form="isolated" 
d="M512 1517l-216 -216l216 -216l215 216z" />
    <glyph glyph-name="uniFB6F" unicode="&#x6a6;" vert-adv-y="2457" arabic-form="final" 
d="M512 1517l-216 -216l216 -216l215 216z" />
    <glyph glyph-name="uniFB70" unicode="&#x6a6;" vert-adv-y="2457" arabic-form="initial" 
d="M512 1517l-216 -216l216 -216l215 216z" />
    <glyph glyph-name="uniFB71" unicode="&#x6a6;" vert-adv-y="2457" arabic-form="medial" 
d="M512 1517l-216 -216l216 -216l215 216z" />
    <glyph glyph-name="uniFB72" unicode="&#x684;" vert-adv-y="2457" arabic-form="isolated" 
d="M512 1517l-216 -216l216 -216l215 216z" />
    <glyph glyph-name="uniFB73" unicode="&#x684;" vert-adv-y="2457" arabic-form="final" 
d="M512 1517l-216 -216l216 -216l215 216z" />
    <glyph glyph-name="uniFB74" unicode="&#x684;" vert-adv-y="2457" arabic-form="initial" 
d="M512 1517l-216 -216l216 -216l215 216z" />
    <glyph glyph-name="uniFB75" unicode="&#x684;" vert-adv-y="2457" arabic-form="medial" 
d="M512 1517l-216 -216l216 -216l215 216z" />
    <glyph glyph-name="uniFB76" unicode="&#x683;" vert-adv-y="2457" arabic-form="isolated" 
d="M512 1517l-216 -216l216 -216l215 216z" />
    <glyph glyph-name="uniFB77" unicode="&#x683;" vert-adv-y="2457" arabic-form="final" 
d="M512 1517l-216 -216l216 -216l215 216z" />
    <glyph glyph-name="uniFB78" unicode="&#x683;" vert-adv-y="2457" arabic-form="initial" 
d="M512 1517l-216 -216l216 -216l215 216z" />
    <glyph glyph-name="uniFB79" unicode="&#x683;" vert-adv-y="2457" arabic-form="medial" 
d="M512 1517l-216 -216l216 -216l215 216z" />
    <glyph glyph-name="uniFB7A" unicode="&#x686;" vert-adv-y="2457" arabic-form="isolated" 
d="M512 1517l-216 -216l216 -216l215 216z" />
    <glyph glyph-name="uniFB7B" unicode="&#x686;" vert-adv-y="2457" arabic-form="final" 
d="M512 1517l-216 -216l216 -216l215 216z" />
    <glyph glyph-name="uniFB7C" unicode="&#x686;" vert-adv-y="2457" arabic-form="initial" 
d="M512 1517l-216 -216l216 -216l215 216z" />
    <glyph glyph-name="uniFB7D" unicode="&#x686;" vert-adv-y="2457" arabic-form="medial" 
d="M512 1517l-216 -216l216 -216l215 216z" />
    <glyph glyph-name="uniFB7E" unicode="&#x687;" vert-adv-y="2457" arabic-form="isolated" 
d="M512 1517l-216 -216l216 -216l215 216z" />
    <glyph glyph-name="uniFB7F" unicode="&#x687;" vert-adv-y="2457" arabic-form="final" 
d="M512 1517l-216 -216l216 -216l215 216z" />
    <glyph glyph-name="uniFB80" unicode="&#x687;" vert-adv-y="2457" arabic-form="initial" 
d="M512 1517l-216 -216l216 -216l215 216z" />
    <glyph glyph-name="uniFB81" unicode="&#x687;" vert-adv-y="2457" arabic-form="medial" 
d="M512 1517l-216 -216l216 -216l215 216z" />
    <glyph glyph-name="uniFB82" unicode="&#x68d;" vert-adv-y="2457" arabic-form="isolated" 
d="M512 1517l-216 -216l216 -216l215 216z" />
    <glyph glyph-name="uniFB83" unicode="&#x68d;" vert-adv-y="2457" arabic-form="final" 
d="M512 1517l-216 -216l216 -216l215 216z" />
    <glyph glyph-name="uniFB84" unicode="&#x68c;" vert-adv-y="2457" arabic-form="isolated" 
d="M512 1517l-216 -216l216 -216l215 216z" />
    <glyph glyph-name="uniFB85" unicode="&#x68c;" vert-adv-y="2457" arabic-form="final" 
d="M512 1517l-216 -216l216 -216l215 216z" />
    <glyph glyph-name="uniFB86" unicode="&#x68e;" vert-adv-y="2457" arabic-form="isolated" 
d="M512 1517l-216 -216l216 -216l215 216z" />
    <glyph glyph-name="uniFB87" unicode="&#x68e;" vert-adv-y="2457" arabic-form="final" 
d="M512 1517l-216 -216l216 -216l215 216z" />
    <glyph glyph-name="uniFB88" unicode="&#x688;" vert-adv-y="2457" arabic-form="isolated" 
d="M512 1517l-216 -216l216 -216l215 216z" />
    <glyph glyph-name="uniFB89" unicode="&#x688;" vert-adv-y="2457" arabic-form="final" 
d="M512 1517l-216 -216l216 -216l215 216z" />
    <glyph glyph-name="uniFB8A" unicode="&#x698;" vert-adv-y="2457" arabic-form="isolated" 
d="M512 1517l-216 -216l216 -216l215 216z" />
    <glyph glyph-name="uniFB8B" unicode="&#x698;" vert-adv-y="2457" arabic-form="final" 
d="M512 1517l-216 -216l216 -216l215 216z" />
    <glyph glyph-name="uniFB8C" unicode="&#x691;" vert-adv-y="2457" arabic-form="isolated" 
d="M512 1517l-216 -216l216 -216l215 216z" />
    <glyph glyph-name="uniFB8D" unicode="&#x691;" vert-adv-y="2457" arabic-form="final" 
d="M512 1517l-216 -216l216 -216l215 216z" />
    <glyph glyph-name="uniFB8E" unicode="&#x6a9;" vert-adv-y="2457" arabic-form="isolated" 
d="M512 1517l-216 -216l216 -216l215 216z" />
    <glyph glyph-name="uniFB8F" unicode="&#x6a9;" vert-adv-y="2457" arabic-form="final" 
d="M512 1517l-216 -216l216 -216l215 216z" />
    <glyph glyph-name="uniFB90" unicode="&#x6a9;" vert-adv-y="2457" arabic-form="initial" 
d="M512 1517l-216 -216l216 -216l215 216z" />
    <glyph glyph-name="uniFB91" unicode="&#x6a9;" vert-adv-y="2457" arabic-form="medial" 
d="M512 1517l-216 -216l216 -216l215 216z" />
    <glyph glyph-name="uniFB92" unicode="&#x6af;" vert-adv-y="2457" arabic-form="isolated" 
d="M512 1517l-216 -216l216 -216l215 216z" />
    <glyph glyph-name="uniFB93" unicode="&#x6af;" vert-adv-y="2457" arabic-form="final" 
d="M512 1517l-216 -216l216 -216l215 216z" />
    <glyph glyph-name="uniFB94" unicode="&#x6af;" vert-adv-y="2457" arabic-form="initial" 
d="M512 1517l-216 -216l216 -216l215 216z" />
    <glyph glyph-name="uniFB95" unicode="&#x6af;" vert-adv-y="2457" arabic-form="medial" 
d="M512 1517l-216 -216l216 -216l215 216z" />
    <glyph glyph-name="uniFB96" unicode="&#x6b3;" vert-adv-y="2457" arabic-form="isolated" 
d="M512 1517l-216 -216l216 -216l215 216z" />
    <glyph glyph-name="uniFB97" unicode="&#x6b3;" vert-adv-y="2457" arabic-form="final" 
d="M512 1517l-216 -216l216 -216l215 216z" />
    <glyph glyph-name="uniFB98" unicode="&#x6b3;" vert-adv-y="2457" arabic-form="initial" 
d="M512 1517l-216 -216l216 -216l215 216z" />
    <glyph glyph-name="uniFB99" unicode="&#x6b3;" vert-adv-y="2457" arabic-form="medial" 
d="M512 1517l-216 -216l216 -216l215 216z" />
    <glyph glyph-name="uniFB9A" unicode="&#x6b1;" vert-adv-y="2457" arabic-form="isolated" 
d="M512 1517l-216 -216l216 -216l215 216z" />
    <glyph glyph-name="uniFB9B" unicode="&#x6b1;" vert-adv-y="2457" arabic-form="final" 
d="M512 1517l-216 -216l216 -216l215 216z" />
    <glyph glyph-name="uniFB9C" unicode="&#x6b1;" vert-adv-y="2457" arabic-form="initial" 
d="M512 1517l-216 -216l216 -216l215 216z" />
    <glyph glyph-name="uniFB9D" unicode="&#x6b1;" vert-adv-y="2457" arabic-form="medial" 
d="M512 1517l-216 -216l216 -216l215 216z" />
    <glyph glyph-name="uniFB9E" unicode="&#x6ba;" vert-adv-y="2457" arabic-form="isolated" 
d="M512 1517l-216 -216l216 -216l215 216z" />
    <glyph glyph-name="uniFB9F" unicode="&#x6ba;" vert-adv-y="2457" arabic-form="final" 
d="M512 1517l-216 -216l216 -216l215 216z" />
    <glyph glyph-name="uniFBA0" unicode="&#x6bb;" vert-adv-y="2457" arabic-form="isolated" 
d="M512 1517l-216 -216l216 -216l215 216z" />
    <glyph glyph-name="uniFBA1" unicode="&#x6bb;" vert-adv-y="2457" arabic-form="final" 
d="M512 1517l-216 -216l216 -216l215 216z" />
    <glyph glyph-name="uniFBA2" unicode="&#x6bb;" vert-adv-y="2457" arabic-form="initial" 
d="M512 1517l-216 -216l216 -216l215 216z" />
    <glyph glyph-name="uniFBA3" unicode="&#x6bb;" vert-adv-y="2457" arabic-form="medial" 
d="M512 1517l-216 -216l216 -216l215 216z" />
    <glyph glyph-name="uniFBA4" unicode="&#x6c0;" vert-adv-y="2457" arabic-form="isolated" 
d="M512 1517l-216 -216l216 -216l215 216z" />
    <glyph glyph-name="uniFBA5" unicode="&#x6c0;" vert-adv-y="2457" arabic-form="final" 
d="M512 1517l-216 -216l216 -216l215 216z" />
    <glyph glyph-name="uniFBA6" unicode="&#x6c1;" vert-adv-y="2457" arabic-form="isolated" 
d="M512 1517l-216 -216l216 -216l215 216z" />
    <glyph glyph-name="uniFBA7" unicode="&#x6c1;" vert-adv-y="2457" arabic-form="final" 
d="M512 1517l-216 -216l216 -216l215 216z" />
    <glyph glyph-name="uniFBA8" unicode="&#x6c1;" vert-adv-y="2457" arabic-form="initial" 
d="M512 1517l-216 -216l216 -216l215 216z" />
    <glyph glyph-name="uniFBA9" unicode="&#x6c1;" vert-adv-y="2457" arabic-form="medial" 
d="M512 1517l-216 -216l216 -216l215 216z" />
    <glyph glyph-name="uniFBAA" unicode="&#x6be;" vert-adv-y="2457" arabic-form="isolated" 
d="M512 1517l-216 -216l216 -216l215 216z" />
    <glyph glyph-name="uniFBAB" unicode="&#x6be;" vert-adv-y="2457" arabic-form="final" 
d="M512 1517l-216 -216l216 -216l215 216z" />
    <glyph glyph-name="uniFBAC" unicode="&#x6be;" vert-adv-y="2457" arabic-form="initial" 
d="M512 1517l-216 -216l216 -216l215 216z" />
    <glyph glyph-name="uniFBAD" unicode="&#x6be;" vert-adv-y="2457" arabic-form="medial" 
d="M512 1517l-216 -216l216 -216l215 216z" />
    <glyph glyph-name="uniFBAE" unicode="&#x6d2;" vert-adv-y="2457" arabic-form="isolated" 
d="M512 1517l-216 -216l216 -216l215 216z" />
    <glyph glyph-name="uniFBAF" unicode="&#x6d2;" vert-adv-y="2457" arabic-form="final" 
d="M512 1517l-216 -216l216 -216l215 216z" />
    <glyph glyph-name="uniFBB0" unicode="&#x6d3;" vert-adv-y="2457" arabic-form="isolated" 
d="M512 1517l-216 -216l216 -216l215 216z" />
    <glyph glyph-name="uniFBB1" unicode="&#x6d3;" vert-adv-y="2457" arabic-form="final" 
d="M512 1517l-216 -216l216 -216l215 216z" />
    <glyph glyph-name="uniFBD3" unicode="&#x6ad;" vert-adv-y="2457" arabic-form="isolated" 
d="M512 1517l-216 -216l216 -216l215 216z" />
    <glyph glyph-name="uniFBD4" unicode="&#x6ad;" vert-adv-y="2457" arabic-form="final" 
d="M512 1517l-216 -216l216 -216l215 216z" />
    <glyph glyph-name="uniFBD5" unicode="&#x6ad;" vert-adv-y="2457" arabic-form="initial" 
d="M512 1517l-216 -216l216 -216l215 216z" />
    <glyph glyph-name="uniFBD6" unicode="&#x6ad;" vert-adv-y="2457" arabic-form="medial" 
d="M512 1517l-216 -216l216 -216l215 216z" />
    <glyph glyph-name="uniFBD7" unicode="&#x6c7;" vert-adv-y="2457" arabic-form="isolated" 
d="M512 1517l-216 -216l216 -216l215 216z" />
    <glyph glyph-name="uniFBD8" unicode="&#x6c7;" vert-adv-y="2457" arabic-form="final" 
d="M512 1517l-216 -216l216 -216l215 216z" />
    <glyph glyph-name="uniFBD9" unicode="&#x6c6;" vert-adv-y="2457" arabic-form="isolated" 
d="M512 1517l-216 -216l216 -216l215 216z" />
    <glyph glyph-name="uniFBDA" unicode="&#x6c6;" vert-adv-y="2457" arabic-form="final" 
d="M512 1517l-216 -216l216 -216l215 216z" />
    <glyph glyph-name="uniFBDB" unicode="&#x6c8;" vert-adv-y="2457" arabic-form="isolated" 
d="M512 1517l-216 -216l216 -216l215 216z" />
    <glyph glyph-name="uniFBDC" unicode="&#x6c8;" vert-adv-y="2457" arabic-form="final" 
d="M512 1517l-216 -216l216 -216l215 216z" />
    <glyph glyph-name="uniFBDD" unicode="&#x677;" vert-adv-y="2457" arabic-form="isolated" 
d="M512 1517l-216 -216l216 -216l215 216z" />
    <glyph glyph-name="uniFBDE" unicode="&#x6cb;" vert-adv-y="2457" arabic-form="isolated" 
d="M512 1517l-216 -216l216 -216l215 216z" />
    <glyph glyph-name="uniFBDF" unicode="&#x6cb;" vert-adv-y="2457" arabic-form="final" 
d="M512 1517l-216 -216l216 -216l215 216z" />
    <glyph glyph-name="uniFBE0" unicode="&#x6c5;" vert-adv-y="2457" arabic-form="isolated" 
d="M512 1517l-216 -216l216 -216l215 216z" />
    <glyph glyph-name="uniFBE1" unicode="&#x6c5;" vert-adv-y="2457" arabic-form="final" 
d="M512 1517l-216 -216l216 -216l215 216z" />
    <glyph glyph-name="uniFBE2" unicode="&#x6c9;" vert-adv-y="2457" arabic-form="isolated" 
d="M512 1517l-216 -216l216 -216l215 216z" />
    <glyph glyph-name="uniFBE3" unicode="&#x6c9;" vert-adv-y="2457" arabic-form="final" 
d="M512 1517l-216 -216l216 -216l215 216z" />
    <glyph glyph-name="uniFBE4" unicode="&#x6d0;" vert-adv-y="2457" arabic-form="isolated" 
d="M512 1517l-216 -216l216 -216l215 216z" />
    <glyph glyph-name="uniFBE5" unicode="&#x6d0;" vert-adv-y="2457" arabic-form="final" 
d="M512 1517l-216 -216l216 -216l215 216z" />
    <glyph glyph-name="uniFBE6" unicode="&#x6d0;" vert-adv-y="2457" arabic-form="initial" 
d="M512 1517l-216 -216l216 -216l215 216z" />
    <glyph glyph-name="uniFBE7" unicode="&#x6d0;" vert-adv-y="2457" arabic-form="medial" 
d="M512 1517l-216 -216l216 -216l215 216z" />
    <glyph glyph-name="uniFBE8" unicode="&#x649;" horiz-adv-x="805" vert-adv-y="2457" arabic-form="initial" 
d="M-74 0h85q259 0 400 75q83 43 139 142q62 109 62 232q0 226 -194 502l-73 -37l-117 -297q133 -132 184 -268q-122 -30 -320 -30h-52z" />
    <glyph glyph-name="uniFBE9" unicode="&#x649;" horiz-adv-x="888" vert-adv-y="2457" arabic-form="medial" 
d="M-74 0h82q175 0 307 37q93 26 158 89q48 -71 102 -93q84 -33 216 -33h57l113 319h-71q-139 0 -205 36q-47 25 -68 137q-34 171 -95 290q-40 79 -104 169l-73 -37l-117 -297q131 -133 182 -266q-122 -32 -320 -32h-50z" />
    <glyph glyph-name="uniFBEA" unicode="&#xfbea;" vert-adv-y="2457" arabic-form="isolated" 
d="M512 1517l-216 -216l216 -216l215 216z" />
    <glyph glyph-name="uniFBEB" unicode="&#xfbeb;" vert-adv-y="2457" arabic-form="final" 
d="M512 1517l-216 -216l216 -216l215 216z" />
    <glyph glyph-name="uniFBEC" unicode="&#xfbec;" vert-adv-y="2457" arabic-form="isolated" 
d="M512 1517l-216 -216l216 -216l215 216z" />
    <glyph glyph-name="uniFBED" unicode="&#xfbed;" vert-adv-y="2457" arabic-form="final" 
d="M512 1517l-216 -216l216 -216l215 216z" />
    <glyph glyph-name="uniFBEE" unicode="&#xfbee;" vert-adv-y="2457" arabic-form="isolated" 
d="M512 1517l-216 -216l216 -216l215 216z" />
    <glyph glyph-name="uniFBEF" unicode="&#xfbef;" vert-adv-y="2457" arabic-form="final" 
d="M512 1517l-216 -216l216 -216l215 216z" />
    <glyph glyph-name="uniFBF0" unicode="&#xfbf0;" vert-adv-y="2457" arabic-form="isolated" 
d="M512 1517l-216 -216l216 -216l215 216z" />
    <glyph glyph-name="uniFBF1" unicode="&#xfbf1;" vert-adv-y="2457" arabic-form="final" 
d="M512 1517l-216 -216l216 -216l215 216z" />
    <glyph glyph-name="uniFBF2" unicode="&#xfbf2;" vert-adv-y="2457" arabic-form="isolated" 
d="M512 1517l-216 -216l216 -216l215 216z" />
    <glyph glyph-name="uniFBF3" unicode="&#xfbf3;" vert-adv-y="2457" arabic-form="final" 
d="M512 1517l-216 -216l216 -216l215 216z" />
    <glyph glyph-name="uniFBF4" unicode="&#xfbf4;" vert-adv-y="2457" arabic-form="isolated" 
d="M512 1517l-216 -216l216 -216l215 216z" />
    <glyph glyph-name="uniFBF5" unicode="&#xfbf5;" vert-adv-y="2457" arabic-form="final" 
d="M512 1517l-216 -216l216 -216l215 216z" />
    <glyph glyph-name="uniFBF6" unicode="&#xfbf6;" vert-adv-y="2457" arabic-form="isolated" 
d="M512 1517l-216 -216l216 -216l215 216z" />
    <glyph glyph-name="uniFBF7" unicode="&#xfbf7;" vert-adv-y="2457" arabic-form="final" 
d="M512 1517l-216 -216l216 -216l215 216z" />
    <glyph glyph-name="uniFBF8" unicode="&#xfbf8;" vert-adv-y="2457" arabic-form="initial" 
d="M512 1517l-216 -216l216 -216l215 216z" />
    <glyph glyph-name="uniFBF9" unicode="&#xfbf9;" vert-adv-y="2457" arabic-form="isolated" 
d="M512 1517l-216 -216l216 -216l215 216z" />
    <glyph glyph-name="uniFBFA" unicode="&#xfbfa;" vert-adv-y="2457" arabic-form="final" 
d="M512 1517l-216 -216l216 -216l215 216z" />
    <glyph glyph-name="uniFBFB" unicode="&#xfbfb;" vert-adv-y="2457" arabic-form="initial" 
d="M512 1517l-216 -216l216 -216l215 216z" />
    <glyph glyph-name="uniFBFC" unicode="&#x6cc;" vert-adv-y="2457" arabic-form="isolated" 
d="M512 1517l-216 -216l216 -216l215 216z" />
    <glyph glyph-name="uniFBFD" unicode="&#x6cc;" vert-adv-y="2457" arabic-form="final" 
d="M512 1517l-216 -216l216 -216l215 216z" />
    <glyph glyph-name="uniFBFE" unicode="&#x6cc;" vert-adv-y="2457" arabic-form="initial" 
d="M512 1517l-216 -216l216 -216l215 216z" />
    <glyph glyph-name="uniFBFF" unicode="&#x6cc;" vert-adv-y="2457" arabic-form="medial" 
d="M512 1517l-216 -216l216 -216l215 216z" />
    <glyph glyph-name="uniFC5E" unicode="&#xfc5e;" horiz-adv-x="0" vert-adv-y="2457" arabic-form="isolated" 
d="M810 1594q1 -49 42 -172q14 -44 14 -89q0 -82 -53 -127q-42 -36 -107 -36q-112 0 -157 91q-34 -91 -148 -91q-156 0 -189 152q-24 106 -24 262l91 15q10 -99 23 -159q21 -96 98 -96q64 0 64 61q0 40 -22 180l89 14q15 -54 30 -121q20 -86 38 -108q20 -26 61 -26
q67 0 67 66q0 21 -6 59q-8 50 -8 80q0 12 2 50zM739 1947q24 71 24 132q0 109 -54 159q-33 31 -81 31q-86 0 -154 -93q-60 -82 -60 -159q0 -95 138 -137q-78 -51 -196 -59q3 23 3 36q0 62 -29 110q-43 75 -136 75q-40 0 -103 -18l24 -134q45 13 74 13q96 0 96 -138
q0 -22 -6 -48l32 -25q104 10 190 35q121 35 184 114l92 -28l62 106zM647 1974q-142 48 -142 99q0 33 25 56q21 19 50 19q72 0 72 -119q0 -23 -5 -55z" />
    <glyph glyph-name="uniFC5F" unicode="&#xfc5f;" horiz-adv-x="0" vert-adv-y="2457" arabic-form="isolated" 
d="M755 1467l-82 -149l-449 -205l-23 38l82 149l449 205zM788 1728l-83 -149l-448 -205l-23 38l82 149l449 205zM789 2228q1 -49 41 -172q15 -44 15 -89q0 -82 -53 -127q-42 -36 -108 -36q-111 0 -156 91q-35 -91 -149 -91q-155 0 -189 153q-23 105 -23 261l91 15
q10 -99 23 -159q21 -96 98 -96q64 0 64 61q0 40 -22 180l88 14q15 -54 31 -121q20 -86 37 -108q21 -25 61 -25q68 0 68 65q0 21 -6 59q-8 50 -8 80q0 12 2 50z" />
    <glyph glyph-name="uniFC60" unicode="&#xfc60;" horiz-adv-x="0" vert-adv-y="2457" arabic-form="isolated" 
d="M795 2055l-82 -161l-449 -221l-22 41l82 161l448 221zM810 1594q1 -49 41 -172q15 -44 15 -89q0 -82 -53 -127q-42 -36 -108 -36q-111 0 -156 91q-35 -91 -149 -91q-155 0 -189 152q-23 106 -23 262l91 15q10 -99 23 -159q21 -96 98 -96q64 0 64 61q0 40 -22 180l88 14
q15 -54 31 -121q20 -86 37 -108q21 -26 61 -26q68 0 68 66q0 21 -6 59q-8 50 -8 80q0 12 2 50z" />
    <glyph glyph-name="uniFC61" unicode="&#xfc61;" horiz-adv-x="0" vert-adv-y="2457" arabic-form="isolated" 
d="M810 1594q1 -49 41 -172q15 -44 15 -89q0 -82 -53 -127q-42 -36 -108 -36q-111 0 -156 91q-35 -91 -149 -91q-155 0 -189 152q-23 106 -23 262l91 15q10 -99 23 -159q21 -96 98 -96q64 0 64 61q0 40 -22 180l88 14q15 -54 31 -121q20 -86 37 -108q21 -26 61 -26
q68 0 68 66q0 21 -6 59q-8 50 -8 80q0 12 2 50zM516 1882q-95 -36 -175 -56l-54 -111l13 -42q131 35 211 73t132 98l85 -26l74 101l-100 28q26 73 26 133q0 80 -35 134q-34 55 -94 55q-69 0 -135 -62q-86 -80 -86 -179q0 -74 61 -112q26 -16 77 -34zM613 1973
q-146 40 -146 94q0 30 24 53q25 27 60 27q36 0 54 -46q13 -35 13 -79q0 -28 -5 -49z" />
    <glyph glyph-name="uniFC62" unicode="&#xfc62;" horiz-adv-x="0" vert-adv-y="2457" arabic-form="isolated" 
d="M777 1549l-82 -161l-448 -221l-23 41l82 161l448 221zM789 2065q1 -49 41 -172q15 -44 15 -89q0 -82 -53 -127q-42 -36 -108 -36q-111 0 -156 91q-35 -91 -149 -91q-155 0 -189 153q-23 105 -23 261l91 15q10 -99 23 -159q21 -96 98 -96q64 0 64 61q0 40 -22 180l88 14
q15 -54 31 -121q20 -86 37 -108q21 -26 61 -26q68 0 68 66q0 21 -6 59q-8 50 -8 80q0 12 2 50z" />
    <glyph glyph-name="uniFE70" unicode="&#xfe70;" horiz-adv-x="0" vert-adv-y="2457" arabic-form="isolated" 
d="M787 1481l-23 45l-448 -239l-70 -152l23 -45l448 239zM794 1776l-22 45l-449 -238l-69 -153l22 -45l449 239z" />
    <glyph glyph-name="uniFE71" unicode="&#xfe71;" horiz-adv-x="1051" vert-adv-y="2457" arabic-form="medial" 
d="M791 1294l-23 45l-449 -239l-66 -146l22 -46l449 239zM798 1584l-23 45l-448 -239l-67 -147l23 -45l448 239zM1125 319h-1085l-114 -319h1085z" />
    <glyph glyph-name="uniFE72" unicode="&#xfe72;" horiz-adv-x="0" vert-adv-y="2457" arabic-form="isolated" 
d="M754 1391q24 72 24 133q0 109 -54 159q-33 30 -81 30q-86 0 -154 -93q-60 -82 -60 -159q0 -94 138 -136q-78 -52 -196 -60q3 23 3 36q0 62 -29 111q-43 74 -136 74q-40 0 -103 -17l24 -135q45 13 74 13q96 0 96 -137q0 -23 -6 -49l32 -25q104 10 190 35q121 35 184 114
l92 -28l62 106zM662 1418q-142 48 -142 99q0 33 25 57q21 19 50 19q72 0 72 -119q0 -23 -5 -56z" />
    <glyph glyph-name="uniFE74" unicode="&#xfe74;" horiz-adv-x="0" vert-adv-y="2457" arabic-form="isolated" 
d="M787 -462l-23 45l-448 -238l-70 -153l23 -45l448 239zM794 -167l-22 45l-449 -238l-69 -153l22 -45l449 239z" />
    <glyph glyph-name="uniFE76" unicode="&#xfe76;" horiz-adv-x="0" vert-adv-y="2457" arabic-form="isolated" 
d="M798 1567l-23 45l-448 -239l-70 -152l23 -45l448 239z" />
    <glyph glyph-name="uniFE77" unicode="&#xfe77;" horiz-adv-x="1051" vert-adv-y="2457" arabic-form="medial" 
d="M794 1407l-22 45l-449 -239l-67 -147l23 -45l449 239zM1125 319h-1085l-114 -319h1085z" />
    <glyph glyph-name="uniFE78" unicode="&#xfe78;" horiz-adv-x="0" vert-adv-y="2457" arabic-form="isolated" 
d="M507 1332q-95 -35 -175 -56l-54 -111l13 -41q131 34 211 72t132 99l85 -26l74 100l-100 29q26 73 26 132q0 81 -34 135q-35 54 -95 54q-68 0 -135 -61q-86 -80 -86 -179q0 -75 61 -112q26 -16 77 -35zM604 1424q-146 40 -146 94q0 29 24 53q25 26 60 26q36 0 54 -45
q14 -36 14 -80q0 -27 -6 -48z" />
    <glyph glyph-name="uniFE79" unicode="&#xfe79;" horiz-adv-x="1051" vert-adv-y="2457" arabic-form="medial" 
d="M1125 319h-1085l-114 -319h1085zM497 1152q-95 -35 -175 -56l-54 -111l13 -41q130 34 211 72q80 38 132 98l85 -26l74 101l-100 29q25 72 25 132q0 81 -34 135t-94 54q-69 0 -135 -62q-86 -80 -86 -179q0 -74 61 -111q26 -16 77 -35zM594 1244q-146 40 -146 93
q0 30 23 54q26 26 61 26q36 0 54 -45q13 -36 13 -80q0 -28 -5 -48z" />
    <glyph glyph-name="uniFE7A" unicode="&#xfe7a;" horiz-adv-x="0" vert-adv-y="2457" arabic-form="isolated" 
d="M783 -189l-23 45l-448 -239l-70 -152l23 -46l448 239z" />
    <glyph glyph-name="uniFE7B" unicode="&#xfe7b;" horiz-adv-x="1051" vert-adv-y="2457" arabic-form="medial" 
d="M796 -189l-23 45l-448 -239l-70 -152l23 -46l448 239zM1125 319h-1085l-114 -319h1085z" />
    <glyph glyph-name="uniFE7C" unicode="&#xfe7c;" horiz-adv-x="0" vert-adv-y="2457" arabic-form="isolated" 
d="M798 1628l-95 6q-2 -41 -2 -53q0 -32 8 -85q6 -42 6 -63q0 -70 -68 -70q-40 0 -61 27q-17 23 -37 114q-15 71 -31 129l-88 -15q22 -148 22 -191q0 -65 -64 -65q-78 0 -98 103q-13 64 -23 168l-91 -15q0 -166 23 -278q34 -163 189 -163q114 0 149 97q45 -97 156 -97
q75 0 119 49q42 48 42 125q0 48 -31 149q-24 76 -25 128z" />
    <glyph glyph-name="uniFE7D" unicode="&#xfe7d;" horiz-adv-x="1051" vert-adv-y="2457" arabic-form="medial" 
d="M1125 319h-1085l-114 -319h1085zM809 1448l-95 5q-3 -40 -3 -53q0 -32 8 -85q6 -41 6 -63q0 -69 -67 -69q-41 0 -61 27q-17 23 -37 115q-16 71 -31 128l-89 -15q22 -149 22 -191q0 -65 -64 -65q-77 0 -98 103q-12 64 -22 168l-91 -15q0 -166 23 -279q33 -162 189 -162
q114 0 149 97q45 -97 156 -97q75 0 118 49q42 48 42 124q0 49 -31 149q-23 77 -24 129z" />
    <glyph glyph-name="uniFE7E" unicode="&#xfe7e;" horiz-adv-x="0" vert-adv-y="2457" arabic-form="isolated" 
d="M475 1133q133 0 206 97q80 106 80 208q0 79 -69 150q-92 97 -178 97q-75 0 -152 -113q-95 -139 -95 -238q0 -86 57 -143q58 -58 151 -58zM385 1467q31 59 80 59q72 0 130 -76q36 -48 44 -109q-53 -51 -118 -51q-74 0 -111 65q-25 44 -25 96v16z" />
    <glyph glyph-name="uniFE7F" unicode="&#xfe7f;" horiz-adv-x="1051" vert-adv-y="2457" arabic-form="medial" 
d="M1125 319h-1085l-114 -319h1085zM487 953q132 0 206 97q80 106 80 208q0 78 -69 150q-93 97 -179 97q-75 0 -152 -113q-95 -139 -95 -238q0 -86 57 -143q58 -58 152 -58zM397 1286q31 60 80 60q71 0 129 -76q36 -48 44 -109q-53 -51 -118 -51q-73 0 -111 65
q-25 44 -25 96q0 5 1 15z" />
    <glyph glyph-name="uniFE80" unicode="&#x621;" horiz-adv-x="692" vert-adv-y="2457" arabic-form="isolated" 
d="M725 497l-28 52q-77 -23 -227 -81q-189 24 -239 105q48 46 118 46q81 0 125 -52l43 6q33 79 33 123q0 54 -38 88q-41 37 -115 37q-141 0 -240 -154q-65 -101 -65 -187q0 -81 119 -146l-91 -49l-69 -154l20 -59q266 188 571 273z" />
    <glyph glyph-name="uniFE81" unicode="&#x622;" horiz-adv-x="691" vert-adv-y="2457" arabic-form="isolated" 
d="M13 1475l77 -46l65 114q117 -60 201 -60q103 0 184 106q32 40 79 114l-55 44q-82 -93 -154 -93q-105 0 -263 93zM443 905l98 129q-67 49 -92 98q-37 70 -57 212h-67l-170 -282q28 -115 70 -372q59 -357 59 -534q0 -62 -7 -168l69 -5l81 130q54 88 54 223q0 172 -34 527z
" />
    <glyph glyph-name="uniFE82" unicode="&#x622;" horiz-adv-x="763" vert-adv-y="2457" arabic-form="final" 
d="M719 0l114 319h-114q-117 0 -157 25q-53 32 -60 140q-5 63 -11 323q-5 180 -10 233q-14 165 -91 291l-62 -15l-165 -271q56 -50 71 -131q13 -73 40 -425q16 -215 39 -302q29 -112 111 -154q64 -33 191 -33h104zM40 1475l77 -46l65 114q117 -60 201 -60q103 0 184 106
q32 40 79 114l-55 44q-82 -93 -154 -93q-105 0 -263 93z" />
    <glyph glyph-name="uniFE83" unicode="&#x623;" horiz-adv-x="691" vert-adv-y="2457" arabic-form="isolated" 
d="M443 905l98 129q-67 49 -93 98q-36 70 -56 212h-67l-170 -282q28 -115 70 -372q59 -357 59 -534q0 -62 -7 -168l69 -5l80 130q55 88 55 223q0 172 -34 527zM543 1619l-22 40q-57 -16 -145 -50q-148 10 -183 75q39 44 101 44q54 0 84 -36l31 5q22 50 22 81q0 34 -25 56
q-29 26 -82 26q-86 0 -153 -78q-70 -81 -70 -154q0 -68 102 -105l-78 -42l-51 -100l21 -48q189 129 391 183z" />
    <glyph glyph-name="uniFE84" unicode="&#x623;" horiz-adv-x="762" vert-adv-y="2457" arabic-form="final" 
d="M720 0l114 319h-114q-117 0 -157 25q-53 32 -61 140q-4 63 -11 323q-4 180 -9 233q-14 165 -91 291l-62 -15l-166 -271q57 -50 72 -131q13 -73 40 -425q16 -215 39 -302q29 -112 110 -154q64 -33 191 -33h105zM571 1619l-22 40q-57 -16 -145 -50q-148 10 -183 75
q39 44 101 44q54 0 84 -36l31 5q22 50 22 81q0 34 -25 56q-29 26 -82 26q-86 0 -153 -78q-70 -81 -70 -154q0 -68 102 -105l-78 -42l-51 -100l21 -48q189 129 391 183z" />
    <glyph glyph-name="uniFE85" unicode="&#x624;" horiz-adv-x="1256" vert-adv-y="2457" arabic-form="isolated" 
d="M-52 -106l-68 -40q33 -185 73 -258q106 -199 338 -199q317 0 543 310q211 290 211 665q0 228 -93 395q-82 145 -197 145q-110 0 -229 -178q-151 -228 -151 -411q0 -308 460 -330q-37 -78 -105 -139q-172 -151 -400 -151q-227 0 -382 191zM868 299q-344 22 -344 185
q0 65 44 108q29 29 70 29q103 0 176 -150q36 -72 54 -172zM870 1238l-22 40q-57 -16 -145 -50q-148 10 -183 75q39 44 101 44q54 0 83 -36l32 5q22 50 22 81q0 34 -25 56q-29 26 -83 26q-85 0 -152 -78q-70 -81 -70 -154q0 -68 102 -105l-78 -42l-51 -100l20 -48
q190 129 391 183z" />
    <glyph glyph-name="uniFE86" unicode="&#x624;" horiz-adv-x="1236" vert-adv-y="2457" arabic-form="final" 
d="M1044 319q2 34 2 56q0 215 -81 371q-88 171 -211 171q-107 0 -228 -179q-153 -225 -153 -411q0 -210 215 -284q98 -33 247 -40q-41 -85 -115 -150q-168 -150 -392 -150q-232 0 -380 191l-68 -40q33 -185 73 -259q107 -198 339 -198q331 0 553 323q85 123 139 280h212
l113 319h-265zM868 307q-175 10 -247 46q-96 47 -96 134q0 67 44 110q29 28 69 28q105 0 179 -152q34 -68 51 -166zM870 1238l-22 40q-57 -16 -146 -50q-148 10 -183 75q40 44 102 44q54 0 83 -36l32 5q22 50 22 81q0 34 -26 56q-28 26 -82 26q-86 0 -153 -78
q-69 -81 -69 -154q0 -68 102 -105l-78 -42l-51 -100l20 -48q190 129 391 183z" />
    <glyph glyph-name="uniFE87" unicode="&#x625;" horiz-adv-x="691" vert-adv-y="2457" arabic-form="isolated" 
d="M139 1274q37 -166 82 -479q59 -414 59 -609q0 -102 -7 -200h61l138 239q5 77 5 166q0 245 -46 730l95 125q-86 62 -117 156q-19 58 -32 154h-68zM600 -379l-22 40q-57 -16 -145 -50q-148 10 -183 75q39 44 101 44q54 0 84 -35l31 5q22 49 22 81q0 33 -25 56
q-29 26 -82 26q-86 0 -153 -78q-70 -81 -70 -155q0 -68 102 -104l-78 -42l-51 -100l21 -49q189 130 391 184z" />
    <glyph glyph-name="uniFE88" unicode="&#x625;" horiz-adv-x="761" vert-adv-y="2457" arabic-form="final" 
d="M386 1569l-62 -17l-165 -319q36 -38 47 -71q29 -83 39 -222l13 -165q22 -363 30 -437q16 -163 58 -234q63 -104 263 -104h112l114 319h-133q-99 0 -138 22q-48 27 -57 131q-7 76 -12 322q-10 438 -21 509q-22 145 -88 266zM678 -379l-21 40q-57 -16 -146 -50
q-148 10 -183 75q39 44 102 44q53 0 83 -35l31 5q22 49 22 81q0 33 -25 56q-29 26 -82 26q-86 0 -153 -78q-69 -81 -69 -155q0 -68 101 -104l-78 -42l-51 -100l21 -49q189 130 391 184z" />
    <glyph glyph-name="uniFE89" unicode="&#x626;" horiz-adv-x="1869" vert-adv-y="2457" arabic-form="isolated" 
d="M1643 481l168 381q-28 28 -101 28q-175 0 -365 -112q-252 -150 -397 -408q-79 -139 -79 -224q0 -80 95 -111q38 -13 236 -47q186 -32 229 -55q-69 -76 -171 -116q-204 -78 -453 -78q-230 0 -332 80q-109 84 -109 265q0 299 286 694l-53 48q-146 -156 -249 -324
q-204 -336 -204 -625q0 -232 166 -355q141 -105 391 -105q257 0 476 88q263 106 394 338q76 133 76 249q0 69 -68 103q-93 48 -506 108q49 80 163 157q168 114 280 114q54 0 54 -54q0 -10 -3 -29zM1434 1238l-21 40q-57 -16 -146 -50q-148 10 -183 75q39 44 102 44
q53 0 83 -36l31 5q22 50 22 81q0 34 -25 56q-29 26 -82 26q-86 0 -153 -78q-69 -81 -69 -154q0 -68 101 -105l-78 -42l-51 -100l21 -48q189 129 391 183z" />
    <glyph glyph-name="uniFE8A" unicode="&#x626;" horiz-adv-x="1497" vert-adv-y="2457" arabic-form="final" 
d="M1571 319h-251q-151 0 -219 -44q-81 -53 -148 -198q-57 -124 -63 -171q-10 -77 117 -115q70 -22 169 -38q-40 -67 -260 -67q-248 0 -387 76q-68 37 -112 112q-53 92 -53 210q0 281 276 701l-59 46q-101 -112 -190 -256q-247 -400 -247 -701q0 -208 123 -332
q144 -146 445 -146q289 0 495 111q91 48 139 134q26 44 26 102q0 83 -61 125q-41 29 -139 45q-82 14 -110 26q-24 10 -24 29q0 32 58 32h361zM1371 1238l-22 40q-57 -16 -145 -50q-148 10 -183 75q39 44 101 44q54 0 84 -36l31 5q22 50 22 81q0 34 -25 56q-29 26 -83 26
q-85 0 -152 -78q-70 -81 -70 -154q0 -68 102 -105l-78 -42l-51 -100l21 -48q189 129 391 183z" />
    <glyph glyph-name="uniFE8B" unicode="&#x626;" horiz-adv-x="805" vert-adv-y="2457" arabic-form="initial" 
d="M-74 0h85q259 0 400 75q83 43 139 142q62 109 62 232q0 226 -194 502l-73 -37l-117 -297q133 -132 184 -268q-122 -30 -320 -30h-52zM516 1238l-22 40q-57 -16 -145 -50q-148 10 -183 75q39 44 101 44q54 0 84 -36l31 5q22 50 22 81q0 34 -25 56q-29 26 -82 26
q-86 0 -153 -78q-70 -81 -70 -154q0 -68 102 -105l-78 -42l-51 -100l21 -48q189 129 391 183z" />
    <glyph glyph-name="uniFE8C" unicode="&#x626;" horiz-adv-x="888" vert-adv-y="2457" arabic-form="medial" 
d="M-74 0h82q175 0 307 37q93 26 158 89q48 -71 102 -93q84 -33 216 -33h57l113 319h-71q-139 0 -205 36q-47 25 -68 137q-34 171 -95 290q-40 79 -104 169l-73 -37l-117 -297q131 -133 182 -266q-122 -32 -320 -32h-50zM516 1238l-22 40q-57 -16 -145 -50q-148 10 -183 75
q39 44 101 44q54 0 84 -36l31 5q22 50 22 81q0 34 -25 56q-29 26 -82 26q-86 0 -153 -78q-70 -81 -70 -154q0 -68 102 -105l-78 -42l-51 -100l21 -48q189 129 391 183z" />
    <glyph glyph-name="uniFE8D" unicode="&#x627;" horiz-adv-x="691" vert-adv-y="2457" arabic-form="isolated" 
d="M139 1274q37 -166 82 -479q59 -414 59 -609q0 -102 -8 -200h61l139 239q4 77 4 166q0 245 -45 730l95 125q-86 62 -117 156q-19 58 -32 154h-68z" />
    <glyph glyph-name="uniFE8E" unicode="&#x627;" horiz-adv-x="761" vert-adv-y="2457" arabic-form="final" 
d="M386 1569l-62 -17l-165 -319q36 -38 47 -71q29 -83 39 -222l13 -165q22 -363 30 -437q16 -163 58 -234q63 -104 263 -104h112l114 319h-133q-99 0 -138 22q-48 27 -57 131q-7 76 -12 322q-10 438 -21 509q-22 145 -88 266z" />
    <glyph glyph-name="uniFE8F" unicode="&#x628;" horiz-adv-x="2060" vert-adv-y="2457" arabic-form="isolated" 
d="M1030 -141l-215 -216l215 -216l216 216zM414 813q-221 -309 -221 -525q0 -172 135 -244q160 -86 500 -86q333 0 583 40q199 32 305 127q152 136 152 343q0 216 -195 483l-72 -37l-118 -298q132 -116 187 -260q-99 -34 -220 -47q-265 -30 -510 -30q-313 0 -451 74
q-89 48 -89 162q0 110 75 260z" />
    <glyph glyph-name="uniFE90" unicode="&#x628;" horiz-adv-x="2139" vert-adv-y="2457" arabic-form="final" 
d="M2100 0l114 319h-71q-134 0 -200 33q-54 26 -73 137q-28 160 -87 280q-41 83 -111 182l-74 -37l-117 -298q131 -117 189 -260q-91 -33 -219 -47q-266 -30 -511 -30q-313 0 -451 74q-89 48 -89 162q0 110 75 260l-61 38q-221 -309 -221 -525q0 -172 135 -244
q160 -86 500 -86q214 0 468 29q237 26 342 80q44 23 86 63q42 -67 91 -91q78 -39 228 -39h57zM1030 -154l-215 -217l215 -216l216 216z" />
    <glyph glyph-name="uniFE91" unicode="&#x628;" horiz-adv-x="805" vert-adv-y="2457" arabic-form="initial" 
d="M-74 0h85q259 0 400 75q83 43 139 142q62 109 62 232q0 226 -194 502l-73 -37l-117 -297q133 -132 184 -268q-122 -30 -320 -30h-52zM324 -141l-215 -216l215 -216l216 216z" />
    <glyph glyph-name="uniFE92" unicode="&#x628;" horiz-adv-x="888" vert-adv-y="2457" arabic-form="medial" 
d="M-74 0h82q175 0 307 37q93 26 158 89q48 -71 102 -93q84 -33 216 -33h57l113 319h-71q-139 0 -205 36q-47 25 -68 137q-34 171 -95 290q-40 79 -104 169l-73 -37l-117 -297q131 -133 182 -266q-122 -32 -320 -32h-50zM324 -141l-215 -216l215 -216l216 216z" />
    <glyph glyph-name="uniFE93" unicode="&#x629;" horiz-adv-x="1228" vert-adv-y="2457" arabic-form="isolated" 
d="M565 1348l-190 191l-204 -205l204 -204l190 191l191 -191l204 204l-204 205zM398 738q-76 -76 -125 -157q-94 -156 -94 -299q0 -173 135 -250q114 -67 301 -67q184 0 262 89q67 76 121 206q48 119 48 200q0 136 -151 266q-125 107 -415 290l-41 -12l-112 -213zM487 651
q181 -125 270 -208q69 -64 100 -147q-54 -25 -136 -25q-158 0 -251 49q-86 46 -86 137q0 90 103 194z" />
    <glyph glyph-name="uniFE94" unicode="&#x629;" horiz-adv-x="1216" vert-adv-y="2457" arabic-form="final" 
d="M684 1596l-191 191l-204 -204l204 -205l191 192l191 -192l204 205l-204 204zM704 962q-67 -79 -127 -131q-100 -86 -267 -165q-70 -33 -83 -79l-83 -298q278 -118 415 -250l145 253q-128 142 -345 229q219 88 368 244l6 -88q23 -344 34 -418q26 -164 136 -224
q65 -35 178 -35h91l116 319h-103q-134 0 -180 63q-41 57 -53 257q-5 89 -14 349q-5 169 -12 313l-63 -5l-184 -195q13 -53 25 -139z" />
    <glyph glyph-name="uniFE95" unicode="&#x62a;" horiz-adv-x="2060" vert-adv-y="2457" arabic-form="isolated" 
d="M1030 1251l-191 191l-204 -205l204 -204l191 191l190 -191l204 204l-204 205zM414 813q-221 -309 -221 -525q0 -172 135 -244q160 -86 500 -86q333 0 583 40q199 32 305 127q152 136 152 343q0 216 -195 483l-72 -37l-118 -298q132 -116 187 -260q-99 -34 -220 -47
q-265 -30 -510 -30q-313 0 -451 74q-89 48 -89 162q0 110 75 260z" />
    <glyph glyph-name="uniFE96" unicode="&#x62a;" horiz-adv-x="2139" vert-adv-y="2457" arabic-form="final" 
d="M1060 1251l-191 191l-204 -205l204 -204l191 191l191 -191l204 204l-204 205zM2100 0l114 319h-71q-134 0 -200 33q-54 26 -73 137q-28 160 -87 280q-41 83 -111 182l-74 -37l-117 -298q131 -117 189 -260q-91 -33 -219 -47q-266 -30 -511 -30q-313 0 -451 74
q-89 48 -89 162q0 110 75 260l-61 38q-221 -309 -221 -525q0 -172 135 -244q160 -86 500 -86q214 0 468 29q237 26 342 80q44 23 86 63q42 -67 91 -91q78 -39 228 -39h57z" />
    <glyph glyph-name="uniFE97" unicode="&#x62a;" horiz-adv-x="804" vert-adv-y="2457" arabic-form="initial" 
d="M-74 0h84q260 0 401 75q82 43 139 142q62 109 62 232q0 226 -194 502l-73 -37l-117 -297q133 -132 183 -268q-121 -30 -319 -30h-52zM317 1251l-191 191l-204 -205l204 -204l191 191l190 -191l204 204l-204 205z" />
    <glyph glyph-name="uniFE98" unicode="&#x62a;" horiz-adv-x="888" vert-adv-y="2457" arabic-form="medial" 
d="M317 1251l-191 191l-204 -205l204 -204l191 191l190 -191l204 204l-204 205zM-74 0h82q175 0 306 37q94 26 159 89q48 -71 102 -93q84 -33 215 -33h58l113 319h-71q-139 0 -205 36q-47 25 -69 137q-33 171 -94 290q-40 79 -104 169l-73 -37l-117 -297q131 -133 182 -266
q-122 -32 -321 -32h-49z" />
    <glyph glyph-name="uniFE99" unicode="&#x62b;" horiz-adv-x="2060" vert-adv-y="2457" arabic-form="isolated" 
d="M1030 1218l191 -191l198 198l-198 198l-191 -191l-192 191l-198 -198l198 -198zM1030 1761l-192 -193l192 -194l191 194zM414 813q-221 -309 -221 -525q0 -172 135 -244q160 -86 500 -86q333 0 583 40q199 32 305 127q152 136 152 343q0 216 -195 483l-72 -37l-118 -298
q132 -116 187 -260q-99 -34 -220 -47q-265 -30 -510 -30q-313 0 -451 74q-89 48 -89 162q0 110 75 260z" />
    <glyph glyph-name="uniFE9A" unicode="&#x62b;" horiz-adv-x="2139" vert-adv-y="2457" arabic-form="final" 
d="M1060 1218l192 -191l198 198l-198 198l-192 -191l-191 191l-198 -198l198 -198zM1060 1761l-191 -193l191 -194l192 194zM2100 0l114 319h-71q-134 0 -200 33q-54 26 -73 137q-28 160 -87 280q-41 83 -111 182l-74 -37l-117 -298q131 -117 189 -260q-91 -33 -219 -47
q-266 -30 -511 -30q-313 0 -451 74q-89 48 -89 162q0 110 75 260l-61 38q-221 -309 -221 -525q0 -172 135 -244q160 -86 500 -86q214 0 468 29q237 26 342 80q44 23 86 63q42 -67 91 -91q78 -39 228 -39h57z" />
    <glyph glyph-name="uniFE9B" unicode="&#x62b;" horiz-adv-x="805" vert-adv-y="2457" arabic-form="initial" 
d="M-74 0h85q259 0 400 75q83 43 139 142q62 109 62 232q0 226 -194 502l-73 -37l-117 -297q133 -132 184 -268q-122 -30 -320 -30h-52zM317 1218l191 -191l198 198l-198 198l-191 -191l-192 191l-198 -198l198 -198zM317 1761l-192 -193l192 -194l191 194z" />
    <glyph glyph-name="uniFE9C" unicode="&#x62b;" horiz-adv-x="893" vert-adv-y="2457" arabic-form="medial" 
d="M317 1218l191 -191l198 198l-198 198l-191 -191l-192 191l-198 -198l198 -198zM317 1761l-192 -193l192 -194l191 194zM-74 0h82q175 0 307 37q93 26 158 89q48 -71 102 -93q84 -33 216 -33h57l113 319h-71q-139 0 -205 36q-47 25 -68 137q-34 171 -95 290
q-40 79 -104 169l-73 -37l-117 -297q131 -133 182 -266q-122 -32 -320 -32h-50z" />
    <glyph glyph-name="uniFE9D" unicode="&#x62c;" horiz-adv-x="1606" vert-adv-y="2457" arabic-form="isolated" 
d="M978 73l-216 -216l216 -216l216 216zM1474 659q-119 3 -197 18q-105 19 -286 123q-123 70 -167 91q-83 38 -163 38q-172 0 -307 -196q-52 -75 -113 -197l66 -46q119 152 266 152q92 0 207 -54q27 -13 138 -70l25 -13q-291 -60 -445 -172q-137 -100 -215 -249
q-90 -170 -90 -373q0 -329 214 -504q180 -148 471 -148q388 0 586 249q67 84 121 206l-44 37q-260 -171 -569 -171q-236 0 -386 95q-186 117 -186 355q0 302 293 448q229 114 614 114q3 0 32 -1q89 133 135 268z" />
    <glyph glyph-name="uniFE9E" unicode="&#x62c;" horiz-adv-x="1657" vert-adv-y="2457" arabic-form="final" 
d="M882 54l-216 -216l216 -216l215 216zM1616 0l114 319h-226q-135 0 -188 21q-49 20 -45 78q0 4 1 11q64 8 162 12q89 134 131 275q-40 -2 -58 -2q-173 0 -453 106q-175 66 -221 80q-90 28 -168 28q-110 0 -190 -61q-111 -85 -234 -331l66 -46q41 53 77 83q82 69 199 69
q128 0 288 -56q54 -18 108 -47q-243 -41 -398 -125q-178 -97 -276 -259q-116 -191 -116 -440q0 -396 295 -564q162 -92 394 -92q423 0 625 267q46 59 113 188l-45 37q-278 -171 -600 -171q-221 0 -369 82q-205 116 -205 372q0 219 154 370q184 180 563 210
q-22 -101 -22 -181q0 -233 325 -233h199z" />
    <glyph glyph-name="uniFE9F" unicode="&#x62c;" horiz-adv-x="1684" vert-adv-y="2457" arabic-form="initial" 
d="M710 -141l-216 -216l216 -216l215 216zM-74 0h191q370 0 623 33q91 12 299 52q65 12 109 12q89 0 262 -83l166 287q-118 34 -209 83q-130 69 -336 266q-149 144 -193 177q-134 100 -256 100q-140 0 -256 -143q-66 -81 -142 -224l65 -46q122 132 248 132q87 0 178 -65
q45 -31 155 -133q54 -50 97 -86q-273 -43 -696 -43h-191z" />
    <glyph glyph-name="uniFEA0" unicode="&#x62c;" horiz-adv-x="1446" vert-adv-y="2457" arabic-form="medial" 
d="M617 -141l-215 -216l215 -216l216 216zM-74 0h855q187 0 255 22q47 16 91 53q99 -75 242 -75h37l114 319h-36q-110 0 -184 51q-63 42 -205 202q-159 178 -232 241q-126 110 -253 110q-158 0 -287 -159q-50 -62 -127 -201l65 -44q15 13 71 62q69 62 166 62q84 0 163 -59
q76 -56 186 -173q54 -58 87 -92h-894z" />
    <glyph glyph-name="uniFEA1" unicode="&#x62d;" horiz-adv-x="1606" vert-adv-y="2457" arabic-form="isolated" 
d="M1474 659q-119 3 -197 18q-105 19 -286 123q-123 70 -167 91q-83 38 -163 38q-172 0 -307 -196q-52 -75 -113 -197l66 -46q119 152 266 152q92 0 207 -54q27 -13 138 -70l25 -13q-291 -60 -445 -172q-137 -100 -215 -249q-90 -170 -90 -373q0 -329 214 -504
q180 -148 471 -148q388 0 586 249q67 84 121 206l-44 37q-260 -171 -569 -171q-236 0 -386 95q-186 117 -186 355q0 302 293 448q229 114 614 114q3 0 32 -1q89 133 135 268z" />
    <glyph glyph-name="uniFEA2" unicode="&#x62d;" horiz-adv-x="1657" vert-adv-y="2457" arabic-form="final" 
d="M1616 0l114 319h-226q-135 0 -188 21q-49 20 -45 78q0 4 1 11q64 8 162 12q89 134 131 275q-40 -2 -58 -2q-173 0 -453 106q-175 66 -221 80q-90 28 -168 28q-110 0 -190 -61q-111 -85 -234 -331l66 -46q41 53 77 83q82 69 199 69q128 0 288 -56q54 -18 108 -47
q-243 -41 -398 -125q-178 -97 -276 -259q-116 -191 -116 -440q0 -396 295 -564q162 -92 394 -92q423 0 625 267q46 59 113 188l-45 37q-278 -171 -600 -171q-221 0 -369 82q-205 116 -205 372q0 219 154 370q184 180 563 210q-22 -101 -22 -181q0 -233 325 -233h199z" />
    <glyph glyph-name="uniFEA3" unicode="&#x62d;" horiz-adv-x="1684" vert-adv-y="2457" arabic-form="initial" 
d="M-74 0h191q370 0 623 33q91 12 299 52q65 12 109 12q89 0 262 -83l166 287q-118 34 -209 83q-130 69 -336 266q-149 144 -193 177q-134 100 -256 100q-140 0 -256 -143q-66 -81 -142 -224l65 -46q122 132 248 132q87 0 178 -65q45 -31 155 -133q54 -50 97 -86
q-273 -43 -696 -43h-191z" />
    <glyph glyph-name="uniFEA4" unicode="&#x62d;" horiz-adv-x="1446" vert-adv-y="2457" arabic-form="medial" 
d="M-74 0h855q187 0 255 22q47 16 91 53q99 -75 242 -75h37l114 319h-36q-110 0 -184 51q-63 42 -205 202q-159 178 -232 241q-126 110 -253 110q-158 0 -287 -159q-50 -62 -127 -201l65 -44q15 13 71 62q69 62 166 62q84 0 163 -59q76 -56 186 -173q54 -58 87 -92h-894z
" />
    <glyph glyph-name="uniFEA5" unicode="&#x62e;" horiz-adv-x="1606" vert-adv-y="2457" arabic-form="isolated" 
d="M852 1551l-216 -216l216 -216l216 216zM1474 659q-119 3 -197 18q-105 19 -286 123q-123 70 -167 91q-83 38 -163 38q-172 0 -307 -196q-52 -75 -113 -197l66 -46q119 152 266 152q92 0 207 -54q27 -13 138 -70l25 -13q-291 -60 -445 -172q-137 -100 -215 -249
q-90 -170 -90 -373q0 -329 214 -504q180 -148 471 -148q388 0 586 249q67 84 121 206l-44 37q-260 -171 -569 -171q-236 0 -386 95q-186 117 -186 355q0 302 293 448q229 114 614 114q3 0 32 -1q89 133 135 268z" />
    <glyph glyph-name="uniFEA6" unicode="&#x62e;" horiz-adv-x="1657" vert-adv-y="2457" arabic-form="final" 
d="M931 1551l-216 -216l216 -216l216 216zM1616 0l114 319h-226q-135 0 -188 21q-49 20 -45 78q0 4 1 11q64 8 162 12q89 134 131 275q-40 -2 -58 -2q-173 0 -453 106q-175 66 -221 80q-90 28 -168 28q-110 0 -190 -61q-111 -85 -234 -331l66 -46q41 53 77 83q82 69 199 69
q128 0 288 -56q54 -18 108 -47q-243 -41 -398 -125q-178 -97 -276 -259q-116 -191 -116 -440q0 -396 295 -564q162 -92 394 -92q423 0 625 267q46 59 113 188l-45 37q-278 -171 -600 -171q-221 0 -369 82q-205 116 -205 372q0 219 154 370q184 180 563 210
q-22 -101 -22 -181q0 -233 325 -233h199z" />
    <glyph glyph-name="uniFEA7" unicode="&#x62e;" horiz-adv-x="1684" vert-adv-y="2457" arabic-form="initial" 
d="M640 1551l-215 -216l215 -216l216 216zM-74 0h191q370 0 623 33q91 12 299 52q65 12 109 12q89 0 262 -83l166 287q-118 34 -209 83q-130 69 -336 266q-149 144 -193 177q-134 100 -256 100q-140 0 -256 -143q-66 -81 -142 -224l65 -46q122 132 248 132q87 0 178 -65
q45 -31 155 -133q54 -50 97 -86q-273 -43 -696 -43h-191z" />
    <glyph glyph-name="uniFEA8" unicode="&#x62e;" horiz-adv-x="1446" vert-adv-y="2457" arabic-form="medial" 
d="M611 1551l-216 -216l216 -216l215 216zM-74 0h855q187 0 255 22q47 16 91 53q99 -75 242 -75h37l114 319h-36q-110 0 -184 51q-63 42 -205 202q-159 178 -232 241q-126 110 -253 110q-158 0 -287 -159q-50 -62 -127 -201l65 -44q15 13 71 62q69 62 166 62q84 0 163 -59
q76 -56 186 -173q54 -58 87 -92h-894z" />
    <glyph glyph-name="uniFEA9" unicode="&#x62f;" horiz-adv-x="1452" vert-adv-y="2457" arabic-form="isolated" 
d="M343 542q-151 -250 -151 -392q0 -122 88 -168q67 -36 218 -36q401 0 553 92q83 51 143 157q61 109 61 234q0 297 -289 706l-73 -37l-120 -298q203 -219 287 -489q-219 -44 -465 -44q-125 0 -167 24q-48 27 -48 99q0 54 26 132z" />
    <glyph glyph-name="uniFEAA" unicode="&#x62f;" horiz-adv-x="1523" vert-adv-y="2457" arabic-form="final" 
d="M966 1135l-73 -37l-120 -298q203 -219 287 -489q-192 -44 -437 -44q-143 0 -194 26q-49 25 -49 97q0 54 26 132l-63 20q-151 -250 -151 -392q0 -119 88 -169q65 -36 225 -36q366 0 511 63q62 27 115 86q41 -47 85 -64q81 -30 211 -30h57l113 319h-61q-148 0 -214 38
q-47 27 -69 144q-36 197 -103 333q-65 132 -184 301z" />
    <glyph glyph-name="uniFEAB" unicode="&#x630;" horiz-adv-x="1452" vert-adv-y="2457" arabic-form="isolated" 
d="M791 1690l-216 -216l216 -216l215 216zM343 542q-151 -250 -151 -392q0 -122 88 -168q67 -36 218 -36q401 0 553 92q83 51 143 157q61 109 61 234q0 297 -289 706l-73 -37l-120 -298q203 -219 287 -489q-219 -44 -465 -44q-125 0 -167 24q-48 27 -48 99q0 54 26 132z" />
    <glyph glyph-name="uniFEAC" unicode="&#x630;" horiz-adv-x="1523" vert-adv-y="2457" arabic-form="final" 
d="M781 1690l-216 -216l216 -216l215 216zM966 1135l-73 -37l-120 -298q203 -219 287 -489q-192 -44 -437 -44q-143 0 -194 26q-49 25 -49 97q0 54 26 132l-63 20q-151 -250 -151 -392q0 -119 88 -169q65 -36 225 -36q366 0 511 63q62 27 115 86q41 -47 85 -64
q81 -30 211 -30h57l113 319h-61q-148 0 -214 38q-47 27 -69 144q-36 197 -103 333q-65 132 -184 301z" />
    <glyph glyph-name="uniFEAD" unicode="&#x631;" horiz-adv-x="1172" vert-adv-y="2457" arabic-form="isolated" 
d="M639 891l-118 -298q101 -117 170 -232q105 -177 105 -268q0 -75 -80 -153q-100 -98 -256 -143q-87 -24 -179 -24q-210 0 -354 141l-55 -38q42 -159 103 -256q104 -167 285 -167q258 0 497 302q121 153 194 308q57 123 57 202q0 153 -156 438q-58 104 -140 225z" />
    <glyph glyph-name="uniFEAE" unicode="&#x631;" horiz-adv-x="1198" vert-adv-y="2457" arabic-form="final" 
d="M1159 0l113 319h-39q-118 0 -191 28q-43 17 -67 80q-78 200 -134 299q-48 83 -129 202l-73 -37l-118 -298q103 -119 173 -238q102 -173 102 -262q0 -75 -80 -153q-100 -98 -256 -143q-87 -24 -179 -24q-210 0 -354 141l-55 -38q42 -161 105 -260q104 -163 283 -163
q261 0 502 308q94 119 169 264q80 -25 174 -25h54z" />
    <glyph glyph-name="uniFEAF" unicode="&#x632;" horiz-adv-x="1172" vert-adv-y="2457" arabic-form="isolated" 
d="M514 1452l-213 -214l213 -214l214 214zM639 891l-118 -298q101 -117 170 -232q105 -177 105 -268q0 -75 -80 -153q-100 -98 -256 -143q-87 -24 -179 -24q-210 0 -354 141l-55 -38q42 -159 103 -256q104 -167 285 -167q258 0 497 302q121 153 194 308q57 123 57 202
q0 153 -156 438q-58 104 -140 225z" />
    <glyph glyph-name="uniFEB0" unicode="&#x632;" horiz-adv-x="1198" vert-adv-y="2457" arabic-form="final" 
d="M546 1452l-214 -214l214 -214l213 214zM1159 0l113 319h-39q-118 0 -191 28q-43 17 -67 80q-78 200 -134 299q-48 83 -129 202l-73 -37l-118 -298q103 -119 173 -238q102 -173 102 -262q0 -75 -80 -153q-100 -98 -256 -143q-87 -24 -179 -24q-210 0 -354 141l-55 -38
q42 -161 105 -260q104 -163 283 -163q261 0 502 308q94 119 169 264q80 -25 174 -25h54z" />
    <glyph glyph-name="uniFEB1" unicode="&#x633;" horiz-adv-x="2747" vert-adv-y="2457" arabic-form="isolated" 
d="M1313 757l-66 -23l-131 -304q82 -135 126 -261q53 -152 53 -237q0 -7 -2 -23q-73 -58 -175 -97q-178 -68 -359 -68q-407 0 -407 302q0 151 88 315q48 91 115 189l-64 46q-103 -106 -177 -216q-190 -282 -190 -542q0 -234 184 -340q131 -75 334 -75q281 0 503 123
q258 143 333 454h42q141 0 198 23q40 17 76 66q165 -98 368 -98q182 0 255 82q77 86 114 208q24 82 24 159q0 168 -108 484l-78 -18l-130 -303q73 -159 99 -284q-37 -6 -79 -6q-171 0 -322 45q40 105 40 217q0 81 -32 189l-68 -13l-144 -261q27 -69 33 -147
q-99 -24 -228 -24h-58q-39 203 -167 438z" />
    <glyph glyph-name="uniFEB2" unicode="&#x633;" horiz-adv-x="2828" vert-adv-y="2457" arabic-form="final" 
d="M1766 343q-99 -24 -228 -24h-58q-39 203 -167 438l-66 -23l-131 -304q82 -135 126 -261q53 -152 53 -237q0 -7 -2 -23q-73 -58 -175 -97q-178 -68 -359 -68q-407 0 -407 302q0 151 88 315q48 91 115 189l-64 46q-103 -106 -177 -216q-190 -282 -190 -542q0 -234 184 -340
q131 -75 334 -75q281 0 503 123q258 143 333 454h54q131 0 187 24q39 17 75 65q164 -98 368 -98q128 0 203 40q34 18 71 63q41 -49 86 -65q78 -29 201 -29h64l114 319h-72q-130 0 -197 29q-38 16 -55 62q-10 28 -24 108q-35 198 -106 406l-78 -18l-130 -303q73 -160 99 -284
q-37 -6 -79 -6q-174 0 -322 45q40 99 40 217q0 80 -32 189l-68 -12l-144 -262q27 -67 33 -147z" />
    <glyph glyph-name="uniFEB3" unicode="&#x633;" horiz-adv-x="1798" vert-adv-y="2457" arabic-form="initial" 
d="M451 323q59 148 59 289q0 73 -20 158l-71 -4l-175 -294q8 -54 7 -85q-1 -6 -4 -41q-1 -8 -3 -23q-21 -4 -61 -4h-143l-114 -319h222q111 0 169 66q36 -27 60 -38q58 -28 153 -28h53q131 0 188 24q38 17 73 65q165 -98 368 -98q180 0 257 81q75 79 112 209q24 85 24 159
q0 168 -107 484l-78 -18l-130 -303q73 -160 98 -284q-36 -6 -78 -6q-173 0 -322 45q40 99 40 217q0 80 -33 189l-67 -12l-144 -262q26 -67 32 -147q-102 -24 -246 -24q-48 0 -119 4z" />
    <glyph glyph-name="uniFEB4" unicode="&#x633;" horiz-adv-x="1879" vert-adv-y="2457" arabic-form="medial" 
d="M-74 0h222q111 0 169 66q39 -29 67 -42q56 -24 146 -24h53q131 0 187 24q39 17 74 65q165 -98 369 -98q128 0 202 40q35 18 71 63q41 -49 86 -65q79 -29 202 -29h64l114 319h-73q-129 0 -196 29q-38 16 -55 62q-11 28 -25 108q-35 198 -105 406l-78 -18l-130 -303
q73 -160 98 -284q-36 -6 -79 -6q-174 0 -321 45q40 99 40 217q0 80 -33 189l-67 -12l-144 -262q26 -67 32 -147q-102 -24 -246 -24q-48 0 -119 4q59 149 59 289q0 73 -20 158l-71 -4l-175 -294q7 -45 7 -92q0 -18 -7 -57q-20 -4 -42 -4h-162z" />
    <glyph glyph-name="uniFEB5" unicode="&#x634;" horiz-adv-x="2747" vert-adv-y="2457" arabic-form="isolated" 
d="M1884 1149l191 -192l198 199l-198 198l-191 -192l-192 192l-198 -198l198 -199zM1884 1692l-192 -193l192 -194l191 194zM1313 757l-66 -23l-131 -304q82 -135 126 -261q53 -152 53 -237q0 -7 -2 -23q-73 -58 -175 -97q-178 -68 -359 -68q-407 0 -407 302q0 151 88 315
q48 91 115 189l-64 46q-103 -106 -177 -216q-190 -282 -190 -542q0 -234 184 -340q131 -75 334 -75q281 0 503 123q258 143 333 454h42q141 0 198 23q40 17 76 66q165 -98 368 -98q182 0 255 82q77 86 114 208q24 82 24 159q0 168 -108 484l-78 -18l-130 -303
q73 -159 99 -284q-37 -6 -79 -6q-171 0 -322 45q40 105 40 217q0 81 -32 189l-68 -13l-144 -261q27 -69 33 -147q-99 -24 -228 -24h-58q-39 203 -167 438z" />
    <glyph glyph-name="uniFEB6" unicode="&#x634;" horiz-adv-x="2828" vert-adv-y="2457" arabic-form="final" 
d="M1900 1169l-193 193l-199 -199l199 -200l193 194l193 -194l199 200l-199 199zM1900 1700l-193 -195l193 -194l193 194zM1766 343q-99 -24 -228 -24h-58q-39 203 -167 438l-66 -23l-131 -304q82 -135 126 -261q53 -152 53 -237q0 -7 -2 -23q-73 -58 -175 -97
q-178 -68 -359 -68q-407 0 -407 302q0 151 88 315q48 91 115 189l-64 46q-103 -106 -177 -216q-190 -282 -190 -542q0 -234 184 -340q131 -75 334 -75q281 0 503 123q258 143 333 454h54q131 0 187 24q39 17 75 65q164 -98 368 -98q128 0 203 40q34 18 71 63q41 -49 86 -65
q78 -29 201 -29h64l114 319h-72q-130 0 -197 29q-38 16 -55 62q-10 28 -24 108q-35 198 -106 406l-78 -18l-130 -303q73 -160 99 -284q-37 -6 -79 -6q-174 0 -322 45q40 99 40 217q0 80 -32 189l-68 -12l-144 -262q27 -67 33 -147z" />
    <glyph glyph-name="uniFEB7" unicode="&#x634;" horiz-adv-x="1798" vert-adv-y="2457" arabic-form="initial" 
d="M934 1149l191 -192l199 199l-199 198l-191 -192l-191 192l-199 -198l199 -199zM934 1692l-191 -193l191 -194l191 194zM451 323q59 148 59 289q0 73 -20 158l-71 -4l-175 -294q8 -54 7 -85q-1 -6 -4 -41q-1 -8 -3 -23q-21 -4 -61 -4h-143l-114 -319h222q111 0 169 66
q36 -27 60 -38q58 -28 153 -28h53q131 0 188 24q38 17 73 65q165 -98 368 -98q180 0 257 81q75 79 112 209q24 85 24 159q0 168 -107 484l-78 -18l-130 -303q73 -160 98 -284q-36 -6 -78 -6q-173 0 -322 45q40 99 40 217q0 80 -33 189l-67 -12l-144 -262q26 -67 32 -147
q-102 -24 -246 -24q-48 0 -119 4z" />
    <glyph glyph-name="uniFEB8" unicode="&#x634;" horiz-adv-x="1879" vert-adv-y="2457" arabic-form="medial" 
d="M920 1169l-193 193l-199 -199l199 -200l193 194l192 -194l200 200l-200 199zM920 1700l-193 -195l193 -194l192 194zM-74 0h222q111 0 169 66q39 -29 67 -42q56 -24 146 -24h53q131 0 187 24q39 17 74 65q165 -98 369 -98q128 0 202 40q35 18 71 63q41 -49 86 -65
q79 -29 202 -29h64l114 319h-73q-129 0 -196 29q-38 16 -55 62q-11 28 -25 108q-35 198 -105 406l-78 -18l-130 -303q73 -160 98 -284q-36 -6 -79 -6q-174 0 -321 45q40 99 40 217q0 80 -33 189l-67 -12l-144 -262q26 -67 32 -147q-102 -24 -246 -24q-48 0 -119 4
q59 149 59 289q0 73 -20 158l-71 -4l-175 -294q7 -45 7 -92q0 -18 -7 -57q-20 -4 -42 -4h-162z" />
    <glyph glyph-name="uniFEB9" unicode="&#x635;" horiz-adv-x="3148" vert-adv-y="2457" arabic-form="isolated" 
d="M1648 319h-168q-38 201 -167 438l-66 -23l-131 -304q85 -139 129 -269q50 -148 50 -229q0 -7 -2 -23q-55 -44 -122 -74q-199 -91 -412 -91q-407 0 -407 302q0 152 89 317q48 90 114 187l-64 46q-112 -114 -189 -234q-178 -274 -178 -524q0 -216 153 -321q139 -94 365 -94
q277 0 498 120q188 102 287 311q34 72 51 146h108q46 0 540 -11q327 -6 392 -6q149 0 216 21q123 40 197 206q45 103 45 194q0 151 -170 291q-163 133 -329 133q-116 0 -270 -95q-136 -83 -343 -247q-134 -107 -216 -167zM1864 303q13 9 42 31q135 100 248 164
q111 62 210 62q134 0 269 -114q75 -65 116 -142q-72 -8 -349 -8q-278 0 -536 7z" />
    <glyph glyph-name="uniFEBA" unicode="&#x635;" horiz-adv-x="3151" vert-adv-y="2457" arabic-form="final" 
d="M1480 319q-38 201 -167 438l-66 -23l-131 -304q85 -139 129 -269q50 -148 50 -229q0 -7 -2 -23q-55 -44 -122 -74q-199 -91 -412 -91q-407 0 -407 302q0 152 89 317q48 90 114 187l-64 46q-112 -114 -189 -234q-178 -274 -178 -524q0 -216 153 -321q139 -94 365 -94
q277 0 498 120q188 102 287 311q34 72 51 146h1008q186 0 253 22q45 15 89 51q41 -28 71 -43q63 -30 174 -30h38l114 319h-76q-93 0 -125 24q-27 20 -56 91q-62 155 -163 258q-134 136 -320 136q-136 0 -289 -97q-192 -122 -420 -306q-86 -69 -133 -106h-163zM1876 312
q130 95 219 153q148 95 273 95q150 0 288 -137q54 -53 85 -111h-865z" />
    <glyph glyph-name="uniFEBB" unicode="&#x635;" horiz-adv-x="2026" vert-adv-y="2457" arabic-form="initial" 
d="M-74 0h462q83 0 246 -4l199 -3l149 -4q328 -6 414 -6q149 0 216 21q123 40 196 206q45 103 45 194q0 168 -200 315q-150 109 -299 109q-124 0 -298 -111q-144 -92 -329 -238q-117 -94 -167 -130q-27 149 -67 252q-38 97 -114 184l-66 -39l-69 -189q91 -129 135 -238h-339
zM741 303q9 5 17 12q208 155 317 205q87 40 167 40q136 0 268 -114q80 -69 117 -142q-74 -8 -417 -8q-205 0 -469 7z" />
    <glyph glyph-name="uniFEBC" unicode="&#x635;" horiz-adv-x="2038" vert-adv-y="2457" arabic-form="medial" 
d="M379 785l-66 -39l-69 -189q72 -84 135 -238h-339l-114 -319h1447q185 0 252 22q46 15 89 51q42 -28 71 -43q63 -30 174 -30h38l114 319h-76q-93 0 -125 24q-27 20 -56 91q-62 155 -163 258q-134 136 -319 136q-136 0 -290 -97q-161 -102 -521 -387q-20 115 -53 214
q-42 128 -129 227zM762 312q130 95 219 153q149 95 273 95q151 0 289 -137q53 -53 84 -111h-865z" />
    <glyph glyph-name="uniFEBD" unicode="&#x636;" horiz-adv-x="3148" vert-adv-y="2457" arabic-form="isolated" 
d="M2278 1454l-215 -216l215 -216l216 216zM1648 319h-168q-38 201 -167 438l-66 -23l-131 -304q85 -139 129 -269q50 -148 50 -229q0 -7 -2 -23q-55 -44 -122 -74q-199 -91 -412 -91q-407 0 -407 302q0 152 89 317q48 90 114 187l-64 46q-112 -114 -189 -234
q-178 -274 -178 -524q0 -216 153 -321q139 -94 365 -94q277 0 498 120q188 102 287 311q34 72 51 146h108q46 0 540 -11q327 -6 392 -6q149 0 216 21q123 40 197 206q45 103 45 194q0 151 -170 291q-163 133 -329 133q-116 0 -270 -95q-136 -83 -343 -247
q-134 -107 -216 -167zM1864 303q13 9 42 31q135 100 248 164q111 62 210 62q134 0 269 -114q75 -65 116 -142q-72 -8 -349 -8q-278 0 -536 7z" />
    <glyph glyph-name="uniFEBE" unicode="&#x636;" horiz-adv-x="3151" vert-adv-y="2457" arabic-form="final" 
d="M2278 1482l-215 -216l215 -216l216 216zM1480 319q-38 201 -167 438l-66 -23l-131 -304q85 -139 129 -269q50 -148 50 -229q0 -7 -2 -23q-55 -44 -122 -74q-199 -91 -412 -91q-407 0 -407 302q0 152 89 317q48 90 114 187l-64 46q-112 -114 -189 -234
q-178 -274 -178 -524q0 -216 153 -321q139 -94 365 -94q277 0 498 120q188 102 287 311q34 72 51 146h1008q186 0 253 22q45 15 89 51q41 -28 71 -43q63 -30 174 -30h38l114 319h-76q-93 0 -125 24q-27 20 -56 91q-62 155 -163 258q-134 136 -320 136q-136 0 -289 -97
q-192 -122 -420 -306q-86 -69 -133 -106h-163zM1876 312q130 95 219 153q148 95 273 95q150 0 288 -137q54 -53 85 -111h-865z" />
    <glyph glyph-name="uniFEBF" unicode="&#x636;" horiz-adv-x="2026" vert-adv-y="2457" arabic-form="initial" 
d="M1162 1454l-215 -216l215 -216l216 216zM-74 0h462q83 0 246 -4l199 -3l149 -4q328 -6 414 -6q149 0 216 21q123 40 196 206q45 103 45 194q0 168 -200 315q-150 109 -299 109q-124 0 -298 -111q-144 -92 -329 -238q-117 -94 -167 -130q-27 149 -67 252q-38 97 -114 184
l-66 -39l-69 -189q91 -129 135 -238h-339zM741 303q9 5 17 12q208 155 317 205q87 40 167 40q136 0 268 -114q80 -69 117 -142q-74 -8 -417 -8q-205 0 -469 7z" />
    <glyph glyph-name="uniFEC0" unicode="&#x636;" horiz-adv-x="2038" vert-adv-y="2457" arabic-form="medial" 
d="M1090 1454l-215 -216l215 -216l216 216zM379 785l-66 -39l-69 -189q72 -84 135 -238h-339l-114 -319h1447q185 0 252 22q46 15 89 51q42 -28 71 -43q63 -30 174 -30h38l114 319h-76q-93 0 -125 24q-27 20 -56 91q-62 155 -163 258q-134 136 -319 136q-136 0 -290 -97
q-161 -102 -521 -387q-20 115 -53 214q-42 128 -129 227zM762 312q130 95 219 153q149 95 273 95q151 0 289 -137q53 -53 84 -111h-865z" />
    <glyph glyph-name="uniFEC1" unicode="&#x637;" horiz-adv-x="1951" vert-adv-y="2457" arabic-form="isolated" 
d="M603 1556l-186 -311q114 -214 114 -645q0 -70 -10 -222l-70 -59h-88q-164 0 -265 41l-37 -62q136 -172 268 -232q122 -55 282 -68q208 -15 617 -15q226 0 295 22q107 34 176 145q80 128 80 249q0 168 -193 312q-157 117 -307 117q-89 0 -183 -46q-115 -56 -354 -239
q12 173 12 285q0 178 -22 338l90 116q-77 52 -107 122q-24 55 -41 152h-71zM667 303q144 103 215 149q167 108 286 108q136 0 268 -114q80 -69 117 -142q-85 -8 -463 -8q-154 0 -423 7z" />
    <glyph glyph-name="uniFEC2" unicode="&#x637;" horiz-adv-x="1956" vert-adv-y="2457" arabic-form="final" 
d="M1916 0l114 319h-76q-79 0 -116 19q-33 16 -65 96q-60 154 -166 261q-131 133 -316 133q-116 0 -233 -68q-83 -47 -257 -175q-15 -10 -59 -42q12 169 12 284q0 178 -22 339l90 116q-80 54 -111 130q-22 53 -37 144h-71l-186 -311q114 -215 114 -644q0 -71 -10 -223
l-70 -59h-93q-160 0 -260 41l-37 -62q101 -131 201 -204q77 -57 156 -77q67 -17 233 -17h640q188 0 256 23q44 15 86 50q50 -34 84 -49q60 -24 161 -24h38zM681 312q101 74 161 115q110 74 183 103q73 30 148 30q151 0 288 -137q53 -52 84 -111h-864z" />
    <glyph glyph-name="uniFEC3" unicode="&#x637;" horiz-adv-x="1731" vert-adv-y="2457" arabic-form="initial" 
d="M511 1166l90 116q-64 42 -90 88q-38 64 -58 186h-71l-186 -311q114 -214 114 -643q0 -74 -10 -224l-71 -59h-189l-114 -319h242q2 0 309 -6l162 -3q377 -8 462 -8q150 0 215 21q124 40 198 207q44 102 44 189q0 160 -181 302q-162 126 -320 126q-91 0 -201 -57
q-92 -48 -206 -132q-87 -66 -129 -96q12 181 12 287q0 176 -22 336zM446 303q8 5 17 12q208 155 317 205q87 40 167 40q136 0 268 -114q79 -69 116 -142q-73 -8 -416 -8q-205 0 -469 7z" />
    <glyph glyph-name="uniFEC4" unicode="&#x637;" horiz-adv-x="1735" vert-adv-y="2457" arabic-form="medial" 
d="M511 1166l90 116q-78 52 -109 126q-23 54 -39 148h-71l-186 -311q114 -216 114 -645q0 -67 -10 -222l-70 -59h-190l-114 -319h1144q188 0 256 23q44 15 85 50q51 -35 85 -49q61 -24 161 -24h38l114 319h-77q-75 0 -113 18q-35 16 -67 97q-60 152 -156 251
q-139 143 -326 143q-98 0 -183 -41q-107 -53 -313 -206l-42 -30l-11 -8q12 144 12 285q0 178 -22 338zM460 312q109 80 181 128q182 120 311 120q144 0 278 -127q61 -58 94 -121h-864z" />
    <glyph glyph-name="uniFEC5" unicode="&#x638;" horiz-adv-x="1951" vert-adv-y="2457" arabic-form="isolated" 
d="M1264 1454l-215 -216l215 -216l216 216zM603 1556l-186 -311q114 -214 114 -645q0 -70 -10 -222l-70 -59h-88q-164 0 -265 41l-37 -62q136 -172 268 -232q122 -55 282 -68q208 -15 617 -15q226 0 295 22q107 34 176 145q80 128 80 249q0 168 -193 312q-157 117 -307 117
q-89 0 -183 -46q-115 -56 -354 -239q12 173 12 285q0 178 -22 338l90 116q-77 52 -107 122q-24 55 -41 152h-71zM667 303q144 103 215 149q167 108 286 108q136 0 268 -114q80 -69 117 -142q-85 -8 -463 -8q-154 0 -423 7z" />
    <glyph glyph-name="uniFEC6" unicode="&#x638;" horiz-adv-x="1956" vert-adv-y="2457" arabic-form="final" 
d="M1266 1482l-216 -216l216 -216l216 216zM1916 0l114 319h-76q-79 0 -116 19q-33 16 -65 96q-60 154 -166 261q-131 133 -316 133q-116 0 -233 -68q-83 -47 -257 -175q-15 -10 -59 -42q12 169 12 284q0 178 -22 339l90 116q-80 54 -111 130q-22 53 -37 144h-71l-186 -311
q114 -215 114 -644q0 -71 -10 -223l-70 -59h-93q-160 0 -260 41l-37 -62q101 -131 201 -204q77 -57 156 -77q67 -17 233 -17h640q188 0 256 23q44 15 86 50q50 -34 84 -49q60 -24 161 -24h38zM681 312q101 74 161 115q110 74 183 103q73 30 148 30q151 0 288 -137
q53 -52 84 -111h-864z" />
    <glyph glyph-name="uniFEC7" unicode="&#x638;" horiz-adv-x="1731" vert-adv-y="2457" arabic-form="initial" 
d="M1052 1454l-216 -216l216 -216l215 216zM511 1166l90 116q-64 42 -90 88q-38 64 -58 186h-71l-186 -311q114 -214 114 -643q0 -74 -10 -224l-71 -59h-189l-114 -319h242q2 0 309 -6l162 -3q377 -8 462 -8q150 0 215 21q124 40 198 207q44 102 44 189q0 160 -181 302
q-162 126 -320 126q-91 0 -201 -57q-92 -48 -206 -132q-87 -66 -129 -96q12 181 12 287q0 176 -22 336zM446 303q8 5 17 12q208 155 317 205q87 40 167 40q136 0 268 -114q79 -69 116 -142q-73 -8 -416 -8q-205 0 -469 7z" />
    <glyph glyph-name="uniFEC8" unicode="&#x638;" horiz-adv-x="1735" vert-adv-y="2457" arabic-form="medial" 
d="M1052 1454l-216 -216l216 -216l215 216zM511 1166l90 116q-78 52 -109 126q-23 54 -39 148h-71l-186 -311q114 -216 114 -645q0 -67 -10 -222l-70 -59h-190l-114 -319h1144q188 0 256 23q44 15 85 50q51 -35 85 -49q61 -24 161 -24h38l114 319h-77q-75 0 -113 18
q-35 16 -67 97q-60 152 -156 251q-139 143 -326 143q-98 0 -183 -41q-107 -53 -313 -206l-42 -30l-11 -8q12 144 12 285q0 178 -22 338zM460 312q109 80 181 128q182 120 311 120q144 0 278 -127q61 -58 94 -121h-864z" />
    <glyph glyph-name="uniFEC9" unicode="&#x639;" horiz-adv-x="1429" vert-adv-y="2457" arabic-form="isolated" 
d="M1152 413l126 262l-24 63q-312 -125 -468 -211q-127 32 -218 91q-66 43 -100 92q-25 37 -25 63q0 47 74 90q76 45 161 45q184 0 282 -105l66 22q5 30 5 53q0 101 -44 174q-77 129 -239 129q-195 0 -357 -229q-59 -84 -102 -183q-46 -110 -46 -192q0 -162 223 -294
q-331 -272 -331 -645q0 -315 221 -466q167 -114 435 -114q432 0 673 258q87 92 167 228l-51 45q-311 -210 -674 -210q-226 0 -369 83q-191 109 -191 324q0 236 260 403q194 125 546 224z" />
    <glyph glyph-name="uniFECA" unicode="&#x639;" horiz-adv-x="1252" vert-adv-y="2457" arabic-form="final" 
d="M653 416q-190 -95 -304 -190q-282 -237 -282 -612q0 -266 154 -412q66 -62 159 -97q125 -47 261 -47q402 0 642 354l-46 49q-202 -85 -463 -85q-231 0 -363 98q-131 98 -131 284q0 223 199 378q88 68 223 130q36 -132 89 -185q84 -81 298 -81h123l114 319h-156
q-144 0 -191 31q-26 17 -41 52q41 71 61 115q36 77 36 157q0 128 -75 204q-81 82 -227 82q-249 0 -406 -297l34 -99q14 1 18 1q181 0 274 -149z" />
    <glyph glyph-name="uniFECB" unicode="&#x639;" horiz-adv-x="1323" vert-adv-y="2457" arabic-form="initial" 
d="M40 319l-114 -319h33l198 -1q484 0 913 92l126 261l-13 63q-244 -62 -477 -84q-139 44 -230 124q-70 61 -67 111q2 45 62 86q63 44 148 44q177 0 278 -131l66 22q7 25 7 53q0 172 -95 259q-75 67 -185 67q-190 0 -334 -215q-70 -105 -112 -230q-30 -86 -30 -149
q0 -27 19 -53h-193z" />
    <glyph glyph-name="uniFECC" unicode="&#x639;" horiz-adv-x="1075" vert-adv-y="2457" arabic-form="medial" 
d="M40 319l-114 -319h67q379 0 574 146q43 -73 96 -101q85 -45 248 -45h123l114 319h-173q-103 0 -153 20q-40 15 -60 59q37 73 54 116q37 88 37 168q0 132 -79 205q-80 73 -219 73q-250 0 -406 -297l34 -99h15q207 0 288 -166q-76 -39 -133 -53q-106 -26 -272 -26h-41z" />
    <glyph glyph-name="uniFECD" unicode="&#x63a;" horiz-adv-x="1429" vert-adv-y="2457" arabic-form="isolated" 
d="M702 1742l-215 -216l215 -216l216 216zM1152 413l126 262l-24 63q-312 -125 -468 -211q-127 32 -218 91q-66 43 -100 92q-25 37 -25 63q0 47 74 90q76 45 161 45q184 0 282 -105l66 22q5 30 5 53q0 101 -44 174q-77 129 -239 129q-195 0 -357 -229q-59 -84 -102 -183
q-46 -110 -46 -192q0 -162 223 -294q-331 -272 -331 -645q0 -315 221 -466q167 -114 435 -114q432 0 673 258q87 92 167 228l-51 45q-311 -210 -674 -210q-226 0 -369 83q-191 109 -191 324q0 236 260 403q194 125 546 224z" />
    <glyph glyph-name="uniFECE" unicode="&#x63a;" horiz-adv-x="1252" vert-adv-y="2457" arabic-form="final" 
d="M653 416q-190 -95 -304 -190q-282 -237 -282 -612q0 -266 154 -412q66 -62 159 -97q125 -47 261 -47q402 0 642 354l-46 49q-202 -85 -463 -85q-231 0 -363 98q-131 98 -131 284q0 223 199 378q88 68 223 130q36 -132 89 -185q84 -81 298 -81h123l114 319h-156
q-144 0 -191 31q-26 17 -41 52q41 71 61 115q36 77 36 157q0 128 -75 204q-81 82 -227 82q-249 0 -406 -297l34 -99q14 1 18 1q181 0 274 -149zM681 1551l-216 -216l216 -216l215 216z" />
    <glyph glyph-name="uniFECF" unicode="&#x63a;" horiz-adv-x="1323" vert-adv-y="2457" arabic-form="initial" 
d="M649 1551l-216 -216l216 -216l216 216zM40 319l-114 -319h33l198 -1q484 0 913 92l126 261l-13 63q-244 -62 -477 -84q-139 44 -230 124q-70 61 -67 111q2 45 62 86q63 44 148 44q177 0 278 -131l66 22q7 25 7 53q0 172 -95 259q-75 67 -185 67q-190 0 -334 -215
q-70 -105 -112 -230q-30 -86 -30 -149q0 -27 19 -53h-193z" />
    <glyph glyph-name="uniFED0" unicode="&#x63a;" horiz-adv-x="1075" vert-adv-y="2457" arabic-form="medial" 
d="M503 1551l-216 -216l216 -216l216 216zM40 319l-114 -319h67q379 0 574 146q43 -73 96 -101q85 -45 248 -45h123l114 319h-173q-103 0 -153 20q-40 15 -60 59q37 73 54 116q37 88 37 168q0 132 -79 205q-80 73 -219 73q-250 0 -406 -297l34 -99h15q207 0 288 -166
q-76 -39 -133 -53q-106 -26 -272 -26h-41z" />
    <glyph glyph-name="uniFED1" unicode="&#x641;" horiz-adv-x="2420" vert-adv-y="2457" arabic-form="isolated" 
d="M1851 1726l-215 -216l215 -216l216 216zM416 839q-223 -327 -223 -548q0 -153 110 -226q95 -63 208 -80q162 -24 406 -24q257 0 705 19q247 10 352 74q124 76 195 247q71 170 71 366t-85 346q-86 152 -209 152q-111 0 -233 -181q-76 -113 -119 -238q-35 -100 -35 -179
q0 -155 242 -230q-43 -28 -165 -37q-243 -19 -630 -19q-291 0 -411 32t-163 92q-32 44 -32 112q0 116 90 281zM2068 518q-355 36 -355 217q0 68 44 109q33 29 74 29q104 0 180 -161q38 -79 57 -194z" />
    <glyph glyph-name="uniFED2" unicode="&#x641;" horiz-adv-x="2459" vert-adv-y="2457" arabic-form="final" 
d="M1990 60q187 -60 384 -60h45l114 319h-104q-126 0 -241 14q43 140 43 236q0 145 -61 282q-84 187 -219 187q-130 0 -256 -201q-148 -236 -148 -409q0 -63 51 -128q-395 -19 -593 -19q-292 0 -414 33q-116 32 -159 91q-32 44 -32 112q0 117 90 281l-74 41
q-65 -96 -117 -198q-106 -210 -106 -350q0 -167 138 -244q86 -48 180 -62q166 -23 428 -23q324 0 697 23q219 13 354 75zM2049 353q-348 64 -348 238q0 75 50 122q36 33 84 33q98 0 169 -155q50 -109 50 -196q0 -16 -5 -42zM1883 1634l-216 -216l216 -216l216 216z" />
    <glyph glyph-name="uniFED3" unicode="&#x641;" horiz-adv-x="1092" vert-adv-y="2457" arabic-form="initial" 
d="M39 319l-113 -319h231q357 0 492 79q134 78 207 271q54 142 54 317q0 213 -94 361q-88 137 -196 137q-112 0 -227 -172q-66 -99 -116 -225q-47 -120 -47 -207q0 -141 236 -214q-17 -17 -57 -21q-54 -7 -133 -7h-237zM738 518q-354 35 -354 217q0 69 44 109q32 29 73 29
q103 0 179 -157q38 -81 58 -198zM521 1726l-215 -216l215 -216l216 216z" />
    <glyph glyph-name="uniFED4" unicode="&#x641;" horiz-adv-x="1117" vert-adv-y="2457" arabic-form="medial" 
d="M-74 0h225q196 0 306 17q71 12 157 55q200 -72 418 -72h44l114 319h-104q-126 0 -241 14q43 142 43 236q0 149 -63 287q-84 182 -217 182q-143 0 -284 -249q-127 -225 -119 -366q2 -50 47 -104h-212zM706 353q-348 64 -348 238q0 75 50 122q36 33 84 33q99 0 169 -155
q50 -109 50 -196q0 -16 -5 -42zM540 1634l-215 -216l215 -216l216 216z" />
    <glyph glyph-name="uniFED5" unicode="&#x642;" horiz-adv-x="1805" vert-adv-y="2457" arabic-form="isolated" 
d="M334 500q-213 -377 -213 -692q0 -236 129 -354q63 -58 169 -91q111 -35 218 -35q245 0 459 118q217 119 352 350q145 251 145 543q0 238 -103 423q-45 79 -115 125q-39 24 -89 24q-108 0 -224 -175q-153 -232 -153 -418q0 -179 132 -249q130 -69 309 -69q23 0 75 3
q-52 -124 -193 -215q-216 -139 -486 -139q-141 0 -254 58q-169 87 -169 325q0 187 89 430zM1405 305h-18q-124 0 -219 39q-111 45 -111 139q0 66 44 109q29 28 70 28q99 0 174 -142q38 -70 60 -173zM1227 1283l-191 191l-213 -214l213 -214l191 191l191 -191l213 214
l-213 214z" />
    <glyph glyph-name="uniFED6" unicode="&#x642;" horiz-adv-x="1787" vert-adv-y="2457" arabic-form="final" 
d="M1539 0h208l114 319h-268q1 16 1 22q0 196 -73 359q-94 211 -235 211q-108 0 -224 -175q-153 -231 -153 -417q0 -319 468 -319h46q-50 -121 -191 -212q-216 -139 -486 -139q-141 0 -254 58q-169 87 -169 325q0 187 89 430l-78 38q-213 -377 -213 -692q0 -236 129 -354
q63 -58 169 -91q111 -35 218 -35q314 0 556 180q237 175 346 492zM1405 305h-18q-124 0 -219 39q-111 45 -111 139q0 66 44 109q29 28 70 28q99 0 174 -142q38 -70 60 -173zM1227 1283l-191 191l-213 -214l213 -214l191 191l191 -191l213 214l-213 214z" />
    <glyph glyph-name="uniFED7" unicode="&#x642;" horiz-adv-x="1092" vert-adv-y="2457" arabic-form="initial" 
d="M509 1533l-190 191l-214 -214l214 -214l190 191l191 -191l214 214l-214 214zM39 319l-113 -319h231q357 0 492 79q134 78 207 271q54 142 54 317q0 213 -94 361q-88 137 -196 137q-112 0 -227 -172q-66 -99 -116 -225q-47 -120 -47 -207q0 -141 236 -214q-17 -17 -57 -21
q-54 -7 -133 -7h-237zM738 518q-354 35 -354 217q0 69 44 109q32 29 73 29q103 0 179 -157q38 -81 58 -198z" />
    <glyph glyph-name="uniFED8" unicode="&#x642;" horiz-adv-x="1117" vert-adv-y="2457" arabic-form="medial" 
d="M540 1443l-190 191l-214 -214l214 -214l190 191l191 -191l214 214l-214 214zM-74 0h225q196 0 306 17q71 12 157 55q200 -72 418 -72h44l114 319h-104q-126 0 -241 14q43 142 43 236q0 149 -63 287q-84 182 -217 182q-143 0 -284 -249q-127 -225 -119 -366q2 -50 47 -104
h-212zM706 353q-348 64 -348 238q0 75 50 122q36 33 84 33q99 0 169 -155q50 -109 50 -196q0 -16 -5 -42z" />
    <glyph glyph-name="uniFED9" unicode="&#x643;" horiz-adv-x="2059" vert-adv-y="2457" arabic-form="isolated" 
d="M490 848l-77 43q-226 -389 -226 -604q0 -198 194 -272q142 -54 597 -54q531 0 660 72q95 54 156 224q39 111 39 207q0 64 -14 237q-11 146 -27 387l-2 28l99 130q-85 61 -115 148q-20 61 -34 162h-67l-181 -295q34 -115 85 -509q42 -333 49 -435q-191 -35 -559 -35
q-296 0 -419 21q-171 28 -222 100q-36 51 -36 125q0 111 100 320zM760 453q248 43 340 111q84 62 138 196q26 66 26 104q0 64 -74 64q-10 0 -23 -1q-28 -1 -62 -1q-30 0 -34 12q-5 18 62 126q39 61 84 115l-72 52q-66 -66 -113 -129q-126 -175 -126 -287q0 -40 26 -63
q28 -26 74 -26q5 0 15 1q-83 -43 -202 -57l-70 -156z" />
    <glyph glyph-name="uniFEDA" unicode="&#x643;" horiz-adv-x="2068" vert-adv-y="2457" arabic-form="final" 
d="M1790 1116l99 130q-67 48 -93 97q-36 71 -56 213h-67l-181 -295q39 -131 88 -531q42 -348 46 -413q-190 -35 -559 -35q-295 0 -419 21q-171 29 -222 100q-36 51 -36 125q0 111 100 320l-77 43q-226 -389 -226 -604q0 -198 193 -272q141 -54 592 -54q447 0 604 47
q82 25 132 89q81 -97 227 -97h93l114 319h-87q-132 0 -171 52q-35 46 -50 192q-9 80 -31 390q-5 70 -9 113q-3 30 -4 50zM761 453q248 43 339 111q84 62 138 196q27 66 27 104q0 64 -75 64q-10 0 -23 -1q-28 -1 -62 -1q-30 0 -33 12q-6 18 62 126q38 61 83 115l-72 52
q-66 -66 -112 -129q-127 -175 -127 -287q0 -40 26 -63q29 -26 74 -26q5 0 15 1q-83 -43 -202 -57l-70 -156z" />
    <glyph glyph-name="uniFEDB" unicode="&#x643;" horiz-adv-x="1273" vert-adv-y="2457" arabic-form="initial" 
d="M-74 0h632q236 0 343 62q69 39 121 126q62 101 62 224q0 150 -106 263q-155 167 -555 367l557 221l125 263l-37 36q-246 -138 -433 -218q-152 -66 -435 -164q-80 -121 -126 -275q382 -157 598 -315q148 -110 203 -252q-138 -19 -265 -19h-570z" />
    <glyph glyph-name="uniFEDC" unicode="&#x643;" horiz-adv-x="1321" vert-adv-y="2457" arabic-form="medial" 
d="M423 1042l557 221l125 263l-37 36q-246 -138 -433 -218q-152 -66 -435 -164q-81 -121 -126 -275q367 -151 584 -305q162 -115 217 -262q-138 -19 -265 -19h-570l-114 -319h632q257 0 391 107q88 -107 284 -107h47l114 319h-70q-120 0 -165 27q-38 21 -69 115
q-47 139 -108 209q-142 163 -559 372z" />
    <glyph glyph-name="uniFEDD" unicode="&#x644;" horiz-adv-x="1692" vert-adv-y="2457" arabic-form="isolated" 
d="M1522 1246q-67 48 -92 96q-37 70 -57 214h-67l-174 -291q29 -104 91 -605q54 -440 62 -626q-218 -163 -477 -163q-434 0 -434 386q0 171 111 386l-65 44q-70 -86 -116 -170q-138 -252 -138 -499q0 -203 104 -316q63 -69 155 -105q123 -47 259 -47q349 0 590 238
q211 208 211 481q0 86 -21 358l-19 252q-15 194 -18 242z" />
    <glyph glyph-name="uniFEDE" unicode="&#x644;" horiz-adv-x="1706" vert-adv-y="2457" arabic-form="final" 
d="M1522 1246q-81 58 -111 140q-23 61 -38 170h-67l-174 -291q30 -112 99 -693q53 -448 54 -538q-227 -163 -477 -163q-434 0 -434 386q0 171 111 386l-65 44q-92 -115 -150 -237q-104 -222 -104 -432q0 -201 104 -316q67 -75 177 -113q115 -39 237 -39q326 0 559 211
q127 115 192 263q68 -24 164 -24h66l114 319h-87q-129 0 -172 46q-34 36 -44 121q-10 76 -35 449q-9 136 -14 186z" />
    <glyph glyph-name="uniFEDF" unicode="&#x644;" horiz-adv-x="716" vert-adv-y="2457" arabic-form="initial" 
d="M-74 0h114q208 0 278 16q91 22 137 88q61 87 61 213q0 41 -18 301l-19 258l-14 190l-4 55l94 125q-79 57 -109 132q-24 62 -40 178h-67l-174 -291q23 -82 79 -515q40 -344 49 -431h-253z" />
    <glyph glyph-name="uniFEE0" unicode="&#x644;" horiz-adv-x="743" vert-adv-y="2457" arabic-form="medial" 
d="M-74 0h114q185 0 280 18q47 9 94 40q78 -58 207 -58h81l114 319h-87q-106 0 -150 30q-57 38 -77 242q-7 73 -23 294l-9 116q-7 97 -9 120l94 125q-88 63 -118 160q-18 56 -31 150h-67l-174 -291q44 -170 123 -902l5 -44h-253z" />
    <glyph glyph-name="uniFEE1" unicode="&#x645;" horiz-adv-x="1240" vert-adv-y="2457" arabic-form="isolated" 
d="M439 -678q-14 163 -83 468q-16 71 -18 124q-5 106 145 102q64 -1 158 -3q176 -3 415 -13l113 299q-78 25 -122 74q-28 31 -137 194q-166 250 -315 250q-182 0 -369 -396l68 -40q113 146 196 146q78 0 162 -91q43 -47 94 -120l-264 8q-13 1 -27 1q-155 0 -221 -78
q-79 -91 -121 -219q-25 -76 -25 -123q0 -62 28 -176q20 -85 89 -428q32 -160 38 -243h69z" />
    <glyph glyph-name="uniFEE2" unicode="&#x645;" horiz-adv-x="1194" vert-adv-y="2457" arabic-form="final" 
d="M439 -678q-16 176 -83 468q-16 71 -18 124q-3 50 28 78q30 27 117 24q68 -1 224 -4q211 -3 440 -12l120 319h-56q-106 0 -162 55q-25 24 -68 88q-101 151 -166 228q-106 127 -220 127q-183 0 -369 -396l68 -40q114 146 194 146q85 0 176 -104q37 -43 82 -107l-264 8
q-12 1 -26 1q-155 0 -222 -78q-78 -90 -121 -219q-25 -77 -25 -123q0 -61 28 -176q43 -181 97 -465q24 -132 30 -206h69z" />
    <glyph glyph-name="uniFEE3" unicode="&#x645;" horiz-adv-x="1160" vert-adv-y="2457" arabic-form="initial" 
d="M271 89q189 -30 351 -90q54 -20 94 -22q77 -4 147 119q100 175 100 289q0 93 -52 219q-56 135 -147 219q-83 78 -177 78q-86 0 -141 -53q-50 -48 -111 -214q-12 -35 -58 -165q-37 -103 -91 -130q-39 -20 -105 -20h-41l-114 -319h125q96 0 150 26q36 17 70 63zM372 340
l14 38q44 119 61 156q35 78 68 80q44 3 123 -85q122 -136 151 -313q-190 91 -417 124z" />
    <glyph glyph-name="uniFEE4" unicode="&#x645;" horiz-adv-x="1198" vert-adv-y="2457" arabic-form="medial" 
d="M-74 0h125q95 0 150 26q36 17 70 63q186 -30 351 -90q53 -19 94 -22q65 -4 121 77q79 -54 229 -54h92l114 319h-131q-77 0 -120 19q-42 19 -61 97q-39 168 -104 272q-120 194 -267 194q-122 0 -183 -102q-33 -55 -95 -232q-48 -139 -69 -174q-32 -53 -88 -66
q-33 -8 -73 -8h-41zM372 340l4 11l10 27l11 30q25 68 44 112q39 92 74 94q44 3 119 -79q125 -138 155 -319q-190 92 -417 124z" />
    <glyph glyph-name="uniFEE5" unicode="&#x646;" horiz-adv-x="1695" vert-adv-y="2457" arabic-form="isolated" 
d="M890 1453l-216 -216l216 -216l215 216zM1240 774l-122 -314q88 -144 129 -265q57 -167 57 -259q0 -5 -1 -20q-63 -50 -139 -84q-198 -88 -408 -88q-404 0 -404 302q0 156 94 328q46 84 109 176l-64 46q-104 -107 -180 -220q-187 -281 -187 -537q0 -211 147 -318
q137 -98 368 -98q250 0 470 104q184 88 289 271q101 176 101 354q0 174 -80 408q-42 124 -106 250z" />
    <glyph glyph-name="uniFEE6" unicode="&#x646;" horiz-adv-x="1693" vert-adv-y="2457" arabic-form="final" 
d="M1313 810l-73 -36l-122 -314q59 -96 87 -160q36 -80 65 -178q34 -119 34 -190q0 -2 -1 -16q-80 -64 -189 -105q-178 -67 -358 -67q-404 0 -404 302q0 174 126 384q34 57 77 120l-64 46q-142 -145 -235 -310q-132 -232 -132 -447q0 -194 127 -301q137 -115 387 -115
q242 0 458 101q230 108 337 348q32 71 48 144q62 -16 144 -16h28l113 319h-38q-139 0 -198 27q-54 25 -89 148q-41 143 -128 316zM890 1453l-216 -216l216 -216l215 216z" />
    <glyph glyph-name="uniFEE7" unicode="&#x646;" horiz-adv-x="805" vert-adv-y="2457" arabic-form="initial" 
d="M-74 0h85q259 0 400 75q83 43 139 142q62 109 62 232q0 226 -194 502l-73 -37l-117 -297q133 -132 184 -268q-122 -30 -320 -30h-52zM317 1454l-216 -216l216 -216l215 216z" />
    <glyph glyph-name="uniFEE8" unicode="&#x646;" horiz-adv-x="888" vert-adv-y="2457" arabic-form="medial" 
d="M317 1454l-216 -216l216 -216l215 216zM-74 0h82q175 0 307 37q93 26 158 89q48 -71 102 -93q84 -33 216 -33h57l113 319h-71q-139 0 -205 36q-47 25 -68 137q-34 171 -95 290q-40 79 -104 169l-73 -37l-117 -297q131 -133 182 -266q-122 -32 -320 -32h-50z" />
    <glyph glyph-name="uniFEE9" unicode="&#x647;" horiz-adv-x="1228" vert-adv-y="2457" arabic-form="isolated" 
d="M398 738q-75 -76 -124 -157q-94 -156 -94 -299q0 -173 134 -250q115 -67 302 -67q184 0 262 89q67 76 120 206q49 119 49 200q0 136 -151 266q-126 107 -415 290l-41 -12l-112 -213zM487 651q181 -125 270 -208q69 -64 100 -147q-53 -25 -135 -25q-158 0 -251 49
q-87 46 -87 137q0 90 103 194z" />
    <glyph glyph-name="uniFEEA" unicode="&#x647;" horiz-adv-x="1215" vert-adv-y="2457" arabic-form="final" 
d="M704 962q-67 -79 -127 -131q-100 -86 -267 -165q-70 -33 -83 -79l-83 -298q278 -118 415 -250l145 253q-128 142 -345 229q219 88 368 244l6 -88q23 -344 34 -418q26 -164 136 -224q65 -35 178 -35h91l116 319h-103q-134 0 -180 63q-41 57 -53 257q-5 89 -14 349
q-5 169 -12 313l-63 -5l-184 -195q13 -53 25 -139z" />
    <glyph glyph-name="uniFEEB" unicode="&#x647;" horiz-adv-x="1394" vert-adv-y="2457" arabic-form="initial" 
d="M-74 0h549q256 -158 385 -158q97 0 205 150q120 165 120 288q0 147 -133 315q-177 223 -509 504l-47 -6l-105 -201l103 -102q-159 -35 -245 -144q-88 -110 -75 -246q5 -48 35 -81h-169zM709 175q137 101 139 247q146 -160 146 -284q0 -67 -56 -67q-49 0 -132 42
q-48 23 -97 62zM525 297q-50 37 -72 57q-66 60 -66 147q0 79 48 122q42 37 104 37q74 0 119 -51q42 -47 42 -118q0 -100 -69 -154q-34 -26 -84 -36z" />
    <glyph glyph-name="uniFEEC" unicode="&#x647;" horiz-adv-x="1029" vert-adv-y="2457" arabic-form="medial" 
d="M191 319h-151l-114 -319h302q82 -267 459 -583l205 254q-87 122 -87 213q0 81 61 102q42 14 105 14h18l114 319h-34q-156 0 -242 -86q-64 -64 -102 -162q-36 -89 -36 -172q0 -59 28 -140q-128 111 -215 241h21q71 0 120 70q47 68 106 182q54 104 54 208q0 217 -112 402
q-72 118 -179 175l-45 -5q-112 -120 -178 -273q-99 -230 -99 -413q0 -5 1 -27zM479 736q159 -182 169 -424h-235q-4 34 -4 67q0 223 70 357z" />
    <glyph glyph-name="uniFEED" unicode="&#x648;" horiz-adv-x="1256" vert-adv-y="2457" arabic-form="isolated" 
d="M-52 -106l-68 -40q33 -185 73 -258q106 -199 338 -199q317 0 543 310q211 290 211 665q0 228 -93 395q-82 145 -197 145q-110 0 -229 -178q-151 -228 -151 -411q0 -308 460 -330q-37 -78 -105 -139q-172 -151 -400 -151q-227 0 -382 191zM868 299q-344 22 -344 185
q0 65 44 108q29 29 70 29q103 0 176 -150q36 -72 54 -172z" />
    <glyph glyph-name="uniFEEE" unicode="&#x648;" horiz-adv-x="1236" vert-adv-y="2457" arabic-form="final" 
d="M1044 319q2 34 2 56q0 215 -81 371q-88 171 -211 171q-107 0 -228 -179q-153 -225 -153 -411q0 -210 215 -284q98 -33 247 -40q-41 -85 -115 -150q-168 -150 -392 -150q-232 0 -380 191l-68 -40q33 -185 73 -259q107 -198 339 -198q331 0 553 323q85 123 139 280h212
l113 319h-265zM868 307q-175 10 -247 46q-96 47 -96 134q0 67 44 110q29 28 69 28q105 0 179 -152q34 -68 51 -166z" />
    <glyph glyph-name="uniFEEF" unicode="&#x649;" horiz-adv-x="1869" vert-adv-y="2457" arabic-form="isolated" 
d="M1643 481l168 381q-28 28 -101 28q-175 0 -365 -112q-252 -150 -397 -408q-79 -139 -79 -224q0 -80 95 -111q38 -13 236 -47q186 -32 229 -55q-69 -76 -171 -116q-204 -78 -453 -78q-230 0 -332 80q-109 84 -109 265q0 299 286 694l-53 48q-146 -156 -249 -324
q-204 -336 -204 -625q0 -232 166 -355q141 -105 391 -105q257 0 476 88q263 106 394 338q76 133 76 249q0 69 -68 103q-93 48 -506 108q49 80 163 157q168 114 280 114q54 0 54 -54q0 -10 -3 -29z" />
    <glyph glyph-name="uniFEF0" unicode="&#x649;" horiz-adv-x="1497" vert-adv-y="2457" arabic-form="final" 
d="M1571 319h-251q-151 0 -219 -44q-81 -53 -148 -198q-57 -124 -63 -171q-10 -77 117 -115q70 -22 169 -38q-40 -67 -260 -67q-248 0 -387 76q-68 37 -112 112q-53 92 -53 210q0 281 276 701l-59 46q-101 -112 -190 -256q-247 -400 -247 -701q0 -208 123 -332
q144 -146 445 -146q289 0 495 111q91 48 139 134q26 44 26 102q0 83 -61 125q-41 29 -139 45q-82 14 -110 26q-24 10 -24 29q0 32 58 32h361z" />
    <glyph glyph-name="uniFEF1" unicode="&#x64a;" horiz-adv-x="1869" vert-adv-y="2457" arabic-form="isolated" 
d="M799 -852l-190 191l-204 -204l204 -205l190 191l191 -191l204 205l-204 204zM1643 481l168 381q-28 28 -101 28q-175 0 -365 -112q-252 -150 -397 -408q-79 -139 -79 -224q0 -80 95 -111q38 -13 236 -47q186 -32 229 -55q-69 -76 -171 -116q-204 -78 -453 -78
q-230 0 -332 80q-109 84 -109 265q0 299 286 694l-53 48q-146 -156 -249 -324q-204 -336 -204 -625q0 -232 166 -355q141 -105 391 -105q257 0 476 88q263 106 394 338q76 133 76 249q0 69 -68 103q-93 48 -506 108q49 80 163 157q168 114 280 114q54 0 54 -54q0 -10 -3 -29
z" />
    <glyph glyph-name="uniFEF2" unicode="&#x64a;" horiz-adv-x="1497" vert-adv-y="2457" arabic-form="final" 
d="M745 -852l-191 191l-204 -204l204 -205l191 191l190 -191l204 205l-204 204zM1571 319h-251q-151 0 -219 -44q-81 -53 -148 -198q-57 -124 -63 -171q-10 -77 117 -115q70 -22 169 -38q-40 -67 -260 -67q-248 0 -387 76q-68 37 -112 112q-53 92 -53 210q0 281 276 701
l-59 46q-101 -112 -190 -256q-247 -400 -247 -701q0 -208 123 -332q144 -146 445 -146q289 0 495 111q91 48 139 134q26 44 26 102q0 83 -61 125q-41 29 -139 45q-82 14 -110 26q-24 10 -24 29q0 32 58 32h361z" />
    <glyph glyph-name="uniFEF3" unicode="&#x64a;" horiz-adv-x="805" vert-adv-y="2457" arabic-form="initial" 
d="M251 -344l-191 191l-204 -204l204 -205l191 192l190 -192l204 205l-204 204zM-74 0h85q259 0 400 75q83 43 140 142q62 109 62 232q0 226 -194 502l-73 -37l-118 -297q134 -132 184 -268q-121 -30 -319 -30h-53z" />
    <glyph glyph-name="uniFEF4" unicode="&#x64a;" horiz-adv-x="888" vert-adv-y="2457" arabic-form="medial" 
d="M324 -344l-190 191l-204 -204l204 -205l190 192l191 -192l204 205l-204 204zM-74 0h82q175 0 307 37q93 26 158 89q48 -71 102 -93q84 -33 216 -33h57l113 319h-71q-139 0 -205 36q-47 25 -68 137q-34 171 -95 290q-40 79 -104 169l-73 -37l-117 -297q131 -133 182 -266
q-122 -32 -320 -32h-50z" />
    <glyph glyph-name=".notdef" horiz-adv-x="510" vert-adv-y="2457" 
d="M51 0v1544h408v-1544h-408zM408 51v1442h-306v-1442h306z" />
    <glyph glyph-name=".null" horiz-adv-x="0" vert-adv-y="0" 
 />
    <glyph glyph-name="nonmarkingreturn" horiz-adv-x="682" 
 />
    <glyph glyph-name="space" unicode=" " horiz-adv-x="510" vert-adv-y="2457" 
 />
    <glyph glyph-name="exclam" unicode="!" horiz-adv-x="705" vert-adv-y="2457" 
d="M190 0v328h324v-328h-324zM223 528l-33 676v340h324v-340l-33 -676h-258z" />
    <glyph glyph-name="quotedbl" unicode="&#x22;" horiz-adv-x="1139" vert-adv-y="2457" 
d="M217 819l-72 508v217h338v-217l-71 -508h-195zM727 819l-72 508v217h338v-217l-71 -508h-195z" />
    <glyph glyph-name="numbersign" unicode="#" horiz-adv-x="1446" vert-adv-y="2457" 
d="M170 0l98 371h-213v221h271l73 278h-211v222h271l96 368h229l-96 -368h262l97 368h229l-96 -368h209v-222h-269l-73 -278h208v-221h-266l-98 -371h-229l98 371h-262l-99 -371h-229zM555 592h262l74 278h-262z" />
    <glyph glyph-name="dollar" unicode="$" horiz-adv-x="1434" vert-adv-y="2457" 
d="M641 -190v155q-249 17 -389 123q-135 101 -199 318l297 71q62 -223 291 -256v443l-117 24q-424 87 -424 434q0 231 189 353q132 86 352 104v123h160v-125q218 -20 347 -117q121 -91 179 -266l-283 -88q-72 169 -243 215v-412l133 -28q172 -36 247 -87q165 -114 165 -355
q0 -226 -165 -350q-140 -105 -380 -124v-155h-160zM801 219q223 29 223 203q0 116 -97 169q-47 25 -126 42v-414zM635 940h6v389q-223 -28 -223 -195q0 -87 59 -132q52 -41 158 -62z" />
    <glyph glyph-name="percent" unicode="%" horiz-adv-x="2130" vert-adv-y="2457" 
d="M526 -37l836 1534h240l-836 -1534h-240zM1673 889q395 0 395 -462q0 -464 -400 -464q-396 0 -396 464q0 462 401 462zM1665 698q-78 0 -112 -68q-33 -67 -33 -210q0 -169 55 -232q30 -34 96 -34q69 0 104 50q46 64 46 228q0 161 -56 228q-32 38 -100 38zM464 1497
q394 0 394 -469q0 -457 -400 -457q-397 0 -397 463t403 463zM455 1307q-78 0 -112 -67q-34 -69 -34 -212q0 -266 150 -266q71 0 108 52q43 60 43 224q0 166 -56 231q-31 38 -99 38z" />
    <glyph glyph-name="ampersand" unicode="&#x26;" horiz-adv-x="1466" vert-adv-y="2457" 
d="M362 883q-143 167 -143 315q0 171 149 277q122 86 309 86q193 0 318 -107q117 -100 117 -255q0 -152 -119 -262q-73 -67 -192 -134l248 -289q109 114 186 231l213 -137q-90 -159 -234 -293l252 -315h-364l-94 117q-102 -81 -185 -113q-108 -41 -253 -41q-197 0 -337 110
q-172 137 -172 367q0 203 129 325q62 58 172 118zM836 319l-308 367q-69 -35 -103 -77q-52 -63 -52 -166q0 -105 68 -167q63 -59 160 -59q116 0 235 102zM627 981q8 4 17 8q104 48 147 96q45 50 45 113t-54 102q-45 33 -115 33q-84 0 -128 -46q-33 -34 -33 -91
q0 -91 108 -201q4 -4 7 -8l2 -2l3 -3z" />
    <glyph glyph-name="quotesingle" unicode="'" horiz-adv-x="621" vert-adv-y="2457" 
d="M213 819l-72 508v217h338v-217l-71 -508h-195z" />
    <glyph glyph-name="parenleft" unicode="(" horiz-adv-x="705" vert-adv-y="2457" 
d="M477 -422q-401 398 -401 1001q0 602 401 1000l191 -135q-97 -120 -173 -302q-120 -289 -120 -562q0 -290 130 -589q73 -167 163 -278z" />
    <glyph glyph-name="parenright" unicode=")" horiz-adv-x="705" vert-adv-y="2457" 
d="M227 -422l-190 135q109 138 188 339q105 267 105 533q0 211 -81 453q-81 241 -212 406l190 135q402 -399 402 -998q0 -602 -402 -1003z" />
    <glyph glyph-name="asterisk" unicode="*" horiz-adv-x="1049" vert-adv-y="2457" 
d="M428 692l4 271l-233 -142l-97 166l238 131l-238 131l97 166l233 -141l-4 270h193l-5 -270l234 141l96 -168l-237 -129l237 -131l-96 -166l-234 142l5 -271h-193z" />
    <glyph glyph-name="plus" unicode="+" horiz-adv-x="1288" vert-adv-y="2457" 
d="M506 178v424h-414v258h414v424h278v-424h414v-258h-414v-424h-278z" />
    <glyph glyph-name="comma" unicode="," horiz-adv-x="621" vert-adv-y="2457" 
d="M231 -442l-114 114q80 79 115 131q51 78 51 166v31h-146v338h346v-315q0 -270 -252 -465z" />
    <glyph glyph-name="hyphen" unicode="-" horiz-adv-x="938" vert-adv-y="2457" 
d="M102 385v317h734v-317h-734z" />
    <glyph glyph-name="period" unicode="." horiz-adv-x="621" vert-adv-y="2457" 
d="M137 0v338h346v-338h-346z" />
    <glyph glyph-name="slash" unicode="/" horiz-adv-x="664" vert-adv-y="2457" 
d="M0 0l416 1544h248l-416 -1544h-248z" />
    <glyph glyph-name="zero" unicode="0" horiz-adv-x="1288" vert-adv-y="2457" 
d="M648 1544q564 0 564 -791q0 -790 -570 -790q-566 0 -566 790q0 791 572 791zM638 1298q-143 0 -201 -160q-48 -132 -48 -391q0 -538 252 -538q258 0 258 551q0 538 -261 538z" />
    <glyph glyph-name="one" unicode="1" horiz-adv-x="1288" vert-adv-y="2457" 
d="M611 0v1139q-135 -96 -309 -176l-123 235q289 149 489 309h258v-1507h-315z" />
    <glyph glyph-name="two" unicode="2" horiz-adv-x="1288" vert-adv-y="2457" 
d="M98 0v111q0 210 177 386q69 70 254 194q139 93 206 157q119 114 119 236q0 105 -57 163q-55 56 -158 56q-225 0 -250 -304l-307 39q74 506 570 506q273 0 409 -137q125 -126 125 -330q0 -235 -223 -429q-65 -57 -231 -167q-151 -102 -187 -135q-40 -37 -68 -90h711v-256
h-1090z" />
    <glyph glyph-name="three" unicode="3" horiz-adv-x="1288" vert-adv-y="2457" 
d="M69 469l308 37q10 -299 262 -299q116 0 183 56q67 55 67 159q0 140 -117 192q-71 32 -211 35v248q315 8 315 220q0 80 -47 130q-59 62 -177 62q-233 0 -257 -252l-299 39q70 448 574 448q296 0 433 -146q95 -101 95 -274q0 -252 -285 -354q305 -48 305 -349
q0 -170 -106 -290q-148 -168 -469 -168q-289 0 -438 152q-133 136 -136 354z" />
    <glyph glyph-name="four" unicode="4" horiz-adv-x="1288" vert-adv-y="2457" 
d="M735 0v326h-678v268l656 913h329v-944h175v-237h-175v-326h-307zM324 563h411v588z" />
    <glyph glyph-name="five" unicode="5" horiz-adv-x="1288" vert-adv-y="2457" 
d="M90 369l287 77q48 -241 248 -241q253 0 253 307q0 130 -65 206q-65 77 -191 77q-101 0 -173 -62q-42 -36 -64 -88l-244 39l152 823h856v-247h-650l-61 -345q113 99 298 99q207 0 331 -121q129 -125 129 -377q0 -253 -137 -399q-145 -154 -404 -154q-317 0 -455 173
q-83 105 -110 233z" />
    <glyph glyph-name="six" unicode="6" horiz-adv-x="1288" vert-adv-y="2457" 
d="M1187 1225l-291 -76q-43 164 -209 164q-124 0 -192 -114q-72 -123 -82 -343q122 145 345 145q212 0 329 -124q129 -137 129 -367q0 -249 -144 -395q-150 -152 -408 -152q-589 0 -589 741q0 840 632 840q398 0 480 -319zM647 780q-113 0 -182 -82q-67 -81 -67 -217
q0 -135 67 -216q68 -81 188 -81q110 0 180 75q73 79 73 227q0 151 -85 231q-67 63 -174 63z" />
    <glyph glyph-name="seven" unicode="7" horiz-adv-x="1288" vert-adv-y="2457" 
d="M290 0q56 325 218 655q153 312 386 584h-760v268h1076v-254q-437 -520 -594 -1253h-326z" />
    <glyph glyph-name="eight" unicode="8" horiz-adv-x="1288" vert-adv-y="2457" 
d="M293 786q-201 111 -201 328q0 189 132 303q148 127 419 127q272 0 421 -127q134 -115 134 -304q0 -218 -203 -327q246 -121 246 -371q0 -194 -146 -317q-160 -135 -451 -135q-268 0 -427 114q-170 123 -170 341q0 252 246 368zM638 674q-134 0 -203 -85q-50 -61 -50 -159
q0 -106 70 -169q68 -62 192 -62q115 0 188 60q72 59 72 176q0 121 -86 187q-68 52 -183 52zM641 1321q-113 0 -178 -58q-64 -56 -64 -164t64 -166q65 -59 180 -59q98 0 159 40q89 59 89 184q0 108 -65 165q-65 58 -185 58z" />
    <glyph glyph-name="nine" unicode="9" horiz-adv-x="1288" vert-adv-y="2457" 
d="M114 283l287 75q14 -50 32 -80q50 -83 175 -83q150 0 218 152q46 104 58 308q-126 -143 -346 -143q-208 0 -327 123q-129 133 -129 363q0 248 147 397t418 149q254 0 403 -151q172 -174 172 -586q0 -844 -626 -844q-397 0 -482 320zM639 1323q-128 0 -198 -102
q-50 -73 -50 -195q0 -133 68 -213q69 -80 186 -80q113 0 184 77q70 78 70 224q0 150 -86 230q-64 59 -174 59z" />
    <glyph glyph-name="colon" unicode=":" horiz-adv-x="621" vert-adv-y="2457" 
d="M137 0v338h346v-338h-346zM137 743v338h346v-338h-346z" />
    <glyph glyph-name="semicolon" unicode=";" horiz-adv-x="621" vert-adv-y="2457" 
d="M231 -442l-114 114q80 79 115 131q51 78 51 166v31h-146v338h346v-315q0 -270 -252 -465zM137 743v338h346v-338h-346z" />
    <glyph glyph-name="less" unicode="&#x3c;" horiz-adv-x="1288" vert-adv-y="2457" 
d="M1198 178l-1106 420v266l1106 420v-266l-756 -287l756 -287v-266z" />
    <glyph glyph-name="equal" unicode="=" horiz-adv-x="1288" vert-adv-y="2457" 
d="M92 373v266h1106v-266h-1106zM92 823v267h1106v-267h-1106z" />
    <glyph glyph-name="greater" unicode="&#x3e;" horiz-adv-x="1288" vert-adv-y="2457" 
d="M92 178v266l756 287l-756 287v266l1106 -420v-266z" />
    <glyph glyph-name="question" unicode="?" horiz-adv-x="1241" vert-adv-y="2457" 
d="M410 0v328h323v-328h-323zM424 494v122q0 92 29 136q38 60 176 147q74 46 102 71q90 80 90 182q0 194 -220 194q-213 0 -247 -261l-301 41q71 455 554 455q269 0 410 -120q128 -108 128 -305q0 -154 -103 -267q-58 -64 -180 -139l-15 -10l-11 -7q-4 -3 -7 -5
q-40 -22 -69 -50q-41 -39 -41 -109v-75h-295z" />
    <glyph glyph-name="at" unicode="@" horiz-adv-x="1970" vert-adv-y="2457" 
d="M1096 483q-76 -80 -140 -115q-78 -42 -187 -42q-138 0 -216 92q-74 86 -74 231q0 225 136 402q129 166 337 166q168 0 240 -105l18 76h252l-125 -524q-10 -42 -10 -80q0 -88 93 -88q118 0 190 95q73 97 73 257q0 219 -151 375q-194 200 -541 200q-274 0 -460 -147
q-134 -107 -197 -280q-41 -111 -41 -244q0 -280 172 -449q179 -176 522 -176q212 0 410 66l53 -173q-244 -73 -467 -73q-485 0 -730 301q-161 199 -161 516q0 225 112 416q102 174 274 280q221 137 533 137q380 0 634 -223q136 -119 196 -289q37 -106 37 -232
q0 -247 -148 -394q-138 -137 -374 -137q-243 0 -260 161zM989 1028q-96 0 -165 -97q-39 -55 -61 -135q-20 -73 -20 -127q0 -157 135 -157q121 0 190 131q58 110 58 228q0 157 -137 157z" />
    <glyph glyph-name="A" unicode="A" horiz-adv-x="1554" vert-adv-y="2457" 
d="M0 0l569 1544h416l569 -1544h-354l-117 326h-639l-118 -326h-326zM539 590h448l-223 661z" />
    <glyph glyph-name="B" unicode="B" horiz-adv-x="1542" vert-adv-y="2457" 
d="M147 0v1544h742q223 0 353 -83q163 -103 163 -309q0 -235 -199 -331q248 -99 248 -357q0 -464 -637 -464h-670zM475 262h348q171 0 239 57q56 47 56 151q0 125 -89 171q-68 35 -206 35h-348v-414zM475 936h352q132 0 188 42q58 42 58 132q0 109 -89 148q-54 24 -157 24
h-352v-346z" />
    <glyph glyph-name="C" unicode="C" horiz-adv-x="1583" vert-adv-y="2457" 
d="M1501 1075l-332 -76q-78 306 -352 306q-191 0 -290 -147q-95 -140 -95 -403q0 -513 389 -513q313 0 361 354l338 -43q-129 -590 -702 -590q-302 0 -489 166q-237 210 -237 631q0 383 190 599q195 222 548 222q344 0 521 -208q95 -113 150 -298z" />
    <glyph glyph-name="D" unicode="D" horiz-adv-x="1567" vert-adv-y="2457" 
d="M147 0v1544h531q405 0 603 -193q194 -189 194 -573q0 -778 -797 -778h-531zM481 268h203q227 0 344 143q107 130 107 368q0 268 -132 392q-112 105 -311 105h-211v-1008z" />
    <glyph glyph-name="E" unicode="E" horiz-adv-x="1399" vert-adv-y="2457" 
d="M147 0v1544h1143v-274h-809v-346h764v-275h-764v-375h844v-274h-1178z" />
    <glyph glyph-name="F" unicode="F" horiz-adv-x="1321" vert-adv-y="2457" 
d="M147 0v1544h1127v-274h-793v-357h705v-274h-705v-639h-334z" />
    <glyph glyph-name="G" unicode="G" horiz-adv-x="1614" vert-adv-y="2457" 
d="M1501 1100l-313 -76q-88 281 -357 281q-193 0 -298 -148q-101 -143 -101 -401q0 -251 106 -384q104 -132 297 -132q148 0 244 70q101 75 101 194v71h-248v242h573v-817h-213l-35 156q-156 -193 -465 -193q-284 0 -463 159q-237 209 -237 635q0 384 197 602
q200 222 554 222q346 0 512 -192q96 -110 146 -289z" />
    <glyph glyph-name="H" unicode="H" horiz-adv-x="1606" vert-adv-y="2457" 
d="M147 0v1544h334v-594h643v594h334v-1544h-334v676h-643v-676h-334z" />
    <glyph glyph-name="I" unicode="I" horiz-adv-x="629" vert-adv-y="2457" 
d="M147 0v1544h334v-1544h-334z" />
    <glyph glyph-name="J" unicode="J" horiz-adv-x="1243" vert-adv-y="2457" 
d="M43 469l313 35q16 -131 51 -192q50 -87 158 -87q211 0 211 250v1069h334v-1044q0 -242 -123 -382q-136 -155 -414 -155q-269 0 -402 145q-110 121 -128 361z" />
    <glyph glyph-name="K" unicode="K" horiz-adv-x="1497" vert-adv-y="2457" 
d="M147 0v1544h334v-616l598 616h389l-583 -600l633 -944h-396l-467 719l-174 -178v-541h-334z" />
    <glyph glyph-name="L" unicode="L" horiz-adv-x="1298" vert-adv-y="2457" 
d="M147 0v1544h334v-1270h787v-274h-1121z" />
    <glyph glyph-name="M" unicode="M" horiz-adv-x="1927" vert-adv-y="2457" 
d="M147 0v1544h447l377 -1147l372 1147h437v-1544h-316v1100l-364 -1100h-273l-366 1100v-1100h-314z" />
    <glyph glyph-name="N" unicode="N" horiz-adv-x="1583" vert-adv-y="2457" 
d="M147 0v1544h332l643 -1042v1042h314v-1544h-332l-643 1042v-1042h-314z" />
    <glyph glyph-name="O" unicode="O" horiz-adv-x="1690" vert-adv-y="2457" 
d="M850 1581q349 0 548 -216t199 -595q0 -377 -199 -591q-200 -216 -554 -216q-318 0 -515 178q-237 213 -237 629q0 381 198 595q200 216 560 216zM840 1305q-191 0 -302 -147q-106 -142 -106 -387q0 -244 106 -385q110 -146 306 -146q175 0 283 120q130 143 130 411
q0 245 -108 387q-112 147 -309 147z" />
    <glyph glyph-name="P" unicode="P" horiz-adv-x="1458" vert-adv-y="2457" 
d="M147 0v1544h725q247 0 386 -130q139 -132 139 -359q0 -230 -160 -367q-153 -131 -406 -131h-354v-557h-330zM477 819h320q113 0 184 62q74 66 74 175q0 108 -68 167t-186 59h-324v-463z" />
    <glyph glyph-name="Q" unicode="Q" horiz-adv-x="1690" vert-adv-y="2457" 
d="M1251 -279l-176 271q-116 -27 -229 -27q-357 0 -556 215q-198 213 -198 590q0 381 198 595q200 216 554 216q355 0 554 -216t199 -594q0 -448 -290 -673l155 -239zM911 244l-155 245l211 140l168 -260q122 150 122 401q0 247 -108 389q-111 146 -305 146
q-195 0 -306 -147q-106 -142 -106 -387q0 -244 106 -385q110 -146 306 -146h7q15 0 60 4z" />
    <glyph glyph-name="R" unicode="R" horiz-adv-x="1528" vert-adv-y="2457" 
d="M147 0v1544h738q283 0 416 -153q104 -118 104 -320q0 -288 -272 -414l331 -657h-374l-281 602h-332v-602h-330zM477 862h322q264 0 264 215q0 110 -66 158q-65 47 -198 47h-322v-420z" />
    <glyph glyph-name="S" unicode="S" horiz-adv-x="1485" vert-adv-y="2457" 
d="M53 440l324 78q31 -133 97 -198q91 -91 278 -91q299 0 299 195q0 165 -248 205l-187 30q-237 38 -357 129q-153 117 -153 329q0 226 182 351q165 113 439 113q308 0 472 -129q127 -100 185 -293l-309 -94q-40 122 -110 180q-87 72 -245 72q-124 0 -198 -45
q-78 -49 -78 -140q0 -75 47 -116q56 -49 199 -74l258 -45q233 -41 336 -143q113 -113 113 -313q0 -217 -161 -344q-171 -134 -487 -134q-289 0 -451 103q-179 112 -245 374z" />
    <glyph glyph-name="T" unicode="T" horiz-adv-x="1436" vert-adv-y="2457" 
d="M551 0v1270h-520v274h1374v-274h-520v-1270h-334z" />
    <glyph glyph-name="U" unicode="U" horiz-adv-x="1567" vert-adv-y="2457" 
d="M133 1544h334v-964q0 -340 318 -340q315 0 315 340v964h334v-942q0 -304 -168 -473q-164 -166 -484 -166q-329 0 -495 180q-154 167 -154 459v942z" />
    <glyph glyph-name="V" unicode="V" horiz-adv-x="1470" vert-adv-y="2457" 
d="M530 0l-530 1544h354l391 -1229l392 1229h333l-530 -1544h-410z" />
    <glyph glyph-name="W" unicode="W" horiz-adv-x="2015" vert-adv-y="2457" 
d="M354 0l-354 1544h348l227 -1114l273 1114h330l264 -1114l233 1114h340l-375 -1544h-362l-272 1090l-287 -1090h-365z" />
    <glyph glyph-name="X" unicode="X" horiz-adv-x="1448" vert-adv-y="2457" 
d="M0 0l537 784l-494 760h381l313 -485l324 485h346l-496 -733l537 -811h-397l-338 530l-351 -530h-362z" />
    <glyph glyph-name="Y" unicode="Y" horiz-adv-x="1423" vert-adv-y="2457" 
d="M545 0v618l-545 926h352l373 -649l367 649h331l-544 -926v-618h-334z" />
    <glyph glyph-name="Z" unicode="Z" horiz-adv-x="1376" vert-adv-y="2457" 
d="M70 0v258l837 1012h-807v274h1198v-258l-837 -1012h854v-274h-1245z" />
    <glyph glyph-name="bracketleft" unicode="[" horiz-adv-x="752" vert-adv-y="2457" 
d="M147 -393v1937h545v-215h-264v-1507h264v-215h-545z" />
    <glyph glyph-name="backslash" unicode="\" horiz-adv-x="664" vert-adv-y="2457" 
d="M416 0l-416 1544h248l416 -1544h-248z" />
    <glyph glyph-name="bracketright" unicode="]" horiz-adv-x="752" vert-adv-y="2457" 
d="M59 -393v215h265v1507h-265v215h545v-1937h-545z" />
    <glyph glyph-name="asciicircum" unicode="^" horiz-adv-x="1352" vert-adv-y="2457" 
d="M109 797l430 747h274l430 -747h-303l-264 471l-264 -471h-303z" />
    <glyph glyph-name="underscore" unicode="_" vert-adv-y="2457" 
d="M0 -266v123h1024v-123h-1024z" />
    <glyph glyph-name="grave" unicode="`" horiz-adv-x="942" vert-adv-y="2457" 
d="M487 1272l-309 272h348l236 -272h-275z" />
    <glyph glyph-name="a" unicode="a" horiz-adv-x="1186" vert-adv-y="2457" 
d="M770 698v47q0 152 -182 152q-104 0 -159 -51q-30 -29 -54 -82l-264 72q29 103 121 175q136 107 375 107q256 0 368 -105q98 -91 98 -270v-510q0 -129 43 -233h-285q-19 62 -22 111q-88 -80 -160 -111q-87 -37 -214 -37q-163 0 -261 81q-106 88 -106 249q0 192 139 280
q84 54 260 80zM770 502l-219 -33q-184 -28 -184 -165q0 -58 36 -92q40 -38 113 -38q102 0 175 51q79 55 79 152v125z" />
    <glyph glyph-name="b" unicode="b" horiz-adv-x="1315" vert-adv-y="2457" 
d="M428 133l-12 -133h-289v1544h311v-590q118 162 338 162q204 0 324 -129q139 -148 139 -424q0 -280 -127 -441q-124 -159 -360 -159q-222 0 -324 170zM672 881q-123 0 -189 -109q-51 -85 -51 -239q0 -155 64 -245q64 -91 183 -91q102 0 166 74q77 90 77 267q0 184 -85 278
q-60 65 -165 65z" />
    <glyph glyph-name="c" unicode="c" horiz-adv-x="1182" vert-adv-y="2457" 
d="M1124 760l-290 -72q-55 189 -212 189q-121 0 -182 -101q-53 -87 -53 -240q0 -155 60 -244q59 -87 172 -87q186 0 225 211l293 -74q-120 -379 -523 -379q-247 0 -387 139q-151 150 -151 432q0 252 131 408q146 176 419 176q412 0 498 -358z" />
    <glyph glyph-name="d" unicode="d" horiz-adv-x="1315" vert-adv-y="2457" 
d="M877 961v583h311v-1544h-291l-10 143q-115 -180 -351 -180q-178 0 -294 102q-166 146 -166 452q0 281 124 440t360 159q197 0 317 -155zM632 881q-123 0 -189 -111q-50 -84 -50 -233q0 -156 64 -248q66 -92 180 -92q110 0 175 82q69 86 69 267q0 178 -80 267
q-62 68 -169 68z" />
    <glyph glyph-name="e" unicode="e" horiz-adv-x="1221" vert-adv-y="2457" 
d="M1153 465h-766q13 -268 248 -268q164 0 229 147l264 -121q-129 -260 -503 -260q-246 0 -390 135q-159 150 -159 440q0 257 131 410q144 170 413 170q192 0 317 -78q216 -136 216 -491v-84zM387 649h457q-11 246 -227 246q-195 0 -230 -246z" />
    <glyph glyph-name="f" unicode="f" horiz-adv-x="719" vert-adv-y="2457" 
d="M172 0v856h-143v225h143v131q0 173 88 261q92 92 265 92q75 0 227 -23l-21 -221q-62 6 -94 6q-154 0 -154 -160v-86h234v-225h-234v-856h-311z" />
    <glyph glyph-name="g" unicode="g" horiz-adv-x="1315" vert-adv-y="2457" 
d="M115 -184l268 100q64 -111 224 -111q270 0 270 240v143q-53 -75 -116 -112q-88 -53 -225 -53q-203 0 -321 115q-139 137 -139 410q0 257 106 400q124 170 372 170q230 0 331 -172l14 135h289v-1005q0 -500 -557 -500q-215 0 -354 71q-120 61 -162 169zM636 883
q-243 0 -243 -312q0 -313 245 -313q243 0 243 313q0 312 -245 312z" />
    <glyph glyph-name="h" unicode="h" horiz-adv-x="1278" vert-adv-y="2457" 
d="M127 0v1544h311v-608q114 182 357 182q356 0 356 -399v-719h-311v676q0 196 -173 196q-102 0 -163 -81q-66 -86 -66 -238v-553h-311z" />
    <glyph glyph-name="i" unicode="i" horiz-adv-x="588" vert-adv-y="2457" 
d="M137 0v1081h312v-1081h-312zM137 1278v266h312v-266h-312z" />
    <glyph glyph-name="j" unicode="j" horiz-adv-x="598" vert-adv-y="2457" 
d="M-127 -395l29 223q66 -14 118 -14q127 0 127 131v1136h312v-1159q0 -346 -328 -346h-18q-136 0 -240 29zM147 1278v266h312v-266h-312z" />
    <glyph glyph-name="k" unicode="k" horiz-adv-x="1202" vert-adv-y="2457" 
d="M127 0v1544h311v-811l371 348h385l-393 -368l418 -713h-357l-291 518l-133 -127v-391h-311z" />
    <glyph glyph-name="l" unicode="l" horiz-adv-x="588" vert-adv-y="2457" 
d="M137 0v1544h312v-1544h-312z" />
    <glyph glyph-name="m" unicode="m" horiz-adv-x="1874" vert-adv-y="2457" 
d="M127 0v1081h297l16 -153q105 190 321 190q224 0 298 -198q113 198 347 198q339 0 339 -391v-727h-311v676q0 196 -148 196q-90 0 -139 -75q-55 -84 -55 -244v-553h-312v676q0 196 -147 196q-89 0 -139 -75q-56 -83 -56 -244v-553h-311z" />
    <glyph glyph-name="n" unicode="n" horiz-adv-x="1278" vert-adv-y="2457" 
d="M127 0v1081h299l16 -153q110 190 351 190q358 0 358 -399v-719h-311v676q0 196 -173 196q-102 0 -163 -81q-66 -86 -66 -238v-553h-311z" />
    <glyph glyph-name="o" unicode="o" horiz-adv-x="1292" vert-adv-y="2457" 
d="M649 1118q276 0 430 -171q138 -154 138 -408q0 -253 -138 -405q-155 -171 -434 -171q-255 0 -406 142q-163 154 -163 434q0 256 135 408q153 171 438 171zM640 879q-116 0 -185 -93q-68 -91 -68 -247q0 -155 68 -245q69 -91 190 -91q113 0 183 82q75 88 75 259
q0 174 -91 269q-63 66 -172 66z" />
    <glyph glyph-name="p" unicode="p" horiz-adv-x="1315" vert-adv-y="2457" 
d="M127 -393v1474h289l10 -139q120 176 352 176q203 0 322 -128q139 -147 139 -424q0 -281 -127 -442q-124 -159 -363 -159q-208 0 -311 156v-514h-311zM672 883q-123 0 -189 -109q-51 -84 -51 -239t64 -244q64 -92 183 -92q103 0 166 74q77 90 77 267q0 184 -85 278
q-60 65 -165 65z" />
    <glyph glyph-name="q" unicode="q" horiz-adv-x="1315" vert-adv-y="2457" 
d="M877 -393v520q-120 -162 -341 -162q-200 0 -321 128q-139 148 -139 426q0 281 124 440t360 159q224 0 325 -174l14 137h289v-1474h-311zM632 883q-123 0 -189 -111q-50 -83 -50 -234q0 -155 64 -247q66 -92 181 -92q109 0 174 82q69 86 69 267q0 178 -80 267
q-61 68 -169 68z" />
    <glyph glyph-name="r" unicode="r" horiz-adv-x="821" vert-adv-y="2457" 
d="M127 0v1081h295l16 -190q31 74 67 117q72 86 201 86q49 0 115 -13l-26 -260q-76 10 -116 10q-113 0 -178 -82q-63 -79 -63 -217v-532h-311z" />
    <glyph glyph-name="s" unicode="s" horiz-adv-x="1139" vert-adv-y="2457" 
d="M41 268l287 80q56 -162 233 -162q176 0 176 111q0 49 -33 76q-35 29 -122 47l-138 29q-214 45 -294 130q-68 71 -68 201q0 160 132 251q127 87 347 87q246 0 385 -116q68 -56 103 -150l-277 -96q-28 71 -66 101q-55 44 -152 44q-159 0 -159 -111q0 -75 131 -102l219 -45
q190 -39 261 -135q55 -75 55 -198q0 -159 -125 -251q-131 -96 -371 -96q-228 0 -375 98q-93 62 -149 207z" />
    <glyph glyph-name="t" unicode="t" horiz-adv-x="799" vert-adv-y="2457" 
d="M190 856h-141v225h141v308h312v-308h227v-225h-227v-508q0 -127 116 -127q52 0 113 6l27 -221q-122 -26 -269 -26q-149 0 -223 75q-76 77 -76 252v549z" />
    <glyph glyph-name="u" unicode="u" horiz-adv-x="1278" vert-adv-y="2457" 
d="M127 1081h311v-665q0 -201 170 -201q116 0 178 93q54 82 54 220v553h311v-1081h-299l-14 154q-111 -191 -343 -191q-196 0 -290 121q-78 100 -78 260v737z" />
    <glyph glyph-name="v" unicode="v" horiz-adv-x="1124" vert-adv-y="2457" 
d="M387 0l-387 1081h332l235 -790l236 790h321l-385 -1081h-352z" />
    <glyph glyph-name="w" unicode="w" horiz-adv-x="1675" vert-adv-y="2457" 
d="M313 0l-313 1081h319l177 -800l192 800h309l191 -800l178 800h309l-313 -1081h-352l-172 739l-172 -739h-353z" />
    <glyph glyph-name="x" unicode="x" horiz-adv-x="1161" vert-adv-y="2457" 
d="M0 0l408 551l-377 530h352l207 -295l211 295h332l-377 -518l405 -563h-360l-226 326l-233 -326h-342z" />
    <glyph glyph-name="y" unicode="y" horiz-adv-x="1202" vert-adv-y="2457" 
d="M92 -389l47 219q70 -18 137 -18q125 0 175 127l20 51l-471 1091h336l282 -747l263 747h321l-459 -1210q-48 -127 -114 -195q-96 -100 -264 -100h-19q-127 0 -254 35z" />
    <glyph glyph-name="z" unicode="z" horiz-adv-x="1075" vert-adv-y="2457" 
d="M53 0v217l578 639h-545v225h913v-217l-577 -639h600v-225h-969z" />
    <glyph glyph-name="braceleft" unicode="{" horiz-adv-x="895" vert-adv-y="2457" 
d="M59 457v233q70 0 128 22q94 36 94 119v416q0 172 95 247q63 50 169 50h291v-215h-142q-82 0 -113 -44q-20 -28 -20 -87v-410q0 -139 -101 -187q-39 -19 -124 -28q105 -12 147 -38q78 -49 78 -175v-407q0 -59 20 -87q31 -44 113 -44h142v-215h-291q-115 0 -186 68
q-78 74 -78 231v409q0 94 -127 130q-45 12 -95 12z" />
    <glyph glyph-name="bar" unicode="|" horiz-adv-x="502" vert-adv-y="2457" 
d="M127 0v1544h248v-1544h-248z" />
    <glyph glyph-name="braceright" unicode="}" horiz-adv-x="895" vert-adv-y="2457" 
d="M59 -393v215h142q91 0 120 55q13 23 13 76v407q0 139 101 186q37 18 124 27q-91 10 -131 31q-94 51 -94 184v410q0 66 -26 94q-34 37 -107 37h-142v215h291q264 0 264 -297v-416q0 -97 128 -130q43 -11 94 -11v-233q-69 -1 -127 -23q-95 -35 -95 -119v-409
q0 -171 -98 -248q-64 -51 -166 -51h-291z" />
    <glyph glyph-name="asciitilde" unicode="~" horiz-adv-x="1565" vert-adv-y="2457" 
d="M354 412l-233 65q82 410 393 410q139 0 300 -108l44 -30q102 -68 125 -78q32 -14 65 -14q79 0 120 77q26 48 42 149l234 -66q-79 -409 -386 -409q-162 0 -333 121l-36 26q-89 63 -116 72q-30 10 -60 10q-81 0 -121 -87q-21 -49 -38 -138z" />
    <glyph glyph-name="nbspace" unicode="&#xa0;" horiz-adv-x="510" vert-adv-y="2457" 
 />
    <glyph glyph-name="exclamdown" unicode="&#xa1;" horiz-adv-x="705" vert-adv-y="2457" 
d="M190 -396v340l33 676h258l33 -676v-340h-324zM190 821v327h324v-327h-324z" />
    <glyph glyph-name="cent" unicode="&#xa2;" horiz-adv-x="1182" vert-adv-y="2457" 
d="M557 -37v197q-218 21 -342 159q-139 153 -139 412q0 271 151 429q123 127 330 149v188h139v-186q175 -20 279 -103q107 -85 149 -254l-266 -63q-40 150 -162 170v-647q136 33 172 188l269 -65q-105 -336 -441 -375v-199h-139zM557 410v655q-180 -59 -180 -330
q0 -274 180 -325z" />
    <glyph glyph-name="sterling" unicode="&#xa3;" horiz-adv-x="1294" vert-adv-y="2457" 
d="M78 0v231q173 70 251 166q66 82 72 203h-280v182h217q-39 48 -67 82q-130 152 -130 308q0 196 158 306q147 103 402 103q306 0 437 -169q72 -93 105 -245l-303 -69q-36 241 -249 241q-148 0 -199 -86q-25 -42 -25 -95q0 -81 84 -185l4 -4q18 -22 39 -47q62 -75 84 -140
h354v-182h-338q-15 -125 -74 -209q-51 -73 -149 -135h768v-256h-1161z" />
    <glyph glyph-name="currency" unicode="&#xa4;" horiz-adv-x="1290" vert-adv-y="2457" 
d="M225 211l-139 139l123 123q-94 140 -94 301q0 165 94 301l-123 123l139 139l123 -123q134 91 295 91q158 0 299 -91l123 123l139 -139l-123 -123q95 -137 95 -300q0 -165 -95 -302l123 -123l-139 -139l-123 123q-137 -90 -296 -90q-160 0 -298 90zM640 1081
q-118 0 -202 -89q-84 -90 -84 -218t84 -217q84 -90 206 -90q117 0 202 83q90 88 90 228q0 143 -105 235q-78 68 -191 68z" />
    <glyph glyph-name="yen" unicode="&#xa5;" horiz-adv-x="1413" vert-adv-y="2457" 
d="M547 0v307h-314v156h314v160h-314v155h220l-443 766h348l363 -649l354 649h328l-442 -766h217v-155h-312v-160h312v-156h-312v-307h-319z" />
    <glyph glyph-name="brokenbar" unicode="&#xa6;" horiz-adv-x="502" vert-adv-y="2457" 
d="M127 0v514h248v-514h-248zM127 1030v514h248v-514h-248z" />
    <glyph glyph-name="section" unicode="&#xa7;" horiz-adv-x="1225" vert-adv-y="2457" 
d="M41 119l291 88q64 -197 275 -197q204 0 204 129q0 59 -43 91q-41 32 -129 53l-174 41q-198 47 -284 110q-107 80 -107 209q0 184 172 268q-81 44 -117 92q-55 74 -55 189q0 179 138 278q134 95 376 95q283 0 416 -119q76 -67 116 -174l-274 -107q-55 176 -264 176
q-91 0 -141 -35q-48 -35 -48 -96q0 -42 29 -67q31 -27 115 -47l288 -70q312 -76 312 -300q0 -189 -179 -277q90 -46 134 -104q55 -73 55 -185q0 -192 -160 -291q-139 -86 -384 -86q-465 0 -562 336zM711 535q58 4 95 37q40 35 40 90q0 103 -162 139l-186 41
q-131 -28 -131 -133q0 -49 31 -78q39 -36 139 -58z" />
    <glyph glyph-name="dieresis" unicode="&#xa8;" horiz-adv-x="942" vert-adv-y="2457" 
d="M80 1278v266h266v-266h-266zM596 1278v266h266v-266h-266z" />
    <glyph glyph-name="copyright" unicode="&#xa9;" horiz-adv-x="1798" vert-adv-y="2457" 
d="M1257 946l-219 -53q-38 123 -149 123q-172 0 -172 -241q0 -230 172 -230q133 0 158 147l223 -30q-74 -320 -380 -320q-164 0 -265 88q-129 113 -129 343q0 206 103 325q106 121 296 121q279 0 362 -273zM906 1579q240 0 446 -139q196 -132 293 -356q61 -141 61 -314
q0 -333 -236 -568q-236 -237 -571 -237q-310 0 -541 208q-125 113 -194 265q-72 160 -72 333q0 251 138 454q133 196 356 292q143 62 320 62zM895 1386q-241 0 -416 -181q-176 -181 -176 -433t176 -434q175 -180 420 -180q218 0 387 149q96 85 152 205q57 123 57 260
q0 253 -176 433q-176 181 -424 181z" />
    <glyph glyph-name="ordfeminine" unicode="&#xaa;" horiz-adv-x="862" vert-adv-y="2457" 
d="M557 1298v17q0 96 -133 96q-72 0 -112 -33q-21 -18 -40 -43l-196 47q21 64 81 111q94 72 274 72q347 0 347 -244v-332q0 -81 31 -151h-209q-10 25 -16 88q-95 -111 -273 -111q-120 0 -189 53q-75 59 -75 169q0 124 89 183q57 39 175 52zM557 1159l-168 -20
q-123 -15 -123 -95q0 -77 107 -77q72 0 125 36q59 39 59 101v55z" />
    <glyph glyph-name="guillemotleft" unicode="&#xab;" horiz-adv-x="1120" vert-adv-y="2457" 
d="M279 174l-246 361l246 360h303l-244 -360l244 -361h-303zM784 174l-243 361l243 360h303l-241 -360l241 -361h-303z" />
    <glyph glyph-name="logicalnot" unicode="&#xac;" horiz-adv-x="1288" vert-adv-y="2457" 
d="M928 373v450h-836v267h1106v-717h-270z" />
    <glyph glyph-name="uni00AD" unicode="&#xad;" horiz-adv-x="938" vert-adv-y="2457" 
d="M102 385v317h734v-317h-734z" />
    <glyph glyph-name="registered" unicode="&#xae;" horiz-adv-x="1798" vert-adv-y="2457" 
d="M580 356v848h383q148 0 227 -70q78 -69 78 -197q0 -170 -154 -232l186 -349h-237l-154 312h-121v-312h-208zM788 831h117q146 0 146 106q0 101 -146 101h-117v-207zM906 1579q240 0 446 -139q196 -132 293 -356q61 -141 61 -314q0 -333 -236 -568q-236 -237 -571 -237
q-310 0 -541 208q-125 113 -194 265q-72 160 -72 333q0 251 138 454q133 196 356 292q143 62 320 62zM895 1386q-241 0 -416 -181q-176 -181 -176 -433t176 -434q175 -180 420 -180q218 0 387 149q96 85 152 205q57 123 57 260q0 253 -176 433q-176 181 -424 181z" />
    <glyph glyph-name="macron" unicode="&#xaf;" horiz-adv-x="942" vert-adv-y="2457" 
d="M41 1305v206h858v-206h-858z" />
    <glyph glyph-name="degree" unicode="&#xb0;" horiz-adv-x="889" vert-adv-y="2457" 
d="M448 1565q110 0 208 -64q171 -113 171 -323q0 -111 -64 -209q-60 -90 -152 -132q-82 -38 -169 -38q-140 0 -248 92q-133 114 -133 291q0 159 112 271t275 112zM440 1374q-79 0 -130 -71q-38 -54 -38 -123q0 -75 49 -132q50 -59 124 -59q67 0 119 55t52 140q0 86 -61 145
q-48 45 -115 45z" />
    <glyph glyph-name="plusminus" unicode="&#xb1;" horiz-adv-x="1288" vert-adv-y="2457" 
d="M92 0v258h414v344h-414v258h414v424h278v-424h414v-258h-414v-344h414v-258h-1106z" />
    <glyph glyph-name="twosuperior" unicode="&#xb2;" horiz-adv-x="932" vert-adv-y="2457" 
d="M94 592v59q0 175 189 297q67 43 146 90q97 56 119 77q46 45 46 96q0 102 -123 102q-121 0 -145 -135l-244 24q56 295 411 295q179 0 277 -82q86 -72 86 -191q0 -176 -280 -328q-26 -14 -76 -44q-46 -27 -82 -59h440v-201h-764z" />
    <glyph glyph-name="threesuperior" unicode="&#xb3;" horiz-adv-x="932" vert-adv-y="2457" 
d="M57 877l244 26q13 -151 162 -151q137 0 137 108q0 92 -162 92h-35v185q193 0 193 101q0 85 -126 85q-138 0 -148 -125l-248 27q49 272 410 272q175 0 271 -67q93 -66 93 -182q0 -141 -150 -201q164 -39 164 -202q0 -127 -103 -201q-103 -73 -294 -73q-209 0 -313 88
q-93 79 -95 218z" />
    <glyph glyph-name="acute" unicode="&#xb4;" horiz-adv-x="942" vert-adv-y="2457" 
d="M180 1272l236 272h348l-309 -272h-275z" />
    <glyph glyph-name="mu" unicode="&#xb5;" horiz-adv-x="1278" vert-adv-y="2457" 
d="M127 -394v1475h311v-665q0 -201 173 -201q112 0 174 95q55 85 55 218v553h311v-1081h-299l-14 154q-51 -191 -220 -191q-62 0 -117 29q-42 23 -63 55v-441h-311z" />
    <glyph glyph-name="paragraph" unicode="&#xb6;" horiz-adv-x="1554" vert-adv-y="2457" 
d="M715 -393v950h-53q-253 0 -406 131q-160 137 -160 368q0 256 172 387q133 101 353 101h907v-213h-154v-1724h-213v1724h-233v-1724h-213z" />
    <glyph glyph-name="periodcentered" unicode="&#xb7;" horiz-adv-x="621" vert-adv-y="2457" 
d="M137 561v338h346v-338h-346z" />
    <glyph glyph-name="cedilla" unicode="&#xb8;" horiz-adv-x="942" vert-adv-y="2457" 
d="M256 -393l217 272h213l-154 -272h-276z" />
    <glyph glyph-name="onesuperior" unicode="&#xb9;" horiz-adv-x="932" vert-adv-y="2457" 
d="M377 592v620q-75 -41 -197 -90l-82 174q198 90 332 181h195v-885h-248z" />
    <glyph glyph-name="ordmasculine" unicode="&#xba;" horiz-adv-x="938" vert-adv-y="2457" 
d="M476 1565q217 0 326 -138q75 -96 75 -243q0 -159 -99 -259q-110 -110 -312 -110q-182 0 -289 91q-116 100 -116 283q0 189 123 291q103 85 292 85zM464 1378q-79 0 -126 -51t-47 -138q0 -86 47 -137t129 -51q78 0 125 47q51 51 51 144q0 85 -47 135q-49 51 -132 51z" />
    <glyph glyph-name="guillemotright" unicode="&#xbb;" horiz-adv-x="1120" vert-adv-y="2457" 
d="M33 174l243 361l-243 360h303l246 -360l-246 -361h-303zM541 174l241 361l-241 360h303l243 -360l-243 -361h-303z" />
    <glyph glyph-name="onequarter" unicode="&#xbc;" horiz-adv-x="2130" vert-adv-y="2457" 
d="M526 -37l836 1534h240l-836 -1534h-240zM1710 -16v168h-473v188l453 528h256v-540h102v-176h-102v-168h-236zM1468 328h242v288zM377 592v620q-75 -41 -197 -90l-82 174q198 90 332 181h195v-885h-248z" />
    <glyph glyph-name="onehalf" unicode="&#xbd;" horiz-adv-x="2130" vert-adv-y="2457" 
d="M510 -37l836 1534h239l-835 -1534h-240zM1303 -16v59q0 153 153 271q46 35 181 116q97 57 119 77q46 45 46 96q0 102 -123 102q-122 0 -145 -136l-244 25q58 295 412 295q177 0 276 -82q86 -71 86 -192q0 -172 -280 -327l-10 -6q-102 -57 -148 -98h440v-200h-763z
M377 592v620q-75 -41 -197 -90l-82 174q198 90 332 181h195v-885h-248z" />
    <glyph glyph-name="threequarters" unicode="&#xbe;" horiz-adv-x="2130" vert-adv-y="2457" 
d="M573 -37l836 1534h240l-836 -1534h-240zM1710 -16v168h-473v188l453 528h256v-540h102v-176h-102v-168h-236zM1468 328h242v288zM57 877l244 26q13 -151 162 -151q137 0 137 108q0 92 -162 92h-35v185q193 0 193 101q0 85 -126 85q-138 0 -148 -125l-248 27
q49 272 410 272q175 0 271 -67q93 -66 93 -182q0 -141 -150 -201q164 -39 164 -202q0 -127 -103 -201q-103 -73 -294 -73q-209 0 -313 88q-93 79 -95 218z" />
    <glyph glyph-name="questiondown" unicode="&#xbf;" horiz-adv-x="1241" vert-adv-y="2457" 
d="M522 655h295v-123q0 -65 -19 -117q-6 -18 -50 -70q-62 -50 -167 -115q-161 -101 -161 -234q0 -193 214 -193q221 0 253 260l301 -41q-71 -455 -552 -455q-247 0 -387 100q-153 110 -153 324q0 148 88 253q28 33 68 67q26 21 127 88q21 15 34 21q109 57 109 159v76z
M508 821v327h323v-327h-323z" />
    <glyph glyph-name="Agrave" unicode="&#xc0;" horiz-adv-x="1554" vert-adv-y="2457" 
d="M0 0l569 1544h416l569 -1544h-354l-117 326h-639l-118 -326h-326zM539 590h448l-223 661zM671 1658l-309 272h348l236 -272h-275z" />
    <glyph glyph-name="Aacute" unicode="&#xc1;" horiz-adv-x="1554" vert-adv-y="2457" 
d="M0 0l569 1544h416l569 -1544h-354l-117 326h-639l-118 -326h-326zM539 590h448l-223 661zM631 1658l236 272h348l-309 -272h-275z" />
    <glyph glyph-name="Acircumflex" unicode="&#xc2;" horiz-adv-x="1554" vert-adv-y="2457" 
d="M0 0l569 1544h416l569 -1544h-354l-117 326h-639l-118 -326h-326zM539 590h448l-223 661zM350 1658l268 272h307l269 -272h-281l-141 123l-141 -123h-281z" />
    <glyph glyph-name="Atilde" unicode="&#xc3;" horiz-adv-x="1554" vert-adv-y="2457" 
d="M0 0l569 1544h416l569 -1544h-354l-117 326h-639l-118 -326h-326zM539 590h448l-223 661zM526 1653l-174 39q55 262 250 262q74 0 172 -53l68 -37q49 -27 80 -27q60 0 82 98l174 -38q-55 -263 -253 -263q-39 0 -74 10q-34 10 -114 54l-49 27q-48 26 -76 26q-63 0 -86 -98
z" />
    <glyph glyph-name="Adieresis" unicode="&#xc4;" horiz-adv-x="1554" vert-adv-y="2457" 
d="M0 0l569 1544h416l569 -1544h-354l-117 326h-639l-118 -326h-326zM539 590h448l-223 661zM387 1661v266h266v-266h-266zM903 1661v266h266v-266h-266z" />
    <glyph glyph-name="Aring" unicode="&#xc5;" horiz-adv-x="1554" vert-adv-y="2457" 
d="M568 1542q-68 63 -68 163q0 116 87 183q73 56 192 56q142 0 219 -87q55 -63 55 -153q0 -95 -68 -160l569 -1544h-354l-117 326h-639l-118 -326h-326zM539 590h448l-223 661zM772 1821q-71 0 -108 -46q-21 -26 -21 -70q0 -50 32 -80q37 -34 101 -34q62 0 100 34
q33 31 33 83t-37 82q-37 31 -100 31z" />
    <glyph glyph-name="AE" unicode="&#xc6;" horiz-adv-x="2406" vert-adv-y="2457" 
d="M-18 0l931 1544h1385v-274h-809v-346h764v-275h-764v-375h844v-274h-1178v354h-612l-215 -354h-346zM702 618h453v658h-55z" />
    <glyph glyph-name="Ccedilla" unicode="&#xc7;" horiz-adv-x="1583" vert-adv-y="2457" 
d="M1501 1075l-332 -76q-78 306 -352 306q-191 0 -290 -147q-95 -140 -95 -403q0 -513 389 -513q313 0 361 354l338 -43q-129 -590 -702 -590q-302 0 -489 166q-237 210 -237 631q0 383 190 599q195 222 548 222q344 0 521 -208q95 -113 150 -298zM481 -393l217 272h213
l-154 -272h-276z" />
    <glyph glyph-name="Egrave" unicode="&#xc8;" horiz-adv-x="1399" vert-adv-y="2457" 
d="M147 0v1544h1143v-274h-809v-346h764v-275h-764v-375h844v-274h-1178zM686 1658l-309 272h348l236 -272h-275z" />
    <glyph glyph-name="Eacute" unicode="&#xc9;" horiz-adv-x="1399" vert-adv-y="2457" 
d="M147 0v1544h1143v-274h-809v-346h764v-275h-764v-375h844v-274h-1178zM526 1658l236 272h348l-309 -272h-275z" />
    <glyph glyph-name="Ecircumflex" unicode="&#xca;" horiz-adv-x="1399" vert-adv-y="2457" 
d="M147 0v1544h1143v-274h-809v-346h764v-275h-764v-375h844v-274h-1178zM301 1658l268 272h307l269 -272h-281l-141 123l-141 -123h-281z" />
    <glyph glyph-name="Edieresis" unicode="&#xcb;" horiz-adv-x="1399" vert-adv-y="2457" 
d="M147 0v1544h1143v-274h-809v-346h764v-275h-764v-375h844v-274h-1178zM334 1661v266h266v-266h-266zM850 1661v266h266v-266h-266z" />
    <glyph glyph-name="Igrave" unicode="&#xcc;" horiz-adv-x="629" vert-adv-y="2457" 
d="M147 0v1544h334v-1544h-334zM196 1658l-309 272h348l236 -272h-275z" />
    <glyph glyph-name="Iacute" unicode="&#xcd;" horiz-adv-x="629" vert-adv-y="2457" 
d="M147 0v1544h334v-1544h-334zM168 1658l236 272h348l-309 -272h-275z" />
    <glyph glyph-name="Icircumflex" unicode="&#xce;" horiz-adv-x="629" vert-adv-y="2457" 
d="M147 0v1544h334v-1544h-334zM-110 1658l268 272h307l269 -272h-281l-141 123l-141 -123h-281z" />
    <glyph glyph-name="Idieresis" unicode="&#xcf;" horiz-adv-x="629" vert-adv-y="2457" 
d="M147 0v1544h334v-1544h-334zM-75 1661v266h266v-266h-266zM441 1661v266h266v-266h-266z" />
    <glyph glyph-name="Eth" unicode="&#xd0;" horiz-adv-x="1567" vert-adv-y="2457" 
d="M147 0v686h-147v199h147v659h531q406 0 604 -193q193 -189 193 -573q0 -778 -797 -778h-531zM481 268h203q227 0 344 143q107 130 107 369q0 266 -132 391q-112 105 -311 105h-211v-391h350v-199h-350v-418z" />
    <glyph glyph-name="Ntilde" unicode="&#xd1;" horiz-adv-x="1583" vert-adv-y="2457" 
d="M147 0v1544h332l643 -1042v1042h314v-1544h-332l-643 1042v-1042h-314zM545 1653l-174 39q55 262 250 262q74 0 172 -53l68 -37q49 -27 80 -27q59 0 82 98l174 -38q-55 -263 -253 -263q-40 0 -75 10q-33 10 -113 54l-49 27q-48 26 -77 26q-62 0 -85 -98z" />
    <glyph glyph-name="Ograve" unicode="&#xd2;" horiz-adv-x="1690" vert-adv-y="2457" 
d="M850 1581q349 0 548 -216t199 -595q0 -377 -199 -591q-200 -216 -554 -216q-318 0 -515 178q-237 213 -237 629q0 381 198 595q200 216 560 216zM840 1305q-191 0 -302 -147q-106 -142 -106 -387q0 -244 106 -385q110 -146 306 -146q175 0 283 120q130 143 130 411
q0 245 -108 387q-112 147 -309 147zM775 1658l-309 272h348l236 -272h-275z" />
    <glyph glyph-name="Oacute" unicode="&#xd3;" horiz-adv-x="1690" vert-adv-y="2457" 
d="M850 1581q349 0 548 -216t199 -595q0 -377 -199 -591q-200 -216 -554 -216q-318 0 -515 178q-237 213 -237 629q0 381 198 595q200 216 560 216zM840 1305q-191 0 -302 -147q-106 -142 -106 -387q0 -244 106 -385q110 -146 306 -146q175 0 283 120q130 143 130 411
q0 245 -108 387q-112 147 -309 147zM666 1658l236 272h348l-309 -272h-275z" />
    <glyph glyph-name="Ocircumflex" unicode="&#xd4;" horiz-adv-x="1690" vert-adv-y="2457" 
d="M850 1581q349 0 548 -216t199 -595q0 -377 -199 -591q-200 -216 -554 -216q-318 0 -515 178q-237 213 -237 629q0 381 198 595q200 216 560 216zM840 1305q-191 0 -302 -147q-106 -142 -106 -387q0 -244 106 -385q110 -146 306 -146q175 0 283 120q130 143 130 411
q0 245 -108 387q-112 147 -309 147zM417 1658l269 272h307l269 -272h-281l-141 123l-141 -123h-282z" />
    <glyph glyph-name="Otilde" unicode="&#xd5;" horiz-adv-x="1690" vert-adv-y="2457" 
d="M850 1581q349 0 548 -216t199 -595q0 -377 -199 -591q-200 -216 -554 -216q-318 0 -515 178q-237 213 -237 629q0 381 198 595q200 216 560 216zM840 1305q-191 0 -302 -147q-106 -142 -106 -387q0 -244 106 -385q110 -146 306 -146q175 0 283 120q130 143 130 411
q0 245 -108 387q-112 147 -309 147zM606 1653l-174 39q55 262 250 262q74 0 172 -53l68 -37q49 -27 80 -27q59 0 82 98l174 -38q-55 -263 -253 -263q-40 0 -75 10q-33 10 -113 54l-49 27q-48 26 -77 26q-62 0 -85 -98z" />
    <glyph glyph-name="Odieresis" unicode="&#xd6;" horiz-adv-x="1690" vert-adv-y="2457" 
d="M850 1581q349 0 548 -216t199 -595q0 -377 -199 -591q-200 -216 -554 -216q-318 0 -515 178q-237 213 -237 629q0 381 198 595q200 216 560 216zM840 1305q-191 0 -302 -147q-106 -142 -106 -387q0 -244 106 -385q110 -146 306 -146q175 0 283 120q130 143 130 411
q0 245 -108 387q-112 147 -309 147zM454 1661v266h266v-266h-266zM971 1661v266h266v-266h-266z" />
    <glyph glyph-name="multiply" unicode="&#xd7;" horiz-adv-x="1288" vert-adv-y="2457" 
d="M350 211l-194 180l309 340l-309 340l194 180l295 -323l295 323l195 -180l-310 -340l310 -340l-195 -180l-295 324z" />
    <glyph glyph-name="Oslash" unicode="&#xd8;" horiz-adv-x="1690" vert-adv-y="2457" 
d="M307 -168l-164 113l156 223q-207 221 -207 602t198 595q200 216 553 216q216 0 388 -88l153 219l162 -115l-155 -223q206 -223 206 -603q0 -378 -199 -592q-200 -216 -554 -216q-214 0 -383 86zM1192 1092l-557 -795q90 -57 209 -57q175 0 283 120q130 143 130 411
q0 180 -65 321zM498 451l559 794q-97 60 -213 60q-195 0 -306 -147q-106 -142 -106 -388q0 -179 66 -319z" />
    <glyph glyph-name="Ugrave" unicode="&#xd9;" horiz-adv-x="1567" vert-adv-y="2457" 
d="M133 1544h334v-964q0 -340 318 -340q315 0 315 340v964h334v-942q0 -304 -168 -473q-164 -166 -484 -166q-329 0 -495 180q-154 167 -154 459v942zM698 1658l-309 272h348l236 -272h-275z" />
    <glyph glyph-name="Uacute" unicode="&#xda;" horiz-adv-x="1567" vert-adv-y="2457" 
d="M133 1544h334v-964q0 -340 318 -340q315 0 315 340v964h334v-942q0 -304 -168 -473q-164 -166 -484 -166q-329 0 -495 180q-154 167 -154 459v942zM610 1658l235 272h348l-309 -272h-274z" />
    <glyph glyph-name="Ucircumflex" unicode="&#xdb;" horiz-adv-x="1567" vert-adv-y="2457" 
d="M133 1544h334v-964q0 -340 318 -340q315 0 315 340v964h334v-942q0 -304 -168 -473q-164 -166 -484 -166q-329 0 -495 180q-154 167 -154 459v942zM357 1658l268 272h307l269 -272h-281l-141 123l-141 -123h-281z" />
    <glyph glyph-name="Udieresis" unicode="&#xdc;" horiz-adv-x="1567" vert-adv-y="2457" 
d="M133 1544h334v-964q0 -340 318 -340q315 0 315 340v964h334v-942q0 -304 -168 -473q-164 -166 -484 -166q-329 0 -495 180q-154 167 -154 459v942zM394 1661v266h266v-266h-266zM910 1661v266h266v-266h-266z" />
    <glyph glyph-name="Yacute" unicode="&#xdd;" horiz-adv-x="1423" vert-adv-y="2457" 
d="M545 0v618l-545 926h352l373 -649l367 649h331l-544 -926v-618h-334zM554 1658l235 272h348l-309 -272h-274z" />
    <glyph glyph-name="Thorn" unicode="&#xde;" horiz-adv-x="1462" vert-adv-y="2457" 
d="M147 0v1544h330v-260h365q246 0 384 -131q140 -131 140 -358q0 -230 -160 -367q-153 -131 -405 -131h-324v-297h-330zM477 559h289q113 0 184 62q74 66 74 175q0 108 -67 167q-68 59 -187 59h-293v-463z" />
    <glyph glyph-name="germandbls" unicode="&#xdf;" horiz-adv-x="1315" vert-adv-y="2457" 
d="M598 -2l25 231q27 -4 52 -4q245 0 245 256q0 144 -77 203q-69 53 -222 53h-27v226h22q228 0 228 215q0 89 -63 137q-51 39 -136 39q-207 0 -207 -258v-1096h-311v1079q0 195 94 317q129 169 432 169q212 0 339 -78q159 -98 159 -285q0 -216 -207 -321q295 -62 295 -386
q0 -226 -105 -357q-125 -156 -367 -156q-103 0 -169 16z" />
    <glyph glyph-name="agrave" unicode="&#xe0;" horiz-adv-x="1186" vert-adv-y="2457" 
d="M770 698v47q0 152 -182 152q-104 0 -159 -51q-30 -29 -54 -82l-264 72q29 103 121 175q136 107 375 107q256 0 368 -105q98 -91 98 -270v-510q0 -129 43 -233h-285q-19 62 -22 111q-88 -80 -160 -111q-87 -37 -214 -37q-163 0 -261 81q-106 88 -106 249q0 192 139 280
q84 54 260 80zM770 502l-219 -33q-184 -28 -184 -165q0 -58 36 -92q40 -38 113 -38q102 0 175 51q79 55 79 152v125zM552 1272l-309 272h348l236 -272h-275z" />
    <glyph glyph-name="aacute" unicode="&#xe1;" horiz-adv-x="1186" vert-adv-y="2457" 
d="M770 698v47q0 152 -182 152q-104 0 -159 -51q-30 -29 -54 -82l-264 72q29 103 121 175q136 107 375 107q256 0 368 -105q98 -91 98 -270v-510q0 -129 43 -233h-285q-19 62 -22 111q-88 -80 -160 -111q-87 -37 -214 -37q-163 0 -261 81q-106 88 -106 249q0 192 139 280
q84 54 260 80zM770 502l-219 -33q-184 -28 -184 -165q0 -58 36 -92q40 -38 113 -38q102 0 175 51q79 55 79 152v125zM386 1272l236 272h348l-309 -272h-275z" />
    <glyph glyph-name="acircumflex" unicode="&#xe2;" horiz-adv-x="1186" vert-adv-y="2457" 
d="M770 698v47q0 152 -182 152q-104 0 -159 -51q-30 -29 -54 -82l-264 72q29 103 121 175q136 107 375 107q256 0 368 -105q98 -91 98 -270v-510q0 -129 43 -233h-285q-19 62 -22 111q-88 -80 -160 -111q-87 -37 -214 -37q-163 0 -261 81q-106 88 -106 249q0 192 139 280
q84 54 260 80zM770 502l-219 -33q-184 -28 -184 -165q0 -58 36 -92q40 -38 113 -38q102 0 175 51q79 55 79 152v125zM182 1272l268 272h307l269 -272h-281l-141 123l-141 -123h-281z" />
    <glyph glyph-name="atilde" unicode="&#xe3;" horiz-adv-x="1186" vert-adv-y="2457" 
d="M770 698v47q0 152 -182 152q-104 0 -159 -51q-30 -29 -54 -82l-264 72q29 103 121 175q136 107 375 107q256 0 368 -105q98 -91 98 -270v-510q0 -129 43 -233h-285q-19 62 -22 111q-88 -80 -160 -111q-87 -37 -214 -37q-163 0 -261 81q-106 88 -106 249q0 192 139 280
q84 54 260 80zM770 502l-219 -33q-184 -28 -184 -165q0 -58 36 -92q40 -38 113 -38q102 0 175 51q79 55 79 152v125zM370 1274l-174 39q55 262 250 262q75 0 172 -53l68 -37q50 -27 81 -27q61 0 81 98l174 -38q-54 -263 -253 -263q-39 0 -74 10q-33 10 -114 54l-49 27
q-47 26 -76 26q-62 0 -86 -98z" />
    <glyph glyph-name="adieresis" unicode="&#xe4;" horiz-adv-x="1186" vert-adv-y="2457" 
d="M770 698v47q0 152 -182 152q-104 0 -159 -51q-30 -29 -54 -82l-264 72q29 103 121 175q136 107 375 107q256 0 368 -105q98 -91 98 -270v-510q0 -129 43 -233h-285q-19 62 -22 111q-88 -80 -160 -111q-87 -37 -214 -37q-163 0 -261 81q-106 88 -106 249q0 192 139 280
q84 54 260 80zM770 502l-219 -33q-184 -28 -184 -165q0 -58 36 -92q40 -38 113 -38q102 0 175 51q79 55 79 152v125zM209 1278v266h266v-266h-266zM725 1278v266h266v-266h-266z" />
    <glyph glyph-name="aring" unicode="&#xe5;" horiz-adv-x="1186" vert-adv-y="2457" 
d="M770 698v47q0 152 -182 152q-104 0 -159 -51q-30 -29 -54 -82l-264 72q29 103 121 175q136 107 375 107q256 0 368 -105q98 -91 98 -270v-510q0 -129 43 -233h-285q-19 62 -22 111q-88 -80 -160 -111q-87 -37 -214 -37q-163 0 -261 81q-106 88 -106 249q0 192 139 280
q84 54 260 80zM770 502l-219 -33q-184 -28 -184 -165q0 -58 36 -92q40 -38 113 -38q102 0 175 51q79 55 79 152v125zM602 1631q132 0 205 -83q53 -60 53 -146q0 -94 -70 -157q-74 -66 -188 -66t-185 55q-83 63 -83 171t83 172q70 54 185 54zM592 1508q-62 0 -96 -42
q-19 -24 -19 -62q0 -45 29 -72q34 -31 87 -31q59 0 93 31q30 27 30 74t-34 74q-33 28 -90 28z" />
    <glyph glyph-name="ae" unicode="&#xe6;" horiz-adv-x="1911" vert-adv-y="2457" 
d="M770 698v47q0 152 -182 152q-104 0 -159 -51q-30 -29 -54 -82l-264 72q29 103 121 175q136 107 371 107q244 0 366 -131q122 131 354 131q181 0 304 -78q216 -137 216 -491v-84h-766q13 -268 248 -268q162 0 229 147l265 -121q-137 -260 -507 -260q-268 0 -417 166
q-168 -166 -427 -166q-169 0 -276 75q-124 89 -124 256q0 191 139 279q84 54 260 80zM770 502l-219 -33q-184 -28 -184 -165q0 -58 39 -92q45 -38 124 -38q89 0 154 45q86 59 86 158v125zM1077 649h457q-11 246 -227 246q-195 0 -230 -246z" />
    <glyph glyph-name="ccedilla" unicode="&#xe7;" horiz-adv-x="1182" vert-adv-y="2457" 
d="M1124 760l-290 -72q-55 189 -212 189q-121 0 -182 -101q-53 -87 -53 -240q0 -155 60 -244q59 -87 172 -87q186 0 225 211l293 -74q-120 -379 -523 -379q-247 0 -387 139q-151 150 -151 432q0 252 131 408q146 176 419 176q412 0 498 -358zM317 -393l217 272h213
l-154 -272h-276z" />
    <glyph glyph-name="egrave" unicode="&#xe8;" horiz-adv-x="1221" vert-adv-y="2457" 
d="M1153 465h-766q13 -268 248 -268q164 0 229 147l264 -121q-129 -260 -503 -260q-246 0 -390 135q-159 150 -159 440q0 257 131 410q144 170 413 170q192 0 317 -78q216 -136 216 -491v-84zM387 649h457q-11 246 -227 246q-195 0 -230 -246zM606 1272l-309 272h348
l236 -272h-275z" />
    <glyph glyph-name="eacute" unicode="&#xe9;" horiz-adv-x="1221" vert-adv-y="2457" 
d="M1153 465h-766q13 -268 248 -268q164 0 229 147l264 -121q-129 -260 -503 -260q-246 0 -390 135q-159 150 -159 440q0 257 131 410q144 170 413 170q192 0 317 -78q216 -136 216 -491v-84zM387 649h457q-11 246 -227 246q-195 0 -230 -246zM428 1272l236 272h348
l-309 -272h-275z" />
    <glyph glyph-name="ecircumflex" unicode="&#xea;" horiz-adv-x="1221" vert-adv-y="2457" 
d="M1153 465h-766q13 -268 248 -268q164 0 229 147l264 -121q-129 -260 -503 -260q-246 0 -390 135q-159 150 -159 440q0 257 131 410q144 170 413 170q192 0 317 -78q216 -136 216 -491v-84zM387 649h457q-11 246 -227 246q-195 0 -230 -246zM217 1272l268 272h307
l269 -272h-281l-141 123l-141 -123h-281z" />
    <glyph glyph-name="edieresis" unicode="&#xeb;" horiz-adv-x="1221" vert-adv-y="2457" 
d="M1153 465h-766q13 -268 248 -268q164 0 229 147l264 -121q-129 -260 -503 -260q-246 0 -390 135q-159 150 -159 440q0 257 131 410q144 170 413 170q192 0 317 -78q216 -136 216 -491v-84zM387 649h457q-11 246 -227 246q-195 0 -230 -246zM232 1278v266h266v-266h-266z
M748 1278v266h266v-266h-266z" />
    <glyph glyph-name="igrave" unicode="&#xec;" horiz-adv-x="588" vert-adv-y="2457" 
d="M137 0v1081h312v-1081h-312zM184 1272l-270 272h348l197 -272h-275z" />
    <glyph glyph-name="iacute" unicode="&#xed;" horiz-adv-x="588" vert-adv-y="2457" 
d="M137 0v1081h312v-1081h-312zM134 1272l194 272h348l-267 -272h-275z" />
    <glyph glyph-name="icircumflex" unicode="&#xee;" horiz-adv-x="588" vert-adv-y="2457" 
d="M137 0v1081h312v-1081h-312zM-128 1272l268 272h307l269 -272h-281l-141 123l-141 -123h-281z" />
    <glyph glyph-name="idieresis" unicode="&#xef;" horiz-adv-x="588" vert-adv-y="2457" 
d="M137 0v1081h312v-1081h-312zM-95 1278v266h266v-266h-266zM421 1278v266h266v-266h-266z" />
    <glyph glyph-name="eth" unicode="&#xf0;" horiz-adv-x="1292" vert-adv-y="2457" 
d="M844 913q-56 157 -180 293l-203 -127l-84 127l164 105q-77 57 -160 102l131 168q126 -50 248 -133l198 125l86 -127l-159 -100q332 -325 332 -759q0 -295 -138 -455q-148 -169 -436 -169q-253 0 -404 128q-163 139 -163 392q0 225 127 370q136 155 360 155q178 0 281 -95
zM638 764q-130 0 -201 -102q-50 -71 -50 -185q0 -124 68 -198q70 -76 190 -76q107 0 176 63q82 75 82 213q0 146 -88 226q-66 59 -177 59z" />
    <glyph glyph-name="ntilde" unicode="&#xf1;" horiz-adv-x="1278" vert-adv-y="2457" 
d="M127 0v1081h299l16 -153q110 190 351 190q358 0 358 -399v-719h-311v676q0 196 -173 196q-102 0 -163 -81q-66 -86 -66 -238v-553h-311zM401 1274l-174 39q55 262 250 262q75 0 172 -53l68 -37q50 -27 81 -27q61 0 81 98l174 -38q-55 -263 -253 -263q-39 0 -74 10
q-34 10 -114 54l-49 27q-47 26 -76 26q-62 0 -86 -98z" />
    <glyph glyph-name="ograve" unicode="&#xf2;" horiz-adv-x="1292" vert-adv-y="2457" 
d="M649 1118q276 0 430 -171q138 -154 138 -408q0 -253 -138 -405q-155 -171 -434 -171q-255 0 -406 142q-163 154 -163 434q0 256 135 408q153 171 438 171zM640 879q-116 0 -185 -93q-68 -91 -68 -247q0 -155 68 -245q69 -91 190 -91q113 0 183 82q75 88 75 259
q0 174 -91 269q-63 66 -172 66zM566 1272l-309 272h348l236 -272h-275z" />
    <glyph glyph-name="oacute" unicode="&#xf3;" horiz-adv-x="1292" vert-adv-y="2457" 
d="M649 1118q276 0 430 -171q138 -154 138 -408q0 -253 -138 -405q-155 -171 -434 -171q-255 0 -406 142q-163 154 -163 434q0 256 135 408q153 171 438 171zM640 879q-116 0 -185 -93q-68 -91 -68 -247q0 -155 68 -245q69 -91 190 -91q113 0 183 82q75 88 75 259
q0 174 -91 269q-63 66 -172 66zM456 1272l236 272h348l-309 -272h-275z" />
    <glyph glyph-name="ocircumflex" unicode="&#xf4;" horiz-adv-x="1292" vert-adv-y="2457" 
d="M649 1118q276 0 430 -171q138 -154 138 -408q0 -253 -138 -405q-155 -171 -434 -171q-255 0 -406 142q-163 154 -163 434q0 256 135 408q153 171 438 171zM640 879q-116 0 -185 -93q-68 -91 -68 -247q0 -155 68 -245q69 -91 190 -91q113 0 183 82q75 88 75 259
q0 174 -91 269q-63 66 -172 66zM225 1272l268 272h306l270 -272h-281l-141 123l-141 -123h-281z" />
    <glyph glyph-name="otilde" unicode="&#xf5;" horiz-adv-x="1292" vert-adv-y="2457" 
d="M649 1118q276 0 430 -171q138 -154 138 -408q0 -253 -138 -405q-155 -171 -434 -171q-255 0 -406 142q-163 154 -163 434q0 256 135 408q153 171 438 171zM640 879q-116 0 -185 -93q-68 -91 -68 -247q0 -155 68 -245q69 -91 190 -91q113 0 183 82q75 88 75 259
q0 174 -91 269q-63 66 -172 66zM408 1274l-173 39q55 262 250 262q74 0 172 -53l68 -37q49 -27 80 -27q61 0 81 98l175 -38q-55 -263 -253 -263q-40 0 -75 10q-33 10 -113 54l-49 27q-48 26 -77 26q-61 0 -86 -98z" />
    <glyph glyph-name="odieresis" unicode="&#xf6;" horiz-adv-x="1292" vert-adv-y="2457" 
d="M649 1118q276 0 430 -171q138 -154 138 -408q0 -253 -138 -405q-155 -171 -434 -171q-255 0 -406 142q-163 154 -163 434q0 256 135 408q153 171 438 171zM640 879q-116 0 -185 -93q-68 -91 -68 -247q0 -155 68 -245q69 -91 190 -91q113 0 183 82q75 88 75 259
q0 174 -91 269q-63 66 -172 66zM264 1278v266h266v-266h-266zM780 1278v266h266v-266h-266z" />
    <glyph glyph-name="divide" unicode="&#xf7;" horiz-adv-x="1288" vert-adv-y="2457" 
d="M494 150v301h303v-301h-303zM92 598v266h1106v-266h-1106zM494 1012v301h303v-301h-303z" />
    <glyph glyph-name="oslash" unicode="&#xf8;" horiz-adv-x="1292" vert-adv-y="2457" 
d="M250 -135l-141 94l118 158q-151 157 -151 421q0 257 135 409q152 171 434 171q158 0 285 -59l117 158l141 -95l-121 -161q150 -168 150 -422q0 -253 -138 -405q-155 -171 -433 -171q-157 0 -281 55zM881 713l-357 -482q57 -28 122 -28q115 0 188 84q77 88 77 256
q0 93 -30 170zM410 360l360 488q-57 31 -125 31q-139 0 -211 -111q-55 -85 -55 -231q0 -93 31 -177z" />
    <glyph glyph-name="ugrave" unicode="&#xf9;" horiz-adv-x="1278" vert-adv-y="2457" 
d="M127 1081h311v-665q0 -201 170 -201q116 0 178 93q54 82 54 220v553h311v-1081h-299l-14 154q-111 -191 -343 -191q-196 0 -290 121q-78 100 -78 260v737zM554 1272l-308 272h348l235 -272h-275z" />
    <glyph glyph-name="uacute" unicode="&#xfa;" horiz-adv-x="1278" vert-adv-y="2457" 
d="M127 1081h311v-665q0 -201 170 -201q116 0 178 93q54 82 54 220v553h311v-1081h-299l-14 154q-111 -191 -343 -191q-196 0 -290 121q-78 100 -78 260v737zM445 1272l236 272h348l-309 -272h-275z" />
    <glyph glyph-name="ucircumflex" unicode="&#xfb;" horiz-adv-x="1278" vert-adv-y="2457" 
d="M127 1081h311v-665q0 -201 170 -201q116 0 178 93q54 82 54 220v553h311v-1081h-299l-14 154q-111 -191 -343 -191q-196 0 -290 121q-78 100 -78 260v737zM217 1272l268 272h307l269 -272h-281l-141 123l-141 -123h-281z" />
    <glyph glyph-name="udieresis" unicode="&#xfc;" horiz-adv-x="1278" vert-adv-y="2457" 
d="M127 1081h311v-665q0 -201 170 -201q116 0 178 93q54 82 54 220v553h311v-1081h-299l-14 154q-111 -191 -343 -191q-196 0 -290 121q-78 100 -78 260v737zM252 1278v266h266v-266h-266zM768 1278v266h266v-266h-266z" />
    <glyph glyph-name="yacute" unicode="&#xfd;" horiz-adv-x="1202" vert-adv-y="2457" 
d="M92 -389l47 219q70 -18 137 -18q125 0 175 127l20 51l-471 1091h336l282 -747l263 747h321l-459 -1210q-48 -127 -114 -195q-96 -100 -264 -100h-19q-127 0 -254 35zM419 1272l236 272h348l-309 -272h-275z" />
    <glyph glyph-name="thorn" unicode="&#xfe;" horiz-adv-x="1315" vert-adv-y="2457" 
d="M127 -393v1937h311v-583q64 80 135 116q82 41 202 41q207 0 325 -128q139 -150 139 -424q0 -281 -127 -442q-124 -159 -363 -159q-208 0 -311 156v-514h-311zM672 883q-123 0 -189 -109q-51 -84 -51 -239t64 -244q64 -92 183 -92q103 0 166 74q77 90 77 267
q0 184 -85 278q-60 65 -165 65z" />
    <glyph glyph-name="ydieresis" unicode="&#xff;" horiz-adv-x="1202" vert-adv-y="2457" 
d="M92 -389l47 219q70 -18 137 -18q125 0 175 127l20 51l-471 1091h336l282 -747l263 747h321l-459 -1210q-48 -127 -114 -195q-96 -100 -264 -100h-19q-127 0 -254 35zM218 1278v266h266v-266h-266zM734 1278v266h266v-266h-266z" />
    <glyph glyph-name="Amacron" unicode="&#x100;" horiz-adv-x="1554" vert-adv-y="2457" 
d="M0 0l569 1544h416l569 -1544h-354l-117 326h-639l-118 -326h-326zM539 590h448l-223 661zM340 1686v206h858v-206h-858z" />
    <glyph glyph-name="amacron" unicode="&#x101;" horiz-adv-x="1186" vert-adv-y="2457" 
d="M770 698v47q0 152 -182 152q-104 0 -159 -51q-30 -29 -54 -82l-264 72q29 103 121 175q136 107 375 107q256 0 368 -105q98 -91 98 -270v-510q0 -129 43 -233h-285q-19 62 -22 111q-88 -80 -160 -111q-87 -37 -214 -37q-163 0 -261 81q-106 88 -106 249q0 192 139 280
q84 54 260 80zM770 502l-219 -33q-184 -28 -184 -165q0 -58 36 -92q40 -38 113 -38q102 0 175 51q79 55 79 152v125zM211 1296v206h776v-206h-776z" />
    <glyph glyph-name="Abreve" unicode="&#x102;" horiz-adv-x="1554" vert-adv-y="2457" 
d="M0 0l569 1544h416l569 -1544h-354l-117 326h-639l-118 -326h-326zM539 590h448l-223 661zM399 1935h221q5 -34 34 -63q47 -45 126 -45q140 0 156 108h221q-5 -118 -87 -194q-104 -98 -293 -98q-170 0 -273 82q-98 78 -105 210z" />
    <glyph glyph-name="abreve" unicode="&#x103;" horiz-adv-x="1186" vert-adv-y="2457" 
d="M770 698v47q0 152 -182 152q-104 0 -159 -51q-30 -29 -54 -82l-264 72q29 103 121 175q136 107 375 107q256 0 368 -105q98 -91 98 -270v-510q0 -129 43 -233h-285q-19 62 -22 111q-88 -80 -160 -111q-87 -37 -214 -37q-163 0 -261 81q-106 88 -106 249q0 192 139 280
q84 54 260 80zM770 502l-219 -33q-184 -28 -184 -165q0 -58 36 -92q40 -38 113 -38q102 0 175 51q79 55 79 152v125zM221 1554h221q5 -35 34 -63q48 -45 126 -45q140 0 156 108h221q-5 -118 -86 -194q-105 -98 -294 -98q-170 0 -273 82q-99 79 -105 210z" />
    <glyph glyph-name="Aogonek" unicode="&#x104;" horiz-adv-x="1554" vert-adv-y="2457" 
d="M1470 0q-88 -73 -88 -153q0 -76 62 -76q33 0 95 29v-150q-72 -43 -149 -43q-73 0 -123 33q-77 51 -77 148q0 122 122 212h-112l-117 326h-639l-118 -326h-326l569 1544h416l569 -1544h-84zM539 590h448l-223 661z" />
    <glyph glyph-name="aogonek" unicode="&#x105;" horiz-adv-x="1186" vert-adv-y="2457" 
d="M1044 0q-89 -73 -89 -153q0 -76 62 -76q34 0 96 29v-150q-72 -43 -149 -43q-74 0 -123 33q-78 51 -78 149q0 121 123 211h-55q-19 62 -22 111q-88 -80 -160 -111q-87 -37 -214 -37q-163 0 -261 81q-106 88 -106 249q0 192 139 280q84 54 260 80l303 45v47q0 152 -182 152
q-104 0 -159 -51q-30 -29 -54 -82l-264 72q29 103 121 175q136 107 375 107q256 0 368 -105q98 -91 98 -270v-510q0 -129 43 -233h-72zM770 502l-219 -33q-184 -28 -184 -165q0 -58 36 -92q40 -38 113 -38q102 0 175 51q79 55 79 152v125z" />
    <glyph glyph-name="Cacute" unicode="&#x106;" horiz-adv-x="1583" vert-adv-y="2457" 
d="M1501 1075l-332 -76q-78 306 -352 306q-191 0 -290 -147q-95 -140 -95 -403q0 -513 389 -513q313 0 361 354l338 -43q-129 -590 -702 -590q-302 0 -489 166q-237 210 -237 631q0 383 190 599q195 222 548 222q344 0 521 -208q95 -113 150 -298zM640 1658l236 272h348
l-309 -272h-275z" />
    <glyph glyph-name="cacute" unicode="&#x107;" horiz-adv-x="1182" vert-adv-y="2457" 
d="M1124 760l-290 -72q-55 189 -212 189q-121 0 -182 -101q-53 -87 -53 -240q0 -155 60 -244q59 -87 172 -87q186 0 225 211l293 -74q-120 -379 -523 -379q-247 0 -387 139q-151 150 -151 432q0 252 131 408q146 176 419 176q412 0 498 -358zM412 1272l236 272h348
l-309 -272h-275z" />
    <glyph glyph-name="Ccircumflex" unicode="&#x108;" horiz-adv-x="1583" vert-adv-y="2457" 
d="M1501 1075l-332 -76q-78 306 -352 306q-191 0 -290 -147q-95 -140 -95 -403q0 -513 389 -513q313 0 361 354l338 -43q-129 -590 -702 -590q-302 0 -489 166q-237 210 -237 631q0 383 190 599q195 222 548 222q344 0 521 -208q95 -113 150 -298zM373 1660l268 272h307
l269 -272h-281l-141 123l-141 -123h-281z" />
    <glyph glyph-name="ccircumflex" unicode="&#x109;" horiz-adv-x="1182" vert-adv-y="2457" 
d="M1124 760l-290 -72q-55 189 -212 189q-121 0 -182 -101q-53 -87 -53 -240q0 -155 60 -244q59 -87 172 -87q186 0 225 211l293 -74q-120 -379 -523 -379q-247 0 -387 139q-151 150 -151 432q0 252 131 408q146 176 419 176q412 0 498 -358zM191 1272l268 272h307l269 -272
h-281l-141 123l-141 -123h-281z" />
    <glyph glyph-name="Cdotaccent" unicode="&#x10a;" horiz-adv-x="1583" vert-adv-y="2457" 
d="M1501 1075l-332 -76q-78 306 -352 306q-191 0 -290 -147q-95 -140 -95 -403q0 -513 389 -513q313 0 361 354l338 -43q-129 -590 -702 -590q-302 0 -489 166q-237 210 -237 631q0 383 190 599q195 222 548 222q344 0 521 -208q95 -113 150 -298zM687 1661v272h266v-272
h-266z" />
    <glyph glyph-name="cdotaccent" unicode="&#x10b;" horiz-adv-x="1182" vert-adv-y="2457" 
d="M1124 760l-290 -72q-55 189 -212 189q-121 0 -182 -101q-53 -87 -53 -240q0 -155 60 -244q59 -87 172 -87q186 0 225 211l293 -74q-120 -379 -523 -379q-247 0 -387 139q-151 150 -151 432q0 252 131 408q146 176 419 176q412 0 498 -358zM498 1272v272h266v-272h-266z
" />
    <glyph glyph-name="Ccaron" unicode="&#x10c;" horiz-adv-x="1583" vert-adv-y="2457" 
d="M1501 1075l-332 -76q-78 306 -352 306q-191 0 -290 -147q-95 -140 -95 -403q0 -513 389 -513q313 0 361 354l338 -43q-129 -590 -702 -590q-302 0 -489 166q-237 210 -237 631q0 383 190 599q195 222 548 222q344 0 521 -208q95 -113 150 -298zM683 1659l-268 272h281
l141 -123l141 123h281l-268 -272h-308z" />
    <glyph glyph-name="ccaron" unicode="&#x10d;" horiz-adv-x="1182" vert-adv-y="2457" 
d="M1124 760l-290 -72q-55 189 -212 189q-121 0 -182 -101q-53 -87 -53 -240q0 -155 60 -244q59 -87 172 -87q186 0 225 211l293 -74q-120 -379 -523 -379q-247 0 -387 139q-151 150 -151 432q0 252 131 408q146 176 419 176q412 0 498 -358zM465 1272l-268 272h281
l141 -123l141 123h281l-268 -272h-308z" />
    <glyph glyph-name="Dcaron" unicode="&#x10e;" horiz-adv-x="1567" vert-adv-y="2457" 
d="M147 0v1544h531q405 0 603 -193q194 -189 194 -573q0 -778 -797 -778h-531zM481 268h203q227 0 344 143q107 130 107 368q0 268 -132 392q-112 105 -311 105h-211v-1008zM575 1659l-268 272h281l141 -123l141 123h281l-268 -272h-308z" />
    <glyph glyph-name="dcaron" unicode="&#x10f;" horiz-adv-x="1518" vert-adv-y="2457" 
d="M877 961v583h311v-1544h-291l-10 143q-115 -180 -351 -180q-178 0 -294 102q-166 146 -166 452q0 281 124 440t360 159q197 0 317 -155zM632 881q-123 0 -189 -111q-50 -84 -50 -233q0 -156 64 -248q66 -92 180 -92q110 0 175 82q69 86 69 267q0 178 -80 267
q-62 68 -169 68zM1286 1169v375h256l-64 -375h-192z" />
    <glyph glyph-name="Dcroat" unicode="&#x110;" horiz-adv-x="1567" vert-adv-y="2457" 
d="M147 0v686h-147v199h147v659h531q406 0 604 -193q193 -189 193 -573q0 -778 -797 -778h-531zM481 268h203q227 0 344 143q107 130 107 369q0 266 -132 391q-112 105 -311 105h-211v-391h350v-199h-350v-418z" />
    <glyph glyph-name="dcroat" unicode="&#x111;" horiz-adv-x="1315" vert-adv-y="2457" 
d="M457 1210v206h420v128h311v-128h127v-206h-127v-1210h-291l-10 143q-115 -180 -350 -180q-201 0 -322 128q-139 147 -139 426q0 281 124 440t360 159q197 0 317 -155v249h-420zM632 881q-123 0 -189 -111q-50 -84 -50 -233q0 -156 64 -248q66 -92 180 -92q110 0 175 82
q69 86 69 267q0 178 -80 267q-62 68 -169 68z" />
    <glyph glyph-name="Emacron" unicode="&#x112;" horiz-adv-x="1399" vert-adv-y="2457" 
d="M147 0v1544h1143v-274h-809v-346h764v-275h-764v-375h844v-274h-1178zM287 1686v206h858v-206h-858z" />
    <glyph glyph-name="emacron" unicode="&#x113;" horiz-adv-x="1221" vert-adv-y="2457" 
d="M1153 465h-766q13 -268 248 -268q164 0 229 147l264 -121q-129 -260 -503 -260q-246 0 -390 135q-159 150 -159 440q0 257 131 410q144 170 413 170q192 0 317 -78q216 -136 216 -491v-84zM387 649h457q-11 246 -227 246q-195 0 -230 -246zM230 1296v206h776v-206h-776z
" />
    <glyph glyph-name="Edotaccent" unicode="&#x116;" horiz-adv-x="1399" vert-adv-y="2457" 
d="M147 0v1544h1143v-274h-809v-346h764v-275h-764v-375h844v-274h-1178zM609 1659v272h266v-272h-266z" />
    <glyph glyph-name="edotaccent" unicode="&#x117;" horiz-adv-x="1221" vert-adv-y="2457" 
d="M1153 465h-766q13 -268 248 -268q164 0 229 147l264 -121q-129 -260 -503 -260q-246 0 -390 135q-159 150 -159 440q0 257 131 410q144 170 413 170q192 0 317 -78q216 -136 216 -491v-84zM387 649h457q-11 246 -227 246q-195 0 -230 -246zM490 1272v272h266v-272h-266z
" />
    <glyph glyph-name="Eogonek" unicode="&#x118;" horiz-adv-x="1399" vert-adv-y="2457" 
d="M1262 0q-88 -73 -88 -153q0 -76 62 -76q33 0 95 29v-150q-72 -43 -149 -43q-73 0 -123 33q-77 51 -77 148q0 122 122 212h-957v1544h1143v-274h-809v-346h764v-275h-764v-375h844v-274h-63z" />
    <glyph glyph-name="eogonek" unicode="&#x119;" horiz-adv-x="1221" vert-adv-y="2457" 
d="M739 -30q-55 -54 -55 -123q0 -76 62 -76q33 0 96 29v-150q-72 -43 -150 -43q-73 0 -122 33q-78 51 -78 149q0 94 80 176q-213 17 -337 133q-159 150 -159 440q0 257 131 410q144 170 413 170q192 0 317 -78q216 -136 216 -491v-84h-766q13 -268 248 -268q164 0 229 147
l264 -121q-105 -213 -389 -253zM387 649h457q-11 246 -227 246q-195 0 -230 -246z" />
    <glyph glyph-name="Ecaron" unicode="&#x11a;" horiz-adv-x="1399" vert-adv-y="2457" 
d="M147 0v1544h1143v-274h-809v-346h764v-275h-764v-375h844v-274h-1178zM580 1659l-268 272h281l142 -123l140 123h282l-268 -272h-309z" />
    <glyph glyph-name="ecaron" unicode="&#x11b;" horiz-adv-x="1221" vert-adv-y="2457" 
d="M1153 465h-766q13 -268 248 -268q164 0 229 147l264 -121q-129 -260 -503 -260q-246 0 -390 135q-159 150 -159 440q0 257 131 410q144 170 413 170q192 0 317 -78q216 -136 216 -491v-84zM387 649h457q-11 246 -227 246q-195 0 -230 -246zM477 1272l-268 272h281
l141 -123l141 123h281l-268 -272h-308z" />
    <glyph glyph-name="Gbreve" unicode="&#x11e;" horiz-adv-x="1614" vert-adv-y="2457" 
d="M1501 1100l-313 -76q-88 281 -357 281q-193 0 -298 -148q-101 -143 -101 -401q0 -251 106 -384q104 -132 297 -132q148 0 244 70q101 75 101 194v71h-248v242h573v-817h-213l-35 156q-156 -193 -465 -193q-284 0 -463 159q-237 209 -237 635q0 384 197 602
q200 222 554 222q346 0 512 -192q96 -110 146 -289zM453 1935h221q4 -34 34 -63q47 -45 126 -45q140 0 156 108h221q-6 -118 -87 -194q-105 -98 -294 -98q-169 0 -272 82q-98 78 -105 210z" />
    <glyph glyph-name="gbreve" unicode="&#x11f;" horiz-adv-x="1315" vert-adv-y="2457" 
d="M115 -184l268 100q64 -111 224 -111q270 0 270 240v143q-53 -75 -116 -112q-88 -53 -225 -53q-203 0 -321 115q-139 137 -139 410q0 257 106 400q124 170 372 170q230 0 331 -172l14 135h289v-1005q0 -500 -557 -500q-215 0 -354 71q-120 61 -162 169zM636 883
q-243 0 -243 -312q0 -313 245 -313q243 0 243 313q0 312 -245 312zM285 1554h221q5 -35 34 -63q48 -45 126 -45q140 0 156 108h221q-5 -118 -86 -194q-105 -98 -294 -98q-169 0 -273 82q-99 79 -105 210z" />
    <glyph glyph-name="Gdotaccent" unicode="&#x120;" horiz-adv-x="1614" vert-adv-y="2457" 
d="M1501 1100l-313 -76q-88 281 -357 281q-193 0 -298 -148q-101 -143 -101 -401q0 -251 106 -384q104 -132 297 -132q148 0 244 70q101 75 101 194v71h-248v242h573v-817h-213l-35 156q-156 -193 -465 -193q-284 0 -463 159q-237 209 -237 635q0 384 197 602
q200 222 554 222q346 0 512 -192q96 -110 146 -289zM708 1658v272h266v-272h-266z" />
    <glyph glyph-name="gdotaccent" unicode="&#x121;" horiz-adv-x="1315" vert-adv-y="2457" 
d="M115 -184l268 100q64 -111 224 -111q270 0 270 240v143q-53 -75 -116 -112q-88 -53 -225 -53q-203 0 -321 115q-139 137 -139 410q0 257 106 400q124 170 372 170q230 0 331 -172l14 135h289v-1005q0 -500 -557 -500q-215 0 -354 71q-120 61 -162 169zM636 883
q-243 0 -243 -312q0 -313 245 -313q243 0 243 313q0 312 -245 312zM503 1272v272h266v-272h-266z" />
    <glyph glyph-name="Gcommaaccent" unicode="&#x122;" horiz-adv-x="1614" vert-adv-y="2457" 
d="M1501 1100l-313 -76q-88 281 -357 281q-193 0 -298 -148q-101 -143 -101 -401q0 -251 106 -384q104 -132 297 -132q148 0 244 70q101 75 101 194v71h-248v242h573v-817h-213l-35 156q-156 -193 -465 -193q-284 0 -463 159q-237 209 -237 635q0 384 197 602
q200 222 554 222q346 0 512 -192q96 -110 146 -289zM579 -393l217 272h213l-154 -272h-276z" />
    <glyph glyph-name="gcommaaccent" unicode="&#x123;" horiz-adv-x="1315" vert-adv-y="2457" 
d="M115 -184l268 100q64 -111 224 -111q270 0 270 240v143q-53 -75 -116 -112q-88 -53 -225 -53q-203 0 -321 115q-139 137 -139 410q0 257 106 400q124 170 372 170q230 0 331 -172l14 135h289v-1005q0 -500 -557 -500q-215 0 -354 71q-120 61 -162 169zM636 883
q-243 0 -243 -312q0 -313 245 -313q243 0 243 313q0 312 -245 312zM474 1272l217 272h213l-154 -272h-276z" />
    <glyph glyph-name="Hbar" unicode="&#x126;" horiz-adv-x="1606" vert-adv-y="2457" 
d="M147 1181h-112v206h112v157h334v-157h643v157h334v-157h115v-206h-115v-1181h-334v676h-643v-676h-334v1181zM481 1181v-231h643v231h-643z" />
    <glyph glyph-name="hbar" unicode="&#x127;" horiz-adv-x="1278" vert-adv-y="2457" 
d="M127 1221h-103v206h103v117h311v-117h339v-206h-339v-285q114 182 357 182q356 0 356 -399v-719h-311v676q0 196 -173 196q-102 0 -163 -81q-66 -86 -66 -238v-553h-311v1221z" />
    <glyph glyph-name="Imacron" unicode="&#x12a;" horiz-adv-x="629" vert-adv-y="2457" 
d="M147 0v1544h334v-1544h-334zM-123 1686v206h858v-206h-858z" />
    <glyph glyph-name="imacron" unicode="&#x12b;" horiz-adv-x="588" vert-adv-y="2457" 
d="M137 0v1081h312v-1081h-312zM-96 1296v206h776v-206h-776z" />
    <glyph glyph-name="Iogonek" unicode="&#x12e;" horiz-adv-x="629" vert-adv-y="2457" 
d="M422 0q-89 -73 -89 -153q0 -76 62 -76q34 0 96 29v-150q-72 -43 -150 -43q-73 0 -122 33q-78 51 -78 149q0 121 122 211h-116v1544h334v-1544h-59z" />
    <glyph glyph-name="iogonek" unicode="&#x12f;" horiz-adv-x="588" vert-adv-y="2457" 
d="M137 0v1081h312v-1081h-312zM137 1278v266h312v-266h-312zM246 0h158q-88 -73 -88 -153q0 -76 62 -76q33 0 96 29v-150q-72 -43 -150 -43q-73 0 -123 33q-77 51 -77 149q0 120 122 211z" />
    <glyph glyph-name="Idotaccent" unicode="&#x130;" horiz-adv-x="629" vert-adv-y="2457" 
d="M147 0v1544h334v-1544h-334zM182 1659v272h266v-272h-266z" />
    <glyph glyph-name="dotlessi" unicode="&#x131;" horiz-adv-x="588" vert-adv-y="2457" 
d="M137 0v1081h312v-1081h-312z" />
    <glyph glyph-name="Kcommaaccent" unicode="&#x136;" horiz-adv-x="1497" vert-adv-y="2457" 
d="M147 0v1544h334v-616l598 616h389l-583 -600l633 -944h-396l-467 719l-174 -178v-541h-334zM492 -393l217 272h213l-154 -272h-276z" />
    <glyph glyph-name="kcommaaccent" unicode="&#x137;" horiz-adv-x="1202" vert-adv-y="2457" 
d="M127 0v1544h311v-811l371 348h385l-393 -368l418 -713h-357l-291 518l-133 -127v-391h-311zM365 -393l217 272h213l-154 -272h-276z" />
    <glyph glyph-name="Lacute" unicode="&#x139;" horiz-adv-x="1298" vert-adv-y="2457" 
d="M147 0v1544h334v-1270h787v-274h-1121zM179 1658l236 272h348l-309 -272h-275z" />
    <glyph glyph-name="lacute" unicode="&#x13a;" horiz-adv-x="588" vert-adv-y="2457" 
d="M137 0v1544h312v-1544h-312zM155 1658l236 272h348l-309 -272h-275z" />
    <glyph glyph-name="Lcommaaccent" unicode="&#x13b;" horiz-adv-x="1298" vert-adv-y="2457" 
d="M147 0v1544h334v-1270h787v-274h-1121zM428 -393l217 272h213l-154 -272h-276z" />
    <glyph glyph-name="lcommaaccent" unicode="&#x13c;" horiz-adv-x="588" vert-adv-y="2457" 
d="M137 0v1544h312v-1544h-312zM-17 -393l217 272h213l-154 -272h-276z" />
    <glyph glyph-name="Lcaron" unicode="&#x13d;" horiz-adv-x="1298" vert-adv-y="2457" 
d="M147 0v1544h334v-1270h787v-274h-1121zM802 1169v375h256l-64 -375h-192z" />
    <glyph glyph-name="lcaron" unicode="&#x13e;" horiz-adv-x="789" vert-adv-y="2457" 
d="M137 0v1544h312v-1544h-312zM557 1169v375h256l-64 -375h-192z" />
    <glyph glyph-name="Lslash" unicode="&#x141;" horiz-adv-x="1315" vert-adv-y="2457" 
d="M147 0v516l-147 -108v247l147 109v780h334v-534l326 237v-248l-326 -237v-488h787v-274h-1121z" />
    <glyph glyph-name="lslash" unicode="&#x142;" horiz-adv-x="588" vert-adv-y="2457" 
d="M137 0v567l-137 -100v213l137 100v764h312v-534l139 102v-211l-139 -102v-799h-312z" />
    <glyph glyph-name="Nacute" unicode="&#x143;" horiz-adv-x="1583" vert-adv-y="2457" 
d="M147 0v1544h332l643 -1042v1042h314v-1544h-332l-643 1042v-1042h-314zM585 1658l236 272h348l-309 -272h-275z" />
    <glyph glyph-name="nacute" unicode="&#x144;" horiz-adv-x="1278" vert-adv-y="2457" 
d="M127 0v1081h299l16 -153q110 190 351 190q358 0 358 -399v-719h-311v676q0 196 -173 196q-102 0 -163 -81q-66 -86 -66 -238v-553h-311zM453 1272l236 272h348l-309 -272h-275z" />
    <glyph glyph-name="Ncommaaccent" unicode="&#x145;" horiz-adv-x="1583" vert-adv-y="2457" 
d="M147 0v1544h332l643 -1042v1042h314v-1544h-332l-643 1042v-1042h-314zM532 -393l217 272h213l-154 -272h-276z" />
    <glyph glyph-name="ncommaaccent" unicode="&#x146;" horiz-adv-x="1278" vert-adv-y="2457" 
d="M127 0v1081h299l16 -153q110 190 351 190q358 0 358 -399v-719h-311v676q0 196 -173 196q-102 0 -163 -81q-66 -86 -66 -238v-553h-311zM351 -393l217 272h213l-154 -272h-276z" />
    <glyph glyph-name="Ncaron" unicode="&#x147;" horiz-adv-x="1583" vert-adv-y="2457" 
d="M147 0v1544h332l643 -1042v1042h314v-1544h-332l-643 1042v-1042h-314zM632 1659l-268 272h281l141 -123l141 123h281l-268 -272h-308z" />
    <glyph glyph-name="ncaron" unicode="&#x148;" horiz-adv-x="1278" vert-adv-y="2457" 
d="M127 0v1081h299l16 -153q110 190 351 190q358 0 358 -399v-719h-311v676q0 196 -173 196q-102 0 -163 -81q-66 -86 -66 -238v-553h-311zM489 1272l-268 272h281l141 -123l141 123h281l-268 -272h-308z" />
    <glyph glyph-name="Omacron" unicode="&#x14c;" horiz-adv-x="1690" vert-adv-y="2457" 
d="M850 1581q349 0 548 -216t199 -595q0 -377 -199 -591q-200 -216 -554 -216q-318 0 -515 178q-237 213 -237 629q0 381 198 595q200 216 560 216zM840 1305q-191 0 -302 -147q-106 -142 -106 -387q0 -244 106 -385q110 -146 306 -146q175 0 283 120q130 143 130 411
q0 245 -108 387q-112 147 -309 147zM408 1686v206h858v-206h-858z" />
    <glyph glyph-name="omacron" unicode="&#x14d;" horiz-adv-x="1292" vert-adv-y="2457" 
d="M649 1118q276 0 430 -171q138 -154 138 -408q0 -253 -138 -405q-155 -171 -434 -171q-255 0 -406 142q-163 154 -163 434q0 256 135 408q153 171 438 171zM640 879q-116 0 -185 -93q-68 -91 -68 -247q0 -155 68 -245q69 -91 190 -91q113 0 183 82q75 88 75 259
q0 174 -91 269q-63 66 -172 66zM257 1296v206h777v-206h-777z" />
    <glyph glyph-name="Ohungarumlaut" unicode="&#x150;" horiz-adv-x="1690" vert-adv-y="2457" 
d="M850 1581q349 0 548 -216t199 -595q0 -377 -199 -591q-200 -216 -554 -216q-318 0 -515 178q-237 213 -237 629q0 381 198 595q200 216 560 216zM840 1305q-191 0 -302 -147q-106 -142 -106 -387q0 -244 106 -385q110 -146 306 -146q175 0 283 120q130 143 130 411
q0 245 -108 387q-112 147 -309 147zM485 1659l154 272h276l-227 -272h-203zM905 1659l153 272h277l-227 -272h-203z" />
    <glyph glyph-name="ohungarumlaut" unicode="&#x151;" horiz-adv-x="1292" vert-adv-y="2457" 
d="M649 1118q276 0 430 -171q138 -154 138 -408q0 -253 -138 -405q-155 -171 -434 -171q-255 0 -406 142q-163 154 -163 434q0 256 135 408q153 171 438 171zM640 879q-116 0 -185 -93q-68 -91 -68 -247q0 -155 68 -245q69 -91 190 -91q113 0 183 82q75 88 75 259
q0 174 -91 269q-63 66 -172 66zM301 1272l154 272h276l-227 -272h-203zM721 1272l153 272h277l-227 -272h-203z" />
    <glyph glyph-name="OE" unicode="&#x152;" horiz-adv-x="2494" vert-adv-y="2457" 
d="M1255 1397v147h1131v-274h-809v-346h764v-275h-764v-375h844v-274h-1166v145q-178 -182 -463 -182q-286 0 -471 177q-229 219 -229 630q0 377 193 595q191 216 519 216q317 0 451 -184zM828 1305q-182 0 -290 -147q-106 -143 -106 -386t106 -386q107 -146 297 -146
q180 0 290 120q132 143 132 413q0 281 -144 425q-107 107 -285 107z" />
    <glyph glyph-name="oe" unicode="&#x153;" horiz-adv-x="2042" vert-adv-y="2457" 
d="M1055 952q147 166 392 166q187 0 311 -78q216 -136 216 -491v-84h-766q13 -268 248 -268q159 0 230 147l264 -121q-137 -260 -509 -260q-254 0 -397 158q-154 -158 -404 -158q-252 0 -401 142q-163 154 -163 434q0 256 135 408q152 171 431 171q262 0 413 -166zM640 879
q-116 0 -185 -93q-68 -91 -68 -247q0 -155 68 -245q69 -91 190 -91q113 0 183 82q75 88 75 259q0 174 -91 269q-63 66 -172 66zM1208 649h457q-11 246 -228 246q-194 0 -229 -246z" />
    <glyph glyph-name="Racute" unicode="&#x154;" horiz-adv-x="1528" vert-adv-y="2457" 
d="M147 0v1544h738q283 0 416 -153q104 -118 104 -320q0 -288 -272 -414l331 -657h-374l-281 602h-332v-602h-330zM477 862h322q264 0 264 215q0 110 -66 158q-65 47 -198 47h-322v-420zM527 1658l236 272h348l-309 -272h-275z" />
    <glyph glyph-name="racute" unicode="&#x155;" horiz-adv-x="821" vert-adv-y="2457" 
d="M127 0v1081h295l16 -190q31 74 67 117q72 86 201 86q49 0 115 -13l-26 -260q-76 10 -116 10q-113 0 -178 -82q-63 -79 -63 -217v-532h-311zM167 1272l236 272h348l-309 -272h-275z" />
    <glyph glyph-name="Rcommaaccent" unicode="&#x156;" horiz-adv-x="1528" vert-adv-y="2457" 
d="M147 0v1544h738q283 0 416 -153q104 -118 104 -320q0 -288 -272 -414l331 -657h-374l-281 602h-332v-602h-330zM477 862h322q264 0 264 215q0 110 -66 158q-65 47 -198 47h-322v-420zM482 -393l217 272h213l-154 -272h-276z" />
    <glyph glyph-name="rcommaaccent" unicode="&#x157;" horiz-adv-x="821" vert-adv-y="2457" 
d="M127 0v1081h295l16 -190q31 74 67 117q72 86 201 86q49 0 115 -13l-26 -260q-76 10 -116 10q-113 0 -178 -82q-63 -79 -63 -217v-532h-311zM-24 -393l217 272h213l-154 -272h-276z" />
    <glyph glyph-name="Rcaron" unicode="&#x158;" horiz-adv-x="1528" vert-adv-y="2457" 
d="M147 0v1544h738q283 0 416 -153q104 -118 104 -320q0 -288 -272 -414l331 -657h-374l-281 602h-332v-602h-330zM477 862h322q264 0 264 215q0 110 -66 158q-65 47 -198 47h-322v-420zM565 1659l-268 272h281l141 -123l141 123h282l-269 -272h-308z" />
    <glyph glyph-name="rcaron" unicode="&#x159;" horiz-adv-x="821" vert-adv-y="2457" 
d="M127 0v1081h295l16 -190q31 74 67 117q72 86 201 86q49 0 115 -13l-26 -260q-76 10 -116 10q-113 0 -178 -82q-63 -79 -63 -217v-532h-311zM268 1272l-268 272h281l141 -123l141 123h281l-268 -272h-308z" />
    <glyph glyph-name="Sacute" unicode="&#x15a;" horiz-adv-x="1485" vert-adv-y="2457" 
d="M53 440l324 78q31 -133 97 -198q91 -91 278 -91q299 0 299 195q0 165 -248 205l-187 30q-237 38 -357 129q-153 117 -153 329q0 226 182 351q165 113 439 113q308 0 472 -129q127 -100 185 -293l-309 -94q-40 122 -110 180q-87 72 -245 72q-124 0 -198 -45
q-78 -49 -78 -140q0 -75 47 -116q56 -49 199 -74l258 -45q233 -41 336 -143q113 -113 113 -313q0 -217 -161 -344q-171 -134 -487 -134q-289 0 -451 103q-179 112 -245 374zM531 1658l236 272h348l-309 -272h-275z" />
    <glyph glyph-name="sacute" unicode="&#x15b;" horiz-adv-x="1139" vert-adv-y="2457" 
d="M41 268l287 80q56 -162 233 -162q176 0 176 111q0 49 -33 76q-35 29 -122 47l-138 29q-214 45 -294 130q-68 71 -68 201q0 160 132 251q127 87 347 87q246 0 385 -116q68 -56 103 -150l-277 -96q-28 71 -66 101q-55 44 -152 44q-159 0 -159 -111q0 -75 131 -102l219 -45
q190 -39 261 -135q55 -75 55 -198q0 -159 -125 -251q-131 -96 -371 -96q-228 0 -375 98q-93 62 -149 207zM373 1272l236 272h348l-309 -272h-275z" />
    <glyph glyph-name="Scedilla" unicode="&#x15e;" horiz-adv-x="1485" vert-adv-y="2457" 
d="M53 440l324 78q31 -133 97 -198q91 -91 278 -91q299 0 299 195q0 165 -248 205l-187 30q-237 38 -357 129q-153 117 -153 329q0 226 182 351q165 113 439 113q308 0 472 -129q127 -100 185 -293l-309 -94q-40 122 -110 180q-87 72 -245 72q-124 0 -198 -45
q-78 -49 -78 -140q0 -75 47 -116q56 -49 199 -74l258 -45q233 -41 336 -143q113 -113 113 -313q0 -217 -161 -344q-171 -134 -487 -134q-289 0 -451 103q-179 112 -245 374zM471 -393l217 272h213l-154 -272h-276z" />
    <glyph glyph-name="scedilla" unicode="&#x15f;" horiz-adv-x="1139" vert-adv-y="2457" 
d="M41 268l287 80q56 -162 233 -162q176 0 176 111q0 49 -33 76q-35 29 -122 47l-138 29q-214 45 -294 130q-68 71 -68 201q0 160 132 251q127 87 347 87q246 0 385 -116q68 -56 103 -150l-277 -96q-28 71 -66 101q-55 44 -152 44q-159 0 -159 -111q0 -75 131 -102l219 -45
q190 -39 261 -135q55 -75 55 -198q0 -159 -125 -251q-131 -96 -371 -96q-228 0 -375 98q-93 62 -149 207zM328 -393l217 272h213l-154 -272h-276z" />
    <glyph glyph-name="Scaron" unicode="&#x160;" horiz-adv-x="1485" vert-adv-y="2457" 
d="M53 440l324 78q31 -133 97 -198q91 -91 278 -91q299 0 299 195q0 165 -248 205l-187 30q-237 38 -357 129q-153 117 -153 329q0 226 182 351q165 113 439 113q308 0 472 -129q127 -100 185 -293l-309 -94q-40 122 -110 180q-87 72 -245 72q-124 0 -198 -45
q-78 -49 -78 -140q0 -75 47 -116q56 -49 199 -74l258 -45q233 -41 336 -143q113 -113 113 -313q0 -217 -161 -344q-171 -134 -487 -134q-289 0 -451 103q-179 112 -245 374zM582 1659l-268 272h280l142 -123l140 123h282l-268 -272h-308z" />
    <glyph glyph-name="scaron" unicode="&#x161;" horiz-adv-x="1139" vert-adv-y="2457" 
d="M41 268l287 80q56 -162 233 -162q176 0 176 111q0 49 -33 76q-35 29 -122 47l-138 29q-214 45 -294 130q-68 71 -68 201q0 160 132 251q127 87 347 87q246 0 385 -116q68 -56 103 -150l-277 -96q-28 71 -66 101q-55 44 -152 44q-159 0 -159 -111q0 -75 131 -102l219 -45
q190 -39 261 -135q55 -75 55 -198q0 -159 -125 -251q-131 -96 -371 -96q-228 0 -375 98q-93 62 -149 207zM413 1272l-268 272h281l141 -123l141 123h281l-268 -272h-308z" />
    <glyph glyph-name="Tcommaaccent" unicode="&#x162;" horiz-adv-x="1436" vert-adv-y="2457" 
d="M551 0v1270h-520v274h1374v-274h-520v-1270h-334zM406 -393l217 272h213l-154 -272h-276z" />
    <glyph glyph-name="tcommaaccent" unicode="&#x163;" horiz-adv-x="799" vert-adv-y="2457" 
d="M190 856h-141v225h141v308h312v-308h227v-225h-227v-508q0 -127 116 -127q52 0 113 6l27 -221q-122 -26 -269 -26q-149 0 -223 75q-76 77 -76 252v549zM112 -393l217 272h213l-154 -272h-276z" />
    <glyph glyph-name="Tcaron" unicode="&#x164;" horiz-adv-x="1436" vert-adv-y="2457" 
d="M551 0v1270h-520v274h1374v-274h-520v-1270h-334zM564 1659l-268 272h281l141 -123l141 123h281l-268 -272h-308z" />
    <glyph glyph-name="tcaron" unicode="&#x165;" horiz-adv-x="844" vert-adv-y="2457" 
d="M190 856h-141v225h141v308h312v-308h227v-225h-227v-508q0 -127 116 -127q52 0 113 6l27 -221q-122 -26 -269 -26q-149 0 -223 75q-76 77 -76 252v549zM619 1169v375h256l-64 -375h-192z" />
    <glyph glyph-name="Umacron" unicode="&#x16a;" horiz-adv-x="1567" vert-adv-y="2457" 
d="M133 1544h334v-964q0 -340 318 -340q315 0 315 340v964h334v-942q0 -304 -168 -473q-164 -166 -484 -166q-329 0 -495 180q-154 167 -154 459v942zM357 1686v206h858v-206h-858z" />
    <glyph glyph-name="umacron" unicode="&#x16b;" horiz-adv-x="1278" vert-adv-y="2457" 
d="M127 1081h311v-665q0 -201 170 -201q116 0 178 93q54 82 54 220v553h311v-1081h-299l-14 154q-111 -191 -343 -191q-196 0 -290 121q-78 100 -78 260v737zM250 1296v206h776v-206h-776z" />
    <glyph glyph-name="Uring" unicode="&#x16e;" horiz-adv-x="1567" vert-adv-y="2457" 
d="M133 1544h334v-964q0 -340 318 -340q315 0 315 340v964h334v-942q0 -304 -168 -473q-164 -166 -484 -166q-329 0 -495 180q-154 167 -154 459v942zM790 1955q139 0 216 -87q55 -62 55 -153q0 -100 -73 -166q-78 -69 -203 -69q-115 0 -190 57q-87 66 -87 180t87 182
q73 56 195 56zM780 1832q-70 0 -108 -46q-21 -26 -21 -70q0 -49 33 -80q37 -34 99 -34q63 0 101 35q33 29 33 81q0 53 -37 84q-37 30 -100 30z" />
    <glyph glyph-name="uring" unicode="&#x16f;" horiz-adv-x="1278" vert-adv-y="2457" 
d="M127 1081h311v-665q0 -201 170 -201q116 0 178 93q54 82 54 220v553h311v-1081h-299l-14 154q-111 -191 -343 -191q-196 0 -290 121q-78 100 -78 260v737zM645 1631q132 0 205 -83q53 -60 53 -146q0 -94 -70 -157q-74 -66 -188 -66t-186 55q-82 63 -82 171t83 172
q70 54 185 54zM635 1508q-62 0 -96 -42q-19 -24 -19 -62q0 -45 29 -72q34 -31 87 -31q59 0 93 31q30 27 30 74q0 46 -34 74q-33 28 -90 28z" />
    <glyph glyph-name="Uhungarumlaut" unicode="&#x170;" horiz-adv-x="1567" vert-adv-y="2457" 
d="M133 1544h334v-964q0 -340 318 -340q315 0 315 340v964h334v-942q0 -304 -168 -473q-164 -166 -484 -166q-329 0 -495 180q-154 167 -154 459v942zM461 1659l154 272h276l-227 -272h-203zM881 1659l153 272h277l-227 -272h-203z" />
    <glyph glyph-name="uhungarumlaut" unicode="&#x171;" horiz-adv-x="1278" vert-adv-y="2457" 
d="M127 1081h311v-665q0 -201 170 -201q116 0 178 93q54 82 54 220v553h311v-1081h-299l-14 154q-111 -191 -343 -191q-196 0 -290 121q-78 100 -78 260v737zM282 1272l154 272h275l-226 -272h-203zM702 1272l153 272h277l-227 -272h-203z" />
    <glyph glyph-name="Uogonek" unicode="&#x172;" horiz-adv-x="1567" vert-adv-y="2457" 
d="M942 -24q-61 -59 -61 -129q0 -76 62 -76q34 0 96 29v-150q-72 -43 -150 -43q-73 0 -122 33q-78 51 -78 149q0 94 79 174q-266 -1 -429 131q-206 167 -206 508v942h334v-964q0 -340 318 -340q315 0 315 340v964h334v-942q0 -304 -168 -473q-113 -114 -324 -153z" />
    <glyph glyph-name="uogonek" unicode="&#x173;" horiz-adv-x="1278" vert-adv-y="2457" 
d="M1089 0q-89 -73 -89 -153q0 -76 62 -76q34 0 96 29v-150q-72 -43 -149 -43q-74 0 -123 33q-78 51 -78 149q0 121 122 211h-78l-14 154q-111 -191 -343 -191q-196 0 -290 121q-78 100 -78 260v737h311v-665q0 -201 170 -201q116 0 178 93q54 82 54 220v553h311v-1081h-62z
" />
    <glyph glyph-name="Ydieresis" unicode="&#x178;" horiz-adv-x="1423" vert-adv-y="2457" 
d="M545 0v618l-545 926h352l373 -649l367 649h331l-544 -926v-618h-334zM333 1661v266h266v-266h-266zM849 1661v266h266v-266h-266z" />
    <glyph glyph-name="Zacute" unicode="&#x179;" horiz-adv-x="1376" vert-adv-y="2457" 
d="M70 0v258l837 1012h-807v274h1198v-258l-837 -1012h854v-274h-1245zM519 1658l235 272h348l-309 -272h-274z" />
    <glyph glyph-name="zacute" unicode="&#x17a;" horiz-adv-x="1075" vert-adv-y="2457" 
d="M53 0v217l578 639h-545v225h913v-217l-577 -639h600v-225h-969zM343 1272l236 272h348l-309 -272h-275z" />
    <glyph glyph-name="Zdotaccent" unicode="&#x17b;" horiz-adv-x="1376" vert-adv-y="2457" 
d="M70 0v258l837 1012h-807v274h1198v-258l-837 -1012h854v-274h-1245zM590 1657v272h266v-272h-266z" />
    <glyph glyph-name="zdotaccent" unicode="&#x17c;" horiz-adv-x="1075" vert-adv-y="2457" 
d="M53 0v217l578 639h-545v225h913v-217l-577 -639h600v-225h-969zM405 1272v272h266v-272h-266z" />
    <glyph glyph-name="Zcaron" unicode="&#x17d;" horiz-adv-x="1376" vert-adv-y="2457" 
d="M70 0v258l837 1012h-807v274h1198v-258l-837 -1012h854v-274h-1245zM549 1659l-268 272h281l141 -123l141 123h281l-268 -272h-308z" />
    <glyph glyph-name="zcaron" unicode="&#x17e;" horiz-adv-x="1075" vert-adv-y="2457" 
d="M53 0v217l578 639h-545v225h913v-217l-577 -639h600v-225h-969zM392 1272l-268 272h281l141 -123l141 123h281l-268 -272h-308z" />
    <glyph glyph-name="uni018F" unicode="&#x18f;" horiz-adv-x="1690" vert-adv-y="2457" 
d="M103 924h1141q-26 143 -95 234q-112 147 -303 147q-276 0 -359 -274l-332 76q65 201 183 304q195 170 506 170q355 0 554 -216t199 -595q0 -377 -199 -591q-200 -216 -554 -216q-318 0 -515 178q-115 103 -176 261q-61 161 -61 346q0 59 11 176zM1249 649h-809
q22 -162 98 -263q110 -146 306 -146q175 0 283 120q97 106 122 289z" />
    <glyph glyph-name="florin" unicode="&#x192;" horiz-adv-x="887" vert-adv-y="2457" 
d="M-256 -393l49 221q65 -16 122 -16q132 0 157 133l149 782h-121v225h166l60 299q63 314 400 314q120 0 224 -25l-47 -223q-45 10 -107 10q-144 0 -173 -147l-45 -228h210v-225h-256l-157 -825q-62 -326 -395 -326q-119 0 -236 31z" />
    <glyph glyph-name="uni0259" unicode="&#x259;" horiz-adv-x="1229" vert-adv-y="2457" 
d="M76 616h766q-13 268 -248 268q-164 0 -229 -147l-264 121q129 260 503 260q246 0 390 -135q159 -150 159 -440q0 -256 -131 -410q-144 -170 -412 -170q-193 0 -318 78q-216 136 -216 491v84zM842 432h-457q11 -246 227 -246q195 0 230 246z" />
    <glyph glyph-name="circumflex" unicode="&#x2c6;" horiz-adv-x="942" vert-adv-y="2457" 
d="M41 1272l268 272h307l269 -272h-281l-141 123l-141 -123h-281z" />
    <glyph glyph-name="caron" unicode="&#x2c7;" horiz-adv-x="942" vert-adv-y="2457" 
d="M317 1272l-268 272h281l141 -123l141 123h281l-268 -272h-308z" />
    <glyph glyph-name="uni02C9" unicode="&#x2c9;" horiz-adv-x="942" vert-adv-y="2457" 
d="M82 1296v206h776v-206h-776z" />
    <glyph glyph-name="breve" unicode="&#x2d8;" horiz-adv-x="942" vert-adv-y="2457" 
d="M92 1554h221q5 -35 34 -63q48 -45 126 -45q140 0 156 108h221q-5 -118 -87 -194q-104 -98 -293 -98q-170 0 -273 82q-99 79 -105 210z" />
    <glyph glyph-name="dotaccent" unicode="&#x2d9;" horiz-adv-x="942" vert-adv-y="2457" 
d="M338 1272v272h266v-272h-266z" />
    <glyph glyph-name="ring" unicode="&#x2da;" horiz-adv-x="942" vert-adv-y="2457" 
d="M477 1631q132 0 205 -83q52 -59 52 -146q0 -95 -69 -157q-74 -66 -188 -66t-186 55q-82 63 -82 170q0 109 83 173q70 54 185 54zM467 1508q-62 0 -96 -42q-19 -24 -19 -63q0 -44 29 -71q33 -31 87 -31q59 0 93 31q29 26 29 73q0 48 -33 75q-33 28 -90 28z" />
    <glyph glyph-name="ogonek" unicode="&#x2db;" horiz-adv-x="1554" vert-adv-y="2457" 
d="M1280 0h158q-88 -73 -88 -153q0 -76 62 -76q33 0 96 29v-150q-72 -43 -150 -43q-73 0 -123 33q-77 51 -77 149q0 120 122 211z" />
    <glyph glyph-name="tilde" unicode="&#x2dc;" horiz-adv-x="942" vert-adv-y="2457" 
d="M233 1274l-174 39q55 262 250 262q74 0 172 -53l68 -37q49 -27 80 -27q62 0 82 98l174 -38q-55 -263 -253 -263q-39 0 -74 10q-34 10 -114 54l-49 27q-48 26 -76 26q-62 0 -86 -98z" />
    <glyph glyph-name="hungarumlaut" unicode="&#x2dd;" horiz-adv-x="942" vert-adv-y="2457" 
d="M45 1272l154 272h276l-227 -272h-203zM465 1272l153 272h277l-227 -272h-203z" />
    <glyph glyph-name="uni037E" unicode="&#x37e;" horiz-adv-x="621" vert-adv-y="2457" 
d="M231 -442l-114 114q80 79 115 131q51 78 51 166v31h-146v338h346v-315q0 -270 -252 -465zM137 743v338h346v-338h-346z" />
    <glyph glyph-name="tonos" unicode="&#x384;" horiz-adv-x="632" vert-adv-y="2457" 
d="M219 819l-72 508v217h338v-217l-71 -508h-195z" />
    <glyph glyph-name="dieresistonos" unicode="&#x385;" horiz-adv-x="1076" vert-adv-y="2457" 
d="M682 1929v-228l-85 -223h-122l-80 223v228h287zM147 1278v266h266v-266h-266zM663 1278v266h266v-266h-266z" />
    <glyph glyph-name="Alphatonos" unicode="&#x386;" horiz-adv-x="1554" vert-adv-y="2457" 
d="M0 0l569 1544h416l569 -1544h-354l-117 326h-639l-118 -326h-326zM539 590h448l-223 661zM44 819l-72 508v217h338v-217l-71 -508h-195z" />
    <glyph glyph-name="anoteleia" unicode="&#x387;" horiz-adv-x="621" vert-adv-y="2457" 
d="M137 561v338h346v-338h-346z" />
    <glyph glyph-name="Epsilontonos" unicode="&#x388;" horiz-adv-x="1642" vert-adv-y="2457" 
d="M389 0v1544h1144v-274h-810v-346h764v-275h-764v-375h844v-274h-1178zM21 819l-72 508v217h338v-217l-71 -508h-195z" />
    <glyph glyph-name="Etatonos" unicode="&#x389;" horiz-adv-x="1894" vert-adv-y="2457" 
d="M435 0v1544h334v-594h643v594h334v-1544h-334v676h-643v-676h-334zM67 819l-72 508v217h338v-217l-71 -508h-195z" />
    <glyph glyph-name="Iotatonos" unicode="&#x38a;" horiz-adv-x="917" vert-adv-y="2457" 
d="M435 0v1544h334v-1544h-334zM67 819l-72 508v217h338v-217l-71 -508h-195z" />
    <glyph glyph-name="Omicrontonos" unicode="&#x38c;" horiz-adv-x="1958" vert-adv-y="2457" 
d="M1118 1581q349 0 549 -216q199 -216 199 -595q0 -377 -199 -591q-201 -216 -554 -216q-319 0 -516 178q-237 213 -237 629q0 381 198 595q201 216 560 216zM1109 1305q-191 0 -302 -147q-107 -142 -107 -387q0 -243 107 -385q110 -146 305 -146q175 0 284 120
q130 143 130 411q0 245 -108 387q-112 147 -309 147zM67 819l-72 508v217h338v-217l-71 -508h-195z" />
    <glyph glyph-name="Upsilontonos" unicode="&#x38e;" horiz-adv-x="1824" vert-adv-y="2457" 
d="M946 0v618l-545 926h352l373 -649l367 649h331l-544 -926v-618h-334zM67 819l-72 508v217h338v-217l-71 -508h-195z" />
    <glyph glyph-name="Omegatonos" unicode="&#x38f;" horiz-adv-x="1933" vert-adv-y="2457" 
d="M992 265v-265h-662v274h332q-107 68 -166 140q-136 166 -136 426q0 303 195 507q214 222 547 222q331 0 543 -222q195 -204 195 -507q0 -260 -135 -426q-59 -72 -166 -140h331v-274h-661v265q136 93 186 163q105 148 105 392q0 227 -119 356q-108 117 -280 117
q-175 0 -282 -117q-119 -131 -119 -354q0 -268 123 -416q48 -59 169 -141zM67 819l-72 508v217h338v-217l-71 -508h-195z" />
    <glyph glyph-name="iotadieresistonos" unicode="&#x390;" horiz-adv-x="588" vert-adv-y="2457" 
d="M137 0v1081h312v-1081h-312zM436 1929v-228l-85 -223h-122l-80 223v228h287zM-99 1278v266h266v-266h-266zM417 1278v266h266v-266h-266z" />
    <glyph glyph-name="Alpha" unicode="&#x391;" horiz-adv-x="1554" vert-adv-y="2457" 
d="M0 0l569 1544h416l569 -1544h-354l-117 326h-639l-118 -326h-326zM539 590h448l-223 661z" />
    <glyph glyph-name="Beta" unicode="&#x392;" horiz-adv-x="1542" vert-adv-y="2457" 
d="M147 0v1544h742q223 0 353 -83q163 -103 163 -309q0 -235 -199 -331q248 -99 248 -357q0 -464 -637 -464h-670zM475 262h348q171 0 239 57q56 47 56 151q0 125 -89 171q-68 35 -206 35h-348v-414zM475 936h352q132 0 188 42q58 42 58 132q0 109 -89 148q-54 24 -157 24
h-352v-346z" />
    <glyph glyph-name="Gamma" unicode="&#x393;" horiz-adv-x="1298" vert-adv-y="2457" 
d="M147 1544h1121v-274h-787v-1270h-334v1544z" />
    <glyph glyph-name="Delta" unicode="&#x394;" horiz-adv-x="1554" vert-adv-y="2457" 
d="M0 0l569 1544h416l569 -1544h-1554zM422 274h683l-341 977z" />
    <glyph glyph-name="Epsilon" unicode="&#x395;" horiz-adv-x="1399" vert-adv-y="2457" 
d="M147 0v1544h1143v-274h-809v-346h764v-275h-764v-375h844v-274h-1178z" />
    <glyph glyph-name="Zeta" unicode="&#x396;" horiz-adv-x="1376" vert-adv-y="2457" 
d="M70 0v258l837 1012h-807v274h1198v-258l-837 -1012h854v-274h-1245z" />
    <glyph glyph-name="Eta" unicode="&#x397;" horiz-adv-x="1606" vert-adv-y="2457" 
d="M147 0v1544h334v-594h643v594h334v-1544h-334v676h-643v-676h-334z" />
    <glyph glyph-name="Theta" unicode="&#x398;" horiz-adv-x="1690" vert-adv-y="2457" 
d="M544 621v239h601v-239h-601zM850 1581q349 0 548 -216t199 -595q0 -377 -199 -591q-200 -216 -554 -216q-318 0 -515 178q-237 213 -237 629q0 381 198 595q200 216 560 216zM840 1305q-191 0 -302 -147q-106 -142 -106 -387q0 -244 106 -385q110 -146 306 -146
q175 0 283 120q130 143 130 411q0 245 -108 387q-112 147 -309 147z" />
    <glyph glyph-name="Iota" unicode="&#x399;" horiz-adv-x="629" vert-adv-y="2457" 
d="M147 0v1544h334v-1544h-334z" />
    <glyph glyph-name="Kappa" unicode="&#x39a;" horiz-adv-x="1497" vert-adv-y="2457" 
d="M147 0v1544h334v-616l598 616h389l-583 -600l633 -944h-396l-467 719l-174 -178v-541h-334z" />
    <glyph glyph-name="Lambda" unicode="&#x39b;" horiz-adv-x="1554" vert-adv-y="2457" 
d="M326 0h-326l569 1544h416l569 -1544h-354l-436 1251z" />
    <glyph glyph-name="Mu" unicode="&#x39c;" horiz-adv-x="1927" vert-adv-y="2457" 
d="M147 0v1544h447l377 -1147l372 1147h437v-1544h-316v1100l-364 -1100h-273l-366 1100v-1100h-314z" />
    <glyph glyph-name="Nu" unicode="&#x39d;" horiz-adv-x="1583" vert-adv-y="2457" 
d="M147 0v1544h332l643 -1042v1042h314v-1544h-332l-643 1042v-1042h-314z" />
    <glyph glyph-name="Xi" unicode="&#x39e;" horiz-adv-x="1472" vert-adv-y="2457" 
d="M147 274h1178v-274h-1178v274zM1157 924v-275h-879v275h879zM147 1544h1143v-274h-1143v274z" />
    <glyph glyph-name="Omicron" unicode="&#x39f;" horiz-adv-x="1690" vert-adv-y="2457" 
d="M850 1581q349 0 548 -216t199 -595q0 -377 -199 -591q-200 -216 -554 -216q-318 0 -515 178q-237 213 -237 629q0 381 198 595q200 216 560 216zM840 1305q-191 0 -302 -147q-106 -142 -106 -387q0 -244 106 -385q110 -146 306 -146q175 0 283 120q130 143 130 411
q0 245 -108 387q-112 147 -309 147z" />
    <glyph glyph-name="Pi" unicode="&#x3a0;" horiz-adv-x="1583" vert-adv-y="2457" 
d="M147 1544h1289v-1544h-334v1270h-621v-1270h-334v1544z" />
    <glyph glyph-name="Rho" unicode="&#x3a1;" horiz-adv-x="1458" vert-adv-y="2457" 
d="M147 0v1544h725q247 0 386 -130q139 -132 139 -359q0 -230 -160 -367q-153 -131 -406 -131h-354v-557h-330zM477 819h320q113 0 184 62q74 66 74 175q0 108 -68 167t-186 59h-324v-463z" />
    <glyph glyph-name="Sigma" unicode="&#x3a3;" horiz-adv-x="1399" vert-adv-y="2457" 
d="M147 0v274l395 510l-395 486v274h1143v-274h-809l429 -486l-429 -510h844v-274h-1178z" />
    <glyph glyph-name="Tau" unicode="&#x3a4;" horiz-adv-x="1436" vert-adv-y="2457" 
d="M551 0v1270h-520v274h1374v-274h-520v-1270h-334z" />
    <glyph glyph-name="Upsilon" unicode="&#x3a5;" horiz-adv-x="1423" vert-adv-y="2457" 
d="M545 0v618l-545 926h352l373 -649l367 649h331l-544 -926v-618h-334z" />
    <glyph glyph-name="Phi" unicode="&#x3a6;" horiz-adv-x="1757" vert-adv-y="2457" 
d="M713 0v181q-190 19 -314 79q-154 75 -238 235q-68 127 -68 277q0 226 145 389q151 170 475 202v181h334v-181q199 -19 329 -85q151 -76 227 -232q61 -123 61 -274q0 -228 -133 -384q-150 -175 -484 -207v-181h-334zM713 1088q-106 -15 -170 -56q-137 -86 -137 -258
q0 -175 142 -264q65 -41 165 -57v635zM1047 453q112 18 181 71q123 95 123 257q0 270 -304 306v-634z" />
    <glyph glyph-name="Chi" unicode="&#x3a7;" horiz-adv-x="1448" vert-adv-y="2457" 
d="M0 0l537 784l-494 760h381l313 -485l324 485h346l-496 -733l537 -811h-397l-338 530l-351 -530h-362z" />
    <glyph glyph-name="Psi" unicode="&#x3a8;" horiz-adv-x="1673" vert-adv-y="2457" 
d="M669 0v275q-257 14 -418 170q-118 113 -146 333q-12 95 -12 305v461h334v-461q0 -225 10 -303q20 -158 138 -211q39 -17 94 -18v993h334v-993q124 1 193 103q39 59 47 201q3 58 3 228v461h334v-461q0 -295 -35 -423q-73 -267 -368 -357q-74 -23 -174 -28v-275h-334z" />
    <glyph glyph-name="uni03A9" unicode="&#x3a9;" horiz-adv-x="1666" vert-adv-y="2457" 
d="M725 265v-265h-662v274h332q-107 68 -166 140q-136 166 -136 426q0 302 195 507q212 222 544 222q334 0 546 -222q195 -204 195 -507q0 -260 -135 -426q-59 -72 -166 -140h331v-274h-661v265q136 92 186 163q105 147 105 393q0 226 -119 355q-108 117 -281 117t-281 -117
q-119 -131 -119 -354q0 -267 123 -416q48 -59 169 -141z" />
    <glyph glyph-name="Iotadieresis" unicode="&#x3aa;" horiz-adv-x="629" vert-adv-y="2457" 
d="M147 0v1544h334v-1544h-334zM-77 1661v266h266v-266h-266zM439 1661v266h266v-266h-266z" />
    <glyph glyph-name="Upsilondieresis" unicode="&#x3ab;" horiz-adv-x="1423" vert-adv-y="2457" 
d="M545 0v618l-545 926h352l373 -649l367 649h331l-544 -926v-618h-334zM331 1661v266h266v-266h-266zM847 1661v266h266v-266h-266z" />
    <glyph glyph-name="alphatonos" unicode="&#x3ac;" horiz-adv-x="1455" vert-adv-y="2457" 
d="M1181 557l274 -559h-333l-111 288q-55 -112 -114 -182q-128 -153 -319 -153q-224 0 -370 179q-132 161 -132 401q0 272 164 440q143 147 345 147q179 0 308 -122q57 -53 117 -157l85 260h317zM900 557q-39 112 -80 182q-81 140 -198 140q-113 0 -181 -113
q-51 -86 -51 -225q0 -173 73 -264q67 -85 154 -85q84 0 155 83q52 60 128 282zM787 1686v-228l-92 -223h-133l-87 223v228h312z" />
    <glyph glyph-name="epsilontonos" unicode="&#x3ad;" horiz-adv-x="1153" vert-adv-y="2457" 
d="M725 638v-182q-138 -2 -177 -7q-162 -18 -162 -126q0 -41 29 -68q56 -52 182 -52q122 0 181 54q30 27 53 86l277 -71q-45 -117 -122 -186q-88 -78 -195 -102q-89 -20 -199 -20q-234 0 -373 92q-143 96 -143 249q0 195 222 260q-184 105 -184 257q0 142 146 223
q133 73 335 73q270 0 399 -118q58 -53 101 -162l-280 -69q-39 109 -208 109q-104 0 -155 -44q-28 -23 -28 -64q0 -67 76 -103q57 -28 225 -29zM759 1686v-228l-92 -223h-133l-87 223v228h312z" />
    <glyph glyph-name="etatonos" unicode="&#x3ae;" horiz-adv-x="1278" vert-adv-y="2457" 
d="M127 0v1081h299l16 -153q110 190 351 190q358 0 358 -399v-1112h-311v1069q0 196 -173 196q-102 0 -163 -81q-66 -86 -66 -238v-553h-311zM795 1686v-228l-92 -223h-133l-87 223v228h312z" />
    <glyph glyph-name="iotatonos" unicode="&#x3af;" horiz-adv-x="588" vert-adv-y="2457" 
d="M137 0v1081h312v-1081h-312zM449 1686v-228l-92 -223h-133l-87 223v228h312z" />
    <glyph glyph-name="upsilondieresistonos" unicode="&#x3b0;" horiz-adv-x="1224" vert-adv-y="2457" 
d="M786 1081h311v-737q0 -169 -114 -270q-125 -111 -371 -111q-257 0 -382 121q-103 100 -103 260v737h311v-665q0 -100 36 -146q42 -55 138 -55t138 55q36 46 36 146v665zM755 1929v-228l-85 -223h-122l-80 223v228h287zM221 1278v266h266v-266h-266zM737 1278v266h266
v-266h-266z" />
    <glyph glyph-name="alpha" unicode="&#x3b1;" horiz-adv-x="1455" vert-adv-y="2457" 
d="M1181 557l274 -559h-333l-111 288q-55 -112 -114 -182q-128 -153 -319 -153q-224 0 -370 179q-132 161 -132 401q0 272 164 440q143 147 345 147q179 0 308 -122q57 -53 117 -157l85 260h317zM900 557q-39 112 -80 182q-81 140 -198 140q-113 0 -181 -113
q-51 -86 -51 -225q0 -173 73 -264q67 -85 154 -85q84 0 155 83q52 60 128 282z" />
    <glyph glyph-name="beta" unicode="&#x3b2;" horiz-adv-x="1279" vert-adv-y="2457" 
d="M127 -393v1408q0 186 30 271q51 149 207 224q123 58 273 58q217 0 344 -121q122 -115 122 -279q0 -198 -191 -320q122 -41 179 -98q112 -112 112 -311q0 -236 -171 -380q-128 -108 -308 -108q-169 0 -286 110v-454h-311zM438 292q93 -107 211 -107q114 0 185 92
q58 74 58 186q0 213 -187 273q-54 17 -106 17h-29v187q91 3 136 30q86 50 86 185q0 88 -48 133q-46 44 -119 44q-113 0 -159 -86q-28 -53 -28 -202v-752z" />
    <glyph glyph-name="gamma" unicode="&#x3b3;" horiz-adv-x="1202" vert-adv-y="2457" 
d="M788 -10v-383h-317v383l-471 1091h336l282 -747l263 747h321z" />
    <glyph glyph-name="delta" unicode="&#x3b4;" horiz-adv-x="1293" vert-adv-y="2457" 
d="M549 1113l-316 233v198h846v-239h-435l291 -212q166 -121 227 -250q55 -116 55 -287q0 -269 -139 -422q-154 -171 -433 -171q-255 0 -406 142q-163 153 -163 434q0 296 178 450q118 103 295 124zM640 879q-116 0 -185 -93q-68 -91 -68 -247t68 -245q68 -91 190 -91
q113 0 183 82q75 88 75 260q0 173 -91 268q-63 66 -172 66z" />
    <glyph glyph-name="epsilon" unicode="&#x3b5;" horiz-adv-x="1153" vert-adv-y="2457" 
d="M725 638v-182q-138 -2 -177 -7q-162 -18 -162 -126q0 -41 29 -68q56 -52 182 -52q122 0 181 54q30 27 53 86l277 -71q-45 -117 -122 -186q-88 -78 -195 -102q-89 -20 -199 -20q-234 0 -373 92q-143 96 -143 249q0 195 222 260q-184 105 -184 257q0 142 146 223
q133 73 335 73q270 0 399 -118q58 -53 101 -162l-280 -69q-39 109 -208 109q-104 0 -155 -44q-28 -23 -28 -64q0 -67 76 -103q57 -28 225 -29z" />
    <glyph glyph-name="zeta" unicode="&#x3b6;" horiz-adv-x="1035" vert-adv-y="2457" 
d="M173 1270v274h806v-231q-169 -82 -259 -162q-187 -164 -280 -379q-53 -125 -53 -240q0 -119 69 -167q43 -30 212 -45l80 -7q128 -12 192 -62q94 -74 94 -234q0 -109 -57 -270q-17 -47 -53 -140h-310q49 109 71 167q40 106 40 183q0 50 -31 71q-24 16 -81 21l-79 7
q-171 14 -265 60q-96 48 -144 152q-49 107 -49 234q0 245 156 482q81 123 175 206q33 28 102 80h-336z" />
    <glyph glyph-name="eta" unicode="&#x3b7;" horiz-adv-x="1278" vert-adv-y="2457" 
d="M127 0v1081h299l16 -153q110 190 351 190q358 0 358 -399v-1112h-311v1069q0 196 -173 196q-102 0 -163 -81q-66 -86 -66 -238v-553h-311z" />
    <glyph glyph-name="theta" unicode="&#x3b8;" horiz-adv-x="1288" vert-adv-y="2457" 
d="M648 1544q564 0 564 -790q0 -791 -570 -791q-566 0 -566 791q0 790 572 790zM895 889q-14 171 -55 264q-62 145 -198 145q-146 0 -205 -160q-30 -81 -43 -249h501zM391 649l1 -7q11 -189 53 -288q61 -145 196 -145q125 0 191 127q51 97 63 306l1 7h-505z" />
    <glyph glyph-name="iota" unicode="&#x3b9;" horiz-adv-x="588" vert-adv-y="2457" 
d="M137 0v1081h312v-1081h-312z" />
    <glyph glyph-name="kappa" unicode="&#x3ba;" horiz-adv-x="1202" vert-adv-y="2457" 
d="M127 0v1081h311v-348l371 348h385l-393 -368l418 -713h-357l-291 518l-133 -127v-391h-311z" />
    <glyph glyph-name="lambda" unicode="&#x3bb;" horiz-adv-x="1202" vert-adv-y="2457" 
d="M414 1091l-196 453h317l667 -1544h-336l-282 747l-263 -747h-321z" />
    <glyph glyph-name="uni03BC" unicode="&#x3bc;" horiz-adv-x="1278" vert-adv-y="2457" 
d="M127 -393v1474h311v-665q0 -201 170 -201q116 0 178 93q54 82 54 220v553h311v-1081h-299l-14 154q-111 -191 -344 -191q-26 0 -56 3v-359h-311z" />
    <glyph glyph-name="nu" unicode="&#x3bd;" horiz-adv-x="1124" vert-adv-y="2457" 
d="M387 0l-387 1081h332l235 -790l236 790h321l-385 -1081h-352z" />
    <glyph glyph-name="xi" unicode="&#x3be;" horiz-adv-x="1046" vert-adv-y="2457" 
d="M927 -393h-311q113 245 113 350q0 49 -32 71q-24 16 -81 21l-79 7q-175 15 -265 60q-90 46 -145 152q-47 92 -47 196q0 179 128 282q66 54 193 93q-216 77 -216 264q0 96 62 167h-124v274h843v-274h-202q-268 0 -268 -141q0 -68 55 -119q64 -59 227 -59h132v-245h-137
q-167 0 -246 -29q-62 -23 -102 -81q-33 -47 -33 -97q0 -51 32 -99q27 -41 93 -59q38 -11 154 -21l80 -7q130 -12 192 -62q95 -75 95 -229q0 -135 -111 -415z" />
    <glyph glyph-name="omicron" unicode="&#x3bf;" horiz-adv-x="1292" vert-adv-y="2457" 
d="M649 1118q276 0 430 -171q138 -154 138 -408q0 -253 -138 -405q-155 -171 -434 -171q-255 0 -406 142q-163 154 -163 434q0 256 135 408q153 171 438 171zM640 879q-116 0 -185 -93q-68 -91 -68 -247q0 -155 68 -245q69 -91 190 -91q113 0 183 82q75 88 75 259
q0 174 -91 269q-63 66 -172 66z" />
    <glyph glyph-name="pi" unicode="&#x3c0;" horiz-adv-x="1390" vert-adv-y="2457" 
d="M1359 1081v-239h-148v-842h-311v842h-409v-842h-311v842h-148v239h1327z" />
    <glyph glyph-name="rho" unicode="&#x3c1;" horiz-adv-x="1292" vert-adv-y="2457" 
d="M387 10v-403h-311v947q0 213 110 361q150 203 458 203q280 0 434 -171q139 -154 139 -408q0 -252 -139 -405q-154 -171 -433 -171q-145 0 -258 47zM640 879q-116 0 -185 -93q-68 -91 -68 -247q0 -155 68 -245q69 -91 190 -91q113 0 183 82q75 88 75 259q0 174 -91 269
q-63 66 -172 66z" />
    <glyph glyph-name="sigma1" unicode="&#x3c2;" horiz-adv-x="1178" vert-adv-y="2457" 
d="M1125 760l-290 -72q-55 189 -212 189q-121 0 -182 -101q-53 -86 -53 -233q0 -130 68 -178q44 -30 213 -45l80 -7q130 -12 193 -62q94 -75 94 -229q0 -112 -57 -275q-17 -46 -53 -140h-311q112 244 112 351q0 48 -32 70q-24 16 -81 21l-79 7q-225 19 -319 94
q-139 111 -139 382q0 253 130 410q147 176 419 176q413 0 499 -358z" />
    <glyph glyph-name="sigma" unicode="&#x3c3;" horiz-adv-x="1292" vert-adv-y="2457" 
d="M1137 867q80 -143 80 -328q0 -252 -139 -405q-154 -171 -433 -171q-255 0 -406 142q-163 154 -163 436q0 255 135 407q151 170 431 170q79 0 143 -12h504v-239h-152zM640 879q-116 0 -185 -93q-68 -91 -68 -247q0 -155 68 -245q69 -91 190 -91q113 0 183 82q75 88 75 259
q0 174 -91 269q-63 66 -172 66z" />
    <glyph glyph-name="tau" unicode="&#x3c4;" horiz-adv-x="1053" vert-adv-y="2457" 
d="M371 0v842h-339v239h990v-239h-340v-842h-311z" />
    <glyph glyph-name="upsilon" unicode="&#x3c5;" horiz-adv-x="1224" vert-adv-y="2457" 
d="M786 1081h311v-737q0 -169 -114 -270q-125 -111 -371 -111q-257 0 -382 121q-103 100 -103 260v737h311v-665q0 -100 36 -146q42 -55 138 -55t138 55q36 46 36 146v665z" />
    <glyph glyph-name="phi" unicode="&#x3c6;" horiz-adv-x="1553" vert-adv-y="2457" 
d="M612 1110q79 8 158 8q300 0 474 -111q232 -147 232 -476q0 -338 -242 -484q-119 -71 -311 -85v-355h-311v355q-179 15 -294 85q-242 147 -242 487q0 309 222 462q83 57 197 84v-194q-108 -99 -108 -329q0 -176 82 -277q55 -68 143 -79v909zM923 201q102 10 159 75
q83 93 83 258q0 171 -83 272q-56 69 -159 80v-685z" />
    <glyph glyph-name="chi" unicode="&#x3c7;" horiz-adv-x="1272" vert-adv-y="2457" 
d="M-39 -393l486 748l-447 726h345l283 -463l294 463h313l-449 -700l486 -774h-359l-306 506l-318 -506h-328z" />
    <glyph glyph-name="psi" unicode="&#x3c8;" horiz-adv-x="1614" vert-adv-y="2457" 
d="M651 -393v355q-152 6 -250 51q-168 77 -237 227q-37 81 -37 251v590h311v-575q0 -178 60 -245q49 -55 153 -60v880h311v-880q87 4 135 42q47 39 66 110q13 51 13 153v575h311v-590q0 -170 -38 -252q-69 -150 -238 -226q-98 -44 -249 -51v-355h-311z" />
    <glyph glyph-name="omega" unicode="&#x3c9;" horiz-adv-x="1683" vert-adv-y="2457" 
d="M841 165q-125 -201 -338 -201q-176 0 -296 128q-131 141 -131 399q0 333 221 590h334q-244 -265 -244 -588q0 -182 76 -257q31 -30 80 -30q77 0 114 71q29 53 29 198v337h311v-337q0 -158 37 -212q39 -56 105 -56q50 0 81 30q76 75 76 257q0 323 -244 587h334
q221 -257 221 -590q0 -256 -129 -396q-120 -131 -298 -131q-214 0 -339 201z" />
    <glyph glyph-name="iotadieresis" unicode="&#x3ca;" horiz-adv-x="588" vert-adv-y="2457" 
d="M137 0v1081h312v-1081h-312zM-98 1278v266h266v-266h-266zM418 1278v266h266v-266h-266z" />
    <glyph glyph-name="upsilondieresis" unicode="&#x3cb;" horiz-adv-x="1224" vert-adv-y="2457" 
d="M786 1081h311v-737q0 -169 -114 -270q-125 -111 -371 -111q-257 0 -382 121q-103 100 -103 260v737h311v-665q0 -100 36 -146q42 -55 138 -55t138 55q36 46 36 146v665zM221 1278v266h266v-266h-266zM737 1278v266h266v-266h-266z" />
    <glyph glyph-name="omicrontonos" unicode="&#x3cc;" horiz-adv-x="1292" vert-adv-y="2457" 
d="M649 1118q276 0 430 -171q138 -154 138 -408q0 -253 -138 -405q-155 -171 -434 -171q-255 0 -406 142q-163 154 -163 434q0 256 135 408q153 171 438 171zM640 879q-116 0 -185 -93q-68 -91 -68 -247q0 -155 68 -245q69 -91 190 -91q113 0 183 82q75 88 75 259
q0 174 -91 269q-63 66 -172 66zM804 1686v-228l-92 -223h-133l-87 223v228h312z" />
    </font>
</defs>
</svg>
