<svg xmlns="http://www.w3.org/2000/svg" width="110" height="110" viewBox="0 0 110 110"><defs><style>.cls-1{fill:#fff;}</style></defs><title>Воротник - Акула Мини</title><g id="Воротник"><g id="Акула_Мини" data-name="Акула Мини"><g id="Цвет-6" data-name="Цвет"><path class="cls-1" d="M54.915,71.5c8.32.28,19.835-1.667,28-4.417L65.58,50.375a68.8,68.8,0,0,0,20.375-11.25,80.212,80.212,0,0,0-31.04-6.045,80.212,80.212,0,0,0-31.04,6.045A68.8,68.8,0,0,0,44.25,50.375L27.217,67.187A85.043,85.043,0,0,0,54.915,71.5Z"/><path class="cls-1" d="M55,33.08a77.9,77.9,0,0,1,31.167,6.087c7.317-5.629,10.413-12.351,10.5-19.849C86,13.333,70.652,11,55,11s-31,2.333-41.671,8.317c.092,7.5,3.188,14.22,10.5,19.849A77.9,77.9,0,0,1,55,33.08Z"/><path class="cls-1" d="M.5,51.376a20.313,20.313,0,0,1,1.821-8.215l11-23.843C12.911,30.906,22.9,42.518,44.5,50.5L7.833,85.5s-5-20-6.667-27A28.288,28.288,0,0,1,.5,51.376Z"/><path class="cls-1" d="M109.492,51.376a20.313,20.313,0,0,0-1.821-8.215l-11-23.843C97.085,30.906,87.1,42.518,65.5,50.5l36.667,35s5-20,6.667-27A28.288,28.288,0,0,0,109.492,51.376Z"/></g><g id="Контур-6" data-name="Контур"><path d="M27.64,63.276a.5.5,0,0,1-.017.706l-1.447,1.381a.5.5,0,1,1-.689-.723l1.447-1.381A.5.5,0,0,1,27.64,63.276ZM20.084,38.864a.5.5,0,0,0,0-.707q-.709-.7-1.366-1.425a.5.5,0,0,0-.74.673q.674.74,1.4,1.462a.5.5,0,0,0,.708,0ZM29.827,60.5,28.38,61.879a.5.5,0,1,0,.689.723l1.447-1.381a.5.5,0,1,0-.689-.723Zm-8.682,8.285L19.7,70.164a.5.5,0,0,0,.691.723l1.446-1.381a.5.5,0,1,0-.691-.723Zm1.937-27.272a.5.5,0,0,0-.067-.7q-.769-.636-1.5-1.293a.5.5,0,0,0-.67.742q.743.671,1.53,1.321a.5.5,0,0,0,.7-.067Zm.957,24.51L22.593,67.4a.5.5,0,0,0,.691.723l1.446-1.381a.5.5,0,1,0-.691-.723Zm14.467-13.81L37.06,53.592a.5.5,0,0,0,.691.724L39.2,52.935a.5.5,0,0,0-.691-.724ZM36.45,49.189q-.9-.428-1.782-.875a.5.5,0,1,0-.451.892q.894.453,1.8.886a.5.5,0,1,0,.43-.9Zm3.631,1.618q-.917-.382-1.825-.787a.5.5,0,1,0-.406.913q.917.409,1.847.8a.494.494,0,0,0,.192.039.5.5,0,0,0,.192-.961Zm-7.408-2.475a.5.5,0,0,0,.238-.939q-.877-.475-1.734-.97a.5.5,0,0,0-.5.866q.869.5,1.758.982A.5.5,0,0,0,32.673,48.333ZM18.252,71.545l-1.446,1.381a.5.5,0,0,0,.691.723l1.446-1.381a.5.5,0,1,0-.691-.723Zm14.469-13.81-1.447,1.381a.5.5,0,1,0,.689.723l1.447-1.381a.5.5,0,0,0-.689-.723Zm2.894-2.762-1.447,1.381a.5.5,0,1,0,.689.723L36.3,55.7a.5.5,0,0,0-.689-.724ZM3.782,59.087a.5.5,0,0,0,.366-.6l-.161-.658q-.157-.637-.306-1.279a.5.5,0,0,0-.975.225q.151.65.31,1.294l.161.657a.5.5,0,0,0,.6.366ZM2.233,51.244a.5.5,0,0,0,.453-.543c-.061-.667-.1-1.326-.108-1.96a.529.529,0,0,0-.509-.491.5.5,0,0,0-.491.509c.012.659.05,1.343.112,2.034a.5.5,0,0,0,.5.455Zm.637,3.949a.5.5,0,0,0,.394-.587c-.127-.647-.242-1.3-.341-1.949a.507.507,0,0,0-.568-.419.5.5,0,0,0-.42.569q.151,1,.349,1.993a.5.5,0,0,0,.489.4A.509.509,0,0,0,2.87,55.192ZM12.5,28.887a.5.5,0,0,0,.934-.36,19.4,19.4,0,0,1-.612-1.849.5.5,0,0,0-.965.266C12.036,27.59,12.253,28.244,12.5,28.887Zm2.857,45.419-1.446,1.381a.5.5,0,0,0,.691.723l1.446-1.381a.5.5,0,1,0-.691-.723ZM25.582,44.033a.5.5,0,1,0,.579-.815q-.814-.579-1.6-1.176a.5.5,0,1,0-.607.794Q24.753,43.445,25.582,44.033Zm-8.929-8.167a.5.5,0,0,0,.777-.63q-.627-.773-1.188-1.567a.5.5,0,0,0-.816.577C15.807,34.786,16.22,35.331,16.653,35.867Zm10.595,9.306q.835.552,1.7,1.085a.5.5,0,1,0,.525-.851q-.851-.525-1.674-1.068a.5.5,0,1,0-.551.834Zm-14.783,31.9L11.019,78.45a.5.5,0,0,0,.691.723l1.446-1.382a.5.5,0,1,0-.691-.723Zm2.272-44.282a.5.5,0,0,0,.429-.758c-.343-.569-.66-1.146-.942-1.716a.5.5,0,0,0-.9.445c.295.594.626,1.195.981,1.787A.5.5,0,0,0,14.737,32.786ZM9.573,79.83l-.134.128-.023-.094a.5.5,0,0,0-.971.24l.231.93a.5.5,0,0,0,.346.359.524.524,0,0,0,.14.02.5.5,0,0,0,.345-.138l.756-.721a.5.5,0,1,0-.689-.725ZM5.693,66.865a.5.5,0,0,0,.365-.605L5.58,64.316a.5.5,0,1,0-.971.238L5.088,66.5a.5.5,0,0,0,.485.38A.518.518,0,0,0,5.693,66.865ZM8.569,78.527a.5.5,0,0,0,.365-.605l-.481-1.943a.5.5,0,1,0-.971.24l.481,1.943a.5.5,0,0,0,.485.38A.511.511,0,0,0,8.569,78.527ZM4.738,62.977a.5.5,0,0,0,.366-.6l-.478-1.944a.5.5,0,1,0-.971.238l.478,1.944a.5.5,0,0,0,.6.366ZM7.607,74.64a.5.5,0,0,0,.366-.6L7.494,72.09a.5.5,0,0,0-.971.24L7,74.273a.5.5,0,0,0,.6.366ZM6.65,70.752a.5.5,0,0,0,.365-.605L6.537,68.2a.5.5,0,1,0-.971.238l.479,1.945a.5.5,0,0,0,.485.38A.518.518,0,0,0,6.65,70.752ZM47.789,14.041h.023c.663-.031,1.326-.058,1.993-.08a.5.5,0,0,0-.017-1h-.017q-1.006.034-2.007.08a.5.5,0,0,0,.023,1Zm15.968.092q1,.059,1.988.132h.038a.5.5,0,0,0,.036-1q-1-.074-2-.133a.51.51,0,0,0-.528.47A.5.5,0,0,0,63.757,14.133ZM43.8,14.286h.039q.99-.075,1.988-.136a.5.5,0,0,0,.469-.53.511.511,0,0,0-.529-.468q-1.006.062-2,.137a.5.5,0,0,0,.037,1Zm-3.984.363a.482.482,0,0,0,.054,0q.984-.1,1.983-.2a.5.5,0,0,0-.092-1c-.67.062-1.337.127-2,.2a.5.5,0,0,0,.052,1Zm19.965-.7q1,.032,1.989.077h.022a.5.5,0,0,0,.022-1q-1-.045-2-.077a.488.488,0,0,0-.516.483A.5.5,0,0,0,59.776,13.953Zm-3.983-.074q1,.007,1.993.024h.009a.5.5,0,0,0,.009-1q-1-.018-2-.024h0a.5.5,0,0,0,0,1Zm-4,.029h.01q1-.019,2-.027a.5.5,0,0,0,0-1h0q-1.006.007-2.009.027a.5.5,0,0,0,.01,1ZM16.617,20.4a.5.5,0,0,0,.215-.049q.875-.417,1.8-.8a.5.5,0,0,0-.387-.923q-.951.4-1.848.825a.5.5,0,0,0,.215.951Zm19.225-5.253a.5.5,0,0,0,.071,0q.979-.139,1.974-.264a.5.5,0,1,0-.123-.992q-1,.125-1.991.266a.5.5,0,0,0,.069,1ZM24.105,17.6a.493.493,0,0,0,.14-.02q.94-.274,1.915-.527a.5.5,0,1,0-.252-.968q-.989.256-1.942.535a.5.5,0,0,0,.14.98Zm7.788-1.818a.476.476,0,0,0,.091-.008q.97-.178,1.961-.338a.5.5,0,0,0-.16-.987q-1,.163-1.98.342a.5.5,0,0,0,.089.992Zm-3.918.81a.5.5,0,0,0,.113-.013q.958-.223,1.941-.425a.5.5,0,0,0,.389-.591.5.5,0,0,0-.59-.389q-1,.206-1.967.43a.5.5,0,0,0,.113.987ZM20.3,18.851a.5.5,0,0,0,.174-.031q.914-.338,1.87-.651a.5.5,0,1,0-.311-.95q-.976.319-1.907.664a.5.5,0,0,0,.174.969Zm51.39-4.006q1,.122,1.975.259a.486.486,0,0,0,.07,0,.5.5,0,0,0,.068-1q-.987-.138-1.992-.261a.5.5,0,1,0-.121.992ZM83.43,16.994q.974.25,1.916.52a.5.5,0,1,0,.275-.961q-.954-.275-1.943-.528a.5.5,0,0,0-.248.969ZM75.638,15.4q.992.158,1.962.334a.508.508,0,0,0,.09.008.5.5,0,0,0,.088-.992q-.98-.177-1.981-.337a.5.5,0,1,0-.158.987Zm11.605,2.693q.959.309,1.875.642a.5.5,0,0,0,.342-.939q-.933-.34-1.91-.654a.5.5,0,0,0-.307.952ZM67.731,14.428q1,.089,1.983.192l.054,0a.5.5,0,0,0,.052-1q-.993-.1-2-.194a.509.509,0,0,0-.542.454A.5.5,0,0,0,67.731,14.428Zm23.233,5.02q.932.384,1.81.794a.5.5,0,0,0,.212.047.5.5,0,0,0,.212-.953q-.9-.421-1.853-.814a.5.5,0,0,0-.381.925Zm-11.41-3.34q.984.2,1.943.418a.487.487,0,0,0,.111.013.5.5,0,0,0,.111-.987q-.97-.222-1.967-.424a.5.5,0,0,0-.2.98Zm2.854,19.4q.957.313,1.881.644a.5.5,0,0,0,.168.029.5.5,0,0,0,.168-.971q-.936-.335-1.9-.653a.5.5,0,0,0-.312.95Zm-58.726,1.3a.494.494,0,0,0,.18-.034q.914-.352,1.862-.69a.5.5,0,0,0-.334-.942q-.962.341-1.888.7a.5.5,0,0,0,.18.966Zm15.408-4.219a.534.534,0,0,0,.088-.007q.973-.171,1.963-.324a.5.5,0,1,0-.152-.988q-1,.154-1.984.327a.5.5,0,0,0,.086.993Zm-7.8,1.739a.488.488,0,0,0,.131-.018q.949-.258,1.925-.5a.5.5,0,0,0,.365-.6.492.492,0,0,0-.605-.366q-.986.243-1.946.5a.5.5,0,0,0,.131.982Zm-3.834,1.142a.5.5,0,0,0,.154-.024q.935-.3,1.9-.591a.5.5,0,1,0-.285-.958q-.974.29-1.921.6a.5.5,0,0,0,.154.976ZM55.019,31.2q1,0,1.989.025h.012a.5.5,0,0,0,.012-1q-1-.023-2.011-.025h0a.5.5,0,0,0,0,1Zm15.825,1.418q.984.176,1.954.371a.492.492,0,0,0,.1.01.5.5,0,0,0,.1-.99q-.98-.2-1.976-.375a.5.5,0,0,0-.176.984ZM58.993,31.3q1,.046,1.985.113h.035a.5.5,0,0,0,.033-1q-1-.067-2.007-.114a.5.5,0,0,0-.047,1ZM78.6,34.368q.968.264,1.91.548a.5.5,0,0,0,.287-.958q-.954-.286-1.934-.555a.5.5,0,0,0-.264.965Zm-11.69-2.359q.993.133,1.97.285a.526.526,0,0,0,.078.006.5.5,0,0,0,.076-.994q-.989-.154-1.991-.288a.5.5,0,0,0-.133.991Zm-3.953-.442q1,.089,1.979.2l.057,0a.5.5,0,0,0,.055-1q-.995-.111-2-.2a.5.5,0,0,0-.09,1Zm-15.937-.016.044,0q.99-.086,1.986-.152a.5.5,0,0,0,.466-.532.51.51,0,0,0-.532-.466q-1.006.067-2.006.154a.5.5,0,0,0,.042,1Zm-3.978.436a.506.506,0,0,0,.066,0q.981-.129,1.976-.238a.5.5,0,0,0-.109-.994q-1,.11-2,.241a.5.5,0,0,0,.064,1Zm7.973-.7h.022q.99-.044,1.988-.065a.5.5,0,0,0-.011-1h-.011Q52,30.245,51,30.29a.5.5,0,0,0,.022,1Zm23.727,2.118q.976.219,1.934.458a.52.52,0,0,0,.121.015.5.5,0,0,0,.121-.985q-.968-.241-1.957-.463a.5.5,0,1,0-.219.976ZM35.17,33.375a.519.519,0,0,0,.108-.012q.964-.215,1.946-.41a.5.5,0,0,0-.2-.98q-.993.2-1.968.414a.5.5,0,0,0,.108.988ZM54.915,64.968A4.056,4.056,0,0,1,50.9,61.4H49.568a.5.5,0,0,1,0-1H50.9a4.042,4.042,0,0,1,8.028,0h1.333a.5.5,0,0,1,0,1H58.929A4.056,4.056,0,0,1,54.915,64.968ZM57.979,60.9a3.064,3.064,0,1,0-3.064,3.064A3.068,3.068,0,0,0,57.979,60.9Zm-3.064-2.282a2.282,2.282,0,0,0,0,4.564.5.5,0,0,0,0-1A1.282,1.282,0,1,1,56.2,60.9a.5.5,0,0,0,1,0A2.284,2.284,0,0,0,54.915,58.621ZM33.8,66.485q-.971-.231-1.932-.481a.5.5,0,1,0-.252.967q.971.253,1.951.487a.478.478,0,0,0,.116.014.5.5,0,0,0,.116-.986ZM41.606,68q-.987-.148-1.965-.316a.5.5,0,1,0-.17.986q.99.17,1.986.318a.488.488,0,0,0,.075.006A.5.5,0,0,0,41.606,68Zm-3.922-.673q-.979-.189-1.948-.4a.5.5,0,0,0-.594.383.5.5,0,0,0,.383.594q.979.212,1.97.4a.529.529,0,0,0,.1.009.5.5,0,0,0,.094-.991Zm23.777,1.43q-.989.073-1.985.126a.5.5,0,0,0,.026,1h.026q1.006-.053,2.007-.126A.5.5,0,0,0,62,69.217.507.507,0,0,0,61.462,68.755Zm3.959-.38q-.986.116-1.978.212a.5.5,0,0,0,.047,1l.049,0q1-.1,2-.216a.5.5,0,1,0-.117-.992Zm3.938-.553q-.98.158-1.967.3a.5.5,0,0,0,.069,1,.583.583,0,0,0,.071,0q1-.142,1.986-.3a.5.5,0,1,0-.16-.986ZM55.8,53h2a.5.5,0,0,0,0-1h-2a.5.5,0,0,0,0,1ZM73.27,67.1q-.971.2-1.952.381a.5.5,0,0,0,.09.992.593.593,0,0,0,.092-.008q.99-.183,1.974-.387a.5.5,0,1,0-.2-.979Zm3.878-.888q-.961.243-1.934.465a.5.5,0,0,0,.111.987.487.487,0,0,0,.111-.013q.983-.226,1.955-.469a.5.5,0,0,0-.244-.971ZM65.8,52h-2a.5.5,0,0,0,0,1h2a.5.5,0,0,0,0-1ZM51.869,53.511a.5.5,0,0,0,.188-.037,6.447,6.447,0,0,1,1.795-.443.5.5,0,1,0-.1-1,7.472,7.472,0,0,0-2.074.511.5.5,0,0,0,.188.963ZM61.8,52h-2a.5.5,0,0,0,0,1h2a.5.5,0,0,0,0-1ZM53.514,68.988q-.995-.016-1.987-.057a.5.5,0,0,0-.041,1q1,.041,2.013.057h.008a.5.5,0,0,0,.008-1Zm-3.975-.157q-.995-.062-1.983-.145a.51.51,0,0,0-.54.456.5.5,0,0,0,.456.54q1,.085,2.007.146h.03a.5.5,0,0,0,.03-1Zm7.951.131Q56.5,68.991,55.5,69a.5.5,0,0,0,0,1h0q1.008-.007,2.011-.036a.5.5,0,0,0-.029-1ZM47.5,67.7a.5.5,0,0,0,.5-.5v-2a.5.5,0,0,0-1,0v2A.5.5,0,0,0,47.5,67.7Zm-.015-8h.021a.5.5,0,0,0,.5-.479,6.5,6.5,0,0,1,.34-1.818.5.5,0,0,0-.947-.322,7.552,7.552,0,0,0-.393,2.1A.5.5,0,0,0,47.485,59.7Zm1.294-3.733a.5.5,0,0,0,.408-.211,6.573,6.573,0,0,1,1.272-1.346.5.5,0,1,0-.623-.782,7.547,7.547,0,0,0-1.466,1.551.5.5,0,0,0,.408.789ZM47.5,63.7a.5.5,0,0,0,.5-.5v-2a.5.5,0,0,0-1,0v2A.5.5,0,0,0,47.5,63.7Zm62.492-12.332a28.714,28.714,0,0,1-.677,7.249c-1.648,6.923-6.618,26.806-6.668,27.006a.5.5,0,0,1-.347.359.517.517,0,0,1-.139.02.5.5,0,0,1-.346-.139l-19.064-18.2A92.659,92.659,0,0,1,54.915,72,92.612,92.612,0,0,1,27.2,67.7L8.179,85.861A.5.5,0,0,1,7.833,86a.517.517,0,0,1-.139-.02.5.5,0,0,1-.347-.359c-.05-.2-5.02-20.083-6.667-27A28.67,28.67,0,0,1,0,51.366,20.937,20.937,0,0,1,1.87,42.951l11-23.843a.468.468,0,0,1,.028-.041.476.476,0,0,1,.13-.145c.011-.008.018-.021.03-.028C21.549,13.56,36.8,10.5,54.915,10.5c18.031,0,33.226,3.034,41.733,8.325a.493.493,0,0,1,.472.283l11,23.843A20.937,20.937,0,0,1,109.992,51.366ZM54.915,11.5c-17.769,0-32.711,2.954-41.088,8.105-.009.4,0,.806.014,1.208.252-.148.494-.3.756-.443a.5.5,0,1,1,.48.877c-.4.219-.779.449-1.156.679.53,5.174,3.205,10.138,7.8,14.66a.492.492,0,0,1,.57.285.485.485,0,0,1,.022.283c.467.441.95.878,1.454,1.31a85.412,85.412,0,0,1,62.414.044c.436-.372.861-.748,1.269-1.127-.429-.178-.857-.356-1.3-.529a.5.5,0,1,1,.363-.932q.88.344,1.725.7c4.589-4.505,7.272-9.45,7.826-14.606-.492-.3-1-.6-1.528-.889a.5.5,0,1,1,.475-.88c.4.213.764.439,1.139.663q.029-.6.019-1.209C87.823,14.489,72.8,11.5,54.915,11.5ZM85.3,39.239A84.4,84.4,0,0,0,24.643,39.2,70.455,70.455,0,0,0,44.592,50H65.4A70.568,70.568,0,0,0,85.3,39.239ZM43.578,50.689c-8.25-3.122-15-6.9-20.056-11.129a.5.5,0,0,1-.406-.3A.472.472,0,0,1,23.1,39.2C17.05,34,13.536,28.141,12.921,21.973c0-.006-.011-.008-.015-.014a.49.49,0,0,1-.033-.449V21.5l-.659,1.429a17.185,17.185,0,0,0,.194,1.853.5.5,0,0,1-.415.573.492.492,0,0,1-.08.006.5.5,0,0,1-.493-.421c-.012-.075-.019-.151-.03-.227l-7.5,16.243a.483.483,0,0,1-.023.135,19.021,19.021,0,0,0-.607,1.851.494.494,0,0,1-.451.358l-.032.07c-.136.3-.239.6-.359.9h.014a.5.5,0,0,1,.413.574c-.1.638-.178,1.291-.222,1.939a.5.5,0,0,1-.5.466H2.092a.5.5,0,0,1-.465-.533l0-.035A20.82,20.82,0,0,0,1,51.386a27.728,27.728,0,0,0,.65,7c1.453,6.1,5.492,22.3,6.456,26.161ZM28.036,66.907A92.318,92.318,0,0,0,45,70.426v-.981c-.518-.057-1.035-.115-1.55-.181a.5.5,0,0,1,.127-.992c.473.061.948.114,1.423.167V59.5A9.456,9.456,0,0,1,47.591,53H46.5a.5.5,0,0,1,0-1h2a.489.489,0,0,1,.15.03A9.509,9.509,0,0,1,50.283,51H44.7l-1.048,1H44.5a.5.5,0,0,1,0,1H42.606L29.627,65.389l.32.093a.5.5,0,0,1-.137.981.512.512,0,0,1-.137-.019q-.444-.126-.883-.257Zm53.883-.038-.753-.719q-.91.269-1.832.522a.515.515,0,0,1-.132.018.5.5,0,0,1-.132-.982c.421-.115.839-.237,1.257-.358L65.294,51H54.5A8.51,8.51,0,0,0,46,59.5v11c0,.008,0,.014,0,.022A91.06,91.06,0,0,0,81.919,66.869Zm27.073-15.483a20.82,20.82,0,0,0-.628-4.7l0,.035a.5.5,0,0,1-.465.533h-.035a.5.5,0,0,1-.5-.466c-.044-.649-.119-1.3-.222-1.939a.5.5,0,0,1,.413-.574h.014c-.12-.3-.223-.606-.359-.9l-.032-.07a.494.494,0,0,1-.451-.358,19.027,19.027,0,0,0-.607-1.851.482.482,0,0,1-.023-.135l-7.5-16.243c-.011.076-.018.151-.03.227a.5.5,0,0,1-.493.421.492.492,0,0,1-.08-.006.5.5,0,0,1-.415-.573,17.178,17.178,0,0,0,.194-1.853L97.123,21.5C96.252,33.05,85.229,43.571,66.417,50.689l35.469,33.856c.964-3.862,5-20.057,6.457-26.161A27.734,27.734,0,0,0,108.992,51.386Zm-24.869-7.26a.5.5,0,0,0,.29-.092q.828-.589,1.624-1.2a.5.5,0,1,0-.607-.794q-.781.6-1.6,1.176a.5.5,0,0,0,.289.908Zm8.83-8.074a.5.5,0,0,0,.389-.185c.434-.536.847-1.081,1.228-1.62a.5.5,0,0,0-.816-.577q-.561.793-1.188,1.567a.5.5,0,0,0,.389.815ZM80.785,46.332a.5.5,0,0,0,.263-.075q.863-.532,1.7-1.085a.5.5,0,1,0-.551-.834q-.823.543-1.674,1.068a.5.5,0,0,0,.263.925ZM96.847,29.173a.5.5,0,0,0,.647-.286c.248-.644.465-1.3.644-1.943a.5.5,0,0,0-.965-.266,19.4,19.4,0,0,1-.612,1.849A.5.5,0,0,0,96.847,29.173ZM85.956,66.021a.5.5,0,0,0-.691.723l1.446,1.381A.5.5,0,1,0,87.4,67.4Zm21.685-13.785a.5.5,0,0,0-.568.419c-.1.652-.214,1.3-.341,1.949a.5.5,0,0,0,.394.587.509.509,0,0,0,.1.009.5.5,0,0,0,.489-.4q.2-.993.349-1.993A.5.5,0,0,0,107.641,52.237ZM72.4,50.274a.5.5,0,0,0-.66-.253q-.908.4-1.825.787a.5.5,0,0,0,.192.961.494.494,0,0,0,.192-.039q.929-.387,1.847-.8A.5.5,0,0,0,72.4,50.274Zm30.707,21.451a.5.5,0,0,0-.605.365l-.479,1.945a.5.5,0,1,0,.971.238l.479-1.943A.5.5,0,0,0,103.106,71.725Zm3.807-15.555a.5.5,0,0,0-.6.375q-.148.642-.306,1.28l-.161.657a.5.5,0,1,0,.971.238l.161-.656c.106-.431.209-.861.31-1.295A.5.5,0,0,0,106.913,56.17Zm-.94,3.892a.5.5,0,0,0-.6.366l-.478,1.944a.5.5,0,1,0,.971.238l.478-1.944A.5.5,0,0,0,105.973,60.062Zm-3.825,15.552a.5.5,0,0,0-.605.365l-.481,1.943a.5.5,0,0,0,.365.605.511.511,0,0,0,.12.015.5.5,0,0,0,.485-.38l.481-1.943A.5.5,0,0,0,102.147,75.613Zm1.915-7.776a.5.5,0,0,0-.6.366l-.479,1.943a.5.5,0,0,0,.365.605.518.518,0,0,0,.12.015.5.5,0,0,0,.485-.38l.479-1.945A.5.5,0,0,0,104.062,67.837Zm-9.426,6.47a.5.5,0,0,0-.691.723l1.446,1.381a.5.5,0,1,0,.691-.723Zm-2.894-2.762a.5.5,0,0,0-.691.723L92.5,73.648a.5.5,0,1,0,.691-.723Zm5.787,5.523a.5.5,0,0,0-.691.723l1.446,1.382a.5.5,0,1,0,.691-.723ZM96.442,30.087a.5.5,0,0,0-.671.225c-.282.57-.6,1.147-.942,1.716a.5.5,0,0,0,.857.516c.355-.592.687-1.193.981-1.787A.5.5,0,0,0,96.442,30.087ZM101.185,79.5a.5.5,0,0,0-.605.365l-.023.094-.134-.128a.5.5,0,1,0-.689.725l.756.721a.5.5,0,0,0,.345.138.524.524,0,0,0,.14-.02.5.5,0,0,0,.346-.359l.231-.93A.5.5,0,0,0,101.185,79.5ZM105.02,63.95a.5.5,0,0,0-.6.366l-.479,1.943a.5.5,0,0,0,.365.605.518.518,0,0,0,.12.015.5.5,0,0,0,.485-.38l.479-1.945A.5.5,0,0,0,105.02,63.95ZM79.5,46.607a.5.5,0,0,0-.683-.183q-.857.5-1.734.97a.5.5,0,1,0,.477.879q.889-.481,1.758-.982A.5.5,0,0,0,79.5,46.607Zm28.425,1.642a.535.535,0,0,0-.509.491c-.011.634-.048,1.294-.108,1.96a.5.5,0,0,0,.453.543l.046,0a.5.5,0,0,0,.5-.455c.063-.691.1-1.375.112-2.034A.5.5,0,0,0,107.926,48.249ZM77.274,57.735a.5.5,0,0,0-.689.723l1.447,1.381a.5.5,0,1,0,.689-.723Zm-5.785-5.524a.5.5,0,0,0-.691.724l1.446,1.381a.5.5,0,0,0,.346.138.5.5,0,0,0,.346-.862Zm2.892,2.762a.5.5,0,0,0-.689.724l1.447,1.38a.5.5,0,0,0,.689-.723Zm.946-6.659q-.885.448-1.782.875a.5.5,0,1,0,.43.9q.908-.432,1.8-.886a.5.5,0,1,0-.451-.892ZM88.85,68.783a.5.5,0,0,0-.691.723L89.6,70.887a.5.5,0,1,0,.691-.723Zm.334-29.232a.5.5,0,0,0-.706-.036q-.728.656-1.5,1.293a.5.5,0,1,0,.637.771q.787-.65,1.53-1.321A.5.5,0,0,0,89.184,39.551ZM83.062,63.26a.5.5,0,1,0-.689.723l1.447,1.381a.5.5,0,1,0,.689-.723ZM91.987,36.7a.5.5,0,0,0-.707.033q-.656.721-1.366,1.425a.5.5,0,0,0,.705.71q.727-.721,1.4-1.462A.5.5,0,0,0,91.987,36.7ZM80.168,60.5a.5.5,0,1,0-.689.723L80.926,62.6a.5.5,0,0,0,.689-.723Z"/></g></g></g></svg>