<svg xmlns="http://www.w3.org/2000/svg" width="110" height="110" viewBox="0 0 110 110"><defs><style>.cls-1{fill:#fff;}</style></defs><title>Воротник - Закрытый</title><g id="Воротник"><g id="Закрытый"><g id="Цвет-8" data-name="Цвет"><path class="cls-1" d="M55.1,71.5a81.447,81.447,0,0,0,13.578-1.065L65.583,50.5c8.371-3.065,15.485-6.794,20.751-11.5A82.769,82.769,0,0,0,55.1,33.08,82.769,82.769,0,0,0,23.875,39c5.265,4.706,12.38,8.435,20.751,11.5L41.335,70.463A83.59,83.59,0,0,0,55.1,71.5Z"/><path class="cls-1" d="M55,33.08a77.9,77.9,0,0,1,31.167,6.087c7.317-5.629,10.413-12.351,10.5-19.849C86,13.333,70.652,11,55,11s-31,2.333-41.671,8.317c.092,7.5,3.188,14.22,10.5,19.849A77.9,77.9,0,0,1,55,33.08Z"/><path class="cls-1" d="M.5,51.5a19.253,19.253,0,0,1,1.824-8.339l11-23.843C12.911,30.906,22.9,42.518,44.5,50.5l-9,55.75S12.59,74.963,5,64.5A22.323,22.323,0,0,1,.5,51.5Z"/><path class="cls-1" d="M109.5,51.5a19.253,19.253,0,0,0-1.824-8.339l-11-23.843C97.088,30.906,87.1,42.518,65.5,50.5l9,55.75S97.409,74.963,105,64.5A22.323,22.323,0,0,0,109.5,51.5Z"/></g><g id="Контур-8" data-name="Контур"><path d="M27.114,44.511a.5.5,0,0,1,.692-.144q.825.541,1.676,1.064a.5.5,0,1,1-.523.852q-.863-.53-1.7-1.08A.5.5,0,0,1,27.114,44.511Zm7.125,4.708q.9.452,1.809.884a.5.5,0,0,0,.214.048.5.5,0,0,0,.214-.952q-.9-.428-1.785-.874a.5.5,0,0,0-.451.893ZM26.664,89.265a.5.5,0,1,0-.807.59l1.183,1.616a.5.5,0,0,0,.807-.59ZM37.873,50.941q.914.408,1.844.8a.494.494,0,0,0,.193.039.5.5,0,0,0,.193-.961q-.92-.385-1.824-.788a.5.5,0,1,0-.406.913ZM26.286,43.948a.5.5,0,0,0-.12-.7q-.816-.576-1.6-1.172a.5.5,0,1,0-.605.8q.8.606,1.628,1.192a.494.494,0,0,0,.288.092A.5.5,0,0,0,26.286,43.948ZM24.3,86.03a.5.5,0,1,0-.807.59l1.181,1.617a.5.5,0,0,0,.809-.59ZM14.852,73.1a.5.5,0,1,0-.807.592l1.18,1.615a.5.5,0,0,0,.809-.59Zm2.36,3.234a.5.5,0,1,0-.807.59l1.182,1.617a.5.5,0,1,0,.807-.59ZM29.028,92.5a.5.5,0,0,0-.807.59L29.4,94.7a.5.5,0,1,0,.807-.592ZM38.084,75.19a.5.5,0,0,0-.573.413l-.319,1.975a.5.5,0,0,0,.413.573.454.454,0,0,0,.081.007.5.5,0,0,0,.492-.42l.319-1.975A.5.5,0,0,0,38.084,75.19ZM21.938,82.8a.5.5,0,1,0-.807.59L22.313,85a.5.5,0,0,0,.807-.59ZM12.518,28.921a.5.5,0,1,0,.932-.363c-.237-.608-.445-1.23-.619-1.848a.5.5,0,0,0-.963.271C12.05,27.63,12.269,28.283,12.518,28.921ZM22.7,41.735a.5.5,0,0,0,.318-.885q-.771-.637-1.5-1.293a.5.5,0,0,0-.67.743q.744.669,1.531,1.32A.5.5,0,0,0,22.7,41.735Zm-3.12,37.831a.5.5,0,0,0-.809.588l1.182,1.618a.5.5,0,1,0,.807-.59ZM41.271,55.446a.5.5,0,0,0-.573.414l-.319,1.974a.5.5,0,0,0,.413.573.454.454,0,0,0,.081.007.5.5,0,0,0,.492-.42l.319-1.975A.5.5,0,0,0,41.271,55.446Zm.718-3.868-.225.449,0,.012-.436-.07-.31,1.917a.5.5,0,1,0,.986.159l.31-1.917A.5.5,0,0,0,41.989,51.578Zm-1.356,7.817a.5.5,0,0,0-.572.413l-.318,1.976a.5.5,0,0,0,.413.572.462.462,0,0,0,.081.007.5.5,0,0,0,.492-.421l.318-1.975A.5.5,0,0,0,40.633,59.395ZM37.445,79.14a.5.5,0,0,0-.572.414l-.318,1.975a.5.5,0,0,0,.413.572.462.462,0,0,0,.081.007.5.5,0,0,0,.492-.421l.318-1.975A.5.5,0,0,0,37.445,79.14ZM40,63.344a.5.5,0,0,0-.572.414L39.1,65.732a.5.5,0,0,0,.414.572.443.443,0,0,0,.08.007.5.5,0,0,0,.492-.421l.318-1.974A.5.5,0,0,0,40,63.344Zm-1.273,7.9a.5.5,0,0,0-.573.413l-.319,1.975a.5.5,0,0,0,.413.573.454.454,0,0,0,.081.007.5.5,0,0,0,.492-.42l.319-1.975A.5.5,0,0,0,38.722,71.241Zm.636-3.948a.5.5,0,0,0-.572.414l-.318,1.975a.5.5,0,0,0,.414.572.443.443,0,0,0,.08.007.5.5,0,0,0,.492-.421l.318-1.975A.5.5,0,0,0,39.357,67.293ZM33.131,48.085a.5.5,0,0,0-.2-.677q-.879-.473-1.736-.964a.5.5,0,0,0-.5.867q.869.5,1.762.978a.5.5,0,0,0,.677-.2Zm1.128,50.8a.486.486,0,0,0-.445.151l-.053-.072a.5.5,0,1,0-.809.59l.69.942a.5.5,0,0,0,.4.205.533.533,0,0,0,.117-.014.5.5,0,0,0,.376-.406l.133-.823A.5.5,0,0,0,34.259,98.884Zm.638-3.949a.5.5,0,0,0-.573.413L34,97.322a.5.5,0,0,0,.413.573.454.454,0,0,0,.081.007.5.5,0,0,0,.492-.42l.319-1.975A.5.5,0,0,0,34.9,94.935Zm-3.5.8a.5.5,0,1,0-.807.592l1.183,1.615a.5.5,0,0,0,.807-.592Zm4.775-8.693a.5.5,0,0,0-.572.413l-.318,1.976a.5.5,0,0,0,.414.572.443.443,0,0,0,.08.007.5.5,0,0,0,.492-.421l.318-1.975A.5.5,0,0,0,36.17,87.037Zm.638-3.949a.5.5,0,0,0-.572.414l-.318,1.975a.5.5,0,0,0,.414.572.443.443,0,0,0,.08.007.5.5,0,0,0,.492-.421l.318-1.975A.5.5,0,0,0,36.808,83.088Zm-1.273,7.9a.5.5,0,0,0-.573.413l-.319,1.974a.5.5,0,0,0,.413.573.454.454,0,0,0,.081.007.5.5,0,0,0,.492-.42l.319-1.974A.5.5,0,0,0,35.534,90.986ZM12.491,69.861a.5.5,0,1,0-.809.59l1.182,1.618a.5.5,0,1,0,.807-.59ZM5.59,60.1a.5.5,0,0,0-.865.5q.5.867,1.074,1.724a.5.5,0,1,0,.832-.555Q6.077,60.94,5.59,60.1Zm-.925-1.733c-.29-.589-.559-1.192-.8-1.792a.5.5,0,0,0-.928.373c.25.622.529,1.248.829,1.86a.5.5,0,0,0,.449.279.51.51,0,0,0,.221-.051A.5.5,0,0,0,4.665,58.365Zm-1.46-3.637c-.194-.62-.365-1.256-.507-1.891a.5.5,0,0,0-.977.218c.148.663.326,1.326.528,1.972a.5.5,0,0,0,.955-.3ZM1.93,51.472a.5.5,0,0,0,.433-.559c-.082-.643-.134-1.3-.153-1.946a.481.481,0,0,0-.516-.484A.5.5,0,0,0,1.209,49c.021.68.075,1.367.161,2.041a.5.5,0,0,0,.5.437A.571.571,0,0,0,1.93,51.472ZM13.343,30.79c.295.595.624,1.2.979,1.788a.5.5,0,1,0,.857-.514c-.341-.569-.656-1.146-.939-1.718a.5.5,0,0,0-.9.444Zm3.313,5.116a.5.5,0,1,0,.777-.628q-.624-.774-1.184-1.57a.5.5,0,0,0-.818.575C15.816,34.831,16.228,35.376,16.656,35.906ZM7.775,63.386a.5.5,0,0,0-.809.588l1.178,1.62a.5.5,0,0,0,.809-.588Zm11.6-24.476a.5.5,0,0,0,.7-.711q-.709-.7-1.365-1.425a.5.5,0,0,0-.74.672Q18.649,38.189,19.378,38.91ZM10.133,66.626a.5.5,0,0,0-.809.588l1.179,1.62a.5.5,0,0,0,.809-.59Zm57.6-52.2q1,.089,1.983.192l.054,0a.5.5,0,0,0,.052-1q-.993-.1-2-.194a.509.509,0,0,0-.542.454A.5.5,0,0,0,67.731,14.428Zm7.906.971q.992.158,1.962.334a.508.508,0,0,0,.09.008.5.5,0,0,0,.088-.992q-.98-.177-1.981-.337a.5.5,0,0,0-.573.415A.5.5,0,0,0,75.638,15.4Zm-3.943-.555q1,.122,1.975.259a.486.486,0,0,0,.07,0,.5.5,0,0,0,.068-1q-.987-.138-1.992-.261a.5.5,0,1,0-.121.992Zm-7.937-.711q1,.059,1.988.132h.038a.5.5,0,0,0,.036-1q-1-.074-2-.133a.514.514,0,0,0-.528.47A.5.5,0,0,0,63.757,14.133Zm27.208,5.314q.932.384,1.81.794a.5.5,0,0,0,.212.047.5.5,0,0,0,.212-.953q-.9-.421-1.853-.814a.5.5,0,0,0-.381.925ZM55.793,13.878q1,.007,1.993.024h.009a.5.5,0,0,0,.009-1q-1-.018-2-.024h0a.5.5,0,0,0,0,1Zm31.45,4.214q.959.309,1.875.642a.5.5,0,0,0,.342-.939q-.933-.34-1.91-.654a.5.5,0,0,0-.307.952Zm-3.813-1.1q.974.25,1.916.52a.5.5,0,1,0,.275-.961q-.954-.275-1.943-.528a.5.5,0,0,0-.248.969Zm-3.875-.886q.984.2,1.943.418a.487.487,0,0,0,.111.013.5.5,0,0,0,.111-.987q-.97-.222-1.967-.424a.5.5,0,0,0-.2.98ZM16.617,20.4a.5.5,0,0,0,.215-.049q.875-.417,1.8-.8a.5.5,0,0,0-.387-.923q-.951.4-1.848.825a.5.5,0,0,0,.215.951Zm35.175-6.49h.01q1-.019,2-.027a.5.5,0,0,0,0-1h0q-1.006.007-2.009.027a.5.5,0,0,0,.01,1Zm-19.9,1.878a.476.476,0,0,0,.091-.008q.97-.178,1.961-.338a.5.5,0,0,0-.16-.987q-1,.163-1.98.342a.5.5,0,0,0,.089.992ZM24.105,17.6a.493.493,0,0,0,.14-.02q.94-.274,1.915-.527a.5.5,0,1,0-.252-.968q-.989.256-1.942.535a.5.5,0,0,0,.14.98Zm-3.8,1.248a.5.5,0,0,0,.174-.031q.914-.338,1.87-.651a.5.5,0,1,0-.311-.95q-.976.319-1.907.664a.5.5,0,0,0,.174.969ZM27.976,16.6a.5.5,0,0,0,.113-.013q.958-.223,1.941-.425a.5.5,0,0,0,.389-.591.507.507,0,0,0-.59-.389q-1,.206-1.967.43a.5.5,0,0,0,.113.987Zm19.813-2.555h.023c.663-.031,1.326-.058,1.993-.08a.5.5,0,0,0,.483-.516.463.463,0,0,0-.517-.483q-1.006.034-2.007.08a.5.5,0,0,0,.023,1Zm-3.993.245h.039q.99-.075,1.988-.136a.5.5,0,0,0,.469-.53.507.507,0,0,0-.529-.468q-1.006.062-2,.137a.5.5,0,0,0,.037,1Zm-7.954.858a.5.5,0,0,0,.071,0q.979-.139,1.974-.264a.5.5,0,1,0-.123-.992q-1,.125-1.991.266a.5.5,0,0,0,.069,1Zm3.97-.495a.482.482,0,0,0,.054,0q.984-.1,1.983-.2a.5.5,0,0,0-.092-1c-.67.062-1.337.127-2,.2a.5.5,0,0,0,.052,1Zm19.965-.7q1,.032,1.989.077h.022a.5.5,0,0,0,.022-1q-1-.045-2-.077a.512.512,0,0,0-.516.483A.5.5,0,0,0,59.776,13.953ZM82.409,35.512q.957.313,1.881.644a.5.5,0,0,0,.168.029.5.5,0,0,0,.168-.971q-.936-.335-1.9-.653a.5.5,0,0,0-.312.95ZM62.96,31.567q1,.089,1.979.2l.057,0a.5.5,0,0,0,.055-1q-.995-.111-2-.2a.5.5,0,0,0-.09,1Zm-19.915.42a.506.506,0,0,0,.066,0q.981-.129,1.976-.238a.5.5,0,0,0-.109-.994q-1,.11-2,.241a.5.5,0,0,0,.064,1ZM58.993,31.3q1,.046,1.985.113h.035a.5.5,0,0,0,.033-1q-1-.067-2.007-.114a.506.506,0,0,0-.522.477A.5.5,0,0,0,58.993,31.3ZM78.6,34.368q.968.264,1.91.548a.5.5,0,0,0,.287-.958q-.954-.286-1.934-.555a.5.5,0,0,0-.264.965Zm-3.859-.961q.976.219,1.934.458a.52.52,0,0,0,.121.015.5.5,0,0,0,.121-.985q-.968-.241-1.957-.463a.5.5,0,1,0-.219.976ZM55.019,31.2q1,0,1.989.025h.012a.5.5,0,0,0,.012-1q-1-.023-2.011-.025h0a.5.5,0,0,0,0,1Zm15.825,1.418q.984.176,1.954.371a.492.492,0,0,0,.1.01.5.5,0,0,0,.1-.99q-.98-.2-1.976-.375a.5.5,0,0,0-.176.984Zm-3.931-.613q.993.133,1.97.285a.526.526,0,0,0,.078.006.5.5,0,0,0,.076-.994q-.989-.154-1.991-.288a.5.5,0,0,0-.133.991Zm-19.891-.458.044,0q.99-.086,1.986-.152a.5.5,0,0,0,.466-.532.505.505,0,0,0-.532-.466q-1.006.067-2.006.154a.5.5,0,0,0,.042,1ZM35.17,33.375a.519.519,0,0,0,.108-.012q.964-.215,1.946-.41a.5.5,0,0,0-.2-.98q-.993.2-1.968.414a.5.5,0,0,0,.108.988Zm-3.883.958a.488.488,0,0,0,.131-.018q.949-.258,1.925-.5a.5.5,0,0,0,.365-.6.493.493,0,0,0-.605-.366q-.986.243-1.946.5a.5.5,0,0,0,.131.982Zm7.8-1.739a.534.534,0,0,0,.088-.007q.973-.171,1.963-.324a.5.5,0,1,0-.152-.988q-1,.154-1.984.327a.5.5,0,0,0,.086.993ZM23.684,36.813a.494.494,0,0,0,.18-.034q.914-.352,1.862-.69a.5.5,0,0,0-.334-.942q-.962.341-1.888.7a.5.5,0,0,0,.18.966ZM51.018,31.29h.022q.99-.044,1.988-.065a.5.5,0,0,0-.011-1h-.011Q52,30.245,51,30.29a.5.5,0,0,0,.022,1ZM27.453,35.475a.5.5,0,0,0,.154-.024q.935-.3,1.9-.591a.5.5,0,1,0-.285-.958q-.974.29-1.921.6a.5.5,0,0,0,.154.976ZM58.929,61.4a4.042,4.042,0,0,1-8.028,0H49.568a.5.5,0,0,1,0-1H50.9a4.042,4.042,0,0,1,8.028,0h1.333a.5.5,0,0,1,0,1Zm-.949-.5a3.064,3.064,0,1,0-3.064,3.064A3.068,3.068,0,0,0,57.979,60.9Zm-3.064-2.282a2.282,2.282,0,0,0,0,4.564.5.5,0,0,0,0-1A1.282,1.282,0,1,1,56.2,60.9a.5.5,0,0,0,1,0A2.284,2.284,0,0,0,54.915,58.621Zm5.364,10.215q-.99.06-1.986.1a.5.5,0,0,0,.02,1h.02q1.006-.041,2.008-.1a.5.5,0,0,0,.469-.529A.475.475,0,0,0,60.279,68.836ZM48.593,55.712a.5.5,0,0,0-.679.2,7.454,7.454,0,0,0-.746,2,.5.5,0,0,0,.384.595.57.57,0,0,0,.106.011.5.5,0,0,0,.488-.395,6.4,6.4,0,0,1,.645-1.732A.5.5,0,0,0,48.593,55.712ZM56.3,68.989c-.463.008-.922.01-1.389.011l-.6,0h0a.5.5,0,0,0,0,1l.6,0h.142q.633,0,1.266-.011a.5.5,0,0,0,.491-.509A.513.513,0,0,0,56.3,68.989ZM63.494,52.5a.5.5,0,0,0-.5-.5h-2a.5.5,0,0,0,0,1h2A.5.5,0,0,0,63.494,52.5ZM49.547,55.055a.5.5,0,0,0,.354-.147,6.546,6.546,0,0,1,1.48-1.111.5.5,0,0,0-.48-.877A7.5,7.5,0,0,0,49.193,54.2a.5.5,0,0,0,.354.853ZM47.5,66.506a.5.5,0,0,0,.5-.5v-2a.5.5,0,1,0-1,0v2A.5.5,0,0,0,47.5,66.506Zm4.829,2.454q-1-.031-1.987-.083a.491.491,0,0,0-.525.473.5.5,0,0,0,.473.525q1,.053,2.009.085h.016a.5.5,0,0,0,.016-1Zm-3.973-.21L48,68.722v-.716a.5.5,0,0,0-1,0v1.178a.5.5,0,0,0,.457.5l.825.066h.038a.5.5,0,0,0,.036-1ZM47.5,62.506a.5.5,0,0,0,.5-.5v-2a.5.5,0,0,0-1,0v2A.5.5,0,0,0,47.5,62.506Zm16.744,6q-.987.1-1.981.187a.5.5,0,0,0,.041,1l.043,0q1-.083,2-.188a.5.5,0,1,0-.1-.994ZM53.006,53.16a.506.506,0,0,0,.106-.011A6.56,6.56,0,0,1,54.5,53h.494a.5.5,0,1,0,0-1H54.5a7.6,7.6,0,0,0-1.6.171.5.5,0,0,0,.106.989ZM56.994,53h2a.5.5,0,1,0,0-1h-2a.5.5,0,0,0,0,1Zm53-1.5h0a22.78,22.78,0,0,1-4.6,13.289c-7.5,10.344-30.271,41.438-30.5,41.751a.5.5,0,0,1-.4.205.533.533,0,0,1-.117-.014.5.5,0,0,1-.376-.406L68.3,70.99A91.107,91.107,0,0,1,54.915,72a91.223,91.223,0,0,1-13.221-.984l-5.7,35.314a.5.5,0,0,1-.376.406.533.533,0,0,1-.117.014.5.5,0,0,1-.4-.205c-.229-.312-23-31.407-30.5-41.751A22.78,22.78,0,0,1,0,51.505H0a19.759,19.759,0,0,1,1.87-8.554l11-23.843a.481.481,0,0,1,.028-.041.5.5,0,0,1,.042-.06.483.483,0,0,1,.089-.084c.011-.008.018-.021.03-.028C21.549,13.56,36.8,10.5,54.915,10.5c18.031,0,33.226,3.034,41.734,8.325a.493.493,0,0,1,.475.283l11,23.843A19.773,19.773,0,0,1,110,51.5Zm-55.084-40c-17.769,0-32.711,2.954-41.088,8.105-.009.4,0,.806.014,1.208.252-.148.494-.3.756-.443a.5.5,0,1,1,.48.877c-.4.219-.779.449-1.156.679.53,5.174,3.2,10.138,7.8,14.66a.491.491,0,0,1,.57.285.485.485,0,0,1,.022.283c.467.441.95.878,1.454,1.31a85.412,85.412,0,0,1,62.416.045c.436-.372.861-.748,1.269-1.127-.43-.178-.859-.357-1.3-.53a.5.5,0,1,1,.363-.932q.881.344,1.727.7c4.589-4.5,7.273-9.45,7.827-14.6-.493-.3-1-.6-1.532-.891a.5.5,0,1,1,.475-.88c.4.213.766.441,1.143.665q.029-.6.02-1.209C87.828,14.49,72.8,11.5,54.915,11.5ZM85.3,39.24A84.4,84.4,0,0,0,24.644,39.2,70.453,70.453,0,0,0,44.592,50H65.407A70.567,70.567,0,0,0,85.3,39.24ZM43.941,50.826c-8.415-3.148-15.287-6.973-20.416-11.265a.5.5,0,0,1-.41-.3A.472.472,0,0,1,23.1,39.2C17.051,34,13.537,28.141,12.921,21.973c0-.006-.011-.008-.015-.014a.49.49,0,0,1-.033-.449V21.5L12.18,23c.044.6.113,1.213.218,1.814a.5.5,0,0,1-.406.579.522.522,0,0,1-.087.007.5.5,0,0,1-.491-.414c-.015-.085-.017-.172-.031-.258l-8.077,17.5c0,.011,0,.023-.006.034-.119.313-.227.628-.325.947a.479.479,0,0,1-.246.277c-.164.361-.315.725-.455,1.09a.5.5,0,0,1,.235.517,17.967,17.967,0,0,0-.252,1.928.5.5,0,0,1-.5.462H1.719a.489.489,0,0,1-.289-.131A18.247,18.247,0,0,0,1,51.494,21.8,21.8,0,0,0,5.4,64.206c6.753,9.309,25.87,35.427,29.793,40.783Zm-2.088,19.2c1.049.154,2.1.293,3.146.41v-.994c-.518-.057-1.036-.115-1.55-.181a.5.5,0,0,1,.127-.992c.473.061.948.114,1.423.167V59.5A9.456,9.456,0,0,1,47.591,53H46.5a.5.5,0,0,1,0-1h2a.489.489,0,0,1,.15.03A9.508,9.508,0,0,1,50.283,51H44.925l-.174,1.077a.486.486,0,0,1-.145.9ZM68.141,70l-.155-.962c-.546.08-1.093.158-1.642.228a.452.452,0,0,1-.063,0,.5.5,0,0,1-.062-1c.538-.068,1.073-.145,1.608-.222L65.4,53h-.4a.5.5,0,0,1,0-1h.241l-.161-1H54.5A8.51,8.51,0,0,0,46,59.5v11c0,.012-.006.021-.007.033A89.267,89.267,0,0,0,68.141,70ZM109,51.494a18.236,18.236,0,0,0-.43-4.142.488.488,0,0,1-.29.132h-.039a.5.5,0,0,1-.5-.462,17.967,17.967,0,0,0-.252-1.928.5.5,0,0,1,.236-.518c-.141-.365-.291-.728-.455-1.089a.479.479,0,0,1-.248-.278c-.1-.319-.206-.636-.325-.949,0-.012,0-.024-.006-.036l-8.075-17.5c-.014.086-.016.172-.031.258a.5.5,0,0,1-.491.414.522.522,0,0,1-.087-.007.5.5,0,0,1-.406-.579c.1-.6.174-1.211.218-1.814l-.692-1.5c-.878,11.624-12.035,22.206-31.069,29.326L74.8,104.989c3.922-5.356,23.039-31.475,29.793-40.783A21.8,21.8,0,0,0,109,51.494Zm-28.028,41-1.183,1.615a.5.5,0,0,0,.807.592l1.183-1.617a.5.5,0,0,0-.807-.59Zm2.364-3.232-1.183,1.616a.5.5,0,1,0,.807.59l1.183-1.616a.5.5,0,1,0-.807-.59Zm2.8-47.09a.5.5,0,0,0-.7-.1q-.782.6-1.6,1.172a.5.5,0,0,0,.288.908.494.494,0,0,0,.288-.092q.831-.587,1.628-1.192A.5.5,0,0,0,86.133,42.174ZM85.7,86.03l-1.183,1.617a.5.5,0,0,0,.809.59L86.5,86.62a.5.5,0,1,0-.807-.59Zm14.168-19.4-1.179,1.618a.5.5,0,0,0,.809.59l1.179-1.62a.5.5,0,0,0-.809-.588Zm-7.079,9.706-1.182,1.617a.5.5,0,1,0,.807.59l1.182-1.617a.5.5,0,1,0-.807-.59Zm-2.365,3.234-1.18,1.616a.5.5,0,1,0,.807.59l1.182-1.618a.5.5,0,0,0-.809-.588Zm7.086-9.705-1.18,1.618a.5.5,0,1,0,.807.59l1.182-1.618a.5.5,0,0,0-.809-.59Zm-8.32-30.268a.5.5,0,0,0-.706-.037q-.727.656-1.5,1.293a.5.5,0,1,0,.637.771q.788-.65,1.531-1.32A.5.5,0,0,0,89.188,39.594Zm5.96,33.5-1.182,1.617a.5.5,0,0,0,.809.59l1.18-1.615a.5.5,0,1,0-.807-.592Zm9.945-13.181a.5.5,0,0,0-.684.182q-.488.841-1.041,1.671a.5.5,0,1,0,.832.555q.571-.855,1.074-1.724A.5.5,0,0,0,105.093,59.917Zm-2.869,3.469-1.178,1.62a.5.5,0,1,0,.809.588l1.178-1.62a.5.5,0,0,0-.809-.588ZM88.061,82.8,86.88,84.415a.5.5,0,1,0,.807.59l1.181-1.615a.5.5,0,1,0-.807-.59ZM71.118,70.254a.5.5,0,0,0,.414-.572l-.318-1.975a.5.5,0,1,0-.986.158l.318,1.975a.5.5,0,0,0,.492.421A.443.443,0,0,0,71.118,70.254Zm19.151-31.2a.5.5,0,0,0,.352-.145q.729-.721,1.4-1.464a.5.5,0,0,0-.74-.672q-.656.722-1.365,1.425a.5.5,0,0,0,.352.855Zm-20.427,23.3a.5.5,0,0,0,.414-.572l-.318-1.976a.5.5,0,0,0-.986.159l.318,1.975a.5.5,0,0,0,.492.421A.443.443,0,0,0,69.843,62.355Zm.246-10.579a.494.494,0,0,0,.193-.039q.929-.39,1.844-.8a.5.5,0,1,0-.406-.913q-.905.4-1.824.788a.5.5,0,0,0,.193.961Zm3.648-1.625a.5.5,0,0,0,.214-.048q.913-.432,1.809-.884a.5.5,0,0,0-.451-.893q-.883.446-1.785.874a.5.5,0,0,0,.214.952Zm-5.168,4.308a.5.5,0,0,0,.413-.573l-.28-1.736a.536.536,0,0,0-.027-.288.526.526,0,0,0-.665-.283.5.5,0,0,0-.323.55L68,54.044a.5.5,0,0,0,.492.42A.513.513,0,0,0,68.569,54.458Zm.638,3.949a.5.5,0,0,0,.413-.573L69.3,55.86a.5.5,0,1,0-.986.16l.319,1.975a.5.5,0,0,0,.492.42A.454.454,0,0,0,69.207,58.407Zm11.571-12.05a.5.5,0,0,0,.262-.074q.863-.53,1.7-1.08a.5.5,0,1,0-.549-.836q-.825.541-1.676,1.064a.5.5,0,0,0,.262.926Zm26.006,9.94a.5.5,0,0,0-.65.277c-.241.6-.51,1.2-.8,1.792a.5.5,0,0,0,.229.67.51.51,0,0,0,.221.051.5.5,0,0,0,.449-.279c.3-.612.579-1.238.829-1.86A.5.5,0,0,0,106.784,56.3Zm1.112-3.838a.5.5,0,0,0-.6.379c-.141.631-.311,1.267-.506,1.891a.5.5,0,0,0,.955.3c.2-.65.38-1.313.527-1.971A.5.5,0,0,0,107.9,52.459ZM78.809,46.443q-.857.491-1.736.964a.5.5,0,1,0,.473.881q.894-.479,1.762-.978a.5.5,0,0,0-.5-.867ZM96.834,29.206a.5.5,0,0,0,.647-.284c.249-.639.468-1.292.65-1.939a.5.5,0,0,0-.963-.271c-.174.618-.382,1.239-.619,1.848A.5.5,0,0,0,96.834,29.206ZM94.992,32.75a.5.5,0,0,0,.686-.172c.354-.591.684-1.193.979-1.788a.5.5,0,0,0-.9-.444c-.283.572-.6,1.149-.939,1.718A.5.5,0,0,0,94.992,32.75Zm-2.038,3.343a.5.5,0,0,0,.389-.186c.429-.53.84-1.076,1.225-1.623a.5.5,0,0,0-.818-.575q-.558.8-1.184,1.57a.5.5,0,0,0,.389.814ZM75.582,97.9A.5.5,0,0,0,76,97.322l-.319-1.975a.5.5,0,1,0-.986.16l.319,1.975a.5.5,0,0,0,.492.42A.454.454,0,0,0,75.582,97.9ZM70.48,66.3a.5.5,0,0,0,.414-.572l-.318-1.975a.5.5,0,1,0-.986.159l.318,1.974a.5.5,0,0,0,.492.421A.443.443,0,0,0,70.48,66.3ZM74.306,90a.5.5,0,0,0,.414-.572L74.4,87.45a.5.5,0,0,0-.986.159l.318,1.975a.5.5,0,0,0,.492.421A.443.443,0,0,0,74.306,90Zm4.3,5.732-1.183,1.615a.5.5,0,0,0,.807.592l1.183-1.615a.5.5,0,0,0-.807-.592Zm-2.366,3.232-.053.072a.488.488,0,0,0-.445-.151.5.5,0,0,0-.413.573l.133.823a.5.5,0,0,0,.376.406.533.533,0,0,0,.117.014.5.5,0,0,0,.4-.205l.69-.942a.5.5,0,0,0-.809-.59Zm-1.294-5.017a.5.5,0,0,0,.413-.573L75.038,91.4a.5.5,0,0,0-.986.16l.319,1.974a.5.5,0,0,0,.492.42A.454.454,0,0,0,74.944,93.946ZM108.3,48.483a.519.519,0,0,0-.515.485c-.019.645-.07,1.3-.152,1.945a.5.5,0,0,0,.433.559.571.571,0,0,0,.064,0,.5.5,0,0,0,.5-.437c.086-.678.14-1.365.16-2.042A.5.5,0,0,0,108.3,48.483ZM71.757,74.2a.5.5,0,0,0,.413-.573l-.319-1.975a.5.5,0,1,0-.986.16l.319,1.975a.5.5,0,0,0,.492.42A.454.454,0,0,0,71.757,74.2Zm1.273,7.9a.5.5,0,0,0,.414-.572l-.318-1.975a.5.5,0,0,0-.986.158l.318,1.975a.5.5,0,0,0,.492.421A.443.443,0,0,0,73.03,82.1Zm-.636-3.949a.5.5,0,0,0,.413-.573L72.488,75.6a.5.5,0,1,0-.986.16l.319,1.975a.5.5,0,0,0,.492.42A.454.454,0,0,0,72.395,78.151Zm1.273,7.9a.5.5,0,0,0,.414-.572L73.764,83.5a.5.5,0,0,0-.986.158l.318,1.975a.5.5,0,0,0,.492.421A.443.443,0,0,0,73.668,86.049Z"/></g></g></g></svg>