<svg xmlns="http://www.w3.org/2000/svg" width="110" height="110" viewBox="0 0 110 110"><defs><style>.cls-1{fill:#fff;}</style></defs><title>Воротник - Под бабочку</title><g id="Воротник"><g id="Под_бабочку" data-name="Под бабочку"><g id="Цвет-9" data-name="Цвет"><path class="cls-1" d="M55,36.336a92.557,92.557,0,0,1,35.833,7C82.844,51.464,71.29,56.169,55,56.326c-16.29-.157-27.844-4.863-35.833-12.993A92.557,92.557,0,0,1,55,36.336Z"/><path class="cls-1" d="M55,36.416a89.7,89.7,0,0,1,35.889,7.009,33.182,33.182,0,0,0,12.1-22.857C90.7,13.678,73.024,10.991,55,10.991S19.3,13.678,7.015,20.569a31.59,31.59,0,0,0,12.1,22.857A89.7,89.7,0,0,1,55,36.416Z"/><path class="cls-1" d="M55,80.424c21.75.7,47.813-13.062,47.75-34.8l.235-25.056C100.016,42.4,79.875,56.5,55,56.326,30.125,56.5,9.984,42.4,7.015,20.569L7.25,45.625C7.187,67.362,33.25,81.125,55,80.424Z"/><path class="cls-1" d="M15,75.333,47.063,55.813C30.078,53.642,17.917,45.75,11,33.813Z"/><path class="cls-1" d="M95.042,75.333,62.979,55.813c16.985-2.17,29.146-10.062,36.063-22Z"/></g><g id="Контур-9" data-name="Контур"><path d="M59.443,68.765h1.6a.5.5,0,0,0,0-1h-1.6a4.564,4.564,0,0,0-9.08,0h-1.6a.5.5,0,0,0,0,1h1.6a4.565,4.565,0,0,0,9.08,0Zm-8.13-.5a3.59,3.59,0,1,1,3.59,3.59A3.594,3.594,0,0,1,51.313,68.265Z"/><path d="M11.04,21.67a.5.5,0,0,0,.214-.048q.879-.417,1.806-.809a.5.5,0,1,0-.389-.921q-.948.4-1.845.826a.5.5,0,0,0,.214.952Z"/><path d="M14.723,20.109a.493.493,0,0,0,.178-.033q.911-.346,1.865-.671a.5.5,0,1,0-.322-.946q-.97.33-1.9.683a.5.5,0,0,0,.178.967Z"/><path d="M22.359,17.741a.5.5,0,0,0,.122-.015q.954-.24,1.935-.464a.5.5,0,0,0-.223-.975q-.992.226-1.956.469a.5.5,0,0,0,.122.985Z"/><path d="M89.623,18.342q.968.275,1.9.568a.5.5,0,0,0,.3-.954q-.948-.3-1.931-.576a.5.5,0,1,0-.271.962Z"/><path d="M18.507,18.815a.491.491,0,0,0,.146-.022q.939-.289,1.907-.559a.5.5,0,1,0-.268-.963q-.983.273-1.933.565a.5.5,0,0,0,.146.978Z"/><path d="M26.259,16.851a.512.512,0,0,0,.1-.01q.967-.2,1.954-.382a.5.5,0,0,0-.184-.983q-1,.185-1.972.386a.5.5,0,0,0,.1.99Z"/><path d="M97.105,20.967q.924.4,1.8.824a.5.5,0,1,0,.438-.9q-.894-.434-1.839-.842a.5.5,0,1,0-.4.918Z"/><path d="M70.038,14.9q1,.091,1.984.2l.054,0a.5.5,0,0,0,.052-1q-.995-.105-2-.2a.5.5,0,0,0-.092,1Z"/><path d="M77.951,15.859q.992.152,1.967.318a.5.5,0,1,0,.168-.985q-.983-.168-1.982-.321a.5.5,0,0,0-.152.988Z"/><path d="M74,15.32q1,.12,1.977.254a.536.536,0,0,0,.068,0,.5.5,0,0,0,.066-1q-.987-.135-1.992-.256a.516.516,0,0,0-.556.437A.5.5,0,0,0,74,15.32Z"/><path d="M93.41,19.533q.951.33,1.861.684a.5.5,0,0,0,.361-.933q-.927-.359-1.895-.7a.5.5,0,1,0-.328.944Z"/><path d="M54.111,14.229l.792,0c.4,0,.8,0,1.2,0h0a.5.5,0,0,0,0-1c-.4,0-.808,0-1.212,0l-.8,0a.5.5,0,0,0-.5.5A.513.513,0,0,0,54.111,14.229Z"/><path d="M30.192,16.119a.476.476,0,0,0,.083-.007q.976-.163,1.968-.312a.5.5,0,0,0,.42-.569.509.509,0,0,0-.568-.42q-1,.15-1.983.314a.5.5,0,0,0,.081.993Z"/><path d="M62.08,14.373q1,.042,1.992.094H64.1a.5.5,0,0,0,.026-1q-1-.053-2-.094a.5.5,0,1,0-.041,1Z"/><path d="M66.063,14.585q1,.066,1.99.144h.04a.5.5,0,0,0,.038-1q-1-.078-2-.145a.481.481,0,0,0-.532.466A.5.5,0,0,0,66.063,14.585Z"/><path d="M50.1,14.291h.014q1-.027,2-.042a.5.5,0,0,0-.008-1H52.1q-1.006.015-2.01.042a.5.5,0,0,0,.014,1Z"/><path d="M58.1,14.255q1,.018,1.991.047h.015a.5.5,0,0,0,.015-1q-1-.029-2-.047a.5.5,0,1,0-.018,1Z"/><path d="M34.149,15.525a.52.52,0,0,0,.067,0c.653-.087,1.313-.17,1.977-.249a.5.5,0,0,0-.117-.993q-1,.119-1.992.25a.5.5,0,0,0,.065,1Z"/><path d="M81.878,16.531q.986.187,1.952.39a.5.5,0,0,0,.205-.979q-.974-.205-1.972-.394a.5.5,0,1,0-.186.982Z"/><path d="M85.773,17.351q.979.229,1.932.473a.491.491,0,0,0,.124.016.5.5,0,0,0,.124-.984q-.962-.248-1.953-.478a.5.5,0,1,0-.227.974Z"/><path d="M46.1,14.447h.025q.995-.051,1.993-.089a.5.5,0,0,0,.48-.519.487.487,0,0,0-.52-.48q-1,.039-2,.089a.5.5,0,0,0,.025,1Z"/><path d="M42.105,14.7h.039q.992-.075,1.989-.138a.5.5,0,1,0-.062-1q-1,.063-2,.139a.5.5,0,0,0,.037,1Z"/><path d="M38.121,15.057l.053,0q.986-.1,1.984-.191a.5.5,0,0,0-.09-1q-1,.089-2,.192a.5.5,0,0,0,.051,1Z"/><path d="M66.064,33.712q-.993-.107-2-.2a.506.506,0,0,0-.542.454.5.5,0,0,0,.454.542q.995.088,1.979.194l.055,0a.5.5,0,0,0,.053-1Z"/><path d="M54.039,33.114h0q-1.009.009-2.012.037a.5.5,0,0,0,.014,1h.014q.995-.028,1.992-.037a.5.5,0,0,0,0-1Z"/><path d="M74.017,34.872q-.983-.182-1.979-.347a.5.5,0,0,0-.164.986q.987.163,1.962.344a.486.486,0,0,0,.092.008.5.5,0,0,0,.09-.992Z"/><path d="M58.055,33.158q-1-.031-2.008-.042a.479.479,0,0,0-.506.495.5.5,0,0,0,.494.505q1,.011,1.988.042h.016a.5.5,0,0,0,.016-1Z"/><path d="M62.064,33.359q-1-.069-2-.12a.483.483,0,0,0-.524.474.5.5,0,0,0,.474.525q1,.05,1.986.119h.035a.5.5,0,0,0,.033-1Z"/><path d="M70.052,34.217q-.99-.144-1.991-.271a.5.5,0,0,0-.127.992q.992.126,1.974.269a.462.462,0,0,0,.073.005.5.5,0,0,0,.071-.995Z"/><path d="M85.72,37.764q-.951-.3-1.927-.582a.5.5,0,1,0-.277.961q.964.278,1.9.575a.5.5,0,0,0,.3-.954Z"/><path d="M77.954,35.679q-.974-.219-1.965-.423a.5.5,0,0,0-.2.979q.981.2,1.947.419a.491.491,0,0,0,.109.012.5.5,0,0,0,.109-.988Z"/><path d="M89.529,39.058q-.935-.341-1.9-.669a.5.5,0,0,0-.322.947q.954.323,1.876.661a.506.506,0,0,0,.172.03.5.5,0,0,0,.172-.97Z"/><path d="M81.858,36.641q-.964-.259-1.948-.5a.5.5,0,1,0-.238.971q.974.24,1.927.5a.5.5,0,1,0,.26-.966Z"/><path d="M26.257,37.111q-.974.281-1.926.576a.5.5,0,0,0,.148.978.51.51,0,0,0,.148-.022q.94-.292,1.906-.57a.5.5,0,0,0-.277-.961Z"/><path d="M38.021,34.483q-1,.162-1.98.342a.5.5,0,0,0,.089.992.476.476,0,0,0,.091-.008q.974-.177,1.961-.338a.5.5,0,0,0-.16-.987Z"/><path d="M34.067,35.2q-.99.2-1.966.418a.5.5,0,0,0,.108.988.519.519,0,0,0,.108-.012q.967-.215,1.948-.414a.5.5,0,0,0-.2-.98Z"/><path d="M42,33.914q-1,.125-1.993.267a.5.5,0,0,0,.07,1,.513.513,0,0,0,.072,0q.981-.142,1.974-.265A.5.5,0,1,0,42,33.914Z"/><path d="M22.418,38.307q-.964.324-1.9.663a.5.5,0,0,0,.17.97.5.5,0,0,0,.17-.03q.926-.334,1.879-.655a.5.5,0,0,0-.318-.948Z"/><path d="M30.144,36.079q-.984.24-1.948.5a.5.5,0,0,0,.128.983.506.506,0,0,0,.128-.017q.955-.252,1.929-.49a.5.5,0,0,0-.236-.972Z"/><path d="M46,33.494q-1,.086-2,.191a.5.5,0,0,0,.052,1l.054,0q.986-.1,1.983-.189a.5.5,0,0,0-.086-1Z"/><path d="M50.014,33.226Q49,33.274,48,33.341a.5.5,0,0,0,.032,1h.034q.992-.067,1.989-.114a.5.5,0,0,0-.047-1Z"/><path d="M55.4,70.31a.5.5,0,0,0-.5-.5,1.545,1.545,0,1,1,1.545-1.545.5.5,0,0,0,1,0A2.545,2.545,0,1,0,54.9,70.81.5.5,0,0,0,55.4,70.31Z"/><path d="M103.3,20.469a.508.508,0,0,0-.019-.1.943.943,0,0,0-.1-.162.5.5,0,0,0-.073-.061.482.482,0,0,0-.078-.053.494.494,0,0,0-.1-.029.485.485,0,0,0-.071-.022c-.008,0-.016,0-.024,0s-.016-.005-.025-.005a.452.452,0,0,0-.045.009C93.024,13.982,75.592,10.5,54.9,10.5c-20.751,0-38.226,3.5-47.958,9.6l0,0-.024.014c-.015.01-.024.025-.038.036a.493.493,0,0,0-.065.055c-.01.011-.02.021-.029.033a.46.46,0,0,0-.034.06.483.483,0,0,0-.035.069c-.005.014-.01.027-.014.041a.893.893,0,0,1-.02.129V45.88a28.124,28.124,0,0,0,6.7,17.81L14.5,75.381a.5.5,0,0,0,.5.452.507.507,0,0,0,.26-.072l6.888-4.183C31.106,77.6,42.754,80.924,55,80.924s23.894-3.32,32.853-9.346l6.888,4.183a.507.507,0,0,0,.26.072.5.5,0,0,0,.5-.452l1.122-11.69a28.129,28.129,0,0,0,6.7-17.811V20.544A.481.481,0,0,0,103.3,20.469Zm-1.034.446c-.054.492-.112.981-.182,1.461-.315-.186-.62-.376-.947-.556a.5.5,0,1,0-.48.877c.433.237.841.486,1.25.734a32.492,32.492,0,0,1-8.526,17.179.479.479,0,0,0-.108-.074q-.914-.389-1.862-.763a.5.5,0,0,0-.367.931c.549.216,1.086.438,1.617.662q-.722.735-1.5,1.455a.487.487,0,0,0-.1-.07,97.991,97.991,0,0,0-72.3,0q-.767-.712-1.478-1.439.845-.355,1.718-.7a.5.5,0,1,0-.363-.932q-.951.371-1.865.756a.488.488,0,0,0-.183.14A32.5,32.5,0,0,1,8.073,23.321c.461-.275.928-.548,1.417-.81a.5.5,0,0,0-.473-.882c-.386.207-.748.424-1.117.639q-.1-.72-.182-1.458C17.343,14.893,34.5,11.5,54.9,11.5,75.427,11.5,92.677,14.932,102.268,20.915ZM55,55.826c-12.015,0-23.514-3.363-31.548-9.227-1.391-1.015-2.672-2.051-3.868-3.108a97.04,97.04,0,0,1,70.771.054c-1.178,1.038-2.44,2.056-3.808,3.054C78.514,52.463,67.015,55.826,55,55.826ZM7.918,49.09a.5.5,0,0,0,.3.1.488.488,0,0,0,.131-.018.5.5,0,0,0,.352-.614c-.173-.637-.324-1.28-.45-1.912a.493.493,0,0,0-.546-.393c0-.124-.017-.247-.017-.372V45.2a.5.5,0,0,0,.242-.5c-.084-.644-.147-1.3-.187-1.956a.49.49,0,0,0-.055-.2V31.512c.151.517.3,1.031.477,1.531a.5.5,0,0,0,.945-.326q-.318-.921-.586-1.881a.5.5,0,0,0-.616-.347.485.485,0,0,0-.22.141V29.51a.5.5,0,0,0,.362-.588c-.137-.621-.256-1.255-.362-1.9v-.653a33.139,33.139,0,0,0,2.831,7.463l.389,4.056c-.01.005-.021,0-.031.011a.5.5,0,0,0-.182.683c.109.187.221.373.333.557L12.79,57.549c-.014-.021-.029-.041-.043-.062a.5.5,0,1,0-.838.545c.341.525.7,1.042,1.076,1.553L13.2,61.8A27.44,27.44,0,0,1,7.918,49.09Zm3.8-13.188a34.1,34.1,0,0,0,2.155,3.056.5.5,0,0,0-.279.493l.191,1.991a.5.5,0,0,0,.5.452l.049,0a.5.5,0,0,0,.45-.545L14.642,39.9a46.713,46.713,0,0,0,8.22,7.507,49.715,49.715,0,0,0,18.9,8.045l-.744.452a.5.5,0,0,0,.52.855l1.681-1.022q1.2.224,2.416.405L24.2,69.161l-.005,0-2.283,1.386a.468.468,0,0,0-.048.029l-6.441,3.912ZM24.474,70.165c.24.153.48.306.724.455a.5.5,0,0,0,.521-.854c-.1-.06-.193-.122-.29-.182L44.022,58.292q.9.137,1.811.255a.476.476,0,0,0,.064,0,.5.5,0,0,0,.063-1c-.2-.025-.391-.056-.588-.083l1.721-1.045a.485.485,0,0,0,.09-.083c1.027.125,2.06.232,3.1.308a10.809,10.809,0,0,0-2.076,1.15l-.277-.027a.512.512,0,0,0-.547.449.5.5,0,0,0,.021.2A10.8,10.8,0,0,0,43.6,66.654v9.9c-.453-.087-.908-.172-1.356-.27a.5.5,0,1,0-.213.977c.519.114,1.044.214,1.569.313v1.355A54.806,54.806,0,0,1,23.1,71ZM55,79.924a65.318,65.318,0,0,1-10.4-.835V66.654a9.839,9.839,0,0,1,9.827-9.828.459.459,0,0,0,.046-.009c.176,0,.352.009.528.009a64.79,64.79,0,0,0,7.818-.481.485.485,0,0,0,.09.083L84.564,69.58c-.331.206-.658.415-1,.614a.5.5,0,0,0,.506.863c.493-.29.974-.591,1.452-.894L86.9,71C78.161,76.755,66.872,79.924,55,79.924Zm39.578-5.432L64.364,56.142q1.217-.178,2.413-.4l1.68,1.021a.5.5,0,1,0,.52-.855l-.743-.452a49.715,49.715,0,0,0,18.9-8.045,46.726,46.726,0,0,0,8.216-7.5l-.139,1.441a.5.5,0,0,0,.45.545.409.409,0,0,0,.049,0,.5.5,0,0,0,.5-.452l.191-1.991a.5.5,0,0,0-.276-.492A34.1,34.1,0,0,0,98.283,35.9Zm2.57-16.3a.5.5,0,0,0,.836,0q.561-.85,1.068-1.724a.5.5,0,1,0-.865-.5c-.309.533-.637,1.058-.977,1.577L98.978,39.13c.33-.542.647-1.093.948-1.659a.5.5,0,0,0-.727-.638l.288-3a33.139,33.139,0,0,0,2.831-7.463v.655c-.039.233-.079.465-.121.7a.493.493,0,0,0,.121.413v1.144a.491.491,0,0,0-.526.372q-.233.97-.517,1.9a.5.5,0,0,0,.957.291c.031-.1.055-.212.086-.316v9.454c0,.657-.022,1.318-.066,1.965a.485.485,0,0,0,.066.266v1.323a.489.489,0,0,0-.268.366c-.089.644-.2,1.3-.333,1.938a.5.5,0,0,0,.388.591.522.522,0,0,0,.1.01c.013,0,.025-.006.038-.007-.025.394-.053.787-.1,1.18a.492.492,0,0,0-.281-.212.5.5,0,0,0-.615.347c-.175.628-.374,1.259-.591,1.875a.5.5,0,0,0,.306.638.507.507,0,0,0,.166.028.5.5,0,0,0,.472-.334c.143-.406.263-.823.39-1.237A27.606,27.606,0,0,1,96.8,61.8Z"/><path d="M9.727,36.791a.5.5,0,0,0,.9-.444q-.434-.874-.816-1.79a.5.5,0,0,0-.924.385Q9.278,35.888,9.727,36.791Z"/><path d="M9.975,52.275q-.379-.909-.7-1.838a.5.5,0,1,0-.945.324c.217.633.46,1.272.723,1.9a.5.5,0,1,0,.922-.386Z"/><path d="M10.791,54.067a.5.5,0,0,0-.9.443q.45.907.955,1.792a.5.5,0,1,0,.867-.5Q11.228,54.948,10.791,54.067Z"/><path d="M32.783,73.344q-.921-.381-1.817-.792a.5.5,0,0,0-.416.91q.914.417,1.853.806a.487.487,0,0,0,.19.038.5.5,0,0,0,.19-.962Z"/><path d="M29.181,71.694q-.889-.45-1.751-.929a.5.5,0,1,0-.486.873q.88.491,1.786.948a.5.5,0,1,0,.451-.893Z"/><path d="M40.311,75.827q-.967-.245-1.914-.521a.5.5,0,1,0-.279.961q.965.28,1.949.528a.481.481,0,0,0,.122.016.5.5,0,0,0,.122-.984Z"/><path d="M36.5,74.722q-.946-.312-1.871-.655a.5.5,0,1,0-.348.938q.942.349,1.906.667a.485.485,0,0,0,.156.025.5.5,0,0,0,.156-.975Z"/><path d="M100.153,35.9a.5.5,0,0,0,.66-.252q.412-.919.769-1.88a.5.5,0,0,0-.937-.349q-.346.93-.743,1.82A.5.5,0,0,0,100.153,35.9Z"/><path d="M66.951,76.448q-.967.195-1.951.359a.5.5,0,0,0,.081.993.476.476,0,0,0,.083-.007q1-.167,1.984-.365a.5.5,0,0,0-.2-.98Z"/><path d="M70.81,75.532q-.951.262-1.921.492a.5.5,0,0,0,.116.986A.478.478,0,0,0,69.121,77q.986-.234,1.954-.5a.5.5,0,1,0-.266-.965Z"/><path d="M81.839,71.162q-.869.464-1.766.9a.5.5,0,0,0,.438.9q.914-.444,1.8-.917a.5.5,0,1,0-.471-.883Z"/><path d="M64.073,57.489q-.979.13-1.972.233a.5.5,0,0,0,.051,1l.053,0q1.008-.1,2-.237a.5.5,0,1,0-.133-.99Z"/><path d="M78.276,72.892q-.9.4-1.828.761a.5.5,0,0,0,.365.932q.945-.372,1.865-.776a.5.5,0,0,0-.4-.916Z"/><path d="M74.592,74.348q-.93.328-1.881.626a.5.5,0,0,0,.149.978.5.5,0,0,0,.149-.022q.968-.3,1.914-.638a.5.5,0,0,0-.332-.943Z"/><path d="M51.163,77.511q-.995-.063-1.979-.156a.519.519,0,0,0-.545.451.5.5,0,0,0,.451.545q1,.094,2.01.158h.031a.5.5,0,0,0,.031-1Z"/><path d="M46.379,66.79H46.4a.5.5,0,0,0,.5-.478,7.585,7.585,0,0,1,.313-1.843.5.5,0,1,0-.957-.289,8.537,8.537,0,0,0-.354,2.087A.5.5,0,0,0,46.379,66.79Z"/><path d="M46.394,70.791a.5.5,0,0,0,.5-.5v-2a.5.5,0,0,0-1,0v2A.5.5,0,0,0,46.394,70.791Z"/><path d="M54.166,59.126h.017l.243,0q.879,0,1.753-.021a.5.5,0,0,0,.488-.512.49.49,0,0,0-.512-.488c-.575.014-1.151.021-1.735.021l-.271,0a.5.5,0,0,0,.017,1Z"/><path d="M50.364,60.223a.5.5,0,0,0,.254-.069,7.453,7.453,0,0,1,1.717-.738.5.5,0,1,0-.275-.961,8.452,8.452,0,0,0-1.949.838.5.5,0,0,0,.254.931Z"/><path d="M46.395,71.791a.5.5,0,0,0-.5.5v2a.5.5,0,0,0,1,0v-2A.5.5,0,0,0,46.395,71.791Z"/><path d="M49.139,60.585a.5.5,0,0,0-.707,0,8.632,8.632,0,0,0-1.312,1.662.5.5,0,1,0,.855.518,7.633,7.633,0,0,1,1.159-1.469A.5.5,0,0,0,49.139,60.585Z"/><path d="M47.214,77.135l-.319-.042v-.8a.5.5,0,0,0-1,0v1.237a.5.5,0,0,0,.429.5c.254.036.509.071.764.1a.476.476,0,0,0,.064,0,.5.5,0,0,0,.063-1Z"/><path d="M59.094,77.493q-.986.066-1.982.1a.5.5,0,0,0,.018,1h.018q1.012-.035,2.014-.1a.5.5,0,0,0,.466-.532A.486.486,0,0,0,59.094,77.493Z"/><path d="M55.13,77.629H55q-.932,0-1.855-.028a.5.5,0,1,0-.029,1q.939.028,1.885.028h.13a.5.5,0,0,0,0-1Z"/><path d="M63.041,77.1q-.979.13-1.971.229a.5.5,0,0,0,.049,1l.051,0q1.008-.1,2-.231a.5.5,0,0,0-.131-.992Z"/><path d="M58.166,59.027h.024q1.011-.05,2.011-.128a.5.5,0,0,0-.078-1q-.984.076-1.981.126a.5.5,0,0,0,.024,1Z"/><path d="M100.605,52.191a.5.5,0,0,0-.656.264q-.385.9-.827,1.786a.5.5,0,0,0,.895.447q.456-.909.853-1.842A.5.5,0,0,0,100.605,52.191Z"/><path d="M27.6,65.137a.5.5,0,0,0,.26-.072l1.709-1.038a.5.5,0,0,0-.52-.855l-1.709,1.038a.5.5,0,0,0,.26.928Z"/><path d="M31.021,63.061a.5.5,0,0,0,.26-.072L32.99,61.95a.5.5,0,1,0-.52-.855l-1.709,1.038a.5.5,0,0,0,.26.928Z"/><path d="M15.859,57.819a.5.5,0,0,0,.45-.546l-.19-1.991a.5.5,0,0,0-1,.1l.19,1.991a.5.5,0,0,0,.5.452Z"/><path d="M14.713,45.874a.5.5,0,0,0,.45-.545l-.191-1.991a.5.5,0,0,0-1,.1l.191,1.991a.5.5,0,0,0,.5.452A.409.409,0,0,0,14.713,45.874Z"/><path d="M15.478,53.837a.5.5,0,0,0,.45-.545L15.736,51.3a.5.5,0,0,0-1,.1l.191,1.991a.5.5,0,0,0,.5.452Z"/><path d="M15.095,49.855a.5.5,0,0,0,.45-.545l-.19-1.991a.5.5,0,0,0-1,.1l.19,1.991a.5.5,0,0,0,.5.452A.409.409,0,0,0,15.095,49.855Z"/><path d="M24.184,67.213a.5.5,0,0,0,.26-.072L26.152,66.1a.5.5,0,0,0-.52-.855l-1.709,1.038a.5.5,0,0,0,.26.928Z"/><path d="M22.734,68.179a.5.5,0,1,0-.52-.855L20.5,68.361a.5.5,0,0,0,.52.855Z"/><path d="M16.242,61.8a.5.5,0,0,0,.45-.546l-.191-1.99a.517.517,0,0,0-.546-.45.5.5,0,0,0-.45.546l.191,1.99a.5.5,0,0,0,.5.452Z"/><path d="M37.859,58.907a.5.5,0,0,0,.26-.072L39.828,57.8a.5.5,0,1,0-.52-.855L37.6,57.979a.5.5,0,0,0,.26.928Z"/><path d="M34.44,60.984a.494.494,0,0,0,.26-.073l1.709-1.039a.5.5,0,1,0-.52-.854l-1.709,1.039a.5.5,0,0,0,.26.927Z"/><path d="M16.624,65.782a.5.5,0,0,0,.45-.546l-.191-1.99a.514.514,0,0,0-.546-.45.5.5,0,0,0-.45.546l.191,1.99a.5.5,0,0,0,.5.452Z"/><path d="M17.007,69.765a.5.5,0,0,0,.45-.546l-.191-1.991a.519.519,0,0,0-.546-.45.5.5,0,0,0-.45.546l.191,1.991a.5.5,0,0,0,.5.452Z"/><path d="M18.8,69.4l-1.71,1.038a.5.5,0,0,0,.52.855l1.71-1.038a.5.5,0,0,0-.52-.855Z"/><path d="M93.276,66.777a.519.519,0,0,0-.546.45l-.191,1.991a.5.5,0,0,0,.45.546l.049,0a.5.5,0,0,0,.5-.452l.191-1.991A.5.5,0,0,0,93.276,66.777Z"/><path d="M82.653,64.209l-1.709-1.038a.5.5,0,0,0-.52.855l1.709,1.038a.5.5,0,1,0,.52-.855Z"/><path d="M89.491,68.361l-1.71-1.038a.5.5,0,0,0-.52.855l1.71,1.038a.5.5,0,1,0,.52-.855Z"/><path d="M86.072,66.285l-1.709-1.038a.5.5,0,0,0-.52.855l1.709,1.038a.5.5,0,1,0,.52-.855Z"/><path d="M79.234,62.133l-1.709-1.038a.5.5,0,1,0-.52.855l1.709,1.038a.5.5,0,1,0,.52-.855Z"/><path d="M95.57,42.888a.5.5,0,0,0-.546.45l-.191,1.991a.5.5,0,0,0,.45.545.409.409,0,0,0,.049,0,.5.5,0,0,0,.5-.452l.191-1.991A.5.5,0,0,0,95.57,42.888Z"/><path d="M72.4,57.979l-1.709-1.038a.5.5,0,1,0-.52.855l1.709,1.038a.5.5,0,0,0,.52-.855Z"/><path d="M75.815,60.058l-1.709-1.039a.5.5,0,0,0-.52.854L75.3,60.911a.494.494,0,0,0,.26.073.5.5,0,0,0,.26-.927Z"/><path d="M92.91,70.438,91.2,69.4a.5.5,0,0,0-.52.855l1.71,1.038a.5.5,0,0,0,.52-.855Z"/><path d="M94.806,50.851a.5.5,0,0,0-.546.45l-.191,1.991a.5.5,0,0,0,.45.545l.049,0a.5.5,0,0,0,.5-.452l.191-1.991A.5.5,0,0,0,94.806,50.851Z"/><path d="M95.188,46.87a.5.5,0,0,0-.546.45l-.19,1.991a.5.5,0,0,0,.45.545.409.409,0,0,0,.049,0,.5.5,0,0,0,.5-.452l.19-1.991A.5.5,0,0,0,95.188,46.87Z"/><path d="M94.423,54.833a.5.5,0,0,0-.546.45l-.19,1.991a.5.5,0,0,0,.45.546l.049,0a.5.5,0,0,0,.5-.452l.19-1.991A.5.5,0,0,0,94.423,54.833Z"/><path d="M93.659,62.8a.515.515,0,0,0-.546.45l-.191,1.99a.5.5,0,0,0,.45.546l.049,0a.5.5,0,0,0,.5-.452l.191-1.99A.5.5,0,0,0,93.659,62.8Z"/><path d="M94.041,58.814a.518.518,0,0,0-.546.45l-.191,1.99a.5.5,0,0,0,.45.546l.049,0a.5.5,0,0,0,.5-.452l.191-1.99A.5.5,0,0,0,94.041,58.814Z"/></g></g></g></svg>