<svg xmlns="http://www.w3.org/2000/svg" width="110" height="110" viewBox="0 0 110 110"><defs><style>.cls-1{fill:#fff;}</style></defs><title>Воротник - Стандартный</title><g id="Воротник"><g id="Стандартный"><g id="Цвет"><path class="cls-1" d="M55,33.08a77.9,77.9,0,0,1,31.167,6.087c7.317-5.629,10.413-12.351,10.5-19.849C86,13.333,70.652,11,55,11s-31,2.333-41.671,8.317c.092,7.5,3.188,14.22,10.5,19.849A77.9,77.9,0,0,1,55,33.08Z"/><path class="cls-1" d="M75.17,69.2,65.5,50.5c8.9-3.068,15.486-6.76,20.667-11.333A77.113,77.113,0,0,0,55,33.08a77.113,77.113,0,0,0-31.167,6.087C29.014,43.74,35.6,47.432,44.5,50.5L35.027,69.282A88.587,88.587,0,0,0,75.17,69.2Z"/><path class="cls-1" d="M.5,51.668a19.593,19.593,0,0,1,1.821-8.507l11-23.843C12.911,30.906,22.9,42.518,44.5,50.5L20.5,97S7.667,71.167,3,62A22.748,22.748,0,0,1,.5,51.668Z"/><path class="cls-1" d="M109.5,51.668a19.593,19.593,0,0,0-1.821-8.507l-11-23.843C97.091,30.906,87.1,42.518,65.5,50.5L89.5,97S102.335,71.167,107,62A22.748,22.748,0,0,0,109.5,51.668Z"/></g><g id="Контур"><path d="M24.793,84.539l-.917,1.777a.5.5,0,1,1-.889-.459L23.9,84.08a.5.5,0,0,1,.889.459Zm1.62-4.229a.5.5,0,0,0-.674.215L24.822,82.3a.5.5,0,0,0,.889.459l.917-1.777A.5.5,0,0,0,26.413,80.311Zm1.834-3.555a.5.5,0,0,0-.674.215l-.917,1.777a.5.5,0,0,0,.889.459l.917-1.777A.5.5,0,0,0,28.248,76.756ZM41.09,51.875a.5.5,0,0,0-.674.215L39.5,53.867a.5.5,0,0,0,.889.459l.917-1.777A.5.5,0,0,0,41.09,51.875ZM18.443,86.363a.5.5,0,1,0-.895.445l.86,1.726.481-.156.414-.29ZM30.083,73.2a.5.5,0,0,0-.674.215l-.917,1.777a.5.5,0,0,0,.889.459l.917-1.777A.5.5,0,0,0,30.083,73.2ZM22.744,87.42a.5.5,0,0,0-.674.215l-.917,1.777a.5.5,0,0,0,.889.459l.917-1.777A.5.5,0,0,0,22.744,87.42ZM20.91,90.974a.506.506,0,0,0-.195-.055l-.483-.972a.5.5,0,0,0-.9.445l.756,1.52a.5.5,0,0,0,.444.277h0a.5.5,0,0,0,.444-.271l.14-.271A.5.5,0,0,0,20.91,90.974ZM39.255,55.429a.5.5,0,0,0-.674.215l-.917,1.777a.5.5,0,0,0,.215.674.5.5,0,0,0,.229.056.5.5,0,0,0,.445-.271L39.47,56.1A.5.5,0,0,0,39.255,55.429ZM31.917,69.647a.5.5,0,0,0-.674.215l-.917,1.777a.5.5,0,0,0,.889.459l.917-1.777A.5.5,0,0,0,31.917,69.647Zm5.5-10.664a.5.5,0,0,0-.674.215l-.917,1.777a.5.5,0,0,0,.889.459l.917-1.777A.5.5,0,0,0,37.42,58.983ZM17.549,84.571l-.9-1.791a.5.5,0,0,0-.895.447l.9,1.791a.5.5,0,0,0,.448.276.492.492,0,0,0,.223-.053A.5.5,0,0,0,17.549,84.571Zm16.2-18.479a.5.5,0,0,0-.674.215l-.917,1.777a.5.5,0,0,0,.889.459l.917-1.777A.5.5,0,0,0,33.751,66.093Zm1.834-3.555a.5.5,0,0,0-.674.215L34,64.53a.5.5,0,0,0,.889.459l.917-1.777A.5.5,0,0,0,35.586,62.538ZM16.444,36.087a.5.5,0,1,0,.772-.635c-.425-.518-.829-1.042-1.2-1.559a.5.5,0,1,0-.813.581C15.587,35.01,16,35.553,16.444,36.087ZM19.2,39.061a.5.5,0,0,0,.7-.719q-.719-.694-1.382-1.408a.5.5,0,0,0-.732.681Q18.462,38.348,19.2,39.061Zm18.61,11.86q.918.406,1.847.793a.5.5,0,0,0,.385-.923q-.918-.383-1.828-.785a.5.5,0,1,0-.4.915ZM13.1,30.984c.293.595.623,1.2.98,1.791a.5.5,0,1,0,.856-.517c-.343-.569-.659-1.146-.939-1.715a.5.5,0,0,0-.9.441ZM25.479,44.139a.5.5,0,0,0,.567-.823q-.823-.567-1.613-1.153a.5.5,0,1,0-.6.8Q24.641,43.562,25.479,44.139Zm1.68,1.116q.842.541,1.712,1.063a.5.5,0,1,0,.515-.857q-.856-.514-1.687-1.047a.5.5,0,1,0-.54.842Zm7.014,3.958q.9.446,1.809.875a.5.5,0,1,0,.425-.905q-.9-.423-1.788-.865a.5.5,0,0,0-.445.9ZM15.759,80.99l-.9-1.79a.5.5,0,1,0-.895.447l.9,1.79a.5.5,0,0,0,.448.276.494.494,0,0,0,.223-.053A.5.5,0,0,0,15.759,80.99ZM12.288,29.107a.5.5,0,0,0,.936-.353,18.573,18.573,0,0,1-.591-1.853.5.5,0,0,0-.968.253A19.476,19.476,0,0,0,12.288,29.107ZM30.613,47.329q.873.491,1.768.965a.5.5,0,0,0,.233.058.5.5,0,0,0,.234-.942q-.882-.467-1.744-.952a.5.5,0,1,0-.491.871ZM10.382,70.247l-.9-1.791a.5.5,0,1,0-.894.449l.9,1.789a.5.5,0,1,0,.895-.447ZM8.587,66.666l-.9-1.79a.5.5,0,1,0-.894.449l.9,1.79a.5.5,0,1,0,.894-.449Zm3.588,7.162-.9-1.79a.5.5,0,1,0-.894.449l.9,1.788a.5.5,0,1,0,.895-.447Zm1.792,3.581-.9-1.791a.5.5,0,0,0-.895.447l.9,1.791a.5.5,0,0,0,.448.276.494.494,0,0,0,.223-.053A.5.5,0,0,0,13.968,77.409ZM3.62,55.842c-.2-.632-.371-1.269-.518-1.9a.5.5,0,0,0-.974.229c.153.648.333,1.309.537,1.962a.5.5,0,0,0,.478.352.491.491,0,0,0,.148-.022A.5.5,0,0,0,3.62,55.842ZM2.306,52.594a.5.5,0,0,0,.416-.572c-.1-.652-.179-1.306-.227-1.945a.492.492,0,0,0-.536-.461.5.5,0,0,0-.461.536c.049.666.129,1.348.236,2.027a.5.5,0,0,0,.493.422A.478.478,0,0,0,2.306,52.594Zm2.719,6.924q-.4-.891-.761-1.817a.5.5,0,0,0-.934.359q.366.954.785,1.872a.5.5,0,0,0,.91-.414Zm1.766,3.568-.9-1.789A.5.5,0,0,0,5,61.746l.9,1.789a.5.5,0,1,0,.894-.449ZM22.239,41.731a.5.5,0,0,0,.627-.779q-.779-.627-1.515-1.273a.5.5,0,1,0-.66.752Q21.442,41.09,22.239,41.731ZM47.79,14.041h.023q.992-.046,1.992-.08a.5.5,0,0,0,.483-.516.516.516,0,0,0-.516-.483q-1.006.034-2,.08a.5.5,0,0,0,.022,1Zm-7.978.608.054,0q.985-.1,1.983-.2a.5.5,0,0,0-.091-1q-1.006.092-2,.2a.5.5,0,0,0,.053,1Zm11.979-.742h.01q1-.019,2-.027a.5.5,0,0,0,0-1h0q-1.006.007-2.009.027a.5.5,0,0,0,.01,1ZM35.842,15.144a.5.5,0,0,0,.071,0q.979-.139,1.975-.264a.5.5,0,0,0-.124-.992q-1,.125-1.991.266a.5.5,0,0,0,.07,1Zm-3.949.642a.483.483,0,0,0,.091-.008q.97-.178,1.961-.338a.5.5,0,1,0-.16-.987q-1,.163-1.981.342a.5.5,0,0,0,.09.992Zm23.9-1.907q1,.007,1.993.024H57.8a.5.5,0,0,0,.009-1q-1-.018-2-.024h0a.5.5,0,0,0,0,1ZM20.305,18.851a.491.491,0,0,0,.173-.031q.913-.338,1.871-.651a.5.5,0,0,0-.312-.95q-.975.319-1.906.664a.5.5,0,0,0,.173.969ZM24.1,17.6a.5.5,0,0,0,.14-.02q.94-.274,1.914-.527a.5.5,0,0,0-.252-.968q-.987.256-1.942.535a.5.5,0,0,0,.14.98ZM27.976,16.6a.5.5,0,0,0,.113-.013q.958-.223,1.942-.425a.5.5,0,1,0-.2-.979q-1,.206-1.966.43a.5.5,0,0,0,.112.987Zm47.662-1.2q.991.158,1.962.334a.506.506,0,0,0,.089.008.5.5,0,0,0,.088-.992q-.981-.177-1.982-.337a.5.5,0,1,0-.157.987Zm7.791,1.595q.975.25,1.917.52a.5.5,0,0,0,.138.02.5.5,0,0,0,.138-.98q-.956-.275-1.945-.528a.5.5,0,0,0-.248.969Zm3.814,1.1q.959.309,1.875.642a.5.5,0,0,0,.342-.939q-.934-.34-1.91-.654a.5.5,0,0,0-.307.952Zm3.721,1.355q.932.384,1.809.794a.5.5,0,0,0,.425-.905q-.9-.421-1.853-.814a.5.5,0,1,0-.381.925Zm-11.41-3.34q.984.2,1.943.418a.488.488,0,0,0,.112.013.5.5,0,0,0,.111-.987q-.97-.222-1.968-.424a.5.5,0,0,0-.2.98Zm-11.822-1.68q1,.089,1.983.192l.053,0a.5.5,0,0,0,.052-1q-.992-.1-2-.194a.5.5,0,1,0-.089,1Zm-3.975-.294q1,.059,1.989.132h.037a.5.5,0,0,0,.036-1q-1-.074-2-.133a.5.5,0,1,0-.059,1Zm-3.979-.181q1,.032,1.989.077h.023a.5.5,0,0,0,.022-1q-1-.045-2-.077a.525.525,0,0,0-.516.483A.5.5,0,0,0,59.777,13.953ZM16.617,20.4a.5.5,0,0,0,.215-.049q.874-.417,1.8-.8a.5.5,0,1,0-.386-.923q-.953.4-1.849.825a.5.5,0,0,0,.216.951Zm55.077-5.552q1,.122,1.975.259a.484.484,0,0,0,.07,0,.5.5,0,0,0,.069-1q-.988-.138-1.992-.261a.492.492,0,0,0-.557.436A.5.5,0,0,0,71.694,14.845Zm-27.9-.559h.039q.989-.075,1.988-.136a.5.5,0,1,0-.062-1q-1.006.062-2,.137a.5.5,0,0,0,.038,1ZM66.914,32.009q.99.133,1.968.285a.529.529,0,0,0,.078.006.5.5,0,0,0,.077-.994q-.989-.154-1.99-.288a.5.5,0,1,0-.133.991ZM35.17,33.375a.52.52,0,0,0,.109-.012q.964-.215,1.946-.41a.5.5,0,0,0-.2-.98q-.993.2-1.968.414a.5.5,0,0,0,.108.988Zm35.674-.754q.985.176,1.954.371a.491.491,0,0,0,.1.01.5.5,0,0,0,.1-.99q-.979-.2-1.976-.375a.493.493,0,0,0-.58.4A.5.5,0,0,0,70.845,32.622Zm-27.8-.635a.509.509,0,0,0,.066,0q.98-.129,1.974-.238a.5.5,0,1,0-.108-.994q-1,.11-2,.241a.5.5,0,0,0,.065,1Zm19.914-.42q.994.089,1.978.2l.056,0a.5.5,0,0,0,.055-1q-.995-.111-2-.2a.5.5,0,1,0-.089,1ZM55.019,31.2q1,0,1.989.025h.012a.5.5,0,0,0,.012-1q-1-.023-2.01-.025h0a.5.5,0,0,0,0,1ZM39.094,32.595a.526.526,0,0,0,.087-.007q.973-.171,1.963-.324a.5.5,0,1,0-.152-.988q-1,.154-1.983.327a.5.5,0,0,0,.086.993Zm-11.641,2.88a.5.5,0,0,0,.154-.024q.935-.3,1.9-.591a.5.5,0,1,0-.285-.958q-.975.29-1.922.6a.5.5,0,0,0,.154.976ZM58.995,31.3q1,.046,1.985.113h.034a.5.5,0,0,0,.033-1q-1-.067-2.006-.114a.5.5,0,0,0-.046,1ZM82.41,35.512q.955.313,1.879.644a.5.5,0,1,0,.337-.941q-.937-.335-1.9-.653a.5.5,0,1,0-.312.95ZM51.018,31.29h.022q.99-.044,1.989-.065a.5.5,0,0,0-.011-1h-.011Q52,30.245,51,30.29a.5.5,0,0,0,.021,1ZM23.683,36.813a.5.5,0,0,0,.18-.034q.914-.352,1.863-.69a.5.5,0,1,0-.335-.942q-.961.341-1.889.7a.5.5,0,0,0,.18.966Zm23.341-5.262.044,0q.988-.086,1.984-.152a.5.5,0,0,0-.065-1q-1.007.067-2.006.154a.5.5,0,0,0,.043,1Zm27.72,1.856q.979.219,1.936.458a.516.516,0,0,0,.121.015.5.5,0,0,0,.12-.985q-.968-.241-1.958-.463a.5.5,0,1,0-.219.976Zm3.859.961q.968.264,1.911.548a.512.512,0,0,0,.144.021.5.5,0,0,0,.144-.979q-.954-.286-1.935-.555a.5.5,0,0,0-.264.965Zm-47.317-.035a.489.489,0,0,0,.131-.018q.951-.258,1.925-.5a.5.5,0,1,0-.239-.971q-.985.243-1.947.5a.5.5,0,0,0,.13.982ZM54.915,64.968A4.056,4.056,0,0,1,50.9,61.4H49.568a.5.5,0,0,1,0-1H50.9a4.042,4.042,0,0,1,8.028,0h1.333a.5.5,0,0,1,0,1H58.929A4.056,4.056,0,0,1,54.915,64.968ZM57.979,60.9a3.064,3.064,0,1,0-3.064,3.064A3.068,3.068,0,0,0,57.979,60.9Zm-3.064-2.282a2.282,2.282,0,0,0,0,4.564.5.5,0,0,0,0-1A1.282,1.282,0,1,1,56.2,60.9a.5.5,0,0,0,1,0A2.285,2.285,0,0,0,54.915,58.621ZM41.606,68q-.986-.148-1.964-.316a.5.5,0,0,0-.17.986q.989.17,1.986.318a.48.48,0,0,0,.074.006A.5.5,0,0,0,41.606,68Zm24.491.293q-.984.125-1.976.228a.5.5,0,0,0,.051,1l.052,0q1-.1,2-.229a.5.5,0,0,0,.434-.559A.494.494,0,0,0,66.1,68.292ZM65.617,52.5a.5.5,0,0,0-.5-.5h-2a.5.5,0,0,0,0,1h2A.5.5,0,0,0,65.617,52.5Zm4.415,15.209q-.977.167-1.964.313a.5.5,0,0,0,.073.994.637.637,0,0,0,.074,0q1-.148,1.985-.315a.5.5,0,1,0-.168-.986Zm-11.86,1.229q-.992.037-1.988.052a.5.5,0,0,0,.007,1H56.2q1.008-.015,2.011-.052a.5.5,0,0,0-.037-1ZM48.165,56.478a.491.491,0,0,0,.247.065.5.5,0,0,0,.435-.253,6.534,6.534,0,0,1,1.135-1.463.5.5,0,0,0-.7-.719A7.526,7.526,0,0,0,47.978,55.8.5.5,0,0,0,48.165,56.478ZM48,67.883v-2a.5.5,0,0,0-1,0v2a.5.5,0,0,0,1,0Zm2.22.987q-.995-.054-1.984-.131a.5.5,0,0,0-.076,1q1,.076,2.007.131h.027a.5.5,0,0,0,.026-1ZM54.2,69q-1-.009-1.988-.041a.553.553,0,0,0-.516.483.5.5,0,0,0,.483.517q1,.032,2.012.041h0a.5.5,0,0,0,0-1Zm7.945-.294q-.99.081-1.983.141a.5.5,0,0,0,.029,1h.03q1.006-.06,2.006-.143a.5.5,0,1,0-.082-1ZM47.5,64.383a.5.5,0,0,0,.5-.5v-2a.5.5,0,0,0-1,0v2A.5.5,0,0,0,47.5,64.383ZM59.117,53h2a.5.5,0,0,0,0-1h-2a.5.5,0,0,0,0,1Zm-7.869.8a.5.5,0,0,0,.232-.058,6.457,6.457,0,0,1,1.743-.617.5.5,0,1,0-.194-.98,7.411,7.411,0,0,0-2.014.712.5.5,0,0,0,.233.942Zm3.869-.8h2a.5.5,0,0,0,0-1h-2a.5.5,0,0,0,0,1ZM47.5,60.383a.5.5,0,0,0,.5-.5V59.5a6.531,6.531,0,0,1,.171-1.487.5.5,0,0,0-.373-.6.5.5,0,0,0-.6.372A7.532,7.532,0,0,0,47,59.5v.383A.5.5,0,0,0,47.5,60.383ZM110,51.673a23.318,23.318,0,0,1-2.551,10.553c-4.612,9.061-17.37,34.737-17.5,35a.546.546,0,0,1-.448.277.5.5,0,0,1-.444-.271L74.885,69.771A92.064,92.064,0,0,1,54.915,72,92.084,92.084,0,0,1,35.1,69.808L20.944,97.229a.5.5,0,0,1-.444.271.521.521,0,0,1-.448-.277c-.128-.259-12.886-25.936-17.5-35A23.318,23.318,0,0,1,0,51.673,20.113,20.113,0,0,1,1.87,42.951l9.244-20.027a.482.482,0,0,1,.028-.06l1.734-3.756a184.616,184.616,0,0,0,.071-.1.486.486,0,0,1,.084-.08c.012-.009.019-.022.032-.031C21.549,13.56,36.8,10.5,54.915,10.5c18.032,0,33.226,3.034,41.734,8.325a.492.492,0,0,1,.478.282l1.734,3.756a.482.482,0,0,1,.028.06l9.244,20.027A20.113,20.113,0,0,1,110,51.673ZM54.915,11.5c-17.77,0-32.713,2.954-41.088,8.106-.009.4,0,.806.014,1.208.252-.148.494-.3.756-.444a.5.5,0,1,1,.481.877c-.4.219-.779.449-1.157.679.53,5.174,3.2,10.138,7.8,14.659a.5.5,0,0,1,.57.282.486.486,0,0,1,.022.286c.467.441.949.878,1.453,1.31a85.416,85.416,0,0,1,62.419.045c.436-.372.861-.748,1.269-1.127-.43-.178-.859-.357-1.3-.53a.5.5,0,1,1,.363-.932c.589.23,1.163.465,1.729.7,4.589-4.5,7.273-9.449,7.827-14.6-.489-.3-1-.6-1.535-.893a.5.5,0,1,1,.475-.88c.394.212.775.432,1.147.653q.028-.6.019-1.195C87.833,14.491,72.8,11.5,54.915,11.5ZM85.3,39.241A84.4,84.4,0,0,0,24.643,39.2,70.46,70.46,0,0,0,44.593,50H65.409A70.575,70.575,0,0,0,85.3,39.241ZM43.8,50.771c-8.355-3.139-15.182-6.948-20.283-11.219a.489.489,0,0,1-.4-.288A.471.471,0,0,1,23.1,39.2C17.05,34,13.536,28.141,12.921,21.974c0-.006-.011-.008-.015-.014a.49.49,0,0,1-.033-.449V21.5l-.782,1.694A16.664,16.664,0,0,0,12.248,25a.5.5,0,0,1-.424.566.517.517,0,0,1-.072,0,.5.5,0,0,1-.495-.429c-.006-.039-.008-.078-.013-.117L3.372,42.084a.488.488,0,0,1,0,.29,18.477,18.477,0,0,0-.509,1.878.5.5,0,0,1-.488.4.487.487,0,0,1-.105-.011c-.006,0-.01-.006-.016-.007q-.192.5-.354,1.016a.492.492,0,0,1,.21-.022.5.5,0,0,1,.442.552c-.07.638-.11,1.293-.12,1.948a.5.5,0,0,1-.5.493H1.927a.5.5,0,0,1-.493-.507c0-.327.041-.648.06-.973A19.156,19.156,0,0,0,1,51.662,22.334,22.334,0,0,0,3.446,61.773c4.126,8.106,14.768,29.5,17.062,34.12ZM35.574,68.885A92.724,92.724,0,0,0,45,70.442v-1c-.518-.057-1.035-.115-1.551-.181a.5.5,0,0,1,.128-.992c.473.061.948.114,1.423.167V59.5A9.456,9.456,0,0,1,47.591,53H46.5a.5.5,0,0,1,0-1h2a.489.489,0,0,1,.15.03A9.509,9.509,0,0,1,50.283,51H44.8l-.516,1H44.5a.5.5,0,0,1,0,1h-.728L36.5,67.083c.393.082.786.164,1.182.241a.5.5,0,0,1-.095.991.537.537,0,0,1-.1-.009c-.492-.1-.98-.2-1.468-.3ZM74.41,68.85l-.451-.874c-.591.125-1.185.247-1.782.362a.522.522,0,0,1-.095.009.5.5,0,0,1-.094-.991c.5-.1,1-.2,1.493-.3L65.2,51H54.5A8.51,8.51,0,0,0,46,59.5v11c0,.014-.007.026-.008.04a89.027,89.027,0,0,0,8.923.46A91.025,91.025,0,0,0,74.41,68.85ZM109,51.662a19.156,19.156,0,0,0-.49-4.526c.019.325.055.646.06.973a.5.5,0,0,1-.493.507h-.007a.5.5,0,0,1-.5-.493c-.009-.655-.049-1.31-.12-1.948a.5.5,0,0,1,.442-.552.494.494,0,0,1,.21.023q-.163-.512-.354-1.017c-.006,0-.01.006-.016.007a.487.487,0,0,1-.105.011.5.5,0,0,1-.488-.4,18.477,18.477,0,0,0-.509-1.878.488.488,0,0,1,0-.29L98.758,25.027c-.005.039-.008.078-.013.117a.5.5,0,0,1-.495.429.517.517,0,0,1-.072,0A.5.5,0,0,1,97.754,25a16.664,16.664,0,0,0,.158-1.807L97.13,21.5C96.255,33.095,85.15,43.653,66.205,50.771l9.348,18.113a.5.5,0,0,1,.1.192L89.494,95.894c2.294-4.616,12.936-26.014,17.062-34.12A22.334,22.334,0,0,0,109,51.662ZM85.18,82.3l-.917-1.777a.5.5,0,1,0-.889.459l.917,1.777a.5.5,0,0,0,.889-.459ZM72.338,57.421l-.917-1.777a.5.5,0,0,0-.889.458l.917,1.777a.5.5,0,0,0,.445.271.5.5,0,0,0,.229-.056A.5.5,0,0,0,72.338,57.421Zm5.5,10.664-.917-1.777a.5.5,0,0,0-.889.459l.917,1.777a.5.5,0,0,0,.445.271.5.5,0,0,0,.229-.056A.5.5,0,0,0,77.842,68.085Zm1.834,3.555-.917-1.777a.5.5,0,1,0-.889.459l.917,1.777a.5.5,0,0,0,.445.271.5.5,0,0,0,.229-.056A.5.5,0,0,0,79.676,71.64Zm-5.5-10.664L73.255,59.2a.5.5,0,1,0-.889.459l.917,1.777a.5.5,0,0,0,.889-.459Zm1.834,3.555-.917-1.777a.5.5,0,1,0-.889.459l.917,1.777a.5.5,0,0,0,.889-.459ZM90.454,39.2a.5.5,0,0,0,.348-.141q.738-.713,1.419-1.446a.5.5,0,0,0-.732-.681q-.664.714-1.382,1.408a.5.5,0,0,0,.348.859ZM87.015,85.857,86.1,84.08a.5.5,0,0,0-.889.459l.917,1.777a.5.5,0,0,0,.445.271.5.5,0,0,0,.229-.056A.5.5,0,0,0,87.015,85.857Zm-5.5-10.664-.917-1.777a.5.5,0,0,0-.889.459l.917,1.777a.5.5,0,0,0,.445.271.5.5,0,0,0,.229-.056A.5.5,0,0,0,81.511,75.193Zm1.834,3.555-.917-1.777a.5.5,0,0,0-.889.459l.917,1.777a.5.5,0,0,0,.889-.459ZM80.874,46.389a.5.5,0,0,0,.257-.071q.869-.523,1.712-1.063a.5.5,0,0,0-.54-.842q-.831.533-1.687,1.047a.5.5,0,0,0,.258.929Zm3.366-2.162a.5.5,0,0,0,.283-.088q.838-.577,1.642-1.173a.5.5,0,1,0-.6-.8q-.79.586-1.613,1.153a.5.5,0,0,0,.284.912Zm3.211-2.385a.5.5,0,0,0,.313-.11q.8-.642,1.548-1.3a.5.5,0,1,0-.66-.752q-.735.646-1.515,1.273a.5.5,0,0,0,.314.89ZM70.5,53.867l-.917-1.777a.5.5,0,1,0-.889.459l.917,1.777a.5.5,0,0,0,.889-.459Zm-.352-2.114a.5.5,0,0,0,.192-.039q.929-.387,1.847-.793a.5.5,0,1,0-.4-.915q-.908.4-1.828.785a.5.5,0,0,0,.192.961Zm3.657-1.617a.5.5,0,0,0,.212-.047q.912-.428,1.809-.875a.5.5,0,0,0-.445-.9q-.886.442-1.788.865a.5.5,0,0,0,.213.953Zm3.579-1.783a.5.5,0,0,0,.233-.058q.894-.473,1.768-.965a.5.5,0,0,0-.491-.871q-.861.486-1.744.952a.5.5,0,0,0,.234.942ZM92.229,86.139a.5.5,0,0,0-.67.225l-.894,1.791a.47.47,0,0,0,.241.638.457.457,0,0,0,.2.047.559.559,0,0,0,.486-.3l.86-1.726A.5.5,0,0,0,92.229,86.139Zm14.154-28.726a.5.5,0,0,0-.646.287q-.356.927-.761,1.817a.5.5,0,1,0,.91.414q.417-.917.785-1.872A.5.5,0,0,0,106.384,57.413Zm-1.6,3.662a.5.5,0,0,0-.671.222l-.9,1.789a.5.5,0,0,0,.894.449l.9-1.789A.5.5,0,0,0,104.781,61.075Zm2.721-7.5a.5.5,0,0,0-.6.372c-.147.626-.322,1.263-.518,1.9a.5.5,0,0,0,.329.626.491.491,0,0,0,.148.022.5.5,0,0,0,.478-.352c.2-.654.384-1.314.537-1.962A.5.5,0,0,0,107.5,53.575Zm-4.518,11.079a.5.5,0,0,0-.671.223l-.9,1.79a.5.5,0,0,0,.894.449l.9-1.79A.5.5,0,0,0,102.984,64.653ZM95.232,32.944a.5.5,0,0,0,.687-.17c.358-.593.688-1.2.98-1.791a.5.5,0,0,0-.9-.441c-.28.569-.6,1.146-.939,1.715A.5.5,0,0,0,95.232,32.944Zm12.811,16.671a.488.488,0,0,0-.536.461c-.047.639-.124,1.293-.227,1.945a.5.5,0,0,0,.416.572.478.478,0,0,0,.079.006.5.5,0,0,0,.493-.422c.107-.679.187-1.361.236-2.027A.5.5,0,0,0,108.042,49.616ZM93.171,36.27a.5.5,0,0,0,.387-.183c.439-.535.856-1.077,1.239-1.612a.5.5,0,1,0-.813-.581c-.369.517-.772,1.041-1.2,1.559a.5.5,0,0,0,.386.817Zm-2.73,53.453a.5.5,0,0,0-.67.225l-.483.972a.506.506,0,0,0-.195.055.5.5,0,0,0-.215.674l.14.271a.5.5,0,0,0,.444.271h0a.5.5,0,0,0,.444-.277l.756-1.52A.5.5,0,0,0,90.441,89.723Zm3.578-7.166a.5.5,0,0,0-.671.224l-.9,1.791a.5.5,0,0,0,.224.671.494.494,0,0,0,.223.053.5.5,0,0,0,.448-.276l.9-1.791A.5.5,0,0,0,94.019,82.557ZM97.07,29.4a.5.5,0,0,0,.644-.292,19.476,19.476,0,0,0,.623-1.952.5.5,0,0,0-.968-.253,18.573,18.573,0,0,1-.591,1.853A.5.5,0,0,0,97.07,29.4ZM88.849,89.412l-.917-1.777a.5.5,0,0,0-.889.459l.917,1.777a.5.5,0,0,0,.889-.459ZM95.81,78.977a.5.5,0,0,0-.671.224l-.9,1.79a.5.5,0,0,0,.224.671.494.494,0,0,0,.223.053.5.5,0,0,0,.448-.276l.9-1.79A.5.5,0,0,0,95.81,78.977Zm3.584-7.161a.5.5,0,0,0-.671.223l-.9,1.79a.5.5,0,0,0,.895.447l.9-1.788A.5.5,0,0,0,99.395,71.815ZM97.6,75.395a.5.5,0,0,0-.671.224l-.9,1.791a.5.5,0,0,0,.224.671.494.494,0,0,0,.223.053.5.5,0,0,0,.448-.276l.9-1.791A.5.5,0,0,0,97.6,75.395Zm3.587-7.161a.5.5,0,0,0-.671.223l-.9,1.791a.5.5,0,0,0,.895.447l.9-1.789A.5.5,0,0,0,101.188,68.233Z"/></g></g></g></svg>