<svg xmlns="http://www.w3.org/2000/svg" width="110" height="110" viewBox="0 0 110 110"><defs><style>.cls-1{fill:#fff;}.cls-2{fill:#af9c94;}</style></defs><title>Контрасты - Манжет лицевая</title><g id="Контрасты"><g id="Манжет_лицевая" data-name="Манжет лицевая"><g id="Цвет-59" data-name="Цвет"><path class="cls-1" d="M.5,94.751V15c0-3.769,10.839-7.031,25.352-8.923,15.242-1.987,37.232-3.16,51.482-2.41a3.585,3.585,0,0,1,2.792,1.958c14.792,1.958,29.4,4.452,29.375,9.5-.083,19.875,0,59.25,0,79.75,0,7.517-31.875,10.87-56.625,10.625C27,105.245.5,101.5.5,94.751Z"/><path class="cls-2" d="M54.5,84.5C25,84.312.854,89.137.516,94.88c0-.043-.016-.085-.016-.129V15c0-3.769,10.839-7.031,25.352-8.923,15.242-1.987,37.211-3.14,51.481-2.41A3.788,3.788,0,0,1,80.625,7.25c.062,12.5.062,37.875.125,50.375a8.177,8.177,0,0,1-2.25,6C74.062,68.062,65.125,76.937,60.625,81.5A8.944,8.944,0,0,1,54.5,84.5Z"/><path class="cls-1" d="M67.68,3.447v2.5h0c3.5,0,6.706.073,9.525.217a1.4,1.4,0,0,1,.919,1.1c.031,6.245.047,15.869.062,25.176s.031,18.944.063,25.2a5.685,5.685,0,0,1-1.518,4.22c-1.339,1.339-3.088,3.082-5,4.989-4.338,4.324-9.737,9.705-12.886,12.9A6.566,6.566,0,0,1,54.516,82c-.562,0-1.126-.005-1.683-.005-13.983,0-27.231,1.111-37.3,3.128A50.483,50.483,0,0,0,3,88.955V15.1c.565-1.036,5.847-4.285,23.175-6.545a352.059,352.059,0,0,1,41.5-2.61l0-2.5m0,0A354,354,0,0,0,25.852,6.077C11.339,7.97.5,11.232.5,15v79.75c0,.044.014.086.016.129.332-5.635,23.578-10.385,52.317-10.385.552,0,1.111,0,1.668.005h.038a8.969,8.969,0,0,0,6.087-3c4.5-4.562,13.438-13.437,17.875-17.875a8.177,8.177,0,0,0,2.25-6c-.062-12.5-.062-37.875-.125-50.375a3.788,3.788,0,0,0-3.292-3.583c-2.935-.15-6.194-.221-9.655-.221Z"/><path class="cls-2" d="M77.125,5.626c14.188.749,32.4,4.452,32.375,9.5-.083,19.875,0,59.25,0,79.75,0,.021-.008.041-.008.062,0-6.125-27.367-10.813-57.492-10.437a9.159,9.159,0,0,0,5.625-3L75.5,63.625a8.132,8.132,0,0,0,2.25-6C77.666,45,77.666,19.833,77.625,7.25A2.543,2.543,0,0,0,77.125,5.626Z"/><path class="cls-1" d="M80.128,8.332a112.532,112.532,0,0,1,16.9,2.6C105.45,13,106.853,14.943,107,15.191c-.057,13.815-.035,36.6-.016,56.7C106.99,78.06,107,83.895,107,89,96.354,83.534,71.513,82.323,60.6,82.055L77.267,65.393a10.613,10.613,0,0,0,2.982-7.784c-.052-7.915-.072-20.9-.089-32.357-.01-6.365-.019-12.347-.032-16.919m-3-2.706a2.543,2.543,0,0,1,.5,1.624c.042,12.583.042,37.75.125,50.375a8.132,8.132,0,0,1-2.25,6L57.625,81.5A9.158,9.158,0,0,1,52,84.5c1.134-.014,2.26-.021,3.385-.021,28.757,0,54.107,4.564,54.107,10.458,0-.021.008-.041.008-.062,0-20.5-.083-59.875,0-79.75.021-5.048-18.187-8.751-32.375-9.5Z"/><circle class="cls-1" cx="55.5" cy="42.501" r="9"/></g><g id="Контур-59" data-name="Контур"><path d="M80.471,5.213a4.46,4.46,0,0,0-3.666-2.1A341.678,341.678,0,0,0,27.5,5.337C21.051,6.067,0,8.921,0,15V95c0,6.886,27.964,11,55,11s55-4.114,55-11V15C110,8.731,87.615,5.942,80.471,5.213ZM1,90.334c0-.855.7-1.735,2.068-2.614a.5.5,0,0,0-.539-.842A7.908,7.908,0,0,0,1,88.114V19.734a.489.489,0,0,0,.048-.109c.2-.8,1.051-1.66,2.467-2.488a.5.5,0,0,0-.5-.863A8.871,8.871,0,0,0,1,17.807V15c0-2.816,8.23-6.59,26.616-8.67a340.446,340.446,0,0,1,49.16-2.216A3.487,3.487,0,0,1,80.167,7.63V57.86a7.938,7.938,0,0,1-2.339,5.647L59.683,81.652a7.989,7.989,0,0,1-5.577,2.335c-.371,0-.732.017-1.1.023-23.413.174-46.971,3.4-52,8.817ZM55,105C22.7,105,1,99.83,1,95a2.634,2.634,0,0,1,1.069-1.876,16.46,16.46,0,0,0,3.309,1.766.488.488,0,0,0,.191.038.5.5,0,0,0,.191-.962,16.5,16.5,0,0,1-2.854-1.474c4.071-2.713,14.5-5.228,29.281-6.54a.51.51,0,0,0,.23.046c6.46-.545,13.383-.872,20.575-.988.667,0,1.331-.01,2.008-.01,26.72,0,46.17,3.539,52.1,7.495a14.712,14.712,0,0,1-1.985,1.088.5.5,0,0,0,.42.908,14.73,14.73,0,0,0,2.4-1.365A2.632,2.632,0,0,1,109,95C109,99.83,87.3,105,55,105ZM107.447,17.75A3.077,3.077,0,0,1,109,20V89.05a.494.494,0,0,0-.154.587,1.726,1.726,0,0,1,.154.7v2.494c-4.955-5.33-27.87-8.543-50.922-8.807a8.927,8.927,0,0,0,2.312-1.661l1.93-1.93c1.289.034,2.567.075,3.825.125h.021a.5.5,0,0,0,.021-1c-.953-.038-1.925-.066-2.9-.095L78.535,64.215a8.931,8.931,0,0,0,2.632-6.354V11.3c1.19.126,2.363.257,3.5.4a.462.462,0,0,0,.063,0,.5.5,0,0,0,.062-1c-1.174-.146-2.388-.283-3.621-.412V7.63a4.547,4.547,0,0,0-.226-1.362C100.311,8.3,109,12.1,109,15v2.794a6.923,6.923,0,0,0-.959-.849.5.5,0,0,0-.594.8Zm-6.537-3.411a.5.5,0,0,1,.626-.329,34.032,34.032,0,0,1,3.806,1.412.5.5,0,0,1-.205.956.491.491,0,0,1-.205-.044,33,33,0,0,0-3.692-1.369A.5.5,0,0,1,100.91,14.339Zm-2.535-.181c-1.193-.3-2.5-.6-3.877-.882a.5.5,0,0,1,.2-.98c1.4.284,2.716.585,3.926.894a.5.5,0,0,1-.248.969Zm-6.81-1.437q-1.891-.33-3.937-.626a.5.5,0,0,1-.424-.566.509.509,0,0,1,.566-.424q2.06.3,3.967.632a.5.5,0,0,1-.085.992A.436.436,0,0,1,91.565,12.722Zm2.921,70.373a.5.5,0,0,1-.489.4.48.48,0,0,1-.1-.01q-1.871-.368-3.923-.7a.5.5,0,0,1,.16-.986q2.067.335,3.956.707A.5.5,0,0,1,94.486,83.095Zm-20.83-2.63a.5.5,0,0,1-.5.466h-.035q-1.96-.133-3.986-.239a.5.5,0,0,1-.473-.525.484.484,0,0,1,.525-.473q2.032.105,4,.239A.5.5,0,0,1,73.656,80.465Zm6.976.6a.5.5,0,0,1-.5.45.43.43,0,0,1-.051,0q-1.944-.195-3.976-.36a.5.5,0,0,1,.08-1q2.042.166,4,.362A.5.5,0,0,1,80.632,81.064Zm6.95.851a.5.5,0,0,1-.494.431.567.567,0,0,1-.07,0q-1.915-.268-3.956-.506a.5.5,0,0,1,.115-.994q2.051.239,3.979.51A.5.5,0,0,1,87.582,81.915Zm13.7,2.868a.5.5,0,0,1-.479.357.519.519,0,0,1-.143-.021c-1.17-.35-2.462-.687-3.841-1.007a.5.5,0,1,1,.227-.975c1.4.324,2.71.668,3.9,1.022A.5.5,0,0,1,101.279,84.783Zm2.544.344a19.883,19.883,0,0,1,3.688,1.785.5.5,0,0,1-.543.84,18.885,18.885,0,0,0-3.5-1.689.5.5,0,0,1,.355-.936ZM39.858,9.564a.5.5,0,0,1,.461-.536q2.01-.151,3.994-.279a.494.494,0,0,1,.531.467.5.5,0,0,1-.467.531q-1.978.129-3.983.279h-.038A.5.5,0,0,1,39.858,9.564ZM60.822,8.55a.5.5,0,0,1,.491-.509q2.01-.035,4-.049h0a.5.5,0,0,1,0,1q-1.989.013-3.993.049h-.009A.5.5,0,0,1,60.822,8.55Zm-13.983.543a.5.5,0,0,1,.471-.527q2.011-.113,4-.2a.492.492,0,0,1,.522.477.5.5,0,0,1-.477.521q-1.983.091-3.989.2h-.028A.5.5,0,0,1,46.839,9.093Zm6.989-.339a.5.5,0,0,1,.481-.519q2.011-.075,4-.127h.014a.5.5,0,0,1,.014,1q-1.988.053-3.992.127h-.019A.5.5,0,0,1,53.828,8.754ZM67.82,8.485a.5.5,0,0,1,.5-.5h0c1.329,0,2.667.014,4.006.033a.5.5,0,0,1-.007,1h-.007c-1.335-.02-2.669-.031-3.994-.033A.5.5,0,0,1,67.82,8.485Zm8.347,6.754v4a.5.5,0,0,1-1,0v-4a.5.5,0,1,1,1,0ZM72.426,62.546a.5.5,0,0,1,0,.707L69.6,66.082a.5.5,0,0,1-.707-.707l2.829-2.829A.5.5,0,0,1,72.426,62.546Zm3.741-12.307v4a.5.5,0,0,1-1,0v-4a.5.5,0,0,1,1,0ZM73.84,61.132a.5.5,0,0,1,0-.707l.451-.451a2.973,2.973,0,0,0,.876-2.112v-.622a.5.5,0,0,1,1,0v.622A3.964,3.964,0,0,1,75,60.681l-.451.451a.5.5,0,0,1-.707,0ZM62.526,72.445a.5.5,0,0,1,0,.707L59.7,75.981a.5.5,0,0,1-.707-.707l2.829-2.829A.5.5,0,0,1,62.526,72.445ZM76.167,43.239v4a.5.5,0,0,1-1,0v-4a.5.5,0,0,1,1,0ZM57.576,77.4a.5.5,0,0,1,0,.707l-.722.722A5.478,5.478,0,0,1,53.938,80.3l-.051,0a.5.5,0,0,1-.05-1,4.506,4.506,0,0,0,2.313-1.188l.721-.721A.5.5,0,0,1,57.576,77.4Zm9.9-9.9a.5.5,0,0,1,0,.707l-2.828,2.828a.5.5,0,0,1-.707-.707L66.769,67.5A.5.5,0,0,1,67.476,67.5ZM51.387,79.841a.5.5,0,0,1-.491.509q-2.018.035-3.993.1h-.016a.5.5,0,0,1-.015-1q1.981-.062,4.007-.1A.5.5,0,0,1,51.387,79.841ZM74.82,8.565a.54.54,0,0,1,.513-.487l.347.009a.5.5,0,0,1,.487.5v3.652a.5.5,0,0,1-1,0V9.054A.5.5,0,0,1,74.82,8.565Zm1.347,27.674v4a.5.5,0,0,1-1,0v-4a.5.5,0,0,1,1,0Zm0-7v4a.5.5,0,0,1-1,0v-4a.5.5,0,1,1,1,0Zm0-7v4a.5.5,0,0,1-1,0v-4a.5.5,0,1,1,1,0ZM32.408,80.791a.5.5,0,0,1,.455-.541q1.959-.168,4-.31a.5.5,0,0,1,.069,1q-2.03.141-3.981.308l-.043,0A.5.5,0,0,1,32.408,80.791Zm6.984-.512a.5.5,0,0,1,.471-.527q1.972-.111,4-.2a.51.51,0,0,1,.521.479.5.5,0,0,1-.478.521q-2.024.085-3.99.2h-.029A.5.5,0,0,1,39.392,80.279ZM11.659,83.968a.5.5,0,0,1,.368-.6c1.217-.3,2.54-.585,3.932-.857a.492.492,0,0,1,.587.395.5.5,0,0,1-.395.586c-1.377.27-2.686.556-3.888.848a.5.5,0,0,1-.6-.367Zm6.855-1.425a.5.5,0,0,1,.41-.576q1.907-.322,3.97-.609a.5.5,0,1,1,.138.99q-2.046.284-3.941.605a.486.486,0,0,1-.083.007A.5.5,0,0,1,18.515,82.543ZM5.5,15.595a.5.5,0,0,1,.277-.65c1.118-.45,2.407-.892,3.83-1.311a.5.5,0,1,1,.282.959c-1.392.41-2.65.841-3.738,1.279a.505.505,0,0,1-.187.036A.5.5,0,0,1,5.5,15.595Zm-.5,70.539a.5.5,0,0,1,.269-.653A37.643,37.643,0,0,1,9.1,84.146a.5.5,0,1,1,.283.959,37.119,37.119,0,0,0-3.726,1.3.5.5,0,0,1-.654-.269Zm7.154-72.681a.5.5,0,0,1,.366-.6c1.231-.3,2.553-.6,3.927-.873a.5.5,0,1,1,.2.98c-1.36.273-2.667.563-3.885.863a.508.508,0,0,1-.12.015A.5.5,0,0,1,12.162,13.453ZM25.443,81.525a.5.5,0,0,1,.437-.557q1.94-.236,3.988-.44a.5.5,0,1,1,.1.994q-2.037.205-3.968.438a.425.425,0,0,1-.061,0A.5.5,0,0,1,25.443,81.525Zm.488-70.585a.5.5,0,0,1,.433-.56q1.942-.246,3.984-.465a.5.5,0,1,1,.105.994q-2.03.217-3.963.463a.466.466,0,0,1-.063,0A.5.5,0,0,1,25.931,10.94Zm6.958-.776a.5.5,0,0,1,.452-.545q2.008-.187,3.987-.352a.5.5,0,0,1,.083,1q-1.975.164-3.978.352l-.047,0A.5.5,0,0,1,32.889,10.164ZM19.01,12a.5.5,0,0,1,.407-.578q1.91-.334,3.964-.635a.5.5,0,0,1,.145.99q-2.038.3-3.937.629a.434.434,0,0,1-.086.008A.5.5,0,0,1,19.01,12Zm42.478,88.426a.5.5,0,0,1-.489.511q-1.983.042-4.008.057h0a.5.5,0,0,1,0-1q2.017-.015,3.994-.057h.011A.5.5,0,0,1,61.488,100.427Zm13.985-.691a.5.5,0,0,1-.461.537q-1.966.148-4,.269h-.029a.5.5,0,0,1-.029-1q2.026-.12,3.983-.269A.485.485,0,0,1,75.474,99.735Zm-6.987.442a.5.5,0,0,1-.476.522q-1.975.1-4.006.159h-.016a.5.5,0,0,1-.016-1q2.021-.064,3.99-.157A.48.48,0,0,1,68.486,100.178Zm-14,.323a.5.5,0,0,1-.5.5h0q-2.024-.007-4.008-.042a.5.5,0,0,1-.491-.509A.484.484,0,0,1,50,99.957q1.978.035,3.995.042A.5.5,0,0,1,54.488,100.5Zm48.521-5.522a.5.5,0,0,1-.311.635c-1.153.4-2.456.781-3.873,1.147a.5.5,0,1,1-.25-.969c1.392-.359,2.67-.737,3.8-1.124A.5.5,0,0,1,103.009,94.979ZM47.486,100.4a.5.5,0,0,1-.5.485h-.015q-2.028-.059-4.006-.144a.5.5,0,0,1-.478-.521.516.516,0,0,1,.521-.479q1.969.085,3.992.144A.5.5,0,0,1,47.486,100.4Zm41.9-2.255a.5.5,0,0,1-.418.57q-1.92.294-3.977.555a.452.452,0,0,1-.063,0,.5.5,0,0,1-.062-1q2.041-.258,3.95-.551A.5.5,0,0,1,89.386,98.148Zm6.881-1.288a.5.5,0,0,1-.382.595c-1.239.27-2.566.53-3.945.773a.446.446,0,0,1-.088.008.5.5,0,0,1-.086-.992c1.365-.241,2.68-.5,3.906-.766A.5.5,0,0,1,96.267,96.86ZM82.444,99.076a.5.5,0,0,1-.442.552q-1.948.212-3.991.4l-.046,0a.5.5,0,0,1-.044-1q2.033-.183,3.972-.395A.507.507,0,0,1,82.444,99.076ZM19.6,97.985a.5.5,0,0,1-.493.417.486.486,0,0,1-.083-.007c-1.367-.23-2.7-.479-3.951-.737a.5.5,0,0,1-.389-.59.494.494,0,0,1,.591-.389c1.243.256,2.561.5,3.915.729A.5.5,0,0,1,19.6,97.985Zm20.888,2.141a.5.5,0,0,1-.5.473h-.028q-2.033-.113-4-.253a.5.5,0,0,1-.463-.535.51.51,0,0,1,.534-.463q1.958.141,3.985.253A.5.5,0,0,1,40.49,100.126ZM12.733,96.632a.5.5,0,0,1-.6.367c-1.41-.343-2.718-.705-3.889-1.077a.5.5,0,1,1,.3-.953c1.148.364,2.435.721,3.822,1.06A.5.5,0,0,1,12.733,96.632Zm13.8,2.325a.5.5,0,0,1-.5.44.414.414,0,0,1-.06,0q-2.053-.246-3.979-.529a.5.5,0,0,1,.146-.99q1.912.281,3.953.527A.5.5,0,0,1,26.537,98.957Zm6.966.7a.5.5,0,0,1-.5.458l-.043,0q-2.041-.173-3.993-.378a.5.5,0,0,1-.445-.549.49.49,0,0,1,.549-.445q1.94.2,3.973.376A.5.5,0,0,1,33.5,99.652Zm22-66.714a9.573,9.573,0,0,0-9.3,7.393q-1.436.091-2.882.193a2.5,2.5,0,0,0,.177,4.994c.061,0,.123,0,.181-.006q1.354-.1,2.694-.182a9.557,9.557,0,0,0,18.442-.671q1.31-.011,2.622-.012h.236a2.5,2.5,0,1,0,0-5q-1.52,0-3.036.015A9.58,9.58,0,0,0,55.5,32.938ZM43.6,44.516l-.1,0a1.5,1.5,0,0,1-.105-3c.881-.063,1.756-.12,2.63-.176a9.589,9.589,0,0,0-.069,1.006q-1.244.08-2.489.168a.5.5,0,0,0,.035,1h.036q1.227-.088,2.453-.166a9.528,9.528,0,0,0,.139.993C45.283,44.4,44.444,44.454,43.6,44.516Zm11.9,6.423A8.438,8.438,0,1,1,63.938,42.5,8.447,8.447,0,0,1,55.5,50.938ZM67.668,40.647a1.5,1.5,0,0,1,1.5,1.5,1.5,1.5,0,0,1-1.5,1.5H67.43q-1.224,0-2.444.011a9.592,9.592,0,0,0,.069-1q1.306-.009,2.612-.011a.5.5,0,0,0,0-1c-.876,0-1.764,0-2.647.011a9.532,9.532,0,0,0-.139-1Q66.274,40.649,67.668,40.647ZM62,42.5a.5.5,0,0,1-1,0A5.5,5.5,0,1,0,55.5,48a.5.5,0,0,1,0,1A6.5,6.5,0,1,1,62,42.5Zm-7-2a1.5,1.5,0,1,0-2,1.408v1.184a1.5,1.5,0,1,0,1,0V41.909A1.5,1.5,0,0,0,55,40.5ZM53.5,40a.5.5,0,1,1-.5.5A.5.5,0,0,1,53.5,40Zm0,5a.5.5,0,1,1,.5-.5A.5.5,0,0,1,53.5,45ZM59,40.5a1.5,1.5,0,1,0-2,1.408v1.184a1.5,1.5,0,1,0,1,0V41.909A1.5,1.5,0,0,0,59,40.5ZM57.5,40a.5.5,0,1,1-.5.5A.5.5,0,0,1,57.5,40Zm0,5a.5.5,0,1,1,.5-.5A.5.5,0,0,1,57.5,45Z"/></g></g></g></svg>