<svg xmlns="http://www.w3.org/2000/svg" xmlns:xlink="http://www.w3.org/1999/xlink" width="110" height="110" viewBox="0 0 110 110"><defs><style>.cls-1{fill:url(#Безымянный_градиент_668);}.cls-2{fill:#af9c94;}</style><linearGradient id="Безымянный_градиент_668" x1="51.667" y1="55.208" x2="83.005" y2="55.208" gradientUnits="userSpaceOnUse"><stop offset="0" stop-color="#fff"/><stop offset="1" stop-color="#fff" stop-opacity="0"/></linearGradient></defs><title>Контрасты - Налокотники</title><g id="Контрасты"><g id="Налокотники"><g id="Цвет-69" data-name="Цвет"><path class="cls-1" d="M44.417,42.417A54.663,54.663,0,0,0,36.5,60.333l3.667,47.833-13.583,1.417-7.5-32.75A66.351,66.351,0,0,1,22,40.417,182.024,182.024,0,0,1,37.667,6.5L50.333.833C72,3.167,84.911,17.6,84.333,35.167,83.5,60.5,62,71.167,44.583,70.667Z"/><path class="cls-2" d="M18.084,68.848a3.115,3.115,0,0,0,1.574,2.3A4.465,4.465,0,0,0,26.1,69.081c1.186-2.8.369-5.938.623-8.867.207-2.383.933-6.051-.321-8.2a4.774,4.774,0,0,0-3.924-2.443,3.651,3.651,0,0,0-3.532,2.28A59.71,59.71,0,0,0,18.084,68.848Z"/></g><g id="Контур-69" data-name="Контур"><path d="M28.478,103.242a1.5,1.5,0,1,0,1.5,1.5A1.5,1.5,0,0,0,28.478,103.242Zm0,2a.5.5,0,1,1,.5-.5A.5.5,0,0,1,28.478,105.242Z"/><path d="M25.1,91.051a1.5,1.5,0,1,0-1.5-1.5A1.5,1.5,0,0,0,25.1,91.051Zm0-2a.5.5,0,1,1-.5.5A.5.5,0,0,1,25.1,89.051Z"/><path d="M86.5,17.542H42.518A57.815,57.815,0,0,0,38.368,6.634L51.014,1.251a.5.5,0,0,0-.393-.92L37.488,5.921a179.166,179.166,0,0,1-.132.092,35.351,35.351,0,0,0-.1.114,198.536,198.536,0,0,0-16.317,36,66.444,66.444,0,0,0-1.912,36.619l7.124,30.871a.5.5,0,0,0,.487.388l.045,0,13.5-1.228a.5.5,0,0,0,.453-.536l-3.676-47.8a62.5,62.5,0,0,1,6.975-16.451V72.134a.5.5,0,0,0,1,0V38.912a83.8,83.8,0,0,0-2.166-20.37H74.627v13a.5.5,0,1,0,1,0v-13H78.31v13a.5.5,0,1,0,1,0v-13H86.5a.5.5,0,0,0,0-1ZM19.373,52.082a.465.465,0,0,0,.037-.057,3.165,3.165,0,0,1,3.066-1.959h.006a4.276,4.276,0,0,1,3.484,2.2c.956,1.642.646,4.376.4,6.573-.054.474-.1.925-.141,1.337a25.325,25.325,0,0,0-.007,3.175,12.623,12.623,0,0,1-.579,5.54,3.965,3.965,0,0,1-5.717,1.838,2.6,2.6,0,0,1-1.337-1.914.485.485,0,0,0-.079-.222A65.392,65.392,0,0,1,19.373,52.082Zm.61,26.363,2.428.231a4.125,4.125,0,0,1,3.665,3.281l3.6,17.275-4.768.545L20,78.517C19.993,78.493,19.989,78.469,19.984,78.445Zm5.147,22.313,4.746-.542,1.734,8.33-4.587.417Zm7.482,7.7L30.875,100.1l8.064-.922.665,8.639ZM43.937,42.1a.476.476,0,0,0-.077.08,64.092,64.092,0,0,0-7.888,18.1.48.48,0,0,0-.013.158l2.9,37.748-8.193.936L27.056,81.754a5.12,5.12,0,0,0-4.549-4.074l-2.741-.261q-.672-3.158-1.032-6.348a4.33,4.33,0,0,0,.664.506A5.016,5.016,0,0,0,22,72.3a4.909,4.909,0,0,0,1.5-.232,5.024,5.024,0,0,0,3.053-2.79,13.568,13.568,0,0,0,.657-5.971,24.612,24.612,0,0,1,0-3.049c.035-.4.085-.845.139-1.31.266-2.344.6-5.262-.525-7.19a5.231,5.231,0,0,0-4.349-2.691h-.008a4.431,4.431,0,0,0-2.673.863,65.468,65.468,0,0,1,2.08-7.48,198.457,198.457,0,0,1,15.769-35c3.316,6.826,6.286,15.5,6.286,31.462Z"/></g></g></g></svg>