<svg xmlns="http://www.w3.org/2000/svg" xmlns:xlink="http://www.w3.org/1999/xlink" width="110" height="110" viewBox="0 0 110 110"><defs><style>.cls-1{fill:url(#Безымянный_градиент_962);}.cls-2{fill:#af9c94;}</style><radialGradient id="Безымянный_градиент_962" cx="54.333" cy="19.214" r="91.791" gradientTransform="translate(66.125 -35.119) rotate(90) scale(1 0.614)" gradientUnits="userSpaceOnUse"><stop offset="0.619" stop-color="#fff"/><stop offset="0.62" stop-color="#fff" stop-opacity="0.992"/><stop offset="0.684" stop-color="#fff" stop-opacity="0.733"/><stop offset="0.746" stop-color="#fff" stop-opacity="0.51"/><stop offset="0.806" stop-color="#fff" stop-opacity="0.327"/><stop offset="0.863" stop-color="#fff" stop-opacity="0.185"/><stop offset="0.915" stop-color="#fff" stop-opacity="0.083"/><stop offset="0.963" stop-color="#fff" stop-opacity="0.022"/><stop offset="1" stop-color="#fff" stop-opacity="0"/></radialGradient></defs><title>Контрасты - Петля под воротником</title><g id="Контрасты"><g id="Петля_под_воротником" data-name="Петля под воротником"><g id="Цвет-71" data-name="Цвет"><rect class="cls-1" y="17" width="110" height="93"/></g><g id="Контур-71" data-name="Контур"><rect class="cls-2" x="42.5" y="52.5" width="25" height="6"/><path d="M109.5,43H.5a.5.5,0,0,0,0,1H42v2H40.5a.5.5,0,0,0,0,1H42V67H.5a.5.5,0,0,0,0,1h109a.5.5,0,0,0,0-1H68V44h41.5a.5.5,0,0,0,0-1ZM67,58H43V53H67ZM43,67V59H67v8ZM67,46.5V52H43V44H67Zm43,0a.5.5,0,0,1-.5.5h-1a.5.5,0,0,1,0-1h1A.5.5,0,0,1,110,46.5ZM98.5,46a.5.5,0,0,1,0,1h-2a.5.5,0,0,1,0-1Zm8,0a.5.5,0,0,1,0,1h-2a.5.5,0,0,1,0-1Zm-12,0a.5.5,0,0,1,0,1h-2a.5.5,0,0,1,0-1Zm8,0a.5.5,0,0,1,0,1h-2a.5.5,0,0,1,0-1ZM48,46.5a.5.5,0,0,1,.5-.5h2a.5.5,0,0,1,0,1h-2A.5.5,0,0,1,48,46.5Zm19,0a.5.5,0,0,1-.5.5h-2a.5.5,0,0,1,0-1h2A.5.5,0,0,1,67,46.5Zm-7,0a.5.5,0,0,1,.5-.5h2a.5.5,0,0,1,0,1h-2A.5.5,0,0,1,60,46.5Zm-16,0a.5.5,0,0,1,.5-.5h2a.5.5,0,0,1,0,1h-2A.5.5,0,0,1,44,46.5Zm24,0a.5.5,0,0,1,.5-.5h2a.5.5,0,0,1,0,1h-2A.5.5,0,0,1,68,46.5Zm-16,0a.5.5,0,0,1,.5-.5h2a.5.5,0,0,1,0,1h-2A.5.5,0,0,1,52,46.5Zm4,0a.5.5,0,0,1,.5-.5h2a.5.5,0,0,1,0,1h-2A.5.5,0,0,1,56,46.5ZM86.5,46a.5.5,0,0,1,0,1h-2a.5.5,0,0,1,0-1Zm-58,1a.5.5,0,0,1,0-1h2a.5.5,0,0,1,0,1Zm-4,0a.5.5,0,0,1,0-1h2a.5.5,0,0,1,0,1Zm-8,0a.5.5,0,0,1,0-1h2a.5.5,0,0,1,0,1Zm4,0a.5.5,0,0,1,0-1h2a.5.5,0,0,1,0,1Zm70-1a.5.5,0,0,1,0,1h-2a.5.5,0,0,1,0-1Zm-54,1a.5.5,0,0,1,0-1h2a.5.5,0,0,1,0,1Zm-4,0a.5.5,0,0,1,0-1h2a.5.5,0,0,1,0,1Zm42-1a.5.5,0,0,1,0,1h-2a.5.5,0,0,1,0-1Zm4,0a.5.5,0,0,1,0,1h-2a.5.5,0,0,1,0-1Zm-66,1a.5.5,0,0,1,0-1h2a.5.5,0,0,1,0,1ZM0,46.5A.5.5,0,0,1,.5,46h2a.5.5,0,0,1,0,1H.5A.5.5,0,0,1,0,46.5ZM82.5,46a.5.5,0,0,1,0,1h-2a.5.5,0,0,1,0-1Zm-78,1a.5.5,0,0,1,0-1h2a.5.5,0,0,1,0,1Zm4,0a.5.5,0,0,1,0-1h2a.5.5,0,0,1,0,1Zm74-27a.5.5,0,0,1,0,1h-2a.5.5,0,0,1,0-1Zm-4,0a.5.5,0,0,1,0,1h-2a.5.5,0,0,1,0-1Zm-8,0a.5.5,0,0,1,0,1h-2a.5.5,0,0,1,0-1Zm-16,0a.5.5,0,0,1,0,1h-2a.5.5,0,0,1,0-1Zm4,0a.5.5,0,0,1,0,1h-2a.5.5,0,0,1,0-1Zm8,0a.5.5,0,0,1,0,1h-2a.5.5,0,0,1,0-1Zm-4,0a.5.5,0,0,1,0,1h-2a.5.5,0,0,1,0-1Zm12,0a.5.5,0,0,1,0,1h-2a.5.5,0,0,1,0-1Zm28,0a.5.5,0,0,1,0,1h-2a.5.5,0,0,1,0-1Zm4,0a.5.5,0,0,1,0,1h-2a.5.5,0,0,1,0-1Zm-8,0a.5.5,0,0,1,0,1h-2a.5.5,0,0,1,0-1Zm-4,0a.5.5,0,0,1,0,1h-2a.5.5,0,0,1,0-1Zm-8,0a.5.5,0,0,1,0,1h-2a.5.5,0,0,1,0-1Zm4,0a.5.5,0,0,1,0,1h-2a.5.5,0,0,1,0-1Zm19.5.5a.5.5,0,0,1-.5.5h-1a.5.5,0,0,1,0-1h1A.5.5,0,0,1,110,20.5ZM50.5,20a.5.5,0,0,1,0,1h-2a.5.5,0,0,1,0-1Zm-32,0a.5.5,0,0,1,0,1h-2a.5.5,0,0,1,0-1Zm-8,0a.5.5,0,0,1,0,1h-2a.5.5,0,0,1,0-1ZM0,20.5A.5.5,0,0,1,.5,20h2a.5.5,0,0,1,0,1H.5A.5.5,0,0,1,0,20.5ZM6.5,20a.5.5,0,0,1,0,1h-2a.5.5,0,0,1,0-1Zm16,0a.5.5,0,0,1,0,1h-2a.5.5,0,0,1,0-1Zm-8,0a.5.5,0,0,1,0,1h-2a.5.5,0,0,1,0-1Zm12,0a.5.5,0,0,1,0,1h-2a.5.5,0,0,1,0-1Zm16,0a.5.5,0,0,1,0,1h-2a.5.5,0,0,1,0-1Zm4,0a.5.5,0,0,1,0,1h-2a.5.5,0,0,1,0-1Zm-8,0a.5.5,0,0,1,0,1h-2a.5.5,0,0,1,0-1Zm-8,0a.5.5,0,0,1,0,1h-2a.5.5,0,0,1,0-1Zm4,0a.5.5,0,0,1,0,1h-2a.5.5,0,0,1,0-1ZM0,17.5A.5.5,0,0,1,.5,17h109a.5.5,0,0,1,0,1H.5A.5.5,0,0,1,0,17.5Z"/></g></g></g></svg>