<svg xmlns="http://www.w3.org/2000/svg" xmlns:xlink="http://www.w3.org/1999/xlink" width="110" height="110" viewBox="0 0 110 110"><defs><style>.cls-1{fill:url(#Безымянный_градиент_1785);}.cls-2{fill:url(#Безымянный_градиент_1785-2);}.cls-3{fill:#fff;}.cls-4{fill:#af9c94;}</style><radialGradient id="Безымянный_градиент_1785" cx="66.417" cy="55.667" r="43.262" gradientTransform="translate(175.5 125.104) rotate(180) scale(1 1.271)" gradientUnits="userSpaceOnUse"><stop offset="0.491" stop-color="#fff"/><stop offset="0.651" stop-color="#fff" stop-opacity="0.652"/><stop offset="0.822" stop-color="#fff" stop-opacity="0.304"/><stop offset="0.942" stop-color="#fff" stop-opacity="0.085"/><stop offset="1" stop-color="#fff" stop-opacity="0"/></radialGradient><radialGradient id="Безымянный_градиент_1785-2" cx="45.417" cy="55" r="45.78" gradientTransform="translate(-45.333 -9.475) scale(1 1.172)" xlink:href="#Безымянный_градиент_1785"/></defs><title>Контрасты - Планка петельная изнаночная</title><g id="Контрасты"><g id="Планка_петельная_изнаночная" data-name="Планка петельная изнаночная"><g id="Цвет-62" data-name="Цвет"><rect class="cls-1" x="65.5" y="0.5" width="44.5" height="109" transform="translate(175.5 110) rotate(180)"/><rect class="cls-2" y="0.5" width="45.5" height="109" transform="translate(45.5 110) rotate(180)"/><rect class="cls-3" x="45.5" y="0.5" width="20" height="109"/><path class="cls-4" d="M51.829,52.982c1.43-.059,2.6,1.782,3.127,2.922,6,13.095,7.7,27.459,7.794,41.346h20c-.1-13.886-1.8-28.251-7.794-41.346-.522-1.141-1.7-2.981-3.127-2.922Z"/><path class="cls-3" d="M71.69,55.482a4.524,4.524,0,0,1,.994,1.463c4.789,10.459,7.2,22.526,7.531,37.8h-15c-.332-15.739-2.8-28.29-7.706-39.268H71.69m.207-2.5H51.964c1.369.057,2.487,1.818,2.992,2.922,6,13.095,7.7,27.459,7.794,41.345h20c-.1-13.886-1.8-28.251-7.794-41.345-.514-1.123-1.66-2.924-3.06-2.924Zm-20,0h0Z"/></g><g id="Контур-62" data-name="Контур"><path d="M55.5,97A1.5,1.5,0,0,1,54,95.5v-10a1.5,1.5,0,0,1,3,0v10A1.5,1.5,0,0,1,55.5,97Zm0-12a.5.5,0,0,0-.5.5v10a.5.5,0,0,0,1,0v-10A.5.5,0,0,0,55.5,85Z"/><circle class="cls-3" cx="55.5" cy="90.5" r="4"/><path d="M55.5,95A4.5,4.5,0,1,1,60,90.5,4.5,4.5,0,0,1,55.5,95Zm0-8A3.5,3.5,0,1,0,59,90.5,3.5,3.5,0,0,0,55.5,87Z"/><path d="M55.5,93.5a3,3,0,1,1,3-3,.5.5,0,0,1-1,0,2,2,0,1,0-2,2,.5.5,0,0,1,0,1Z"/><path d="M56,91.5a.5.5,0,0,1-.5-.5V90a.5.5,0,0,1,1,0v1A.5.5,0,0,1,56,91.5Z"/><path d="M55,91.5a.5.5,0,0,1-.5-.5V90a.5.5,0,0,1,1,0v1A.5.5,0,0,1,55,91.5Z"/><path class="cls-3" d="M51.521,52.91a4.047,4.047,0,0,1-.021-.41,4,4,0,0,1,8,0q0,.188-.017.371"/><path d="M51.52,53.41a.5.5,0,0,1-.5-.449A4.5,4.5,0,1,1,60,52.5c0,.14-.007.278-.019.415a.5.5,0,1,1-1-.088C59,52.72,59,52.61,59,52.5a3.5,3.5,0,0,0-7,0c0,.122.006.241.018.359a.5.5,0,0,1-.446.548Z"/><path d="M53.038,53.441a.5.5,0,0,1-.491-.412A3.04,3.04,0,0,1,52.5,52.5a3,3,0,0,1,6,0,.5.5,0,0,1-1,0,2,2,0,1,0-3.969.354.5.5,0,0,1-.4.58A.556.556,0,0,1,53.038,53.441Z"/><path d="M56,53.5a.5.5,0,0,1-.5-.5V52a.5.5,0,0,1,1,0v1A.5.5,0,0,1,56,53.5Z"/><path d="M55,53.5a.5.5,0,0,1-.5-.5V52a.5.5,0,0,1,1,0v1A.5.5,0,0,1,55,53.5Z"/><circle class="cls-3" cx="55.5" cy="14.5" r="4"/><path d="M55.5,19A4.5,4.5,0,1,1,60,14.5,4.5,4.5,0,0,1,55.5,19Zm0-8A3.5,3.5,0,1,0,59,14.5,3.5,3.5,0,0,0,55.5,11Z"/><path d="M55.5,17.5a3,3,0,1,1,3-3,.5.5,0,0,1-1,0,2,2,0,1,0-2,2,.5.5,0,0,1,0,1Z"/><path d="M56,15.5a.5.5,0,0,1-.5-.5V14a.5.5,0,0,1,1,0v1A.5.5,0,0,1,56,15.5Z"/><path d="M55,15.5a.5.5,0,0,1-.5-.5V14a.5.5,0,0,1,1,0v1A.5.5,0,0,1,55,15.5Z"/><path d="M82.75,97.75a.5.5,0,0,1-.5-.5c-.115-16.776-2.578-29.849-7.749-41.142-.612-1.338-1.635-2.683-2.651-2.63a.5.5,0,1,1-.041-1c1.932-.06,3.247,2.438,3.6,3.214,5.232,11.425,7.724,24.628,7.84,41.55a.5.5,0,0,1-.5.5Z"/><path d="M72.786,93.2a1.5,1.5,0,0,1-1.5-1.439c-.145-3.564-.416-7-.807-10.219a1.5,1.5,0,1,1,2.979-.361c.4,3.294.678,6.813.826,10.458A1.5,1.5,0,0,1,72.849,93.2Zm-.825-12.338-.055,0a.5.5,0,0,0-.433.556c.395,3.243.668,6.709.814,10.3a.5.5,0,0,0,.5.479v.5l.013-.5a.5.5,0,0,0,.487-.521c-.146-3.619-.422-7.111-.818-10.378A.514.514,0,0,0,71.961,80.858ZM75.41,55.7c-.349-.763-1.621-3.216-3.491-3.216l-.09,0H66V.5a.5.5,0,0,0-.5-.5h-20a.5.5,0,0,0-.5.5v109a.5.5,0,0,0,1,0V68.03c.242-3.636,1.174-10.266,4.688-13.912a1.778,1.778,0,0,1,1.162-.636h.1c.952.048,1.96,1.336,2.553,2.63,5.171,11.293,7.634,24.365,7.749,41.142a.5.5,0,0,0,.5.5H65V109.5a.5.5,0,0,0,1,0V97.75H82.75a.5.5,0,0,0,.5-.5C83.134,80.324,80.643,67.121,75.41,55.7Zm-9.988-.322a.5.5,0,0,1-.223.673.511.511,0,0,1-.67-.222,7.389,7.389,0,0,0-1.817-2.343h1.2A4.293,4.293,0,0,1,65.422,55.374ZM51.979,52.482c-.057,0-.114,0-.171,0a2.726,2.726,0,0,0-1.841.941,17.78,17.78,0,0,0-3.968,8V1H65V52.482ZM63.246,96.75C63.084,80.066,60.591,67.009,55.41,55.7a8.153,8.153,0,0,0-1.469-2.214h6.983a.49.49,0,0,0,.114.082,5.6,5.6,0,0,1,2.6,2.713,1.494,1.494,0,0,0,1.339.822,1.468,1.468,0,0,0,.677-.162,1.5,1.5,0,0,0,.659-2.017,7.93,7.93,0,0,0-.9-1.438H71.85c1.017-.053,2.039,1.292,2.651,2.63,5.119,11.18,7.584,24.1,7.745,40.638Z"/></g></g></g></svg>