<svg xmlns="http://www.w3.org/2000/svg" xmlns:xlink="http://www.w3.org/1999/xlink" width="110" height="110" viewBox="0 0 110 110"><defs><style>.cls-1{fill:url(#Безымянный_градиент_1785);}.cls-2{fill:url(#Безымянный_градиент_1785-2);}.cls-3{fill:#fff;}.cls-4{fill:#af9c94;}</style><radialGradient id="Безымянный_градиент_1785" cx="66.417" cy="55.667" r="43.262" gradientTransform="translate(175.5 125.104) rotate(180) scale(1 1.271)" gradientUnits="userSpaceOnUse"><stop offset="0.491" stop-color="#fff"/><stop offset="0.651" stop-color="#fff" stop-opacity="0.652"/><stop offset="0.822" stop-color="#fff" stop-opacity="0.304"/><stop offset="0.942" stop-color="#fff" stop-opacity="0.085"/><stop offset="1" stop-color="#fff" stop-opacity="0"/></radialGradient><radialGradient id="Безымянный_градиент_1785-2" cx="45.417" cy="55" r="45.78" gradientTransform="translate(-45.333 -9.475) scale(1 1.172)" xlink:href="#Безымянный_градиент_1785"/></defs><title>Контрасты - Планка петельная лицевая</title><g id="Контрасты"><g id="Планка_петельная_лицевая" data-name="Планка петельная лицевая"><g id="Цвет-61" data-name="Цвет"><rect class="cls-1" x="65.5" y="0.5" width="44.5" height="109" transform="translate(175.5 110) rotate(180)"/><rect class="cls-2" y="0.5" width="45.5" height="109" transform="translate(45.5 110) rotate(180)"/><rect class="cls-3" x="45.5" y="0.5" width="20" height="109"/><path class="cls-4" d="M65.5,109.5s-.029-40.875,0-54.5c.039-18.29,4-37.465,12.65-50.25h-20C49.5,17.535,45.577,36.71,45.5,55v54.5Z"/><path class="cls-3" d="M45.5,109.5V55c.077-18.29,4-37.465,12.65-50.25h20C69.5,17.535,65.539,36.71,65.5,55c-.029,13.625,0,54.5,0,54.5H63S62.976,66.517,63,55c.04-18.523,3.9-35.607,10.681-47.745H59.5C52.259,18.634,48.08,35.935,48,55v54.5Z"/></g><g id="Контур-61" data-name="Контур"><path d="M78.591,4.516a.5.5,0,0,0-.441-.266H66V.5a.5.5,0,0,0-.5-.5h-20a.5.5,0,0,0-.5.5v109a.5.5,0,0,0,1,0V55C46.084,35.041,50.606,16.93,58.416,5.25h18.8C69.486,17.161,65.042,35.218,65,55c-.029,13.47,0,54.093,0,54.5a.5.5,0,0,0,1,0c0-.409-.029-41.03,0-54.5.043-20.023,4.622-38.237,12.563-49.971A.5.5,0,0,0,78.591,4.516ZM52,14.5a3.473,3.473,0,0,1,1.752-3.027c-.583,1.213-1.136,2.473-1.666,3.769A3.5,3.5,0,0,1,52,14.5ZM58.149,4.25a.5.5,0,0,0-.414.22,53.868,53.868,0,0,0-3.31,5.666,4.482,4.482,0,0,0-2.886,6.486A98.26,98.26,0,0,0,46,39.473V1H65V4.25Z"/><path d="M55.5,97A1.5,1.5,0,0,1,54,95.5v-10a1.5,1.5,0,0,1,3,0v10A1.5,1.5,0,0,1,55.5,97Zm0-12a.5.5,0,0,0-.5.5v10a.5.5,0,0,0,1,0v-10A.5.5,0,0,0,55.5,85Z"/><circle class="cls-3" cx="55.5" cy="90.5" r="4"/><path d="M55.5,95A4.5,4.5,0,1,1,60,90.5,4.5,4.5,0,0,1,55.5,95Zm0-8A3.5,3.5,0,1,0,59,90.5,3.5,3.5,0,0,0,55.5,87Z"/><path d="M55.5,93.5a3,3,0,1,1,3-3,.5.5,0,0,1-1,0,2,2,0,1,0-2,2,.5.5,0,0,1,0,1Z"/><path d="M56,91.5a.5.5,0,0,1-.5-.5V90a.5.5,0,0,1,1,0v1A.5.5,0,0,1,56,91.5Z"/><path d="M55,91.5a.5.5,0,0,1-.5-.5V90a.5.5,0,0,1,1,0v1A.5.5,0,0,1,55,91.5Z"/><path d="M55.5,59A1.5,1.5,0,0,1,54,57.5v-10a1.5,1.5,0,0,1,3,0v10A1.5,1.5,0,0,1,55.5,59Zm0-12a.5.5,0,0,0-.5.5v10a.5.5,0,0,0,1,0v-10A.5.5,0,0,0,55.5,47Z"/><circle class="cls-3" cx="55.5" cy="52.5" r="4"/><path d="M55.5,57A4.5,4.5,0,1,1,60,52.5,4.5,4.5,0,0,1,55.5,57Zm0-8A3.5,3.5,0,1,0,59,52.5,3.5,3.5,0,0,0,55.5,49Z"/><path d="M55.5,55.5a3,3,0,1,1,3-3,.5.5,0,0,1-1,0,2,2,0,1,0-2,2,.5.5,0,0,1,0,1Z"/><path d="M56,53.5a.5.5,0,0,1-.5-.5V52a.5.5,0,0,1,1,0v1A.5.5,0,0,1,56,53.5Z"/><path d="M55,53.5a.5.5,0,0,1-.5-.5V52a.5.5,0,0,1,1,0v1A.5.5,0,0,1,55,53.5Z"/><path d="M60.669,21.973A1.458,1.458,0,0,1,60.2,21.9,1.5,1.5,0,0,1,59.245,20,72.434,72.434,0,0,1,63.584,9.539a1.5,1.5,0,0,1,2.666,1.375,69.5,69.5,0,0,0-4.157,10.028A1.5,1.5,0,0,1,60.669,21.973ZM64.916,9.726a.5.5,0,0,0-.443.271,71.61,71.61,0,0,0-4.278,10.318.5.5,0,0,0,.317.632.506.506,0,0,0,.632-.318,70.491,70.491,0,0,1,4.218-10.174.5.5,0,0,0-.215-.673A.508.508,0,0,0,64.916,9.726Z"/></g></g></g></svg>