<svg xmlns="http://www.w3.org/2000/svg" xmlns:xlink="http://www.w3.org/1999/xlink" width="110" height="110" viewBox="0 0 110 110"><defs><style>.cls-1{fill:url(#Безымянный_градиент_415);}.cls-2{fill:#af9c94;}.cls-3{fill:#fff;}</style><radialGradient id="Безымянный_градиент_415" cx="55.5" cy="0.688" r="109.404" gradientUnits="userSpaceOnUse"><stop offset="0.681" stop-color="#fff"/><stop offset="1" stop-color="#fff" stop-opacity="0"/></radialGradient></defs><title>Контрасты - Стойка изнаночная</title><g id="Контрасты"><g id="Стойка_изнаночная" data-name="Стойка изнаночная"><g id="Цвет-58" data-name="Цвет"><path class="cls-1" d="M55,110c18.8,0,38.833-5,53.375-14.5V35.625L100.75,32.25,99.262,28,90,7.938c-8-5-21.954-7-35-7s-27,2-35,7L10.738,28,9.25,32.25,1.625,35.625V95.5C16.167,105,36.2,110,55,110Z"/><path class="cls-2" d="M20,7.938c0,6.548,2.857,12.143,8.875,16.688A70.243,70.243,0,0,1,54.5,19.584C63.4,19.554,73.083,21,81.25,24.75c5.9-4.718,9.019-10.261,8.75-16.812C81.667,2.75,66.835,1,55.333.919,43.5.839,29.167,2.5,20,7.938Z"/><path class="cls-3" d="M54.533,3.416l.784,0c13.543.09,25.4,2.3,32.186,5.96-.192,4.592-2.385,8.689-6.668,12.458-9.3-3.909-19.229-4.754-26.069-4.754h-.274a72.716,72.716,0,0,0-25.179,4.7c-4.177-3.493-6.4-7.572-6.761-12.4,7.266-3.8,18.794-5.961,31.981-5.961m0-2.5C42.857.916,28.961,2.622,20,7.938c-.005,6.548,2.857,12.143,8.875,16.688A70.244,70.244,0,0,1,54.5,19.584h.266c8.827,0,18.4,1.454,26.485,5.167,5.9-4.718,9.019-10.261,8.75-16.812C81.667,2.75,66.835,1,55.333.919l-.8,0Z"/></g><g id="Контур-58" data-name="Контур"><path d="M49,67.749v2a.5.5,0,0,1-1,0v-2a.5.5,0,0,1,1,0Zm-.5-4.5a.5.5,0,0,0-.5.5v2a.5.5,0,0,0,1,0v-2A.5.5,0,0,0,48.5,63.249Zm0,8a.5.5,0,0,0-.5.5v2a.5.5,0,0,0,1,0v-2A.5.5,0,0,0,48.5,71.249Zm0,4a.5.5,0,0,0-.5.5v2a.5.5,0,0,0,1,0v-2A.5.5,0,0,0,48.5,75.249Zm0-16a.5.5,0,0,0-.5.5v2a.5.5,0,0,0,1,0v-2A.5.5,0,0,0,48.5,59.249Zm0-4a.5.5,0,0,0-.5.5v2a.5.5,0,0,0,1,0v-2A.5.5,0,0,0,48.5,55.249Zm0,48a.5.5,0,0,0-.5.5v2a.5.5,0,0,0,1,0v-2A.5.5,0,0,0,48.5,103.249Zm0-4a.5.5,0,0,0-.5.5v2a.5.5,0,0,0,1,0v-2A.5.5,0,0,0,48.5,99.249Zm0,8a.5.5,0,0,0-.5.5V108a.5.5,0,0,0,1,0v-.251A.5.5,0,0,0,48.5,107.249Zm0-12a.5.5,0,0,0-.5.5v2a.5.5,0,0,0,1,0v-2A.5.5,0,0,0,48.5,95.249Zm0-8a.5.5,0,0,0-.5.5v2a.5.5,0,0,0,1,0v-2A.5.5,0,0,0,48.5,87.249Zm0,4a.5.5,0,0,0-.5.5v2a.5.5,0,0,0,1,0v-2A.5.5,0,0,0,48.5,91.249Zm0-8a.5.5,0,0,0-.5.5v2a.5.5,0,0,0,1,0v-2A.5.5,0,0,0,48.5,83.249Zm0-4a.5.5,0,0,0-.5.5v2a.5.5,0,0,0,1,0v-2A.5.5,0,0,0,48.5,79.249Zm13-4a.5.5,0,0,0-.5.5v2a.5.5,0,0,0,1,0v-2A.5.5,0,0,0,61.5,75.249Zm0-4a.5.5,0,0,0-.5.5v2a.5.5,0,0,0,1,0v-2A.5.5,0,0,0,61.5,71.249Zm0,8a.5.5,0,0,0-.5.5v2a.5.5,0,0,0,1,0v-2A.5.5,0,0,0,61.5,79.249Zm0,4a.5.5,0,0,0-.5.5v2a.5.5,0,0,0,1,0v-2A.5.5,0,0,0,61.5,83.249Zm0-28a.5.5,0,0,0-.5.5v2a.5.5,0,0,0,1,0v-2A.5.5,0,0,0,61.5,55.249Zm0,8a.5.5,0,0,0-.5.5v2a.5.5,0,0,0,1,0v-2A.5.5,0,0,0,61.5,63.249Zm0,4a.5.5,0,0,0-.5.5v2a.5.5,0,0,0,1,0v-2A.5.5,0,0,0,61.5,67.249Zm0-8a.5.5,0,0,0-.5.5v2a.5.5,0,0,0,1,0v-2A.5.5,0,0,0,61.5,59.249Zm0,44a.5.5,0,0,0-.5.5v2a.5.5,0,0,0,1,0v-2A.5.5,0,0,0,61.5,103.249Zm0-4a.5.5,0,0,0-.5.5v2a.5.5,0,0,0,1,0v-2A.5.5,0,0,0,61.5,99.249Zm0,8a.5.5,0,0,0-.5.5V108a.5.5,0,0,0,1,0v-.251A.5.5,0,0,0,61.5,107.249Zm0-20a.5.5,0,0,0-.5.5v2a.5.5,0,0,0,1,0v-2A.5.5,0,0,0,61.5,87.249Zm0,4a.5.5,0,0,0-.5.5v2a.5.5,0,0,0,1,0v-2A.5.5,0,0,0,61.5,91.249Zm0,4a.5.5,0,0,0-.5.5v2a.5.5,0,0,0,1,0v-2A.5.5,0,0,0,61.5,95.249ZM18.226,50.908a.5.5,0,0,0-.834.553L18.5,53.128a.5.5,0,0,0,.832-.555Zm-2.18-3.346a.5.5,0,0,0-.842.541q.529.823,1.088,1.682a.5.5,0,0,0,.838-.547Q16.573,48.384,16.046,47.563Zm-1.922-3.427a.5.5,0,1,0-.907.42c.3.64.607,1.25.924,1.816a.5.5,0,1,0,.872-.488C14.708,45.34,14.41,44.751,14.124,44.136ZM12.17,38.57c-.157-.629-.3-1.271-.414-1.923a.5.5,0,0,0-.984.178c.122.673.266,1.337.427,1.987a.5.5,0,0,0,.485.379.516.516,0,0,0,.121-.015A.5.5,0,0,0,12.17,38.57Zm1.188,3.753c-.229-.6-.448-1.218-.651-1.858a.5.5,0,1,0-.953.3c.209.662.435,1.3.672,1.917a.5.5,0,1,0,.933-.359ZM22.69,57.541a.5.5,0,0,0-.825.564L23,59.755a.5.5,0,0,0,.824-.566Zm7.755-28.269a.5.5,0,1,0,.571-.82q-.821-.571-1.6-1.164a.5.5,0,1,0-.605.795Q29.605,28.689,30.445,29.272ZM27.235,64.12a.5.5,0,1,0-.82.572l1.146,1.641a.5.5,0,1,0,.819-.574Zm-2.281-3.285a.5.5,0,1,0-.822.568l1.14,1.645a.5.5,0,1,0,.821-.57ZM22.378,21.029a.5.5,0,0,0,.121-.7c-.385-.547-.742-1.1-1.06-1.645a.5.5,0,0,0-.863.506c.332.567.7,1.145,1.105,1.715a.5.5,0,0,0,.7.121Zm-1.933,33.2a.5.5,0,1,0-.829.559l1.122,1.659a.5.5,0,0,0,.827-.562ZM19.628,17.38a.5.5,0,1,0,.908-.418,18.786,18.786,0,0,1-.723-1.808.5.5,0,0,0-.947.322A19.7,19.7,0,0,0,19.628,17.38ZM41.476,42.094a.5.5,0,0,0-.637.307l-.66,1.888a.5.5,0,0,0,.307.637.489.489,0,0,0,.165.028.5.5,0,0,0,.472-.335l.66-1.888A.5.5,0,0,0,41.476,42.094ZM39.2,34.263q.907.426,1.835.831a.5.5,0,1,0,.4-.916q-.915-.4-1.809-.819a.5.5,0,1,0-.425.9Zm-28.165.991a.5.5,0,0,0,.443-.551c-.072-.659-.117-1.317-.136-1.956a.537.537,0,0,0-.515-.485.5.5,0,0,0-.485.515c.02.665.067,1.35.142,2.034a.5.5,0,0,0,.5.446Zm31.852.622.208.083-.272.777a.5.5,0,0,0,.307.637.489.489,0,0,0,.165.028.5.5,0,0,0,.472-.335l.43-1.229a.5.5,0,0,0-.29-.631l-.642-.257a.5.5,0,0,0-.378.926ZM29.527,67.4a.5.5,0,0,0-.818.574l1.15,1.638a.5.5,0,1,0,.817-.576ZM41.806,41.148a.489.489,0,0,0,.165.028.5.5,0,0,0,.472-.335l.66-1.888a.5.5,0,0,0-.944-.33l-.66,1.888A.5.5,0,0,0,41.806,41.148Zm-17.535-17.1A.5.5,0,0,0,25,23.357c-.456-.48-.894-.975-1.3-1.47a.5.5,0,0,0-.771.637C23.346,23.038,23.8,23.549,24.271,24.045Zm2.958,2.774a.5.5,0,1,0,.643-.766q-.764-.642-1.477-1.309a.5.5,0,0,0-.684.73Q26.444,26.16,27.229,26.819Zm8.37,5.623q.88.48,1.786.938a.5.5,0,0,0,.45-.893q-.891-.45-1.756-.922a.5.5,0,1,0-.479.877Zm-3.474-2.05q.843.538,1.72,1.055a.5.5,0,1,0,.508-.861q-.861-.508-1.69-1.037a.5.5,0,0,0-.538.844Zm6.71,19.252a.5.5,0,0,0-.637.307l-.66,1.889a.5.5,0,0,0,.307.637.489.489,0,0,0,.165.028.5.5,0,0,0,.472-.335l.66-1.889A.5.5,0,0,0,38.835,49.645ZM36.194,57.2a.5.5,0,0,0-.637.307l-.66,1.888a.5.5,0,0,0,.307.637.489.489,0,0,0,.165.028.5.5,0,0,0,.472-.335l.66-1.888A.5.5,0,0,0,36.194,57.2Zm1.32-3.775a.5.5,0,0,0-.637.307l-.66,1.888a.5.5,0,0,0,.307.637.489.489,0,0,0,.165.028.5.5,0,0,0,.472-.335l.66-1.888A.5.5,0,0,0,37.515,53.421Zm-5.281,15.1a.5.5,0,0,0-.637.307l-.66,1.888a.5.5,0,0,0,.307.637.489.489,0,0,0,.165.028.5.5,0,0,0,.472-.335l.66-1.888A.5.5,0,0,0,32.233,68.524Zm7.922-22.655a.5.5,0,0,0-.637.307l-.66,1.888a.5.5,0,0,0,.307.637.489.489,0,0,0,.165.028.5.5,0,0,0,.472-.335l.66-1.888A.5.5,0,0,0,40.155,45.869Zm-5.281,15.1a.5.5,0,0,0-.637.307l-.66,1.888a.5.5,0,0,0,.307.637.489.489,0,0,0,.165.028.5.5,0,0,0,.472-.335l.66-1.888A.5.5,0,0,0,34.874,60.973Zm-1.32,3.775a.5.5,0,0,0-.637.307l-.66,1.888a.5.5,0,0,0,.307.637.489.489,0,0,0,.165.028.5.5,0,0,0,.472-.335l.66-1.888A.5.5,0,0,0,33.554,64.748Zm18-21.248H50.5a.5.5,0,0,1,0-1h1.051a3.483,3.483,0,0,1,6.9,0H59.5a.5.5,0,0,1,0,1H58.449a3.483,3.483,0,0,1-6.9,0ZM52.5,43A2.5,2.5,0,1,0,55,40.5,2.5,2.5,0,0,0,52.5,43Zm6,21a3.5,3.5,0,0,1-3,3.449V68.5a.5.5,0,0,1-1,0v-1.05a3.483,3.483,0,0,1,0-6.9V59.5a.5.5,0,0,1,1,0v1.052A3.5,3.5,0,0,1,58.5,64Zm-1,0A2.5,2.5,0,1,0,55,66.5H55A2.5,2.5,0,0,0,57.5,64Zm52.236-9.628a.5.5,0,0,1-.458.3.491.491,0,0,1-.2-.043L96.643,49.143c-4.82,7.511-11.524,17.1-18.092,26.4a.5.5,0,0,1-.408.212.552.552,0,0,1-.069,0,.5.5,0,0,1-.4-.33L69.479,51.989H64V110a.5.5,0,0,1-1,0V51.989H62v1.76a.5.5,0,0,1-1,0v-1.76H49v1.76a.5.5,0,0,1-1,0v-1.76H47V110a.5.5,0,0,1-1,0V51.989H40.664L32.472,75.415a.5.5,0,0,1-.4.33.552.552,0,0,1-.069,0,.5.5,0,0,1-.408-.212C25.01,66.226,18.291,56.614,13.469,49.1L1.287,54.468a.491.491,0,0,1-.2.043.5.5,0,0,1-.2-.957l12.043-5.311q-.286-.456-.553-.913l-1.752.772a.508.508,0,0,1-.2.042.5.5,0,0,1-.2-.958l1.665-.734A22.749,22.749,0,0,1,8.843,33.072L1.28,36.285a.493.493,0,0,1-.2.04.5.5,0,0,1-.2-.96l7.832-3.327A.483.483,0,0,1,9,32.014a16.86,16.86,0,0,1,1.288-4.156l1.389-3.01c.011-.027.021-.056.032-.083,0-.011.014-.018.02-.029L19.546,7.79a.467.467,0,0,1,.028-.04.467.467,0,0,1,.125-.14c.013-.01.02-.024.034-.033C26.889,3.079,39.743.5,55,.5,70.176.5,82.969,3.053,90.146,7.507a.492.492,0,0,1,.451.283l9.262,20.067a16.858,16.858,0,0,1,1.287,4.151.482.482,0,0,1,.133.028l8.195,3.481a.5.5,0,0,1-.2.96.493.493,0,0,1-.2-.04l-7.776-3.3A22.8,22.8,0,0,1,98.232,46.5l.831.367a.5.5,0,0,1-.2.957.506.506,0,0,1-.2-.042l-.92-.405c-.179.3-.361.609-.553.913l12.293,5.422A.5.5,0,0,1,109.736,54.372ZM55,1.5c-14.916,0-27.458,2.474-34.5,6.788q-.013.661.029,1.317a.464.464,0,0,1,.042.046.494.494,0,0,1,0,.509c.421,4.354,2.606,8.526,6.369,12.326.385-.162.773-.323,1.171-.48a.5.5,0,1,1,.368.93c-.257.1-.506.207-.758.311q.448.422.921.838a71.985,71.985,0,0,1,52.819.039q.473-.413.92-.834c-.465-.193-.93-.385-1.413-.57a.5.5,0,1,1,.358-.934q.942.361,1.839.743c3.742-3.764,5.93-7.895,6.392-12.206-.486-.3-.991-.6-1.522-.874a.5.5,0,1,1,.465-.885c.4.208.764.433,1.139.653.011-.281.013-.562.009-.844C82.629,4,70.014,1.5,55,1.5ZM49.793,35H46.605l-.383,1.1A.487.487,0,0,1,46.5,36h1.932A7.517,7.517,0,0,1,49.793,35Zm30.8-10.141a70.956,70.956,0,0,0-51.08-.038A58.476,58.476,0,0,0,46.341,34H63.75c.012,0,.022.006.034.007A58.589,58.589,0,0,0,80.589,24.858Zm-40.2,24.891a.487.487,0,0,1-.075-.248.5.5,0,0,1,.325-.465L45.616,34.8c-15.773-5.932-25.1-14.765-26.042-24.538a.482.482,0,0,1-.03-.078L19,11.367v0a16.354,16.354,0,0,0,.3,1.915.5.5,0,0,1-.978.211c-.034-.155-.058-.312-.087-.469L12.605,25.216A15.443,15.443,0,0,0,12,26.96a.479.479,0,0,1-.344.319l-.461,1-.006.013a.5.5,0,0,1,.393.566c-.1.624-.172,1.275-.212,1.938a.5.5,0,0,1-.5.47h-.03a.5.5,0,0,1-.469-.529c.008-.13.032-.253.042-.382-1.6,5.318-.4,11.469,3.489,17.57C18.6,55.3,25.271,64.856,31.848,74.169Zm.619,1.26h5V50H44.5a.5.5,0,0,1,0-1h1.509V41.5A7.441,7.441,0,0,1,47.525,37H46.5a.494.494,0,0,1-.471-.354L41.709,49H42.5a.5.5,0,0,1,0,1H41.359Zm28.13,0L68.784,50H67.313a.5.5,0,0,1,0-1h1.121l-4.9-14H53.307a6.512,6.512,0,0,0-6.317,6.5v7.955a.119.119,0,0,1,0,.092v1.463ZM95.855,48.52a.487.487,0,0,1,.031-.257.493.493,0,0,1,.309-.269l.047-.073c3.713-5.828,4.969-11.7,3.682-16.847.008.124.03.242.036.366a.5.5,0,0,1-.477.521H99.46a.5.5,0,0,1-.5-.478,18.65,18.65,0,0,0-.189-1.937.5.5,0,0,1,.419-.569.425.425,0,0,1,.053,0c-.1-.235-.186-.472-.293-.7l-.124-.268a.5.5,0,0,1-.457-.36,15.761,15.761,0,0,0-.624-1.834.493.493,0,0,1-.033-.219L91.941,13.089a.5.5,0,0,1-.923-.32,12.535,12.535,0,0,0,.1-1.459l-.536-1.161C89.7,19.966,80.359,28.843,64.527,34.8l4.98,14.242a.5.5,0,0,1,.305.461.487.487,0,0,1-.064.231l.523,1.5a.477.477,0,0,1,.09.258l7.932,22.684C84.7,65.1,91.179,55.814,95.855,48.52ZM3.1,51.372a.508.508,0,0,0,.2-.042l1.83-.807a.5.5,0,0,0-.4-.916l-1.83.807a.5.5,0,0,0,.2.958Zm3.66-1.614a.508.508,0,0,0,.2-.042l1.83-.807a.5.5,0,0,0-.4-.916l-1.83.807a.5.5,0,0,0,.2.958Zm97.792-.469a.5.5,0,0,0-.4.916l1.83.807a.508.508,0,0,0,.2.042.5.5,0,0,0,.2-.958Zm-3.66-1.614a.5.5,0,0,0-.4.916l1.83.807a.506.506,0,0,0,.2.042.5.5,0,0,0,.2-.958ZM21.883,9.428a.493.493,0,0,0,.229-.056q.854-.439,1.778-.847a.5.5,0,0,0-.4-.916q-.951.42-1.833.874a.5.5,0,0,0,.229.944Zm31.2-5.914h.007Q54.045,3.5,55,3.5h.088a.464.464,0,0,0,.456-.5A.54.54,0,0,0,55,2.5q-.962,0-1.92.014a.5.5,0,0,0,.007,1Zm-4,.121h.023Q50.1,3.59,51.1,3.559a.5.5,0,0,0,.485-.516.516.516,0,0,0-.515-.484q-1.008.031-2.009.077a.5.5,0,0,0,.022,1Zm8-.117q1,.016,1.99.047h.016a.5.5,0,0,0,.015-1q-1-.031-2.006-.047a.5.5,0,0,0-.016,1Zm3.979.125q1,.047,1.989.111h.033a.5.5,0,0,0,.032-1q-1-.064-2.006-.111a.473.473,0,0,0-.523.476A.5.5,0,0,0,61.06,3.643Zm-19.951.642a.411.411,0,0,0,.06,0q.981-.116,1.979-.216a.5.5,0,1,0-.1-.994q-1.008.1-2,.218a.5.5,0,0,0,.059,1Zm-3.961.559a.458.458,0,0,0,.081-.007q.972-.158,1.967-.3a.5.5,0,0,0-.14-.99q-1,.142-1.988.3a.5.5,0,0,0,.08.993Zm7.942-.955.041,0q.987-.079,1.986-.143a.5.5,0,0,0,.468-.53.486.486,0,0,0-.53-.468q-1.008.063-2,.145a.5.5,0,0,0,.04,1Zm-11.873,1.7a.5.5,0,0,0,.106-.012q.959-.208,1.947-.4a.5.5,0,1,0-.187-.982q-1,.19-1.973.4a.5.5,0,0,0,.105.988Zm-3.88.971a.481.481,0,0,0,.138-.02q.939-.268,1.916-.512a.5.5,0,0,0-.242-.971q-.994.249-1.949.521a.5.5,0,0,0,.138.98Zm-3.8,1.251a.512.512,0,0,0,.177-.032q.905-.344,1.864-.658a.5.5,0,1,0-.312-.949q-.98.321-1.907.672a.5.5,0,0,0,.177.968ZM69,4.3q1,.122,1.973.261a.59.59,0,0,0,.071,0,.5.5,0,0,0,.07-1q-.987-.141-1.994-.263A.5.5,0,1,0,69,4.3Zm3.938.563q.992.164,1.957.35a.522.522,0,0,0,.095.009.5.5,0,0,0,.094-.991Q74.1,4.043,73.1,3.877a.491.491,0,0,0-.575.411A.5.5,0,0,0,72.935,4.863Zm11.5,2.974q.942.362,1.824.755a.5.5,0,0,0,.407-.914q-.9-.4-1.873-.774a.5.5,0,0,0-.358.934Zm-7.6-2.225q.982.215,1.931.455a.486.486,0,0,0,.123.016.5.5,0,0,0,.122-.984q-.963-.245-1.962-.463a.5.5,0,0,0-.214.977ZM65.034,3.9q1,.083,1.984.182l.051,0a.5.5,0,0,0,.05-1q-.993-.1-2-.184a.5.5,0,0,0-.083,1Zm15.65,2.687q.968.28,1.892.586a.49.49,0,0,0,.157.025.5.5,0,0,0,.157-.975q-.941-.312-1.929-.6a.5.5,0,0,0-.277.961ZM49.2,17.8a.5.5,0,0,0,.5.465h.036q.987-.07,1.984-.113a.5.5,0,0,0,.478-.521.525.525,0,0,0-.521-.479q-1.01.045-2.011.115A.5.5,0,0,0,49.2,17.8Zm4.486-.71a.5.5,0,0,0,.009,1h.009q.645-.012,1.291-.012l.7,0h0a.5.5,0,0,0,0-1l-.7,0Q54.344,17.083,53.69,17.095Zm11.48,1.171a.5.5,0,0,0,.426.564q.99.138,1.964.3a.48.48,0,0,0,.083.007.5.5,0,0,0,.082-.993q-.987-.166-1.99-.306A.5.5,0,0,0,65.17,18.266Zm7.861,1.472a.5.5,0,0,0,.362.606q.975.246,1.921.511a.5.5,0,0,0,.27-.963q-.958-.268-1.945-.517A.493.493,0,0,0,73.031,19.737ZM57.2,17.612a.5.5,0,0,0,.481.519q1,.037,1.985.1H59.7a.5.5,0,0,0,.03-1q-1-.062-2.01-.1A.516.516,0,0,0,57.2,17.612Zm3.992.225a.5.5,0,0,0,.454.542q1,.088,1.977.2l.057,0a.5.5,0,0,0,.056-1q-.995-.113-2-.2A.509.509,0,0,0,61.193,17.837Zm-27.7,2.842a.5.5,0,0,0,.48.36.539.539,0,0,0,.14-.02q.942-.275,1.914-.526a.5.5,0,0,0-.251-.969q-.986.256-1.943.534A.5.5,0,0,0,33.493,20.679Zm-3.8,1.254a.5.5,0,0,0,.471.332.483.483,0,0,0,.168-.029q.921-.328,1.879-.638a.5.5,0,1,0-.307-.951q-.973.312-1.909.647A.5.5,0,0,0,29.695,21.933Zm7.662-2.285a.5.5,0,0,0,.6.374q.959-.223,1.942-.421a.5.5,0,0,0-.2-.98q-1,.2-1.968.427A.5.5,0,0,0,37.357,19.647ZM76.89,20.791a.5.5,0,0,0,.328.627q.959.3,1.885.62a.5.5,0,0,0,.327-.945q-.939-.325-1.914-.63A.5.5,0,0,0,76.89,20.791ZM41.272,18.828a.5.5,0,0,0,.492.413.444.444,0,0,0,.087-.008q.972-.171,1.961-.318a.5.5,0,1,0-.146-.988q-1,.148-1.988.322A.5.5,0,0,0,41.272,18.828ZM69.12,18.9a.5.5,0,0,0,.4.587q.984.192,1.946.4a.519.519,0,0,0,.108.012.5.5,0,0,0,.107-.988q-.974-.215-1.971-.41A.5.5,0,0,0,69.12,18.9Zm-23.895-.683a.5.5,0,0,0,.5.438.438.438,0,0,0,.062,0q.981-.12,1.975-.216a.5.5,0,0,0-.1-1q-1.007.1-2,.22A.5.5,0,0,0,45.225,18.215Zm3.275,24.6a.5.5,0,0,0,.5-.5V41.5a4.514,4.514,0,0,1,.125-1.058.5.5,0,0,0-.369-.6.507.507,0,0,0-.6.369A5.514,5.514,0,0,0,48,41.5v.813A.5.5,0,0,0,48.5,42.813ZM57.313,49h-2a.5.5,0,0,0,0,1h2a.5.5,0,0,0,0-1Zm-4,0h-2a.5.5,0,0,0,0,1h2a.5.5,0,0,0,0-1Zm-2.1-11.377a.5.5,0,1,0-.511-.859,5.5,5.5,0,0,0-1.621,1.463.5.5,0,0,0,.8.6A4.5,4.5,0,0,1,51.211,37.623ZM61.313,49h-2a.5.5,0,0,0,0,1h2a.5.5,0,0,0,0-1Zm4,0h-2a.5.5,0,0,0,0,1h2a.5.5,0,0,0,0-1ZM60.83,37h2a.5.5,0,1,0,0-1h-2a.5.5,0,0,0,0,1Zm-4,0h2a.5.5,0,1,0,0-1h-2a.5.5,0,0,0,0,1Zm-4,.044a.389.389,0,0,0,.067,0A4.522,4.522,0,0,1,53.5,37h1.33a.5.5,0,1,0,0-1H53.5a5.51,5.51,0,0,0-.734.049.5.5,0,0,0,.066,1ZM48.5,46.813a.5.5,0,0,0,.5-.5v-2a.5.5,0,0,0-1,0v2A.5.5,0,0,0,48.5,46.813ZM49.313,49H49v-.687a.5.5,0,0,0-1,0V49.5a.5.5,0,0,0,.5.5h.813a.5.5,0,0,0,0-1ZM55,45a.5.5,0,0,0,0-1,1,1,0,1,1,1-1,.5.5,0,0,0,1,0,2,2,0,1,0-2,2Zm0,17a2,2,0,0,0,0,4,.5.5,0,0,0,0-1,1,1,0,1,1,1-1,.5.5,0,0,0,1,0A2,2,0,0,0,55,62Zm21.357.568-.66-1.888a.5.5,0,0,0-.944.33l.66,1.888a.5.5,0,0,0,.472.335.489.489,0,0,0,.165-.028A.5.5,0,0,0,76.357,62.568Zm1.98,5.664a.5.5,0,0,0-.944.33l.66,1.888a.5.5,0,0,0,.472.335.489.489,0,0,0,.165-.028A.5.5,0,0,0,79,70.12Zm1.915-.316L79.1,69.551a.5.5,0,0,0,.121.7.492.492,0,0,0,.288.092.5.5,0,0,0,.409-.212l1.15-1.637a.5.5,0,1,0-.818-.574Zm-5.215-9.123-.66-1.889a.5.5,0,0,0-.944.33l.66,1.889a.5.5,0,0,0,.472.335.489.489,0,0,0,.165-.028A.5.5,0,0,0,75.037,58.793ZM72.4,51.241l-.66-1.889a.5.5,0,0,0-.944.33l.66,1.889a.5.5,0,0,0,.472.335.489.489,0,0,0,.165-.028A.5.5,0,0,0,72.4,51.241Zm1.32,3.775-.66-1.888a.5.5,0,0,0-.944.33l.66,1.888a.5.5,0,0,0,.472.335.489.489,0,0,0,.165-.028A.5.5,0,0,0,73.716,55.017Zm3.961,11.327-.66-1.888a.5.5,0,0,0-.944.33l.66,1.888a.5.5,0,0,0,.472.335.489.489,0,0,0,.165-.028A.5.5,0,0,0,77.677,66.344Zm4.867-1.7L81.4,66.277a.5.5,0,0,0,.819.574l1.146-1.64a.5.5,0,1,0-.82-.572Zm8.363-47.771a16.26,16.26,0,0,0,.685-1.944.5.5,0,1,0-.963-.27,15.22,15.22,0,0,1-.643,1.823.5.5,0,0,0,.265.655.494.494,0,0,0,.2.04A.5.5,0,0,0,90.908,16.869Zm.659,34.569L90.458,53.1a.5.5,0,0,0,.831.557l1.11-1.666a.5.5,0,1,0-.833-.553ZM89.343,54.76l-1.122,1.653a.5.5,0,1,0,.826.563l1.125-1.657a.5.5,0,0,0-.829-.559Zm-4.516,6.6L83.688,63a.5.5,0,1,0,.821.57l1.14-1.644a.5.5,0,0,0-.822-.57Zm2.268-3.292-1.131,1.646a.5.5,0,0,0,.127.7.494.494,0,0,0,.284.089.5.5,0,0,0,.412-.216l1.133-1.65a.5.5,0,1,0-.825-.564Zm1.411-37.4a.5.5,0,0,0,.412-.216c.4-.575.761-1.159,1.084-1.735a.5.5,0,1,0-.873-.488c-.307.549-.655,1.106-1.034,1.655a.5.5,0,0,0,.128.7A.492.492,0,0,0,88.505,20.661ZM68.435,39.913l-.66-1.888a.5.5,0,0,0-.944.33l.66,1.888a.5.5,0,0,0,.472.335.489.489,0,0,0,.165-.028A.5.5,0,0,0,68.435,39.913Zm29.86-.07a.488.488,0,0,0,.139.02.5.5,0,0,0,.48-.361c.19-.658.357-1.321.5-1.972a.5.5,0,1,0-.978-.211c-.135.629-.3,1.27-.48,1.905A.5.5,0,0,0,98.295,39.843Zm-1.417,3.741a.493.493,0,0,0,.2.041.5.5,0,0,0,.459-.3c.262-.6.514-1.235.75-1.889a.5.5,0,1,0-.94-.34c-.229.634-.473,1.245-.727,1.83A.5.5,0,0,0,96.878,43.584Zm-25.8,3.881-.66-1.888a.5.5,0,0,0-.944.33l.66,1.888a.5.5,0,0,0,.472.335.489.489,0,0,0,.165-.028A.5.5,0,0,0,71.076,47.465Zm14.911-23.7a.5.5,0,0,0,.365-.158c.471-.5.921-1.018,1.339-1.529a.5.5,0,1,0-.774-.633c-.4.494-.839.991-1.3,1.479a.5.5,0,0,0,.365.842ZM99.2,35.948a.4.4,0,0,0,.067,0,.5.5,0,0,0,.5-.433c.093-.687.156-1.372.189-2.035a.5.5,0,0,0-.475-.523.47.47,0,0,0-.524.475c-.031.634-.092,1.29-.182,1.949A.5.5,0,0,0,99.2,35.948Zm-4.756,12a.5.5,0,0,0-.691.148q-.53.822-1.088,1.674a.5.5,0,0,0,.144.692.5.5,0,0,0,.692-.144q.56-.854,1.093-1.68A.5.5,0,0,0,94.445,47.948Zm2.005-3.461a.5.5,0,0,0-.673.218c-.306.6-.628,1.174-.957,1.715a.5.5,0,0,0,.854.52c.341-.562.675-1.16.992-1.779A.5.5,0,0,0,96.451,44.487ZM83.088,26.518a.5.5,0,0,0,.324-.119q.782-.668,1.508-1.356a.5.5,0,0,0-.689-.725q-.706.672-1.467,1.319a.5.5,0,0,0,.324.881Zm-15.973,9.62-.062-.179q.4-.161.8-.328a.5.5,0,0,0-.387-.922c-.407.171-.816.336-1.226.5a.5.5,0,0,0-.288.63l.22.63a.5.5,0,0,0,.472.335.489.489,0,0,0,.165-.028A.5.5,0,0,0,67.115,36.138Zm2.641,7.552L69.1,41.8a.5.5,0,0,0-.944.33l.66,1.888a.5.5,0,0,0,.472.335.489.489,0,0,0,.165-.028A.5.5,0,0,0,69.755,43.689ZM79.93,28.972a.5.5,0,0,0,.289-.093q.833-.592,1.623-1.2a.5.5,0,0,0-.612-.791q-.774.6-1.59,1.181a.5.5,0,0,0,.29.907Zm-10.436,5.9a.492.492,0,0,0,.2-.044q.921-.415,1.827-.854a.5.5,0,0,0-.437-.9q-.892.434-1.8.842a.5.5,0,0,0,.206.956Zm7.09-3.709a.5.5,0,0,0,.258-.072q.87-.526,1.708-1.076A.5.5,0,0,0,78,29.181q-.823.541-1.677,1.057a.5.5,0,0,0,.259.928ZM73.1,33.127a.5.5,0,0,0,.23-.057q.9-.469,1.774-.961a.5.5,0,0,0-.491-.871q-.861.485-1.745.945a.5.5,0,0,0,.231.943Z"/></g></g></g></svg>