<svg xmlns="http://www.w3.org/2000/svg" xmlns:xlink="http://www.w3.org/1999/xlink" width="110" height="110" viewBox="0 0 110 110"><defs><style>.cls-1{fill:url(#Безымянный_градиент_2047);}.cls-2{fill:#fff;}.cls-3{fill:#af9c94;}</style><radialGradient id="Безымянный_градиент_2047" cx="53.125" cy="54.333" r="52.875" gradientTransform="translate(0 -1.499) scale(1 1.028)" gradientUnits="userSpaceOnUse"><stop offset="0.666" stop-color="#fff"/><stop offset="0.771" stop-color="#fff" stop-opacity="0.652"/><stop offset="0.883" stop-color="#fff" stop-opacity="0.304"/><stop offset="0.962" stop-color="#fff" stop-opacity="0.085"/><stop offset="1" stop-color="#fff" stop-opacity="0"/></radialGradient></defs><title>Контрасты - Изнаночная обтачка рукава (узкая изнаночная)</title><g id="Контрасты"><g id="Изнаночная_обтачка_рукава_узкая_изнаночная_" data-name="Изнаночная обтачка рукава (узкая изнаночная)"><g id="Цвет-68" data-name="Цвет"><path class="cls-1" d="M106.75,0V91.583l2.833,10.917c-26.4-19.373-50.465-39-71.083-59l.083,64.5L0,107.833V0Z"/><path class="cls-2" d="M109.375,102.5,89.438,26.375C66.965,32.535,36,39.875,31,35.25c.7,1.333,1.818,2.943,5,5.92C56.366,61.192,81.564,81.712,109.375,102.5Z"/><path class="cls-3" d="M47.063,51.5A349,349,0,0,0,93.375,41.438L89.438,26.375c-17.873,4.82-34.062,8.875-48.312,10.25-4.179.4-7.783.146-10.125-1.375a10.181,10.181,0,0,0,2.625,3.438Z"/><path class="cls-2" d="M87.656,29.443l2.679,10.249a340.98,340.98,0,0,1-42.424,9.163L37.885,39.3c1.068,0,2.239-.062,3.48-.182,14.256-1.376,30.594-5.463,46.29-9.67m1.782-3.068c-17.873,4.82-34.062,8.875-48.312,10.25-1.135.109-2.228.17-3.264.17A12.678,12.678,0,0,1,31,35.25a10.181,10.181,0,0,0,2.625,3.438L47.063,51.5A349,349,0,0,0,93.375,41.438L89.438,26.375Z"/><path class="cls-2" d="M38.5,108h-8V34c.5,2.417,3.989,5.894,8,9.458Z"/><path class="cls-2" d="M36.542,11.542l-7.042,6V30.5A6.953,6.953,0,0,0,31,35.25c1.986,1.74,6.786,1.7,12.5,1.083V17.375Z"/></g><g id="Контур-68" data-name="Контур"><path d="M93.988,41.592a.487.487,0,0,0,0-.217.5.5,0,0,0-.1-.195l-3.9-14.807a.5.5,0,0,0-.608-.357C78.415,28.855,57.624,34.243,44,35.792V17.5a.5.5,0,0,0-.175-.38l-7-6a.5.5,0,0,0-.65,0l-7,6A.5.5,0,0,0,29,17.5v13a9.174,9.174,0,0,0,1,4.214V109.5a.5.5,0,0,0,1,0V36.339a19.938,19.938,0,0,0,2.146,2.513c1.585,1.591,3.21,3.188,4.854,4.788V109.5a.5.5,0,0,0,1,0V44.609C58.1,63.092,81.143,82.225,109.2,102.9a.5.5,0,0,0,.3.1.5.5,0,0,0,.483-.627Zm-62.895-7.1a.782.782,0,0,1-.248-.348A8.2,8.2,0,0,1,30,30.5V17.729l6.5-5.571L43,17.729V35.9C36.757,36.538,32.2,36.29,31.094,34.489Zm1.27,2.012c7.586,2.624,31.488-2.848,56.78-9.393l3.7,14.045c-16.1,4.168-34.014,8.539-45.764,9.727Q40.155,44.46,33.854,38.147A21.439,21.439,0,0,1,32.363,36.5ZM48.046,51.779c11.819-1.315,29.293-5.581,45.048-9.658l15.561,59.135A721.385,721.385,0,0,1,48.046,51.779Z"/></g></g></g></svg>