<svg xmlns="http://www.w3.org/2000/svg" xmlns:xlink="http://www.w3.org/1999/xlink" width="110" height="110" viewBox="0 0 110 110"><defs><style>.cls-1{fill:url(#Безымянный_градиент_315);}.cls-2{fill:#af9c94;}</style><radialGradient id="Безымянный_градиент_315" cx="42.333" cy="5.667" r="102.842" gradientUnits="userSpaceOnUse"><stop offset="0.622" stop-color="#fff"/><stop offset="1" stop-color="#fff" stop-opacity="0"/></radialGradient></defs><title>Контрасты - Листочка</title><g id="Контрасты"><g id="Листочка-2" data-name="Листочка"><g id="Цвет-75" data-name="Цвет"><polygon class="cls-1" points="2.583 22.167 11.333 18.417 11.917 16.667 17.583 4.417 37.417 0.417 57.5 4.417 63.25 16.667 63.667 18.5 101.417 34.5 108.75 47.583 98.167 108.25 89.417 93.917 88.5 107.833 2.583 107.917 2.583 22.167"/></g><g id="Контур-75" data-name="Контур"><rect class="cls-2" x="52.5" y="63.498" width="28" height="6"/><path d="M38,34.051V33.5a.5.5,0,0,0-1,0v.551a2.5,2.5,0,0,0,0,4.9V39.5a.5.5,0,0,0,1,0v-.551a2.5,2.5,0,0,0,0-4.9ZM37.5,38A1.5,1.5,0,1,1,39,36.5,1.5,1.5,0,0,1,37.5,38ZM38,60.051V59.5a.5.5,0,0,0-1,0v.551a2.5,2.5,0,0,0,0,4.9V65.5a.5.5,0,0,0,1,0v-.551a2.5,2.5,0,0,0,0-4.9ZM37.5,64A1.5,1.5,0,1,1,39,62.5,1.5,1.5,0,0,1,37.5,64ZM38,86.051V85.5a.5.5,0,0,0-1,0v.551a2.5,2.5,0,0,0,0,4.9V91.5a.5.5,0,0,0,1,0v-.551a2.5,2.5,0,0,0,0-4.9ZM37.5,90A1.5,1.5,0,1,1,39,88.5,1.5,1.5,0,0,1,37.5,90Zm72.057-41.912c-2.44-4.735-5.006-9.393-7.626-13.842a.455.455,0,0,0-.037-.041.476.476,0,0,0-.066-.074.483.483,0,0,0-.087-.06.445.445,0,0,0-.045-.032l-37.667-16c-.012-.005-.024,0-.036-.008a9.845,9.845,0,0,0-.706-2.275L57.994,4.29A.5.5,0,0,0,57.6,4C53.455,1.459,46.131,0,37.459,0,28.7,0,21.315,1.486,17.194,4.077c-.012.007-.018.02-.029.028a.485.485,0,0,0-.09.085.477.477,0,0,0-.04.058.454.454,0,0,0-.029.042L11.714,15.756a9.854,9.854,0,0,0-.707,2.276c-.012,0-.024,0-.036.007L1.184,22.2a.5.5,0,0,0,.2.96.493.493,0,0,0,.2-.04l9.281-3.942a13.827,13.827,0,0,0,2.262,8.219L1.177,32.678a.5.5,0,1,0,.4.914l12.067-5.34c2.749,4.276,6.542,9.7,10.261,14.963a.5.5,0,0,0,.408.212.552.552,0,0,0,.069,0,.5.5,0,0,0,.4-.33l4.581-13.1H32V109.5a.5.5,0,0,0,1,0V29.989h9V109.5a.5.5,0,0,0,1,0V29.989h2.63l4.581,13.1a.5.5,0,0,0,.4.33.552.552,0,0,0,.069,0,.5.5,0,0,0,.408-.212c3.711-5.25,7.5-10.665,10.244-14.936L97.041,44.01c-4.478,13.918-7.494,35.506-9.165,65.461a.5.5,0,0,0,.471.527h.028a.5.5,0,0,0,.5-.472q.417-7.472.946-14.243a89.311,89.311,0,0,1,8.293,13.894.5.5,0,1,0,.9-.43,90.232,90.232,0,0,0-9.074-14.993c2.294-28.408,6.108-47.546,11.581-58.219,2.452,4.2,4.855,8.565,7.145,13.009a.5.5,0,1,0,.889-.459ZM57.033,4.83c0,3.083-1.562,6.029-4.5,8.634a41.333,41.333,0,0,0-30.083-.022c-2.939-2.612-4.5-5.568-4.48-8.659C21.978,2.378,29.05,1,37.459,1,45.924,1,53.035,2.4,57.033,4.83ZM42.7,19.042A.494.494,0,0,0,42.5,19h-10a.494.494,0,0,0-.2.043,33.4,33.4,0,0,1-8.975-4.869,40.362,40.362,0,0,1,28.325.021A33.442,33.442,0,0,1,42.7,19.042Zm-18.535,22.8c-3.68-5.213-7.386-10.53-10.01-14.65-2.476-3.885-3.021-7.8-1.534-11.02L17.09,6.494c.893,5.354,6.125,10.163,14.735,13.444ZM32.863,20h.844A4.475,4.475,0,0,0,32,23.5v5.509H29.713Zm9.685,9.01a.125.125,0,0,0-.1,0H33V23.5A3.5,3.5,0,0,1,36.5,20h5.637l3.15,9.009Zm8.286,12.837L43.175,19.938c8.61-3.281,13.843-8.09,14.735-13.444l4.468,9.682c1.486,3.221.941,7.135-1.534,11.02C58.22,31.315,54.514,36.633,50.834,41.846Zm46.517,1.208L61.867,27.42a13.843,13.843,0,0,0,2.278-8.247L100.8,34.746A56.944,56.944,0,0,0,97.351,43.054ZM80.5,63h-28a.5.5,0,0,0-.5.5v6a.5.5,0,0,0,.5.5h28a.5.5,0,0,0,.5-.5v-6A.5.5,0,0,0,80.5,63ZM80,69H53V64H80ZM40.5,24h-.551a2.5,2.5,0,0,0-4.9,0H34.5a.5.5,0,0,0,0,1h.551a2.5,2.5,0,0,0,4.9,0H40.5a.5.5,0,0,0,0-1Zm-3,2A1.5,1.5,0,1,1,39,24.5,1.5,1.5,0,0,1,37.5,26Z"/></g></g></g></svg>