<svg xmlns="http://www.w3.org/2000/svg" width="110" height="110" viewBox="0 0 110 110"><defs><style>.cls-1{fill:#fff;}.cls-2{fill:#af9c94;}</style></defs><title>Контрасты - Манжет внутри</title><g id="Контрасты"><g id="Манжет_внутри" data-name="Манжет внутри"><g id="Цвет-60" data-name="Цвет"><path class="cls-1" d="M.5,94.751V15c0-3.769,10.839-7.031,25.352-8.923,15.242-1.987,37.232-3.16,51.482-2.41a3.585,3.585,0,0,1,2.792,1.958c14.792,1.958,29.4,4.452,29.375,9.5-.083,19.875,0,59.25,0,79.75,0,7.517-31.875,10.87-56.625,10.625C27,105.245.5,101.5.5,94.751Z"/><ellipse class="cls-2" cx="55" cy="95.001" rx="54.5" ry="10.5"/><path class="cls-1" d="M67.6,3.439v2.5c3.538,0,6.77.076,9.607.225a1.237,1.237,0,0,1,.724.651l.607,1.122L79.8,8.1A165.952,165.952,0,0,1,99.71,11.629C106.578,13.5,107,15.1,107,15.115c-.058,13.807-.036,36.634-.016,56.774.008,8.695.016,16.722.016,22.986,0,.619-2.686,3.379-15.829,5.576a230.2,230.2,0,0,1-35.755,2.561q-1.27,0-2.516-.012c-13.225-.131-26.151-1.187-35.464-2.9C3.848,97.606,3,94.778,3,94.751V15.1c.565-1.037,5.847-4.286,23.175-6.545A351.3,351.3,0,0,1,67.6,5.939v-2.5m0,0A353.215,353.215,0,0,0,25.852,6.077C11.339,7.97.5,11.232.5,15v79.75C.5,101.5,27,105.245,52.875,105.5q1.26.012,2.541.012c24.334,0,54.084-3.376,54.084-10.637,0-20.5-.083-59.875,0-79.75.021-5.048-14.583-7.542-29.375-9.5a3.585,3.585,0,0,0-2.792-1.958c-2.956-.156-6.245-.228-9.738-.228Z"/></g><g id="Контур-60" data-name="Контур"><path d="M80.471,5.213a4.46,4.46,0,0,0-3.666-2.1A341.971,341.971,0,0,0,27.5,5.337C21.052,6.067,0,8.921,0,15V95c0,6.886,27.965,11,55,11s55-4.114,55-11V15C110,8.731,87.615,5.942,80.471,5.213ZM1,90.334c0-.855.7-1.735,2.067-2.614a.5.5,0,0,0-.539-.842A7.913,7.913,0,0,0,1,88.114V19.733a.486.486,0,0,0,.048-.109c.2-.8,1.052-1.66,2.468-2.488a.5.5,0,0,0-.506-.863A8.875,8.875,0,0,0,1,17.808V15c0-2.816,8.229-6.59,26.616-8.67A340.152,340.152,0,0,1,76.775,4.115,3.487,3.487,0,0,1,80.167,7.63V57.86a7.938,7.938,0,0,1-2.339,5.647L59.683,81.652A7.989,7.989,0,0,1,54.1,83.987c-.371,0-.732.017-1.1.023-23.412.174-46.97,3.4-52,8.817ZM55,105C22.7,105,1,99.83,1,95a2.635,2.635,0,0,1,1.069-1.876,16.525,16.525,0,0,0,3.309,1.766.492.492,0,0,0,.191.038.5.5,0,0,0,.191-.962,16.511,16.511,0,0,1-2.855-1.474c4.072-2.713,14.5-5.228,29.284-6.54a.563.563,0,0,0,.228.047c6.459-.545,13.382-.872,20.575-.988.667,0,1.332-.01,2.008-.01,26.72,0,46.17,3.539,52.1,7.495a14.624,14.624,0,0,1-1.984,1.088.5.5,0,0,0,.42.908,14.71,14.71,0,0,0,2.4-1.365A2.631,2.631,0,0,1,109,95C109,99.83,87.3,105,55,105ZM107.447,17.75A3.077,3.077,0,0,1,109,20V89.05a.494.494,0,0,0-.154.587,1.726,1.726,0,0,1,.154.7v2.494c-4.955-5.33-27.87-8.543-50.922-8.807a8.927,8.927,0,0,0,2.312-1.661l1.93-1.93c1.289.034,2.567.075,3.825.125h.021a.5.5,0,0,0,.021-1c-.953-.038-1.925-.066-2.9-.095L78.535,64.215a8.931,8.931,0,0,0,2.632-6.354V11.3c1.19.126,2.363.257,3.5.4a.462.462,0,0,0,.063,0,.5.5,0,0,0,.062-1c-1.174-.146-2.388-.283-3.621-.412V7.63a4.547,4.547,0,0,0-.226-1.362C100.311,8.3,109,12.1,109,15v2.794a6.923,6.923,0,0,0-.959-.849.5.5,0,0,0-.594.8ZM91.565,12.722q-1.891-.33-3.937-.626a.5.5,0,0,1-.424-.566.509.509,0,0,1,.566-.424q2.06.3,3.967.632a.5.5,0,0,1-.085.992A.436.436,0,0,1,91.565,12.722Zm9.345,1.617a.5.5,0,0,1,.626-.329,34.032,34.032,0,0,1,3.806,1.412.5.5,0,0,1-.205.956.491.491,0,0,1-.205-.044,33,33,0,0,0-3.692-1.369A.5.5,0,0,1,100.91,14.339Zm-2.535-.181c-1.193-.3-2.5-.6-3.877-.882a.5.5,0,0,1,.2-.98c1.4.284,2.716.585,3.926.894a.5.5,0,0,1-.248.969Zm5.448,70.969a19.883,19.883,0,0,1,3.688,1.785.5.5,0,0,1-.543.84,18.885,18.885,0,0,0-3.5-1.689.5.5,0,0,1,.355-.936ZM80.632,81.064a.5.5,0,0,1-.5.45.43.43,0,0,1-.051,0q-1.944-.195-3.976-.36a.5.5,0,0,1,.08-1q2.042.166,4,.362A.5.5,0,0,1,80.632,81.064Zm20.647,3.719a.5.5,0,0,1-.479.357.519.519,0,0,1-.143-.021c-1.17-.35-2.462-.687-3.841-1.007a.5.5,0,1,1,.227-.975c1.4.324,2.71.668,3.9,1.022A.5.5,0,0,1,101.279,84.783ZM73.656,80.465a.5.5,0,0,1-.5.466h-.035q-1.96-.133-3.986-.239a.5.5,0,0,1-.473-.525.487.487,0,0,1,.525-.473q2.032.105,4,.239A.5.5,0,0,1,73.656,80.465Zm13.926,1.45a.5.5,0,0,1-.494.431.567.567,0,0,1-.07,0q-1.915-.268-3.956-.506a.5.5,0,0,1,.115-.994q2.051.239,3.979.51A.5.5,0,0,1,87.582,81.915Zm6.9,1.18a.5.5,0,0,1-.489.4.48.48,0,0,1-.1-.01q-1.871-.368-3.923-.7a.5.5,0,0,1,.16-.986q2.067.335,3.956.707A.5.5,0,0,1,94.486,83.095Zm-47.647-74a.5.5,0,0,1,.471-.527q2.013-.113,4-.2a.478.478,0,0,1,.521.477.5.5,0,0,1-.477.521q-1.982.091-3.988.2h-.028A.5.5,0,0,1,46.839,9.093ZM60.822,8.55a.5.5,0,0,1,.491-.509q2.01-.035,4-.049a.473.473,0,0,1,.5.5.5.5,0,0,1-.5.5q-1.989.013-3.993.049h-.009A.5.5,0,0,1,60.822,8.55Zm7-.064a.5.5,0,0,1,.5-.5h0c1.329,0,2.667.014,4.006.033a.5.5,0,0,1-.007,1h-.007c-1.335-.02-2.669-.031-3.994-.033A.5.5,0,0,1,67.82,8.485Zm-13.993.269a.5.5,0,0,1,.481-.519q2.011-.075,4-.127h.014a.5.5,0,0,1,.014,1q-1.988.053-3.992.127h-.019A.5.5,0,0,1,53.827,8.754ZM57.576,77.4a.5.5,0,0,1,0,.707l-.722.722A5.478,5.478,0,0,1,53.938,80.3l-.052,0a.5.5,0,0,1-.05-1,4.51,4.51,0,0,0,2.313-1.188l.721-.721A.5.5,0,0,1,57.576,77.4Zm9.9-9.9a.5.5,0,0,1,0,.707l-2.828,2.828a.5.5,0,0,1-.707-.707L66.769,67.5A.5.5,0,0,1,67.476,67.5Zm-4.949,4.949a.5.5,0,0,1,0,.707L59.7,75.981a.5.5,0,0,1-.707-.707l2.829-2.829A.5.5,0,0,1,62.526,72.445ZM76.167,50.24v4a.5.5,0,1,1-1,0v-4a.5.5,0,0,1,1,0Zm0-7v4a.5.5,0,1,1-1,0v-4a.5.5,0,0,1,1,0ZM39.858,9.564a.5.5,0,0,1,.462-.536q2.01-.151,3.994-.279a.5.5,0,1,1,.064,1q-1.979.129-3.984.279h-.038A.5.5,0,0,1,39.858,9.564ZM51.388,79.841a.5.5,0,0,1-.491.509q-2.02.035-3.994.1h-.016a.5.5,0,0,1-.016-1q1.98-.062,4.008-.1A.493.493,0,0,1,51.388,79.841Zm24.779-43.6v4a.5.5,0,1,1-1,0v-4a.5.5,0,0,1,1,0ZM74.82,8.565a.534.534,0,0,1,.513-.487l.347.009a.5.5,0,0,1,.487.5V12.24a.5.5,0,1,1-1,0V9.054A.5.5,0,0,1,74.82,8.565Zm1.347,6.675v4a.5.5,0,1,1-1,0v-4a.5.5,0,0,1,1,0Zm0,7v4a.5.5,0,1,1-1,0v-4a.5.5,0,0,1,1,0Zm0,7v4a.5.5,0,1,1-1,0v-4a.5.5,0,0,1,1,0ZM73.84,61.132a.5.5,0,0,1,0-.707l.451-.451a2.973,2.973,0,0,0,.876-2.112V57.24a.5.5,0,0,1,1,0v.621A3.964,3.964,0,0,1,75,60.681l-.451.451a.5.5,0,0,1-.707,0Zm-1.414,1.414a.5.5,0,0,1,0,.707L69.6,66.082a.5.5,0,0,1-.707-.707l2.829-2.829A.5.5,0,0,1,72.426,62.546ZM12.163,13.453a.5.5,0,0,1,.366-.6c1.233-.3,2.554-.6,3.926-.873a.5.5,0,0,1,.2.98c-1.358.272-2.665.563-3.885.863a.5.5,0,0,1-.6-.366Zm6.352,69.09a.5.5,0,0,1,.41-.576q1.907-.322,3.969-.609a.509.509,0,0,1,.564.426.5.5,0,0,1-.426.564q-2.045.284-3.941.605a.487.487,0,0,1-.084.007A.5.5,0,0,1,18.515,82.543ZM19.01,12a.5.5,0,0,1,.406-.578q1.91-.334,3.965-.635a.512.512,0,0,1,.567.423.5.5,0,0,1-.423.567q-2.038.3-3.937.629a.436.436,0,0,1-.087.008A.5.5,0,0,1,19.01,12ZM11.659,83.968a.5.5,0,0,1,.367-.6c1.214-.3,2.536-.585,3.932-.857a.5.5,0,1,1,.191.98c-1.38.271-2.688.556-3.887.848a.5.5,0,0,1-.6-.367ZM5.5,15.595a.5.5,0,0,1,.277-.65c1.116-.45,2.405-.891,3.829-1.311a.5.5,0,0,1,.283.959C8.5,15,7.24,15.434,6.152,15.872a.5.5,0,0,1-.65-.277ZM5.008,86.134a.5.5,0,0,1,.269-.653A37.478,37.478,0,0,1,9.1,84.146a.5.5,0,1,1,.283.959,36.943,36.943,0,0,0-3.727,1.3.5.5,0,0,1-.653-.269Zm34.384-5.854a.5.5,0,0,1,.471-.527q1.972-.111,4-.2a.485.485,0,0,1,.521.479.5.5,0,0,1-.479.521q-2.024.085-3.99.2h-.028A.5.5,0,0,1,39.392,80.279Zm-6.984.512a.5.5,0,0,1,.455-.541q1.96-.168,4-.31a.5.5,0,1,1,.068,1q-2.029.141-3.981.308l-.044,0A.5.5,0,0,1,32.407,80.791Zm.481-70.627a.5.5,0,0,1,.451-.545q2.008-.187,3.988-.352a.516.516,0,0,1,.539.457.5.5,0,0,1-.457.539q-1.975.164-3.977.352l-.048,0A.5.5,0,0,1,32.889,10.164Zm-6.957.776a.5.5,0,0,1,.433-.56q1.942-.246,3.984-.465a.509.509,0,0,1,.55.444.5.5,0,0,1-.444.55q-2.029.217-3.963.463a.476.476,0,0,1-.064,0A.5.5,0,0,1,25.932,10.94Zm-.488,70.585a.5.5,0,0,1,.436-.557q1.941-.236,3.988-.44a.5.5,0,0,1,.1.994q-2.035.205-3.967.438a.434.434,0,0,1-.062,0A.5.5,0,0,1,25.443,81.525ZM54.487,100.5a.5.5,0,0,1-.5.5h0q-2.023-.007-4.008-.042a.5.5,0,0,1,.009-1H50q1.978.035,3.994.042A.5.5,0,0,1,54.487,100.5Zm20.987-.766a.5.5,0,0,1-.461.537q-1.966.148-4,.269h-.029a.5.5,0,0,1-.029-1q2.026-.12,3.983-.269A.486.486,0,0,1,75.475,99.735Zm-13.985.691a.5.5,0,0,1-.489.511q-1.983.042-4.008.057h0a.5.5,0,0,1,0-1q2.017-.015,3.994-.057h.011A.5.5,0,0,1,61.489,100.427Zm7-.249a.5.5,0,0,1-.476.522q-1.975.1-4.006.159h-.016a.5.5,0,0,1-.016-1q2.021-.064,3.99-.157A.479.479,0,0,1,68.486,100.178Zm-21,.226a.5.5,0,0,1-.5.485h-.015q-2.026-.059-4-.144a.5.5,0,1,1,.043-1q1.97.085,3.991.144A.5.5,0,0,1,47.487,100.4Zm55.521-5.425a.5.5,0,0,1-.311.635c-1.153.4-2.456.781-3.873,1.147a.5.5,0,1,1-.25-.969c1.392-.359,2.67-.737,3.8-1.124A.5.5,0,0,1,103.008,94.979Zm-13.622,3.17a.5.5,0,0,1-.418.57q-1.92.294-3.977.555a.462.462,0,0,1-.063,0,.5.5,0,0,1-.062-1q2.041-.258,3.949-.551A.5.5,0,0,1,89.386,98.148Zm6.882-1.288a.5.5,0,0,1-.382.595c-1.239.27-2.566.53-3.945.773a.446.446,0,0,1-.088.008.5.5,0,0,1-.086-.992c1.365-.241,2.68-.5,3.906-.766A.5.5,0,0,1,96.268,96.86ZM82.445,99.076a.5.5,0,0,1-.442.552q-1.948.212-3.991.4l-.046,0a.5.5,0,0,1-.044-1q2.033-.183,3.972-.395A.505.505,0,0,1,82.445,99.076ZM12.731,96.633a.5.5,0,0,1-.6.367c-1.408-.343-2.717-.705-3.889-1.077a.5.5,0,0,1,.3-.953c1.15.365,2.437.722,3.822,1.06A.5.5,0,0,1,12.731,96.633Zm13.8,2.324a.5.5,0,0,1-.5.44.42.42,0,0,1-.061,0q-2.052-.246-3.979-.529a.5.5,0,0,1-.423-.567.509.509,0,0,1,.567-.423q1.913.281,3.953.527A.5.5,0,0,1,26.535,98.957ZM19.6,97.985a.5.5,0,0,1-.492.417.487.487,0,0,1-.084-.007c-1.363-.229-2.692-.478-3.951-.737a.5.5,0,0,1,.2-.979c1.247.256,2.564.5,3.916.729A.5.5,0,0,1,19.6,97.985Zm20.887,2.141a.5.5,0,0,1-.5.473h-.027q-2.035-.113-4-.253a.5.5,0,0,1,.072-1q1.957.141,3.984.253A.5.5,0,0,1,40.489,100.126ZM33.5,99.652a.5.5,0,0,1-.5.458l-.043,0q-2.042-.173-3.993-.378a.5.5,0,1,1,.1-.994q1.941.2,3.974.376A.5.5,0,0,1,33.5,99.652Zm22-66.714a9.573,9.573,0,0,0-9.3,7.393q-1.435.091-2.883.193A2.5,2.5,0,0,0,41,43.2a2.507,2.507,0,0,0,2.492,2.321c.062,0,.122,0,.181-.006q1.354-.1,2.694-.182a9.557,9.557,0,0,0,18.442-.671q1.31-.011,2.622-.012h.236a2.5,2.5,0,1,0,0-5q-1.52,0-3.036.015A9.58,9.58,0,0,0,55.5,32.938ZM43.595,44.516l-.1,0a1.5,1.5,0,0,1-1.132-2.482,1.488,1.488,0,0,1,1.025-.514c.882-.063,1.756-.12,2.63-.176a9.586,9.586,0,0,0-.069,1.006q-1.244.08-2.488.168a.5.5,0,0,0,.034,1h.036q1.228-.088,2.453-.166a9.528,9.528,0,0,0,.139.993C45.282,44.4,44.443,44.454,43.595,44.516ZM55.5,50.938A8.438,8.438,0,1,1,63.938,42.5,8.447,8.447,0,0,1,55.5,50.938ZM67.668,40.647a1.5,1.5,0,0,1,1.5,1.5,1.5,1.5,0,0,1-1.5,1.5H67.43q-1.224,0-2.444.011a9.592,9.592,0,0,0,.069-1q1.3-.009,2.612-.011a.5.5,0,0,0,0-1c-.875,0-1.763,0-2.647.011a9.532,9.532,0,0,0-.139-1Q66.274,40.649,67.668,40.647ZM62,42.5a.5.5,0,0,1-1,0A5.5,5.5,0,1,0,55.5,48a.5.5,0,0,1,0,1A6.5,6.5,0,1,1,62,42.5Zm-7-2a1.5,1.5,0,1,0-2,1.408v1.184a1.5,1.5,0,1,0,1,0V41.909A1.5,1.5,0,0,0,55,40.5ZM53.5,40a.5.5,0,1,1-.5.5A.5.5,0,0,1,53.5,40Zm0,5a.5.5,0,1,1,.5-.5A.5.5,0,0,1,53.5,45ZM59,40.5a1.5,1.5,0,1,0-2,1.408v1.184a1.5,1.5,0,1,0,1,0V41.909A1.5,1.5,0,0,0,59,40.5ZM57.5,40a.5.5,0,1,1-.5.5A.5.5,0,0,1,57.5,40Zm0,5a.5.5,0,1,1,.5-.5A.5.5,0,0,1,57.5,45Z"/></g></g></g></svg>