<?xml version="1.0" encoding="utf-8"?>
<!-- Generator: Adobe Illustrator 22.1.0, SVG Export Plug-In . SVG Version: 6.00 Build 0)  -->
<svg version="1.1" id="Слой_1" xmlns="http://www.w3.org/2000/svg" xmlns:xlink="http://www.w3.org/1999/xlink" x="0px" y="0px"
	 viewBox="0 0 165 165" style="enable-background:new 0 0 165 165;" xml:space="preserve">
<style type="text/css">
	.st0{fill:#7C3AFF;}
</style>
<g>
	<path class="st0" d="M149.3,19.7l-4.4-2.7c-0.7-0.4-1.5-0.1-1.8,0.5c-0.3,0.6-0.2,1.3,0.4,1.6l2.6,1.6l-2.6,1.5
		c-0.6,0.4-0.7,1.2-0.4,1.8c0.3,0.6,1,0.7,1.8,0.4l4.4-2.7c0.3-0.1,0.4-0.3,0.4-0.4C150.1,20.7,149.9,19.9,149.3,19.7z"/>
	<path class="st0" d="M136.7,62.4c-0.7-0.7-1.8-1.2-3-1.2s-2.2,0.4-3,1.2h-0.1c-0.7,0.9-1.2,2-1.2,3.2c0,1.2,0.4,2.2,1.2,3
		c0.9,0.7,1.9,1.3,3.1,1.3s2.2-0.4,3-1.3c0.9-0.8,1.3-1.8,1.3-3c0-1.2-0.4-2.2-1.2-3L136.7,62.4z M135,66.8
		c-0.3,0.3-0.7,0.6-1.2,0.6c-0.6,0-1-0.3-1.3-0.6c-0.3-0.3-0.5-0.7-0.5-1.2c0-0.6,0.2-1.1,0.5-1.3c0.3-0.3,0.7-0.4,1.3-0.4
		c0.4,0,0.9,0.1,1.2,0.4c0.5,0.3,0.6,0.7,0.6,1.3C135.6,66,135.4,66.5,135,66.8z"/>
	<path class="st0" d="M136.3,35.3l0.1-0.1c0.3-0.9,0.5-1.6,0.6-2.5v-2v-0.3c-0.1-1-0.4-2.2-0.9-3.1c-0.6-1-1.3-2-2.2-2.8L118,10.7
		c-0.7-0.7-1.8-1.3-2.8-1.6c-1-0.5-2.1-0.6-3.2-0.6c-1.3,0-2.7,0.3-3.9,0.9c-1.2,0.6-2.2,1.3-3.1,2.4l-9,10.5
		c-0.4,0.6-0.3,1.3,0.1,1.8l28.1,24.2c0.6,0.6,1.3,0.5,1.8,0l8.8-10.6C135.4,37,136,36.1,136.3,35.3z M134.5,32.3
		c0,0.7-0.2,1.3-0.5,2c-0.3,0.6-0.6,1.2-1.2,1.6l-8,9.6L98.7,23l8.1-9.6c0.6-0.7,1.5-1.3,2.2-1.8c0.9-0.5,1.9-0.6,2.8-0.6
		c0.9,0,1.6,0.1,2.4,0.3c0.7,0.3,1.5,0.7,2.1,1.3l15.9,13.7c0.6,0.6,1.2,1.3,1.6,2.1c0.3,0.6,0.6,1.5,0.6,2.2L134.5,32.3z"/>
	<path class="st0" d="M95.4,24.9c-0.6-0.5-1.3-0.3-1.8,0.1L87,32.8c-0.5,0.6-0.3,1.4,0.1,1.8l28,24.3c0.6,0.5,1.3,0.3,1.8-0.1
		l6.6-7.8c0.5-0.6,0.3-1.4-0.1-1.8L95.4,24.9z M115.9,56L89.8,33.5l4.9-5.8l26.1,22.5L115.9,56z"/>
	<path class="st0" d="M75.1,124.4c-0.9,0-1.8,0.4-2.4,1c-0.6,0.6-0.9,1.5-0.9,2.4s0.3,1.8,0.9,2.4c0.6,0.6,1.5,0.9,2.4,0.9
		c0.9,0,1.8-0.3,2.4-0.9c0.6-0.6,1-1.5,1-2.4c0-0.9-0.4-1.8-1-2.4C76.9,124.8,76,124.4,75.1,124.4z M75.7,128.4
		c-0.2,0.1-0.3,0.1-0.6,0.1c-0.1,0-0.5,0-0.6-0.1s-0.1-0.5-0.1-0.6c0-0.3,0-0.5,0.1-0.6c0.1-0.1,0.5-0.3,0.6-0.3
		c0.3,0,0.5,0.1,0.6,0.3c0.1,0.1,0.3,0.3,0.3,0.6C76,127.9,75.9,128.2,75.7,128.4z"/>
	<path class="st0" d="M64.8,15.8l2.2-0.6c0.6-0.3,1-0.9,0.9-1.6c-0.2-0.6-0.9-1.1-1.5-0.9l-2.2,0.6c-0.7,0.1-1.2,0.9-0.9,1.6
		C63.5,15.5,64.1,16,64.8,15.8z"/>
	<path class="st0" d="M64.2,16.8c-0.2-0.7-0.9-1-1.5-0.9c-0.7,0.2-1.2,0.9-0.9,1.5l0.6,2.2c0.2,0.7,0.7,1.1,1.5,0.9
		c0.6-0.2,1-0.9,0.9-1.5L64.2,16.8z"/>
	<path class="st0" d="M60.7,13.3c0.2,0.6,0.9,1,1.5,0.9c0.7-0.3,1-0.9,0.9-1.6l-0.5-2.1c-0.3-0.6-0.9-1.1-1.6-0.9
		c-0.6,0.1-1,0.9-0.9,1.6L60.7,13.3z"/>
	<path class="st0" d="M58.5,17.4l2.4-0.6c0.6-0.1,1-0.9,0.9-1.5c-0.1-0.7-0.9-1.2-1.6-0.9L57.9,15c-0.6,0.1-1,0.7-0.9,1.5
		C57.2,17.3,57.9,17.6,58.5,17.4z"/>
	<path class="st0" d="M105.6,52.3L105,53l0,0l0,0L105.6,52.3L86.2,35.6c-0.6-0.5-1.3-0.3-1.8,0.1l-56.8,66.8
		c-0.5,0.6-0.5,1.3,0.1,1.8l8.4,7.3v0l19.6,17c0.6,0.5,1.3,0.5,1.8-0.1l56.8-66.8c0.4-0.6,0.3-1.3-0.1-1.8L105.6,52.3z M95.5,46.1
		L95,46.7L95.5,46.1L95.5,46.1z M30.3,103.3l55.2-64.9l7.5,6.5l-55.2,64.9l-1.2,1.4l0,0l1.2-1.4L30.3,103.3z M38.7,112.8L38.7,112.8
		l1.1-1.3L95,46.7l7,6l-55.1,64.8l-7-6L38.7,112.8z M56.6,126l-7.8-6.7l-0.6,0.7l0,0l0.6-0.7l55.1-65l0.7-0.8l-0.6,0.7l7.7,6.7
		L56.6,126z"/>
	<polygon class="st0" points="37.4,74.4 36.6,72 34.3,72.8 34.9,75 	"/>
	<polygon class="st0" points="33.3,78 35.6,77.4 34.9,75 32.5,75.7 	"/>
	<path class="st0" d="M34.5,149.7h-6.5c-0.7,0-1.3,0.6-1.3,1.2c0,0.7,0.6,1.3,1.3,1.3h6.5c0.6,0,1.2-0.6,1.2-1.3
		C35.7,150.3,35.1,149.7,34.5,149.7z"/>
	<polygon class="st0" points="33.5,70.5 31.2,71.3 31.9,73.5 34.3,72.8 	"/>
	<polygon class="st0" points="30.1,76.5 32.5,75.7 31.9,73.5 29.5,74.2 	"/>
	<path class="st0" d="M30.1,153l-13.9,0c-0.7,0-1.2,0.6-1.2,1.3s0.4,1.2,1.2,1.2h13.9c0.7,0,1.3-0.5,1.3-1.2
		C31.4,153.6,30.9,153,30.1,153z"/>
	<path class="st0" d="M54,130.4l-27.9-24.1c-0.4-0.5-1.3-0.5-1.8,0.1c0,0.1-0.1,0.3-0.1,0.4l-8.8,33.3c-0.3,1.3-0.1,2.5,0.5,3.6
		c0.3,0.8,0.7,1.3,1.3,2c0.6,0.5,1.3,0.9,2.2,1.1c0.9,0.1,2.1,0,3.1-0.5l31.3-13.6c0.6-0.3,0.9-1,0.6-1.6
		C54.4,130.8,54.2,130.6,54,130.4z M21.4,144c-0.6,0.1-1.2,0.3-1.6,0.1c-0.3,0-0.7-0.3-1-0.4c-0.3-0.3-0.6-0.6-0.7-1
		c-0.3-0.6-0.4-1.2-0.3-2l8.3-31.3l25,21.8L21.4,144z"/>
</g>
</svg>
