<?xml version="1.0" encoding="utf-8"?>
<!-- Generator: Adobe Illustrator 22.1.0, SVG Export Plug-In . SVG Version: 6.00 Build 0)  -->
<svg version="1.1" id="Слой_1" xmlns="http://www.w3.org/2000/svg" xmlns:xlink="http://www.w3.org/1999/xlink" x="0px" y="0px"
	 viewBox="0 0 164.6 188.6" style="enable-background:new 0 0 164.6 188.6;" xml:space="preserve">
<style type="text/css">
	.st0{fill:#7C3AFF;}
</style>
<g>
	<path class="st0" d="M69.4,86.7v41.8c0.2,2.4,2,4.3,4.3,5.2c0.9,0.3,1.9,0.5,2.9,0.5c1,0,2-0.2,2.9-0.6c1.2-0.6,2.3-1.6,3-3
		c0.7,1.5,1.7,2.4,3,3c0.9,0.4,1.9,0.6,2.9,0.6c1,0,2-0.2,2.9-0.5c2.3-0.9,4.1-2.8,4.3-5.2V86.7c5.3-4.5,12.2-9.7,17-14.5
		c1.3-1.5,1.4-3.6,0.7-5.5c-0.4-1-1-2-1.7-2.8c-0.7-0.9-1.6-1.6-2.5-2.1c-1.5-0.8-3.2-0.9-4.6,0.1L87.8,73.2h-5.3h-5.3L60.5,62
		c-1.5-1-3.1-0.9-4.6-0.1c-0.9,0.5-1.8,1.2-2.5,2.1c-0.7,0.8-1.3,1.8-1.7,2.8c-0.7,1.9-0.7,4,0.7,5.5C57.2,77,64.1,82.2,69.4,86.7z
		 M54.4,67.8c0.2-0.7,0.7-1.4,1.2-2c0.5-0.6,1.1-1.1,1.6-1.4c0.7-0.3,1.3-0.4,1.8-0.1l16.9,11.4c0.2,0.2,0.5,0.3,0.8,0.3h5.8
		c0,0,5.7,0,5.8,0c0.3,0,0.6-0.1,0.8-0.3L106,64.3c0.5-0.3,1.1-0.2,1.8,0.1c0.6,0.3,1.1,0.8,1.6,1.4c0.5,0.6,1,1.3,1.2,2
		c0.4,1,0.4,2-0.1,2.7L93.3,85.1c-0.3,0.3-0.5,0.7-0.5,1.1v42.3c-0.1,1.2-1.2,2.2-2.5,2.8c-0.6,0.2-1.3,0.4-1.9,0.4
		c-0.6,0-1.2-0.1-1.8-0.3c-1.1-0.5-2.1-1.8-2.1-4l-0.6-21.8c0-0.8-0.7-1.3-1.4-1.3c-0.7,0-1.4,0.6-1.4,1.3l-0.6,21.8
		c0,2.2-1,3.5-2.1,4c-0.6,0.2-1.1,0.3-1.8,0.3c-0.7,0-1.3-0.1-1.9-0.4c-1.3-0.5-2.4-1.5-2.5-2.8V86.2c0-0.4-0.1-0.8-0.5-1.1
		L54.5,70.5C54,69.8,54,68.8,54.4,67.8z"/>
	<path class="st0" d="M75.4,69.9c1.8,1.8,4.3,2.9,7.1,2.9c2.8,0,5.3-1.1,7.1-2.9c1.8-1.8,2.9-4.3,2.9-7s-1.1-5.2-2.9-7
		c-1.8-1.8-4.3-2.9-7.1-2.9c-2.8,0-5.3,1.1-7.1,2.9c-1.8,1.8-2.9,4.3-2.9,7S73.6,68.1,75.4,69.9z M77.4,57.8
		c1.3-1.3,3.1-2.1,5.1-2.1c2,0,3.8,0.8,5.1,2.1c1.3,1.3,2.1,3.1,2.1,5.1c0,2-0.8,3.8-2.1,5.1c-1.3,1.3-3.1,2.1-5.1,2.1
		c-2,0-3.8-0.8-5.1-2.1c-1.3-1.3-2.1-3.1-2.1-5.1C75.3,60.9,76.1,59.1,77.4,57.8z"/>
	<path class="st0" d="M97.9,148.6c-0.8,0-1.4,0.6-1.4,1.4v20.6c0,0.8,0.6,1.4,1.4,1.4s1.4-0.6,1.4-1.4v-20.6
		C99.2,149.2,98.6,148.6,97.9,148.6z"/>
	<path class="st0" d="M151.7,156.2h-44.8v-19.7c0-0.8-0.6-1.4-1.4-1.4H59.4c-0.8,0-1.4,0.6-1.4,1.4V147H13.3c-0.8,0-1.4,0.6-1.4,1.4
		v30.3c0,0.8,0.6,1.4,1.4,1.4h46.1h46.1h46.1c0.8,0,1.4-0.6,1.4-1.4v-21C153.1,156.9,152.5,156.2,151.7,156.2z M14.6,149.7H58v2.9
		v24.6H14.6V149.7z M60.8,148.4v-10.4h43.4v19.7v19.7H60.8V148.4z M150.3,177.3h-43.4V159h43.4V177.3z"/>
	<path class="st0" d="M128.4,32.1l8.6,1.5c0.3,0,0.7,0,1.1-0.1c1.1-0.4,1.7-1.5,1.2-2.6l-3.1-8.2c-0.4-1-1.6-1.6-2.7-1.2
		c-1.1,0.4-1.6,1.6-1.2,2.7l1.8,4.8l-5-0.9c-1.1-0.2-2.2,0.5-2.4,1.7C126.6,30.9,127.3,31.9,128.4,32.1z"/>
	<path class="st0" d="M158.1,85.8L158.1,85.8c-1.4-1.3-3.2-2.1-5.1-2.1c-1.9,0-3.6,0.8-4.9,2l-0.1,0c-1.2,1.3-2.1,3.1-2.1,5
		c0,1.9,0.8,3.6,2.1,4.9l0,0c1.3,1.3,3.1,2.1,5,2.1c1.9,0,3.6-0.8,4.9-2.1l0,0c1.2-1.3,2.1-3.1,2.1-5S159.4,87.1,158.1,85.8z
		 M155.2,92.8c-0.5,0.5-1.2,0.9-2.1,0.9c-0.8,0-1.6-0.3-2.1-0.9c-0.5-0.5-0.9-1.2-0.9-2.1c0-0.8,0.3-1.6,0.9-2.1
		c0.5-0.5,1.3-0.9,2.1-0.9c0.8,0,1.5,0.4,2.1,0.9c0.5,0.5,0.9,1.2,0.9,2.1C156,91.6,155.7,92.3,155.2,92.8z"/>
	<path class="st0" d="M68.6,18.8l3.7-1c1.1-0.3,1.7-1.4,1.4-2.5c-0.3-1.1-1.4-1.7-2.5-1.5l-3.7,1c-1.1,0.3-1.8,1.4-1.5,2.5
		C66.3,18.4,67.5,19.1,68.6,18.8z"/>
	<path class="st0" d="M67.6,20.5c-0.3-1.1-1.4-1.8-2.5-1.5c-1.1,0.3-1.8,1.4-1.5,2.5l1,3.6c0.3,1.1,1.4,1.8,2.5,1.5
		c1.1-0.3,1.8-1.4,1.5-2.5L67.6,20.5z"/>
	<path class="st0" d="M15.4,113.8c0-1.5-0.6-2.9-1.6-3.9c-1-1-2.3-1.6-3.9-1.6s-2.9,0.6-3.9,1.6c-1,1-1.6,2.4-1.6,3.9
		c0,1.5,0.6,2.9,1.6,3.9c1,1,2.4,1.6,3.9,1.6c1.5,0,2.9-0.6,3.9-1.6C14.8,116.7,15.4,115.3,15.4,113.8z M10.9,114.7
		c-0.2,0.2-0.6,0.4-1,0.4c-0.3,0-0.7-0.1-0.9-0.4c-0.3-0.2-0.4-0.6-0.4-1c0-0.3,0.2-0.7,0.4-1c0.2-0.2,0.6-0.4,0.9-0.4
		c0.4,0,0.7,0.1,1,0.4c0.3,0.2,0.4,0.6,0.4,1C11.3,114.2,11.2,114.5,10.9,114.7z"/>
	<path class="st0" d="M61.7,14.6c0.3,1.1,1.4,1.8,2.5,1.5c1.1-0.3,1.8-1.4,1.5-2.5l-0.9-3.4c-0.3-1.1-1.4-1.8-2.5-1.5
		c-1.1,0.3-1.8,1.4-1.5,2.5L61.7,14.6z"/>
	<path class="st0" d="M58.2,21.5l3.8-1c1.1-0.3,1.8-1.4,1.4-2.5c-0.3-1.1-1.4-1.8-2.5-1.5l-3.7,1c-1.1,0.3-1.8,1.4-1.5,2.5
		C56,21.2,57.1,21.8,58.2,21.5z"/>
	<polygon class="st0" points="22.9,61.4 21.8,57.7 17.8,58.8 19,62.6 	"/>
	<rect x="15.4" y="63" transform="matrix(0.9581 -0.2863 0.2863 0.9581 -17.8717 7.7308)" class="st0" width="4.1" height="3.9"/>
	<polygon class="st0" points="16.7,55.2 12.8,56.4 13.9,60 17.8,58.8 	"/>
	<polygon class="st0" points="11.1,65 15,63.8 13.9,60 10,61.2 	"/>
</g>
</svg>
