<?xml version="1.0" encoding="utf-8"?>
<!-- Generator: Adobe Illustrator 22.1.0, SVG Export Plug-In . SVG Version: 6.00 Build 0)  -->
<svg version="1.1" id="Слой_1" xmlns="http://www.w3.org/2000/svg" xmlns:xlink="http://www.w3.org/1999/xlink" x="0px" y="0px"
	 viewBox="0 0 163 179" style="enable-background:new 0 0 163 179;" xml:space="preserve">
<style type="text/css">
	.st0{fill:#FFFFFF;}
</style>
<g>
	<path class="st0" d="M153.9,115.1h-0.2c-1.3-1.3-3-2.3-5.1-2.3s-3.8,0.8-5.1,2.3c-1.5,1.3-2.3,3.1-2.3,5.2c0,2,0.8,3.9,2,5.4h0.2
		c1.3,1.3,3.1,2,5.1,2c2,0,3.8-0.8,5.1-2h0.2c1.3-1.3,2-3.4,2-5.4C156,118.2,155.2,116.4,153.9,115.1z M150.9,122.5
		c-0.8,0.5-1.5,0.8-2.3,0.8c-0.8,0-1.6-0.2-2.3-0.8c-0.5-0.5-0.8-1.3-0.8-2.3c0-0.8,0.3-1.6,1-2.1c0.5-0.5,1.3-1,2-1
		c0.8,0,1.5,0.5,2.3,1c0.5,0.5,0.8,1.3,0.8,2.1C151.7,121.3,151.4,122,150.9,122.5z"/>
	<path class="st0" d="M148.5,35.3c0.5-1,0.2-2.6-0.8-3.1l-7.9-4.6c-1-0.5-2.3-0.3-2.8,0.8c-0.8,1-0.3,2.3,0.8,3.1l4.6,2.6l-4.6,2.8
		c-1,0.5-1.5,1.7-0.8,2.8c0.5,1,1.7,1.6,2.8,0.8l7.9-4.4C148,35.9,148.2,35.6,148.5,35.3z"/>
	<path class="st0" d="M88.5,136.2H74.8c-1,0-1.8,0.5-2.6,1c-0.5,0.8-1,1.8-1,2.6v13.9c0,1.1,0.5,1.8,1,2.6c0.8,0.8,1.5,1,2.6,1h13.7
		c1,0,1.8-0.2,2.5-1c0.5-0.8,1-1.6,1-2.6v-13.9c0-0.8-0.5-1.8-1-2.6C90.3,136.7,89.6,136.2,88.5,136.2z M87.8,152.9H75.6v-12.3h12.2
		V152.9z"/>
	<path class="st0" d="M115.8,68.9l-0.2-0.2c-0.8-1.8-1.8-3.3-2.8-5.1h-0.2c-1-1.6-2.3-3.1-4.1-4.6c-1.6-1.6-3.3-2.8-5.3-4.1
		c-1.7-1.1-3.8-2.1-5.8-2.6c-4.1-1.6-8.9-2.3-14-2.3c-2.3,0-4.9,0.3-6.9,0.5c-2.3,0.2-4.3,0.8-6.3,1.5c-2,0.8-4.1,1.6-5.9,2.6
		c-1.8,1-3.3,2.3-4.8,3.6c-1.8,1.5-3.1,3.1-4.4,4.6c-1.3,1.8-2.3,3.6-3.3,5.7c-0.8,1.8-1.6,3.8-2.3,6.1c-0.5,2.3-1,4.6-1.3,7v0.2
		c0,1,0.2,1.8,0.8,2.6c0.5,0.5,1.3,1,2.3,1.3c4.1,0.5,8.1,1,12.4,1.6c0.8,0,1.8-0.2,2.6-0.8c0.8-0.5,1.2-1.3,1.2-2.3
		c0.2-1.5,0.5-3.1,1-4.4c0.2-1.3,0.7-2.6,1.2-3.6c0.5-1,1-2,1.5-2.8c0.5-1,1.3-1.6,1.8-2.3c0.8-0.5,1.6-1.3,2.3-1.8
		c0.8-0.3,1.5-0.8,2.3-1c1-0.3,1.7-0.5,2.8-0.8c1-0.2,2-0.2,3-0.2c1,0,2,0,3.1,0.2c1,0.3,2,0.6,2.8,0.8c1,0.5,1.7,0.8,2.5,1.3
		c0.8,0.5,1.8,1.3,2.6,2c0.5,0.8,1.3,1.6,1.8,2.3c0.5,0.8,1,1.6,1.3,2.3c0.5,0.8,0.8,1.6,1,2.6c0,0.8,0.2,1.8,0.2,2.6
		c0,0.5,0,1-0.2,1.5c0,0.5,0,1-0.3,1.3c0,0.5-0.2,0.8-0.2,1.3c-0.2,0.6-0.5,1.1-0.8,1.3c-0.3,0.5-0.5,1-1,1.5
		c-0.2,0.5-0.8,1-1.5,1.8c-0.5,0.6-1.3,1.3-2,2.1c-3.3,3.4-6.9,6.1-10.2,9.5l-1.5,1.8c-0.5,0.8-1,1.6-1.5,2.1c-0.5,0.8-1,1.5-1.5,2
		v0.3c-0.5,0.8-1,1.6-1.3,2.3c-0.2,0.8-0.8,1.6-1,2.3c-0.3,1-0.8,2-1,3.1c-0.3,1-0.5,2.1-0.5,3.4c-0.3,1-0.5,2.3-0.4,3.4
		c0,1.3-0.2,2.3-0.2,3.6l0.2,3.8c0,1,0.3,1.8,1,2.6c0.5,0.5,1.5,1,2.5,1h11.4c1,0,1.7-0.5,2.5-1c0.5-0.8,1-1.6,1-2.6v-3.1l0.2-2.8
		l0.2-2.1c0-0.5,0.2-1,0.2-1.5l0.5-1.3l0.5-1.3l0.5-1l0.5-1l1-1l1.5-1.6c1.6-1.6,3.1-3.1,4.6-4.6c1.5-1.3,3.1-2.6,4.3-3.9
		c1.3-1.3,2.3-2.3,3.3-3.6c1-1,2-2.3,2.8-3.4c0.8-1.3,1.5-2.3,2-3.4c0.8-1,1.3-2,1.5-3.1c0.5-1.3,1-2.3,1.3-3.4
		c0.3-1.3,0.5-2.3,0.5-3.6c0.2-1.3,0.2-2.3,0.2-3.6c0-2-0.3-4.1-0.5-6.1C117.1,72.5,116.5,70.7,115.8,68.9z M113.5,83.5
		c0,1-0.2,2-0.5,3.1c-0.2,0.8-0.5,1.8-0.8,2.6c-0.5,1-0.8,2.1-1.3,2.8c-0.5,0.8-1.3,1.8-1.8,2.8c-0.8,1-1.8,2-2.6,3.1
		c-0.9,1-2,2.3-3.3,3.4c-1.3,1.3-2.6,2.6-4.1,3.9c-1.5,1.6-3.3,2.8-4.8,4.6l-1.5,1.5c-0.5,0.8-1,1.3-1.3,1.5l-1,1.6
		c-0.2,0.2-0.5,0.8-0.8,1.3l-0.5,1.5c-0.3,0.5-0.5,1-0.5,1.6c-0.3,0.5-0.3,1.3-0.5,2c0,0.8-0.2,1.6-0.2,2.3l-0.2,3.1v2.6H77.7v-2.8
		c0-1.3,0-2.3,0.2-3.3c0-1.3,0.2-2.3,0.2-3.4c0.2-0.8,0.5-1.8,0.8-2.8c0.2-0.8,0.5-1.8,0.8-2.6c0.2-0.8,0.5-1.3,0.8-1.8
		c0.3-0.8,0.8-1.3,1-1.8l0.2-0.5c0.3-0.5,0.8-1,1-1.8c0.5-0.5,1-1,1.5-1.8l1.5-1.5c2.3-2.3,4.6-4.4,7.1-6.7c0.8-1,1.7-1.7,2.8-2.8
		c0.8-0.8,1.5-1.6,2.3-2.3c0.8-0.8,1.3-1.3,1.8-2c0.5-0.8,1-1.3,1.3-1.8c0.2-0.8,0.5-1.3,0.8-1.8V87c0.2-0.5,0.5-1,0.8-1.6
		c0-0.8,0.2-1.5,0.2-2c0-0.8,0.2-1.3,0.2-2c0-1-0.3-2.3-0.5-3.6c-0.3-1-0.5-2.3-1-3.4c-0.5-1-1-2-1.8-3.1c-0.7-1-1.5-2-2.5-2.8
		c-0.8-1.1-1.7-1.8-2.8-2.6c-1.3-0.5-2.3-1.3-3.5-1.8c-1-0.3-2.3-0.8-3.6-1c-1.3-0.3-2.6-0.3-3.8-0.3c-1.2,0-2.5,0-3.8,0.3
		c-1.2,0.3-2.3,0.5-3.5,1c-1,0.5-2,1-3,1.5c-1,0.8-2,1.5-2.7,2.4c-1,0.8-1.7,1.7-2.6,2.8c-0.8,1-1.3,2.3-2,3.6
		c-0.5,1.3-1,2.8-1.3,4.4c-0.5,1.3-0.8,2.6-1,4.1l-10.9-1.3c0.2-2.1,0.7-4.1,1.2-5.7c0.5-2,1.3-3.8,2-5.6c0.8-1.8,1.5-3.4,2.8-4.9
		c1-1.3,2.3-2.6,3.5-3.9c1.3-1.3,2.8-2.3,4.4-3.1c1.6-1,3-1.8,4.8-2.3c1.8-0.5,3.5-1,5.6-1.3c2-0.3,4.1-0.5,6.4-0.5
		c4.5,0,8.8,0.8,12.7,2c1.7,0.5,3.5,1.3,5.1,2.3c1.5,1,3.1,2,4.6,3.3c1.2,1.3,2.5,2.6,3.5,4.1c1,1.3,1.8,2.8,2.6,4.4v0.2
		c0.8,1.3,1.3,3.1,1.5,4.6c0.3,1.5,0.5,3.3,0.5,5.1C113.7,81.5,113.7,82.5,113.5,83.5z"/>
	<path class="st0" d="M47.1,17.9l3.8-1c1.3-0.2,2-1.5,1.5-2.6c-0.2-1.3-1.3-1.8-2.5-1.6l-3.8,1c-1.3,0.3-1.7,1.6-1.5,2.6
		C44.8,17.6,46.1,18.1,47.1,17.9z"/>
	<path class="st0" d="M46,20c-0.2-1.3-1.2-2.1-2.5-1.6c-1,0.3-1.7,1.3-1.5,2.6l1,3.8c0.2,1,1.5,1.7,2.5,1.5c1.3-0.5,2-1.5,1.5-2.8
		L46,20z"/>
	<path class="st0" d="M40,13.5c0.5,1.3,1.6,1.8,2.8,1.6c1-0.3,1.7-1.6,1.5-2.6l-1-3.6c-0.2-1.3-1.5-1.7-2.6-1.5
		c-1.3,0.2-2,1.5-1.5,2.6L40,13.5z"/>
	<path class="st0" d="M39.2,15.6l-3.8,1c-1.3,0.2-2,1.5-1.5,2.8c0.2,1,1.3,1.7,2.6,1.5l3.8-1.3c1.3-0.3,1.7-1.3,1.5-2.6
		C41.5,16.1,40.3,15.3,39.2,15.6z"/>
	<path class="st0" d="M35,159.5c-1.6,0-3,0.8-4.1,1.8c-1,1-1.8,2.3-1.8,4.1c0,1.6,0.8,2.8,1.8,3.9c1,1,2.6,1.8,4.1,1.8
		c1.5,0,3-0.8,4.1-1.8c1-1,1.5-2.4,1.5-3.9c0-1.8-0.5-3.1-1.5-4.1C38,160.3,36.5,159.5,35,159.5z M36,166.2c-0.3,0.2-0.8,0.5-1,0.5
		c-0.5,0-0.8-0.3-1-0.5c-0.3-0.2-0.5-0.5-0.5-0.8c0-0.5,0.3-0.8,0.5-1c0.3-0.3,0.5-0.5,1-0.5c0.3,0,0.8,0.3,1,0.5
		c0.2,0.3,0.2,0.5,0.2,1C36.2,165.7,36.2,165.9,36,166.2z"/>
	<polygon class="st0" points="12.6,99.8 16.6,98.5 15.4,94.7 11.3,95.9 	"/>
	<polygon class="st0" points="18.4,89.5 14.3,90.6 13.1,86.7 9,88 10.3,91.8 14.3,90.8 15.4,94.7 19.4,93.4 	"/>
	<polygon class="st0" points="6,93.1 7.3,96.9 11.3,95.9 10,91.8 	"/>
</g>
</svg>
