<?xml version="1.0" encoding="utf-8"?>
<!-- Generator: Adobe Illustrator 22.1.0, SVG Export Plug-In . SVG Version: 6.00 Build 0)  -->
<svg version="1.1" id="Слой_1" xmlns="http://www.w3.org/2000/svg" xmlns:xlink="http://www.w3.org/1999/xlink" x="0px" y="0px"
	 viewBox="0 0 100 100" style="enable-background:new 0 0 100 100;" xml:space="preserve">
<style type="text/css">
	.st0{fill:#7C3AFF;}
</style>
<g>
	<path class="st0" d="M22.2,42.1l-0.1-0.1c0,0,0,0,0,0c-0.2-0.3-0.5-0.3-0.7-0.3c-0.2,0-0.5,0-0.7,0.3c0,0,0,0,0,0
		c0,0-0.1,0.1-0.1,0.1c0,0,0,0,0,0l-0.1,0.1v0c0,0.1,0,0.1-0.1,0.2c0,0.1,0,0.1,0,0.2c0,0.1,0,0.4,0.2,0.6c0.2,0.4,0.6,0.4,0.8,0.4
		s0.6,0,0.8-0.4c0.2-0.2,0.2-0.5,0.2-0.6c0-0.1,0-0.2,0-0.2C22.3,42.3,22.3,42.2,22.2,42.1z"/>
	<path class="st0" d="M35.3,40.4c0,0.1,0,0.2,0,0.3c0.1,0.2,0.2,0.4,0.3,0.5c0,0,0,0,0,0c0,0,0,0,0,0c0,0,0.1,0.1,0.1,0.1
		c0,0,0,0,0,0c0.2,0.1,0.4,0.1,0.5,0.1c0.1,0,0.1,0,0.2,0c0.1,0,0.3,0,0.4,0c0.2,0,0.4-0.1,0.5-0.3c0,0,0,0,0,0
		c0.1-0.1,0.1-0.1,0.1-0.2c0,0,0,0,0-0.1c0-0.1,0.1-0.2,0.1-0.4c0-0.3-0.1-0.5-0.2-0.6l-0.1-0.1c0,0-0.1-0.1-0.1-0.1
		c-0.2-0.2-0.5-0.2-0.8-0.2c-0.1,0-0.1,0-0.2,0c-0.2,0-0.4,0-0.5,0.1c0,0,0,0,0,0l-0.1,0.1c0,0-0.1,0.1-0.1,0.1l-0.1,0.1
		c0,0.1-0.1,0.1-0.1,0.2C35.3,40.1,35.3,40.2,35.3,40.4z M36.6,40.4C36.6,40.4,36.6,40.4,36.6,40.4C36.6,40.4,36.5,40.4,36.6,40.4
		c-0.1,0-0.2,0-0.2,0c0,0-0.1,0-0.1,0c0,0,0-0.1,0-0.1c0,0,0,0,0.1,0C36.5,40.3,36.5,40.3,36.6,40.4C36.6,40.3,36.6,40.4,36.6,40.4z
		"/>
	<path class="st0" d="M34.9,42.5c-0.2-0.2-0.5-0.3-0.7-0.1c-2.3,1.7-5.4,2.3-9.2,1.7c-0.3,0-0.5,0.1-0.6,0.4c0,0.3,0.1,0.5,0.4,0.6
		c1,0.2,2,0.2,2.9,0.2c2.8,0,5.2-0.7,7.1-2.1C35,43,35.1,42.7,34.9,42.5z"/>
	<path class="st0" d="M93.5,45.3l-0.8-1.9c-0.1-0.1-0.2-0.3-0.3-0.3c-0.2,0-0.3,0-0.4,0.1c-0.4,0.3-1.1,0.5-2,0.4
		c-0.1,0-0.2,0-0.2,0c0-0.1,0.1-0.6,1.2-2c0.1-0.2,0.2-0.4,0-0.6l-0.3-0.5c-0.5-0.8-0.8-1.3-1.1-1.4c-0.5-0.3-0.9,0.2-1.7,1.1
		l-0.3,0.4c-0.7,1.1-1,2.3-1,3.5L86,44.6c-0.2-0.2-0.4-0.3-0.7-0.4c-0.2-0.1-0.4,0-0.5,0.1L83,46.1c-0.1,0.1-0.3,0.3-0.5,0.6
		c-0.1,0.1-0.2,0.3-0.4,0.5c-0.3,0.5-0.5,0.9-0.6,1.1c-0.2,0.3-0.2,0.7,0,1c0,0-0.1,0.1-0.1,0.1c-0.3,0.3-0.6,0.6-1.1,0.9
		c-0.6-0.7-1.4-1.2-2.4-1.3c0,0-0.1,0-0.1,0l-1,0.2c-0.7-0.9-1.8-2-3.1-1.9l-2.7,0.3c-0.1-0.4-0.2-0.8-0.1-1.1l0.1-0.5
		c2-0.4,4.1-0.9,6.5-1.5c0.7-0.1,1.4-0.7,1.2-1.9c-0.4-5.3-1.3-10.3-2.5-14.7c-0.3-1.3-1.2-1.5-1.8-1.4L70.4,27
		c-0.1-0.4-0.3-0.8-0.6-1.2c-0.8-1.1-2-1.7-3.7-1.8c-0.4-0.1-1-0.1-1.5-0.1c0-0.2-0.1-0.5-0.2-0.9c0.1-0.1,0.3-0.2,0.4-0.4
		c0.2-0.2,0.3-0.5,0.3-0.9c0-0.3-0.1-0.6-0.3-0.9c0,0-0.1-0.1-0.1-0.1c-0.2-0.1-0.5-0.3-0.8-0.3c-0.3,0-0.6,0.1-0.8,0.3
		c0,0-0.1,0.1-0.1,0.1c0,0,0,0,0,0.1l-0.1,0c-0.2,0.2-0.3,0.5-0.3,0.9c0,0.3,0.1,0.6,0.3,0.8c0.2,0.3,0.5,0.4,0.7,0.5
		c0.1,0.3,0.1,0.6,0.2,0.8c-0.6,0.1-1,0.3-1.5,0.6c-1.4,0.8-2.2,2.1-2.2,3.8l-0.6,0.1c-1.5,0.3-3,0.7-4.6,1.1
		c-0.5,0-0.8,0.2-0.9,0.4c-0.3,0.3-0.4,0.8-0.3,1.4c0.1,5.1,0.9,10,2.4,14.6c0.1,0.6,0.3,1,0.6,1.3c0.3,0.2,0.7,0.3,1.1,0.3
		c2.9-0.2,5.9-0.5,9.1-1l0,0.2c0.1,0.3,0,0.7,0,1c-0.6,0-1.2,0.1-1.8,0.3c-1.5,0.4-2.6,1.2-3.1,2.4c-0.4,0-0.8,0-1.2,0.1
		c-1,0.2-1.7,1-2,2c-0.1,0.1-0.4,0.5-1.6,1.9c-0.2-0.2-0.5-0.2-0.7-0.2c-0.4,0-1,0.1-1.8,0.3c-0.6,0.3-1.3,0.5-1.9,0.6
		c0,0-0.1,0-0.1,0l-1.2,0.6c-0.2,0.1-0.3,0.4-0.3,0.6l0.4,1.4c0,0-0.1,0-0.1,0c-0.1,0-0.1,0-0.2,0h-0.1c-1.4-0.4-2.7-0.4-3.8,0
		l-0.8-0.5c0.1-0.3,0.3-0.6,0.3-0.9c0.1-0.2,0-0.4-0.2-0.6L44,54.5c-0.2-0.1-0.7-0.3-1.4-0.5c-0.8-0.2-1.3-0.3-1.6-0.3
		c-0.5,0-0.8,0.1-1.1,0.3c-0.2-0.1-0.4,0-0.5,0.1l-0.2,0.2c-0.2,0-0.5-0.2-0.9-0.4L38.1,53c-0.1-0.4-0.2-0.8-0.3-1.1
		c-0.2-0.8-0.4-1.6-0.7-2.4c-0.2-0.8-0.8-1-1.2-1c0,0,0,0,0,0c-1.2,0.1-2.6,0.3-3.8,0.5c-0.2-0.3-0.3-0.5-0.3-0.8l0.1-0.4
		c2.5-0.5,5.3-1.3,8.3-2.2c0.4-0.1,1.4-0.4,1.2-1.8l0-0.2c-0.1-1-0.2-1.9-0.2-2.8c1-0.2,1.7-1.1,1.7-2.5l0,0h0.3
		c0.1,0,0.2,0,0.2-0.1c0.7-0.3,0.4-1.4,0.3-1.8c-0.1-0.2-0.3-0.4-0.5-0.4h-0.8c-0.4-1.9-1.5-2.4-2.4-2.5c-0.4-1.9-0.9-3.9-1.4-5.9
		c-0.3-1.4-1.3-1.5-1.7-1.4c-6.5,0.4-13.2,1.6-19.8,3.6c-0.9,0.3-1.3,1-1,1.9c0.1,1.8,0.3,3.6,0.6,5.4c0,0,0,0,0,0
		c-0.6,0.1-2,0.4-2.1,2.7H14c-0.1,0-0.2,0-0.2,0.1c-0.6,0.3-0.4,1.1-0.3,1.9c0.1,0.2,0.3,0.4,0.5,0.4h0.8c0.2,0.8,0.5,1.3,1,1.7
		c0.5,0.4,1.2,0.6,2.1,0.6c0.3,1.1,0.5,2.3,0.9,3.3c0.1,0.6,0.3,1,0.6,1.2c0.2,0.1,0.5,0.3,1,0.2c2.6-0.2,5.2-0.5,7.8-0.8
		c0.2,0.4,0.2,0.8,0.1,1.1c-1.5,0.3-3.1,0.7-4.6,1.2c-0.4,0.1-0.6,0.3-0.7,0.5c-0.2,0.3-0.2,0.6-0.1,0.9c0.1,0.9,0.2,1.8,0.4,2.7
		c-0.1,0-0.2,0-0.3-0.1c-0.1-0.1-0.2-0.2-0.3-0.3c0-0.5-0.2-1-0.6-1.4c-0.2-0.2-0.7-0.7-1.6-1.2c-0.3-0.2-0.6-0.4-0.9-0.5
		c-0.3-0.2-0.4-0.3-0.6-0.4l0,0c-0.1-0.1-0.1-0.1-0.2-0.1c-0.3-0.1-0.5-0.2-0.7-0.3c0,0-0.1,0-0.1,0c-0.4-0.3-1.1-0.5-1.3,0
		l-0.7,1.5c0,0,0,0,0,0l-0.3-0.1c-0.1-0.1-0.3-0.1-0.5-0.2c0-0.5-0.1-1.1-0.4-1.8c-0.4-1.1-1.6-2-3.6-2.6c-0.2-0.1-0.5,0-0.6,0.2
		l-1.2,2.3c-0.1,0.1-0.1,0.3,0,0.4c0,0.1,0.1,0.2,0.3,0.3c1.7,0.7,1.8,1.1,1.8,1c0,0,0,0.1,0,0.1c0.1,0.3,0.1,0.6,0,0.8
		c-0.1,0.1-0.6,0.4-2.4,0.1c-0.3-0.1-0.5,0.1-0.6,0.4c-0.5,1.8-0.7,2.7-0.7,2.7c0,0.1,0,0.3,0.1,0.4c0.1,0.1,0.2,0.2,0.3,0.2
		l2.2,0.3c1.7,0.2,3.1-0.4,4-1.6l0.9,0.2c0,0.4,0,0.8,0.1,1.1c0,0.2,0.2,0.3,0.4,0.4l2.5,0.4h0.2c0.2,0,0.4,0,0.6,0.1
		c0.1,0,0.1,0,0.2,0h1.6c0.5,0,0.9-0.1,1.1-0.3c0,0,0,0,0,0c0.1,0,0.3,0.1,0.4,0.1h0.5c0.1,0,0.2,0.1,0.3,0.1
		c0.2,0.1,0.5,0.2,0.5,0.2c0,0,0.1,0.1,0.1,0.1c0.3,1.2,0.6,2.6,1,4.2c0.1,0.3,0.2,0.7,0.5,0.9c0.2,0.1,0.5,0.2,0.7,0.1
		c0.2,0,0.3,0,0.5,0c0,0.5,0,0.8,0,0.9h-0.6c-0.2,0-0.3,0.1-0.4,0.2c-1.2,1.5-1.8,3.8-1.8,6.6c0,0.8,0,1.5,0.1,2.1
		c0,0.8,0.1,1.4,0.2,1.9c0,0.2,0.1,0.3,0.3,0.3c1.1,0.5,2.6,0.7,4.6,0.3c0.9-0.2,1.9-0.4,2.7-0.7c0.1-0.1,0.2-0.2,0.3-0.3
		c0.2-0.6,0.3-1.4,0.3-2.1c0,0,0-0.1,0-0.1c0,0,0,0,0-0.1c0-1.7-0.4-3.5-1.4-5.9c-0.6-1-0.9-1.6-1-1.9l-0.1-0.2
		c-0.1-0.2-0.3-0.3-0.4-0.3h-0.6c0,0-0.1,0-0.1-0.1c-0.1-0.2,0-0.5,0.1-1c2.4-0.3,4.5-0.7,6.4-1.2c0.1,0.3,0.1,0.5,0.2,0.7l0.1,0.4
		c0,0.1,0.1,0.3,0,0.4c0,0,0,0-0.1,0c-0.1,0-0.3,0.1-0.5,0.1c-0.1,0-0.2,0.1-0.2,0.2c-1.1,1.6-1.7,3.8-1.7,6.5
		c-0.1,0.8-0.1,1.5,0,2.1c0,0.7,0.1,1.4,0.2,1.9c0,0.2,0.2,0.3,0.3,0.4c1.8,0.7,3.2,0.8,4.4,0.5l0.5-0.1c1-0.2,1.7-0.4,2.3-0.7
		c0.1-0.1,0.2-0.2,0.3-0.3c0.2-0.6,0.3-1.4,0.3-2.1c0-0.1,0-0.1,0-0.2c0,0,0-0.1,0-0.1c0-1.6-0.5-3.5-1.3-5.7
		c-1.1-2.6-1.5-2.8-1.9-2.8c-0.1,0-0.2,0-0.5,0c0,0-0.1-0.1-0.2-0.1c0-0.2-0.1-0.4-0.2-0.6l-0.1-0.5L37,60.5l0.7-0.2
		c0.3,0,0.6-0.2,0.8-0.5c0.2-0.3,0.1-0.6,0.1-0.8c0-0.8,0-1.5-0.1-2.3c0.1,0.1,0.1,0.1,0.2,0.2c0.1,0.3,0.4,0.6,0.7,1l0.6,0.8
		c0.5,0.6,0.9,1.1,1.4,1.5c0.1,0.1,0.1,0.1,0.2,0.2c0.1,0.1,0.2,0.3,0.4,0.4c0.2,0.2,0.4,0.4,0.7,0.5c0.2,0.1,0.4,0.1,0.6-0.1
		l1.2-1.2c0.1,0.1,0.2,0.1,0.2,0.2c0.1,0.1,0.3,0.2,0.6,0.4c-0.2,1-0.2,1.9,0.1,2.7c0.2,0.8,0.8,1.6,1.8,2.6
		c0.1,0.1,0.2,0.2,0.4,0.1c0.1,0,0.3-0.1,0.4-0.2l1-1.1c0.2-0.2,0.2-0.4,0-0.6l-0.6-0.7c-0.5-1.2-0.3-1.6-0.2-1.7
		c0.1-0.1,0.3-0.2,0.7-0.2c0.5,0,1.1,0.2,1.9,0.5c0.2,0.1,0.5,0,0.6-0.2c0.2-0.3,0.4-0.4,0.5-0.6c0,0,0-0.1,0.1-0.1
		c0.2,0.1,0.4,0,0.5-0.1c0.1-0.1,0.2-0.2,0.3-0.4c0,0,0.1-0.1,0.1-0.1c0.1,0.1,0.2,0.1,0.2,0.2c0.2,0.1,0.4,0.1,0.6,0l2.3-1.6
		l0.9-0.9c0.5-0.4,0.7-0.8,0.9-1c0.1-0.1,0.2-0.2,0.2-0.3c0.3,0.1,0.6-0.2,0.6-0.5v-0.5c0.1-0.1,0.1-0.1,0.2-0.2
		c0.5,1,1.3,1.6,2.4,1.8v2.5c0,3,0,4,0.3,4.5c0,0.1,0.1,0.2,0.2,0.2l0.5,0.3c0.1,0,0.1,0.1,0.2,0.1c0.8,0.1,1.7,0.2,2.6,0.1l0.2,1.5
		c0.1,0.8,0.1,1.8,0,2.4c-1.2,0.3-2.1,1.2-2.8,2.6c-0.5,1-0.6,1.8-0.2,2.6c0.4,0.9,1.2,1.3,2.6,1.3c1.1,0,2.3-0.1,3.3-0.3
		c1.2-0.3,1.9-0.8,2.3-1.4c0-0.1,0.1-0.2,0.1-0.3c0-1.8-0.7-3.2-2.1-4.1c0-0.3-0.2-0.5-0.5-0.5h0c-0.1-0.5-0.3-1.3-0.3-2.5v-1.4
		c0,0,0.1,0,0.1,0c1.7-0.1,3.6-0.4,5.7-0.8l2.1-0.3l0.4,1.5c0.3,1.3,0.4,2.2,0.3,2.7c-0.2,0.2-0.5,0.4-0.9,0.6c-1,1-1.5,2.2-1.5,3.5
		c0,0,0,0.1,0,0.1l0.2,0.9c0.3,0.7,0.9,1.1,1.7,1.1c0,0,0,0,0,0c4.5-0.1,5.8-0.4,6.4-0.8c0.7-0.5,1-1.3,0.9-2.3
		c-0.1-1-0.5-1.7-0.8-2.2c-0.2-0.3-0.6-0.7-1.3-1.1c-0.7-0.4-1.4-0.6-2.1-0.7c-0.2-0.5-0.5-1.4-0.6-2.5l-0.2-1.5l1.7-0.2
		c0.3,0,0.5,0,0.7-0.1c0.3-0.2,0.5-0.5,0.6-1c0.1-0.8,0-1.9-0.3-3.2c0,0,0,0,0-0.1c0.1-0.2,0-0.5-0.2-0.7c-0.1-0.6-0.3-1.2-0.5-1.9
		l-0.2-0.5c0,0,0.1-0.1,0.1-0.2c0.9-0.5,1.4-1.3,1.4-2.5l0-0.3c0.1-0.1,0.1-0.2,0.1-0.3c0.4-0.3,0.9-0.7,1.5-1.3
		c0.2-0.1,0.4-0.3,0.5-0.4c0.3,0.1,0.5,0.1,0.8,0.1c0.3-0.1,0.8-0.3,1.5-0.6c0.7-0.3,1.3-0.6,1.8-0.9c0.1-0.1,0.2-0.2,0.4-0.2
		c0.1,0,0.1-0.1,0.2-0.1c0.2,0,0.4-0.2,0.5-0.3c0,0,0.1-0.1,0.1-0.1c0.1-0.1,0.2-0.2,0.3-0.3s0-0.3,0-0.4l-0.6-1.2
		c0.1,0,0.1-0.1,0.1-0.2c0,0,0.1-0.1,0.2-0.1c0.1-0.1,0.2-0.1,0.3-0.2c0.9,0.4,1.7,0.5,2.2,0.4c0.7,0,1.6-0.3,2.6-0.9
		C93.5,45.8,93.6,45.5,93.5,45.3z M42.7,36.9c0,0.1,0,0.1,0,0.2h-0.2l-0.1-0.2H42.7z M14.4,41c0-0.1,0-0.2,0-0.3h0.1l0.1,0.3H14.4z
		 M15.4,52.9c-0.1,0.4-0.2,0.7-0.3,1L14,53.7c-0.2,0-0.4,0.1-0.5,0.2c-0.7,1.2-1.7,1.6-3.2,1.5l-1.7-0.2c0.1-0.4,0.2-0.9,0.4-1.7
		c1.4,0.2,2.3,0.1,2.8-0.4c0.4-0.4,0.5-1,0.3-1.7c0-0.6-0.6-1.1-1.9-1.7l0.8-1.5c1.4,0.5,2.4,1.2,2.6,1.8c0.4,1.1,0.3,1.6,0.3,1.7
		c0,0.1,0,0.3,0.1,0.4c0.1,0.1,0.2,0.2,0.3,0.2c0.5,0.1,0.7,0.2,0.8,0.3c0,0,0.1,0,0.1,0l0.3,0.1C15.5,52.8,15.5,52.9,15.4,52.9z
		 M21.1,55.8c-0.1,0-0.2,0.1-0.5,0.1h-1.5c-0.3-0.1-0.7-0.1-0.9-0.1l-0.1,0l-2-0.3c0-0.3,0-0.6,0.1-0.9c0-0.1,0-0.2,0-0.3
		c0.1-0.3,0.2-0.6,0.3-1c0.1-0.1,0.1-0.3,0.1-0.4c0-0.1,0.1-0.3,0.2-0.5l0.6-1.4c0.1,0,0.2,0.1,0.3,0.1c0.2,0.1,0.4,0.2,0.7,0.3l0,0
		c0,0,0.1,0.1,0.1,0.1c0.2,0.1,0.4,0.2,0.6,0.4c0,0,0.1,0,0.1,0.1c0.2,0.1,0.5,0.3,0.8,0.5c0.8,0.4,1.2,0.8,1.4,1.1
		c0.2,0.1,0.3,0.3,0.3,0.9L21.1,55.8z M23.4,55.9c-0.1,0-0.2-0.1-0.4-0.1c-0.1,0-0.1,0-0.2,0h-0.6l0.2-0.4c0,0,0,0,0.1,0
		c0,0,0,0,0,0c0,0,0,0,0.1,0c0.3,0.1,0.6,0.2,0.9,0.2c0,0.1,0,0.1,0,0.2c0,0,0,0.1,0,0.1C23.5,55.9,23.4,55.9,23.4,55.9z M41.3,36.1
		c0,0.1,0,0.2,0,0.3l0.3,1.2c0,0.1,0.1,0.2,0.1,0.2l0.1,0.4c0,1.1-0.5,1.4-1,1.5c-0.2-1.7-0.5-3.5-0.8-5.3
		C40.5,34.5,41.1,34.9,41.3,36.1z M16.4,43c-0.4-0.3-0.6-0.8-0.7-1.5c0,0,0-0.1,0-0.1l-0.3-1.2c0,0,0,0,0,0
		c-0.1-1.4,0.3-2.1,1.1-2.2c0,0,0.1,0,0.1,0c0.3,1.8,0.6,3.6,1,5.3C17.1,43.3,16.7,43.2,16.4,43z M20.2,48.1c-0.1,0-0.2,0-0.3,0
		c-0.1-0.1-0.2-0.3-0.2-0.6c-0.4-1.3-0.7-2.6-1-3.8v0c0,0,0-0.1,0-0.1c-0.9-4-1.5-8-1.8-12c-0.1-0.5,0-0.7,0.4-0.8
		c6.5-2,13.1-3.2,19.6-3.6c0.2,0,0.5-0.1,0.6,0.6c0.6,2,1,4,1.4,5.9c0,0.1,0,0.2,0,0.3c0.4,2.2,0.7,4.3,1,6.4c0,0.2,0.1,0.3,0.2,0.4
		c0.1,0.9,0.2,1.9,0.2,2.9l0,0.2c0.1,0.7-0.2,0.7-0.5,0.8c-3.2,1-5.9,1.7-8.5,2.3c-0.1-0.1-0.2-0.1-0.4-0.1
		c-0.4,0.1-0.9,0.2-1.4,0.3c-0.4,0.1-0.7,0.2-1.1,0.2c-0.1,0-0.2-0.1-0.3,0C25.7,47.6,22.9,47.9,20.2,48.1z M31,49
		c-0.6,0.1-1.1,0.2-1.7,0.3c0-0.3,0-0.7-0.1-1.1c0.3-0.1,0.5-0.1,0.8-0.2c0.3-0.1,0.6-0.1,0.9-0.2l0,0.3C30.8,48.4,30.8,48.7,31,49z
		 M30.9,73.2c-0.7,0.2-1.5,0.4-2.3,0.6c-1.6,0.3-2.9,0.2-3.8-0.2c-0.1-0.3-0.1-0.6-0.1-1c2.2,0.3,4.4,0.1,6.4-0.4
		C31,72.6,31,72.9,30.9,73.2z M28.9,64.3c0.2,0.4,0.5,1,0.9,1.8c0.8,2,1.2,3.7,1.3,5.2c-2,0.6-4.2,0.7-6.5,0.4c0-0.5,0-1,0-1.6
		c0-2.5,0.5-4.5,1.4-5.8h0.8c0,0,0,0,0,0c0,0,0.1,0,0.1,0l0.9-0.1c0,0,0,0,0,0c0.1,0.1,0.2,0.1,0.3,0.1H28.9z M27.5,63.2
		C27.5,63.2,27.5,63.2,27.5,63.2c0-0.2,0-0.5,0-0.9l0.1,0C27.5,62.6,27.5,62.9,27.5,63.2z M40,72.7c-0.5,0.2-1.2,0.4-2,0.6l-0.5,0.1
		c-0.9,0.2-2.1,0.1-3.5-0.4c-0.1-0.3-0.1-0.6-0.1-1c2,0.2,4.1,0.1,6.4-0.4C40.2,72,40.1,72.4,40,72.7z M37.2,63.5
		c0.3-0.1,0.5-0.1,0.6-0.1c0.1,0.2,0.4,0.7,1.1,2.2c0.8,2,1.2,3.6,1.2,5c-2.3,0.5-4.5,0.7-6.4,0.4c0-0.4,0-0.9,0.1-1.4
		c0-2.5,0.5-4.5,1.4-5.9c0.1,0,0.1,0,0.2,0c0.2,0,0.4-0.1,0.5-0.2c0,0,0.1,0,0.1-0.1l0.2,0c0.2,0,0.3-0.1,0.5-0.1
		C36.9,63.5,37,63.5,37.2,63.5z M35.9,60.8l0.2-0.1l0.1,0.7l0.1,0.5c0,0.2,0.1,0.3,0.1,0.5c0,0-0.1,0-0.1,0c0-0.2,0-0.3-0.1-0.4
		l-0.1-0.4C36,61.4,36,61.1,35.9,60.8z M37.5,59.3l-0.7,0.2c-0.1,0-0.2,0-0.3,0l-1.2,0.4C35.2,60,35.1,60,35,60
		c-2,0.5-4.1,0.9-6.6,1.2c-0.1-0.1-0.2-0.1-0.3-0.1l-0.5,0.1h-0.7c-0.2,0-0.3,0-0.5,0.1c-0.2,0-0.4,0.1-0.6,0.1c0,0,0-0.1-0.1-0.3
		c-0.4-1.7-0.8-3.1-1-4.3c0.1-0.1,0.1-0.2,0-0.4c0-0.1-0.1-0.3-0.1-0.4c0-0.2-0.1-0.3-0.1-0.5c0-0.1,0-0.2-0.1-0.4
		c0-0.1,0-0.2,0-0.3c0,0,0-0.1,0-0.1c0,0,0,0,0,0c-0.2-1.1-0.4-2.2-0.5-3.3c0-0.1,0-0.2,0.1-0.2c1.6-0.5,3.2-0.9,4.7-1.2l0,0.1
		c1-0.2,1.9-0.4,2.9-0.5C31.7,50,31.8,50,32,50c1.2-0.2,2.7-0.4,3.9-0.5c0.1,0,0.2,0,0.2,0.3c0.3,0.8,0.5,1.6,0.7,2.4
		c0.1,0.3,0.2,0.7,0.3,1l0.1,0.4c-0.2,0.1-0.3,0.3-0.3,0.5c0.1,0.4,0.2,0.7,0.2,1c0.1,0.2,0.1,0.4,0.2,0.6c0.2,1.1,0.3,2.1,0.3,3.3
		c0,0.1,0,0.2,0,0.2C37.6,59.3,37.6,59.3,37.5,59.3z M38.6,55.5c-0.1-0.1-0.2-0.1-0.3-0.2c0-0.1-0.1-0.3-0.1-0.4c0,0,0,0,0,0
		c0.2,0.1,0.4,0.2,0.6,0.2C38.6,55.2,38.6,55.4,38.6,55.5z M44.3,58.5c-0.1,0.1-0.2,0.2-0.3,0.4c-0.1,0.1-0.1,0.2-0.2,0.2l-1.1,1.1
		c-0.1-0.1-0.1-0.1-0.2-0.2c0,0-0.1-0.1-0.1-0.1c0,0-0.1-0.1-0.2-0.2c-0.1-0.1-0.1-0.2-0.2-0.2c-0.4-0.4-0.8-0.9-1.3-1.5l-0.6-0.7
		c-0.3-0.4-0.6-0.8-0.6-0.9c0,0,0,0,0,0l-0.1-0.3c0,0,0-0.1,0-0.1c0,0,0-0.1,0-0.1c0.1-0.4,0.1-0.6,0.2-0.8c0.2,0,0.3-0.1,0.5-0.2
		c0.1,0,0.2-0.1,0.2-0.1c0.3-0.2,0.4-0.2,0.6-0.2c0.2,0,0.5,0,1.3,0.3c0.6,0.2,1.1,0.4,1.2,0.5l2.3,1.3c-0.1,0.2-0.1,0.3-0.2,0.5
		c-0.2,0-0.4,0.1-0.5,0.2C44.9,57.8,44.6,58.2,44.3,58.5z M51,60.5c0,0-0.1,0.1-0.1,0.2c-0.1,0.1-0.2,0.2-0.3,0.3
		c-1.6-0.7-2.9-0.6-3.4,0.2c-0.4,0.6-0.4,1.5,0.1,2.7c0,0,0,0.1,0.1,0.1l0.4,0.5L47.4,65c-0.7-0.7-1.1-1.3-1.2-1.8
		c-0.2-0.8-0.2-1.6,0-2.5c0-0.2,0-0.4-0.2-0.5c-0.4-0.3-0.7-0.6-0.9-0.7l0,0c0,0-0.1-0.1-0.1-0.1c0,0,0.1-0.1,0.1-0.1
		c0.3-0.3,0.5-0.7,0.8-1.1l1.3,0.7c0.1,0.1,0.3,0.1,0.4,0c0.8-0.3,1.8-0.4,2.9-0.1c0.1,0.1,0.2,0.1,0.2,0.1c0.1,0.1,0.2,0.1,0.3,0.1
		c0.5,0.3,0.8,0.5,1.1,0.6L51,60.5z M57.1,56c0,0-0.1,0.1-0.1,0.1c-0.1,0.1-0.1,0.2-0.1,0.4c0,0,0,0.1,0,0.1c-0.1,0-0.1,0.1-0.1,0.2
		c-0.1,0.2-0.3,0.5-0.7,0.9l-0.8,0.8l-1.5,1c0-0.1,0-0.1,0-0.2c-0.1-0.2-0.3-0.4-0.4-0.6c-0.1-0.1-0.2-0.3-0.3-0.4
		c0-0.1,0-0.2-0.1-0.3c0-0.1,0-0.1,0-0.2c0-0.2-0.1-0.3-0.3-0.4l-0.3-1l0.8-0.4c0.7-0.1,1.4-0.3,2-0.6c0.7-0.2,1.1-0.3,1.5-0.3
		c0,0,0.1,0,0.1,0l0.3,0.3c0,0,0,0,0.1,0c0,0,0,0,0,0L57.1,56C57.2,56,57.2,56,57.1,56z M58.7,54.5c-0.2,0.1-0.3,0.1-0.5,0.3
		c0.2-0.2,0.4-0.4,0.5-0.6L58.7,54.5C58.8,54.5,58.8,54.5,58.7,54.5z M61.6,52.8l-0.1,3.9c-1-0.1-1.7-0.5-2-1.2c0,0,0,0,0,0
		c0.3,0,0.5-0.3,0.4-0.6l-0.2-1l0-0.7c0-0.1,0.1-0.2,0.1-0.3c0,0,0,0,0,0c0.2-0.7,0.6-1.1,1.2-1.3c0.3-0.1,0.5-0.1,0.8-0.1
		C61.7,51.9,61.6,52.3,61.6,52.8z M63.7,21.8c0,0-0.1-0.1-0.1-0.1c0,0,0,0,0,0c0.2-0.1,0.3-0.1,0.5,0c0,0,0,0.1,0,0.1
		c0,0.1,0,0.1-0.1,0.1c0,0-0.1,0-0.1,0.1C63.9,22,63.8,22,63.7,21.8z M62.7,25.4c0.4-0.2,0.8-0.4,1.2-0.5c0.2,0.2,0.5,0.1,0.6,0
		c0.6-0.1,1-0.1,1.4,0c1.5,0.1,2.4,0.5,3,1.4c0.2,0.2,0.3,0.4,0.4,0.6c-2.8,0.3-5.6,0.7-8.4,1.3C61,27,61.6,26,62.7,25.4z
		 M57.6,46.6c-0.2,0-0.3,0-0.4,0c-0.1-0.1-0.2-0.3-0.2-0.7c-1.5-4.6-2.3-9.5-2.4-14.5c0-0.4,0-0.6,0.1-0.7c0.1-0.1,0.3-0.1,0.4-0.1
		c1.5-0.4,3.1-0.7,4.6-1.1l0.7-0.2c0.1,0,0.2,0.1,0.3,0c3-0.7,6.1-1.2,9.1-1.5C69.8,28,69.9,28,70,28l4.3-0.4c0.3,0,0.6,0,0.7,0.6
		c1.2,4.4,2.1,9.3,2.5,14.5c0.1,0.8-0.3,0.8-0.4,0.9c-2.4,0.6-4.6,1.1-6.5,1.5c-0.1-0.1-0.2-0.1-0.3-0.1l-2.8,0.5
		c-0.1,0-0.2-0.1-0.3-0.1C63.8,46.1,60.7,46.4,57.6,46.6z M67.9,46.6l0-0.1l2-0.3l-0.1,0.2c-0.1,0.5-0.1,1,0.1,1.4l-2,0.2
		C67.9,47.6,68,47.1,67.9,46.6z M62,57.8c0.3,0,0.5-0.2,0.5-0.5l0.1-4.5c0-0.5,0.1-0.9,0.2-1.3c0.1-0.1,0.1-0.3,0-0.5
		c0.4-1,1.3-1.7,2.5-2c0.6-0.2,1.1-0.2,1.5-0.3c0.1,0.2,0.3,0.3,0.5,0.3l3.2-0.3c0,0,0,0,0,0c0,0,0.1,0,0.1,0l3.1-0.3
		c0.6-0.1,1.3,0.4,2.2,1.5c0,0,0,0.1,0.1,0.1c0.9,1.2,1.6,2.8,2.4,5.2c0,0.1-0.1,0.2-0.1,0.3v0.2c0,0,0,0.1,0,0.1l0.3,0.9
		c0.1,0.4,0.2,0.8,0.3,1.1c-1.6-0.5-3.5-0.6-5.5-0.2c-1.3,0.4-2.4,0.9-3.5,1.8c-1.6,1.2-3.3,1.6-5.2,1.2l-2.6-1c0,0-0.1,0-0.1,0
		V57.8z M69.1,73.7c-0.3,0.4-0.8,0.6-1.6,0.9c-0.9,0.2-2,0.3-3.1,0.3c-1.2,0-1.5-0.4-1.6-0.7c-0.2-0.5-0.2-1.1,0.2-1.8
		c0.6-1.3,1.4-2,2.4-2.1c0,0,0.1,0,0.1,0c0.1,0,0.1,0,0.2,0H67C68.4,71,69.1,72.1,69.1,73.7z M66.4,69.2h-0.5c0.1-0.6,0.1-1.4,0-2.5
		l-0.1-1.5h0.4v1.4C66.2,67.8,66.3,68.6,66.4,69.2z M78.3,68.7c0.1,0,0.2,0,0.3-0.1c0.5,0.1,1,0.2,1.5,0.5c0.5,0.3,0.8,0.5,0.9,0.7
		c0.2,0.3,0.5,1,0.6,1.8c0.1,0.6-0.1,1-0.5,1.3c-0.5,0.3-2.4,0.5-5.8,0.6c-0.4,0-0.6-0.2-0.7-0.4l-0.2-0.7c0-1,0.4-1.8,1.2-2.6
		c0.3-0.3,0.6-0.4,0.9-0.6c0.1,0,0.3,0,0.4-0.1l0.3-0.2C77.7,68.8,78,68.7,78.3,68.7z M76.1,63.9l0.5-0.1l0.2,1.4
		c0.1,1,0.4,1.9,0.6,2.5c-0.2,0-0.3,0.1-0.5,0.1c0,0,0,0,0,0c0-0.6-0.1-1.4-0.3-2.5L76.1,63.9z M79.5,62.1c0,0.2-0.1,0.3-0.1,0.3
		c-0.1,0-0.1,0-0.2,0l-2.3,0.3c-0.1,0-0.2,0-0.2,0.1l-1,0.2c-0.1,0-0.1,0-0.2,0.1c0,0-0.1,0-0.1,0l-2.6,0.4
		c-2.3,0.4-4.4,0.7-6.1,0.8h-1c-0.1,0-0.2,0-0.3,0.1c-0.1,0-0.2-0.1-0.3-0.1c0,0,0,0,0,0c-1.3,0.1-2.2,0-2.8-0.1l-0.3-0.2
		C62,63.6,62,62.4,62,60.8l2.4,0.9c2.3,0.4,4.3,0,6.1-1.4c0.9-0.8,1.9-1.3,3.1-1.6c2.1-0.4,4-0.3,5.6,0.4
		C79.6,60.9,79.6,61.8,79.5,62.1z M79.3,54.7c-0.6-1.9-1.2-3.3-1.9-4.5l0.5-0.1c0.7,0.1,1.2,0.4,1.7,0.9c0,0.1,0,0.2,0.1,0.3
		l0.3,0.4l0.1,0.3c-0.1,0.1-0.1,0.2-0.1,0.4l0.1,0.7C79.9,54,79.7,54.4,79.3,54.7z M81.8,50.5c-0.4,0.4-0.8,0.8-1.1,1
		c0,0,0-0.1,0-0.1l0,0l0.1-0.1c0.5-0.4,0.9-0.7,1.2-1c0,0,0,0,0.1,0c0,0,0.1,0,0.1,0.1C82.1,50.4,82,50.5,81.8,50.5z M87.3,48.2
		c-0.1,0.1-0.3,0.2-0.4,0.2c-0.1,0.1-0.1,0.1-0.3,0.2c-0.5,0.3-1.1,0.6-1.7,0.9c-0.6,0.3-1.1,0.5-1.4,0.6c0,0-0.1,0-0.1,0
		c0,0-0.1-0.1-0.1-0.1l-0.2-0.1c-0.1-0.1-0.2-0.2-0.3-0.3c0-0.1,0-0.3-0.1-0.4c-0.1-0.1-0.2-0.1-0.3-0.2c0,0,0-0.1,0-0.1
		c0.1-0.2,0.3-0.6,0.5-1c0.2-0.2,0.3-0.4,0.4-0.5c0.2-0.2,0.3-0.3,0.4-0.5l1.5-1.6c0.1,0.1,0.1,0.1,0.2,0.2c0,0.1,0.1,0.2,0.1,0.2
		c0.2,0.2,0.4,0.4,0.6,0.7l0.1,0.2c0.1,0.2,0.2,0.3,0.3,0.4c0,0,0.1,0.1,0.1,0.1L87.3,48.2C87.3,48.1,87.3,48.1,87.3,48.2z
		 M90.5,45.8c-0.3,0.1-0.9,0-2-0.5c-0.2-0.1-0.4,0-0.5,0.1c-0.2,0.2-0.4,0.3-0.5,0.4c-0.1,0.1-0.2,0.2-0.3,0.2c0,0,0,0,0,0L87,45.8
		c-0.1-0.2-0.2-0.3-0.3-0.4l0.7-0.7c0.1-0.1,0.2-0.3,0.1-0.4c-0.1-1,0.2-2.1,0.8-3l0.3-0.3c0.2-0.3,0.5-0.6,0.7-0.7
		c0.1,0.2,0.3,0.5,0.5,0.9l0.1,0.2c-1.1,1.4-1.4,2.1-1.2,2.7c0.1,0.3,0.4,0.6,1,0.6c0.9,0.1,1.6,0,2.2-0.3l0.4,1
		C91.7,45.6,91.1,45.8,90.5,45.8z"/>
	<path class="st0" d="M70.5,41.8c-0.2-0.2-0.5-0.2-0.7-0.1c-1.1,0.9-2.7,1.2-5.1,0.9c-0.3,0-0.5,0.2-0.6,0.4s0.2,0.5,0.4,0.6
		c0.6,0.1,1.2,0.1,1.8,0.1c1.8,0,3.1-0.4,4.1-1.2C70.6,42.3,70.7,42,70.5,41.8z"/>
	<path class="st0" d="M60.3,40.2C60,40,59.7,40,59.6,40c-0.1,0-0.3,0-0.5,0.1l-0.1,0L59,40.2c-0.2,0.1-0.4,0.4-0.4,0.8
		c0,0.3,0.1,0.5,0.3,0.6c0.1,0.2,0.3,0.4,0.7,0.4c0.1,0,0.4,0,0.7-0.4c0.1-0.1,0.3-0.3,0.3-0.6C60.6,40.7,60.4,40.4,60.3,40.2z"/>
	<path class="st0" d="M74.2,40.2c0.1,0,0.2,0,0.3,0c0.2,0,0.3-0.1,0.4-0.2c0.2-0.1,0.3-0.4,0.3-0.7c0-0.2,0-0.3-0.1-0.4
		c0,0,0,0,0-0.1c0-0.1-0.1-0.2-0.2-0.2c0,0,0,0,0,0c-0.1-0.3-0.5-0.4-0.7-0.4c-0.4,0-0.6,0.2-0.8,0.3c-0.1,0.1-0.3,0.3-0.3,0.8
		c0,0.4,0.2,0.6,0.3,0.8C73.7,40.2,74,40.2,74.2,40.2z M74.1,39.2C74.1,39.2,74.1,39.2,74.1,39.2L74.1,39.2
		C74.2,39.2,74.2,39.2,74.1,39.2L74.1,39.2C74.2,39.2,74.1,39.2,74.1,39.2z"/>
	<path class="st0" d="M80.4,12.2c0.3,0.4,0.7,0.6,1.2,0.6c0.2,0,0.5-0.1,0.7-0.2l3.2-1.8c0,0,0.1-0.1,0.1-0.1l0.3-0.3
		c0,0,0.1-0.1,0.1-0.1c0.3-0.6,0.2-1.5-0.5-1.9l-3.1-1.8c-0.3-0.2-0.8-0.2-1.2-0.1c-0.3,0.1-0.6,0.3-0.7,0.5
		c-0.2,0.3-0.3,0.7-0.2,1.1C80.4,8.5,80.6,8.9,81,9l1,0.6l-1.2,0.7C80.2,10.7,80,11.5,80.4,12.2z M81.4,11.1l1.9-1.1
		c0.2-0.1,0.3-0.3,0.2-0.4s-0.1-0.3-0.3-0.4l-1.8-1c-0.1,0-0.1-0.1-0.2-0.2c0-0.1,0-0.1,0.1-0.3c0,0,0.1-0.1,0.1-0.1
		c0.1,0,0.1,0,0.2,0c0.1,0,0.1,0,0.2,0l3.1,1.8c0,0,0,0,0,0c0.1,0.1,0.2,0.3,0.1,0.5l-3.3,1.9c-0.2,0.1-0.4,0.1-0.5-0.1
		C81.2,11.5,81.2,11.3,81.4,11.1z"/>
	<path class="st0" d="M49.3,20.9c0.9,0,1.8-0.4,2.5-1c0.7-0.7,1-1.5,1-2.5c0-0.9-0.4-1.9-0.9-2.5c-0.6-0.6-1.5-0.9-2.6-0.9
		c-0.9,0-1.9,0.4-2.4,0.9c-0.7,0.6-1.1,1.5-1.1,2.5c0,0.9,0.4,1.8,1,2.4C47.4,20.5,48.3,20.9,49.3,20.9z M47.6,15.7
		c0.4-0.4,1.1-0.7,1.7-0.7c0.8,0,1.4,0.2,1.8,0.7c0.4,0.4,0.7,1.1,0.7,1.7c0,0.7-0.2,1.2-0.8,1.7c-0.5,0.5-1.1,0.8-1.7,0.8
		c-0.7,0-1.3-0.3-1.7-0.8c-0.5-0.5-0.8-1.1-0.8-1.7C46.8,16.7,47.1,16.1,47.6,15.7z"/>
	<path class="st0" d="M49.3,19.1c0.5,0,0.9-0.2,1.2-0.5c0.6-0.4,0.6-1.1,0.6-1.3c0-0.6-0.2-1.1-0.5-1.3c-0.4-0.4-0.8-0.5-1.3-0.5
		c-0.6,0-1.1,0.2-1.3,0.5c-0.4,0.4-0.5,0.8-0.5,1.3c0,0.5,0.2,0.9,0.5,1.3C48.4,18.9,48.8,19.1,49.3,19.1z M48.8,16.7
		c0.1-0.1,0.3-0.2,0.5-0.2c0.2,0,0.4,0.1,0.6,0.3c0.1,0.1,0.2,0.3,0.2,0.5c0,0.3-0.1,0.4-0.3,0.5c-0.2,0.2-0.4,0.3-0.5,0.3
		c-0.2,0-0.4-0.1-0.5-0.3c-0.2-0.2-0.3-0.4-0.3-0.5C48.5,17.1,48.6,16.9,48.8,16.7z"/>
	<path class="st0" d="M82.1,79.5h-4.5c-0.8,0-1.4,0.6-1.4,1.4c0,0.3,0.1,0.7,0.3,0.9h-7c-0.8,0-1.4,0.6-1.4,1.4
		c0,0.8,0.6,1.4,1.4,1.4h9.6c0.8,0,1.4-0.6,1.4-1.4c0-0.3-0.1-0.7-0.3-0.9h1.9c0.8,0,1.4-0.6,1.4-1.4C83.5,80.1,82.9,79.5,82.1,79.5
		z M79.1,83.6h-9.6c-0.2,0-0.4-0.2-0.4-0.4c0-0.2,0.2-0.4,0.4-0.4h9.6c0.2,0,0.4,0.2,0.4,0.4C79.5,83.4,79.3,83.6,79.1,83.6z
		 M82.1,81.3h-4.5c-0.2,0-0.4-0.2-0.4-0.4c0-0.2,0.2-0.4,0.4-0.4h4.5c0.2,0,0.4,0.2,0.4,0.4C82.5,81.1,82.3,81.3,82.1,81.3z"/>
	<path class="st0" d="M28.1,83.2c-0.3,0-0.6,0.2-0.8,0.3C27.2,83.7,27,84,27,84.3c0,0.4,0.2,0.6,0.3,0.8c0.1,0.1,0.3,0.3,0.8,0.3
		c0.4,0,0.6-0.2,0.8-0.3c0.1-0.1,0.3-0.3,0.3-0.8c0-0.3-0.2-0.6-0.3-0.8C28.7,83.4,28.5,83.2,28.1,83.2z M28.1,84.4l-0.1,0
		c0,0,0-0.1,0.1-0.1c0,0,0,0,0.1,0c0,0,0,0,0,0C28.2,84.3,28.2,84.3,28.1,84.4C28.2,84.4,28.1,84.4,28.1,84.4z"/>
	<path class="st0" d="M28.1,81.5c-0.7,0-1.4,0.3-2,0.8c-0.5,0.5-0.8,1.3-0.8,2c0,0.7,0.3,1.4,0.8,2c0.5,0.5,1.3,0.8,2,0.8
		c0.7,0,1.4-0.3,2-0.8c0.5-0.5,0.8-1.3,0.8-2s-0.3-1.4-0.8-2C29.5,81.8,28.8,81.5,28.1,81.5z M29.3,85.5c-0.7,0.7-1.8,0.7-2.5,0
		c-0.3-0.3-0.6-0.8-0.6-1.2c0-0.4,0.2-0.9,0.6-1.2c0.3-0.3,0.8-0.6,1.2-0.6c0.4,0,0.9,0.2,1.2,0.6c0.3,0.3,0.6,0.8,0.6,1.2
		S29.7,85.2,29.3,85.5z"/>
	<path class="st0" d="M20.3,12.7c0.1,0,0.2,0,0.4,0l1.6-0.4c0,0,0,0.1,0,0.1l0.4,1.6c0.2,0.6,0.7,0.9,1.3,0.9c0.1,0,0.3,0,0.4,0
		c0.7-0.3,1.1-0.9,0.9-1.7c0,0,0,0,0,0l-0.4-1.5c0,0,0-0.1,0-0.1c0,0,0,0,0-0.1c0.1,0,0.2,0,0.2,0l1.6-0.4c0.7-0.3,1.1-0.9,0.9-1.7
		c0,0,0-0.1,0-0.1c-0.3-0.7-1-1-1.7-0.9l-1.6,0.4c0,0-0.1,0-0.1,0.1c0-0.1,0-0.1,0-0.2c0,0,0,0,0,0l-0.4-1.4
		c-0.3-0.7-0.9-1.1-1.8-0.9C21.2,6.6,20.9,7.2,21,8l0.4,1.4c0,0,0,0.1,0.1,0.1c0,0,0,0,0,0L19.8,10c-0.7,0.3-1.1,0.9-0.9,1.8
		C19.2,12.4,19.7,12.7,20.3,12.7z M24.1,13.9c-0.3,0.1-0.4,0-0.5-0.2l-0.4-1.5c-0.1-0.3,0-0.4,0.2-0.5c0,0,0.1,0,0.1,0
		c0.2,0,0.4,0.2,0.4,0.3l0.4,1.4C24.4,13.7,24.3,13.8,24.1,13.9z M24.5,9.8L26,9.4c0.3-0.1,0.4,0.2,0.5,0.3c0,0.2-0.1,0.4-0.3,0.5
		l-1.5,0.4c-0.3,0.1-0.4-0.2-0.5-0.3C24.3,10,24.3,9.9,24.5,9.8z M23.3,10.3c0,0.1,0,0.1,0,0.2c0,0,0,0.1,0,0.1c0,0,0,0.1,0.1,0.1
		c-0.1,0-0.1,0-0.2,0c0,0,0-0.1,0-0.1c0,0,0-0.1,0-0.1c0-0.1-0.1-0.1-0.1-0.1c0,0,0.1,0,0.1,0C23.2,10.3,23.3,10.3,23.3,10.3z
		 M22.2,7.3c0.1,0,0.1,0,0.1,0c0.2,0,0.3,0.1,0.4,0.3l0.4,1.4c0,0.3,0,0.4-0.2,0.5c-0.3,0.1-0.4,0-0.5-0.2L22,7.8
		C21.9,7.5,22,7.4,22.2,7.3z M20.1,11l1.6-0.4c0.1,0,0.1,0,0.1,0c0.2,0,0.3,0.1,0.4,0.3c0,0.2,0,0.4-0.2,0.5l-1.6,0.4
		c-0.3,0.1-0.4,0-0.5-0.2C19.8,11.2,19.9,11.1,20.1,11z"/>
	<path class="st0" d="M52.2,95.8c-0.1-0.3-0.3-0.4-0.6-0.4l-1.3,0.3L50,94.6c-0.1-0.3-0.4-0.4-0.6-0.3l-1.6,0.5
		c-0.3,0.1-0.4,0.4-0.3,0.6l0.3,1.1l-1.2,0.4c-0.1,0-0.2,0.1-0.3,0.2c-0.1,0.1-0.1,0.3,0,0.4l0.5,1.5c0.1,0.2,0.3,0.3,0.5,0.3
		c0,0,0.1,0,0.1,0l1.1-0.4l0.3,1c0.1,0.2,0.3,0.4,0.5,0.4c0,0,0.1,0,0.1,0l1.6-0.5c0.1,0,0.2-0.1,0.3-0.2c0.1-0.1,0.1-0.3,0-0.4
		l-0.3-1l1.2-0.4c0.3-0.1,0.4-0.3,0.3-0.6L52.2,95.8z M49.2,95.4l0.2,0.6l-0.7,0.2l-0.2-0.6L49.2,95.4z M47.5,98.3l-0.2-0.5l0.7-0.2
		l0.1,0.5L47.5,98.3z M49.1,97.7L49,97.2l0.7-0.3l0.2,0.6L49.1,97.7z M49.6,99.3l-0.2-0.6l0.7-0.2l0.2,0.6L49.6,99.3z M50.8,97.3
		l-0.2-0.6l0.7-0.2l0.2,0.6L50.8,97.3z"/>
</g>
</svg>
