<svg xmlns="http://www.w3.org/2000/svg" width="154" height="123" viewBox="0 0 154 123">
    <defs>
        <filter id="a" width="148.8%" height="162%" x="-24%" y="-31%" filterUnits="objectBoundingBox">
            <feOffset in="SourceAlpha" result="shadowOffsetOuter1"/>
            <feGaussianBlur in="shadowOffsetOuter1" result="shadowBlurOuter1" stdDeviation="10"/>
            <feColorMatrix in="shadowBlurOuter1" result="shadowMatrixOuter1" values="0 0 0 0 0.841459055 0 0 0 0 0.895036578 0 0 0 0 0.937898597 0 0 0 1 0"/>
            <feMerge>
                <feMergeNode in="shadowMatrixOuter1"/>
                <feMergeNode in="SourceGraphic"/>
            </feMerge>
        </filter>
    </defs>
    <g fill="none" fill-rule="evenodd" filter="url(#a)" transform="translate(16 11)">
        <path fill="#5968AE" d="M18.05 36.397l-6.311-3.644v7.287z"/>
        <path stroke="#5968AE" stroke-linecap="round" stroke-width="1.5" d="M22.72 25.907h4.62c.742 0 1.344.602 1.344 1.343v18.293c0 .741-.602 1.343-1.343 1.343H2.093A1.344 1.344 0 0 1 .75 45.543V27.25c0-.74.602-1.343 1.343-1.343h17.103"/>
        <path stroke="#5968AE" stroke-linecap="round" stroke-width="2" d="M10.663 24.347l.085-11.604c.007-.97.8-1.752 1.77-1.745l37.9.277M111.168 51.497l-.203 27.854c-.007.97-.8 1.752-1.77 1.745l-97.182-.709a1.759 1.759 0 0 1-1.745-1.77l.174-29.91M16.478 66.76l94.574.69M57.448 93.518l27.794.203a3.14 3.14 0 0 1-.046 6.279l-49.464-.36a3.14 3.14 0 0 1 .046-6.28l10.244.075M71.297 80.82s.461 9.205 8.686 12.862M49.91 80.663s-.596 9.2-8.872 12.735"/>
        <path stroke="#5968AE" stroke-linecap="round" stroke-width="2" d="M113.064.4l9.672.07c.97.008 1.752.8 1.745 1.771l-.347 47.592a1.757 1.757 0 0 1-1.771 1.745l-64.536-.47a1.759 1.759 0 0 1-1.745-1.77l.347-47.593c.007-.97.8-1.753 1.77-1.745l37.873.276"/>
        <path fill="#E5EFF7" d="M118.367 23.828l-35.659-.26.09-12.054 35.657.26z"/>
        <path stroke="#5967AD" stroke-linecap="round" stroke-linejoin="round" stroke-width="2" d="M118.367 23.828l-35.659-.26.09-12.054 35.657.26z"/>
        <path stroke="#5968AE" stroke-linecap="round" stroke-width="2" d="M118.21 45.442l-35.659-.26.116-15.907 35.658.26z"/>
        <path fill="#E5EFF7" d="M78.313 45.15l-16.444-.12.246-33.667 16.444.12z"/>
        <path stroke="#5967AD" stroke-linecap="round" stroke-linejoin="round" stroke-width="2" d="M78.313 45.15l-16.444-.12.246-33.667 16.444.12z"/>
        <path fill="#5968AE" d="M63.304 6.113a1.312 1.312 0 1 1-2.625-.018 1.312 1.312 0 0 1 2.625.018M67.918 6.147a1.312 1.312 0 1 1-2.625-.019 1.312 1.312 0 0 1 2.625.019M72.532 6.18a1.313 1.313 0 1 1-2.625-.02 1.313 1.313 0 0 1 2.625.02"/>
        <path stroke="#5968AE" stroke-linecap="round" stroke-width="2" d="M103.176.306l3.003.044"/>
    </g>
</svg>
