<?xml version="1.0" encoding="UTF-8"?>
<svg width="33px" height="33px" viewBox="0 0 33 33" version="1.1" xmlns="http://www.w3.org/2000/svg" xmlns:xlink="http://www.w3.org/1999/xlink">
    <!-- Generator: Sketch 49.3 (51167) - http://www.bohemiancoding.com/sketch -->
    <title>icon</title>
    <desc>Created with Sketch.</desc>
    <defs>
        <path d="M14.5,29 C22.5081289,29 29,22.5081289 29,14.5 C29,6.49187113 22.5081289,0 14.5,0 C6.49187113,0 0,6.49187113 0,14.5 C0,22.5081289 6.49187113,29 14.5,29 Z" id="path-1"></path>
        <filter x="-17.2%" y="-13.8%" width="134.5%" height="134.5%" filterUnits="objectBoundingBox" id="filter-2">
            <feOffset dx="0" dy="1" in="SourceAlpha" result="shadowOffsetOuter1"></feOffset>
            <feGaussianBlur stdDeviation="1.5" in="shadowOffsetOuter1" result="shadowBlurOuter1"></feGaussianBlur>
            <feColorMatrix values="0 0 0 0 0   0 0 0 0 0   0 0 0 0 0  0 0 0 0.25 0" type="matrix" in="shadowBlurOuter1"></feColorMatrix>
        </filter>
    </defs>
    <g id="icon" stroke="none" stroke-width="1" fill="none" fill-rule="evenodd">
        <g id="add-button-2-copy" transform="translate(2.000000, 2.000000)">
            <g id="Oval-8" opacity="0.216259058">
                <use fill="black" fill-opacity="1" filter="url(#filter-2)" xlink:href="#path-1"></use>
                <use fill="#FFFFFF" fill-rule="evenodd" xlink:href="#path-1"></use>
            </g>
            <path d="M12.1390431,19.3107123 L7.62404567,14.6008494 C7.12531811,14.0805969 7.12531811,13.2372432 7.62404567,12.7169908 C8.12277322,12.1967383 8.93123406,12.1967383 9.42996162,12.7169908 L13.0418313,16.4847473 L19.1515428,10.056797 C19.6502703,9.53670196 20.4589198,9.53654452 20.9573078,10.056797 C21.4561863,10.5770494 21.4561863,11.4205999 20.9573078,11.9406555 L13.9448081,19.3107123 C13.6954443,19.5706811 13.3686189,19.7008032 13.0418313,19.7008032 C12.7151945,19.7008032 12.3882182,19.5708385 12.1390431,19.3107123 Z" id="Shape" fill="#FFFFFF"></path>
        </g>
    </g>
</svg>