<svg xmlns="http://www.w3.org/2000/svg" width="110" height="110" viewBox="0 0 110 110"><defs><style>.cls-1{fill:#fff;}</style></defs><title>Воротник - Закругленный</title><g id="Воротник"><g id="Закругленный"><g id="Цвет-7" data-name="Цвет"><path class="cls-1" d="M55,33.08a77.9,77.9,0,0,1,31.167,6.087c7.317-5.629,10.413-12.351,10.5-19.849C86,13.333,70.652,11,55,11s-31,2.333-41.671,8.317c.092,7.5,3.188,14.22,10.5,19.849A77.9,77.9,0,0,1,55,33.08Z"/><path class="cls-1" d="M44.5,50.5,37.3,71.446a15,15,0,0,1-26.613,3.411C8.732,71.943,6.915,69.173,5.3,66.626.909,59.707.1,47.979,3.534,40.539l9.795-21.221C12.911,30.906,22.9,42.518,44.5,50.5Z"/><path class="cls-1" d="M65.5,50.5l7.219,20.643a15,15,0,0,0,26.613,3.411c1.954-2.914,3.772-5.684,5.388-8.231,4.389-6.919,5.2-18.648,1.764-26.088L96.69,19.014C97.108,30.6,87.1,42.518,65.5,50.5Z"/><path class="cls-1" d="M72.124,69.771,65.5,50.5c8.9-3.068,15.486-6.76,20.667-11.333A77.113,77.113,0,0,0,55,33.08a77.113,77.113,0,0,0-31.167,6.087C29.014,43.74,35.6,47.432,44.5,50.5L37.98,69.826A86.531,86.531,0,0,0,72.124,69.771Z"/></g><g id="Контур-7" data-name="Контур"><path d="M41.549,52.1a.5.5,0,0,0-.637.307l-.66,1.888a.5.5,0,1,0,.943.33l.66-1.888A.5.5,0,0,0,41.549,52.1Z"/><path d="M38.907,59.649a.5.5,0,0,0-.637.307l-.66,1.888a.5.5,0,0,0,.307.637.489.489,0,0,0,.165.028.5.5,0,0,0,.472-.335l.66-1.888A.5.5,0,0,0,38.907,59.649Z"/><path d="M37.587,63.425a.5.5,0,0,0-.637.307l-.66,1.888a.5.5,0,0,0,.307.637.489.489,0,0,0,.165.028.5.5,0,0,0,.472-.335l.66-1.888A.5.5,0,0,0,37.587,63.425Z"/><path d="M40.229,55.873a.5.5,0,0,0-.637.307l-.661,1.889a.5.5,0,0,0,.307.637.489.489,0,0,0,.165.028.5.5,0,0,0,.472-.335l.661-1.889A.5.5,0,0,0,40.229,55.873Z"/><path d="M36.267,67.2a.5.5,0,0,0-.637.307L34.97,69.4a.5.5,0,0,0,.307.637.489.489,0,0,0,.165.028.5.5,0,0,0,.472-.335l.66-1.888A.5.5,0,0,0,36.267,67.2Z"/><path d="M3.259,55a.5.5,0,0,0,.386-.593c-.135-.638-.254-1.284-.354-1.938a.5.5,0,0,0-.988.15c.1.672.225,1.338.363,1.995a.5.5,0,0,0,.488.4A.506.506,0,0,0,3.259,55Z"/><path d="M4.669,58.217c-.2-.614-.39-1.247-.563-1.893a.5.5,0,1,0-.965.26q.267.995.577,1.943a.5.5,0,0,0,.476.345.51.51,0,0,0,.155-.024A.5.5,0,0,0,4.669,58.217Z"/><path d="M37.988,51.263q.914.405,1.845.792a.5.5,0,1,0,.385-.923q-.92-.382-1.825-.783a.5.5,0,1,0-.4.914Z"/><path d="M34.347,49.55q.9.448,1.811.878a.493.493,0,0,0,.213.048.5.5,0,0,0,.213-.952q-.9-.426-1.789-.868a.5.5,0,0,0-.447.895Z"/><path d="M19.441,39.3a.5.5,0,0,0,.7-.713q-.712-.7-1.371-1.42a.5.5,0,0,0-.738.676Q18.71,38.587,19.441,39.3Z"/><path d="M34.923,70.968a.5.5,0,0,0-.666.236,12.472,12.472,0,0,1-.957,1.664.5.5,0,0,0,.826.564,13.535,13.535,0,0,0,1.033-1.8A.5.5,0,0,0,34.923,70.968Z"/><path d="M17.93,77.151a12.09,12.09,0,0,1-1.685-.921.5.5,0,0,0-.547.838,13.239,13.239,0,0,0,1.823,1,.49.49,0,0,0,.2.044.5.5,0,0,0,.2-.956Z"/><path d="M14.253,30.769a.5.5,0,0,0-.893.452c.3.594.636,1.193.994,1.78a.5.5,0,1,0,.854-.521C14.863,31.916,14.542,31.34,14.253,30.769Z"/><path d="M21.626,78.149a12.431,12.431,0,0,1-1.887-.355.5.5,0,0,0-.262.965,13.453,13.453,0,0,0,2.039.385l.056,0a.5.5,0,0,0,.054-1Z"/><path d="M17.1,36.5a.5.5,0,0,0,.388-.816q-.628-.771-1.193-1.564a.5.5,0,1,0-.814.58q.583.819,1.232,1.616A.5.5,0,0,0,17.1,36.5Z"/><path d="M6.084,61.9c-.26-.581-.514-1.19-.757-1.824a.5.5,0,0,0-.934.359q.376.977.778,1.873a.5.5,0,0,0,.456.3.49.49,0,0,0,.2-.044A.5.5,0,0,0,6.084,61.9Z"/><path d="M13.411,73.66a.5.5,0,1,0-.777.629A13.6,13.6,0,0,0,14.057,75.8a.5.5,0,0,0,.672-.74A12.573,12.573,0,0,1,13.411,73.66Z"/><path d="M6.942,63.674a.5.5,0,1,0-.887.465c.333.634.673,1.229,1.012,1.771a.5.5,0,0,0,.848-.531C7.59,64.858,7.263,64.285,6.942,63.674Z"/><path d="M12.979,29.677a.5.5,0,0,0,.464-.687c-.247-.609-.465-1.229-.648-1.841a.5.5,0,1,0-.957.287c.191.642.42,1.291.678,1.929A.5.5,0,0,0,12.979,29.677Z"/><path d="M11.176,70.4a.5.5,0,1,0-.834.551l1.107,1.669a.5.5,0,1,0,.832-.555Z"/><path d="M8.991,67.058a.5.5,0,1,0-.84.543q.535.826,1.092,1.679a.5.5,0,0,0,.418.227.492.492,0,0,0,.273-.082.5.5,0,0,0,.145-.691Q9.524,67.883,8.991,67.058Z"/><path d="M32.1,74.362a12.165,12.165,0,0,1-1.425,1.285.5.5,0,0,0,.3.9.5.5,0,0,0,.3-.1,13.159,13.159,0,0,0,1.542-1.391.5.5,0,0,0-.727-.687Z"/><path d="M23.089,41.229q-.773-.634-1.5-1.286a.5.5,0,1,0-.666.745q.746.667,1.537,1.314a.5.5,0,1,0,.633-.773Z"/><path d="M29.573,45.78q-.854-.518-1.68-1.055a.5.5,0,1,0-.545.838q.838.546,1.707,1.073a.5.5,0,1,0,.518-.855Z"/><path d="M33.027,47.744q-.882-.469-1.74-.958a.5.5,0,0,0-.494.869q.87.5,1.764.971a.5.5,0,1,0,.471-.883Z"/><path d="M25.457,77.988a12.667,12.667,0,0,1-1.908.224.5.5,0,0,0,.021,1h.021a13.642,13.642,0,0,0,2.059-.243.5.5,0,0,0-.191-.98Z"/><path d="M24.645,42.452a.5.5,0,1,0-.6.8q.8.6,1.632,1.186a.5.5,0,0,0,.574-.819Q25.43,43.043,24.645,42.452Z"/><path d="M29.063,76.694a12.63,12.63,0,0,1-1.753.784.5.5,0,0,0,.168.971.507.507,0,0,0,.168-.029,13.474,13.474,0,0,0,1.894-.847.5.5,0,1,0-.477-.879Z"/><path d="M16.617,20.4a.5.5,0,0,0,.215-.049q.875-.417,1.8-.8a.5.5,0,0,0-.387-.923q-.951.4-1.848.825a.5.5,0,0,0,.215.951Z"/><path d="M20.3,18.851a.5.5,0,0,0,.174-.031q.914-.338,1.87-.651a.5.5,0,1,0-.311-.95q-.976.319-1.907.664a.5.5,0,0,0,.174.969Z"/><path d="M71.694,14.845q1,.122,1.975.259a.486.486,0,0,0,.07,0,.5.5,0,0,0,.068-1q-.987-.138-1.992-.261a.5.5,0,1,0-.121.992Z"/><path d="M47.789,14.041h.023c.663-.031,1.326-.058,1.993-.08a.5.5,0,0,0-.017-1h-.017q-1.006.034-2.007.08a.5.5,0,0,0,.023,1Z"/><path d="M43.8,14.286h.039q.99-.075,1.988-.136a.5.5,0,0,0,.469-.53.509.509,0,0,0-.529-.468q-1.006.062-2,.137a.5.5,0,0,0,.037,1Z"/><path d="M75.638,15.4q.992.158,1.962.334a.508.508,0,0,0,.09.008.5.5,0,0,0,.088-.992q-.98-.177-1.981-.337a.5.5,0,0,0-.573.415A.5.5,0,0,0,75.638,15.4Z"/><path d="M79.555,16.108q.984.2,1.943.418a.487.487,0,0,0,.111.013.5.5,0,0,0,.111-.987q-.97-.222-1.967-.424a.5.5,0,0,0-.2.98Z"/><path d="M39.812,14.649a.482.482,0,0,0,.054,0q.984-.1,1.983-.2a.5.5,0,0,0-.092-1c-.67.062-1.337.127-2,.2a.5.5,0,0,0,.052,1Z"/><path d="M51.792,13.907h.01q1-.019,2-.027a.5.5,0,0,0,0-1h0q-1.006.007-2.009.027a.5.5,0,0,0,.01,1Z"/><path d="M63.757,14.133q1,.059,1.988.132h.038a.5.5,0,0,0,.036-1q-1-.074-2-.133a.512.512,0,0,0-.528.47A.5.5,0,0,0,63.757,14.133Z"/><path d="M67.731,14.428q1,.089,1.983.192l.054,0a.5.5,0,0,0,.052-1q-.993-.1-2-.194a.507.507,0,0,0-.542.454A.5.5,0,0,0,67.731,14.428Z"/><path d="M55.793,13.878q1,.007,1.993.024h.009a.5.5,0,0,0,.009-1q-1-.018-2-.024h0a.5.5,0,0,0,0,1Z"/><path d="M59.776,13.953q1,.032,1.989.077h.022a.5.5,0,0,0,.022-1q-1-.045-2-.077a.483.483,0,0,0-.516.483A.5.5,0,0,0,59.776,13.953Z"/><path d="M90.965,19.448q.932.384,1.81.794a.5.5,0,0,0,.212.047.5.5,0,0,0,.212-.953q-.9-.421-1.853-.814a.5.5,0,0,0-.381.925Z"/><path d="M31.894,15.786a.476.476,0,0,0,.091-.008q.97-.178,1.961-.338a.5.5,0,0,0-.16-.987q-1,.163-1.98.342a.5.5,0,0,0,.089.992Z"/><path d="M27.976,16.6a.5.5,0,0,0,.113-.013q.958-.223,1.941-.425a.5.5,0,0,0,.389-.591.505.505,0,0,0-.59-.389q-1,.206-1.967.43a.5.5,0,0,0,.113.987Z"/><path d="M24.105,17.6a.493.493,0,0,0,.14-.02q.94-.274,1.915-.527a.5.5,0,1,0-.252-.968q-.989.256-1.942.535a.5.5,0,0,0,.14.98Z"/><path d="M87.243,18.092q.959.309,1.875.642a.5.5,0,0,0,.342-.939q-.933-.34-1.91-.654a.5.5,0,0,0-.307.952Z"/><path d="M83.43,16.994q.974.25,1.916.52a.5.5,0,1,0,.275-.961q-.954-.275-1.943-.528a.5.5,0,0,0-.248.969Z"/><path d="M35.842,15.144a.5.5,0,0,0,.071,0q.979-.139,1.974-.264a.5.5,0,1,0-.123-.992q-1,.125-1.991.266a.5.5,0,0,0,.069,1Z"/><path d="M78.6,34.368q.968.264,1.91.548a.5.5,0,0,0,.287-.958q-.954-.286-1.934-.555a.5.5,0,0,0-.264.965Z"/><path d="M66.913,32.009q.993.133,1.97.285a.526.526,0,0,0,.078.006.5.5,0,0,0,.076-.994q-.989-.154-1.991-.288a.5.5,0,0,0-.133.991Z"/><path d="M82.409,35.512q.957.313,1.881.644a.5.5,0,0,0,.168.029.5.5,0,0,0,.168-.971q-.936-.335-1.9-.653a.5.5,0,0,0-.312.95Z"/><path d="M74.744,33.407q.976.219,1.934.458a.52.52,0,0,0,.121.015.5.5,0,0,0,.121-.985q-.968-.241-1.957-.463a.5.5,0,1,0-.219.976Z"/><path d="M70.844,32.622q.984.176,1.954.371a.492.492,0,0,0,.1.01.5.5,0,0,0,.1-.99q-.98-.2-1.976-.375a.5.5,0,0,0-.176.984Z"/><path d="M58.993,31.3q1,.046,1.985.113h.035a.5.5,0,0,0,.033-1q-1-.067-2.007-.114a.494.494,0,0,0-.522.477A.5.5,0,0,0,58.993,31.3Z"/><path d="M39.092,32.595a.534.534,0,0,0,.088-.007q.973-.171,1.963-.324a.5.5,0,1,0-.152-.988q-1,.154-1.984.327a.5.5,0,0,0,.086.993Z"/><path d="M35.17,33.375a.519.519,0,0,0,.108-.012q.964-.215,1.946-.41a.5.5,0,0,0-.2-.98q-.993.2-1.968.414a.5.5,0,0,0,.108.988Z"/><path d="M31.287,34.333a.488.488,0,0,0,.131-.018q.949-.258,1.925-.5a.5.5,0,0,0,.365-.6.493.493,0,0,0-.605-.366q-.986.243-1.946.5a.5.5,0,0,0,.131.982Z"/><path d="M27.453,35.475a.5.5,0,0,0,.154-.024q.935-.3,1.9-.591a.5.5,0,1,0-.285-.958q-.974.29-1.921.6a.5.5,0,0,0,.154.976Z"/><path d="M43.045,31.987a.506.506,0,0,0,.066,0q.981-.129,1.976-.238a.5.5,0,0,0-.109-.994q-1,.11-2,.241a.5.5,0,0,0,.064,1Z"/><path d="M23.684,36.813a.494.494,0,0,0,.18-.034q.914-.352,1.862-.69a.5.5,0,0,0-.334-.942q-.962.341-1.888.7a.5.5,0,0,0,.18.966Z"/><path d="M55.019,31.2q1,0,1.989.025h.012a.5.5,0,0,0,.012-1q-1-.023-2.011-.025h0a.5.5,0,0,0,0,1Z"/><path d="M47.022,31.551l.044,0q.99-.086,1.986-.152a.5.5,0,0,0-.066-1q-1.006.067-2.006.154a.5.5,0,0,0,.042,1Z"/><path d="M62.96,31.567q1,.089,1.979.2l.057,0a.5.5,0,0,0,.055-1q-.995-.111-2-.2a.5.5,0,0,0-.09,1Z"/><path d="M51.018,31.29h.022q.99-.044,1.988-.065a.5.5,0,0,0-.011-1h-.011Q52,30.245,51,30.29a.5.5,0,0,0,.022,1Z"/><path d="M106.92,40.329,97.125,19.108a.493.493,0,0,0-.476-.283c-8.507-5.291-23.7-8.325-41.734-8.325-18.111,0-33.366,3.06-41.852,8.394-.011.007-.017.019-.028.027a.489.489,0,0,0-.091.086.483.483,0,0,0-.041.059.476.476,0,0,0-.029.042L3.08,40.329C-.416,47.9.39,59.821,4.877,66.894c1.53,2.414,3.346,5.187,5.395,8.242A15.388,15.388,0,0,0,23.1,82a15.759,15.759,0,0,0,2-.128A15.418,15.418,0,0,0,37.772,71.608l.425-1.237A87.457,87.457,0,0,0,54.915,72a87.5,87.5,0,0,0,16.876-1.662l.438,1.273A15.417,15.417,0,0,0,84.9,81.87a15.748,15.748,0,0,0,2,.128,15.388,15.388,0,0,0,12.828-6.862c2.049-3.056,3.864-5.828,5.395-8.242C109.61,59.821,110.416,47.9,106.92,40.329ZM96.173,19.7q.01.606-.02,1.209c-.377-.224-.747-.452-1.144-.665a.5.5,0,1,0-.475.88c.532.287,1.039.586,1.532.891-.554,5.155-3.238,10.1-7.827,14.6q-.848-.358-1.728-.7a.5.5,0,1,0-.363.932c.442.173.871.352,1.3.53-.409.379-.833.754-1.27,1.127a85.412,85.412,0,0,0-62.417-.045c-.5-.432-.986-.869-1.454-1.31a.485.485,0,0,0-.022-.283.491.491,0,0,0-.57-.285c-4.593-4.522-7.268-9.486-7.8-14.66.377-.23.756-.459,1.156-.679a.5.5,0,1,0-.48-.877c-.261.143-.5.3-.756.443-.017-.4-.022-.8-.014-1.208C22.2,14.454,37.146,11.5,54.915,11.5,72.8,11.5,87.829,14.49,96.173,19.7ZM65.408,50H44.592A70.455,70.455,0,0,1,24.643,39.2,84.4,84.4,0,0,1,85.3,39.24,70.57,70.57,0,0,1,65.408,50ZM24.975,80.879a14.244,14.244,0,0,1-13.873-6.3c-2.044-3.049-3.854-5.814-5.381-8.221C2.861,61.85,1.563,55.3,1.979,49.271c.021.442.035.88.076,1.333a.5.5,0,0,0,.5.455l.046,0a.5.5,0,0,0,.453-.543c-.06-.667-.1-1.327-.111-1.962a.478.478,0,0,0-.511-.489.5.5,0,0,0-.366.178c.043-.421.091-.84.152-1.254a.487.487,0,0,0,.226.075h.026a.5.5,0,0,0,.5-.474c.035-.67.1-1.326.183-1.949a.492.492,0,0,0-.342-.534c.091-.345.191-.683.3-1.017a.5.5,0,0,0,.395-.371c.147-.638.327-1.269.533-1.875a.487.487,0,0,0,.017-.228l7.224-15.653c.028.163.039.326.071.488a.5.5,0,0,0,.489.4.509.509,0,0,0,.1-.009.5.5,0,0,0,.394-.588,19.149,19.149,0,0,1-.28-1.927c0-.008-.006-.015-.007-.023l.834-1.807v.011a.49.49,0,0,0,.033.449c0,.006.011.008.015.014C13.536,28.141,17.05,34,23.1,39.2a.474.474,0,0,0,.013.067.5.5,0,0,0,.41.3c5.114,4.28,11.962,8.095,20.343,11.237L36.828,71.281A14.244,14.244,0,0,1,24.975,80.879ZM44.169,53H44.5a.5.5,0,0,0,.012-1l.345-1h5.426a9.508,9.508,0,0,0-1.633,1.03A.489.489,0,0,0,48.5,52h-2a.5.5,0,0,0,0,1h1.091A9.456,9.456,0,0,0,45,59.5v8.918c-.475-.055-.951-.11-1.421-.172a.5.5,0,0,0-.131.992c.514.068,1.033.128,1.552.188V70.4c-2.167-.25-4.327-.569-6.473-.984ZM46,70.52c0-.007,0-.013,0-.02v-11A8.51,8.51,0,0,1,54.5,51H65.143l.364,1.057a.5.5,0,0,0,.222.943h.1l4.988,14.511c-.461.087-.922.174-1.388.254a.5.5,0,0,0,.168.986c.521-.089,1.036-.186,1.549-.283l.314.913A86.384,86.384,0,0,1,46,70.52Zm58.283-4.161c-1.526,2.406-3.337,5.172-5.381,8.221a14.5,14.5,0,0,1-25.726-3.295L66.131,50.8c18.988-7.119,30.121-17.689,31-29.3l.984,2.132a.488.488,0,0,0-.208.355,15.447,15.447,0,0,1-.246,1.918.5.5,0,0,0,.4.585.537.537,0,0,0,.1.009.5.5,0,0,0,.49-.406c.062-.324.114-.65.156-.977l6.966,15.093a.49.49,0,0,0,.028.24,18.844,18.844,0,0,1,.646,1.837.476.476,0,0,0,.294.3c.125.364.25.728.357,1.106a.5.5,0,0,0-.2.491c.118.628.21,1.279.271,1.934a.5.5,0,0,0,.5.453.383.383,0,0,0,.048,0l.006,0c.055.337.1.677.142,1.02a.476.476,0,0,0-.094-.019h-.007a.5.5,0,0,0-.493.506l0,.225c0,.581-.021,1.159-.061,1.735a.5.5,0,0,0,.465.533h.035a.492.492,0,0,0,.381-.19C108.28,56.09,106.965,62.124,104.279,66.358Z"/><path d="M78.287,74.753a.5.5,0,1,0-.693.721,13.326,13.326,0,0,0,1.6,1.319.5.5,0,1,0,.572-.82A12.315,12.315,0,0,1,78.287,74.753Z"/><path d="M71.258,58.607,70.6,56.72a.5.5,0,0,0-.943.33l.66,1.888a.5.5,0,0,0,.472.335.489.489,0,0,0,.165-.028A.5.5,0,0,0,71.258,58.607Z"/><path d="M69.938,54.832l-.66-1.888a.5.5,0,1,0-.943.33l.66,1.888a.5.5,0,1,0,.943-.33Z"/><path d="M73.114,50.707a.5.5,0,0,0,.211-.047q.916-.426,1.817-.873a.5.5,0,1,0-.443-.9q-.892.442-1.8.862a.5.5,0,0,0,.211.953Z"/><path d="M69.445,52.311a.5.5,0,0,0,.189-.037q.932-.382,1.854-.785a.5.5,0,0,0-.4-.916q-.911.4-1.832.775a.5.5,0,0,0,.189.963Z"/><path d="M76.7,48.929a.5.5,0,0,0,.233-.058q.894-.471,1.769-.962a.5.5,0,0,0-.49-.872q-.863.485-1.745.95a.5.5,0,0,0,.233.942Z"/><path d="M96.754,30.262A.5.5,0,0,0,97.412,30a19.45,19.45,0,0,0,.721-1.919.5.5,0,1,0-.953-.3A18.624,18.624,0,0,1,96.5,29.6.5.5,0,0,0,96.754,30.262Z"/><path d="M86.79,42.454a.5.5,0,0,0,.31-.107q.8-.632,1.563-1.282a.5.5,0,0,0-.65-.761q-.746.637-1.531,1.257a.5.5,0,0,0,.31.893Z"/><path d="M85.6,42.869a.5.5,0,0,0-.7-.108q-.794.58-1.62,1.144a.5.5,0,1,0,.563.826q.841-.573,1.647-1.164A.5.5,0,0,0,85.6,42.869Z"/><path d="M82.313,45.152a.5.5,0,0,0-.69-.153q-.832.53-1.69,1.043a.5.5,0,0,0,.514.858q.87-.52,1.714-1.058A.5.5,0,0,0,82.313,45.152Z"/><path d="M83.212,77.653a12.688,12.688,0,0,1-1.787-.707.5.5,0,0,0-.437.9,13.6,13.6,0,0,0,1.928.764.494.494,0,0,0,.148.022.5.5,0,0,0,.148-.978Z"/><path d="M72.578,62.384l-.66-1.888a.5.5,0,0,0-.943.33l.66,1.888a.5.5,0,0,0,.472.335.489.489,0,0,0,.165-.028A.5.5,0,0,0,72.578,62.384Z"/><path d="M90.789,77.639a12.544,12.544,0,0,1-1.87.438.5.5,0,0,0,.075.994.513.513,0,0,0,.077-.006,13.533,13.533,0,0,0,2.021-.474.5.5,0,1,0-.3-.953Z"/><path d="M73.9,66.159l-.66-1.888a.5.5,0,1,0-.943.33l.66,1.888a.5.5,0,0,0,.472.335.489.489,0,0,0,.165-.028A.5.5,0,0,0,73.9,66.159Z"/><path d="M75.2,69.887l-.644-1.84a.5.5,0,0,0-.943.33l.634,1.809c0,.014.024.077.03.091a.463.463,0,0,0,.443.3.545.545,0,0,0,.187-.033A.522.522,0,0,0,75.2,69.887Z"/><path d="M75.991,71.7a.5.5,0,1,0-.883.471,13.509,13.509,0,0,0,1.111,1.75.5.5,0,0,0,.8-.6A12.48,12.48,0,0,1,75.991,71.7Z"/><path d="M86.99,78.225a12.84,12.84,0,0,1-1.905-.143.5.5,0,1,0-.148.988A14.627,14.627,0,0,0,87,79.219v0a.5.5,0,0,0,.493-.5A.505.505,0,0,0,86.99,78.225Z"/><path d="M96.928,73.223a12.833,12.833,0,0,1-1.258,1.455.5.5,0,1,0,.705.709,13.812,13.812,0,0,0,1.355-1.568.5.5,0,1,0-.8-.6Z"/><path d="M99.831,69.782a.5.5,0,0,0-.693.143q-.541.823-1.1,1.665a.5.5,0,1,0,.832.555q.564-.845,1.106-1.669A.5.5,0,0,0,99.831,69.782Z"/><path d="M104.016,62.969a.5.5,0,0,0-.675.212c-.319.613-.643,1.188-.962,1.72a.5.5,0,0,0,.857.516c.329-.549.662-1.142.991-1.772A.5.5,0,0,0,104.016,62.969Z"/><path d="M102.01,66.429a.5.5,0,0,0-.691.15q-.529.826-1.084,1.677a.5.5,0,1,0,.838.545q.557-.854,1.088-1.681A.5.5,0,0,0,102.01,66.429Z"/><path d="M105.618,59.3a.5.5,0,0,0-.647.284c-.245.628-.5,1.234-.768,1.817a.5.5,0,1,0,.91.414q.409-.9.789-1.868A.5.5,0,0,0,105.618,59.3Z"/><path d="M107.565,51.56a.5.5,0,0,0-.564.426q-.138.981-.337,1.94a.5.5,0,0,0,.388.591.522.522,0,0,0,.1.01.5.5,0,0,0,.488-.4c.14-.67.257-1.344.349-2A.5.5,0,0,0,107.565,51.56Z"/><path d="M106.82,55.489a.5.5,0,0,0-.612.353q-.261.964-.566,1.889a.5.5,0,1,0,.949.314q.313-.949.582-1.942A.5.5,0,0,0,106.82,55.489Z"/><path d="M90.9,37.6q-.681.7-1.413,1.383a.5.5,0,0,0,.684.73q.747-.7,1.446-1.416a.5.5,0,0,0-.717-.7Z"/><path d="M92.987,36.809q.677-.777,1.286-1.571a.5.5,0,1,0-.793-.608q-.59.769-1.247,1.523a.5.5,0,1,0,.754.656Z"/><path d="M96.313,31.157a.5.5,0,0,0-.679.2c-.3.554-.645,1.117-1.013,1.674a.5.5,0,1,0,.834.552c.384-.581.738-1.167,1.056-1.746A.5.5,0,0,0,96.313,31.157Z"/><path d="M94.207,75.919a11.976,11.976,0,0,1-1.641,1,.5.5,0,0,0,.449.895,13.121,13.121,0,0,0,1.777-1.079.5.5,0,1,0-.586-.811Z"/><path d="M60.262,60.4H58.929a4.042,4.042,0,0,0-8.028,0H49.568a.5.5,0,0,0,0,1H50.9a4.042,4.042,0,0,0,8.028,0h1.333a.5.5,0,0,0,0-1Zm-5.347,3.564A3.064,3.064,0,1,1,57.979,60.9,3.068,3.068,0,0,1,54.915,63.968Z"/><path d="M54.915,58.621a2.282,2.282,0,0,0,0,4.564.5.5,0,0,0,0-1A1.282,1.282,0,1,1,56.2,60.9a.5.5,0,0,0,1,0A2.284,2.284,0,0,0,54.915,58.621Z"/><path d="M41.611,67.962q-.989-.154-1.961-.33a.5.5,0,1,0-.178.984q.984.179,1.984.334a.526.526,0,0,0,.078.006.5.5,0,0,0,.076-.994Z"/><path d="M63.52,68.564q-.984.1-1.981.177a.5.5,0,0,0,.038,1,.275.275,0,0,0,.04,0q1.006-.078,2-.179a.5.5,0,0,0,.447-.547A.507.507,0,0,0,63.52,68.564Z"/><path d="M48,67.271a.5.5,0,0,0-1,0v1.906a.5.5,0,0,0,.453.5l.094.009.046,0a.466.466,0,0,0,.452-.458A.441.441,0,0,0,48,68.993Z"/><path d="M47.5,65.771a.5.5,0,0,0,.5-.5v-2a.5.5,0,0,0-1,0v2A.5.5,0,0,0,47.5,65.771Z"/><path d="M50.091,54.563a.5.5,0,0,0,.315-.112,6.49,6.49,0,0,1,1.588-.95.5.5,0,0,0-.387-.923,7.491,7.491,0,0,0-1.832,1.1.5.5,0,0,0,.315.888Z"/><path d="M47.5,61.771a.5.5,0,0,0,.5-.5l0-1.98a.5.5,0,0,0-.48-.52.486.486,0,0,0-.52.48l0,2.02A.5.5,0,0,0,47.5,61.771Z"/><path d="M57.729,53h2a.5.5,0,1,0,0-1h-2a.5.5,0,0,0,0,1Z"/><path d="M53.729,53.042l.056,0A6.535,6.535,0,0,1,54.5,53h1.229a.5.5,0,1,0,0-1H54.5a7.534,7.534,0,0,0-.824.045.5.5,0,0,0,.054,1Z"/><path d="M59.556,68.873q-.989.054-1.987.085a.5.5,0,0,0,.016,1H57.6q1.011-.032,2.011-.087a.5.5,0,0,0,.472-.526A.467.467,0,0,0,59.556,68.873Z"/><path d="M49.021,55.114a.5.5,0,0,0-.7.127,7.461,7.461,0,0,0-.951,1.912.5.5,0,0,0,.318.631.485.485,0,0,0,.156.025.5.5,0,0,0,.475-.344,6.483,6.483,0,0,1,.824-1.656A.5.5,0,0,0,49.021,55.114Z"/><path d="M63.729,52h-2a.5.5,0,0,0,0,1h2a.5.5,0,1,0,0-1Z"/><path d="M67.465,68.075q-.979.145-1.971.268a.5.5,0,0,0,.061,1,.457.457,0,0,0,.063,0q1-.123,1.994-.27a.5.5,0,1,0-.146-.99Z"/><path d="M51.605,68.935q-1-.038-1.986-.1a.483.483,0,0,0-.53.468.5.5,0,0,0,.468.53q1,.062,2.01.1h.02a.5.5,0,0,0,.02-1Z"/><path d="M55.585,69h0l-.666,0q-.662,0-1.322-.011a.5.5,0,0,0-.016,1q.668.01,1.338.011l.674,0a.5.5,0,0,0,0-1Z"/></g></g></g></svg>