<svg id="Силуэт" xmlns="http://www.w3.org/2000/svg" width="110" height="110" viewBox="0 0 110 110"><defs><style>.cls-1{fill:#fff;}.cls-2{fill:#af9c94;}</style></defs><title>Силуэт - Regular fit</title><g id="Regular_fit" data-name="Regular fit"><g id="Цвет-2" data-name="Цвет"><path class="cls-1" d="M57.583,109.5c11.167,0,16.75-6.083,23.917-6.083C79.86,83,79.139,63.81,80.875,47.875A36.615,36.615,0,0,1,88,62l-3,39,11,1,6-26a53.12,53.12,0,0,0-3-32A154.762,154.762,0,0,0,87,18L68.187,10.125l-.1-.625L65,3A22.358,22.358,0,0,0,55,1,22.358,22.358,0,0,0,45,3L42.083,9.5l-.167.625L23,18A154.762,154.762,0,0,0,11,44,53.12,53.12,0,0,0,8,76l6,26,11-1L22,62c1.417-5.25,4.25-11.375,7.125-14.125,1.421,16.771,1.011,35.6-.458,55.625,6,0,13.5,6.083,23.667,6.083Z"/><path class="cls-2" d="M57.667,109.584c10.167,0,17.667-6.083,23.667-6.083a383.121,383.121,0,0,1-.458-55.625C81.689,36.924,83.125,25.625,87,18L68.083,10.125c.792,2.75-2.958,7.125-6.333,11.875l-2.563-6.5H50.812L48.375,22c-3.625-5.25-7.25-9.25-6.458-11.875L23,18c3.875,7.624,5.311,18.924,6.125,29.875a383.121,383.121,0,0,1-.458,55.625c6,0,13.5,6.083,23.667,6.083Z"/><path class="cls-1" d="M39.912,13.668a35.386,35.386,0,0,0,4.2,6.661c.72.99,1.464,2.014,2.208,3.092l2.718,3.937,1.68-4.479L52.545,18h4.941l1.938,4.917,1.692,4.292,2.672-3.76c.541-.761,1.092-1.513,1.632-2.25a36.245,36.245,0,0,0,4.7-7.517l13.53,5.633c-3.362,8.114-4.556,18.8-5.267,28.376a380.273,380.273,0,0,0,.287,53.592,41.93,41.93,0,0,0-7.024,2.342c-4.081,1.622-8.707,3.46-13.978,3.46H52.333c-5.271,0-9.9-1.838-13.978-3.46a41.93,41.93,0,0,0-7.024-2.342,380.273,380.273,0,0,0,.287-53.592c-.712-9.575-1.905-20.262-5.267-28.376l13.561-5.646m28.171-3.543c.792,2.75-2.958,7.125-6.333,11.875l-2.562-6.5H50.813L48.375,22c-3.625-5.25-7.25-9.25-6.458-11.875L23,18c3.875,7.624,5.311,18.924,6.125,29.875a383.121,383.121,0,0,1-.458,55.625c6,0,13.5,6.083,23.667,6.083h5.333c10.167,0,17.667-6.083,23.667-6.083a383.121,383.121,0,0,1-.458-55.625C81.689,36.924,83.125,25.625,87,18L68.083,10.125Z"/></g><g id="Контур-2" data-name="Контур"><path d="M56,13a1,1,0,1,1-1-1A1,1,0,0,1,56,13Zm-1,7a1,1,0,1,0-1-1A1,1,0,0,0,55,20Zm0,13a1,1,0,1,0-1-1A1,1,0,0,0,55,33Zm0,13a1,1,0,1,0-1-1A1,1,0,0,0,55,46Zm0,13a1,1,0,1,0-1-1A1,1,0,0,0,55,59Zm0,13a1,1,0,1,0-1-1A1,1,0,0,0,55,72Zm0,11a1,1,0,1,0,1,1A1,1,0,0,0,55,83Zm47.291-6.035-5.8,25.147A.5.5,0,0,1,96,102.5l-.046,0-11-1a.5.5,0,0,1-.453-.537L87.5,62.043A39.954,39.954,0,0,0,81.3,49.034c-.141,1.883-.27,3.831-.384,5.872A340.24,340.24,0,0,0,82,103.456a.5.5,0,0,1-.5.545c-3.478,0-6.112,1.154-9.162,2.49C68.581,108.136,64.323,110,57.5,110h-5c-6.823,0-11.081-1.865-14.838-3.51-3.05-1.336-5.685-2.49-9.162-2.49a.5.5,0,0,1-.5-.545,340.247,340.247,0,0,0,1.079-48.55c-.114-2.04-.243-3.988-.384-5.872A39.954,39.954,0,0,0,22.5,62.043L25.5,100.962a.5.5,0,0,1-.453.537l-11,1-.046,0a.5.5,0,0,1-.487-.388l-5.8-25.147a54.216,54.216,0,0,1,1.56-29.88,161.833,161.833,0,0,1,13.3-29.338.466.466,0,0,1,.039-.043,1.249,1.249,0,0,1,.2-.163L41.538,9.583a5.169,5.169,0,0,1,.342-1.058l2.646-5.733a.467.467,0,0,1,.028-.04.479.479,0,0,1,.043-.063.486.486,0,0,1,.086-.081c.012-.009.019-.022.031-.03s.029-.015.041-.023l.01-.005C46.874,1.248,50.589.5,54.979.5c4.36,0,8.051.738,10.167,2.023a.493.493,0,0,1,.328.268L68.12,8.524a5.169,5.169,0,0,1,.342,1.058L87.2,17.541a.482.482,0,0,1,.044.03.471.471,0,0,1,.091.063.479.479,0,0,1,.064.071.469.469,0,0,1,.037.042,161.823,161.823,0,0,1,13.3,29.339A54.214,54.214,0,0,1,102.291,76.966ZM68.6,10.727a7.284,7.284,0,0,1-1.059,3.61L84.76,21.932A30.1,30.1,0,0,1,86.3,18.249ZM65.28,4.758c-.755,2.428-3.248,4.585-7.127,6.108l3.59,10.267c1.7-2.4,3.371-4.818,4.607-6.748,0-.008,0-.016.005-.024a.5.5,0,0,1,.116-.163,5.507,5.507,0,0,0,.741-5.255ZM57,15.991H53V109h4Zm1.542-.981L57.141,11H52.859l-1.4,4.009h1a.119.119,0,0,1,.092,0h4.906a.125.125,0,0,1,.1,0Zm3.005-7.072a19.684,19.684,0,0,0-13.109-.01,17.138,17.138,0,0,0,3.99,2.086A.472.472,0,0,1,52.5,10h5a.472.472,0,0,1,.071.014A17.163,17.163,0,0,0,61.548,7.938ZM54.979,1.5c-4.083,0-7.507.654-9.493,1.793a5.564,5.564,0,0,0,2.048,3.9,20.793,20.793,0,0,1,14.921.01,5.583,5.583,0,0,0,2.058-3.884C62.533,2.163,59.089,1.5,54.979,1.5ZM43.529,14.2a.5.5,0,0,1,.116.163c0,.008,0,.016.005.024,1.237,1.93,2.912,4.343,4.607,6.748l3.59-10.267c-3.879-1.523-6.372-3.68-7.127-6.108L42.788,8.943A5.507,5.507,0,0,0,43.529,14.2ZM23.7,18.249a30.1,30.1,0,0,1,1.544,3.683l17.219-7.594a7.284,7.284,0,0,1-1.059-3.61Zm.769,82.3L23.937,93.7,12.888,94.96l1.5,6.5Zm4.113-53.064c-1.1-13.619-2.945-22.968-5.6-28.423A161.73,161.73,0,0,0,10.215,47.411a53.215,53.215,0,0,0-1.531,29.33l3.978,17.238,11.2-1.28L21.5,62.04a.51.51,0,0,1,.013-.159A41.394,41.394,0,0,1,28.576,47.484Zm9.487,58.091A32.77,32.77,0,0,0,52,109V15.991h-.886l-2.234,6.388a.5.5,0,0,1-.4.33.473.473,0,0,1-.069,0A.5.5,0,0,1,48,22.5c-1.807-2.555-3.647-5.188-5.016-7.3L25.562,22.883c2.24,6.91,3.7,17.287,4.517,31.967a340.5,340.5,0,0,1-1.033,48.16C32.472,103.126,35.192,104.317,38.063,105.575ZM79.921,54.85c.818-14.68,2.277-25.057,4.517-31.967L67.016,15.2c-1.369,2.115-3.21,4.748-5.016,7.3a.5.5,0,0,1-.408.211.473.473,0,0,1-.069,0,.5.5,0,0,1-.4-.33l-2.234-6.388H58V109a32.77,32.77,0,0,0,13.937-3.423c2.871-1.257,5.591-2.449,9.018-2.564A340.64,340.64,0,0,1,79.921,54.85ZM97.112,94.96,86.063,93.7l-.527,6.851,10.075.916Zm2.673-47.548A161.712,161.712,0,0,0,87.028,19.06c-2.66,5.455-4.507,14.8-5.6,28.424a41.4,41.4,0,0,1,7.062,14.4.51.51,0,0,1,.013.159L86.14,92.7l11.2,1.28,3.978-17.238A53.213,53.213,0,0,0,99.785,47.412Z"/></g></g></svg>