<svg width="25" height="25" viewBox="0 0 25 25" fill="none" xmlns="http://www.w3.org/2000/svg">
<path d="M21.0938 20.3125H3.90625C3.28465 20.3125 2.68851 20.0656 2.24897 19.626C1.80943 19.1865 1.5625 18.5904 1.5625 17.9688V7.03125C1.5625 6.40965 1.80943 5.81351 2.24897 5.37397C2.68851 4.93443 3.28465 4.6875 3.90625 4.6875H21.0938C21.7154 4.6875 22.3115 4.93443 22.751 5.37397C23.1906 5.81351 23.4375 6.40965 23.4375 7.03125V17.9688C23.4375 18.5904 23.1906 19.1865 22.751 19.626C22.3115 20.0656 21.7154 20.3125 21.0938 20.3125ZM3.90625 6.25C3.69905 6.25 3.50034 6.33231 3.35382 6.47882C3.20731 6.62534 3.125 6.82405 3.125 7.03125V17.9688C3.125 18.176 3.20731 18.3747 3.35382 18.5212C3.50034 18.6677 3.69905 18.75 3.90625 18.75H21.0938C21.301 18.75 21.4997 18.6677 21.6462 18.5212C21.7927 18.3747 21.875 18.176 21.875 17.9688V7.03125C21.875 6.82405 21.7927 6.62534 21.6462 6.47882C21.4997 6.33231 21.301 6.25 21.0938 6.25H3.90625Z" fill="#D23D4C"/>
<path d="M12.4999 13.2813C12.3468 13.2801 12.1973 13.2339 12.0702 13.1485L2.69522 6.89846C2.54363 6.77635 2.44308 6.60204 2.41327 6.40968C2.38346 6.21732 2.42654 6.02076 2.53406 5.85849C2.64159 5.69623 2.80581 5.57995 2.99458 5.53243C3.18335 5.48491 3.38306 5.50957 3.5546 5.60158L12.9296 11.8516C13.0681 11.9447 13.1732 12.0797 13.2295 12.2369C13.2857 12.394 13.2901 12.5651 13.2421 12.7249C13.194 12.8848 13.096 13.025 12.9625 13.1251C12.8289 13.2253 12.6668 13.28 12.4999 13.2813Z" fill="#D23D4C"/>
<path d="M12.5 13.2813C12.3325 13.2817 12.1692 13.2282 12.0344 13.1287C11.8995 13.0292 11.8003 12.8889 11.7512 12.7287C11.7022 12.5685 11.706 12.3967 11.762 12.2388C11.8181 12.0808 11.9235 11.9451 12.0625 11.8517L21.4375 5.60165C21.6094 5.50003 21.8137 5.46809 22.0085 5.5124C22.2032 5.55671 22.3736 5.6739 22.4846 5.83991C22.5956 6.00592 22.6388 6.20813 22.6053 6.40501C22.5719 6.60189 22.4643 6.77849 22.3047 6.89853L12.9297 13.1485C12.8026 13.234 12.6532 13.2801 12.5 13.2813Z" fill="#D23D4C"/>
</svg>
