<svg width="29" height="29" viewBox="0 0 29 29" fill="none" xmlns="http://www.w3.org/2000/svg">
<path fill-rule="evenodd" clip-rule="evenodd" d="M5.12231 12.5561C5.13972 7.43201 9.30769 3.29227 14.4317 3.30962C19.5558 3.32709 23.6955 7.49506 23.6782 12.6191V12.7242C23.6151 16.055 21.7553 19.1336 19.4752 21.5398C18.1712 22.8938 16.7151 24.0926 15.1357 25.1122C14.7134 25.4775 14.087 25.4775 13.6647 25.1122C11.3103 23.5797 9.24386 21.6449 7.56 19.3963C6.0592 17.4354 5.2071 15.0554 5.12231 12.5876V12.5561Z" stroke="#D23D4C" stroke-width="1.5" stroke-linecap="round" stroke-linejoin="round"/>
<path d="M14.3997 15.7082C16.0421 15.7082 17.3734 14.3768 17.3734 12.7344C17.3734 11.0921 16.0421 9.76074 14.3997 9.76074C12.7574 9.76074 11.426 11.0921 11.426 12.7344C11.426 14.3768 12.7574 15.7082 14.3997 15.7082Z" stroke="#D23D4C" stroke-width="1.5" stroke-linecap="round" stroke-linejoin="round"/>
</svg>
