<svg width="28" height="28" viewBox="0 0 28 28" fill="none" xmlns="http://www.w3.org/2000/svg">
<path d="M21.2836 23.3341C21.1418 23.3343 21.0038 23.2885 20.8902 23.2037C20.7766 23.1188 20.6935 22.9995 20.6534 22.8635C20.6133 22.7275 20.6184 22.5821 20.6678 22.4492C20.7172 22.3163 20.8083 22.203 20.9275 22.1262C21.5458 21.7188 22.0717 21.1861 22.471 20.5626C22.8486 19.989 22.9781 19.5248 22.8569 19.1818C22.6106 18.4845 21.2845 17.9809 20.1571 17.62C19.6593 17.4588 19.1265 17.4386 18.618 17.5616C18.1094 17.6846 17.6448 17.946 17.2757 18.3169L16.8487 18.7443C16.7722 18.821 16.678 18.8775 16.5744 18.9088C16.2812 18.9963 14.6726 19.2868 11.6941 16.3079C11.633 16.247 11.5846 16.1746 11.5515 16.095C11.5184 16.0153 11.5013 15.9299 11.5013 15.8437C11.5012 15.7574 11.5181 15.672 11.551 15.5923C11.5839 15.5126 11.6322 15.4401 11.6932 15.3791C11.7541 15.318 11.8265 15.2696 11.9061 15.2365C11.9858 15.2034 12.0712 15.1864 12.1574 15.1863C12.2437 15.1862 12.3291 15.2031 12.4088 15.236C12.4885 15.269 12.5609 15.3173 12.622 15.3782C14.5759 17.3325 15.7195 17.6073 16.0957 17.6392L16.3477 17.3872C16.8873 16.8459 17.5659 16.4642 18.3087 16.2843C19.0515 16.1045 19.8295 16.1333 20.5569 16.3678C22.0291 16.8395 23.6374 17.4502 24.0941 18.7426C24.3597 19.4929 24.1816 20.3473 23.5691 21.2801C23.0695 22.0584 22.4121 22.7232 21.6393 23.2313C21.5331 23.299 21.4096 23.3347 21.2836 23.3341ZM18.1306 24.2144C15.1267 24.2144 11.6779 22.4775 8.60049 19.3997C8.53781 19.3392 8.48782 19.2668 8.45343 19.1867C8.41903 19.1066 8.40093 19.0205 8.40017 18.9334C8.39941 18.8462 8.41602 18.7598 8.44901 18.6792C8.48201 18.5985 8.53074 18.5253 8.59236 18.4636C8.65397 18.402 8.72725 18.3533 8.8079 18.3203C8.88855 18.2873 8.97496 18.2707 9.0621 18.2714C9.14924 18.2722 9.23535 18.2903 9.31541 18.3247C9.39548 18.3591 9.46789 18.4091 9.52843 18.4718C12.4326 21.3763 15.7716 23.027 18.4491 22.894C18.5354 22.8885 18.622 22.9003 18.7036 22.9287C18.7853 22.9572 18.8605 23.0017 18.9247 23.0597C18.9889 23.1177 19.0408 23.188 19.0774 23.2664C19.114 23.3448 19.1345 23.4297 19.1377 23.5161C19.1465 23.69 19.0859 23.8602 18.9692 23.9893C18.8526 24.1184 18.6894 24.1959 18.5156 24.2048C18.3882 24.2109 18.2596 24.2144 18.1306 24.2144Z" fill="#D23D4C"/>
<path d="M9.06412 19.5921C8.97795 19.5921 8.89261 19.5752 8.81302 19.5421C8.73344 19.5091 8.66117 19.4606 8.60037 19.3996C5.28937 16.089 3.5035 12.2451 3.82331 9.11745C3.91417 8.16672 4.22253 7.24964 4.72451 6.43714C5.2265 5.62464 5.90867 4.93851 6.71825 4.43183C7.65318 3.81933 8.50762 3.64127 9.25575 3.90683C10.5481 4.36358 11.1593 5.97183 11.6305 7.44402C11.8653 8.17138 11.8944 8.94953 11.7145 9.69239C11.5346 10.4353 11.1527 11.1139 10.6111 11.6532L10.3526 11.9122C10.3841 12.2504 10.6391 13.3997 12.6201 15.379C12.7397 15.5027 12.8058 15.6685 12.8043 15.8406C12.8028 16.0126 12.7338 16.1772 12.6121 16.2989C12.4905 16.4206 12.3259 16.4896 12.1538 16.4911C11.9817 16.4926 11.816 16.4264 11.6922 16.3069C8.71368 13.3288 9.00331 11.7193 9.09125 11.427C9.12235 11.3233 9.17889 11.229 9.25575 11.1527L9.68318 10.7253C10.0538 10.3561 10.315 9.89154 10.438 9.3831C10.561 8.87465 10.541 8.3421 10.3801 7.84433C10.0192 6.71645 9.51562 5.39039 8.81868 5.14408C8.47525 5.02289 8.01062 5.15239 7.4375 5.52952C6.78955 5.92772 6.24338 6.47154 5.84239 7.11776C5.44139 7.76399 5.19661 8.49482 5.1275 9.2522C4.84706 11.991 6.49162 15.438 9.52656 18.4725C9.6184 18.5643 9.68095 18.6813 9.70629 18.8086C9.73164 18.9359 9.71864 19.0679 9.66895 19.1879C9.61925 19.3078 9.53509 19.4103 9.42712 19.4824C9.31915 19.5546 9.19221 19.593 9.06237 19.593L9.06412 19.5921Z" fill="#D23D4C"/>
</svg>
