<svg width="51" height="51" viewBox="0 0 51 51" fill="none" xmlns="http://www.w3.org/2000/svg">
<g clip-path="url(#clip0_123_2)">
<path d="M10.7945 28.3903C10.5111 28.6988 10.3605 29.1065 10.3754 29.5251C10.3903 29.9437 10.5694 30.3397 10.8739 30.6273C11.1785 30.9149 11.584 31.071 12.0028 31.0619C12.4216 31.0528 12.82 30.8791 13.1118 30.5785L25.5 17.462L37.8882 30.5785C38.18 30.8791 38.5783 31.0528 38.9971 31.0619C39.4159 31.071 39.8215 30.9149 40.126 30.6273C40.4306 30.3397 40.6097 29.9437 40.6246 29.5251C40.6394 29.1065 40.4889 28.6988 40.2055 28.3903L26.6586 14.0466C26.5096 13.8889 26.33 13.7634 26.1308 13.6776C25.9315 13.5918 25.7169 13.5475 25.5 13.5475C25.2831 13.5475 25.0684 13.5918 24.8692 13.6776C24.67 13.7634 24.4904 13.8889 24.3413 14.0466L10.7945 28.3903Z" fill="#1F5E97"/>
<path d="M-1.11464e-06 25.5C-8.16927e-07 32.3109 2.6528 38.7146 7.46911 43.5301C12.2854 48.3472 18.6891 51 25.5 51C32.3109 51 38.7146 48.3464 43.5301 43.5301C48.3472 38.7146 51 32.3109 51 25.5C51 18.6891 48.3472 12.2854 43.5309 7.46991C38.7146 2.6528 32.3109 2.40234e-06 25.5 2.70006e-06C18.6891 2.99777e-06 12.2854 2.6536 7.4699 7.46991C2.6528 12.2854 -1.41235e-06 18.6891 -1.11464e-06 25.5ZM41.2765 9.72427C45.4912 13.9381 47.8125 19.5402 47.8125 25.5C47.8125 31.4598 45.4912 37.0619 41.2765 41.2765C37.0627 45.4912 31.4598 47.8125 25.5 47.8125C19.5402 47.8125 13.9373 45.4912 9.72347 41.2757C5.5088 37.0619 3.1875 31.4598 3.1875 25.5C3.1875 19.5402 5.5088 13.9381 9.72347 9.72347C13.9373 5.5088 19.5402 3.1875 25.5 3.1875C31.4598 3.1875 37.0627 5.5088 41.2765 9.72427Z" fill="#1F5E97"/>
</g>
<defs>
<clipPath id="clip0_123_2">
<rect width="51" height="51" fill="white" transform="translate(0 51) rotate(-90)"/>
</clipPath>
</defs>
</svg>
