<svg xmlns="http://www.w3.org/2000/svg" width="26" height="29" viewBox="0 0 26 29">
    <path fill="#2E323F" fill-rule="evenodd" d="M18.663 23h-.022c-2.457-.074-5.514-1.927-9.092-5.505-3.574-3.578-5.426-6.63-5.505-9.083-.035-1.143 2.614-3.044 2.64-3.066.74-.512 1.564-.324 1.906.153.21.294 2.176 3.272 2.387 3.609.25.39.219.964-.084 1.528-.14.268-.604 1.087-.854 1.525.285.394.96 1.257 2.269 2.57 1.314 1.314 2.177 1.989 2.57 2.273.439-.25 1.258-.713 1.53-.858.556-.293 1.125-.328 1.515-.088.38.233 3.394 2.238 3.608 2.387.482.342.68 1.17.158 1.914-.017.026-1.892 2.641-3.026 2.641z"/>
</svg>
