<svg xmlns="http://www.w3.org/2000/svg" width="86" height="85" viewBox="0 0 86 85">
    <g fill="none" fill-rule="evenodd">
        <path fill="#E5EFF7" d="M42.914 75.455c-17.07 0-30.909-13.841-30.909-30.916 0-17.074 13.838-30.915 30.91-30.915 17.07 0 30.908 13.841 30.908 30.915 0 17.075-13.838 30.916-30.909 30.916zm36.37-30.916l3.544-6.323-5.324-4.918 1.417-7.109-6.583-3.032-.849-7.199-7.197-.849-3.031-6.584-7.108 1.417-4.917-5.324-6.322 3.544-6.322-3.544-4.917 5.324-7.107-1.417-3.032 6.584-7.197.85-.849 7.198-6.583 3.032 1.417 7.109L3 38.216l3.543 6.323L3 50.863l5.324 4.917-1.417 7.11 6.583 3.032.849 7.199 7.197.849 3.032 6.584 7.107-1.417 4.917 5.324 6.322-3.544 6.322 3.544 4.917-5.324 7.108 1.417 3.031-6.584 7.197-.85.85-7.198 6.582-3.033-1.417-7.109 5.324-4.917-3.544-6.324z"/>
        <path stroke="#5967AD" stroke-linecap="round" stroke-linejoin="round" stroke-width="1.848" d="M34.992 56.463c1.02.612 6.42.407 6.42.407l13.092-.2a3.406 3.406 0 0 0 3.722-3.39 3.38 3.38 0 0 0-.518-1.8 3.407 3.407 0 0 0 1.262-5.282 3.402 3.402 0 0 0 .088-5.729c.43-.57.687-1.276.687-2.045a3.406 3.406 0 0 0-4.356-3.269c-2.074.198-6.737.64-7.76.72-1.326.101.509-5.097.917-7.747.407-2.65-1.427-6.217-3.465-6.013-2.038.204-1.835 2.344-2.171 3.873-.338 1.53-2.517 7.339-4.962 10.294-2.446 2.956-2.956 4.587-2.956 4.587"/>
        <path stroke="#5967AD" stroke-linecap="round" stroke-linejoin="round" stroke-width="1.848" d="M33.67 57.89H23.398c-.73 0-1.322-.592-1.322-1.322V40.255c0-.73.592-1.323 1.322-1.323H33.67c.73 0 1.322.592 1.322 1.323v16.313c0 .73-.591 1.322-1.322 1.322z"/>
        <path stroke="#5967AD" stroke-linecap="round" stroke-linejoin="round" stroke-width="1.848" d="M29.814 54.508a1.28 1.28 0 1 1-2.56 0 1.28 1.28 0 0 1 2.56 0z"/>
        <path stroke="#5967AD" stroke-linecap="round" stroke-linejoin="round" stroke-width="2" d="M42.914 6.544L49.236 3l4.917 5.324 7.108-1.416 3.031 6.584 7.197.849.85 7.199 6.582 3.032-1.417 7.11 5.324 4.916-3.544 6.324 3.544 6.323-5.324 4.919 1.417 7.109-6.583 3.032-.849 7.198-7.197.85-3.031 6.583-7.108-1.417-4.917 5.325-6.322-3.544-6.322 3.544-4.917-5.325-7.107 1.417-3.032-6.584-7.197-.85-.849-7.197-6.583-3.032 1.417-7.11L3 49.246l3.544-6.323L3 36.598l5.324-4.917-1.417-7.109 6.583-3.032.849-7.2 7.197-.848 3.032-6.584 7.107 1.416L36.592 3z"/>
        <path stroke="#5967AD" stroke-linecap="round" stroke-linejoin="round" stroke-width="1.846" d="M73.823 42.922c0 17.074-13.838 30.915-30.909 30.915-17.07 0-30.909-13.841-30.909-30.915 0-17.074 13.838-30.916 30.91-30.916 17.07 0 30.908 13.842 30.908 30.916z"/>
    </g>
</svg>
