# 3ds Max Wavefront OBJ Exporter v0.97b - (c)2007 guruware
# File Created: 20.01.2020 23:37:17

mtllib Safari_Buttonhole.mtl

#
# object Safari_Buttonhole
#

v  0.8555 4.6063 -0.1132
v  0.8549 4.6066 -0.1070
v  0.8554 4.5991 -0.1129
v  0.8544 4.6068 -0.1025
v  0.8533 4.6014 -0.0962
v  0.8533 4.6002 -0.0961
v  0.8553 4.5972 -0.1128
v  0.8531 4.5988 -0.0961
v  0.8528 4.5884 -0.1033
v  0.8551 4.5955 -0.1128
v  0.8541 4.5857 -0.1125
v  0.8530 4.5741 -0.1104
v  0.8533 4.5750 -0.1122
v  0.8533 4.5729 -0.1121
v  0.8520 4.5800 -0.0957
v  0.8530 4.5698 -0.0952
v  0.8535 4.5654 -0.0965
v  0.8521 4.5839 -0.0958
v  0.8535 4.5689 -0.1120
v  0.8538 4.5608 -0.1014
v  0.8539 4.5607 -0.1066
v  0.8542 4.5605 -0.1117
v  0.8536 4.6070 -0.0964
v  0.8523 4.5903 -0.0959
v  0.8533 4.5654 -0.0949
v  0.8534 4.5610 -0.0947
v  0.8536 4.5609 -0.0958
# 27 vertices

vn 0.9960 -0.0121 0.0887
vn 0.9925 -0.0345 0.1169
vn 0.9922 -0.0362 0.1191
vn 0.9908 -0.0416 0.1287
vn 0.9908 -0.0418 0.1286
vn 0.9878 -0.0798 0.1337
vn 0.9869 -0.0875 0.1352
vn 0.9847 -0.1166 0.1295
vn 0.9906 -0.0728 0.1155
vn 0.9821 -0.1169 0.1480
vn 0.9843 -0.0766 0.1589
vn 0.9943 0.0169 0.1053
vn 0.9846 -0.0450 0.1687
vn 0.9879 0.0386 0.1501
vn 0.9980 0.0247 0.0577
vn 0.9945 0.0963 0.0406
vn 0.9952 0.0621 0.0752
vn 0.9968 -0.0278 0.0744
vn 0.9939 0.0813 0.0746
vn 0.9983 0.0572 0.0144
vn 0.9968 0.0737 0.0323
vn 0.9942 0.0834 0.0675
vn 0.9905 -0.0374 0.1322
vn 0.9949 -0.0644 0.0772
vn 0.9880 0.0545 0.1444
vn 0.9886 0.0447 0.1441
vn 0.9945 0.0367 0.0981
# 27 vertex normals

vt 0.0000 1.0000 0.0000
vt 0.0000 0.6348 0.0000
vt 0.1591 1.0000 0.0000
vt 0.0000 0.3655 0.0000
vt 0.1235 0.0000 0.0000
vt 0.1492 0.0000 0.0000
vt 0.1993 1.0000 0.0000
vt 0.1799 0.0000 0.0000
vt 0.4062 0.4409 0.0000
vt 0.2362 1.0000 0.0000
vt 0.4504 1.0000 0.0000
vt 0.7112 0.8880 0.0000
vt 0.6856 1.0000 0.0000
vt 0.7346 1.0000 0.0000
vt 0.5906 0.0000 0.0000
vt 0.8115 0.0000 0.0000
vt 0.9053 0.0889 0.0000
vt 0.5043 0.0000 0.0000
vt 0.8212 1.0000 0.0000
vt 1.0000 0.3890 0.0000
vt 1.0000 0.6993 0.0000
vt 1.0000 1.0000 0.0000
vt 0.0000 0.0000 0.0000
vt 0.3650 0.0000 0.0000
vt 0.9054 0.0000 0.0000
vt 1.0000 0.0000 0.0000
vt 1.0000 0.0546 0.0000
# 27 texture coords

o Safari_Buttonhole
g Safari_Buttonhole
usemtl Material4412
s 1
f 1/1/1 2/2/2 3/3/3 
f 2/2/2 4/4/4 5/5/5 
f 2/2/2 5/5/5 6/6/6 
f 2/2/2 6/6/6 7/7/7 
f 2/2/2 7/7/7 3/3/3 
f 7/7/7 6/6/6 8/8/8 
f 7/7/7 8/8/8 9/9/9 
f 7/7/7 9/9/9 10/10/10 
f 10/10/10 9/9/9 11/11/11 
f 11/11/11 9/9/9 12/12/12 
f 11/11/11 12/12/12 13/13/13 
f 13/13/13 12/12/12 14/14/14 
f 12/12/12 15/15/15 16/16/16 
f 12/12/12 16/16/16 17/17/17 
f 9/9/9 18/18/18 15/15/15 
f 9/9/9 15/15/15 12/12/12 
f 14/14/14 12/12/12 19/19/19 
f 12/12/12 17/17/17 20/20/20 
f 12/12/12 20/20/20 21/21/21 
f 19/19/19 12/12/12 21/21/21 
f 19/19/19 21/21/21 22/22/22 
f 4/4/4 23/23/23 5/5/5 
f 9/9/9 24/24/24 18/18/18 
f 8/8/8 24/24/24 9/9/9 
f 16/16/16 25/25/25 17/17/17 
f 17/17/17 25/25/25 26/26/26 
f 17/17/17 26/26/26 27/27/27 
f 17/17/17 27/27/27 20/20/20 
# 0 polygons - 28 triangles

