# 3ds Max Wavefront OBJ Exporter v0.97b - (c)2007 guruware
# File Created: 20.01.2020 23:26:30

mtllib Short_Pat's_Buttonholes.mtl

#
# object Buttonholes_Short
#

v  0.8205 4.8116 -0.1141
v  0.8197 4.8120 -0.1079
v  0.8207 4.8044 -0.1137
v  0.8188 4.8122 -0.1034
v  0.8177 4.8068 -0.0971
v  0.8177 4.8056 -0.0970
v  0.8206 4.8024 -0.1135
v  0.8176 4.8042 -0.0970
v  0.8180 4.7937 -0.1040
v  0.8205 4.8008 -0.1135
v  0.8198 4.7910 -0.1131
v  0.8191 4.7793 -0.1108
v  0.8195 4.7803 -0.1126
v  0.8196 4.7781 -0.1125
v  0.8172 4.7854 -0.0963
v  0.8185 4.7753 -0.0956
v  0.8193 4.7708 -0.0968
v  0.8171 4.7894 -0.0964
v  0.8200 4.7741 -0.1124
v  0.8200 4.7663 -0.1016
v  0.8203 4.7661 -0.1068
v  0.8209 4.7658 -0.1118
v  0.8177 4.8124 -0.0973
v  0.8171 4.7958 -0.0967
v  0.8189 4.7709 -0.0952
v  0.8193 4.7665 -0.0950
v  0.8195 4.7664 -0.0960
v  -0.8183 4.8114 -0.0945
v  -0.8184 4.8116 -0.1007
v  -0.8188 4.8041 -0.0947
v  -0.8183 4.8118 -0.1053
v  -0.8184 4.8064 -0.1116
v  -0.8184 4.8052 -0.1117
v  -0.8189 4.8022 -0.0949
v  -0.8184 4.8037 -0.1117
v  -0.8183 4.7933 -0.1046
v  -0.8189 4.8006 -0.0949
v  -0.8188 4.7907 -0.0953
v  -0.8190 4.7790 -0.0975
v  -0.8191 4.7800 -0.0956
v  -0.8192 4.7779 -0.0957
v  -0.8191 4.7849 -0.1122
v  -0.8210 4.7749 -0.1125
v  -0.8218 4.7705 -0.1112
v  -0.8188 4.7889 -0.1121
v  -0.8198 4.7739 -0.0958
v  -0.8220 4.7660 -0.1062
v  -0.8215 4.7659 -0.1010
v  -0.8213 4.7656 -0.0960
v  -0.8181 4.8120 -0.1114
v  -0.8184 4.7953 -0.1119
v  -0.8217 4.7705 -0.1128
v  -0.8223 4.7661 -0.1129
v  -0.8224 4.7661 -0.1119
# 54 vertices

vn 0.9900 0.0279 0.1382
vn 0.9860 0.0058 0.1665
vn 0.9857 0.0042 0.1686
vn 0.9840 -0.0011 0.1783
vn 0.9840 -0.0013 0.1783
vn 0.9822 -0.0394 0.1838
vn 0.9815 -0.0470 0.1854
vn 0.9807 -0.0763 0.1801
vn 0.9857 -0.0325 0.1656
vn 0.9771 -0.0765 0.1984
vn 0.9773 -0.0359 0.2087
vn 0.9864 0.0571 0.1542
vn 0.9759 -0.0043 0.2180
vn 0.9769 0.0791 0.1983
vn 0.9922 0.0643 0.1067
vn 0.9868 0.1355 0.0883
vn 0.9871 0.1018 0.1235
vn 0.9922 0.0121 0.1242
vn 0.9851 0.1209 0.1224
vn 0.9934 0.0962 0.0630
vn 0.9903 0.1129 0.0804
vn 0.9857 0.1230 0.1154
vn 0.9833 0.0031 0.1817
vn 0.9915 -0.0245 0.1275
vn 0.9767 0.0949 0.1923
vn 0.9776 0.0852 0.1922
vn 0.9862 0.0768 0.1468
vn -0.9967 0.0786 0.0193
vn -0.9984 0.0562 -0.0091
vn -0.9985 0.0544 -0.0113
vn -0.9986 0.0491 -0.0209
vn -0.9986 0.0488 -0.0208
vn -0.9996 0.0107 -0.0262
vn -0.9996 0.0030 -0.0277
vn -0.9994 -0.0262 -0.0222
vn -0.9998 0.0178 -0.0077
vn -0.9988 -0.0267 -0.0408
vn -0.9986 0.0138 -0.0515
vn -0.9942 0.1074 0.0025
vn -0.9971 0.0453 -0.0614
vn -0.9907 0.1287 -0.0429
vn -0.9921 0.1152 0.0502
vn -0.9803 0.1861 0.0666
vn -0.9878 0.1523 0.0323
vn -0.9974 0.0630 0.0336
vn -0.9847 0.1713 0.0328
vn -0.9847 0.1474 0.0931
vn -0.9836 0.1638 0.0752
vn -0.9840 0.1734 0.0399
vn -0.9983 0.0532 -0.0244
vn -0.9992 0.0264 0.0307
vn -0.9888 0.1446 -0.0371
vn -0.9902 0.1348 -0.0367
vn -0.9918 0.1271 0.0096
# 54 vertex normals

vt 0.0000 1.0000 0.0000
vt 0.0000 0.6348 0.0000
vt 0.1591 1.0000 0.0000
vt 0.0000 0.3655 0.0000
vt 0.1235 0.0000 0.0000
vt 0.1492 0.0000 0.0000
vt 0.1993 1.0000 0.0000
vt 0.1799 0.0000 0.0000
vt 0.4062 0.4409 0.0000
vt 0.2362 1.0000 0.0000
vt 0.4504 1.0000 0.0000
vt 0.7112 0.8880 0.0000
vt 0.6856 1.0000 0.0000
vt 0.7346 1.0000 0.0000
vt 0.5906 0.0000 0.0000
vt 0.8115 0.0000 0.0000
vt 0.9053 0.0889 0.0000
vt 0.5043 0.0000 0.0000
vt 0.8212 1.0000 0.0000
vt 1.0000 0.3890 0.0000
vt 1.0000 0.6993 0.0000
vt 1.0000 1.0000 0.0000
vt 0.0000 0.0000 0.0000
vt 0.3650 0.0000 0.0000
vt 0.9054 0.0000 0.0000
vt 1.0000 0.0000 0.0000
vt 1.0000 0.0546 0.0000
# 27 texture coords

o Buttonholes_Short
g Buttonholes_Short
usemtl Material4412
s 1
f 1/1/1 2/2/2 3/3/3 
f 2/2/2 4/4/4 5/5/5 
f 2/2/2 5/5/5 6/6/6 
f 2/2/2 6/6/6 7/7/7 
f 2/2/2 7/7/7 3/3/3 
f 7/7/7 6/6/6 8/8/8 
f 7/7/7 8/8/8 9/9/9 
f 7/7/7 9/9/9 10/10/10 
f 10/10/10 9/9/9 11/11/11 
f 11/11/11 9/9/9 12/12/12 
f 11/11/11 12/12/12 13/13/13 
f 13/13/13 12/12/12 14/14/14 
f 12/12/12 15/15/15 16/16/16 
f 12/12/12 16/16/16 17/17/17 
f 9/9/9 18/18/18 15/15/15 
f 9/9/9 15/15/15 12/12/12 
f 14/14/14 12/12/12 19/19/19 
f 12/12/12 17/17/17 20/20/20 
f 12/12/12 20/20/20 21/21/21 
f 19/19/19 12/12/12 21/21/21 
f 19/19/19 21/21/21 22/22/22 
f 4/4/4 23/23/23 5/5/5 
f 9/9/9 24/24/24 18/18/18 
f 8/8/8 24/24/24 9/9/9 
f 16/16/16 25/25/25 17/17/17 
f 17/17/17 25/25/25 26/26/26 
f 17/17/17 26/26/26 27/27/27 
f 17/17/17 27/27/27 20/20/20 
f 28/1/28 29/2/29 30/3/30 
f 29/2/29 31/4/31 32/5/32 
f 29/2/29 32/5/32 33/6/33 
f 29/2/29 33/6/33 34/7/34 
f 29/2/29 34/7/34 30/3/30 
f 34/7/34 33/6/33 35/8/35 
f 34/7/34 35/8/35 36/9/36 
f 34/7/34 36/9/36 37/10/37 
f 37/10/37 36/9/36 38/11/38 
f 38/11/38 36/9/36 39/12/39 
f 38/11/38 39/12/39 40/13/40 
f 40/13/40 39/12/39 41/14/41 
f 39/12/39 42/15/42 43/16/43 
f 39/12/39 43/16/43 44/17/44 
f 36/9/36 45/18/45 42/15/42 
f 36/9/36 42/15/42 39/12/39 
f 41/14/41 39/12/39 46/19/46 
f 39/12/39 44/17/44 47/20/47 
f 39/12/39 47/20/47 48/21/48 
f 46/19/46 39/12/39 48/21/48 
f 46/19/46 48/21/48 49/22/49 
f 31/4/31 50/23/50 32/5/32 
f 36/9/36 51/24/51 45/18/45 
f 35/8/35 51/24/51 36/9/36 
f 43/16/43 52/25/52 44/17/44 
f 44/17/44 52/25/52 53/26/53 
f 44/17/44 53/26/53 54/27/54 
f 44/17/44 54/27/54 47/20/47 
# 0 polygons - 56 triangles

