<svg xmlns="http://www.w3.org/2000/svg" width="110" height="110" viewBox="0 0 110 110"><defs><style>.cls-1{fill:#fff;}.cls-2{fill:#bb1a23;}</style></defs><title>Карман - Нет карманов</title><g id="Карман"><g id="Нет_карманов" data-name="Нет карманов"><g id="Цвет-21" data-name="Цвет"><path class="cls-1" d="M109.5,55A54.5,54.5,0,1,1,55,.5,54.5,54.5,0,0,1,109.5,55ZM80.865,20.65A43,43,0,0,0,20.65,80.865Zm8.485,8.485L29.135,89.35A43,43,0,0,0,89.35,29.135Z"/></g><g id="Контур-21" data-name="Контур"><path class="cls-2" d="M55,110a55,55,0,1,1,55-55A55.062,55.062,0,0,1,55,110ZM55,1a54,54,0,1,0,54,54A54.061,54.061,0,0,0,55,1Zm0,97.5a43.125,43.125,0,0,1-26.166-8.751A.5.5,0,0,1,28.782,89L89,28.782a.5.5,0,0,1,.753.053A43.5,43.5,0,0,1,55,98.5ZM29.9,89.294A42.123,42.123,0,0,0,55,97.5,42.548,42.548,0,0,0,97.5,55a42.123,42.123,0,0,0-8.206-25.1Zm-9.248-7.93h-.035a.5.5,0,0,1-.365-.2A43.5,43.5,0,0,1,81.165,20.251a.5.5,0,0,1,.053.753L21,81.218A.5.5,0,0,1,20.65,81.364ZM55,12.5A42.548,42.548,0,0,0,12.5,55a42.119,42.119,0,0,0,8.206,25.1l59.4-59.4A42.123,42.123,0,0,0,55,12.5Z"/></g></g></g></svg>