<svg xmlns="http://www.w3.org/2000/svg" width="51.077" height="43.507" viewBox="0 0 51.077 43.507">
  <g id="Сгруппировать_174" data-name="Сгруппировать 174" transform="translate(0.538 -37.865)">
    <path id="Контур_131" data-name="Контур 131" d="M49.56,76.226,27.624,39.847a3.064,3.064,0,0,0-5.247,0L.44,76.226a3.063,3.063,0,0,0,2.623,4.645H46.937a3.064,3.064,0,0,0,2.624-4.645ZM25.016,50.949a2.076,2.076,0,0,1,2.326,1.971c0,3.844-.452,9.368-.452,13.212,0,1-1.1,1.421-1.874,1.421-1.034,0-1.906-.42-1.906-1.421,0-3.844-.452-9.368-.452-13.212C22.658,51.66,23.692,50.949,25.016,50.949Zm.032,23.808A2.488,2.488,0,1,1,27.5,72.27,2.525,2.525,0,0,1,25.049,74.757Z" transform="translate(0)" fill="none" stroke="#d9be79" stroke-width="1"/>
  </g>
</svg>
