<svg xmlns="http://www.w3.org/2000/svg" width="51" height="51" viewBox="0 0 51 51">
  <g id="surface1" transform="translate(0.5 0.5)">
    <path id="Контур_132" data-name="Контур 132" d="M48.535,3.609H42.119q.035-1.066.036-2.144A1.465,1.465,0,0,0,40.69,0H9.31A1.465,1.465,0,0,0,7.845,1.465q0,1.077.036,2.144H1.465A1.465,1.465,0,0,0,0,5.074,31.749,31.749,0,0,0,4.83,22.511c3.079,4.628,7.18,7.282,11.61,7.54a15.043,15.043,0,0,0,3.172,2.664v6.511H17.155a5.394,5.394,0,0,0-5.388,5.388V47.07h-.1a1.465,1.465,0,0,0,0,2.93H38.337a1.465,1.465,0,0,0,0-2.93h-.1V44.612a5.394,5.394,0,0,0-5.388-5.388H30.388V32.714a15.041,15.041,0,0,0,3.172-2.664c4.43-.258,8.531-2.913,11.61-7.54A31.749,31.749,0,0,0,50,5.074,1.465,1.465,0,0,0,48.535,3.609ZM7.269,20.888A28.232,28.232,0,0,1,2.961,6.538H8.045A48.952,48.952,0,0,0,12.6,24.309q.586,1.172,1.223,2.214A14.127,14.127,0,0,1,7.269,20.888Zm35.461,0a14.128,14.128,0,0,1-6.549,5.636q.636-1.043,1.223-2.214A48.959,48.959,0,0,0,41.955,6.538h5.084A28.233,28.233,0,0,1,42.731,20.888Zm0,0" fill="#fff" stroke="#20977e" stroke-width="1"/>
  </g>
</svg>
