<svg xmlns="http://www.w3.org/2000/svg" width="60" height="60.329" viewBox="0 0 60 60.329">
  <g  transform="translate(-477.353 940.06)">
    <path  d="M507.8-939.838l2.011,2.657a.56.56,0,0,0,.784.108l.029-.023,2.519-2.181a.559.559,0,0,1,.789.056.563.563,0,0,1,.084.129l1.413,3.016a.56.56,0,0,0,.745.269l.033-.016,2.917-1.609a.56.56,0,0,1,.761.221.572.572,0,0,1,.054.142l.756,3.245a.561.561,0,0,0,.673.418l.034-.01,3.189-.967a.56.56,0,0,1,.7.374.572.572,0,0,1,.024.151l.065,3.331a.56.56,0,0,0,.571.549h.037l3.322-.283a.559.559,0,0,1,.605.51.555.555,0,0,1-.008.154l-.629,3.271a.56.56,0,0,0,.444.655l.036.005,3.307.413a.56.56,0,0,1,.486.625.566.566,0,0,1-.04.149l-1.3,3.07a.559.559,0,0,0,.3.733l.034.014,3.148,1.091a.56.56,0,0,1,.345.713.553.553,0,0,1-.069.136l-1.908,2.733a.559.559,0,0,0,.14.779.258.258,0,0,0,.031.02l2.852,1.722a.56.56,0,0,1,.189.769.541.541,0,0,1-.1.119l-2.432,2.278a.558.558,0,0,0-.027.79l.027.027,2.432,2.277a.56.56,0,0,1,.026.792.539.539,0,0,1-.119.1l-2.852,1.723a.559.559,0,0,0-.19.768c.006.01.013.021.02.031l1.908,2.733a.56.56,0,0,1-.14.779.579.579,0,0,1-.136.068l-3.148,1.091a.561.561,0,0,0-.345.714c0,.011.008.022.014.033l1.3,3.07a.559.559,0,0,1-.3.733.546.546,0,0,1-.149.04l-3.307.413a.56.56,0,0,0-.486.625c0,.013,0,.025.006.037l.629,3.271a.56.56,0,0,1-.444.655.55.55,0,0,1-.153.008l-3.322-.283a.56.56,0,0,0-.605.51c0,.012,0,.024,0,.037l-.065,3.331a.56.56,0,0,1-.572.549.562.562,0,0,1-.15-.023l-3.189-.968a.56.56,0,0,0-.7.374l-.009.035-.756,3.245a.56.56,0,0,1-.673.417.534.534,0,0,1-.142-.054l-2.917-1.609a.56.56,0,0,0-.761.219c-.006.01-.012.022-.017.033l-1.413,3.016a.56.56,0,0,1-.744.27.572.572,0,0,1-.129-.084l-2.519-2.181a.56.56,0,0,0-.79.057c-.008.009-.016.019-.023.029l-2.011,2.656a.558.558,0,0,1-.782.11.525.525,0,0,1-.11-.11L504.9-882.61a.561.561,0,0,0-.785-.109l-.029.023-2.519,2.181a.559.559,0,0,1-.789-.056.563.563,0,0,1-.084-.129l-1.414-3.016a.559.559,0,0,0-.744-.269l-.033.017-2.917,1.609a.562.562,0,0,1-.761-.221.572.572,0,0,1-.054-.142l-.756-3.245a.56.56,0,0,0-.673-.418l-.035.009-3.188.968a.561.561,0,0,1-.7-.375.537.537,0,0,1-.024-.15l-.065-3.331a.56.56,0,0,0-.57-.549l-.037,0-3.322.283a.56.56,0,0,1-.606-.51.583.583,0,0,1,.008-.153l.628-3.271a.56.56,0,0,0-.444-.655l-.036-.006-3.307-.413a.559.559,0,0,1-.486-.625.534.534,0,0,1,.04-.148l1.3-3.07a.559.559,0,0,0-.3-.734l-.035-.014-3.147-1.091a.559.559,0,0,1-.345-.713.547.547,0,0,1,.069-.135l1.908-2.733a.56.56,0,0,0-.14-.779l-.031-.02-2.852-1.723a.56.56,0,0,1-.19-.768.574.574,0,0,1,.1-.12l2.431-2.277a.559.559,0,0,0,.027-.79.229.229,0,0,0-.027-.027l-2.431-2.278a.56.56,0,0,1-.026-.791.572.572,0,0,1,.12-.1l2.852-1.722a.559.559,0,0,0,.19-.768c-.006-.011-.013-.021-.02-.031l-1.908-2.733a.56.56,0,0,1,.14-.779.579.579,0,0,1,.136-.069l3.147-1.091a.56.56,0,0,0,.346-.713c0-.011-.008-.023-.014-.034l-1.3-3.07a.56.56,0,0,1,.3-.734.6.6,0,0,1,.149-.04l3.307-.413a.56.56,0,0,0,.486-.625c0-.012,0-.024-.006-.036L484.8-929.6a.559.559,0,0,1,.443-.655.558.558,0,0,1,.154-.008l3.322.283a.56.56,0,0,0,.605-.51l0-.037.065-3.331a.561.561,0,0,1,.572-.549.567.567,0,0,1,.15.024l3.188.967a.559.559,0,0,0,.7-.374c0-.011.007-.023.01-.034l.756-3.245a.56.56,0,0,1,.673-.418.572.572,0,0,1,.142.055l2.917,1.609a.56.56,0,0,0,.761-.219.27.27,0,0,0,.017-.033l1.414-3.016a.56.56,0,0,1,.744-.27.562.562,0,0,1,.129.084l2.519,2.181a.56.56,0,0,0,.79-.056l.023-.029,2.011-2.657a.56.56,0,0,1,.784-.108A.571.571,0,0,1,507.8-939.838Z" transform="translate(0 0)" fill="#64b8f8"/>
    <path  d="M493.112-924.822l2.444,2.15-.155.188-2.217-1.95,1.283,2.659-.15.181-2.754-.885,2.217,1.95-.153.184-2.445-2.15.225-.271,2.778.9-1.3-2.681Zm2.625-.224a1.539,1.539,0,0,1,.257-2.246,1.447,1.447,0,0,1,2.129.549,1.536,1.536,0,0,1-.26,2.241A1.441,1.441,0,0,1,495.737-925.046Zm2.192-1.559a1.227,1.227,0,0,0-1.81-.5,1.3,1.3,0,0,0-.188,1.92,1.223,1.223,0,0,0,1.808.495A1.3,1.3,0,0,0,497.93-926.605Zm3.329-3.336,1.142,3.1-.25.1-2.565-2.112,1,2.723-.22.086-1.142-3.1.246-.1,2.574,2.109-1-2.723Zm2.338-.6,2.072-.306.031.221-1.839.271.177,1.278,1.639-.242.031.226-1.638.242.185,1.33,1.839-.271.03.221-2.072.305Zm4.933,1.748-1.082-2.14.277.02.937,1.891,1.2-1.732.281.02-1.373,1.958-.088,1.257-.239-.018Zm5.822-.816.86.379a.829.829,0,0,1,.548,1.134.71.71,0,0,1-.7.495.788.788,0,0,1,.242,1.025c-.225.542-.677.689-1.283.423l-.933-.41Zm-.256,3.244c.479.211.828.1,1-.324a.642.642,0,0,0-.362-.908l-.815-.358-.53,1.28Zm.63-1.463a.564.564,0,0,0,.808-.327.63.63,0,0,0-.407-.871l-.644-.283L514-928.149Zm3.309,3.008-1.141-.822-.779.575-.211-.153,2.8-2.025.17.123-.883,3.405-.211-.153Zm.059-.212.513-1.881-1.54,1.14Zm1.879.9a1.39,1.39,0,0,1,2.187-.044,1.321,1.321,0,0,1,.242,1.572l-.208-.106a1.086,1.086,0,0,0-.2-1.312c-.532-.593-1.2-.571-1.869.064a1.264,1.264,0,0,0-.24,1.9,1.076,1.076,0,0,0,1.282.318l.093.229a1.317,1.317,0,0,1-1.537-.392A1.488,1.488,0,0,1,519.975-924.137Zm2.566,6.408,1.113-1.937-1.246-.342-.844.489-.116-.211,2.8-1.624.115.211-1.7.983,2.614.7.154.282-1.56-.425-1.2,2.12Zm-28.47,21.723-1.206,1.133-.131-.148.428-.446a1.075,1.075,0,0,1-1.223-.395,1.5,1.5,0,0,1,.269-2.219,1.4,1.4,0,0,1,2.192-.027,1.316,1.316,0,0,1,.229,1.571l-.207-.107a1.079,1.079,0,0,0-.186-1.31,1.18,1.18,0,0,0-1.866.042,1.28,1.28,0,0,0-.259,1.908.979.979,0,0,0,1.524.092l.139-.131-.537-.607.143-.134Zm1.209,1.7,1.167-1.737.189.135-1.154,1.717a.877.877,0,0,0,.167,1.361q.739.526,1.311-.324l1.147-1.706.193.138L497.146-893a1.043,1.043,0,0,1-1.628.37A1.094,1.094,0,0,1,495.28-894.3Zm5,3.177L499-891.684l-.644.732-.238-.1,2.323-2.586.191.083-.167,3.52-.238-.1Zm.015-.221.117-1.95-1.273,1.449Zm3.979,2.262-.547-1.644c-.05,0-.119-.018-.223-.039l-.524-.106-.28,1.472-.23-.047.616-3.247.85.171c.665.134.968.519.859,1.092a.8.8,0,0,1-.831.718l.577,1.684Zm-.655-1.893c.538.108.862-.064.944-.5s-.153-.727-.691-.836l-.6-.12-.253,1.333Zm4.636,1.16-1.393.022-.3.936-.258,0,1.118-3.331.208,0,1.22,3.294-.258,0Zm-.073-.208-.655-1.834-.6,1.854Zm4.147-2.859.715,3.226-.26.061-2.255-2.454.628,2.837-.229.054-.715-3.227.256-.06L512.734-890l-.628-2.837Zm2.455-.746-1.043.5-.092-.2,2.3-1.114.092.2-1.043.5,1.274,2.794-.217.1Zm2.367-1.595,1.675-1.293.13.178-1.487,1.147.752,1.034,1.323-1.023.134.182-1.325,1.022.782,1.076,1.487-1.147.13.179-1.674,1.292Zm2.769-2.374,1.387-1.617.163.147-1.231,1.436.941.856,1.1-1.279.166.151-1.1,1.279.978.89,1.231-1.435.163.148-1.387,1.617Zm-23.16-14.263v5.838H496.2v-4.331h-1.414v-.57h.943c.285,0,.472-.1.472-.443v-.495Zm6.1,3.895v.553h-.919v1.39h-.561v-1.39h-2.837v-.377l2.878-4.071h.52v3.895Zm-1.48,0v-3.024l-2.09,3.024Zm4.773-3.895h1.537a2.665,2.665,0,0,1,2.9,2.965,2.6,2.6,0,0,1-2.9,2.873h-1.529Zm1.48,5.285A2.074,2.074,0,0,0,510-908.923a2.086,2.086,0,0,0-2.317-2.387h-.951v4.732Zm7.115-1.013H512.39l-.545,1.566h-.634l2.114-5.838h.48l2.122,5.838h-.642Zm-.179-.511-1-2.915-1.009,2.915Zm3.358-.159-2.163-3.6h.683l1.765,3.024,1.773-3.024h.691l-2.163,3.6v2.237h-.586Zm-27.737-7.079h34.323m-34.323,12.792h34.323m-32.583-6.968-1.186-1.221a.769.769,0,0,0-1.109,0l-1.186,1.221a.825.825,0,0,0,0,1.143l1.186,1.221a.767.767,0,0,0,1.109,0l1.186-1.221A.825.825,0,0,0,491.932-909.515Zm34.322,0-1.186-1.221a.769.769,0,0,0-1.109,0l-1.186,1.221a.825.825,0,0,0,0,1.143l1.186,1.221a.767.767,0,0,0,1.109,0l1.186-1.221A.825.825,0,0,0,526.254-909.515Z" fill="#141b4d"/>
  </g>
</svg>
