<svg xmlns="http://www.w3.org/2000/svg" width="51" height="51" viewBox="0 0 51 51">
  <g  transform="translate(0.5 0.5)">
    <path  d="M25,0A25,25,0,1,0,50,25,25,25,0,0,0,25,0Zm5.2,38.745q-1.93.762-3.079,1.16a8.124,8.124,0,0,1-2.671.4,5.323,5.323,0,0,1-3.634-1.141,3.681,3.681,0,0,1-1.293-2.893,10.509,10.509,0,0,1,.1-1.395c.066-.474.169-1.007.311-1.606l1.611-5.689c.142-.546.265-1.065.362-1.547a6.86,6.86,0,0,0,.144-1.34,2.063,2.063,0,0,0-.449-1.517,2.549,2.549,0,0,0-1.721-.425,4.516,4.516,0,0,0-1.28.19c-.434.133-.811.254-1.12.372l.425-1.752q1.581-.644,3.026-1.1A8.941,8.941,0,0,1,23.661,20a5.224,5.224,0,0,1,3.581,1.122A3.727,3.727,0,0,1,28.5,24.032q0,.371-.087,1.306a8.738,8.738,0,0,1-.322,1.716l-1.6,5.672c-.131.455-.248.976-.353,1.558a8.236,8.236,0,0,0-.154,1.325,1.9,1.9,0,0,0,.506,1.541,2.831,2.831,0,0,0,1.75.411,5.077,5.077,0,0,0,1.325-.205,7.533,7.533,0,0,0,1.071-.36ZM29.92,15.723a3.824,3.824,0,0,1-2.7,1.041,3.864,3.864,0,0,1-2.709-1.041A3.324,3.324,0,0,1,23.384,13.2a3.358,3.358,0,0,1,1.128-2.531,3.836,3.836,0,0,1,2.709-1.052,3.793,3.793,0,0,1,2.7,1.052,3.41,3.41,0,0,1,0,5.056Z" fill="none" stroke="#ccc" stroke-width="1"/>
  </g>
</svg>
