<svg xmlns="http://www.w3.org/2000/svg" width="17" height="21.636" viewBox="0 0 17 21.636">
  <path id="Контур_135" data-name="Контур 135" d="M67.427,7.727h-.773V6.955a6.955,6.955,0,1,0-13.909,0v.773h-.773A.773.773,0,0,0,51.2,8.5V20.864a.773.773,0,0,0,.773.773H67.427a.773.773,0,0,0,.773-.773V8.5A.773.773,0,0,0,67.427,7.727Zm-5.542,6.945a2.318,2.318,0,0,1-1.413,1.413v1.688a.773.773,0,0,1-1.545,0V16.085a2.318,2.318,0,1,1,2.958-1.413Zm3.223-6.945H54.291V6.955a5.409,5.409,0,1,1,10.818,0Z" transform="translate(-51.2)" fill="#ccc"/>
</svg>
