<svg xmlns="http://www.w3.org/2000/svg" width="194.147" height="30" viewBox="0 0 194.147 30">
  <g transform="translate(-318.35 -559.35)">
    <path  d="M447.635,585.1V583.2a.269.269,0,0,0-.209-.281,1.123,1.123,0,0,0-.19-.018c-.056,0-.081-.015-.081-.038s.032-.05.113-.05.234.011.393.011h.611c.139,0,.225-.011.274-.011a1.145,1.145,0,0,1,.858.274.6.6,0,0,1,.2.463,1.106,1.106,0,0,1-.506.848,1.532,1.532,0,0,1,.6.361.936.936,0,0,1,.3.69.96.96,0,0,1-.323.721,1.42,1.42,0,0,1-1,.336l-.348-.015c-.19-.016-.321-.016-.384-.016h-.271c-.151,0-.274.009-.348.009s-.1-.019-.1-.05.039-.038.114-.047a.808.808,0,0,0,.145-.016c.081-.014.127-.1.146-.265.016-.128.023-.474.023-1.041Zm.6-1.981v1.2a.05.05,0,0,0,.038.056,1.116,1.116,0,0,0,.234.019.542.542,0,0,0,.36-.1.63.63,0,0,0,.209-.513.906.906,0,0,0-.153-.5.558.558,0,0,0-.474-.258c-.114,0-.171,0-.192.025a.08.08,0,0,0-.023.07Zm1.149,2.566a1.1,1.1,0,0,0-.483-.97.8.8,0,0,0-.411-.12h-.217a.029.029,0,0,0-.031.026h0v1.151a1.446,1.446,0,0,0,.031.336.274.274,0,0,0,.147.138.956.956,0,0,0,.36.056.618.618,0,0,0,.383-.122.6.6,0,0,0,.217-.5Zm6.518-.586V583.2a.267.267,0,0,0-.209-.281,1.247,1.247,0,0,0-.19-.018c-.058,0-.089-.014-.089-.038s.039-.05.112-.05.234.011.4.011h.611c.138,0,.224-.011.271-.011a1.179,1.179,0,0,1,.869.275.624.624,0,0,1,.193.463,1.115,1.115,0,0,1-.508.848,1.544,1.544,0,0,1,.6.36.937.937,0,0,1,.289.69.981.981,0,0,1-.316.721,1.457,1.457,0,0,1-1.013.337l-.346-.016c-.19-.016-.322-.016-.383-.016h-.275c-.152,0-.272.009-.346.009s-.1-.018-.1-.05.039-.037.114-.047a.935.935,0,0,0,.146-.015c.081-.015.128-.1.145-.265.015-.128.025-.474.025-1.042Zm.6-1.983v1.2c0,.032,0,.048.032.056a1.106,1.106,0,0,0,.233.017.541.541,0,0,0,.36-.1.629.629,0,0,0,.209-.513.823.823,0,0,0-.153-.5.547.547,0,0,0-.467-.257c-.113,0-.179,0-.19.025a.1.1,0,0,0-.018.07Zm1.133,2.566a1.109,1.109,0,0,0-.481-.97.826.826,0,0,0-.412-.12h-.223c-.018,0-.025,0-.025.033v1.149a1.392,1.392,0,0,0,.025.337.264.264,0,0,0,.145.137.958.958,0,0,0,.36.056.613.613,0,0,0,.384-.12.594.594,0,0,0,.216-.5Zm17.829-1.442v.859a7.189,7.189,0,0,0,.018.721.467.467,0,0,0,.089.319,1.033,1.033,0,0,0,.6.106c.321,0,.489-.039.575-.135a.512.512,0,0,0,.128-.29c0-.049.025-.074.057-.074s.039.025.039.081a2.121,2.121,0,0,1-.072.563.158.158,0,0,1-.12.12.8.8,0,0,1-.191.016c-.265,0-.541,0-.844-.016s-.5-.015-.6-.015h-.281c-.151,0-.274.009-.348.009s-.1-.019-.1-.05.032-.038.1-.047a.889.889,0,0,0,.152-.016c.046-.014.12-.1.146-.265.016-.128.023-.474.023-1.041V583.2a.313.313,0,0,0-.113-.247.552.552,0,0,0-.265-.05c-.056,0-.089-.014-.089-.037s.042-.05.114-.05.209.011.383.011h.61c.179,0,.3-.011.36-.011s.1.018.1.05-.025.037-.088.037a1.606,1.606,0,0,0-.192.019c-.113.016-.18.112-.19.281v1.032Zm10.61,1.917a.306.306,0,0,1,.12-.232.4.4,0,0,1,.248-.1c.033,0,.072.049.136.144a.442.442,0,0,1,.1.232.669.669,0,0,1-.065.234,2.6,2.6,0,0,1-.393.649.281.281,0,0,1-.081.056c-.032,0-.039-.016-.039-.049a.593.593,0,0,1,.039-.079.907.907,0,0,0,.144-.425.494.494,0,0,0-.1-.3,1.2,1.2,0,0,1-.106-.128Zm3.835-1.917v.859c-.007.241,0,.482.017.721a.575.575,0,0,0,.089.319,1.08,1.08,0,0,0,.6.106c.311,0,.5-.039.575-.135a.464.464,0,0,0,.135-.29c0-.049.025-.074.05-.074s.039.025.039.081a2.118,2.118,0,0,1-.072.563.137.137,0,0,1-.12.12.8.8,0,0,1-.19.016c-.265,0-.541,0-.836-.016s-.5-.015-.609-.015H489.3c-.161,0-.267.009-.346.009s-.1-.019-.1-.05.042-.038.114-.047a.791.791,0,0,0,.143-.016c.081-.014.128-.1.147-.265.015-.128.023-.474.023-1.041V583.2a.3.3,0,0,0-.112-.247.534.534,0,0,0-.267-.05c-.056,0-.081-.014-.081-.037s.033-.05.106-.05.217.011.384.011h.609c.17,0,.3-.011.371-.011s.105.018.105.05-.033.037-.089.037a1.588,1.588,0,0,0-.191.019c-.114.016-.181.112-.192.281,0,.1-.018.449-.018,1.032Zm3.386,0v1.587a.506.506,0,0,0,.1.32,1.027,1.027,0,0,0,.594.106c.312,0,.5-.039.588-.136a.52.52,0,0,0,.13-.29c0-.048.021-.073.048-.073s.039.025.039.081a2.117,2.117,0,0,1-.073.562.139.139,0,0,1-.122.122.928.928,0,0,1-.19.016c-.265,0-.541,0-.836-.016s-.5-.016-.609-.016h-.274c-.153,0-.272.009-.347.009s-.106-.018-.106-.05.04-.037.114-.047a.82.82,0,0,0,.144-.016c.081-.014.129-.1.146-.264.016-.128.025-.474.025-1.042V583.2a.311.311,0,0,0-.1-.246.562.562,0,0,0-.274-.05c-.056,0-.081-.014-.081-.038s.032-.05.1-.05.216.011.384.011h.62c.18,0,.29-.011.36-.011s.106.019.106.05-.033.038-.089.038a1.428,1.428,0,0,0-.193.018c-.113.016-.179.112-.19.281v1.032Zm4.532,2.343a2.528,2.528,0,0,1-1.7-.528,1.8,1.8,0,0,1-.62-1.442,1.7,1.7,0,0,1,.575-1.33,2.248,2.248,0,0,1,1.573-.521,5.876,5.876,0,0,1,.721.047c.12.025.279.049.5.081.049,0,.081.024.081.056a.19.19,0,0,1-.017.089,1.409,1.409,0,0,0-.016.193c0,.147-.017.323-.025.53,0,.072-.023.114-.056.114s-.049-.039-.049-.114a.7.7,0,0,0-.19-.449.963.963,0,0,0-.384-.216,2.2,2.2,0,0,0-.62-.082,1.362,1.362,0,0,0-.933.3,1.622,1.622,0,0,0-.459,1.261,1.725,1.725,0,0,0,.532,1.3,1.5,1.5,0,0,0,1.038.432,2.532,2.532,0,0,0,.49-.039.816.816,0,0,0,.418-.232.716.716,0,0,0,.167-.323c.016-.07.033-.1.063-.1s.05.025.05.081q-.013.14-.039.279a2.256,2.256,0,0,1-.074.36.191.191,0,0,1-.128.144,2.51,2.51,0,0,1-.9.113Zm-45.927-.817v-.36a.981.981,0,0,0-.106-.441q-.023-.049-.337-.553c-.209-.337-.345-.56-.418-.674a1,1,0,0,0-.3-.3.345.345,0,0,0-.19-.056c-.039,0-.064-.016-.064-.039s.033-.041.081-.041h.248c.147,0,.249.01.3.01a1.859,1.859,0,0,0,.19-.01c.089,0,.178,0,.267,0,.065,0,.072.019.072.041s-.033.032-.1.046a.075.075,0,0,0-.064.082.354.354,0,0,0,.056.143c0,.025.256.441.732,1.261.191-.346.408-.737.642-1.171a.56.56,0,0,0,.065-.214.1.1,0,0,0-.088-.105h0c-.056-.015-.079-.031-.079-.046s.023-.041.07-.041h.209c.067.007.135.01.2.01.032,0,.106,0,.234-.01a1.911,1.911,0,0,1,.224,0c.024,0,.081.019.081.041s-.032.039-.088.039a.421.421,0,0,0-.192.047,1.078,1.078,0,0,0-.232.208,6.042,6.042,0,0,0-.436.666,6.548,6.548,0,0,0-.393.689.987.987,0,0,0-.065.418v.36a4.666,4.666,0,0,0,.018.48.2.2,0,0,0,.181.18,2.047,2.047,0,0,0,.216.018c.039,0,.066,0,.066.031s-.026.039-.089.039h-1.194c-.066,0-.1,0-.1-.039s.031-.031.1-.038a.735.735,0,0,1,.12,0c.081-.016.128-.1.137-.232s.019-.265.019-.424Zm7.779-.488v-1.643a.233.233,0,0,0-.192-.242.583.583,0,0,0-.169-.015c-.058,0-.081-.016-.081-.041s.032-.039.1-.039h.36c.146,0,.225.009.24.009.05,0,.153,0,.307-.009a2.693,2.693,0,0,1,.3,0,1.438,1.438,0,0,1,.8.193.675.675,0,0,1,.192.217.753.753,0,0,1,.1.369,1.252,1.252,0,0,1-.575.947c.315.383.483.6.516.639.169.2.3.36.418.474a.962.962,0,0,0,.483.293.429.429,0,0,0,.106,0c.048,0,.073.023.073.038s-.025.039-.081.039h-.41a1.028,1.028,0,0,1-.454-.08,2.32,2.32,0,0,1-.588-.617c-.129-.181-.266-.37-.427-.586a.1.1,0,0,0-.081-.033h-.384c-.023,0-.031,0-.031.033v.053a7.987,7.987,0,0,0,.024.9c.023.139.073.216.17.232a1.914,1.914,0,0,0,.208.019c.033,0,.047,0,.047.031s-.023.041-.081.041H459.4c-.056,0-.081,0-.081-.041s.025-.031.09-.038a.641.641,0,0,1,.128,0c.072-.016.112-.1.128-.232s.023-.417.023-.9Zm.508-1.7v1.29a.071.071,0,0,0,.038.072.883.883,0,0,0,.33.047.547.547,0,0,0,.307-.07.75.75,0,0,0,.249-.641.794.794,0,0,0-.234-.619.648.648,0,0,0-.426-.159.662.662,0,0,0-.241.024.076.076,0,0,0-.024.051Zm4.339,2.987a1.668,1.668,0,0,1-1.343-.554,1.608,1.608,0,0,1-.4-1.113,1.577,1.577,0,0,1,.4-1.1,1.726,1.726,0,0,1,1.375-.563,1.837,1.837,0,0,1,1.278.425,1.489,1.489,0,0,1,.469,1.163,1.68,1.68,0,0,1-.483,1.233,1.734,1.734,0,0,1-1.3.507Zm.18-.217a.884.884,0,0,0,.621-.224,1.455,1.455,0,0,0,.383-1.139,1.661,1.661,0,0,0-.369-1.13,1.125,1.125,0,0,0-.892-.416.974.974,0,0,0-.72.273,1.405,1.405,0,0,0-.348,1.055,1.706,1.706,0,0,0,.36,1.123,1.16,1.16,0,0,0,.959.455Zm2.883-1.08v-1.644a.232.232,0,0,0-.19-.241.5.5,0,0,0-.17-.016c-.048,0-.07-.016-.07-.039s.031-.039.1-.039h.345c.143,0,.241.009.274.009.683,0,1.038,0,1.08-.009a.671.671,0,0,0,.192-.024l.072-.014c.016,0,.023.014.023.038a.5.5,0,0,0-.016.072,1.543,1.543,0,0,0-.016.2c0,.079-.018.181-.025.279a.045.045,0,0,1-.04.049h0c-.025,0-.032-.016-.032-.049a.292.292,0,0,1,0-.088.508.508,0,0,0-.025-.072c-.031-.089-.128-.137-.29-.152a5.15,5.15,0,0,0-.61-.025c-.025,0-.032.019-.032.049v1.08c0,.031,0,.038.032.038h.691a.49.49,0,0,0,.113,0,.274.274,0,0,0,.1-.056c.032-.033.057-.047.072-.047s.025,0,.025.031a.485.485,0,0,1,0,.081c-.01.074-.019.147-.025.225,0,.168-.015.256-.015.29s-.018.081-.04.081-.04-.018-.04-.048-.009-.072-.018-.147-.1-.151-.242-.159a4.83,4.83,0,0,0-.616-.017c-.018,0-.025.017-.025.039v1a.325.325,0,0,0,.106.288.775.775,0,0,0,.418.065,1.084,1.084,0,0,0,.4-.05.392.392,0,0,0,.192-.311c0-.038.025-.063.04-.063s.04.025.04.081a2.189,2.189,0,0,1-.056.463c-.019.056-.04.089-.066.1a.506.506,0,0,1-.168.019c-.249,0-.5,0-.748-.019a3.861,3.861,0,0,0-.451,0h-.54c-.064,0-.089,0-.089-.039s.033-.031.1-.037a.624.624,0,0,1,.128,0c.05,0,.1-.1.12-.233s.023-.416.023-.9Zm3.584-.747v.747a5.3,5.3,0,0,0,.019.632.479.479,0,0,0,.079.28.9.9,0,0,0,.522.088.82.82,0,0,0,.507-.112.453.453,0,0,0,.1-.257c0-.039.024-.063.049-.063s.039.023.039.07a1.981,1.981,0,0,1-.065.488.155.155,0,0,1-.1.105.876.876,0,0,1-.17,0c-.234,0-.475,0-.731-.019a5.152,5.152,0,0,0-.521,0h-.541c-.056,0-.088,0-.088-.039s.032-.031.1-.037a.633.633,0,0,1,.128,0c.039,0,.112-.1.127-.233s.016-.416.016-.9v-1.643a.255.255,0,0,0-.088-.217.555.555,0,0,0-.234-.039c-.056,0-.081-.016-.081-.039s.032-.039.1-.039h.331c.138,0,.232.009.265.009s.12,0,.265-.009.259,0,.322,0,.089.016.089.039-.024.039-.081.039a.631.631,0,0,0-.17.016c-.1.019-.144.1-.151.242-.01.088-.019.383-.019.9Zm8.079.867h-.959c-.023,0-.032.016-.039.038l-.229.607a.638.638,0,0,0-.065.265c0,.08.056.128.169.128h.066c.048,0,.062,0,.062.031s-.023.039-.072.039h-.973c-.056,0-.081,0-.081-.039s.016-.031.05-.031a.7.7,0,0,0,.136,0,.354.354,0,0,0,.224-.12,1.357,1.357,0,0,0,.139-.265l1.082-2.667c.047-.112.088-.17.119-.17s.071.039.113.135c.267.658.62,1.534,1.071,2.606.12.279.242.432.384.463a.984.984,0,0,0,.18.018c.039,0,.058,0,.058.031s0,.033-.039.033a.9.9,0,0,1-.153,0h-.82c-.081,0-.128,0-.128-.033s.025-.031.065-.037.056-.041.042-.1l-.348-.9a.049.049,0,0,0-.048-.031Zm-.867-.2h.795c.025,0,.025,0,.025-.026l-.4-1.044c0-.025,0-.039-.016-.039s-.025.014-.025.039l-.4,1.041c0,.025,0,.033.015.033ZM482,586.4l-.917-2.683a.621.621,0,0,0-.161-.3.331.331,0,0,0-.18-.041c-.039,0-.066-.015-.066-.039s.033-.039.1-.039h.312a1.569,1.569,0,0,1,.19.009s.049,0,.159-.009.218,0,.323,0c.058,0,.088.019.088.039s-.023.039-.07.039a.249.249,0,0,0-.113.015.1.1,0,0,0-.049.1,3.314,3.314,0,0,0,.1.383c.105.409.29,1.012.541,1.8h.019l.836-2.212c.039-.1.07-.151.1-.151s.072.062.128.19l.9,2.139h0c.041-.128.226-.766.576-1.9a1.069,1.069,0,0,0,.039-.249c0-.089-.074-.128-.209-.128-.049,0-.074-.016-.074-.042s.033-.039.1-.039h.3a.635.635,0,0,1,.151.009s.048,0,.139-.009a1.55,1.55,0,0,1,.223,0c.056,0,.081.018.081.039s-.025.042-.065.042a.374.374,0,0,0-.151.025.222.222,0,0,0-.121.142,2.336,2.336,0,0,0-.12.3c-.19.5-.476,1.342-.862,2.522-.048.138-.089.194-.128.194s-.072-.074-.128-.209l-.9-2.125h0q-.627,1.66-.843,2.108c-.074.151-.121.225-.153.225s-.063-.056-.1-.162Z" transform="translate(12.196 2.216)" fill="#545c6b"/>
    <path  d="M324.441,568.031a1.377,1.377,0,0,1,.98.406l3.61,3.61a1.388,1.388,0,0,1,0,1.96l-3.61,3.61a1.386,1.386,0,0,1-1.961,0l-3.609-3.61a1.385,1.385,0,0,1,0-1.96l3.609-3.61a1.379,1.379,0,0,1,.981-.406m0-1.095a2.478,2.478,0,0,0-1.755.727l-3.609,3.61a2.48,2.48,0,0,0,0,3.507l3.609,3.61a2.48,2.48,0,0,0,3.508,0l3.61-3.61a2.479,2.479,0,0,0,0-3.507l-3.61-3.61a2.475,2.475,0,0,0-1.754-.727Z" transform="translate(0 0.718)" fill="#2788d2"/>
    <path  d="M339.613,568.031a1.379,1.379,0,0,1,.981.406l3.609,3.61a1.385,1.385,0,0,1,0,1.96l-3.609,3.61a1.386,1.386,0,0,1-1.961,0l-3.61-3.61a1.388,1.388,0,0,1,0-1.96l3.61-3.61a1.377,1.377,0,0,1,.98-.406m0-1.095a2.475,2.475,0,0,0-1.754.727l-3.61,3.61a2.479,2.479,0,0,0,0,3.507l3.61,3.61a2.48,2.48,0,0,0,3.508,0l3.609-3.61a2.479,2.479,0,0,0,0-3.507l-3.609-3.61a2.478,2.478,0,0,0-1.755-.727Z" transform="translate(1.437 0.718)" fill="#2788d2"/>
    <path d="M356.355,579.108l-.069-1.065,1.365-.347a1.748,1.748,0,0,0,.07-.509c.015-.278.031-.663.046-1.158s.023-1.072.023-1.736l.023-4.05c0-.632-.008-1.192-.023-1.677s-.031-.873-.046-1.158a1.547,1.547,0,0,0-.069-.5l-1.458-.324.069-1.064h5.577a6.686,6.686,0,0,1,4.028,1.017,3.447,3.447,0,0,1,1.365,2.94,3.961,3.961,0,0,1-.671,2.268,4.5,4.5,0,0,1-1.886,1.562,6.694,6.694,0,0,1-2.859.568,7.214,7.214,0,0,1-.844-.047c-.27-.031-.529-.07-.775-.116v-1.5a4.456,4.456,0,0,0,.74.22,4.277,4.277,0,0,0,.856.08,2.409,2.409,0,0,0,1.852-.693,2.888,2.888,0,0,0,.648-2.038,2.691,2.691,0,0,0-2.916-3.055h-.81c0,.109,0,.316-.012.626s-.015.705-.023,1.192-.012,1.052-.012,1.7l.023,4.05q0,1,.024,1.736t.058,1.146a4.676,4.676,0,0,0,.057.5l1.875.324-.069,1.111Zm12.175,0-.069-1,1.435-.37a3.079,3.079,0,0,0,.046-.4q.023-.3.046-.8c.015-.333.023-.721.023-1.169l.024-1.759c0-.478-.015-.923-.047-1.331a8.26,8.26,0,0,0-.162-1.146l-1.481-.323v-.95l3.726-.995.533.37-.093,1.852.07.023a4.659,4.659,0,0,1,1.365-1.759,2.488,2.488,0,0,1,1.389-.462,1.655,1.655,0,0,1,1.03.324,1.169,1.169,0,0,1,.428,1,1.257,1.257,0,0,1-.463,1.041,1.729,1.729,0,0,1-1.111.371,2.329,2.329,0,0,1-.937-.186,3.107,3.107,0,0,1-.891-.624l.578.069a4.06,4.06,0,0,0-.717.706,5.032,5.032,0,0,0-.625,1.006l.023,1.921q.023.763.046,1.424c.015.439.031.818.046,1.133s.032.536.047.661l2.013.324-.069,1.041Zm14.142.185a5.6,5.6,0,0,1-2.765-.66,4.75,4.75,0,0,1-1.863-1.828,5.27,5.27,0,0,1-.672-2.673,5.2,5.2,0,0,1,.752-2.835,5.05,5.05,0,0,1,1.991-1.829,5.721,5.721,0,0,1,2.65-.636,5.287,5.287,0,0,1,2.65.648,4.552,4.552,0,0,1,1.782,1.805,5.77,5.77,0,0,1-.058,5.382,5.224,5.224,0,0,1-1.863,1.921A4.94,4.94,0,0,1,382.672,579.293Zm.232-1.343a1.635,1.635,0,0,0,1.111-.4,2.61,2.61,0,0,0,.717-1.169,5.642,5.642,0,0,0,.255-1.782,6.637,6.637,0,0,0-.694-3.24,2.082,2.082,0,0,0-1.852-1.25,1.8,1.8,0,0,0-1.585.948,4.733,4.733,0,0,0-.59,2.523,6.8,6.8,0,0,0,.346,2.245,3.93,3.93,0,0,0,.938,1.563A1.9,1.9,0,0,0,382.9,577.95Zm7.407.51q.046-.787.058-1.516t.011-1.493V570.73c0-.648,0-1.274-.011-1.875s-.016-1.149-.024-1.643-.015-.918-.023-1.273-.02-.61-.035-.764l-1.712-.208-.047-.9L392.556,563l.578.37q-.046.949-.081,1.9T393,567.453q-.023,1.24-.069,3.067l.069.024a4.545,4.545,0,0,1,1.366-1.2,3.517,3.517,0,0,1,1.828-.509,4.153,4.153,0,0,1,2.129.567,4.285,4.285,0,0,1,1.574,1.62,5.037,5.037,0,0,1,.6,2.535,5.627,5.627,0,0,1-.764,2.916,5.563,5.563,0,0,1-2.141,2.06,6.516,6.516,0,0,1-3.205.763,10.079,10.079,0,0,1-2.1-.219A11.374,11.374,0,0,1,390.311,578.46Zm4.628-.7a2.461,2.461,0,0,0,1.933-.89,4.143,4.143,0,0,0,.8-2.72,3.37,3.37,0,0,0-.786-2.534,2.621,2.621,0,0,0-1.9-.8,2.585,2.585,0,0,0-1.1.242,2.7,2.7,0,0,0-.914.706v5.346a3.114,3.114,0,0,0,.9.475A3.265,3.265,0,0,0,394.939,577.765Zm10.74,1.528a3.489,3.489,0,0,1-1.793-.44,3.253,3.253,0,0,1-1.146-1.064,2.264,2.264,0,0,1-.394-1.2,1.909,1.909,0,0,1,.51-1.354,3.7,3.7,0,0,1,1.62-.891l3.61-1.11v-.949a1.573,1.573,0,0,0-.324-.95,2.522,2.522,0,0,0-2.013-1,.8.8,0,0,0-.614.2,1.4,1.4,0,0,0-.219.775l-.093,1.25a2.836,2.836,0,0,1-1.724-.058.988.988,0,0,1-.683-.96,1.273,1.273,0,0,1,.417-.856,5.2,5.2,0,0,1,1.053-.834,8.62,8.62,0,0,1,1.331-.671,5.083,5.083,0,0,1,1.273-.347,4.811,4.811,0,0,1,3.112.926,3.082,3.082,0,0,1,1.169,2.476l-.069,3.4q0,.6.034.983a2.2,2.2,0,0,0,.128.614l1.5.278v.88l-1.365.578a5.021,5.021,0,0,1-.729.243,2.652,2.652,0,0,1-.614.081,1.172,1.172,0,0,1-1.157-.88l-.347-1.018.439.092a6.477,6.477,0,0,1-1.458,1.331A2.7,2.7,0,0,1,405.679,579.293Zm1-1.875a1.921,1.921,0,0,0,.752-.15,1.8,1.8,0,0,0,.659-.5v-2.314l-1.9.417a1.412,1.412,0,0,0-.8.393,1.085,1.085,0,0,0-.243.741,1.318,1.318,0,0,0,.451.983A1.51,1.51,0,0,0,406.676,577.418Zm14.373-.092a2.834,2.834,0,0,1-1.227,1.458,3.851,3.851,0,0,1-4.432-.371,3.526,3.526,0,0,1-.983-2.73l.069-5.278h-1.62v-.672l3.61-2.962h.672l-.047,3.055-.046,5.556a2,2,0,0,0,.486,1.5,1.9,1.9,0,0,0,1.366.462,2.294,2.294,0,0,0,.868-.173,2.448,2.448,0,0,0,.752-.474Zm-5.161-6.921v-1.365h4.536v1.365Zm10.717,8.888a5.148,5.148,0,0,1-2.581-.648,4.654,4.654,0,0,1-1.793-1.794,5.24,5.24,0,0,1-.649-2.626,5.476,5.476,0,0,1,.718-2.836,5.26,5.26,0,0,1,1.874-1.9,4.627,4.627,0,0,1,2.477-.66,3.883,3.883,0,0,1,3.078,1.273,4.861,4.861,0,0,1,1.065,3.263v.51h-6.852V572.72h4.814l-.324.486v-.7a2.909,2.909,0,0,0-.521-1.827,1.725,1.725,0,0,0-1.446-.672,1.877,1.877,0,0,0-1.1.348,2.375,2.375,0,0,0-.8,1.041,4.381,4.381,0,0,0-.3,1.736v.417a3.953,3.953,0,0,0,.891,2.719,3.013,3.013,0,0,0,2.372,1.007,3.394,3.394,0,0,0,1.424-.29,3.929,3.929,0,0,0,1.261-.983l.671.6a4.569,4.569,0,0,1-1.782,2.013A4.815,4.815,0,0,1,426.6,579.293Z" transform="translate(3.586 0.346)" fill="#2788d2"/>
    <g transform="translate(439.981 567.117)">
      <path  d="M455.312,576.486a3.39,3.39,0,0,1-1.423.29,3.01,3.01,0,0,1-2.372-1.007,3.812,3.812,0,0,1-.87-2.4h6.506v-.51a4.861,4.861,0,0,0-1.065-3.263,3.883,3.883,0,0,0-3.078-1.273,4.624,4.624,0,0,0-2.476.66,5.262,5.262,0,0,0-1.875,1.9,5.475,5.475,0,0,0-.718,2.836,5.24,5.24,0,0,0,.649,2.626,4.661,4.661,0,0,0,1.793,1.794,5.148,5.148,0,0,0,2.581.648,4.819,4.819,0,0,0,2.5-.671,4.574,4.574,0,0,0,1.781-2.013l-.671-.6A3.918,3.918,0,0,1,455.312,576.486Zm-3.588-6.631a1.879,1.879,0,0,1,1.1-.348,1.729,1.729,0,0,1,1.447.672,2.909,2.909,0,0,1,.52,1.827v.209h-4.134a4.079,4.079,0,0,1,.268-1.319A2.375,2.375,0,0,1,451.723,569.855Z" transform="translate(-427.71 -566.267)" fill="#545c6b"/>
      <path  d="M446.947,576.347q-.034-.683-.035-1.469l-.023-2.454a4.834,4.834,0,0,0-.451-2.163,3.418,3.418,0,0,0-1.273-1.424,3.55,3.55,0,0,0-1.909-.509,3.806,3.806,0,0,0-1.991.555,5.977,5.977,0,0,0-1.437,1.258,3.34,3.34,0,0,0-1.259-1.362,3.234,3.234,0,0,0-1.655-.451,3.476,3.476,0,0,0-1.643.416,5.024,5.024,0,0,0-1.527,1.343l-.07-.023.139-1.3-.556-.394-3.8.995v.95l1.481.323c.046.231.084.483.115.753s.055.547.07.833.023.582.023.891l-.023,1.759c0,.448-.008.836-.023,1.169s-.031.6-.047.8a3.073,3.073,0,0,1-.046.4l-1.435.37.07,1h5.486l.07-1-1.32-.37a3.871,3.871,0,0,1-.1-.88q-.035-.695-.034-1.551v-3.425a2.681,2.681,0,0,1,.937-.845,2.362,2.362,0,0,1,1.122-.289,2.052,2.052,0,0,1,.972.231,1.674,1.674,0,0,1,.706.764,3.177,3.177,0,0,1,.266,1.412l.023,2.291q0,.486-.011.949t-.035.81a3.275,3.275,0,0,1-.069.533l-1.227.37.07,1h5.23l.069-1-1.319-.37a3.989,3.989,0,0,1-.092-.892q-.025-.683-.024-1.469l-.046-2.408a6.358,6.358,0,0,0-.108-1.155,2.649,2.649,0,0,1,.883-.777,2.6,2.6,0,0,1,1.192-.289,2.034,2.034,0,0,1,1,.254,1.88,1.88,0,0,1,.752.811,3.218,3.218,0,0,1,.289,1.48l.023,2.153q0,.486-.011.949t-.035.81a3.275,3.275,0,0,1-.069.533l-1.25.37.069,1h5.371l.069-1-1.435-.37A4.228,4.228,0,0,1,446.947,576.347Z" transform="translate(-429.46 -566.267)" fill="#545c6b"/>
      <path   d="M468.438,576.347q-.025-.683-.024-1.469v-2.408a5.04,5.04,0,0,0-.463-2.268,3.337,3.337,0,0,0-1.238-1.4,3.237,3.237,0,0,0-1.724-.475,3.831,3.831,0,0,0-1.794.44,5.266,5.266,0,0,0-1.585,1.319l-.07-.023.139-1.3-.555-.394-3.8.995v.95l1.482.323a8.612,8.612,0,0,1,.162,1.135c.03.4.046.848.046,1.342l-.023,1.759c0,.462-.009.86-.023,1.191s-.032.594-.047.787a2.979,2.979,0,0,1-.046.383l-1.435.37.07,1h5.6l.07-1-1.435-.37a3.791,3.791,0,0,1-.1-.868q-.034-.683-.035-1.563v-3.425a2.909,2.909,0,0,1,.96-.845,2.5,2.5,0,0,1,1.192-.289,2.012,2.012,0,0,1,1.019.266,1.956,1.956,0,0,1,.752.833,3.242,3.242,0,0,1,.289,1.47v2.129c0,.324,0,.64-.011.949s-.02.579-.035.81a3.253,3.253,0,0,1-.07.533l-1.342.37.069,1H469.9l.069-1-1.435-.37A3.919,3.919,0,0,1,468.438,576.347Z" transform="translate(-426.821 -566.267)" fill="#545c6b"/>
      <path  d="M496.007,568.717a1.655,1.655,0,0,0-1.03-.324,2.482,2.482,0,0,0-1.388.462,4.671,4.671,0,0,0-1.366,1.759l-.07-.023.093-1.852-.532-.37-3.726,1v.95l1.481.323a8.593,8.593,0,0,1,.162,1.146q.046.613.046,1.331l-.023,1.759c0,.448-.009.836-.023,1.169s-.032.6-.047.8a3.075,3.075,0,0,1-.046.4l-1.435.37.07,1h6.2l.07-1.041-2.014-.324c-.015-.125-.031-.344-.046-.661s-.031-.694-.046-1.133-.032-.915-.047-1.424l-.023-1.921a5.081,5.081,0,0,1,.625-1.006,4.317,4.317,0,0,1,.476-.5,2.739,2.739,0,0,0,.554.346,2.333,2.333,0,0,0,.938.186,1.726,1.726,0,0,0,1.11-.371,1.257,1.257,0,0,0,.463-1.041A1.166,1.166,0,0,0,496.007,568.717Z" transform="translate(-423.918 -566.263)" fill="#545c6b"/>
      <path  d="M476.31,576.849a2.286,2.286,0,0,1-.868.173,1.9,1.9,0,0,1-1.365-.462,2,2,0,0,1-.486-1.5l.042-4.976h3.338v-1.365h-3.321l.034-2.269h-.671l-3.61,2.962v.672h1.62l-.07,5.278a3.526,3.526,0,0,0,.984,2.73,3.851,3.851,0,0,0,4.432.371A2.834,2.834,0,0,0,477.595,577l-.533-.625A2.422,2.422,0,0,1,476.31,576.849Z" transform="translate(-425.678 -566.445)" fill="#545c6b"/>
      <path d="M485.395,568.975a5.287,5.287,0,0,0-2.65-.648,5.722,5.722,0,0,0-2.651.636,5.054,5.054,0,0,0-1.99,1.829,5.2,5.2,0,0,0-.752,2.835,5.269,5.269,0,0,0,.671,2.673,4.76,4.76,0,0,0,1.864,1.828,5.6,5.6,0,0,0,2.765.66,4.94,4.94,0,0,0,2.6-.706,5.232,5.232,0,0,0,1.863-1.921,5.38,5.38,0,0,0,.694-2.719,5.444,5.444,0,0,0-.636-2.662A4.559,4.559,0,0,0,485.395,568.975Zm-.683,6.9a2.622,2.622,0,0,1-.718,1.169,1.633,1.633,0,0,1-1.111.4,1.9,1.9,0,0,1-1.354-.566,3.918,3.918,0,0,1-.937-1.563,6.8,6.8,0,0,1-.347-2.245,4.743,4.743,0,0,1,.59-2.523,1.8,1.8,0,0,1,1.585-.948,2.08,2.08,0,0,1,1.852,1.25,6.636,6.636,0,0,1,.7,3.24A5.642,5.642,0,0,1,484.712,575.873Z" transform="translate(-424.925 -566.267)" fill="#545c6b"/>
    </g>
    <g  transform="translate(326.655 559.35)">
      <path  d="M332.027,560.445a1.377,1.377,0,0,1,.98.406l3.61,3.609a1.386,1.386,0,0,1,0,1.961l-3.61,3.61a1.387,1.387,0,0,1-1.959,0l-3.61-3.61a1.386,1.386,0,0,1,0-1.961l3.61-3.609a1.377,1.377,0,0,1,.98-.406m0-1.095a2.469,2.469,0,0,0-1.754.727l-3.61,3.609a2.481,2.481,0,0,0,0,3.509l3.61,3.61a2.482,2.482,0,0,0,3.507,0l3.61-3.61a2.481,2.481,0,0,0,0-3.509l-3.61-3.609a2.469,2.469,0,0,0-1.754-.727Z" transform="translate(-325.936 -559.35)" fill="#545c6b"/>
      <path  d="M332.027,575.618a1.376,1.376,0,0,1,.98.405l3.61,3.61a1.386,1.386,0,0,1,0,1.961l-3.61,3.609a1.385,1.385,0,0,1-1.959,0l-3.61-3.609a1.386,1.386,0,0,1,0-1.961l3.61-3.61a1.376,1.376,0,0,1,.98-.405m0-1.095a2.473,2.473,0,0,0-1.754.726l-3.61,3.61a2.481,2.481,0,0,0,0,3.508l3.61,3.609a2.479,2.479,0,0,0,3.507,0l3.61-3.609a2.481,2.481,0,0,0,0-3.508l-3.61-3.61a2.473,2.473,0,0,0-1.754-.726Z" transform="translate(-325.936 -557.913)" fill="#545c6b"/>
    </g>
  </g>
</svg>
