<svg   xmlns="http://www.w3.org/2000/svg" width="50" height="50" viewBox="0 0 50 50" fill="#9a2038">
  <g>
    <g>
      <path d="M48.852,118.264a1.04,1.04,0,0,0-1.546.081,20.825,20.825,0,0,0,29.289,29.289,1.04,1.04,0,0,0,.081-1.546ZM63.5,150.189a18.772,18.772,0,0,1-18.75-18.75,18.509,18.509,0,0,1,3.471-10.859l26.138,26.138A18.509,18.509,0,0,1,63.5,150.189Z" transform="translate(-38.5 -106.439)" />
      <path  d="M25,0A25,25,0,1,0,50,25,25.029,25.029,0,0,0,25,0Zm0,47.917A22.917,22.917,0,1,1,47.917,25,22.943,22.943,0,0,1,25,47.917Z"/>
      <path d="M131.436,42.667a20.876,20.876,0,0,0-13.094,4.639,1.04,1.04,0,0,0-.081,1.546l27.824,27.824a1.039,1.039,0,0,0,.737.305h.055a1.044,1.044,0,0,0,.755-.386,20.825,20.825,0,0,0-16.195-33.927Zm15.279,31.692L120.577,48.221a18.509,18.509,0,0,1,10.859-3.471,18.772,18.772,0,0,1,18.75,18.75A18.509,18.509,0,0,1,146.715,74.359Z" transform="translate(-106.436 -38.5)" />
    </g>
  </g>
</svg>
