<svg width="54" height="55" viewBox="0 0 54 55" fill="none" xmlns="http://www.w3.org/2000/svg">
<rect y="0.591309" width="54" height="54" rx="27" fill="#0087FB"/>
<path fill-rule="evenodd" clip-rule="evenodd" d="M27 38.9189L27.6577 38.3446C33.1887 33.515 36 29.2981 36 25.5913C36 20.342 31.9029 16.5913 27 16.5913C22.0971 16.5913 18 20.342 18 25.5913C18 29.2981 20.8113 33.515 26.3423 38.3446L27 38.9189ZM27 36.2547C22.3066 32.0249 20 28.4405 20 25.5913C20 21.4879 23.1641 18.5913 27 18.5913C30.8359 18.5913 34 21.4879 34 25.5913C34 28.4405 31.6934 32.0249 27 36.2547ZM27 20.5913C29.7614 20.5913 32 22.8299 32 25.5913C32 28.3527 29.7614 30.5913 27 30.5913C24.2386 30.5913 22 28.3527 22 25.5913C22 22.8299 24.2386 20.5913 27 20.5913ZM24 25.5913C24 23.9345 25.3431 22.5913 27 22.5913C28.6569 22.5913 30 23.9345 30 25.5913C30 27.2482 28.6569 28.5913 27 28.5913C25.3431 28.5913 24 27.2482 24 25.5913Z" fill="white"/>
</svg>
