<svg width="54" height="55" viewBox="0 0 54 55" fill="none" xmlns="http://www.w3.org/2000/svg">
<rect y="0.591309" width="54" height="54" rx="27" fill="#0087FB"/>
<path fill-rule="evenodd" clip-rule="evenodd" d="M27 38.5913C20.9249 38.5913 16 33.6664 16 27.5913C16 21.5162 20.9249 16.5913 27 16.5913C33.0751 16.5913 38 21.5162 38 27.5913C38 33.6664 33.0751 38.5913 27 38.5913ZM27 36.5913C31.9706 36.5913 36 32.5619 36 27.5913C36 22.6207 31.9706 18.5913 27 18.5913C22.0294 18.5913 18 22.6207 18 27.5913C18 32.5619 22.0294 36.5913 27 36.5913ZM32 26.5913H28V21.5913H26V28.5913H32V26.5913Z" fill="white"/>
</svg>
