<svg width="60" height="60" viewBox="0 0 60 60" fill="none" xmlns="http://www.w3.org/2000/svg">
<path d="M30.7071 19.2929C30.3166 18.9024 29.6834 18.9024 29.2929 19.2929L22.9289 25.6569C22.5384 26.0474 22.5384 26.6805 22.9289 27.0711C23.3195 27.4616 23.9526 27.4616 24.3431 27.0711L30 21.4142L35.6569 27.0711C36.0474 27.4616 36.6805 27.4616 37.0711 27.0711C37.4616 26.6805 37.4616 26.0474 37.0711 25.6569L30.7071 19.2929ZM31 40L31 20L29 20L29 40L31 40Z" fill="#0087FB"/>
<rect x="59" y="1" width="58" height="58" rx="4" transform="rotate(90 59 1)" stroke="#0087FB" stroke-width="2"/>
</svg>
