<?xml version="1.0" encoding="utf-8"?>
<!-- Generator: Adobe Illustrator 23.1.0, SVG Export Plug-In . SVG Version: 6.00 Build 0)  -->
<svg version="1.1" id="Слой_1" xmlns="http://www.w3.org/2000/svg" xmlns:xlink="http://www.w3.org/1999/xlink" x="0px" y="0px"
	 viewBox="0 0 24 24" style="enable-background:new 0 0 24 24;" xml:space="preserve">
<style type="text/css">
	.st0{fill:#FFFFFF;}
</style>
<path class="st0" d="M15.4305,11.4000006c-0.0539999,0.6330004-0.5819998,1.1269999-1.224,1.1269999
	c-0.6780005,0-1.2290001-0.5500002-1.2290001-1.2290001s0.5500002-1.2290001,1.2279997-1.2290001
	c0.6829996,0.0290003,1.2250004,0.5900002,1.2250004,1.2769995c0,0.0190001,0,0.0369997-0.0010004,0.0559998v-0.0030003
	L15.4305,11.4000006z M9.8264999,10.0700006c-0.6879997,0.0609999-1.2229996,0.6339998-1.2229996,1.3319998
	s0.5349998,1.2709999,1.2179995,1.3319998h0.0050001c0.6829996-0.0290003,1.2250004-0.5900002,1.2250004-1.2770004
	c0-0.0190001,0-0.0369997-0.0010004-0.0559998v0.0030003c0.0010004-0.0200005,0.0019999-0.0430002,0.0019999-0.0670004
	c0-0.6850004-0.5410004-1.243-1.2189999-1.2690001H9.8315001L9.8264999,10.0700006z M22.5004997,2.4720006V24
	c-3.0230007-2.6720009-2.0569992-1.7869987-5.5680008-5.0519981l0.6360016,2.2199974H3.9595003
	c-1.359-0.0039978-2.46-1.105999-2.46-2.4659996c0-0.0019989,0-0.0039978,0-0.0060005V2.4719992c0-0.0020001,0-0.0039999,0-0.006
	c0-1.36,1.1009998-2.4619999,2.4590001-2.4660001h16.0809994c1.3589993,0.004,2.460001,1.1059999,2.460001,2.4660001v0.006
	L22.5004997,2.4720006z M19.0804996,13.8480005c-0.0419998-2.559-0.6760006-4.96-1.7700005-7.086l0.0419998,0.0900002
	c-0.9239998-0.7309999-2.0880003-1.1950002-3.3579998-1.2589998L13.9804993,5.592001L13.812499,5.7840009
	c1.1499996,0.3119998,2.1500006,0.8369999,3.0019999,1.5349998L16.800499,7.3080006
	c-1.3990002-0.7690001-3.066-1.2220001-4.8390007-1.2220001c-1.493,0-2.9110003,0.3210001-4.1890001,0.8979998l0.0640001-0.026
	c-0.4440002,0.204-0.7080002,0.3499999-0.7080002,0.3499999C8.0124979,6.586,9.0704975,6.0419998,10.2284985,5.7480001
	l0.0559998-0.0120001L10.1644983,5.592c-1.2839994,0.0650001-2.448,0.5289998-3.3839998,1.2690001l0.0120001-0.0089998
	c-1.052,2.0360003-1.6859999,4.4370003-1.7280002,6.9820004v0.0139999c0.7990003,1.1110001,2.0879998,1.8260002,3.5429997,1.8260002
	c0.0410004,0,0.0819998-0.0010004,0.1230001-0.0019999H8.7244987c0,0,0.4439993-0.54,0.8039999-0.9960003
	c-0.8660002-0.2229996-1.592-0.7270002-2.0929999-1.4060001l-0.007-0.0100002
	c0.1760001,0.1239996,0.4679999,0.2840004,0.4900002,0.3000002c1.2089996,0.6719999,2.6520004,1.0670004,4.1879997,1.0670004
	c1.191,0,2.3260002-0.2379999,3.3599997-0.6680002l-0.0579996,0.0209999
	c0.5279999-0.2019997,0.9820004-0.4399996,1.4040012-0.7229996l-0.0250015,0.0159998
	c-0.5259991,0.7030001-1.2769985,1.2119999-2.1439991,1.4230003l-0.026,0.0050001
	c0.3599997,0.4560003,0.7919998,0.9720001,0.7919998,0.9720001c0.033,0.0010004,0.0719995,0.0010004,0.1110001,0.0010004
	c1.4609995,0,2.7550001-0.7139997,3.5519991-1.8129997l0.0090008-0.0129995L19.0804996,13.8480005z"/>
</svg>
