<?xml version="1.0" encoding="utf-8"?>
<!-- Generator: Adobe Illustrator 23.1.0, SVG Export Plug-In . SVG Version: 6.00 Build 0)  -->
<svg version="1.1" id="Capa_1" xmlns="http://www.w3.org/2000/svg" xmlns:xlink="http://www.w3.org/1999/xlink" x="0px" y="0px"
	 viewBox="0 0 12 12" style="enable-background:new 0 0 12 12;" xml:space="preserve">
<style type="text/css">
	.st0{fill:#FFFFFF;}
</style>
<path class="st0" d="M6,0C2.6863534,0,0,2.6863523,0,6c0,3.3136272,2.6863534,6,6,6c3.3136272,0,6-2.6863728,6-6
	C12,2.6863523,9.3136272,0,6,0z M6.1363502,1.7888041c0.4802222,0,0.8695202,0.3892965,0.8695202,0.8695188
	s-0.389298,0.8695188-0.8695202,0.8695188S5.2668314,3.138545,5.2668314,2.6583228S5.6561279,1.7888041,6.1363502,1.7888041z
	 M8.0492783,10.4839211H4.2234473V9.7883158h1.0434093V4.9190531H4.2234473V4.2234473h2.7824469v5.5648685h1.0433841V10.4839211z"/>
</svg>
