<?xml version="1.0" encoding="utf-8"?>
<!-- Generator: Adobe Illustrator 23.1.0, SVG Export Plug-In . SVG Version: 6.00 Build 0)  -->
<svg version="1.1" id="Capa_1" xmlns="http://www.w3.org/2000/svg" xmlns:xlink="http://www.w3.org/1999/xlink" x="0px" y="0px"
	 viewBox="0 0 12 12" style="enable-background:new 0 0 12 12;" xml:space="preserve">
<style type="text/css">
	.st0{fill:#FFFFFF;}
</style>
<g>
	<path class="st0" d="M9.8243513,1.4064245c0.5431833,0.490702,0.8866043,1.1983836,0.8866043,1.9880326
		c0,0.2483022-0.0338945,0.4886692-0.0970774,0.7168653c-0.0264492,0.0955591-0.0580406,0.1889877-0.0944815,0.279943
		l-0.0732985,0.1665058L8.2170124,8.6773214v3.1923437L12,9.5987263V0L9.8243513,1.4064245z"/>
	<polygon class="st0" points="3.8129878,0.0896082 0,2.0321386 0,12 3.8129878,9.6230688 	"/>
	<path class="st0" d="M5.6160979,4.5641632l-0.081306-0.1847754c-0.0344329-0.087184-0.0643106-0.1766448-0.089633-0.2680407
		C5.382,3.8831513,5.3481059,3.6428082,5.3481059,3.3944817c0-0.7767184,0.3322287-1.4741633,0.8599596-1.9638612
		L4.1879997,0.128351v9.495306l3.6540489,2.2778692V8.6773958L5.6160979,4.5641632z"/>
	<path class="st0" d="M8.0295429,2.5588164c-0.4474049,0-0.8113961,0.3639917-0.8113961,0.8113959
		S7.582139,4.1816082,8.0295429,4.1816082s0.8113956-0.3639917,0.8113956-0.8113959
		C8.8409138,2.9228082,8.4769468,2.5588164,8.0295429,2.5588164z"/>
	<path class="st0" d="M8.0295429,1.0880572c-1.27178,0-2.3064251,1.0346695-2.3064251,2.3064246
		c0,0.2091675,0.02809,0.4166939,0.0834613,0.6168489c0.0217471,0.0786123,0.0476575,0.1560736,0.076972,0.2302532
		l0.0694776,0.1572981L8.0295181,8.235918l2.0795269-3.8431344l0.0671263-0.1525474
		c0.0264492-0.0666366,0.0537558-0.1475263,0.0763102-0.2289305c0.0553961-0.2001307,0.0834856-0.4076571,0.0834856-0.6168492
		C10.3359671,2.1227267,9.3012981,1.0880572,8.0295429,1.0880572z M8.0295429,4.5565715
		c-0.6552248,0-1.1863842-0.5311594-1.1863842-1.1863837S7.3743181,2.183804,8.0295429,2.183804
		c0.6552238,0,1.1863832,0.5311592,1.1863832,1.1863837S8.6847668,4.5565715,8.0295429,4.5565715z"/>
</g>
</svg>
