<?xml version="1.0" encoding="utf-8"?>
<!-- Generator: Adobe Illustrator 23.1.0, SVG Export Plug-In . SVG Version: 6.00 Build 0)  -->
<svg version="1.1" id="Слой_1" xmlns="http://www.w3.org/2000/svg" xmlns:xlink="http://www.w3.org/1999/xlink" x="0px" y="0px"
	 viewBox="0 0 24 24" style="enable-background:new 0 0 24 24;" xml:space="preserve">
<style type="text/css">
	.st0{fill:#FFFFFF;}
</style>
<path class="st0" d="M23.4559994,5.7839999c-0.2700005,0.849-0.6340008,1.5879998-1.0900002,2.2590003l0.0189991-0.0299997
	c-0.4480019,0.7466669-0.9829998,1.609333-1.6049995,2.5880003c-0.5333328,0.7726669-0.8156662,1.1726665-0.8470001,1.1999998
	c-0.1380005,0.1730003-0.2339993,0.3850002-0.2670002,0.618l-0.0009995,0.007
	c0.0270004,0.2119999,0.125,0.3970003,0.2679996,0.5349998l0.3999996,0.4460001
	c2.1400013,2.1993341,3.343668,3.7153349,3.6110001,4.5479994c0.0349998,0.0919991,0.0550003,0.198,0.0550003,0.309
	c0,0.1940002-0.0620003,0.3729992-0.1669998,0.5200005l0.0020008-0.0030003
	c-0.1760006,0.1809998-0.4220009,0.2929993-0.6940002,0.2929993c-0.0300007,0-0.0610008-0.0009995-0.0900002-0.0039997h0.0039997
	h-2.6310005c-0.0009995,0-0.0030003,0-0.0049992,0c-0.3369999,0-0.6469994-0.118-0.8899994-0.3139992l0.0030003,0.0020008
	c-0.3540001-0.2910004-0.6690006-0.6060009-0.9510002-0.948l-0.0090008-0.0119991
	c-0.4606667-0.5206661-0.8693333-0.9589996-1.2259998-1.3150005c-1.1879997-1.1293335-2.0646658-1.6940002-2.6300001-1.6940002
	c-0.0209999-0.0019999-0.0450001-0.0030003-0.0699997-0.0030003c-0.165,0-0.3190002,0.0509996-0.4460001,0.1379995
	l0.0030003-0.0019999c-0.1040001,0.1300001-0.1669998,0.2980003-0.1669998,0.4790001
	c0,0.0360003,0.0019999,0.0699997,0.007,0.1049995v-0.0039997c-0.0270004,0.3140001-0.0430002,0.6790009-0.0430002,1.0480003
	c0,0.1189995,0.0019999,0.2369995,0.0050001,0.3549995v-0.0170002v1.1590004
	c0.0100002,0.0470009,0.0159998,0.1009998,0.0159998,0.1560001c0,0.2420006-0.1099997,0.4580002-0.2819996,0.6009998
	l-0.0010004,0.0009995c-0.3870001,0.177-0.8389997,0.2810001-1.316,0.2810001c-0.1020002,0-0.2019997-0.0049992-0.3009996-0.0139999
	L12.1329994,19.073c-1.5740004-0.0300007-3.0340004-0.4909992-4.2750001-1.2679996l0.0349998,0.0200005
	c-1.5110002-0.9179993-2.763-2.1129999-3.717-3.5249996l-0.027-0.0419998c-0.9060001-1.2019997-1.7509999-2.5599995-2.471-3.9920006
	l-0.0700001-0.1540003c-0.421-0.802-0.857-1.7880001-1.233-2.802l-0.06-0.1849999c-0.153-0.4559999-0.264-0.9860001-0.31-1.5349998
	l-0.002-0.0250001c0-0.5053334,0.2973334-0.7579999,0.892-0.7579999h2.6300001
	c0.0239999-0.0019999,0.052-0.0029998,0.0810001-0.0029998c0.2479999,0,0.4769998,0.085,0.658,0.2280002L4.2619996,5.0300012
	c0.1999998,0.2189999,0.348,0.4879999,0.421,0.7880001l0.0029998,0.0120001
	c0.4840002,1.3670001,0.9970002,2.5149999,1.5869999,3.6150002L6.2059994,9.3080015
	c0.4819999,0.9700003,1.0149999,1.8050003,1.6230001,2.5760002l-0.0229998-0.0310001
	c0.5333338,0.6546669,0.9493332,0.9820004,1.2480001,0.9820004c0.0089998,0.0010004,0.0200005,0.0010004,0.0319996,0.0010004
	c0.1479998,0,0.2770004-0.0799999,0.3470001-0.1999998L9.434,12.6340027
	c0.0740004-0.1899996,0.1169996-0.4110003,0.1169996-0.6409998c0-0.0489998-0.0019999-0.0979996-0.0059996-0.1459999v0.0059996
	V7.9740028C9.5240002,7.5170031,9.4119997,7.090003,9.2250004,6.7070026l0.0080004,0.0190001
	C9.1090012,6.4620028,8.960001,6.2340026,8.7830009,6.0310025l0.0030003,0.0040002
	c-0.1639996-0.164-0.276-0.3790002-0.3109999-0.619l-0.0010004-0.006c0-0.1700001,0.0780001-0.323,0.1999998-0.4229999
	l0.0010004-0.0009999c0.1210003-0.1110001,0.283-0.178,0.46-0.178h0.0080004h4.1459999
	c0.0220003-0.0029998,0.0469999-0.0040002,0.073-0.0040002c0.1949997,0,0.3699999,0.0879998,0.4860001,0.2259998
	l0.0010004,0.0009999c0.1029997,0.1880002,0.1639996,0.4130001,0.1639996,0.651c0,0.0380001-0.0019999,0.0749998-0.0050001,0.112
	V5.7890024v5.1729994c-0.0019999,0.0240002-0.0030003,0.052-0.0030003,0.0799999c0,0.184,0.0509996,0.3570004,0.1389999,0.5039997
	l-0.0019999-0.0039997c0.073,0.1079998,0.1949997,0.1780005,0.3330002,0.1780005h0.0010004
	c0.1759996-0.0120001,0.3360004-0.0699997,0.4709997-0.1619997l-0.0030003,0.0019999
	c0.2720003-0.1870003,0.5059996-0.3999996,0.7089996-0.6409998l0.0039997-0.0050001
	c0.6069994-0.6859999,1.1670008-1.4440002,1.6549997-2.25l0.0389996-0.0699997
	c0.3439999-0.5699997,0.7159996-1.2719998,1.0529995-1.993l0.0620003-0.1469998l0.4459991-0.8920002
	c0.1550007-0.4460001,0.5709991-0.7599998,1.0599995-0.7599998c0.0189991,0,0.0380001,0,0.0569992,0.0009999h-0.0030003h2.6310005
	c0.7106686,0,0.9773331,0.3270001,0.7999992,0.9809999L23.4559994,5.7839999z"/>
</svg>
