<?xml version="1.0" encoding="UTF-8"?>
<svg width="90px" height="108px" viewBox="0 0 90 108" version="1.1" xmlns="http://www.w3.org/2000/svg" xmlns:xlink="http://www.w3.org/1999/xlink">
    <!-- Generator: sketchtool 52.2 (67145) - http://www.bohemiancoding.com/sketch -->
    <title>13D7525B-F81C-417E-9F81-22FAFC216619</title>
    <desc>Created with sketchtool.</desc>
    <g id="Page-1" stroke="none" stroke-width="1" fill="none" fill-rule="evenodd">
        <g id="-g-скальпинг" transform="translate(-954.000000, -7091.000000)">
            <rect fill="#FFFFFF" x="0" y="0" width="1440" height="10518"></rect>
            <g id="Group-5" transform="translate(119.000000, 6958.000000)">
                <g id="Group-35" transform="translate(835.000000, 152.000000)">
                    <g id="Group-21" transform="translate(0.000000, 3.134328)">
                        <path d="M63.3940896,28.0016716 C64.1975224,29.9313731 63.2843881,32.1473433 61.3546866,32.9497313 C59.4249851,33.754209 57.2090149,32.8410746 56.4055821,30.9103284 C55.6021493,28.9806269 56.5152836,26.7646567 58.4449851,25.9612239 C60.3746866,25.157791 62.5906567,26.0709254 63.3940896,28.0016716" id="Fill-1" fill="#E5EFF7"></path>
                        <path d="M63.3940896,28.0016716 C64.1975224,29.9313731 63.2843881,32.1473433 61.3546866,32.9497313 C59.4249851,33.754209 57.2090149,32.8410746 56.4055821,30.9103284 C55.6021493,28.9806269 56.5152836,26.7646567 58.4449851,25.9612239 C60.3746866,25.157791 62.5906567,26.0709254 63.3940896,28.0016716 Z" id="Stroke-3" stroke="#5967AD" stroke-width="2" stroke-linecap="round" stroke-linejoin="round"></path>
                        <path d="M43.2138209,5.35949254 C47.9644179,2.00053731 53.7639701,0.0269552239 60.0232239,0.0269552239 C76.1242687,0.0269552239 89.1766567,13.0803881 89.1766567,29.1803881 C89.1766567,45.2803881 76.1242687,58.3327761 60.0232239,58.3327761 C58.2324776,58.3327761 56.4803881,58.1708358 54.7784478,57.8626269" id="Stroke-5" stroke="#5967AD" stroke-width="2" stroke-linecap="round" stroke-linejoin="round"></path>
                        <path d="M84.3340149,29.6402985 L89.0522239,29.6402985" id="Stroke-7" stroke="#5967AD" stroke-width="2" stroke-linecap="round" stroke-linejoin="round"></path>
                        <path d="M60.0235373,0.0273731343 L60.0235373,4.74662687" id="Stroke-9" stroke="#5967AD" stroke-width="2" stroke-linecap="round" stroke-linejoin="round"></path>
                        <path d="M60.0235373,53.6140448 L60.0235373,58.3332985" id="Stroke-11" stroke="#5967AD" stroke-width="2" stroke-linecap="round" stroke-linejoin="round"></path>
                        <path d="M59.8996269,24.9602239 L59.8996269,12.8752985" id="Stroke-13" stroke="#5967AD" stroke-width="2" stroke-linecap="round" stroke-linejoin="round"></path>
                        <path d="M64.1720299,29.6402985 L73.7839701,29.6402985" id="Stroke-15" stroke="#5967AD" stroke-width="2" stroke-linecap="round" stroke-linejoin="round"></path>
                        <path d="M-0.000104477612,65.820791 L14.6110896,65.820791" id="Stroke-17" stroke="#5967AD" stroke-width="2" stroke-linecap="round" stroke-linejoin="round"></path>
                        <path d="M19.8098955,65.820791 L23.8834776,65.820791" id="Stroke-19" stroke="#5967AD" stroke-width="2" stroke-linecap="round" stroke-linejoin="round"></path>
                    </g>
                    <g id="Group-34">
                        <path d="M42.433791,24.6296567 C42.433791,24.6296567 41.9333433,35.1317463 39.0999104,38.2984627 C36.2664776,41.4651791 30.123194,44.9662239 27.943791,45.1323433 C25.7643881,44.9662239 19.6221493,41.4651791 16.7876716,38.2984627 C13.9542388,35.1317463 13.453791,24.6296567 13.453791,24.6296567" id="Stroke-22" stroke="#5968AE" stroke-width="2" stroke-linecap="round"></path>
                        <path d="M35.4575075,10.294597 C35.4575075,10.294597 33.0409403,14.4611642 22.8721343,14.7119104 C12.7043731,14.9616119 13.4534776,24.6299701 13.4534776,24.6299701 C13.4534776,24.6299701 11.7546716,21.8717612 11.4537761,16.3783284 C11.2322836,12.315194 7.27885075,11.4835522 7.27885075,11.4835522 C7.27885075,11.4835522 24.1216866,-8.62420896 35.4575075,4.37698507 C35.4575075,4.37698507 44.2085522,5.21071642 44.5418358,12.544 C44.8751194,19.8793731 42.4334776,24.6299701 42.4334776,24.6299701 C42.4334776,24.6299701 42.7082537,13.6274328 35.4575075,10.294597" id="Fill-24" fill="#E5EFF7"></path>
                        <path d="M35.4575075,10.294597 C35.4575075,10.294597 33.0409403,14.4611642 22.8721343,14.7119104 C12.7043731,14.9616119 13.4534776,24.6299701 13.4534776,24.6299701 C13.4534776,24.6299701 11.7546716,21.8717612 11.4537761,16.3783284 C11.2322836,12.315194 7.27885075,11.4835522 7.27885075,11.4835522 C7.27885075,11.4835522 24.1216866,-8.62420896 35.4575075,4.37698507 C35.4575075,4.37698507 44.2085522,5.21071642 44.5418358,12.544 C44.8751194,19.8793731 42.4334776,24.6299701 42.4334776,24.6299701 C42.4334776,24.6299701 42.7082537,13.6274328 35.4575075,10.294597 Z" id="Stroke-26" stroke="#5967AD" stroke-width="2" stroke-linecap="round" stroke-linejoin="round"></path>
                        <path d="M36.0778955,40.9726716 L36.0778955,49.9117761 C36.0778955,49.9117761 34.5128209,55.3007313 27.9443134,55.4114776 C21.3747612,55.3007313 19.8096866,49.9117761 19.8096866,49.9117761 L19.8096866,40.9726716" id="Stroke-28" stroke="#5968AE" stroke-width="2" stroke-linecap="round"></path>
                        <path d="M27.9441045,68.9551194 L55.8876866,68.9551194 L54.4751493,58.8009403 C50.4747015,50.8000448 36.0776866,48.1922836 36.0776866,48.1922836" id="Stroke-30" stroke="#5968AE" stroke-width="2" stroke-linecap="round"></path>
                        <path d="M-0.000104477612,68.9551194 L2.11870149,58.8009403 C6.11914925,50.8000448 19.8098955,48.1922836 19.8098955,48.1922836" id="Stroke-32" stroke="#5968AE" stroke-width="2" stroke-linecap="round"></path>
                    </g>
                </g>
            </g>
        </g>
    </g>
</svg>