<?xml version="1.0" encoding="UTF-8"?>
<svg width="104px" height="108px" viewBox="0 0 104 108" version="1.1" xmlns="http://www.w3.org/2000/svg" xmlns:xlink="http://www.w3.org/1999/xlink">
    <!-- Generator: sketchtool 52.2 (67145) - http://www.bohemiancoding.com/sketch -->
    <title>D0284B0E-19F7-4C1F-8F46-81B55FF19CE9</title>
    <desc>Created with sketchtool.</desc>
    <g id="Page-1" stroke="none" stroke-width="1" fill="none" fill-rule="evenodd">
        <g id="-g-скальпинг" transform="translate(-747.000000, -2669.000000)">
            <rect fill="#FFFFFF" x="0" y="0" width="1440" height="10518"></rect>
            <g id="Group-15" transform="translate(750.000000, 2674.000000)">
                <path d="M21.7099,80.6931 L21.7099,93.5051" id="Stroke-1" stroke="#5967AD" stroke-width="2" stroke-linecap="round" stroke-linejoin="round"></path>
                <g id="Group-14">
                    <path d="M17.1762,60.4294 C18.5222,62.4824 20.0422,64.3434 21.7102,65.9434 L21.7102,73.4904" id="Stroke-2" stroke="#5967AD" stroke-width="2" stroke-linecap="round" stroke-linejoin="round"></path>
                    <path d="M57.9926,97.9997 L57.9926,87.0307 L71.8906,87.0307 C79.4096,87.0307 85.5046,80.9367 85.5046,73.4167 L85.5046,61.3167 L97.5526,61.3167 L85.4626,37.0417 C85.4626,16.2297 68.2996,-0.5723 47.3556,0.0157 C33.0296,0.4167 19.9566,9.1587 13.8826,21.5547" id="Stroke-4" stroke="#5967AD" stroke-width="2" stroke-linecap="round" stroke-linejoin="round"></path>
                    <path d="M38.0009,32.5642 C35.4189,27.7822 37.2029,21.8122 41.9849,19.2302 C46.7679,16.6482 52.7379,18.4322 55.3199,23.2142 C57.9019,27.9972 56.1179,33.9662 51.3349,36.5482 C46.5529,39.1302 40.5829,37.3472 38.0009,32.5642 Z M54.1259,46.7632 C54.8629,46.4702 55.5929,46.1462 56.3079,45.7592 C57.0229,45.3742 57.6949,44.9422 58.3439,44.4862 L57.3529,39.8032 C57.9789,39.2432 58.5619,38.6472 59.0829,38.0072 L63.7969,38.7732 C64.6589,37.4132 65.3419,35.9572 65.8579,34.4442 L62.3149,31.2482 C62.4889,30.4382 62.5929,29.6142 62.6399,28.7832 L66.9129,26.6272 C66.8149,25.0462 66.5469,23.4652 66.0669,21.9132 L61.2929,21.4062 C61.1259,21.0292 60.9569,20.6522 60.7579,20.2832 C60.5589,19.9152 60.3359,19.5672 60.1129,19.2202 L62.3089,14.9502 C61.2749,13.6962 60.1019,12.6042 58.8339,11.6552 L54.6839,14.0462 C53.9629,13.6292 53.2179,13.2642 52.4449,12.9652 L51.7159,8.2432 C50.1689,7.8452 48.5789,7.6172 46.9699,7.5912 L45.0199,11.9602 C44.1989,12.0442 43.3809,12.2062 42.5699,12.4202 L39.1919,9.0162 C38.4559,9.3092 37.7269,9.6332 37.0129,10.0192 C36.2979,10.4052 35.6269,10.8362 34.9789,11.2922 L35.9719,15.9832 C35.3469,16.5432 34.7629,17.1392 34.2419,17.7792 L29.5199,17.0122 C28.6589,18.3722 27.9769,19.8262 27.4609,21.3372 L31.0089,24.5392 C30.8349,25.3482 30.7319,26.1722 30.6849,27.0032 L26.4089,29.1622 C26.5059,30.7412 26.7759,32.3222 27.2569,33.8742 L32.0319,34.3802 C32.1989,34.7572 32.3679,35.1342 32.5669,35.5032 C32.7659,35.8722 32.9889,36.2192 33.2119,36.5662 L31.0159,40.8352 C32.0509,42.0882 33.2259,43.1802 34.4939,44.1292 L38.6409,41.7402 C39.3609,42.1572 40.1069,42.5222 40.8799,42.8212 L41.6079,47.5362 C43.1559,47.9352 44.7479,48.1632 46.3579,48.1882 L48.3049,43.8262 C49.1259,43.7422 49.9429,43.5812 50.7549,43.3662 L54.1259,46.7632 Z" id="Fill-6" fill="#E5EFF7"></path>
                    <path d="M38.0009,32.5642 C35.4189,27.7822 37.2029,21.8122 41.9849,19.2302 C46.7679,16.6482 52.7379,18.4322 55.3199,23.2142 C57.9019,27.9972 56.1179,33.9662 51.3349,36.5482 C46.5529,39.1302 40.5829,37.3472 38.0009,32.5642 Z M54.1259,46.7632 C54.8629,46.4702 55.5929,46.1462 56.3079,45.7592 C57.0229,45.3742 57.6949,44.9422 58.3439,44.4862 L57.3529,39.8032 C57.9789,39.2432 58.5619,38.6472 59.0829,38.0072 L63.7969,38.7732 C64.6589,37.4132 65.3419,35.9572 65.8579,34.4442 L62.3149,31.2482 C62.4889,30.4382 62.5929,29.6142 62.6399,28.7832 L66.9129,26.6272 C66.8149,25.0462 66.5469,23.4652 66.0669,21.9132 L61.2929,21.4062 C61.1259,21.0292 60.9569,20.6522 60.7579,20.2832 C60.5589,19.9152 60.3359,19.5672 60.1129,19.2202 L62.3089,14.9502 C61.2749,13.6962 60.1019,12.6042 58.8339,11.6552 L54.6839,14.0462 C53.9629,13.6292 53.2179,13.2642 52.4449,12.9652 L51.7159,8.2432 C50.1689,7.8452 48.5789,7.6172 46.9699,7.5912 L45.0199,11.9602 C44.1989,12.0442 43.3809,12.2062 42.5699,12.4202 L39.1919,9.0162 C38.4559,9.3092 37.7269,9.6332 37.0129,10.0192 C36.2979,10.4052 35.6269,10.8362 34.9789,11.2922 L35.9719,15.9832 C35.3469,16.5432 34.7629,17.1392 34.2419,17.7792 L29.5199,17.0122 C28.6589,18.3722 27.9769,19.8262 27.4609,21.3372 L31.0089,24.5392 C30.8349,25.3482 30.7319,26.1722 30.6849,27.0032 L26.4089,29.1622 C26.5059,30.7412 26.7759,32.3222 27.2569,33.8742 L32.0319,34.3802 C32.1989,34.7572 32.3679,35.1342 32.5669,35.5032 C32.7659,35.8722 32.9889,36.2192 33.2119,36.5662 L31.0159,40.8352 C32.0509,42.0882 33.2259,43.1802 34.4939,44.1292 L38.6409,41.7402 C39.3609,42.1572 40.1069,42.5222 40.8799,42.8212 L41.6079,47.5362 C43.1559,47.9352 44.7479,48.1632 46.3579,48.1882 L48.3049,43.8262 C49.1259,43.7422 49.9429,43.5812 50.7549,43.3662 L54.1259,46.7632 Z" id="Stroke-8" stroke="#5967AD" stroke-width="2" stroke-linecap="round" stroke-linejoin="round"></path>
                    <path d="M8.328,46.2742 C6.286,43.0232 7.265,38.7332 10.515,36.6912 C13.765,34.6482 18.055,35.6282 20.098,38.8782 C22.14,42.1282 21.161,46.4182 17.911,48.4612 C14.661,50.5032 10.37,49.5242 8.328,46.2742 Z M20.353,55.5292 C20.859,55.2882 21.359,55.0252 21.845,54.7192 C22.33,54.4152 22.784,54.0792 23.22,53.7272 L22.303,50.4732 C22.718,50.0492 23.101,49.6022 23.438,49.1282 L26.797,49.4472 C27.341,48.4482 27.754,47.3902 28.048,46.3002 L25.402,44.2132 C25.487,43.6342 25.521,43.0482 25.516,42.4612 L28.426,40.7422 C28.284,39.6332 28.021,38.5312 27.611,37.4602 L24.223,37.3252 C24.087,37.0672 23.951,36.8092 23.793,36.5582 C23.636,36.3072 23.463,36.0732 23.289,35.8392 L24.638,32.7272 C23.851,31.8922 22.973,31.1772 22.036,30.5682 L19.223,32.4462 C18.695,32.1862 18.153,31.9632 17.594,31.7892 L16.86,28.4952 C15.751,28.2862 14.62,28.2002 13.485,28.2562 L12.315,31.4262 C11.74,31.5242 11.171,31.6752 10.609,31.8652 L8.07,29.6242 C7.565,29.8642 7.066,30.1272 6.581,30.4312 C6.096,30.7362 5.643,31.0722 5.207,31.4222 L6.125,34.6822 C5.711,35.1072 5.328,35.5532 4.99,36.0292 L1.626,35.7092 C1.083,36.7072 0.67,37.7632 0.377,38.8532 L3.027,40.9432 C2.942,41.5222 2.908,42.1072 2.913,42.6952 L0,44.4162 C0.142,45.5242 0.406,46.6262 0.817,47.6972 L4.206,47.8322 C4.342,48.0892 4.478,48.3472 4.635,48.5972 C4.793,48.8482 4.966,49.0832 5.14,49.3172 L3.791,52.4272 C4.579,53.2632 5.458,53.9772 6.395,54.5872 L9.206,52.7102 C9.734,52.9702 10.276,53.1932 10.835,53.3682 L11.568,56.6572 C12.677,56.8662 13.809,56.9522 14.945,56.8942 L16.114,53.7302 C16.689,53.6322 17.258,53.4812 17.82,53.2922 L20.353,55.5292 Z" id="Fill-10" fill="#E5EFF7"></path>
                    <path d="M8.328,46.2742 C6.286,43.0232 7.265,38.7332 10.515,36.6912 C13.765,34.6482 18.055,35.6282 20.098,38.8782 C22.14,42.1282 21.161,46.4182 17.911,48.4612 C14.661,50.5032 10.37,49.5242 8.328,46.2742 Z M20.353,55.5292 C20.859,55.2882 21.359,55.0252 21.845,54.7192 C22.33,54.4152 22.784,54.0792 23.22,53.7272 L22.303,50.4732 C22.718,50.0492 23.101,49.6022 23.438,49.1282 L26.797,49.4472 C27.341,48.4482 27.754,47.3902 28.048,46.3002 L25.402,44.2132 C25.487,43.6342 25.521,43.0482 25.516,42.4612 L28.426,40.7422 C28.284,39.6332 28.021,38.5312 27.611,37.4602 L24.223,37.3252 C24.087,37.0672 23.951,36.8092 23.793,36.5582 C23.636,36.3072 23.463,36.0732 23.289,35.8392 L24.638,32.7272 C23.851,31.8922 22.973,31.1772 22.036,30.5682 L19.223,32.4462 C18.695,32.1862 18.153,31.9632 17.594,31.7892 L16.86,28.4952 C15.751,28.2862 14.62,28.2002 13.485,28.2562 L12.315,31.4262 C11.74,31.5242 11.171,31.6752 10.609,31.8652 L8.07,29.6242 C7.565,29.8642 7.066,30.1272 6.581,30.4312 C6.096,30.7362 5.643,31.0722 5.207,31.4222 L6.125,34.6822 C5.711,35.1072 5.328,35.5532 4.99,36.0292 L1.626,35.7092 C1.083,36.7072 0.67,37.7632 0.377,38.8532 L3.027,40.9432 C2.942,41.5222 2.908,42.1072 2.913,42.6952 L0,44.4162 C0.142,45.5242 0.406,46.6262 0.817,47.6972 L4.206,47.8322 C4.342,48.0892 4.478,48.3472 4.635,48.5972 C4.793,48.8482 4.966,49.0832 5.14,49.3172 L3.791,52.4272 C4.579,53.2632 5.458,53.9772 6.395,54.5872 L9.206,52.7102 C9.734,52.9702 10.276,53.1932 10.835,53.3682 L11.568,56.6572 C12.677,56.8662 13.809,56.9522 14.945,56.8942 L16.114,53.7302 C16.689,53.6322 17.258,53.4812 17.82,53.2922 L20.353,55.5292 Z" id="Stroke-12" stroke="#5967AD" stroke-width="2" stroke-linecap="round" stroke-linejoin="round"></path>
                </g>
            </g>
        </g>
    </g>
</svg>