<?xml version="1.0" encoding="UTF-8"?>
<svg width="104px" height="108px" viewBox="0 0 104 108" version="1.1" xmlns="http://www.w3.org/2000/svg" xmlns:xlink="http://www.w3.org/1999/xlink">
    <!-- Generator: sketchtool 52.2 (67145) - http://www.bohemiancoding.com/sketch -->
    <title>E881B58E-07AB-41EB-A8AC-5F44AA4DE861</title>
    <desc>Created with sketchtool.</desc>
    <g id="Page-1" stroke="none" stroke-width="1" fill="none" fill-rule="evenodd">
        <g id="-g-скальпинг" transform="translate(-120.000000, -2390.000000)">
            <rect fill="#FFFFFF" x="0" y="0" width="1440" height="10518"></rect>
            <g id="Group-13" transform="translate(122.000000, 2398.000000)">
                <path d="M33.751,53.7981 C32.251,54.3911 30.588,54.7171 28.758,54.7171 C18.404,54.7171 12.987,43.8091 12.987,33.0321 C12.987,21.8901 17.89,10.6491 28.844,10.6491 C39.198,10.6491 44.615,21.6021 44.615,32.4201 C44.615,34.5691 44.417,36.7521 44.011,38.8681 M49.93,55.6361 C55.086,49.3131 57.517,40.6711 57.517,32.0701 C57.517,12.8881 46.13,0.0001 29.184,0.0001 C12.001,0.0001 0,13.6551 0,33.2081 C0,52.1431 11.651,65.3651 28.333,65.3651 C30.853,65.3651 33.199,65.1051 35.375,64.6151" id="Stroke-1" stroke="#5967AD" stroke-width="2" stroke-linecap="round" stroke-linejoin="round"></path>
                <path d="M85.501,64.1429 C93.537,61.8519 100,56.0249 100,46.0779 C100,34.5839 91.671,29.8209 83.525,26.6759 C74.753,23.2819 73.21,20.9669 73.21,17.3619 C73.21,14.3059 75.542,10.7369 82.112,10.7369 C86.663,10.7369 90.14,12.1129 92.257,13.2679 L94.573,14.5319 L98.105,4.0799 L96.512,3.1759 C94.418,1.9909 89.798,-0.0001 82.375,-0.0001 C69.833,-0.0001 61.073,7.4989 61.073,18.2379 C61.073,26.8249 66.653,32.9789 78.078,37.0289 C86.23,40.1629 87.775,42.8419 87.775,46.6899 C87.775,51.6069 83.989,54.5419 77.647,54.5419 C73.408,54.5419 68.737,53.2249 65.152,51.0189 L62.699,49.5089 L59.468,60.2309 L60.834,61.1419 C64.488,63.5769 71.186,65.2789 77.122,65.2789" id="Stroke-3" stroke="#5967AD" stroke-width="2" stroke-linecap="round" stroke-linejoin="round"></path>
                <path d="M45.1582,89.9446 L30.2472,20.2176 C30.0872,19.4696 30.5542,18.7326 31.2982,18.5566 L31.8932,18.4166 C32.6222,18.2446 33.3592,18.6746 33.5662,19.3946 L53.1822,87.5566 C53.3922,88.2866 52.9852,89.0496 52.2622,89.2826 L46.9622,90.9876 C46.1702,91.2426 45.3322,90.7576 45.1582,89.9446" id="Fill-5" fill="#E5EFF7"></path>
                <path d="M45.1582,89.9446 L30.2472,20.2176 C30.0872,19.4696 30.5542,18.7326 31.2982,18.5566 L31.8932,18.4166 C32.6222,18.2446 33.3592,18.6746 33.5662,19.3946 L53.1822,87.5566 C53.3922,88.2866 52.9852,89.0496 52.2622,89.2826 L46.9622,90.9876 C46.1702,91.2426 45.3322,90.7576 45.1582,89.9446 Z" id="Stroke-7" stroke="#5967AD" stroke-width="2" stroke-linecap="round" stroke-linejoin="round"></path>
                <path d="M18.9688,39.8177 L16.9258,27.3807 C16.8058,26.6527 17.2978,25.9657 18.0258,25.8437 L38.6688,22.4037 C39.3948,22.2827 40.0828,22.7717 40.2078,23.4977 L40.3838,24.5227 C40.5028,25.2177 40.0648,25.8927 39.3778,26.0507 C36.1158,26.8017 27.2468,29.7027 23.7698,39.4977 C23.6178,39.9257 23.2678,40.2587 22.8258,40.3657 L20.6028,40.9017 C19.8468,41.0847 19.0948,40.5857 18.9688,39.8177" id="Fill-9" fill="#E5EFF7"></path>
                <path d="M18.9688,39.8177 L16.9258,27.3807 C16.8058,26.6527 17.2978,25.9657 18.0258,25.8437 L38.6688,22.4037 C39.3948,22.2827 40.0828,22.7717 40.2078,23.4977 L40.3838,24.5227 C40.5028,25.2177 40.0648,25.8927 39.3778,26.0507 C36.1158,26.8017 27.2468,29.7027 23.7698,39.4977 C23.6178,39.9257 23.2678,40.2587 22.8258,40.3657 L20.6028,40.9017 C19.8468,41.0847 19.0948,40.5857 18.9688,39.8177 Z" id="Stroke-11" stroke="#5967AD" stroke-width="2" stroke-linecap="round" stroke-linejoin="round"></path>
            </g>
        </g>
    </g>
</svg>