<svg xmlns="http://www.w3.org/2000/svg" width="110" height="110" viewBox="0 0 110 110"><defs><style>.cls-1{fill:#fff;}</style></defs><title>Воротник - Акула Макси</title><g id="Воротник"><g id="Акула_Макси" data-name="Акула Макси"><g id="Цвет-5" data-name="Цвет"><path class="cls-1" d="M55,66.9a88.006,88.006,0,0,0,39.909-9.752L64.854,47.5c6.93-2.656,14.09-6.352,18.71-10.625A72.326,72.326,0,0,0,55,31.4a72.326,72.326,0,0,0-28.564,5.47c4.62,4.273,11.78,7.969,18.71,10.625L15.125,57.188A88.7,88.7,0,0,0,55,66.9Z"/><path class="cls-1" d="M55,31.4a71.972,71.972,0,0,1,28.8,5.624c6.76-5.2,9.621-11.411,9.706-18.34C83.643,13.156,69.462,11,55,11s-28.643,2.156-38.5,7.685c.085,6.929,2.945,13.139,9.706,18.34A71.972,71.972,0,0,1,55,31.4Z"/><path class="cls-1" d="M6.2,40.792C8.837,35.239,16.4,18.7,16.4,18.7,16.011,29.439,25.264,40.2,45.273,47.591L.5,61.795C2.188,53.433,4.1,45.219,6.2,40.792Z"/><path class="cls-1" d="M103.8,40.792C101.163,35.239,93.6,18.7,93.6,18.7c.387,10.735-8.866,21.492-28.875,28.886l44.773,14.2C107.812,53.433,105.9,45.219,103.8,40.792Z"/></g><g id="Контур-5" data-name="Контур"><path d="M22.408,51.813l-1.907.6a.5.5,0,0,0,.151.977.493.493,0,0,0,.151-.023l1.907-.6a.5.5,0,1,0-.3-.953Z"/><path d="M18.594,53.021l-1.907.6a.5.5,0,0,0,.151.977.493.493,0,0,0,.151-.023l1.907-.6a.5.5,0,1,0-.3-.953Z"/><path d="M33.848,48.189l-1.907.6a.5.5,0,0,0,.151.977.493.493,0,0,0,.151-.023l1.907-.6a.5.5,0,1,0-.3-.953Z"/><path d="M26.221,50.6l-1.907.6a.5.5,0,0,0,.151.977.493.493,0,0,0,.151-.023l1.907-.6a.5.5,0,0,0-.3-.953Z"/><path d="M37.661,46.981l-1.906.6a.5.5,0,0,0,.151.977.493.493,0,0,0,.151-.023l1.906-.6a.5.5,0,1,0-.3-.953Z"/><path d="M30.034,49.4l-1.907.6a.5.5,0,0,0,.151.977.493.493,0,0,0,.151-.023l1.907-.6a.5.5,0,0,0-.3-.953Z"/><path d="M10.968,55.436l-1.907.6a.5.5,0,0,0,.151.977.509.509,0,0,0,.151-.023l1.907-.6a.5.5,0,0,0-.3-.954Z"/><path d="M4.485,54.654a.513.513,0,0,0,.114.013.5.5,0,0,0,.486-.386c.151-.649.307-1.3.465-1.94A.5.5,0,1,0,4.58,52.1c-.159.647-.315,1.3-.468,1.952A.5.5,0,0,0,4.485,54.654Z"/><path d="M6.5,46.91a.51.51,0,0,0,.149.022.5.5,0,0,0,.478-.351c.2-.657.412-1.287.622-1.883a.5.5,0,0,0-.943-.332c-.214.606-.425,1.248-.634,1.917A.5.5,0,0,0,6.5,46.91Z"/><path d="M5.432,50.765a.517.517,0,0,0,.127.016.5.5,0,0,0,.483-.374c.171-.653.345-1.295.522-1.921a.5.5,0,0,0-.962-.272c-.179.632-.355,1.281-.528,1.94A.5.5,0,0,0,5.432,50.765Z"/><path d="M12.815,32.208a.5.5,0,0,0,.663-.246l.834-1.82a.5.5,0,0,0-.909-.416l-.834,1.819A.5.5,0,0,0,12.815,32.208Z"/><path d="M9.465,39.483a.493.493,0,0,0,.209.046.5.5,0,0,0,.454-.29l.84-1.819A.5.5,0,1,0,10.061,37l-.839,1.818A.5.5,0,0,0,9.465,39.483Z"/><path d="M4.262,55.629a.5.5,0,0,0-.6.378q-.221.99-.429,1.96a.5.5,0,0,0,.384.594.556.556,0,0,0,.105.011.5.5,0,0,0,.488-.4c.138-.642.28-1.294.427-1.95A.5.5,0,0,0,4.262,55.629Z"/><path d="M12.4,33.118a.5.5,0,0,0-.663.246L10.9,35.183a.5.5,0,1,0,.908.418l.836-1.82A.5.5,0,0,0,12.4,33.118Z"/><path d="M14.781,54.228l-1.907.6a.5.5,0,0,0,.151.977.493.493,0,0,0,.151-.023l1.907-.6a.5.5,0,1,0-.3-.953Z"/><path d="M15.735,25.838a.5.5,0,0,0-.663.246l-.834,1.82a.5.5,0,0,0,.909.417l.834-1.82A.5.5,0,0,0,15.735,25.838Z"/><path d="M7.154,56.644l-1.906.6a.5.5,0,0,0,.151.977A.512.512,0,0,0,5.55,58.2l1.906-.6a.5.5,0,1,0-.3-.953Z"/><path d="M9.284,41.058l-.453-.212-.493-.127-.418.887c-.129.272-.258.561-.386.865a.5.5,0,0,0,.267.655A.506.506,0,0,0,8,43.165a.5.5,0,0,0,.461-.306q.182-.434.368-.825Z"/><path d="M84.161,17.385q.962.3,1.883.618a.5.5,0,0,0,.33-.944q-.937-.327-1.918-.63a.5.5,0,0,0-.295.956Z"/><path d="M87.9,18.7q.936.374,1.815.777a.506.506,0,0,0,.209.045.5.5,0,0,0,.209-.955q-.9-.414-1.862-.8a.5.5,0,1,0-.371.929Z"/><path d="M80.332,16.341q.977.236,1.924.492a.488.488,0,0,0,.131.018.5.5,0,0,0,.131-.982q-.958-.261-1.951-.5a.5.5,0,1,0-.234.972Z"/><path d="M21.232,18.947a.5.5,0,0,0,.192-.038q.9-.371,1.843-.716a.5.5,0,1,0-.342-.939q-.968.352-1.885.731a.5.5,0,0,0,.192.962Z"/><path d="M76.444,15.515q.987.185,1.95.389a.506.506,0,0,0,.1.011.5.5,0,0,0,.1-.989q-.974-.206-1.974-.393a.5.5,0,1,0-.184.982Z"/><path d="M17.192,20.421a.5.5,0,0,0,.68.193q.839-.467,1.749-.9a.5.5,0,0,0-.432-.9q-.937.449-1.8.932A.5.5,0,0,0,17.192,20.421Z"/><path d="M24.99,17.578a.489.489,0,0,0,.152-.024q.929-.3,1.9-.569a.5.5,0,0,0-.271-.963q-.986.278-1.932.58a.5.5,0,0,0,.152.976Z"/><path d="M72.518,14.871q.993.141,1.967.3a.516.516,0,0,0,.082.006.5.5,0,0,0,.08-.994q-.984-.161-1.988-.3a.5.5,0,1,0-.141.99Z"/><path d="M56.636,13.711q1,.012,1.992.038h.013a.5.5,0,0,0,.013-1q-1-.026-2.006-.038h-.006a.5.5,0,0,0-.006,1Z"/><path d="M64.6,14.036q1,.071,1.986.157l.044,0a.5.5,0,0,0,.042-1q-.995-.087-2-.158a.51.51,0,0,0-.534.463A.5.5,0,0,0,64.6,14.036Z"/><path d="M52.639,13.719h.008q1-.015,2-.018a.5.5,0,0,0,0-1h0q-1.006,0-2.009.018a.5.5,0,0,0,.008,1Z"/><path d="M68.566,14.384q1,.1,1.978.225a.457.457,0,0,0,.063,0,.5.5,0,0,0,.061-1c-.66-.082-1.327-.157-2-.227a.5.5,0,1,0-.1.994Z"/><path d="M60.618,13.814q1,.041,1.99.1h.027a.5.5,0,0,0,.027-1q-1-.056-2-.1a.493.493,0,0,0-.521.479A.5.5,0,0,0,60.618,13.814Z"/><path d="M32.745,15.63a.493.493,0,0,0,.1-.009q.967-.187,1.957-.355a.5.5,0,1,0-.167-.986q-1,.171-1.98.36a.5.5,0,0,0,.095.991Z"/><path d="M36.689,14.958a.541.541,0,0,0,.074-.005q.978-.145,1.972-.272a.5.5,0,0,0-.127-.992q-1,.129-1.992.275a.5.5,0,0,0,.073.995Z"/><path d="M40.657,14.447l.055,0q.984-.109,1.982-.2a.5.5,0,0,0-.092-1q-1.006.093-2,.2a.5.5,0,0,0,.054,1Z"/><path d="M44.641,14.079h.039q.988-.075,1.987-.135a.5.5,0,0,0-.06-1q-1.007.06-2,.136a.5.5,0,0,0,.038,1Z"/><path d="M48.634,13.839h.022q.994-.044,2-.074a.5.5,0,0,0,.485-.515.515.515,0,0,0-.515-.485q-1.007.031-2.009.075a.5.5,0,0,0,.021,1Z"/><path d="M28.839,16.491a.52.52,0,0,0,.122-.015q.951-.237,1.934-.453a.5.5,0,0,0-.215-.977q-1,.219-1.961.459a.5.5,0,0,0,.121.985Z"/><path d="M44.534,30.4a.445.445,0,0,0,.062,0q.982-.122,1.976-.222a.5.5,0,0,0,.448-.547.509.509,0,0,0-.547-.448q-1.006.1-2,.225a.5.5,0,0,0,.061,1Z"/><path d="M68.371,30.844q.986.16,1.958.342a.542.542,0,0,0,.093.008.5.5,0,0,0,.091-.992q-.983-.183-1.981-.346a.5.5,0,0,0-.16.987Z"/><path d="M72.28,31.574q.98.207,1.939.435a.489.489,0,0,0,.115.014.5.5,0,0,0,.115-.986q-.971-.231-1.963-.441a.5.5,0,1,0-.207.979Z"/><path d="M48.514,30h.039q.987-.075,1.985-.128a.5.5,0,0,0,.473-.526.494.494,0,0,0-.526-.473q-1.008.054-2.007.13a.5.5,0,0,0,.038,1Z"/><path d="M30.7,32.3q-.975.3-1.919.612a.5.5,0,1,0,.316.948q.932-.311,1.894-.6A.5.5,0,1,0,30.7,32.3Z"/><path d="M36.653,31.76a.52.52,0,0,0,.109-.012q.962-.215,1.946-.408a.5.5,0,0,0-.193-.981q-.995.2-1.969.413a.5.5,0,0,0,.108.988Z"/><path d="M76.146,32.492q.971.256,1.916.532a.5.5,0,1,0,.279-.96q-.957-.279-1.939-.539a.5.5,0,0,0-.256.967Z"/><path d="M34.584,31.232q-.986.245-1.947.509a.5.5,0,1,0,.265.964q.949-.26,1.923-.5a.5.5,0,1,0-.241-.971Z"/><path d="M26.884,33.578q-.962.352-1.882.723a.5.5,0,1,0,.373.928q.907-.365,1.853-.711a.5.5,0,1,0-.344-.939Z"/><path d="M79.962,33.606q.958.308,1.882.634a.5.5,0,1,0,.332-.943q-.936-.33-1.909-.643a.5.5,0,1,0-.3.952Z"/><path d="M40.577,30.986a.509.509,0,0,0,.085-.007q.973-.168,1.963-.314a.5.5,0,1,0-.146-.989q-1,.148-1.987.318a.5.5,0,0,0,.084.993Z"/><path d="M52.509,29.787h.015q.991-.029,1.989-.034a.5.5,0,0,0,0-1h0q-1.009.005-2.012.034a.5.5,0,0,0,.014,1Z"/><path d="M56.5,29.768q1,.019,1.987.062h.021a.5.5,0,0,0,.021-1q-1-.043-2.011-.063h-.01a.5.5,0,0,0-.01,1Z"/><path d="M60.472,29.94q.995.066,1.981.156l.046,0a.5.5,0,0,0,.044-1q-1-.091-2-.158a.515.515,0,0,0-.532.466A.5.5,0,0,0,60.472,29.94Z"/><path d="M64.432,30.3q.995.114,1.974.249a.473.473,0,0,0,.069,0,.5.5,0,0,0,.067-1q-.992-.137-2-.252a.5.5,0,1,0-.113.993Z"/><path d="M54.92,60.938a3.8,3.8,0,0,0,3.752-3.3h1.2a.5.5,0,1,0,0-1h-1.2a3.782,3.782,0,0,0-7.5,0h-1.2a.5.5,0,0,0,0,1h1.2A3.8,3.8,0,0,0,54.92,60.938Zm0-6.6a2.8,2.8,0,1,1-2.8,2.8A2.8,2.8,0,0,1,54.92,54.335Z"/><path d="M54.92,59.288a.5.5,0,0,0,0-1,1.151,1.151,0,1,1,1.151-1.151.5.5,0,0,0,1,0,2.151,2.151,0,1,0-2.151,2.151Z"/><path d="M34.527,61.971q-.965-.245-1.927-.506a.5.5,0,1,0-.262.965q.97.264,1.944.51a.486.486,0,0,0,.123.016.5.5,0,0,0,.122-.984Z"/><path d="M42.315,63.6q-.97-.16-1.959-.345a.5.5,0,1,0-.184.982q1,.188,1.981.349a.467.467,0,0,0,.082.007.5.5,0,0,0,.081-.993Z"/><path d="M38.405,62.869q-.968-.2-1.943-.431a.5.5,0,1,0-.226.975q.984.229,1.963.435a.536.536,0,0,0,.1.011.5.5,0,0,0,.1-.989Z"/><path d="M30.684,60.923q-.959-.281-1.906-.578a.5.5,0,0,0-.3.955q.955.3,1.924.582a.5.5,0,1,0,.281-.959Z"/><path d="M23.139,58.389q-.943-.362-1.848-.735a.5.5,0,0,0-.38.926q.914.375,1.87.743a.5.5,0,1,0,.358-.934Z"/><path d="M26.884,59.732q-.952-.319-1.881-.651a.5.5,0,1,0-.336.941q.936.334,1.9.657a.475.475,0,0,0,.159.026.5.5,0,0,0,.159-.974Z"/><path d="M76.88,61.4c-.637.174-1.279.342-1.923.5a.5.5,0,0,0,.121.985.513.513,0,0,0,.121-.015q.977-.245,1.944-.509a.5.5,0,1,0-.264-.965Z"/><path d="M69.123,63.177q-.98.183-1.961.345a.5.5,0,0,0,.08.993.465.465,0,0,0,.082-.007q.99-.161,1.982-.349a.5.5,0,0,0-.184-.982Z"/><path d="M73.02,62.364q-.97.223-1.944.427a.5.5,0,0,0,.1.989.466.466,0,0,0,.1-.011q.984-.207,1.964-.431a.5.5,0,0,0-.225-.975Z"/><path d="M53.311,64.583q-1-.021-1.986-.065a.483.483,0,0,0-.522.477.5.5,0,0,0,.477.521q1,.047,2.012.067h.01a.5.5,0,0,0,.01-1Z"/><path d="M65.194,63.823q-.989.142-1.972.259a.5.5,0,0,0,.058,1,.407.407,0,0,0,.06,0q.995-.117,2-.261a.5.5,0,0,0,.425-.565A.507.507,0,0,0,65.194,63.823Z"/><path d="M57.281,64.555q-1,.038-1.985.045a.5.5,0,0,0,0,1h0q1-.007,2.015-.045a.5.5,0,0,0,.481-.519A.506.506,0,0,0,57.281,64.555Z"/><path d="M64.619,49.353a.5.5,0,0,0-.5-.5h-2a.5.5,0,0,0,0,1h2A.5.5,0,0,0,64.619,49.353Z"/><path d="M61.245,64.291q-1,.094-1.981.159a.5.5,0,0,0,.033,1h.033q1-.066,2.009-.161a.5.5,0,0,0-.094-1Z"/><path d="M49.34,64.4l-.789-.058v-.281a.5.5,0,0,0-1,0v.743a.5.5,0,0,0,.46.5q.628.051,1.258.1h.036a.5.5,0,0,0,.035-1Z"/><path d="M58.119,49.853h2a.5.5,0,1,0,0-1h-2a.5.5,0,0,0,0,1Z"/><path d="M84.466,58.99q-.924.338-1.877.662a.5.5,0,0,0,.161.974.511.511,0,0,0,.161-.026q.964-.33,1.9-.67a.5.5,0,1,0-.344-.939Z"/><path d="M80.7,60.273q-.942.3-1.9.581a.5.5,0,0,0,.142.979.512.512,0,0,0,.142-.021q.97-.286,1.924-.587a.5.5,0,1,0-.3-.953Z"/><path d="M88.167,57.536q-.9.382-1.842.75a.5.5,0,0,0,.365.932q.951-.374,1.865-.76a.5.5,0,1,0-.389-.922Z"/><path d="M48.156,54.568a.5.5,0,0,0,.616-.347,5.95,5.95,0,0,1,.763-1.672A.5.5,0,1,0,48.7,52a6.935,6.935,0,0,0-.891,1.953A.5.5,0,0,0,48.156,54.568Z"/><path d="M48.052,58.564a.5.5,0,0,0,.5-.5v-2a.5.5,0,0,0-1,0v2A.5.5,0,0,0,48.052,58.564Z"/><path d="M50.454,51.3a.5.5,0,0,0,.314-.112,5.957,5.957,0,0,1,1.588-.925.5.5,0,1,0-.364-.932,6.957,6.957,0,0,0-1.854,1.081.5.5,0,0,0,.315.888Z"/><path d="M48.051,62.564a.5.5,0,0,0,.5-.5v-2a.5.5,0,0,0-1,0v2A.5.5,0,0,0,48.051,62.564Z"/><path d="M54.119,49.866h.032c.128-.008.257-.012.385-.013h1.583a.5.5,0,1,0,0-1H54.534c-.149,0-.3.005-.446.015a.5.5,0,0,0,.031,1Z"/><path d="M104.248,40.578c-2.6-5.486-10.116-21.916-10.191-22.081a.5.5,0,0,0-.466-.285C85.7,13.31,71.624,10.5,54.921,10.5c-16.784,0-30.922,2.836-38.79,7.781-.012.008-.019.02-.03.029a.489.489,0,0,0-.087.083,212.34,212.34,0,0,0-.071.1c-.076.166-7.59,16.6-10.191,22.081C3.471,45.389,1.485,54.391.01,61.7a.5.5,0,0,0,.642.575l14.326-4.545a.467.467,0,0,0,.051.04,88.7,88.7,0,0,0,39.883,9.687A88.681,88.681,0,0,0,94.928,57.7l14.421,4.575a.5.5,0,0,0,.151.023.5.5,0,0,0,.49-.6C108.516,54.391,106.529,45.389,104.248,40.578ZM93.1,19.084q.008.521-.015,1.039c-.375-.222-.742-.447-1.139-.659a.5.5,0,1,0-.471.883c.532.283,1.038.581,1.525.882-.517,4.751-2.992,9.31-7.219,13.465-.562-.237-1.133-.47-1.717-.7a.5.5,0,0,0-.361.933c.439.17.862.347,1.288.523-.36.332-.733.661-1.115.988A79.163,79.163,0,0,0,26.071,36.4c-6.094-5.229-9.3-11.183-9.176-17.405C24.652,14.231,38.479,11.5,54.921,11.5,71.471,11.5,85.376,14.264,93.1,19.084ZM64.822,47.019a.477.477,0,0,0-.1-.019H45.272a.474.474,0,0,0-.095.019,65.126,65.126,0,0,1-18.224-9.886A78.13,78.13,0,0,1,83,37.172,65.226,65.226,0,0,1,64.822,47.019ZM6.656,41.006c2.062-4.35,7.206-15.563,9.294-20.123a18.54,18.54,0,0,0,.4,2.463.475.475,0,0,0-.05.069l-.39.849a.5.5,0,0,0,.454.708.488.488,0,0,0,.35-.172c2.521,8.251,10.76,15.723,23.618,21.335l-.761.241a.5.5,0,0,0,.151.977.493.493,0,0,0,.151-.023l1.885-.6c.66.274,1.313.551,2,.816L1.159,61.062C2.508,54.447,4.488,45.578,6.656,41.006ZM17.365,56.969a.482.482,0,0,0,.084.064q.779.378,1.61.748a.489.489,0,0,0,.2.044.5.5,0,0,0,.2-.956c-.248-.111-.482-.225-.724-.337l21.327-6.766a.486.486,0,0,0,.264.086h.645a.5.5,0,0,0,.5-.5c0-.011-.006-.02-.006-.031l1.273-.4a.494.494,0,0,0-.267.435.5.5,0,0,0,.5.5h2a.5.5,0,0,0,0-1h-2a.474.474,0,0,0-.077.016l2.524-.8c.039-.012.061-.047.095-.067h4.949a8.856,8.856,0,0,0-1.361.879.483.483,0,0,0-.129-.026h-2a.5.5,0,0,0,0,1h1.074A8.793,8.793,0,0,0,45.7,55.837v8.236c-.469-.054-.937-.107-1.418-.172a.492.492,0,0,0-.563.428.5.5,0,0,0,.428.563c.526.072,1.041.131,1.553.189v.852A88.6,88.6,0,0,1,16.34,57.294Zm37.547,9.484c-2.734,0-5.477-.144-8.215-.416l0-.011V55.837A7.846,7.846,0,0,1,54.536,48H64.48c.034.021.056.055.095.067l2.475.785h-.931a.5.5,0,0,0,0,1h2a.5.5,0,0,0,.5-.5v0l22.135,7.022c-.257.122-.505.245-.768.365a.5.5,0,0,0,.208.955.509.509,0,0,0,.208-.045c.6-.274,1.18-.552,1.749-.832l1.4.445A87.574,87.574,0,0,1,54.912,66.453Zm40.228-9.739a.491.491,0,0,0-.166-.053L66.25,47.549c.683-.264,1.336-.542,2-.816l1.884.6a.5.5,0,0,0,.3-.953l-.761-.241C82.531,40.524,90.77,33.051,93.29,24.8a.487.487,0,0,0,.35.172.5.5,0,0,0,.454-.708l-.39-.849a.47.47,0,0,0-.051-.069,18.54,18.54,0,0,0,.4-2.462c2.089,4.56,7.233,15.773,9.295,20.123,2.169,4.572,4.148,13.44,5.5,20.055Z"/><path d="M93.312,53.625l-1.906-.6a.5.5,0,0,0-.3.953l1.906.6a.5.5,0,0,0,.3-.953Z"/><path d="M105.357,56.226q.221.986.428,1.951a.5.5,0,0,0,.489.395.56.56,0,0,0,.105-.011.5.5,0,0,0,.384-.595c-.14-.645-.282-1.3-.43-1.959a.5.5,0,0,0-.977.219Z"/><path d="M104.753,57.248l-1.907-.6a.5.5,0,1,0-.3.953l1.907.6a.514.514,0,0,0,.151.023.5.5,0,0,0,.151-.977Z"/><path d="M102.466,42.469c-.129-.3-.258-.593-.387-.863l-.457-.973a.5.5,0,1,0-.906.422l.46.98c.124.258.247.533.368.822a.5.5,0,1,0,.922-.389Z"/><path d="M100.939,56.04l-1.907-.6a.5.5,0,0,0-.3.954l1.907.6a.514.514,0,0,0,.151.023.5.5,0,0,0,.151-.977Z"/><path d="M98.856,35.845a.5.5,0,0,0,.245-.663l-.836-1.819a.5.5,0,1,0-.908.417l.836,1.82a.5.5,0,0,0,.663.245Z"/><path d="M102.555,44.06a.5.5,0,0,0-.306.638c.21.6.417,1.226.621,1.882a.5.5,0,0,0,.478.352.51.51,0,0,0,.148-.022.5.5,0,0,0,.329-.626c-.208-.669-.419-1.311-.633-1.917A.5.5,0,0,0,102.555,44.06Z"/><path d="M104.448,52.34c.158.643.313,1.292.465,1.94a.5.5,0,0,0,.487.386.52.52,0,0,0,.114-.013.5.5,0,0,0,.373-.6c-.153-.653-.309-1.305-.469-1.952a.493.493,0,0,0-.605-.366A.5.5,0,0,0,104.448,52.34Z"/><path d="M103.435,48.487c.179.625.353,1.268.523,1.92a.5.5,0,0,0,.483.374.52.52,0,0,0,.127-.016.5.5,0,0,0,.356-.61c-.173-.66-.349-1.309-.529-1.941a.5.5,0,1,0-.961.274Z"/><path d="M74.246,47.585l-1.906-.6a.5.5,0,0,0-.3.953l1.906.6a.5.5,0,0,0,.3-.953Z"/><path d="M81.873,50l-1.907-.6a.5.5,0,0,0-.3.953l1.907.6a.5.5,0,0,0,.3-.953Z"/><path d="M89.5,52.417l-1.906-.6a.5.5,0,0,0-.3.953l1.906.6a.5.5,0,0,0,.3-.953Z"/><path d="M97.126,54.832l-1.906-.6a.5.5,0,0,0-.3.953l1.906.6a.5.5,0,0,0,.3-.953Z"/><path d="M78.06,48.793l-1.906-.6a.5.5,0,0,0-.3.953l1.906.6a.5.5,0,0,0,.3-.953Z"/><path d="M85.687,51.208l-1.907-.6a.5.5,0,0,0-.3.953l1.907.6a.5.5,0,0,0,.3-.953Z"/><path d="M99.03,37.419l.841,1.819a.5.5,0,0,0,.453.29.493.493,0,0,0,.21-.046.5.5,0,0,0,.243-.664L99.938,37a.5.5,0,0,0-.908.418Z"/><path d="M95.308,28.613a.5.5,0,0,0,.455-.708l-.835-1.821a.5.5,0,1,0-.908.417l.833,1.82A.5.5,0,0,0,95.308,28.613Z"/><path d="M95.687,30.141l.835,1.82a.5.5,0,0,0,.454.292.506.506,0,0,0,.209-.045.5.5,0,0,0,.245-.663l-.835-1.82a.5.5,0,1,0-.908.417Z"/></g></g></g></svg>