<svg xmlns="http://www.w3.org/2000/svg" width="110" height="110" viewBox="0 0 110 110"><defs><style>.cls-1{fill:#fff;}</style></defs><title>Воротник - Под булавку</title><g id="Воротник"><g id="Под_булавку" data-name="Под булавку"><g id="Цвет-10" data-name="Цвет"><path class="cls-1" d="M55.1,71.5a82.6,82.6,0,0,0,13.672-1.08c-.045-7.3-.9-14.072-3.194-19.92,8.371-3.065,15.485-6.794,20.751-11.5A82.769,82.769,0,0,0,55.1,33.08,82.769,82.769,0,0,0,23.875,39c5.265,4.706,12.38,8.435,20.751,11.5-2.835,5.155-3.593,12.132-3.393,19.948A84.868,84.868,0,0,0,55.1,71.5Z"/><path class="cls-1" d="M.5,51.5a19.253,19.253,0,0,1,1.824-8.339l11-23.843C12.911,30.906,22.9,42.518,44.5,50.5c-6.75,13.25,0,40.25-9,55.75,0,0-22.91-31.287-30.5-41.75A22.323,22.323,0,0,1,.5,51.5Z"/><path class="cls-1" d="M55,33.08a77.9,77.9,0,0,1,31.167,6.087c7.317-5.629,10.413-12.351,10.5-19.849C86,13.333,70.652,11,55,11s-31,2.333-41.671,8.317c.092,7.5,3.188,14.22,10.5,19.849A77.9,77.9,0,0,1,55,33.08Z"/><path class="cls-1" d="M109.5,51.5a19.253,19.253,0,0,0-1.824-8.339l-11-23.843C97.088,30.906,87.1,42.518,65.5,50.5c6.75,13.25,0,40.25,9,55.75,0,0,22.91-31.287,30.5-41.75A22.323,22.323,0,0,0,109.5,51.5Z"/><polygon class="cls-1" points="69.438 84.5 40.563 84.5 40.75 82.5 69.25 82.5 69.438 84.5"/><circle class="cls-1" cx="34.5" cy="83.5" r="2.5"/><circle class="cls-1" cx="75.5" cy="83.5" r="2.5"/></g><g id="Слой_308" data-name="Слой 308"><path d="M39.812,14.649a.482.482,0,0,0,.054,0q.984-.1,1.983-.2a.5.5,0,0,0-.092-1c-.67.062-1.337.127-2,.2a.5.5,0,0,0,.052,1Z"/><path d="M47.789,14.041h.023c.663-.031,1.326-.058,1.993-.08a.5.5,0,0,0,.483-.516.471.471,0,0,0-.517-.483q-1.006.034-2.007.08a.5.5,0,0,0,.023,1Z"/><path d="M55.793,13.878q1,.007,1.993.024h.009a.5.5,0,0,0,.009-1q-1-.018-2-.024h0a.5.5,0,0,0,0,1Z"/><path d="M51.792,13.907h.01q1-.019,2-.027a.5.5,0,0,0,0-1h0q-1.006.007-2.009.027a.5.5,0,0,0,.01,1Z"/><path d="M43.8,14.286h.039q.99-.075,1.988-.136a.5.5,0,1,0-.061-1q-1.006.062-2,.137a.5.5,0,0,0,.037,1Z"/><path d="M20.3,18.851a.5.5,0,0,0,.174-.031q.914-.338,1.87-.651a.5.5,0,1,0-.311-.95q-.976.319-1.907.664a.5.5,0,0,0,.174.969Z"/><path d="M35.842,15.144a.5.5,0,0,0,.071,0q.979-.139,1.974-.264a.5.5,0,0,0,.435-.558.506.506,0,0,0-.558-.434q-1,.125-1.991.266a.5.5,0,0,0,.069,1Z"/><path d="M16.617,20.4a.5.5,0,0,0,.215-.049q.875-.417,1.8-.8a.5.5,0,0,0-.387-.923q-.951.4-1.848.825a.5.5,0,0,0,.215.951Z"/><path d="M24.105,17.6a.493.493,0,0,0,.14-.02q.94-.274,1.915-.527a.5.5,0,1,0-.252-.968q-.989.256-1.942.535a.5.5,0,0,0,.14.98Z"/><path d="M31.894,15.786a.476.476,0,0,0,.091-.008q.97-.178,1.961-.338a.5.5,0,0,0-.16-.987q-1,.163-1.98.342a.5.5,0,0,0,.089.992Z"/><path d="M27.976,16.6a.5.5,0,0,0,.113-.013q.958-.223,1.941-.425a.5.5,0,0,0,.389-.591.506.506,0,0,0-.59-.389q-1,.206-1.967.43a.5.5,0,0,0,.113.987Z"/><path d="M59.776,13.953q1,.032,1.989.077h.022a.5.5,0,0,0,.022-1q-1-.045-2-.077a.5.5,0,1,0-.031,1Z"/><path d="M75.638,15.4q.992.158,1.962.334a.508.508,0,0,0,.09.008.5.5,0,0,0,.088-.992q-.98-.177-1.981-.337a.494.494,0,0,0-.573.415A.5.5,0,0,0,75.638,15.4Z"/><path d="M71.694,14.845q1,.122,1.975.259a.486.486,0,0,0,.07,0,.5.5,0,0,0,.068-1q-.987-.138-1.992-.261a.5.5,0,0,0-.557.436A.5.5,0,0,0,71.694,14.845Z"/><path d="M79.555,16.108q.984.2,1.943.418a.487.487,0,0,0,.111.013.5.5,0,0,0,.111-.987q-.97-.222-1.967-.424a.5.5,0,0,0-.2.98Z"/><path d="M87.243,18.092q.959.309,1.875.642a.5.5,0,0,0,.342-.939q-.933-.34-1.91-.654a.5.5,0,0,0-.307.952Z"/><path d="M67.731,14.428q1,.089,1.983.192l.054,0a.5.5,0,0,0,.052-1q-.993-.1-2-.194a.512.512,0,0,0-.542.454A.5.5,0,0,0,67.731,14.428Z"/><path d="M83.43,16.994q.974.25,1.916.52a.5.5,0,1,0,.275-.961q-.954-.275-1.943-.528a.5.5,0,0,0-.248.969Z"/><path d="M90.965,19.448q.932.384,1.81.794a.5.5,0,0,0,.212.047.5.5,0,0,0,.212-.953q-.9-.421-1.853-.814a.5.5,0,0,0-.381.925Z"/><path d="M63.757,14.133q1,.059,1.988.132h.038a.5.5,0,0,0,.036-1q-1-.074-2-.133a.5.5,0,1,0-.059,1Z"/><path d="M82.409,35.512q.957.313,1.881.644a.5.5,0,0,0,.168.029.5.5,0,0,0,.168-.971q-.936-.335-1.9-.653a.5.5,0,0,0-.312.95Z"/><path d="M78.6,34.368q.968.264,1.91.548a.5.5,0,0,0,.287-.958q-.954-.286-1.934-.555a.5.5,0,0,0-.264.965Z"/><path d="M47.022,31.551l.044,0q.99-.086,1.986-.152a.5.5,0,0,0,.466-.532.508.508,0,0,0-.532-.466q-1.006.067-2.006.154a.5.5,0,0,0,.042,1Z"/><path d="M23.684,36.813a.494.494,0,0,0,.18-.034q.914-.352,1.862-.69a.5.5,0,0,0-.334-.942q-.962.341-1.888.7a.5.5,0,0,0,.18.966Z"/><path d="M55.019,31.2q1,0,1.989.025h.012a.5.5,0,0,0,.012-1q-1-.023-2.011-.025h0a.5.5,0,0,0,0,1Z"/><path d="M58.993,31.3q1,.046,1.985.113h.035a.5.5,0,0,0,.033-1q-1-.067-2.007-.114a.51.51,0,0,0-.522.477A.5.5,0,0,0,58.993,31.3Z"/><path d="M62.96,31.567q1,.089,1.979.2l.057,0a.5.5,0,0,0,.055-1q-.995-.111-2-.2a.5.5,0,0,0-.09,1Z"/><path d="M43.045,31.987a.506.506,0,0,0,.066,0q.981-.129,1.976-.238a.5.5,0,0,0-.109-.994q-1,.11-2,.241a.5.5,0,0,0,.064,1Z"/><path d="M51.018,31.29h.022q.99-.044,1.988-.065a.5.5,0,0,0,.489-.511.468.468,0,0,0-.511-.489Q52,30.245,51,30.29a.5.5,0,0,0,.022,1Z"/><path d="M70.844,32.622q.984.176,1.954.371a.492.492,0,0,0,.1.01.5.5,0,0,0,.1-.99q-.98-.2-1.976-.375a.5.5,0,0,0-.176.984Z"/><path d="M35.17,33.375a.519.519,0,0,0,.108-.012q.964-.215,1.946-.41a.5.5,0,0,0-.2-.98q-.993.2-1.968.414a.5.5,0,0,0,.108.988Z"/><path d="M39.092,32.595a.534.534,0,0,0,.088-.007q.973-.171,1.963-.324a.5.5,0,1,0-.152-.988q-1,.154-1.984.327a.5.5,0,0,0,.086.993Z"/><path d="M74.744,33.407q.976.219,1.934.458a.52.52,0,0,0,.121.015.5.5,0,0,0,.121-.985q-.968-.241-1.957-.463a.5.5,0,1,0-.219.976Z"/><path d="M27.453,35.475a.5.5,0,0,0,.154-.024q.935-.3,1.9-.591a.5.5,0,1,0-.285-.958q-.974.29-1.921.6a.5.5,0,0,0,.154.976Z"/><path d="M31.287,34.333a.488.488,0,0,0,.131-.018q.949-.258,1.925-.5a.5.5,0,0,0,.365-.6.492.492,0,0,0-.605-.366q-.986.243-1.946.5a.5.5,0,0,0,.131.982Z"/><path d="M66.913,32.009q.993.133,1.97.285a.526.526,0,0,0,.078.006.5.5,0,0,0,.076-.994q-.989-.154-1.991-.288a.5.5,0,0,0-.133.991Z"/><path d="M60.262,61.4a.5.5,0,0,0,0-1H58.929a4.042,4.042,0,0,0-8.028,0H49.568a.5.5,0,0,0,0,1H50.9a4.042,4.042,0,0,0,8.028,0Zm-5.347,2.564A3.064,3.064,0,1,1,57.979,60.9,3.068,3.068,0,0,1,54.915,63.968Z"/><path d="M54.915,58.621a2.282,2.282,0,0,0,0,4.564.5.5,0,0,0,0-1A1.282,1.282,0,1,1,56.2,60.9a.5.5,0,0,0,1,0A2.284,2.284,0,0,0,54.915,58.621Z"/><path d="M47.5,62.955a.5.5,0,0,0,.5-.5v-2a.5.5,0,0,0-1,0v2A.5.5,0,0,0,47.5,62.955Z"/><path d="M49.239,55.382a.5.5,0,0,0,.376-.17,6.5,6.5,0,0,1,1.405-1.2.5.5,0,0,0-.535-.845,7.518,7.518,0,0,0-1.622,1.388.5.5,0,0,0,.376.83Z"/><path d="M60.545,53h2a.5.5,0,1,0,0-1h-2a.5.5,0,0,0,0,1Z"/><path d="M56.545,53h2a.5.5,0,1,0,0-1h-2a.5.5,0,0,0,0,1Z"/><path d="M52.571,53.269a.52.52,0,0,0,.138-.019A6.593,6.593,0,0,1,54.545,53a.481.481,0,0,0,.478-.5A.519.519,0,0,0,54.5,52a7.534,7.534,0,0,0-2.066.288.5.5,0,0,0,.138.981Z"/><path d="M47.5,58.954a.488.488,0,0,0,.075.006.5.5,0,0,0,.493-.426,6.491,6.491,0,0,1,.532-1.771.5.5,0,0,0-.906-.422,7.427,7.427,0,0,0-.614,2.045A.5.5,0,0,0,47.5,58.954Z"/><path d="M64.688,68.459q-.987.11-1.979.2a.5.5,0,0,0,.043,1l.045,0q1-.088,2-.2a.5.5,0,0,0,.442-.552A.51.51,0,0,0,64.688,68.459Z"/><path d="M47.5,66.955a.5.5,0,0,0,.5-.5v-2a.5.5,0,1,0-1,0v2A.5.5,0,0,0,47.5,66.955Z"/><path d="M60.725,68.808q-.99.066-1.986.11a.5.5,0,0,0,.022,1h.022q1.006-.045,2.008-.11a.5.5,0,0,0-.066-1Z"/><path d="M56.752,68.98q-.917.019-1.837.02h-.152a.5.5,0,0,0,0,1h.152q.93,0,1.858-.02a.5.5,0,0,0,.489-.511A.48.48,0,0,0,56.752,68.98Z"/><path d="M48.8,68.782q-.4-.028-.8-.06v-.268a.5.5,0,0,0-1,0v.729a.5.5,0,0,0,.457.5q.636.054,1.276.1h.035a.5.5,0,0,0,.033-1Z"/><path d="M52.775,68.973q-1-.025-1.986-.073a.472.472,0,0,0-.524.474.5.5,0,0,0,.474.524q1,.051,2.012.075h.013a.5.5,0,0,0,.013-1Z"/><path d="M9.49,65.729a.5.5,0,1,0-.807.592l1.183,1.616a.5.5,0,1,0,.807-.59Z"/><path d="M2.938,53.685c-.163-.64-.3-1.284-.4-1.914a.5.5,0,1,0-.986.159c.105.66.246,1.333.417,2a.5.5,0,1,0,.969-.247Z"/><path d="M5.065,59.153a.5.5,0,0,0-.885.467c.313.595.653,1.188,1.01,1.766a.5.5,0,0,0,.426.237.5.5,0,0,0,.426-.763C5.7,60.3,5.368,59.728,5.065,59.153Z"/><path d="M4.214,57.386c-.263-.6-.5-1.218-.714-1.826a.5.5,0,0,0-.945.328c.22.632.47,1.271.743,1.9a.5.5,0,0,0,.916-.4Z"/><path d="M7.132,62.5a.5.5,0,0,0-.814.58L7.5,64.7a.5.5,0,0,0,.807-.59Z"/><path d="M18.942,78.669a.5.5,0,1,0-.809.59l1.181,1.618a.5.5,0,0,0,.809-.59Z"/><path d="M11.854,68.966a.5.5,0,0,0-.807.59l1.181,1.617a.5.5,0,0,0,.809-.59Z"/><path d="M14.218,72.2a.5.5,0,1,0-.809.59l1.182,1.617a.5.5,0,0,0,.807-.59Z"/><path d="M14.6,32.86a.5.5,0,0,0,.431-.754c-.334-.567-.645-1.147-.923-1.725a.5.5,0,1,0-.9.434c.289.6.613,1.208.962,1.8A.5.5,0,0,0,14.6,32.86Z"/><path d="M16.579,75.435a.5.5,0,1,0-.807.592l1.18,1.616a.44.44,0,0,0,.36.186.544.544,0,0,0,.315-.107.535.535,0,0,0,.087-.73Z"/><path d="M30.576,47.3q.872.493,1.765.969a.5.5,0,0,0,.471-.883q-.883-.469-1.743-.956a.5.5,0,1,0-.492.87Z"/><path d="M27.129,45.211q.839.543,1.708,1.069a.5.5,0,0,0,.518-.855q-.854-.518-1.683-1.053a.5.5,0,1,0-.543.839Z"/><path d="M34.131,49.189q.9.448,1.811.878a.49.49,0,0,0,.213.048.5.5,0,0,0,.213-.952q-.9-.426-1.789-.868a.5.5,0,0,0-.447.895Z"/><path d="M37.77,50.9q.917.406,1.847.794a.494.494,0,0,0,.192.039A.5.5,0,0,0,40,50.773q-.918-.384-1.825-.786a.5.5,0,0,0-.406.914Z"/><path d="M12.405,28.935a.5.5,0,1,0,.938-.348c-.227-.611-.425-1.236-.588-1.856a.5.5,0,0,0-.967.255C11.959,27.637,12.167,28.293,12.405,28.935Z"/><path d="M25.455,44.086a.5.5,0,0,0,.57-.821q-.82-.571-1.605-1.162a.5.5,0,1,0-.6.8Q24.618,43.5,25.455,44.086Z"/><path d="M19.216,38.958a.5.5,0,0,0,.351.144.5.5,0,0,0,.351-.856q-.71-.7-1.366-1.422a.5.5,0,0,0-.74.673Q18.484,38.238,19.216,38.958Z"/><path d="M16.491,35.955a.5.5,0,1,0,.779-.627c-.416-.518-.813-1.046-1.18-1.572a.5.5,0,0,0-.82.572C15.65,34.872,16.061,35.419,16.491,35.955Z"/><path d="M22.23,41.657a.5.5,0,1,0,.631-.775q-.773-.631-1.5-1.284a.5.5,0,1,0-.666.745Q21.438,41.011,22.23,41.657Z"/><path d="M37.962,87.45a.511.511,0,0,0-.542.454q-.089,1-.2,1.979a.5.5,0,0,0,.441.553l.057,0a.5.5,0,0,0,.5-.444q.11-.993.2-2A.5.5,0,0,0,37.962,87.45Z"/><path d="M38.6,71.461a.516.516,0,0,0-.515.485l-.054,2a.5.5,0,0,0,.487.513h.013a.5.5,0,0,0,.5-.487l.054-2A.5.5,0,0,0,38.6,71.461Z"/><path d="M38.5,75.46a.487.487,0,0,0-.513.487l-.053,2a.5.5,0,0,0,.486.514h.014a.5.5,0,0,0,.5-.486l.053-2A.5.5,0,0,0,38.5,75.46Z"/><path d="M38.387,79.458a.532.532,0,0,0-.517.483c-.022.665-.047,1.331-.075,1.994a.5.5,0,0,0,.479.521h.021a.5.5,0,0,0,.5-.479q.042-1,.075-2A.5.5,0,0,0,38.387,79.458Z"/><path d="M38.758,67.466a.487.487,0,0,0-.521.477q-.047.993-.082,2a.5.5,0,0,0,.481.519h.019a.5.5,0,0,0,.5-.481q.037-1,.08-1.994A.5.5,0,0,0,38.758,67.466Z"/><path d="M38.226,83.457a.47.47,0,0,0-.526.472q-.054,1-.124,1.989a.5.5,0,0,0,.464.534h.036a.5.5,0,0,0,.5-.465q.07-1,.124-2A.5.5,0,0,0,38.226,83.457Z"/><path d="M40.19,55.566a.5.5,0,0,0-.6.38c-.144.649-.271,1.311-.389,1.986a.5.5,0,0,0,.408.578.51.51,0,0,0,.086.007.5.5,0,0,0,.492-.415q.17-.989.379-1.94A.5.5,0,0,0,40.19,55.566Z"/><path d="M39.021,63.475a.5.5,0,0,0-.538.458q-.081.993-.14,2.006a.5.5,0,0,0,.47.528h.029a.5.5,0,0,0,.5-.471q.06-1,.138-1.984A.5.5,0,0,0,39.021,63.475Z"/><path d="M41.335,51.737a.5.5,0,0,0-.638.3c-.222.622-.428,1.275-.612,1.94a.5.5,0,0,0,.348.616.491.491,0,0,0,.134.019.5.5,0,0,0,.481-.366c.18-.643.378-1.273.591-1.874A.5.5,0,0,0,41.335,51.737Z"/><path d="M39.464,59.5a.494.494,0,0,0-.562.429q-.133.986-.236,2a.5.5,0,0,0,.446.548l.052,0a.5.5,0,0,0,.5-.449q.1-1,.232-1.971A.5.5,0,0,0,39.464,59.5Z"/><path d="M33.114,98.079a.5.5,0,1,0-.809.59l1.184,1.618A.5.5,0,1,0,34.3,99.7Z"/><path d="M26.024,88.374a.5.5,0,1,0-.807.59l1.18,1.618a.5.5,0,0,0,.809-.59Z"/><path d="M28.386,91.608a.5.5,0,0,0-.807.59l1.181,1.617a.5.5,0,0,0,.809-.59Z"/><path d="M37.537,91.427a.509.509,0,0,0-.564.426c-.093.66-.194,1.314-.307,1.959a.5.5,0,0,0,.406.578.436.436,0,0,0,.087.008.5.5,0,0,0,.491-.414q.171-.984.313-1.992A.5.5,0,0,0,37.537,91.427Z"/><path d="M30.75,94.843a.5.5,0,1,0-.809.59l1.183,1.618a.5.5,0,1,0,.807-.59Z"/><path d="M23.664,85.138a.5.5,0,1,0-.809.59l1.182,1.618a.5.5,0,0,0,.807-.59Z"/><path d="M21.3,81.907a.5.5,0,1,0-.809.59l1.181,1.618a.5.5,0,0,0,.809-.59Z"/><path d="M36.883,95.372a.506.506,0,0,0-.595.384q-.209.977-.458,1.924a.5.5,0,0,0,.356.61.472.472,0,0,0,.127.017.5.5,0,0,0,.483-.373q.255-.968.47-1.967A.5.5,0,0,0,36.883,95.372Z"/><path d="M35.9,99.251a.5.5,0,0,0-.629.322q-.306.946-.664,1.851a.5.5,0,0,0,.28.649.511.511,0,0,0,.185.035.5.5,0,0,0,.465-.315c.243-.612.474-1.256.686-1.913A.5.5,0,0,0,35.9,99.251Z"/><path d="M108.129,42.951l-11-23.843a.492.492,0,0,0-.475-.283c-8.507-5.291-23.7-8.325-41.734-8.325-18.111,0-33.366,3.06-41.852,8.394-.011.007-.017.019-.028.027a.49.49,0,0,0-.091.086.477.477,0,0,0-.041.059.49.49,0,0,0-.029.042l-11,23.843A19.759,19.759,0,0,0,0,51.5H0A22.78,22.78,0,0,0,4.6,64.794c7.5,10.344,30.271,41.438,30.5,41.751a.5.5,0,0,0,.4.205h.026a.5.5,0,0,0,.406-.248c4.895-8.43,5.187-20.02,5.47-31.229.036-1.443.074-2.871.12-4.281A91.114,91.114,0,0,0,54.915,72a91.183,91.183,0,0,0,13.561-1.035c.046,1.419.084,2.856.12,4.307.283,11.209.575,22.8,5.47,31.229a.5.5,0,0,0,.406.248H74.5a.5.5,0,0,0,.4-.205c.229-.312,23-31.407,30.5-41.751A22.78,22.78,0,0,0,110,51.505h0A19.773,19.773,0,0,0,108.129,42.951ZM96.172,19.7q.01.606-.02,1.209c-.376-.224-.746-.451-1.143-.665a.5.5,0,1,0-.475.88c.532.287,1.038.586,1.532.891-.554,5.155-3.238,10.1-7.827,14.6q-.848-.358-1.727-.7a.5.5,0,1,0-.363.932c.442.173.871.351,1.3.53-.409.379-.833.754-1.269,1.127a85.412,85.412,0,0,0-62.416-.045c-.5-.432-.986-.869-1.454-1.31a.485.485,0,0,0-.022-.283.492.492,0,0,0-.57-.285c-4.593-4.522-7.268-9.486-7.8-14.66.377-.23.756-.459,1.156-.679a.5.5,0,1,0-.48-.877c-.261.143-.5.3-.756.443-.017-.4-.022-.8-.014-1.208C22.2,14.454,37.146,11.5,54.915,11.5,72.8,11.5,87.828,14.49,96.172,19.7ZM65.407,50H44.592A70.453,70.453,0,0,1,24.644,39.2,84.4,84.4,0,0,1,85.3,39.24,70.567,70.567,0,0,1,65.407,50ZM35.444,105.327c-3.279-4.479-23.131-31.6-30.04-41.121A21.8,21.8,0,0,1,1,51.494a18.207,18.207,0,0,1,.283-3.374c0,.146-.007.291-.007.437q0,.669.044,1.341a.5.5,0,0,0,.5.468h.032a.5.5,0,0,0,.467-.531q-.041-.639-.042-1.276,0-.337.012-.673a.5.5,0,0,0-.483-.517.47.47,0,0,0-.42.222c.09-.433.192-.864.313-1.293a.493.493,0,0,0,.2.075.486.486,0,0,0,.07,0,.5.5,0,0,0,.494-.43,18.3,18.3,0,0,1,.375-1.909.491.491,0,0,0-.138-.472c.029-.065.054-.13.083-.194l.437-.947a.491.491,0,0,0,.2-.242c.092-.246.188-.49.294-.733a.5.5,0,0,0,.037-.176l7.6-16.47c.008.059.013.118.022.176a.5.5,0,0,0,.493.424.523.523,0,0,0,.077-.006.5.5,0,0,0,.418-.57,18.08,18.08,0,0,1-.181-1.821l.695-1.506v.011a.49.49,0,0,0,.033.449c0,.006.011.008.015.014C13.536,28.141,17.05,34,23.1,39.2a.469.469,0,0,0,.013.066.5.5,0,0,0,.408.3c5.1,4.269,11.929,8.077,20.283,11.215C40.863,57,40.64,65.869,40.4,75.247,40.131,86.031,39.85,97.172,35.444,105.327ZM41.6,68.982a.492.492,0,0,0,.042-.971c.265-5.648.814-10.847,2.333-15.016.01,0,.019.006.029.006h.5a.5.5,0,0,0,0-1h-.14c.144-.343.3-.674.458-1h5.465a9.508,9.508,0,0,0-1.633,1.03A.489.489,0,0,0,48.5,52h-2a.5.5,0,0,0,0,1h1.091A9.456,9.456,0,0,0,45,59.5v8.938c-.475-.053-.949-.105-1.423-.167a.5.5,0,0,0-.127.992c.515.066,1.032.124,1.55.181v.994q-1.723-.192-3.445-.451C41.567,69.65,41.582,69.317,41.6,68.982Zm4.4,1.551c0-.012.007-.021.007-.033v-11A8.51,8.51,0,0,1,54.5,51H65.181c.16.326.314.657.458,1H64.545a.5.5,0,0,0,0,1H66.03c1.514,4.159,2.063,9.344,2.329,14.975-.564.085-1.13.168-1.7.243a.5.5,0,0,0,.064,1,.5.5,0,0,0,.066,0c.539-.072,1.075-.151,1.61-.231.014.327.028.652.04.981A89.273,89.273,0,0,1,45.993,70.533Zm58.6-6.327c-6.91,9.524-26.761,36.643-30.04,41.121-4.405-8.155-4.687-19.3-4.958-30.08-.237-9.378-.461-18.251-3.405-24.472C85.144,43.657,96.252,33.1,97.127,21.5l.695,1.506a18.08,18.08,0,0,1-.181,1.821.5.5,0,0,0,.418.57.523.523,0,0,0,.077.006.5.5,0,0,0,.493-.424c.009-.058.014-.118.022-.176l7.6,16.471a.49.49,0,0,0,.037.175c.105.243.2.487.294.733a.491.491,0,0,0,.2.242l.437.947c.03.064.054.13.083.194a.491.491,0,0,0-.138.472,18.3,18.3,0,0,1,.375,1.909.5.5,0,0,0,.494.43.486.486,0,0,0,.07,0,.494.494,0,0,0,.2-.075c.12.423.221.849.31,1.276a.426.426,0,0,0-.417-.2.5.5,0,0,0-.483.517q.012.337.012.674,0,.638-.042,1.276a.5.5,0,0,0,.467.531h.032a.5.5,0,0,0,.5-.468q.044-.671.044-1.341c0-.145,0-.29-.007-.435A18.2,18.2,0,0,1,109,51.494,21.8,21.8,0,0,1,104.595,64.206Z"/><path d="M74.17,97.68q-.25-.946-.459-1.923a.5.5,0,1,0-.979.211q.215,1,.471,1.968a.5.5,0,0,0,.483.372.485.485,0,0,0,.128-.017A.5.5,0,0,0,74.17,97.68Z"/><path d="M86.336,85.138l-1.18,1.618a.5.5,0,1,0,.807.59l1.182-1.618a.5.5,0,0,0-.809-.59Z"/><path d="M93.421,75.435,92.285,76.99l.358.357.45.231,1.134-1.553a.5.5,0,1,0-.807-.592Z"/><path d="M88.694,81.906l-1.181,1.618a.5.5,0,0,0,.809.59L89.5,82.5a.5.5,0,0,0-.809-.59Z"/><path d="M92.154,36.79a.5.5,0,0,0-.706.034q-.656.722-1.366,1.422a.5.5,0,1,0,.7.712q.731-.72,1.405-1.461A.5.5,0,0,0,92.154,36.79Z"/><path d="M91.057,78.669l-1.181,1.618a.5.5,0,0,0,.809.59l1.181-1.618a.5.5,0,0,0-.809-.59Z"/><path d="M79.249,94.843l-1.181,1.618a.5.5,0,1,0,.807.59l1.183-1.618a.5.5,0,0,0-.809-.59Z"/><path d="M76.885,98.078,75.7,99.694a.5.5,0,0,0,.807.592l1.184-1.618a.5.5,0,0,0-.809-.59Z"/><path d="M83.974,88.373l-1.182,1.618a.5.5,0,0,0,.809.59l1.18-1.618a.5.5,0,0,0-.807-.59Z"/><path d="M81.613,91.608l-1.183,1.617a.5.5,0,0,0,.809.59L82.42,92.2a.5.5,0,0,0-.807-.59Z"/><path d="M74.724,99.573a.5.5,0,1,0-.951.307q.315.977.686,1.913a.5.5,0,0,0,.465.315.511.511,0,0,0,.185-.035.5.5,0,0,0,.28-.649Q75.029,100.519,74.724,99.573Z"/><path d="M95.781,72.2,94.6,73.817a.5.5,0,1,0,.807.59L96.59,72.79a.5.5,0,0,0-.809-.59Z"/><path d="M107.136,55.252a.5.5,0,0,0-.637.308c-.211.608-.451,1.223-.714,1.826a.5.5,0,1,0,.916.4c.273-.627.523-1.266.743-1.9A.5.5,0,0,0,107.136,55.252Z"/><path d="M105.609,58.944a.5.5,0,0,0-.676.209c-.3.574-.632,1.148-.977,1.707a.5.5,0,0,0,.852.525c.356-.577.7-1.171,1.01-1.766A.5.5,0,0,0,105.609,58.944Z"/><path d="M108.034,51.358a.5.5,0,0,0-.573.414c-.1.63-.236,1.274-.4,1.914a.5.5,0,1,0,.969.247c.171-.668.312-1.342.417-2A.5.5,0,0,0,108.034,51.358Z"/><path d="M102.867,62.5l-1.177,1.613a.5.5,0,1,0,.807.59l1.185-1.623a.5.5,0,1,0-.814-.58Z"/><path d="M100.509,65.729l-1.183,1.618a.5.5,0,1,0,.807.59l1.183-1.616a.5.5,0,0,0-.807-.592Z"/><path d="M96.559,30.148a.5.5,0,0,0-.667.234c-.278.578-.589,1.158-.923,1.725a.5.5,0,1,0,.861.508c.349-.59.673-1.2.962-1.8A.5.5,0,0,0,96.559,30.148Z"/><path d="M98.146,68.965l-1.183,1.617a.5.5,0,0,0,.809.59l1.181-1.617a.5.5,0,1,0-.807-.59Z"/><path d="M72.336,90.436a.5.5,0,0,0,.441-.553q-.11-.981-.2-1.979a.519.519,0,0,0-.542-.454.5.5,0,0,0-.454.542q.089,1.008.2,2a.5.5,0,0,0,.5.444Z"/><path d="M73.845,50.115a.49.49,0,0,0,.213-.048q.913-.43,1.811-.878a.5.5,0,0,0-.447-.895q-.886.442-1.789.868a.5.5,0,0,0,.213.952Z"/><path d="M77.423,48.326a.5.5,0,0,0,.235-.059q.892-.475,1.765-.969a.5.5,0,1,0-.492-.87q-.86.486-1.743.956a.5.5,0,0,0,.235.941Z"/><path d="M70.19,51.735a.494.494,0,0,0,.192-.039q.93-.388,1.847-.794a.5.5,0,0,0-.406-.914q-.905.4-1.825.786a.5.5,0,0,0,.192.961Z"/><path d="M69.566,54.6a.5.5,0,0,0,.348-.616c-.186-.667-.392-1.32-.612-1.94a.5.5,0,1,0-.941.335c.212.6.411,1.229.591,1.874a.5.5,0,0,0,.481.366A.491.491,0,0,0,69.566,54.6Z"/><path d="M87.453,41.769a.5.5,0,0,0,.315-.112q.794-.646,1.539-1.314a.5.5,0,1,0-.666-.745q-.729.652-1.5,1.284a.5.5,0,0,0,.315.888Z"/><path d="M70.384,58.511a.5.5,0,0,0,.408-.578c-.117-.675-.245-1.337-.389-1.986a.5.5,0,0,0-.977.215q.209.952.379,1.94a.5.5,0,0,0,.492.415A.51.51,0,0,0,70.384,58.511Z"/><path d="M80.9,46.353a.5.5,0,0,0,.259-.072q.869-.525,1.708-1.069a.5.5,0,1,0-.543-.839q-.828.535-1.683,1.053a.5.5,0,0,0,.259.928Z"/><path d="M93.118,36.142a.5.5,0,0,0,.39-.187c.431-.536.841-1.083,1.221-1.627a.5.5,0,1,0-.82-.572c-.366.526-.764,1.055-1.18,1.572a.5.5,0,0,0,.39.813Z"/><path d="M84.259,44.176a.5.5,0,0,0,.285-.089q.838-.582,1.637-1.184a.5.5,0,1,0-.6-.8q-.785.59-1.605,1.162a.5.5,0,0,0,.285.911Z"/><path d="M72.927,94.39a.5.5,0,0,0,.406-.578c-.112-.645-.214-1.3-.307-1.959a.5.5,0,0,0-.99.139q.142,1.008.313,1.992a.5.5,0,0,0,.491.414A.436.436,0,0,0,72.927,94.39Z"/><path d="M70.886,62.479a.5.5,0,0,0,.446-.548q-.1-1.015-.236-2a.5.5,0,0,0-.99.133q.13.971.232,1.971a.5.5,0,0,0,.5.449Z"/><path d="M71.567,78.459h.014a.5.5,0,0,0,.486-.514l-.053-2a.5.5,0,0,0-.5-.487H71.5a.5.5,0,0,0-.487.513l.053,2A.5.5,0,0,0,71.567,78.459Z"/><path d="M71.7,82.458h.021a.5.5,0,0,0,.479-.521c-.028-.663-.053-1.329-.075-1.994a.5.5,0,0,0-1,.033q.034,1,.075,2A.5.5,0,0,0,71.7,82.458Z"/><path d="M96.951,29.229a.5.5,0,0,0,.643-.295c.238-.642.446-1.3.617-1.949a.5.5,0,0,0-.967-.255c-.163.621-.361,1.245-.588,1.856A.5.5,0,0,0,96.951,29.229Z"/><path d="M71.924,86.453h.036a.5.5,0,0,0,.464-.534q-.07-.989-.124-1.989a.478.478,0,0,0-.526-.472.5.5,0,0,0-.472.526q.054,1.006.124,2A.5.5,0,0,0,71.924,86.453Z"/><path d="M71.464,74.461h.013a.5.5,0,0,0,.487-.513l-.055-2a.5.5,0,0,0-1,.029l.055,2A.5.5,0,0,0,71.464,74.461Z"/><path d="M71.156,66.469h.029a.5.5,0,0,0,.47-.528q-.06-1.014-.14-2.006a.506.506,0,0,0-.538-.458.5.5,0,0,0-.458.538Q70.6,65,70.657,66A.5.5,0,0,0,71.156,66.469Z"/><path d="M71.345,70.463h.019a.5.5,0,0,0,.481-.519q-.037-1.008-.082-2a.479.479,0,0,0-.521-.477.5.5,0,0,0-.477.521q.044.99.08,1.994A.5.5,0,0,0,71.345,70.463Z"/><path d="M69.25,85H40.75a.5.5,0,0,1,0-1h28.5a.5.5,0,0,1,0,1Z"/><path d="M69.25,83H40.75a.5.5,0,0,1,0-1h28.5a.5.5,0,0,1,0,1Z"/><circle class="cls-1" cx="78.5" cy="83.5" r="2"/><path d="M78.5,86A2.5,2.5,0,1,1,81,83.5,2.5,2.5,0,0,1,78.5,86Zm0-4A1.5,1.5,0,1,0,80,83.5,1.5,1.5,0,0,0,78.5,82Z"/><path class="cls-1" d="M33.5,84.5h1a1,1,0,0,0,1-1h0a1,1,0,0,0-1-1h-1Z"/><path d="M34.5,85h-1a.5.5,0,0,1-.5-.5v-2a.5.5,0,0,1,.5-.5h1a1.5,1.5,0,0,1,0,3ZM34,84h.5a.5.5,0,0,0,0-1H34Z"/><path class="cls-1" d="M76.5,84.5h-1a1,1,0,0,1-1-1h0a1,1,0,0,1,1-1h1Z"/><path d="M76.5,85h-1a1.5,1.5,0,0,1,0-3h1a.5.5,0,0,1,.5.5v2A.5.5,0,0,1,76.5,85Zm-1-2a.5.5,0,0,0,0,1H76V83Z"/><circle class="cls-1" cx="31.5" cy="83.5" r="2"/><path d="M31.5,86A2.5,2.5,0,1,1,34,83.5,2.5,2.5,0,0,1,31.5,86Zm0-4A1.5,1.5,0,1,0,33,83.5,1.5,1.5,0,0,0,31.5,82Z"/></g></g></g></svg>