<svg xmlns="http://www.w3.org/2000/svg" width="154" height="123" viewBox="0 0 154 123">
    <defs>
        <filter id="a" width="187%" height="194%" x="-43.5%" y="-49%" filterUnits="objectBoundingBox">
            <feOffset dy="-2" in="SourceAlpha" result="shadowOffsetOuter1"/>
            <feGaussianBlur in="shadowOffsetOuter1" result="shadowBlurOuter1" stdDeviation="15"/>
            <feColorMatrix in="shadowBlurOuter1" result="shadowMatrixOuter1" values="0 0 0 0 0.841459055 0 0 0 0 0.895036578 0 0 0 0 0.937898597 0 0 0 1 0"/>
            <feMerge>
                <feMergeNode in="shadowMatrixOuter1"/>
                <feMergeNode in="SourceGraphic"/>
            </feMerge>
        </filter>
    </defs>
    <g fill="none" fill-rule="evenodd" filter="url(#a)" transform="translate(23 11)">
        <path stroke="#5968AE" stroke-linecap="round" stroke-width="2" d="M97.725 20.154c0 1.44-1.178 2.606-2.63 2.606-1.455 0-2.632-1.167-2.632-2.606 0-1.44 1.177-2.607 2.632-2.607 1.452 0 2.63 1.167 2.63 2.607zM107.192 32.452c0 1.44-1.178 2.607-2.632 2.607-1.453 0-2.63-1.167-2.63-2.607 0-1.44 1.177-2.606 2.63-2.606 1.454 0 2.632 1.167 2.632 2.606zM107.192 17.547L92.462 35.06M13.501 18.587c0 .977-.8 1.77-1.787 1.77a1.778 1.778 0 0 1-1.785-1.77c0-.977.8-1.769 1.785-1.769.988 0 1.787.792 1.787 1.77zM19.926 26.934c0 .978-.8 1.77-1.787 1.77a1.778 1.778 0 0 1-1.785-1.77c0-.977.8-1.77 1.785-1.77.987 0 1.787.793 1.787 1.77zM19.926 16.818L9.929 28.703"/>
        <path stroke="#5967AD" stroke-linecap="round" stroke-linejoin="round" stroke-width="2" d="M75.792 10.443H90.48M102.145 41.461v36.982c0 .958-.783 1.734-1.75 1.734H1.91A1.9 1.9 0 0 1 0 78.287V12.175c0-.957.784-1.733 1.75-1.733h30.746M9.736 66.006h92.41M45.51 93.04h30.527c1.827 0 3.308 1.467 3.308 3.276 0 1.81-1.481 3.277-3.308 3.277h-49.93c-1.826 0-3.307-1.467-3.307-3.277s1.48-3.276 3.307-3.276h9.89M61.92 80.177s.535 9.249 8.905 12.863M40.226 80.177s-.537 9.249-8.905 12.863"/>
        <path fill="#5967AD" d="M37.7 30.736v4.842c0 1.824-.034 3.324-.138 4.858l.035.017c.585-1.193 1.307-2.438 2.15-3.8l3.751-5.917h1.498v11.49h-1.41v-4.893c0-1.858.016-3.222.136-4.67l-.051-.017c-.567 1.261-1.36 2.59-2.151 3.87l-3.632 5.71H36.29v-11.49h1.41zM49.023 30.736v4.842c0 1.824-.034 3.324-.138 4.858l.034.017c.587-1.193 1.307-2.438 2.151-3.8l3.752-5.917h1.497v11.49h-1.411v-4.893c0-1.858.017-3.222.137-4.67l-.051-.017c-.568 1.261-1.36 2.59-2.151 3.87l-3.63 5.71h-1.6v-11.49h1.41zM67.039 41.85c-.551.274-1.653.547-3.064.547-3.268 0-5.73-2.046-5.73-5.814 0-3.596 2.462-6.034 6.057-6.034 1.446 0 2.357.307 2.754.51l-.361 1.21c-.568-.271-1.377-.476-2.341-.476-2.72 0-4.526 1.722-4.526 4.74 0 2.813 1.635 4.619 4.457 4.619.913 0 1.842-.187 2.444-.477l.31 1.176z"/>
        <path fill="#E5EFF7" d="M42.906 1.104v14.788H27.98"/>
        <path stroke="#5967AD" stroke-linecap="round" stroke-linejoin="round" stroke-width="2" d="M42.906 1.104v14.788H27.98"/>
        <path stroke="#5967AD" stroke-linecap="round" stroke-linejoin="round" stroke-width="2" d="M27.553 65.314V15.3L42.11 1h33.682v64.294"/>
    </g>
</svg>
