<svg xmlns="http://www.w3.org/2000/svg" width="154" height="123" viewBox="0 0 154 123">
    <defs>
        <filter id="a" width="141.7%" height="153%" x="-20.9%" y="-26.5%" filterUnits="objectBoundingBox">
            <feOffset in="SourceAlpha" result="shadowOffsetOuter1"/>
            <feGaussianBlur in="shadowOffsetOuter1" result="shadowBlurOuter1" stdDeviation="8.5"/>
            <feColorMatrix in="shadowBlurOuter1" result="shadowMatrixOuter1" values="0 0 0 0 0.841459055 0 0 0 0 0.895036578 0 0 0 0 0.937898597 0 0 0 1 0"/>
            <feMerge>
                <feMergeNode in="shadowMatrixOuter1"/>
                <feMergeNode in="SourceGraphic"/>
            </feMerge>
        </filter>
    </defs>
    <g fill="none" fill-rule="evenodd" filter="url(#a)" transform="translate(16 11)">
        <path stroke="#5968AE" stroke-linecap="round" stroke-width="2" d="M120.678 13.023c-3.57-.06-6.416-3.013-6.358-6.598"/>
        <path stroke="#5968AE" stroke-linecap="round" stroke-linejoin="round" stroke-width="2" d="M63.955 20.174V6.32h56.83l.1 17.79.06 10.351H83.26"/>
        <path stroke="#5968AE" stroke-linecap="round" stroke-linejoin="round" stroke-width="2" d="M73.094 6.072V0h52.915v24.03h-5.123"/>
        <path fill="#E5EFF7" d="M100.957 20.582c-.077 4.701-3.933 8.45-8.615 8.373-4.68-.077-8.413-3.95-8.336-8.652.077-4.7 3.933-8.45 8.613-8.373 4.681.077 8.414 3.95 8.338 8.652"/>
        <path stroke="#5967AD" stroke-linecap="round" stroke-linejoin="round" stroke-width="2" d="M100.957 20.582c-.077 4.701-3.933 8.45-8.615 8.373-4.68-.077-8.413-3.95-8.336-8.652.077-4.7 3.933-8.45 8.613-8.373 4.681.077 8.414 3.95 8.338 8.652z"/>
        <path stroke="#5968AE" stroke-width="2" d="M63.793 12.81c3.57.059 6.512-2.8 6.57-6.385M120.967 28.155c-3.57-.06-6.51 2.8-6.57 6.386"/>
        <path stroke="#5968AE" stroke-linecap="round" stroke-width="2" d="M7.882 25.57l.108-14.896a1.79 1.79 0 0 1 1.8-1.78l38.503.283M110.017 50.22l-.206 28.422a1.79 1.79 0 0 1-1.8 1.78L9.276 79.7a1.79 1.79 0 0 1-1.773-1.807l.166-22.786M13.812 65.795l96.087.704M55.438 93.098l28.239.207a3.196 3.196 0 0 1 3.166 3.227 3.196 3.196 0 0 1-3.213 3.18l-50.256-.367a3.198 3.198 0 0 1-3.166-3.228 3.197 3.197 0 0 1 3.212-3.18l10.408.076M69.507 80.14s.47 9.394 8.826 13.126M47.78 79.98s-.606 9.388-9.016 12.996M57.103 32.55l13.694 7.433c2.455.918 5.799-.952 5.799-3.734 0-2.68-3.17-4.713-5.64-3.7L57.25 39.775c-2.708 1.108-6.258-.651-6.258-3.588 0-2.882 3.423-4.644 6.111-3.638z"/>
        <path stroke="#5967AD" stroke-linecap="round" stroke-linejoin="round" stroke-width="2" d="M5.45 43.973l8.978-6.971 3.584 2.909 12.768-9.885"/>
        <path stroke="#5967AD" stroke-linecap="round" stroke-linejoin="round" stroke-width="2" d="M26.45 29.788l4.502-.017-.803 4.9"/>
        <path fill="#E5EFF7" d="M12.687 50.34l-5.358.019-.022-3.108 5.358-.019z"/>
        <path stroke="#5967AD" stroke-linecap="round" stroke-linejoin="round" stroke-width="2" d="M12.687 50.34l-5.358.019-.022-3.108 5.358-.019z"/>
        <path fill="#E5EFF7" d="M21.778 50.307l-5.357.02-.04-6.133 5.357-.019z"/>
        <path stroke="#5967AD" stroke-linecap="round" stroke-linejoin="round" stroke-width="2" d="M21.778 50.307l-5.357.02-.04-6.133 5.357-.019z"/>
        <path fill="#E5EFF7" d="M30.869 50.114l-5.357.02-.053-9.55 5.358-.018z"/>
        <path stroke="#5967AD" stroke-linecap="round" stroke-linejoin="round" stroke-width="2" d="M30.869 50.114l-5.357.02-.053-9.55 5.358-.018z"/>
        <path stroke="#5967AD" stroke-linecap="round" stroke-linejoin="round" stroke-width="2" d="M36.401 54.56H2.031A2.037 2.037 0 0 1 0 52.517V27.611c0-1.127.91-2.04 2.032-2.04H36.4c1.122 0 2.032.913 2.032 2.04v24.907c0 1.127-.91 2.041-2.032 2.041z"/>
    </g>
</svg>
