<?xml version="1.0" encoding="utf-8"?>
<!-- Generator: Adobe Illustrator 26.0.3, SVG Export Plug-In . SVG Version: 6.00 Build 0)  -->
<svg version="1.1" xmlns="http://www.w3.org/2000/svg" xmlns:xlink="http://www.w3.org/1999/xlink" x="0px" y="0px"
	 viewBox="0 0 21.1004925 21.0996094" style="enable-background:new 0 0 21.1004925 21.0996094;" xml:space="preserve" width="20px">
<style type="text/css">
	.st0{fill:#FFFFFF;}
</style>
<g id="Background">
</g>
<g id="Objects">
	<path class="st0" d="M21.0110569,6.7109375L17.457468,0.3486328l-0.0009766-0.0019531l-0.005249-0.0097656L17.44697,0.3300781
		l-0.0019531-0.0039062l-0.0083008-0.0117188l-0.0025635-0.0039062l-0.0214844-0.0332031l-0.0074463-0.0087891l-0.0080566-0.0117188
		L17.367136,0.2226562l-0.0418701-0.0546875l-0.0311279-0.015625l-0.0039062-0.0029297L17.278635,0.1416016l-0.0023193-0.0019531
		h0.0002441l-0.0272217-0.0214844L17.219553,0.0996094l-0.0338135-0.0205078l-0.0125732-0.0058594l-0.0234375-0.0136719
		l-0.0524902-0.0185547l-0.02771-0.0097656l-0.0447998-0.0126953l-0.0296631-0.0068359l-0.0058594-0.0009766
		c-0.0087891-0.0009766-0.0184326-0.0029297-0.0281982-0.0039062l-0.0302734-0.0048828l-0.0068359-0.0009766L16.8699436,0
		h-6.3197021H4.2306614h-0.027832l-0.005127,0.0009766H4.1736546L4.1682835,0.0019531H4.1513157L4.1123753,0.0107422
		L4.1005344,0.0117188L4.0526829,0.0244141C3.9195039,0.0644531,3.8140352,0.1328125,3.7316377,0.2246094L3.6828096,0.2792969
		L3.6718233,0.3007812L3.6709688,0.3017578L3.6564424,0.3261719L0.0894258,6.7109375
		C-0.0453398,6.9521484-0.026541,7.2519531,0.1373994,7.4736328l9.8730469,13.3515625l0.0010986,0.0019531l0.0020752,0.0029297
		l0.0466309,0.0625l0.0279541,0.0214844l0.0195312,0.0175781l0.0252686,0.0224609l0.0311279,0.0214844
		c0.0040283,0.0039062,0.0186768,0.0146484,0.0373535,0.0253906l0.0263672,0.0175781l0.005249,0.0029297l0.0141602,0.0087891
		l0.0279541,0.0107422l0.0075684,0.0039062l0.0162354,0.0058594l0.0063477,0.0019531l0.0043945,0.0019531l0.0195312,0.0087891
		l0.020752,0.0058594l0.0064697,0.0029297l0.0146484,0.0029297l0.0734863,0.0214844h0.0385742
		c0.0220947,0.0019531,0.0444336,0.0029297,0.0667725,0.0029297h0.0666504l0.0162354-0.0029297h0.0229492l0.0734863-0.0214844
		l0.0146484-0.0029297l0.005249-0.0019531l0.0192871-0.0058594l0.0205078-0.0097656l0.0048828-0.0009766l0.0501709-0.015625
		l0.0494385-0.0322266l0.0151367-0.0087891l0.052124-0.0390625l0.0368652-0.0283203l0.0142822-0.015625l0.0449219-0.0332031
		l0.0578613-0.0917969l9.8485107-13.3154297C21.1270237,7.2519531,21.1458225,6.9521484,21.0110569,6.7109375z M11.653513,1.3847656
		h4.1130371l-2.0565186,4.1416016L11.653513,1.3847656z M19.6139622,7.0019531l-7.6398926,10.3320312L14.3491917,7.296875
		l2.5556641-5.1455078L19.6139622,7.0019531z M9.44697,1.3847656L7.3904514,5.5263672L5.3339329,1.3847656H9.44697z
		 M9.1264133,17.3339844L1.4865205,7.0019531l2.7091067-4.8505859L6.7512913,7.296875L9.1264133,17.3339844z M10.5502415,2.2216797
		l2.4431152,4.9199219l-2.4431152,10.3232422L8.1071262,7.1416016L10.5502415,2.2216797z"/>
</g>
</svg>
