<?xml version="1.0" encoding="utf-8"?>
<!-- Generator: Adobe Illustrator 26.0.3, SVG Export Plug-In . SVG Version: 6.00 Build 0)  -->
<svg version="1.1" id="Слой_1" xmlns="http://www.w3.org/2000/svg" xmlns:xlink="http://www.w3.org/1999/xlink" x="0px" y="0px"
	 viewBox="0 0 174.6382904 99.0638504" style="enable-background:new 0 0 174.6382904 99.0638504;" xml:space="preserve">
<style type="text/css">
	.st0{fill:url(#SVGID_1_);}
	.st1{fill:#FFFFFF;}
	.st2{fill:#ADADAD;}
</style>
<linearGradient id="SVGID_1_" gradientUnits="userSpaceOnUse" x1="89.3609085" y1="55.7913246" x2="89.3609085" y2="4.9827905">
	<stop  offset="0" style="stop-color:#0164AB"/>
	<stop  offset="0.2042207" style="stop-color:#0567AD"/>
	<stop  offset="0.3997083" style="stop-color:#1071B4"/>
	<stop  offset="0.5916301" style="stop-color:#2480C0"/>
	<stop  offset="0.7813824" style="stop-color:#3F96D1"/>
	<stop  offset="0.9679521" style="stop-color:#61B3E6"/>
	<stop  offset="1" style="stop-color:#68B8EA"/>
</linearGradient>
<polygon class="st0" points="89.360878,31.7913227 51.0630264,4.9827905 57.7013321,37.408329 89.360878,55.7913246 
	121.0204849,37.408329 127.6587906,4.9827905 "/>
<path class="st1" d="M76.4325333,48.2845497l-10.050354,18.4854698L38.5949478,72.642395h-4.8936157l24-35.234066
	L76.4325333,48.2845497z M121.0221329,37.408329l-18.7312012,10.8762207l10.050354,18.4854698l27.7872238,5.8723755h4.8936157
	L121.0221329,37.408329z"/>
<g>
	<polygon class="st2" points="121.0221329,37.408329 102.2909317,48.2845497 103.2461929,50.0415077 122.1504898,39.0648232 	"/>
	<polygon class="st2" points="56.5724869,39.0655556 75.4768448,50.0423012 76.4325333,48.2845497 57.7013321,37.408329 	"/>
</g>
<g>
	<polygon class="st1" points="22.268713,84.0253906 19.9571896,84.0253906 19.9571896,93.9111328 28.0167599,93.9111328 
		28.0167599,92.2319336 22.268713,92.2319336 	"/>
	<path class="st1" d="M40.1578751,83.9438477l-4.4594727,9.9672852h2.4521484l0.9448242-2.2641602h4.5766602l0.9995117,2.2641602
		h2.5146484l-4.5839844-9.9672852H40.1578751z M39.8063126,89.9677734l1.5463867-3.6987305l1.5771484,3.6987305H39.8063126z"/>
	<path class="st1" d="M62.4117813,89.4575195c0,0.7890625-0.0341797,1.3530273-0.1015625,1.6933594
		c-0.0678711,0.3398438-0.2680664,0.6264648-0.6015625,0.8598633c-0.3330078,0.2333984-0.8276367,0.3500977-1.4833984,0.3500977
		c-0.6459961,0-1.1547852-0.1235352-1.5268555-0.3706055c-0.3725586-0.2470703-0.6079102-0.5742188-0.7070312-0.9824219
		c-0.0571289-0.2539062-0.0859375-0.809082-0.0859375-1.6655273v-5.3984375h-2.3115234v5.3168945
		c0,1.1147461,0.0756836,1.9580078,0.2265625,2.5292969c0.1040039,0.3852539,0.3203125,0.753418,0.6479492,1.1044922
		c0.328125,0.3515625,0.7744141,0.637207,1.3393555,0.8569336s1.394043,0.3295898,2.487793,0.3295898
		c0.9057617,0,1.6396484-0.1010742,2.2021484-0.3027344c0.5620117-0.2011719,1.0112305-0.472168,1.347168-0.8120117
		c0.3359375-0.340332,0.565918-0.7573242,0.690918-1.2514648c0.125-0.4936523,0.1875-1.3393555,0.1875-2.5356445v-5.2353516
		h-2.3115234V89.4575195z"/>
	<polygon class="st1" points="81.3155899,90.6000977 76.6295547,83.9438477 74.3805313,83.9438477 74.3805313,93.9111328 
		76.5279922,93.9111328 76.5279922,87.4111328 81.1437149,93.9111328 83.4630508,93.9111328 83.4630508,83.9438477 
		81.3155899,83.9438477 	"/>
	<path class="st1" d="M99.4776993,91.8510742c-0.4423828,0.3398438-0.9707031,0.5097656-1.5854492,0.5097656
		c-0.8330078,0-1.5097656-0.2670898-2.0302734-0.8022461c-0.5205078-0.534668-0.7807617-1.4321289-0.7807617-2.6923828
		c0-1.1875,0.2641602-2.0463867,0.7924805-2.5766602s1.2167969-0.7954102,2.0654297-0.7954102
		c0.6142578,0,1.1367188,0.1494141,1.565918,0.4487305c0.4296875,0.2988281,0.7119141,0.7070312,0.8476562,1.2236328
		l2.2880859-0.4760742c-0.2602539-0.7973633-0.6508789-1.409668-1.1713867-1.8354492
		c-0.875-0.7207031-2.012207-1.0810547-3.4130859-1.0810547c-1.6035156,0-2.8969727,0.4589844-3.8813477,1.3764648
		c-0.9838867,0.9179688-1.4760742,2.206543-1.4760742,3.8652344c0,1.5683594,0.4897461,2.8046875,1.4682617,3.7089844
		c0.9790039,0.9042969,2.2285156,1.3564453,3.7485352,1.3564453c1.2290039,0,2.2426758-0.2641602,3.0419922-0.7919922
		s1.3706055-1.3359375,1.7143555-2.4238281l-2.2412109-0.6186523
		C100.2379532,90.9760742,99.9200821,91.5112305,99.4776993,91.8510742z"/>
	<polygon class="st1" points="118.7018204,87.8666992 114.1720352,87.8666992 114.1720352,83.9438477 111.8605118,83.9438477 
		111.8605118,93.9111328 114.1720352,93.9111328 114.1720352,89.5527344 118.7018204,89.5527344 118.7018204,93.9111328 
		121.0133438,93.9111328 121.0133438,83.9438477 118.7018204,83.9438477 	"/>
	<polygon class="st1" points="132.9117737,89.519043 138.6598206,89.519043 138.6598206,87.8393555 132.9117737,87.8393555 
		132.9117737,85.6298828 139.0895081,85.6298828 139.0895081,83.9438477 130.6002502,83.9438477 130.6002502,93.9111328 
		139.3077698,93.9111328 139.3077698,92.2319336 132.9117737,92.2319336 	"/>
	<path class="st1" d="M157.3683167,91.9667969c-0.5517578-0.7753906-0.9902344-1.3144531-1.315918-1.6181641
		c-0.3251953-0.3037109-0.737793-0.5825195-1.237793-0.8364258c1.0048828-0.1269531,1.7597656-0.434082,2.2651367-0.9213867
		c0.5048828-0.4873047,0.7573242-1.1049805,0.7573242-1.8525391c0-0.5893555-0.1665039-1.112793-0.5-1.5708008
		c-0.3330078-0.4575195-0.7768555-0.7758789-1.331543-0.9550781c-0.5541992-0.1791992-1.4433594-0.2685547-2.6669922-0.2685547
		h-4.8652344v9.9672852h2.3115234V89.75h0.46875c0.53125,0,0.9189453,0.0375977,1.1635742,0.1123047
		s0.4765625,0.2128906,0.6953125,0.4145508c0.2182617,0.2021484,0.6245117,0.6904297,1.2182617,1.465332l1.6708984,2.1689453
		h2.7646484L157.3683167,91.9667969z M152.4952698,88.1591797h-1.7104492v-2.5292969h1.8041992
		c0.9370117,0,1.4995117,0.0112305,1.6870117,0.0341797c0.3745117,0.0541992,0.6650391,0.1845703,0.8706055,0.390625
		c0.2055664,0.206543,0.3085938,0.4770508,0.3085938,0.8125c0,0.2993164-0.078125,0.5488281-0.234375,0.7480469
		c-0.15625,0.199707-0.3720703,0.3398438-0.6484375,0.4213867
		C154.2965393,88.1181641,153.6041565,88.1591797,152.4952698,88.1591797z"/>
</g>
</svg>
