<?xml version="1.0" encoding="utf-8"?>
<!-- Generator: Adobe Illustrator 26.0.3, SVG Export Plug-In . SVG Version: 6.00 Build 0)  -->
<svg version="1.1" id="Слой_1" xmlns="http://www.w3.org/2000/svg" xmlns:xlink="http://www.w3.org/1999/xlink" x="0px" y="0px"
	 viewBox="0 0 20 20" style="enable-background:new 0 0 20 20;" xml:space="preserve">
<style type="text/css">
	.st0{fill-rule:evenodd;clip-rule:evenodd;fill:#FFFFFF;}
</style>
<g id="_x33_2">
	<path class="st0" d="M20,6.8880081C20,3.0820231,16.79743,0,12.87078,0C8.9425306,0,5.7402873,3.0820231,5.7402873,6.8880081
		c0,0.2117357,0,0.3933773,0.0308843,0.6048231H5.7402873C5.7402873,11.268858,12.87078,20,12.87078,20S20,11.2386103,20,7.4928312
		h-0.0302486C19.9697514,7.2813854,20,7.0997438,20,6.8880081z M12.87078,10.3626747
		c-1.5719824,0-2.8405609-1.2389469-2.8405609-2.779274c0-1.5103683,1.2685785-2.7494507,2.8405609-2.7494507
		c1.5401535,0,2.809001,1.2390823,2.809001,2.7494507C15.679781,9.1237278,14.4109335,10.3626747,12.87078,10.3626747z"/>
</g>
<g id="Layer_1">
</g>
</svg>
