<?xml version="1.0" encoding="utf-8"?>
<!-- Generator: Adobe Illustrator 26.0.3, SVG Export Plug-In . SVG Version: 6.00 Build 0)  -->
<svg version="1.1" id="Слой_1" xmlns="http://www.w3.org/2000/svg" xmlns:xlink="http://www.w3.org/1999/xlink" x="0px" y="0px"
	 viewBox="0 0 20 20" style="enable-background:new 0 0 20 20;" xml:space="preserve">
<style type="text/css">
	.st0{fill:#FFFFFF;}
</style>
<g>
	<path class="st0" d="M11.8334951,8.6910791h-0.3830032c1.1014576-0.6183949,1.866478-1.9037437,1.866478-3.4045453
		c0-2.1001434-1.4850721-3.8025963-3.3169661-3.8025963S6.6830854,3.1863904,6.6830854,5.2865338
		c0,1.5008016,0.7649727,2.7861505,1.8664303,3.4045453H8.1665592c-2.0813088,0-3.7685251,1.8490067-3.7685251,4.1298428V20
		h11.2039394v-7.1790781C15.6019735,10.5400858,13.9147577,8.6910791,11.8334951,8.6910791z"/>
	<g>
		<path class="st0" d="M16.2315216,7.2071419h-0.3830032c1.1014576-0.6183949,1.866478-1.9037442,1.866478-3.4045453
			C17.7149963,1.702453,16.2299232,0,14.3980303,0c-0.8200903,0-1.5609579,0.3540233-2.139904,0.9193277
			c1.321928,0.8815309,2.2136288,2.5066395,2.2136288,4.3671799c0,0.9404922-0.2270479,1.8348451-0.6375399,2.6047878
			c1.7201548,0.8416224,2.9223099,2.7345533,2.9223099,4.9294462v5.6953201H20v-7.1790771
			C20,9.0561476,18.3127842,7.2071419,16.2315216,7.2071419z"/>
		<path class="st0" d="M3.2433817,12.8207417c0-2.1948929,1.2021539-4.0878239,2.9223092-4.9294462
			C5.7551994,7.1213527,5.528151,6.2269998,5.528151,5.2865076c0-1.8605919,0.8917007-3.4857006,2.2136755-4.3672314
			C7.1628809,0.3540233,6.4220133,0,5.6019697,0C3.7700758,0,2.2850511,1.702453,2.2850511,3.8025966
			c0,1.5008011,0.7649729,2.7861505,1.8664305,3.4045453H3.7685251C1.6872163,7.2071419,0,9.0561476,0,11.3369846v7.1790771
			h3.2433817V12.8207417z"/>
	</g>
</g>
</svg>
