<?xml version="1.0" encoding="utf-8"?>
<!-- Generator: Adobe Illustrator 26.0.3, SVG Export Plug-In . SVG Version: 6.00 Build 0)  -->
<svg version="1.1" id="Capa_1" xmlns="http://www.w3.org/2000/svg" xmlns:xlink="http://www.w3.org/1999/xlink" x="0px" y="0px"
	 viewBox="0 0 20 20" style="enable-background:new 0 0 20 20;" xml:space="preserve" width="10px">
<style type="text/css">
	.st0{fill:#FFFFFF;}
</style>
<g>
	<path class="st0" d="M11.9566631,17.0779552c0,1.31106-0.8743124,2.3720169-1.954793,2.3720169
		c-1.0806093,0-1.9550514-1.0609589-1.9550514-2.3720188c0-1.3115292,0.8744411-2.3724861,1.9550514-2.3724861
		C11.0822859,14.7054672,11.9566631,15.7664261,11.9566631,17.0779552z M5.5016303,12.5111885l1.4988122,1.5250196
		c1.4948788-2.1665077,4.5114574-2.1665077,6.0044031,0.0017986l1.5007458-1.5200119
		c-1.1207733-1.6257801-2.762639-2.5573454-4.5037851-2.5573454C8.2605295,9.9606495,6.6205983,10.8897114,5.5016303,12.5111885z
		 M2.7564621,9.1127911l1.4490428,1.594017c1.4796004-1.9832134,3.591115-3.1183333,5.7963653-3.1183333
		c2.2033806,0,4.3148947,1.1351199,5.7946243,3.1136403l1.447175-1.5940189
		c-1.8503551-2.4743433-4.4890871-3.8920312-7.2417984-3.8920312C7.2468381,5.2159877,4.6063657,6.6384473,2.7564621,9.1127911z
		 M-0.0005035,5.7420855l1.4279619,1.6194439c2.2107944-2.8708138,5.3363228-4.5180287,8.5743465-4.5180287
		c3.285924,0,6.3289328,1.6034064,8.5704794,4.513257l1.4282188-1.6219473
		c-2.5776157-3.3451231-6.2224321-5.2635622-9.9987631-5.2635622C6.223412,0.4712479,2.5787888,2.3918774-0.0005035,5.7420855z"/>
</g>
</svg>
