<?xml version="1.0" encoding="utf-8"?>
<!-- Generator: Adobe Illustrator 26.0.3, SVG Export Plug-In . SVG Version: 6.00 Build 0)  -->
<svg version="1.1" xmlns="http://www.w3.org/2000/svg" xmlns:xlink="http://www.w3.org/1999/xlink" x="0px" y="0px"
	 viewBox="0 0 57 57" style="enable-background:new 0 0 57 57;" xml:space="preserve" width="20px">
<style type="text/css">
	.st0{fill-rule:evenodd;clip-rule:evenodd;fill:#FFFFFF;}
</style>
<g id="_x32_1">
	<path class="st0" d="M53.3456078,20.8695011L53.3456078,20.8695011c-1.2939377-3.859005-3.6297073-7.4381618-6.8692093-10.3873873
		c-10.5777512-9.6299343-26.9206467-8.74652-36.5505829,1.8312302c-2.9492249,3.2394991-5.0508709,7.1421728-6.0364838,11.0520334
		l8.9926062-0.4210777c0.6179152-1.7868729,1.8256226-3.4805012,3.2180719-5.0099983
		c6.5670052-7.213357,17.6646976-7.7359324,24.756712-1.2793999c1.5294952,1.3924484,2.655323,2.9772625,3.610836,4.6316509
		l-4.4386864,0.2088985l4.7015915,5.3962555l4.7002335,5.3975925l4.2875366-5.9353161l4.2991486-5.7043133L53.3456078,20.8695011z"
		/>
	<path class="st0" d="M42.0236969,41.5351028c-6.4565353,7.0920105-17.665432,7.7339134-24.879528,1.1662331
		c-1.8956051-1.72575-3.2282333-3.9465942-4.3888731-6.2314301L17.7174492,36.1777l-4.8203125-5.3934479l-4.6996374-5.3983994
		l-4.2322001,5.8775063l-4.1737065,5.8145943l4.3780518-0.2641029c1.2628088,4.5053482,3.6857882,8.7213326,7.3541746,12.0610161
		c10.5777493,9.6299324,27.0427246,8.8590088,36.6733322-1.7194786c3.3396797-3.6683884,5.5285835-8.1587334,6.2536659-12.6411591
		l-8.5850449,0.3417931C45.1013718,37.2913208,43.8605347,39.5174789,42.0236969,41.5351028L42.0236969,41.5351028z"/>
</g>
<g id="Layer_1">
</g>
</svg>
