<?xml version="1.0" encoding="utf-8"?>
<!-- Generator: Adobe Illustrator 26.0.3, SVG Export Plug-In . SVG Version: 6.00 Build 0)  -->
<svg version="1.1" xmlns="http://www.w3.org/2000/svg" xmlns:xlink="http://www.w3.org/1999/xlink" x="0px" y="0px"
	 viewBox="0 0 20 20" style="enable-background:new 0 0 20 20;" xml:space="preserve" width="12px">
<style type="text/css">
	.st100{fill:#FFFFFF;}
</style>
<g id="Object">
	<path class="st100" d="M19.7677536,18.6481075l-5.9722309-5.9723654c2.4858704-3.049509,2.308403-7.5606718-0.5325394-10.4017773
		c-1.4678621-1.4676931-3.4195681-2.2758377-5.4951997-2.2758377c-2.0755973,0-4.0273366,0.8081445-5.4953346,2.2759731
		c-3.0299318,3.0302639-3.0299318,7.9607453,0,10.990839c1.4679983,1.4678621,3.4195683,2.2763119,5.4953346,2.2763119
		c1.8091083,0,3.5235686-0.6144781,4.9061027-1.7439423l5.9722643,5.9724007
		c0.1549339,0.1547623,0.357851,0.2321625,0.5608025,0.2321625c0.2029495,0,0.4058666-0.0774002,0.5608006-0.2321625
		C20.0774155,19.4600487,20.0774155,18.9578037,19.7677536,18.6481075z M3.3940508,12.1433382
		C0.982393,9.7317104,0.982393,5.8073506,3.3938816,3.3955674C4.5623159,2.227438,6.1156759,1.5839859,7.7677836,1.5839859
		c1.652142,0,3.205502,0.643452,4.3737674,1.8115815c2.4117928,2.4117832,2.4117928,6.336143,0,8.7477703
		c-1.1684351,1.1684341-2.7216253,1.8118868-4.3737674,1.8118868C6.1156759,13.955225,4.5624514,13.3117723,3.3940508,12.1433382z"
		/>
</g>
</svg>
