<?xml version="1.0" encoding="utf-8"?>
<!-- Generator: Adobe Illustrator 26.0.3, SVG Export Plug-In . SVG Version: 6.00 Build 0)  -->
<svg version="1.1" id="Слой_1" xmlns="http://www.w3.org/2000/svg" xmlns:xlink="http://www.w3.org/1999/xlink" x="0px" y="0px"
	 viewBox="0 0 16 16" style="enable-background:new 0 0 16 16;" xml:space="preserve" width="15px">
<style type="text/css">
	.st0{fill:#FFFFFF;}
</style>
<path class="st0" d="M15.1999998,6l-1.1000004-0.1999998c-0.1000004-0.1999998-0.1000004-0.4000001-0.1999998-0.5999999
	L14.5,4.3000002l0.5-0.7l-2.6000004-2.5999999l-0.6999998,0.5l-0.8999996,0.6000001
	c-0.1999998-0.0999999-0.3999996-0.0999999-0.6000004-0.2L10,0.8000003l-0.1999998-0.8H6.2000003l-0.1999998,0.8l-0.1999998,1.1
	c-0.1999998,0.0999999-0.4000001,0.0999999-0.5999999,0.2l-0.9000001-0.6l-0.7-0.4l-2.5,2.5l0.5,0.6999998l0.6000001,0.9000001
	c-0.2,0.1999998-0.2,0.4000001-0.3,0.5999999L0.8000008,6l-0.8,0.1999998v3.5999994l0.8,0.1999998l1.1,0.1999998
	c0.0999999,0.1999998,0.0999999,0.3999996,0.2,0.6000004l-0.6,0.8999996l-0.5,0.6999998l2.5999999,2.5999994l0.6999998-0.5
	l0.9000001-0.6000004c0.1999998,0.1000004,0.4000001,0.1000004,0.5999999,0.1999998l0.1999998,1.1000004l0.1999998,0.8000002
	h3.5999999L10,15.1999979l0.1999998-1.1000004c0.1999998-0.1000004,0.3999996-0.1000004,0.6000004-0.1999998l0.8999996,0.6000004
	l0.6999998,0.5L15,12.3999977l-0.5-0.6999998l-0.6000004-0.8999996C14,10.5999985,14.0999994,10.3999987,14.0999994,10.1999979
	l1.1000004-0.1999998L16,9.7999983V6.1999984C16,6.1999984,15.1999998,5.9999986,15.1999998,6z M15,9l-1.6999998,0.3000002
	c-0.1000004,0.5-0.3000002,1-0.6000004,1.5l0.8999996,1.3999996l-1.3999996,1.3999996l-1.3999996-0.8999996
	c-0.5,0.3000002-1,0.5-1.5,0.6000004L9,15H7l-0.3000002-1.6999998c-0.5-0.1000004-1-0.3000002-1.5-0.6000004l-1.4000001,0.8999996
	l-1.4000001-1.3999996l0.9000001-1.3999996c-0.3-0.5-0.5-1-0.5999999-1.5L0.9999998,9V7l1.7-0.3000002
	c0.0999999-0.5,0.3-1,0.5999999-1.5l-1-1.4000001l1.4000001-1.4000001l1.4000001,0.9000001c0.5-0.3,1-0.5,1.5-0.5999999L7,0.9999998
	h2l0.3000002,1.7c0.5,0.0999999,1,0.3,1.5,0.5999999l1.3999996-0.9000001l1.3999996,1.4000001l-0.8999996,1.4000001
	c0.3000002,0.5,0.5,1,0.6000004,1.5L15,7V9z"/>
<path class="st0" d="M8,4.5C6.0999999,4.5,4.5,6.0999999,4.5,8s1.5999999,3.5,3.5,3.5s3.5-1.6000004,3.5-3.5S9.8999996,4.5,8,4.5z
	 M8,10.5c-1.4000001,0-2.5-1.1000004-2.5-2.5S6.5999999,5.5,8,5.5s2.5,1.0999999,2.5,2.5S9.3999996,10.5,8,10.5z"/>
</svg>
