<?xml version="1.0" encoding="utf-8"?>
<!-- Generator: Adobe Illustrator 26.0.3, SVG Export Plug-In . SVG Version: 6.00 Build 0)  -->
<svg version="1.1" id="Icons" xmlns="http://www.w3.org/2000/svg" xmlns:xlink="http://www.w3.org/1999/xlink" x="0px" y="0px"
	 viewBox="0 0 32 32" style="enable-background:new 0 0 32 32;" xml:space="preserve" width="15px">
<style type="text/css">
	.st0{fill:#FFFFFF;}
</style>
<path class="st0" d="M15.9893618,0.4680851c-8.618618,0-15.6702127,5.8799391-15.6702127,13.2021275v3.8829775
	c0,0.1109428,0,0.1109428,0,0.2218857s0,0.3328266,0,0.4437695c0,3.1063824,2.8728721,5.5471115,6.5292554,5.5471115
	c0.7835112,0,1.3058505-0.4437675,1.3058505-1.1094227v-8.8753796c0-0.6656532-0.5223393-1.1094217-1.3058505-1.1094217
	c-1.4364362,0-2.8728724,0.4437685-3.9175534,1.1094217v-0.2218838c0-5.9908824,5.8763294-10.8723412,13.0585108-10.8723412
	s13.0585108,4.8814583,13.0585108,10.9832821v0.1109419c-1.0446796-0.6656532-2.4811172-1.1094217-3.9175529-1.1094217
	c-0.7835121,0-1.305851,0.4437685-1.305851,1.1094217v8.8753796c0,0.6656551,0.5223389,1.1094227,1.305851,1.1094227
	c0.9140968,0,1.8281898-0.2218857,2.611702-0.4437675c-1.305851,2.3297863-3.6563816,4.1048641-6.5292549,5.103344
	c0-0.1109428,0-0.1109428,0-0.2218857c0-0.6656532-0.5223408-1.1094227-1.305851-1.1094227h-3.9175539
	c-0.7835112,0-1.305851,0.4437695-1.305851,1.1094227v2.2188454c0,0.6656532,0.5223398,1.1094227,1.305851,1.1094227
	c8.6186171,0,15.6702127-5.7689991,15.6702127-12.8693027v-1.1094227v-2.6626129v-1.2203646
	C31.6595745,6.3480244,24.6079788,0.4680851,15.9893618,0.4680851z"/>
</svg>
