<svg xmlns="http://www.w3.org/2000/svg" width="110" height="110" viewBox="0 0 110 110"><defs><style>.cls-1{fill:#fff;}.cls-2{fill:#bb1a23;}</style></defs><title>Нити - Петля на манжете</title><g id="Нити"><g id="Петля_на_манжете" data-name="Петля на манжете"><g id="Цвет-33" data-name="Цвет"><path class="cls-1" d="M.5,48.094V8.219C.5,6.335,5.92,4.7,13.176,3.757A164.9,164.9,0,0,1,38.917,2.552a1.793,1.793,0,0,1,1.4.979c7.4.979,14.7,2.226,14.688,4.75-.042,9.938,0,29.625,0,39.875,0,3.758-15.937,5.435-28.312,5.313C13.75,53.341.5,51.47.5,48.094Z"/></g><g id="Контур-33" data-name="Контур"><path class="cls-2" d="M32.535,23.8a1.977,1.977,0,0,1-.337-.028l.166-.986a1.04,1.04,0,0,0,.167.015c.438,0,.866-.006,1.295-.006h.237a1,1,0,1,0,.023-2c-.519,0-1.043,0-1.564.006a1.115,1.115,0,0,0-.207.022l-.212-.977a1.976,1.976,0,0,1,.41-.046c.524,0,1.052-.006,1.574-.006a2,2,0,0,1,0,4c-.05,0-.115,0-.181,0C33.4,23.8,32.974,23.8,32.535,23.8Z"/><path class="cls-2" d="M32.531,22.3a.5.5,0,0,1,0-1q.778-.007,1.558-.007a.5.5,0,0,1,0,1q-.776,0-1.548.007Z"/><path class="cls-2" d="M21.995,24.229a2,2,0,0,1-.143-4q.719-.051,1.435-.1a1.806,1.806,0,0,1,.4.015l-.138.99a.816.816,0,0,0-.2-.007q-.716.045-1.428.1A1,1,0,0,0,21,22.3a1,1,0,0,0,1,.928l1.472-.1a1.057,1.057,0,0,0,.226-.038l.269.963a2.062,2.062,0,0,1-.42.072c-.474.03-.937.061-1.4.095C22.094,24.227,22.044,24.229,21.995,24.229Z"/><path class="cls-2" d="M22,22.729a.5.5,0,0,1-.036-1q.712-.051,1.423-.1a.5.5,0,1,1,.063,1q-.707.045-1.414.1Z"/><path d="M40.626,3.089a2.476,2.476,0,0,0-1.967-1.062A170.842,170.842,0,0,0,13.974,3.139C9.772,3.614,0,5.06,0,8.219v40c0,3.734,14.3,5.75,27.75,5.75s27.75-2.016,27.75-5.75v-40C55.5,4.99,45.257,3.566,40.626,3.089ZM54.5,8.219v.861a.482.482,0,0,0-.082-.09A8.622,8.622,0,0,0,52.545,8a.5.5,0,1,0-.374.928,7.645,7.645,0,0,1,1.654.869.49.49,0,0,0,.675-.085V44.543a.5.5,0,0,0-.193.1.5.5,0,0,0-.054.705.86.86,0,0,1,.247.539v.7l-.023-.016a.483.483,0,0,0-.042-.03c-3.3-2.471-13.794-3.869-24.318-4.052a4.7,4.7,0,0,0,.5-.415l.888-.888c.607.016,1.209.035,1.8.059h.021a.5.5,0,0,0,.021-1c-.288-.012-.583-.019-.874-.029L39.694,33a4.712,4.712,0,0,0,1.389-3.354v-23c.5.054.991.108,1.467.168a.464.464,0,0,0,.063,0,.5.5,0,0,0,.062-1c-.516-.064-1.053-.124-1.592-.182V4.533a2.546,2.546,0,0,0-.038-.392C50.273,5.144,54.5,6.94,54.5,8.219ZM14.086,4.133A169.591,169.591,0,0,1,38.63,3.026a1.5,1.5,0,0,1,1.453,1.507V29.649a3.719,3.719,0,0,1-1.1,2.646l-9.073,9.072A3.737,3.737,0,0,1,27.3,42.462c-.184,0-.364.009-.547.011-10.94.081-22.184,1.483-25.658,4.049A.48.48,0,0,0,1,46.575v-.69c0-.419.5-.828.919-1.1a.5.5,0,0,0-.54-.842A4.644,4.644,0,0,0,1,44.232V10.141a.506.506,0,0,0,.07.014.5.5,0,0,0,.34-.134,5.871,5.871,0,0,1,1.564-.946.5.5,0,1,0-.408-.912A7.6,7.6,0,0,0,1,9.066V8.219C1,6.924,5.5,5.1,14.086,4.133ZM27.75,52.969C10.526,52.969,1,50.16,1,48.219a.979.979,0,0,1,.314-.61,9.175,9.175,0,0,0,1.529.787.49.49,0,0,0,.191.038.5.5,0,0,0,.191-.962,9.191,9.191,0,0,1-1.05-.509c2.069-1.171,6.858-2.379,14.1-3.023a.5.5,0,0,0,.2.026c3.092-.26,6.387-.418,9.794-.483.493,0,.97-.015,1.476-.015,13.736,0,22.556,1.786,25.574,3.494a9.189,9.189,0,0,1-1.061.514.5.5,0,0,0,.191.962.488.488,0,0,0,.191-.038,9.171,9.171,0,0,0,1.541-.792.98.98,0,0,1,.314.611C54.5,50.16,44.974,52.969,27.75,52.969ZM44.1,6.517a.5.5,0,0,1,.569-.42q1.036.157,1.989.333a.5.5,0,0,1-.09.991.486.486,0,0,1-.091-.009q-.936-.173-1.957-.327A.5.5,0,0,1,44.1,6.517Zm3.939.694a.5.5,0,0,1,.6-.377c.705.159,1.362.328,1.967.5a.5.5,0,0,1-.139.98.491.491,0,0,1-.139-.02q-.88-.256-1.909-.489A.5.5,0,0,1,48.039,7.211ZM41.81,41.387a.5.5,0,0,1-.5.444l-.056,0q-.966-.108-1.98-.2a.5.5,0,0,1,.09-1q1.025.092,2,.2A.5.5,0,0,1,41.81,41.387ZM37.826,41a.5.5,0,0,1-.5.464h-.036q-.977-.07-1.989-.128a.5.5,0,0,1-.471-.527.473.473,0,0,1,.527-.471q1.019.057,2,.128A.5.5,0,0,1,37.826,41Zm13.455,1.706a16.105,16.105,0,0,1,1.927.742.5.5,0,1,1-.427.9,15.157,15.157,0,0,0-1.806-.693.5.5,0,0,1,.306-.953Zm-7.916-1.632q1.032.138,1.993.294a.5.5,0,0,1-.079.993.447.447,0,0,1-.08-.007c-.631-.1-1.288-.2-1.966-.29a.5.5,0,0,1-.429-.562A.489.489,0,0,1,43.365,41.079Zm3.98.648q1.047.207,1.976.435a.5.5,0,1,1-.237.971q-.907-.221-1.933-.425a.5.5,0,0,1,.194-.98ZM35.579,32.876a.5.5,0,0,1,0-.707l1.414-1.415a.5.5,0,0,1,.707.707l-1.414,1.415a.5.5,0,0,1-.707,0Zm3-21.537v2a.5.5,0,1,1-1,0v-2a.5.5,0,0,1,1,0Zm0-4v2a.5.5,0,1,1-1,0v-2a.5.5,0,0,1,1,0ZM23.918,5.25a.5.5,0,0,1,.473-.526q1.007-.054,2-.1a.522.522,0,0,1,.521.479.5.5,0,0,1-.478.521q-.99.041-1.992.1h-.027A.5.5,0,0,1,23.918,5.25Zm7.993-.277a.5.5,0,0,1,.5-.5q.857-.007,1.708-.008h.3a.5.5,0,0,1,0,1h-.3c-.56,0-1.126,0-1.694.008h0A.5.5,0,0,1,31.911,4.973Zm-4,.095a.5.5,0,0,1,.483-.516q1.008-.032,2-.053a.5.5,0,1,1,.021,1q-.992.021-1.993.053h-.017A.5.5,0,0,1,27.913,5.067Zm8-.1a.535.535,0,0,1,.508-.492q.84.013,1.678.033a.5.5,0,0,1,.488.5v.327a.5.5,0,0,1-.973.162q-.6-.013-1.208-.022A.5.5,0,0,1,35.91,4.971ZM29.215,39.24a.5.5,0,0,1,0,.707l-.361.36a2.979,2.979,0,0,1-1.61.809l-.051,0a.5.5,0,0,1-.05-1,2.016,2.016,0,0,0,1-.522l.36-.359A.5.5,0,0,1,29.215,39.24Zm9.368-23.9v2a.5.5,0,1,1-1,0v-2a.5.5,0,0,1,1,0ZM32.043,36.411a.5.5,0,0,1,0,.707l-1.414,1.414a.5.5,0,0,1-.707-.707l1.414-1.414A.5.5,0,0,1,32.043,36.411Zm-6.35,4.231a.5.5,0,0,1-.489.511q-1.009.022-1.994.056h-.018a.5.5,0,0,1-.017-1q.991-.034,2.006-.056A.5.5,0,0,1,25.693,40.643Zm12.89-21.3v2a.5.5,0,1,1-1,0v-2a.5.5,0,0,1,1,0Zm0,8v2a.5.5,0,1,1-1,0v-2a.5.5,0,0,1,1,0Zm0-4v2a.5.5,0,1,1-1,0v-2a.5.5,0,0,1,1,0ZM34.872,33.583a.5.5,0,0,1,0,.707L33.458,35.7A.5.5,0,0,1,32.75,35l1.414-1.414A.5.5,0,0,1,34.872,33.583ZM8.035,7.051a.5.5,0,0,1,.392-.589q.949-.19,1.984-.363a.5.5,0,0,1,.165.986q-1.017.17-1.952.357a.491.491,0,0,1-.1.01A.5.5,0,0,1,8.035,7.051Zm3.129,34.171q.965-.141,2-.266a.491.491,0,0,1,.557.436.5.5,0,0,1-.436.557q-1.017.125-1.971.264a.629.629,0,0,1-.073,0,.5.5,0,0,1-.072-1Zm.812-34.86A.5.5,0,0,1,12.4,5.8q.97-.138,2-.257a.5.5,0,0,1,.115.994q-1.012.117-1.972.253a.574.574,0,0,1-.07,0A.5.5,0,0,1,11.976,6.361ZM4.168,8.072a.5.5,0,0,1,.327-.627c.6-.188,1.253-.37,1.958-.544a.5.5,0,0,1,.239.971c-.684.168-1.317.344-1.9.526a.5.5,0,0,1-.627-.326Zm-.9,34.965c.572-.216,1.228-.427,1.949-.626a.5.5,0,0,1,.266.965c-.691.19-1.317.392-1.861.6A.511.511,0,0,1,3.45,44a.5.5,0,0,1-.177-.968Zm11.885-2.3q.979-.1,2-.182a.494.494,0,0,1,.539.458.5.5,0,0,1-.458.538q-1.013.082-1.982.18l-.051,0a.5.5,0,0,1-.05-1Zm-7.967,1.2q.939-.205,1.983-.389a.5.5,0,1,1,.173.984q-1.022.18-1.943.381a.5.5,0,1,1-.213-.977Zm11.974-1.524q.987-.063,2.005-.113a.492.492,0,0,1,.524.475.5.5,0,0,1-.475.523q-1.011.05-1.991.113H19.2a.5.5,0,0,1-.031-1Zm.765-34.886a.5.5,0,0,1,.461-.537q1.006-.076,2-.141a.492.492,0,0,1,.531.467.5.5,0,0,1-.467.531q-.988.064-1.989.141h-.038A.5.5,0,0,1,19.929,5.521Zm-3.983.353a.5.5,0,0,1,.449-.547l.118-.012q.948-.091,1.88-.17a.5.5,0,0,1,.085,1q-.927.079-1.868.17l-.119.012-.049,0A.5.5,0,0,1,15.946,5.873Zm11.3,45.1a.5.5,0,0,1-.5.5h0q-1.014-.007-2.007-.028a.5.5,0,1,1,.021-1q.987.021,1.994.028A.5.5,0,0,1,27.244,50.97Zm4-.042a.5.5,0,0,1-.49.51q-.993.019-2.007.027h0a.5.5,0,0,1,0-1q1.006-.007,1.994-.027A.468.468,0,0,1,31.244,50.928Zm-8-.029a.5.5,0,0,1-.5.482h-.019q-1.017-.037-2.006-.088a.5.5,0,0,1-.474-.524.493.493,0,0,1,.525-.474q.981.05,1.992.086A.5.5,0,0,1,23.243,50.9Zm12-.13a.5.5,0,0,1-.474.524q-.989.05-2.006.088h-.019a.5.5,0,0,1-.018-1q1.009-.037,1.991-.086A.491.491,0,0,1,35.242,50.769Zm3.991-.285a.5.5,0,0,1-.456.54q-.982.082-2,.152h-.034a.5.5,0,0,1-.033-1q1.012-.069,1.987-.15A.5.5,0,0,1,39.233,50.483Zm7.926-1.078a.5.5,0,0,1-.4.583q-.951.177-1.989.336a.5.5,0,1,1-.15-.988q1.019-.155,1.957-.33A.5.5,0,0,1,47.159,49.405Zm-3.949.637a.5.5,0,0,1-.432.56q-.972.125-2,.231l-.053,0a.5.5,0,0,1-.052-1c.677-.071,1.336-.146,1.976-.229A.5.5,0,0,1,43.21,50.042Zm-23.964.666a.5.5,0,0,1-.5.467h-.034q-1.02-.067-2-.152a.5.5,0,0,1-.456-.541.492.492,0,0,1,.541-.455q.973.083,1.985.15A.5.5,0,0,1,19.246,50.708Zm-3.988-.321a.5.5,0,0,1-.5.448l-.053,0q-1.025-.107-2-.23a.5.5,0,1,1,.126-.992q.961.123,1.977.229A.5.5,0,0,1,15.258,50.387ZM51.043,48.45a.5.5,0,0,1-.338.62c-.6.178-1.26.349-1.966.51a.492.492,0,0,1-.112.013.5.5,0,0,1-.111-.987c.685-.157,1.322-.322,1.907-.494A.5.5,0,0,1,51.043,48.45Zm-43.7.753a.5.5,0,0,1-.6.375c-.705-.163-1.362-.333-1.965-.511a.5.5,0,0,1,.282-.959c.585.172,1.223.338,1.907.5A.5.5,0,0,1,7.348,49.2Zm3.938.7a.5.5,0,0,1-.494.424.511.511,0,0,1-.077-.006q-1.036-.16-1.988-.337a.5.5,0,0,1-.4-.583.493.493,0,0,1,.583-.4q.935.174,1.957.331A.5.5,0,0,1,11.286,49.905ZM28,27.031a5.063,5.063,0,1,0-5.062-5.062A5.069,5.069,0,0,0,28,27.031Zm0-9a3.938,3.938,0,1,1-3.937,3.938A3.942,3.942,0,0,1,28,18.031Zm-1.562,4.938v-2a.563.563,0,0,1,1.125,0v2a.563.563,0,0,1-1.125,0Zm2,0v-2a.563.563,0,0,1,1.125,0v2a.563.563,0,0,1-1.125,0Z"/></g><g id="Выноска"><path class="cls-1" d="M68.5,27a41.313,41.313,0,0,0-24.941,8.332l-11.725-7L38.05,40.314A41.493,41.493,0,1,0,68.5,27Z"/><path class="cls-2" d="M68.5,28A40.518,40.518,0,1,1,38.784,40.993a1,1,0,0,0,.154-1.14l-4.6-8.858,8.7,5.2a1,1,0,0,0,1.114-.06A40.147,40.147,0,0,1,68.5,28m0-1a41.313,41.313,0,0,0-24.941,8.332l-11.725-7,6.217,11.98A41.493,41.493,0,1,0,68.5,27Z"/><path class="cls-2" d="M50.625,73H44a4.5,4.5,0,0,1,0-9h6.625a.5.5,0,0,1,0,1H44a3.5,3.5,0,0,0,0,7h6.625a.5.5,0,0,1,0,1Z"/><path class="cls-2" d="M93,73H86.25a.5.5,0,0,1,0-1H93a3.5,3.5,0,0,0,0-7H86.375a.5.5,0,1,1,0-1H93a4.5,4.5,0,0,1,0,9Z"/><path class="cls-2" d="M93,70H86.75a.5.5,0,0,1,0-1H93a.5.5,0,0,0,0-1H86.75a.5.5,0,0,1,0-1H93a1.5,1.5,0,0,1,0,3Z"/><path class="cls-2" d="M50.375,70H44a1.5,1.5,0,0,1,0-3h6.375a.5.5,0,0,1,0,1H44a.5.5,0,0,0,0,1h6.375a.5.5,0,0,1,0,1Z"/><path d="M68.5,87A18.5,18.5,0,1,1,87,68.5,18.521,18.521,0,0,1,68.5,87Zm0-36A17.5,17.5,0,1,0,86,68.5,17.52,17.52,0,0,0,68.5,51Z"/><path d="M68.5,82A13.5,13.5,0,1,1,82,68.5a.5.5,0,0,1-1,0A12.5,12.5,0,1,0,68.5,81a.5.5,0,0,1,0,1Z"/><path d="M64.5,67A2.5,2.5,0,1,1,67,64.5,2.5,2.5,0,0,1,64.5,67Zm0-4A1.5,1.5,0,1,0,66,64.5,1.5,1.5,0,0,0,64.5,63Z"/><path d="M72.5,67A2.5,2.5,0,1,1,75,64.5,2.5,2.5,0,0,1,72.5,67Zm0-4A1.5,1.5,0,1,0,74,64.5,1.5,1.5,0,0,0,72.5,63Z"/><path d="M64.5,75A2.5,2.5,0,1,1,67,72.5,2.5,2.5,0,0,1,64.5,75Zm0-4A1.5,1.5,0,1,0,66,72.5,1.5,1.5,0,0,0,64.5,71Z"/><path d="M72.5,75A2.5,2.5,0,1,1,75,72.5,2.5,2.5,0,0,1,72.5,75Zm0-4A1.5,1.5,0,1,0,74,72.5,1.5,1.5,0,0,0,72.5,71Z"/><path class="cls-1" d="M64.5,72.5a1,1,0,0,1-1-1v-6a1,1,0,0,1,2,0v6A1,1,0,0,1,64.5,72.5Z"/><path d="M64.5,73A1.5,1.5,0,0,1,63,71.5v-6a1.5,1.5,0,0,1,3,0v6A1.5,1.5,0,0,1,64.5,73Zm0-8a.5.5,0,0,0-.5.5v6a.5.5,0,0,0,1,0v-6A.5.5,0,0,0,64.5,65Z"/><path class="cls-1" d="M72.5,72.5a1,1,0,0,1-1-1v-6a1,1,0,0,1,2,0v6A1,1,0,0,1,72.5,72.5Z"/><path d="M72.5,73A1.5,1.5,0,0,1,71,71.5v-6a1.5,1.5,0,0,1,3,0v6A1.5,1.5,0,0,1,72.5,73Zm0-8a.5.5,0,0,0-.5.5v6a.5.5,0,0,0,1,0v-6A.5.5,0,0,0,72.5,65Z"/></g></g></g></svg>