<svg xmlns="http://www.w3.org/2000/svg" xmlns:xlink="http://www.w3.org/1999/xlink" width="110" height="110" viewBox="0 0 110 110"><defs><style>.cls-1{fill:url(#Безымянный_градиент_312);}.cls-2{fill:#bb1a23;}.cls-3{fill:#fff;}</style><radialGradient id="Безымянный_градиент_312" cx="27.333" cy="0.542" r="52.662" gradientUnits="userSpaceOnUse"><stop offset="0.648" stop-color="#fff"/><stop offset="1" stop-color="#fff" stop-opacity="0"/></radialGradient></defs><title>Нити - Цвет петли на воротнике сзади</title><g id="Нити"><g id="Цвет_петли_на_воротнике_сзади" data-name="Цвет петли на воротнике сзади"><g id="Цвет-44" data-name="Цвет"><path class="cls-1" d="M27.5,53.084a49.4,49.4,0,0,0,22.625-5.625V14.271l-6.25-2.625-.5-1.437L40,2.959A27.92,27.92,0,0,0,27.5.334c-4.812,0-9.437.978-12.5,2.625l-3.375,7.25-.5,1.438-6.25,2.625V47.459A49.4,49.4,0,0,0,27.5,53.084Z"/></g><g id="Контур-44" data-name="Контур"><path d="M50.821,14.107,44.215,11.3a7.2,7.2,0,0,0-.453-1.339L40.454,2.79a.5.5,0,0,0-.188-.213C37.661.939,33.008,0,27.5,0S17.339.939,14.734,2.577a.5.5,0,0,0-.188.213L11.238,9.957a7.187,7.187,0,0,0-.454,1.339L4.337,14.04a.5.5,0,0,0,.2.96.493.493,0,0,0,.2-.04l6.579-2.8H43.693l6.736,2.867a.5.5,0,1,0,.393-.92ZM11.847,11.16a6.131,6.131,0,0,1,.3-.783l3.244-7.03C17.865,1.854,22.265,1,27.5,1s9.635.854,12.109,2.347l3.244,7.03a6.131,6.131,0,0,1,.3.783Z"/><path class="cls-2" d="M29,6h-.092a1.491,1.491,0,0,0-2.816,0H26a.5.5,0,0,0,0,1h.092a1.491,1.491,0,0,0,2.816,0H29a.5.5,0,0,0,0-1ZM27.5,7a.5.5,0,1,1,.5-.5A.5.5,0,0,1,27.5,7Z"/></g><g id="Выноска-12" data-name="Выноска"><path class="cls-3" d="M68.75,27.5a41.057,41.057,0,0,0-18.991,4.635L29.5,8.5,41.546,37.755A41.239,41.239,0,1,0,68.75,27.5Z"/><path class="cls-2" d="M32.8,13.885,49,32.786a1,1,0,0,0,1.22.237A39.793,39.793,0,0,1,68.75,28.5,40.275,40.275,0,1,1,42.206,38.507a1,1,0,0,0,.265-1.132L32.8,13.885M29.5,8.5,41.546,37.755a41.179,41.179,0,1,0,8.212-5.62L29.5,8.5Z"/><path class="cls-2" d="M50.625,73H44a4.5,4.5,0,0,1,0-9h6.625a.5.5,0,0,1,0,1H44a3.5,3.5,0,0,0,0,7h6.625a.5.5,0,0,1,0,1Z"/><path class="cls-2" d="M93,73H86.25a.5.5,0,0,1,0-1H93a3.5,3.5,0,0,0,0-7H86.375a.5.5,0,0,1,0-1H93a4.5,4.5,0,0,1,0,9Z"/><path class="cls-2" d="M93,70H86.75a.5.5,0,0,1,0-1H93a.5.5,0,0,0,0-1H86.75a.5.5,0,0,1,0-1H93a1.5,1.5,0,0,1,0,3Z"/><path class="cls-2" d="M50.375,70H44a1.5,1.5,0,0,1,0-3h6.375a.5.5,0,0,1,0,1H44a.5.5,0,0,0,0,1h6.375a.5.5,0,0,1,0,1Z"/><path d="M68.5,87A18.5,18.5,0,1,1,87,68.5,18.521,18.521,0,0,1,68.5,87Zm0-36A17.5,17.5,0,1,0,86,68.5,17.52,17.52,0,0,0,68.5,51Z"/><path d="M68.5,82A13.5,13.5,0,1,1,82,68.5a.5.5,0,0,1-1,0A12.5,12.5,0,1,0,68.5,81a.5.5,0,0,1,0,1Z"/><path d="M64.5,67A2.5,2.5,0,1,1,67,64.5,2.5,2.5,0,0,1,64.5,67Zm0-4A1.5,1.5,0,1,0,66,64.5,1.5,1.5,0,0,0,64.5,63Z"/><path d="M72.5,67A2.5,2.5,0,1,1,75,64.5,2.5,2.5,0,0,1,72.5,67Zm0-4A1.5,1.5,0,1,0,74,64.5,1.5,1.5,0,0,0,72.5,63Z"/><path d="M64.5,75A2.5,2.5,0,1,1,67,72.5,2.5,2.5,0,0,1,64.5,75Zm0-4A1.5,1.5,0,1,0,66,72.5,1.5,1.5,0,0,0,64.5,71Z"/><path d="M72.5,75A2.5,2.5,0,1,1,75,72.5,2.5,2.5,0,0,1,72.5,75Zm0-4A1.5,1.5,0,1,0,74,72.5,1.5,1.5,0,0,0,72.5,71Z"/><path class="cls-3" d="M64.5,72.5a1,1,0,0,1-1-1v-6a1,1,0,0,1,2,0v6A1,1,0,0,1,64.5,72.5Z"/><path d="M64.5,73A1.5,1.5,0,0,1,63,71.5v-6a1.5,1.5,0,0,1,3,0v6A1.5,1.5,0,0,1,64.5,73Zm0-8a.5.5,0,0,0-.5.5v6a.5.5,0,0,0,1,0v-6A.5.5,0,0,0,64.5,65Z"/><path class="cls-3" d="M72.5,72.5a1,1,0,0,1-1-1v-6a1,1,0,0,1,2,0v6A1,1,0,0,1,72.5,72.5Z"/><path d="M72.5,73A1.5,1.5,0,0,1,71,71.5v-6a1.5,1.5,0,0,1,3,0v6A1.5,1.5,0,0,1,72.5,73Zm0-8a.5.5,0,0,0-.5.5v6a.5.5,0,0,0,1,0v-6A.5.5,0,0,0,72.5,65Z"/></g></g></g></svg>