<svg xmlns="http://www.w3.org/2000/svg" width="110" height="110" viewBox="0 0 110 110"><defs><style>.cls-1{fill:#fff;}.cls-2{fill:#bb1a23;}</style></defs><title>Нити - Пуговичная нить на манжете</title><g id="Нити"><g id="Пуговичная_нить_на_манжете" data-name="Пуговичная нить на манжете"><g id="Цвет-36" data-name="Цвет"><path class="cls-1" d="M.5,48.094V8.219C.5,6.335,5.92,4.7,13.176,3.757A164.9,164.9,0,0,1,38.917,2.552a1.793,1.793,0,0,1,1.4.979c7.4.979,14.7,2.226,14.688,4.75-.042,9.938,0,29.625,0,39.875,0,3.758-15.937,5.435-28.313,5.313C13.75,53.341.5,51.47.5,48.094Z"/></g><g id="Контур-36" data-name="Контур"><path d="M40.626,3.089a2.476,2.476,0,0,0-1.967-1.062A170.848,170.848,0,0,0,13.974,3.139C9.772,3.614,0,5.06,0,8.219v40c0,3.734,14.3,5.75,27.75,5.75s27.75-2.016,27.75-5.75v-40C55.5,4.99,45.257,3.566,40.626,3.089ZM54.5,8.219v.861a.482.482,0,0,0-.082-.09A8.622,8.622,0,0,0,52.545,8a.5.5,0,1,0-.374.928,7.645,7.645,0,0,1,1.654.869.49.49,0,0,0,.675-.085V44.543a.493.493,0,0,0-.247.8.86.86,0,0,1,.247.539v.7l-.022-.016a.5.5,0,0,0-.043-.03c-3.3-2.471-13.794-3.869-24.318-4.052a4.7,4.7,0,0,0,.5-.415l.888-.888c.607.016,1.209.035,1.8.059h.021a.5.5,0,0,0,.021-1c-.288-.012-.583-.019-.874-.029L39.694,33a4.712,4.712,0,0,0,1.389-3.354v-23c.5.054.991.108,1.467.168a.464.464,0,0,0,.063,0,.5.5,0,0,0,.062-1c-.516-.064-1.053-.124-1.592-.182V4.533a2.546,2.546,0,0,0-.038-.392C50.273,5.144,54.5,6.94,54.5,8.219ZM14.086,4.133A169.591,169.591,0,0,1,38.63,3.026a1.5,1.5,0,0,1,1.453,1.507V29.649a3.719,3.719,0,0,1-1.1,2.646l-9.073,9.072A3.737,3.737,0,0,1,27.3,42.462c-.184,0-.364.009-.547.011-10.94.081-22.184,1.483-25.659,4.049A.5.5,0,0,0,1,46.575v-.69c0-.419.5-.828.919-1.1a.5.5,0,0,0-.54-.842A4.644,4.644,0,0,0,1,44.232V10.141a.506.506,0,0,0,.07.014.5.5,0,0,0,.34-.134,5.871,5.871,0,0,1,1.564-.946.5.5,0,1,0-.408-.912A7.6,7.6,0,0,0,1,9.066V8.219C1,6.924,5.5,5.1,14.086,4.133ZM27.75,52.969C10.526,52.969,1,50.16,1,48.219a.979.979,0,0,1,.314-.61,9.175,9.175,0,0,0,1.529.787.49.49,0,0,0,.191.038.5.5,0,0,0,.191-.962,9.191,9.191,0,0,1-1.05-.509c2.069-1.171,6.858-2.379,14.1-3.023a.5.5,0,0,0,.2.026c3.092-.26,6.387-.418,9.794-.483.493,0,.97-.015,1.476-.015,13.736,0,22.556,1.786,25.574,3.494a9.189,9.189,0,0,1-1.061.514.5.5,0,0,0,.191.962.488.488,0,0,0,.191-.038,9.171,9.171,0,0,0,1.541-.792.98.98,0,0,1,.314.611C54.5,50.16,44.974,52.969,27.75,52.969Zm-5.9-32.8a2.063,2.063,0,0,0-1.909,2.207,2.069,2.069,0,0,0,2.056,1.913c.051,0,.1,0,.15-.006.441-.031.883-.06,1.332-.089a5.039,5.039,0,0,0,9.211-.336c.386,0,.769-.005,1.213,0,.067,0,.135,0,.182,0a2.063,2.063,0,0,0,0-4.125c-.52,0-1.044,0-1.566.006a5.039,5.039,0,0,0-9.208.339h-.029Q22.565,20.12,21.848,20.171Zm12.237.685a.938.938,0,1,1-.026,1.876h-.234c-.278,0-.56,0-.84,0,.019-.123.028-.249.038-.375.353,0,.706,0,1.06,0a.562.562,0,0,0,0-1.125c-.366,0-.731,0-1.1,0-.018-.125-.029-.252-.057-.375C33.317,20.858,33.7,20.855,34.085,20.855ZM28,18.031A3.938,3.938,0,1,1,24.375,23.5a.244.244,0,0,0-.058-.182,3.893,3.893,0,0,1-.255-1.354A3.942,3.942,0,0,1,28,18.031ZM22.975,21.6c-.34.022-.679.045-1.019.069A.563.563,0,0,0,22,22.791h.041c.326-.024.651-.045.977-.067.019.125.032.25.06.372l-1.079.071a.937.937,0,0,1-.708-1.551.929.929,0,0,1,.641-.321c.361-.026.723-.05,1.085-.073C22.995,21.344,22.984,21.471,22.975,21.6ZM48.039,7.211a.5.5,0,0,1,.6-.377c.705.159,1.362.328,1.967.5a.5.5,0,0,1-.139.98.491.491,0,0,1-.139-.02q-.88-.256-1.909-.489A.5.5,0,0,1,48.039,7.211ZM44.1,6.517a.5.5,0,0,1,.569-.42q1.036.157,1.989.333a.5.5,0,0,1-.09.991.486.486,0,0,1-.091-.009q-.936-.173-1.957-.327A.5.5,0,0,1,44.1,6.517Zm3.245,35.211q1.047.207,1.976.435a.5.5,0,1,1-.237.971q-.907-.221-1.933-.425a.5.5,0,0,1,.194-.98Zm-3.98-.648q1.032.138,1.993.294a.5.5,0,0,1-.079.993.447.447,0,0,1-.08-.007c-.631-.1-1.288-.2-1.966-.29a.5.5,0,0,1-.429-.562A.489.489,0,0,1,43.365,41.079Zm-1.555.308a.5.5,0,0,1-.5.444l-.056,0q-.966-.108-1.98-.2a.5.5,0,0,1-.453-.543.508.508,0,0,1,.543-.453q1.025.092,2,.2A.5.5,0,0,1,41.81,41.387ZM37.826,41a.5.5,0,0,1-.5.464h-.036q-.977-.07-1.989-.128a.5.5,0,0,1-.471-.527.468.468,0,0,1,.527-.471q1.019.057,2,.128A.5.5,0,0,1,37.826,41Zm13.455,1.706a16.105,16.105,0,0,1,1.927.742.5.5,0,1,1-.427.9,15.157,15.157,0,0,0-1.806-.693.5.5,0,0,1,.306-.953ZM38.583,7.339v2a.5.5,0,1,1-1,0v-2a.5.5,0,0,1,1,0ZM31.911,4.973a.5.5,0,0,1,.5-.5q.857-.007,1.708-.008h.3a.5.5,0,0,1,0,1h-.3c-.56,0-1.126,0-1.694.008h0A.5.5,0,0,1,31.911,4.973Zm6.672,6.366v2a.5.5,0,1,1-1,0v-2a.5.5,0,0,1,1,0Zm0,4v2a.5.5,0,1,1-1,0v-2a.5.5,0,0,1,1,0ZM35.91,4.971a.527.527,0,0,1,.508-.492q.84.013,1.678.033a.5.5,0,0,1,.488.5v.327a.5.5,0,0,1-.973.162q-.6-.013-1.208-.022A.5.5,0,0,1,35.91,4.971Zm-8,.1a.5.5,0,0,1,.483-.516q1.008-.032,2-.053a.484.484,0,0,1,.51.489.5.5,0,0,1-.49.511q-.992.021-1.993.053h-.017A.5.5,0,0,1,27.913,5.067Zm1.3,34.173a.5.5,0,0,1,0,.707l-.361.36a2.979,2.979,0,0,1-1.61.809l-.051,0a.5.5,0,0,1-.05-1,2.016,2.016,0,0,0,1-.522l.36-.359A.5.5,0,0,1,29.215,39.24Zm9.368-19.9v2a.5.5,0,1,1-1,0v-2a.5.5,0,0,1,1,0Zm-12.89,21.3a.5.5,0,0,1-.489.511q-1.009.022-1.994.056h-.018a.5.5,0,0,1-.017-1q.991-.034,2.006-.056A.49.49,0,0,1,25.693,40.643Zm9.178-7.06a.5.5,0,0,1,0,.707L33.458,35.7A.5.5,0,0,1,32.75,35l1.414-1.414A.5.5,0,0,1,34.872,33.583Zm-2.829,2.828a.5.5,0,0,1,0,.707l-1.414,1.414a.5.5,0,0,1-.707-.707l1.414-1.414A.5.5,0,0,1,32.043,36.411Zm6.541-13.072v2a.5.5,0,1,1-1,0v-2a.5.5,0,0,1,1,0ZM37.7,30.754a.5.5,0,0,1,0,.707l-1.414,1.415a.5.5,0,0,1-.707-.707l1.414-1.415A.5.5,0,0,1,37.7,30.754Zm.884-3.415v2a.5.5,0,1,1-1,0v-2a.5.5,0,0,1,1,0ZM4.168,8.072a.5.5,0,0,1,.327-.627c.6-.188,1.253-.37,1.958-.544a.5.5,0,0,1,.239.971c-.684.168-1.317.344-1.9.526a.5.5,0,0,1-.627-.326Zm7.808-1.711A.5.5,0,0,1,12.4,5.8q.97-.138,2-.257a.5.5,0,0,1,.115.994q-1.012.117-1.972.253a.574.574,0,0,1-.07,0A.5.5,0,0,1,11.976,6.361Zm-.812,34.86q.965-.141,2-.266a.492.492,0,0,1,.557.436.5.5,0,0,1-.436.557q-1.017.125-1.971.264a.629.629,0,0,1-.073,0,.5.5,0,0,1-.072-1ZM8.035,7.051a.5.5,0,0,1,.392-.589q.949-.19,1.984-.363a.5.5,0,0,1,.165.986q-1.017.17-1.952.357a.491.491,0,0,1-.1.01A.5.5,0,0,1,8.035,7.051Zm-.844,34.88q.939-.205,1.983-.389a.5.5,0,1,1,.173.984q-1.022.18-1.943.381a.5.5,0,1,1-.213-.977ZM3.273,43.037c.572-.216,1.228-.427,1.949-.626a.5.5,0,0,1,.266.965c-.691.19-1.317.392-1.861.6A.511.511,0,0,1,3.45,44a.5.5,0,0,1-.177-.968ZM15.946,5.873a.5.5,0,0,1,.449-.547l.118-.012q.948-.091,1.88-.17a.5.5,0,0,1,.085,1q-.927.079-1.868.17l-.119.012-.049,0A.5.5,0,0,1,15.946,5.873Zm3.983-.353a.5.5,0,0,1,.461-.537q1.006-.076,2-.141a.5.5,0,1,1,.064,1q-.988.064-1.989.141h-.038A.5.5,0,0,1,19.929,5.521ZM15.158,40.734q.979-.1,2-.182a.494.494,0,0,1,.539.458.5.5,0,0,1-.458.538q-1.013.082-1.982.18l-.051,0a.5.5,0,0,1-.05-1Zm4.006-.328q.987-.063,2.005-.113a.491.491,0,0,1,.524.475.5.5,0,0,1-.475.523q-1.011.05-1.991.113H19.2a.5.5,0,0,1-.031-1ZM23.918,5.25a.5.5,0,0,1,.473-.526q1.007-.054,2-.1a.526.526,0,0,1,.521.479.5.5,0,0,1-.478.521q-.99.041-1.992.1h-.027A.5.5,0,0,1,23.918,5.25ZM39.233,50.483a.5.5,0,0,1-.456.54q-.982.082-2,.152h-.034a.5.5,0,0,1-.033-1q1.012-.069,1.987-.15A.5.5,0,0,1,39.233,50.483Zm3.977-.441a.5.5,0,0,1-.432.56q-.972.125-2,.231l-.053,0a.5.5,0,0,1-.052-1c.677-.071,1.336-.146,1.976-.229A.5.5,0,0,1,43.21,50.042Zm7.833-1.592a.5.5,0,0,1-.338.62c-.6.178-1.26.349-1.966.51a.492.492,0,0,1-.112.013.5.5,0,0,1-.111-.987c.685-.157,1.322-.322,1.907-.494A.5.5,0,0,1,51.043,48.45Zm-19.8,2.478a.5.5,0,0,1-.49.51q-.993.019-2.007.027h0a.5.5,0,0,1,0-1q1.006-.007,1.994-.027A.464.464,0,0,1,31.244,50.928Zm15.915-1.522a.5.5,0,0,1-.4.583q-.951.177-1.989.336a.5.5,0,1,1-.15-.988q1.019-.155,1.957-.33A.5.5,0,0,1,47.159,49.405ZM35.242,50.769a.5.5,0,0,1-.474.524q-.989.05-2.006.088h-.019a.5.5,0,0,1-.018-1q1.009-.037,1.991-.086A.492.492,0,0,1,35.242,50.769Zm-23.956-.863a.5.5,0,0,1-.494.424.511.511,0,0,1-.077-.006q-1.036-.16-1.988-.337a.5.5,0,0,1-.4-.583.492.492,0,0,1,.583-.4q.935.174,1.957.331A.5.5,0,0,1,11.286,49.905Zm3.972.481a.5.5,0,0,1-.5.448l-.053,0q-1.025-.107-2-.23a.5.5,0,1,1,.126-.992q.961.123,1.977.229A.5.5,0,0,1,15.258,50.387ZM7.348,49.2a.5.5,0,0,1-.6.375c-.705-.163-1.362-.333-1.965-.511a.5.5,0,0,1,.282-.959c.585.172,1.223.338,1.907.5A.5.5,0,0,1,7.348,49.2Zm15.9,1.7a.5.5,0,0,1-.5.482h-.019q-1.017-.037-2.006-.088a.5.5,0,0,1-.474-.524.492.492,0,0,1,.525-.474q.981.05,1.992.086A.5.5,0,0,1,23.243,50.9Zm4,.071a.5.5,0,0,1-.5.5h0q-1.014-.007-2.007-.028a.5.5,0,0,1-.49-.511.511.511,0,0,1,.51-.489q.987.021,1.994.028A.5.5,0,0,1,27.244,50.97Zm-8-.262a.5.5,0,0,1-.5.467h-.034q-1.02-.067-2-.152a.5.5,0,0,1-.456-.541.491.491,0,0,1,.541-.455q.973.083,1.985.15A.5.5,0,0,1,19.246,50.708Z"/><path class="cls-2" d="M27,23.531a.563.563,0,0,1-.562-.562v-2a.563.563,0,0,1,1.125,0v2A.563.563,0,0,1,27,23.531Z"/><path class="cls-2" d="M29,23.531a.563.563,0,0,1-.562-.562v-2a.563.563,0,0,1,1.125,0v2A.563.563,0,0,1,29,23.531Z"/></g><g id="Выноска-4" data-name="Выноска"><path class="cls-1" d="M68.5,27a41.313,41.313,0,0,0-24.941,8.332l-11.725-7L38.05,40.314A41.493,41.493,0,1,0,68.5,27Z"/><path class="cls-2" d="M68.5,28A40.518,40.518,0,1,1,38.784,40.993a1,1,0,0,0,.154-1.14l-4.6-8.858,8.7,5.2a1,1,0,0,0,1.114-.06A40.147,40.147,0,0,1,68.5,28m0-1a41.313,41.313,0,0,0-24.941,8.332l-11.725-7,6.217,11.98A41.493,41.493,0,1,0,68.5,27Z"/><path d="M68.5,87A18.5,18.5,0,1,1,87,68.5,18.521,18.521,0,0,1,68.5,87Zm0-36A17.5,17.5,0,1,0,86,68.5,17.52,17.52,0,0,0,68.5,51Z"/><path d="M68.5,82A13.5,13.5,0,1,1,82,68.5a.5.5,0,0,1-1,0A12.5,12.5,0,1,0,68.5,81a.5.5,0,0,1,0,1Z"/><path class="cls-2" d="M64.5,67A2.5,2.5,0,1,1,67,64.5,2.5,2.5,0,0,1,64.5,67Zm0-4A1.5,1.5,0,1,0,66,64.5,1.5,1.5,0,0,0,64.5,63Z"/><path class="cls-2" d="M72.5,67A2.5,2.5,0,1,1,75,64.5,2.5,2.5,0,0,1,72.5,67Zm0-4A1.5,1.5,0,1,0,74,64.5,1.5,1.5,0,0,0,72.5,63Z"/><path class="cls-2" d="M64.5,75A2.5,2.5,0,1,1,67,72.5,2.5,2.5,0,0,1,64.5,75Zm0-4A1.5,1.5,0,1,0,66,72.5,1.5,1.5,0,0,0,64.5,71Z"/><path class="cls-2" d="M72.5,75A2.5,2.5,0,1,1,75,72.5,2.5,2.5,0,0,1,72.5,75Zm0-4A1.5,1.5,0,1,0,74,72.5,1.5,1.5,0,0,0,72.5,71Z"/><path class="cls-1" d="M64.5,72.5a1,1,0,0,1-1-1v-6a1,1,0,0,1,2,0v6A1,1,0,0,1,64.5,72.5Z"/><path class="cls-2" d="M64.5,73A1.5,1.5,0,0,1,63,71.5v-6a1.5,1.5,0,0,1,3,0v6A1.5,1.5,0,0,1,64.5,73Zm0-8a.5.5,0,0,0-.5.5v6a.5.5,0,0,0,1,0v-6A.5.5,0,0,0,64.5,65Z"/><path class="cls-1" d="M72.5,72.5a1,1,0,0,1-1-1v-6a1,1,0,0,1,2,0v6A1,1,0,0,1,72.5,72.5Z"/><path class="cls-2" d="M72.5,73A1.5,1.5,0,0,1,71,71.5v-6a1.5,1.5,0,0,1,3,0v6A1.5,1.5,0,0,1,72.5,73Zm0-8a.5.5,0,0,0-.5.5v6a.5.5,0,0,0,1,0v-6A.5.5,0,0,0,72.5,65Z"/><path d="M50.625,73H44a4.5,4.5,0,0,1,0-9h6.625a.5.5,0,0,1,0,1H44a3.5,3.5,0,0,0,0,7h6.625a.5.5,0,0,1,0,1Z"/><path d="M93,73H86.25a.5.5,0,0,1,0-1H93a3.5,3.5,0,0,0,0-7H86.375a.5.5,0,1,1,0-1H93a4.5,4.5,0,0,1,0,9Z"/><path d="M93,70H86.75a.5.5,0,0,1,0-1H93a.5.5,0,0,0,0-1H86.75a.5.5,0,0,1,0-1H93a1.5,1.5,0,0,1,0,3Z"/><path d="M50.375,70H44a1.5,1.5,0,0,1,0-3h6.375a.5.5,0,0,1,0,1H44a.5.5,0,0,0,0,1h6.375a.5.5,0,0,1,0,1Z"/></g></g></g></svg>