<svg xmlns="http://www.w3.org/2000/svg" xmlns:xlink="http://www.w3.org/1999/xlink" width="110" height="110" viewBox="0 0 110 110"><defs><style>.cls-1{fill:url(#Безымянный_градиент_312);}.cls-2{fill:#bb1a23;}.cls-3{fill:#fff;}</style><radialGradient id="Безымянный_градиент_312" cx="27.333" cy="0.542" r="52.662" gradientUnits="userSpaceOnUse"><stop offset="0.648" stop-color="#fff"/><stop offset="1" stop-color="#fff" stop-opacity="0"/></radialGradient></defs><title>Нити - Пуговичная нить на планке</title><g id="Нити"><g id="Пуговичная_нить_на_планке" data-name="Пуговичная нить на планке"><g id="Цвет-37" data-name="Цвет"><path class="cls-1" d="M27.5,53.084a49.4,49.4,0,0,0,22.625-5.625V14.271l-6.25-2.625-.5-1.437L40,2.959A27.92,27.92,0,0,0,27.5.334c-4.812,0-9.438.978-12.5,2.625l-3.375,7.25-.5,1.438-6.25,2.625V47.459A49.4,49.4,0,0,0,27.5,53.084Z"/></g><g id="Контур-37" data-name="Контур"><path d="M29,15h-.092a1.491,1.491,0,0,0-2.816,0H26a.5.5,0,0,0,0,1h.092a1.491,1.491,0,0,0,2.816,0H29a.5.5,0,0,0,0-1Zm-1.5,1a.5.5,0,1,1,.5-.5A.5.5,0,0,1,27.5,16Z"/><path class="cls-2" d="M29,23a1.5,1.5,0,0,0-1-1.408V21.5a.5.5,0,0,0-1,0v.092a1.491,1.491,0,0,0,0,2.816V24.5a.5.5,0,0,0,1,0v-.092A1.5,1.5,0,0,0,29,23Zm-1.5.5A.5.5,0,1,1,28,23,.5.5,0,0,1,27.5,23.5Z"/><path d="M29,39.25a1.5,1.5,0,0,0-1-1.408V37.75a.5.5,0,0,0-1,0v.092a1.491,1.491,0,0,0,0,2.816v.092a.5.5,0,0,0,1,0v-.092A1.5,1.5,0,0,0,29,39.25Zm-1.5.5a.5.5,0,1,1,.5-.5A.5.5,0,0,1,27.5,39.75Z"/><path d="M50.635,20.6,43,17.23a8.908,8.908,0,0,0,1.361-4.767l5.877,2.5a.493.493,0,0,0,.2.04.5.5,0,0,0,.2-.96l-6.409-2.723a6.345,6.345,0,0,0-.433-1.361L40.479,2.79a.49.49,0,0,0-.347-.271C37.51.919,32.913,0,27.475,0,21.967,0,17.314.939,14.709,2.577c-.014.009-.022.023-.035.033a.466.466,0,0,0-.125.139.47.47,0,0,0-.028.04L11.213,9.956a6.345,6.345,0,0,0-.433,1.361L4.371,14.04a.5.5,0,0,0,.2.96.493.493,0,0,0,.2-.04l5.877-2.5A8.908,8.908,0,0,0,12,17.23L4.365,20.6a.5.5,0,0,0,.2.957.491.491,0,0,0,.2-.043l7.759-3.422c1.715,2.658,4.042,5.986,6.325,9.216a.5.5,0,0,0,.408.211.552.552,0,0,0,.069,0,.5.5,0,0,0,.4-.33l2.774-7.932H23.75v35.5a.5.5,0,0,0,1,0V19.25h5.5v35.5a.5.5,0,0,0,1,0V19.25h1.244l2.774,7.932a.5.5,0,0,0,.4.33.552.552,0,0,0,.069,0,.5.5,0,0,0,.408-.211c2.283-3.23,4.61-6.558,6.325-9.216l7.759,3.422a.491.491,0,0,0,.2.043.5.5,0,0,0,.2-.957ZM39.518,3.32a7.1,7.1,0,0,1-2.666,5.066,26.013,26.013,0,0,0-18.72-.014,7.071,7.071,0,0,1-2.651-5.079C17.974,1.837,22.309,1,27.475,1,32.674,1,37.034,1.847,39.518,3.32ZM30.966,11.8a.491.491,0,0,0-.216-.053H24.375a.487.487,0,0,0-.262.084,21.032,21.032,0,0,1-5.1-2.73,25.124,25.124,0,0,1,16.962.013A20.977,20.977,0,0,1,30.966,11.8ZM19.109,25.936c-2.168-3.074-4.328-6.179-5.909-8.647,0-.013,0-.026-.008-.038a.494.494,0,0,0-.125-.168c-.876-1.375-2.161-4.071-.945-6.706l2.556-5.539c.812,3.153,3.99,5.963,9.039,7.922ZM23.75,15.694V18.25h-.894Zm1,2.556v-3.5a2,2,0,0,1,2-2h3.471l1.923,5.5Zm11.141,7.686L33.4,18.82a.467.467,0,0,0,.014-.07.494.494,0,0,0-.167-.367l-1.966-5.624C36.332,10.8,39.51,7.99,40.322,4.837l2.556,5.539c1.216,2.635-.07,5.332-.946,6.707a.5.5,0,0,0-.124.167c-.005.012,0,.026-.008.038C40.219,19.757,38.058,22.862,35.891,25.936Z"/></g><g id="Выноска-5" data-name="Выноска"><path class="cls-3" d="M68.75,27.5a41.053,41.053,0,0,0-23.242,7.172L30,24.333l9.271,15.575A41.242,41.242,0,1,0,68.75,27.5Z"/><path class="cls-2" d="M33.115,27.612,44.953,35.5a1,1,0,0,0,1.119-.006,40.341,40.341,0,1,1-6.087,5.11A1,1,0,0,0,40.13,39.4L33.115,27.612M30,24.333l9.271,15.575a41.157,41.157,0,1,0,6.237-5.236L30,24.333Z"/><path d="M68.5,87A18.5,18.5,0,1,1,87,68.5,18.521,18.521,0,0,1,68.5,87Zm0-36A17.5,17.5,0,1,0,86,68.5,17.52,17.52,0,0,0,68.5,51Z"/><path d="M68.5,82A13.5,13.5,0,1,1,82,68.5a.5.5,0,0,1-1,0A12.5,12.5,0,1,0,68.5,81a.5.5,0,0,1,0,1Z"/><path class="cls-2" d="M64.5,67A2.5,2.5,0,1,1,67,64.5,2.5,2.5,0,0,1,64.5,67Zm0-4A1.5,1.5,0,1,0,66,64.5,1.5,1.5,0,0,0,64.5,63Z"/><path class="cls-2" d="M72.5,67A2.5,2.5,0,1,1,75,64.5,2.5,2.5,0,0,1,72.5,67Zm0-4A1.5,1.5,0,1,0,74,64.5,1.5,1.5,0,0,0,72.5,63Z"/><path class="cls-2" d="M64.5,75A2.5,2.5,0,1,1,67,72.5,2.5,2.5,0,0,1,64.5,75Zm0-4A1.5,1.5,0,1,0,66,72.5,1.5,1.5,0,0,0,64.5,71Z"/><path class="cls-2" d="M72.5,75A2.5,2.5,0,1,1,75,72.5,2.5,2.5,0,0,1,72.5,75Zm0-4A1.5,1.5,0,1,0,74,72.5,1.5,1.5,0,0,0,72.5,71Z"/><path class="cls-3" d="M64.5,72.5a1,1,0,0,1-1-1v-6a1,1,0,0,1,2,0v6A1,1,0,0,1,64.5,72.5Z"/><path class="cls-2" d="M64.5,73A1.5,1.5,0,0,1,63,71.5v-6a1.5,1.5,0,0,1,3,0v6A1.5,1.5,0,0,1,64.5,73Zm0-8a.5.5,0,0,0-.5.5v6a.5.5,0,0,0,1,0v-6A.5.5,0,0,0,64.5,65Z"/><path class="cls-3" d="M72.5,72.5a1,1,0,0,1-1-1v-6a1,1,0,0,1,2,0v6A1,1,0,0,1,72.5,72.5Z"/><path class="cls-2" d="M72.5,73A1.5,1.5,0,0,1,71,71.5v-6a1.5,1.5,0,0,1,3,0v6A1.5,1.5,0,0,1,72.5,73Zm0-8a.5.5,0,0,0-.5.5v6a.5.5,0,0,0,1,0v-6A.5.5,0,0,0,72.5,65Z"/><path d="M68.5,97.5A4.5,4.5,0,0,1,64,93V86.375a.5.5,0,0,1,1,0V93a3.5,3.5,0,0,0,7,0V86.375a.5.5,0,0,1,1,0V93A4.5,4.5,0,0,1,68.5,97.5Z"/><path d="M72.5,51.25a.5.5,0,0,1-.5-.5V44a3.5,3.5,0,0,0-7,0v6.626a.5.5,0,0,1-1,0V44a4.5,4.5,0,0,1,9,0v6.75A.5.5,0,0,1,72.5,51.25Z"/><path d="M69.5,50.75a.5.5,0,0,1-.5-.5V44a.5.5,0,0,0-1,0v6.25a.5.5,0,0,1-1,0V44a1.5,1.5,0,0,1,3,0v6.25A.5.5,0,0,1,69.5,50.75Z"/><path d="M68.5,94.5A1.5,1.5,0,0,1,67,93V86.625a.5.5,0,0,1,1,0V93a.5.5,0,0,0,1,0V86.625a.5.5,0,0,1,1,0V93A1.5,1.5,0,0,1,68.5,94.5Z"/></g></g></g></svg>