<svg xmlns="http://www.w3.org/2000/svg" width="110" height="110" viewBox="0 0 110 110"><defs><style>.cls-1{fill:#fff;}.cls-2{fill:#bb1a23;}</style></defs><title>Нити - Строчка по всей рубашке</title><g id="Нити"><g id="Строчка_по_всей_рубашке" data-name="Строчка по всей рубашке"><g id="Цвет-41" data-name="Цвет"><path class="cls-1" d="M25.9,54.75c5.583,0,8.375-3.042,11.958-3.042-.82-10.207-1.18-19.8-.313-27.771A18.307,18.307,0,0,1,41.109,31l-1.5,19.5,5.5.5,3-13a26.56,26.56,0,0,0-1.5-16,77.381,77.381,0,0,0-6-13L31.2,5.063l-.052-.312L29.609,1.5a11.179,11.179,0,0,0-5-1,11.179,11.179,0,0,0-5,1L18.151,4.75l-.083.312L8.609,9a77.381,77.381,0,0,0-6,13,26.56,26.56,0,0,0-1.5,16l3,13,5.5-.5L8.109,31c.708-2.625,2.125-5.688,3.563-7.063a180.021,180.021,0,0,1-.229,27.813c3,0,6.75,3.042,11.833,3.042Z"/></g><g id="Контур-41" data-name="Контур"><path class="cls-2" d="M3.358,47.75a.5.5,0,0,1-.056-1l5.833-.666a.5.5,0,0,1,.113.994l-5.833.666Z"/><path class="cls-2" d="M26.5,55.25a.5.5,0,0,1-.5-.5V8.875a.5.5,0,0,1,1,0V54.75A.5.5,0,0,1,26.5,55.25Z"/><circle cx="24.609" cy="7" r="0.5"/><circle cx="24.5" cy="11.5" r="0.5"/><circle cx="24.5" cy="17.5" r="0.5"/><circle cx="24.5" cy="23.5" r="0.5"/><circle cx="24.5" cy="29.5" r="0.5"/><circle cx="24.5" cy="35.5" r="0.5"/><circle cx="24.5" cy="41.5" r="0.5"/><path class="cls-2" d="M45.86,47.75l-.058,0-5.834-.666a.5.5,0,0,1-.44-.554.506.506,0,0,1,.554-.44l5.834.666a.5.5,0,0,1-.056,1Z"/><path class="cls-2" d="M19.16,7.079a.5.5,0,0,0-.659-.255L9.865,10.633a14.31,14.31,0,0,0-.816-1.871.5.5,0,0,0-.879.477c1.339,2.471,2.272,6.739,2.854,13.049a.5.5,0,0,0,.5.454l.047,0a.5.5,0,0,0,.452-.544,53.244,53.244,0,0,0-1.835-10.611l8.719-3.846A.5.5,0,0,0,19.16,7.079Z"/><path class="cls-2" d="M40.848,8.561a.5.5,0,0,0-.678.2,14.262,14.262,0,0,0-.817,1.871L30.718,6.824a.5.5,0,0,0-.4.914l8.719,3.845A52.77,52.77,0,0,0,37.212,22.04a.5.5,0,0,0,.451.545l.048,0a.5.5,0,0,0,.5-.453c.583-6.229,1.513-10.447,2.841-12.9A.5.5,0,0,0,40.848,8.561Z"/><path class="cls-2" d="M28.366,4.375a.5.5,0,0,1-.193-.039,10.168,10.168,0,0,0-7.148,0,.5.5,0,0,1-.387-.922,11.046,11.046,0,0,1,7.922,0,.5.5,0,0,1-.193.961Z"/><path d="M47.711,23.461A81.282,81.282,0,0,0,41.04,8.746.45.45,0,0,0,41,8.7a.427.427,0,0,0-.153-.134.473.473,0,0,0-.044-.03L31.557,4.612a2.832,2.832,0,0,0-.16-.455L30.073,1.29a.488.488,0,0,0-.289-.255A11.209,11.209,0,0,0,24.6,0a11.141,11.141,0,0,0-5.213,1.049l-.015.008c-.012.007-.026.012-.038.02s-.019.02-.031.029a.463.463,0,0,0-.13.144.461.461,0,0,0-.028.041L17.822,4.157a2.862,2.862,0,0,0-.16.454L8.414,8.54a.457.457,0,0,0-.044.03.427.427,0,0,0-.153.133.476.476,0,0,0-.038.043A81.148,81.148,0,0,0,1.508,23.461,27.359,27.359,0,0,0,.72,38.539l2.9,12.573a.5.5,0,0,0,.487.388l.045,0,5.5-.5a.5.5,0,0,0,.453-.536L8.614,31.043a19.739,19.739,0,0,1,2.646-5.793c.05.719.1,1.456.14,2.217a169.936,169.936,0,0,1-.539,24.238.5.5,0,0,0,.5.545,8.462,8.462,0,0,1,4.095,1.213,13.942,13.942,0,0,0,6.862,1.781c.009,0,.017.005.027.005H26.5a14.645,14.645,0,0,0,7.166-1.784,8.988,8.988,0,0,1,4.193-1.216.5.5,0,0,0,.5-.545,169.844,169.844,0,0,1-.539-24.239c.043-.772.09-1.5.139-2.217A19.739,19.739,0,0,1,40.6,31.043L39.111,50.462a.5.5,0,0,0,.453.536l5.5.5.045,0a.5.5,0,0,0,.487-.388l2.9-12.573A27.358,27.358,0,0,0,47.711,23.461ZM30.129,6.973c-.556.872-1.3,1.954-2.073,3.053L26.5,5.575A6.256,6.256,0,0,0,29.76,3l.729,1.579A2.524,2.524,0,0,1,30.129,6.973ZM22.842,8.25l.874-2.5H25.5l.874,2.5Zm6.251-6.456C28.96,2.92,27.786,4,25.858,4.75h-2.5C21.426,4,20.25,2.914,20.124,1.783A10.511,10.511,0,0,1,24.6,1,10.442,10.442,0,0,1,29.093,1.794ZM18.73,4.576,19.458,3a6.264,6.264,0,0,0,3.26,2.576l-1.556,4.449c-.774-1.1-1.522-2.188-2.072-3.052A2.524,2.524,0,0,1,18.73,4.576ZM11.9,51.268A170.337,170.337,0,0,0,12.4,27.412c-.1-1.871-.231-3.627-.378-5.217a.511.511,0,0,0-.544-.452.5.5,0,0,0-.452.544c.041.446.08.909.118,1.381A20.932,20.932,0,0,0,7.624,30.88a.48.48,0,0,0-.013.158L9.073,50.047,4.5,50.463l-2.8-12.148a26.361,26.361,0,0,1,.759-14.527A80.286,80.286,0,0,1,8.964,9.392l8.617-3.661a4.2,4.2,0,0,0,.665,1.778c.693,1.089,1.688,2.511,2.659,3.886a.5.5,0,0,0,.408.212.552.552,0,0,0,.069,0,.5.5,0,0,0,.4-.33L22,10.658V54.233a12.934,12.934,0,0,1-6.1-1.665A9.913,9.913,0,0,0,11.9,51.268ZM47.523,38.314l-2.8,12.148-4.575-.416,1.462-19.009a.48.48,0,0,0-.013-.158,20.93,20.93,0,0,0-3.519-7.213c.042-.522.086-1.035.132-1.534a.5.5,0,0,0-.451-.545.516.516,0,0,0-.545.451c-.154,1.646-.282,3.4-.392,5.37a170.1,170.1,0,0,0,.494,23.857,10.528,10.528,0,0,0-4.084,1.3A13.62,13.62,0,0,1,26.5,54.25H23v-45h3.726l.707,2.022a.5.5,0,0,0,.4.33.552.552,0,0,0,.069,0,.5.5,0,0,0,.408-.211c.968-1.368,1.959-2.786,2.66-3.887a4.211,4.211,0,0,0,.665-1.778l8.618,3.661a80.423,80.423,0,0,1,6.51,14.395A26.36,26.36,0,0,1,47.523,38.314Z"/></g><g id="Выноска-9" data-name="Выноска"><path class="cls-1" d="M68.75,27.5a41.045,41.045,0,0,0-20.858,5.666L28.25,12.5,41.938,37.416A41.238,41.238,0,1,0,68.75,27.5Z"/><path class="cls-2" d="M32.844,18.784,47.167,33.855a1,1,0,0,0,1.231.173,40.335,40.335,0,1,1-5.81,4.147,1,1,0,0,0,.226-1.241l-9.971-18.15M28.25,12.5,41.938,37.416a41.16,41.16,0,1,0,5.954-4.25L28.25,12.5Z"/><path class="cls-2" d="M103.04,73.745a.5.5,0,0,1-.2-.043l-2.745-1.211a.5.5,0,0,1,.4-.914l2.745,1.211a.5.5,0,0,1-.2.957Zm-5.489-2.421a.5.5,0,0,1-.2-.043L94.6,70.07a.5.5,0,1,1,.4-.914l2.745,1.211a.5.5,0,0,1-.2.957Z"/><path class="cls-2" d="M83.75,55.068a.5.5,0,0,1-.174-.031c-.888-.329-1.834-.634-2.814-.905a.5.5,0,0,1,.266-.963c1.008.278,1.982.592,2.9.931a.5.5,0,0,1-.174.969Zm-30,0a.5.5,0,0,1-.176-.968c.181-.068.363-.134.549-.2a.5.5,0,0,1,.33.943c-.178.063-.354.126-.527.19A.482.482,0,0,1,53.75,55.068ZM57.158,54a.5.5,0,0,1-.126-.983c.961-.251,1.957-.475,2.96-.664a.5.5,0,1,1,.186.982c-.98.186-1.954.4-2.894.648A.47.47,0,0,1,57.158,54Zm20.819-.547a.492.492,0,0,1-.1-.01c-.961-.193-1.945-.358-2.926-.491a.5.5,0,0,1-.429-.562.492.492,0,0,1,.562-.429c1,.135,2.009.3,2.99.5a.5.5,0,0,1-.1.99Zm-14.93-.569a.5.5,0,0,1-.06-1c1-.122,2.012-.213,3.02-.272a.5.5,0,1,1,.059,1c-.987.059-1.981.147-2.957.267A.434.434,0,0,1,63.048,52.885Zm8.987-.232H72c-1-.07-1.992-.108-2.965-.114a.5.5,0,0,1,0-1h0c.994.006,2.013.045,3.029.116a.5.5,0,0,1-.034,1Z"/><path class="cls-2" d="M34.46,73.745a.5.5,0,0,1-.2-.957L37,71.577a.5.5,0,1,1,.4.914L34.662,73.7A.5.5,0,0,1,34.46,73.745Zm5.489-2.421a.5.5,0,0,1-.2-.957l2.745-1.211a.5.5,0,0,1,.4.914l-2.745,1.211A.5.5,0,0,1,39.949,71.324Z"/><path class="cls-2" d="M73.75,101.9a.5.5,0,0,1-.5-.5v-.985a.5.5,0,0,1,1,0v.985A.5.5,0,0,1,73.75,101.9Zm0-3.985a.5.5,0,0,1-.5-.5v-3a.5.5,0,0,1,1,0v3A.5.5,0,0,1,73.75,97.916Zm0-6a.5.5,0,0,1-.5-.5v-3a.5.5,0,0,1,1,0v3A.5.5,0,0,1,73.75,91.916Zm0-6a.5.5,0,0,1-.5-.5v-3a.5.5,0,0,1,1,0v3A.5.5,0,0,1,73.75,85.916Zm0-6a.5.5,0,0,1-.5-.5v-3a.5.5,0,0,1,1,0v3A.5.5,0,0,1,73.75,79.916Zm0-6a.5.5,0,0,1-.5-.5v-3a.5.5,0,0,1,1,0v3A.5.5,0,0,1,73.75,73.916Z"/><path d="M104.188,63.784a.493.493,0,0,1-.2-.04l-9.1-3.868a.5.5,0,0,1,.391-.92l9.1,3.868a.5.5,0,0,1-.2.96Z"/><path d="M63.75,101.9a.5.5,0,0,1-.5-.5V70.417a.5.5,0,0,1,1,0V101.4A.5.5,0,0,1,63.75,101.9Z"/><path d="M88.75,45.917a.488.488,0,0,1-.266-.077c-3.967-2.493-11.16-3.923-19.734-3.923s-15.768,1.43-19.734,3.923a.5.5,0,0,1-.531-.846c4.121-2.591,11.508-4.077,20.266-4.077S84.895,42.4,89.016,44.994a.5.5,0,0,1-.266.923Z"/><path d="M71.75,65.917h-6a.5.5,0,0,1,0-1h6a.5.5,0,0,1,0,1Z"/><circle class="cls-1" cx="68.75" cy="65.417" r="2"/><path d="M68.75,67.917a2.5,2.5,0,1,1,2.5-2.5A2.5,2.5,0,0,1,68.75,67.917Zm0-4a1.5,1.5,0,1,0,1.5,1.5A1.5,1.5,0,0,0,68.75,63.917Z"/><path d="M77.417,70.917h-17a.5.5,0,0,1,0-1h17a.5.5,0,0,1,0,1Z"/><path d="M73.75,60.917h-10a.5.5,0,0,1,0-1h10a.5.5,0,0,1,0,1Z"/><path d="M56.75,79.917a.5.5,0,0,1-.3-.1A73.9,73.9,0,0,1,44.642,68.706,11.34,11.34,0,0,1,43,56.675L48.3,45.207a.5.5,0,0,1,.954.228c-.206,5.7,5.143,10.991,14.673,14.514a.5.5,0,0,1,.3.642l-7,19a.5.5,0,0,1-.469.327ZM48.385,47.4l-4.473,9.692A10.332,10.332,0,0,0,45.405,68.06,72.639,72.639,0,0,0,56.515,78.608l6.595-17.9C54.516,57.437,49.287,52.678,48.385,47.4Z"/><path d="M80.75,79.917a.5.5,0,0,1-.469-.327l-7-19a.5.5,0,0,1,.3-.642c9.53-3.522,14.879-8.812,14.673-14.514a.5.5,0,0,1,.954-.228L94.5,56.675a11.34,11.34,0,0,1-1.638,12.031A73.9,73.9,0,0,1,81.052,79.815.5.5,0,0,1,80.75,79.917ZM74.391,60.711l6.595,17.9A72.639,72.639,0,0,0,92.095,68.06a10.332,10.332,0,0,0,1.493-10.965L89.115,47.4C88.213,52.678,82.984,57.437,74.391,60.711Z"/><path d="M33.313,63.784a.5.5,0,0,1-.2-.96l9.1-3.868a.5.5,0,1,1,.391.92l-9.1,3.868A.493.493,0,0,1,33.313,63.784Z"/><path d="M68.75,80.917a.5.5,0,0,1-.5-.5v-6a.5.5,0,0,1,1,0v6A.5.5,0,0,1,68.75,80.917Z"/><circle class="cls-1" cx="68.75" cy="77.417" r="2"/><path d="M68.75,79.917a2.5,2.5,0,1,1,2.5-2.5A2.5,2.5,0,0,1,68.75,79.917Zm0-4a1.5,1.5,0,1,0,1.5,1.5A1.5,1.5,0,0,0,68.75,75.917Z"/></g></g></g></svg>