<svg xmlns="http://www.w3.org/2000/svg" width="110" height="110" viewBox="0 0 110 110"><defs><style>.cls-1{fill:#fff;}</style></defs><title>Манжет - Фигурный</title><g id="Манжет"><g id="Фигурный"><g id="Цвет-12" data-name="Цвет"><path class="cls-1" d="M.5,94.75V15c0-3.769,10.839-7.031,25.352-8.923,15.242-1.987,37.232-3.16,51.482-2.41a3.585,3.585,0,0,1,2.792,1.958c14.792,1.958,29.4,4.452,29.375,9.5-.083,19.875,0,59.25,0,79.75,0,7.517-31.875,10.87-56.625,10.625C27,105.245.5,101.5.5,94.75Z"/></g><g id="Контур-12" data-name="Контур"><path d="M110,90.367a.494.494,0,0,0,.167-.367A3.194,3.194,0,0,0,110,88.99V15c0-6.267-22.373-9.057-29.523-9.786a4.444,4.444,0,0,0-3.657-2.1A341.02,341.02,0,0,0,27.5,5.337C21.051,6.066,0,8.92,0,15V95c0,6.886,27.964,11,55,11,26.5,0,53.88-3.956,54.949-10.6a.491.491,0,0,0,.218-.4,3.184,3.184,0,0,0-.167-.97ZM109,15v2.794a6.941,6.941,0,0,0-.959-.85.5.5,0,0,0-.595.8A3.082,3.082,0,0,1,109,20V87.425a7.324,7.324,0,0,0-1.219-1,.5.5,0,0,0-.553.834A4.417,4.417,0,0,1,109,89.18v3.241c-1.973-2.03-5.958-3.112-7.968-3.656l-.118-.031C95,87.134,89.236,85.6,83.334,84.023l-4.683-1.247C71.484,80.871,64.1,78.9,56.849,76.79q3.358-1,6.693-2.071a.472.472,0,0,0,.078.039l.557.153a.513.513,0,0,0,.132.018.5.5,0,0,0,.482-.368.489.489,0,0,0,0-.238q2.431-.789,4.843-1.616a19.235,19.235,0,0,0,7.748-5.052c3.785-4.473,3.785-11.241,3.785-17.213V11.295c1.19.126,2.363.257,3.5.4a.464.464,0,0,0,.063,0,.5.5,0,0,0,.062-1c-1.175-.147-2.385-.286-3.621-.415V7.613a4.528,4.528,0,0,0-.222-1.345C100.312,8.3,109,12.1,109,15ZM1,15c0-2.817,8.23-6.59,26.616-8.669A348.353,348.353,0,0,1,67.323,3.978q4.724,0,9.468.138a3.472,3.472,0,0,1,3.376,3.5v42.83c0,6.083,0,12.373-3.548,16.566a18.308,18.308,0,0,1-7.31,4.753c-12.4,4.262-25.286,7.688-37.751,11L26.918,84C20.986,85.582,15.2,87.126,9.252,88.734l-.118.031C7.069,89.324,2.91,90.447,1,92.588Zm54,90C22.7,105,1,99.829,1,95a2.774,2.774,0,0,1,.951-1.96A16.1,16.1,0,0,0,5.378,94.89a.488.488,0,0,0,.191.038.5.5,0,0,0,.191-.962,15.878,15.878,0,0,1-3.005-1.581A23.135,23.135,0,0,1,9.4,89.731l.118-.032c5.944-1.608,11.731-3.151,17.663-4.732l4.638-1.235c7.664-2.037,15.487-4.12,23.263-6.411,7.731,2.279,15.654,4.385,23.317,6.423l4.682,1.246c5.9,1.573,11.662,3.109,17.577,4.71l.118.032a23.525,23.525,0,0,1,6.561,2.6,13.7,13.7,0,0,1-2.218,1.256.5.5,0,0,0,.42.908,14.051,14.051,0,0,0,2.614-1.521A3.367,3.367,0,0,1,109,94.2V95C109,99.829,87.3,105,55,105ZM12.732,96.631a.5.5,0,0,1-.485.382A.553.553,0,0,1,12.128,97c-1.405-.342-2.714-.7-3.889-1.077a.5.5,0,1,1,.3-.953c1.153.366,2.439.722,3.822,1.058A.5.5,0,0,1,12.732,96.631ZM19.6,97.984a.5.5,0,0,1-.493.417.486.486,0,0,1-.083-.007c-1.367-.23-2.7-.479-3.951-.737a.5.5,0,1,1,.2-.979c1.243.256,2.561.5,3.915.729A.5.5,0,0,1,19.6,97.984Zm69.783.164a.5.5,0,0,1-.418.57q-1.919.294-3.975.555a.466.466,0,0,1-.063,0,.5.5,0,0,1-.062-1q2.041-.258,3.95-.551A.5.5,0,0,1,89.385,98.148Zm-20.9,2.028a.5.5,0,0,1-.476.522q-1.976.1-4.006.159h-.017a.5.5,0,0,1-.016-1q2.021-.064,3.99-.157A.5.5,0,0,1,68.486,100.177Zm-7,.249a.5.5,0,0,1-.489.511q-1.984.042-4.008.057h0a.5.5,0,0,1,0-1q2.016-.015,3.994-.057A.519.519,0,0,1,61.489,100.426Zm13.985-.691a.5.5,0,0,1-.461.537q-1.963.148-4,.269h-.03a.5.5,0,0,1-.029-1q2.027-.12,3.983-.269A.5.5,0,0,1,75.474,99.734Zm-48.937-.778a.5.5,0,0,1-.5.44.414.414,0,0,1-.06,0q-2.053-.246-3.979-.529a.5.5,0,0,1,.146-.99q1.912.281,3.953.527A.5.5,0,0,1,26.536,98.956Zm55.909.119a.5.5,0,0,1-.443.552q-1.947.212-3.991.4l-.045,0a.5.5,0,0,1-.044-1q2.033-.183,3.972-.395A.5.5,0,0,1,82.445,99.075ZM54.488,100.5a.5.5,0,0,1-.5.5h0q-2.024-.007-4.008-.042a.5.5,0,0,1,.018-1q1.978.035,3.995.042A.5.5,0,0,1,54.488,100.5Zm-14-.376a.5.5,0,0,1-.5.473h-.028q-2.033-.113-4-.253a.5.5,0,0,1,.071-1q1.958.141,3.985.253A.5.5,0,0,1,40.489,100.124ZM33.5,99.652a.5.5,0,0,1-.5.458l-.043,0q-2.041-.173-3.993-.378a.5.5,0,0,1-.445-.549.486.486,0,0,1,.549-.445q1.94.2,3.973.376A.5.5,0,0,1,33.5,99.652Zm13.984.751a.5.5,0,0,1-.5.485h-.015q-2.028-.059-4.006-.144a.5.5,0,0,1-.478-.521.513.513,0,0,1,.521-.479q1.969.085,3.992.144A.5.5,0,0,1,47.486,100.4Zm55.522-5.425a.5.5,0,0,1-.311.635c-1.154.4-2.458.782-3.874,1.147a.5.5,0,1,1-.25-.969c1.392-.358,2.669-.737,3.8-1.124A.5.5,0,0,1,103.009,94.979ZM96.268,96.86a.5.5,0,0,1-.383.595c-1.242.271-2.569.53-3.946.773a.444.444,0,0,1-.087.008.5.5,0,0,1-.086-.992c1.364-.241,2.678-.5,3.908-.766A.5.5,0,0,1,96.268,96.86Zm-28.6-57.214q-1.518,0-3.036.015a9.558,9.558,0,0,0-18.437.669q-1.436.092-2.882.193a2.5,2.5,0,0,0,.177,4.994c.058,0,.116,0,.181-.006q1.354-.1,2.695-.182a9.558,9.558,0,0,0,18.442-.672q1.31-.01,2.622-.012h.236a2.5,2.5,0,0,0,0-5ZM43.605,44.515l-.115,0a1.5,1.5,0,0,1-.105-3c.881-.063,1.756-.121,2.629-.177a9.585,9.585,0,0,0-.069,1.006q-1.244.081-2.489.169a.5.5,0,0,0,.035,1h.036q1.226-.088,2.453-.167a9.529,9.529,0,0,0,.139.993Q44.865,44.425,43.605,44.515ZM55.5,50.938A8.438,8.438,0,1,1,63.938,42.5,8.447,8.447,0,0,1,55.5,50.938Zm12.166-7.291H67.43c-.816,0-1.63.005-2.444.011a9.59,9.59,0,0,0,.069-1c.87-.006,1.743-.009,2.611-.011h0a.5.5,0,0,0,0-1q-1.326,0-2.647.011a9.529,9.529,0,0,0-.139-1c.929-.008,1.857-.014,2.787-.014a1.5,1.5,0,1,1,0,3ZM62,42.5a.5.5,0,0,1-1,0A5.5,5.5,0,1,0,55.5,48a.5.5,0,0,1,0,1A6.5,6.5,0,1,1,62,42.5Zm-7-2a1.5,1.5,0,1,0-2,1.408v1.184a1.5,1.5,0,1,0,1,0V41.908A1.5,1.5,0,0,0,55,40.5ZM53.5,40a.5.5,0,1,1-.5.5A.5.5,0,0,1,53.5,40Zm0,5a.5.5,0,1,1,.5-.5A.5.5,0,0,1,53.5,45ZM59,40.5a1.5,1.5,0,1,0-2,1.408v1.184a1.5,1.5,0,1,0,1,0V41.908A1.5,1.5,0,0,0,59,40.5ZM57.5,40a.5.5,0,1,1-.5.5A.5.5,0,0,1,57.5,40Zm0,5a.5.5,0,1,1,.5-.5A.5.5,0,0,1,57.5,45Zm18.667,4.583v.86c0,1.05,0,2.106-.02,3.15a.5.5,0,0,1-.5.49h-.009a.5.5,0,0,1-.491-.51c.02-1.036.02-2.087.02-3.131v-.86a.5.5,0,0,1,1,0Zm-.152,7.036a22.7,22.7,0,0,1-.626,4.039.5.5,0,0,1-.483.372.479.479,0,0,1-.128-.017.5.5,0,0,1-.356-.611,21.733,21.733,0,0,0,.6-3.859.5.5,0,1,1,1,.076Zm.152-14.036v4a.5.5,0,0,1-1,0v-4a.5.5,0,0,1,1,0Zm0-7v4a.5.5,0,0,1-1,0v-4a.5.5,0,0,1,1,0Zm-7.492,31.61a.5.5,0,0,1-.284.647c-.13.051-.26.1-.389.142q-1.7.584-3.424,1.152a.49.49,0,0,1-.157.025.5.5,0,0,1-.157-.975q1.715-.567,3.417-1.15c.118-.039.231-.081.346-.126A.5.5,0,0,1,68.675,67.193ZM48.636,73.46a.5.5,0,0,1-.345.617q-1.928.545-3.856,1.077a.486.486,0,0,1-.134.019.5.5,0,0,1-.133-.981q1.925-.533,3.85-1.077A.5.5,0,0,1,48.636,73.46ZM55.357,71.5a.5.5,0,0,1-.336.622q-1.918.571-3.843,1.127a.488.488,0,0,1-.139.02.5.5,0,0,1-.139-.98q1.92-.554,3.834-1.125A.5.5,0,0,1,55.357,71.5Zm6.687-2.069a.5.5,0,0,1-.325.628q-1.906.606-3.823,1.194a.479.479,0,0,1-.146.022A.5.5,0,0,1,57.6,70.3q1.912-.587,3.813-1.192A.5.5,0,0,1,62.044,69.433Zm-43.7-57.2a.5.5,0,0,1,.4-.581q1.835-.333,3.961-.649a.5.5,0,1,1,.146.988q-2.112.315-3.93.646a.557.557,0,0,1-.089.008A.5.5,0,0,1,18.346,12.229Zm5.188,68.016a.5.5,0,0,1,.354-.612L27.754,78.6a.5.5,0,1,1,.257.967L24.146,80.6a.537.537,0,0,1-.129.017A.5.5,0,0,1,23.534,80.245Zm1.727-69.1a.5.5,0,0,1,.433-.559q1.148-.145,2.372-.284l1.612-.179a.5.5,0,1,1,.108.994l-1.608.179q-1.216.138-2.358.282a.466.466,0,0,1-.063,0A.5.5,0,0,1,25.26,11.148Zm-8.49,70.9a.5.5,0,0,1,.354-.612l3.865-1.032a.506.506,0,0,1,.612.354.5.5,0,0,1-.354.612l-3.865,1.032a.534.534,0,0,1-.129.017A.5.5,0,0,1,16.771,82.052ZM30.3,78.443a.5.5,0,0,1,.355-.612L34.519,76.8a.5.5,0,0,1,.258.967L30.91,78.8a.489.489,0,0,1-.129.017A.5.5,0,0,1,30.3,78.443Zm1.921-68.084a.5.5,0,0,1,.447-.548q2.007-.205,3.988-.386a.5.5,0,1,1,.092,1q-1.978.182-3.979.384l-.051,0A.5.5,0,0,1,32.219,10.359ZM10.011,83.867a.5.5,0,0,1,.353-.612l3.863-1.038a.5.5,0,1,1,.259.965L10.624,84.22a.5.5,0,0,1-.613-.353ZM5.083,16.438a.5.5,0,0,1,.141-.692,17.094,17.094,0,0,1,3.754-1.684.5.5,0,1,1,.326.945A16.158,16.158,0,0,0,5.776,16.58a.494.494,0,0,1-.275.083A.5.5,0,0,1,5.083,16.438Zm3,67.949A.5.5,0,0,1,7.729,85c-.585.159-1.3.359-2.076.61a.493.493,0,0,1-.153.024.5.5,0,0,1-.153-.976c.8-.257,1.522-.461,2.12-.624A.5.5,0,0,1,8.081,84.388Zm68.086-55.8v4a.5.5,0,0,1-1,0v-4a.5.5,0,1,1,1,0ZM37.416,76.028q1.928-.519,3.861-1.045a.5.5,0,1,1,.263.965q-1.934.527-3.864,1.045a.5.5,0,1,1-.26-.965ZM11.526,13.789a.5.5,0,0,1,.351-.614c1.205-.329,2.522-.646,3.915-.944a.505.505,0,0,1,.593.385.5.5,0,0,1-.384.594c-1.374.293-2.673.606-3.86.931a.516.516,0,0,1-.132.018A.5.5,0,0,1,11.526,13.789ZM74.164,8.551a.513.513,0,0,1,.512-.488l1,.023a.5.5,0,0,1,.488.5v3a.5.5,0,0,1-1,0V9.074l-.515-.012A.5.5,0,0,1,74.164,8.551Zm2,6.032v4a.5.5,0,0,1-1,0v-4a.5.5,0,1,1,1,0Zm-5.562,51a10.16,10.16,0,0,0,2.2-1.8,6.476,6.476,0,0,0,.543-.751.5.5,0,1,1,.85.527,7.51,7.51,0,0,1-.628.869,11.163,11.163,0,0,1-2.422,2,.5.5,0,0,1-.539-.842ZM39.192,9.7a.5.5,0,0,1,.457-.539q2.009-.167,4-.312a.5.5,0,0,1,.072,1q-1.982.144-3.985.31l-.042,0A.5.5,0,0,1,39.192,9.7ZM76.167,21.583v4a.5.5,0,0,1-1,0v-4a.5.5,0,1,1,1,0ZM46.175,9.182a.5.5,0,0,1,.467-.53q2.01-.127,4-.23a.482.482,0,0,1,.525.474.5.5,0,0,1-.474.524q-1.986.1-3.989.23h-.032A.5.5,0,0,1,46.175,9.182Zm20.989-.7a.5.5,0,0,1,.5-.5h0c1.329,0,2.666.011,4.005.028a.5.5,0,0,1-.006,1h-.006c-1.335-.018-2.669-.027-3.994-.028A.5.5,0,0,1,67.164,8.479Zm-14,.319a.5.5,0,0,1,.478-.521q2.01-.086,4-.146a.519.519,0,0,1,.515.485.5.5,0,0,1-.485.515q-1.989.06-3.992.146h-.022A.5.5,0,0,1,53.167,8.8Zm7-.236a.5.5,0,0,1,.489-.511q2.009-.042,4.007-.061h0a.5.5,0,0,1,0,1q-1.993.018-3.994.061h-.011A.5.5,0,0,1,60.164,8.563Zm33.944,4.124A.5.5,0,0,1,94.7,12.3c1.4.284,2.717.585,3.925.894a.5.5,0,0,1-.248.969c-1.192-.3-2.5-.6-3.876-.882A.5.5,0,0,1,94.108,12.687Zm6.8,1.651a.5.5,0,0,1,.626-.329,33.96,33.96,0,0,1,3.806,1.412.5.5,0,0,1-.411.912,32.834,32.834,0,0,0-3.691-1.369A.5.5,0,0,1,100.91,14.338ZM87.2,11.529a.5.5,0,0,1,.566-.424q2.06.3,3.965.632a.5.5,0,0,1-.085.992.434.434,0,0,1-.086-.008q-1.89-.33-3.937-.626A.5.5,0,0,1,87.2,11.529ZM78.309,78.2a.5.5,0,0,1-.483.371.487.487,0,0,1-.129-.017l-3.866-1.029a.5.5,0,0,1-.354-.612.508.508,0,0,1,.612-.354l3.865,1.029A.5.5,0,0,1,78.309,78.2ZM85.073,80a.5.5,0,0,1-.483.371.493.493,0,0,1-.129-.017L80.6,79.329a.5.5,0,0,1,.256-.967l3.866,1.03A.5.5,0,0,1,85.073,80ZM71.545,76.4a.5.5,0,0,1-.613.353Q69,76.232,67.07,75.707a.5.5,0,1,1,.263-.965q1.928.526,3.859,1.044A.5.5,0,0,1,71.545,76.4Zm28.982,7.746a.5.5,0,0,1,.613-.352,36.983,36.983,0,0,1,3.868,1.234.5.5,0,0,1-.184.965.486.486,0,0,1-.184-.035,35.134,35.134,0,0,0-3.763-1.2A.5.5,0,0,1,100.527,84.145ZM87,80.52a.508.508,0,0,1,.612-.354L91.481,81.2a.5.5,0,0,1-.128.983.534.534,0,0,1-.129-.017l-3.864-1.032A.5.5,0,0,1,87,80.52Zm6.762,1.808a.5.5,0,0,1,.612-.353l3.863,1.038a.5.5,0,1,1-.26.965l-3.862-1.038A.5.5,0,0,1,93.767,82.327Z"/></g></g></g></svg>