<svg xmlns="http://www.w3.org/2000/svg" width="110" height="110" viewBox="0 0 110 110"><defs><style>.cls-1{fill:#fff;}</style></defs><title>Манжет - Закругленный стандартный</title><g id="Манжет"><g id="Закругленный_стандартный" data-name="Закругленный стандартный"><g id="Цвет-13" data-name="Цвет"><path class="cls-1" d="M.5,94.75V15c0-3.769,10.839-7.031,25.352-8.923,15.242-1.987,37.232-3.16,51.482-2.41a3.585,3.585,0,0,1,2.792,1.958c14.792,1.958,29.4,4.452,29.375,9.5-.083,19.875,0,59.25,0,79.75,0,7.517-31.875,10.87-56.625,10.625C27,105.245.5,101.5.5,94.75Z"/></g><g id="Контур-13" data-name="Контур"><path d="M80.478,5.214a4.444,4.444,0,0,0-3.657-2.1A341.006,341.006,0,0,0,27.5,5.337C21.051,6.066,0,8.92,0,15V95c0,6.886,27.964,11,55,11s55-4.114,55-11V15C110,8.733,87.628,5.944,80.478,5.214ZM27.616,6.331A348.355,348.355,0,0,1,67.323,3.978q4.724,0,9.468.138a3.471,3.471,0,0,1,3.376,3.5V63.549A19.552,19.552,0,0,1,61.141,83.041c-10.835.21-21.838.961-33.637,2.3C21.9,85.972,5.255,88.21,1,92.778V19.131a21.414,21.414,0,0,1,3.132-1.889.5.5,0,0,0-.448-.895A24.063,24.063,0,0,0,1,17.9V15C1,12.183,9.23,8.41,27.616,6.331ZM55,105C22.7,105,1,99.829,1,95a1.683,1.683,0,0,1,.051-.369c.013-.053.024-.106.043-.159.008-.025.022-.05.031-.075a3.443,3.443,0,0,1,.967-1.256A16.534,16.534,0,0,0,5.378,94.89a.488.488,0,0,0,.191.038.5.5,0,0,0,.191-.962,16.6,16.6,0,0,1-2.836-1.461A17.693,17.693,0,0,1,6.04,90.914C14.24,87.643,31.908,85,55,85c26.722,0,46.173,3.539,52.1,7.5a14.612,14.612,0,0,1-1.986,1.089.5.5,0,0,0,.42.908,14.649,14.649,0,0,0,2.4-1.366A2.631,2.631,0,0,1,109,95C109,99.829,87.3,105,55,105Zm52.447-87.251A3.076,3.076,0,0,1,109,20V87.815a9.4,9.4,0,0,0-2.521-1.839.5.5,0,0,0-.469.883,6.375,6.375,0,0,1,2.783,2.335A.49.49,0,0,0,109,89.4v3.424c-4.782-5.144-26.285-8.315-48.5-8.769.22,0,.441-.013.661-.017A20.133,20.133,0,0,0,72.11,80.53q1.958.126,3.851.277l.041,0a.5.5,0,0,0,.039-1c-.885-.072-1.8-.132-2.7-.195a20.532,20.532,0,0,0,7.83-16.067V11.295c1.19.126,2.363.257,3.5.4a.462.462,0,0,0,.063,0,.5.5,0,0,0,.062-1c-1.174-.147-2.388-.284-3.621-.413V7.613a4.528,4.528,0,0,0-.222-1.345C100.312,8.3,109,12.1,109,15v2.794a6.927,6.927,0,0,0-.959-.849.5.5,0,0,0-.594.8ZM40.489,100.124a.5.5,0,0,1-.5.473h-.028q-2.033-.113-4-.253a.5.5,0,0,1,.071-1q1.958.141,3.985.253A.5.5,0,0,1,40.489,100.124Zm7,.279a.5.5,0,0,1-.5.485h-.015q-2.028-.059-4.006-.144a.5.5,0,0,1-.478-.521.508.508,0,0,1,.521-.479q1.969.085,3.992.144A.5.5,0,0,1,47.486,100.4Zm-20.95-1.447a.5.5,0,0,1-.5.44.414.414,0,0,1-.06,0q-2.053-.246-3.979-.529a.5.5,0,0,1,.146-.99q1.912.281,3.953.527A.5.5,0,0,1,26.536,98.956Zm-13.8-2.325a.5.5,0,0,1-.485.382A.553.553,0,0,1,12.128,97c-1.405-.342-2.714-.7-3.889-1.077a.5.5,0,1,1,.3-.953c1.153.366,2.439.722,3.822,1.058A.5.5,0,0,1,12.732,96.631ZM19.6,97.984a.5.5,0,0,1-.493.417.486.486,0,0,1-.083-.007c-1.367-.23-2.7-.479-3.951-.737a.5.5,0,1,1,.2-.979c1.243.256,2.561.5,3.915.729A.5.5,0,0,1,19.6,97.984ZM54.487,100.5a.5.5,0,0,1-.5.5h0q-2.024-.007-4.008-.042a.5.5,0,0,1-.491-.509.493.493,0,0,1,.509-.491q1.978.035,3.995.042A.5.5,0,0,1,54.487,100.5ZM33.5,99.652a.5.5,0,0,1-.5.458l-.043,0q-2.041-.173-3.993-.378a.5.5,0,0,1-.445-.549.489.489,0,0,1,.549-.445q1.94.2,3.973.376A.5.5,0,0,1,33.5,99.652Zm48.942-.577a.5.5,0,0,1-.442.552q-1.948.212-3.991.4l-.046,0a.5.5,0,0,1-.044-1q2.033-.183,3.972-.395A.506.506,0,0,1,82.444,99.075ZM96.267,96.86a.5.5,0,0,1-.382.595c-1.239.27-2.566.53-3.945.773a.446.446,0,0,1-.088.008.5.5,0,0,1-.086-.992c1.365-.241,2.68-.5,3.906-.766A.5.5,0,0,1,96.267,96.86Zm-6.881,1.288a.5.5,0,0,1-.418.57q-1.92.294-3.977.555a.452.452,0,0,1-.063,0,.5.5,0,0,1-.062-1q2.041-.258,3.95-.551A.506.506,0,0,1,89.386,98.148Zm13.622-3.17a.5.5,0,0,1-.311.635c-1.153.4-2.456.781-3.873,1.147a.5.5,0,1,1-.25-.969c1.392-.359,2.67-.737,3.8-1.124A.5.5,0,0,1,103.008,94.979Zm-41.52,5.447a.5.5,0,0,1-.489.511q-1.983.042-4.008.057h0a.5.5,0,0,1,0-1q2.017-.015,3.994-.057h.011A.5.5,0,0,1,61.488,100.426Zm13.985-.691a.5.5,0,0,1-.461.537q-1.966.148-4,.269h-.029a.5.5,0,0,1-.029-1q2.026-.12,3.983-.269A.487.487,0,0,1,75.474,99.734Zm-6.988.442a.5.5,0,0,1-.476.522q-1.975.1-4.006.159h-.016a.5.5,0,0,1-.016-1q2.021-.064,3.99-.157A.489.489,0,0,1,68.485,100.177ZM55.5,32.938a9.573,9.573,0,0,0-9.3,7.393q-1.436.092-2.882.193a2.5,2.5,0,0,0,.177,4.994c.058,0,.116,0,.181-.006q1.354-.1,2.695-.182a9.558,9.558,0,0,0,18.442-.672q1.31-.01,2.622-.012h.236a2.5,2.5,0,0,0,0-5q-1.52,0-3.036.015A9.58,9.58,0,0,0,55.5,32.938ZM43.605,44.515l-.115,0a1.5,1.5,0,0,1-.105-3c.881-.063,1.756-.121,2.629-.177a9.585,9.585,0,0,0-.069,1.006q-1.244.081-2.489.169a.5.5,0,0,0,.035,1h.036q1.226-.088,2.453-.167a9.529,9.529,0,0,0,.139.993Q44.865,44.425,43.605,44.515ZM55.5,50.938A8.438,8.438,0,1,1,63.938,42.5,8.447,8.447,0,0,1,55.5,50.938ZM67.668,40.646a1.5,1.5,0,1,1,0,3H67.43c-.816,0-1.63.005-2.444.011a9.59,9.59,0,0,0,.069-1q1.305-.009,2.612-.011a.5.5,0,0,0,0-1c-.887,0-1.767,0-2.647.011a9.529,9.529,0,0,0-.139-1C65.81,40.653,66.738,40.646,67.668,40.646ZM62,42.5a.5.5,0,0,1-1,0A5.5,5.5,0,1,0,55.5,48a.5.5,0,0,1,0,1A6.5,6.5,0,1,1,62,42.5Zm-7-2a1.5,1.5,0,1,0-2,1.408v1.184a1.5,1.5,0,1,0,1,0V41.908A1.5,1.5,0,0,0,55,40.5ZM53.5,40a.5.5,0,1,1-.5.5A.5.5,0,0,1,53.5,40Zm0,5a.5.5,0,1,1,.5-.5A.5.5,0,0,1,53.5,45ZM59,40.5a1.5,1.5,0,1,0-2,1.408v1.184a1.5,1.5,0,1,0,1,0V41.908A1.5,1.5,0,0,0,59,40.5ZM57.5,40a.5.5,0,1,1-.5.5A.5.5,0,0,1,57.5,40Zm0,5a.5.5,0,1,1,.5-.5A.5.5,0,0,1,57.5,45ZM75.167,61.9v-4a.5.5,0,0,1,1,0v4a.5.5,0,0,1-1,0ZM20.53,81.7a.5.5,0,0,1-.42.568c-1.326.2-2.642.416-3.933.649a.557.557,0,0,1-.089.008A.5.5,0,0,1,16,81.93c1.3-.235,2.627-.453,3.962-.653A.5.5,0,0,1,20.53,81.7ZM34.438,80.09a.5.5,0,0,1-.45.546q-1.973.189-3.973.4l-.053,0a.5.5,0,0,1-.052-1q2.005-.212,3.983-.4A.51.51,0,0,1,34.438,80.09Zm-6.961.722a.5.5,0,0,1-.441.553c-1.312.147-2.637.309-3.962.483a.507.507,0,0,1-.066,0,.5.5,0,0,1-.065-1c1.332-.175,2.664-.336,3.981-.485A.5.5,0,0,1,27.477,80.812ZM75.167,54.9v-4a.5.5,0,0,1,1,0v4a.5.5,0,0,1-1,0Zm0-7v-4a.5.5,0,0,1,1,0v4a.5.5,0,0,1-1,0ZM6.852,84.636a.5.5,0,0,1-.315.633,32.268,32.268,0,0,0-3.659,1.453.5.5,0,1,1-.431-.9,33.419,33.419,0,0,1,3.772-1.5A.5.5,0,0,1,6.852,84.636ZM13.632,82.9a.5.5,0,0,1-.385.593c-1.371.291-2.671.6-3.865.925a.5.5,0,1,1-.261-.965c1.211-.328,2.529-.644,3.917-.938A.5.5,0,0,1,13.632,82.9Zm41.749-4.2a.5.5,0,0,1-.481.519q-1.988.075-3.989.174h-.025a.5.5,0,0,1-.024-1q2.008-.1,4-.176A.5.5,0,0,1,55.381,78.7ZM75.167,19.9v-4a.5.5,0,0,1,1,0v4a.5.5,0,0,1-1,0Zm0,14v-4a.5.5,0,0,1,1,0v4a.5.5,0,0,1-1,0ZM68.894,76.1a.5.5,0,0,1-.164.688,15.255,15.255,0,0,1-3.769,1.667.49.49,0,0,1-.139.02.5.5,0,0,1-.139-.98,14.3,14.3,0,0,0,3.522-1.558A.5.5,0,0,1,68.894,76.1Zm6.273-63.2v-4a.5.5,0,0,1,1,0v4a.5.5,0,0,1-1,0Zm0,14v-4a.5.5,0,0,1,1,0v4a.5.5,0,0,1-1,0ZM48.391,79.026a.5.5,0,0,1-.47.528q-1.984.116-3.986.255H43.9a.5.5,0,0,1-.034-1q2.008-.139,4-.255A.489.489,0,0,1,48.391,79.026Zm-6.981.466a.5.5,0,0,1-.46.537q-1.978.154-3.979.332l-.045,0a.5.5,0,0,1-.044-1q2.007-.179,3.991-.332A.484.484,0,0,1,41.409,79.492ZM75.167,40.9v-4a.5.5,0,0,1,1,0v4a.5.5,0,0,1-1,0ZM62.374,78.466a.5.5,0,0,1-.462.536c-.281.021-.564.034-.848.04q-1.583.031-3.172.077h-.015a.5.5,0,0,1-.015-1q1.594-.047,3.181-.077c.265-.006.53-.018.794-.038A.5.5,0,0,1,62.374,78.466Zm-35.8-67.48a.5.5,0,0,1,.437-.556l1.058-.124q1.47-.166,2.926-.32a.5.5,0,0,1,.106.994q-1.454.155-2.92.32l-1.05.122a.425.425,0,0,1-.061,0A.5.5,0,0,1,26.571,10.985Zm6.961-.759a.5.5,0,0,1,.448-.547q2.008-.2,3.99-.371a.507.507,0,0,1,.542.454.5.5,0,0,1-.455.542q-1.977.173-3.979.371l-.05,0A.5.5,0,0,1,33.532,10.227ZM74.249,68.613a14.435,14.435,0,0,0,.859-3.758.525.525,0,0,1,.543-.453.5.5,0,0,1,.453.543,15.405,15.405,0,0,1-.92,4.02.5.5,0,0,1-.468.324.482.482,0,0,1-.176-.032A.5.5,0,0,1,74.249,68.613ZM6.182,15.758a.5.5,0,0,1,.279-.65c1.18-.471,2.462-.92,3.811-1.336a.5.5,0,1,1,.295.955c-1.323.408-2.58.85-3.735,1.311a.512.512,0,0,1-.185.035A.5.5,0,0,1,6.182,15.758ZM40.507,9.6a.5.5,0,0,1,.459-.538q2.009-.161,4-.3a.5.5,0,1,1,.067,1q-1.982.135-3.985.294l-.04,0A.5.5,0,0,1,40.507,9.6Zm-27.687,3.96a.5.5,0,0,1,.358-.609c1.252-.327,2.57-.635,3.918-.916a.5.5,0,1,1,.2.979c-1.332.278-2.634.583-3.871.9a.469.469,0,0,1-.126.017A.5.5,0,0,1,12.821,13.557Zm6.832-1.52a.5.5,0,0,1,.4-.58c1.26-.225,2.595-.438,3.965-.636a.5.5,0,1,1,.143.99c-1.36.2-2.683.407-3.932.63a.55.55,0,0,1-.088.008A.5.5,0,0,1,19.652,12.037ZM68.484,8.48a.492.492,0,0,1,.5-.5c1.331.007,2.669.021,4.006.045a.5.5,0,0,1-.009,1h-.009C71.643,9,70.309,8.99,68.981,8.983A.5.5,0,0,1,68.484,8.48Zm5.17,62.567a.5.5,0,0,1,.159.688,15.735,15.735,0,0,1-2.622,3.178.5.5,0,1,1-.682-.732,14.728,14.728,0,0,0,2.456-2.975A.5.5,0,0,1,73.654,71.048ZM54.485,8.742a.5.5,0,0,1,.48-.52q2.009-.078,4.005-.131h.014a.5.5,0,0,1,.014,1q-1.991.053-3.994.131h-.02A.5.5,0,0,1,54.485,8.742Zm7-.206a.5.5,0,0,1,.491-.509q2.008-.035,4.007-.044h0a.5.5,0,0,1,0,1q-1.992.009-3.993.044h-.009A.5.5,0,0,1,61.484,8.536ZM47.493,9.1a.5.5,0,0,1,.469-.529q2.01-.12,4-.216a.486.486,0,0,1,.524.475.5.5,0,0,1-.475.523q-1.986.1-3.99.216h-.03A.5.5,0,0,1,47.493,9.1Zm51.49,4.7a.5.5,0,0,1-.608.36c-1.193-.3-2.5-.6-3.877-.882a.5.5,0,0,1,.2-.98c1.4.284,2.716.585,3.926.894A.5.5,0,0,1,98.983,13.8Zm6.608,2.284a.5.5,0,0,1-.456.295.491.491,0,0,1-.205-.044,33,33,0,0,0-3.692-1.369.5.5,0,1,1,.3-.955,34.032,34.032,0,0,1,3.806,1.412A.5.5,0,0,1,105.592,16.082ZM92.143,12.315a.5.5,0,0,1-.491.414.436.436,0,0,1-.087-.008q-1.891-.33-3.937-.626a.5.5,0,0,1-.424-.566.509.509,0,0,1,.566-.424q2.06.3,3.967.632A.5.5,0,0,1,92.143,12.315ZM83.467,81.042a.5.5,0,0,1-.5.443.555.555,0,0,1-.058,0q-1.935-.223-3.97-.416a.5.5,0,0,1-.451-.545.522.522,0,0,1,.545-.451q2.045.195,3.989.418A.5.5,0,0,1,83.467,81.042Zm20.5,4.341a.5.5,0,0,1-.468.324.482.482,0,0,1-.176-.032c-1.1-.413-2.37-.818-3.768-1.2a.5.5,0,0,1,.266-.965c1.427.394,2.724.809,3.854,1.232A.5.5,0,0,1,103.97,85.383Zm-6.7-2.013a.5.5,0,0,1-.6.375c-1.22-.28-2.531-.552-3.9-.807a.5.5,0,0,1,.184-.982c1.379.257,2.7.531,3.938.814A.5.5,0,0,1,97.268,83.37ZM90.4,82.016a.5.5,0,0,1-.492.42.462.462,0,0,1-.081-.007q-1.9-.306-3.944-.577a.5.5,0,0,1-.431-.562.51.51,0,0,1,.562-.431q2.057.274,3.974.583A.5.5,0,0,1,90.4,82.016Z"/></g></g></g></svg>