<svg xmlns="http://www.w3.org/2000/svg" width="110" height="110" viewBox="0 0 110 110"><defs><style>.cls-1{fill:#fff;}</style></defs><title>Манжет - Неаполитанский</title><g id="Манжет"><g id="Неаполитанский"><g id="Цвет-16" data-name="Цвет"><path class="cls-1" d="M73.833,3.583c-27.25-.75-65.667,3.25-65.333,11.5v4.5a43.289,43.289,0,0,1-5.417-2.25l-2.5-3.25L8.5,95.333c1,6.167,22.667,10.25,47.417,10.25,19.251,0,44.333-3.833,45.5-10L109.583,14l-.646,1.875a19.949,19.949,0,0,1-7.437,3.542V14.75c-.167-4-14.167-8.167-25.083-9.083A3.158,3.158,0,0,0,73.833,3.583Z"/></g><g id="Контур-16" data-name="Контур"><path d="M37,43.2a2.508,2.508,0,0,0,2.492,2.322c.058,0,.115,0,.181-.006q1.354-.1,2.695-.182a9.558,9.558,0,0,0,18.442-.672q1.31-.01,2.622-.012h.236a2.5,2.5,0,0,0,0-5q-1.52,0-3.036.015a9.558,9.558,0,0,0-18.437.669c-.957.061-1.916.125-2.882.193A2.5,2.5,0,0,0,37,43.2Zm26.67-2.55a1.5,1.5,0,1,1,0,3H63.43c-.816,0-1.63.005-2.444.011a9.59,9.59,0,0,0,.069-1q1.305-.009,2.612-.011a.5.5,0,0,0,0-1c-.885,0-1.767,0-2.647.011a9.5,9.5,0,0,0-.139-1C61.81,40.653,62.738,40.646,63.668,40.646ZM51.5,34.063A8.438,8.438,0,1,1,43.063,42.5,8.447,8.447,0,0,1,51.5,34.063ZM38.358,42.036a1.49,1.49,0,0,1,1.026-.514c.881-.063,1.756-.121,2.629-.177a9.585,9.585,0,0,0-.069,1.006q-1.244.081-2.488.169a.5.5,0,0,0,.034,1h.036q1.228-.088,2.453-.167a9.529,9.529,0,0,0,.139.993q-1.256.081-2.515.17l-.114,0A1.5,1.5,0,0,1,38,43.125,1.485,1.485,0,0,1,38.358,42.036ZM45,42.5a6.5,6.5,0,0,1,13,0,.5.5,0,0,1-1,0A5.5,5.5,0,1,0,51.5,48a.5.5,0,0,1,0,1A6.508,6.508,0,0,1,45,42.5Zm6-2a1.5,1.5,0,1,0-2,1.408v1.184a1.5,1.5,0,1,0,1,0V41.908A1.5,1.5,0,0,0,51,40.5ZM49.5,40a.5.5,0,1,1-.5.5A.5.5,0,0,1,49.5,40Zm0,5a.5.5,0,1,1,.5-.5A.5.5,0,0,1,49.5,45ZM55,40.5a1.5,1.5,0,1,0-2,1.408v1.184a1.5,1.5,0,1,0,1,0V41.908A1.5,1.5,0,0,0,55,40.5ZM53.5,40a.5.5,0,1,1-.5.5A.5.5,0,0,1,53.5,40Zm0,5a.5.5,0,1,1,.5-.5A.5.5,0,0,1,53.5,45ZM41.277,9.734a.5.5,0,0,1,.449-.547q2.008-.2,3.992-.362a.515.515,0,0,1,.539.457.5.5,0,0,1-.457.539q-1.975.164-3.977.362l-.05,0A.5.5,0,0,1,41.277,9.734ZM13.939,15.292a.5.5,0,0,1,.262-.656A40.267,40.267,0,0,1,18,13.242a.5.5,0,0,1,.3.953c-1.358.429-2.605.886-3.707,1.358a.486.486,0,0,1-.2.041A.5.5,0,0,1,13.939,15.292Zm20.381-4.77a.5.5,0,0,1,.435-.558q2-.248,3.98-.466a.5.5,0,1,1,.109.994q-1.97.217-3.967.464a.448.448,0,0,1-.062,0A.5.5,0,0,1,34.32,10.522Zm-13.768,2.5a.5.5,0,0,1,.359-.609c1.233-.319,2.553-.622,3.924-.9a.5.5,0,1,1,.2.98c-1.354.275-2.656.574-3.873.89a.5.5,0,0,1-.609-.359Zm6.84-1.487a.5.5,0,0,1,.409-.577c1.284-.22,2.62-.424,3.971-.606a.49.49,0,0,1,.563.428.5.5,0,0,1-.428.563c-1.34.182-2.664.384-3.937.6a.5.5,0,0,1-.577-.409Zm44,5.89,0-4a.5.5,0,1,1,1,0l0,4.007a.5.5,0,0,1-.5.5h0A.5.5,0,0,1,71.39,17.424Zm0,56.038-.007-4a.5.5,0,0,1,.5-.5h0a.5.5,0,0,1,.5.5l.007,4a.5.5,0,0,1-.5.5h0A.5.5,0,0,1,71.385,73.462Zm.491-6.5a.5.5,0,0,1-.5-.5l0-4a.5.5,0,0,1,1,0l0,4a.5.5,0,0,1-.5.5ZM48.253,9.127a.5.5,0,0,1,.463-.535q2.011-.144,4-.253a.5.5,0,0,1,.055,1q-1.982.11-3.983.253h-.037A.5.5,0,0,1,48.253,9.127Zm23.134,11.3a.5.5,0,0,1,1,0l0,4a.5.5,0,0,1-.5.5h0a.5.5,0,0,1-.5-.5Zm1.006,56.034.007,2.1a4.8,4.8,0,0,1-.479,2.054.5.5,0,1,1-.9-.432,3.8,3.8,0,0,0,.381-1.62l-.007-2.1a.5.5,0,0,1,.5-.5h0A.5.5,0,0,1,72.393,76.462ZM71.375,34.44a.5.5,0,0,1,1,0l0,4a.5.5,0,0,1-1,0Zm.006-7.006a.5.5,0,1,1,1,0l0,4a.5.5,0,0,1-1,0ZM62.239,8.5A.5.5,0,0,1,62.733,8q1.441-.018,2.877-.019l1.133,0a.5.5,0,0,1,0,1h0l-1.126,0q-1.431,0-2.866.019h-.006A.5.5,0,0,1,62.239,8.5Zm-7,.208a.5.5,0,0,1,.479-.521q2.011-.085,4.007-.136h.013a.5.5,0,0,1,.013,1q-1.988.05-3.989.136h-.021A.5.5,0,0,1,55.242,8.712Zm14-.2a.5.5,0,0,1,.5-.491h.009q1.084.019,2.165.049a.5.5,0,0,1,.486.5l0,1.848a.5.5,0,0,1-.5.5h0a.5.5,0,0,1-.5-.5l0-1.359q-.833-.022-1.668-.036A.5.5,0,0,1,69.239,8.508Zm2.13,46.949a.5.5,0,0,1,1,0v4a.5.5,0,0,1-1,0Zm0-14.01a.5.5,0,0,1,1,0l0,4a.5.5,0,1,1-1,0Zm0,7.007a.5.5,0,0,1,1,0v4a.5.5,0,0,1-1,0ZM110,14.049a.5.5,0,0,0-.978-.19l-.413,1.4c-1.623,1.753-4.117,2.726-6.608,3.535V15c0-4.239-9.417-7.89-25.2-9.778a3.8,3.8,0,0,0-3.183-2.107,249.127,249.127,0,0,0-42.1,2.223C16.793,7.29,8,10.9,8,15v3.784a23.848,23.848,0,0,1-4.681-2.022.482.482,0,0,0-.108-.038L.9,13.7a.5.5,0,0,0-.9.353l8,81c0,.006,0,.012.005.018C8.163,101.912,31.972,106,55,106s46.837-4.088,46.993-10.933c0-.006,0-.011.005-.018Zm-3.051,20.714a.476.476,0,0,0-.05.093l-.763,2.524a.5.5,0,0,0,.334.623.494.494,0,0,0,.145.021l.013,0L101.2,92.9a6.006,6.006,0,0,0-.668-.733v0l0,0c-2.487-2.328-7.967-4.217-15.057-5.588a10.552,10.552,0,0,0,1.4-1.149l.238-.22a.5.5,0,1,0-.674-.738l-.244.225a4.2,4.2,0,0,1-2.709,1.519h-.012c-1.27-.22-2.584-.423-3.933-.611a15.415,15.415,0,0,0,3.425-2.356c.286-.239.571-.479.858-.71a32.1,32.1,0,0,0,10.713-16l13.943-47.307Zm1.132-17.709-1.4,4.749a18.374,18.374,0,0,1-3.472,1.586.5.5,0,0,0,.167.971.474.474,0,0,0,.167-.029,22.147,22.147,0,0,0,2.735-1.159L102,37.677V19.844A20.646,20.646,0,0,0,108.079,17.053ZM101,15v2.64c-.006-.008-.008-.018-.015-.026a11.144,11.144,0,0,0-3.406-2.4.5.5,0,0,0-.445.9,10.139,10.139,0,0,1,3.1,2.165.5.5,0,0,0,.706.046.476.476,0,0,0,.061-.08V40.667a.488.488,0,0,0,.055.218L93.579,66.247A31.106,31.106,0,0,1,83.2,81.754c-.293.235-.583.479-.874.724a12.389,12.389,0,0,1-3.8,2.476,3.765,3.765,0,0,1-1.64.3c-5.373-.646-11.213-1.053-17.116-1.2,1.264-.031,2.528-.06,3.789-.071L63.6,84a.6.6,0,0,0,.072,0,.471.471,0,0,0,.059-.011c3.217-.025,6.43.012,9.665.119A3.581,3.581,0,0,0,76,83.062a4.8,4.8,0,0,0,1.4-3.45V11.3c1.2.151,2.376.31,3.51.482a.5.5,0,1,0,.15-.988c-1.182-.18-2.406-.347-3.66-.5V7.613a5.154,5.154,0,0,0-.189-1.332C91.681,8.069,101,11.469,101,15ZM31.653,6.33A247.588,247.588,0,0,1,73.588,4.115a3.285,3.285,0,0,1,2.812,3.5v72a3.8,3.8,0,0,1-1.091,2.731,2.841,2.841,0,0,1-.73.507,11.7,11.7,0,0,1-3.925-.748l-9.616-2.959A43.014,43.014,0,0,1,39.391,64.065L9,24.3V19.263s.009-.006.013-.01a10.951,10.951,0,0,1,2.959-2.388A.5.5,0,0,0,11.464,16,13.637,13.637,0,0,0,9,17.817V15C9,11.609,18.1,8.125,31.653,6.33ZM8,19.839V22.99L4.6,18.54A32,32,0,0,0,8,19.839ZM38.6,64.673A44.015,44.015,0,0,0,60.742,80.1L70.3,83.039c-2.22-.044-4.436-.067-6.651-.049-1.247-.183-2.519-.431-3.785-.741a.5.5,0,0,0-.6.366.49.49,0,0,0,.126.454,261.964,261.964,0,0,0-27.862,2.27c-9.43,1.25-16.41,3.182-20.224,5.485-.2.118-.384.239-.567.36-.092.062-.194.122-.281.185a7.753,7.753,0,0,0-1.525,1.37l-.036.046q-.048.059-.093.118L2.1,25.109l1.93,2.529a.5.5,0,0,0,.795-.607L2.4,23.851a.491.491,0,0,0-.441-.186L1.17,15.7ZM55,105C27.484,105,9,99.829,9,95a2.016,2.016,0,0,1,.094-.568c.016-.054.037-.108.057-.162a2.747,2.747,0,0,1,.217-.442c.029-.047.051-.094.083-.142a4.25,4.25,0,0,1,.41-.507,10.938,10.938,0,0,0,1.2.858.506.506,0,0,0,.263.074.5.5,0,0,0,.263-.926,10.153,10.153,0,0,1-.974-.685c.065-.051.125-.1.194-.153.106-.079.224-.157.339-.236C16.75,88.313,32.976,85,55,85a184.072,184.072,0,0,1,21.566,1.19.493.493,0,0,0,.155.055,2.707,2.707,0,0,0,.432.016c2.114.261,4.113.555,5.981.88a.489.489,0,0,0,.215.066l.138,0,.036,0c7.794,1.385,13.308,3.286,15.865,5.293a14.076,14.076,0,0,1-2.811,1.656.5.5,0,0,0,.42.908,14.605,14.605,0,0,0,3.145-1.891A2.729,2.729,0,0,1,101,95C101,99.829,82.516,105,55,105ZM90.3,13.162a.5.5,0,0,1,.613-.352c1.405.382,2.7.789,3.857,1.211a.5.5,0,0,1-.172.97.506.506,0,0,1-.172-.03c-1.128-.412-2.4-.812-3.775-1.186A.5.5,0,0,1,90.3,13.162Zm-6.845-1.469a.505.505,0,0,1,.581-.4c1.385.249,2.712.517,3.943.8a.5.5,0,0,1-.11.987.479.479,0,0,1-.11-.013c-1.218-.275-2.529-.54-3.9-.786A.5.5,0,0,1,83.452,11.693Zm-2.6,87.035a.5.5,0,0,1-.422.568q-1.928.283-3.982.524l-.059,0a.5.5,0,0,1-.057-1q2.036-.237,3.951-.521A.507.507,0,0,1,80.854,98.729ZM38.942,99.857a.5.5,0,0,1-.5.457l-.044,0q-2.045-.176-3.993-.393a.5.5,0,1,1,.109-.994q1.935.215,3.97.391A.5.5,0,0,1,38.942,99.857Zm6.988.443a.5.5,0,0,1-.5.477h-.023q-2.038-.1-4.006-.23a.5.5,0,0,1-.465-.533.487.487,0,0,1,.533-.465q1.957.135,3.984.23A.5.5,0,0,1,45.931,100.3ZM25.064,98.036a.5.5,0,0,1-.49.4.539.539,0,0,1-.1-.009c-1.368-.268-2.691-.558-3.933-.864a.5.5,0,1,1,.24-.971c1.225.3,2.532.589,3.884.853A.5.5,0,0,1,25.064,98.036Zm6.916,1.09a.5.5,0,0,1-.562.431q-2.057-.272-3.974-.591a.5.5,0,0,1,.164-.986q1.9.315,3.94.585A.5.5,0,0,1,31.98,99.126ZM18.249,96.437a.5.5,0,0,1-.623.334,38.757,38.757,0,0,1-3.819-1.352.5.5,0,1,1,.387-.922,37.969,37.969,0,0,0,3.722,1.316A.5.5,0,0,1,18.249,96.437Zm34.682,4.054a.5.5,0,0,1-.5.494h-.006q-2.03-.025-4.011-.088a.5.5,0,0,1,.031-1q1.972.063,3.991.088A.5.5,0,0,1,52.931,100.49Zm34.808-3.032a.5.5,0,0,1-.382.595c-1.244.271-2.572.529-3.948.768a.443.443,0,0,1-.087.008.5.5,0,0,1-.085-.992c1.363-.237,2.678-.492,3.907-.76A.5.5,0,0,1,87.738,97.458Zm6.735-1.9a.5.5,0,0,1-.309.637C93,96.6,91.7,96.987,90.3,97.352a.47.47,0,0,1-.126.017.5.5,0,0,1-.126-.983c1.374-.358,2.65-.741,3.793-1.138A.5.5,0,0,1,94.474,95.556Zm-34.542,4.887a.5.5,0,0,1-.489.511Q57.46,101,55.432,101h0a.5.5,0,0,1,0-1q2.019,0,3.991-.046A.5.5,0,0,1,59.932,100.442Zm7-.29a.5.5,0,0,1-.471.527q-1.97.113-4.007.187h-.018a.5.5,0,0,1-.018-1q2.023-.072,3.985-.185A.475.475,0,0,1,66.927,100.152Zm6.979-.556a.5.5,0,0,1-.449.547q-1.954.19-4,.341h-.037a.5.5,0,0,1-.035-1q2.029-.148,3.974-.339A.515.515,0,0,1,73.906,99.6ZM14.346,41.149a.5.5,0,0,1,.795-.607l2.428,3.18a.5.5,0,0,1-.795.607ZM27.089,57.841a.5.5,0,1,1,.795-.607l2.428,3.18a.5.5,0,0,1-.795.607Zm13.66,16.025a.5.5,0,1,1,.625-.779c1.013.813,2.087,1.6,3.191,2.341a.5.5,0,0,1-.278.915.493.493,0,0,1-.278-.085C42.88,75.5,41.783,74.7,40.749,73.866ZM31.337,63.405a.5.5,0,1,1,.795-.607l2.428,3.179a.5.5,0,0,1-.795.607ZM5.851,30.022a.5.5,0,1,1,.795-.607l2.427,3.179a.5.5,0,0,1-.795.607ZM46.4,77.186a.5.5,0,0,1,.685-.179c1.136.666,2.312,1.294,3.493,1.866a.5.5,0,0,1-.436.9c-1.206-.584-2.4-1.225-3.563-1.9A.5.5,0,0,1,46.4,77.186ZM35.638,68.963a.5.5,0,0,1,.76-.65,34.638,34.638,0,0,0,2.735,2.838.5.5,0,0,1-.682.732A35.83,35.83,0,0,1,35.638,68.963Zm17,11.4a.5.5,0,0,1,.652-.271c1.226.5,2.478.962,3.719,1.356a.5.5,0,0,1-.151.977A.509.509,0,0,1,56.7,82.4c-1.269-.4-2.546-.869-3.8-1.386A.5.5,0,0,1,52.636,80.36ZM10.1,35.586a.5.5,0,0,1,.795-.607l2.428,3.18a.5.5,0,0,1-.795.607Zm8.5,11.128a.5.5,0,0,1,.795-.607l2.427,3.179a.5.5,0,0,1-.795.607Zm4.248,5.563a.5.5,0,0,1,.795-.607l2.427,3.18a.5.5,0,0,1-.795.607Zm81.27-8.2,1.155-3.829a.5.5,0,1,1,.957.289l-1.155,3.829a.5.5,0,0,1-.479.355.494.494,0,0,1-.145-.021A.5.5,0,0,1,104.111,44.081Zm-2.023,6.7,1.156-3.829a.5.5,0,0,1,.957.289l-1.156,3.829a.5.5,0,0,1-.479.355.494.494,0,0,1-.145-.021A.5.5,0,0,1,102.088,50.782ZM91.8,79.286a.5.5,0,0,1,.1.7,37.491,37.491,0,0,1-2.615,3.1.5.5,0,1,1-.729-.686A36.36,36.36,0,0,0,91.1,79.384.5.5,0,0,1,91.8,79.286Zm6.237-15.1,1.156-3.83a.5.5,0,0,1,.957.289L99,64.475a.5.5,0,0,1-.479.355.494.494,0,0,1-.145-.021A.5.5,0,0,1,98.041,64.186ZM92.789,76.954a36.761,36.761,0,0,0,1.93-3.439.5.5,0,0,1,.9.441,37.508,37.508,0,0,1-1.982,3.533.5.5,0,1,1-.844-.535Zm7.275-19.47,1.156-3.83a.5.5,0,0,1,.957.289l-1.156,3.83a.5.5,0,0,1-.479.355.494.494,0,0,1-.145-.021A.5.5,0,0,1,100.064,57.484ZM95.914,70.81c.363-.925.692-1.873.978-2.817l.282-.936a.5.5,0,1,1,.957.289l-.282.936c-.293.971-.631,1.944-1,2.894a.5.5,0,0,1-.465.317.478.478,0,0,1-.183-.035A.5.5,0,0,1,95.914,70.81Z"/></g></g></g></svg>