<svg width="556" height="562" viewBox="0 0 556 562" fill="none" xmlns="http://www.w3.org/2000/svg">
<g filter="url(#filter0_f_1_73)">
<path d="M277.602 48C156.568 48 57.4162 142.302 48 262.133L171.488 313.724C181.948 306.487 194.597 302.271 208.191 302.271C209.418 302.271 210.628 302.304 211.822 302.37L266.744 221.929V220.801C266.744 172.396 305.718 133.006 353.628 133.006C401.538 133.006 440.512 172.396 440.512 220.801C440.512 269.205 401.538 308.612 353.628 308.612C352.965 308.612 352.318 308.595 351.655 308.579L273.325 365.033C273.375 366.079 273.408 367.125 273.408 368.154C273.408 404.507 244.148 434.071 208.191 434.071C176.627 434.071 150.219 411.296 144.251 381.152L55.9242 344.251C83.2775 441.972 172.134 513.615 277.602 513.615C404.853 513.615 508 409.371 508 280.808C508 152.228 404.853 48 277.602 48ZM192.382 401.247L164.084 389.428C169.091 399.985 177.777 408.816 189.299 413.663C214.199 424.154 242.911 412.219 253.289 387.038C258.312 374.854 258.345 361.408 253.372 349.191C248.399 336.974 238.999 327.446 226.947 322.366C214.961 317.336 202.13 317.519 190.857 321.818L220.1 334.036C238.469 341.771 247.155 363.085 239.496 381.643C231.854 400.201 210.751 408.982 192.382 401.247ZM411.524 220.802C411.524 188.549 385.547 162.289 353.634 162.289C321.706 162.289 295.728 188.549 295.728 220.802C295.728 253.055 321.706 279.299 353.634 279.299C385.547 279.299 411.524 253.055 411.524 220.802ZM310.234 220.703C310.234 196.434 329.713 176.764 353.717 176.764C377.739 176.764 397.217 196.434 397.217 220.703C397.217 244.971 377.739 264.641 353.717 264.641C329.713 264.641 310.234 244.971 310.234 220.703Z" fill="#0082C8"/>
<path d="M277.602 48C156.568 48 57.4162 142.302 48 262.133L171.488 313.724C181.948 306.487 194.597 302.271 208.191 302.271C209.418 302.271 210.628 302.304 211.822 302.37L266.744 221.929V220.801C266.744 172.396 305.718 133.006 353.628 133.006C401.538 133.006 440.512 172.396 440.512 220.801C440.512 269.205 401.538 308.612 353.628 308.612C352.965 308.612 352.318 308.595 351.655 308.579L273.325 365.033C273.375 366.079 273.408 367.125 273.408 368.154C273.408 404.507 244.148 434.071 208.191 434.071C176.627 434.071 150.219 411.296 144.251 381.152L55.9242 344.251C83.2775 441.972 172.134 513.615 277.602 513.615C404.853 513.615 508 409.371 508 280.808C508 152.228 404.853 48 277.602 48ZM192.382 401.247L164.084 389.428C169.091 399.985 177.777 408.816 189.299 413.663C214.199 424.154 242.911 412.219 253.289 387.038C258.312 374.854 258.345 361.408 253.372 349.191C248.399 336.974 238.999 327.446 226.947 322.366C214.961 317.336 202.13 317.519 190.857 321.818L220.1 334.036C238.469 341.771 247.155 363.085 239.496 381.643C231.854 400.201 210.751 408.982 192.382 401.247ZM411.524 220.802C411.524 188.549 385.547 162.289 353.634 162.289C321.706 162.289 295.728 188.549 295.728 220.802C295.728 253.055 321.706 279.299 353.634 279.299C385.547 279.299 411.524 253.055 411.524 220.802ZM310.234 220.703C310.234 196.434 329.713 176.764 353.717 176.764C377.739 176.764 397.217 196.434 397.217 220.703C397.217 244.971 377.739 264.641 353.717 264.641C329.713 264.641 310.234 244.971 310.234 220.703Z" fill="url(#paint0_linear_1_73)"/>
</g>
<path d="M277.602 48C156.568 48 57.4162 142.302 48 262.133L171.488 313.724C181.948 306.487 194.597 302.271 208.191 302.271C209.418 302.271 210.628 302.304 211.822 302.37L266.744 221.929V220.801C266.744 172.396 305.718 133.006 353.628 133.006C401.538 133.006 440.512 172.396 440.512 220.801C440.512 269.205 401.538 308.612 353.628 308.612C352.965 308.612 352.318 308.595 351.655 308.579L273.325 365.033C273.375 366.079 273.408 367.125 273.408 368.154C273.408 404.507 244.148 434.071 208.191 434.071C176.627 434.071 150.219 411.296 144.251 381.152L55.9242 344.251C83.2775 441.972 172.134 513.615 277.602 513.615C404.853 513.615 508 409.371 508 280.808C508 152.228 404.853 48 277.602 48ZM192.382 401.247L164.084 389.428C169.091 399.985 177.777 408.816 189.299 413.663C214.199 424.154 242.911 412.219 253.289 387.038C258.312 374.854 258.345 361.408 253.372 349.191C248.399 336.974 238.999 327.446 226.947 322.366C214.961 317.336 202.13 317.519 190.857 321.818L220.1 334.036C238.469 341.771 247.155 363.085 239.496 381.643C231.854 400.201 210.751 408.982 192.382 401.247ZM411.524 220.802C411.524 188.549 385.547 162.289 353.634 162.289C321.706 162.289 295.728 188.549 295.728 220.802C295.728 253.055 321.706 279.299 353.634 279.299C385.547 279.299 411.524 253.055 411.524 220.802ZM310.234 220.703C310.234 196.434 329.713 176.764 353.717 176.764C377.739 176.764 397.217 196.434 397.217 220.703C397.217 244.971 377.739 264.641 353.717 264.641C329.713 264.641 310.234 244.971 310.234 220.703Z" fill="#0082C8"/>
<path d="M277.602 48C156.568 48 57.4162 142.302 48 262.133L171.488 313.724C181.948 306.487 194.597 302.271 208.191 302.271C209.418 302.271 210.628 302.304 211.822 302.37L266.744 221.929V220.801C266.744 172.396 305.718 133.006 353.628 133.006C401.538 133.006 440.512 172.396 440.512 220.801C440.512 269.205 401.538 308.612 353.628 308.612C352.965 308.612 352.318 308.595 351.655 308.579L273.325 365.033C273.375 366.079 273.408 367.125 273.408 368.154C273.408 404.507 244.148 434.071 208.191 434.071C176.627 434.071 150.219 411.296 144.251 381.152L55.9242 344.251C83.2775 441.972 172.134 513.615 277.602 513.615C404.853 513.615 508 409.371 508 280.808C508 152.228 404.853 48 277.602 48ZM192.382 401.247L164.084 389.428C169.091 399.985 177.777 408.816 189.299 413.663C214.199 424.154 242.911 412.219 253.289 387.038C258.312 374.854 258.345 361.408 253.372 349.191C248.399 336.974 238.999 327.446 226.947 322.366C214.961 317.336 202.13 317.519 190.857 321.818L220.1 334.036C238.469 341.771 247.155 363.085 239.496 381.643C231.854 400.201 210.751 408.982 192.382 401.247ZM411.524 220.802C411.524 188.549 385.547 162.289 353.634 162.289C321.706 162.289 295.728 188.549 295.728 220.802C295.728 253.055 321.706 279.299 353.634 279.299C385.547 279.299 411.524 253.055 411.524 220.802ZM310.234 220.703C310.234 196.434 329.713 176.764 353.717 176.764C377.739 176.764 397.217 196.434 397.217 220.703C397.217 244.971 377.739 264.641 353.717 264.641C329.713 264.641 310.234 244.971 310.234 220.703Z" fill="url(#paint1_linear_1_73)"/>
<path d="M277.602 48C156.568 48 57.4162 142.302 48 262.133L171.488 313.724C181.948 306.487 194.597 302.271 208.191 302.271C209.418 302.271 210.628 302.304 211.822 302.37L266.744 221.929V220.801C266.744 172.396 305.718 133.006 353.628 133.006C401.538 133.006 440.512 172.396 440.512 220.801C440.512 269.205 401.538 308.612 353.628 308.612C352.965 308.612 352.318 308.595 351.655 308.579L273.325 365.033C273.375 366.079 273.408 367.125 273.408 368.154C273.408 404.507 244.148 434.071 208.191 434.071C176.627 434.071 150.219 411.296 144.251 381.152L55.9242 344.251C83.2775 441.972 172.134 513.615 277.602 513.615C404.853 513.615 508 409.371 508 280.808C508 152.228 404.853 48 277.602 48ZM192.382 401.247L164.084 389.428C169.091 399.985 177.777 408.816 189.299 413.663C214.199 424.154 242.911 412.219 253.289 387.038C258.312 374.854 258.345 361.408 253.372 349.191C248.399 336.974 238.999 327.446 226.947 322.366C214.961 317.336 202.13 317.519 190.857 321.818L220.1 334.036C238.469 341.771 247.155 363.085 239.496 381.643C231.854 400.201 210.751 408.982 192.382 401.247ZM411.524 220.802C411.524 188.549 385.547 162.289 353.634 162.289C321.706 162.289 295.728 188.549 295.728 220.802C295.728 253.055 321.706 279.299 353.634 279.299C385.547 279.299 411.524 253.055 411.524 220.802ZM310.234 220.703C310.234 196.434 329.713 176.764 353.717 176.764C377.739 176.764 397.217 196.434 397.217 220.703C397.217 244.971 377.739 264.641 353.717 264.641C329.713 264.641 310.234 244.971 310.234 220.703Z" fill="url(#paint2_linear_1_73)"/>
<path d="M277.602 48C156.568 48 57.4162 142.302 48 262.133L171.488 313.724C181.948 306.487 194.597 302.271 208.191 302.271C209.418 302.271 210.628 302.304 211.822 302.37L266.744 221.929V220.801C266.744 172.396 305.718 133.006 353.628 133.006C401.538 133.006 440.512 172.396 440.512 220.801C440.512 269.205 401.538 308.612 353.628 308.612C352.965 308.612 352.318 308.595 351.655 308.579L273.325 365.033C273.375 366.079 273.408 367.125 273.408 368.154C273.408 404.507 244.148 434.071 208.191 434.071C176.627 434.071 150.219 411.296 144.251 381.152L55.9242 344.251C83.2775 441.972 172.134 513.615 277.602 513.615C404.853 513.615 508 409.371 508 280.808C508 152.228 404.853 48 277.602 48ZM192.382 401.247L164.084 389.428C169.091 399.985 177.777 408.816 189.299 413.663C214.199 424.154 242.911 412.219 253.289 387.038C258.312 374.854 258.345 361.408 253.372 349.191C248.399 336.974 238.999 327.446 226.947 322.366C214.961 317.336 202.13 317.519 190.857 321.818L220.1 334.036C238.469 341.771 247.155 363.085 239.496 381.643C231.854 400.201 210.751 408.982 192.382 401.247ZM411.524 220.802C411.524 188.549 385.547 162.289 353.634 162.289C321.706 162.289 295.728 188.549 295.728 220.802C295.728 253.055 321.706 279.299 353.634 279.299C385.547 279.299 411.524 253.055 411.524 220.802ZM310.234 220.703C310.234 196.434 329.713 176.764 353.717 176.764C377.739 176.764 397.217 196.434 397.217 220.703C397.217 244.971 377.739 264.641 353.717 264.641C329.713 264.641 310.234 244.971 310.234 220.703Z" fill="url(#paint3_linear_1_73)"/>
<path d="M277.602 48C156.568 48 57.4162 142.302 48 262.133L171.488 313.724C181.948 306.487 194.597 302.271 208.191 302.271C209.418 302.271 210.628 302.304 211.822 302.37L266.744 221.929V220.801C266.744 172.396 305.718 133.006 353.628 133.006C401.538 133.006 440.512 172.396 440.512 220.801C440.512 269.205 401.538 308.612 353.628 308.612C352.965 308.612 352.318 308.595 351.655 308.579L273.325 365.033C273.375 366.079 273.408 367.125 273.408 368.154C273.408 404.507 244.148 434.071 208.191 434.071C176.627 434.071 150.219 411.296 144.251 381.152L55.9242 344.251C83.2775 441.972 172.134 513.615 277.602 513.615C404.853 513.615 508 409.371 508 280.808C508 152.228 404.853 48 277.602 48ZM192.382 401.247L164.084 389.428C169.091 399.985 177.777 408.816 189.299 413.663C214.199 424.154 242.911 412.219 253.289 387.038C258.312 374.854 258.345 361.408 253.372 349.191C248.399 336.974 238.999 327.446 226.947 322.366C214.961 317.336 202.13 317.519 190.857 321.818L220.1 334.036C238.469 341.771 247.155 363.085 239.496 381.643C231.854 400.201 210.751 408.982 192.382 401.247ZM411.524 220.802C411.524 188.549 385.547 162.289 353.634 162.289C321.706 162.289 295.728 188.549 295.728 220.802C295.728 253.055 321.706 279.299 353.634 279.299C385.547 279.299 411.524 253.055 411.524 220.802ZM310.234 220.703C310.234 196.434 329.713 176.764 353.717 176.764C377.739 176.764 397.217 196.434 397.217 220.703C397.217 244.971 377.739 264.641 353.717 264.641C329.713 264.641 310.234 244.971 310.234 220.703Z" fill="url(#paint4_linear_1_73)"/>
<path d="M277.602 48C156.568 48 57.4162 142.302 48 262.133L171.488 313.724C181.948 306.487 194.597 302.271 208.191 302.271C209.418 302.271 210.628 302.304 211.822 302.37L266.744 221.929V220.801C266.744 172.396 305.718 133.006 353.628 133.006C401.538 133.006 440.512 172.396 440.512 220.801C440.512 269.205 401.538 308.612 353.628 308.612C352.965 308.612 352.318 308.595 351.655 308.579L273.325 365.033C273.375 366.079 273.408 367.125 273.408 368.154C273.408 404.507 244.148 434.071 208.191 434.071C176.627 434.071 150.219 411.296 144.251 381.152L55.9242 344.251C83.2775 441.972 172.134 513.615 277.602 513.615C404.853 513.615 508 409.371 508 280.808C508 152.228 404.853 48 277.602 48ZM192.382 401.247L164.084 389.428C169.091 399.985 177.777 408.816 189.299 413.663C214.199 424.154 242.911 412.219 253.289 387.038C258.312 374.854 258.345 361.408 253.372 349.191C248.399 336.974 238.999 327.446 226.947 322.366C214.961 317.336 202.13 317.519 190.857 321.818L220.1 334.036C238.469 341.771 247.155 363.085 239.496 381.643C231.854 400.201 210.751 408.982 192.382 401.247ZM411.524 220.802C411.524 188.549 385.547 162.289 353.634 162.289C321.706 162.289 295.728 188.549 295.728 220.802C295.728 253.055 321.706 279.299 353.634 279.299C385.547 279.299 411.524 253.055 411.524 220.802ZM310.234 220.703C310.234 196.434 329.713 176.764 353.717 176.764C377.739 176.764 397.217 196.434 397.217 220.703C397.217 244.971 377.739 264.641 353.717 264.641C329.713 264.641 310.234 244.971 310.234 220.703Z" fill="url(#paint5_linear_1_73)"/>
<path d="M190.076 411.82L190.075 411.82C180.864 407.945 173.539 401.413 168.572 393.47L191.606 403.09L192.382 401.247L191.612 403.092L191.61 403.092C211.013 411.26 233.286 401.976 241.346 382.404C249.418 362.843 240.269 340.359 220.877 332.192L220.871 332.19L196.649 322.07C206.143 319.627 216.447 320.129 226.17 324.209C237.73 329.081 246.745 338.216 251.52 349.945C256.295 361.676 256.263 374.577 251.44 386.275L251.44 386.276C241.48 410.443 213.939 421.874 190.076 411.82ZM50.1116 260.848C60.1268 142.717 158.124 50 277.602 50C403.729 50 506 153.313 506 280.808C506 408.286 403.729 511.615 277.602 511.615C174.51 511.615 87.4052 442.551 59.0071 347.706L142.505 382.59C149.051 413.116 176.007 436.071 208.191 436.071C245.273 436.071 275.408 405.592 275.408 368.154C275.408 367.446 275.393 366.735 275.368 366.026L352.279 310.594C352.721 310.604 353.17 310.612 353.628 310.612C402.662 310.612 442.512 270.289 442.512 220.801C442.512 171.312 402.662 131.006 353.628 131.006C304.594 131.006 264.744 171.312 264.744 220.801V221.312L210.8 300.32C209.938 300.287 209.068 300.271 208.191 300.271C194.569 300.271 181.864 304.379 171.259 311.461L50.1116 260.848ZM353.634 164.289C384.422 164.289 409.524 189.634 409.524 220.802C409.524 251.97 384.423 277.299 353.634 277.299C322.829 277.299 297.728 251.97 297.728 220.802C297.728 189.634 322.83 164.289 353.634 164.289ZM353.717 174.764C328.589 174.764 308.234 195.349 308.234 220.703C308.234 246.056 328.589 266.641 353.717 266.641C378.862 266.641 399.217 246.057 399.217 220.703C399.217 195.348 378.862 174.764 353.717 174.764Z" stroke="#0082C8" stroke-width="4"/>
<path d="M190.076 411.82L190.075 411.82C180.864 407.945 173.539 401.413 168.572 393.47L191.606 403.09L192.382 401.247L191.612 403.092L191.61 403.092C211.013 411.26 233.286 401.976 241.346 382.404C249.418 362.843 240.269 340.359 220.877 332.192L220.871 332.19L196.649 322.07C206.143 319.627 216.447 320.129 226.17 324.209C237.73 329.081 246.745 338.216 251.52 349.945C256.295 361.676 256.263 374.577 251.44 386.275L251.44 386.276C241.48 410.443 213.939 421.874 190.076 411.82ZM50.1116 260.848C60.1268 142.717 158.124 50 277.602 50C403.729 50 506 153.313 506 280.808C506 408.286 403.729 511.615 277.602 511.615C174.51 511.615 87.4052 442.551 59.0071 347.706L142.505 382.59C149.051 413.116 176.007 436.071 208.191 436.071C245.273 436.071 275.408 405.592 275.408 368.154C275.408 367.446 275.393 366.735 275.368 366.026L352.279 310.594C352.721 310.604 353.17 310.612 353.628 310.612C402.662 310.612 442.512 270.289 442.512 220.801C442.512 171.312 402.662 131.006 353.628 131.006C304.594 131.006 264.744 171.312 264.744 220.801V221.312L210.8 300.32C209.938 300.287 209.068 300.271 208.191 300.271C194.569 300.271 181.864 304.379 171.259 311.461L50.1116 260.848ZM353.634 164.289C384.422 164.289 409.524 189.634 409.524 220.802C409.524 251.97 384.423 277.299 353.634 277.299C322.829 277.299 297.728 251.97 297.728 220.802C297.728 189.634 322.83 164.289 353.634 164.289ZM353.717 174.764C328.589 174.764 308.234 195.349 308.234 220.703C308.234 246.056 328.589 266.641 353.717 266.641C378.862 266.641 399.217 246.057 399.217 220.703C399.217 195.348 378.862 174.764 353.717 174.764Z" stroke="url(#paint6_linear_1_73)" stroke-width="4"/>
<path d="M190.076 411.82L190.075 411.82C180.864 407.945 173.539 401.413 168.572 393.47L191.606 403.09L192.382 401.247L191.612 403.092L191.61 403.092C211.013 411.26 233.286 401.976 241.346 382.404C249.418 362.843 240.269 340.359 220.877 332.192L220.871 332.19L196.649 322.07C206.143 319.627 216.447 320.129 226.17 324.209C237.73 329.081 246.745 338.216 251.52 349.945C256.295 361.676 256.263 374.577 251.44 386.275L251.44 386.276C241.48 410.443 213.939 421.874 190.076 411.82ZM50.1116 260.848C60.1268 142.717 158.124 50 277.602 50C403.729 50 506 153.313 506 280.808C506 408.286 403.729 511.615 277.602 511.615C174.51 511.615 87.4052 442.551 59.0071 347.706L142.505 382.59C149.051 413.116 176.007 436.071 208.191 436.071C245.273 436.071 275.408 405.592 275.408 368.154C275.408 367.446 275.393 366.735 275.368 366.026L352.279 310.594C352.721 310.604 353.17 310.612 353.628 310.612C402.662 310.612 442.512 270.289 442.512 220.801C442.512 171.312 402.662 131.006 353.628 131.006C304.594 131.006 264.744 171.312 264.744 220.801V221.312L210.8 300.32C209.938 300.287 209.068 300.271 208.191 300.271C194.569 300.271 181.864 304.379 171.259 311.461L50.1116 260.848ZM353.634 164.289C384.422 164.289 409.524 189.634 409.524 220.802C409.524 251.97 384.423 277.299 353.634 277.299C322.829 277.299 297.728 251.97 297.728 220.802C297.728 189.634 322.83 164.289 353.634 164.289ZM353.717 174.764C328.589 174.764 308.234 195.349 308.234 220.703C308.234 246.056 328.589 266.641 353.717 266.641C378.862 266.641 399.217 246.057 399.217 220.703C399.217 195.348 378.862 174.764 353.717 174.764Z" stroke="url(#paint7_linear_1_73)" stroke-width="4"/>
<path d="M190.076 411.82L190.075 411.82C180.864 407.945 173.539 401.413 168.572 393.47L191.606 403.09L192.382 401.247L191.612 403.092L191.61 403.092C211.013 411.26 233.286 401.976 241.346 382.404C249.418 362.843 240.269 340.359 220.877 332.192L220.871 332.19L196.649 322.07C206.143 319.627 216.447 320.129 226.17 324.209C237.73 329.081 246.745 338.216 251.52 349.945C256.295 361.676 256.263 374.577 251.44 386.275L251.44 386.276C241.48 410.443 213.939 421.874 190.076 411.82ZM50.1116 260.848C60.1268 142.717 158.124 50 277.602 50C403.729 50 506 153.313 506 280.808C506 408.286 403.729 511.615 277.602 511.615C174.51 511.615 87.4052 442.551 59.0071 347.706L142.505 382.59C149.051 413.116 176.007 436.071 208.191 436.071C245.273 436.071 275.408 405.592 275.408 368.154C275.408 367.446 275.393 366.735 275.368 366.026L352.279 310.594C352.721 310.604 353.17 310.612 353.628 310.612C402.662 310.612 442.512 270.289 442.512 220.801C442.512 171.312 402.662 131.006 353.628 131.006C304.594 131.006 264.744 171.312 264.744 220.801V221.312L210.8 300.32C209.938 300.287 209.068 300.271 208.191 300.271C194.569 300.271 181.864 304.379 171.259 311.461L50.1116 260.848ZM353.634 164.289C384.422 164.289 409.524 189.634 409.524 220.802C409.524 251.97 384.423 277.299 353.634 277.299C322.829 277.299 297.728 251.97 297.728 220.802C297.728 189.634 322.83 164.289 353.634 164.289ZM353.717 174.764C328.589 174.764 308.234 195.349 308.234 220.703C308.234 246.056 328.589 266.641 353.717 266.641C378.862 266.641 399.217 246.057 399.217 220.703C399.217 195.348 378.862 174.764 353.717 174.764Z" stroke="url(#paint8_linear_1_73)" stroke-width="4"/>
<path d="M190.076 411.82L190.075 411.82C180.864 407.945 173.539 401.413 168.572 393.47L191.606 403.09L192.382 401.247L191.612 403.092L191.61 403.092C211.013 411.26 233.286 401.976 241.346 382.404C249.418 362.843 240.269 340.359 220.877 332.192L220.871 332.19L196.649 322.07C206.143 319.627 216.447 320.129 226.17 324.209C237.73 329.081 246.745 338.216 251.52 349.945C256.295 361.676 256.263 374.577 251.44 386.275L251.44 386.276C241.48 410.443 213.939 421.874 190.076 411.82ZM50.1116 260.848C60.1268 142.717 158.124 50 277.602 50C403.729 50 506 153.313 506 280.808C506 408.286 403.729 511.615 277.602 511.615C174.51 511.615 87.4052 442.551 59.0071 347.706L142.505 382.59C149.051 413.116 176.007 436.071 208.191 436.071C245.273 436.071 275.408 405.592 275.408 368.154C275.408 367.446 275.393 366.735 275.368 366.026L352.279 310.594C352.721 310.604 353.17 310.612 353.628 310.612C402.662 310.612 442.512 270.289 442.512 220.801C442.512 171.312 402.662 131.006 353.628 131.006C304.594 131.006 264.744 171.312 264.744 220.801V221.312L210.8 300.32C209.938 300.287 209.068 300.271 208.191 300.271C194.569 300.271 181.864 304.379 171.259 311.461L50.1116 260.848ZM353.634 164.289C384.422 164.289 409.524 189.634 409.524 220.802C409.524 251.97 384.423 277.299 353.634 277.299C322.829 277.299 297.728 251.97 297.728 220.802C297.728 189.634 322.83 164.289 353.634 164.289ZM353.717 174.764C328.589 174.764 308.234 195.349 308.234 220.703C308.234 246.056 328.589 266.641 353.717 266.641C378.862 266.641 399.217 246.057 399.217 220.703C399.217 195.348 378.862 174.764 353.717 174.764Z" stroke="url(#paint9_linear_1_73)" stroke-width="4"/>
<path d="M190.076 411.82L190.075 411.82C180.864 407.945 173.539 401.413 168.572 393.47L191.606 403.09L192.382 401.247L191.612 403.092L191.61 403.092C211.013 411.26 233.286 401.976 241.346 382.404C249.418 362.843 240.269 340.359 220.877 332.192L220.871 332.19L196.649 322.07C206.143 319.627 216.447 320.129 226.17 324.209C237.73 329.081 246.745 338.216 251.52 349.945C256.295 361.676 256.263 374.577 251.44 386.275L251.44 386.276C241.48 410.443 213.939 421.874 190.076 411.82ZM50.1116 260.848C60.1268 142.717 158.124 50 277.602 50C403.729 50 506 153.313 506 280.808C506 408.286 403.729 511.615 277.602 511.615C174.51 511.615 87.4052 442.551 59.0071 347.706L142.505 382.59C149.051 413.116 176.007 436.071 208.191 436.071C245.273 436.071 275.408 405.592 275.408 368.154C275.408 367.446 275.393 366.735 275.368 366.026L352.279 310.594C352.721 310.604 353.17 310.612 353.628 310.612C402.662 310.612 442.512 270.289 442.512 220.801C442.512 171.312 402.662 131.006 353.628 131.006C304.594 131.006 264.744 171.312 264.744 220.801V221.312L210.8 300.32C209.938 300.287 209.068 300.271 208.191 300.271C194.569 300.271 181.864 304.379 171.259 311.461L50.1116 260.848ZM353.634 164.289C384.422 164.289 409.524 189.634 409.524 220.802C409.524 251.97 384.423 277.299 353.634 277.299C322.829 277.299 297.728 251.97 297.728 220.802C297.728 189.634 322.83 164.289 353.634 164.289ZM353.717 174.764C328.589 174.764 308.234 195.349 308.234 220.703C308.234 246.056 328.589 266.641 353.717 266.641C378.862 266.641 399.217 246.057 399.217 220.703C399.217 195.348 378.862 174.764 353.717 174.764Z" stroke="url(#paint10_linear_1_73)" stroke-width="4"/>
<defs>
<filter id="filter0_f_1_73" x="0" y="0" width="556" height="561.615" filterUnits="userSpaceOnUse" color-interpolation-filters="sRGB">
<feFlood flood-opacity="0" result="BackgroundImageFix"/>
<feBlend mode="normal" in="SourceGraphic" in2="BackgroundImageFix" result="shape"/>
<feGaussianBlur stdDeviation="24" result="effect1_foregroundBlur_1_73"/>
</filter>
<linearGradient id="paint0_linear_1_73" x1="278" y1="281" x2="508" y2="48" gradientUnits="userSpaceOnUse">
<stop stop-color="#0C0C0C"/>
<stop offset="1" stop-color="#0C0C0C" stop-opacity="0"/>
</linearGradient>
<linearGradient id="paint1_linear_1_73" x1="48" y1="514" x2="508" y2="48" gradientUnits="userSpaceOnUse">
<stop stop-color="#0C0C0C" stop-opacity="0"/>
<stop offset="1" stop-color="#0C0C0C"/>
</linearGradient>
<linearGradient id="paint2_linear_1_73" x1="48" y1="514" x2="508" y2="48" gradientUnits="userSpaceOnUse">
<stop stop-color="#0C0C0C" stop-opacity="0"/>
<stop offset="1" stop-color="#0C0C0C"/>
</linearGradient>
<linearGradient id="paint3_linear_1_73" x1="48" y1="514" x2="508" y2="48" gradientUnits="userSpaceOnUse">
<stop stop-color="#0C0C0C" stop-opacity="0"/>
<stop offset="1" stop-color="#0C0C0C"/>
</linearGradient>
<linearGradient id="paint4_linear_1_73" x1="48" y1="514" x2="508" y2="48" gradientUnits="userSpaceOnUse">
<stop stop-color="#0C0C0C" stop-opacity="0"/>
<stop offset="1" stop-color="#0C0C0C"/>
</linearGradient>
<linearGradient id="paint5_linear_1_73" x1="48" y1="514" x2="508" y2="48" gradientUnits="userSpaceOnUse">
<stop stop-color="#0C0C0C" stop-opacity="0"/>
<stop offset="1" stop-color="#0C0C0C"/>
</linearGradient>
<linearGradient id="paint6_linear_1_73" x1="48" y1="514" x2="508" y2="48" gradientUnits="userSpaceOnUse">
<stop stop-color="#0C0C0C"/>
<stop offset="1" stop-color="#0C0C0C" stop-opacity="0"/>
</linearGradient>
<linearGradient id="paint7_linear_1_73" x1="48" y1="514" x2="508" y2="48" gradientUnits="userSpaceOnUse">
<stop stop-color="#0C0C0C"/>
<stop offset="1" stop-color="#0C0C0C" stop-opacity="0"/>
</linearGradient>
<linearGradient id="paint8_linear_1_73" x1="48" y1="514" x2="508" y2="48" gradientUnits="userSpaceOnUse">
<stop stop-color="#0C0C0C"/>
<stop offset="1" stop-color="#0C0C0C" stop-opacity="0"/>
</linearGradient>
<linearGradient id="paint9_linear_1_73" x1="48" y1="514" x2="508" y2="48" gradientUnits="userSpaceOnUse">
<stop stop-color="#0C0C0C"/>
<stop offset="1" stop-color="#0C0C0C" stop-opacity="0"/>
</linearGradient>
<linearGradient id="paint10_linear_1_73" x1="48" y1="514" x2="508" y2="48" gradientUnits="userSpaceOnUse">
<stop stop-color="#0C0C0C"/>
<stop offset="1" stop-color="#0C0C0C" stop-opacity="0"/>
</linearGradient>
</defs>
</svg>
