<svg xmlns="http://www.w3.org/2000/svg" width="65" height="41" viewBox="0 0 65 41">
    <g fill="none" fill-rule="evenodd">
        <path fill="#F1AD3D" d="M43.488 36.704l.895-.024.883-.064.866-.111.86-.152.836-.193.825-.234.807-.275.79-.31.772-.351.749-.38.725-.422.708-.45.679-.485.655-.515.632-.544.602-.58.58-.602.543-.632.515-.655.486-.678.45-.708.421-.726.38-.748.352-.773.31-.79.274-.807.234-.824.193-.837.153-.86.11-.866.065-.883.023-.895-.023-.889-.064-.877-.111-.866-.153-.849-.193-.836-.234-.819-.274-.807-.31-.784-.352-.766-.38-.75-.421-.719-.45-.707-.486-.679-.515-.65-.544-.631-.579-.602-.602-.574-.632-.544-.655-.515-.679-.485-.708-.45-.725-.416-.749-.38-.772-.351-.79-.31-.807-.275-.825-.234-.836-.193-.86-.152-.866-.112-.883-.064-.895-.023-.89.023-.883.064-.866.112-.854.152-.836.193-.825.234-.801.275-.79.31-.766.35-.743.38-.725.416-.703.45-.678.486-.655.515-.626.544-.603.574-.573.602-.544.632-.515.649-.48.679-.45.707-.415.72-.386.749-.346.766-.31.784-.268.807-.235.819-.193.836-.152.849-.11.866-.065.877-.023.89.023.894.064.883.111.866.152.86.193.837.235.824.268.808.31.79.346.772.386.748.415.726.45.708.48.678.515.655.544.632.573.603.603.579.626.544.655.515.678.485.703.45.725.421.743.38.766.352.79.31.801.275.825.234.836.193.854.152.866.11.883.065.89.024"/>
        <path fill="#D82332" d="M20.288 36.704l.889-.024.883-.064.866-.111.854-.152.837-.193.824-.234.802-.275.79-.31.766-.351.743-.38.725-.422.702-.45.679-.485.655-.515.626-.544.602-.58.574-.602.543-.632.515-.655.48-.678.45-.708.416-.726.386-.748.345-.773.31-.79.27-.807.233-.824.193-.837.152-.86.111-.866.065-.883.023-.895-.023-.889-.065-.877-.11-.866-.153-.849-.193-.836-.234-.819-.269-.807-.31-.784-.345-.766-.386-.75-.416-.719-.45-.707-.48-.679-.515-.65-.543-.631-.574-.602-.602-.574-.626-.544-.655-.515-.679-.485-.702-.45-.725-.416-.743-.38-.767-.351-.79-.31-.8-.275-.825-.234-.837-.193-.854-.152-.866-.112-.883-.064-.89-.023-.894.023-.883.064-.866.112-.86.152-.837.193-.824.234-.808.275-.79.31-.772.35-.749.38-.725.416-.708.45-.678.486-.655.515-.632.544-.603.574-.579.602-.544.632-.515.649-.485.679-.45.707-.422.72-.38.749-.35.766-.31.784-.276.807-.234.819-.193.836-.152.849-.111.866-.064.877-.024.89.024.894.064.883.11.866.153.86.193.837.234.824.275.808.31.79.351.772.38.748.421.726.451.708.485.678.515.655.544.632.58.603.602.579.632.544.655.515.678.485.708.45.725.421.75.38.772.352.79.31.807.275.824.234.837.193.86.152.866.11.883.065.895.024"/>
        <path fill="#F1AD3D" d="M29.858 8.672h9.213V7.73h-8.417l-.796.942M28.477 10.766h10.594v-.941H29.033l-.556.941M27.448 12.854H39.07v-.942H27.857l-.41.942M26.74 14.948h12.331v-.941H27.032l-.292.941M27.15 25.069H39.1v-.942H26.857l.293.942M28.033 27.163H39.1v-.942H27.594l.439.942M29.273 29.251H39.1v-.942H28.682l.591.942M30.981 31.345h8.12v-.947h-8.945l.825.947M26.325 17.037H39.07v-.942H26.506l-.181.942M34.093 22.98h4.861v-.941h-4.686l-.175.941M34.48 20.892h4.474v-.948h-4.3l-.175.948M26.003 19.944h1.264v.948H26.06l-.058-.948"/>
        <path fill="#FFFFFE" d="M23.646 18.804l-.082-.006-.082-.012-.076-.012-.076-.011-.07-.012-.077-.012-.076-.011-.082-.012-.081-.012-.094-.006-.105-.005-.111-.006h-.123l-.135.006-.152.011-.17.012-.117.017-.11.018-.1.035-.088.035-.082.04-.076.048-.058.059-.053.052-.035.064-.03.065-.011.07v.07l.017.076.024.076.047.076.058.076.117.111.14.088.164.076.176.065.187.058.193.064.193.07.187.077.176.099.164.123.146.146.123.182.093.222.059.263.023.316-.023.369-.041.275-.07.24-.094.222-.117.193-.134.17-.153.146-.163.128-.182.111-.187.088-.193.076-.199.059-.204.046-.2.035-.193.018-.193.012-.181.005h-.252l-.233-.005h-.205l-.193-.006-.176-.006-.158-.012-.14-.011-.135-.018-.122-.012-.112-.023-.11-.017-.1-.03-.1-.023-.093-.035-.094-.035-.1-.035.264-1.293.053.012.064.017.082.023.1.024.105.023.117.024.128.029.14.023.147.024.152.023.158.018.164.017.17.006.169.006h.17l.17-.006.17-.035.134-.047.105-.064.082-.082.058-.082.047-.094.03-.093.023-.088.011-.17-.052-.146-.1-.117-.146-.1-.176-.087-.204-.088-.229-.082-.227-.093-.234-.105-.223-.123-.204-.152-.188-.182-.146-.222-.105-.263-.053-.316.006-.375.03-.228.04-.216.059-.199.07-.187.094-.176.105-.152.123-.146.146-.129.17-.111.187-.094.21-.087.234-.065.264-.052.286-.041.316-.024.345-.006h.217l.198.006.182.006.163.006.147.012.134.012.117.011.106.012.1.012.081.017.076.012.07.011.059.012.052.006.053.012.047.006-.298 1.322"/>
        <path stroke="#FFFFFE" stroke-width=".216" d="M23.646 18.804l-.082-.006-.082-.012-.076-.012-.076-.011-.07-.012-.077-.012-.076-.011-.082-.012-.081-.012-.094-.006-.105-.005-.111-.006h-.123l-.135.006-.152.011-.17.012-.117.017-.11.018-.1.035-.088.035-.082.04-.076.048-.058.059-.053.052-.035.064-.03.065-.011.07v.07l.017.076.024.076.047.076.058.076.117.111.14.088.164.076.176.065.187.058.193.064.193.07.187.077.176.099.164.123.146.146.123.182.093.222.059.263.023.316-.023.369-.041.275-.07.24-.094.222-.117.193-.134.17-.153.146-.163.128-.182.111-.187.088-.193.076-.199.059-.204.046-.2.035-.193.018-.193.012-.181.005h-.252l-.233-.005h-.205l-.193-.006-.176-.006-.158-.012-.14-.011-.135-.018-.122-.012-.112-.023-.11-.017-.1-.03-.1-.023-.093-.035-.094-.035-.1-.035.264-1.293.053.012.064.017.082.023.1.024.105.023.117.024.128.029.14.023.147.024.152.023.158.018.164.017.17.006.169.006h.17l.17-.006.17-.035.134-.047.105-.064.082-.082.058-.082.047-.094.03-.093.023-.088.011-.17-.052-.146-.1-.117-.146-.1-.176-.087-.204-.088-.229-.082-.227-.093-.234-.105-.223-.123-.204-.152-.188-.182-.146-.222-.105-.263-.053-.316.006-.375.03-.228.04-.216.059-.199.07-.187.094-.176.105-.152.123-.146.146-.129.17-.111.187-.094.21-.087.234-.065.264-.052.286-.041.316-.024.345-.006h.217l.198.006.182.006.163.006.147.012.134.012.117.011.106.012.1.012.081.017.076.012.07.011.059.012.052.006.053.012.047.006-.298 1.322"/>
        <path fill="#FFFFFE" d="M25.032 16.037h1.62l-.24 1.415h.977l-.21 1.322-1.03-.029-.561 3.264-.006.117.03.1.058.076.076.064.105.041.117.035.128.023.14.012.13-.006.117-.011.105-.018.094-.023.075-.024.053-.017.035-.012.012-.006-.205 1.088-.04.03-.083.046-.04.024-.042.017-.046.018-.053.018-.052.017-.06.018-.057.011-.07.012-.07.012-.077.011-.088.012-.093.012-.1.011h-.444l-.234-.017-.205-.024-.187-.035-.158-.04-.135-.053-.11-.059-.1-.07-.077-.076-.058-.082-.041-.1-.03-.099-.017-.11-.006-.124V22.7l.018-.135.018-.146 1.117-6.382"/>
        <path stroke="#FFFFFE" stroke-width=".216" d="M25.032 16.037h1.62l-.24 1.415h.977l-.21 1.322-1.03-.029-.561 3.264-.006.117.03.1.058.076.076.064.105.041.117.035.128.023.14.012.13-.006.117-.011.105-.018.094-.023.075-.024.053-.017.035-.012.012-.006-.205 1.088-.04.03-.083.046-.04.024-.042.017-.046.018-.053.018-.052.017-.06.018-.057.011-.07.012-.07.012-.077.011-.088.012-.093.012-.1.011h-.444l-.234-.017-.205-.024-.187-.035-.158-.04-.135-.053-.11-.059-.1-.07-.077-.076-.058-.082-.041-.1-.03-.099-.017-.11-.006-.124V22.7l.018-.135.018-.146 1.117-6.382"/>
        <path fill="#FFFFFE" d="M28.682 20.98l-.018.1-.005.104.011.112.024.11.04.112.048.105.064.111.07.1.082.1.088.087.094.088.105.07.105.064.117.053.117.04.117.024.152.024.146.017.152.018.153.011.152.006h.158l.152-.006.158-.011.158-.024.157-.029.164-.035.158-.053.164-.064.17-.07.163-.094.17-.1-.234 1.44-.187.093-.094.035-.088.035-.087.03-.094.029-.093.024-.1.017-.105.018-.117.011-.123.012-.135.012-.152.005h-.157l-.182.006h-.193l-.287-.006-.292-.029-.293-.04-.292-.07-.287-.089-.275-.11-.263-.147-.246-.17-.228-.198-.199-.24-.17-.27-.14-.31-.099-.345-.064-.392-.018-.432.03-.48.023-.187.035-.217.047-.228.064-.246.088-.251.105-.252.134-.257.164-.246.187-.234.229-.222.257-.199.292-.175.34-.146.38-.106.421-.07.474-.024.228.006.24.024.24.04.24.06.234.087.228.105.21.14.193.164.176.2.146.233.117.27.082.31.047.35.006.398-.041.445-.088.491-.03.357h-4.264l.27-1.152h2.562l.011-.147-.006-.14-.011-.129-.024-.117-.04-.11-.042-.1-.058-.088-.059-.082-.07-.07-.076-.059-.088-.052-.087-.047-.094-.035-.093-.023-.1-.018-.105-.012-.111.006-.106.018-.099.023-.1.035-.099.047-.088.053-.087.064-.077.07-.076.082-.07.088-.064.093-.053.1-.052.105-.041.117-.035.117-.024.123-.234 1.21"/>
        <path stroke="#FFFFFE" stroke-width=".216" d="M28.682 20.98l-.018.1-.005.104.011.112.024.11.04.112.048.105.064.111.07.1.082.1.088.087.094.088.105.07.105.064.117.053.117.04.117.024.152.024.146.017.152.018.153.011.152.006h.158l.152-.006.158-.011.158-.024.157-.029.164-.035.158-.053.164-.064.17-.07.163-.094.17-.1-.234 1.44-.187.093-.094.035-.088.035-.087.03-.094.029-.093.024-.1.017-.105.018-.117.011-.123.012-.135.012-.152.005h-.157l-.182.006h-.193l-.287-.006-.292-.029-.293-.04-.292-.07-.287-.089-.275-.11-.263-.147-.246-.17-.228-.198-.199-.24-.17-.27-.14-.31-.099-.345-.064-.392-.018-.432.03-.48.023-.187.035-.217.047-.228.064-.246.088-.251.105-.252.134-.257.164-.246.187-.234.229-.222.257-.199.292-.175.34-.146.38-.106.421-.07.474-.024.228.006.24.024.24.04.24.06.234.087.228.105.21.14.193.164.176.2.146.233.117.27.082.31.047.35.006.398-.041.445-.088.491-.03.357h-4.264l.27-1.152h2.562l.011-.147-.006-.14-.011-.129-.024-.117-.04-.11-.042-.1-.058-.088-.059-.082-.07-.07-.076-.059-.088-.052-.087-.047-.094-.035-.093-.023-.1-.018-.105-.012-.111.006-.106.018-.099.023-.1.035-.099.047-.088.053-.087.064-.077.07-.076.082-.07.088-.064.093-.053.1-.052.105-.041.117-.035.117-.024.123-.234 1.21"/>
        <path fill="#FFFFFE" d="M42.634 17.803l-.076-.04-.076-.036-.082-.04-.088-.042-.088-.035-.1-.035-.099-.035-.105-.035-.111-.03-.111-.023-.123-.023-.123-.018-.135-.011-.134-.012h-.433l-.152.012-.158.017-.164.03-.163.046-.164.065-.164.082-.164.105-.158.129-.152.152-.146.187-.14.216-.13.258-.122.292-.111.328-.094.374-.035.21-.023.205-.012.205.006.2.017.198.041.187.053.176.064.175.088.158.105.152.123.135.14.122.158.106.182.088.199.076.222.052.076.018.088.018.105.011.117.012.129.012h.28l.147-.012.152-.018.152-.029.146-.04.147-.048.146-.064.134-.076.123-.094.117-.105-.263 1.562-.035.029-.035.035-.047.041-.053.035-.064.047-.082.04-.094.042-.105.035-.134.04-.153.03-.175.024-.205.023-.228.012-.263.005-.299-.005-.327-.018-.27-.03-.268-.057-.27-.088-.268-.117-.258-.14-.246-.176-.233-.205-.217-.234-.193-.263-.164-.293-.14-.327-.105-.357-.07-.392-.024-.415.012-.457.064-.485.047-.24.052-.234.059-.228.058-.217.065-.204.076-.205.076-.193.082-.182.088-.18.087-.17.1-.164.105-.152.105-.147.117-.14.117-.129.123-.122.135-.117.134-.112.14-.1.147-.093.158-.087.158-.076.164-.07.17-.065.18-.058.182-.047.187-.041.199-.035.199-.03.21-.023.211-.012.222-.005.188.005.18.012.176.018.176.023.164.023.158.035.152.03.14.035.135.035.117.035.11.035.094.035.082.03.07.023.053.023.035.012-.292 1.62"/>
        <path stroke="#FFFFFE" stroke-width=".216" d="M42.634 17.803l-.076-.04-.076-.036-.082-.04-.088-.042-.088-.035-.1-.035-.099-.035-.105-.035-.111-.03-.111-.023-.123-.023-.123-.018-.135-.011-.134-.012h-.433l-.152.012-.158.017-.164.03-.163.046-.164.065-.164.082-.164.105-.158.129-.152.152-.146.187-.14.216-.13.258-.122.292-.111.328-.094.374-.035.21-.023.205-.012.205.006.2.017.198.041.187.053.176.064.175.088.158.105.152.123.135.14.122.158.106.182.088.199.076.222.052.076.018.088.018.105.011.117.012.129.012h.28l.147-.012.152-.018.152-.029.146-.04.147-.048.146-.064.134-.076.123-.094.117-.105-.263 1.562-.035.029-.035.035-.047.041-.053.035-.064.047-.082.04-.094.042-.105.035-.134.04-.153.03-.175.024-.205.023-.228.012-.263.005-.299-.005-.327-.018-.27-.03-.268-.057-.27-.088-.268-.117-.258-.14-.246-.176-.233-.205-.217-.234-.193-.263-.164-.293-.14-.327-.105-.357-.07-.392-.024-.415.012-.457.064-.485.047-.24.052-.234.059-.228.058-.217.065-.204.076-.205.076-.193.082-.182.088-.18.087-.17.1-.164.105-.152.105-.147.117-.14.117-.129.123-.122.135-.117.134-.112.14-.1.147-.093.158-.087.158-.076.164-.07.17-.065.18-.058.182-.047.187-.041.199-.035.199-.03.21-.023.211-.012.222-.005.188.005.18.012.176.018.176.023.164.023.158.035.152.03.14.035.135.035.117.035.11.035.094.035.082.03.07.023.053.023.035.012-.292 1.62"/>
        <path fill="#FFFFFE" d="M57.036 23.717h-1.62l.116-.649v-.058l-.093.116-.1.106-.1.094-.104.081-.106.076-.105.065-.105.053-.111.052-.112.041-.11.03-.112.028-.117.018-.117.018-.111.011-.117.006h-.117l-.304-.023-.281-.065-.257-.1-.235-.134-.21-.17-.187-.198-.164-.217-.14-.245-.117-.263-.094-.276-.064-.286-.047-.298-.018-.299.006-.304.03-.298.052-.299.088-.345.105-.327.123-.299.146-.28.152-.264.176-.234.181-.21.193-.193.205-.17.216-.146.223-.129.222-.1.234-.081.234-.053.234-.035.24-.012.17.006.163.018.152.029.14.04.135.048.117.052.117.065.106.064.093.07.088.076.076.077.07.075.058.076.053.077.047.07.035.07.41-2.299h1.59l-1.321 7.651"/>
        <path stroke="#FFFFFE" stroke-width=".216" d="M57.036 23.717h-1.62l.116-.649v-.058l-.093.116-.1.106-.1.094-.104.081-.106.076-.105.065-.105.053-.111.052-.112.041-.11.03-.112.028-.117.018-.117.018-.111.011-.117.006h-.117l-.304-.023-.281-.065-.257-.1-.235-.134-.21-.17-.187-.198-.164-.217-.14-.245-.117-.263-.094-.276-.064-.286-.047-.298-.018-.299.006-.304.03-.298.052-.299.088-.345.105-.327.123-.299.146-.28.152-.264.176-.234.181-.21.193-.193.205-.17.216-.146.223-.129.222-.1.234-.081.234-.053.234-.035.24-.012.17.006.163.018.152.029.14.04.135.048.117.052.117.065.106.064.093.07.088.076.076.077.07.075.058.076.053.077.047.07.035.07.41-2.299h1.59l-1.321 7.651"/>
        <path fill="#F1AD3D" d="M54.386 22.302l.164-.012.152-.035.14-.041.135-.064.122-.07.117-.088.112-.1.1-.105.087-.117.082-.129.076-.134.064-.14.059-.147.046-.152.041-.158.03-.158.029-.164.017-.17v-.157l-.006-.164-.017-.152-.024-.146-.04-.14-.047-.135-.059-.117-.07-.111-.076-.094-.088-.082-.099-.07-.105-.047-.112-.03-.123-.011-.157.012-.146.023-.135.047-.135.059-.117.076-.117.093-.1.1-.099.11-.087.13-.082.134-.076.14-.065.153-.058.157-.047.158-.047.17-.035.17-.03.257.013.28.04.287.077.275.117.24.152.193.193.13.234.046"/>
        <path fill="#FFFFFE" d="M18.463 22.419l-.234 1.298h-1.474l.04-.24.03-.216.023-.164.024-.087-.082.093-.094.094-.11.088-.124.081-.14.082-.147.07-.152.07-.158.06-.17.052-.169.04-.17.036-.175.023-.17.012-.17.006-.163-.018-.158-.023-.205-.053-.187-.058-.164-.076-.146-.088-.129-.094-.117-.105-.093-.111-.082-.117-.07-.123-.059-.129-.047-.128-.035-.129-.023-.135-.018-.134-.012-.129v-.128l.018-.229.035-.216.059-.205.076-.199.093-.187.106-.17.123-.163.14-.147.146-.134.164-.123.17-.11.175-.095.187-.082.193-.064.2-.053.204-.035h.012l.029-.005.041-.006.064-.006.07-.012.082-.006.088-.011.1-.012.1-.012.098-.012.106-.006.093-.011.094-.006.088-.006.082-.006h.198l.14.006.13.006h.128l.105.006.082.006.059.005h.017l.012-.04.035-.106.03-.122.011-.112-.023-.128-.053-.117-.07-.106-.094-.087-.11-.076-.124-.053-.14-.035-.152-.012-.164-.006-.175-.006h-.182l-.187.006-.193.012-.187.017-.187.018-.182.024-.175.023-.17.029-.152.03-.14.029-.13.035-.104.035-.082.04-.065.036.416-1.41.128-.053.13-.046.14-.041.28-.059.152-.023.152-.024.158-.011.164-.012.17-.006.175-.006h.562l.205.006.204.006.164.012.176.03.181.04.187.053.182.07.175.082.176.1.163.11.147.129.128.14.117.158.088.176.058.187.036.199v.222l-.036.234-.59 3.089"/>
        <path stroke="#FFFFFE" stroke-width=".216" d="M18.463 22.419l-.234 1.298h-1.474l.04-.24.03-.216.023-.164.024-.087-.082.093-.094.094-.11.088-.124.081-.14.082-.147.07-.152.07-.158.06-.17.052-.169.04-.17.036-.175.023-.17.012-.17.006-.163-.018-.158-.023-.205-.053-.187-.058-.164-.076-.146-.088-.129-.094-.117-.105-.093-.111-.082-.117-.07-.123-.059-.129-.047-.128-.035-.129-.023-.135-.018-.134-.012-.129v-.128l.018-.229.035-.216.059-.205.076-.199.093-.187.106-.17.123-.163.14-.147.146-.134.164-.123.17-.11.175-.095.187-.082.193-.064.2-.053.204-.035h.012l.029-.005.041-.006.064-.006.07-.012.082-.006.088-.011.1-.012.1-.012.098-.012.106-.006.093-.011.094-.006.088-.006.082-.006h.198l.14.006.13.006h.128l.105.006.082.006.059.005h.017l.012-.04.035-.106.03-.122.011-.112-.023-.128-.053-.117-.07-.106-.094-.087-.11-.076-.124-.053-.14-.035-.152-.012-.164-.006-.175-.006h-.182l-.187.006-.193.012-.187.017-.187.018-.182.024-.175.023-.17.029-.152.03-.14.029-.13.035-.104.035-.082.04-.065.036.416-1.41.128-.053.13-.046.14-.041.28-.059.152-.023.152-.024.158-.011.164-.012.17-.006.175-.006h.562l.205.006.204.006.164.012.176.03.181.04.187.053.182.07.175.082.176.1.163.11.147.129.128.14.117.158.088.176.058.187.036.199v.222l-.036.234-.59 3.089"/>
        <path fill="#D82332" d="M17.053 20.892l-.006-.03-.023-.029-.036-.017-.058-.012-.064-.011-.076-.006h-.176l-.093.006-.1.011-.094.012-.093.012-.088.011-.082.018-.07.018-.064.017-.041.012-.047.017-.064.024-.065.029-.076.035-.076.04-.082.042-.076.047-.082.058-.075.059-.07.07-.065.07-.059.076-.04.082-.036.093-.017.094-.006.2.029.157.058.117.077.088.087.058.1.035.093.018.094.006.175-.006.158-.018.153-.023.134-.035.117-.041.111-.053.1-.052.088-.065.075-.058.07-.07.06-.065.046-.07.041-.07.035-.07.03-.065.017-.064.047-.17.04-.193.036-.187.029-.152"/>
        <path fill="#FFFFFE" d="M6.155 23.717H4.564l1.328-7.68h2.766l.264 4.557 1.913-4.557h2.89l-1.358 7.68h-1.59l1.005-5.738h-.064l-2.381 5.738H7.541l-.012-.24-.04-.637-.053-.907-.117-2.088-.053-.919-.04-.666-.013-.281h-.087l-.971 5.738"/>
        <path stroke="#FFFFFE" stroke-width=".216" d="M6.155 23.717H4.564l1.328-7.68h2.766l.264 4.557 1.913-4.557h2.89l-1.358 7.68h-1.59l1.005-5.738h-.064l-2.381 5.738H7.541l-.012-.24-.04-.637-.053-.907-.117-2.088-.053-.919-.04-.666-.013-.281h-.087l-.971 5.738"/>
        <path fill="#FFFFFE" d="M47.495 22.419l-.24 1.298h-1.468l.011-.24.006-.21v-.158l.012-.07-.076.087-.088.088-.105.082-.117.082-.123.076-.14.07-.147.07-.146.059-.158.047-.163.046-.165.03-.163.023-.17.012-.164.006-.158-.018-.158-.023-.21-.053-.187-.058-.164-.076-.152-.088-.129-.094-.111-.105-.094-.111-.082-.117-.07-.123-.052-.129-.047-.128-.03-.129-.023-.135-.017-.134-.012-.129v-.128l.012-.229.035-.216.052-.205.077-.199.087-.187.111-.17.123-.163.135-.147.152-.134.158-.123.17-.11.18-.095.182-.082.193-.064.193-.053.199-.035h.012l.029-.005.04-.006.06-.006.076-.012.082-.006.087-.011.094-.012.1-.012.105-.012.099-.006.1-.011.093-.006.082-.006.082-.006h.205l.14.006.135.006h.128l.111.006.094.006.053.005h.023l.011-.04.018-.106.018-.122.011-.112-.023-.128-.047-.117-.076-.106-.088-.087-.105-.076-.123-.053-.128-.035-.14-.012-.165-.006-.175-.006h-.181l-.188.006-.193.012-.187.017-.187.018-.181.024-.176.023-.17.029-.152.03-.14.029-.129.035-.105.035-.082.04-.064.036.41-1.41.128-.053.135-.046.134-.041.14-.03.147-.029.146-.023.152-.024.158-.011.164-.012.17-.006.169-.006h.55l.199.006.199.006.163.012.176.03.181.04.188.053.18.07.182.082.176.1.163.11.147.129.134.14.117.158.088.176.064.187.041.199v.222l-.029.234-.614 3.089"/>
        <path fill="#FFFFFE" d="M43.57 23.81l.163.024.158.018.164-.006.17-.012.17-.023.163-.03.164-.046.164-.047.146-.058.152-.07.14-.07.123-.083.123-.081.105-.083.094-.093.076-.088-.058-.047-.076.088-.082.082-.105.082-.112.082-.123.07-.28.14-.147.059-.152.047-.164.046-.163.03-.158.023-.17.012-.164.006-.158-.018-.152-.023-.011.07"/>
        <path fill="#FFFFFE" d="M42.154 22.039l.006.128.012.129.017.14.024.135.029.129.046.134.053.135.076.122.082.123.094.112.117.11.134.094.153.094.169.076.193.058.21.053.012-.07-.21-.053-.182-.058-.157-.077-.153-.081-.123-.094-.105-.1-.093-.11-.082-.112-.065-.123-.052-.122-.047-.123-.03-.129-.023-.134-.017-.129-.012-.129.006-.128h-.082"/>
        <path fill="#FFFFFE" d="M44.254 19.792l-.205.035-.199.053-.193.064-.187.082-.181.094-.176.117-.158.123-.152.14-.14.146-.123.164-.117.175-.088.193-.076.2-.052.21-.035.222-.018.229h.082l.006-.229.035-.21.053-.2.076-.198.087-.182.105-.163.123-.164.129-.146.152-.129.158-.123.164-.105.181-.094.176-.082.193-.064.187-.053.193-.035v-.07M45.611 18.78v.006l.135.006.123.035.116.053.1.07.082.082.07.1.047.104.023.123h.07l-.023-.134-.047-.129-.082-.111-.093-.094-.111-.081-.13-.053-.134-.035-.146-.018v.076M48.144 19.336l.03-.24v-.222l-.041-.205-.065-.193-.093-.181-.118-.164-.14-.146-.146-.13-.17-.11-.175-.105-.187-.082-.182-.07-.193-.053-.181-.041-.182-.03-.163-.011v.07l.163.012.17.03.181.04.182.053.181.07.176.082.175.093.158.111.146.13.129.134.117.152.082.17.064.18.041.194v.222l-.029.228.07.012"/>
        <path fill="#FFFFFE" d="M47.53 22.425l.614-3.09-.07-.01-.614 3.088.07.012"/>
        <path fill="#F1AD3D" d="M46.08 20.892l-.012-.035-.024-.03-.04-.017-.06-.017-.064-.006-.076-.006h-.087l-.088.006-.094.011-.093.012-.094.012-.088.011-.088.018-.075.012-.077.017-.058.012-.041.006-.047.017-.058.018-.065.023-.076.035-.07.035-.082.042-.152.105-.076.064-.064.064-.065.077-.052.081-.041.088-.035.094-.018.099-.006.2.03.157.046.117.07.088.088.058.1.035.099.018.1.006.175-.006.164-.018.152-.029.134-.04.13-.048.11-.052.106-.059.093-.07.082-.064.07-.076.064-.07.053-.077.041-.07.03-.07.023-.07.017-.064.024-.164.029-.17.024-.164.011-.146"/>
        <path fill="#FFFFFE" d="M58.13 22.916l.011-.135.047-.158.082-.14.1-.123.122-.1.14-.07.153-.046.163-.018.164.018.152.047.14.07.124.1.1.122.081.14.047.158.011.135h-.175l-.006-.105-.035-.13-.058-.116-.077-.1-.093-.081-.111-.059-.129-.04-.135-.013-.134.012-.129.041-.11.059-.095.081-.075.1-.059.117-.035.129-.012.105h-.17"/>
        <path fill="#FFFFFE" d="M58.13 22.916l-.006.035.017.17.047.158.082.14.1.117.122.1.14.075.153.047.163.018.164-.018.152-.047.14-.075.124-.1.1-.117.081-.14.047-.158.017-.17-.006-.035h-.175l.006.035-.012.14-.035.13-.058.11-.077.1-.093.082-.111.064-.129.04-.135.013-.134-.012-.129-.041-.11-.064-.095-.082-.075-.1-.059-.11-.035-.13-.012-.14v-.035h-.17"/>
        <path stroke="#FFFFFE" stroke-width=".216" d="M58.124 22.951l.017-.17.047-.158.082-.14.1-.123.122-.1.14-.07.153-.046.163-.018.164.018.152.047.14.07.124.1.1.122.081.14.047.158.017.17-.017.17-.047.158-.082.14-.1.117-.122.1-.14.075-.153.047-.164.018-.163-.018-.152-.047-.14-.075-.123-.1-.1-.117-.082-.14-.047-.158-.017-.17m.678.322h-.146v-.708h.322l.07.006.064.011.047.018.041.023.03.036.023.035.011.04.006.041-.006.053-.011.041-.018.035-.023.03-.03.023-.035.012-.04.011h-.041l.175.293h-.117l-.176-.293h-.146v.293m.146-.351l.053-.012.041-.006.035-.011.03-.012.023-.018.012-.017.011-.03v-.04l-.006-.03-.011-.023-.018-.012-.017-.011-.03-.006-.029-.006h-.24v.234h.146m0 .708l.135-.012.129-.041.11-.064.094-.082.077-.1.058-.11.035-.13.012-.14-.012-.14-.035-.13-.058-.116-.077-.1-.093-.081-.111-.059-.129-.04-.135-.013-.134.012-.129.041-.11.059-.095.081-.075.1-.059.117-.035.129-.012.14.012.14.035.13.059.11.075.1.094.082.111.064.129.04.134.013"/>
        <path fill="#FFFFFE" d="M47.934 23.717h1.649l.591-3.328.023-.129.07-.257.047-.129.059-.129.07-.122.076-.117.094-.112.105-.099.117-.094.135-.087.152-.07.17-.06.187-.046.204-.035.228-.012h.146l.264-1.503-.164.012-.158.017-.146.03-.14.04-.13.047-.122.059-.117.064-.111.07-.105.082-.1.082-.187.187-.088.1-.087.11-.088.106-.082.117.175-1.059h-1.644l-1.093 6.265"/>
        <path stroke="#FFFFFE" stroke-width=".216" d="M47.934 23.717h1.649l.591-3.328.023-.129.07-.257.047-.129.059-.129.07-.122.076-.117.094-.112.105-.099.117-.094.135-.087.152-.07.17-.06.187-.046.204-.035.228-.012h.146l.264-1.503-.164.012-.158.017-.146.03-.14.04-.13.047-.122.059-.117.064-.111.07-.105.082-.1.082-.187.187-.088.1-.087.11-.088.106-.082.117.175-1.059h-1.644l-1.093 6.265"/>
        <path fill="#FFFFFE" d="M32.444 23.717h1.678l.562-3.328.023-.129.03-.123.029-.123.04-.117.048-.116.058-.112.07-.105.082-.1.094-.087.105-.088.129-.07.14-.064.164-.053.181-.047.2-.03.227-.017h.018l.023.006.03.006h.029l.029.006.023.006.018.006h.006l.006-.024.017-.07.023-.105.03-.129.04-.152.042-.164.052-.164.053-.163.047-.112.117-.222.058-.1.053-.087.04-.07.03-.041.012-.018h-.006l-.023-.006-.03-.005-.04-.006h-.042l-.046-.006-.041-.006h-.041l-.182.012-.163.017-.153.03-.14.035-.135.047-.122.058-.111.058-.106.07-.1.077-.093.087-.087.088-.088.1-.088.099-.082.111-.175.234.21-1.059h-1.678l-1.094 6.265"/>
        <path stroke="#FFFFFE" stroke-width=".216" d="M32.444 23.717h1.678l.562-3.328.023-.129.03-.123.029-.123.04-.117.048-.116.058-.112.07-.105.082-.1.094-.087.105-.088.129-.07.14-.064.164-.053.181-.047.2-.03.227-.017h.018l.023.006.03.006h.029l.029.006.023.006.018.006h.006l.006-.024.017-.07.023-.105.03-.129.04-.152.042-.164.052-.164.053-.163.047-.112.117-.222.058-.1.053-.087.04-.07.03-.041.012-.018h-.006l-.023-.006-.03-.005-.04-.006h-.042l-.046-.006-.041-.006h-.041l-.182.012-.163.017-.153.03-.14.035-.135.047-.122.058-.111.058-.106.07-.1.077-.093.087-.087.088-.088.1-.088.099-.082.111-.175.234.21-1.059h-1.678l-1.094 6.265"/>
        <path fill="#F1AD3D" d="M58.141 29.871v-.023l.047-.152.082-.135.1-.117.122-.094.14-.07.153-.04.163-.018.164.018.152.04.14.07.124.094.1.117.081.135.047.152v.023h-.17l-.035-.123-.058-.11-.077-.1-.093-.082-.111-.064-.129-.042-.135-.011-.134.011-.129.042-.11.064-.095.082-.075.1-.059.11-.035.123h-.17M58.124 30v.018l.017.17.047.157.082.14.1.123.122.1.14.07.153.047.163.017.164-.017.152-.047.14-.07.124-.1.1-.122.081-.141.047-.158.017-.17V30h-.175v.018l-.012.14-.035.129-.058.11-.077.1-.093.082-.111.064-.129.041-.135.012-.134-.012-.129-.04-.11-.065-.095-.082-.075-.1-.059-.11-.035-.129-.012-.14V30h-.175"/>
    </g>
</svg>
