<svg xmlns="http://www.w3.org/2000/svg" width="90" height="31" viewBox="0 0 90 31">
    <defs>
        <linearGradient id="a" x1=".008%" y1="50%" y2="50%">
            <stop offset="30%" stop-color="#00B4E6"/>
            <stop offset="100%" stop-color="#088CCB"/>
        </linearGradient>
    </defs>
    <g fill="none" fill-rule="evenodd">
        <path fill="#4DB45E" d="M24.8 3v.01c-.012 0-3.45-.01-4.368 3.276-.84 3.013-3.21 11.332-3.275 11.561h-.655S14.08 9.343 13.227 6.275C12.31 2.99 8.86 3 8.86 3H1v25h7.86V13.153h.655L14.1 28h5.459l4.585-14.836h.655V28h7.86V3H24.8zM53.51 3s-2.303.207-3.383 2.62l-5.568 12.227h-.655V3h-7.86v25h7.423s2.413-.218 3.494-2.62l5.458-12.227h.655V28h7.86V3h-7.423zM64.428 14.354V28h7.86v-7.97h8.515a8.504 8.504 0 0 0 8.025-5.676h-24.4z"/>
        <path fill="url(#a)" d="M17.576 0H.098C.972 4.76 4.541 8.58 9.16 9.825a12.56 12.56 0 0 0 3.286.437h13.472a8.39 8.39 0 0 0 .175-1.747A8.512 8.512 0 0 0 17.576 0z" transform="translate(63.227 3)"/>
    </g>
</svg>
