<svg xmlns="http://www.w3.org/2000/svg" width="77" height="31" viewBox="0 0 77 31">
    <g fill="none" fill-rule="evenodd">
        <path fill="#005C9C" d="M32.46 27.274h-6.084L30.178 3.91h6.084l-3.803 23.365M21.259 3.91l-5.8 16.07-.686-3.461v.001L12.727 6.014s-.247-2.105-2.885-2.105H.254l-.112.395s2.932.61 6.362 2.672l5.285 20.298h6.339L27.806 3.91h-6.547M62.412 19.01l3.197-8.745 1.798 8.744h-4.995zm6.694 8.264h5.585L69.821 3.91h-4.89c-2.26 0-2.808 1.742-2.808 1.742L53.05 27.274h6.34l1.268-3.47h7.733l.714 3.47zM53.526 9.528l.868-5.018s-2.679-1.019-5.471-1.019c-3.02 0-10.187 1.32-10.187 7.735 0 6.037 8.413 6.112 8.413 9.281 0 3.17-7.547 2.604-10.037.604l-.904 5.246s2.715 1.32 6.866 1.32 10.414-2.15 10.414-8c0-6.075-8.49-6.64-8.49-9.281 0-2.642 5.925-2.302 8.528-.868"/>
        <path fill="#EE9F3F" d="M14.774 16.52L12.726 6.014s-.247-2.105-2.885-2.105H.254l-.112.395S4.75 5.26 9.17 8.838c4.225 3.42 5.603 7.682 5.603 7.682"/>
    </g>
</svg>
