<svg width="50" height="50" viewBox="0 0 50 50" fill="none" xmlns="http://www.w3.org/2000/svg">
<path d="M48.5352 22.5586C49.3441 22.5586 50 21.9027 50 21.0938C50 20.2848 49.3441 19.6289 48.5352 19.6289H42.0898V14.7461H48.5352C49.3441 14.7461 50 14.0902 50 13.2812C50 12.4723 49.3441 11.8164 48.5352 11.8164H42.0898V10.8398C42.0898 9.22441 40.7756 7.91016 39.1602 7.91016H38.1836V1.46484C38.1836 0.655859 37.5277 0 36.7188 0C35.9098 0 35.2539 0.655859 35.2539 1.46484V7.91016H30.3711V1.46484C30.3711 0.655859 29.7152 0 28.9062 0C28.0973 0 27.4414 0.655859 27.4414 1.46484V7.91016H22.5586V1.46484C22.5586 0.655859 21.9027 0 21.0938 0C20.2848 0 19.6289 0.655859 19.6289 1.46484V7.91016H14.7461V1.46484C14.7461 0.655859 14.0902 0 13.2812 0C12.4723 0 11.8164 0.655859 11.8164 1.46484V7.91016H10.8398C9.22441 7.91016 7.91016 9.22441 7.91016 10.8398V11.8164H1.46484C0.655859 11.8164 0 12.4723 0 13.2812C0 14.0902 0.655859 14.7461 1.46484 14.7461H7.91016V19.6289H1.46484C0.655859 19.6289 0 20.2848 0 21.0938C0 21.9027 0.655859 22.5586 1.46484 22.5586H7.91016V27.4414H1.46484C0.655859 27.4414 0 28.0973 0 28.9062C0 29.7152 0.655859 30.3711 1.46484 30.3711H7.91016V35.2539H1.46484C0.655859 35.2539 0 35.9098 0 36.7188C0 37.5277 0.655859 38.1836 1.46484 38.1836H7.91016V39.1602C7.91016 40.7756 9.22441 42.0898 10.8398 42.0898H11.8164V48.5352C11.8164 49.3441 12.4723 50 13.2812 50C14.0902 50 14.7461 49.3441 14.7461 48.5352V42.0898H19.6289V48.5352C19.6289 49.3441 20.2848 50 21.0938 50C21.9027 50 22.5586 49.3441 22.5586 48.5352V42.0898H27.4414V48.5352C27.4414 49.3441 28.0973 50 28.9062 50C29.7152 50 30.3711 49.3441 30.3711 48.5352V42.0898H35.2539V48.5352C35.2539 49.3441 35.9098 50 36.7188 50C37.5277 50 38.1836 49.3441 38.1836 48.5352V42.0898H39.1602C40.7756 42.0898 42.0898 40.7756 42.0898 39.1602V38.1836H48.5352C49.3441 38.1836 50 37.5277 50 36.7188C50 35.9098 49.3441 35.2539 48.5352 35.2539H42.0898V30.3711H48.5352C49.3441 30.3711 50 29.7152 50 28.9062C50 28.0973 49.3441 27.4414 48.5352 27.4414H42.0898V22.5586H48.5352ZM39.1602 39.1602H10.8398V10.8398H39.1602C39.1621 39.9472 39.1699 39.1602 39.1602 39.1602Z" fill="#FE3D32"/>
<path d="M30.9186 16.1518C30.6438 15.8771 30.2713 15.7227 29.8828 15.7227H20.1172C19.7287 15.7227 19.3562 15.8771 19.0814 16.1518L16.1518 19.0814C15.8771 19.3562 15.7227 19.7287 15.7227 20.1172V29.8828C15.7227 30.2713 15.8771 30.6438 16.1518 30.9186L19.0814 33.8482C19.3562 34.1229 19.7287 34.2773 20.1172 34.2773H29.8828C30.2713 34.2773 30.6438 34.1229 30.9186 33.8482L33.8482 30.9186C34.1229 30.6438 34.2773 30.2713 34.2773 29.8828V20.1172C34.2773 19.7287 34.1229 19.3562 33.8482 19.0814L30.9186 16.1518ZM31.3477 29.2761L29.2761 31.3477H20.724L18.6523 29.2761V20.724L20.7239 18.6523H29.276L31.3477 20.7239V29.2761Z" fill="#FE3D32"/>
</svg>
