<svg width="48" height="50" viewBox="0 0 48 50" fill="none" xmlns="http://www.w3.org/2000/svg">
<path d="M23.9998 0L0.842773 7.59245V27.0859C0.842773 33.2064 3.22622 38.9606 7.55415 43.2885C11.8821 47.6165 17.6362 49.9999 23.7568 49.9999H24.2428C30.3634 49.9999 36.1176 47.6165 40.4455 43.2885C44.7733 38.9606 47.1568 33.2064 47.1568 27.0859V7.59245L23.9998 0ZM44.2316 27.086C44.2316 38.1079 35.2647 47.0748 24.2428 47.0748H23.7568C12.7349 47.0748 3.76797 38.1079 3.76797 27.086V9.71185L23.9998 3.07848L44.2316 9.71185V27.086Z" fill="#FE3D32"/>
<path d="M6.24414 11.672V27.086C6.24414 36.4949 13.8989 44.1496 23.3078 44.1496H24.6924C34.1013 44.1496 41.756 36.4949 41.756 27.086V11.672L24.0001 5.8504L6.24414 11.672ZM38.8308 27.086C38.8308 34.8819 32.4883 41.2244 24.6924 41.2244H23.3078C15.5118 41.2244 9.16934 34.8819 9.16934 27.086V13.7913L24.0001 8.92878L38.8308 13.7913V27.086Z" fill="#FE3D32"/>
<path d="M17.8243 18.2806V19.5779H15.1592V34.2363H32.8403V19.578H30.1752V18.2807C30.1752 14.8756 27.4049 12.1053 23.9998 12.1053C20.5947 12.1053 17.8243 14.8756 17.8243 18.2806ZM29.9151 31.3112H18.0844V22.5032H29.9151V31.3112ZM27.25 18.2806V19.5779H20.7495V18.2806C20.7495 16.4885 22.2075 15.0304 23.9997 15.0304C25.7919 15.0304 27.25 16.4886 27.25 18.2806Z" fill="#FE3D32"/>
<path d="M22.5371 25.4445H25.4623V28.3697H22.5371V25.4445Z" fill="#FE3D32"/>
</svg>
