<svg width="52" height="53" viewBox="0 0 52 53" fill="none" xmlns="http://www.w3.org/2000/svg">
<g clip-path="url(#clip0)">
<path d="M25.7927 14.0781C17.0561 14.0781 9.94836 21.4151 9.94836 30.4336H12.9568C12.9568 23.1275 18.7149 17.1836 25.7927 17.1836C32.8704 17.1836 38.6287 23.1275 38.6287 30.4336H41.6371C41.6371 21.4151 34.5293 14.0781 25.7927 14.0781Z" fill="#FE3D32"/>
<path d="M29.7957 21.868L26.3406 29.8426C25.567 29.7525 24.7786 29.853 24.0305 30.1479C22.7982 30.6339 21.8228 31.5861 21.2842 32.8291C20.7456 34.0722 20.7082 35.4575 21.1789 36.7296C21.6497 38.0017 22.5721 39.0085 23.7763 39.5645C24.4294 39.866 25.1124 40.0085 25.7854 40.0085C27.6743 40.0085 29.4814 38.8839 30.3012 36.9919C30.8397 35.7488 30.8771 34.3635 30.4064 33.0914C30.1206 32.3192 29.6675 31.6456 29.0869 31.1104L32.542 23.1359L29.7957 21.868ZM27.5549 35.7241C27.1204 36.7272 25.9763 37.1783 25.0046 36.7297C24.5339 36.5124 24.1733 36.1188 23.9894 35.6216C23.8055 35.1245 23.82 34.583 24.0305 34.0971C24.241 33.6112 24.6223 33.2389 25.1039 33.0491C25.3278 32.9608 25.5608 32.9169 25.7935 32.9169C26.0614 32.9169 26.3288 32.9753 26.5808 33.0916C27.0515 33.309 27.4121 33.7025 27.596 34.1998C27.78 34.6968 27.7655 35.2382 27.5549 35.7241Z" fill="#FE3D32"/>
<path d="M43.8247 11.6952C38.9758 6.69011 32.5291 3.93359 25.6719 3.93359C18.8147 3.93359 12.3679 6.69011 7.51905 11.6952C2.67028 16.7005 0 23.3552 0 30.4336C0 33.9952 0.67519 37.4544 2.00672 40.7154L2.3945 41.665H10.5789L15.732 49.0664H35.8533L41.0065 41.665H48.9491L49.3369 40.7154C50.6687 37.4544 51.3438 33.995 51.3438 30.4336C51.3438 23.3552 48.6734 16.7005 43.8247 11.6952ZM39.4639 38.5596L34.3107 45.9609H17.2748L12.1215 38.5596H4.41446C3.65433 36.4457 3.19996 34.2437 3.05736 31.9863H6.91937V28.8809H3.05957C3.25933 25.7499 4.05806 22.7857 5.33895 20.1086L8.6796 22.0996L10.1838 19.4102L6.84667 17.4214C8.49569 14.8875 10.6115 12.7034 13.0662 11.0012L14.9929 14.4459L17.5982 12.8932L15.6695 9.44487C18.2628 8.12266 21.1346 7.29806 24.1677 7.09186V11.0762H27.1761V7.09186C30.2092 7.29806 33.0809 8.12256 35.6742 9.44477L33.7455 12.8932L36.3508 14.4459L38.2775 11.0011C40.7321 12.7033 42.848 14.8874 44.497 17.4213L41.1598 19.4101L42.6641 22.0994L46.0047 20.1085C47.2856 22.7854 48.0844 25.7498 48.2841 28.8808H44.4244V31.9862H48.2864C48.1438 34.2436 47.6894 36.4455 46.9293 38.5595H39.4639V38.5596Z" fill="#FE3D32"/>
</g>
<defs>
<clipPath id="clip0">
<rect width="51.3438" height="53" fill="white"/>
</clipPath>
</defs>
</svg>
