<svg width="50" height="50" viewBox="0 0 50 50" fill="none" xmlns="http://www.w3.org/2000/svg">
<path d="M25 50C18.3223 50 12.0441 47.3996 7.32227 42.6777C2.60039 37.9559 0 31.6777 0 25C0 18.3223 2.60049 12.0442 7.32227 7.32227C12.044 2.60029 18.3223 0 25 0C31.6777 0 37.9559 2.60039 42.6777 7.32227C47.3996 12.0441 50 18.3223 50 25C50 31.6777 47.3995 37.9558 42.6777 42.6777C37.956 47.3997 31.6777 50 25 50ZM25 3.125C12.9381 3.125 3.125 12.9381 3.125 25C3.125 37.0619 12.9381 46.875 25 46.875C37.0619 46.875 46.875 37.0619 46.875 25C46.875 12.9381 37.0619 3.125 25 3.125Z" fill="#FE3D32"/>
<path d="M30.6898 25C31.99 23.8538 32.8125 22.1778 32.8125 20.3125C32.8125 17.6949 31.1942 15.4494 28.9062 14.5202V12.5C28.9062 11.6371 28.2067 10.9375 27.3438 10.9375C26.4808 10.9375 25.7812 11.6371 25.7812 12.5V14.0625H22.6562V12.5C22.6562 11.6371 21.9567 10.9375 21.0938 10.9375C20.2308 10.9375 19.5312 11.6371 19.5312 12.5V14.0625H16.4062C15.5433 14.0625 14.8438 14.7621 14.8438 15.625C14.8438 16.4879 15.5433 17.1875 16.4062 17.1875H17.9688V25V32.8125H16.4062C15.5433 32.8125 14.8438 33.5121 14.8438 34.375C14.8438 35.2379 15.5433 35.9375 16.4062 35.9375H19.5312V37.5C19.5312 38.3629 20.2308 39.0625 21.0938 39.0625C21.9567 39.0625 22.6562 38.3629 22.6562 37.5V35.9375H25.7812V37.5C25.7812 38.3629 26.4808 39.0625 27.3438 39.0625C28.2067 39.0625 28.9062 38.3629 28.9062 37.5V35.4798C31.1942 34.5506 32.8125 32.3051 32.8125 29.6875C32.8125 27.8222 31.99 26.1462 30.6898 25ZM21.0938 17.1875H26.5625C28.2856 17.1875 29.6875 18.5894 29.6875 20.3125C29.6875 22.0356 28.2856 23.4375 26.5625 23.4375H21.0938V17.1875ZM26.5625 32.8125H21.0938V26.5625H26.5625C28.2856 26.5625 29.6875 27.9644 29.6875 29.6875C29.6875 31.4106 28.2856 32.8125 26.5625 32.8125Z" fill="#FE3D32"/>
</svg>
