<svg width="52" height="53" viewBox="0 0 52 53" fill="none" xmlns="http://www.w3.org/2000/svg">
<g clip-path="url(#clip0)">
<path d="M23.6439 26.5732C23.6439 23.4013 21.1441 20.8208 18.0713 20.8208C14.9985 20.8208 12.4987 23.4013 12.4987 26.5732C12.4987 29.7451 14.9985 32.3256 18.0713 32.3256C21.1441 32.3256 23.6439 29.7451 23.6439 26.5732ZM18.0713 29.2161C16.6595 29.2161 15.511 28.0305 15.511 26.5732C15.511 25.1159 16.6595 23.9303 18.0713 23.9303C19.4831 23.9303 20.6316 25.1159 20.6316 26.5732C20.6316 28.0305 19.483 29.2161 18.0713 29.2161Z" fill="#FE3D32"/>
<path d="M32.9377 20.8208C29.865 20.8208 27.3651 23.4013 27.3651 26.5732C27.3651 29.7451 29.865 32.3256 32.9377 32.3256C36.0105 32.3256 38.5103 29.7451 38.5103 26.5732C38.5103 23.4013 36.0105 20.8208 32.9377 20.8208ZM32.9377 29.2161C31.526 29.2161 30.3775 28.0305 30.3775 26.5732C30.3775 25.1159 31.526 23.9303 32.9377 23.9303C34.3495 23.9303 35.4979 25.1159 35.4979 26.5732C35.4979 28.0305 34.3495 29.2161 32.9377 29.2161Z" fill="#FE3D32"/>
<path d="M25.5045 35.5564C26.3363 35.5564 27.0106 34.8602 27.0106 34.0016V32.1014C27.0106 31.2427 26.3363 30.5466 25.5045 30.5466C24.6727 30.5466 23.9983 31.2427 23.9983 32.1014V34.0016C23.9983 34.8602 24.6727 35.5564 25.5045 35.5564Z" fill="#FE3D32"/>
<path d="M49.8376 30.5466H48.5322V26.8679C48.5322 26.0092 47.8579 25.3131 47.0261 25.3131H43.5024V22.0537C43.5024 17.9528 40.2703 14.6163 36.2974 14.6163H27.0107V10.9976C28.5942 10.3703 29.7218 8.78522 29.7218 6.93236C29.7218 4.53192 27.8299 2.57904 25.5045 2.57904C23.1791 2.57904 21.2872 4.53192 21.2872 6.93236C21.2872 8.78511 22.4147 10.3702 23.9983 10.9976V14.6163H14.7117C10.7389 14.6163 7.50665 17.9527 7.50665 22.0537V25.3131H3.98302C3.15121 25.3131 2.47685 26.0092 2.47685 26.8679V30.5466H1.50617C0.674363 30.5466 0 31.2427 0 32.1014C0 32.96 0.674363 33.6561 1.50617 33.6561H2.47685V37.0946C2.47685 37.9533 3.15121 38.6494 3.98302 38.6494H7.50665V42.9834C7.50665 47.0845 10.7388 50.421 14.7117 50.421H36.2975C40.2703 50.421 43.5025 47.0846 43.5025 42.9834V38.6494H47.0262C47.858 38.6494 48.5323 37.9533 48.5323 37.0946V33.6561H49.8377C50.6695 33.6561 51.3438 32.96 51.3438 32.1014C51.3438 31.2427 50.6694 30.5466 49.8376 30.5466ZM25.5045 5.68855C26.1689 5.68855 26.7094 6.24651 26.7094 6.93236C26.7094 7.61822 26.1689 8.17617 25.5045 8.17617C24.8401 8.17617 24.2996 7.61822 24.2996 6.93236C24.2996 6.24651 24.8401 5.68855 25.5045 5.68855ZM5.48919 35.5399V28.4226H7.50665V35.5399H5.48919ZM40.4901 42.9834C40.4901 45.3699 38.6093 47.3115 36.2974 47.3115H14.7117C12.3999 47.3115 10.519 45.37 10.519 42.9834V22.0537C10.519 19.6674 12.3998 17.7258 14.7117 17.7258H36.2975C38.6093 17.7258 40.4902 19.6673 40.4902 22.0537V42.9834H40.4901ZM45.5199 35.5399H43.5024V28.4226H45.5199V35.5399Z" fill="#FE3D32"/>
<path d="M29.4205 37.6335H21.5884C20.7566 37.6335 20.0823 38.3296 20.0823 39.1882C20.0823 40.0469 20.7566 40.743 21.5884 40.743H29.4205C30.2523 40.743 30.9267 40.0469 30.9267 39.1882C30.9267 38.3296 30.2523 37.6335 29.4205 37.6335Z" fill="#FE3D32"/>
<path d="M25.5295 42.0561H25.4794C24.6476 42.0561 23.9733 42.7522 23.9733 43.6108C23.9733 44.4695 24.6476 45.1656 25.4794 45.1656H25.5295C26.3613 45.1656 27.0357 44.4695 27.0357 43.6108C27.0357 42.7522 26.3613 42.0561 25.5295 42.0561Z" fill="#FE3D32"/>
</g>
<defs>
<clipPath id="clip0">
<rect width="51.3438" height="53" fill="white"/>
</clipPath>
</defs>
</svg>
