<svg width="52" height="53" viewBox="0 0 52 53" fill="none" xmlns="http://www.w3.org/2000/svg">
<g clip-path="url(#clip0)">
<path d="M44.281 38.4571L44.2235 38.3869C41.4174 34.9566 37.5758 32.6218 33.3007 31.6645C35.5406 30.0103 37.2725 27.6687 38.2062 24.9412H41.6456C43.5727 24.9412 45.1404 23.3229 45.1404 21.3336V20.2647C45.1404 9.09075 36.3337 0 25.5089 0C14.6841 0 5.87749 9.09075 5.87749 20.2647V21.3336C5.87749 23.3229 7.44528 24.9412 9.37228 24.9412H12.6869C13.6359 27.7135 15.4099 30.0865 17.7034 31.7449C13.5648 32.7479 9.85159 35.0478 7.12 38.3868L7.06202 38.4577C3.91555 42.3041 2.32007 46.6724 2.32007 51.4412V53H49.0236V51.4412C49.0236 46.6724 47.4281 42.3042 44.281 38.4571ZM25.4466 31.1476C21.2601 31.1476 17.6379 28.607 15.9499 24.9412H23.4955V21.8235H15.0423C14.9743 21.3256 14.9382 20.8173 14.9382 20.3002C14.9382 14.3189 19.6523 9.45281 25.4466 9.45281C31.2409 9.45281 35.955 14.3189 35.955 20.3002C35.955 26.2816 31.241 31.1476 25.4466 31.1476ZM42.1202 21.3336C42.1202 21.6038 41.9073 21.8235 41.6457 21.8235H38.8944C38.9473 21.323 38.9753 20.815 38.9753 20.3002C38.9753 19.7611 38.9445 19.2293 38.8866 18.7059H42.0509C42.096 19.2195 42.1202 19.7392 42.1202 20.2647V21.3336ZM25.509 3.11765C33.0985 3.11765 39.5155 8.39894 41.4922 15.5882H38.182C36.3051 10.1995 31.3051 6.33516 25.4466 6.33516C19.5881 6.33516 14.5881 10.1995 12.7113 15.5882H9.52581C11.5025 8.39894 17.9195 3.11765 25.509 3.11765ZM9.37238 21.8235C9.11063 21.8235 8.89781 21.6038 8.89781 21.3336V20.2647C8.89781 19.7392 8.92217 19.2195 8.96717 18.7059H12.0067C11.9488 19.2293 11.918 19.7611 11.918 20.3002C11.918 20.815 11.946 21.323 11.9989 21.8235H9.37238ZM5.40985 49.8824C5.71782 46.47 7.04601 43.3096 9.36967 40.4692L9.42765 40.3983C12.6012 36.519 17.3565 34.2941 22.4744 34.2941H28.8693C33.9872 34.2941 38.7425 36.519 41.9165 40.3989L41.974 40.4691C44.2976 43.3096 45.6258 46.47 45.9338 49.8824H5.40985Z" fill="#FE3D32"/>
</g>
<defs>
<clipPath id="clip0">
<rect width="51.3438" height="53" fill="white"/>
</clipPath>
</defs>
</svg>
