<svg width="53" height="53" viewBox="0 0 53 53" fill="none" xmlns="http://www.w3.org/2000/svg">
<g clip-path="url(#clip0)">
<path d="M45.2383 7.76165C40.2328 2.75651 33.5783 0 26.5 0C19.4217 0 12.7668 2.75651 7.76165 7.76165C2.75651 12.7668 0 19.4217 0 26.5C0 33.5783 2.75651 40.2332 7.76165 45.2383C12.7668 50.2435 19.4217 53 26.5 53C33.5783 53 40.2328 50.2435 45.2383 45.2383C50.2435 40.2332 53 33.5783 53 26.5C53 19.4217 50.2435 12.7668 45.2383 7.76165ZM39.5122 45.9322L38.2393 43.7277C37.8107 42.9849 36.8609 42.7309 36.1185 43.1595C35.3757 43.5882 35.1213 44.538 35.5499 45.2804L36.8249 47.4886C34.148 48.8109 31.1837 49.6353 28.0527 49.8416V43.1312C28.0527 42.274 27.3576 41.5785 26.5 41.5785C25.6424 41.5785 24.9473 42.274 24.9473 43.1312V49.8416C21.8163 49.6353 18.852 48.8109 16.1751 47.489L17.4501 45.2804C17.8791 44.538 17.6247 43.5882 16.8819 43.1595C16.1391 42.7305 15.1897 42.9853 14.7607 43.7277L13.4882 45.9326C10.9541 44.2303 8.77012 42.0459 7.06777 39.5122L9.27233 38.2393C10.0151 37.8107 10.2695 36.8609 9.84045 36.1181C9.41183 35.3753 8.462 35.1213 7.7196 35.5499L5.51099 36.8249C4.18915 34.148 3.36466 31.1837 3.15844 28.0527H9.86835C10.726 28.0527 11.4211 27.3576 11.4211 26.5C11.4211 25.6424 10.726 24.9473 9.86835 24.9473H3.15844C3.36466 21.8163 4.18915 18.852 5.51099 16.1751L7.7196 17.4501C7.96383 17.5912 8.23111 17.6583 8.49435 17.6583C9.03093 17.6583 9.55296 17.3797 9.84045 16.8815C10.2695 16.1391 10.0147 15.1893 9.27233 14.7607L7.06737 13.4878C8.76971 10.9541 10.9541 8.77012 13.4878 7.06777L14.7607 9.27233C15.0482 9.7705 15.5702 10.0487 16.1068 10.0487C16.37 10.0487 16.6373 9.98158 16.8815 9.84045C17.6243 9.41183 17.8787 8.462 17.4501 7.7196L16.1751 5.51099C18.852 4.18915 21.8163 3.36466 24.9473 3.15844V9.86835C24.9473 10.726 25.6424 11.4211 26.5 11.4211C27.3576 11.4211 28.0527 10.726 28.0527 9.86835V3.15844C31.1837 3.36466 34.148 4.18915 36.8249 5.5114L35.5503 7.7196C35.1213 8.462 35.3757 9.41183 36.1185 9.84045C36.3631 9.98158 36.63 10.0487 36.8932 10.0487C37.4302 10.0487 37.9518 9.7705 38.2393 9.27193L39.5122 7.06737C42.0463 8.76971 44.2303 10.9537 45.9326 13.4878L43.7281 14.7603C42.9853 15.1893 42.7309 16.1387 43.1595 16.8815C43.447 17.3797 43.9691 17.6579 44.5057 17.6579C44.7693 17.6579 45.0362 17.5908 45.2808 17.4497L47.489 16.1747C48.8109 18.8516 49.6353 21.8163 49.8416 24.9469H43.1316C42.274 24.9469 41.5789 25.6424 41.5789 26.4996C41.5789 27.3572 42.274 28.0523 43.1316 28.0523H49.8416C49.6353 31.1833 48.8109 34.1476 47.489 36.8249L45.2808 35.5499C44.538 35.1209 43.5882 35.3757 43.1595 36.1181C42.7309 36.8609 42.9853 37.8107 43.7281 38.2393L45.9326 39.5118C44.2303 42.0459 42.0463 44.2303 39.5122 45.9322Z" fill="#FE3D32"/>
<path d="M25.4026 30.683H20.7784V30.2839C20.7784 28.5541 26.0512 27.3895 26.0512 23.7972C26.0512 21.6849 24.2546 20.4208 22.3254 20.4208C20.4791 20.4208 18.7493 21.585 18.7493 23.4814C18.7493 24.3795 19.1654 24.6456 19.7307 24.6456C20.4456 24.6456 20.8617 24.2461 20.8617 23.847C20.8617 22.8159 21.5268 22.3832 22.342 22.3832C23.4398 22.3832 23.8887 23.1818 23.8887 23.8635C23.8887 26.2088 18.533 27.6225 18.533 30.2839V31.8973C18.533 32.313 19.0987 32.5791 19.4812 32.5791H25.4026C25.7681 32.5791 26.0843 32.1133 26.0843 31.6143C26.0843 31.1157 25.7685 30.683 25.4026 30.683Z" fill="#FE3D32"/>
<path d="M33.7845 27.9221H33.0028V26.1757C33.0028 25.6933 32.4707 25.4935 31.922 25.4935C31.3895 25.4935 30.8407 25.6933 30.8407 26.1757V27.9221H28.895L32.0882 21.5353C32.1379 21.4354 32.1715 21.3355 32.1715 21.2522C32.1715 20.7533 31.4728 20.4205 31.0902 20.4205C30.7409 20.4205 30.3753 20.5705 30.1756 20.9862L26.2335 28.7369C26.1502 28.8869 26.1174 29.0365 26.1174 29.1696C26.1174 29.652 26.4332 29.9346 26.8489 29.9346H30.8407V31.8974C30.8407 32.3462 31.3899 32.5791 31.922 32.5791C32.4707 32.5791 33.0028 32.3462 33.0028 31.8974V29.9346H33.7845C34.1342 29.9346 34.467 29.4356 34.467 28.9367C34.4666 28.4211 34.2337 27.9221 33.7845 27.9221Z" fill="#FE3D32"/>
</g>
<defs>
<clipPath id="clip0">
<rect width="53" height="53" fill="white"/>
</clipPath>
</defs>
</svg>
