<svg width="50" height="46" viewBox="0 0 50 46" fill="none" xmlns="http://www.w3.org/2000/svg">
<path d="M14.7461 21.5353H20.6055V24.465H14.7461V33.254H23.5352V30.3243H17.6758V27.3947H23.5352V18.6056H14.7461V21.5353Z" fill="#FE3D32"/>
<path d="M26.4648 18.6056V27.3947H32.3242V33.254H35.2539V18.6056H32.3242V24.465H29.3945V18.6056H26.4648Z" fill="#FE3D32"/>
<path d="M45.1173 21.9553V21.047C45.1173 9.95432 36.0927 0.92981 25 0.92981C13.9073 0.92981 4.88271 9.95442 4.88271 21.047V21.9553C2.04121 22.9632 0 25.677 0 28.8597C0 32.8984 3.28574 36.1841 7.32441 36.1841H10.7423V21.5353H7.8124V21.047C7.8124 11.5698 15.5228 3.8595 25 3.8595C34.4772 3.8595 42.1876 11.5698 42.1876 21.047V21.5353H39.2577V37.5488C39.2577 40.0806 37.1979 42.1404 34.6661 42.1404H25V45.07H34.6661C38.8134 45.07 42.1874 41.6961 42.1874 37.5488V36.184H42.6756C46.7143 36.184 50 32.8983 50 28.8596C50 25.677 47.9588 22.9632 45.1173 21.9553ZM7.8126 33.2544H7.32441C4.90117 33.2544 2.92969 31.2829 2.92969 28.8597C2.92969 26.4364 4.90117 24.465 7.32441 24.465H7.8126V33.2544ZM42.6756 33.2544H42.1874V24.465H42.6756C45.0988 24.465 47.0703 26.4364 47.0703 28.8597C47.0703 31.2829 45.0989 33.2544 42.6756 33.2544Z" fill="#FE3D32"/>
</svg>
