<svg width="51" height="53" viewBox="0 0 51 53" fill="none" xmlns="http://www.w3.org/2000/svg">
<g clip-path="url(#clip0)">
<path d="M46.7159 14.3801L46.7143 14.3389C46.6923 13.8298 46.6777 13.2912 46.6688 12.6919C46.6276 9.76964 44.4135 7.3524 41.6278 7.18904C35.8198 6.84897 31.3267 4.86196 27.4877 0.936065L27.455 0.903312C26.2028 -0.301267 24.3139 -0.301267 23.0614 0.903312L23.0286 0.936065C19.1896 4.86196 14.6966 6.84897 8.88859 7.18944C6.10329 7.3524 3.88877 9.76964 3.84753 12.6923C3.83905 13.2875 3.82402 13.8261 3.80205 14.3389L3.79974 14.4347C3.68681 20.6485 3.54653 28.3818 6.01233 35.401C7.36818 39.261 9.4216 42.6163 12.1152 45.3745C15.183 48.5155 19.2012 51.0092 24.058 52.7859C24.2161 52.8437 24.3802 52.8906 24.5475 52.9258C24.7834 52.9752 25.0208 52.9998 25.2582 52.9998C25.4956 52.9998 25.7334 52.9752 25.9689 52.9258C26.1361 52.8906 26.3015 52.8433 26.4602 52.7851C31.3113 51.0051 35.3253 48.5103 38.3904 45.3696C41.0828 42.6107 43.1362 39.2545 44.4932 35.3937C46.9683 28.3535 46.8284 20.6056 46.7159 14.3801ZM41.7122 34.3177C39.1115 41.7158 33.8026 46.7966 25.4821 49.8495C25.4524 49.86 25.4208 49.8693 25.3881 49.8762C25.3021 49.894 25.2146 49.894 25.1275 49.8758C25.0952 49.8689 25.0636 49.86 25.0343 49.8495C16.7049 46.8022 11.3926 41.7243 8.79378 34.3258C6.52106 27.8557 6.64979 20.7568 6.76348 14.4941L6.76425 14.4594C6.78738 13.9212 6.80279 13.3575 6.81127 12.738C6.82977 11.4404 7.81486 10.3669 9.05393 10.2945C12.3406 10.102 15.2281 9.43564 17.8812 8.25735C20.5308 7.08067 22.8841 5.422 25.0747 3.18671C25.1861 3.08805 25.3306 3.08765 25.4416 3.18671C27.6326 5.422 29.9859 7.08067 32.6352 8.25735C35.2883 9.43564 38.1757 10.102 41.4628 10.2945C42.7019 10.3669 43.687 11.4404 43.7051 12.7384C43.714 13.3611 43.7294 13.9248 43.7525 14.4594C43.8658 20.7293 43.9914 27.8339 41.7122 34.3177Z" fill="#FE3D32"/>
<path d="M25.2575 13.2925C18.3157 13.2925 12.6683 19.2179 12.6683 26.5008C12.6683 33.7841 18.3157 39.7096 25.2575 39.7096C32.199 39.7096 37.8467 33.7841 37.8467 26.5008C37.8467 19.2179 32.199 13.2925 25.2575 13.2925ZM25.2575 36.5993C19.9501 36.5993 15.6325 32.0692 15.6325 26.5008C15.6325 20.9324 19.9501 16.4024 25.2575 16.4024C30.5645 16.4024 34.8822 20.9324 34.8822 26.5008C34.8822 32.0692 30.5645 36.5993 25.2575 36.5993Z" fill="#FE3D32"/>
<path d="M28.8756 22.4001L23.0283 28.5351L21.4412 26.8699C20.8623 26.2626 19.9239 26.2626 19.345 26.8699C18.7665 27.4773 18.7665 28.4619 19.345 29.0688L21.9804 31.8338C22.2698 32.1375 22.6491 32.2891 23.0283 32.2891C23.4075 32.2891 23.7868 32.1375 24.0762 31.8338L30.9719 24.599C31.5504 23.9917 31.5504 23.0071 30.9719 22.4001C30.393 21.7924 29.4545 21.7924 28.8756 22.4001Z" fill="#FE3D32"/>
</g>
<defs>
<clipPath id="clip0">
<rect width="50.5156" height="53" fill="white"/>
</clipPath>
</defs>
</svg>
