<svg width="50" height="50" viewBox="0 0 50 50" fill="none" xmlns="http://www.w3.org/2000/svg">
<path d="M0 1.54736V42.5883H16.048V45.5228H13.1148V48.4525H36.8851V45.5228H33.9519V42.5883H50V1.54736H0ZM31.022 45.5228H18.9779V42.5883H31.0221V45.5228H31.022ZM47.0701 39.6585H2.92979V33.7918H16.2146C18.6644 35.6321 21.707 36.7239 24.9999 36.7239C28.2928 36.7239 31.3354 35.6321 33.7852 33.7918H47.07V39.6585H47.0701ZM13.2736 22.0679C13.2736 15.602 18.534 10.3416 24.9999 10.3416C31.4658 10.3416 36.7262 15.602 36.7262 22.0679C36.7262 28.5338 31.4658 33.7941 24.9999 33.7941C18.534 33.7941 13.2736 28.5338 13.2736 22.0679ZM47.0702 30.862H36.7172C38.5616 28.4107 39.6562 25.3647 39.6562 22.0679C39.6562 13.9864 33.0814 7.41172 25 7.41172C16.9186 7.41172 10.3438 13.9864 10.3438 22.0679C10.3438 25.3648 11.4385 28.4107 13.2828 30.862H2.92979V4.47725H47.0701V30.862H47.0702Z" fill="#FE3D32"/>
<path d="M33.889 23.5327V20.6029H31.2703C31.1083 19.9095 30.8349 19.2589 30.4685 18.6712L32.3214 16.8182L30.2497 14.7466L28.3968 16.5995C27.8091 16.2331 27.1584 15.9595 26.465 15.7976V13.1791H23.5353V15.7976C22.8419 15.9596 22.1911 16.2332 21.6035 16.5995L19.7506 14.7466L17.6789 16.8182L19.5318 18.6712C19.1655 19.2588 18.892 19.9095 18.73 20.6029H16.1113V23.5327H18.73C18.892 24.226 19.1654 24.8767 19.5318 25.4644L17.6788 27.3174L19.7505 29.389L21.6034 27.5361C22.1911 27.9025 22.8418 28.176 23.5352 28.338V30.9565H26.4649V28.338C27.1583 28.1759 27.8091 27.9024 28.3967 27.5361L30.2496 29.389L32.3213 27.3174L30.4684 25.4644C30.8347 24.8768 31.1082 24.226 31.2702 23.5327H33.889ZM25.0001 25.5783C23.0645 25.5783 21.4896 24.0035 21.4896 22.0677C21.4896 20.132 23.0645 18.5572 25.0001 18.5572C26.9357 18.5572 28.5105 20.132 28.5105 22.0677C28.5104 24.0036 26.9356 25.5783 25.0001 25.5783Z" fill="#FE3D32"/>
</svg>
