<svg width="76" height="69" viewBox="0 0 76 69" fill="none" xmlns="http://www.w3.org/2000/svg">
<path d="M19.2903 7.83355H19.6785L19.7747 7.45738C20.6574 4.00428 23.7376 1.45654 27.4444 1.45654C31.8247 1.45654 35.3889 5.0285 35.3889 9.42393V59.1699C35.3889 64.1607 31.3629 68.1957 26.3889 68.1957C22.4195 68.1957 19.0927 65.6054 17.8906 62.0271L17.7531 61.6178L17.3281 61.6943C16.8304 61.7838 16.3343 61.8451 15.8333 61.8451C10.8594 61.8451 6.83333 57.8101 6.83333 52.8193C6.83333 52.2191 6.89567 51.6294 7.0088 51.0496L7.08705 50.6486L6.70967 50.492C3.06414 48.9794 0.5 45.374 0.5 41.1767C0.5 37.4364 2.54609 34.2095 5.56711 32.4677L5.96869 32.2361L5.76815 31.8182C5.12221 30.472 4.72222 28.9977 4.72222 27.4171C4.72222 23.2078 7.29828 19.6022 10.9704 18.089L11.3673 17.9254L11.2656 17.5083C11.1295 16.9501 11.0556 16.368 11.0556 15.7745C11.0556 11.379 14.6198 7.80709 19 7.80709C19.0124 7.80709 19.0254 7.80827 19.0742 7.81526L19.0803 7.81613C19.1249 7.82255 19.2013 7.83355 19.2903 7.83355ZM70.2335 31.8148L70.0282 32.2344L70.4329 32.4677C73.4539 34.2095 75.5 37.4364 75.5 41.1767C75.5 45.374 72.9359 48.9794 69.2903 50.492L68.9129 50.6486L68.9912 51.0496C69.1043 51.6294 69.1667 52.2191 69.1667 52.8193C69.1667 57.8101 65.1406 61.8451 60.1667 61.8451C59.6657 61.8451 59.1696 61.7838 58.6719 61.6943L58.2469 61.6178L58.1094 62.0271C56.9073 65.6054 53.5805 68.1957 49.6111 68.1957C44.6371 68.1957 40.6111 64.1607 40.6111 59.1699V9.42393C40.6111 5.01578 44.1748 1.45654 48.5556 1.45654C52.2624 1.45654 55.3426 4.00428 56.2253 7.45738L56.3215 7.83355H56.7097C56.7905 7.83355 56.867 7.82281 56.909 7.81692L56.9184 7.8156C56.9681 7.80873 56.986 7.80709 57 7.80709C61.3802 7.80709 64.9444 11.379 64.9444 15.7745C64.9444 16.3619 64.8589 16.9457 64.732 17.5185L64.641 17.9289L65.0296 18.089C68.7017 19.6022 71.2778 23.2078 71.2778 27.4171C71.2778 29.0001 70.8898 30.4733 70.2335 31.8148Z" stroke="#D72D24"/>
<path d="M59.4454 13.4767C59.4454 17.0321 56.5818 19.9144 53.0494 19.9144C49.5169 19.9144 46.6533 17.0321 46.6533 13.4767" stroke="#D72D24"/>
<path d="M53.8018 38.1293C50.2693 38.1293 47.4057 35.247 47.4057 31.6916C47.4057 28.1362 50.2693 25.254 53.8018 25.254" stroke="#D72D24"/>
<path d="M48.9109 63.3684C47.2486 63.3684 45.901 62.012 45.901 60.3389C45.901 58.6658 47.2486 57.3094 48.9109 57.3094" stroke="#D72D24"/>
<path d="M48.9109 50.247C50.5732 50.247 51.9208 48.8907 51.9208 47.2176C51.9208 45.5444 50.5732 44.1881 48.9109 44.1881" stroke="#D72D24"/>
<path d="M63.96 30.5555C63.96 32.2287 62.6124 33.585 60.9501 33.585C59.2878 33.585 57.9402 32.2287 57.9402 30.5555" stroke="#D72D24"/>
<path d="M63.96 54.28C63.96 52.6069 62.6124 51.2506 60.9501 51.2506C59.2878 51.2506 57.9402 52.6069 57.9402 54.28" stroke="#D72D24"/>
<path d="M16.3695 13.4767C16.3695 17.0321 19.2331 19.9144 22.7656 19.9144C26.298 19.9144 29.1616 17.0321 29.1616 13.4767" stroke="#D72D24"/>
<path d="M22.0127 38.1293C25.5451 38.1293 28.4087 35.247 28.4087 31.6916C28.4087 28.1362 25.5451 25.254 22.0127 25.254" stroke="#D72D24"/>
<path d="M26.9038 63.3684C28.5661 63.3684 29.9137 62.012 29.9137 60.3389C29.9137 58.6658 28.5661 57.3094 26.9038 57.3094" stroke="#D72D24"/>
<path d="M26.9036 50.247C25.2412 50.247 23.8937 48.8907 23.8937 47.2176C23.8937 45.5444 25.2412 44.1881 26.9036 44.1881" stroke="#D72D24"/>
<path d="M11.8545 30.5555C11.8545 32.2287 13.202 33.585 14.8644 33.585C16.5267 33.585 17.8743 32.2287 17.8743 30.5555" stroke="#D72D24"/>
<path d="M11.8545 54.28C11.8545 52.6069 13.202 51.2506 14.8644 51.2506C16.5267 51.2506 17.8743 52.6069 17.8743 54.28" stroke="#D72D24"/>
</svg>
