<svg width="72" height="72" viewBox="0 0 72 72" fill="none" xmlns="http://www.w3.org/2000/svg">
<path d="M24.75 59.625V55.125C24.75 52.6432 22.7318 50.625 20.25 50.625H18C16.7591 50.625 15.75 49.6159 15.75 48.375V46.125H20.25C21.4909 46.125 22.5 47.1341 22.5 48.375H24.75C24.75 45.8932 22.7318 43.875 20.25 43.875V41.625H18V43.875H13.5V48.375C13.5 50.8568 15.5182 52.875 18 52.875H20.25C21.4909 52.875 22.5 53.8841 22.5 55.125V57.375H18C16.7591 57.375 15.75 56.3659 15.75 55.125H13.5C13.5 57.6068 15.5182 59.625 18 59.625V61.875H20.25V59.625H24.75Z" fill="#FE3D32"/>
<path d="M48.0546 39.0375C48.4945 39.2479 48.9805 39.375 49.5002 39.375C50.02 39.375 50.506 39.2479 50.9458 39.0364L53.2048 41.2954L54.7956 39.7046L52.5366 37.4456C52.7481 37.0057 52.8752 36.5198 52.8752 36C52.8752 34.1392 51.361 32.625 49.5002 32.625C47.6395 32.625 46.1252 34.1392 46.1252 36C46.1252 36.5198 46.2535 37.0057 46.4638 37.4467L43.0798 40.8296L44.6706 42.4204L48.0546 39.0375ZM49.5002 34.875C50.1201 34.875 50.6252 35.379 50.6252 36C50.6252 36.621 50.1201 37.125 49.5002 37.125C48.8803 37.125 48.3752 36.621 48.3752 36C48.3752 35.379 48.8803 34.875 49.5002 34.875Z" fill="#FE3D32"/>
<path d="M29.2973 54.1711L30.1062 59.4305C29.6427 59.9851 29.1151 60.5082 28.5334 60.9897L29.9667 62.7234C30.8059 62.0304 31.5518 61.2586 32.1852 60.4329L32.4777 60.0515L31.5203 53.8291L29.2973 54.1711Z" fill="#FE3D32"/>
<path d="M24.3845 63.2972L25.1146 65.4268C25.955 65.1377 26.7695 64.7811 27.5356 64.3659L26.4635 62.3882C25.8076 62.7426 25.1079 63.0497 24.3845 63.2972Z" fill="#FE3D32"/>
<path d="M49.5001 57.375C61.2867 57.375 70.8751 47.7866 70.8751 36C70.8751 24.2134 61.2867 14.625 49.5001 14.625C37.7135 14.625 28.1251 24.2134 28.1251 36C28.1251 36.1654 28.1364 36.333 28.1409 36.4995L26.567 34.335C27.5007 33.7342 28.1251 32.6914 28.1251 31.5C28.1251 30.3345 27.5311 29.3062 26.6311 28.6999L29.5809 25.0132C30.0927 24.372 30.3751 23.5676 30.3751 22.7486C30.3751 20.7495 28.7495 19.125 26.7515 19.125H23.3506C22.8387 17.8808 21.6519 16.9976 20.2501 16.8998V14.625V13.5V10.125H25.8751C30.2176 10.125 33.7501 6.59137 33.7501 2.25V1.125H25.8751C21.8499 1.125 18.5244 4.16363 18.0609 8.06625C16.6265 6.5655 14.6105 5.625 12.3751 5.625H4.50012V6.75C4.50012 11.0914 8.03262 14.625 12.3751 14.625H18.0001V16.875H11.4987C9.50074 16.875 7.87512 18.4995 7.87512 20.4986V20.7113C7.87512 21.3412 8.03937 21.9622 8.35212 22.509L11.825 28.5874C10.8147 29.1712 10.1251 30.2512 10.1251 31.5C10.1251 32.6914 10.7495 33.7342 11.6832 34.335L4.553 44.1383C3.81837 45.1485 3.329 46.3376 3.13887 47.5729L1.0835 60.9322L1.24325 61.2529C1.44012 61.6466 6.20337 70.875 19.1251 70.875C32.0469 70.875 36.8101 61.6466 37.007 61.2529L37.1667 60.9322L35.8516 52.3879C39.6699 55.5728 44.4781 57.375 49.5001 57.375ZM25.8751 3.375H31.3865C30.8645 5.93888 28.592 7.875 25.8751 7.875H20.3637C20.8857 5.31112 23.1582 3.375 25.8751 3.375ZM12.3751 12.375C9.65825 12.375 7.38575 10.4389 6.86375 7.875H12.3751C15.092 7.875 17.3645 9.81112 17.8865 12.375H12.3751ZM30.3751 36C30.3751 25.4543 38.9544 16.875 49.5001 16.875C60.0459 16.875 68.6251 25.4543 68.6251 36C68.6251 46.5457 60.0459 55.125 49.5001 55.125C44.0821 55.125 38.9274 52.7996 35.2925 48.7553L35.1102 47.5729C34.9201 46.3376 34.4307 45.1496 33.6961 44.1383L30.8802 40.266C30.5484 38.8204 30.3751 37.386 30.3751 36ZM13.5001 32.625C12.8802 32.625 12.3751 32.121 12.3751 31.5C12.3751 30.879 12.8802 30.375 13.5001 30.375H24.7501C25.37 30.375 25.8751 30.879 25.8751 31.5C25.8751 32.121 25.37 32.625 24.7501 32.625H13.5001ZM10.1251 20.7113V20.4986C10.1251 19.7415 10.7416 19.125 11.4987 19.125H20.0026C20.7586 19.125 21.3751 19.7415 21.3751 20.4986V23.625H23.6251V21.375H26.7515C27.5086 21.375 28.1251 21.9915 28.1251 22.7486C28.1251 23.0591 28.0182 23.364 27.8236 23.607L24.209 28.125H14.1526L10.3051 21.393C10.1881 21.186 10.1251 20.9497 10.1251 20.7113ZM19.1251 68.625C8.74025 68.625 4.30325 62.0539 3.42012 60.543L5.363 47.9149C5.49912 47.0317 5.84787 46.1835 6.37325 45.4601L14.0727 34.875H24.1775L31.8759 45.4613C32.4012 46.1846 32.7511 47.0317 32.8861 47.916L34.829 60.543C33.9436 62.0595 29.5055 68.625 19.1251 68.625Z" fill="#FE3D32"/>
<path d="M49.5 52.875C58.8049 52.875 66.375 45.3049 66.375 36C66.375 26.6951 58.8049 19.125 49.5 19.125C40.1951 19.125 32.625 26.6951 32.625 36C32.625 45.3049 40.1951 52.875 49.5 52.875ZM34.9324 34.875C35.1765 31.6879 36.441 28.7876 38.4064 26.4971L41.5462 29.6359L43.137 28.0451L39.9971 24.9064C42.2876 22.941 45.189 21.6765 48.375 21.4324V25.875H50.625V21.4324C53.8121 21.6765 56.7124 22.941 59.0029 24.9064L55.863 28.0451L57.4537 29.6359L60.5936 26.4971C62.559 28.7876 63.8235 31.689 64.0676 34.875H59.625V37.125H64.0676C63.8235 40.3121 62.559 43.2124 60.5936 45.5029L57.4537 42.3641L55.863 43.9549L59.0029 47.0936C56.7124 49.059 53.811 50.3235 50.625 50.5676V46.125H48.375V50.5676C45.1879 50.3235 42.2876 49.059 39.9971 47.0936L43.137 43.9549L41.5462 42.3641L38.4064 45.5029C36.441 43.2124 35.1765 40.311 34.9324 37.125H39.375V34.875H34.9324Z" fill="#FE3D32"/>
<path d="M67.5001 54C65.6394 54 64.1251 55.5142 64.1251 57.375C64.1251 57.7856 64.2095 58.1738 64.3445 58.5383C59.9367 61.4531 54.8439 63 49.5001 63C46.1476 63 42.8772 62.3936 39.7801 61.1977L38.969 63.2959C42.3271 64.593 45.8697 65.25 49.5001 65.25C55.3749 65.25 60.9695 63.5198 65.7935 60.2696C66.2964 60.5678 66.8746 60.75 67.5001 60.75C69.3609 60.75 70.8751 59.2358 70.8751 57.375C70.8751 55.5142 69.3609 54 67.5001 54ZM67.5001 58.5C66.8802 58.5 66.3751 57.996 66.3751 57.375C66.3751 56.754 66.8802 56.25 67.5001 56.25C68.12 56.25 68.6251 56.754 68.6251 57.375C68.6251 57.996 68.12 58.5 67.5001 58.5Z" fill="#FE3D32"/>
<path d="M33.75 9C31.8893 9 30.375 10.5142 30.375 12.375C30.375 14.2357 31.8893 15.75 33.75 15.75C35.6108 15.75 37.125 14.2357 37.125 12.375C37.125 12.2569 37.1025 12.1444 37.0901 12.0296C40.9016 10.053 45.1755 9 49.5 9C56.8991 9 63.8033 11.934 68.9411 17.2642L70.56 15.7016C64.9946 9.92925 57.5156 6.75 49.5 6.75C44.847 6.75 40.2469 7.87612 36.1361 9.99112C35.5252 9.37912 34.6815 9 33.75 9ZM33.75 13.5C33.1301 13.5 32.625 12.996 32.625 12.375C32.625 11.754 33.1301 11.25 33.75 11.25C34.3699 11.25 34.875 11.754 34.875 12.375C34.875 12.996 34.3699 13.5 33.75 13.5Z" fill="#FE3D32"/>
</svg>
