<svg width="75" height="75" viewBox="0 0 75 75" fill="none" xmlns="http://www.w3.org/2000/svg">
<g clip-path="url(#clip0)">
<path d="M48.9182 18.6644C52.013 25.1119 59.7501 27.9489 66.3266 24.854C72.9031 21.7592 75.611 14.0221 72.5162 7.44564C69.4214 0.998089 61.6843 -1.83883 55.1078 1.25599C49.5629 3.83501 46.597 10.0247 48.0155 16.0854L39.8916 21.8882L31.7677 16.0854C33.444 9.122 29.1887 2.15865 22.2253 0.482284C15.262 -1.19408 8.2986 3.19026 6.62224 10.1536C4.94588 16.988 9.33021 24.0803 16.2936 25.6277C22.2253 27.0462 28.415 24.0803 30.994 18.5354L38.731 24.0803V31.1726C36.281 27.9489 32.5414 26.0146 28.415 26.0146H25.8359C25.0622 26.0146 24.5464 26.5304 24.5464 27.3041C24.5464 34.3964 30.3492 40.1992 37.4415 40.1992H38.731V42.7782C31.7677 43.1651 25.707 46.6468 23.2569 51.8048C23.128 51.8048 22.8701 51.8048 22.7411 51.8048H19.2594C19.2594 51.0311 18.7436 50.5153 17.9699 50.5153H7.65385C6.88014 50.5153 6.36434 51.0311 6.36434 51.8048H1.2063V54.3838H6.36434V67.2789H1.2063V69.8579H6.36434C6.36434 70.6316 6.88014 71.1474 7.65385 71.1474H17.9699C18.7436 71.1474 19.2594 70.6316 19.2594 69.8579V69.3421L28.9308 73.3396C34.2178 75.5318 40.0205 75.5318 45.3075 73.4686L65.166 65.9894C66.3266 65.6026 67.3582 64.6999 67.745 63.5393C68.2608 62.3788 68.2608 61.0893 67.874 59.7998C67.3582 58.6392 66.4555 57.6076 65.2949 57.2207C64.1344 56.7049 62.8449 56.7049 61.6843 57.2207L57.6868 58.8971C57.9447 58.1234 57.9447 57.6076 57.9447 56.9628C57.9447 49.4837 50.5945 43.294 41.1811 42.7782V40.1992H42.4706C49.5629 40.1992 55.3657 34.3964 55.3657 27.3041C55.3657 26.5304 54.8499 26.0146 54.0762 26.0146H51.4972C47.3708 26.0146 43.6312 27.9489 41.1811 31.1726V24.0803L48.9182 18.6644ZM60.5238 2.8034C66.1976 2.8034 70.8398 7.44564 70.8398 13.1195C70.8398 18.7933 66.1976 23.4356 60.5238 23.4356C54.8499 23.4356 50.2077 18.7933 50.2077 13.1195C50.2077 7.44564 54.8499 2.8034 60.5238 2.8034ZM19.2594 23.4356C13.5856 23.4356 8.94336 18.7933 8.94336 13.1195C8.94336 7.44564 13.5856 2.8034 19.2594 2.8034C24.9333 2.8034 29.5755 7.44564 29.5755 13.1195C29.5755 18.7933 24.9333 23.4356 19.2594 23.4356ZM37.3126 37.6202C32.1545 37.6202 27.7702 33.7516 27.1255 28.5936H28.286C33.444 28.5936 37.8284 32.4621 38.4731 37.6202H37.3126ZM16.6804 68.5684H8.94336V53.0943H16.6804V68.5684ZM62.7159 59.5419C63.2317 59.284 63.7475 59.284 64.2633 59.5419C64.7791 59.7998 65.166 60.1866 65.4239 60.7024C65.6818 61.2182 65.6818 61.863 65.4239 62.3788C65.166 62.8946 64.7791 63.2814 64.2633 63.5393L44.4049 71.1474C39.7626 72.9528 34.4757 72.8238 29.8334 71.0185L19.2594 66.6342V54.3838H22.4832C26.7386 54.3838 30.994 55.4154 34.8625 57.3497C36.152 57.9944 37.5705 58.2523 38.9889 58.2523H48.9182C49.9498 58.2523 50.8524 59.155 50.8524 60.1866C50.8524 61.0893 50.2077 61.863 49.305 62.1209C49.1761 62.1209 48.9182 62.1209 48.7892 62.1209H33.444V64.6999H48.7892C48.7892 64.6999 48.7892 64.6999 48.9182 64.6999C48.9182 64.6999 48.9182 64.6999 49.0471 64.6999C50.0787 64.6999 51.1103 64.442 52.013 64.0551L62.7159 59.5419ZM55.3657 56.9628C55.3657 57.9944 55.1078 59.0261 54.8499 60.0577L53.4315 60.7024C53.4315 60.5735 53.4315 60.4445 53.4315 60.1866C53.4315 57.7365 51.3682 55.6733 48.9182 55.6733H38.86C37.8284 55.6733 36.7968 55.4154 35.8941 55.0286C32.6703 53.4812 29.3176 52.4495 25.8359 52.0627C28.415 48.0652 33.8309 45.3572 39.7626 45.3572C48.4024 45.3572 55.3657 50.5153 55.3657 56.9628ZM51.4972 28.5936H52.6577C52.013 33.7516 47.6287 37.6202 42.4706 37.6202H41.3101C41.9548 32.4621 46.3391 28.5936 51.4972 28.5936Z" fill="#FE3D32"/>
<path d="M64.2634 14.7955C64.0055 13.8928 63.2317 12.9902 62.458 12.6033L60.008 11.3138C59.4922 11.0559 59.2343 10.4112 59.4922 9.89537C59.4922 9.50851 59.879 9.25061 60.3948 9.25061H60.7817C61.2975 9.25061 61.8133 9.76642 61.8133 10.4112V10.5401H64.3923V10.4112C64.3923 8.86376 63.3607 7.4453 61.8133 6.92949V5.38208H59.2343V6.80054C57.3 7.4453 56.2684 9.50851 56.7842 11.4428C57.0421 12.3454 57.8158 13.2481 58.5895 13.6349L61.0396 14.9245C61.5554 15.1824 61.8133 15.8271 61.5554 16.3429C61.4264 16.7298 61.0396 16.9877 60.5238 16.9877H60.1369C59.4922 16.9877 58.9764 16.4719 58.9764 15.8271V15.6982H56.3973V15.8271C56.6552 17.5035 57.6869 18.9219 59.2343 19.4377V20.8562H61.8133V19.4377C63.7476 18.793 64.7792 16.7298 64.2634 14.7955Z" fill="#FE3D32"/>
<path d="M68.2609 11.8298H65.6819V14.4089H68.2609V11.8298Z" fill="#FE3D32"/>
<path d="M55.3658 11.8298H52.7867V14.4089H55.3658V11.8298Z" fill="#FE3D32"/>
<path d="M23.128 10.5401V10.4112C23.128 8.73481 22.0964 7.31635 20.549 6.80054V5.38208H17.97V6.80054C16.0357 7.4453 15.0041 9.50851 15.5199 11.4428C15.7778 12.3454 16.5515 13.2481 17.3252 13.6349L19.7753 14.9245C20.2911 15.1824 20.549 15.8271 20.2911 16.3429C20.1621 16.7298 19.7753 16.9877 19.2595 16.9877H18.8726C18.2279 16.9877 17.7121 16.4719 17.7121 15.8271V15.6982H15.1331V15.8271C15.1331 17.3745 16.1647 18.793 17.7121 19.3088V20.8562H20.2911V19.4377C22.2254 18.793 23.257 16.7298 22.7412 14.7955C22.4833 13.8928 21.7096 12.9902 20.9359 12.6033L18.4858 11.3138C17.97 11.0559 17.7121 10.4112 17.97 9.89537C18.2279 9.50851 18.6147 9.25061 19.1305 9.25061H19.5174C20.0332 9.25061 20.549 9.76642 20.549 10.4112V10.5401H23.128Z" fill="#FE3D32"/>
<path d="M26.9965 11.8298H24.4175V14.4089H26.9965V11.8298Z" fill="#FE3D32"/>
<path d="M14.1015 11.8298H11.5225V14.4089H14.1015V11.8298Z" fill="#FE3D32"/>
<path d="M14.1015 63.4102H11.5225V65.9892H14.1015V63.4102Z" fill="#FE3D32"/>
</g>
<defs>
<clipPath id="clip0">
<rect width="75" height="75" fill="white"/>
</clipPath>
</defs>
</svg>
