<svg width="75" height="75" viewBox="0 0 75 75" fill="none" xmlns="http://www.w3.org/2000/svg">
<path d="M36.3281 30.4688V32.8125H35.1562C34.0684 32.8125 33.0252 33.2446 32.256 34.0138C31.4868 34.783 31.0547 35.8263 31.0547 36.9141C31.0547 38.0019 31.4868 39.0451 32.256 39.8143C33.0252 40.5835 34.0684 41.0156 35.1562 41.0156H39.8438C40.31 41.0156 40.7571 41.2008 41.0867 41.5305C41.4164 41.8601 41.6016 42.3072 41.6016 42.7734C41.6016 43.2396 41.4164 43.6867 41.0867 44.0164C40.7571 44.3461 40.31 44.5312 39.8438 44.5312H32.2266V46.875H36.3281V49.2187H38.6719V46.875H39.8438C40.9316 46.875 41.9748 46.4429 42.744 45.6737C43.5132 44.9045 43.9453 43.8612 43.9453 42.7734C43.9453 41.6856 43.5132 40.6424 42.744 39.8732C41.9748 39.104 40.9316 38.6719 39.8438 38.6719H35.1562C34.69 38.6719 34.2429 38.4867 33.9133 38.157C33.5836 37.8274 33.3984 37.3803 33.3984 36.9141C33.3984 36.4479 33.5836 36.0008 33.9133 35.6711C34.2429 35.3414 34.69 35.1562 35.1562 35.1562H42.7734V32.8125H38.6719V30.4688H36.3281Z" fill="#FE3D32"/>
<path d="M66.797 53.9062H56.2502L55.0783 52.3437V37.7314C55.0784 34.308 53.9628 30.9779 51.9004 28.2454C49.8381 25.513 46.9413 23.5271 43.649 22.5888L45.6582 15.5566C45.7081 15.3822 45.7168 15.1986 45.6836 15.0202C45.6505 14.8419 45.5764 14.6736 45.4671 14.5288C45.3579 14.3839 45.2165 14.2664 45.0542 14.1855C44.8918 14.1046 44.7128 14.0625 44.5314 14.0625H37.5002V16.4062H42.9787L41.3045 22.2656H37.5002V24.6094H42.0692C45.0836 25.239 47.7893 26.8872 49.7316 29.2768C51.6739 31.6665 52.7343 34.652 52.7345 37.7314V52.7344C52.7352 52.9122 52.7763 53.0875 52.8548 53.2471C50.3264 52.036 47.5398 51.4629 44.7387 51.5778C41.9376 51.6927 39.2073 52.4922 36.7866 53.9062H28.1252C27.4051 53.9071 26.6949 54.0736 26.0495 54.3928C25.4041 54.7121 24.8409 55.1756 24.4033 55.7474C23.9657 56.3192 23.6655 56.9841 23.526 57.6905C23.3865 58.3969 23.4114 59.1259 23.5988 59.8211L18.9334 57.6839C19.0079 57.5074 19.1038 57.3407 19.2189 57.1875L22.0314 53.4375C22.1836 53.2346 22.2658 52.9879 22.2658 52.7344V39.8438H19.9221V52.3437L17.3439 55.7812C17.1292 56.0686 16.9481 56.3796 16.8043 56.7082L12.9441 54.9401C11.7895 54.411 10.4768 54.3412 9.27259 54.7447C8.06834 55.1483 7.0628 55.995 6.46014 57.1129C6.04202 57.9249 5.83546 58.8292 5.85956 59.7422C5.85648 60.6718 6.11381 61.5836 6.60241 62.3744C7.091 63.1652 7.79132 63.8034 8.62401 64.2166L22.2885 71.0487C24.4048 72.1032 26.7364 72.6534 29.1008 72.6562H66.797C67.1078 72.6562 67.4059 72.5328 67.6257 72.313C67.8455 72.0932 67.9689 71.7952 67.9689 71.4844V55.0781C67.9689 54.7673 67.8455 54.4693 67.6257 54.2495C67.4059 54.0297 67.1078 53.9062 66.797 53.9062ZM52.7345 70.3125H29.1008C27.1001 70.31 25.1272 69.8445 23.3365 68.9524L9.67269 62.1205C9.2301 61.9009 8.85786 61.5617 8.59816 61.1413C8.33846 60.721 8.20168 60.2363 8.20331 59.7422C8.18529 59.2177 8.29524 58.6967 8.52367 58.2242C8.84269 57.6292 9.37681 57.1785 10.0169 56.964C10.6571 56.7496 11.3549 56.7876 11.968 57.0703L25.2938 63.1743C25.4468 63.2446 25.6131 63.281 25.7814 63.2812H38.6721V60.9375H28.1252C27.5036 60.9375 26.9074 60.6906 26.4679 60.251C26.0284 59.8115 25.7814 59.2154 25.7814 58.5938C25.7814 57.9721 26.0284 57.376 26.4679 56.9365C26.9074 56.4969 27.5036 56.25 28.1252 56.25H37.1091C37.3215 56.25 37.53 56.1922 37.7121 56.0829L37.822 56.0169C39.9595 54.735 42.3857 54.0128 44.8763 53.9172C47.3669 53.8215 49.8414 54.3556 52.0708 55.4698L52.7345 55.802V70.3125ZM65.6252 70.3125H55.0783V56.25H65.6252V70.3125Z" fill="#FE3D32"/>
<path d="M59.7656 67.9688C61.06 67.9688 62.1094 66.9194 62.1094 65.625C62.1094 64.3306 61.06 63.2812 59.7656 63.2812C58.4712 63.2812 57.4219 64.3306 57.4219 65.625C57.4219 66.9194 58.4712 67.9688 59.7656 67.9688Z" fill="#FE3D32"/>
<path d="M10.5741 34.38C10.6089 34.5393 10.6766 34.6896 10.7728 34.8212C10.8691 34.9529 10.9917 35.063 11.1329 35.1445C11.2742 35.2261 11.4308 35.2772 11.593 35.2947C11.7551 35.3123 11.9191 35.2958 12.0745 35.2463L16.1646 33.9437L19.0556 37.1169C19.1655 37.2374 19.2992 37.3337 19.4484 37.3996C19.5976 37.4655 19.7589 37.4996 19.922 37.4996C20.085 37.4996 20.2463 37.4655 20.3955 37.3996C20.5447 37.3337 20.6784 37.2374 20.7883 37.1169L23.6793 33.9437L27.7694 35.2463C27.9248 35.2958 28.0888 35.3123 28.2509 35.2947C28.4131 35.2772 28.5698 35.2261 28.711 35.1445C28.8522 35.063 28.9749 34.9529 29.0711 34.8212C29.1673 34.6896 29.235 34.5393 29.2699 34.38L30.187 30.1866L34.3805 29.2693C34.5399 29.2344 34.6901 29.1667 34.8218 29.0705C34.9534 28.9743 35.0636 28.8516 35.1451 28.7104C35.2266 28.5692 35.2778 28.4125 35.2953 28.2503C35.3129 28.0882 35.2963 27.9242 35.2469 27.7688L33.9443 23.6787L37.1175 20.7877C37.238 20.6779 37.3343 20.5441 37.4002 20.3949C37.4661 20.2457 37.5002 20.0844 37.5002 19.9214C37.5002 19.7583 37.4661 19.597 37.4002 19.4478C37.3343 19.2987 37.238 19.1649 37.1175 19.0551L33.9443 16.1646L35.2469 12.0745C35.2963 11.9191 35.3128 11.755 35.2953 11.5929C35.2777 11.4307 35.2265 11.274 35.1449 11.1328C35.0633 10.9915 34.9531 10.8689 34.8214 10.7727C34.6897 10.6765 34.5393 10.6088 34.38 10.5741L30.1864 9.65677L29.2699 5.46395C29.235 5.30464 29.1673 5.15435 29.0711 5.0227C28.9749 4.89105 28.8522 4.78093 28.711 4.69939C28.5698 4.61785 28.4131 4.56669 28.2509 4.54916C28.0888 4.53164 27.9248 4.54815 27.7694 4.59764L23.6793 5.89959L20.7883 2.72645C20.6784 2.60589 20.5447 2.50958 20.3955 2.44369C20.2463 2.37779 20.085 2.34375 19.922 2.34375C19.7589 2.34375 19.5976 2.37779 19.4484 2.44369C19.2992 2.50958 19.1655 2.60589 19.0556 2.72645L16.1646 5.89959L12.0745 4.59705C11.9191 4.54757 11.755 4.53108 11.5929 4.54864C11.4307 4.5662 11.274 4.61742 11.1328 4.69902C10.9915 4.78061 10.8689 4.8908 10.7727 5.02252C10.6765 5.15423 10.6088 5.30458 10.5741 5.46395L9.65692 9.65677L5.46395 10.5741C5.30464 10.6089 5.15435 10.6766 5.0227 10.7728C4.89105 10.8691 4.78093 10.9917 4.69939 11.1329C4.61785 11.2742 4.56669 11.4308 4.54916 11.593C4.53164 11.7551 4.54815 11.9191 4.59764 12.0745L5.90018 16.1646L2.72645 19.0556C2.60589 19.1655 2.50958 19.2992 2.44369 19.4484C2.37779 19.5976 2.34375 19.7589 2.34375 19.922C2.34375 20.085 2.37779 20.2463 2.44369 20.3955C2.50958 20.5447 2.60589 20.6784 2.72645 20.7883L5.89959 23.6793L4.59705 27.7694C4.54757 27.9248 4.53108 28.0889 4.54864 28.251C4.5662 28.4132 4.61742 28.5699 4.69902 28.7112C4.78061 28.8524 4.8908 28.975 5.02252 29.0712C5.15423 29.1674 5.30458 29.2351 5.46395 29.2699L9.6575 30.1871L10.5741 34.38ZM8.03343 22.4528L5.25579 19.922L8.03343 17.3911C8.19917 17.2401 8.31811 17.0448 8.37614 16.8282C8.43417 16.6116 8.42885 16.383 8.36082 16.1693L7.22059 12.5888L10.8916 11.7859C11.1107 11.738 11.3114 11.6283 11.4699 11.4697C11.6284 11.3112 11.7382 11.1105 11.7861 10.8915L12.5888 7.22059L16.1693 8.36082C16.383 8.42879 16.6117 8.43408 16.8282 8.37605C17.0448 8.31802 17.2402 8.19912 17.3913 8.03343L19.922 5.25565L22.4526 8.03343C22.6036 8.19919 22.799 8.31815 23.0156 8.37618C23.2322 8.43421 23.4609 8.42888 23.6746 8.36082L27.2551 7.22059L28.0578 10.8915C28.1057 11.1105 28.2155 11.3112 28.374 11.4697C28.5326 11.6283 28.7332 11.738 28.9523 11.7859L32.6233 12.5888L31.4831 16.1693C31.4151 16.383 31.4097 16.6116 31.4678 16.8282C31.5258 17.0448 31.6447 17.2401 31.8105 17.3911L34.5881 19.922L31.8105 22.4528C31.6447 22.6038 31.5258 22.7991 31.4678 23.0157C31.4097 23.2323 31.4151 23.461 31.4831 23.6746L32.6233 27.2551L28.9523 28.058C28.7332 28.1059 28.5326 28.2156 28.374 28.3742C28.2155 28.5327 28.1057 28.7334 28.0578 28.9524L27.2551 32.6233L23.6746 31.4831C23.4609 31.415 23.2322 31.4097 23.0156 31.4677C22.799 31.5258 22.6036 31.6447 22.4526 31.8105L19.922 34.5883L17.3913 31.8105C17.2403 31.6447 17.0449 31.5258 16.8283 31.4677C16.6117 31.4097 16.383 31.415 16.1693 31.4831L12.5888 32.6233L11.7861 28.9524C11.7382 28.7334 11.6284 28.5327 11.4699 28.3742C11.3114 28.2156 11.1107 28.1059 10.8916 28.058L7.22059 27.2551L8.36082 23.6746C8.42885 23.461 8.43417 23.2323 8.37614 23.0157C8.31811 22.7991 8.19917 22.6038 8.03343 22.4528Z" fill="#FE3D32"/>
<path d="M24.9526 13.2339L13.2339 24.9526L14.8912 26.6099L26.6099 14.8912L24.9526 13.2339Z" fill="#FE3D32"/>
<path d="M15.2344 18.7502C15.9297 18.7502 16.6094 18.5441 17.1876 18.1578C17.7657 17.7714 18.2163 17.2224 18.4824 16.58C18.7485 15.9376 18.8181 15.2307 18.6824 14.5488C18.5468 13.8668 18.212 13.2404 17.7203 12.7487C17.2286 12.257 16.6022 11.9222 15.9202 11.7865C15.2383 11.6509 14.5314 11.7205 13.889 11.9866C13.2466 12.2527 12.6975 12.7033 12.3112 13.2814C11.9249 13.8596 11.7188 14.5393 11.7188 15.2346C11.7198 16.1667 12.0905 17.0603 12.7496 17.7194C13.4087 18.3785 14.3023 18.7492 15.2344 18.7502ZM15.2344 14.0627C15.4661 14.0627 15.6927 14.1315 15.8854 14.2602C16.0781 14.389 16.2283 14.572 16.317 14.7862C16.4057 15.0003 16.4289 15.2359 16.3837 15.4632C16.3385 15.6906 16.2269 15.8994 16.063 16.0633C15.8991 16.2271 15.6903 16.3388 15.463 16.384C15.2357 16.4292 15 16.406 14.7859 16.3173C14.5718 16.2286 14.3888 16.0784 14.26 15.8857C14.1312 15.693 14.0625 15.4664 14.0625 15.2346C14.0628 14.9239 14.1864 14.6261 14.4061 14.4064C14.6258 14.1867 14.9237 14.0631 15.2344 14.0627Z" fill="#FE3D32"/>
<path d="M22.2656 23.4375C22.2656 24.1328 22.4718 24.8125 22.8581 25.3907C23.2444 25.9688 23.7935 26.4194 24.4359 26.6855C25.0783 26.9516 25.7852 27.0212 26.4671 26.8856C27.1491 26.7499 27.7755 26.4151 28.2672 25.9234C28.7588 25.4318 29.0937 24.8053 29.2293 24.1234C29.365 23.4414 29.2954 22.7345 29.0293 22.0921C28.7632 21.4497 28.3126 20.9007 27.7344 20.5144C27.1563 20.1281 26.4766 19.9219 25.7812 19.9219C24.8492 19.9229 23.9556 20.2937 23.2965 20.9527C22.6374 21.6118 22.2667 22.5054 22.2656 23.4375ZM26.9531 23.4375C26.9531 23.6693 26.8844 23.8958 26.7556 24.0886C26.6269 24.2813 26.4438 24.4315 26.2297 24.5202C26.0156 24.6089 25.7799 24.6321 25.5526 24.5869C25.3253 24.5416 25.1165 24.43 24.9526 24.2661C24.7887 24.1023 24.6771 23.8934 24.6319 23.6661C24.5867 23.4388 24.6099 23.2032 24.6986 22.989C24.7873 22.7749 24.9375 22.5919 25.1302 22.4631C25.3229 22.3344 25.5495 22.2656 25.7812 22.2656C26.0919 22.266 26.3898 22.3896 26.6095 22.6092C26.8292 22.8289 26.9528 23.1268 26.9531 23.4375Z" fill="#FE3D32"/>
</svg>
