<svg width="75" height="75" viewBox="0 0 75 75" fill="none" xmlns="http://www.w3.org/2000/svg">
<path d="M36.3281 21.0938C36.3281 13.9863 30.5449 8.20312 23.4375 8.20312C16.3301 8.20312 10.5469 13.9863 10.5469 21.0938C10.5469 24.0551 11.5617 26.7785 13.2469 28.9582C13.0219 29.427 12.8906 29.9379 12.8906 30.4688V37.5504C11.5395 35.3918 9.14531 33.9844 6.48633 33.9844C4.84922 33.9844 3.51562 35.3168 3.51562 36.9551C3.51562 37.5434 3.68789 38.1129 4.01484 38.6027L5.2207 40.4109C5.66719 41.0813 5.95547 41.857 6.05508 42.6562L6.88594 49.2996C7.01133 50.3098 7.40039 51.2742 8.01328 52.0887L10.5469 55.4684V57.4219H8.20312V73.8281H33.9844V57.4219H31.6406V55.3547L33.3668 51.9035C33.7699 51.0949 33.9844 50.1879 33.9844 49.2844V30.4688C33.9844 29.9379 33.852 29.427 33.6281 28.9582C35.3133 26.7797 36.3281 24.0563 36.3281 21.0938ZM23.4375 10.5469C29.2535 10.5469 33.9844 15.2789 33.9844 21.0938C33.9844 26.9086 29.2535 31.6406 23.4375 31.6406C17.6215 31.6406 12.8906 26.9086 12.8906 21.0938C12.8906 15.2789 17.6215 10.5469 23.4375 10.5469ZM31.6406 59.7656V62.1094H10.5469V59.7656H31.6406ZM10.5469 71.4844V64.4531H31.6406V71.4844H10.5469ZM31.2703 50.8559L29.2969 54.8016V57.4219H12.8906V54.6879L9.88828 50.6836C9.52148 50.1949 9.28711 49.6172 9.21211 49.0113L8.38125 42.368C8.23711 41.2113 7.81992 40.0852 7.17187 39.1137L5.96484 37.3031C5.8957 37.2 5.85938 37.0793 5.85938 36.9551C5.85938 36.6094 6.14062 36.3281 6.48633 36.3281C8.96016 36.3281 11.1094 38.0895 11.5957 40.5164L13.0582 47.8313L13.7777 48.0117C16.016 48.5719 17.5781 50.5723 17.5781 52.8785V55.0781H19.9219V52.8785C19.9219 49.8117 18.0328 47.1223 15.2344 46.0324V31.0301C15.9527 31.6242 16.7414 32.1328 17.5781 32.5617V44.5312H19.9219V33.4852C20.6777 33.6996 21.4594 33.852 22.2656 33.9258V44.5312H24.6094V33.9246C25.4156 33.852 26.1973 33.6996 26.9531 33.484V44.5312H29.2969V32.5617C30.1336 32.1328 30.9223 31.6242 31.6406 31.0301V49.2844C31.6406 49.827 31.5129 50.3707 31.2703 50.8559Z" fill="#FE3D32"/>
<path d="M23.4375 24.6094C22.7906 24.6094 22.2656 24.0832 22.2656 23.4375H19.9219C19.9219 24.9633 20.9051 26.2523 22.2656 26.7375V29.2969H24.6094V26.9531H26.9531V23.4375C26.9531 21.4992 25.3758 19.9219 23.4375 19.9219C22.7906 19.9219 22.2656 19.3957 22.2656 18.75V17.5781H23.4375C24.0844 17.5781 24.6094 18.1043 24.6094 18.75H26.9531C26.9531 17.2242 25.9699 15.9352 24.6094 15.45V12.8906H22.2656V15.2344H19.9219V18.75C19.9219 20.6883 21.4992 22.2656 23.4375 22.2656C24.0844 22.2656 24.6094 22.7918 24.6094 23.4375V24.6094H23.4375Z" fill="#FE3D32"/>
<path d="M70.9852 36.3973L69.7793 34.5891C69.3328 33.9188 69.0445 33.143 68.9449 32.3438L68.1141 25.7004C67.9887 24.6902 67.5996 23.7258 66.9867 22.9113L64.4531 19.5316V17.5781H66.7969V1.17188H41.0156V17.5781H43.3594V19.6453L41.6332 23.0965C41.2301 23.9051 41.0156 24.8121 41.0156 25.7156V44.5312C41.0156 44.7645 41.0414 44.9941 41.0859 45.218C38.1633 47.9953 36.3281 51.9082 36.3281 56.25C36.3281 64.65 43.1625 71.4844 51.5625 71.4844C59.9625 71.4844 66.7969 64.65 66.7969 56.25C66.7969 51.9082 64.9617 47.9953 62.0391 45.218C62.0836 44.9941 62.1094 44.7645 62.1094 44.5312V37.4496C63.4605 39.6082 65.8547 41.0156 68.5137 41.0156C70.1508 41.0156 71.4844 39.6832 71.4844 38.0449C71.4844 37.4566 71.3121 36.8871 70.9852 36.3973ZM64.4531 3.51562V15.2344H43.3594V10.5469H52.7344V8.20312H43.3594V3.51562H64.4531ZM64.4531 56.25C64.4531 63.3574 58.6699 69.1406 51.5625 69.1406C44.4551 69.1406 38.6719 63.3574 38.6719 56.25C38.6719 49.1426 44.4551 43.3594 51.5625 43.3594C58.6699 43.3594 64.4531 49.1426 64.4531 56.25ZM68.5137 38.6719C66.0398 38.6719 63.8906 36.9105 63.4043 34.4836L61.9418 27.1688L61.2223 26.9883C58.984 26.4281 57.4219 24.4277 57.4219 22.1215V19.9219H55.0781V22.1215C55.0781 25.1883 56.9672 27.8777 59.7656 28.9676V43.4332C59.0238 42.9562 58.2434 42.5344 57.4219 42.191V30.4688H55.0781V41.441C54.3164 41.2605 53.5348 41.1363 52.7344 41.0742V30.4688H50.3906V41.0754C49.5902 41.1363 48.8086 41.2605 48.0469 41.4422V30.4688H45.7031V42.191C44.8816 42.5344 44.1012 42.9574 43.3594 43.4332V25.7156C43.3594 25.173 43.4871 24.6293 43.7297 24.143L45.7031 20.1984V17.5781H62.1094V20.3121L65.1117 24.3164C65.4785 24.8051 65.7129 25.3828 65.7879 25.9887L66.6187 32.632C66.7629 33.7887 67.1801 34.9148 67.8281 35.8863L69.034 37.6945C69.1031 37.7977 69.1395 37.9184 69.1395 38.0426C69.1406 38.3906 68.8594 38.6719 68.5137 38.6719Z" fill="#FE3D32"/>
<path d="M43.6923 62.4514L57.753 48.3907L59.41 50.0477L45.3493 64.1084L43.6923 62.4514Z" fill="#FE3D32"/>
<path d="M56.25 57.4219C54.3117 57.4219 52.7344 58.9992 52.7344 60.9375C52.7344 62.8758 54.3117 64.4531 56.25 64.4531C58.1883 64.4531 59.7656 62.8758 59.7656 60.9375C59.7656 58.9992 58.1883 57.4219 56.25 57.4219ZM56.25 62.1094C55.6031 62.1094 55.0781 61.5832 55.0781 60.9375C55.0781 60.2918 55.6031 59.7656 56.25 59.7656C56.8969 59.7656 57.4219 60.2918 57.4219 60.9375C57.4219 61.5832 56.8969 62.1094 56.25 62.1094Z" fill="#FE3D32"/>
<path d="M46.875 55.0781C48.8133 55.0781 50.3906 53.5008 50.3906 51.5625C50.3906 49.6242 48.8133 48.0469 46.875 48.0469C44.9367 48.0469 43.3594 49.6242 43.3594 51.5625C43.3594 53.5008 44.9367 55.0781 46.875 55.0781ZM46.875 50.3906C47.5219 50.3906 48.0469 50.9168 48.0469 51.5625C48.0469 52.2082 47.5219 52.7344 46.875 52.7344C46.2281 52.7344 45.7031 52.2082 45.7031 51.5625C45.7031 50.9168 46.2281 50.3906 46.875 50.3906Z" fill="#FE3D32"/>
<path d="M58.5938 12.8906C60.532 12.8906 62.1094 11.3133 62.1094 9.375C62.1094 7.43672 60.532 5.85938 58.5938 5.85938C56.6555 5.85938 55.0781 7.43672 55.0781 9.375C55.0781 11.3133 56.6555 12.8906 58.5938 12.8906ZM58.5938 8.20312C59.2406 8.20312 59.7656 8.7293 59.7656 9.375C59.7656 10.0207 59.2406 10.5469 58.5938 10.5469C57.9469 10.5469 57.4219 10.0207 57.4219 9.375C57.4219 8.7293 57.9469 8.20312 58.5938 8.20312Z" fill="#FE3D32"/>
</svg>
