<svg xmlns="http://www.w3.org/2000/svg" viewBox="0 0 1050.89 1050.89"><defs><style>.cls-1{fill:#d72d24;}</style></defs><title>favicon</title><g id="Layer_2" data-name="Layer 2"><g id="Слой_1" data-name="Слой 1"><path class="cls-1" d="M461.21,657.37l-58-44q-.21,3-.21,6a88.72,88.72,0,1,0,62-84.65l56.63,42.94a50,50,0,1,1-60.43,79.68Z"/><path class="cls-1" d="M525.45,0C235.25,0,0,235.25,0,525.45a525.27,525.27,0,0,0,26.12,164L298.21,408.27l130.45,98.92a128.65,128.65,0,0,1,113.16-6.42l168-168-55.72-55.72,251.3-67.33L838,461,780.5,403.5,611.62,572.39a128.76,128.76,0,1,1-244.29,13.79l-58.9-44.66L70.11,787.85c90.81,157.23,260.71,263,455.34,263,290.19,0,525.44-235.25,525.44-525.44S815.64,0,525.45,0Z"/></g></g></svg>