<svg xmlns="http://www.w3.org/2000/svg" viewBox="0 0 388.48 72.57"><defs><style>.cls-1{fill:#d72d24;}</style></defs><title>logo</title><g id="Layer_2" data-name="Layer 2"><g id="Layer_1-2" data-name="Layer 1"><path d="M109.41,12.35q-9.91,0-9.92,19.14v5.05q0,9.09,2.62,14.27t7.75,5.12q7,0,12.92-13.69h1.16l-.45,14.27h-.71a3.19,3.19,0,0,0-.7-1,1.31,1.31,0,0,0-1-.32,38.54,38.54,0,0,0-4.61,1,35.26,35.26,0,0,1-8.19,1q-10.42,0-16.19-5.63t-5.7-16.89q0-11.34,5.95-17.48t16.13-6.14a28.63,28.63,0,0,1,7.62,1,33,33,0,0,0,4.41,1,1.51,1.51,0,0,0,1-.25,4.48,4.48,0,0,0,.71-1h.7l.51,13.89h-1.15a37.46,37.46,0,0,0-6-9.85A9,9,0,0,0,109.41,12.35Z"/><path d="M125.75,27.26V26.11h18.56v1.15h-3.45l7,21.25,7.43-21.25H151V26.11h9v1.15h-3.2l-12,34.5q-2.12,6-4.74,8.38a9.07,9.07,0,0,1-6.4,2.43,9.32,9.32,0,0,1-6-1.72,5.42,5.42,0,0,1-2.18-4.42,5.56,5.56,0,0,1,1.41-4.1,5.05,5.05,0,0,1,3.71-1.4q5.31,0,5.31,4.41a8.49,8.49,0,0,1-.38,2.31h-2.24a3.52,3.52,0,0,0-.13,2.43A1.65,1.65,0,0,0,135,71a5.87,5.87,0,0,0,4.67-2.63,27.2,27.2,0,0,0,3.91-7.87l1.4-4h-5.63L128.38,27.26Z"/><path d="M182.56,39.36q0-6.6-.64-8.83c-.43-1.54-1.26-2.31-2.5-2.31s-2.34.77-3.33,2.31a11.67,11.67,0,0,0-1.47,6.33V48.77a9.4,9.4,0,0,0,1.09,4.67,3.57,3.57,0,0,0,3.2,1.92q2.11,0,2.88-2.82a42.85,42.85,0,0,0,.77-9.85ZM174.62,8.57V31a8.48,8.48,0,0,1,8.32-5.5q12,0,12,15.94,0,8.13-3.33,12t-9.85,3.84a10.47,10.47,0,0,1-5.12-1,5.31,5.31,0,0,1-2.37-3.39l-.45,3.77H159.2V55.42h3.52V9.73H159.2V8.57Z"/><path d="M213.66,57.21q-8.26,0-12.42-4.22t-4.1-11.84q0-7.62,4.61-11.65a17.47,17.47,0,0,1,11.84-4q14.53,0,13.95,14.59h-18v2.5q0,6.27,1.6,9.47a5.7,5.7,0,0,0,5.56,3.2q7.43,0,9.73-7.94l1.15.2a13.12,13.12,0,0,1-4.41,7.16Q220,57.22,213.66,57.21Zm-4.1-18.43h6.59V35.65a25.15,25.15,0,0,0-.64-7,2.37,2.37,0,0,0-2.43-1.92,2.89,2.89,0,0,0-2.69,2,20.08,20.08,0,0,0-.83,6.92Z"/><path d="M251.2,27.9c-1.58,0-3,1-4.16,3.07a14.19,14.19,0,0,0-1.79,7.3V55.42h4.54v1.15h-20V55.42h3.52V27.26h-3.52V26.11h15.43v6.14a8.52,8.52,0,0,1,3.2-5,8.7,8.7,0,0,1,5.37-1.79,6.87,6.87,0,0,1,4.87,1.73,6,6,0,0,1,1.92,4.8,7.09,7.09,0,0,1-1.41,4.73,5.39,5.39,0,0,1-4.35,1.67,5,5,0,0,1-4.29-1.92c-.9-1.28-1-3-.32-5.31h2.3Q254.15,27.9,251.2,27.9Z"/><path d="M264.71,47.42V27.26h-3.52V26.11h3.52V17.85l11.91-2.94v11.2h8.32v1.15h-8.32V48.83a12.61,12.61,0,0,0,.57,4.42,2.52,2.52,0,0,0,2.56,1.4,4.08,4.08,0,0,0,3.33-1.92A10.89,10.89,0,0,0,285,47.49l1.09.12a12.5,12.5,0,0,1-2.82,7q-2.29,2.57-7.61,2.56t-8.13-2.11Q264.71,53,264.71,47.42Z"/><path d="M303.53,57.21q-8.25,0-12.42-4.22T287,41.15q0-7.62,4.61-11.65a17.45,17.45,0,0,1,11.84-4q14.52,0,13.95,14.59H299.37v2.5q0,6.27,1.6,9.47a5.71,5.71,0,0,0,5.57,3.2q7.43,0,9.73-7.94l1.15.2A13.07,13.07,0,0,1,313,54.65Q309.87,57.22,303.53,57.21Zm-4.1-18.43H306V35.65a25.55,25.55,0,0,0-.64-7A2.38,2.38,0,0,0,303,26.69a2.87,2.87,0,0,0-2.68,2c-.56,1.33-.84,3.63-.84,6.92Z"/><path d="M337.62,26.62c-1.88,0-3.22,1-4,3.07s-1.22,5.44-1.22,10.18V43.2q0,6.33,1.41,9.09T339,55a7.58,7.58,0,0,0,6-2.56,12.38,12.38,0,0,0,2.88-5.83l1.15.13q-1.22,5.51-4.48,7.94t-9.15,2.49q-7.42,0-11.39-4t-4-11.72q0-7.74,4.48-11.9t12.61-4.16c3.79,0,6.7.75,8.7,2.24a6.55,6.55,0,0,1,3,5.5q0,3.33-1.47,4.87a5.12,5.12,0,0,1-4,1.53,5.86,5.86,0,0,1-4-1.34,5,5,0,0,1-1.54-4,8.68,8.68,0,0,1,.32-2.3h2.11a7,7,0,0,0,.45-2.31C340.69,27.65,339.67,26.62,337.62,26.62Z"/><path d="M350,8.57h15.43V32a10.65,10.65,0,0,1,3.13-4.74q2.12-1.78,6.4-1.79,9.91,0,9.92,10.69V55.42h3.59v1.15H370.36V55.42H373V34.62a14.53,14.53,0,0,0-.51-4.93,1.88,1.88,0,0,0-1.86-1.15c-1.37,0-2.58.9-3.65,2.69a13,13,0,0,0-1.53,6.53V55.42h2.75v1.15H350V55.42h3.52V9.73H350Z"/><path class="cls-1" d="M31.82,45.36l-4-3c0,.14,0,.28,0,.42a6.12,6.12,0,1,0,6.12-6.13,5.91,5.91,0,0,0-1.84.29l3.9,3a3.45,3.45,0,1,1-4.17,5.5Z"/><path class="cls-1" d="M36.26,0A36.28,36.28,0,0,0,1.8,47.57l18.78-19.4,9,6.83a8.82,8.82,0,0,1,7.8-.45L49,23l-3.85-3.84,17.34-4.65L57.82,31.81l-4-4L42.2,39.49a8.78,8.78,0,0,1,.61,3.25,8.88,8.88,0,0,1-17.76,0,8.66,8.66,0,0,1,.3-2.29l-4.07-3.09-16.44,17A36.26,36.26,0,1,0,36.26,0Z"/></g></g></svg>