<svg width="16" height="16" viewBox="0 0 16 16" fill="none" xmlns="http://www.w3.org/2000/svg">
<path fill-rule="evenodd" clip-rule="evenodd" d="M0 6.94253C0 3.10828 3.10827 0 6.94252 0C10.7768 0 13.885 3.10828 13.885 6.94253C13.885 8.40361 13.4337 9.75927 12.6628 10.8777L15.6303 13.8452C16.1232 14.3381 16.1232 15.1373 15.6303 15.6303C15.1373 16.1232 14.3381 16.1232 13.8452 15.6303L10.8777 12.6628C9.75928 13.4337 8.40361 13.8851 6.94252 13.8851C3.10827 13.8851 0 10.7768 0 6.94253ZM6.94252 11.3605C4.50254 11.3605 2.52455 9.38251 2.52455 6.94253C2.52455 4.50255 4.50254 2.52456 6.94252 2.52456C9.38249 2.52456 11.3605 4.50255 11.3605 6.94253C11.3605 9.38251 9.38249 11.3605 6.94252 11.3605Z" fill="#353535"/>
</svg>
