<svg width="13" height="12" viewBox="0 0 13 12" fill="none" xmlns="http://www.w3.org/2000/svg">
<path d="M12.3023 4.17237L8.58301 3.63184L6.92041 0.261236C6.875 0.168951 6.8003 0.0942437 6.70801 0.0488336C6.47657 -0.0654243 6.19532 0.0297906 6.07959 0.261236L4.417 3.63184L0.697759 4.17237C0.595219 4.18702 0.501469 4.23536 0.429692 4.3086C0.342917 4.39779 0.2951 4.51778 0.296748 4.64221C0.298396 4.76663 0.349375 4.88531 0.438481 4.97217L3.1294 7.59571L2.49366 11.3003C2.47875 11.3865 2.48828 11.4751 2.52118 11.5561C2.55408 11.6372 2.60903 11.7074 2.67979 11.7588C2.75056 11.8102 2.8343 11.8407 2.92154 11.8469C3.00877 11.8531 3.09601 11.8348 3.17334 11.794L6.5 10.0449L9.82666 11.794C9.91749 11.8423 10.023 11.8584 10.124 11.8408C10.3789 11.7969 10.5503 11.5552 10.5064 11.3003L9.87061 7.59571L12.5615 4.97217C12.6348 4.9004 12.6831 4.80665 12.6978 4.70411C12.7373 4.44776 12.5586 4.21045 12.3023 4.17237Z" fill="white"/>
</svg>
