<svg width="55" height="55" viewBox="0 0 55 55" fill="none" xmlns="http://www.w3.org/2000/svg">
<path d="M44.8447 0H9.56407C6.6343 0 4.25073 2.40947 4.25073 5.37109V49.6289C4.25073 52.5905 6.6343 55 9.56407 55H44.8447C47.7744 55 50.158 52.5905 50.158 49.6289V5.37109C50.158 2.40947 47.7744 0 44.8447 0ZM9.56407 2.14844H44.8447C46.6025 2.14844 48.0327 3.59412 48.0327 5.37109V5.80078H31.9864C31.3995 5.80078 30.9237 6.28182 30.9237 6.875C30.9237 7.46818 31.3995 7.94922 31.9864 7.94922H48.0327V26.4258H6.37607V7.94922H22.4224C23.0093 7.94922 23.485 7.46818 23.485 6.875C23.485 6.28182 23.0093 5.80078 22.4224 5.80078H6.37607V5.37109C6.37607 3.59412 7.80621 2.14844 9.56407 2.14844ZM44.8447 52.8516H9.56407C7.80621 52.8516 6.37607 51.4059 6.37607 49.6289V28.5742H48.0327V49.6289C48.0327 51.4059 46.6025 52.8516 44.8447 52.8516Z" fill="white"/>
<path d="M12.8763 13.751C13.6479 13.751 14.2756 14.2825 14.2756 14.9356C14.2756 15.5288 14.7514 16.0098 15.3383 16.0098C15.9252 16.0098 16.401 15.5288 16.401 14.9356C16.401 13.4479 15.3647 12.1849 13.939 11.7577V11.6084C13.939 11.0152 13.4632 10.5342 12.8763 10.5342C12.2894 10.5342 11.8137 11.0152 11.8137 11.6084V11.7577C10.3879 12.1849 9.35156 13.4479 9.35156 14.9356C9.35156 16.7734 10.9327 18.2684 12.8763 18.2684C13.6479 18.2684 14.2756 18.7998 14.2756 19.4529C14.2756 20.106 13.6479 20.6374 12.8763 20.6374C12.1047 20.6374 11.4769 20.1061 11.4769 19.453C11.4769 18.8598 11.0011 18.3788 10.4142 18.3788C9.82732 18.3788 9.35156 18.8598 9.35156 19.453C9.35156 20.9407 10.3879 22.2036 11.8137 22.6309V22.7802C11.8137 23.3734 12.2894 23.8544 12.8763 23.8544C13.4632 23.8544 13.939 23.3734 13.939 22.7802V22.6309C15.3648 22.2035 16.401 20.9407 16.401 19.453C16.401 17.6152 14.8198 16.1201 12.8763 16.1201C12.1047 16.1201 11.4769 15.5888 11.4769 14.9357C11.4769 14.2826 12.1047 13.751 12.8763 13.751Z" fill="white"/>
<path d="M20.8284 11.6083V16.7645C20.8284 17.3577 21.3041 17.8387 21.891 17.8387H43.8974C44.4843 17.8387 44.9601 17.3577 44.9601 16.7645V11.6083C44.9601 11.0151 44.4843 10.5341 43.8974 10.5341H21.891C21.3041 10.5341 20.8284 11.0151 20.8284 11.6083ZM22.9537 12.6825H42.8347V15.6903H22.9537V12.6825Z" fill="white"/>
<path d="M43.8974 20.8466H21.891C21.3041 20.8466 20.8284 21.3276 20.8284 21.9208C20.8284 22.514 21.3041 22.995 21.891 22.995H43.8974C44.4843 22.995 44.9601 22.514 44.9601 21.9208C44.9601 21.3276 44.4843 20.8466 43.8974 20.8466Z" fill="white"/>
<path d="M32.6949 42.2391H26.2835C25.6966 42.2391 25.2208 42.7202 25.2208 43.3134C25.2208 43.9065 25.6966 44.3876 26.2835 44.3876H32.6949C33.2818 44.3876 33.7575 43.9065 33.7575 43.3134C33.7575 42.7202 33.2817 42.2391 32.6949 42.2391Z" fill="white"/>
<path d="M32.6949 37.0829H26.2835C25.6966 37.0829 25.2208 37.5639 25.2208 38.1571C25.2208 38.7503 25.6966 39.2313 26.2835 39.2313H32.6949C33.2818 39.2313 33.7575 38.7503 33.7575 38.1571C33.7575 37.5639 33.2817 37.0829 32.6949 37.0829Z" fill="white"/>
<path d="M32.6949 47.3954H26.2835C25.6966 47.3954 25.2208 47.8764 25.2208 48.4696C25.2208 49.0628 25.6966 49.5438 26.2835 49.5438H32.6949C33.2818 49.5438 33.7575 49.0628 33.7575 48.4696C33.7575 47.8764 33.2817 47.3954 32.6949 47.3954Z" fill="white"/>
<path d="M32.6949 31.9266H26.2835C25.6966 31.9266 25.2208 32.4077 25.2208 33.0009C25.2208 33.594 25.6966 34.0751 26.2835 34.0751H32.6949C33.2818 34.0751 33.7575 33.594 33.7575 33.0009C33.7575 32.4077 33.2817 31.9266 32.6949 31.9266Z" fill="white"/>
<path d="M44.2824 42.2391H37.7956C37.2087 42.2391 36.7329 42.7202 36.7329 43.3134C36.7329 43.9065 37.2087 44.3876 37.7956 44.3876H44.2824C44.8694 44.3876 45.3451 43.9065 45.3451 43.3134C45.3451 42.7202 44.8694 42.2391 44.2824 42.2391Z" fill="white"/>
<path d="M44.2824 37.0829H37.7956C37.2087 37.0829 36.7329 37.5639 36.7329 38.1571C36.7329 38.7503 37.2087 39.2313 37.7956 39.2313H44.2824C44.8694 39.2313 45.3451 38.7503 45.3451 38.1571C45.3451 37.5639 44.8694 37.0829 44.2824 37.0829Z" fill="white"/>
<path d="M44.2824 47.3954H37.7956C37.2087 47.3954 36.7329 47.8764 36.7329 48.4696C36.7329 49.0628 37.2087 49.5438 37.7956 49.5438H44.2824C44.8694 49.5438 45.3451 49.0628 45.3451 48.4696C45.3451 47.8764 44.8694 47.3954 44.2824 47.3954Z" fill="white"/>
<path d="M44.2824 31.9266H37.7956C37.2087 31.9266 36.7329 32.4077 36.7329 33.0009C36.7329 33.594 37.2087 34.0751 37.7956 34.0751H44.2824C44.8694 34.0751 45.3451 33.594 45.3451 33.0009C45.3451 32.4077 44.8694 31.9266 44.2824 31.9266Z" fill="white"/>
<path d="M21.1826 42.2391H10.4142C9.82732 42.2391 9.35156 42.7202 9.35156 43.3134C9.35156 43.9065 9.82732 44.3876 10.4142 44.3876H21.1826C21.7695 44.3876 22.2452 43.9065 22.2452 43.3134C22.2452 42.7202 21.7695 42.2391 21.1826 42.2391Z" fill="white"/>
<path d="M21.1826 37.0829H10.4142C9.82732 37.0829 9.35156 37.5639 9.35156 38.1571C9.35156 38.7503 9.82732 39.2313 10.4142 39.2313H21.1826C21.7695 39.2313 22.2452 38.7503 22.2452 38.1571C22.2452 37.5639 21.7695 37.0829 21.1826 37.0829Z" fill="white"/>
<path d="M21.1826 47.3954H10.4142C9.82732 47.3954 9.35156 47.8764 9.35156 48.4696C9.35156 49.0628 9.82732 49.5438 10.4142 49.5438H21.1826C21.7695 49.5438 22.2452 49.0628 22.2452 48.4696C22.2452 47.8764 21.7695 47.3954 21.1826 47.3954Z" fill="white"/>
<path d="M21.1826 31.9266H10.4142C9.82732 31.9266 9.35156 32.4077 9.35156 33.0009C9.35156 33.594 9.82732 34.0751 10.4142 34.0751H21.1826C21.7695 34.0751 22.2452 33.594 22.2452 33.0009C22.2452 32.4077 21.7695 31.9266 21.1826 31.9266Z" fill="white"/>
<path d="M27.2044 7.94922C27.4839 7.94922 27.758 7.83428 27.9557 7.63437C28.1534 7.43467 28.2671 7.15752 28.2671 6.875C28.2671 6.59248 28.1534 6.31533 27.9557 6.11553C27.758 5.91572 27.4839 5.80078 27.2044 5.80078C26.9249 5.80078 26.6507 5.91562 26.4531 6.11553C26.2554 6.31533 26.1417 6.59248 26.1417 6.875C26.1417 7.15752 26.2554 7.43467 26.4531 7.63437C26.6507 7.83428 26.9249 7.94922 27.2044 7.94922Z" fill="white"/>
</svg>
