<svg width="60" height="60" viewBox="0 0 60 60" fill="none" xmlns="http://www.w3.org/2000/svg">
<g clip-path="url(#clip0)">
<path d="M42.0625 37.0326C38.0562 37.0326 34.7969 40.2919 34.7969 44.2982C34.7969 48.3046 38.0562 51.5638 42.0625 51.5638C46.0688 51.5638 49.3281 48.3046 49.3281 44.2982C49.3281 40.2919 46.0688 37.0326 42.0625 37.0326ZM42.0625 49.2201C39.3484 49.2201 37.1406 47.0123 37.1406 44.2982C37.1406 41.5841 39.3484 39.3763 42.0625 39.3763C44.7766 39.3763 46.9844 41.5841 46.9844 44.2982C46.9844 47.0123 44.7766 49.2201 42.0625 49.2201Z" fill="white"/>
<path d="M56.5938 40.4778H55.2104C54.9298 39.5078 54.5435 38.5753 54.055 37.6905L55.0282 36.7173C55.248 36.4975 55.3716 36.1995 55.3716 35.8882C55.3716 35.5774 55.248 35.2794 55.0278 35.0597L51.2915 31.3262C50.8342 30.8689 50.0922 30.8689 49.6349 31.3262L48.663 32.298C47.7782 31.8096 46.8452 31.4232 45.8752 31.1431V29.7684C45.8752 29.5871 45.8327 29.4159 45.759 29.2621L49.4696 25.4764C49.6843 25.2576 49.8047 24.9633 49.8047 24.6561V18.5157C49.8047 17.8684 49.2801 17.3438 48.6328 17.3438H32.1629V13.2202C33.8589 12.7629 35.1105 11.212 35.1105 9.37366C35.1105 7.17639 33.3234 5.38928 31.1261 5.38928C28.9293 5.38928 27.1417 7.17639 27.1417 9.37366C27.1417 11.1127 28.2623 12.594 29.8192 13.1365V17.3438H16.0638C16.1554 16.9602 16.203 16.5642 16.203 16.16C16.203 13.375 13.9375 11.1095 11.152 11.1095C8.367 11.1095 6.10153 13.375 6.10153 16.16C6.10153 16.5642 6.14914 16.9602 6.24115 17.3438H3.63281C2.98553 17.3438 2.46094 17.8684 2.46094 18.5157V24.6561C2.46094 24.9633 2.58133 25.2576 2.79602 25.4764L7.32971 30.1017C7.78244 30.564 8.52448 30.5713 8.98682 30.1186C9.44916 29.6654 9.45648 28.9234 9.0033 28.461L4.80469 24.1777V19.6875H14.2314H14.2328H14.2337H47.4609V24.1777L43.1296 28.5965H39.4217C38.7744 28.5965 38.2498 29.1211 38.2498 29.7684V31.1431C37.2794 31.4232 36.3469 31.8096 35.462 32.298L34.4907 31.3262C34.0329 30.8689 33.2913 30.8684 32.8336 31.3262L29.0973 35.0597C28.8771 35.2794 28.7535 35.5774 28.7535 35.8882C28.7535 36.1991 28.8771 36.4975 29.0968 36.7173L30.07 37.69C29.5816 38.5753 29.1953 39.5078 28.9146 40.4778H27.5345C26.8872 40.4778 26.3631 41.0019 26.3626 41.6487L26.3594 46.9309C26.3594 47.2417 26.483 47.5402 26.7027 47.7599C26.9225 47.9801 27.2205 48.1037 27.5313 48.1037H28.9146C29.1953 49.0737 29.5816 50.0061 30.07 50.891L29.0909 51.8701C28.9114 52.0496 28.8029 52.2734 28.7645 52.506L21.433 56.7865V41.6204C21.433 41.3137 21.3126 41.0193 21.0979 40.8L16.3843 35.9917C15.9311 35.5294 15.1895 35.5216 14.7272 35.9748C14.2648 36.4279 14.2575 37.17 14.7102 37.6323L19.0887 42.0992V58.8282C19.0887 59.2479 19.3135 59.6356 19.6774 59.8444C19.8578 59.9483 20.0592 60 20.2606 60C20.4648 60 20.6694 59.9469 20.8516 59.8403L30.0385 54.4762L32.8239 57.264C33.0437 57.4837 33.3421 57.6073 33.653 57.6073C33.9638 57.6073 34.2618 57.4837 34.4815 57.264L35.462 56.2834C36.3469 56.7719 37.2794 57.1587 38.2498 57.4388V58.8282C38.2498 59.4754 38.7744 60 39.4217 60H44.7034C45.3506 60 45.8752 59.4754 45.8752 58.8282V57.4388C46.8452 57.1587 47.7782 56.7719 48.663 56.2834L49.6436 57.264C49.8633 57.4837 50.1617 57.6073 50.4726 57.6073C50.7834 57.6073 51.0814 57.4837 51.3011 57.2635L55.0346 53.5272C55.4919 53.0695 55.4919 52.3279 55.0346 51.8706L54.055 50.8914C54.5435 50.0061 54.9303 49.0737 55.2104 48.1037H56.5938C57.2406 48.1037 57.7657 47.5791 57.7657 46.9318V41.6497C57.7657 41.0024 57.2411 40.4778 56.5938 40.4778ZM31.1266 7.73303C32.0311 7.73303 32.7672 8.46866 32.7672 9.37366C32.7672 10.2782 32.0311 11.0143 31.1266 11.0143C30.2216 11.0143 29.4859 10.2782 29.4859 9.37366C29.4859 8.46866 30.2216 7.73303 31.1266 7.73303ZM8.44528 16.16C8.44528 14.6677 9.65973 13.4532 11.1525 13.4532C12.6453 13.4532 13.8597 14.6677 13.8597 16.16C13.8597 16.577 13.7645 16.978 13.5855 17.3438H8.71948C8.5405 16.978 8.44528 16.577 8.44528 16.16ZM55.4219 45.7599H54.2976C53.7451 45.7599 53.2681 46.1458 53.1519 46.6855C52.8644 48.0236 52.3412 49.2861 51.5968 50.4383C51.297 50.902 51.3615 51.5122 51.7525 51.9031L52.549 52.6992L50.4716 54.7779L49.6747 53.9804C49.2842 53.59 48.6736 53.5254 48.2098 53.8248C47.0581 54.5691 45.7956 55.0923 44.4571 55.3798C43.9174 55.4961 43.5315 55.9735 43.5315 56.5256V57.6563H40.5936V56.5261C40.5936 55.9735 40.2077 55.4961 39.6675 55.3803C38.3295 55.0923 37.067 54.5696 35.9152 53.8253C35.4515 53.5254 34.8413 53.59 34.4504 53.9809L33.6534 54.7779L31.5761 52.6996L32.3726 51.9031C32.7635 51.5126 32.8281 50.902 32.5282 50.4383C31.7839 49.2865 31.2607 48.024 30.9732 46.6855C30.8574 46.1458 30.3799 45.7599 29.8274 45.7599H28.7041L28.7054 42.8215H29.8274C30.3799 42.8215 30.8574 42.4361 30.9732 41.8959C31.2607 40.5579 31.7839 39.2954 32.5282 38.1436C32.8281 37.6795 32.7635 37.0693 32.3726 36.6788L31.5834 35.8892L33.6617 33.8123L34.4504 34.601C34.8413 34.9915 35.4515 35.0565 35.9152 34.7567C37.067 34.0123 38.3295 33.4891 39.6675 33.2016C40.2077 33.0854 40.5931 32.6084 40.5931 32.0558V30.9403H43.5315V32.0558C43.5315 32.6084 43.9174 33.0854 44.4571 33.2016C45.7956 33.4891 47.0581 34.0123 48.2098 34.7567C48.6736 35.0565 49.2838 34.9919 49.6747 34.601L50.4634 33.8123L52.5417 35.8892L51.752 36.6788C51.3615 37.0693 51.2965 37.6795 51.5964 38.1432C52.3412 39.2954 52.8639 40.5579 53.1514 41.8959C53.2677 42.4361 53.7447 42.8215 54.2972 42.8215H55.4219V45.7599Z" fill="white"/>
<path d="M18.913 8.74878V13.1639C18.913 13.8112 19.4376 14.3358 20.0848 14.3358C20.7317 14.3358 21.2567 13.8112 21.2567 13.1639V8.74878C23.145 8.23288 24.538 6.50299 24.538 4.45312C24.538 1.99768 22.5403 0 20.0848 0C17.6294 0 15.6317 1.99768 15.6317 4.45312C15.6317 6.50299 17.0242 8.23288 18.913 8.74878ZM20.0848 2.34375C21.2476 2.34375 22.1942 3.28995 22.1942 4.45312C22.1942 5.6163 21.2476 6.5625 20.0848 6.5625C18.9217 6.5625 17.9755 5.6163 17.9755 4.45312C17.9755 3.28995 18.9217 2.34375 20.0848 2.34375Z" fill="white"/>
<path d="M41.2303 8.74878V13.7109C41.2303 14.3582 41.7554 14.8828 42.4022 14.8828C43.0495 14.8828 43.5741 14.3582 43.5741 13.7109V8.74878C45.4628 8.23288 46.8554 6.50299 46.8554 4.45312C46.8554 1.99768 44.8577 0 42.4022 0C39.9468 0 37.9491 1.99768 37.9491 4.45312C37.9491 6.50299 39.3421 8.23288 41.2303 8.74878ZM42.4022 2.34375C43.5654 2.34375 44.5116 3.28995 44.5116 4.45312C44.5116 5.6163 43.5654 6.5625 42.4022 6.5625C41.239 6.5625 40.2928 5.6163 40.2928 4.45312C40.2928 3.28995 41.239 2.34375 42.4022 2.34375Z" fill="white"/>
<path d="M11.8566 31.875C11.5485 31.875 11.2464 32.0004 11.028 32.2183C10.8101 32.4362 10.6847 32.7388 10.6847 33.0469C10.6847 33.3549 10.8101 33.6575 11.028 33.8754C11.2464 34.0933 11.5485 34.2188 11.8566 34.2188C12.166 34.2188 12.4672 34.0933 12.6851 33.8754C12.9044 33.6575 13.0284 33.3549 13.0284 33.0469C13.0284 32.7388 12.9044 32.4362 12.6851 32.2183C12.4672 32.0004 12.166 31.875 11.8566 31.875Z" fill="white"/>
</g>
<defs>
<clipPath id="clip0">
<rect width="60" height="60" fill="white"/>
</clipPath>
</defs>
</svg>
