<svg id="Силуэт" xmlns="http://www.w3.org/2000/svg" width="110" height="110" viewBox="0 0 110 110"><defs><style>.cls-1{fill:#fff;}.cls-2{fill:#af9c94;}</style></defs><title>Силуэт - Comfort fit</title><g id="Comfort_fit" data-name="Comfort fit"><g id="Цвет"><path class="cls-1" d="M57.667,109.584c10.167,0,17.667-6.083,23.667-6.083L81.5,47.584C84,50.584,86.583,56.75,88,62l-3,39,11,1,6-26a53.12,53.12,0,0,0-3-32A154.762,154.762,0,0,0,87,18L68.063,10.094,67.917,9.5,65,3A22.358,22.358,0,0,0,55,1,22.358,22.358,0,0,0,45,3L42.083,9.5l-.146.593L23,18A154.762,154.762,0,0,0,11,44,53.12,53.12,0,0,0,8,76l6,26,11-1L22,62c1.417-5.25,4-11.417,6.5-14.417l.167,55.917c6,0,13.5,6.083,23.667,6.083Z"/><path class="cls-2" d="M57.667,109.584c10.167,0,17.667-6.083,23.667-6.083,0,0,.167-44.334.167-59,0-9.675,1.513-18.552,5.5-26.5L68.063,10.094c.938,2.281-3.687,8.156-6.437,12.031L59.313,15.5,55,15.438l-4.312.063-2.312,6.625c-3.25-5-7.25-9.125-6.437-12.031L23,18c3.987,7.948,5.5,16.825,5.5,26.5,0,14.666.167,59,.167,59,6,0,13.5,6.083,23.667,6.083Z"/><path class="cls-1" d="M70.036,13.627l13.6,5.677C80.519,26.488,79,34.762,79,44.5c0,12.6-.125,47.544-.158,56.748a40.674,40.674,0,0,0-7.2,2.375c-4.081,1.622-8.707,3.46-13.978,3.46H52.333c-5.271,0-9.9-1.838-13.978-3.46a40.674,40.674,0,0,0-7.2-2.375C31.125,92.044,31,57.1,31,44.5c0-9.738-1.519-18.013-4.633-25.2L39.908,13.65a31.5,31.5,0,0,0,3.851,6.222c.84,1.164,1.708,2.367,2.52,3.616l2.777,4.272,1.679-4.811,1.736-4.974L55,17.938l2.528.037,1.736,4.974,1.6,4.573,2.8-3.95c.343-.483.715-1,1.1-1.533a46.047,46.047,0,0,0,5.27-8.412m-1.973-3.533c.937,2.281-3.688,8.156-6.438,12.031L59.313,15.5,55,15.437l-4.312.063-2.313,6.625c-3.25-5-7.25-9.125-6.437-12.031L23,18c3.987,7.948,5.5,16.825,5.5,26.5,0,14.666.167,59,.167,59,6,0,13.5,6.083,23.667,6.083h5.333c10.167,0,17.667-6.083,23.667-6.083,0,0,.167-44.334.167-59,0-9.675,1.513-18.552,5.5-26.5L68.063,10.094Z"/></g><g id="Контур"><path d="M56,13a1,1,0,1,1-1-1A1,1,0,0,1,56,13Zm-1,7a1,1,0,1,0-1-1A1,1,0,0,0,55,20Zm0,13a1,1,0,1,0-1-1A1,1,0,0,0,55,33Zm0,13a1,1,0,1,0-1-1A1,1,0,0,0,55,46Zm0,13a1,1,0,1,0-1-1A1,1,0,0,0,55,59Zm0,13a1,1,0,1,0-1-1A1,1,0,0,0,55,72Zm0,13a1,1,0,1,0-1-1A1,1,0,0,0,55,85Zm47.291-8.035-5.8,25.147A.5.5,0,0,1,96,102.5l-.046,0-11-1a.5.5,0,0,1-.453-.537L87.5,62.043A50.672,50.672,0,0,0,82,48.967V103.5a.5.5,0,0,1-.5.5c-3.478,0-6.112,1.154-9.162,2.49C68.581,108.136,64.323,110,57.5,110h-5c-6.823,0-11.081-1.865-14.838-3.51-3.05-1.336-5.685-2.49-9.162-2.49a.5.5,0,0,1-.5-.5V48.967a50.672,50.672,0,0,0-5.5,13.076L25.5,100.962a.5.5,0,0,1-.453.537l-11,1-.046,0a.5.5,0,0,1-.487-.388l-5.8-25.147a54.216,54.216,0,0,1,1.56-29.88,161.833,161.833,0,0,1,13.3-29.338.465.465,0,0,1,.04-.045.483.483,0,0,1,.061-.068.475.475,0,0,1,.1-.065.481.481,0,0,1,.04-.028l18.719-7.9a5.168,5.168,0,0,1,.355-1.117l2.646-5.733a.465.465,0,0,1,.028-.04.474.474,0,0,1,.044-.063.489.489,0,0,1,.085-.081c.012-.009.019-.022.032-.03s.03-.015.044-.024l.007,0C46.873,1.248,50.588.5,54.979.5c4.36,0,8.05.738,10.166,2.022a.492.492,0,0,1,.328.268L68.12,8.524a5.168,5.168,0,0,1,.355,1.117l18.719,7.9a.49.49,0,0,1,.044.03.477.477,0,0,1,.089.062.484.484,0,0,1,.064.072.472.472,0,0,1,.039.044,161.823,161.823,0,0,1,13.3,29.339A54.214,54.214,0,0,1,102.291,76.966ZM67.542,14.338,84.69,21.9c.52-1.3,1.067-2.506,1.626-3.646L68.6,10.778A7.308,7.308,0,0,1,67.542,14.338Zm-9.389-3.472,3.59,10.267c1.7-2.4,3.371-4.818,4.607-6.748,0-.008,0-.016.005-.024a.5.5,0,0,1,.115-.163,5.508,5.508,0,0,0,.741-5.255L65.28,4.758C64.525,7.186,62.032,9.343,58.153,10.866ZM57,15.991H53V109h4Zm1.542-.981L57.141,11H52.859l-1.4,4.009h1a.119.119,0,0,1,.092,0h4.906a.125.125,0,0,1,.1,0ZM52.5,10h5a.472.472,0,0,1,.071.014,17.163,17.163,0,0,0,3.977-2.077,19.684,19.684,0,0,0-13.109-.01,17.138,17.138,0,0,0,3.99,2.086A.472.472,0,0,1,52.5,10ZM45.486,3.294a5.564,5.564,0,0,0,2.048,3.9,20.793,20.793,0,0,1,14.921.01,5.583,5.583,0,0,0,2.058-3.884C62.533,2.163,59.089,1.5,54.979,1.5,50.9,1.5,47.473,2.155,45.486,3.294ZM43.529,14.2a.5.5,0,0,1,.116.163c0,.008,0,.016.005.024,1.237,1.93,2.912,4.343,4.607,6.748l3.59-10.267c-3.879-1.523-6.372-3.68-7.127-6.108L42.788,8.943A5.507,5.507,0,0,0,43.529,14.2ZM23.684,18.255C24.243,19.4,24.791,20.6,25.31,21.9l17.148-7.563A7.308,7.308,0,0,1,41.4,10.778ZM23.937,93.7,12.888,94.96l1.5,6.5,10.075-.916ZM28,44.5c0-10.1-1.462-16.616-3.381-21.626-.024-.031-.06-.051-.076-.089a.493.493,0,0,1-.04-.207c-.49-1.252-1.007-2.411-1.536-3.509A161.744,161.744,0,0,0,10.215,47.411a53.215,53.215,0,0,0-1.531,29.33l3.978,17.238,11.2-1.28L21.5,62.04a.51.51,0,0,1,.013-.159,52.322,52.322,0,0,1,6.437-14.771A.47.47,0,0,1,28,47.059Zm10.063,61.074A32.77,32.77,0,0,0,52,109V15.991h-.886l-2.234,6.388a.5.5,0,0,1-.4.33.473.473,0,0,1-.069,0A.5.5,0,0,1,48,22.5c-1.807-2.555-3.647-5.188-5.016-7.3l-17.31,7.635C27.571,27.893,29,34.457,29,44.5v58.508C32.448,103.115,35.179,104.312,38.063,105.575ZM84.326,22.833,67.016,15.2c-1.369,2.115-3.21,4.748-5.016,7.3a.5.5,0,0,1-.408.211.473.473,0,0,1-.069,0,.5.5,0,0,1-.4-.33l-2.234-6.388H58V109a32.77,32.77,0,0,0,13.937-3.423c2.884-1.263,5.615-2.459,9.063-2.566V44.5C81,34.457,82.429,27.893,84.326,22.833ZM97.112,94.96,86.063,93.7l-.527,6.851,10.075.916Zm2.673-47.548A161.729,161.729,0,0,0,87.034,19.07c-.529,1.1-1.046,2.257-1.536,3.509a.493.493,0,0,1-.04.207c-.017.038-.052.058-.077.089C83.462,27.885,82,34.4,82,44.5v2.558a.471.471,0,0,1,.048.051,52.322,52.322,0,0,1,6.437,14.771.51.51,0,0,1,.013.159L86.14,92.7l11.2,1.28,3.978-17.238A53.213,53.213,0,0,0,99.785,47.412Z"/></g></g></svg>