<svg id="Силуэт" xmlns="http://www.w3.org/2000/svg" width="110" height="110" viewBox="0 0 110 110"><defs><style>.cls-1{fill:#fff;}.cls-2{fill:#af9c94;}</style></defs><title>Силуэт - Slim fit</title><g id="Slim_fit" data-name="Slim fit"><g id="Цвет-3" data-name="Цвет"><path class="cls-1" d="M57.583,109.5c12.167,0,15.688-6,22.854-6-2.372-18.726-2.879-37.4-.312-56C83.437,50.438,86.781,56.681,88,62l-3,39,11,1,6-26a53.12,53.12,0,0,0-3-32A154.762,154.762,0,0,0,87,18L68.167,10.083,68.083,9.5,65,3A22.358,22.358,0,0,0,55,1,22.358,22.358,0,0,0,45,3L42.083,9.5l-.167.5L23,18A154.762,154.762,0,0,0,11,44,53.12,53.12,0,0,0,8,76l6,26,11-1L22,62c1.417-5.25,4.437-11.75,7.812-14.625,2.555,16.916,2.175,35.826-.25,56.125,6,0,11.938,6.083,22.771,6.083Z"/><path class="cls-2" d="M57.667,109.584c10.833,0,16.771-6.083,22.771-6.083-2.425-20.3-2.688-39.584-.25-56.125C81.7,37.124,82.917,27.25,87,18L68.083,10C69,12.5,65,17,61.75,22l-2.5-6.5h-8.5L48.375,22c-3.25-4.5-7.375-9.625-6.458-12L23,18c4.083,9.249,5.3,19.124,6.812,29.375,2.438,16.541,2.175,35.826-.25,56.125,6,0,11.938,6.083,22.771,6.083Z"/><path class="cls-1" d="M39.913,13.562c.986,2.463,3.021,5.238,5.238,8.261.4.552.808,1.1,1.2,1.641l2.758,3.819,1.617-4.425L52.5,18h5.035l1.884,4.9,1.759,4.573,2.67-4.108c.751-1.156,1.553-2.3,2.328-3.4a36.55,36.55,0,0,0,3.93-6.392l13.634,5.767c-3.179,8.143-4.4,16.549-5.692,25.4l-.332,2.274c-2.3,15.641-2.319,33.9-.046,54.3a34.7,34.7,0,0,0-6.259,2.269c-3.774,1.64-8.052,3.5-13.743,3.5H52.333c-5.691,0-9.969-1.859-13.743-3.5a34.7,34.7,0,0,0-6.259-2.269c2.274-20.4,2.259-38.664-.046-54.3l-.332-2.274c-1.289-8.853-2.514-17.258-5.692-25.4l13.652-5.774M68.083,10C69,12.5,65,17,61.75,22l-2.5-6.5h-8.5L48.375,22c-3.25-4.5-7.375-9.625-6.458-12L23,18c4.083,9.249,5.3,19.124,6.813,29.375,2.438,16.541,2.175,35.826-.25,56.125,6,0,11.938,6.083,22.771,6.083h5.333c10.833,0,16.771-6.083,22.771-6.083-2.425-20.3-2.687-39.584-.25-56.125C81.7,37.124,82.917,27.25,87,18L68.083,10Z"/></g><g id="Контур-3" data-name="Контур"><path d="M56,13a1,1,0,1,1-1-1A1,1,0,0,1,56,13Zm-1,5a1,1,0,1,0,1,1A1,1,0,0,0,55,18Zm0,13a1,1,0,1,0,1,1A1,1,0,0,0,55,31Zm0,13a1,1,0,1,0,1,1A1,1,0,0,0,55,44Zm0,13a1,1,0,1,0,1,1A1,1,0,0,0,55,57Zm0,13a1,1,0,1,0,1,1A1,1,0,0,0,55,70Zm0,13a1,1,0,1,0,1,1A1,1,0,0,0,55,83Zm47.291-6.035-5.8,25.147A.5.5,0,0,1,96,102.5l-.046,0-11-1a.5.5,0,0,1-.453-.537L87.5,62.035a32.385,32.385,0,0,0-6.979-13.513l-.053.413a209.889,209.889,0,0,0,.532,54.5.5.5,0,0,1-.5.566c-2.818,0-5.164,1.073-7.879,2.315C68.844,108.042,64.563,110,57.5,110h-5c-7.063,0-11.344-1.958-15.121-3.686C34.664,105.073,32.318,104,29.5,104a.5.5,0,0,1-.5-.566,209.889,209.889,0,0,0,.532-54.5l-.053-.413A32.384,32.384,0,0,0,22.5,62.035L25.5,100.962a.5.5,0,0,1-.453.537l-11,1-.046,0a.5.5,0,0,1-.487-.388l-5.8-25.147a54.216,54.216,0,0,1,1.56-29.88,161.833,161.833,0,0,1,13.3-29.338.462.462,0,0,1,.041-.046.482.482,0,0,1,.063-.071.473.473,0,0,1,.089-.061.486.486,0,0,1,.043-.029l18.724-7.92a5.169,5.169,0,0,1,.35-1.1l2.646-5.733a.469.469,0,0,1,.028-.04.473.473,0,0,1,.129-.144c.012-.009.018-.022.031-.029s.029-.015.041-.022l.01-.005C46.874,1.248,50.589.5,54.979.5c4.36,0,8.049.738,10.166,2.022a.491.491,0,0,1,.329.268L68.12,8.524a5.17,5.17,0,0,1,.35,1.1L87.195,17.54a.486.486,0,0,1,.047.032.473.473,0,0,1,.083.056.481.481,0,0,1,.066.074.465.465,0,0,1,.039.044,161.823,161.823,0,0,1,13.3,29.339A54.214,54.214,0,0,1,102.291,76.966Zm-15.951-58.7-17.74-7.5a7.3,7.3,0,0,1-1.058,3.577l17.341,7.648Q85.549,20.107,86.339,18.264ZM65.28,4.758c-.755,2.428-3.248,4.585-7.127,6.108l3.59,10.267c1.7-2.4,3.371-4.818,4.607-6.748,0-.008,0-.016.005-.024a.5.5,0,0,1,.116-.163,5.507,5.507,0,0,0,.741-5.255ZM57,15.991H53V109h4Zm1.542-.981L57.141,11H52.859l-1.4,4.009h1a.119.119,0,0,1,.092,0h4.906a.125.125,0,0,1,.1,0Zm3.005-7.072a19.684,19.684,0,0,0-13.109-.01,17.138,17.138,0,0,0,3.99,2.086A.472.472,0,0,1,52.5,10h5a.472.472,0,0,1,.071.014A17.163,17.163,0,0,0,61.548,7.938ZM54.979,1.5c-4.083,0-7.507.654-9.493,1.793a5.564,5.564,0,0,0,2.048,3.9,20.793,20.793,0,0,1,14.921.01,5.583,5.583,0,0,0,2.058-3.884C62.533,2.163,59.089,1.5,54.979,1.5ZM42.788,8.943a5.507,5.507,0,0,0,.741,5.255.5.5,0,0,1,.116.163c0,.008,0,.016.005.024,1.237,1.93,2.912,4.343,4.607,6.748l3.59-10.267c-3.879-1.523-6.372-3.68-7.127-6.108ZM23.661,18.265q.793,1.841,1.457,3.721l17.341-7.648A7.3,7.3,0,0,1,41.4,10.761Zm.8,82.283L23.937,93.7,12.888,94.96l1.5,6.5Zm4.853-53.316c-1.225-9.468-2.628-19.167-6.384-28.1A161.8,161.8,0,0,0,10.215,47.411a53.215,53.215,0,0,0-1.531,29.33l3.978,17.238,11.2-1.28L21.5,62.04a.486.486,0,0,1,.01-.143A32.692,32.692,0,0,1,29.316,47.232Zm8.479,58.174A31.986,31.986,0,0,0,52,109V15.991h-.886l-2.234,6.388a.5.5,0,0,1-.4.33.473.473,0,0,1-.069,0A.5.5,0,0,1,48,22.5c-1.807-2.555-3.647-5.188-5.016-7.3L25.439,22.937c2.834,8.392,3.981,17.253,5.089,25.871a210.586,210.586,0,0,1-.459,54.206C32.846,103.142,35.152,104.2,37.795,105.406Zm41.677-56.6c1.108-8.619,2.254-17.479,5.089-25.871L67.016,15.2c-1.369,2.115-3.21,4.748-5.016,7.3a.5.5,0,0,1-.408.211.473.473,0,0,1-.069,0,.5.5,0,0,1-.4-.33l-2.234-6.388H58V109a31.986,31.986,0,0,0,14.205-3.592c2.643-1.209,4.949-2.264,7.726-2.392A210.586,210.586,0,0,1,79.472,48.808ZM97.112,94.96,86.063,93.7l-.527,6.851,10.075.916Zm2.673-47.548A161.795,161.795,0,0,0,87.068,19.129c-3.756,8.936-5.159,18.634-6.384,28.1A32.692,32.692,0,0,1,88.489,61.9a.486.486,0,0,1,.01.143L86.14,92.7l11.2,1.28,3.978-17.238A53.213,53.213,0,0,0,99.785,47.412Z"/></g></g></svg>