<svg width="10" height="10" viewBox="0 0 10 10" fill="none" xmlns="http://www.w3.org/2000/svg">
<path fill-rule="evenodd" clip-rule="evenodd" d="M5 10C2.29167 10 0 7.70833 0 5C0 2.29167 2.29167 0 5 0C7.70833 0 10 2.29167 10 5C10 7.70833 7.70833 10 5 10ZM5 1.04167C2.70833 1.04167 1.04167 2.91667 1.04167 5C1.04167 7.08333 2.91667 8.95833 5 8.95833C7.29167 8.95833 8.95833 7.08333 8.95833 5C8.95833 2.91667 7.29167 1.04167 5 1.04167ZM7.29167 5.41667H4.58333V2.5C4.58333 2.29167 4.79167 2.08333 5 2.08333C5.20833 2.08333 5.41667 2.29167 5.41667 2.5V4.58333H7.29167C7.5 4.58333 7.70833 4.79167 7.70833 5C7.70833 5.20833 7.5 5.41667 7.29167 5.41667Z" fill="#E46537"/>
</svg>
