<svg width="40" height="43" viewBox="0 0 40 43" fill="none" xmlns="http://www.w3.org/2000/svg">
<path d="M39.9971 21.1436H33.2263V23.229C33.2263 23.229 34.5596 23.229 35.4222 23.229C36.0235 23.229 36.3372 23.7041 36.3372 24.0473C36.3372 25.2879 36.3372 26.6869 36.3372 26.6869C36.3372 28.3499 35.0562 29.4058 33.723 29.4058C32.0499 29.4058 31.2395 27.8748 31.2395 26.7133V18.0289C31.2395 16.6826 32.2329 14.9669 34.272 14.9669C35.3699 14.9669 36.7555 15.574 37.1737 17.0522H39.3958C38.7161 14.7029 36.3895 12.9343 33.4877 12.9343C29.854 12.9343 27.1614 15.9435 27.1614 19.2959V25.1823C27.1614 27.4788 29.0175 31.4647 33.8276 31.4647C34.5073 31.4647 35.2131 31.3063 35.8928 31.016C35.004 32.4678 33.8799 33.7876 32.5989 34.8699C32.4943 34.2891 32.1806 33.682 31.7624 33.2333C30.5598 31.9662 28.0764 31.7551 25.9327 33.682C23.9982 35.4242 20.3645 34.6587 19.1358 33.4444C19.5541 37.3775 21.3841 36.6912 22.848 36.5064C23.0048 37.7207 24.2074 38.143 25.0439 37.9319C25.2008 34.5531 29.4619 31.6495 30.586 34.4475C31.0043 35.5034 29.9586 36.5328 29.2789 37.0344C27.083 38.143 24.6256 38.7502 22.0376 38.7502C20.9135 38.7502 19.8417 38.6446 18.7699 38.407C17.8026 37.9319 17.0968 37.1928 16.8354 36.0841C16.1295 32.8901 17.9333 31.1743 20.2599 31.4119C19.3973 32.3094 20.3384 33.4708 21.1749 33.3917C22.0115 33.3125 23.2663 33.3389 24.0767 34.0252C23.58 32.4942 21.5409 29.8281 18.1425 30.5936C15.476 31.2007 14.5349 32.9693 14.2996 34.2627C14.0905 35.345 14.378 36.2425 14.7702 37.0344C12.1298 35.7146 9.88163 33.682 8.28697 31.1743C9.88163 28.2179 11.241 23.7569 10.7966 20.5101C10.326 17.105 9.22808 14.8877 8.28697 13.4095C10.692 9.63475 14.5872 6.9159 19.1358 6.09761C20.2077 6.20319 21.1749 6.62554 21.8807 7.49662C22.8741 8.73726 22.6127 10.849 20.3384 11.4561C20.8351 10.3211 19.528 9.55556 18.796 9.92511C18.0379 10.2947 16.8615 10.717 15.8681 10.3738C16.8615 11.6409 19.5541 13.1719 22.6127 11.4825C24.4688 10.453 25.0439 9.02762 24.8086 7.73419C24.6779 6.9423 24.3642 6.38797 23.9721 5.99202C25.3838 6.1768 26.7693 6.51995 28.0502 7.04788C27.5274 7.7078 27.449 8.4733 27.8934 9.2124C28.3116 9.92511 28.6776 11.113 28.1548 11.9049C29.4357 12.0368 30.6121 11.3241 31.0043 10.0307C32.2329 11.7993 34.5334 11.4033 36.1542 9.92511C34.0367 10.2947 32.7035 7.44383 29.9324 5.93923C28.3378 5.06814 25.4099 4.22345 22.8741 4.11786C23.5538 2.74524 23.1617 1.31983 22.3513 0C22.0376 1.24064 21.3579 2.71885 19.7633 3.77471C19.1881 4.17066 18.796 4.35543 18.4562 4.46102C18.0379 4.54021 17.6196 4.6458 17.2275 4.75138C17.0184 4.80417 16.7569 4.88336 16.4432 4.98895C12.6527 6.22959 9.41107 8.68447 7.16287 11.9312C7.03216 11.7729 6.9276 11.6409 6.84917 11.5089C6.16948 10.5058 6.50933 8.23573 9.51564 7.07428C7.52886 6.46716 4.15656 7.17987 3.73829 10.6114C3.32002 14.0166 7.08445 15.4948 8.49611 20.1934C9.67249 24.1001 8.28697 27.822 7.37201 29.6433C6.45704 27.7692 5.85578 25.4727 5.72507 23.4929C5.59436 21.5132 5.22837 19.9558 6.58775 16.8674C4.44412 17.2106 2.66647 18.7416 3.24159 20.8269C2.01292 20.3254 0.731972 20.7741 0 21.8828C0.941107 21.9355 1.6208 22.965 1.90836 23.7569C2.2482 24.7072 3.26773 25.5255 4.13042 24.9711C4.47026 27.3468 5.28066 29.5905 6.4309 31.5703C4.52254 39.806 11.0842 39.542 14.5872 39.0405C13.5153 40.0964 13.4108 41.5218 13.6983 43C14.4303 41.9441 15.5806 40.8091 17.4366 40.3867C17.9072 40.2812 18.2732 40.2284 18.5607 40.202C19.6587 40.4131 20.8089 40.5451 21.9853 40.5451C30.3246 40.5451 37.4613 34.8963 39.4219 27.0565C40.0755 24.3376 39.9971 22.2787 39.9971 21.1436ZM9.12351 36.876C8.02555 35.9257 7.71185 34.3683 7.60728 33.3389C9.04509 35.2658 10.875 36.876 12.9664 38.0902C11.5286 38.0374 10.143 37.7735 9.12351 36.876Z" fill="white"/>
<path d="M12.2605 3.58993V4.0278e-07H8.1824V3.0884C8.1824 5.04174 7.11059 5.75445 5.8035 6.41436L4.07813 7.31185V4.0278e-07H1.99447e-07V20.035C0.83654 18.3456 2.30048 17.0258 4.07813 16.3923V9.55556L5.8035 10.453C7.11059 11.113 8.1824 11.8257 8.1824 13.7526V16.1811C9.82934 16.577 11.2671 17.5537 12.2344 18.8735V13.2775C12.2344 11.7729 11.241 11.1393 9.72478 10.3738L5.88192 8.4469L9.72478 6.49355C11.241 5.72805 12.2605 5.09454 12.2605 3.58993Z" transform="translate(12.6003 12.9079)" fill="white"/>
</svg>
