<svg width="169" height="182" viewBox="0 0 169 182" fill="none" xmlns="http://www.w3.org/2000/svg">
<path d="M168.988 89.4917H140.381V98.318C140.381 98.318 146.014 98.318 149.659 98.318C152.199 98.318 153.525 100.329 153.525 101.781C153.525 107.033 153.525 112.954 153.525 112.954C153.525 119.993 148.113 124.462 142.48 124.462C135.411 124.462 131.987 117.982 131.987 113.066V76.3082C131.987 70.6102 136.184 63.3481 144.799 63.3481C149.438 63.3481 155.292 65.9177 157.059 72.1743H166.447C163.576 62.2308 153.746 54.7452 141.486 54.7452C126.133 54.7452 114.757 67.4819 114.757 81.671V106.586C114.757 116.306 122.599 133.176 142.922 133.176C145.793 133.176 148.775 132.506 151.647 131.277C147.892 137.422 143.142 143.008 137.73 147.589C137.289 145.131 135.963 142.561 134.196 140.662C129.115 135.299 118.623 134.405 109.566 142.561C101.393 149.935 86.0401 146.695 80.849 141.556C82.6161 158.203 90.3476 155.298 96.5328 154.516C97.1955 159.655 102.276 161.443 105.811 160.549C106.473 146.248 124.476 133.958 129.226 145.801C130.993 150.27 126.575 154.627 123.703 156.75C114.426 161.443 104.043 164.012 93.1088 164.012C88.3595 164.012 83.8311 163.565 79.3027 162.56C75.216 160.549 72.2339 157.421 71.1294 152.728C68.1473 139.209 75.7683 131.947 85.5983 132.953C81.9535 136.751 85.9296 141.667 89.464 141.332C92.9984 140.997 98.3 141.109 101.724 144.014C99.6254 137.533 91.0103 126.249 76.6519 129.489C65.386 132.059 61.4099 139.545 60.4158 145.019C59.5322 149.6 60.7472 153.398 62.4039 156.75C51.2485 151.164 41.7499 142.561 35.0125 131.947C41.7499 119.434 47.4932 100.552 45.6156 86.8103C43.6275 72.3978 38.9886 63.0129 35.0125 56.7563C45.1738 40.7796 61.6308 29.2719 80.849 25.8085C85.3774 26.2554 89.464 28.043 92.4461 31.7299C96.6432 36.981 95.5387 45.919 85.9296 48.4886C88.0282 43.6845 82.5057 40.4444 79.4131 42.0086C76.2101 43.5727 71.2399 45.3603 67.0428 43.9079C71.2399 49.2707 82.6161 55.7508 95.5387 48.6004C103.381 44.2431 105.811 38.2099 104.816 32.7354C104.264 29.3837 102.939 27.0374 101.282 25.3616C107.246 26.1436 113.1 27.5961 118.512 29.8306C116.303 32.6237 115.972 35.8637 117.85 38.992C119.617 42.0086 121.163 47.0362 118.954 50.388C124.366 50.9466 129.336 47.93 130.993 42.4555C136.184 49.9411 145.904 48.2652 152.752 42.0086C143.805 43.5727 138.172 31.5064 126.465 25.1381C119.727 21.4512 107.357 17.876 96.6432 17.4291C99.5149 11.6194 97.8582 5.58625 94.4342 0C93.1088 5.25107 90.2372 11.5077 83.4997 15.9767C81.0699 17.6525 79.4131 18.4346 77.9773 18.8815C76.2101 19.2167 74.4429 19.6636 72.7862 20.1105C71.9026 20.3339 70.7981 20.6691 69.4727 21.116C53.4575 26.3671 39.7618 36.7575 30.2631 50.4997C29.7109 49.8293 29.2691 49.2707 28.9377 48.7121C26.0661 44.4665 27.5019 34.8582 40.2036 29.9423C31.8094 27.3726 17.5615 30.3892 15.7943 44.9134C14.0271 59.326 29.9318 65.5826 35.8961 85.4696C40.8663 102.005 35.0125 117.758 31.1467 125.467C27.281 117.535 24.7407 107.815 24.1884 99.4352C23.6362 91.0559 22.0899 84.4641 27.8333 71.3923C18.7764 72.8447 11.2658 79.3247 13.6957 88.151C8.5046 86.0282 3.09258 87.9276 0 92.62C3.97618 92.8435 6.84786 97.2007 8.06281 100.552C9.49865 104.575 13.8062 108.038 17.451 105.692C18.8868 115.747 22.3108 125.244 27.1706 133.623C19.1077 168.481 46.8305 167.364 61.6308 165.241C57.1023 169.71 56.6605 175.743 57.8755 182C60.9681 177.531 65.8278 172.727 73.6697 170.939C75.6578 170.492 77.2041 170.269 78.4191 170.157C83.0579 171.051 87.9177 171.61 92.8879 171.61C128.121 171.61 158.274 147.7 166.558 114.518C169.319 103.01 168.988 94.2959 168.988 89.4917ZM38.5468 156.08C33.908 152.058 32.5826 145.466 32.1408 141.109C38.2155 149.265 45.9469 156.08 54.7829 161.219C48.7082 160.996 42.8544 159.878 38.5468 156.08Z" fill="#D6D6D6"/>
<path d="M51.8008 15.1946V1.70479e-06H34.5707V13.0718C34.5707 21.3395 30.0422 24.356 24.5198 27.1492L17.2301 30.9478V1.70479e-06H8.42662e-07V84.7993C3.53438 77.6489 9.71955 72.0626 17.2301 69.3812V40.4444L24.5198 44.2431C30.0422 47.0362 34.5707 50.0528 34.5707 58.2087V68.4874C41.529 70.1633 47.6037 74.2971 51.6903 79.8834V56.1977C51.6903 49.8293 47.4932 47.1479 41.0872 43.9079L24.8511 35.752L41.0872 27.4843C47.4932 24.2443 51.8008 21.5629 51.8008 15.1946Z" transform="translate(53.2365 54.6331)" fill="#D6D6D6"/>
</svg>
