<svg width="10" height="10" viewBox="0 0 10 10" fill="none" xmlns="http://www.w3.org/2000/svg">
<path d="M9.6574 4.31178L8.37559 3.37118C8.26663 3.29366 8.13672 3.25257 8.00385 3.2536C7.89786 3.25848 7.79463 3.28957 7.70307 3.34419C7.61151 3.39882 7.53436 3.47533 7.4783 3.56714L5.95295 6.17992C5.82049 6.40925 5.63378 6.60112 5.40988 6.73804C5.18598 6.87495 4.93202 6.95255 4.67114 6.96375C4.33222 6.96414 4.00265 6.85043 3.73366 6.64029C3.46467 6.43015 3.27131 6.13535 3.18362 5.8017C3.09593 5.46804 3.11882 5.11421 3.24873 4.79517C3.37865 4.47613 3.60831 4.20976 3.90204 4.03744L6.46567 2.48283C6.55731 2.42747 6.63364 2.34926 6.68745 2.25556C6.74127 2.16186 6.77082 2.05575 6.77332 1.94721C6.7761 1.81153 6.7356 1.67859 6.65794 1.56836L5.73505 0.261966C5.67601 0.184257 5.6002 0.121447 5.5135 0.078403C5.42681 0.0353588 5.33155 0.013237 5.23512 0.013752C5.15926 -0.00458399 5.08026 -0.00458399 5.0044 0.013752L2.81249 0.967417C2.11693 1.26813 1.50447 1.7383 1.02889 2.33665C0.553299 2.93499 0.229145 3.6432 0.0848921 4.39907C-0.0593612 5.15494 -0.0192978 5.93535 0.201561 6.67175C0.422421 7.40816 0.817315 8.07802 1.35157 8.62252C1.88583 9.16702 2.54308 9.56949 3.26563 9.79458C3.98818 10.0197 4.75392 10.0605 5.49557 9.91349C6.23722 9.76647 6.93211 9.4361 7.5192 8.95139C8.10629 8.46669 8.56761 7.84248 8.86267 7.13358L9.7984 4.89965C9.81748 4.81806 9.81748 4.73304 9.7984 4.65144C9.78667 4.52617 9.73745 4.4076 9.6574 4.31178ZM8.15768 4.31178L8.91395 4.88659L8.50376 5.84026L7.7603 5.08255L7.63213 5.22625L8.15768 4.31178ZM5.19667 1.12418L5.76067 1.89496L5.03005 2.32606L4.26095 1.54223L5.19667 1.12418ZM4.67114 9.263C3.81988 9.26367 2.99454 8.96448 2.3349 8.4161C1.67525 7.86773 1.22182 7.10386 1.0514 6.25384C0.880974 5.40382 1.00402 4.5199 1.3997 3.75174C1.79539 2.98358 2.4394 2.3784 3.22268 2.03866H3.33804L4.20968 2.927L3.44059 3.38424C3.08966 3.56582 2.78657 3.83052 2.55675 4.15614C2.32694 4.48176 2.1771 4.85881 2.11981 5.25565C2.06251 5.65248 2.09944 6.05754 2.22748 6.43683C2.35552 6.81611 2.57094 7.15858 2.85567 7.43548C3.14041 7.71238 3.48616 7.91565 3.8639 8.02824C4.24164 8.14082 4.64038 8.15943 5.02664 8.08251C5.4129 8.00559 5.77542 7.83538 6.0838 7.58617C6.39218 7.33695 6.63742 7.01599 6.79894 6.65022L7.24758 5.86638L8.11921 6.75473V6.8723C7.84492 7.57651 7.36976 8.18071 6.75511 8.60688C6.14045 9.03304 5.41454 9.26159 4.67114 9.263Z" fill="#DB6338"/>
</svg>
