<svg width="12" height="10" viewBox="0 0 12 10" fill="none" xmlns="http://www.w3.org/2000/svg">
<path d="M8.49106 1.79487V0.721154C8.49106 0.529892 8.41652 0.346464 8.28382 0.211221C8.15112 0.0759785 7.97114 4.58497e-08 7.78347 4.58497e-08H3.53794C3.35027 4.58497e-08 3.17031 0.0759785 3.03761 0.211221C2.90491 0.346464 2.83035 0.529892 2.83035 0.721154V1.79487H0.707591C0.52262 1.79483 0.344987 1.8686 0.212731 2.0004C0.0804753 2.13219 0.00410567 2.31153 -4.79864e-06 2.5V9.27885C-4.79864e-06 9.47011 0.0745499 9.65354 0.207248 9.78878C0.339947 9.92402 0.519927 10 0.707591 10H10.6924C10.8801 10 11.0601 9.92402 11.1928 9.78878C11.3255 9.65354 11.4 9.47011 11.4 9.27885V2.5C11.3959 2.31153 11.3196 2.13219 11.1873 2.0004C11.0551 1.8686 10.8774 1.79483 10.6924 1.79487H8.49106ZM3.88387 1.07372H7.42181V1.79487H3.88387V1.07372ZM10.1735 2.86859V5H6.71423V4.64744H4.59147V5H1.05352V2.86859H10.1735ZM1.05352 8.92628V6.07372H4.59147V6.42628H6.71423V6.07372H10.2522V8.92628H1.05352Z" fill="#DB6338"/>
</svg>
