<svg width="10" height="10" viewBox="0 0 10 10" fill="none" xmlns="http://www.w3.org/2000/svg">
<path d="M0.646921 10C0.45986 10 0.335152 9.9375 0.210444 9.8125C0.0233827 9.6875 -0.0389712 9.4375 0.0233827 9.25L0.522214 7.25C0.210444 6.5625 0.0233827 5.75 0.0233827 5C0.0233827 2.25 2.26812 0 5.01169 0C7.75526 0 10 2.25 10 5C10 7.75 7.75526 10 5.01169 10C4.26345 10 3.45284 9.8125 2.76695 9.5L0.771629 10C0.771629 10 0.709275 10 0.646921 10ZM2.89166 8.1875C3.01637 8.1875 3.07872 8.1875 3.20343 8.25C3.76461 8.5625 4.38815 8.75 5.01169 8.75C7.06937 8.75 8.75292 7.0625 8.75292 5C8.75292 2.9375 7.06937 1.25 5.01169 1.25C2.95401 1.25 1.27046 2.9375 1.27046 5C1.27046 5.625 1.45752 6.25 1.76929 6.8125C1.83164 6.9375 1.894 7.125 1.83164 7.25L1.51988 8.5L2.76695 8.1875C2.76695 8.1875 2.82931 8.1875 2.89166 8.1875Z" fill="#DB6338"/>
</svg>
