<svg width="10" height="10" viewBox="0 0 10 10" fill="none" xmlns="http://www.w3.org/2000/svg">
<path fill-rule="evenodd" clip-rule="evenodd" d="M4.8648 9.99998C3.89627 9.99168 2.95183 9.6914 2.15048 9.13697C1.34913 8.58253 0.726736 7.79876 0.361724 6.88441C-0.00328712 5.97007 -0.09458 4.96607 0.0993501 3.99893C0.29328 3.0318 0.763755 2.14481 1.45149 1.44973C2.13922 0.754653 3.01344 0.282597 3.96397 0.0930489C4.9145 -0.0964991 5.89882 0.00494225 6.79287 0.38459C7.68693 0.764237 8.45073 1.4051 8.98801 2.22643C9.52529 3.04775 9.81201 4.01278 9.81204 4.9999C9.80477 6.331 9.2799 7.60485 8.3525 8.54215C7.42511 9.47945 6.17087 10.0037 4.8648 9.99998ZM4.8648 0.952221C3.80527 0.948466 2.78729 1.37194 2.03295 2.13024C1.27862 2.88854 0.849165 3.92012 0.838286 4.9999C0.838286 6.08827 1.26251 7.13207 2.01762 7.90166C2.77274 8.67125 3.7969 9.10361 4.8648 9.10361C5.93269 9.10361 6.95685 8.67125 7.71197 7.90166C8.46709 7.13207 8.89131 6.08827 8.89131 4.9999C8.88043 3.92012 8.45097 2.88854 7.69664 2.13024C6.9423 1.37194 5.92432 0.948466 4.8648 0.952221ZM6.34897 5.4621C6.2727 5.70718 6.13899 5.92964 5.95941 6.11023C5.77982 6.29082 5.55977 6.42409 5.31829 6.49853L3.10577 7.1708H3.00958C2.96769 7.17671 2.92506 7.17359 2.88443 7.16166C2.8438 7.14972 2.80607 7.12924 2.7737 7.10152C2.74132 7.0738 2.71501 7.03947 2.69646 7.00074C2.67791 6.96201 2.66754 6.91975 2.66602 6.87668V6.79265L3.33939 4.55172C3.41566 4.30663 3.54937 4.08417 3.72896 3.90358C3.90854 3.723 4.12859 3.58972 4.37007 3.51529L6.58259 2.829H6.78873C6.87255 2.829 6.95295 2.86294 7.01222 2.92335C7.0715 2.98376 7.1048 3.0657 7.1048 3.15113C7.1048 3.15113 7.1048 3.15113 7.1048 3.23517L6.34897 5.4621ZM4.8648 4.38365C4.74191 4.38368 4.62182 4.42102 4.51984 4.49092C4.41787 4.56081 4.33864 4.66008 4.29227 4.77606C4.24589 4.89205 4.23447 5.01948 4.25947 5.14211C4.28447 5.26473 4.34474 5.37699 4.43261 5.46455C4.52048 5.55211 4.63195 5.61101 4.7528 5.63372C4.87365 5.65643 4.9984 5.64194 5.11113 5.59208C5.22386 5.54222 5.31946 5.45926 5.38573 5.35379C5.452 5.24832 5.48593 5.12512 5.4832 4.9999C5.47961 4.83519 5.41287 4.67845 5.29729 4.56327C5.1817 4.44808 5.02645 4.38361 4.8648 4.38365Z" fill="#DB6338"/>
</svg>
