<svg width="10" height="10" viewBox="0 0 10 10" fill="none" xmlns="http://www.w3.org/2000/svg">
<path d="M7.27419 10C7.01682 10.0004 6.76115 9.95775 6.51732 9.87377C5.02105 9.33873 3.66499 8.4613 2.55332 7.30887C1.44165 6.15643 0.603934 4.75965 0.104504 3.22581C-0.0379184 2.77012 -0.0346898 2.28011 0.113701 1.82641C0.262091 1.3727 0.547989 0.978727 0.930196 0.701267L1.41185 0.322585C1.6702 0.123537 1.98265 0.0108553 2.30634 5.1121e-06C2.59085 -0.000733323 2.86999 0.0788035 3.11288 0.229806C3.35577 0.380809 3.55292 0.597384 3.68248 0.855544L4.50817 2.46845C4.58026 2.62666 4.6178 2.79892 4.61824 2.97336C4.61904 3.24295 4.52089 3.5031 4.34304 3.70267L4.16414 3.89902C4.08095 3.99002 4.02816 4.10552 4.01333 4.22897C3.99849 4.35242 4.02238 4.47749 4.08157 4.58626C4.3597 5.13806 4.80316 5.58514 5.3476 5.86255C5.45536 5.91886 5.57722 5.94094 5.69743 5.92594C5.81763 5.91094 5.93068 5.85954 6.02193 5.7784L6.21457 5.59607C6.38137 5.45124 6.58553 5.35836 6.80269 5.32852C7.01985 5.29868 7.24088 5.33313 7.43936 5.42777L9.04942 6.26929C9.30476 6.39873 9.51905 6.59906 9.66756 6.8472C9.81608 7.09533 9.8928 7.38118 9.88889 7.67181C9.88466 8.08042 9.72707 8.47187 9.44851 8.76578L8.88429 9.32679C8.45411 9.75636 7.87643 9.99789 7.27419 10ZM2.30634 0.981772C2.16796 0.980752 2.0329 1.02499 1.92102 1.108L1.43936 1.48668C1.22339 1.65204 1.05996 1.87853 0.969421 2.1379C0.878878 2.39728 0.865234 2.67808 0.930196 2.9453C1.38874 4.33819 2.15244 5.60639 3.1634 6.65375C4.17436 7.7011 5.40602 8.5001 6.76502 8.99018C7.00281 9.06635 7.25645 9.07527 7.49882 9.01599C7.7412 8.9567 7.96319 8.83144 8.14116 8.65357L8.69165 8.09257C8.74859 8.03605 8.79375 7.96843 8.82448 7.89373C8.85522 7.81903 8.87087 7.73879 8.87051 7.65778C8.87102 7.54244 8.84051 7.42916 8.78228 7.33026C8.72405 7.23135 8.64035 7.1506 8.54025 7.09677L6.93015 6.26929C6.90633 6.25108 6.87736 6.24123 6.84758 6.24123C6.81781 6.24123 6.78884 6.25108 6.76502 6.26929L6.57238 6.45161C6.33781 6.6601 6.04768 6.79276 5.73892 6.83272C5.43016 6.87268 5.11669 6.81813 4.83843 6.67602C4.12064 6.31821 3.5363 5.7325 3.17331 5.00701C3.02737 4.72753 2.97017 4.40876 3.00961 4.09472C3.04905 3.78068 3.1832 3.48687 3.3935 3.25386L3.57241 3.05751C3.58289 3.02565 3.58289 2.99118 3.57241 2.95933L2.74671 1.3324C2.70541 1.24287 2.64401 1.16449 2.56751 1.10358C2.49102 1.04268 2.40157 1.00095 2.30634 0.981772Z" fill="#DB6338"/>
</svg>
