<svg width="10" height="10" viewBox="0 0 10 10" fill="none" xmlns="http://www.w3.org/2000/svg">
<path d="M6.8295 5.48154C7.19733 4.85916 7.3881 4.14479 7.38047 3.41827C7.45935 3.00247 7.44705 2.57403 7.34446 2.16364C7.24187 1.75325 7.05153 1.37105 6.78706 1.04441C6.52258 0.717757 6.19053 0.454741 5.81466 0.274185C5.43878 0.0936293 5.02838 -4.86562e-10 4.61285 -4.86563e-10C4.19731 -4.86563e-10 3.78691 0.0936293 3.41103 0.274185C3.03516 0.454741 2.70311 0.717757 2.43864 1.04441C2.17416 1.37105 1.98382 1.75325 1.88123 2.16364C1.77864 2.57403 1.76634 3.00247 1.84522 3.41827C1.83759 4.14479 2.02836 4.85916 2.39619 5.48154C1.69753 5.78912 1.10027 6.2948 0.675491 6.93839C0.250715 7.58198 0.0162983 8.33639 0.000133841 9.11187V9.37304C-0.00161398 9.45584 0.0131114 9.53815 0.0434006 9.615C0.0736899 9.69186 0.118925 9.76167 0.176388 9.82023C0.23385 9.8788 0.302337 9.9249 0.377746 9.95577C0.453154 9.98664 0.53393 10.0016 0.615175 9.99986H8.61052C8.77363 9.99986 8.93007 9.93382 9.04541 9.81627C9.16075 9.69872 9.22554 9.53928 9.22554 9.37304V9.11187C9.20938 8.33639 8.97496 7.58198 8.55018 6.93839C8.12541 6.2948 7.52816 5.78912 6.8295 5.48154ZM4.61285 0.910992C5.61227 0.910992 6.45793 2.06016 6.45793 3.41827C6.45793 4.77637 5.61227 5.92554 4.61285 5.92554C3.61343 5.92554 2.76776 4.77637 2.76776 3.41827C2.76776 2.06016 3.61343 0.910992 4.61285 0.910992ZM0.922676 9.11187C0.953024 8.48059 1.16994 7.87341 1.54495 7.37002C1.91996 6.86664 2.43554 6.49057 3.02402 6.29118C3.45833 6.69494 4.02499 6.91877 4.61285 6.91877C5.2007 6.91877 5.76736 6.69494 6.20167 6.29118C6.79972 6.48183 7.32634 6.85412 7.71105 7.35823C8.09575 7.86233 8.32017 8.47418 8.35426 9.11187H0.922676Z" fill="#DB6338"/>
</svg>
