<svg width="9" height="10" viewBox="0 0 9 10" fill="none" xmlns="http://www.w3.org/2000/svg">
<path d="M3.87792 8.6875C2.58528 8.6875 1.22801 8.1875 0.193896 7.25C-0.064632 7 -0.064632 6.625 0.193896 6.375C0.452424 6.125 0.840215 6.125 1.09874 6.375C2.58528 7.8125 5.04129 7.8125 6.59246 6.375C8.07899 4.9375 8.07899 2.5625 6.59246 1.0625C6.33393 0.8125 6.33393 0.4375 6.59246 0.1875C6.85099 -0.0625 7.23878 -0.0625 7.49731 0.1875C9.5009 2.125 9.5009 5.3125 7.49731 7.25C6.52783 8.25 5.23519 8.6875 3.87792 8.6875Z" fill="#DB6338"/>
<path d="M3.2316 6.25C1.4219 6.25 -1.54095e-08 4.875 -1.54095e-08 3.125C-1.54095e-08 1.375 1.4219 -1.49012e-08 3.2316 -1.49012e-08C5.04129 -1.49012e-08 6.4632 1.375 6.4632 3.125C6.4632 4.875 5.04129 6.25 3.2316 6.25ZM3.2316 1.3125C2.13285 1.3125 1.29264 2.125 1.29264 3.1875C1.29264 4.25 2.13285 5.0625 3.2316 5.0625C4.33034 5.0625 5.17056 4.25 5.17056 3.1875C5.17056 2.125 4.33034 1.3125 3.2316 1.3125Z" transform="translate(0.646317 0.5625)" fill="#DB6338"/>
<path d="M0.64632 2.5C0.258528 2.5 6.16378e-08 2.25 6.16378e-08 1.875V0.625C6.16378e-08 0.25 0.258528 0 0.64632 0C1.03411 0 1.29264 0.25 1.29264 0.625V1.875C1.29264 2.25 1.03411 2.5 0.64632 2.5Z" transform="translate(3.87791 7.5)" fill="#DB6338"/>
</svg>
