<svg width="13" height="10" viewBox="0 0 13 10" fill="none" xmlns="http://www.w3.org/2000/svg">
<path fill-rule="evenodd" clip-rule="evenodd" d="M11.4387 10H0.762582C0.563235 10.0001 0.371797 9.92054 0.229262 9.7785C0.0867275 9.63646 0.0044289 9.44319 -1.03432e-06 9.24007V0.777202C-1.03432e-06 0.571075 0.0803416 0.373391 0.223354 0.227637C0.366365 0.0818835 0.560333 -4.52954e-08 0.762582 -4.52954e-08H11.4387C11.641 -4.52954e-08 11.8349 0.0818835 11.978 0.227637C12.121 0.373391 12.2013 0.571075 12.2013 0.777202V9.24007C12.1969 9.44319 12.1146 9.63646 11.9721 9.7785C11.8295 9.92054 11.6381 10.0001 11.4387 10ZM11.049 1.15717H1.1354V5.45769L1.50822 5.6304C2.17131 6.00325 2.92034 6.18813 3.67734 6.1658C4.43478 6.19245 5.18492 6.0073 5.84646 5.6304C6.66979 5.2037 7.58354 4.99016 8.50703 5.00864C9.38698 4.98756 10.2589 5.18307 11.049 5.57858V1.15717ZM11.049 6.85665L10.6761 6.68394C10.0097 6.32173 9.262 6.14313 8.50703 6.1658C7.75253 6.14782 7.00599 6.32614 6.33791 6.68394C5.51629 7.11544 4.60134 7.32926 3.67734 7.3057C2.79739 7.32678 1.92543 7.13127 1.1354 6.73575V8.91192H11.049V6.85665ZM3.42315 4.23143C3.31464 4.24806 3.20389 4.24062 3.09846 4.20963C2.99303 4.17864 2.8954 4.12483 2.81225 4.05187C2.72909 3.9789 2.66237 3.88851 2.61662 3.78686C2.57088 3.68521 2.5472 3.5747 2.5472 3.46287C2.5472 3.35104 2.57088 3.24052 2.61662 3.13887C2.66237 3.03722 2.72909 2.94683 2.81225 2.87387C2.8954 2.80091 2.99303 2.74709 3.09846 2.7161C3.20389 2.68511 3.31464 2.67768 3.42315 2.6943C3.53165 2.67768 3.6424 2.68511 3.74783 2.7161C3.85326 2.74709 3.95089 2.80091 4.03405 2.87387C4.1172 2.94683 4.18393 3.03722 4.22967 3.13887C4.27541 3.24052 4.29909 3.35104 4.29909 3.46287C4.29909 3.5747 4.27541 3.68521 4.22967 3.78686C4.18393 3.88851 4.1172 3.9789 4.03405 4.05187C3.95089 4.12483 3.85326 4.17864 3.74783 4.20963C3.6424 4.24062 3.53165 4.24806 3.42315 4.23143Z" fill="#DB6338"/>
</svg>
