<svg width="10" height="10" viewBox="0 0 10 10" fill="none" xmlns="http://www.w3.org/2000/svg">
<path d="M1.25 2.08333C1.25 2.29167 1.25 2.29167 1.45833 2.5C1.66667 2.5 1.66667 2.70833 1.875 2.70833C2.08333 2.70833 2.29167 2.91667 2.5 2.91667C2.70833 2.91667 2.91667 3.125 3.125 3.33333C3.33333 3.54167 3.33333 3.75 3.33333 4.16667C3.33333 4.375 3.33333 4.79167 3.125 5C2.91667 5.20833 2.70833 5.41667 2.29167 5.41667V5.625C2.29167 5.83333 2.29167 5.83333 2.08333 6.04167C2.08333 6.25 1.875 6.25 1.66667 6.25C1.45833 6.25 1.25 6.25 1.25 6.04167C1.25 5.83333 1.04167 5.83333 1.04167 5.625C0.833333 5.625 0.625 5.625 0.416667 5.41667C0.208333 5.41667 4.96705e-08 5.20833 4.96705e-08 5C4.96705e-08 4.79167 4.96705e-08 4.79167 4.96705e-08 4.58333C0.208333 4.16667 0.416667 4.16667 0.833333 4.375C1.25 4.375 1.45833 4.58333 1.66667 4.58333C1.875 4.58333 1.875 4.58333 2.08333 4.58333L2.29167 4.375C2.29167 4.16667 2.29167 4.16667 2.08333 3.95833C1.875 3.75 1.66667 3.54167 1.45833 3.54167C1.25 3.33333 1.04167 3.33333 0.833333 3.125C0.625 3.125 0.416667 2.91667 0.416667 2.70833C0.208333 2.5 0.208333 2.29167 0.208333 2.08333C0.208333 1.875 0.208333 1.45833 0.416667 1.25C0.625 1.04167 0.833333 0.833333 1.25 0.833333V0.625C1.25 0.416667 1.25 0.416667 1.45833 0.208333C1.45833 0 1.66667 -4.96705e-08 1.875 -4.96705e-08C2.08333 -4.96705e-08 2.29167 0 2.29167 0.208333C2.29167 0.416667 2.5 0.416667 2.5 0.625V0.833333C2.70833 0.833333 2.91667 0.833333 3.125 1.04167C3.33333 1.25 3.54167 1.45833 3.33333 1.66667C2.91667 1.875 2.70833 1.875 2.29167 1.875C2.08333 1.875 1.875 1.66667 1.66667 1.66667C1.45833 1.66667 1.25 1.875 1.25 2.08333Z" transform="translate(3.33328 1.87506)" fill="#E46537"/>
<path d="M5 0C2.29167 0 0 2.29167 0 5C0 7.70833 2.29167 10 5 10C7.70833 10 10 7.70833 10 5C10 2.29167 7.70833 0 5 0ZM5 8.95833C2.70833 8.95833 1.04167 7.08333 1.04167 5C1.04167 2.70833 2.91667 1.04167 5 1.04167C7.08333 1.04167 8.95833 2.91667 8.95833 5C9.16667 7.29167 7.29167 8.95833 5 8.95833Z" fill="#E46537"/>
</svg>
