<?xml version="1.0" encoding="utf-8"?>
<!-- Generator: Adobe Illustrator 19.2.1, SVG Export Plug-In . SVG Version: 6.00 Build 0)  -->
<svg version="1.1" id="Слой_1" xmlns="http://www.w3.org/2000/svg" xmlns:xlink="http://www.w3.org/1999/xlink" x="0px" y="0px"
	 style="enable-background:new 0 0 1000 1000;" xml:space="preserve">
<style type="text/css">
	.st0{fill:#FFFFFF;}
</style>
<g>
	<path class="st0" d="M879.49,619.553c-26.941,6.43-54.03,13.927-81.537,19.278c-107.943,21.001-216.777,34.003-326.931,33.81
		c-100.557-0.177-200.261-9.438-298.847-29.439c-31.174-6.325-62.042-14.151-93.099-21.068c-7.472-1.664-11.549-4.402-11.509-13.355
		c0.365-82.072,0.239-164.146,0.316-246.219c0.002-2.478,0.66-4.956,1.127-8.236c270.307,0,539.875,0,810.481,0
		C879.49,442.718,879.49,530.339,879.49,619.553z"/>
	<path class="st0" d="M115.365,672.663c40.452,7.795,80.311,15.477,122.22,23.553c0,8.96,0.737,18.296-0.175,27.469
		c-1.312,13.191,2.345,20.099,17.003,17.773c3.893-0.618,8.095,0.713,12.989,1.239c0,22.017,0,43.306,0,65.786
		c21.424,0,41.934,0,64.352,0c0-22.038,0-43.763,0-65.874c9.009-0.849,16.187-1.526,24.856-2.343
		c0.703-9.845,1.391-19.481,2.065-28.926c74.291,0,147.705,0,222.828,0c0.394,8.255,0.857,17.94,1.38,28.888
		c8.786,0.731,17.362,1.444,27.071,2.252c0,21.976,0,43.253,0,65.82c22.181,0,43.162,0,65.757,0c0-22.078,0-43.313,0-65.706
		c8.977-0.789,16.498-1.45,25.755-2.263c0-14.796,0-29.181,0-43.637c44.651-8.328,87.583-16.334,132.348-24.683
		c0,5.937,0,11.017,0,16.097c0,77.412,0.05,154.825-0.024,232.237c-0.035,36.099-21.407,58.065-57.16,58.085
		c-201.865,0.111-403.731,0.107-605.596-0.034c-32.704-0.023-56.549-22.55-56.699-54.14c-0.383-80.52-0.138-161.043-0.082-241.565
		C114.257,679.643,114.912,676.597,115.365,672.663z"/>
	<path class="st0" d="M40.393,125.242c-7.182,5.815-14.364,11.631-22.251,18.017c-4.592-5.268-9.016-10.344-13.482-15.466
		c22.157-22.584,44.963-45.83,69.722-71.065c9.993,11.862,19.344,22.961,28.815,34.203c60.698-36.729,121.8-42.532,183.59-14.422
		c46.905,21.338,79.453,57.841,97.859,109.049c-30.034,0.825-59.806-2.388-85.977,16.453c-30.127-47.56-71.207-65.267-128.985-47.91
		c18.548,18.874,35.041,35.779,51.678,52.541c9.553,9.625,19.078,19.305,29.096,28.433c9.173,8.357,12.634,17.226,10.299,30.211
		c-2.258,12.553-0.489,25.83-0.489,38.818c-24.194,0-46.123,0-68.812,0c3.513-5.027,7.027-10.057,10.541-15.086
		C200.884,287.986,41.371,126.282,40.393,125.242z"/>
	<path class="st0" d="M632.522,330.032c-14.985,0-28.912,0-44.834,0c0-15.659,0-31.528,0-48.58c-78.952,0-155.928,0-234.867,0
		c0,16.088,0,31.988,0,48.642c-15.838,0-29.729,0-46.581,0c1.041-22.091,0.506-43.995,3.559-65.387
		c2.601-18.23,19.504-31.298,37.945-31.39c81.54-0.408,163.083-0.426,244.624-0.077c19.31,0.083,37.755,14.882,39.68,33.753
		C634.139,287.501,632.522,308.388,632.522,330.032z"/>
	<path class="st0" d="M928.362,77.127c13.126,12.538,25.867,24.709,39.292,37.533c-19.364,43.467-38.631,86.169-57.323,129.122
		c-3.873,8.899-9.956,11.757-16.958,6.773c-8.148-5.8-16.469-13.007-21.163-21.553c-4.847-8.823-11.656-12.698-19.321-17.982
		c-20.925-14.425-32.968-38.16-53.284-53.886c-6.108-4.728-3.789-12.717,5.155-17.181
		C846.249,119.243,887.463,97.981,928.362,77.127z"/>
	<path class="st0" d="M679.691,309.819c0-19.46-1.257-33.664,0.582-47.455c0.804-6.035,7.404-11.752,12.286-16.714
		c27.01-27.452,54.301-54.627,82.111-82.515c11.264,10.573,21.497,20.179,34.971,32.826c-26.31,25.148-50.711,48.396-75.018,71.743
		c-10.522,10.106-20.364,20.988-31.467,30.391C697.688,302.726,690.05,304.795,679.691,309.819z"/>
	<path class="st0" d="M816.65,206.042c8.378,8.882,17.953,19.034,30.956,32.82c-17.417,16.096-37.673,31.263-53.398,50.193
		c-22.754,27.393-51.195,13.172-80.263,17.5C749.663,271.599,782.827,239.143,816.65,206.042z"/>
	<path class="st0" d="M859.455,246.98c7.752,8.34,17.265,18.574,26.256,28.246c-18.547,40.196-54.093,30.384-87.2,30.471
		C818.435,286.502,837.792,267.852,859.455,246.98z"/>
	<path class="st0" d="M950.553,60.127c6.794-3.767,16.207-8.986,25.241-13.995c24.756,17.539,25.167,20.874,5.915,50.16
		C971.37,84.292,961.182,72.466,950.553,60.127z"/>
	
		<rect x="25.216" y="137.573" transform="matrix(0.7416 -0.6709 0.6709 0.7416 -85.6028 68.125)" class="st0" width="40.811" height="15.196"/>
	
		<rect x="41.736" y="155.833" transform="matrix(0.7416 -0.6709 0.6709 0.7416 -93.5839 83.9271)" class="st0" width="40.811" height="15.196"/>
	
		<rect x="58.804" y="172.817" transform="matrix(0.7416 -0.6709 0.6709 0.7416 -100.5673 99.7671)" class="st0" width="40.811" height="15.196"/>
	
		<rect x="74.584" y="192.141" transform="matrix(0.7416 -0.6709 0.6709 0.7416 -109.4534 115.348)" class="st0" width="40.811" height="15.196"/>
	
		<rect x="92.51" y="210.075" transform="matrix(0.7416 -0.6709 0.6709 0.7416 -116.8516 132.0092)" class="st0" width="40.811" height="15.196"/>
	
		<rect x="111.827" y="231.427" transform="matrix(0.7416 -0.6709 0.6709 0.7416 -126.1841 150.4872)" class="st0" width="40.811" height="15.196"/>
	
		<rect x="129.592" y="248.843" transform="matrix(0.7416 -0.6709 0.6709 0.7416 -133.2773 166.9061)" class="st0" width="40.811" height="15.196"/>
	
		<rect x="147.762" y="268.927" transform="matrix(0.7416 -0.6709 0.6709 0.7416 -142.0557 184.2869)" class="st0" width="40.811" height="15.196"/>
	
		<rect x="171.796" y="288.251" transform="matrix(0.7416 -0.6709 0.6709 0.7416 -148.8086 205.4054)" class="st0" width="40.811" height="15.196"/>
</g>
</svg>
