<svg id="Слой_1" data-name="Слой 1" xmlns="http://www.w3.org/2000/svg" viewBox="0 0 993.69 993.69"><defs><style>.cls-1{fill:#fff}.cls-2{fill:none;stroke:#fff;stroke-miterlimit:10;stroke-width:22.38px}</style></defs><title>icon12</title><path class="cls-1" d="M807.77 382.54c-44.86 14.69-82.58 36-114.1 64.85-22.46 20.58-43.54 21.15-68.86 13-9.54-3.07-23.89-2.31-25.15-14.08-1.45-13.6 10.9-20.49 22.79-25.14 3.28-1.29 6.51-2.72 11.12-4.66-22.3-39.2-51.16-71.36-80.93-102.78-62.74-66.2-82.15-63.07-124.26 19.73a9.3 9.3 0 0 0-1.16 2.57c-3.07 19.89-18.1 23.72-34.45 25.42-83.65 8.67-147.92 50.66-200.41 114.37-16.71 20.28-15.72 37.39 3.1 53.82 22.69 19.82 47.08 37.78 69 58.4 13.56 12.76 23.94 10 36.67.54C341 559 355.67 518.23 354.4 470.21c-5-7.66 2.1-14.84.32-18.84-.22 1.43 2.84 4.84 5.32 8.48 12.91 59.36-.28 111.64-49.87 160.7 82.87-2.23 105.29 57.05 132.6 112.06 22.62-17.5 24.94-42.89 28.6-68.07 3.4-23.38-26.15-13.56-30.5-32.76 35.61-3.27 70.23-5.37 104.48-10.11 14.3-2 21.82 1.86 30.21 12.93 17.6 23.22 37.84 43.95 70 49.72-2.25-27.52-4.93-53.45-6.19-79.46-.42-8.68-4.18-10.93-11.31-12.87-6.94-1.88-17-2.06-18-11.06-1.17-10.13 9.66-12.8 16-17.85 15.19-12.11 29.82-6.27 44.51 1.83 32.1 17.73 63.45 37.11 98 49.84 15.76 5.81 32.14 13.45 50.88 7-71.33-120.46-71.33-120.46-11.68-239.21zm-541 124.67c-17.42 1-28.89-9.87-28.79-27.32.09-15.71 10-26.23 26.65-26.67 17-.45 24.41 10.94 28.07 24.47-1.18 17.75-10.14 28.6-25.9 29.52z" transform="translate(-3.15 -3.15)"/><circle class="cls-2" cx="496.85" cy="496.85" r="485.66"/></svg>