<svg id="Слой_1" xmlns="http://www.w3.org/2000/svg"><style>.st0{fill:#fff}</style><path class="st0" d="M879.49 619.553c-26.941 6.43-54.03 13.927-81.537 19.278-107.943 21.001-216.777 34.003-326.931 33.81-100.557-.177-200.261-9.438-298.847-29.439-31.174-6.325-62.042-14.151-93.099-21.068-7.472-1.664-11.549-4.402-11.509-13.355.365-82.072.239-164.146.316-246.219.002-2.478.66-4.956 1.127-8.236h810.481l-.001 265.229z"/><path class="st0" d="M115.365 672.663l122.22 23.553c0 8.96.737 18.296-.175 27.469-1.312 13.191 2.345 20.099 17.003 17.773 3.893-.618 8.095.713 12.989 1.239v65.786h64.352v-65.874l24.856-2.343 2.065-28.926h222.828l1.38 28.888 27.071 2.252v65.82h65.757v-65.706a371153 371153 0 0 1 25.755-2.263v-43.637l132.348-24.683v16.097c0 77.412.05 154.825-.024 232.237-.035 36.099-21.407 58.065-57.16 58.085-201.865.111-403.731.107-605.596-.034-32.704-.023-56.549-22.55-56.699-54.14-.383-80.52-.138-161.043-.082-241.565.004-3.048.659-6.094 1.112-10.028zM40.393 125.242l-22.251 18.017L4.66 127.793l69.722-71.065 28.815 34.203c60.698-36.729 121.8-42.532 183.59-14.422 46.905 21.338 79.453 57.841 97.859 109.049-30.034.825-59.806-2.388-85.977 16.453-30.127-47.56-71.207-65.267-128.985-47.91 18.548 18.874 35.041 35.779 51.678 52.541 9.553 9.625 19.078 19.305 29.096 28.433 9.173 8.357 12.634 17.226 10.299 30.211-2.258 12.553-.489 25.83-.489 38.818h-68.812l10.541-15.086c-1.113-1.032-160.626-162.736-161.604-163.776z"/><path class="st0" d="M632.522 330.032h-44.834v-48.58H352.821v48.642H306.24c1.041-22.091.506-43.995 3.559-65.387 2.601-18.23 19.504-31.298 37.945-31.39 81.54-.408 163.083-.426 244.624-.077 19.31.083 37.755 14.882 39.68 33.753 2.091 20.508.474 41.395.474 63.039zm295.84-252.905l39.292 37.533c-19.364 43.467-38.631 86.169-57.323 129.122-3.873 8.899-9.956 11.757-16.958 6.773-8.148-5.8-16.469-13.007-21.163-21.553-4.847-8.823-11.656-12.698-19.321-17.982-20.925-14.425-32.968-38.16-53.284-53.886-6.108-4.728-3.789-12.717 5.155-17.181 41.489-20.71 82.703-41.972 123.602-62.826zM679.691 309.819c0-19.46-1.257-33.664.582-47.455.804-6.035 7.404-11.752 12.286-16.714 27.01-27.452 54.301-54.627 82.111-82.515l34.971 32.826c-26.31 25.148-50.711 48.396-75.018 71.743-10.522 10.106-20.364 20.988-31.467 30.391-5.468 4.631-13.106 6.7-23.465 11.724zM816.65 206.042l30.956 32.82c-17.417 16.096-37.673 31.263-53.398 50.193-22.754 27.393-51.195 13.172-80.263 17.5L816.65 206.042zm42.805 40.938l26.256 28.246c-18.547 40.196-54.093 30.384-87.2 30.471l60.944-58.717zm91.098-186.853l25.241-13.995c24.756 17.539 25.167 20.874 5.915 50.16l-31.156-36.165z"/><path transform="rotate(-42.135 45.622 145.168)" class="st0" d="M25.216 137.573h40.811v15.196H25.216z"/><path transform="rotate(-42.135 62.142 163.428)" class="st0" d="M41.736 155.833h40.811v15.196H41.736z"/><path transform="rotate(-42.135 79.21 180.412)" class="st0" d="M58.804 172.817h40.811v15.196H58.804z"/><path transform="rotate(-42.135 94.99 199.735)" class="st0" d="M74.584 192.141h40.811v15.196H74.584z"/><path transform="rotate(-42.135 112.916 217.668)" class="st0" d="M92.51 210.075h40.811v15.196H92.51z"/><path transform="rotate(-42.135 132.233 239.02)" class="st0" d="M111.827 231.427h40.811v15.196h-40.811z"/><path transform="rotate(-42.135 149.997 256.435)" class="st0" d="M129.592 248.843h40.811v15.196h-40.811z"/><path transform="rotate(-42.135 168.168 276.52)" class="st0" d="M147.762 268.927h40.811v15.196h-40.811z"/><path transform="rotate(-42.135 192.202 295.843)" class="st0" d="M171.796 288.251h40.811v15.196h-40.811z"/></svg>