# 3ds Max Wavefront OBJ Exporter v0.97b - (c)2007 guruware
# File Created: 20.01.2020 23:34:31

mtllib Buttonhole.mtl

#
# object R_Buttonhole
#

v  -0.8552 3.3801 -0.0878
v  -0.8627 3.3801 -0.0836
v  -0.8688 3.3815 -0.0803
v  -0.8640 3.3976 -0.0839
v  -0.8527 3.3948 -0.0900
v  -0.8560 3.3785 -0.0877
v  -0.8721 3.3821 -0.0777
v  -0.8911 3.3976 -0.0632
v  -0.8904 3.4010 -0.0637
v  -0.8876 3.4026 -0.0658
v  -0.8901 3.4031 -0.0641
v  -0.8930 3.3867 -0.0607
# 12 vertices

vn -0.4877 0.0411 -0.8720
vn -0.4881 -0.0396 -0.8719
vn -0.5558 -0.0213 -0.8311
vn -0.5425 -0.0268 -0.8396
vn -0.4874 -0.0503 -0.8717
vn -0.4798 0.1837 -0.8579
vn -0.6116 -0.0061 -0.7911
vn -0.6198 -0.0224 -0.7845
vn -0.5987 -0.0213 -0.8007
vn -0.6019 -0.0125 -0.7985
vn -0.5758 -0.0788 -0.8138
vn -0.6373 -0.0590 -0.7684
# 12 vertex normals

vt -0.0000 0.1117 0.0000
vt 0.1643 0.0000 0.0000
vt 0.3023 0.0000 0.0000
vt 0.2591 1.0000 0.0000
vt -0.0000 1.0000 0.0000
vt -0.0000 0.0000 0.0000
vt 0.3940 0.0000 0.0000
vt 1.0000 0.6691 0.0000
vt 1.0000 0.8723 0.0000
vt 0.9319 1.0000 0.0000
vt 1.0000 1.0000 0.0000
vt 1.0000 0.0000 0.0000
# 12 texture coords

o R_Buttonhole
g R_Buttonhole
usemtl Material4412
s 1
f 1/1/1 2/2/2 3/3/3 
f 1/1/1 3/3/3 4/4/4 
f 1/1/1 4/4/4 5/5/5 
f 6/6/6 2/2/2 1/1/1 
f 3/3/3 7/7/7 8/8/8 
f 3/3/3 8/8/8 9/9/9 
f 3/3/3 9/9/9 10/10/10 
f 3/3/3 10/10/10 4/4/4 
f 9/9/9 11/11/11 10/10/10 
f 7/7/7 12/12/12 8/8/8 
# 0 polygons - 10 triangles

