<svg xmlns="http://www.w3.org/2000/svg" width="110" height="110" viewBox="0 0 110 110"><defs><style>.cls-1{fill:#fff;}.cls-2{fill:#bb1a23;}</style></defs><title>Нити - Цвет петель по всей рубашке</title><g id="Нити"><g id="Цвет_петель_по_всей_рубашке" data-name="Цвет петель по всей рубашке"><g id="Цвет-43" data-name="Цвет"><path class="cls-1" d="M26.5,54.75c5.583,0,7.776-3.042,11.359-3.042-.82-10.207-1.18-19.8-.313-27.771A18.307,18.307,0,0,1,41.109,31l-1.5,19.5,5.5.5,3-13a26.56,26.56,0,0,0-1.5-16,77.381,77.381,0,0,0-6-13L31.2,5.063l-.052-.312L29.609,1.5a11.179,11.179,0,0,0-5-1,11.179,11.179,0,0,0-5,1L18.151,4.75l-.083.312L8.609,9a77.381,77.381,0,0,0-6,13,26.56,26.56,0,0,0-1.5,16l3,13,5.5-.5L8.109,31c.708-2.625,2.125-5.688,3.563-7.063a180.021,180.021,0,0,1-.229,27.813c3,0,5.974,3,11.058,3Z"/></g><g id="Контур-43" data-name="Контур"><circle class="cls-2" cx="24.609" cy="7" r="0.5"/><circle class="cls-2" cx="24.5" cy="11.5" r="0.5"/><circle class="cls-2" cx="24.5" cy="17.5" r="0.5"/><circle class="cls-2" cx="24.5" cy="23.5" r="0.5"/><circle class="cls-2" cx="24.5" cy="29.5" r="0.5"/><circle class="cls-2" cx="24.5" cy="35.5" r="0.5"/><circle class="cls-2" cx="24.5" cy="41.5" r="0.5"/><path d="M47.711,23.461A81.282,81.282,0,0,0,41.04,8.746.479.479,0,0,0,41,8.7a.449.449,0,0,0-.155-.134A.485.485,0,0,0,40.8,8.54L31.557,4.612a2.832,2.832,0,0,0-.16-.455L30.073,1.29a.489.489,0,0,0-.288-.254A11.207,11.207,0,0,0,24.6,0a11.145,11.145,0,0,0-5.212,1.049l-.019.01c-.011.007-.024.012-.035.018s-.018.019-.029.028a.481.481,0,0,0-.089.085.487.487,0,0,0-.042.061.475.475,0,0,0-.028.041L17.822,4.157a2.862,2.862,0,0,0-.16.454L8.414,8.54a.48.48,0,0,0-.042.029.444.444,0,0,0-.155.134.453.453,0,0,0-.039.043A81.148,81.148,0,0,0,1.508,23.461,27.359,27.359,0,0,0,.72,38.539l2.9,12.573a.5.5,0,0,0,.487.388l.045,0,5.5-.5a.5.5,0,0,0,.453-.536L8.614,31.043a19.737,19.737,0,0,1,2.646-5.792c.05.719.1,1.452.141,2.216a169.936,169.936,0,0,1-.539,24.238.5.5,0,0,0,.5.545,8.462,8.462,0,0,1,4.095,1.213,13.942,13.942,0,0,0,6.862,1.781c.009,0,.017.005.027.005H26.5a14.645,14.645,0,0,0,7.166-1.784,8.988,8.988,0,0,1,4.193-1.216.5.5,0,0,0,.5-.545,169.844,169.844,0,0,1-.539-24.239c.042-.763.09-1.5.14-2.215A19.739,19.739,0,0,1,40.6,31.043L39.111,50.462a.5.5,0,0,0,.453.536l5.5.5.045,0a.5.5,0,0,0,.487-.388l2.9-12.573A27.358,27.358,0,0,0,47.711,23.461ZM39.342,10.628l-8.11-3.577a3.942,3.942,0,0,0,.406-1.319L39.92,9.25Q39.616,9.879,39.342,10.628ZM30.129,6.973l-.057.088c0,.007-.01.011-.013.018v0c-.548.853-1.261,1.889-2,2.944L26.5,5.575A6.256,6.256,0,0,0,29.76,3l.729,1.579A2.524,2.524,0,0,1,30.129,6.973ZM25.858,4.75h-2.5A8.84,8.84,0,0,1,21.9,4.037a10.629,10.629,0,0,1,5.4,0A8.854,8.854,0,0,1,25.858,4.75Zm-2.142,1H25.5l.877,2.51H22.838ZM23,9.24h3V54.25H23Zm6.093-7.447a2.575,2.575,0,0,1-.826,1.517,11.137,11.137,0,0,0-7.321-.005,2.563,2.563,0,0,1-.823-1.522A10.511,10.511,0,0,1,24.6,1,10.442,10.442,0,0,1,29.093,1.794ZM18.73,4.576,19.458,3a4.425,4.425,0,0,0,1,1.2.474.474,0,0,0,.055.052,8.145,8.145,0,0,0,2.2,1.32l-1.556,4.449c-.744-1.06-1.459-2.1-2-2.943v0c0-.007-.01-.012-.013-.019l-.057-.088A2.524,2.524,0,0,1,18.73,4.576ZM17.581,5.732a3.926,3.926,0,0,0,.406,1.319l-8.11,3.577Q9.6,9.879,9.3,9.25ZM4.5,50.463,3.86,47.7l4.989-.57.225,2.92ZM7.624,30.88a.48.48,0,0,0-.013.158l1.161,15.09-5.139.587-1.939-8.4a26.361,26.361,0,0,1,.759-14.527,80.938,80.938,0,0,1,6.126-13.7c1.2,2.739,2.044,7.214,2.562,13.58A20.926,20.926,0,0,0,7.624,30.88ZM11.9,51.268A170.348,170.348,0,0,0,12.4,27.411c-.4-7.206-1.114-12.352-2.2-15.832L18.51,7.913c.671,1.027,1.536,2.266,2.4,3.483a.5.5,0,0,0,.408.212.552.552,0,0,0,.069,0,.5.5,0,0,0,.4-.33L22,10.658V54.243a12.854,12.854,0,0,1-6.1-1.675A9.913,9.913,0,0,0,11.9,51.268Zm21.326,1.3A13.615,13.615,0,0,1,27,54.243V10.035l.433,1.237a.5.5,0,0,0,.4.33.552.552,0,0,0,.069,0,.5.5,0,0,0,.408-.211c.857-1.211,1.72-2.449,2.4-3.484l8.313,3.667c-1.089,3.481-1.8,8.627-2.2,15.831a170.1,170.1,0,0,0,.494,23.857A10.528,10.528,0,0,0,33.23,52.565Zm11.49-2.1-4.575-.416.225-2.92,4.989.569Zm2.8-12.148-1.938,8.4-5.139-.587,1.161-15.09a.48.48,0,0,0-.013-.158,20.928,20.928,0,0,0-3.517-7.21c.517-6.365,1.362-10.84,2.562-13.58a81.087,81.087,0,0,1,6.126,13.7A26.36,26.36,0,0,1,47.523,38.314Z"/></g><g id="Выноска-11" data-name="Выноска"><path class="cls-1" d="M68.75,27.5A41.1,41.1,0,0,0,40.669,38.545L26.5,30.083l9.4,13.729A41.246,41.246,0,1,0,68.75,27.5Z"/><path class="cls-2" d="M68.75,28.5A40.25,40.25,0,1,1,28.5,68.75a39.884,39.884,0,0,1,8.193-24.333,1,1,0,0,0,.029-1.17L29.9,33.277,40.156,39.4a1,1,0,0,0,1.194-.126A40.11,40.11,0,0,1,68.75,28.5m0-1A41.1,41.1,0,0,0,40.669,38.545L26.5,30.083l9.4,13.729A41.246,41.246,0,1,0,68.75,27.5Z"/><path class="cls-2" d="M68.5,97.5A4.5,4.5,0,0,1,64,93V86.375a.5.5,0,0,1,1,0V93a3.5,3.5,0,0,0,7,0V86.375a.5.5,0,0,1,1,0V93A4.5,4.5,0,0,1,68.5,97.5Z"/><path class="cls-2" d="M72.5,51.25a.5.5,0,0,1-.5-.5V44a3.5,3.5,0,0,0-7,0v6.626a.5.5,0,0,1-1,0V44a4.5,4.5,0,0,1,9,0v6.75A.5.5,0,0,1,72.5,51.25Z"/><path class="cls-2" d="M69.5,50.75a.5.5,0,0,1-.5-.5V44a.5.5,0,0,0-1,0v6.25a.5.5,0,0,1-1,0V44a1.5,1.5,0,0,1,3,0v6.25A.5.5,0,0,1,69.5,50.75Z"/><path class="cls-2" d="M68.5,94.5A1.5,1.5,0,0,1,67,93V86.625a.5.5,0,0,1,1,0V93a.5.5,0,0,0,1,0V86.625a.5.5,0,0,1,1,0V93A1.5,1.5,0,0,1,68.5,94.5Z"/><path d="M68.5,87A18.5,18.5,0,1,1,87,68.5,18.521,18.521,0,0,1,68.5,87Zm0-36A17.5,17.5,0,1,0,86,68.5,17.52,17.52,0,0,0,68.5,51Z"/><path d="M68.5,82A13.5,13.5,0,1,1,82,68.5a.5.5,0,0,1-1,0A12.5,12.5,0,1,0,68.5,81a.5.5,0,0,1,0,1Z"/><path d="M64.5,67A2.5,2.5,0,1,1,67,64.5,2.5,2.5,0,0,1,64.5,67Zm0-4A1.5,1.5,0,1,0,66,64.5,1.5,1.5,0,0,0,64.5,63Z"/><path d="M72.5,67A2.5,2.5,0,1,1,75,64.5,2.5,2.5,0,0,1,72.5,67Zm0-4A1.5,1.5,0,1,0,74,64.5,1.5,1.5,0,0,0,72.5,63Z"/><path d="M64.5,75A2.5,2.5,0,1,1,67,72.5,2.5,2.5,0,0,1,64.5,75Zm0-4A1.5,1.5,0,1,0,66,72.5,1.5,1.5,0,0,0,64.5,71Z"/><path d="M72.5,75A2.5,2.5,0,1,1,75,72.5,2.5,2.5,0,0,1,72.5,75Zm0-4A1.5,1.5,0,1,0,74,72.5,1.5,1.5,0,0,0,72.5,71Z"/><path class="cls-1" d="M64.5,72.5a1,1,0,0,1-1-1v-6a1,1,0,0,1,2,0v6A1,1,0,0,1,64.5,72.5Z"/><path d="M64.5,73A1.5,1.5,0,0,1,63,71.5v-6a1.5,1.5,0,0,1,3,0v6A1.5,1.5,0,0,1,64.5,73Zm0-8a.5.5,0,0,0-.5.5v6a.5.5,0,0,0,1,0v-6A.5.5,0,0,0,64.5,65Z"/><path class="cls-1" d="M72.5,72.5a1,1,0,0,1-1-1v-6a1,1,0,0,1,2,0v6A1,1,0,0,1,72.5,72.5Z"/><path d="M72.5,73A1.5,1.5,0,0,1,71,71.5v-6a1.5,1.5,0,0,1,3,0v6A1.5,1.5,0,0,1,72.5,73Zm0-8a.5.5,0,0,0-.5.5v6a.5.5,0,0,0,1,0v-6A.5.5,0,0,0,72.5,65Z"/></g></g></g></svg>