<svg xmlns="http://www.w3.org/2000/svg" xmlns:xlink="http://www.w3.org/1999/xlink" width="110" height="110" viewBox="0 0 110 110"><defs><style>.cls-1{fill:url(#Безымянный_градиент_312);}.cls-2{fill:#bb1a23;}.cls-3{fill:#fff;}</style><radialGradient id="Безымянный_градиент_312" cx="27" cy="53.958" r="52.985" gradientTransform="translate(-31.387 80.958) rotate(-90) scale(1 1.082)" gradientUnits="userSpaceOnUse"><stop offset="0.648" stop-color="#fff"/><stop offset="1" stop-color="#fff" stop-opacity="0"/></radialGradient></defs><title>Нити - Цвет последней петли</title><g id="Нити"><g id="Цвет_последней_петли" data-name="Цвет последней петли"><g id="Цвет-45" data-name="Цвет"><path class="cls-1" d="M1.917,6.25A336.505,336.505,0,0,1,.5,48.333c8.75.583,11,6.25,26.5,6.25s17.75-5.667,26.5-6.25A336.505,336.505,0,0,1,52.083,6.25,62.432,62.432,0,0,0,27,.667,60.061,60.061,0,0,0,1.917,6.25Z"/></g><g id="Контур-45" data-name="Контур"><path d="M53.35,1.2a.5.5,0,0,0-.474-.524.478.478,0,0,0-.524.474,343.451,343.451,0,0,0,1.1,46.858c-3.42.116-6.043,1.309-8.812,2.567A30.858,30.858,0,0,1,31,54V.5a.5.5,0,0,0-1,0V54H25V.5a.5.5,0,0,0-1,0V54a30.858,30.858,0,0,1-13.642-3.419c-2.77-1.259-5.393-2.451-8.813-2.567a343.451,343.451,0,0,0,1.1-46.858A.479.479,0,0,0,2.124.678.5.5,0,0,0,1.65,1.2,343.032,343.032,0,0,1,.5,48.456.5.5,0,0,0,1,49c3.474,0,6.009,1.152,8.944,2.486A31.637,31.637,0,0,0,24.5,55h6a31.637,31.637,0,0,0,14.556-3.513C47.991,50.153,50.526,49,54,49a.5.5,0,0,0,.5-.545A343.032,343.032,0,0,1,53.35,1.2Z"/><path class="cls-2" d="M29,29a1.5,1.5,0,0,0-1-1.408V27.5a.5.5,0,1,0-1,0v.092a1.491,1.491,0,0,0,0,2.816V30.5a.5.5,0,0,0,1,0v-.092A1.5,1.5,0,0,0,29,29Zm-1.5.5A.5.5,0,1,1,28,29,.5.5,0,0,1,27.5,29.5Z"/><path d="M29,16a1.5,1.5,0,0,0-1-1.408V14.5a.5.5,0,1,0-1,0v.092a1.491,1.491,0,0,0,0,2.816V17.5a.5.5,0,0,0,1,0v-.092A1.5,1.5,0,0,0,29,16Zm-1.5.5A.5.5,0,1,1,28,16,.5.5,0,0,1,27.5,16.5Z"/><path d="M29,3a1.5,1.5,0,0,0-1-1.408V1.5a.5.5,0,0,0-1,0v.092a1.491,1.491,0,0,0,0,2.816V4.5a.5.5,0,1,0,1,0V4.409A1.5,1.5,0,0,0,29,3Zm-1.5.5A.5.5,0,1,1,28,3,.5.5,0,0,1,27.5,3.5Z"/></g><g id="Выноска-13" data-name="Выноска"><path class="cls-3" d="M68.75,27.5A41.082,41.082,0,0,0,41.5,37.792L29.417,30.583l7.319,12.162A41.246,41.246,0,1,0,68.75,27.5Z"/><path class="cls-2" d="M68.75,28.5A40.262,40.262,0,1,1,37.511,43.376a1,1,0,0,0,.081-1.147L32.33,33.485l8.662,5.166a1,1,0,0,0,1.173-.108A40.2,40.2,0,0,1,68.75,28.5m0-1A41.082,41.082,0,0,0,41.5,37.792L29.417,30.583l7.319,12.162A41.246,41.246,0,1,0,68.75,27.5Z"/><path class="cls-2" d="M68.5,97.5A4.5,4.5,0,0,1,64,93V86.375a.5.5,0,0,1,1,0V93a3.5,3.5,0,0,0,7,0V86.375a.5.5,0,0,1,1,0V93A4.5,4.5,0,0,1,68.5,97.5Z"/><path class="cls-2" d="M72.5,51.25a.5.5,0,0,1-.5-.5V44a3.5,3.5,0,0,0-7,0v6.626a.5.5,0,0,1-1,0V44a4.5,4.5,0,0,1,9,0v6.75A.5.5,0,0,1,72.5,51.25Z"/><path class="cls-2" d="M69.5,50.75a.5.5,0,0,1-.5-.5V44a.5.5,0,0,0-1,0v6.25a.5.5,0,0,1-1,0V44a1.5,1.5,0,0,1,3,0v6.25A.5.5,0,0,1,69.5,50.75Z"/><path class="cls-2" d="M68.5,94.5A1.5,1.5,0,0,1,67,93V86.625a.5.5,0,0,1,1,0V93a.5.5,0,0,0,1,0V86.625a.5.5,0,0,1,1,0V93A1.5,1.5,0,0,1,68.5,94.5Z"/><path d="M68.5,87A18.5,18.5,0,1,1,87,68.5,18.521,18.521,0,0,1,68.5,87Zm0-36A17.5,17.5,0,1,0,86,68.5,17.52,17.52,0,0,0,68.5,51Z"/><path d="M68.5,82A13.5,13.5,0,1,1,82,68.5a.5.5,0,0,1-1,0A12.5,12.5,0,1,0,68.5,81a.5.5,0,0,1,0,1Z"/><path d="M64.5,67A2.5,2.5,0,1,1,67,64.5,2.5,2.5,0,0,1,64.5,67Zm0-4A1.5,1.5,0,1,0,66,64.5,1.5,1.5,0,0,0,64.5,63Z"/><path d="M72.5,67A2.5,2.5,0,1,1,75,64.5,2.5,2.5,0,0,1,72.5,67Zm0-4A1.5,1.5,0,1,0,74,64.5,1.5,1.5,0,0,0,72.5,63Z"/><path d="M64.5,75A2.5,2.5,0,1,1,67,72.5,2.5,2.5,0,0,1,64.5,75Zm0-4A1.5,1.5,0,1,0,66,72.5,1.5,1.5,0,0,0,64.5,71Z"/><path d="M72.5,75A2.5,2.5,0,1,1,75,72.5,2.5,2.5,0,0,1,72.5,75Zm0-4A1.5,1.5,0,1,0,74,72.5,1.5,1.5,0,0,0,72.5,71Z"/><path class="cls-3" d="M64.5,72.5a1,1,0,0,1-1-1v-6a1,1,0,0,1,2,0v6A1,1,0,0,1,64.5,72.5Z"/><path d="M64.5,73A1.5,1.5,0,0,1,63,71.5v-6a1.5,1.5,0,0,1,3,0v6A1.5,1.5,0,0,1,64.5,73Zm0-8a.5.5,0,0,0-.5.5v6a.5.5,0,0,0,1,0v-6A.5.5,0,0,0,64.5,65Z"/><path class="cls-3" d="M72.5,72.5a1,1,0,0,1-1-1v-6a1,1,0,0,1,2,0v6A1,1,0,0,1,72.5,72.5Z"/><path d="M72.5,73A1.5,1.5,0,0,1,71,71.5v-6a1.5,1.5,0,0,1,3,0v6A1.5,1.5,0,0,1,72.5,73Zm0-8a.5.5,0,0,0-.5.5v6a.5.5,0,0,0,1,0v-6A.5.5,0,0,0,72.5,65Z"/></g></g></g></svg>