<?xml version="1.0" encoding="utf-8"?>
<!-- Generator: Adobe Illustrator 23.0.3, SVG Export Plug-In . SVG Version: 6.00 Build 0)  -->
<svg version="1.0" id="la" xmlns="http://www.w3.org/2000/svg" xmlns:xlink="http://www.w3.org/1999/xlink" x="0px" y="0px"
	 viewBox="0 0 314 87.5" style="enable-background:new 0 0 314 87.5;" xml:space="preserve" width="300px">
<g>
	<g>
		<path style="fill:#45C1BC;" d="M43.2,80.7c-20.37,0-36.95-16.57-36.95-36.95S22.83,6.8,43.2,6.8c20.37,0,36.95,16.57,36.95,36.95
			S63.57,80.7,43.2,80.7z M43.2,9.4C24.26,9.4,8.85,24.81,8.85,43.75S24.26,78.1,43.2,78.1c18.94,0,34.35-15.41,34.35-34.35
			S62.14,9.4,43.2,9.4z"/>
	</g>
	<path style="fill:#5D767B;" d="M49.55,49.93l-1.26-3.56c-2.09-5.91-4.06-11.48-6-17.17l-0.03-0.08h-1.38l-0.03,0.09
		c-1.03,3.31-2.15,6.7-3.24,9.99c-1.13,3.41-2.29,6.94-3.4,10.49c-1.78-5.78-3.39-11.38-4.95-16.79l-0.03-0.1
		c-0.31-1.05-0.41-1.57-0.19-1.9c0.27-0.41,1.11-0.59,2.57-0.77l0.11-0.01v-1.4H21.4v1.4l0.11,0.01c2.5,0.33,3.08,0.68,4.08,3.99
		c0.63,2.05,1.27,4.1,1.9,6.14c1.63,5.24,3.31,10.67,4.9,16.08l0.03,0.09h1.47l0.03-0.09c1.06-3.35,2.15-6.65,3.3-10.13
		c1.1-3.34,2.25-6.78,3.38-10.36c0.62,1.78,1.31,3.73,2.03,5.76c1.67,4.74,3.56,10.11,5.15,14.74l0.03,0.08h3.81L49.55,49.93z"/>
	<path style="fill:#45C1BC;" d="M50.44,28.71v1.41l0.11,0.01c3.34,0.27,3.58,0.55,3.58,4.29l0.03,23.36
		c0.01,5.77-2.69,7.17-4.06,7.88c0,0,0.09,0.22,0.15,0.36c3.62,0,7.66-3.54,7.66-8.46V34.41c0-3.7,0.25-4.02,3.41-4.29l0.11-0.01
		v-1.4H50.44z"/>
	<circle style="fill:#45C1BC;" cx="44.95" cy="62.34" r="2.79"/>
</g>
<g>
	<path style="fill:#5D767B;" d="M103.66,44.9l-6.51-20.57h-2v-0.79h19.04v0.79h-1.56l-2.43,6.54l3.21,9.49l5.19-16.03h-2.49v-0.79
		h5.73v0.79h-2.31L112.8,44.9h-0.93l-3.55-10.45l-3.84,10.45H103.66z M105.21,40.27l2.67-7.3l-2.94-8.64h-4.8L105.21,40.27z
		 M109.66,30.07l2.15-5.74h-4.06L109.66,30.07z"/>
	<path style="fill:#5D767B;" d="M123.74,44.39V43.6h2.35V24.33h-2.35v-0.79h15.48v5h-0.67c-0.24-1.59-0.73-2.69-1.49-3.3
		s-2.05-0.91-3.9-0.91h-3.9v8.83h0.64c1.35,0,2.31-0.25,2.88-0.74c0.57-0.49,0.9-1.35,1.01-2.56h0.65v7.84h-0.67
		c-0.07-1.39-0.43-2.37-1.07-2.92c-0.64-0.55-1.73-0.83-3.27-0.83h-0.17v9.65h4.42c1.72,0,2.99-0.37,3.8-1.11
		c0.81-0.74,1.42-2.08,1.82-4.04h0.7l-0.33,5.93H123.74z"/>
	<path style="fill:#5D767B;" d="M142.51,44.39V43.6h2.6V24.33h-2.49v-0.79h8.54v0.79h-2.87V43.6h4.29c1.57,0,2.73-0.36,3.49-1.08
		c0.76-0.72,1.37-2.05,1.83-4h0.6l-0.36,5.87H142.51z"/>
	<path style="fill:#5D767B;" d="M159.9,44.39V43.6h2.6V24.33H160v-0.79h8.54v0.79h-2.87V43.6h4.29c1.57,0,2.73-0.36,3.49-1.08
		c0.76-0.72,1.37-2.05,1.83-4h0.6l-0.36,5.87H159.9z"/>
	<path style="fill:#5D767B;" d="M177.57,44.39V43.6h2.34V24.33h-2.31v-0.79h6.06l8.89,14.91V24.33h-2.35v-0.79h5.78v0.79h-2.42V44.9
		h-0.82L180.9,24.7v18.9h2.35v0.79H177.57z"/>
	<path style="fill:#5D767B;" d="M198.55,44.39V43.6h2.35V24.33h-2.35v-0.79h15.48v5h-0.67c-0.24-1.59-0.73-2.69-1.49-3.3
		s-2.05-0.91-3.9-0.91h-3.9v8.83h0.64c1.35,0,2.31-0.25,2.88-0.74c0.57-0.49,0.9-1.35,1.01-2.56h0.65v7.84h-0.67
		c-0.07-1.39-0.43-2.37-1.07-2.92c-0.64-0.55-1.73-0.83-3.27-0.83h-0.17v9.65h4.42c1.72,0,2.99-0.37,3.8-1.11
		c0.81-0.74,1.42-2.08,1.82-4.04h0.7l-0.33,5.93H198.55z"/>
	<path style="fill:#5D767B;" d="M218.13,44.49h-0.54V39h0.6c0.5,1.54,1.28,2.76,2.35,3.65c1.07,0.89,2.27,1.34,3.62,1.34
		c1.5,0,2.76-0.47,3.79-1.41c1.03-0.94,1.54-2.08,1.54-3.43c0-1.59-1.56-2.87-4.68-3.85c-0.25-0.07-0.43-0.13-0.56-0.17
		c-2.66-0.85-4.44-1.72-5.31-2.61c-0.88-0.89-1.32-2.1-1.32-3.63c0-1.71,0.56-3.11,1.69-4.19c1.13-1.08,2.59-1.62,4.4-1.62
		c1.34,0,2.6,0.37,3.76,1.11c0.22,0.14,0.35,0.21,0.39,0.21c0.06-0.01,0.12-0.03,0.16-0.05c0.05-0.03,0.09-0.06,0.13-0.11l0.6-0.75
		h0.67v4.77h-0.57c-0.51-1.47-1.22-2.56-2.13-3.29s-2.03-1.09-3.35-1.09c-1.2,0-2.21,0.35-3.03,1.06c-0.82,0.71-1.23,1.57-1.23,2.59
		c0,0.85,0.32,1.54,0.95,2.08c0.63,0.54,1.66,1,3.1,1.38c0.21,0.05,0.52,0.13,0.94,0.25c2.4,0.64,3.98,1.25,4.76,1.84
		c0.68,0.53,1.2,1.18,1.56,1.97c0.36,0.79,0.53,1.67,0.53,2.66c0,2.16-0.64,3.88-1.91,5.16c-1.28,1.28-3,1.92-5.17,1.92
		c-1.52,0-2.91-0.42-4.17-1.25c-0.21-0.14-0.33-0.2-0.36-0.2c-0.03,0-0.07,0.02-0.12,0.05c-0.05,0.03-0.1,0.07-0.15,0.12
		L218.13,44.49z"/>
	<path style="fill:#5D767B;" d="M233.71,44.49h-0.54V39h0.6c0.5,1.54,1.28,2.76,2.35,3.65c1.07,0.89,2.27,1.34,3.62,1.34
		c1.5,0,2.76-0.47,3.79-1.41c1.03-0.94,1.54-2.08,1.54-3.43c0-1.59-1.56-2.87-4.68-3.85c-0.25-0.07-0.43-0.13-0.56-0.17
		c-2.66-0.85-4.44-1.72-5.31-2.61c-0.88-0.89-1.32-2.1-1.32-3.63c0-1.71,0.56-3.11,1.69-4.19c1.13-1.08,2.59-1.62,4.4-1.62
		c1.34,0,2.6,0.37,3.76,1.11c0.22,0.14,0.35,0.21,0.39,0.21c0.06-0.01,0.12-0.03,0.16-0.05c0.05-0.03,0.09-0.06,0.13-0.11l0.6-0.75
		h0.67v4.77h-0.57c-0.51-1.47-1.22-2.56-2.13-3.29s-2.03-1.09-3.35-1.09c-1.2,0-2.21,0.35-3.03,1.06c-0.82,0.71-1.23,1.57-1.23,2.59
		c0,0.85,0.32,1.54,0.95,2.08c0.63,0.54,1.66,1,3.1,1.38c0.21,0.05,0.52,0.13,0.94,0.25c2.4,0.64,3.98,1.25,4.76,1.84
		c0.68,0.53,1.2,1.18,1.56,1.97c0.36,0.79,0.53,1.67,0.53,2.66c0,2.16-0.64,3.88-1.91,5.16c-1.28,1.28-3,1.92-5.17,1.92
		c-1.52,0-2.91-0.42-4.17-1.25c-0.21-0.14-0.33-0.2-0.36-0.2c-0.03,0-0.07,0.02-0.12,0.05c-0.05,0.03-0.1,0.07-0.15,0.12
		L233.71,44.49z"/>
	<path style="fill:#45C1BC;" d="M260.96,24.33h-2.34v-0.79h7.87v0.79h-2.35v16.28c0,2.18-0.43,3.81-1.29,4.9s-2.16,1.63-3.88,1.63
		c-1.02,0-1.86-0.27-2.51-0.8c-0.65-0.53-0.98-1.21-0.98-2.02c0-0.53,0.16-0.96,0.48-1.29c0.32-0.33,0.74-0.5,1.27-0.5
		c0.44,0,0.82,0.16,1.14,0.49c0.32,0.33,0.47,0.72,0.47,1.18c0,0.3-0.1,0.62-0.29,0.96c-0.19,0.34-0.29,0.54-0.29,0.6
		c0,0.19,0.08,0.33,0.22,0.43c0.15,0.1,0.36,0.15,0.64,0.15c0.61,0,1.07-0.21,1.37-0.64c0.3-0.43,0.46-1.07,0.46-1.92V24.33z"/>
	<path style="fill:#45C1BC;" d="M267.38,44.39V43.6h2.48l7.11-20.59h0.79l6.63,20.59h2.18v0.79h-7.93V43.6h2.57l-2.09-6.69h-6.03
		l-2.21,6.69h2.63v0.79H267.38z M273.39,35.98h5.45l-2.63-8.37L273.39,35.98z"/>
	<path style="fill:#45C1BC;" d="M288.1,43.6h2.48V24.33h-2.35v-0.79h8.81c2.32,0,4.12,0.4,5.38,1.21c1.26,0.81,1.89,1.94,1.89,3.39
		c0,1.45-0.57,2.61-1.7,3.49s-2.68,1.37-4.64,1.46v0.25c1.52,0.27,2.75,0.8,3.7,1.6s1.51,1.77,1.69,2.91
		c0.09,0.6,0.15,1.47,0.17,2.61c0.02,1.14,0.11,1.92,0.28,2.35c0.13,0.37,0.33,0.64,0.58,0.81s0.59,0.26,1,0.26
		c0.25,0,0.51-0.03,0.78-0.1c0.27-0.07,0.55-0.17,0.84-0.3v0.79c-0.52,0.22-1.02,0.38-1.5,0.5s-0.94,0.17-1.38,0.17
		c-1.32,0-2.31-0.51-2.96-1.52c-0.65-1.01-1.03-2.64-1.13-4.9c0-0.05-0.01-0.12-0.02-0.22c-0.06-1.62-0.39-2.75-0.98-3.39
		c-0.42-0.46-0.94-0.82-1.56-1.07s-1.28-0.37-1.99-0.37h-1.84V43.6h2.42v0.79h-7.96V43.6z M293.65,32.65h1.84
		c2.14,0,3.57-0.31,4.3-0.94c0.73-0.63,1.09-1.75,1.09-3.38c0-1.52-0.3-2.57-0.91-3.14s-1.8-0.86-3.6-0.86h-2.73V32.65z"/>
</g>
<g>
	<path style="fill:#45C1BC;" d="M148.33,71.5l2.13-8.1h-1.69v-0.57c0.61,0,1.21-0.02,1.79-0.05s1.17-0.08,1.74-0.15l-0.57,2.09
		c0.53-0.71,1.06-1.24,1.6-1.59c0.54-0.35,1.11-0.52,1.71-0.52c0.61,0,1.08,0.15,1.4,0.45c0.33,0.3,0.49,0.72,0.49,1.27
		c0,0.11,0,0.2-0.01,0.26c0,0.06-0.01,0.11-0.02,0.14c0.48-0.71,1-1.23,1.54-1.59s1.13-0.53,1.77-0.53c0.61,0,1.08,0.14,1.43,0.41
		c0.34,0.27,0.51,0.66,0.51,1.15c0,0.14-0.01,0.29-0.03,0.45c-0.02,0.16-0.05,0.31-0.08,0.45l-1.44,5.04
		c-0.04,0.13-0.06,0.22-0.07,0.29c-0.01,0.07-0.02,0.14-0.02,0.21c0,0.1,0.04,0.18,0.11,0.25s0.17,0.1,0.3,0.1
		c0.38,0,0.75-0.22,1.12-0.65c0.37-0.43,0.75-1.09,1.13-1.98l0.41,0.19c-0.36,1.1-0.82,1.92-1.37,2.46
		c-0.55,0.54-1.19,0.81-1.95,0.81c-0.42,0-0.74-0.11-0.99-0.33c-0.24-0.22-0.36-0.53-0.36-0.92c0-0.14,0.02-0.3,0.05-0.48
		c0.03-0.18,0.09-0.42,0.18-0.73l1.27-4.41c0.06-0.2,0.1-0.38,0.13-0.53c0.03-0.15,0.04-0.28,0.04-0.37c0-0.22-0.08-0.39-0.23-0.51
		s-0.37-0.17-0.66-0.17c-0.62,0-1.25,0.33-1.92,1c-0.66,0.66-1.11,1.45-1.35,2.36l-1.28,4.81h-1.66l1.68-6.34
		c0.01-0.02,0.02-0.06,0.03-0.11c0.12-0.45,0.18-0.74,0.18-0.89c0-0.27-0.08-0.47-0.25-0.61s-0.39-0.21-0.69-0.21
		c-0.6,0-1.22,0.33-1.87,0.97s-1.08,1.4-1.31,2.24l-1.35,4.95H148.33z"/>
	<path style="fill:#45C1BC;" d="M166.59,67.19c-0.11,0.42-0.2,0.79-0.25,1.12c-0.06,0.33-0.08,0.63-0.08,0.89
		c0,0.66,0.16,1.16,0.49,1.51s0.79,0.52,1.41,0.52c0.57,0,1.11-0.19,1.63-0.58c0.51-0.39,0.94-0.93,1.29-1.63l0.48,0.27
		c-0.39,0.79-0.89,1.41-1.52,1.85c-0.62,0.44-1.31,0.66-2.05,0.66c-1,0-1.81-0.34-2.45-1.01c-0.63-0.67-0.95-1.55-0.95-2.62
		c0-0.6,0.11-1.19,0.33-1.77c0.22-0.57,0.55-1.13,0.99-1.65c0.59-0.71,1.23-1.24,1.93-1.6s1.43-0.55,2.21-0.55
		c0.64,0,1.16,0.17,1.55,0.5s0.59,0.77,0.59,1.3c0,0.85-0.48,1.52-1.45,2.03c-0.97,0.5-2.28,0.76-3.93,0.76H166.59z M166.78,66.64
		H167c1.1,0,1.96-0.22,2.58-0.66c0.62-0.44,0.94-1.05,0.94-1.82c0-0.35-0.09-0.61-0.26-0.78c-0.17-0.17-0.43-0.26-0.77-0.26
		c-0.5,0-0.98,0.29-1.43,0.89C167.6,64.6,167.17,65.48,166.78,66.64z"/>
	<path style="fill:#45C1BC;" d="M178.98,70.24c-0.37,0.5-0.79,0.89-1.26,1.15c-0.47,0.26-0.97,0.39-1.5,0.39
		c-0.82,0-1.51-0.31-2.07-0.92c-0.57-0.62-0.85-1.38-0.85-2.29c0-0.64,0.14-1.29,0.42-1.96c0.28-0.67,0.68-1.31,1.2-1.94
		c0.56-0.68,1.16-1.19,1.78-1.54c0.62-0.35,1.25-0.52,1.89-0.52c0.5,0,0.9,0.09,1.21,0.27c0.31,0.18,0.55,0.47,0.72,0.85l1.85-6.55
		h-1.83v-0.57c0.65,0,1.29-0.02,1.91-0.06c0.62-0.04,1.21-0.08,1.77-0.14l-3.79,13.47c-0.01,0.02-0.01,0.03-0.02,0.06
		c-0.06,0.18-0.09,0.33-0.09,0.45c0,0.16,0.05,0.29,0.16,0.39c0.1,0.1,0.24,0.16,0.41,0.16c0.37,0,0.76-0.25,1.18-0.75
		c0.42-0.5,0.78-1.18,1.1-2.03l0.52,0.2c-0.42,1.12-0.9,1.97-1.46,2.56c-0.55,0.58-1.16,0.87-1.81,0.87c-0.47,0-0.83-0.12-1.08-0.37
		c-0.25-0.24-0.38-0.59-0.38-1.05V70.24z M178.7,63.06c-0.46,0-0.88,0.14-1.26,0.43c-0.38,0.29-0.73,0.73-1.05,1.33
		c-0.14,0.27-0.28,0.6-0.42,0.97c-0.14,0.38-0.27,0.78-0.39,1.22c-0.18,0.62-0.31,1.13-0.4,1.55c-0.09,0.42-0.13,0.75-0.13,1
		c0,0.53,0.12,0.94,0.37,1.22s0.61,0.42,1.09,0.42c0.56,0,1.06-0.21,1.51-0.61c0.45-0.41,0.83-1.01,1.13-1.8
		c0.28-0.71,0.52-1.49,0.7-2.33c0.19-0.84,0.28-1.48,0.28-1.91c0-0.48-0.12-0.85-0.36-1.1S179.18,63.06,178.7,63.06z"/>
	<path style="fill:#45C1BC;" d="M185.37,69.33l1.61-5.92h-1.68v-0.57c0.66,0,1.29-0.02,1.88-0.05s1.14-0.09,1.66-0.16l-2.07,7.5
		c-0.01,0.07-0.03,0.12-0.03,0.17c-0.01,0.04-0.01,0.09-0.01,0.12c0,0.13,0.05,0.25,0.16,0.35s0.24,0.15,0.38,0.15
		c0.36,0,0.75-0.23,1.17-0.7c0.42-0.46,0.8-1.1,1.15-1.91l0.46,0.21c-0.36,0.99-0.85,1.78-1.49,2.37s-1.29,0.89-1.98,0.89
		c-0.42,0-0.77-0.12-1.03-0.37c-0.26-0.24-0.39-0.57-0.39-0.98c0-0.12,0.02-0.27,0.05-0.44C185.25,69.82,185.3,69.6,185.37,69.33z
		 M187.79,58c0-0.3,0.1-0.55,0.31-0.75s0.46-0.31,0.76-0.31c0.3,0,0.54,0.1,0.74,0.31s0.3,0.46,0.3,0.75s-0.1,0.55-0.31,0.76
		c-0.2,0.21-0.45,0.31-0.74,0.31c-0.29,0-0.55-0.1-0.76-0.31C187.9,58.55,187.79,58.3,187.79,58z"/>
	<path style="fill:#45C1BC;" d="M198.24,69.35c-0.55,0.85-1.14,1.46-1.78,1.85c-0.63,0.39-1.37,0.58-2.21,0.58
		c-0.87,0-1.6-0.33-2.2-0.98c-0.59-0.66-0.89-1.47-0.89-2.45c0-0.53,0.11-1.09,0.33-1.65c0.22-0.57,0.54-1.13,0.97-1.7
		c0.58-0.76,1.22-1.35,1.92-1.77c0.7-0.42,1.39-0.63,2.07-0.63c0.7,0,1.27,0.18,1.72,0.53c0.45,0.35,0.67,0.79,0.67,1.32
		c0,0.31-0.09,0.57-0.26,0.77c-0.17,0.2-0.4,0.3-0.67,0.3c-0.28,0-0.5-0.08-0.67-0.23c-0.16-0.15-0.25-0.36-0.25-0.63
		c0-0.24,0.12-0.47,0.36-0.69c0.24-0.22,0.36-0.37,0.36-0.46c0-0.12-0.11-0.22-0.34-0.32c-0.23-0.09-0.5-0.14-0.83-0.14
		c-0.42,0-0.83,0.13-1.21,0.38c-0.39,0.26-0.75,0.64-1.08,1.14c-0.39,0.59-0.72,1.36-0.98,2.3c-0.26,0.94-0.39,1.81-0.39,2.61
		c0,0.57,0.14,1,0.41,1.28c0.27,0.28,0.68,0.42,1.23,0.42c0.63,0,1.22-0.18,1.78-0.53c0.55-0.35,1.07-0.89,1.55-1.61L198.24,69.35z"
		/>
	<path style="fill:#45C1BC;" d="M205.49,70.23c-0.36,0.5-0.77,0.88-1.24,1.15s-0.98,0.4-1.52,0.4c-0.83,0-1.5-0.3-2.02-0.91
		c-0.52-0.6-0.79-1.38-0.79-2.33c0-0.67,0.15-1.34,0.44-2c0.29-0.67,0.73-1.33,1.3-1.97c0.56-0.63,1.14-1.1,1.74-1.44
		c0.6-0.33,1.19-0.5,1.77-0.5c0.55,0,0.99,0.12,1.33,0.37c0.33,0.24,0.56,0.62,0.68,1.11l0.39-1.27h1.59l-1.75,6.04
		c-0.14,0.5-0.24,0.86-0.29,1.09c-0.05,0.23-0.08,0.4-0.08,0.52c0,0.13,0.04,0.25,0.12,0.34c0.08,0.09,0.18,0.14,0.29,0.14
		c0.36,0,0.74-0.23,1.14-0.71c0.39-0.47,0.75-1.13,1.08-1.96l0.48,0.17c-0.39,1.08-0.87,1.9-1.43,2.47
		c-0.56,0.57-1.17,0.86-1.83,0.86c-0.47,0-0.82-0.13-1.04-0.38C205.62,71.14,205.5,70.75,205.49,70.23z M205.3,63.1
		c-0.43,0-0.83,0.14-1.18,0.43s-0.72,0.76-1.09,1.41c-0.43,0.77-0.77,1.57-1.03,2.42c-0.26,0.85-0.38,1.58-0.38,2.19
		c0,0.53,0.12,0.94,0.36,1.22c0.24,0.28,0.59,0.42,1.05,0.42c0.5,0,0.96-0.16,1.37-0.48c0.41-0.32,0.78-0.82,1.12-1.5
		c0.12-0.23,0.26-0.59,0.42-1.07s0.33-1.03,0.49-1.64c0.1-0.36,0.17-0.7,0.22-1.01c0.05-0.31,0.07-0.58,0.07-0.81
		c0-0.53-0.12-0.92-0.35-1.19C206.13,63.23,205.78,63.1,205.3,63.1z"/>
	<path style="fill:#45C1BC;" d="M211.5,69.33l3.42-12.15h-1.8v-0.57c0.68-0.02,1.32-0.04,1.92-0.07c0.61-0.03,1.18-0.08,1.71-0.14
		l-3.79,13.41c-0.03,0.09-0.05,0.18-0.07,0.28c-0.02,0.1-0.02,0.19-0.02,0.28c0,0.16,0.04,0.28,0.13,0.38
		c0.09,0.1,0.2,0.14,0.34,0.14c0.39,0,0.78-0.21,1.17-0.62s0.8-1.07,1.23-1.96l0.46,0.21c-0.49,1.11-1.01,1.94-1.55,2.47
		c-0.54,0.53-1.14,0.79-1.78,0.79c-0.5,0-0.89-0.12-1.17-0.36c-0.28-0.24-0.42-0.57-0.42-0.99c0-0.1,0.02-0.25,0.06-0.43
		S211.43,69.59,211.5,69.33z"/>
	<path style="fill:#45C1BC;" d="M225.14,71.78c-0.79,0-1.44-0.18-1.96-0.54s-0.77-0.81-0.77-1.33c0-0.28,0.08-0.5,0.23-0.67
		c0.16-0.16,0.36-0.24,0.62-0.24c0.28,0,0.49,0.07,0.65,0.22s0.24,0.35,0.24,0.59c0,0.19-0.06,0.37-0.17,0.56s-0.17,0.3-0.17,0.33
		c0,0.17,0.12,0.31,0.37,0.43s0.56,0.17,0.95,0.17c0.54,0,0.99-0.16,1.34-0.47c0.35-0.31,0.53-0.71,0.53-1.18
		c0-0.28-0.07-0.55-0.22-0.82c-0.15-0.26-0.51-0.69-1.09-1.27l-0.13-0.13c-0.91-0.9-1.36-1.7-1.36-2.41c0-0.72,0.25-1.3,0.75-1.74
		c0.5-0.44,1.15-0.66,1.97-0.66c0.65,0,1.18,0.12,1.58,0.37c0.4,0.24,0.6,0.56,0.6,0.96c0,0.26-0.07,0.47-0.21,0.62
		c-0.14,0.15-0.33,0.23-0.57,0.23c-0.25,0-0.44-0.07-0.58-0.21c-0.15-0.14-0.22-0.33-0.22-0.57c0-0.06,0.02-0.15,0.06-0.28
		c0.04-0.13,0.06-0.22,0.06-0.27c0-0.12-0.08-0.22-0.23-0.31c-0.15-0.08-0.34-0.13-0.55-0.13c-0.45,0-0.8,0.11-1.05,0.32
		s-0.37,0.52-0.37,0.91c0,0.2,0.09,0.42,0.27,0.67c0.18,0.25,0.53,0.6,1.05,1.06c0.71,0.63,1.18,1.13,1.4,1.5
		c0.22,0.37,0.33,0.77,0.33,1.2c0,0.86-0.32,1.59-0.97,2.19C226.88,71.48,226.08,71.78,225.14,71.78z"/>
	<path style="fill:#45C1BC;" d="M229.18,75.79l3.24-12.38h-1.67l0.01-0.57c0.65-0.02,1.24-0.05,1.79-0.09s1.04-0.08,1.46-0.12
		l-0.41,1.84c0.32-0.6,0.7-1.05,1.15-1.37c0.45-0.31,0.93-0.47,1.46-0.47c0.86,0,1.58,0.33,2.16,0.97c0.58,0.65,0.87,1.47,0.87,2.46
		c0,0.65-0.13,1.32-0.38,2c-0.25,0.68-0.61,1.3-1.06,1.85c-0.5,0.59-1.07,1.06-1.71,1.4c-0.64,0.34-1.27,0.51-1.89,0.51
		c-0.51,0-0.93-0.09-1.25-0.28c-0.32-0.19-0.58-0.49-0.77-0.9l-1.36,5.15h1.46v0.57h-4.39v-0.57H229.18z M235.92,63.13
		c-0.45,0-0.87,0.18-1.25,0.53s-0.73,0.88-1.06,1.6c-0.1,0.24-0.21,0.51-0.31,0.82c-0.1,0.31-0.2,0.64-0.28,1.01l-0.08,0.32
		c-0.28,1.2-0.42,1.93-0.42,2.21c0,0.5,0.14,0.92,0.41,1.24c0.28,0.32,0.63,0.48,1.07,0.48c0.51,0,0.97-0.18,1.37-0.54
		c0.4-0.36,0.76-0.9,1.07-1.63c0.3-0.7,0.54-1.45,0.72-2.26c0.19-0.8,0.28-1.46,0.28-1.96c0-0.59-0.13-1.04-0.38-1.35
		C236.8,63.28,236.42,63.13,235.92,63.13z"/>
	<path style="fill:#45C1BC;" d="M246.19,70.23c-0.36,0.5-0.77,0.88-1.24,1.15s-0.98,0.4-1.52,0.4c-0.83,0-1.5-0.3-2.02-0.91
		c-0.52-0.6-0.79-1.38-0.79-2.33c0-0.67,0.15-1.34,0.44-2c0.29-0.67,0.73-1.33,1.3-1.97c0.56-0.63,1.14-1.1,1.74-1.44
		c0.6-0.33,1.19-0.5,1.77-0.5c0.55,0,0.99,0.12,1.33,0.37c0.33,0.24,0.56,0.62,0.68,1.11l0.39-1.27h1.59l-1.75,6.04
		c-0.14,0.5-0.24,0.86-0.29,1.09c-0.05,0.23-0.08,0.4-0.08,0.52c0,0.13,0.04,0.25,0.12,0.34c0.08,0.09,0.18,0.14,0.29,0.14
		c0.36,0,0.74-0.23,1.14-0.71c0.39-0.47,0.75-1.13,1.08-1.96l0.48,0.17c-0.39,1.08-0.87,1.9-1.43,2.47
		c-0.56,0.57-1.17,0.86-1.83,0.86c-0.47,0-0.82-0.13-1.04-0.38C246.31,71.14,246.2,70.75,246.19,70.23z M246,63.1
		c-0.43,0-0.83,0.14-1.18,0.43s-0.72,0.76-1.09,1.41c-0.43,0.77-0.77,1.57-1.03,2.42c-0.26,0.85-0.38,1.58-0.38,2.19
		c0,0.53,0.12,0.94,0.36,1.22c0.24,0.28,0.59,0.42,1.05,0.42c0.5,0,0.96-0.16,1.37-0.48c0.41-0.32,0.78-0.82,1.12-1.5
		c0.12-0.23,0.26-0.59,0.42-1.07s0.33-1.03,0.49-1.64c0.1-0.36,0.17-0.7,0.22-1.01c0.05-0.31,0.07-0.58,0.07-0.81
		c0-0.53-0.12-0.92-0.35-1.19C246.83,63.23,246.47,63.1,246,63.1z"/>
</g>
</svg>
