<svg xmlns="http://www.w3.org/2000/svg" xmlns:xlink="http://www.w3.org/1999/xlink" width="110" height="110" viewBox="0 0 110 110"><defs><style>.cls-1{fill:url(#Безымянный_градиент_2143);}.cls-2{fill:#af9c94;}.cls-3{fill:#fff;}</style><radialGradient id="Безымянный_градиент_2143" cx="48.227" cy="108.552" r="106.055" gradientUnits="userSpaceOnUse"><stop offset="0.694" stop-color="#fff"/><stop offset="1" stop-color="#fff" stop-opacity="0"/></radialGradient></defs><title>Контрасты - Внешняя обтачка широкая рукава изнутри</title><g id="Контрасты"><g id="Внешняя_обтачка_широкая_рукава_изнутри" data-name="Внешняя обтачка широкая рукава изнутри"><g id="Цвет-66" data-name="Цвет"><path class="cls-1" d="M21,7.669q1.064,6.939,2.65,13.815L43.958,109.5l38.5-3.5L74.945,8.323C67.083,4.417,57.417,2.667,48.08,2.606,38.974,2.547,28.417,4.167,21,7.669Z"/><polygon class="cls-2" points="31 10.375 23 18.125 37.875 83.375 54.375 81.5 40.333 14.917 31 10.375"/><path class="cls-3" d="M31.481,13.39l6.658,3.24,13.222,62.7L39.815,80.638,25.75,18.941l5.731-5.552M31,10.375l-8,7.75,14.875,65.25,16.5-1.875L40.333,14.917,31,10.375Z"/></g><g id="Контур-66" data-name="Контур"><path d="M44.957,97.208a.5.5,0,0,1-.095-.991l8.584-1.666a.5.5,0,1,1,.191.982L45.054,97.2A.539.539,0,0,1,44.957,97.208Z"/><path d="M40.688,57.625a.5.5,0,0,1-.483-.371l-2.437-9.125a.5.5,0,1,1,.967-.258L41.171,57a.5.5,0,0,1-.354.612A.537.537,0,0,1,40.688,57.625Z"/><circle class="cls-3" cx="49.208" cy="95.935" r="3"/><path d="M49.208,99.436a3.5,3.5,0,1,1,3.5-3.5A3.5,3.5,0,0,1,49.208,99.436Zm0-6a2.5,2.5,0,1,0,2.5,2.5A2.5,2.5,0,0,0,49.208,93.436Z"/><circle class="cls-3" cx="39.583" cy="52.623" r="3"/><path d="M39.583,56.123a3.5,3.5,0,1,1,3.5-3.5A3.5,3.5,0,0,1,39.583,56.123Zm0-6a2.5,2.5,0,1,0,2.5,2.5A2.5,2.5,0,0,0,39.583,50.123Z"/><path d="M49.208,97.936a2,2,0,1,1,2-2,.5.5,0,0,1-1,0,1,1,0,1,0-1,1,.5.5,0,0,1,0,1Z"/><path d="M39.583,54.623a2,2,0,1,1,2-2,.5.5,0,1,1-1,0,1,1,0,1,0-1,1,.5.5,0,0,1,0,1Z"/><path d="M74.894,1.143a.5.5,0,0,0-1,.076l5.909,76.828L54.689,80.926,40.822,14.73a.5.5,0,0,0-.273-.349L31.216,9.924a.5.5,0,0,0-.558.086l-7.468,7c-1.069-5.2-1.931-10.462-2.556-15.712a.506.506,0,0,0-.555-.437.5.5,0,0,0-.437.555A189.6,189.6,0,0,0,23.159,21.6l20.312,88.017a.5.5,0,0,0,.487.388L44,110l38.5-3.5a.5.5,0,0,0,.453-.536ZM23.437,18.151l7.656-7.177,8.8,4.2L42.336,26.83l-.832.187a.5.5,0,0,0,.109.988.528.528,0,0,0,.109-.012l.818-.183L53.692,81.04,38.31,82.8,26.451,31.412l1.611-.36a.5.5,0,1,0-.219-.977l-1.617.362-2.092-9.066C23.887,20.3,23.665,19.226,23.437,18.151Zm15.1,65.634L53.9,82.024l5.359,25.583-14.911,1.355ZM60.26,107.516,54.9,81.91l24.988-2.864,2.038,26.5Z"/><path d="M37.71,28.878a.528.528,0,0,0,.109-.012l1.952-.437a.5.5,0,1,0-.219-.977L37.6,27.89a.5.5,0,0,0,.109.988Z"/><path d="M29.9,30.626a.528.528,0,0,0,.109-.012l1.952-.437a.5.5,0,1,0-.219-.977l-1.952.437a.5.5,0,0,0,.109.988Z"/><path d="M33.807,29.752a.528.528,0,0,0,.109-.012l1.952-.437a.5.5,0,1,0-.219-.977l-1.952.437a.5.5,0,0,0,.109.988Z"/></g></g></g></svg>