<svg xmlns="http://www.w3.org/2000/svg" xmlns:xlink="http://www.w3.org/1999/xlink" width="110" height="110" viewBox="0 0 110 110"><defs><style>.cls-1{fill:url(#Безымянный_градиент_1183);}.cls-2{fill:#af9c94;}.cls-3{fill:#fff;}</style><radialGradient id="Безымянный_градиент_1183" cx="55.333" cy="81.002" r="77.71" gradientTransform="translate(1.467 136.335) rotate(-90) scale(1 0.665)" gradientUnits="userSpaceOnUse"><stop offset="0.596" stop-color="#fff"/><stop offset="0.723" stop-color="#fff" stop-opacity="0.652"/><stop offset="0.859" stop-color="#fff" stop-opacity="0.304"/><stop offset="0.954" stop-color="#fff" stop-opacity="0.085"/><stop offset="1" stop-color="#fff" stop-opacity="0"/></radialGradient></defs><title>Контрасты - Декоративная деталь</title><g id="Контрасты"><g id="Декоративная_деталь" data-name="Декоративная деталь"><g id="Цвет-70" data-name="Цвет"><path class="cls-1" d="M106.872,0V87.754c-14.9-4.5-34.734-7.17-51.872-7.17s-36.971,2.67-51.872,7.17V0Z"/><path class="cls-2" d="M72.5,81.188V60.5L55,48.5l-17.5,12V81.188A222.945,222.945,0,0,1,72.5,81.188Z"/><path class="cls-3" d="M55,51.531,70,61.817V78.5c-4.988-.332-10.019-.5-14.993-.5S45,78.168,40,78.5V61.817L55,51.531M55,48.5l-17.5,12V81.188q8.779-.69,17.507-.688,8.776,0,17.493.688V60.5L55,48.5Z"/></g><g id="Контур-70" data-name="Контур"><path d="M109.657,88.025C99.364,84.626,86.263,82.111,73,80.869V77.893c.73.069,1.46.133,2.19.209l.054,0a.5.5,0,0,0,.052-1c-.766-.081-1.531-.148-2.3-.219V60.5a.5.5,0,0,0-.217-.412l-17.5-12a.5.5,0,0,0-.566,0l-17.5,12A.5.5,0,0,0,37,60.5V76.885c-.249.023-.5.042-.746.066a.5.5,0,0,0,.048,1l.05,0c.217-.021.432-.037.648-.057v2.979C23.737,82.111,10.636,84.626.343,88.025a.5.5,0,0,0,.314.949C15.55,84.056,36.373,81,55,81s39.45,3.056,54.343,7.975A.5.5,0,0,0,109.5,89a.5.5,0,0,0,.157-.975ZM42,80.469V76.813a.5.5,0,0,0-1,0v3.723c-1,.074-2,.159-3,.248V77.8c.776-.07,1.553-.145,2.328-.206a.5.5,0,0,0,.459-.537.519.519,0,0,0-.537-.459c-.748.059-1.5.131-2.25.2V60.764L55,49.106,72,60.764v16.03c-.232-.021-.465-.047-.7-.067a.515.515,0,0,0-.541.455.5.5,0,0,0,.455.541c.261.022.522.051.783.075v2.986C66.28,80.276,60.543,80,55,80,50.75,80,46.384,80.166,42,80.469ZM28.851,78.313a.5.5,0,0,1,.431-.562q1.985-.262,3.982-.486a.509.509,0,0,1,.553.441.5.5,0,0,1-.441.553q-1.985.223-3.963.484a.5.5,0,0,1-.562-.431Zm-6.924,1.049a.5.5,0,0,1,.411-.575q1.967-.33,3.963-.622a.509.509,0,0,1,.567.423.5.5,0,0,1-.423.567q-1.983.29-3.943.618a.476.476,0,0,1-.083.007A.5.5,0,0,1,21.927,79.362Zm-6.88,1.3a.5.5,0,0,1,.388-.591q1.945-.4,3.939-.769a.509.509,0,0,1,.582.4.5.5,0,0,1-.4.582q-1.98.363-3.916.763a.457.457,0,0,1-.1.011A.5.5,0,0,1,15.047,80.665ZM8.228,82.249a.5.5,0,0,1,.361-.607q1.916-.485,3.9-.934a.493.493,0,0,1,.6.377.5.5,0,0,1-.377.6q-1.975.445-3.879.928a.489.489,0,0,1-.123.016A.5.5,0,0,1,8.228,82.249Zm69.5-4.367a.5.5,0,0,1,.556-.437q2,.24,3.978.516a.5.5,0,0,1-.068,1,.567.567,0,0,1-.07,0q-1.972-.274-3.958-.514A.5.5,0,0,1,77.729,77.882Zm20.69,3.545a.5.5,0,0,1,.6-.371q1.985.469,3.895.975a.5.5,0,0,1-.128.983.485.485,0,0,1-.128-.017q-1.9-.5-3.869-.969A.5.5,0,0,1,98.419,81.427Zm6.778,1.752a.5.5,0,0,1,.619-.342c1.314.381,2.606.78,3.841,1.188A.5.5,0,0,1,109.5,85a.5.5,0,0,1-.157-.025c-1.222-.4-2.5-.8-3.8-1.177A.5.5,0,0,1,105.2,83.179Zm-103.7,1a.5.5,0,0,1,.327-.626c1.236-.389,2.533-.771,3.854-1.136a.5.5,0,1,1,.266.963c-1.31.362-2.6.741-3.821,1.126a.468.468,0,0,1-.149.023A.5.5,0,0,1,1.5,84.174Zm90.069-4.186a.5.5,0,0,1,.586-.4q1.991.384,3.931.8a.5.5,0,0,1-.1.988.494.494,0,0,1-.106-.012q-1.928-.416-3.909-.8A.5.5,0,0,1,91.566,79.988Zm-6.9-1.174a.507.507,0,0,1,.57-.418q1.994.309,3.956.652a.5.5,0,0,1-.085.992.436.436,0,0,1-.087-.008q-1.953-.341-3.937-.648A.5.5,0,0,1,84.666,78.814ZM61.774,76.631a.5.5,0,0,1-.5.482h-.018q-2.011-.072-3.989-.1a.5.5,0,0,1,.007-1h.007q1.988.026,4.011.1A.5.5,0,0,1,61.774,76.631Zm-14,.019a.5.5,0,0,1-.479.521q-1.979.085-3.984.213H43.28a.5.5,0,0,1-.031-1q2.013-.127,4-.215A.5.5,0,0,1,47.774,76.649Zm7-.149a.5.5,0,0,1-.5.5q-1.973.009-3.988.064h-.014a.5.5,0,0,1-.014-1q2.024-.056,4.012-.064h0A.5.5,0,0,1,54.774,76.5ZM68.783,62.2a.5.5,0,0,1,.217.412v2.056a.5.5,0,0,1-1,0V62.871l-1.387-.951a.5.5,0,1,1,.566-.824ZM58.366,56.265,55.067,54a.5.5,0,0,1,.566-.824l3.3,2.263a.5.5,0,0,1-.566.824ZM43.393,61.31a.5.5,0,0,1,.129-.7l3.3-2.262a.5.5,0,1,1,.566.824l-3.3,2.262a.5.5,0,0,1-.7-.129ZM69,74.663v4a.5.5,0,0,1-1,0V77.474q-1.883-.133-3.753-.231a.5.5,0,0,1-.474-.524.463.463,0,0,1,.524-.474c1.229.062,2.463.14,3.7.227V74.663a.5.5,0,0,1,1,0Zm0-7v4a.5.5,0,0,1-1,0v-4a.5.5,0,0,1,1,0ZM42,69.813v4a.5.5,0,0,1-1,0v-4a.5.5,0,0,1,1,0Zm7.861-12.333a.5.5,0,0,1-.566-.824l3.3-2.262a.5.5,0,1,1,.566.824Zm10.979.481a.5.5,0,1,1,.566-.824l3.3,2.263a.5.5,0,0,1-.566.824ZM42,62.813v4a.5.5,0,0,1-1,0v-4a.5.5,0,0,1,1,0Z"/></g></g></g></svg>