<svg xmlns="http://www.w3.org/2000/svg" width="110" height="110" viewBox="0 0 110 110"><defs><style>.cls-1{fill:#fff;}.cls-2{fill:#af9c94;}</style></defs><title>Спина - Гладкая</title><g id="Спина"><g id="Гладкая"><g id="Цвет-25" data-name="Цвет"><path class="cls-1" d="M55,108.834A44.1,44.1,0,0,0,81.333,100L81.5,47.584c2.5,3,5.083,9.167,6.5,14.417l-3,39,11,1,6-26a53.12,53.12,0,0,0-3-32A154.762,154.762,0,0,0,87,18L68.063,10.094,67.917,9.5,65,3A22.358,22.358,0,0,0,55,1,22.358,22.358,0,0,0,45,3L42.083,9.5l-.146.593L23,18A154.762,154.762,0,0,0,11,44,53.12,53.12,0,0,0,8,76l6,26,11-1L22,62c1.417-5.25,4-11.417,6.5-14.417L28.667,100A44.1,44.1,0,0,0,55,108.834Z"/><path class="cls-2" d="M26.729,27.688l56.6-.187c-1.617,6.456-1.948,13.268-1.854,20.646.167,13.083.1,51.77.1,51.77-7.278,5.9-16.417,8.887-26.5,8.917a43.061,43.061,0,0,1-26.5-8.75s-.271-38.687-.1-51.937C28.57,40.944,28.4,34.146,26.729,27.688Z"/><path class="cls-1" d="M80.222,30.01a89.952,89.952,0,0,0-1.242,18.168c.148,11.612.114,43.852.106,50.521a39.463,39.463,0,0,1-24.009,7.635h-.137A40.588,40.588,0,0,1,31.075,98.8c-.044-6.774-.243-38.9-.1-50.626a90.2,90.2,0,0,0-1.134-18l50.377-.167m3.111-2.51-56.6.188c1.667,6.458,1.841,13.257,1.75,20.459-.167,13.25.1,51.937.1,51.937a43.049,43.049,0,0,0,26.356,8.75h.144c10.083-.03,19.222-3.014,26.5-8.917,0,0,.063-38.688-.1-51.77-.094-7.379.238-14.19,1.854-20.646Z"/></g><g id="Контур-25" data-name="Контур"><path d="M16.5,98.125a1,1,0,1,1-1-1A1,1,0,0,1,16.5,98.125ZM12.75,84.75a1,1,0,1,0,1,1A1,1,0,0,0,12.75,84.75Zm89.541-7.785-5.8,25.147A.5.5,0,0,1,96,102.5l-.046,0-11-1a.5.5,0,0,1-.453-.536L87.5,62.043A50.679,50.679,0,0,0,82,48.968V100a.5.5,0,0,1-.195.4c-8.013,6.173-19.236,8.937-26.805,8.937S36.208,106.57,28.195,100.4A.5.5,0,0,1,28,100V48.968a50.679,50.679,0,0,0-5.5,13.075l2.994,38.92a.5.5,0,0,1-.453.536l-11,1-.046,0a.5.5,0,0,1-.487-.388l-5.8-25.147a54.21,54.21,0,0,1,1.56-29.88,161.859,161.859,0,0,1,13.3-29.339.466.466,0,0,1,.039-.044,1.19,1.19,0,0,1,.2-.162L41.543,9.564a5.884,5.884,0,0,1,.356-1.04l2.646-5.733a.493.493,0,0,1,.188-.213C46.833,1.258,50.575.5,55,.5s8.167.757,10.266,2.077a.493.493,0,0,1,.188.213L68.1,8.524a5.884,5.884,0,0,1,.356,1.04L87.2,17.541a.488.488,0,0,1,.042.029.436.436,0,0,1,.153.133.465.465,0,0,1,.039.044,161.859,161.859,0,0,1,13.3,29.339A54.21,54.21,0,0,1,102.291,76.966ZM42.615,9.429H67.385a4.811,4.811,0,0,0-.193-.484l-2.583-5.6C62.64,2.173,59.153,1.5,55,1.5s-7.64.672-9.609,1.847l-2.583,5.6A4.811,4.811,0,0,0,42.615,9.429ZM23.683,18.254A47.094,47.094,0,0,1,27.01,27H82.99a47.094,47.094,0,0,1,3.327-8.747L67.934,10.429H42.066ZM12.662,93.979l3.7-.423L13.454,79.584a3.267,3.267,0,0,0-2.9-2.6L8.7,76.808Zm1.727,7.485,3.551-.323-1.374-6.6-3.678.42Zm10.075-.916-.527-6.85-6.372.728,1.379,6.624ZM28,47.059V44.5c0-12.855-2.369-19.9-5.034-25.431A161.758,161.758,0,0,0,10.215,47.412,53.2,53.2,0,0,0,8.48,75.782l2.164.206a4.265,4.265,0,0,1,3.789,3.393L17.36,93.442l6.5-.743L21.5,62.039a.508.508,0,0,1,.013-.158A52.3,52.3,0,0,1,27.952,47.11.471.471,0,0,1,28,47.059ZM81,44.5A68.571,68.571,0,0,1,82.738,28H27.262A68.571,68.571,0,0,1,29,44.5V99.754c7.813,5.925,18.662,8.58,26,8.58s18.188-2.655,26-8.58Zm7.5,17.538L86.14,92.7l6.5.743,2.927-14.061a4.265,4.265,0,0,1,3.789-3.393l2.164-.206a53.2,53.2,0,0,0-1.735-28.37A161.758,161.758,0,0,0,87.034,19.07C84.369,24.6,82,31.646,82,44.5v2.558a.461.461,0,0,1,.048.051,52.3,52.3,0,0,1,6.437,14.771A.508.508,0,0,1,88.5,62.039Zm12.8,14.769-1.85.176a3.267,3.267,0,0,0-2.9,2.6L93.638,93.556l3.7.423Zm-15.764,23.74,5.521.5,1.379-6.624L86.063,93.7ZM97.112,94.96l-3.678-.42-1.374,6.6,3.551.323ZM94.5,97.125a1,1,0,1,0,1,1A1,1,0,0,0,94.5,97.125ZM97.25,84.75a1,1,0,1,0,1,1A1,1,0,0,0,97.25,84.75Z"/></g></g></g></svg>