<?xml version="1.0" encoding="utf-8"?>
<!-- Generator: Adobe Illustrator 23.0.3, SVG Export Plug-In . SVG Version: 6.00 Build 0)  -->
<svg version="1.1" id="Слой_1" xmlns="http://www.w3.org/2000/svg" xmlns:xlink="http://www.w3.org/1999/xlink" x="0px" y="0px"
	 viewBox="0 0 90 90" enable-background="new 0 0 90 90" xml:space="preserve" width="90" height="90">
<g>
	<path fill="none" stroke="#E52421" stroke-width="1.9545443" stroke-miterlimit="10" d="M44.9999733,2
		C21.292345,2,2.0000248,21.2906666,2.0000248,45c0,23.714241,19.2923203,43,42.9999466,43
		c23.7142372,0,43.0000038-19.285759,43.0000038-43C87.9999771,21.2906666,68.7077026,2,44.9999733,2L44.9999733,2z M9.8774157,45
		c0-19.3694305,15.753129-35.1242599,35.1225586-35.1242599c8.7290268,0,16.7163277,3.2061062,22.8627052,8.4926825
		L18.3700981,67.8610001C13.081871,61.7146225,9.8774157,53.7289238,9.8774157,45L9.8774157,45z M44.9999733,80.1225586
		c-7.8067894,0-15.0230141-2.5645218-20.8624992-6.8896103l49.0954514-49.0955429
		C77.5597153,29.9753323,80.1225891,37.1931152,80.1225891,45C80.1225891,64.367775,64.3694534,80.1225586,44.9999733,80.1225586
		L44.9999733,80.1225586z"/>
</g>
</svg>
