<?xml version="1.0" encoding="utf-8"?>
<!-- Generator: Adobe Illustrator 23.0.3, SVG Export Plug-In . SVG Version: 6.00 Build 0)  -->
<svg version="1.1" id="Слой_1" xmlns="http://www.w3.org/2000/svg" xmlns:xlink="http://www.w3.org/1999/xlink" x="0px" y="0px"
	 viewBox="0 0 90 90" enable-background="new 0 0 90 90" xml:space="preserve" width="90" height="90">
<g>
	<path fill="none" stroke="#E42320" stroke-width="2" stroke-miterlimit="10" d="M45,2C21.2522278,2,2,21.2522278,2,45
		s19.2522278,43,43,43s43-19.2522278,43-43S68.7477722,2,45,2z M45,80.8333282
		C25.2102699,80.8333282,9.1666698,64.7897186,9.1666698,45S25.2102699,9.1666698,45,9.1666698S80.8333435,25.2102699,80.8333435,45
		S64.7897339,80.8333282,45,80.8333282z"/>
	<path fill="none" stroke="#E42320" stroke-width="2" stroke-miterlimit="10" d="M66.4992828,41.4166718H48.5833397V23.5
		c0-1.9790249-1.6043129-3.5833302-3.5833397-3.5833302c-1.9790154,0-3.5833282,1.6043053-3.5833282,3.5833302v17.9166718
		h-17.910223c-1.9790154,0-3.5833302,1.6043129-3.5833302,3.5833282s1.6043148,3.5833282,3.5833302,3.5833282h17.910223V66.5
		c0,1.9790115,1.6043129,3.5833282,3.5833282,3.5833282c1.9790268,0,3.5833397-1.6043167,3.5833397-3.5833282V48.5833282h17.9159431
		c1.9790115,0,3.5833282-1.6043129,3.5833282-3.5833282S68.4782944,41.4166718,66.4992828,41.4166718z"/>
</g>
</svg>
