<svg xmlns="http://www.w3.org/2000/svg" width="110" height="110" viewBox="0 0 110 110">
<style type="text/css">
	.st0{fill:#AF9C94;}
	.st1{fill:#FFFFFF;}
	.st2{fill:#020203;}
</style>
<path class="st0" d="M28.9925861,29.4190025l52.3719864-0.2302094c-1.4722595,6.2452049-2.1296768,12.6547585-1.9558716,19.0688019
	c0.1528625,12.0464592-0.1528625,48.2668648-0.1528625,48.2668648c-6.8904648,5.4504242-15.4660339,8.3271866-24.2494545,8.1347198
	c-8.7648201,0.0727997-17.3016777-2.7909698-24.2494621-8.1347198c0,0-0.30756-36.0657043-0.1528587-48.2668648
	C30.9018841,41.9344406,30.3600044,35.5997086,28.9925861,29.4190025z"/>
<path class="st1" d="M77.9279861,31.966053c-0.9762421,5.3851662-1.4081421,10.8548927-1.2891846,16.3265343
	c0.1344452,10.5731125-0.0902405,40.2223892-0.1418076,46.8745575c-6.2330551,4.5365601-13.7833443,6.9008331-21.490612,6.7295074
	h-0.1289177c-7.6611328,0.0597305-15.1427994-2.3182831-21.3635406-6.7902908
	c-0.0534096-6.7552948-0.2762527-36.1412163-0.1418114-46.8137779c0.1912384-5.3932533-0.1275635-10.7925148-0.9521523-16.1257896
	l45.5153961-0.2007427 M81.3719406,29.1887913l-52.3719864,0.2302094c1.3674183,6.1807079,1.9092999,12.51544,1.611475,18.8385944
	c-0.1602306,12.2011604,0.1454887,48.2668648,0.1454887,48.2668648c6.9143105,5.3177948,15.4034195,8.1801224,24.1260681,8.1347198
	h0.1289177c8.7815437,0.1911697,17.3549461-2.6855164,24.2439308-8.1347198c0,0,0.3075638-36.2204056,0.1528625-48.2668648
	c-0.1738052-6.4140434,0.4836121-12.823597,1.9558716-19.0688019L81.3719406,29.1887913z"/>
<path class="st2" d="M16.5612736,82.4815674c-0.508667,0-0.9209213,0.4122543-0.9209213,0.9208069
	c0,0.508667,0.4122543,0.9209213,0.9209213,0.9209213c0.5085526,0,0.920805-0.4122543,0.920805-0.9209213
	C17.4820786,82.8938217,17.0698261,82.4815674,16.5612736,82.4815674z"/>
<path class="st2" d="M55.0063477,105.0800781c-8.909668-0.1748047-17.440918-3.0185547-24.671875-8.2246094
	c-0.0976563-0.0742188-0.1606445-0.1992188-0.1606445-0.3310547V51.3017578l-0.9379883-0.2416992
	c-1.8144531,3.2895508-3.2207031,6.7973633-4.1796875,10.4272461l-0.0214844,0.0820313l2.7685547,35.84375
	c0.0180664,0.2294922-0.152832,0.4326172-0.3808594,0.453125l-10.1293945,0.9208984
	c-0.237793,0-0.40625-0.1347656-0.4506836-0.3271484l-5.3408203-23.1572266
	c-2.1123047-9.1279297-1.6162109-18.6347656,1.4345703-27.4921875c3.1665039-9.3696289,7.2851563-18.456543,12.2421875-27.0107422
	l0.0830078-0.081543l0.0380859-0.0200195l0.1035156-0.074707l17.2856445-7.3618164l0.0605469-0.2416992
	c0.0620117-0.2485352,0.1416016-0.4916992,0.2387695-0.7285156L45.4160156,7.03125
	c0.0341797-0.0742188,0.0898438-0.137207,0.1601563-0.1816406c2.6098633-1.2524414,5.5776367-1.9291992,8.53125-1.9291992
	c0.2919922,0,0.5844727,0.0063477,0.8769531,0.0195313c0.3398438-0.0131836,0.6347656-0.0200195,0.9296875-0.0200195
	c2.9501953,0,5.9150391,0.6757813,8.5742188,1.9545898c0.0185547,0.015625,0.0742188,0.0791016,0.109375,0.1542969
	l2.4355469,5.2783203c0.0888672,0.2177734,0.1679688,0.4628906,0.2304688,0.7119141l0.0605469,0.2407227l17.3222656,7.3701172
	l0.0957031,0.0712891l0.0283203,0.0395508l0.0878906,0.0927734c4.9384766,8.5224609,9.0546875,17.6088867,12.2177734,26.9746094
	c2.9472656,8.5795898,3.5,17.7993164,1.5966797,26.6665039l-0.0146484,0.0693359l0.0048828,0.0703125
	c0.0048828,0.0654297-0.0078125,0.1318359-0.0361328,0.1933594l-0.0224609,0.0478516c0,0-0.0742188,0.3837891-0.0888672,0.4433594
	l-5.3417969,23.1630859c-0.0439453,0.1914063-0.2128906,0.3251953-0.4111328,0.3251953L82.59375,97.8681641
	c-0.2304688-0.0205078-0.4023438-0.2236328-0.3847656-0.4541016l2.7695313-35.8486328l-0.0214844-0.0820313
	c-0.9599609-3.6318359-2.3662109-7.1396484-4.1806641-10.4267578l-0.9375,0.2416992v45.2260742
	c0,0.1318359-0.0625,0.2568359-0.1679688,0.3369141C72.4472656,102.0615234,63.9150391,104.9052734,55.0063477,105.0800781z
	 M29.4501953,30.3349609c1.125,4.9375,1.6552734,10.0092773,1.574707,15.074707v50.9145508l0.2128906,0.1494141
	c6.9975586,4.9091797,15.2128906,7.59375,23.7587891,7.7646484c8.5639648-0.1699219,16.7797852-2.8535156,23.7788086-7.7617188
	l0.2128906-0.1494141l-0.0019531-50.9057617C78.90625,40.3466797,79.4365234,35.2734375,80.5625,30.3349609l0.1396484-0.6113281
	H29.3105469L29.4501953,30.3349609z M16.1787109,91.8554688l1.3984375,6.0585938l4.328125-0.3886719l-1.2587891-6.1865234
	L16.1787109,91.8554688z M88.1865234,97.5244141l4.2460938,0.3857422l1.4023438-6.0546875l-4.3896484-0.5029297
	L88.1865234,97.5244141z M83.0839844,97.0644531l4.25,0.3867188L88.5947266,91.25l-5.0302734-0.5761719L83.0839844,97.0644531z
	 M21.4819336,91.2402344l1.2626953,6.203125l4.184082-0.3789063l-0.4926758-6.390625L21.4819336,91.2402344z M15.9882813,91.0244141
	l4.4848633-0.5126953l-2.3945313-11.7802734c-0.3886719-1.8769531-1.9301758-3.2578125-3.8369141-3.4365234l-1.921875-0.1767578
	L15.9882813,91.0244141z M95.8554688,75.2949219c-1.90625,0.1796875-3.4492188,1.5595703-3.8398438,3.4335938l-2.4023438,11.7841797
	l4.4111328,0.5058594l3.671875-15.8916016L95.8554688,75.2949219z M84.0761719,22.8120117
	c-2.1005859,4.5664063-4.2470703,10.8227539-4.2470703,22.6054688v2.3461914l0.0771484,0.1225586
	c2.6542969,4.1899414,4.6386719,8.7495117,5.8974609,13.5522461c0.0117188,0.0449219,0.015625,0.0878906,0.0126953,0.1318359
	l-2.1767578,28.2675781l5.1328125,0.5869141l2.4121094-11.8681641c0.4667969-2.2392578,2.3125-3.890625,4.5917969-4.1074219
	l2.0771484-0.1884766l0.0742188-0.3642578c1.7734375-8.5908203,1.2041016-17.5185547-1.6445313-25.815918
	c-2.9736328-8.7436523-6.78125-17.2578125-11.3173828-25.3051758l-0.4804688-0.8525391L84.0761719,22.8120117z
	 M25.0449219,22.7807617c-4.5351563,8.0463867-8.3422852,16.5610352-11.3164063,25.3066406
	c-2.847168,8.2944336-3.4169922,17.2192383-1.6459961,25.809082l0.0751953,0.3642578l2.1577148,0.1953125
	c2.277832,0.2158203,4.1230469,1.8671875,4.5883789,4.1103516l2.4121094,11.8486328L26.375,89.8378906l-2.1787109-28.2714844
	c-0.0039063-0.0478516-0.0004883-0.0908203,0.0097656-0.1308594c1.2573242-4.7949219,3.2416992-9.3535156,5.8974609-13.5463867
	l0.0776367-0.1225586v-2.3491211c0-11.7895508-2.1464844-18.0405273-4.246582-22.6000977l-0.4091797-0.8891602
	L25.0449219,22.7807617z M26.1181641,21.2290039l0.2294922,0.4726563c1.0620117,2.1879883,1.9443359,4.4824219,2.6235352,6.8203125
	l0.1044922,0.3603516h51.8608398l0.1054688-0.3603516c0.6806641-2.3417969,1.5644531-4.6362305,2.625-6.8198242l0.2304688-0.4726563
	L66.9277344,14.003418H43.0878906L26.1181641,21.2290039z M54.0458984,5.7568359
	c-2.6801758,0-5.2822266,0.5493164-7.7338867,1.6328125l-0.1728516,0.0766602l-2.6269531,5.6953125h22.9887695l-2.6279297-5.6933594
	l-0.1728516-0.0766602c-2.453125-1.0844727-5.0556641-1.6342773-7.7373047-1.6342773
	c-0.3271484,0-0.6547852,0.0083008-0.9824219,0.0249023C54.703125,5.765625,54.3745117,5.7568359,54.0458984,5.7568359z"/>
<path class="st2" d="M67.3681641,92.3359375c-0.2265625,0-0.4121094-0.1777344-0.4208984-0.4033203
	c-0.7363281-12.2636719-0.5566406-24.6777344,0.5322266-36.9086914c0.0224609-0.203125,0.2021484-0.3642578,0.4160156-0.3642578
	c0.2880859,0.0307617,0.4541016,0.2402344,0.4267578,0.4707031c-1.0859375,12.199707-1.2646484,24.5688477-0.5322266,36.7758789
	c0.0087891,0.2197266-0.1679688,0.4150391-0.3964844,0.4296875H67.3681641z"/>
<path class="st2" d="M90.9966202,95.7251511c0.5085526,0,0.9208069-0.4122543,0.9208069-0.9208069
	c0.0030899-0.5085526-0.4067535-0.9233246-0.9153061-0.9264221c-0.0018311,0-0.0036697,0-0.0055008,0v0.0055008
	c-0.5085526,0-0.9209213,0.4123688-0.9209213,0.9209213S90.4880676,95.7251511,90.9966202,95.7251511z"/>
<path class="st2" d="M19.0934906,93.8779221c-0.5085526,0-0.9208069,0.4122543-0.9208069,0.9208069
	c0,0.508667,0.4122543,0.9209213,0.9208069,0.9209213s0.9209194-0.4122543,0.9209194-0.9209213
	C20.01441,94.2901764,19.6020432,93.8779221,19.0934906,93.8779221z"/>
<path class="st2" d="M42.6044922,92.3320313c-0.2109375-0.0097656-0.3925781-0.2070313-0.3828125-0.4384766
	c0.734375-12.2011719,0.5581055-24.5703125-0.5244141-36.7558594c-0.0263672-0.2412109,0.140625-0.449707,0.3710938-0.4750977
	c0.0024414,0,0.0048828,0,0.0073242,0c0.2641602,0,0.4404297,0.1611328,0.4628906,0.3745117
	c1.0849609,12.2197266,1.2626953,24.6308594,0.5263672,36.8818359c-0.0097656,0.2353516-0.1948242,0.4130859-0.421875,0.4130859
	H42.6044922z"/>
<path class="st2" d="M93.5362854,82.4815674c-0.0024033,0-0.0049286,0-0.0073318,0v0.0073395
	c-0.508667,0-0.9209213,0.4123688-0.9209213,0.9209213s0.4122543,0.9208069,0.9209213,0.9208069
	c0.5085526,0,0.9207993-0.4122543,0.9207993-0.9208069C94.4537659,82.9012756,94.044838,82.4856949,93.5362854,82.4815674z"/>
</svg>
