<svg xmlns="http://www.w3.org/2000/svg" xmlns:xlink="http://www.w3.org/1999/xlink" width="55" height="55" viewBox="0 0 55 55"><defs><style>.cls-1{fill:url(#Безымянный_градиент_415);}.cls-2{fill:#af9c94;}.cls-3{fill:#fff;}</style><radialGradient id="Безымянный_градиент_415" cx="27.658" cy="0.387" r="54.159" gradientUnits="userSpaceOnUse"><stop offset="0.681" stop-color="#fff"/><stop offset="1" stop-color="#fff" stop-opacity="0"/></radialGradient></defs><title>Воротник</title><g id="Воротник"><path class="cls-1" d="M27.41,54.5c9.3,0,19.224-2.475,26.422-7.178V17.682l-3.775-1.671-.737-2.1L44.736,3.976C40.776,1.5,33.868.511,27.41.511S14.044,1.5,10.084,3.976L5.5,13.91l-.737,2.1L.988,17.682v29.64C8.186,52.025,18.105,54.5,27.41,54.5Z"/><rect class="cls-2" x="17" y="17" width="21" height="8.438"/><path class="cls-3" d="M36.5,18.5v5.438h-18V18.5h18M38,17H17v8.438H38V17Z"/><path class="cls-2" d="M10.084,3.976a9.985,9.985,0,0,0,4.393,8.261,34.773,34.773,0,0,1,12.685-2.5A32.171,32.171,0,0,1,40.4,12.3c2.919-2.336,4.465-5.08,4.332-8.323C40.611,1.408,33.269.539,27.575.5,21.716.462,14.622,1.284,10.084,3.976Z"/><path class="cls-3" d="M27.179,2h.386c6.568.044,12.323,1.1,15.664,2.841a8.326,8.326,0,0,1-3.081,5.708,34.5,34.5,0,0,0-12.853-2.31h-.137A36.222,36.222,0,0,0,14.747,10.53a8.338,8.338,0,0,1-3.123-5.688C15.191,3.029,20.784,2,27.179,2m0-1.5C21.4.5,14.52,1.344,10.084,3.976a9.985,9.985,0,0,0,4.393,8.261,34.773,34.773,0,0,1,12.685-2.5h.132A32.084,32.084,0,0,1,40.4,12.3c2.919-2.336,4.465-5.08,4.332-8.323C40.611,1.408,33.269.539,27.575.5Z"/><path class="cls-2" d="M23.079,17.125,16.024,37.3c-3.28-4.641-6.745-9.591-9.168-13.4C4.9,20.837,3.976,17.241,5.5,13.941l4.585-9.934C9.91,8.835,14.079,13.8,23.079,17.125Z"/><path class="cls-3" d="M9.587,8.664c1.756,3.688,5.754,6.937,11.6,9.333L15.571,34.051C12.8,30.108,10.1,26.2,8.121,23.1c-1.374-2.157-2.709-5.388-1.26-8.527L9.587,8.664m.5-4.657L5.5,13.941c-1.523,3.3-.6,6.9,1.357,9.961,2.424,3.8,5.889,8.755,9.168,13.4l7.054-20.173c-9-3.325-13.169-8.29-12.995-13.118Z"/><path class="cls-2" d="M31.812,17.125,38.867,37.3c3.28-4.641,6.745-9.591,9.168-13.4,1.953-3.065,2.88-6.661,1.357-9.961L44.807,4.007C44.981,8.835,40.812,13.8,31.812,17.125Z"/><path class="cls-3" d="M45.3,8.664l2.726,5.906c1.449,3.139.114,6.369-1.26,8.527-1.98,3.108-4.678,7.012-7.45,10.955L33.706,18c5.844-2.4,9.842-5.645,11.6-9.333m-.5-4.657c.174,4.828-4,9.792-12.995,13.118L38.867,37.3c3.28-4.641,6.745-9.591,9.168-13.4,1.953-3.065,2.88-6.661,1.357-9.961L44.807,4.007Z"/><circle class="cls-3" cx="27.41" cy="21.333" r="1.485"/><path d="M27.91,29.815V29.5a.5.5,0,0,0-1,0v.315a1.975,1.975,0,0,0,0,3.827v.314a.5.5,0,0,0,1,0v-.314a1.975,1.975,0,0,0,0-3.827Zm-.5,2.9h0a.985.985,0,1,1,.987-.985A.986.986,0,0,1,27.409,32.714ZM54.48,26.4l-5.832-2.568a12.1,12.1,0,0,0,1.955-7l3.48,1.479a.493.493,0,0,0,.2.04.5.5,0,0,0,.2-.96L50.457,15.69a8.588,8.588,0,0,0-.611-1.958L45.261,3.8a.5.5,0,0,0-.372-.28C41.287,1.308,34.932.042,27.41.042c-7.6,0-14.011,1.291-17.592,3.542-.012.008-.019.02-.03.028A.481.481,0,0,0,9.7,3.7a.473.473,0,0,0-.042.06A.47.47,0,0,0,9.63,3.8L5.045,13.731a8.575,8.575,0,0,0-.606,1.935c-.012,0-.025,0-.036.008L.525,17.321a.5.5,0,0,0,.2.96.493.493,0,0,0,.2-.04l3.373-1.433a12.073,12.073,0,0,0,1.937,7L.519,26.326a.5.5,0,0,0,.2.958.506.506,0,0,0,.2-.042l5.833-2.573c2.374,3.688,5.648,8.372,8.861,12.918a.5.5,0,0,0,.408.211.473.473,0,0,0,.069,0,.5.5,0,0,0,.4-.33l4-11.432H22.7V54.5a.5.5,0,0,0,1,0V26.031h7.416V54.5a.5.5,0,0,0,1,0V26.031H34.4l4,11.432a.5.5,0,0,0,.4.33.473.473,0,0,0,.069,0,.5.5,0,0,0,.408-.211c3.2-4.522,6.458-9.187,8.843-12.891l5.96,2.624a.5.5,0,1,0,.4-.915ZM44.3,4.33c-.008,2.627-1.347,5.139-3.848,7.365a35.869,35.869,0,0,0-26.033-.019c-2.5-2.232-3.833-4.752-3.828-7.386,3.471-2.065,9.569-3.249,16.82-3.249C34.708,1.042,40.84,2.24,44.3,4.33ZM31.718,16.625H23.173A29.271,29.271,0,0,1,15.3,12.409a34.919,34.919,0,0,1,24.276.018A29.324,29.324,0,0,1,31.718,16.625ZM15.873,36.216c-3.167-4.487-6.347-9.053-8.6-12.583-2.132-3.348-2.6-6.715-1.324-9.483L9.735,5.956c.874,4.566,5.375,8.658,12.711,11.465Zm7.561-18.591h.643a3.93,3.93,0,0,0-1.365,2.965v4.46H20.837Zm.259,7.425V20.59a2.973,2.973,0,0,1,2.879-2.965h4.887l2.6,7.425ZM39.018,36.216,35.235,25.4a.474.474,0,0,0-.025-.072l-2.765-7.906c7.336-2.808,11.836-6.9,12.71-11.465l3.782,8.195c1.278,2.769.809,6.137-1.324,9.483C45.351,27.186,42.176,31.743,39.018,36.216Zm-9.38-15.383h-.314a1.975,1.975,0,0,0-3.827,0h-.314a.5.5,0,0,0,0,1H25.5a1.976,1.976,0,0,0,3.827,0h.314a.5.5,0,0,0,0-1ZM27.41,22.318a.985.985,0,1,1,.985-.985A.987.987,0,0,1,27.41,22.318Z"/></g></svg>