<svg xmlns="http://www.w3.org/2000/svg" width="55" height="55" viewBox="0 0 55 55"><defs><style>.cls-1{fill:#fff;}.cls-2{fill:#af9c94;}</style></defs><title>Низ</title><g id="Низ"><path class="cls-1" d="M27.5,54.417A22.049,22.049,0,0,0,40.667,50l.083-26.208A21.85,21.85,0,0,1,44,31L42.5,50.5,48,51l3-13a26.56,26.56,0,0,0-1.5-16,77.381,77.381,0,0,0-6-13L34.031,5.047l-.073-.3L32.5,1.5a11.179,11.179,0,0,0-5-1,11.179,11.179,0,0,0-5,1L21.042,4.75l-.073.3L11.5,9a77.381,77.381,0,0,0-6,13A26.56,26.56,0,0,0,4,38L7,51l5.5-.5L11,31a21.85,21.85,0,0,1,3.25-7.208L14.333,50A22.049,22.049,0,0,0,27.5,54.417Z"/><path class="cls-2" d="M40.75,46.083A23.345,23.345,0,0,1,27.5,50.5a23.345,23.345,0,0,1-13.25-4.417V50A23.345,23.345,0,0,0,27.5,54.417,23.345,23.345,0,0,0,40.75,50Z"/><path class="cls-1" d="M27.4,2H27.6a10.181,10.181,0,0,1,3.763.639l1.167,2.6.04.165a1.5,1.5,0,0,0,.879,1.026l8.992,3.754a74.624,74.624,0,0,1,5.635,12.3q.015.043.032.085a25.191,25.191,0,0,1,1.427,15.094L46.833,49.388l-2.724-.248L45.5,31.115a1.5,1.5,0,0,0-.047-.506A23.4,23.4,0,0,0,41.9,22.832a1.5,1.5,0,0,0-2.652.956l-.081,25.457a20.374,20.374,0,0,1-23.338,0L15.75,23.787a1.5,1.5,0,0,0-2.652-.956A23.4,23.4,0,0,0,9.552,30.61a1.5,1.5,0,0,0-.047.506L10.891,49.14l-2.724.248-2.7-11.7A25.207,25.207,0,0,1,6.888,22.569q.017-.042.032-.085a74.624,74.624,0,0,1,5.635-12.3l8.992-3.754A1.5,1.5,0,0,0,22.425,5.4l.04-.165,1.167-2.6A10.181,10.181,0,0,1,27.4,2M27.6.5H27.4a11.106,11.106,0,0,0-4.9,1L21.042,4.75l-.073.3L11.5,9a77.381,77.381,0,0,0-6,13A26.56,26.56,0,0,0,4,38L7,51l5.5-.5L11,31a21.85,21.85,0,0,1,3.25-7.208L14.333,50a21.834,21.834,0,0,0,26.333,0l.083-26.208A21.85,21.85,0,0,1,44,31L42.5,50.5,48,51l3-13a26.56,26.56,0,0,0-1.5-16,77.381,77.381,0,0,0-6-13L34.031,5.047l-.073-.3L32.5,1.5a11.107,11.107,0,0,0-4.9-1Z"/><path d="M8.5,49.063a.5.5,0,1,1-.5-.5A.5.5,0,0,1,8.5,49.063ZM6.625,42.375a.5.5,0,1,0,.5.5A.5.5,0,0,0,6.625,42.375Zm44.807-4.054c-.016.072-.026.146-.042.218l-2.9,12.573A.5.5,0,0,1,48,51.5l-.046,0-5.5-.5A.5.5,0,0,1,42,50.462L43.5,31.042a24.623,24.623,0,0,0-2.245-5.6V50a.5.5,0,0,1-.195.4A23.994,23.994,0,0,1,27.5,54.917,23.994,23.994,0,0,1,13.945,50.4a.5.5,0,0,1-.195-.4V25.444a24.623,24.623,0,0,0-2.245,5.6L13,50.462a.5.5,0,0,1-.453.536l-5.5.5L7,51.5a.5.5,0,0,1-.487-.388l-2.9-12.573A27.363,27.363,0,0,1,4.4,23.461,81.181,81.181,0,0,1,11.069,8.746a.469.469,0,0,1,.039-.044.434.434,0,0,1,.154-.133A.489.489,0,0,1,11.3,8.54l9.277-3.949a3.253,3.253,0,0,1,.142-.434L22.046,1.29a.493.493,0,0,1,.188-.213A11.014,11.014,0,0,1,27.5,0a11.014,11.014,0,0,1,5.266,1.077.493.493,0,0,1,.188.213l1.323,2.867a3.253,3.253,0,0,1,.142.434L43.7,8.54a.548.548,0,0,1,.2.163.462.462,0,0,1,.039.043A81.181,81.181,0,0,1,50.6,23.461,27.351,27.351,0,0,1,51.475,38.1.488.488,0,0,1,51.432,38.321Zm-1.1.365-.627.057a2.086,2.086,0,0,0-1.844,1.65L46.615,46.5l1.861.212ZM21.683,4.464H33.317L32.111,1.85A10.119,10.119,0,0,0,27.5,1a10.119,10.119,0,0,0-4.611.85Zm-9.5,4.79A23.71,23.71,0,0,1,13.624,13H41.376a23.71,23.71,0,0,1,1.443-3.746l-8.9-3.79H21.084ZM6.524,46.715l1.9-.217L7.184,40.393a2.086,2.086,0,0,0-1.844-1.65l-.669-.06Zm.865,3.748L9.2,50.3l-.573-2.816L6.751,47.7Zm4.575-.416-.225-2.92-2.117.242.577,2.839Zm1.786-26.6v-1.2c0-6.036-1.05-9.486-2.281-12.158a80.979,80.979,0,0,0-6.125,13.7,26.343,26.343,0,0,0-.886,13.871l.971.088a3.093,3.093,0,0,1,2.734,2.447l1.259,6.191,2.24-.256L10.5,31.038a.508.508,0,0,1,.013-.158A26.381,26.381,0,0,1,13.75,23.446Zm26.5-1.2A34.647,34.647,0,0,1,41.112,14H13.888a34.647,34.647,0,0,1,.862,8.25v27.5A23,23,0,0,0,27.5,53.917a23,23,0,0,0,12.75-4.165ZM44.5,31.038l-1.161,15.09,2.281.26,1.26-6.2a3.093,3.093,0,0,1,2.734-2.447l.929-.084a26.344,26.344,0,0,0-.885-13.875,80.979,80.979,0,0,0-6.125-13.7C42.3,12.764,41.25,16.214,41.25,22.25v1.2a26.381,26.381,0,0,1,3.235,7.433A.508.508,0,0,1,44.5,31.038ZM43.036,50.047l1.8.164.577-2.838-2.157-.246ZM48.249,47.7l-1.834-.209L45.843,50.3l1.768.161Zm-1.208.866a.5.5,0,1,0,.5.5A.5.5,0,0,0,47.042,48.563Zm1.375-6.187a.5.5,0,1,0,.5.5A.5.5,0,0,0,48.417,42.375Z"/></g></svg>