<svg width="40" height="40" viewBox="0 0 40 40" fill="none" xmlns="http://www.w3.org/2000/svg">
<path d="M2 9.5L29.5 1L38.5 6.5L39 7L38 30.5L32.5 32.5L33 16.5L28 18.5V26.5L22 27.5L22.5 20L17 21.5L16 37.5L10.5 39L11.5 15.5L2 9.5Z" fill="white"/>
<path fill-rule="evenodd" clip-rule="evenodd" d="M38.2187 31.5994L32.8054 33.2556C32.5846 33.3334 32.3468 33.3126 32.1378 33.1919L23.4275 28.1594L22.3202 28.5029C22.093 28.5917 21.8552 28.5717 21.6463 28.451L17.5661 26.0936L16.9857 37.571C16.978 37.8894 16.7562 38.1721 16.4596 38.2796L16.4249 38.2889L11.0115 39.945C10.7843 40.0339 10.5466 40.0139 10.3376 39.8932L0.395504 34.1491C0.120554 33.9902 -0.0307952 33.668 0.00526108 33.3513L1.21068 9.17513C1.20184 9.03795 1.23869 8.89783 1.31489 8.76577C1.42283 8.57867 1.60141 8.44706 1.80958 8.39124L29.0233 0.0344218C29.2205 -0.027752 29.4409 -0.00312543 29.6232 0.087534L29.6562 0.106597L39.5983 5.8507C39.8732 6.00955 40.031 6.32078 39.9949 6.63745L38.7749 30.8642C38.7608 31.1936 38.5501 31.4827 38.2424 31.5838C38.2361 31.5948 38.2361 31.5948 38.2187 31.5994ZM33.9272 15.7815C34.0714 15.9382 34.1445 16.1418 34.1373 16.3577L33.3876 31.4068L37.219 30.2306L38.3465 7.63822L12.6869 15.5137L11.5593 38.1061L15.3907 36.9299L16.1676 21.3248C16.177 20.978 16.4005 20.6669 16.7365 20.5675L22.1908 18.8911L22.2082 18.8864C22.2949 18.8632 22.3863 18.8573 22.4714 18.8624C22.8965 18.8879 23.2383 19.2614 23.2174 19.7043L22.8683 26.6636L26.6996 25.4874L27.0701 17.9829C27.0796 17.6361 27.303 17.325 27.639 17.2256L33.0934 15.5492L33.1281 15.5399L33.1281 15.5399C33.2085 15.5276 33.2889 15.5154 33.3739 15.5205C33.5896 15.5278 33.783 15.6248 33.9272 15.7815ZM3.99109 9.38864L12.0415 14.0398L37.2031 6.31661L29.1527 1.66544L3.99109 9.38864Z" fill="black"/>
</svg>
