<svg width="125"  viewBox="0 0 635 203" fill="none" xmlns="http://www.w3.org/2000/svg">
<g clip-path="url(#clip0_100_3953)">
<path d="M10.1498 48.2125L149.712 5.07505L195.387 32.9875L197.925 35.525L192.85 154.788L164.937 164.938L167.475 83.7375L142.1 93.8876V134.488L111.65 139.563L114.187 101.5L86.2748 109.113L81.1998 190.313L53.2873 197.925L58.3623 78.6625L10.1498 48.2125Z" fill="white"/>
<path fill-rule="evenodd" clip-rule="evenodd" d="M193.96 160.367L166.488 168.772C165.367 169.167 164.16 169.062 163.1 168.449L118.895 142.909L113.275 144.652C112.122 145.103 110.915 145.001 109.855 144.389L89.1478 132.425L86.2023 190.673C86.1632 192.289 85.0376 193.724 83.5323 194.269L83.3562 194.316L55.8836 202.721C54.7305 203.172 53.5238 203.071 52.4633 202.458L2.00718 173.307C0.611812 172.5 -0.156286 170.865 0.0267 169.258L6.14419 46.5638C6.09932 45.8676 6.28636 45.1565 6.67305 44.4863C7.22087 43.5368 8.12714 42.8688 9.18361 42.5856L147.293 0.17469C148.294 -0.140842 149.413 -0.0158616 150.338 0.444235L150.505 0.540977L200.961 29.6923C202.357 30.4985 203.157 32.078 202.974 33.6851L196.783 156.636C196.711 158.308 195.642 159.775 194.08 160.288C194.048 160.344 194.048 160.344 193.96 160.367ZM172.18 80.0909C172.912 80.8861 173.283 81.9198 173.247 83.0155L169.442 159.39L188.886 153.42L194.609 38.764L64.3859 78.732L58.6634 193.388L78.1076 187.419L82.0506 108.223C82.0984 106.463 83.2326 104.885 84.9375 104.38L112.619 95.8722L112.707 95.8486C113.147 95.7306 113.611 95.7007 114.042 95.7266C116.2 95.8562 117.934 97.7519 117.828 99.9993L116.056 135.318L135.501 129.348L137.381 91.263C137.429 89.5034 138.563 87.9245 140.268 87.4201L167.949 78.9121L168.125 78.8649L168.125 78.8649C168.533 78.8027 168.941 78.7406 169.372 78.7665C170.467 78.8034 171.449 79.2958 172.18 80.0909ZM20.2548 47.6473L61.1106 71.252L188.806 32.0568L147.95 8.4521L20.2548 47.6473Z" fill="black"/>
<mask id="path-3-outside-1_100_3953" maskUnits="userSpaceOnUse" x="241.6" y="58.9" width="395" height="81" fill="black">
<rect fill="white" x="241.6" y="58.9" width="395" height="81"/>
<path d="M298.471 70.4473V61.2147H243.6V136.439H299.31V127.521H253.567V101.922H295.114V93.214H253.567V70.4473H298.471Z"/>
<path d="M341.695 83.247C338.862 81.4634 335.295 80.6241 331.099 80.6241C323.545 80.6241 317.774 83.5618 313.683 89.3321C309.591 95.2074 307.493 102.132 307.493 110.21C307.493 118.708 309.801 125.528 314.207 130.669C318.719 135.81 324.069 138.433 330.154 138.433C333.931 138.433 337.289 137.593 340.226 136.124C343.164 134.656 345.682 132.138 347.885 128.78V136.439H356.174V60.9H347.256V88.5977C345.157 86.0797 343.374 84.2962 341.695 83.247ZM321.027 124.374C318.509 120.492 317.25 115.561 317.25 109.686C317.25 102.761 318.719 97.5155 321.656 93.9484C324.489 90.4862 328.266 88.5977 332.882 88.5977C337.079 88.5977 340.541 90.2763 343.374 93.6336C346.207 96.9909 347.675 102.132 347.675 109.056C347.675 115.876 346.207 121.121 343.584 124.794C340.751 128.466 337.289 130.354 332.987 130.354C327.532 130.354 323.545 128.361 321.027 124.374Z"/>
<path d="M379.115 71.6014V61.2147H369.672V71.6014H379.115ZM379.115 136.439V81.7782H369.672V136.439H379.115Z"/>
<path d="M398.491 119.233H389.573C389.887 124.689 391.671 129.305 395.028 132.977C398.491 136.649 404.261 138.537 412.444 138.537C419.998 138.537 425.559 136.754 429.336 133.187C433.008 129.725 434.896 125.423 434.896 120.597C434.896 115.456 433.113 111.784 429.546 109.476C427.237 108.007 422.831 106.328 416.221 104.755L410.136 103.286C407.408 102.656 405.415 101.922 404.051 101.083C401.638 99.6138 400.484 97.7253 400.484 95.3123C400.484 93.1091 401.428 91.3255 403.212 90.0665C404.995 88.7026 407.618 88.0731 411.08 88.0731C416.326 88.0731 419.998 89.2272 422.097 91.6402C423.355 93.3189 424.195 95.2074 424.3 97.3057H433.008C433.113 93.8435 432.063 90.4862 429.755 87.4436C426.083 82.5126 420.103 80.0995 411.815 80.0995C405.52 80.0995 400.484 81.7782 396.812 84.9256C393.035 88.178 391.146 92.3746 391.146 97.5155C391.146 101.922 393.14 105.384 397.127 107.902C399.33 109.371 402.792 110.63 407.408 111.784L414.752 113.672C418.739 114.617 421.257 115.456 422.621 116.295C424.719 117.449 425.769 119.233 425.769 121.646C425.769 124.794 424.51 126.997 421.887 128.466C419.264 129.934 416.326 130.774 412.864 130.774C407.094 130.774 403.107 129.305 400.799 126.262C399.435 124.689 398.7 122.276 398.491 119.233Z"/>
<path d="M485.465 87.024C480.639 82.3028 474.659 79.9946 467.525 79.9946C459.656 79.9946 453.361 82.7224 448.745 88.178C444.024 93.6336 441.716 100.978 441.716 110.21C441.716 118.813 443.919 125.633 448.325 130.774C452.837 135.915 458.817 138.433 466.371 138.433C475.394 138.433 482.108 135.6 486.41 129.829C490.711 123.954 492.81 116.715 492.81 107.902C492.81 98.6696 490.397 91.7452 485.465 87.024ZM479.8 123.535C477.492 128.151 473.295 130.459 467.21 130.459C461.65 130.459 457.558 128.57 455.04 124.689C452.417 120.807 451.158 115.876 451.158 110.105C451.158 103.915 452.417 98.7745 455.04 94.473C457.558 90.1714 461.65 88.0731 467.315 88.0731C473.61 88.0731 478.121 90.5911 480.744 95.627C482.423 98.8794 483.157 102.971 483.157 108.112C483.157 113.777 482.108 118.918 479.8 123.535Z"/>
<path d="M512.498 89.3321V81.5684H503.686V136.439H512.918V107.692C512.918 104.125 513.233 101.397 513.653 99.404C514.177 97.5155 515.121 95.627 516.59 93.8435C518.584 91.5353 520.787 90.0665 523.305 89.3321C524.669 88.8075 526.452 88.5977 528.655 88.5977C532.957 88.5977 536 90.3813 537.573 93.7386C538.518 95.8369 539.042 98.5647 539.042 101.817V136.439H548.484V101.292C548.484 95.7319 547.645 91.4304 546.176 88.4928C543.449 83.0372 538.203 80.3094 530.439 80.3094C526.872 80.3094 523.619 81.0438 520.787 82.4077C517.849 83.8765 515.121 86.1846 512.498 89.3321Z"/>
<path d="M600.626 71.6014V61.2147H591.183V71.6014H600.626ZM600.626 136.439V81.7782H591.183V136.439H600.626Z"/>
<path d="M625.667 81.5684V66.2507H616.33V81.5684H608.881V89.1223H616.33V125.423C616.33 128.99 617.064 131.823 618.638 134.026C620.211 136.229 623.044 137.278 627.346 137.278C628.71 137.278 629.969 137.278 631.123 137.069C632.277 136.964 633.326 136.754 634.375 136.439V129.2C633.746 129.2 633.116 129.305 632.591 129.305H631.228C629.549 129.305 628.29 129.095 627.556 128.78C626.297 128.046 625.667 126.787 625.667 124.898V89.1223H634.375V81.5684H625.667Z"/>
</mask>
<path d="M298.471 70.4473V61.2147H243.6V136.439H299.31V127.521H253.567V101.922H295.114V93.214H253.567V70.4473H298.471Z" fill="black"/>
<path d="M341.695 83.247C338.862 81.4634 335.295 80.6241 331.099 80.6241C323.545 80.6241 317.774 83.5618 313.683 89.3321C309.591 95.2074 307.493 102.132 307.493 110.21C307.493 118.708 309.801 125.528 314.207 130.669C318.719 135.81 324.069 138.433 330.154 138.433C333.931 138.433 337.289 137.593 340.226 136.124C343.164 134.656 345.682 132.138 347.885 128.78V136.439H356.174V60.9H347.256V88.5977C345.157 86.0797 343.374 84.2962 341.695 83.247ZM321.027 124.374C318.509 120.492 317.25 115.561 317.25 109.686C317.25 102.761 318.719 97.5155 321.656 93.9484C324.489 90.4862 328.266 88.5977 332.882 88.5977C337.079 88.5977 340.541 90.2763 343.374 93.6336C346.207 96.9909 347.675 102.132 347.675 109.056C347.675 115.876 346.207 121.121 343.584 124.794C340.751 128.466 337.289 130.354 332.987 130.354C327.532 130.354 323.545 128.361 321.027 124.374Z" fill="black"/>
<path d="M379.115 71.6014V61.2147H369.672V71.6014H379.115ZM379.115 136.439V81.7782H369.672V136.439H379.115Z" fill="black"/>
<path d="M398.491 119.233H389.573C389.887 124.689 391.671 129.305 395.028 132.977C398.491 136.649 404.261 138.537 412.444 138.537C419.998 138.537 425.559 136.754 429.336 133.187C433.008 129.725 434.896 125.423 434.896 120.597C434.896 115.456 433.113 111.784 429.546 109.476C427.237 108.007 422.831 106.328 416.221 104.755L410.136 103.286C407.408 102.656 405.415 101.922 404.051 101.083C401.638 99.6138 400.484 97.7253 400.484 95.3123C400.484 93.1091 401.428 91.3255 403.212 90.0665C404.995 88.7026 407.618 88.0731 411.08 88.0731C416.326 88.0731 419.998 89.2272 422.097 91.6402C423.355 93.3189 424.195 95.2074 424.3 97.3057H433.008C433.113 93.8435 432.063 90.4862 429.755 87.4436C426.083 82.5126 420.103 80.0995 411.815 80.0995C405.52 80.0995 400.484 81.7782 396.812 84.9256C393.035 88.178 391.146 92.3746 391.146 97.5155C391.146 101.922 393.14 105.384 397.127 107.902C399.33 109.371 402.792 110.63 407.408 111.784L414.752 113.672C418.739 114.617 421.257 115.456 422.621 116.295C424.719 117.449 425.769 119.233 425.769 121.646C425.769 124.794 424.51 126.997 421.887 128.466C419.264 129.934 416.326 130.774 412.864 130.774C407.094 130.774 403.107 129.305 400.799 126.262C399.435 124.689 398.7 122.276 398.491 119.233Z" fill="black"/>
<path d="M485.465 87.024C480.639 82.3028 474.659 79.9946 467.525 79.9946C459.656 79.9946 453.361 82.7224 448.745 88.178C444.024 93.6336 441.716 100.978 441.716 110.21C441.716 118.813 443.919 125.633 448.325 130.774C452.837 135.915 458.817 138.433 466.371 138.433C475.394 138.433 482.108 135.6 486.41 129.829C490.711 123.954 492.81 116.715 492.81 107.902C492.81 98.6696 490.397 91.7452 485.465 87.024ZM479.8 123.535C477.492 128.151 473.295 130.459 467.21 130.459C461.65 130.459 457.558 128.57 455.04 124.689C452.417 120.807 451.158 115.876 451.158 110.105C451.158 103.915 452.417 98.7745 455.04 94.473C457.558 90.1714 461.65 88.0731 467.315 88.0731C473.61 88.0731 478.121 90.5911 480.744 95.627C482.423 98.8794 483.157 102.971 483.157 108.112C483.157 113.777 482.108 118.918 479.8 123.535Z" fill="black"/>
<path d="M512.498 89.3321V81.5684H503.686V136.439H512.918V107.692C512.918 104.125 513.233 101.397 513.653 99.404C514.177 97.5155 515.121 95.627 516.59 93.8435C518.584 91.5353 520.787 90.0665 523.305 89.3321C524.669 88.8075 526.452 88.5977 528.655 88.5977C532.957 88.5977 536 90.3813 537.573 93.7386C538.518 95.8369 539.042 98.5647 539.042 101.817V136.439H548.484V101.292C548.484 95.7319 547.645 91.4304 546.176 88.4928C543.449 83.0372 538.203 80.3094 530.439 80.3094C526.872 80.3094 523.619 81.0438 520.787 82.4077C517.849 83.8765 515.121 86.1846 512.498 89.3321Z" fill="black"/>
<path d="M600.626 71.6014V61.2147H591.183V71.6014H600.626ZM600.626 136.439V81.7782H591.183V136.439H600.626Z" fill="black"/>
<path d="M625.667 81.5684V66.2507H616.33V81.5684H608.881V89.1223H616.33V125.423C616.33 128.99 617.064 131.823 618.638 134.026C620.211 136.229 623.044 137.278 627.346 137.278C628.71 137.278 629.969 137.278 631.123 137.069C632.277 136.964 633.326 136.754 634.375 136.439V129.2C633.746 129.2 633.116 129.305 632.591 129.305H631.228C629.549 129.305 628.29 129.095 627.556 128.78C626.297 128.046 625.667 126.787 625.667 124.898V89.1223H634.375V81.5684H625.667Z" fill="black"/>
<path d="M298.471 70.4473V61.2147H243.6V136.439H299.31V127.521H253.567V101.922H295.114V93.214H253.567V70.4473H298.471Z" stroke="black" stroke-width="2.62289" mask="url(#path-3-outside-1_100_3953)"/>
<path d="M341.695 83.247C338.862 81.4634 335.295 80.6241 331.099 80.6241C323.545 80.6241 317.774 83.5618 313.683 89.3321C309.591 95.2074 307.493 102.132 307.493 110.21C307.493 118.708 309.801 125.528 314.207 130.669C318.719 135.81 324.069 138.433 330.154 138.433C333.931 138.433 337.289 137.593 340.226 136.124C343.164 134.656 345.682 132.138 347.885 128.78V136.439H356.174V60.9H347.256V88.5977C345.157 86.0797 343.374 84.2962 341.695 83.247ZM321.027 124.374C318.509 120.492 317.25 115.561 317.25 109.686C317.25 102.761 318.719 97.5155 321.656 93.9484C324.489 90.4862 328.266 88.5977 332.882 88.5977C337.079 88.5977 340.541 90.2763 343.374 93.6336C346.207 96.9909 347.675 102.132 347.675 109.056C347.675 115.876 346.207 121.121 343.584 124.794C340.751 128.466 337.289 130.354 332.987 130.354C327.532 130.354 323.545 128.361 321.027 124.374Z" stroke="black" stroke-width="2.62289" mask="url(#path-3-outside-1_100_3953)"/>
<path d="M379.115 71.6014V61.2147H369.672V71.6014H379.115ZM379.115 136.439V81.7782H369.672V136.439H379.115Z" stroke="black" stroke-width="2.62289" mask="url(#path-3-outside-1_100_3953)"/>
<path d="M398.491 119.233H389.573C389.887 124.689 391.671 129.305 395.028 132.977C398.491 136.649 404.261 138.537 412.444 138.537C419.998 138.537 425.559 136.754 429.336 133.187C433.008 129.725 434.896 125.423 434.896 120.597C434.896 115.456 433.113 111.784 429.546 109.476C427.237 108.007 422.831 106.328 416.221 104.755L410.136 103.286C407.408 102.656 405.415 101.922 404.051 101.083C401.638 99.6138 400.484 97.7253 400.484 95.3123C400.484 93.1091 401.428 91.3255 403.212 90.0665C404.995 88.7026 407.618 88.0731 411.08 88.0731C416.326 88.0731 419.998 89.2272 422.097 91.6402C423.355 93.3189 424.195 95.2074 424.3 97.3057H433.008C433.113 93.8435 432.063 90.4862 429.755 87.4436C426.083 82.5126 420.103 80.0995 411.815 80.0995C405.52 80.0995 400.484 81.7782 396.812 84.9256C393.035 88.178 391.146 92.3746 391.146 97.5155C391.146 101.922 393.14 105.384 397.127 107.902C399.33 109.371 402.792 110.63 407.408 111.784L414.752 113.672C418.739 114.617 421.257 115.456 422.621 116.295C424.719 117.449 425.769 119.233 425.769 121.646C425.769 124.794 424.51 126.997 421.887 128.466C419.264 129.934 416.326 130.774 412.864 130.774C407.094 130.774 403.107 129.305 400.799 126.262C399.435 124.689 398.7 122.276 398.491 119.233Z" stroke="black" stroke-width="2.62289" mask="url(#path-3-outside-1_100_3953)"/>
<path d="M485.465 87.024C480.639 82.3028 474.659 79.9946 467.525 79.9946C459.656 79.9946 453.361 82.7224 448.745 88.178C444.024 93.6336 441.716 100.978 441.716 110.21C441.716 118.813 443.919 125.633 448.325 130.774C452.837 135.915 458.817 138.433 466.371 138.433C475.394 138.433 482.108 135.6 486.41 129.829C490.711 123.954 492.81 116.715 492.81 107.902C492.81 98.6696 490.397 91.7452 485.465 87.024ZM479.8 123.535C477.492 128.151 473.295 130.459 467.21 130.459C461.65 130.459 457.558 128.57 455.04 124.689C452.417 120.807 451.158 115.876 451.158 110.105C451.158 103.915 452.417 98.7745 455.04 94.473C457.558 90.1714 461.65 88.0731 467.315 88.0731C473.61 88.0731 478.121 90.5911 480.744 95.627C482.423 98.8794 483.157 102.971 483.157 108.112C483.157 113.777 482.108 118.918 479.8 123.535Z" stroke="black" stroke-width="2.62289" mask="url(#path-3-outside-1_100_3953)"/>
<path d="M512.498 89.3321V81.5684H503.686V136.439H512.918V107.692C512.918 104.125 513.233 101.397 513.653 99.404C514.177 97.5155 515.121 95.627 516.59 93.8435C518.584 91.5353 520.787 90.0665 523.305 89.3321C524.669 88.8075 526.452 88.5977 528.655 88.5977C532.957 88.5977 536 90.3813 537.573 93.7386C538.518 95.8369 539.042 98.5647 539.042 101.817V136.439H548.484V101.292C548.484 95.7319 547.645 91.4304 546.176 88.4928C543.449 83.0372 538.203 80.3094 530.439 80.3094C526.872 80.3094 523.619 81.0438 520.787 82.4077C517.849 83.8765 515.121 86.1846 512.498 89.3321Z" stroke="black" stroke-width="2.62289" mask="url(#path-3-outside-1_100_3953)"/>
<path d="M600.626 71.6014V61.2147H591.183V71.6014H600.626ZM600.626 136.439V81.7782H591.183V136.439H600.626Z" stroke="black" stroke-width="2.62289" mask="url(#path-3-outside-1_100_3953)"/>
<path d="M625.667 81.5684V66.2507H616.33V81.5684H608.881V89.1223H616.33V125.423C616.33 128.99 617.064 131.823 618.638 134.026C620.211 136.229 623.044 137.278 627.346 137.278C628.71 137.278 629.969 137.278 631.123 137.069C632.277 136.964 633.326 136.754 634.375 136.439V129.2C633.746 129.2 633.116 129.305 632.591 129.305H631.228C629.549 129.305 628.29 129.095 627.556 128.78C626.297 128.046 625.667 126.787 625.667 124.898V89.1223H634.375V81.5684H625.667Z" stroke="black" stroke-width="2.62289" mask="url(#path-3-outside-1_100_3953)"/>
</g>
<defs>
<clipPath id="clip0_100_3953">
<rect width="634.375" height="203" fill="white"/>
</clipPath>
</defs>
</svg>
