<svg xmlns="http://www.w3.org/2000/svg" xmlns:xlink="http://www.w3.org/1999/xlink" width="110" height="110" viewBox="0 0 110 110"><defs><style>.cls-1{fill:url(#Безымянный_градиент_315);}.cls-2{fill:#af9c94;}</style><radialGradient id="Безымянный_градиент_315" cx="33.083" cy="0.583" r="107.754" gradientUnits="userSpaceOnUse"><stop offset="0.622" stop-color="#fff"/><stop offset="1" stop-color="#fff" stop-opacity="0"/></radialGradient></defs><title>Контрасты - Цвет паты, если короткий рукав</title><g id="Контрасты"><g id="Цвет_паты_если_короткий_рукав" data-name="Цвет паты, если короткий рукав"><g id="Цвет-65" data-name="Цвет"><path class="cls-1" d="M57.605,17.778l-.277-1.127L51.786,4.3C46.262,1.618,39.869.456,32.786.5c-7.082-.045-13.475,1.117-19,3.8L8.245,16.651l-.277,1.127L2,20.27v85.25A109.005,109.005,0,0,0,33,110,108.527,108.527,0,0,0,83,97.876l.018-9.858,3.444,7.719L109.5,64.446A337.93,337.93,0,0,0,93.586,32.8Z"/><polygon class="cls-2" points="103.25 50.625 101.25 57.75 106.125 69 109.5 64.25 103.25 50.625"/></g><g id="Контур-65" data-name="Контур"><path d="M109.928,64.067a284.367,284.367,0,0,0-15.91-31.521.451.451,0,0,0-.041-.045.431.431,0,0,0-.152-.131.481.481,0,0,0-.044-.03L58.037,17.257c-.012-.005-.025,0-.037-.007a9.376,9.376,0,0,0-.694-2.265L52.278,4.091A.5.5,0,0,0,51.9,3.81C47.955,1.389,40.992,0,32.748,0,24.424,0,17.4,1.414,13.482,3.878c-.013.008-.021.022-.033.031a.483.483,0,0,0-.084.08.476.476,0,0,0-.042.062.423.423,0,0,0-.028.04L8.267,14.984a9.371,9.371,0,0,0-.694,2.264c-.007,0-.015,0-.022,0L.32,20.033A.5.5,0,0,0,.5,21a.508.508,0,0,0,.18-.033l6.761-2.6a13.228,13.228,0,0,0,2.152,7.681L.3,30.041A.5.5,0,0,0,.5,31a.486.486,0,0,0,.2-.041l9.427-4.052c2.617,4.068,6.209,9.207,9.731,14.189a.5.5,0,0,0,.408.211.539.539,0,0,0,.069,0,.5.5,0,0,0,.4-.331l4.523-12.98h1.754a.458.458,0,0,0-.012.061v81.6a.5.5,0,0,0,1,0v-81.6a.458.458,0,0,0-.012-.061h9.024a.49.49,0,0,0-.012.06v81.6a.5.5,0,0,0,1,0V28.05a.49.49,0,0,0-.012-.06h2.327l4.524,12.98a.5.5,0,0,0,.4.331.552.552,0,0,0,.069,0,.5.5,0,0,0,.408-.212c3.523-4.985,7.116-10.126,9.728-14.185l33.63,14.832c-3.662,9.625-6.441,22.128-6.441,41.408v24.1a.5.5,0,0,0,1,0V90.467l2.438,5.593a.5.5,0,0,0,.4.3l.054,0a.5.5,0,0,0,.4-.206L109.873,64.56A.5.5,0,0,0,109.928,64.067ZM51.316,4.628c0,2.883-1.527,5.653-4.383,8.109a39.331,39.331,0,0,0-28.318-.021c-2.854-2.463-4.371-5.241-4.361-8.131C18.063,2.307,24.771,1,32.748,1,40.775,1,47.521,2.323,51.316,4.628ZM37.443,18H28.129a33.025,33.025,0,0,1-8.613-4.557,38.36,38.36,0,0,1,26.515.02A33.077,33.077,0,0,1,37.443,18Zm-9.052,1h.316a4.509,4.509,0,0,0-.456.4ZM20.11,39.725c-3.4-4.816-6.815-9.718-9.3-13.591a.475.475,0,0,0-.013-.062.49.49,0,0,0-.147-.185l-.024-.037C8.283,22.164,7.767,18.455,9.175,15.4l4.219-9.14c.9,4.952,5.873,9.43,14.01,12.532ZM27,22.991V27.01H25.6Zm1,4.019V22.5A3.5,3.5,0,0,1,31.5,19h5.681l2.792,8.01ZM45.463,39.725,38.169,18.8c8.138-3.1,13.106-7.58,14.011-12.532L56.4,15.4c1.409,3.051.893,6.76-1.455,10.444l-.023.036a.488.488,0,0,0-.146.182.47.47,0,0,0-.015.067C52.283,30,48.865,34.9,45.463,39.725ZM55.978,26.052a13.24,13.24,0,0,0,2.156-7.668L92.9,33.055c-1.194,2.411-2.364,4.963-3.464,7.755ZM90.095,41.884a.424.424,0,0,0,.176-.452c1.062-2.725,2.194-5.219,3.35-7.572,3.142,5.382,6.163,11.019,9.041,16.861a.483.483,0,0,0-.058.113l-1.9,6.769a.5.5,0,0,0,.023.336l1.389,3.16c-.011.012-.025.019-.035.032L83.637,87.37V83.15C83.637,63.879,86.429,51.446,90.095,41.884ZM86.642,94.858l-2.7-6.187,18.639-26.513,2.9,6.586c.014.033.045.049.065.076ZM106.2,67.91,101.716,57.7l1.593-5.675q2.9,5.957,5.588,12.177ZM35.786,22.5h-.551a2.5,2.5,0,0,0-4.9,0h-.551a.5.5,0,1,0,0,1h.551a2.5,2.5,0,0,0,4.9,0h.551a.5.5,0,0,0,0-1Zm-3,2a1.5,1.5,0,1,1,1.5-1.5A1.5,1.5,0,0,1,32.786,24.5ZM33,32.252V31.7a.5.5,0,0,0-1,0v.551a2.5,2.5,0,0,0,0,4.9V37.7a.5.5,0,1,0,1,0v-.551a2.5,2.5,0,0,0,0-4.9ZM32.5,36.2A1.5,1.5,0,1,1,34,34.7,1.5,1.5,0,0,1,32.5,36.2ZM33,81.652V81.1a.5.5,0,0,0-1,0v.551a2.5,2.5,0,0,0,0,4.9V87.1a.5.5,0,0,0,1,0v-.551a2.5,2.5,0,0,0,0-4.9ZM32.5,85.6A1.5,1.5,0,1,1,34,84.1,1.5,1.5,0,0,1,32.5,85.6Zm.5-28.65V56.4a.5.5,0,0,0-1,0v.551a2.5,2.5,0,0,0,0,4.9V62.4a.5.5,0,0,0,1,0v-.551a2.5,2.5,0,0,0,0-4.9ZM32.5,60.9A1.5,1.5,0,1,1,34,59.4,1.5,1.5,0,0,1,32.5,60.9Z"/></g></g></g></svg>