<svg xmlns="http://www.w3.org/2000/svg" xmlns:xlink="http://www.w3.org/1999/xlink" width="110" height="110" viewBox="0 0 110 110"><defs><style>.cls-1{fill:url(#Безымянный_градиент_232);}.cls-2{fill:#af9c94;}</style><radialGradient id="Безымянный_градиент_232" cx="80.625" cy="26.182" r="110.629" gradientUnits="userSpaceOnUse"><stop offset="0.699" stop-color="#fff"/><stop offset="1" stop-color="#fff" stop-opacity="0"/></radialGradient></defs><title>Контрасты - Цвет паты, если сафари</title><g id="Контрасты"><g id="Цвет_паты_если_сафари" data-name="Цвет паты, если сафари"><g id="Цвет-64" data-name="Цвет"><path class="cls-1" d="M72.438,96.75V70.063L84.375,96.625l25-9.875A364.681,364.681,0,0,0,80.563,25.938L52.188,14.063l-.375-1.437-4.125-9.25C42.863,1.013,37.778.472,32.563.5c-5.731.031-10.879.666-14.937,3.063L13.5,12.313,13.063,14,1.875,18.75V104.5C23.5,111.25,50,111.25,72.438,96.75Z"/><polygon class="cls-2" points="109.375 86.75 103.813 72.5 101.25 76.25 106 88.25 109.375 86.75"/></g><g id="Контур-64" data-name="Контур"><path d="M33,25.571v-.6a.5.5,0,0,0-1,0v.6a1.99,1.99,0,0,0,0,3.858v.6a.5.5,0,0,0,1,0v-.6a1.99,1.99,0,0,0,0-3.858ZM32.5,28.5a1,1,0,1,1,1-1A1,1,0,0,1,32.5,28.5ZM33,45.071v-.6a.5.5,0,0,0-1,0v.6a1.99,1.99,0,0,0,0,3.858v.6a.5.5,0,0,0,1,0v-.6a1.99,1.99,0,0,0,0-3.858ZM32.5,48a1,1,0,1,1,1-1A1,1,0,0,1,32.5,48ZM33,64.571v-.6a.5.5,0,0,0-1,0v.6a1.99,1.99,0,0,0,0,3.858v.6a.5.5,0,0,0,1,0v-.6a1.99,1.99,0,0,0,0-3.858ZM32.5,67.5a1,1,0,1,1,1-1A1,1,0,0,1,32.5,67.5ZM33,84.071v-.6a.5.5,0,0,0-1,0v.6a1.99,1.99,0,0,0,0,3.858v.6a.5.5,0,0,0,1,0v-.6a1.99,1.99,0,0,0,0-3.858ZM32.5,87a1,1,0,1,1,1-1A1,1,0,0,1,32.5,87Zm.5,16.571v-.6a.5.5,0,0,0-1,0v.6a1.99,1.99,0,0,0,0,3.858v.6a.5.5,0,0,0,1,0v-.6a1.99,1.99,0,0,0,0-3.858Zm-.5,2.929a1,1,0,1,1,1-1A1,1,0,0,1,32.5,106.5Zm77.468-19.8a398.743,398.743,0,0,0-28.911-60.95.472.472,0,0,0-.039-.044.483.483,0,0,0-.067-.075.488.488,0,0,0-.083-.057.475.475,0,0,0-.049-.034l-28.2-11.9a7.506,7.506,0,0,0-.542-1.749l-3.969-8.6a.494.494,0,0,0-.355-.274C44.626,1.1,39.115,0,32.595,0,26,0,20.439,1.121,17.329,3.077c-.012.007-.018.02-.029.028a.476.476,0,0,0-.09.085.464.464,0,0,0-.04.058.454.454,0,0,0-.029.042l-3.969,8.6a7.508,7.508,0,0,0-.542,1.75L.581,18.725a.5.5,0,0,0,.389.922L12.5,14.782a10.609,10.609,0,0,0,1.669,5.841l-13.594,6a.5.5,0,1,0,.4.914L14.7,21.482c2.05,3.18,4.868,7.212,7.634,11.126a.5.5,0,0,0,.408.212.515.515,0,0,0,.066,0,.5.5,0,0,0,.4-.324l3.467-9.5H28V109.5a.5.5,0,0,0,1,0V22.99h7V109.5a.5.5,0,0,0,1,0V22.99h1.721l3.32,9.5a.5.5,0,0,0,.4.33.552.552,0,0,0,.069,0,.5.5,0,0,0,.408-.212c2.766-3.915,5.584-7.947,7.634-11.127L76.944,33.12C74.128,40.637,72,50.477,72,65.749V109.5a.5.5,0,0,0,1,0V72.307L83.792,96.949a.5.5,0,0,0,.64.266l25.25-9.875A.5.5,0,0,0,109.968,86.7ZM47.151,3.827a9.581,9.581,0,0,1-2.926,6.427.485.485,0,0,0-.134-.091,31.149,31.149,0,0,0-22.989,0,9.574,9.574,0,0,1-3-6.368C21.1,2.02,26.344,1,32.595,1,38.885,1,44.163,2.032,47.151,3.827ZM36.536,15H28.97A22.051,22.051,0,0,1,21.9,10.926a30.138,30.138,0,0,1,21.568.067A21.306,21.306,0,0,1,36.536,15ZM22.595,31.252c-2.652-3.761-5.3-7.57-7.221-10.562a.451.451,0,0,0-.011-.049.492.492,0,0,0-.133-.174l-.008-.012c-1.833-2.878-2.238-5.771-1.143-8.146l3.185-6.9c.871,4.129,4.946,8.04,10.972,10.384ZM28,19.357V22.01h-.968Zm8.548,2.653a.125.125,0,0,0-.1,0H29V18.5A2.5,2.5,0,0,1,31.5,16h4.776l2.1,6.01Zm6.116,9.229-5.4-15.443C44.188,13.109,47.271,8.976,47.99,5.418l3.18,6.891c1.1,2.376.69,5.269-1.143,8.146l-.006.01a.492.492,0,0,0-.134.175.448.448,0,0,0-.011.05C47.961,23.679,45.314,27.482,42.664,31.238Zm8.419-10.616a10.608,10.608,0,0,0,1.669-5.841L79.94,26.253c-.908,1.84-1.795,3.8-2.632,5.935ZM73,69.832V65.749c0-15.321,2.157-25.1,4.992-32.567a.461.461,0,0,0,.09-.105.487.487,0,0,0,.037-.227c.8-2.085,1.661-3.99,2.537-5.785a395.77,395.77,0,0,1,22.469,45.166l-2.3,3.757a.506.506,0,0,0-.039.444l1.095,2.8-20.894,8.82L73.021,69.861C73.016,69.85,73.006,69.843,73,69.832Zm8.387,19.132,20.857-8.8,3.061,7.818L84.516,96.108Zm24.85-1.351L101.807,76.3l1.792-2.922c1.824,4.372,3.59,8.773,5.26,13.212ZM35.031,18.5h-.6a1.99,1.99,0,0,0-3.858,0h-.6a.5.5,0,0,0,0,1h.6a1.99,1.99,0,0,0,3.858,0h.6a.5.5,0,0,0,0-1ZM32.5,20a1,1,0,1,1,1-1A1,1,0,0,1,32.5,20Z"/></g></g></g></svg>