<svg xmlns="http://www.w3.org/2000/svg" viewBox="0 0 124.94 154"><defs><style>.cls-1{fill:#a8a8a8;}</style></defs><title>Ресурс 111</title><g id="Слой_2" data-name="Слой 2"><g id="Слой_1-2" data-name="Слой 1"><path class="cls-1" d="M62.47,53.3A2.48,2.48,0,0,0,60,55.78v1.74h-.1a2.48,2.48,0,0,0,0,5h5.17a2.48,2.48,0,0,0,0-5H65V55.78a2.48,2.48,0,0,0-2.48-2.48Zm0,0"/><path class="cls-1" d="M43.36,39.12a2.49,2.49,0,0,0,2.35,1.67H60v5.88h-.1a2.48,2.48,0,0,0,0,5h5.17a2.48,2.48,0,0,0,0-5H65V40.79H79.24a2.48,2.48,0,0,0,2.34-1.67l3.63-10.41a2.48,2.48,0,0,0-2.35-3.3H65V20.15A10.77,10.77,0,0,0,73.22,9.69V5h.83a2.48,2.48,0,0,0,0-5H50.89a2.48,2.48,0,0,0,0,5h.83V9.69A10.77,10.77,0,0,0,60,20.15v5.26H42.08a2.48,2.48,0,0,0-2.34,3.3ZM56.68,9.69V5H68.25V9.69a5.79,5.79,0,1,1-11.57,0ZM79.37,30.38l-1.9,5.44h-30l-1.89-5.44Zm0,0"/><path class="cls-1" d="M122.46,57.21h-1.6v-8a2.48,2.48,0,0,0-5,0v8h-1.6a2.48,2.48,0,0,0-2.48,2.48V96.92a2.48,2.48,0,0,0,2.48,2.48h1.6v37.48a4.69,4.69,0,0,1-9.38,0V65.73A12.39,12.39,0,0,0,94.13,53.35a12,12,0,0,0-6,1.5,2.48,2.48,0,0,0-3.56,2.92C81.16,61.09,74.32,68,71.2,71.17A15,15,0,0,0,65,68.58v-2a2.48,2.48,0,0,0-5,0v2a15,15,0,0,0-6.24,2.59c-3.12-3.17-10-10.08-13.37-13.4a2.48,2.48,0,0,0-3.56-2.92,12,12,0,0,0-6-1.5A12.39,12.39,0,0,0,18.43,65.73v71.15a4.69,4.69,0,0,1-9.38,0V99.4h1.6a2.48,2.48,0,0,0,2.48-2.48V59.69a2.48,2.48,0,0,0-2.48-2.48H9.05v-8a2.48,2.48,0,0,0-5,0v8H2.48A2.48,2.48,0,0,0,0,59.69V96.92A2.48,2.48,0,0,0,2.48,99.4h1.6v37.48a9.66,9.66,0,0,0,19.32,0V65.73a7.52,7.52,0,0,1,10.14-6.94,2.48,2.48,0,0,0,3.36,2.54c3.07,3,9.49,9.46,13.32,13.35A15,15,0,0,0,51.3,93.53h-.19a2.48,2.48,0,0,0,0,5h.83v15.09a22,22,0,0,0-11.4,19.24V149h-.83a2.48,2.48,0,0,0,0,5H85.23a2.48,2.48,0,0,0,0-5H84.4V132.82A22,22,0,0,0,73,113.59V98.5h.83a2.48,2.48,0,0,0,0-5h-.19a15,15,0,0,0,1.08-18.85C78.55,70.79,85,64.32,88,61.33a2.48,2.48,0,0,0,2.64-.56,2.48,2.48,0,0,0,.72-2,7.53,7.53,0,0,1,10.14,6.94v71.15a9.66,9.66,0,0,0,19.32,0V99.4h1.6a2.48,2.48,0,0,0,2.48-2.48V59.69a2.48,2.48,0,0,0-2.48-2.48Zm-114.29,5V94.44H5V62.17Zm54.3,31.36A10.09,10.09,0,1,1,72.56,83.43,10.11,10.11,0,0,1,62.47,93.53Zm7,23.85a17,17,0,0,1,9.95,15.44V149H45.51V132.82A17,17,0,0,1,55,117.6h5.59a2.48,2.48,0,0,0,0-5H56.91V98.5H68v16.62a2.48,2.48,0,0,0,1.46,2.26Zm47.29-22.94V62.17H120V94.44Zm0,0"/></g></g></svg>