<svg xmlns="http://www.w3.org/2000/svg" viewBox="0 0 97.75 155.78"><defs><style>.cls-1{fill:none;stroke:#a8a8a8;stroke-miterlimit:10;stroke-width:3.56px;}.cls-2{fill:#a8a8a8;}</style></defs><title>Ресурс 113</title><g id="Слой_2" data-name="Слой 2"><g id="Слой_1-2" data-name="Слой 1"><path class="cls-1" d="M96,67.42c-1.8-5.68-2-5.8-8.28-5.8H10.47C2.07,61.62,0,64.83,3.22,72.86a8.57,8.57,0,0,0,.9,1.68c4.79,6.95,9.38,14.05,14.54,20.72,2.28,2.95,2.72,4.86.38,7.9-3.88,5.05-4.72,10.91-.8,16.13,2.6,3.47,6.31,6.27,10,8.74,2.35,1.59,2.56,2.83,1.46,5.08C27.74,137,26,141,24.18,145c-2.41,5.4-.14,8.9,5.85,9,4.86.06,9.73,0,14.59,0,7.35,0,14.71,0,22.06,0,7.1,0,9.19-3.7,5.88-10.16-1.28-2.5-2.51-5-3.54-7.66-2.45-6.23-2.54-6.16,2.66-9.51,9-5.8,11.73-13.17,7.86-21.48-.69-1.48-1.94-2.7-2.57-4.2-.39-.93-.58-2.5-.07-3.18,4.94-6.54,10.06-13,15.22-19.54l1.51-2.47A16.05,16.05,0,0,0,96,67.42Z"/><path class="cls-2" d="M44.12,12.32c-3,6.92,0,11.54,2.93,16.4,2.59,4.33,5.21,9,3,14.33-1,2.37-2.81,4.4-4.4,6.81-.65-.84-.91-1.08-.87-1.16,3.24-6.44,1-12.07-2.41-17.64-2.19-3.54-3.94-7.3-3.41-11.7C39.27,16.48,40.77,14.5,44.12,12.32Z"/><path class="cls-2" d="M49.72,23.76c2.68-5.39-.78-9.39-2.85-13.64C45.18,6.67,45.16,3.61,49,0c-1.88,6.52,2.49,10.22,4.12,14.9C54.41,18.58,53.58,21.06,49.72,23.76Z"/></g></g></svg>