<svg xmlns="http://www.w3.org/2000/svg" viewBox="0 0 190.05 79"><defs><style>.cls-1{fill:#b492c1;}.cls-2{fill:#83cadf;}.cls-3{fill:#48423b;}</style></defs><title>Ресурс 114</title><g id="Слой_2" data-name="Слой 2"><g id="Слой_1-2" data-name="Слой 1"><path class="cls-1" d="M70.28,64.15c-.32,0-.65,0-1,0a.7.7,0,0,0-.76.66.71.71,0,0,0,.66.76c.35,0,.71,0,1.07,0a15.39,15.39,0,0,0,4.5-.67,9,9,0,0,1-8.26,12.67H65a82.42,82.42,0,0,1-1.88-9.89,1.24,1.24,0,0,0-1.38-1.08c-.27-4.62,1.54-6.23,4.51-8.88a37.61,37.61,0,0,0,4.13-4.12c2.32-2.8,4.14-7.21,2.26-11.21a8.79,8.79,0,0,0-8.19-5.06c-6.33,0-8.63,4-10.47,7.22-.32.56-.62,1.09-.94,1.58h0l-2.57,4.1-3.24-.13V46a.71.71,0,0,0-.44-.66l-.57-.23V42.29a4.58,4.58,0,0,0,0-8.52V29.44a.2.2,0,0,1,.2-.2h6.83a4.79,4.79,0,0,0,3.32-1.33l.65-.61a1.08,1.08,0,0,0-.74-1.86h-9a.25.25,0,0,1-.25-.25V24.8a.89.89,0,0,1,.53-.81,5.66,5.66,0,0,0,3.45-5.5v-2a.71.71,0,0,0-.71-.71H36.67a.71.71,0,0,0-.71.71v2A5.66,5.66,0,0,0,39.41,24a.89.89,0,0,1,.53.81v.39a.25.25,0,0,1-.25.25h-9A1.08,1.08,0,0,0,30,27.3l.65.61a4.79,4.79,0,0,0,3.32,1.33h6.83a.2.2,0,0,1,.2.2v4.24a4.61,4.61,0,0,0,0,8.71v2.71l-.57.23a.71.71,0,0,0-.44.66v4.13l-3.24.13-2.57-4.1a.71.71,0,0,0-1-.24L30.8,47.27a.71.71,0,0,0-.25,1l3.51,5.66A16,16,0,0,1,35.9,62c0,9.27-3.31,14.4-4.15,15.55H25.23A12.13,12.13,0,0,1,13.12,65.46a12,12,0,0,1,1.11-5.07A12.48,12.48,0,0,0,21,59.46a.71.71,0,0,0-.57-1.31,11.08,11.08,0,0,1-6.26.78.71.71,0,0,0-.41-.07,11.09,11.09,0,0,1,0-21.72.71.71,0,0,0-.29-1.4,12.34,12.34,0,0,0-1.8.52,7.6,7.6,0,0,1,7.26-12.93,9.92,9.92,0,0,0,2.71,3.08.71.71,0,1,0,.85-1.14,8.48,8.48,0,0,1-2.41-2.8.71.71,0,0,0-.08-.14A8.48,8.48,0,0,1,27.55,10a8.35,8.35,0,0,1,5.7,2.23c0,.22,0,.45.06.67a.71.71,0,1,0,1.41-.18A10,10,0,1,1,54.2,14.24a.71.71,0,0,0,1.37.41,11.49,11.49,0,0,0,.41-2,6.73,6.73,0,0,1,7.59,10,.71.71,0,1,0,1.22.74A8.14,8.14,0,0,0,66,19.12c0-.07,0-.14,0-.2a9.85,9.85,0,0,1,9.43,16.65,15.36,15.36,0,0,0-5.1-.87c-.45,0-.91,0-1.37.06A.71.71,0,1,0,69,36.18c.41,0,.83-.05,1.24-.05a14,14,0,0,1,0,28Z"/><path class="cls-1" d="M3.09,37.08a1.66,1.66,0,1,1,1.66-1.66A1.66,1.66,0,0,1,3.09,37.08Z"/><path class="cls-1" d="M68.41,12.55a.89.89,0,1,1-.89.89A.89.89,0,0,1,68.41,12.55Z"/><path class="cls-1" d="M7.24,64.15a1.07,1.07,0,1,1,1.07-1.07A1.07,1.07,0,0,1,7.24,64.15Z"/><path class="cls-1" d="M55.37,77.57c-.84-1.15-4.15-6.25-4.15-15.55a15.93,15.93,0,0,1,1.85-8.12l3.5-5.63c.67-1,1.2-1.84,1.67-2.62,1.77-2.9,2.57-4.23,6.52-4.23a4.18,4.18,0,0,1,4,2.78c1,2.18-.2,4.87-1.68,6.66a33.74,33.74,0,0,1-3.68,3.66C60.24,57.33,57,60.21,57.45,67a1.24,1.24,0,0,0-1,1.36,86.33,86.33,0,0,0,1.64,9.18Z"/><path class="cls-2" d="M36.32,77.57c1.31-2.09,3.71-7,3.85-14.84H47c.14,7.88,2.54,12.76,3.85,14.84Z"/><path class="cls-3" d="M31.43,12.43a7.2,7.2,0,0,0-11.09,6.06,7.25,7.25,0,0,0,.34,2.21A.71.71,0,0,0,22,20.26a5.79,5.79,0,0,1,5.51-7.55,5.75,5.75,0,0,1,3.12.91.71.71,0,0,0,.77-1.2Z"/><path class="cls-3" d="M47.54,3.91A.71.71,0,0,0,47,3a8.8,8.8,0,0,0-8.36,2,.71.71,0,1,0,1,1,7.37,7.37,0,0,1,7-1.69A.71.71,0,0,0,47.54,3.91Z"/><path class="cls-3" d="M49.45,4.14a.71.71,0,1,0-.78,1.19A7.21,7.21,0,0,1,50,6.44a.71.71,0,0,0,1-1A8.64,8.64,0,0,0,49.45,4.14Z"/><path class="cls-3" d="M11.34,29a.71.71,0,0,0-.82.58,6.37,6.37,0,0,0-.09,1.07q0,.23,0,.45a.71.71,0,0,0,.71.66h.05a.71.71,0,0,0,.66-.76c0-.12,0-.23,0-.35a5,5,0,0,1,.07-.83A.71.71,0,0,0,11.34,29Z"/><path class="cls-3" d="M16.78,24.3a6.37,6.37,0,0,0-5.51,3.2.71.71,0,0,0,1.24.71,4.94,4.94,0,0,1,4.27-2.48.71.71,0,0,0,0-1.43Z"/><path class="cls-3" d="M16,56.39A8.4,8.4,0,0,1,7.58,48a.71.71,0,1,0-1.43,0A9.83,9.83,0,0,0,16,57.82a.71.71,0,0,0,0-1.43Z"/><path class="cls-3" d="M70.16,21.41a7.21,7.21,0,0,1,5.24,4.67.71.71,0,0,0,1.35-.46A8.65,8.65,0,0,0,70.46,20a.71.71,0,0,0-.31,1.39Z"/><path class="cls-3" d="M82.9,48.29a.71.71,0,1,0-1.41.21A11.33,11.33,0,0,1,75.85,60a.71.71,0,0,0,.7,1.24A12.75,12.75,0,0,0,82.9,48.29Z"/><path class="cls-3" d="M72.1,61.32c-.31,0-.62.09-.92.11a.71.71,0,0,0,.05,1.42h.06c.34,0,.69-.07,1-.12a.71.71,0,1,0-.23-1.41Z"/><path class="cls-3" d="M85.72,50.14a15.46,15.46,0,0,0-8.91-14,11.28,11.28,0,0,0-11-18.67A8.13,8.13,0,0,0,56,11.17a11.41,11.41,0,0,0-22.78-.74,9.77,9.77,0,0,0-5.71-1.84,9.91,9.91,0,0,0-9.36,13.13,9,9,0,0,0-8,15.17A12.51,12.51,0,0,0,12.8,60.1,13.54,13.54,0,0,0,25.23,79H32.1l.15,0h0l.11,0,0,0,.08,0,0,0,.07-.06,0,0c.19-.22,4.68-5.61,4.68-16.73,0-5.67-2-8.76-2.07-8.87l-3.11-5,1.14-.66,2.43,3.87a.72.72,0,0,0,.63.33l4.33-.18a.71.71,0,0,0,.68-.71V46.46l.57-.23h0l.13-.07h0l.09-.07,0-.06,0-.05,0-.06,0-.07a.72.72,0,0,0,0-.11v0a.71.71,0,0,0,0-.14h0V41.86a.71.71,0,0,0-.67-.71A3.47,3.47,0,0,1,39.28,38a3.51,3.51,0,0,1,2.61-3.19h0l.08,0,0,0,.07-.05,0,0,.06-.06,0,0,0-.08,0,0,0-.09v0a.71.71,0,0,0,0-.09V34.2s0,0,0,0V29.44a1.63,1.63,0,0,0-1.62-1.63H33.92a3.37,3.37,0,0,1-2.33-.93l0,0h8.12a1.68,1.68,0,0,0,1.68-1.68V24.8A2.31,2.31,0,0,0,40,22.69a4.24,4.24,0,0,1-2.6-4.2V17.22H49.68v1.27a4.24,4.24,0,0,1-2.6,4.2A2.31,2.31,0,0,0,45.7,24.8v.39a1.68,1.68,0,0,0,1.68,1.68h8.18l0,0a3.37,3.37,0,0,1-2.33.93H46.37a1.63,1.63,0,0,0-1.62,1.63v4.8a.71.71,0,0,0,.05.27h0l.05.09,0,0,.05.06,0,0,0,0,.07.06h0l.11.06h0A3.49,3.49,0,0,1,47.64,38a3.5,3.5,0,0,1-2.52,3.16.71.71,0,0,0-.43.91.69.69,0,0,0,.06.11v3.36h0a.71.71,0,0,0,0,.14v0a.72.72,0,0,0,0,.11l0,.07,0,.06,0,.05,0,.06.09.07h0l.13.07h0l.57.23V50.8a.71.71,0,0,0,.68.71l4.33.18h0a.71.71,0,0,0,.6-.33L54.2,46.9h0c.33-.51.64-1.06,1-1.63,1.75-3.05,3.73-6.51,9.23-6.51A7.31,7.31,0,0,1,71.31,43c1.59,3.39-.12,7.34-2.07,9.69a36.41,36.41,0,0,1-4,4c-3.11,2.77-5.35,4.78-5,10.25A1.24,1.24,0,0,0,61.69,68a84,84,0,0,0,2,10.42v0a.71.71,0,0,0,.09.2h0a.71.71,0,0,0,.14.15l0,0a.7.7,0,0,0,.18.09h0a.71.71,0,0,0,.21,0h2.13a10.45,10.45,0,0,0,9.6-14.57A15.46,15.46,0,0,0,85.72,50.14Zm-15.44,14c-.32,0-.65,0-1,0a.7.7,0,0,0-.76.66.71.71,0,0,0,.66.76c.35,0,.71,0,1.07,0a15.39,15.39,0,0,0,4.5-.67,9,9,0,0,1-8.26,12.67H65a82.42,82.42,0,0,1-1.88-9.89,1.24,1.24,0,0,0-1.38-1.08c-.27-4.62,1.54-6.23,4.51-8.88a37.61,37.61,0,0,0,4.13-4.12c2.32-2.8,4.14-7.21,2.26-11.21a8.79,8.79,0,0,0-8.19-5.06c-6.33,0-8.63,4-10.47,7.22-.32.56-.62,1.09-.94,1.58h0l-2.57,4.1-3.24-.13V46a.71.71,0,0,0-.44-.66l-.57-.23V42.29a4.58,4.58,0,0,0,0-8.52V29.44a.2.2,0,0,1,.2-.2h6.83a4.79,4.79,0,0,0,3.32-1.33l.65-.61a1.08,1.08,0,0,0-.74-1.86h-9a.25.25,0,0,1-.25-.25V24.8a.89.89,0,0,1,.53-.81,5.66,5.66,0,0,0,3.45-5.5v-2a.71.71,0,0,0-.71-.71H36.67a.71.71,0,0,0-.71.71v2A5.66,5.66,0,0,0,39.41,24a.89.89,0,0,1,.53.81v.39a.25.25,0,0,1-.25.25h-9A1.08,1.08,0,0,0,30,27.3l.65.61a4.79,4.79,0,0,0,3.32,1.33h6.83a.2.2,0,0,1,.2.2v4.24a4.61,4.61,0,0,0,0,8.71v2.71l-.57.23a.71.71,0,0,0-.44.66v4.13l-3.24.13-2.57-4.1a.71.71,0,0,0-1-.24L30.8,47.27a.71.71,0,0,0-.25,1l3.51,5.66A16,16,0,0,1,35.9,62c0,9.27-3.31,14.4-4.15,15.55H25.23A12.13,12.13,0,0,1,13.12,65.46a12,12,0,0,1,1.11-5.07A12.48,12.48,0,0,0,21,59.46a.71.71,0,0,0-.57-1.31,11.08,11.08,0,0,1-6.26.78.71.71,0,0,0-.41-.07,11.09,11.09,0,0,1,0-21.72.71.71,0,0,0-.29-1.4,12.34,12.34,0,0,0-1.8.52,7.6,7.6,0,0,1,7.26-12.93,9.92,9.92,0,0,0,2.71,3.08.71.71,0,1,0,.85-1.14,8.48,8.48,0,0,1-2.41-2.8.71.71,0,0,0-.08-.14A8.48,8.48,0,0,1,27.55,10a8.35,8.35,0,0,1,5.7,2.23c0,.22,0,.45.06.67a.71.71,0,1,0,1.41-.18A10,10,0,1,1,54.2,14.24a.71.71,0,0,0,1.37.41,11.49,11.49,0,0,0,.41-2,6.73,6.73,0,0,1,7.59,10,.71.71,0,1,0,1.22.74A8.14,8.14,0,0,0,66,19.12c0-.07,0-.14,0-.2a9.85,9.85,0,0,1,9.43,16.65,15.36,15.36,0,0,0-5.1-.87c-.45,0-.91,0-1.37.06A.71.71,0,1,0,69,36.18c.41,0,.83-.05,1.24-.05a14,14,0,0,1,0,28Z"/><path class="cls-3" d="M27.55,74.88H25.23a9.47,9.47,0,0,1-8.82-6.12.71.71,0,1,0-1.33.5,10.91,10.91,0,0,0,10.16,7h2.32a.71.71,0,1,0,0-1.43Z"/><path class="cls-3" d="M65.82,75.59a.71.71,0,0,0,.71.71,7.79,7.79,0,0,0,6.26-3.18.71.71,0,1,0-1.15-.84,6.36,6.36,0,0,1-5.11,2.59A.71.71,0,0,0,65.82,75.59Z"/><path class="cls-3" d="M58.76,13.74a.71.71,0,0,0-.25,1.4,4,4,0,0,1,3.33,4,.71.71,0,1,0,1.43,0A5.45,5.45,0,0,0,58.76,13.74Z"/><path class="cls-3" d="M6.18,35.41A3.09,3.09,0,1,0,3.09,38.5,3.09,3.09,0,0,0,6.18,35.41ZM3.09,37.08a1.66,1.66,0,1,1,1.66-1.66A1.66,1.66,0,0,1,3.09,37.08Z"/><path class="cls-3" d="M68.41,15.76a2.32,2.32,0,1,0-2.32-2.32A2.32,2.32,0,0,0,68.41,15.76Zm0-3.21a.89.89,0,1,1-.89.89A.89.89,0,0,1,68.41,12.55Z"/><path class="cls-3" d="M7.24,60.59a2.49,2.49,0,1,0,2.49,2.49A2.5,2.5,0,0,0,7.24,60.59Zm0,3.56a1.07,1.07,0,1,1,1.07-1.07A1.07,1.07,0,0,1,7.24,64.15Z"/><path class="cls-3" d="M57.9,68.42a1.23,1.23,0,0,0,.67-.39,1.26,1.26,0,0,0,.31-.92c-.46-6.25,2.27-8.68,5.44-11.51a34.87,34.87,0,0,0,3.82-3.81C70.43,49,71.13,46,70,43.61A5.62,5.62,0,0,0,64.76,40C60,40,58.89,41.85,57,44.91c-.46.76-1,1.63-1.64,2.57v0h0l-3.49,5.62c-.08.13-2.08,3.21-2.08,8.88,0,11.12,4.49,16.51,4.68,16.73l0,0,.07.06,0,0,.08,0,0,0,.11,0h0L55,79h4a.71.71,0,0,0,.69-.88A85.72,85.72,0,0,1,57.9,68.42Zm-2.53,9.16c-.84-1.15-4.15-6.25-4.15-15.55a15.93,15.93,0,0,1,1.85-8.12l3.5-5.63c.67-1,1.2-1.84,1.67-2.62,1.77-2.9,2.57-4.23,6.52-4.23a4.18,4.18,0,0,1,4,2.78c1,2.18-.2,4.87-1.68,6.66a33.74,33.74,0,0,1-3.68,3.66C60.24,57.33,57,60.21,57.45,67a1.24,1.24,0,0,0-1,1.36,86.33,86.33,0,0,0,1.64,9.18Z"/><path class="cls-3" d="M48.37,62a.71.71,0,0,0-.71-.71H39.46a.71.71,0,0,0-.71.71c0,10.55-4.3,15.75-4.34,15.8A.71.71,0,0,0,35,79H52.17a.71.71,0,0,0,.54-1.17C52.67,77.77,48.37,72.57,48.37,62Zm-12,15.55c1.31-2.09,3.71-7,3.85-14.84H47c.14,7.88,2.54,12.76,3.85,14.84Z"/><path class="cls-3" d="M44,7.58A2,2,0,0,0,44.95,6a.71.71,0,1,0-1.43,0c0,.16-.06.23-.4.5a2,2,0,0,0-.94,1.62,2,2,0,0,0,.94,1.62c.34.27.4.34.4.5s-.06.23-.4.5a2,2,0,0,0-.94,1.62,2,2,0,0,0,.94,1.62c.34.27.4.34.4.5a.71.71,0,1,0,1.43,0A2,2,0,0,0,44,12.82c-.34-.27-.4-.34-.4-.5s.06-.23.4-.5a2,2,0,0,0,.94-1.62A2,2,0,0,0,44,8.58c-.34-.27-.4-.34-.4-.5S43.66,7.84,44,7.58Z"/><path class="cls-3" d="M39.17,11.82a2,2,0,0,0,.94-1.62.71.71,0,0,0-1.43,0c0,.16-.06.23-.4.5a2,2,0,0,0-.94,1.62,2,2,0,0,0,.94,1.62c.34.27.4.34.4.5a.71.71,0,0,0,1.43,0,2,2,0,0,0-.94-1.62c-.34-.27-.4-.34-.4-.5S38.83,12.09,39.17,11.82Z"/><path class="cls-3" d="M48.83,11.82a2,2,0,0,0,.94-1.62.71.71,0,1,0-1.43,0c0,.16-.06.23-.4.5A2,2,0,0,0,47,12.32a2,2,0,0,0,.94,1.62c.34.27.4.34.4.5a.71.71,0,1,0,1.43,0,2,2,0,0,0-.94-1.62c-.34-.27-.4-.34-.4-.5S48.49,12.09,48.83,11.82Z"/><path class="cls-3" d="M105.52,42a5.9,5.9,0,0,0-3-.74H96.85V43.4H98V58.87H96.85v2.18h4.79V58.87h-1.23v-6.2h2.08a6,6,0,0,0,3-.74,4.8,4.8,0,0,0,1.81-1.81,6.37,6.37,0,0,0,.76-3.19,6.22,6.22,0,0,0-.76-3.17A5.06,5.06,0,0,0,105.52,42Zm-3,8.53h-2.08V43.4h2.08a2.86,2.86,0,0,1,2.71,1.48,4,4,0,0,1,.49,2A4.12,4.12,0,0,1,105.2,49,2.86,2.86,0,0,1,102.5,50.48Z"/><path class="cls-3" d="M118.32,52.09a4.57,4.57,0,0,0,1.17-.48,4.77,4.77,0,0,0,1.75-1.75,6.84,6.84,0,0,0,0-6.18,4.77,4.77,0,0,0-1.75-1.75,5.81,5.81,0,0,0-2.94-.71H110.3V43.4h1.2V58.87h-1.2v2.18h4.79V58.87h-1.2V52.32h1.89c2.19,4,3.3,6.85,3.3,8.6v.13h3.67V58.87h-1.57A34.08,34.08,0,0,0,118.32,52.09Zm-4.43-8.69h2.66a2.74,2.74,0,0,1,2.57,1.4,4.44,4.44,0,0,1,0,3.94,2.74,2.74,0,0,1-2.57,1.4h-2.66Z"/><path class="cls-3" d="M133.69,41.71a6.56,6.56,0,0,0-5.94,0A4.52,4.52,0,0,0,126,43.47a6.11,6.11,0,0,0-.74,3.08v9.19A6.1,6.1,0,0,0,126,58.8a4.77,4.77,0,0,0,1.75,1.75,6,6,0,0,0,3,.71,5.83,5.83,0,0,0,3-.71,4.52,4.52,0,0,0,1.75-1.75,6.1,6.1,0,0,0,.74-3.07V46.54a6.1,6.1,0,0,0-.74-3.08A4.77,4.77,0,0,0,133.69,41.71Zm-4.55,1.86a3.48,3.48,0,0,1,3.17,0,2.68,2.68,0,0,1,1,1,3.86,3.86,0,0,1,.46,2v9.19a3.86,3.86,0,0,1-.46,2,2.68,2.68,0,0,1-1,1,3.49,3.49,0,0,1-3.17,0,2.67,2.67,0,0,1-1-1,3.86,3.86,0,0,1-.46-2V46.54a3.86,3.86,0,0,1,.46-2A2.67,2.67,0,0,1,129.14,43.57Z"/><path class="cls-3" d="M142.14,43.4h3.59V55.73a4.21,4.21,0,0,1-.49,2.12,2.58,2.58,0,0,1-.91.94,2.7,2.7,0,0,1-2.47,0,2.66,2.66,0,0,1-.89-.94,3.44,3.44,0,0,1-.46-1.46v-.15l-2.37.45,0,.13a5.88,5.88,0,0,0,.71,2.12,4.55,4.55,0,0,0,1.67,1.7,5.61,5.61,0,0,0,5.17,0A4.6,4.6,0,0,0,147.37,59a6.45,6.45,0,0,0,.76-3.23V41.22h-6Z"/><polygon class="cls-3" points="151.73 43.4 152.93 43.4 152.93 58.87 151.73 58.87 151.73 61.05 162.12 61.05 162.12 56.93 159.72 56.93 159.72 58.87 155.32 58.87 155.32 51.84 160.17 51.84 160.17 49.66 155.32 49.66 155.32 43.4 159.72 43.4 159.72 45.34 162.12 45.34 162.12 41.22 151.73 41.22 151.73 43.4"/><path class="cls-3" d="M168.51,44.53a2.8,2.8,0,0,1,1-1,2.88,2.88,0,0,1,4,1,3.13,3.13,0,0,1,.43,1.3l0,.14,2.34-.42,0-.13a5.25,5.25,0,0,0-.68-2,4.59,4.59,0,0,0-1.73-1.76,6.34,6.34,0,0,0-5.72,0,4.77,4.77,0,0,0-1.75,1.75,6.16,6.16,0,0,0-.74,3.1v9.19a6.25,6.25,0,0,0,.74,3.1,4.77,4.77,0,0,0,1.75,1.75,6.34,6.34,0,0,0,5.72,0,4.58,4.58,0,0,0,1.73-1.75,5.24,5.24,0,0,0,.68-2l0-.13L174,56.27l0,.14a3.72,3.72,0,0,1-.44,1.31,2.73,2.73,0,0,1-1,1,3.37,3.37,0,0,1-3,0,2.78,2.78,0,0,1-1-1,4.07,4.07,0,0,1-.46-2V46.54A4.07,4.07,0,0,1,168.51,44.53Z"/><polygon class="cls-3" points="189.54 45.34 189.54 41.22 179.05 41.22 179.05 45.34 181.45 45.34 181.45 43.4 183.1 43.4 183.1 58.87 181.37 58.87 181.37 61.05 187.22 61.05 187.22 58.87 185.49 58.87 185.49 43.4 187.15 43.4 187.15 45.34 189.54 45.34"/><path class="cls-3" d="M97,37.28V35h1.41V16.56H97V14.31h5.31v2.25h-1.41v7.53h6.5V16.56H106V14.31h5.31v2.25h-1.41V35h1.41v2.25H106V35h1.41V26.34h-6.5V35h1.41v2.25Z"/><path class="cls-3" d="M113.54,31.19V20.41a7,7,0,0,1,.84-3.53,5.13,5.13,0,0,1,2-2,7.55,7.55,0,0,1,6.81,0,5.42,5.42,0,0,1,2,2,7,7,0,0,1,.84,3.53V31.19a7,7,0,0,1-.84,3.53,5.13,5.13,0,0,1-2,2,6.67,6.67,0,0,1-3.39.81,6.84,6.84,0,0,1-3.42-.81,5.41,5.41,0,0,1-2-2A7,7,0,0,1,113.54,31.19Zm2.5,0a4.66,4.66,0,0,0,.56,2.37,3.27,3.27,0,0,0,1.25,1.25,4.24,4.24,0,0,0,3.87,0A3.28,3.28,0,0,0,123,33.56a4.66,4.66,0,0,0,.56-2.37V20.41A4.66,4.66,0,0,0,123,18a3.28,3.28,0,0,0-1.25-1.25,4.24,4.24,0,0,0-3.87,0A3.27,3.27,0,0,0,116.6,18a4.66,4.66,0,0,0-.56,2.37Z"/><path class="cls-3" d="M129.16,31.19V20.41a7,7,0,0,1,.84-3.53,5.13,5.13,0,0,1,2-2,7.55,7.55,0,0,1,6.81,0,5.42,5.42,0,0,1,2,2,7,7,0,0,1,.84,3.53V31.19a7,7,0,0,1-.84,3.53,5.13,5.13,0,0,1-2,2,6.67,6.67,0,0,1-3.39.81,6.84,6.84,0,0,1-3.42-.81,5.41,5.41,0,0,1-2-2A7,7,0,0,1,129.16,31.19Zm2.5,0a4.66,4.66,0,0,0,.56,2.37,3.27,3.27,0,0,0,1.25,1.25,4.24,4.24,0,0,0,3.87,0,3.28,3.28,0,0,0,1.25-1.25,4.66,4.66,0,0,0,.56-2.37V20.41A4.66,4.66,0,0,0,138.6,18a3.28,3.28,0,0,0-1.25-1.25,4.24,4.24,0,0,0-3.87,0A3.27,3.27,0,0,0,132.23,18a4.66,4.66,0,0,0-.56,2.37Z"/><path class="cls-3" d="M143.88,37.28V35h1.41V16.56h-1.41V14.31h5.31v2.25h-1.41V25q3.31-5.09,4.62-7.34a10,10,0,0,0,1.5-3.34h4.28v2.25h-2.28q-.28.56-.69,1.25-1,1.78-3.22,5.16,3.4,8.5,4.53,12.06h1.66v2.25h-3.66q0-1.59-4.16-11.78l-2.59,3.94V35h1.41v2.25Z"/><path class="cls-3" d="M159.19,37.28V35h1.41V35q0-3.12,4.25-20.65h3Q172.1,31.84,172.1,35V35h1.41v2.25h-5.31V35h1.41V35a25.9,25.9,0,0,0-.47-3.72h-5.56A25.17,25.17,0,0,0,163.1,35V35h1.41v2.25ZM164,29h4.75q-.81-4.25-2.37-11.19Q164.78,24.75,164,29Z"/><path class="cls-3" d="M175.13,37.28V35h1.41V16.56h-1.41V14.31h5.31v2.25H179v7.53h6.5V16.56h-1.41V14.31h5.31v2.25H188V35h1.41v2.25h-5.31V35h1.41V26.34H179V35h1.41v2.25Z"/><path class="cls-3" d="M97.42,74.25a2.82,2.82,0,0,1,4.93-1.86l-.51.54a2.21,2.21,0,0,0-1.66-.79,2.11,2.11,0,0,0,.05,4.21,2.2,2.2,0,0,0,1.63-.82l.53.49a2.8,2.8,0,0,1-5-1.78Z"/><path class="cls-3" d="M103.35,75.36c0-1.16.94-1.77,2.31-1.77a5.68,5.68,0,0,1,1.65.23v-.17c0-1-.59-1.46-1.6-1.46a3.76,3.76,0,0,0-1.64.39l-.24-.66a4.43,4.43,0,0,1,2-.46,2.4,2.4,0,0,1,1.75.6,2.14,2.14,0,0,1,.56,1.59V77h-.79v-.81a2.37,2.37,0,0,1-1.94.92A1.82,1.82,0,0,1,103.35,75.36Zm4-.4v-.5a5.55,5.55,0,0,0-1.58-.23c-1,0-1.58.44-1.58,1.11s.63,1.08,1.36,1.08A1.62,1.62,0,0,0,107.32,75Z"/><path class="cls-3" d="M109.93,75.52V72.26h-.75v-.71h.75V69.92h.8v1.63h1.71v.71h-1.71v3.16a.8.8,0,0,0,.91.9,1.7,1.7,0,0,0,.78-.19v.69a2,2,0,0,1-1,.23A1.38,1.38,0,0,1,109.93,75.52Z"/><path class="cls-3" d="M115.93,76.38a2.24,2.24,0,0,0,1.7-.76l.5.45a2.79,2.79,0,0,1-2.23,1,2.83,2.83,0,0,1-.1-5.64,2.58,2.58,0,0,1,2.52,2.86c0,.07,0,.16,0,.28H114A1.89,1.89,0,0,0,115.93,76.38Zm1.58-2.45a1.77,1.77,0,0,0-1.72-1.82A1.87,1.87,0,0,0,114,73.93Z"/><path class="cls-3" d="M119.72,71.55h.8V73a2.31,2.31,0,0,1,2.21-1.5v.87h-.06a2.18,2.18,0,0,0-2.14,2.48V77h-.8Z"/><path class="cls-3" d="M123.84,69.48h.92v.89h-.92Zm.05,2.07h.8V77h-.8Z"/><path class="cls-3" d="M126.47,71.55h.8v.94a2,2,0,0,1,1.85-1.05,2,2,0,0,1,2.07,2.16V77h-.8V73.79a1.44,1.44,0,0,0-1.49-1.63,1.59,1.59,0,0,0-1.62,1.69V77h-.8Z"/><path class="cls-3" d="M132.77,77.89l.37-.63a3.46,3.46,0,0,0,2.08.69,1.78,1.78,0,0,0,2-1.92v-.64a2.56,2.56,0,0,1-2.12,1.14,2.55,2.55,0,0,1,0-5.1,2.53,2.53,0,0,1,2.11,1.09v-1h.8V76a2.6,2.6,0,0,1-.69,1.91,2.84,2.84,0,0,1-2.06.72A4.24,4.24,0,0,1,132.77,77.89ZM137.21,74a1.89,1.89,0,0,0-2-1.83A1.79,1.79,0,0,0,133.35,74a1.83,1.83,0,0,0,1.87,1.84A1.91,1.91,0,0,0,137.21,74Z"/><path class="cls-3" d="M142.58,74.25a2.82,2.82,0,0,1,4.93-1.86l-.51.54a2.21,2.21,0,0,0-1.66-.79,2.11,2.11,0,0,0,.05,4.21,2.2,2.2,0,0,0,1.63-.82l.53.49a2.8,2.8,0,0,1-5-1.78Z"/><path class="cls-3" d="M148.36,74.25a2.82,2.82,0,1,1,2.8,2.82A2.8,2.8,0,0,1,148.36,74.25Zm4.81,0a2,2,0,0,0-2-2.11,2,2,0,0,0-2,2.11,2,2,0,0,0,2,2.1A2,2,0,0,0,153.17,74.25Z"/><path class="cls-3" d="M155.4,71.55h.8v.91a2,2,0,0,1,1.75-1,1.83,1.83,0,0,1,1.74,1.08,2.15,2.15,0,0,1,1.9-1.08,1.94,1.94,0,0,1,2,2.17V77h-.8V73.79c0-1-.52-1.63-1.4-1.63a1.51,1.51,0,0,0-1.49,1.67V77h-.79V73.77c0-1-.53-1.61-1.39-1.61a1.57,1.57,0,0,0-1.51,1.7V77h-.8Z"/><path class="cls-3" d="M165.31,71.55h.8v1.09a2.43,2.43,0,0,1,2.07-1.2,2.83,2.83,0,0,1,0,5.63,2.44,2.44,0,0,1-2.07-1.15v2.71h-.8Zm4.63,2.7a2,2,0,0,0-1.9-2.09,2.1,2.1,0,0,0,0,4.19A1.91,1.91,0,0,0,169.94,74.24Z"/><path class="cls-3" d="M171.79,75.36c0-1.16.94-1.77,2.31-1.77a5.68,5.68,0,0,1,1.65.23v-.17c0-1-.59-1.46-1.6-1.46a3.76,3.76,0,0,0-1.64.39l-.24-.66a4.43,4.43,0,0,1,2-.46,2.4,2.4,0,0,1,1.75.6,2.14,2.14,0,0,1,.56,1.59V77h-.79v-.81a2.37,2.37,0,0,1-1.94.92A1.82,1.82,0,0,1,171.79,75.36Zm4-.4v-.5a5.55,5.55,0,0,0-1.58-.23c-1,0-1.58.44-1.58,1.11s.63,1.08,1.36,1.08A1.62,1.62,0,0,0,175.76,75Z"/><path class="cls-3" d="M178.22,71.55h.8v.94a2,2,0,0,1,1.85-1.05,2,2,0,0,1,2.07,2.16V77h-.8V73.79a1.44,1.44,0,0,0-1.49-1.63A1.59,1.59,0,0,0,179,73.86V77h-.8Z"/><path class="cls-3" d="M184,78.38l.27-.64a1.69,1.69,0,0,0,.85.2c.48,0,.78-.25,1.11-1l-2.46-5.38h.89l2,4.51,1.74-4.51h.86l-2.27,5.58c-.46,1.12-1,1.53-1.8,1.53A2.45,2.45,0,0,1,184,78.38Z"/><rect class="cls-3" x="96.4" y="66.07" width="93.66" height="0.66"/></g></g></svg>