<svg xmlns="http://www.w3.org/2000/svg" width="110" height="110" viewBox="0 0 110 110"><defs><style>.cls-1{fill:#fff;}.cls-2{fill:#bb1a23;}</style></defs><title>Монограмма - Рукав</title><g id="Монограмма"><g id="Рукав-2" data-name="Рукав"><g id="Цвет-76" data-name="Цвет"><path class="cls-1" d="M.5,94.75V15c0-3.769,10.839-7.031,25.352-8.923,15.242-1.987,37.232-3.16,51.482-2.41a3.585,3.585,0,0,1,2.792,1.958c14.792,1.958,29.4,4.452,29.375,9.5-.083,19.875,0,59.25,0,79.75,0,7.517-31.875,10.87-56.625,10.625C27,105.245.5,101.5.5,94.75Z"/></g><g id="Монограмма-2" data-name="Монограмма"><path class="cls-2" d="M17.215,48.312,20,41.081l4.171-.715v.28l-.332.057a1.653,1.653,0,0,0-.725.283.941.941,0,0,0-.3.407,3.232,3.232,0,0,0-.083.959v6.755a3.2,3.2,0,0,0,.083.968.589.589,0,0,0,.34.286,1.29,1.29,0,0,0,.688.03l.332-.057v.279l-5.35.917v-.279l.333-.057a1.654,1.654,0,0,0,.725-.283.936.936,0,0,0,.3-.415,3.275,3.275,0,0,0,.083-.966v-6.56L17,51.84l-.849.145-3.513-7.341v5.88a6.188,6.188,0,0,0,.038.923.852.852,0,0,0,.427.543,1.644,1.644,0,0,0,1.031.061v.279l-3.983.682v-.279l.106-.018a1.808,1.808,0,0,0,.635-.218,1.3,1.3,0,0,0,.446-.39,1.726,1.726,0,0,0,.234-.592q.015-.086.015-.773V44.26A3.122,3.122,0,0,0,11.5,43.3a.594.594,0,0,0-.34-.282,1.289,1.289,0,0,0-.687-.03l-.325.056v-.28l4.186-.717Z"/><path class="cls-2" d="M29.5,42.717l2.38-.408v.831l-1.353.232a2,2,0,0,1,.514.584,1.871,1.871,0,0,1,.181.823,2.435,2.435,0,0,1-.419,1.383,3.572,3.572,0,0,1-1.141,1.065c-.653.4-1.393.5-2.045.9-.252.154-.659.524-.592.85.034.164.3.245.447.245A8.165,8.165,0,0,0,28.867,49a4.549,4.549,0,0,1,2.184-.027,1.307,1.307,0,0,1,.854,1.342,2.2,2.2,0,0,1-.393,1.234,2.951,2.951,0,0,1-1.035.952,7.111,7.111,0,0,1-2.244.755,7.5,7.5,0,0,1-1.738.112,2.045,2.045,0,0,1-1.126-.321.793.793,0,0,1-.34-.633,1.046,1.046,0,0,1,.261-.668,2.611,2.611,0,0,1,.971-.631,1.2,1.2,0,0,1-.982-1.177,1.87,1.87,0,0,1,.4-1.081,4.071,4.071,0,0,1,1.269-1.071,2.5,2.5,0,0,1-1.466-.724,1.952,1.952,0,0,1-.453-1.32,2.8,2.8,0,0,1,.846-1.939A3.868,3.868,0,0,1,29.5,42.717Zm-1.641,8.3a2.505,2.505,0,0,0-.864.255.725.725,0,0,0-.365.589.583.583,0,0,0,.378.516,2.555,2.555,0,0,0,1.421.017,3.886,3.886,0,0,0,1.4-.472.9.9,0,0,0,.509-.74.323.323,0,0,0-.1-.247.782.782,0,0,0-.522-.168A14.22,14.22,0,0,0,27.861,51.022Zm.334-7.564a1.137,1.137,0,0,0-.741.5,2.924,2.924,0,0,0-.3,1.587,1.831,1.831,0,0,0,.3,1.244.764.764,0,0,0,.706.23,1.176,1.176,0,0,0,.756-.478,2.421,2.421,0,0,0,.3-1.407,2.255,2.255,0,0,0-.34-1.487A.7.7,0,0,0,28.195,43.458Z"/></g><g id="Контур-76" data-name="Контур"><path d="M80.471,5.213a4.46,4.46,0,0,0-3.666-2.1A340.784,340.784,0,0,0,27.5,5.337C21.051,6.066,0,8.92,0,15V95c0,6.886,27.964,11,55,11s55-4.114,55-11V15C110,8.731,87.613,5.942,80.471,5.213ZM1,90.334c0-.855.7-1.735,2.068-2.615a.5.5,0,0,0-.54-.842A7.934,7.934,0,0,0,1,88.114V19.73a.487.487,0,0,0,.047-.108c.2-.8,1.052-1.659,2.468-2.487a.5.5,0,0,0-.5-.863A8.881,8.881,0,0,0,1,17.806V15c0-2.817,8.23-6.59,26.616-8.669a339.831,339.831,0,0,1,49.16-2.216,3.487,3.487,0,0,1,3.391,3.514V57.86a7.931,7.931,0,0,1-2.339,5.646L59.683,81.652a7.981,7.981,0,0,1-5.578,2.334c-.369,0-.728.017-1.1.023C29.6,84.183,6.033,87.412,1,92.827ZM55,105C22.7,105,1,99.829,1,95a2.634,2.634,0,0,1,1.069-1.876A16.466,16.466,0,0,0,5.378,94.89a.488.488,0,0,0,.191.038.5.5,0,0,0,.191-.962,16.522,16.522,0,0,1-2.854-1.474c4.071-2.713,14.5-5.227,29.278-6.54a.478.478,0,0,0,.234.046C38.878,85.454,45.8,85.126,53,85.01c.665,0,1.327-.01,2-.01,26.721,0,46.172,3.539,52.1,7.5a14.659,14.659,0,0,1-1.986,1.089.5.5,0,0,0,.42.908,14.687,14.687,0,0,0,2.4-1.366A2.631,2.631,0,0,1,109,95C109,99.829,87.3,105,55,105Zm52.446-87.251A3.082,3.082,0,0,1,109,20V89.05a.494.494,0,0,0-.154.587,1.726,1.726,0,0,1,.154.7v2.493c-4.955-5.33-27.867-8.542-50.92-8.807a8.919,8.919,0,0,0,2.31-1.66l1.93-1.93q1.934.051,3.825.125h.021a.5.5,0,0,0,.02-1c-.954-.038-1.926-.066-2.9-.095L78.535,64.214a8.924,8.924,0,0,0,2.632-6.354V11.295c1.19.126,2.363.257,3.5.4a.464.464,0,0,0,.063,0,.5.5,0,0,0,.062-1c-1.175-.147-2.385-.286-3.621-.415V7.629a4.545,4.545,0,0,0-.226-1.361C100.311,8.3,109,12.1,109,15v2.794a6.941,6.941,0,0,0-.959-.85.5.5,0,0,0-.595.8Zm-9.071-3.591c-1.192-.3-2.5-.6-3.876-.882a.5.5,0,0,1,.2-.98c1.4.284,2.717.585,3.925.894a.5.5,0,0,1-.248.969Zm2.535.18a.5.5,0,0,1,.626-.329,33.96,33.96,0,0,1,3.806,1.412.5.5,0,0,1-.411.912,32.834,32.834,0,0,0-3.691-1.369A.5.5,0,0,1,100.91,14.338Zm-9.346-1.616q-1.89-.33-3.937-.626a.5.5,0,0,1,.144-.99q2.06.3,3.965.632a.5.5,0,0,1-.085.992A.434.434,0,0,1,91.563,12.722ZM73.657,80.465a.5.5,0,0,1-.5.466h-.034q-1.961-.133-3.987-.239a.5.5,0,0,1-.474-.525.474.474,0,0,1,.525-.473q2.034.105,4,.239A.5.5,0,0,1,73.657,80.465Zm6.977.6a.5.5,0,0,1-.5.45l-.051,0q-1.943-.195-3.976-.36a.5.5,0,1,1,.081-1q2.041.166,4,.362A.5.5,0,0,1,80.634,81.064Zm6.95.851a.5.5,0,0,1-.495.431.566.566,0,0,1-.07,0q-1.917-.268-3.958-.506a.5.5,0,0,1,.115-.994q2.051.239,3.981.51A.5.5,0,0,1,87.584,81.915Zm6.9,1.18a.5.5,0,0,1-.49.4.475.475,0,0,1-.1-.01q-1.87-.368-3.922-.7a.5.5,0,0,1-.414-.573.494.494,0,0,1,.574-.413c1.361.221,2.692.458,3.956.707A.5.5,0,0,1,94.486,83.095Zm6.793,1.688a.5.5,0,0,1-.479.357.522.522,0,0,1-.143-.021c-1.17-.349-2.462-.687-3.84-1.007a.5.5,0,1,1,.226-.975c1.4.324,2.71.668,3.9,1.022A.5.5,0,0,1,101.279,84.783Zm2.543.344a19.924,19.924,0,0,1,3.688,1.785.5.5,0,0,1-.272.92.493.493,0,0,1-.271-.08,18.927,18.927,0,0,0-3.5-1.689.5.5,0,0,1,.355-.936ZM25.931,10.939a.5.5,0,0,1,.433-.56q1.942-.246,3.984-.465a.5.5,0,1,1,.105.994q-2.03.217-3.963.463a.466.466,0,0,1-.063,0A.5.5,0,0,1,25.931,10.939Zm-.489,70.586a.5.5,0,0,1,.437-.557q1.94-.236,3.988-.44a.5.5,0,1,1,.1.994q-2.037.205-3.968.438a.425.425,0,0,1-.061,0A.5.5,0,0,1,25.442,81.525ZM19.011,12a.5.5,0,0,1,.407-.578q1.91-.334,3.964-.635a.5.5,0,0,1,.145.99q-2.038.3-3.937.629a.434.434,0,0,1-.086.008A.5.5,0,0,1,19.011,12Zm-.5,70.542a.5.5,0,0,1,.41-.576q1.907-.322,3.97-.609a.5.5,0,1,1,.138.99q-2.046.284-3.941.605a.486.486,0,0,1-.083.007A.5.5,0,0,1,18.514,82.543Zm13.893-1.752a.5.5,0,0,1,.455-.541q1.958-.168,4-.311a.5.5,0,1,1,.069,1q-2.03.142-3.981.309l-.043,0A.5.5,0,0,1,32.407,80.791ZM53.828,8.754a.5.5,0,0,1,.481-.519q2.012-.075,4-.127a.51.51,0,0,1,.513.486.5.5,0,0,1-.487.514q-1.986.053-3.992.127h-.019A.5.5,0,0,1,53.828,8.754ZM32.889,10.162a.5.5,0,0,1,.452-.545q2.008-.187,3.987-.352a.5.5,0,0,1,.083,1q-1.975.164-3.978.352l-.047,0A.5.5,0,0,1,32.889,10.162ZM60.822,8.55a.5.5,0,0,1,.491-.509q2.012-.035,4-.049h0a.5.5,0,0,1,0,1q-1.989.013-3.994.049h-.009A.5.5,0,0,1,60.822,8.55Zm-13.983.543a.5.5,0,0,1,.471-.527q2.011-.113,4-.2a.479.479,0,0,1,.522.477.5.5,0,0,1-.477.521q-1.983.091-3.989.2h-.028A.5.5,0,0,1,46.839,9.093Zm-6.98.47a.5.5,0,0,1,.461-.536q2.01-.151,3.994-.279a.491.491,0,0,1,.531.467.5.5,0,0,1-.467.531q-1.978.129-3.983.279h-.038A.5.5,0,0,1,39.859,9.563ZM39.392,80.28a.5.5,0,0,1,.471-.527q1.972-.111,4-.2a.508.508,0,0,1,.521.479.5.5,0,0,1-.478.521q-2.024.085-3.99.2H39.89A.5.5,0,0,1,39.392,80.28ZM76.167,50.239v4a.5.5,0,0,1-1,0v-4a.5.5,0,0,1,1,0Zm0-7v4a.5.5,0,0,1-1,0v-4a.5.5,0,0,1,1,0ZM72.425,62.546a.5.5,0,0,1,0,.707L69.6,66.081a.5.5,0,0,1-.707-.707l2.829-2.828A.5.5,0,0,1,72.425,62.546Zm3.742-26.307v4a.5.5,0,0,1-1,0v-4a.5.5,0,0,1,1,0ZM67.475,67.5a.5.5,0,0,1,0,.707l-2.828,2.829a.5.5,0,0,1-.707-.707L66.768,67.5A.5.5,0,0,1,67.475,67.5Zm8.692-38.256v4a.5.5,0,0,1-1,0v-4a.5.5,0,1,1,1,0Zm-64-15.787a.5.5,0,0,1,.366-.6c1.231-.3,2.553-.6,3.927-.873a.5.5,0,0,1,.2.98c-1.36.273-2.667.563-3.885.863a.508.508,0,0,1-.12.015A.5.5,0,0,1,12.163,13.452ZM57.576,77.395a.5.5,0,0,1,0,.707l-.721.722A5.466,5.466,0,0,1,53.937,80.3l-.051,0a.5.5,0,0,1-.05-1,4.5,4.5,0,0,0,2.312-1.188l.721-.722A.5.5,0,0,1,57.576,77.395Zm4.95-4.949a.5.5,0,0,1,0,.707L59.7,75.98a.5.5,0,0,1-.707-.707l2.828-2.828A.5.5,0,0,1,62.525,72.445ZM51.387,79.839a.5.5,0,0,1-.491.509q-2.018.035-3.993.1h-.016a.5.5,0,0,1-.015-1q1.981-.062,4.007-.1A.514.514,0,0,1,51.387,79.839ZM5.007,86.133a.5.5,0,0,1,.269-.653A37.643,37.643,0,0,1,9.1,84.146a.5.5,0,0,1,.283.959,37.119,37.119,0,0,0-3.726,1.3.5.5,0,0,1-.654-.269ZM67.821,8.483a.5.5,0,0,1,.5-.5h0c1.33,0,2.668.015,4.006.034a.5.5,0,0,1-.007,1h-.007c-1.334-.02-2.668-.031-3.994-.034A.5.5,0,0,1,67.821,8.483ZM5.5,15.595a.5.5,0,0,1,.277-.65c1.118-.45,2.407-.892,3.83-1.311a.5.5,0,1,1,.282.959c-1.392.41-2.65.841-3.738,1.279a.505.505,0,0,1-.187.036A.5.5,0,0,1,5.5,15.595Zm6.157,68.372a.5.5,0,0,1,.368-.6c1.217-.3,2.54-.585,3.932-.857a.493.493,0,0,1,.587.395.5.5,0,0,1-.395.586c-1.377.27-2.686.556-3.888.848a.5.5,0,0,1-.6-.367ZM73.839,61.132a.5.5,0,0,1,0-.707l.452-.452a2.971,2.971,0,0,0,.876-2.112v-.621a.5.5,0,0,1,1,0v.621A3.966,3.966,0,0,1,75,60.68l-.452.452a.5.5,0,0,1-.707,0Zm2.328-38.893v4a.5.5,0,0,1-1,0v-4a.5.5,0,1,1,1,0Zm0-7v4a.5.5,0,0,1-1,0v-4a.5.5,0,1,1,1,0ZM74.821,8.564a.512.512,0,0,1,.513-.487l.346.009a.5.5,0,0,1,.487.5v3.653a.5.5,0,0,1-1,0V9.053A.5.5,0,0,1,74.821,8.564Zm21.447,88.3a.5.5,0,0,1-.383.595c-1.242.271-2.569.53-3.946.773a.444.444,0,0,1-.087.008.5.5,0,0,1-.086-.992c1.364-.241,2.678-.5,3.908-.766A.5.5,0,0,1,96.268,96.86Zm-27.781,3.316a.5.5,0,0,1-.476.522q-1.976.1-4.006.159h-.017a.5.5,0,0,1-.016-1q2.021-.064,3.99-.157A.484.484,0,0,1,68.486,100.177Zm-7,.249a.5.5,0,0,1-.489.511q-1.984.042-4.008.057h0a.5.5,0,0,1,0-1q2.016-.015,3.994-.057h.011A.5.5,0,0,1,61.489,100.426Zm41.52-5.447a.5.5,0,0,1-.311.635c-1.154.4-2.458.782-3.874,1.147a.5.5,0,1,1-.25-.969c1.392-.358,2.669-.737,3.8-1.124A.5.5,0,0,1,103.009,94.979Zm-13.624,3.17a.5.5,0,0,1-.418.57q-1.919.294-3.975.555a.466.466,0,0,1-.063,0,.5.5,0,0,1-.062-1q2.041-.258,3.95-.551A.5.5,0,0,1,89.385,98.148Zm-41.9,2.255a.5.5,0,0,1-.5.485h-.015q-2.028-.059-4.006-.144a.5.5,0,0,1-.478-.521.533.533,0,0,1,.521-.479q1.969.085,3.992.144A.5.5,0,0,1,47.486,100.4Zm34.958-1.328a.5.5,0,0,1-.443.552q-1.947.212-3.991.4l-.045,0a.5.5,0,0,1-.044-1q2.033-.183,3.972-.395A.5.5,0,0,1,82.445,99.075Zm-6.971.659a.5.5,0,0,1-.461.537q-1.963.148-4,.269h-.03a.5.5,0,0,1-.029-1q2.027-.12,3.983-.269A.51.51,0,0,1,75.474,99.734Zm-20.986.766a.5.5,0,0,1-.5.5h0q-2.024-.007-4.008-.042a.5.5,0,0,1-.491-.509A.51.51,0,0,1,50,99.956q1.978.035,3.995.042A.5.5,0,0,1,54.488,100.5ZM12.732,96.631a.5.5,0,0,1-.485.382A.553.553,0,0,1,12.128,97c-1.405-.342-2.714-.7-3.889-1.077a.5.5,0,1,1,.3-.953c1.153.366,2.439.722,3.822,1.058A.5.5,0,0,1,12.732,96.631ZM19.6,97.984a.5.5,0,0,1-.493.417.486.486,0,0,1-.083-.007c-1.367-.23-2.7-.479-3.951-.737a.5.5,0,1,1,.2-.979c1.243.256,2.561.5,3.915.729A.5.5,0,0,1,19.6,97.984Zm13.9,1.668a.5.5,0,0,1-.5.458l-.043,0q-2.041-.173-3.993-.378a.5.5,0,0,1-.445-.549.491.491,0,0,1,.549-.445q1.94.2,3.973.376A.5.5,0,0,1,33.5,99.652Zm6.986.472a.5.5,0,0,1-.5.473h-.028q-2.033-.113-4-.253a.5.5,0,0,1,.071-1q1.958.141,3.985.253A.5.5,0,0,1,40.489,100.124ZM26.536,98.956a.5.5,0,0,1-.5.44.414.414,0,0,1-.06,0q-2.053-.246-3.979-.529a.5.5,0,0,1,.146-.99q1.912.281,3.953.527A.5.5,0,0,1,26.536,98.956ZM55.5,32.938a9.573,9.573,0,0,0-9.3,7.393q-1.436.092-2.882.193a2.5,2.5,0,0,0,.177,4.994c.058,0,.116,0,.181-.006q1.354-.1,2.695-.182a9.558,9.558,0,0,0,18.442-.672q1.31-.01,2.622-.012h.236a2.5,2.5,0,0,0,0-5q-1.518,0-3.036.015A9.58,9.58,0,0,0,55.5,32.938ZM43.605,44.515l-.115,0a1.5,1.5,0,0,1-.105-3c.881-.063,1.756-.121,2.629-.177a9.584,9.584,0,0,0-.069,1.006q-1.244.081-2.489.168a.5.5,0,0,0,.035,1h.036q1.226-.088,2.453-.167a9.53,9.53,0,0,0,.139.993Q44.865,44.425,43.605,44.515ZM55.5,50.938A8.438,8.438,0,1,1,63.938,42.5,8.447,8.447,0,0,1,55.5,50.938ZM67.667,40.646a1.5,1.5,0,1,1,0,3H67.43c-.816,0-1.63.005-2.444.011a9.592,9.592,0,0,0,.069-1c.871-.005,1.747-.006,2.611-.011h0a.5.5,0,0,0,0-1c-.886,0-1.766.005-2.647.011a9.532,9.532,0,0,0-.139-1C65.81,40.653,66.738,40.646,67.667,40.646ZM62,42.5a.5.5,0,0,1-1,0A5.5,5.5,0,1,0,55.5,48a.5.5,0,0,1,0,1A6.5,6.5,0,1,1,62,42.5Zm-7-2a1.5,1.5,0,1,0-2,1.408v1.184a1.5,1.5,0,1,0,1,0V41.908A1.5,1.5,0,0,0,55,40.5ZM53.5,40a.5.5,0,1,1-.5.5A.5.5,0,0,1,53.5,40Zm0,5a.5.5,0,1,1,.5-.5A.5.5,0,0,1,53.5,45ZM59,40.5a1.5,1.5,0,1,0-2,1.408v1.184a1.5,1.5,0,1,0,1,0V41.908A1.5,1.5,0,0,0,59,40.5ZM57.5,40a.5.5,0,1,1-.5.5A.5.5,0,0,1,57.5,40Zm0,5a.5.5,0,1,1,.5-.5A.5.5,0,0,1,57.5,45Z"/></g></g></g></svg>