<svg xmlns="http://www.w3.org/2000/svg" width="110" height="110" viewBox="0 0 110 110"><defs><style>.cls-1{fill:#fff;}.cls-2{fill:#bb1a23;}</style></defs><title>Монограмма - Карман</title><g id="Монограмма"><g id="Карман-2" data-name="Карман"><g id="Цвет-77" data-name="Цвет"><path class="cls-1" d="M78.5,109.5h-47l-20-20V6.5l6-6h75l6,6v83Z"/></g><g id="Монограмма-3" data-name="Монограмма"><path class="cls-2" d="M26.882,10.16,29.626,3.5h4.115v.276h-.328a1.415,1.415,0,0,0-.716.157.728.728,0,0,0-.3.35,3.028,3.028,0,0,0-.082.932v6.665a3.321,3.321,0,0,0,.082.969.743.743,0,0,0,.335.339,1.361,1.361,0,0,0,.678.145h.328V13.6H28.463v-.276h.328a1.415,1.415,0,0,0,.715-.157.725.725,0,0,0,.3-.358,3.07,3.07,0,0,0,.082-.939V5.4l-3.218,8.2h-.838L22.366,5.767v5.8a6.259,6.259,0,0,0,.037.917,1.062,1.062,0,0,0,.421.608,1.753,1.753,0,0,0,1.018.235V13.6H19.912v-.276h.1a1.578,1.578,0,0,0,.626-.108,1.006,1.006,0,0,0,.44-.309,1.422,1.422,0,0,0,.231-.544q.015-.082.015-.76V5.21a3.243,3.243,0,0,0-.082-.958.749.749,0,0,0-.336-.336,1.36,1.36,0,0,0-.678-.145h-.321V3.5h4.13Z"/><path class="cls-2" d="M39,6.716h2.348v.82H40.018a2.533,2.533,0,0,1,.507.664,2.05,2.05,0,0,1,.179.842,2.086,2.086,0,0,1-.414,1.293,2.749,2.749,0,0,1-1.126.858c-.645.28-1.375.261-2.017.544-.249.11-.65.406-.584.738.033.167.292.291.441.317a7.756,7.756,0,0,0,1.374.015,4.7,4.7,0,0,1,2.155.343,1.576,1.576,0,0,1,.842,1.469,1.877,1.877,0,0,1-.388,1.152,2.275,2.275,0,0,1-1.021.764,6.22,6.22,0,0,1-2.214.365,7.484,7.484,0,0,1-1.715-.183,2.385,2.385,0,0,1-1.111-.507.949.949,0,0,1-.336-.682.872.872,0,0,1,.257-.615,2.071,2.071,0,0,1,.958-.459,1.464,1.464,0,0,1-.969-1.327,1.568,1.568,0,0,1,.395-1,3.148,3.148,0,0,1,1.252-.842,3.066,3.066,0,0,1-1.446-.962,2.236,2.236,0,0,1-.447-1.379,2.307,2.307,0,0,1,.835-1.771,3.093,3.093,0,0,1,2.147-.749A3.9,3.9,0,0,1,39,6.716Zm-1.619,7.917a2.219,2.219,0,0,0-.853.105.579.579,0,0,0-.36.52.713.713,0,0,0,.373.573,2.671,2.671,0,0,0,1.4.257,3.392,3.392,0,0,0,1.38-.229.712.712,0,0,0,.5-.644.375.375,0,0,0-.095-.26.919.919,0,0,0-.515-.254A13.736,13.736,0,0,0,37.385,14.633Zm.329-7.406a.91.91,0,0,0-.731.365,2.6,2.6,0,0,0-.3,1.515,2.037,2.037,0,0,0,.294,1.277.889.889,0,0,0,.7.347.947.947,0,0,0,.746-.344,2.134,2.134,0,0,0,.3-1.337,2.5,2.5,0,0,0-.335-1.524A.809.809,0,0,0,37.715,7.226Z"/></g><g id="Контур-77" data-name="Контур"><path d="M98.854,6.146l-6-6A.5.5,0,0,0,92.5,0h-75a.5.5,0,0,0-.354.146l-6,6A.5.5,0,0,0,11,6.5v83a.5.5,0,0,0,.146.354l20,20A.5.5,0,0,0,31.5,110h47a.5.5,0,0,0,.354-.146l20-20A.5.5,0,0,0,99,89.5V6.5A.5.5,0,0,0,98.854,6.146ZM98,89.293,78.293,109H31.707L12,89.293V6.707L17.707,1H92.293L98,6.707ZM42.875,16H95.5a.5.5,0,0,1,0,1H93v1.5a.5.5,0,0,1-1,0V17H42.875a.5.5,0,0,1,0-1ZM93,72.07v4.121a.5.5,0,0,1-1,0V72.07a.5.5,0,0,1,1,0Zm0,14.423V87.5a.5.5,0,0,1-.146.354l-2.2,2.2a.5.5,0,0,1-.707-.707L92,87.293v-.8a.5.5,0,0,1,1,0Zm-4.532,5.039a.5.5,0,0,1,0,.707l-2.913,2.913a.5.5,0,0,1-.707-.707l2.913-2.913A.5.5,0,0,1,88.468,91.532Zm-5.1,5.1a.5.5,0,0,1,0,.707l-2.912,2.913a.5.5,0,0,1-.707-.707l2.912-2.913A.5.5,0,0,1,83.371,96.63ZM93,64.859V68.98a.5.5,0,0,1-1,0V64.859a.5.5,0,0,1,1,0Zm0,14.423V83.4a.5.5,0,0,1-1,0v-4.12a.5.5,0,0,1,1,0ZM93,28.8v4.121a.5.5,0,0,1-1,0V28.8a.5.5,0,1,1,1,0Zm0,28.846v4.121a.5.5,0,0,1-1,0V57.647a.5.5,0,0,1,1,0Zm0-21.634v4.121a.5.5,0,1,1-1,0V36.014a.5.5,0,0,1,1,0Zm0-14.423v4.121a.5.5,0,0,1-1,0V21.591a.5.5,0,1,1,1,0Zm0,28.846v4.121a.5.5,0,0,1-1,0V50.437a.5.5,0,0,1,1,0Zm0-7.212v4.121a.5.5,0,1,1-1,0V43.225a.5.5,0,0,1,1,0ZM78.268,101.732a.5.5,0,0,1,0,.707l-1.415,1.414A.5.5,0,0,1,76.5,104h-2a.5.5,0,0,1,0-1h1.793l1.268-1.268A.5.5,0,0,1,78.268,101.732ZM43.184,103.5a.5.5,0,0,1-.5.5H38.579a.5.5,0,0,1,0-1h4.105A.5.5,0,0,1,43.184,103.5Zm7.184,0a.5.5,0,0,1-.5.5h-4.1a.5.5,0,1,1,0-1h4.1A.5.5,0,0,1,50.368,103.5Zm7.184,0a.5.5,0,0,1-.5.5h-4.1a.5.5,0,0,1,0-1h4.1A.5.5,0,0,1,57.552,103.5Zm7.185,0a.5.5,0,0,1-.5.5H60.131a.5.5,0,0,1,0-1h4.105A.5.5,0,0,1,64.737,103.5Zm7.184,0a.5.5,0,0,1-.5.5H67.315a.5.5,0,0,1,0-1h4.105A.5.5,0,0,1,71.921,103.5ZM36,103.5a.5.5,0,0,1-.5.5h-2a.5.5,0,0,1-.354-.146l-1.415-1.414a.5.5,0,1,1,.707-.707L33.707,103H35.5A.5.5,0,0,1,36,103.5ZM18,54.564a.5.5,0,1,1-1,0V50.443a.5.5,0,0,1,1,0Zm0,14.423a.5.5,0,0,1-1,0V64.866a.5.5,0,0,1,1,0ZM18,76.2a.5.5,0,0,1-1,0V72.077a.5.5,0,0,1,1,0Zm0-28.846a.5.5,0,0,1-1,0v-4.12a.5.5,0,0,1,1,0Zm0,31.937V83.41a.5.5,0,0,1-1,0V79.289a.5.5,0,0,1,1,0Zm0-17.514a.5.5,0,1,1-1,0V57.654a.5.5,0,0,1,1,0Zm2.06,27.577a.5.5,0,1,1-.707.707l-2.206-2.206A.5.5,0,0,1,17,87.5v-1a.5.5,0,0,1,1,0v.793Zm5.1,5.1a.5.5,0,1,1-.707.707l-2.912-2.912a.5.5,0,0,1,.707-.707Zm5.1,5.1a.5.5,0,1,1-.707.707l-2.912-2.913a.5.5,0,0,1,.707-.707ZM18,25.719a.5.5,0,0,1-1,0V21.6a.5.5,0,0,1,1,0Zm0,7.211a.5.5,0,0,1-1,0V28.81a.5.5,0,1,1,1,0Zm0,7.212a.5.5,0,0,1-1,0V36.021a.5.5,0,0,1,1,0ZM17,17H14.5a.5.5,0,0,1,0-1H32.75a.5.5,0,0,1,0,1H18v1.5a.5.5,0,0,1-1,0Z"/></g></g></g></svg>