<?xml version="1.0" encoding="utf-8"?>
<!-- Generator: Adobe Illustrator 23.0.3, SVG Export Plug-In . SVG Version: 6.00 Build 0)  -->
<svg version="1.1" id="Layer_1" xmlns="http://www.w3.org/2000/svg" xmlns:xlink="http://www.w3.org/1999/xlink" x="0px" y="0px"
	 viewBox="0 0 175.294754 44.6718864" style="enable-background:new 0 0 175.294754 44.6718864;" xml:space="preserve">
<style type="text/css">
	.st0{fill:#1D273B;}
	.st1{fill:url(#SVGID_1_);}
</style>
<g>
	<path class="st0" d="M8.1489143,41.9559364H2.7241101L20.4863167,9.840704h3.5039063l17.7617188,32.1152344H36.327137
		l-4.8964844-8.9287109H13.0453987L8.1489143,41.9559364z M22.2626839,16.3211727l-6.5776367,11.9052734h13.105957
		L22.2626839,16.3211727z"/>
	<path class="st0" d="M52.3085823,9.9373837v27.2177715h21.4580116l-0.671875,4.8007813H47.1728401V9.9373837H52.3085823z"/>
</g>
<g>
	<path class="st0" d="M120.2402267,9.9364071c3.5517578,0,5.6640625,0.671875,7.3447266,2.3046875
		c1.6318283,1.5839844,2.2558517,3.6474609,2.2558517,7.2958984v12.8173809c0,3.6484375-0.6240234,5.7128906-2.2558517,7.296875
		c-1.6806641,1.6318359-3.7929688,2.3037109-7.3447266,2.3037109H97.822258V9.9364071H120.2402267z M102.9580002,37.1551552
		h15.9853516c3.1210938,0,4.0322266-0.1923828,4.8007813-0.9599609c0.7685547-0.8164063,0.9599609-1.8242188,0.9599609-4.8007793
		V20.496954c0-2.9755859-0.1914063-3.984375-0.9599609-4.7998047c-0.7685547-0.7685547-1.6796875-0.9599609-4.8007813-0.9599609
		h-15.9853516V37.1551552z"/>
	<path class="st0" d="M140.3495941,41.9549599h-5.4248047L152.6865082,9.840704h3.5039063l17.7617188,32.1142578h-5.4248047
		l-4.8964844-8.9287109h-18.3847656L140.3495941,41.9549599z M154.4628754,16.3211727l-6.5771484,11.9052734h13.1054688
		L154.4628754,16.3211727z"/>
</g>
<g>
	<path class="st0" d="M83.6948776,24.023344l-3.50914-4.34272L80.149826,41.9551811h6.8299942l0.0359116-22.2140369
		L83.6948776,24.023344z"/>
</g>
<linearGradient id="SVGID_1_" gradientUnits="userSpaceOnUse" x1="83.5661392" y1="-17425.2207031" x2="83.5661392" y2="-17404.453125" gradientTransform="matrix(1 0 0 -1 0 -17402.140625)">
	<stop  offset="0" style="stop-color:#FF9100"/>
	<stop  offset="0.128265" style="stop-color:#FF8800"/>
	<stop  offset="0.335615" style="stop-color:#FF7000"/>
	<stop  offset="0.596126" style="stop-color:#FF4900"/>
	<stop  offset="0.8968029" style="stop-color:#FF1400"/>
	<stop  offset="1" style="stop-color:#FF0000"/>
</linearGradient>
<path class="st1" d="M91.5181808,10.2689877c0,1.5927906-0.4730835,3.0830727-1.2852097,4.3288727l-0.2996368,0.4337149l0,0
	l-6.2388229,8.0478086l-6.3535919-7.8585749l0,0l-0.4257813-0.5992699l-0.023674-0.0236788
	c-0.8121338-1.2458-1.2773743-2.7360821-1.2773743-4.3288727c0-4.3919673,3.55616-7.9559679,7.9481277-7.9559679
	S91.5181808,5.8770204,91.5181808,10.2689877z"/>
<path class="st0" d="M87.6708679,10.1887016c0,1.7995729-1.1974106,3.3222933-2.8377838,3.8137083
	c-0.3599243,0.1072807-0.7440643,0.1661072-1.138588,0.1661072c-0.3945007,0-0.778656-0.0588264-1.1385651-0.1661072
	c-1.6403732-0.4879723-2.8377838-2.0106716-2.8377838-3.8137083c0-2.194078,1.7788086-3.9763513,3.9763489-3.9763513
	C85.8885956,6.2123504,87.6708679,7.9946237,87.6708679,10.1887016z"/>
</svg>
