<svg width="69" height="67" viewBox="0 0 69 67" fill="none" xmlns="http://www.w3.org/2000/svg">
<path d="M0.804443 29.5435H19.6305V30.6956C19.6305 35.8943 15.4162 40.1087 10.2175 40.1087C5.01881 40.1087 0.804443 35.8943 0.804443 30.6956V29.5435Z" stroke="#D72D24"/>
<path d="M48.7175 29.5435H67.5436V30.6956C67.5436 35.8943 63.3293 40.1087 58.1306 40.1087C52.9319 40.1087 48.7175 35.8943 48.7175 30.6956V29.5435Z" stroke="#D72D24"/>
<path d="M44.4646 66.5C44.2219 64.8039 42.7632 63.5 41 63.5H27C25.2368 63.5 23.7781 64.8039 23.5354 66.5H44.4646Z" stroke="#D72D24"/>
<path d="M17 66.5H52" stroke="#D72D24" stroke-linecap="round"/>
<path d="M32.1958 3.4348C32.1958 2.34224 33.0815 1.45654 34.1741 1.45654C35.2666 1.45654 36.1523 2.34224 36.1523 3.4348V63.5H32.1958V3.4348Z" stroke="#D72D24"/>
<path d="M31.6957 7.56519H6.91309" stroke="#D72D24"/>
<path d="M61.435 7.56519H36.6523" stroke="#D72D24"/>
<path d="M58.1306 7.56519V20.7826M10.2175 7.56519V20.7826" stroke="#D72D24"/>
<path d="M19.3045 29.8695L10.2176 20.7826L1.13062 29.8695" stroke="#D72D24"/>
<path d="M67.2174 29.8695L58.1304 20.7826L49.0435 29.8695" stroke="#D72D24"/>
</svg>
