<svg width="120" height="53" viewBox="0 0 120 53" fill="none" xmlns="http://www.w3.org/2000/svg">
<path d="M59.3193 0H60.0031V5.12846H59.3193V0Z" fill="black"/>
<path d="M59.3193 31.4546H60.0031V36.5831H59.3193V31.4546Z" fill="black"/>
<path fill-rule="evenodd" clip-rule="evenodd" d="M113.608 38.3063C113.608 38.3017 113.608 38.2971 113.608 38.2925C113.608 38.5616 113.373 38.8616 112.992 39.1641C111.706 40.1842 108.757 41.234 107.552 41.234C107.552 41.5458 107.557 41.8494 107.567 42.145C107.897 52.0753 113.608 53 113.608 53C113.608 53 113.608 52.9999 113.608 52.9999V48.2725H112.818V46.1715H110.712V44.5957H112.818V42.4946H113.608V38.3063Z" fill="#FE3D32"/>
<path fill-rule="evenodd" clip-rule="evenodd" d="M113.608 38.3017C113.608 38.2989 113.608 38.296 113.608 38.2932C113.608 38.5624 113.843 38.8623 114.225 39.1648C115.51 40.1849 118.459 41.2347 119.664 41.2347C119.664 41.5465 119.659 41.8501 119.649 42.1458C119.319 52.0761 113.608 53.0007 113.608 53.0007C113.608 53.0007 113.608 53.0007 113.608 53.0007V48.2733H114.398V46.1722H116.505V44.5964H114.398V42.4953H113.608V38.3017Z" fill="#D72D24"/>
<path d="M0 14.985H13.6401L13.9024 20.1693H13.4302C12.6958 18.4063 11.9263 17.2019 11.1219 16.556C10.3175 15.8927 9.13711 15.5611 7.58074 15.5611H6.66266V23.6517H7.55451C8.37642 23.6517 9.06716 23.3463 9.62676 22.7353C10.1864 22.1069 10.5798 21.269 10.8072 20.2217H11.2006V27.972H10.7547C10.4399 26.6628 10.0115 25.7289 9.46937 25.1704C8.94475 24.6118 8.21903 24.3325 7.2922 24.3325H6.66266V32.7374H7.65944C9.26827 32.7374 10.6323 32.2573 11.7515 31.2973C12.8881 30.3372 13.6663 29.1066 14.086 27.6054H14.6106L14.4008 33.3134H0V32.7374H1.54763V15.5611H0V14.985Z" fill="black"/>
<path d="M21.4051 27.8934C21.4051 29.6914 21.4925 30.9045 21.6674 31.5329C21.8422 32.1439 22.1833 32.4493 22.6904 32.4493C23.1975 32.4493 23.6522 32.1351 24.0544 31.5067C24.4566 30.8783 24.6577 30.0143 24.6577 28.9146V24.0445C24.6577 23.2939 24.5003 22.6568 24.1855 22.1331C23.8883 21.6094 23.4686 21.3476 22.9265 21.3476C22.3144 21.3476 21.9035 21.7403 21.6936 22.5258C21.5012 23.2939 21.4051 24.6292 21.4051 26.5319V27.8934ZM24.6577 49.4457V31.3235C23.9932 32.8246 22.8565 33.5752 21.2477 33.5752C17.9776 33.5752 16.3425 31.402 16.3425 27.0556C16.3425 24.8387 16.7884 23.2066 17.6803 22.1593C18.5896 21.1119 19.9449 20.5883 21.7461 20.5883C23.1975 20.5883 24.2205 21.1381 24.8151 22.2378L24.9987 20.8501H30.9794V21.3214H29.5367V49.4457V49.917H24.6577V49.4457Z" fill="black"/>
<path d="M46.8462 33.3134H40.8656L40.577 31.402C40.2972 32.1002 39.8775 32.6413 39.3179 33.0254C38.7758 33.3919 37.9627 33.5752 36.8785 33.5752C34.1679 33.5752 32.8127 32.1177 32.8127 29.2026V21.3214H31.3437V20.8501H37.6916V29.831C37.6916 30.8783 37.7616 31.5678 37.9015 31.8995C38.0588 32.2311 38.3561 32.397 38.7933 32.397C39.248 32.397 39.6502 32.1264 39.9999 31.5853C40.3497 31.0442 40.5246 30.2936 40.5246 29.3335V21.3214H39.3179V20.8501H45.4035V32.8421H46.8462V33.3134Z" fill="black"/>
<path d="M51.2391 19.0435C50.3123 19.0435 49.6477 18.8078 49.2455 18.3365C48.8608 17.8652 48.6684 17.2804 48.6684 16.5822C48.6684 15.884 48.8783 15.308 49.298 14.8541C49.7352 14.4003 50.3909 14.1734 51.2653 14.1734C52.1397 14.1734 52.8042 14.3828 53.2589 14.8018C53.7135 15.2032 53.9409 15.788 53.9409 16.556C53.9409 17.3066 53.7223 17.9088 53.2851 18.3627C52.8479 18.8165 52.1659 19.0435 51.2391 19.0435ZM47.2782 20.8501H53.7048V32.8421H55.1737V33.3134H47.3831V32.8421H48.8258V21.3214H47.2782V20.8501Z" fill="black"/>
<path d="M57.1511 3.41895H62.03V32.8421V33.3134H57.1511V32.8421V3.89025V3.41895Z" fill="black"/>
<path d="M67.864 19.0435C66.9371 19.0435 66.2726 18.8078 65.8704 18.3365C65.4857 17.8652 65.2933 17.2804 65.2933 16.5822C65.2933 15.884 65.5032 15.308 65.9229 14.8541C66.3601 14.4003 67.0158 14.1734 67.8902 14.1734C68.7646 14.1734 69.4291 14.3828 69.8838 14.8018C70.3384 15.2032 70.5658 15.788 70.5658 16.556C70.5658 17.3066 70.3472 17.9088 69.91 18.3627C69.4728 18.8165 68.7908 19.0435 67.864 19.0435ZM63.9031 20.8501H70.3297V32.8421H71.7986V33.3134H64.008V32.8421H65.4507V21.3214H63.9031V20.8501Z" fill="black"/>
<path d="M81.9076 26.2701C81.9076 24.4721 81.8201 23.2677 81.6453 22.6568C81.4704 22.0284 81.1294 21.7142 80.6223 21.7142C80.1151 21.7142 79.6604 22.0284 79.2582 22.6568C78.856 23.2852 78.6549 24.1492 78.6549 25.2489V30.119C78.6549 30.8696 78.8036 31.5067 79.1009 32.0304C79.4156 32.5541 79.8528 32.8159 80.4124 32.8159C80.9895 32.8159 81.3829 32.4319 81.5928 31.6638C81.8026 30.8958 81.9076 29.5517 81.9076 27.6316V26.2701ZM78.6549 13.6759V22.84C79.3195 21.3389 80.4561 20.5883 82.065 20.5883C85.3351 20.5883 86.9701 22.7615 86.9701 27.1079C86.9701 29.3248 86.5155 30.9569 85.6061 32.0042C84.7143 33.0516 83.3678 33.5752 81.5666 33.5752C80.6572 33.5752 79.9577 33.4356 79.4681 33.1563C78.9959 32.877 78.6724 32.4144 78.4975 31.7686L78.3139 33.3134H72.3333V32.8421H73.776V14.1472H72.3333V13.6759H78.6549Z" fill="black"/>
<path d="M96.5153 21.5832C95.8683 21.5832 95.3 22.0022 94.8103 22.84C94.3207 23.6779 94.0759 24.6729 94.0759 25.8249V32.8421H95.9382V33.3134H87.7542V32.8421H89.1969V21.3214H87.7542V20.8501H94.0759V23.3637C94.3032 22.4735 94.7404 21.7927 95.3874 21.3214C96.0344 20.8327 96.7689 20.5883 97.5908 20.5883C98.4127 20.5883 99.0772 20.8239 99.5844 21.2952C100.109 21.7491 100.371 22.4037 100.371 23.259C100.371 24.0968 100.179 24.7427 99.7942 25.1965C99.4095 25.6504 98.8149 25.8773 98.0105 25.8773C97.2236 25.8773 96.6377 25.6155 96.253 25.0918C95.8858 24.5681 95.8421 23.8437 96.1219 22.9186H97.0662C97.5034 22.0284 97.3197 21.5832 96.5153 21.5832Z" fill="black"/>
<path d="M104.598 19.0435C103.671 19.0435 103.006 18.8078 102.604 18.3365C102.219 17.8652 102.027 17.2804 102.027 16.5822C102.027 15.884 102.237 15.308 102.656 14.8541C103.094 14.4003 103.749 14.1734 104.624 14.1734C105.498 14.1734 106.163 14.3828 106.617 14.8018C107.072 15.2032 107.299 15.788 107.299 16.556C107.299 17.3066 107.081 17.9088 106.644 18.3627C106.206 18.8165 105.524 19.0435 104.598 19.0435ZM100.637 20.8501H107.063V32.8421H108.532V33.3134H100.742V32.8421H102.184V21.3214H100.637V20.8501Z" fill="black"/>
<path d="M109.67 33.5752V28.8884H109.985C110.44 30.407 111.052 31.4718 111.821 32.0828C112.591 32.6937 113.552 32.9992 114.707 32.9992C116.49 32.9992 117.382 32.4319 117.382 31.2973C117.382 30.8085 117.163 30.4419 116.726 30.1976C116.044 29.8135 115.17 29.5168 114.103 29.3073C112.914 28.9931 111.917 28.5742 111.113 28.0505C110.151 27.4221 109.67 26.4272 109.67 25.0656C109.67 23.7041 110.09 22.6219 110.929 21.8189C111.769 20.9985 112.888 20.5883 114.287 20.5883C115.144 20.5883 116.027 20.789 116.936 21.1905C117.268 21.3301 117.522 21.4 117.697 21.4C117.872 21.4 118.02 21.3389 118.143 21.2167C118.265 21.0945 118.414 20.8676 118.589 20.5359H118.877V24.542H118.562C117.671 22.2727 116.289 21.1381 114.418 21.1381C113.596 21.1381 112.984 21.2865 112.582 21.5832C112.18 21.8625 111.978 22.2204 111.978 22.6568C111.978 22.9186 112.04 23.1281 112.162 23.2852C112.285 23.4248 112.381 23.5295 112.451 23.5994C112.521 23.6692 112.634 23.7477 112.792 23.835C112.949 23.9048 113.08 23.9659 113.185 24.0183C113.29 24.0532 113.447 24.1056 113.657 24.1754C113.885 24.2452 114.051 24.2889 114.156 24.3063C115.345 24.6031 116.202 24.8649 116.726 25.0918C117.251 25.3013 117.749 25.5631 118.221 25.8773C119.183 26.5406 119.664 27.6141 119.664 29.0979C119.664 30.5641 119.227 31.6813 118.353 32.4493C117.478 33.1999 116.28 33.5752 114.759 33.5752C113.675 33.5752 112.626 33.3221 111.611 32.8159C111.401 32.6763 111.235 32.6064 111.113 32.6064C110.728 32.6064 110.352 32.9294 109.985 33.5752H109.67Z" fill="black"/>
<path d="M37.7697 42.4959L39.6804 48.4754L41.5912 42.4959H42.7779V49.8243H41.8577V46.9704L41.9432 44.1116L40.0274 49.8243H39.3234L37.4177 44.1317L37.5032 46.9704V49.8243H36.583V42.4959H37.7697Z" fill="#FE3D32"/>
<path d="M47.0418 49.8243C46.9882 49.7068 46.9497 49.5088 46.9262 49.2303C46.6111 49.6934 46.2088 49.9249 45.7194 49.9249C45.2266 49.9249 44.8411 49.7873 44.5629 49.5122C44.288 49.2337 44.1506 48.8428 44.1506 48.3395C44.1506 47.7858 44.3383 47.3462 44.7137 47.0208C45.0892 46.6953 45.6038 46.5292 46.2574 46.5225H46.9111V45.9437C46.9111 45.6182 46.839 45.3867 46.6949 45.2491C46.5508 45.1115 46.3312 45.0427 46.0362 45.0427C45.768 45.0427 45.5501 45.1233 45.3825 45.2843C45.2149 45.442 45.1311 45.6434 45.1311 45.8883H44.2411C44.2411 45.6098 44.3232 45.3447 44.4875 45.0931C44.6517 44.838 44.873 44.6384 45.1512 44.4941C45.4294 44.3498 45.7395 44.2777 46.0814 44.2777C46.6379 44.2777 47.0603 44.4169 47.3486 44.6954C47.6402 44.9706 47.7894 45.3732 47.7961 45.9034V48.6515C47.7994 49.071 47.8564 49.435 47.9671 49.7437V49.8243H47.0418ZM45.8552 49.1146C46.0731 49.1146 46.2809 49.0542 46.4787 48.9334C46.6765 48.8126 46.8206 48.6616 46.9111 48.4804V47.1818H46.4083C45.9859 47.1885 45.6524 47.2842 45.4077 47.4687C45.1629 47.6499 45.0406 47.9049 45.0406 48.2338C45.0406 48.5425 45.1026 48.7673 45.2266 48.9082C45.3507 49.0458 45.5602 49.1146 45.8552 49.1146Z" fill="#FE3D32"/>
<path d="M50.0186 44.3783L50.0437 44.9672C50.389 44.5075 50.8298 44.2777 51.3662 44.2777C52.3283 44.2777 52.816 44.9202 52.8294 46.2054V49.8243H51.9444V46.2457C51.9444 45.8195 51.8724 45.5175 51.7282 45.3397C51.5874 45.1585 51.3746 45.0679 51.0896 45.0679C50.8684 45.0679 50.6689 45.1417 50.4913 45.2893C50.3169 45.437 50.1761 45.6299 50.0689 45.8682V49.8243H49.1789V44.3783H50.0186Z" fill="#FE3D32"/>
<path d="M56.9677 49.8243C56.9141 49.7068 56.8755 49.5088 56.852 49.2303C56.5369 49.6934 56.1347 49.9249 55.6452 49.9249C55.1525 49.9249 54.767 49.7873 54.4887 49.5122C54.2139 49.2337 54.0764 48.8428 54.0764 48.3395C54.0764 47.7858 54.2641 47.3462 54.6396 47.0208C55.015 46.6953 55.5296 46.5292 56.1833 46.5225H56.837V45.9437C56.837 45.6182 56.7649 45.3867 56.6207 45.2491C56.4766 45.1115 56.257 45.0427 55.962 45.0427C55.6939 45.0427 55.476 45.1233 55.3084 45.2843C55.1407 45.442 55.0569 45.6434 55.0569 45.8883H54.1669C54.1669 45.6098 54.2491 45.3447 54.4133 45.0931C54.5776 44.838 54.7988 44.6384 55.0771 44.4941C55.3553 44.3498 55.6654 44.2777 56.0073 44.2777C56.5637 44.2777 56.9861 44.4169 57.2744 44.6954C57.5661 44.9706 57.7152 45.3732 57.7219 45.9034V48.6515C57.7253 49.071 57.7823 49.435 57.8929 49.7437V49.8243H56.9677ZM55.781 49.1146C55.9989 49.1146 56.2067 49.0542 56.4045 48.9334C56.6023 48.8126 56.7464 48.6616 56.837 48.4804V47.1818H56.3341C55.9117 47.1885 55.5782 47.2842 55.3335 47.4687C55.0888 47.6499 54.9664 47.9049 54.9664 48.2338C54.9664 48.5425 55.0284 48.7673 55.1525 48.9082C55.2765 49.0458 55.486 49.1146 55.781 49.1146Z" fill="#FE3D32"/>
<path d="M58.9287 46.8547C58.9287 46.0057 59.0829 45.3648 59.3913 44.932C59.6997 44.4958 60.1506 44.2777 60.7439 44.2777C61.297 44.2777 61.7177 44.5142 62.006 44.9874L62.0513 44.3783H62.8558V49.8746C62.8558 50.549 62.6832 51.0658 62.3379 51.4248C61.9926 51.7872 61.5116 51.9684 60.8948 51.9684C60.6266 51.9684 60.3249 51.9013 59.9897 51.7671C59.6578 51.6362 59.4081 51.4735 59.2405 51.2788L59.6025 50.6648C59.9713 51.0272 60.3785 51.2084 60.8244 51.2084C61.5652 51.2084 61.9457 50.8041 61.9658 49.9954V49.2857C61.6775 49.7118 61.2686 49.9249 60.7389 49.9249C60.1757 49.9249 59.7366 49.7135 59.4215 49.2907C59.1064 48.8646 58.9421 48.2539 58.9287 47.4587V46.8547ZM59.8187 47.363C59.8187 47.9737 59.9076 48.4234 60.0852 48.7119C60.2662 48.9971 60.5612 49.1397 60.9702 49.1397C61.4127 49.1397 61.7446 48.9132 61.9658 48.4603V45.7373C61.7345 45.291 61.406 45.0679 60.9803 45.0679C60.5713 45.0679 60.2763 45.2122 60.0953 45.5007C59.9143 45.786 59.8221 46.2255 59.8187 46.8194V47.363Z" fill="#FE3D32"/>
<path d="M66.1292 49.9249C65.4521 49.9249 64.9325 49.7236 64.5705 49.3209C64.2084 48.9149 64.0241 48.321 64.0173 47.5392V46.8798C64.0173 46.0678 64.1933 45.432 64.5453 44.9723C64.9007 44.5092 65.3951 44.2777 66.0287 44.2777C66.6656 44.2777 67.1416 44.4807 67.4567 44.8867C67.7718 45.2927 67.9327 45.9252 67.9394 46.7842V47.3681H64.9023V47.4939C64.9023 48.0777 65.0113 48.5022 65.2292 48.7673C65.4504 49.0324 65.7672 49.1649 66.1795 49.1649C66.441 49.1649 66.6706 49.1163 66.8684 49.0189C67.0695 48.9183 67.2572 48.7606 67.4316 48.5458L67.8942 49.1095C67.5087 49.6531 66.9203 49.9249 66.1292 49.9249ZM66.0287 45.0427C65.6599 45.0427 65.3867 45.1702 65.2091 45.4252C65.0314 45.6769 64.9308 46.0695 64.9074 46.603H67.0494V46.4822C67.0259 45.9655 66.9321 45.5964 66.7678 45.3749C66.6069 45.1535 66.3605 45.0427 66.0287 45.0427Z" fill="#FE3D32"/>
<path d="M69.8502 44.3783L69.8703 44.8817C70.2021 44.479 70.6396 44.2777 71.1827 44.2777C71.7894 44.2777 72.2135 44.5411 72.4548 45.0679C72.7967 44.5411 73.2728 44.2777 73.8829 44.2777C74.8852 44.2777 75.398 44.9035 75.4215 46.1551V49.8243H74.5365V46.2406C74.5365 45.8447 74.4661 45.5511 74.3253 45.3598C74.1845 45.1652 73.9465 45.0679 73.6113 45.0679C73.3431 45.0679 73.1253 45.1719 72.9576 45.3799C72.79 45.588 72.6928 45.8531 72.666 46.1752V49.8243H71.771V46.2004C71.7609 45.4454 71.4542 45.0679 70.8508 45.0679C70.4016 45.0679 70.0848 45.2927 69.9004 45.7423V49.8243H69.0155V44.3783H69.8502Z" fill="#FE3D32"/>
<path d="M78.71 49.9249C78.0329 49.9249 77.5133 49.7236 77.1512 49.3209C76.7892 48.9149 76.6048 48.321 76.5981 47.5392V46.8798C76.5981 46.0678 76.7741 45.432 77.1261 44.9723C77.4814 44.5092 77.9759 44.2777 78.6094 44.2777C79.2464 44.2777 79.7224 44.4807 80.0375 44.8867C80.3526 45.2927 80.5135 45.9252 80.5202 46.7842V47.3681H77.4831V47.4939C77.4831 48.0777 77.5921 48.5022 77.8099 48.7673C78.0312 49.0324 78.348 49.1649 78.7603 49.1649C79.0218 49.1649 79.2514 49.1163 79.4492 49.0189C79.6503 48.9183 79.838 48.7606 80.0123 48.5458L80.4749 49.1095C80.0894 49.6531 79.5011 49.9249 78.71 49.9249ZM78.6094 45.0427C78.2407 45.0427 77.9675 45.1702 77.7898 45.4252C77.6122 45.6769 77.5116 46.0695 77.4881 46.603H79.6302V46.4822C79.6067 45.9655 79.5129 45.5964 79.3486 45.3749C79.1877 45.1535 78.9413 45.0427 78.6094 45.0427Z" fill="#FE3D32"/>
<path d="M82.4309 44.3783L82.4561 44.9672C82.8014 44.5075 83.2422 44.2777 83.7785 44.2777C84.7406 44.2777 85.2283 44.9202 85.2418 46.2054V49.8243H84.3568V46.2457C84.3568 45.8195 84.2847 45.5175 84.1406 45.3397C83.9998 45.1585 83.7869 45.0679 83.502 45.0679C83.2807 45.0679 83.0813 45.1417 82.9036 45.2893C82.7293 45.437 82.5885 45.6299 82.4812 45.8682V49.8243H81.5912V44.3783H82.4309Z" fill="#FE3D32"/>
<path d="M87.7458 43.0596V44.3783H88.5655V45.0981H87.7458V48.4754C87.7458 48.6901 87.781 48.8528 87.8514 48.9636C87.9218 49.0743 88.0425 49.1297 88.2135 49.1297C88.3308 49.1297 88.4498 49.1095 88.5705 49.0693L88.5604 49.8243C88.3593 49.8914 88.1531 49.9249 87.9419 49.9249C87.59 49.9249 87.3218 49.7991 87.1374 49.5474C86.953 49.2958 86.8609 48.9401 86.8609 48.4804V45.0981H86.0312V44.3783H86.8609V43.0596H87.7458Z" fill="#FE3D32"/>
<path d="M95.5296 47.9116H93.0557L92.4875 49.8243H91.5422L93.9005 42.4959H94.6899L97.0532 49.8243H96.1079L95.5296 47.9116ZM93.2971 47.1164H95.2933L94.2927 43.7844L93.2971 47.1164Z" fill="#FE3D32"/>
<path d="M102.569 48.9132L102.408 49.1146C101.946 49.6548 101.269 49.9249 100.377 49.9249C99.5858 49.9249 98.964 49.6632 98.5114 49.1397C98.0622 48.6129 97.8326 47.8697 97.8225 46.91V45.4705C97.8225 44.4438 98.027 43.6754 98.436 43.1653C98.8483 42.652 99.4634 42.3953 100.281 42.3953C100.979 42.3953 101.523 42.5899 101.916 42.9791C102.311 43.3683 102.529 43.9237 102.569 44.6451H101.649C101.612 44.1888 101.485 43.8331 101.267 43.5781C101.052 43.3197 100.726 43.1905 100.286 43.1905C99.7601 43.1905 99.3746 43.3633 99.1299 43.7089C98.8852 44.0512 98.7578 44.5998 98.7477 45.3548V46.8496C98.7477 47.5878 98.8885 48.1549 99.1701 48.5509C99.4517 48.9434 99.8556 49.1397 100.382 49.1397C100.878 49.1397 101.255 49.0189 101.513 48.7774L101.649 48.6515V46.9604H100.312V46.1752H102.569V48.9132Z" fill="#FE3D32"/>
</svg>
