<svg xmlns="http://www.w3.org/2000/svg" width="21" height="21" viewBox="0 0 21 21">
    <defs>
        <radialGradient id="a" cx="-.27%" cy="88.786%" r="134.394%" fx="-.27%" fy="88.786%">
            <stop offset="0%" stop-color="#140AA5"/>
            <stop offset="100%" stop-color="#EF111B"/>
        </radialGradient>
        <radialGradient id="b" cx="-.27%" cy="88.786%" r="178.038%" fx="-.27%" fy="88.786%" gradientTransform="scale(1 .60551) rotate(-55.502 .547 1.177)">
            <stop offset="0%" stop-color="#140AA5"/>
            <stop offset="100%" stop-color="#EF111B"/>
        </radialGradient>
    </defs>
    <g fill="none" fill-rule="evenodd">
        <g transform="translate(2 2)">
            <circle cx="8.5" cy="8.5" r="9.5" fill="#FFF" fill-rule="nonzero" stroke="url(#a)" stroke-width="2"/>
            <path fill="url(#b)" d="M7.36 11.04c0-.73.088-1.31.265-1.743.177-.432.501-.858.973-1.277.471-.42.785-.76.941-1.024.156-.263.234-.54.234-.832 0-.88-.406-1.32-1.218-1.32-.386 0-.694.118-.926.355-.232.237-.353.564-.363.98H5c.01-.994.332-1.773.965-2.335C6.598 3.28 7.46 3 8.555 3c1.104 0 1.96.267 2.57.8.61.535.914 1.289.914 2.263 0 .442-.099.86-.297 1.253-.198.394-.544.83-1.039 1.309l-.633.602c-.396.38-.622.825-.68 1.335l-.03.477h-2zm-.227 2.398c0-.35.118-.637.355-.864.237-.226.54-.34.91-.34s.674.114.91.34c.238.227.356.515.356.864 0 .343-.116.627-.348.851-.231.224-.537.336-.918.336-.38 0-.686-.112-.918-.336a1.134 1.134 0 0 1-.347-.851z"/>
        </g>
    </g>
</svg>
