<svg xmlns="http://www.w3.org/2000/svg" width="110" height="110" viewBox="0 0 110 110"><defs><style>.cls-1{fill:#fff;}</style></defs><title>Воротник - Button down modern</title><g id="Воротник"><g id="Button_down_modern" data-name="Button down modern"><g id="Цвет-2" data-name="Цвет"><path class="cls-1" d="M55.1,71.5a82.6,82.6,0,0,0,13.672-1.08c-.045-7.3-.9-14.072-3.194-19.92,8.371-3.065,15.485-6.794,20.751-11.5A82.769,82.769,0,0,0,55.1,33.08,82.769,82.769,0,0,0,23.875,39c5.265,4.706,12.38,8.435,20.751,11.5-2.835,5.155-3.593,12.132-3.393,19.948A84.868,84.868,0,0,0,55.1,71.5Z"/><path class="cls-1" d="M.5,51.5a19.253,19.253,0,0,1,1.824-8.339l11-23.843C12.911,30.906,22.9,42.518,44.5,50.5c-6.75,13.25,0,40.25-9,55.75,0,0-22.91-31.287-30.5-41.75A22.323,22.323,0,0,1,.5,51.5Z"/><path class="cls-1" d="M55,33.08a77.9,77.9,0,0,1,31.167,6.087c7.317-5.629,10.413-12.351,10.5-19.849C86,13.333,70.652,11,55,11s-31,2.333-41.671,8.317c.092,7.5,3.188,14.22,10.5,19.849A77.9,77.9,0,0,1,55,33.08Z"/><path class="cls-1" d="M109.5,51.5a19.253,19.253,0,0,0-1.824-8.339l-11-23.843C97.088,30.906,87.1,42.518,65.5,50.5c6.75,13.25,0,40.25,9,55.75,0,0,22.91-31.287,30.5-41.75A22.323,22.323,0,0,0,109.5,51.5Z"/></g><g id="Контур-2" data-name="Контур"><circle class="cls-1" cx="32.833" cy="90.333" r="2.5"/><circle class="cls-1" cx="77.165" cy="90.333" r="2.5"/><path d="M37.266,95.967q-.215,1-.47,1.968a.5.5,0,0,1-.483.372.486.486,0,0,1-.128-.017.5.5,0,0,1-.355-.611q.25-.946.459-1.923a.5.5,0,1,1,.978.211Zm.273-4.54a.5.5,0,0,0-.565.426c-.093.66-.2,1.314-.308,1.959a.5.5,0,0,0,.407.578.438.438,0,0,0,.086.008.5.5,0,0,0,.492-.414q.171-.984.313-1.992A.5.5,0,0,0,37.539,91.427ZM26.025,88.374a.5.5,0,0,0-.808.59L26.4,90.582a.5.5,0,1,0,.808-.59Zm2.363,3.234a.5.5,0,1,0-.808.59l1.181,1.617a.5.5,0,0,0,.4.205.5.5,0,0,0,.4-.795Zm2.362,3.234a.5.5,0,0,0-.808.59l1.182,1.618a.5.5,0,1,0,.808-.59Zm2.364,3.236a.5.5,0,0,0-.808.59l1.183,1.617a.5.5,0,1,0,.807-.59Zm8.222-46.343a.5.5,0,0,0-.639.3c-.219.618-.425,1.271-.612,1.939a.5.5,0,1,0,.963.27c.181-.647.38-1.278.592-1.874A.5.5,0,0,0,41.336,51.736ZM39.465,59.5a.485.485,0,0,0-.562.429q-.133.986-.238,2a.5.5,0,0,0,.446.549l.052,0a.5.5,0,0,0,.5-.448q.1-1,.234-1.972A.5.5,0,0,0,39.465,59.5Zm-.706,7.966a.471.471,0,0,0-.523.476q-.046.995-.082,2a.5.5,0,0,0,.482.518h.018a.5.5,0,0,0,.5-.482q.036-1,.082-1.992A.5.5,0,0,0,38.759,67.466Zm.261-3.991a.5.5,0,0,0-.538.458q-.078.993-.14,2a.5.5,0,0,0,.469.529h.031a.5.5,0,0,0,.5-.47q.062-1,.139-1.985A.5.5,0,0,0,39.021,63.475Zm1.171-7.908a.5.5,0,0,0-.6.381q-.214.974-.388,1.985a.5.5,0,0,0,.408.578.512.512,0,0,0,.085.007.5.5,0,0,0,.492-.415q.17-.989.379-1.94A.5.5,0,0,0,40.191,55.566ZM38.6,71.461a.534.534,0,0,0-.515.485l-.054,2a.5.5,0,0,0,.488.513h.013a.5.5,0,0,0,.5-.487l.054-2A.5.5,0,0,0,38.6,71.461Zm-.379,12a.49.49,0,0,0-.526.472q-.053,1-.122,1.989a.5.5,0,0,0,.463.534h.036a.5.5,0,0,0,.5-.465q.07-1,.124-2A.5.5,0,0,0,38.225,83.457Zm-.263,3.993a.507.507,0,0,0-.542.454q-.089,1-.2,1.979a.5.5,0,0,0,.441.553l.056,0a.5.5,0,0,0,.5-.444q.111-.993.2-2A.5.5,0,0,0,37.961,87.45Zm.425-7.992a.546.546,0,0,0-.516.483c-.022.665-.047,1.331-.076,1.994a.5.5,0,0,0,.478.521h.022a.5.5,0,0,0,.5-.479q.042-1,.076-2A.5.5,0,0,0,38.386,79.458Zm.111-4a.483.483,0,0,0-.513.487l-.053,2a.5.5,0,0,0,.486.514h.014a.5.5,0,0,0,.5-.486l.053-2A.5.5,0,0,0,38.5,75.46ZM35.9,99.251a.5.5,0,0,0-.629.321q-.307.948-.664,1.854a.5.5,0,0,0,.282.648.488.488,0,0,0,.184.035.5.5,0,0,0,.465-.316q.368-.936.684-1.913A.5.5,0,0,0,35.9,99.251ZM22.229,41.656a.5.5,0,0,0,.633-.774q-.773-.631-1.5-1.284a.5.5,0,0,0-.666.745Q21.438,41.011,22.229,41.656Zm-3.015-2.7a.5.5,0,1,0,.7-.712q-.71-.7-1.367-1.422a.5.5,0,0,0-.74.673Q18.484,38.238,19.214,38.958ZM12.406,28.935a.5.5,0,1,0,.938-.349c-.228-.613-.426-1.237-.589-1.856a.5.5,0,1,0-.967.255C11.958,27.636,12.167,28.292,12.406,28.935ZM25.453,44.086a.5.5,0,0,0,.572-.82q-.82-.571-1.605-1.162a.5.5,0,1,0-.6.8Q24.618,43.5,25.453,44.086Zm-8.964-8.132a.5.5,0,1,0,.78-.625q-.622-.776-1.179-1.573a.5.5,0,0,0-.82.572C15.646,34.867,16.057,35.415,16.489,35.954ZM37.77,50.9q.917.406,1.846.794A.5.5,0,1,0,40,50.773q-.918-.384-1.826-.786a.5.5,0,1,0-.405.914Zm-3.639-1.712q.9.448,1.811.878a.493.493,0,0,0,.212.048.5.5,0,0,0,.213-.952q-.9-.426-1.789-.868a.5.5,0,1,0-.447.895Zm-7-3.979q.84.543,1.708,1.069a.5.5,0,0,0,.518-.855q-.855-.518-1.682-1.053a.5.5,0,1,0-.544.839ZM2.937,53.686c-.162-.636-.3-1.28-.4-1.914a.5.5,0,0,0-.987.159c.107.663.247,1.336.417,2a.5.5,0,0,0,.484.376.493.493,0,0,0,.124-.016A.5.5,0,0,0,2.937,53.686ZM30.576,47.3q.871.493,1.765.969a.5.5,0,0,0,.234.059.5.5,0,0,0,.235-.941q-.882-.469-1.743-.956a.5.5,0,0,0-.492.87ZM21.3,81.908a.5.5,0,1,0-.809.588l1.181,1.619a.5.5,0,0,0,.4.205.5.5,0,0,0,.4-.795ZM14.217,72.2a.5.5,0,0,0-.808.59l1.181,1.617a.5.5,0,0,0,.4.205.5.5,0,0,0,.4-.795Zm2.361,3.233a.5.5,0,1,0-.807.59l1.181,1.617a.5.5,0,1,0,.808-.59Zm2.363,3.235a.5.5,0,1,0-.809.588l1.181,1.619a.5.5,0,1,0,.808-.59Zm4.722,6.468a.5.5,0,1,0-.808.59l1.181,1.618a.5.5,0,1,0,.808-.59ZM5.066,59.154a.5.5,0,1,0-.885.465c.31.59.65,1.185,1.01,1.767a.5.5,0,0,0,.851-.525C5.694,60.3,5.366,59.723,5.066,59.154Zm-.852-1.769c-.264-.6-.5-1.219-.713-1.825a.5.5,0,1,0-.945.326c.218.631.468,1.27.743,1.9a.5.5,0,0,0,.916-.4ZM7.132,62.5a.5.5,0,0,0-.814.58L7.5,64.7a.5.5,0,0,0,.4.205.494.494,0,0,0,.294-.1.5.5,0,0,0,.109-.7Zm4.723,6.468a.5.5,0,1,0-.807.59l1.181,1.617a.481.481,0,0,0,.39.2.5.5,0,0,0,.4-.809ZM14.6,32.86a.5.5,0,0,0,.43-.754c-.335-.57-.646-1.15-.923-1.725a.5.5,0,1,0-.9.434c.289.6.613,1.205.963,1.8A.5.5,0,0,0,14.6,32.86ZM9.491,65.73a.5.5,0,0,0-.808.59l1.182,1.617a.5.5,0,0,0,.4.205.494.494,0,0,0,.294-.1.5.5,0,0,0,.109-.7ZM59.777,13.953q1,.032,1.989.077h.023a.5.5,0,0,0,.022-1q-1-.045-2-.077a.519.519,0,0,0-.516.483A.5.5,0,0,0,59.777,13.953Zm-11.987.088h.023q.992-.046,1.992-.08a.5.5,0,0,0,.483-.516.519.519,0,0,0-.516-.483q-1.006.034-2,.08a.5.5,0,0,0,.022,1Zm15.967.092q1,.059,1.989.132h.037a.5.5,0,0,0,.036-1q-1-.074-2-.133a.5.5,0,1,0-.059,1Zm-11.965-.226h.01q1-.019,2-.027a.5.5,0,0,0,0-1h0q-1.006.007-2.009.027a.5.5,0,0,0,.01,1Zm4-.028q1,.007,1.993.024H57.8a.5.5,0,0,0,.009-1q-1-.018-2-.024h0a.5.5,0,0,0,0,1ZM75.638,15.4q.991.158,1.962.334a.506.506,0,0,0,.089.008.5.5,0,0,0,.088-.992q-.981-.177-1.982-.337a.5.5,0,1,0-.157.987Zm-3.944-.555q1,.122,1.975.259a.484.484,0,0,0,.07,0,.5.5,0,0,0,.069-1q-.988-.138-1.992-.261a.493.493,0,0,0-.557.436A.5.5,0,0,0,71.694,14.845Zm-3.962-.417q1,.089,1.983.192l.053,0a.5.5,0,0,0,.052-1q-.992-.1-2-.194a.5.5,0,1,0-.089,1Zm-27.919.222.054,0q.985-.1,1.983-.2a.5.5,0,0,0-.091-1q-1.006.092-2,.2a.5.5,0,0,0,.053,1Zm3.984-.363h.039q.989-.075,1.988-.136a.5.5,0,0,0,.468-.53.491.491,0,0,0-.53-.468q-1.006.062-2,.137a.5.5,0,0,0,.038,1ZM16.617,20.4a.5.5,0,0,0,.215-.049q.874-.417,1.8-.8a.5.5,0,1,0-.386-.923q-.953.4-1.849.825a.5.5,0,0,0,.216.951Zm11.359-3.8a.5.5,0,0,0,.113-.013q.958-.223,1.942-.425a.5.5,0,1,0-.2-.979q-1,.206-1.966.43a.5.5,0,0,0,.112.987Zm-7.671,2.255a.491.491,0,0,0,.173-.031q.913-.338,1.871-.651a.5.5,0,0,0-.312-.95q-.975.319-1.906.664a.5.5,0,0,0,.173.969Zm59.249-2.743q.984.2,1.943.418a.488.488,0,0,0,.112.013.5.5,0,0,0,.111-.987q-.97-.222-1.968-.424a.5.5,0,0,0-.2.98Zm-47.661-.322a.483.483,0,0,0,.091-.008q.97-.178,1.961-.338a.5.5,0,1,0-.16-.987q-1,.163-1.981.342a.5.5,0,0,0,.09.992Zm3.949-.642a.5.5,0,0,0,.071,0q.979-.139,1.975-.264a.5.5,0,0,0-.124-.992q-1,.125-1.991.266a.5.5,0,0,0,.07,1ZM24.1,17.6a.5.5,0,0,0,.14-.02q.94-.274,1.914-.527a.5.5,0,0,0-.252-.968q-.987.256-1.942.535a.5.5,0,0,0,.14.98Zm63.139.489q.959.309,1.875.642a.5.5,0,0,0,.342-.939q-.934-.34-1.91-.654a.5.5,0,0,0-.307.952Zm3.721,1.355q.932.384,1.809.794a.5.5,0,0,0,.425-.905q-.9-.421-1.853-.814a.5.5,0,1,0-.381.925Zm-7.535-2.454q.975.25,1.917.52a.5.5,0,0,0,.138.02.5.5,0,0,0,.138-.98q-.956-.275-1.945-.528a.5.5,0,0,0-.248.969ZM43.047,31.987a.509.509,0,0,0,.066,0q.98-.129,1.974-.238a.5.5,0,1,0-.108-.994q-1,.11-2,.241a.5.5,0,0,0,.065,1Zm3.977-.436.044,0q.988-.086,1.984-.152a.5.5,0,0,0,.466-.532.508.508,0,0,0-.532-.466q-1.007.067-2.006.154a.5.5,0,0,0,.043,1Zm3.994-.262h.022q.99-.044,1.989-.065a.5.5,0,0,0-.021-1Q52,30.245,51,30.29a.5.5,0,0,0,.021,1Zm4-.086q1,0,1.989.025h.012a.5.5,0,0,0,.012-1q-1-.023-2.01-.025h0a.5.5,0,0,0,0,1Zm3.976.095q1,.046,1.985.113h.034a.5.5,0,0,0,.033-1q-1-.067-2.006-.114a.5.5,0,0,0-.046,1Zm-19.9,1.3a.526.526,0,0,0,.087-.007q.973-.171,1.963-.324a.5.5,0,1,0-.152-.988q-1,.154-1.983.327a.5.5,0,0,0,.086.993Zm-11.641,2.88a.5.5,0,0,0,.154-.024q.935-.3,1.9-.591a.5.5,0,1,0-.285-.958q-.975.29-1.922.6a.5.5,0,0,0,.154.976Zm7.718-2.1a.52.52,0,0,0,.109-.012q.964-.215,1.946-.41a.5.5,0,0,0-.2-.98q-.993.2-1.968.414a.5.5,0,0,0,.108.988ZM23.683,36.813a.5.5,0,0,0,.18-.034q.914-.352,1.863-.69a.5.5,0,1,0-.335-.942q-.961.341-1.889.7a.5.5,0,0,0,.18.966Zm7.6-2.48a.489.489,0,0,0,.131-.018q.951-.258,1.925-.5a.5.5,0,1,0-.239-.971q-.985.243-1.947.5a.5.5,0,0,0,.13.982Zm43.458-.926q.979.219,1.936.458a.516.516,0,0,0,.121.015.5.5,0,0,0,.12-.985q-.968-.241-1.958-.463a.5.5,0,1,0-.219.976Zm3.859.961q.968.264,1.911.548a.512.512,0,0,0,.144.021.5.5,0,0,0,.144-.979q-.954-.286-1.935-.555a.5.5,0,0,0-.264.965Zm-7.758-1.747q.985.176,1.954.371a.491.491,0,0,0,.1.01.5.5,0,0,0,.1-.99q-.979-.2-1.976-.375a.5.5,0,0,0-.58.4A.5.5,0,0,0,70.845,32.622Zm11.565,2.89q.955.313,1.879.644a.5.5,0,1,0,.337-.941q-.937-.335-1.9-.653a.5.5,0,1,0-.312.95Zm-15.5-3.5q.99.133,1.968.285a.529.529,0,0,0,.078.006.5.5,0,0,0,.077-.994q-.989-.154-1.99-.288a.5.5,0,1,0-.133.991Zm-3.953-.442q.994.089,1.978.2l.056,0a.5.5,0,0,0,.055-1q-.995-.111-2-.2a.5.5,0,1,0-.089,1ZM29.833,90.333a3,3,0,0,1,1.87-2.775l-.2-.9a.5.5,0,1,1,.976-.217l.2.906c.052,0,.1-.015.153-.015a3,3,0,0,1,1.13,5.775l.2.9a.5.5,0,0,1-.379.6.524.524,0,0,1-.109.012.5.5,0,0,1-.488-.392l-.2-.906c-.052,0-.1.015-.152.015A3,3,0,0,1,29.833,90.333Zm1,0a2,2,0,1,0,2-2A2,2,0,0,0,30.833,90.333Zm2,1.5a.5.5,0,0,0,0-1,.5.5,0,1,1,.5-.5.5.5,0,0,0,1,0,1.5,1.5,0,1,0-1.5,1.5Zm47.332-1.5a3,3,0,0,1-3,3c-.052,0-.1-.013-.152-.015l-.2.906a.5.5,0,0,1-.488.392.524.524,0,0,1-.109-.012.5.5,0,0,1-.379-.6l.2-.9a3,3,0,0,1,1.13-5.775c.052,0,.1.013.152.015l.2-.906a.506.506,0,0,1,.6-.38.5.5,0,0,1,.38.6l-.2.9A3,3,0,0,1,80.166,90.333Zm-1,0a2,2,0,1,0-2,2A2,2,0,0,0,79.166,90.333Zm-2-1.5a1.5,1.5,0,0,0-1.5,1.5.5.5,0,0,0,1,0,.5.5,0,1,1,.5.5.5.5,0,0,0,0,1,1.5,1.5,0,1,0,0-3ZM54.915,58.621a2.282,2.282,0,0,0,0,4.564.5.5,0,0,0,0-1A1.282,1.282,0,1,1,56.2,60.9a.5.5,0,0,0,1,0A2.285,2.285,0,0,0,54.915,58.621ZM58.929,61.4a4.042,4.042,0,0,1-8.028,0H49.568a.5.5,0,0,1,0-1H50.9a4.042,4.042,0,0,1,8.028,0h1.333a.5.5,0,0,1,0,1Zm-.949-.5a3.064,3.064,0,1,0-3.064,3.064A3.068,3.068,0,0,0,57.979,60.9Zm6.708,7.556q-.986.11-1.979.2a.5.5,0,0,0,.043,1l.044,0q1-.088,2-.2a.5.5,0,0,0-.11-.994Zm-7.934.521q-.917.019-1.838.02h-.152a.5.5,0,0,0,0,1h.152q.932,0,1.858-.02a.5.5,0,0,0,.49-.511A.509.509,0,0,0,56.753,68.98Zm-7.951-.2q-.4-.028-.8-.06v-.268a.5.5,0,0,0-1,0v.729a.5.5,0,0,0,.458.5q.636.054,1.275.1h.035a.5.5,0,0,0,.034-1Zm3.973.19q-1-.025-1.986-.073a.485.485,0,0,0-.524.474.5.5,0,0,0,.475.524q1,.051,2.012.075h.012a.5.5,0,0,0,.012-1ZM47.5,66.955a.5.5,0,0,0,.5-.5v-2a.5.5,0,1,0-1,0v2A.5.5,0,0,0,47.5,66.955Zm1.739-11.573a.5.5,0,0,0,.375-.17,6.516,6.516,0,0,1,1.406-1.2.5.5,0,1,0-.535-.845,7.5,7.5,0,0,0-1.622,1.388.5.5,0,0,0,.375.83ZM60.545,53h2a.5.5,0,1,0,0-1h-2a.5.5,0,0,0,0,1Zm-4,0h2a.5.5,0,1,0,0-1h-2a.5.5,0,0,0,0,1Zm-3.975.269a.518.518,0,0,0,.138-.019A6.586,6.586,0,0,1,54.545,53a.481.481,0,0,0,.478-.5A.519.519,0,0,0,54.5,52a7.529,7.529,0,0,0-2.067.288.5.5,0,0,0,.137.981ZM47.5,62.955a.5.5,0,0,0,.5-.5v-2a.5.5,0,0,0-1,0v2A.5.5,0,0,0,47.5,62.955Zm13.226,5.853q-.991.066-1.986.11a.5.5,0,0,0,.022,1h.023q1.006-.045,2.008-.11a.5.5,0,1,0-.066-1ZM47.5,58.954a.48.48,0,0,0,.074.006.5.5,0,0,0,.494-.427,6.45,6.45,0,0,1,.532-1.771.5.5,0,0,0-.907-.422,7.462,7.462,0,0,0-.614,2.046A.5.5,0,0,0,47.5,58.954ZM110,51.5h0a22.785,22.785,0,0,1-4.6,13.289c-7.5,10.344-30.272,41.438-30.5,41.751a.5.5,0,0,1-.4.205h-.026a.5.5,0,0,1-.406-.248c-4.894-8.43-5.187-20.02-5.47-31.229-.037-1.452-.074-2.889-.12-4.307A91.205,91.205,0,0,1,54.915,72a91.131,91.131,0,0,1-13.393-1.009c-.046,1.41-.083,2.838-.12,4.281-.283,11.209-.576,22.8-5.47,31.229a.5.5,0,0,1-.406.248H35.5a.5.5,0,0,1-.4-.205c-.229-.312-23-31.407-30.5-41.751A22.778,22.778,0,0,1,0,51.505a19.759,19.759,0,0,1,1.87-8.554l11-23.843a77.34,77.34,0,0,0,.071-.1.484.484,0,0,1,.084-.08c.012-.009.019-.023.032-.031C21.549,13.56,36.8,10.5,54.915,10.5c18.031,0,33.226,3.034,41.734,8.325a.493.493,0,0,1,.475.283l11,23.843A19.767,19.767,0,0,1,110,51.5Zm-55.084-40c-17.77,0-32.713,2.954-41.088,8.106-.009.4,0,.806.014,1.208.252-.148.494-.3.756-.444a.5.5,0,1,1,.481.877c-.4.219-.779.449-1.157.679.53,5.174,3.2,10.138,7.8,14.659a.5.5,0,0,1,.57.282.486.486,0,0,1,.022.286c.467.441.949.878,1.453,1.31a85.415,85.415,0,0,1,62.417.045c.436-.372.861-.748,1.269-1.127-.43-.178-.858-.357-1.3-.529a.5.5,0,1,1,.363-.932c.588.229,1.162.465,1.727.7,4.589-4.5,7.272-9.449,7.827-14.6-.488-.3-1-.6-1.532-.891a.5.5,0,1,1,.475-.88c.393.212.773.43,1.144.651q.028-.6.019-1.195C87.829,14.49,72.8,11.5,54.915,11.5ZM85.3,39.24A84.4,84.4,0,0,0,24.643,39.2,70.46,70.46,0,0,0,44.593,50H65.406A70.573,70.573,0,0,0,85.3,39.24ZM40.4,75.247c.237-9.378.461-18.251,3.4-24.472-8.36-3.14-15.191-6.95-20.294-11.223a.489.489,0,0,1-.4-.288A.478.478,0,0,1,23.1,39.2C17.05,34,13.536,28.142,12.921,21.974c0-.006-.011-.008-.015-.014a.49.49,0,0,1-.033-.449V21.5l-.695,1.506c.032.608.089,1.22.181,1.821a.5.5,0,0,1-.418.57.516.516,0,0,1-.077.006.5.5,0,0,1-.494-.424c-.009-.061-.01-.124-.018-.185L3.745,41.275a.493.493,0,0,1-.036.172q-.156.365-.294.735a.491.491,0,0,1-.2.242l-.437.947c-.03.064-.054.129-.083.193a.492.492,0,0,1,.139.473,18.063,18.063,0,0,0-.376,1.909.5.5,0,0,1-.565.425.492.492,0,0,1-.2-.075c-.12.426-.222.854-.311,1.284a.453.453,0,0,1,.421-.213.5.5,0,0,1,.481.518c-.008.225-.012.449-.012.674q0,.636.042,1.275a.5.5,0,0,1-.467.531H1.818a.5.5,0,0,1-.5-.468q-.043-.671-.044-1.34c0-.148,0-.3.008-.443A18.2,18.2,0,0,0,1,51.494H1A21.794,21.794,0,0,0,5.4,64.206c6.909,9.524,26.761,36.643,30.039,41.121C39.85,97.172,40.13,86.031,40.4,75.247Zm1.152-5.26q1.722.259,3.445.451v-.993c-.518-.057-1.035-.115-1.551-.181a.5.5,0,0,1,.128-.992c.473.061.948.114,1.423.167V59.5A9.456,9.456,0,0,1,47.591,53H46.5a.5.5,0,0,1,0-1h2a.489.489,0,0,1,.15.03A9.509,9.509,0,0,1,50.283,51H44.818c-.16.326-.314.657-.458,1h.14a.5.5,0,0,1,0,1H44c-.01,0-.019-.005-.029-.006-1.518,4.169-2.068,9.368-2.333,15.016a.492.492,0,0,1-.042.972C41.582,69.317,41.567,69.65,41.555,69.987Zm26.888-.026c-.012-.329-.026-.654-.04-.981-.535.081-1.071.16-1.61.231a.51.51,0,0,1-.066,0,.5.5,0,0,1-.065-1c.568-.075,1.133-.158,1.7-.243C68.094,62.344,67.544,57.159,66.03,53H64.545a.5.5,0,0,1,0-1h1.095c-.144-.343-.3-.674-.458-1H54.5A8.51,8.51,0,0,0,46,59.5v11c0,.011-.006.021-.007.032A89.391,89.391,0,0,0,68.443,69.961ZM109,51.494a18.217,18.217,0,0,0-.284-3.379c0,.147.008.295.008.442q0,.671-.044,1.34a.5.5,0,0,1-.5.468h-.033a.5.5,0,0,1-.467-.531q.042-.639.042-1.276,0-.337-.012-.673a.5.5,0,0,1,.481-.518.467.467,0,0,1,.422.218c-.089-.432-.192-.862-.312-1.289a.492.492,0,0,1-.2.074.5.5,0,0,1-.565-.425,18.063,18.063,0,0,0-.376-1.909.492.492,0,0,1,.139-.473c-.029-.064-.053-.129-.083-.193l-.437-.948a.491.491,0,0,1-.2-.242q-.138-.368-.294-.734a.492.492,0,0,1-.036-.172L98.647,24.794c-.009.061-.009.124-.018.185a.5.5,0,0,1-.494.424.511.511,0,0,1-.077-.006.5.5,0,0,1-.418-.57c.092-.6.149-1.213.181-1.821L97.126,21.5c-.875,11.6-11.983,22.157-30.935,29.275C69.135,57,69.359,65.869,69.6,75.247c.272,10.784.553,21.925,4.959,30.08,3.278-4.479,23.13-31.6,30.039-41.121A21.8,21.8,0,0,0,109,51.494ZM86.335,85.139l-1.18,1.617a.5.5,0,0,0,.808.59l1.181-1.619a.5.5,0,1,0-.809-.588ZM71.344,70.463h.018a.5.5,0,0,0,.482-.518q-.036-1.009-.082-2a.481.481,0,0,0-.523-.476.5.5,0,0,0-.476.522q.046.989.082,1.992A.5.5,0,0,0,71.344,70.463Zm-.456-7.984a.5.5,0,0,0,.446-.549q-.106-1.015-.238-2a.489.489,0,0,0-.562-.429.5.5,0,0,0-.429.562q.131.971.234,1.972a.5.5,0,0,0,.5.448ZM69.567,54.6a.5.5,0,0,0,.347-.616c-.187-.669-.393-1.322-.612-1.939a.5.5,0,0,0-.942.335c.212.6.411,1.227.592,1.874a.5.5,0,0,0,.616.347Zm.816,3.915a.5.5,0,0,0,.408-.578q-.174-1.012-.388-1.985a.5.5,0,1,0-.977.215q.209.951.379,1.94a.5.5,0,0,0,.492.415A.512.512,0,0,0,70.383,58.511Zm1.954,31.925a.5.5,0,0,0,.441-.553q-.111-.981-.2-1.979a.5.5,0,1,0-1,.088q.09,1.008.2,2a.5.5,0,0,0,.5.444ZM71.7,82.457h.022a.5.5,0,0,0,.478-.521c-.028-.663-.053-1.329-.076-1.994a.534.534,0,0,0-.516-.483.5.5,0,0,0-.483.517q.034,1,.076,2A.5.5,0,0,0,71.7,82.457Zm36.329-31.1a.5.5,0,0,0-.573.414c-.1.633-.236,1.277-.4,1.914a.5.5,0,0,0,.361.608.493.493,0,0,0,.124.016.5.5,0,0,0,.484-.376c.17-.665.31-1.338.417-2A.5.5,0,0,0,108.034,51.357Zm-36.467,27.1h.014a.5.5,0,0,0,.486-.514l-.053-2a.5.5,0,1,0-1,.025l.053,2A.5.5,0,0,0,71.567,78.459Zm-.1-4h.013a.5.5,0,0,0,.488-.513l-.054-2a.525.525,0,0,0-.515-.485.5.5,0,0,0-.485.515l.054,2A.5.5,0,0,0,71.463,74.46Zm-.307-7.992h.031a.5.5,0,0,0,.469-.529q-.062-1.012-.14-2a.5.5,0,0,0-1,.08q.078.981.139,1.985A.5.5,0,0,0,71.157,66.468Zm16.3-24.7a.5.5,0,0,0,.316-.113q.791-.646,1.538-1.313a.5.5,0,0,0-.666-.745q-.73.652-1.5,1.284a.5.5,0,0,0,.317.887ZM84.26,44.176a.5.5,0,0,0,.286-.09Q85.38,43.5,86.18,42.9a.5.5,0,1,0-.6-.8q-.785.59-1.605,1.162a.5.5,0,0,0,.287.91ZM90.433,39.1a.5.5,0,0,0,.351-.144q.73-.72,1.4-1.461a.5.5,0,1,0-.74-.673q-.656.722-1.367,1.422a.5.5,0,0,0,.351.856Zm2.686-2.96a.5.5,0,0,0,.391-.187c.433-.54.843-1.087,1.219-1.626a.5.5,0,1,0-.82-.572q-.556.8-1.179,1.573a.5.5,0,0,0,.39.813ZM70.191,51.735a.5.5,0,0,0,.193-.039q.929-.388,1.846-.794a.5.5,0,0,0-.405-.914q-.907.4-1.826.786a.5.5,0,0,0,.193.961Zm3.654-1.62a.493.493,0,0,0,.212-.048q.913-.43,1.811-.878a.5.5,0,1,0-.447-.895q-.886.442-1.789.868a.5.5,0,0,0,.213.952Zm3.578-1.789a.5.5,0,0,0,.234-.059q.894-.475,1.765-.969a.5.5,0,1,0-.492-.87q-.861.486-1.743.956a.5.5,0,0,0,.235.941Zm3.48-1.973a.5.5,0,0,0,.258-.072q.868-.525,1.708-1.069a.5.5,0,1,0-.544-.839q-.827.535-1.682,1.053a.5.5,0,0,0,.259.928Zm-8.98,40.1h.036a.5.5,0,0,0,.463-.534q-.069-.989-.122-1.989a.49.49,0,0,0-.526-.472.5.5,0,0,0-.473.526q.055,1.006.124,2A.5.5,0,0,0,71.924,86.453ZM97.593,28.935c.239-.644.447-1.3.618-1.95a.5.5,0,0,0-.967-.255c-.163.619-.361,1.243-.589,1.856a.5.5,0,0,0,.938.349Zm-1.035,1.213a.5.5,0,0,0-.667.234c-.279.579-.589,1.159-.923,1.725a.5.5,0,1,0,.861.508c.348-.589.672-1.194.963-1.8A.5.5,0,0,0,96.558,30.148ZM93.421,75.436l-1.182,1.617a.5.5,0,0,0,.808.59l1.181-1.617a.5.5,0,1,0-.807-.59ZM95.782,72.2,94.6,73.818a.5.5,0,0,0,.808.59l1.181-1.617a.5.5,0,0,0-.808-.59Zm2.362-3.236-1.167,1.6.808.59,1.166-1.6a.5.5,0,1,0-.807-.59Zm8.99-13.713a.5.5,0,0,0-.636.31c-.209.606-.45,1.22-.713,1.825a.5.5,0,1,0,.916.4c.275-.629.524-1.268.743-1.9A.5.5,0,0,0,107.134,55.251Zm-1.526,3.693a.5.5,0,0,0-.675.21c-.3.568-.627,1.143-.976,1.706a.5.5,0,1,0,.851.525c.36-.582.7-1.177,1.01-1.767A.5.5,0,0,0,105.608,58.944Zm-5.1,6.785-1.182,1.617a.5.5,0,0,0,.109.7.494.494,0,0,0,.294.1.5.5,0,0,0,.4-.205l1.182-1.617a.5.5,0,0,0-.808-.59Zm2.359-3.231-1.177,1.613a.5.5,0,0,0,.109.7.494.494,0,0,0,.294.1.5.5,0,0,0,.4-.205l1.184-1.623a.5.5,0,1,0-.814-.58ZM74.725,99.572a.5.5,0,1,0-.951.309q.316.976.685,1.911a.5.5,0,0,0,.465.316.486.486,0,0,0,.184-.035.5.5,0,0,0,.281-.648Q75.03,100.52,74.725,99.572Zm4.524-4.729-1.182,1.618a.5.5,0,0,0,.808.59l1.182-1.618a.5.5,0,0,0-.808-.59Zm-2.364,3.236L75.7,99.7a.5.5,0,1,0,.807.59l1.183-1.617a.5.5,0,0,0-.808-.59ZM72.926,94.39a.5.5,0,0,0,.407-.578c-.112-.645-.215-1.3-.308-1.959a.5.5,0,1,0-.99.139q.142,1.008.313,1.992a.5.5,0,0,0,.492.414A.438.438,0,0,0,72.926,94.39Zm1.244,3.29q-.25-.946-.459-1.923a.507.507,0,0,0-.594-.384.5.5,0,0,0-.384.595q.215,1,.47,1.968a.5.5,0,0,0,.483.372.486.486,0,0,0,.128-.017A.5.5,0,0,0,74.17,97.68ZM88.694,81.908l-1.18,1.617a.5.5,0,0,0,.808.59L89.5,82.5a.5.5,0,1,0-.809-.588Zm2.363-3.238-1.18,1.617a.5.5,0,0,0,.808.59l1.181-1.619a.5.5,0,1,0-.809-.588ZM81.611,91.608l-1.181,1.617a.5.5,0,0,0,.109.7.494.494,0,0,0,.294.1.5.5,0,0,0,.4-.205L82.419,92.2a.5.5,0,1,0-.808-.59Zm2.363-3.235-1.181,1.618a.5.5,0,0,0,.808.59l1.181-1.618a.5.5,0,0,0-.808-.59Z"/></g></g></g></svg>