<svg xmlns="http://www.w3.org/2000/svg" width="110" height="110" viewBox="0 0 110 110"><defs><style>.cls-1{fill:#fff;}</style></defs><title>Воротник - Стойка</title><g id="Воротник"><g id="Стойка"><g id="Цвет-3" data-name="Цвет"><path class="cls-1" d="M55,36.336a92.557,92.557,0,0,1,35.833,7C82.844,51.464,71.29,56.169,55,56.326c-16.29-.157-27.844-4.863-35.833-12.993A92.557,92.557,0,0,1,55,36.336Z"/><path class="cls-1" d="M55,36.416a89.7,89.7,0,0,1,35.889,7.009,33.182,33.182,0,0,0,12.1-22.857C90.7,13.678,73.024,10.991,55,10.991S19.3,13.678,7.015,20.569a31.59,31.59,0,0,0,12.1,22.857A89.7,89.7,0,0,1,55,36.416Z"/><path class="cls-1" d="M66,79.5c-13.45,2.158-27.037,1.049-40.417-6.25-11.859-6.47-18.75-17.5-18.5-28.583V20.583C8.917,41.25,30.167,56.66,55,56.326c6.436-.086,10.75,3.924,10.833,11.007C65.869,70.375,66,79.5,66,79.5Z"/><path class="cls-1" d="M44,79.5c13.45,2.158,27.037,1.049,40.417-6.25,11.859-6.47,18.75-17.5,18.5-28.583V20.583C101.083,41.25,79.833,56.66,55,56.326c-6.436-.086-10.75,3.924-10.833,11.007C44.131,70.375,44,79.5,44,79.5Z"/></g><g id="Контур-3" data-name="Контур"><circle class="cls-1" cx="54.902" cy="68.264" r="4.09"/><path d="M61.6,13.853a.511.511,0,0,1,.521-.479q1,.042,2,.094a.5.5,0,0,1-.026,1h-.027q-.993-.053-1.993-.094A.5.5,0,0,1,61.6,13.853Zm-7.493.376h0l.792,0c.4,0,.8,0,1.2,0h0a.5.5,0,0,0,0-1q-.6,0-1.211,0l-.8,0a.5.5,0,0,0,0,1Zm3.991.027q1,.018,1.991.047h.015a.5.5,0,0,0,.014-1q-1-.029-2-.047a.472.472,0,0,0-.509.491A.5.5,0,0,0,58.1,14.256Zm7.964.329q1,.065,1.988.144h.04a.5.5,0,0,0,.039-1q-1-.078-2-.145a.51.51,0,0,0-.532.466A.5.5,0,0,0,66.063,14.584Zm11.887,1.274q.992.152,1.967.318a.5.5,0,1,0,.168-.985q-.982-.168-1.982-.321a.5.5,0,0,0-.152.988ZM74,15.32q.995.12,1.976.254a.541.541,0,0,0,.068,0,.5.5,0,0,0,.067-1q-.989-.135-1.992-.256a.5.5,0,1,0-.12.993ZM50.1,14.291h.014q1-.027,2-.042a.5.5,0,0,0-.008-1H52.1q-1.006.015-2.009.042a.5.5,0,0,0,.013,1Zm19.938.607q1,.092,1.983.2l.053,0a.5.5,0,0,0,.052-1q-.993-.105-2-.2a.508.508,0,0,0-.544.452A.5.5,0,0,0,70.039,14.9Zm-27.932-.2h.039q.989-.075,1.988-.138a.5.5,0,1,0-.062-1q-1.006.063-2,.139a.5.5,0,0,0,.038,1Zm-23.6,4.116a.5.5,0,0,0,.147-.022q.938-.289,1.907-.559a.5.5,0,1,0-.269-.963q-.982.273-1.933.565a.5.5,0,0,0,.147.978Zm-3.785,1.293a.5.5,0,0,0,.177-.032q.914-.346,1.866-.671a.5.5,0,1,0-.322-.946q-.968.33-1.9.682a.5.5,0,0,0,.177.968Zm11.538-3.258a.511.511,0,0,0,.1-.01q.968-.2,1.954-.382a.5.5,0,1,0-.183-.983q-1,.185-1.973.386a.5.5,0,0,0,.1.99Zm19.841-2.4h.026q.993-.051,1.993-.089a.5.5,0,1,0-.039-1q-1.006.039-2,.089a.5.5,0,0,0,.025,1ZM11.04,21.67a.5.5,0,0,0,.214-.048q.878-.417,1.806-.809a.5.5,0,1,0-.39-.921q-.947.4-1.845.826a.5.5,0,0,0,.215.952Zm70.837-5.14q.987.187,1.952.39a.5.5,0,0,0,.205-.979q-.974-.205-1.971-.394a.5.5,0,0,0-.186.982ZM38.122,15.057l.052,0q.986-.1,1.984-.191a.5.5,0,0,0-.089-1q-1,.089-2,.192a.5.5,0,0,0,.051,1Zm-3.973.469a.519.519,0,0,0,.067,0q.982-.131,1.977-.249a.5.5,0,1,0-.117-.993q-1,.119-1.993.25a.5.5,0,0,0,.066,1Zm-3.956.594a.474.474,0,0,0,.083-.007q.976-.163,1.968-.312a.5.5,0,1,0-.148-.989q-1,.15-1.983.314a.5.5,0,0,0,.082.993Zm-7.833,1.623a.5.5,0,0,0,.123-.015q.954-.24,1.934-.464a.5.5,0,0,0-.223-.975q-.99.226-1.956.469a.5.5,0,0,0,.122.985ZM97.1,20.967q.923.4,1.8.824a.5.5,0,1,0,.437-.9q-.894-.434-1.837-.842a.5.5,0,1,0-.4.918ZM85.771,17.351q.979.229,1.932.473a.5.5,0,0,0,.249-.969q-.965-.248-1.955-.478a.5.5,0,1,0-.227.974Zm7.639,2.183q.951.33,1.861.684a.5.5,0,0,0,.361-.933q-.927-.359-1.895-.7a.5.5,0,0,0-.328.944Zm-3.788-1.191q.967.275,1.9.568a.5.5,0,0,0,.3-.954q-.948-.3-1.93-.576a.5.5,0,0,0-.272.962Zm-51.6,16.142q-1,.162-1.981.342a.5.5,0,0,0,.089.992.475.475,0,0,0,.09-.008q.973-.177,1.961-.338a.5.5,0,1,0-.16-.987ZM46,33.494q-1.006.086-2,.191a.5.5,0,0,0,.052,1l.053,0q.987-.1,1.983-.189a.5.5,0,0,0-.085-1Zm8.035-.38q-1.009.009-2.011.037a.5.5,0,0,0,.014,1h.015q.992-.028,1.992-.037a.5.5,0,1,0-.009-1ZM42,33.914q-1,.125-1.992.267a.5.5,0,0,0,.071,1,.512.512,0,0,0,.072,0q.981-.142,1.973-.265a.5.5,0,0,0,.435-.558A.493.493,0,0,0,42,33.914ZM34.067,35.2q-.992.2-1.966.418a.5.5,0,0,0,.108.988.494.494,0,0,0,.109-.012q.964-.215,1.946-.414a.5.5,0,0,0-.2-.98Zm-7.81,1.906q-.975.281-1.926.576a.5.5,0,0,0,.148.978.507.507,0,0,0,.148-.022q.941-.292,1.906-.57a.5.5,0,0,0-.276-.961Zm-3.84,1.2q-.964.324-1.9.663a.5.5,0,0,0,.17.97.493.493,0,0,0,.17-.03q.924-.334,1.877-.655a.5.5,0,1,0-.318-.948Zm7.727-2.228q-.984.24-1.948.5a.5.5,0,0,0,.127.983.507.507,0,0,0,.128-.017q.954-.252,1.929-.49a.5.5,0,0,0-.237-.972Zm27.911-2.921q-1-.031-2.008-.042a.5.5,0,0,0-.011,1q1,.011,1.987.042h.016a.5.5,0,0,0,.015-1Zm23.8,3.483q-.963-.259-1.947-.5a.5.5,0,0,0-.239.971q.973.24,1.927.5a.5.5,0,0,0,.259-.966Zm3.861,1.123q-.951-.3-1.925-.582a.5.5,0,0,0-.278.96q.963.28,1.9.576a.5.5,0,1,0,.3-.954ZM62.066,33.358q-1-.069-2-.12a.509.509,0,0,0-.525.474.5.5,0,0,0,.474.525q1,.05,1.985.119h.035a.5.5,0,0,0,.034-1Zm15.889,2.321q-.973-.219-1.964-.423a.5.5,0,1,0-.2.979q.981.2,1.946.419a.5.5,0,0,0,.22-.976ZM89.53,39.058q-.934-.341-1.9-.669a.5.5,0,0,0-.321.947q.951.323,1.875.661a.5.5,0,0,0,.344-.939ZM66.064,33.712q-.994-.107-2-.2a.5.5,0,1,0-.089,1q.994.088,1.979.194l.054,0a.5.5,0,0,0,.053-1Zm3.988.5q-.99-.144-1.991-.271a.5.5,0,0,0-.126.992q.992.126,1.972.269a.46.46,0,0,0,.073.005.5.5,0,0,0,.072-.995Zm3.965.655q-.982-.182-1.979-.347a.494.494,0,0,0-.575.412.5.5,0,0,0,.412.575q.988.163,1.961.344a.485.485,0,0,0,.091.008.5.5,0,0,0,.09-.992Zm-24-1.646q-1.007.048-2.008.115a.5.5,0,0,0,.033,1h.034q.991-.067,1.989-.114a.5.5,0,1,0-.048-1ZM61.038,68.765h-1.6a4.564,4.564,0,0,1-9.079,0h-1.6a.5.5,0,0,1,0-1h1.6a4.564,4.564,0,0,1,9.08,0h1.6a.5.5,0,0,1,0,1Zm-2.545-.5a3.59,3.59,0,1,0-3.59,3.59A3.594,3.594,0,0,0,58.493,68.265ZM54.9,65.719a2.545,2.545,0,0,0,0,5.091.5.5,0,0,0,0-1,1.545,1.545,0,1,1,1.545-1.545.5.5,0,0,0,1,0A2.548,2.548,0,0,0,54.9,65.719Zm48.416-45.175V45.88C103.318,65.2,81.643,80.924,55,80.924S6.682,65.2,6.682,45.88V20.544a.473.473,0,0,1,.011-.052.494.494,0,0,1,.01-.076c0-.015.009-.028.014-.042a.479.479,0,0,1,.034-.068.468.468,0,0,1,.035-.061c.009-.012.018-.022.028-.033a.484.484,0,0,1,.063-.054.46.46,0,0,1,.039-.037l.025-.015h0C16.675,14,34.152,10.5,54.9,10.5c20.69,0,38.122,3.482,47.87,9.553.016,0,.029-.009.045-.009s.017,0,.026.005.016,0,.025,0a.476.476,0,0,1,.071.022.5.5,0,0,1,.095.029.481.481,0,0,1,.078.052.336.336,0,0,1,.126.139.478.478,0,0,1,.045.084.489.489,0,0,1,.02.1A.468.468,0,0,1,103.318,20.544ZM54.9,11.5c-20.4,0-37.56,3.393-47.183,9.31q.08.738.182,1.459c.369-.214.731-.432,1.116-.638a.5.5,0,0,1,.473.881c-.489.262-.956.535-1.417.811a32.5,32.5,0,0,0,8.513,17.253.489.489,0,0,1,.182-.14q.916-.385,1.866-.756A.5.5,0,1,1,19,40.61q-.875.342-1.718.7.711.727,1.479,1.439a97.991,97.991,0,0,1,72.3,0,.48.48,0,0,1,.1.07q.779-.72,1.5-1.455c-.531-.224-1.068-.446-1.617-.662a.5.5,0,1,1,.366-.931q.95.374,1.864.763a.482.482,0,0,1,.107.074,32.492,32.492,0,0,0,8.526-17.179c-.41-.248-.818-.5-1.251-.734a.5.5,0,1,1,.481-.876c.327.18.632.37.947.556.07-.48.128-.969.182-1.461C92.679,14.932,75.428,11.5,54.9,11.5ZM55,55.826c12.014,0,23.513-3.363,31.548-9.227,1.367-1,2.629-2.016,3.807-3.053a97.036,97.036,0,0,0-70.771-.054c1.2,1.057,2.476,2.093,3.867,3.108C31.487,52.463,42.986,55.826,55,55.826ZM43.6,78.919V77.569c-.525-.1-1.049-.2-1.568-.313a.5.5,0,1,1,.213-.977c.448.1.9.183,1.355.27v-9.9a10.842,10.842,0,0,1,6.687-10C39.8,55.892,30,52.618,22.862,47.407,14.614,41.388,9.78,34.741,7.682,26.368v.65q.159.971.361,1.9a.5.5,0,0,1-.361.586v1.12a.484.484,0,0,1,.22-.141.5.5,0,0,1,.616.347q.268.96.585,1.88a.5.5,0,0,1-.945.326c-.172-.5-.325-1.013-.476-1.53V42.782a.5.5,0,0,1,.07.216c.046.653.115,1.311.2,1.953a.5.5,0,0,1-.275.511v.417c0,.206.017.41.022.616a.5.5,0,0,1,.589.387c.134.638.291,1.28.467,1.907a.5.5,0,0,1-.482.635.481.481,0,0,1-.364-.195C9.884,63.677,24.459,75.5,43.6,78.919Zm58.43-29.311c-.135.448-.266.9-.422,1.34a.5.5,0,0,1-.472.334.49.49,0,0,1-.166-.028.5.5,0,0,1-.306-.637q.325-.927.59-1.874a.5.5,0,0,1,.616-.347.493.493,0,0,1,.283.214c.044-.394.086-.788.111-1.185a.483.483,0,0,1-.057.01.5.5,0,0,1-.49-.6c.132-.637.245-1.289.333-1.938a.489.489,0,0,1,.268-.365V43.208a.486.486,0,0,1-.067-.267c.044-.652.067-1.312.067-1.963V31.527c-.172.586-.353,1.165-.551,1.729a.5.5,0,0,1-.472.333.51.51,0,0,1-.167-.028.5.5,0,0,1-.305-.638q.324-.918.6-1.875a.5.5,0,0,1,.618-.343.492.492,0,0,1,.278.212V29.74c-.011,0-.021,0-.032,0a.5.5,0,0,1-.378-.6q.213-.948.379-1.935a.475.475,0,0,1,.03-.08v-.756c-2.1,8.373-6.932,15.02-15.18,21.039-8.2,5.986-19.917,9.419-32.138,9.419-.176,0-.352-.008-.528-.009a.463.463,0,0,1-.046.009A9.839,9.839,0,0,0,44.6,66.654V79.085a65.01,65.01,0,0,0,10.4.839C79.34,79.924,99.439,66.632,102.029,49.608ZM25.31,52.257q.873.478,1.8.93a.5.5,0,0,0,.439-.9q-.9-.441-1.755-.908a.5.5,0,0,0-.48.877ZM17.083,46.4a.5.5,0,0,0,.673-.74Q17.023,45,16.334,44.3a.5.5,0,0,0-.713.7Q16.329,45.72,17.083,46.4Zm11.857,7.63q.913.4,1.866.773a.5.5,0,0,0,.365-.931q-.935-.366-1.83-.758a.5.5,0,1,0-.4.916Zm-8.728-5.063a.5.5,0,1,0,.6-.8q-.8-.594-1.558-1.215a.5.5,0,1,0-.634.773Q19.394,48.364,20.212,48.972ZM32.7,55.509q.941.33,1.916.633a.491.491,0,0,0,.148.022.5.5,0,0,0,.148-.978q-.957-.3-1.883-.621a.5.5,0,1,0-.33.943Zm11.736,2.848q.99.145,2,.265l.059,0a.5.5,0,0,0,.058-1q-.992-.116-1.967-.261a.5.5,0,0,0-.146.99ZM36.55,56.709q.962.264,1.951.5a.55.55,0,0,0,.119.014.5.5,0,0,0,.118-.986q-.975-.236-1.923-.5a.5.5,0,0,0-.265.964Zm3.919.943q.978.2,1.978.382a.545.545,0,0,0,.088.008.5.5,0,0,0,.087-.992q-.986-.176-1.95-.376a.491.491,0,0,0-.591.388A.5.5,0,0,0,40.469,57.652ZM14.948,43.562a.5.5,0,0,0,.046-.706q-.65-.742-1.249-1.52a.5.5,0,0,0-.792.61q.619.8,1.289,1.568a.5.5,0,0,0,.706.046Zm8.871,7.754a.5.5,0,0,0,.262-.926q-.332-.2-.654-.411-.51-.328-1.005-.664a.5.5,0,1,0-.562.827q.506.344,1.026.678.331.213.671.422A.5.5,0,0,0,23.819,51.316ZM9.725,36.787a.5.5,0,0,0,.448.278.494.494,0,0,0,.222-.052.5.5,0,0,0,.226-.67q-.434-.875-.816-1.79a.5.5,0,0,0-.923.386Q9.276,35.884,9.725,36.787Zm.963,1.789q.512.882,1.078,1.722a.5.5,0,1,0,.83-.558q-.547-.814-1.043-1.667a.5.5,0,0,0-.864.5ZM29.189,71.7q-.888-.45-1.749-.928a.5.5,0,1,0-.486.873q.878.489,1.784.947a.5.5,0,0,0,.451-.893Zm11.123,4.131q-.965-.245-1.913-.521a.5.5,0,0,0-.279.961q.963.28,1.947.528a.486.486,0,0,0,.123.016.5.5,0,0,0,.122-.984Zm-3.806-1.106q-.946-.312-1.871-.654a.5.5,0,1,0-.348.938q.942.349,1.9.666a.49.49,0,0,0,.157.025.5.5,0,0,0,.157-.975Zm-3.716-1.376q-.921-.381-1.816-.79a.5.5,0,1,0-.417.908q.913.419,1.851.806a.488.488,0,0,0,.191.038.5.5,0,0,0,.191-.962ZM12.88,57.689a.5.5,0,0,0-.834.553q.558.842,1.168,1.658a.5.5,0,0,0,.8-.6Q13.422,58.508,12.88,57.689ZM10.068,52.5q-.388-.907-.716-1.833A.5.5,0,0,0,8.41,51q.338.957.738,1.893a.5.5,0,0,0,.92-.394ZM20.877,66.363a.5.5,0,1,0-.629.777q.783.633,1.6,1.234a.493.493,0,0,0,.3.1.5.5,0,0,0,.3-.9Q21.643,66.98,20.877,66.363Zm-5.638-5.515a.5.5,0,0,0-.769.641q.646.775,1.338,1.521a.5.5,0,0,0,.733-.68Q15.868,61.6,15.239,60.849Zm2.682,2.895a.5.5,0,1,0-.7.715q.72.7,1.482,1.379a.5.5,0,1,0,.663-.748Q18.624,64.43,17.921,63.743Zm7.809,6.03q-.85-.519-1.667-1.066a.5.5,0,0,0-.557.83q.834.56,1.7,1.09a.5.5,0,0,0,.521-.854ZM10.9,54.283a.5.5,0,0,0-.893.45q.456.905.969,1.787a.5.5,0,1,0,.864-.5Q11.341,55.161,10.9,54.283ZM82.676,53.27q.93-.442,1.807-.91a.5.5,0,0,0-.471-.883q-.856.457-1.766.889a.5.5,0,0,0,.43.9Zm1.648,16.472q-.839.514-1.708,1a.5.5,0,1,0,.487.873q.886-.494,1.744-1.021a.5.5,0,1,0-.522-.852Zm1.921-18.38q.443-.267.868-.541t.837-.55a.5.5,0,0,0-.558-.83q-.406.272-.821.54t-.842.525a.5.5,0,1,0,.516.856ZM73.555,74.7q-.937.309-1.894.59a.5.5,0,1,0,.281.959q.973-.284,1.926-.6a.5.5,0,1,0-.313-.949Zm3.714-1.38q-.91.378-1.843.724a.5.5,0,0,0,.173.969.491.491,0,0,0,.173-.031q.951-.352,1.879-.737a.5.5,0,0,0-.383-.924Zm3.6-1.653q-.879.445-1.784.862a.5.5,0,1,0,.418.908q.923-.425,1.818-.878a.5.5,0,0,0-.452-.893ZM80.832,54.1a.5.5,0,1,0-.391-.921q-.9.381-1.838.738a.5.5,0,0,0,.178.967.5.5,0,0,0,.178-.033Q79.916,54.487,80.832,54.1Zm19.778-1.917a.5.5,0,0,0-.656.264q-.385.9-.827,1.786a.5.5,0,0,0,.895.447q.455-.91.852-1.842A.5.5,0,0,0,100.61,52.182Zm-1.734,3.6a.5.5,0,0,0-.684.182q-.492.85-1.038,1.675a.5.5,0,0,0,.142.692.492.492,0,0,0,.275.083.5.5,0,0,0,.418-.225q.561-.85,1.068-1.724A.5.5,0,0,0,98.876,55.78ZM96.12,41.51q-.6.774-1.26,1.512a.5.5,0,1,0,.748.663q.675-.761,1.3-1.559a.5.5,0,0,0-.788-.616ZM87.607,67.532q-.792.584-1.617,1.139a.5.5,0,1,0,.558.83q.844-.567,1.653-1.164a.5.5,0,0,0-.594-.8Zm8.415-8.281q-.586.788-1.22,1.55a.5.5,0,1,0,.769.639q.651-.782,1.254-1.591a.5.5,0,0,0-.8-.6ZM73.554,56.088a.5.5,0,0,0-.613-.353q-.95.256-1.925.486a.5.5,0,0,0,.114.986.467.467,0,0,0,.115-.014q.99-.233,1.955-.493A.5.5,0,0,0,73.554,56.088ZM90.68,65.046q-.735.653-1.508,1.278a.5.5,0,1,0,.629.777q.791-.64,1.543-1.308a.5.5,0,0,0-.664-.748ZM89.6,49.107q.822-.6,1.6-1.235a.5.5,0,0,0-.629-.777q-.762.617-1.564,1.207a.5.5,0,1,0,.592.806Zm3.9,13.177Q92.835,63,92.125,63.7a.5.5,0,1,0,.7.715q.728-.712,1.412-1.453a.5.5,0,0,0-.735-.678Zm-1.088-15.6a.5.5,0,0,0,.334-.128q.759-.682,1.471-1.4a.5.5,0,0,0-.708-.706q-.693.7-1.431,1.357a.5.5,0,0,0,.334.872ZM77.06,55.533a.5.5,0,0,0-.322-.947q-.927.316-1.888.606a.5.5,0,1,0,.29.958Q76.115,55.854,77.06,55.533ZM48.183,62.1a.5.5,0,0,0,.389-.185,7.586,7.586,0,0,1,1.349-1.3.5.5,0,0,0-.6-.8,8.579,8.579,0,0,0-1.526,1.467.5.5,0,0,0,.388.815Zm-1.789,7.586a.5.5,0,0,0,.5-.5v-2a.5.5,0,0,0-1,0v2A.5.5,0,0,0,46.394,69.686Zm0,5a.5.5,0,0,0-.5.5v2a.5.5,0,0,0,1,0v-2A.5.5,0,0,0,46.394,74.686Zm0-4a.5.5,0,0,0-.5.5v2a.5.5,0,0,0,1,0v-2A.5.5,0,0,0,46.394,70.686ZM51.353,59.73a.494.494,0,0,0,.192-.038,7.416,7.416,0,0,1,1.8-.494.5.5,0,0,0-.141-.99,8.458,8.458,0,0,0-2.045.561.5.5,0,0,0,.192.962ZM99.5,37.212a.5.5,0,0,0,.672-.221q.455-.9.857-1.842a.5.5,0,1,0-.92-.393q-.389.913-.83,1.783A.5.5,0,0,0,99.5,37.212Zm-44.228,21.9h.006q1.011-.012,2.015-.051a.5.5,0,0,0,.479-.52.519.519,0,0,0-.52-.48q-.99.04-1.987.051a.5.5,0,0,0,.006,1Zm14.476,16.7q-.957.242-1.93.455a.5.5,0,1,0,.213.977q.99-.215,1.963-.463a.5.5,0,1,0-.246-.969ZM59.271,58.963H59.3q1.009-.066,2.007-.158a.5.5,0,0,0,.453-.544.508.508,0,0,0-.543-.452q-.985.091-1.981.156a.5.5,0,0,0,.032,1ZM97.694,40.7a.5.5,0,0,0,.413-.218c.383-.561.75-1.137,1.091-1.713a.5.5,0,0,0-.861-.509q-.5.849-1.055,1.658a.5.5,0,0,0,.412.782ZM61.952,77.235q-.981.113-1.975.193a.5.5,0,0,0,.041,1l.042,0q1.009-.082,2.006-.2a.5.5,0,0,0-.113-.994Zm3.923-.58q-.97.177-1.956.322a.5.5,0,0,0,.072,1,.622.622,0,0,0,.073,0q1-.148,1.99-.328a.5.5,0,0,0-.18-.984Zm-.142-18.9a.5.5,0,0,0-.568-.421q-.976.145-1.969.264a.5.5,0,0,0,.059,1,.414.414,0,0,0,.06,0q1.006-.12,2-.268A.5.5,0,0,0,65.733,57.757Zm3.935-.719a.5.5,0,0,0-.59-.39q-.966.2-1.952.372a.5.5,0,0,0,.086.992A.439.439,0,0,0,67.3,58q1-.176,1.979-.376A.5.5,0,0,0,69.667,57.038Zm-22.33,5.8a.5.5,0,0,0-.664.245,8.457,8.457,0,0,0-.64,2.021.5.5,0,0,0,.4.582.58.58,0,0,0,.091.008.5.5,0,0,0,.491-.41,7.505,7.505,0,0,1,.565-1.783A.5.5,0,0,0,47.338,62.839ZM58,77.558q-.986.047-1.983.064a.5.5,0,0,0,.009,1h.009q1.012-.018,2.014-.066a.5.5,0,0,0,.475-.523A.483.483,0,0,0,58,77.558Zm-7.93-.126q-.994-.081-1.974-.192a.494.494,0,0,0-.553.44.5.5,0,0,0,.44.554q1,.113,2.007.194l.041,0a.5.5,0,0,0,.04-1Zm3.963.189q-1-.016-1.983-.062a.482.482,0,0,0-.523.476.5.5,0,0,0,.476.522q1,.048,2.014.064h.008a.5.5,0,0,0,.008-1Z"/></g></g></g></svg>