<svg xmlns="http://www.w3.org/2000/svg" width="110" height="110" viewBox="0 0 110 110"><defs><style>.cls-1{fill:#fff;}</style></defs><title>Воротник - Укороченный</title><g id="Воротник"><g id="Укороченный"><g id="Цвет-11" data-name="Цвет"><path class="cls-1" d="M55,36.336a91.46,91.46,0,0,1,36,7.039C84.8,49.741,75.849,53.942,63.875,55.75L80.5,75.125a63.565,63.565,0,0,1-25.5,5.3h0a63.565,63.565,0,0,1-25.5-5.3L46.125,55.75C34.151,53.942,25.2,49.741,19,43.375A91.46,91.46,0,0,1,55,36.336Z"/><path class="cls-1" d="M55,36.416a89.7,89.7,0,0,1,35.889,7.009,33.182,33.182,0,0,0,12.1-22.857C90.7,13.678,73.024,10.991,55,10.991S19.3,13.678,7.015,20.569a31.59,31.59,0,0,0,12.1,22.857A89.7,89.7,0,0,1,55,36.416Z"/><path class="cls-1" d="M29.5,75.125,46.125,55.75C24.338,52.339,9.417,39.583,7.015,20.569l.151,23.1C6.307,58.807,16.75,69.25,29.5,75.125Z"/><path class="cls-1" d="M80.5,75.125,63.875,55.75c21.787-3.411,36.708-16.167,39.11-35.181l-.151,23.1C103.693,58.807,93.25,69.25,80.5,75.125Z"/></g><g id="Контур-10" data-name="Контур"><path d="M61.538,68.265a.5.5,0,0,0-.5-.5h-1.6a4.564,4.564,0,0,0-9.08,0h-1.6a.5.5,0,0,0,0,1h1.6a4.565,4.565,0,0,0,9.08,0h1.6A.5.5,0,0,0,61.538,68.265ZM54.9,71.854a3.59,3.59,0,1,1,3.591-3.59A3.594,3.594,0,0,1,54.9,71.854Z"/><path d="M58.1,14.255q1,.018,1.991.047h.015a.5.5,0,0,0,.015-1q-1-.029-2-.047a.506.506,0,0,0-.509.491A.5.5,0,0,0,58.1,14.255Z"/><path d="M54.111,14.229l.792,0c.4,0,.8,0,1.2,0h0a.5.5,0,0,0,0-1c-.4,0-.807,0-1.212,0l-.8,0a.5.5,0,0,0,.006,1Z"/><path d="M85.773,17.351q.979.229,1.932.473a.491.491,0,0,0,.124.016.5.5,0,0,0,.124-.984q-.962-.248-1.953-.478a.5.5,0,1,0-.227.974Z"/><path d="M62.08,14.373q1,.042,1.992.094H64.1a.5.5,0,0,0,.026-1q-1-.053-2-.094a.5.5,0,1,0-.041,1Z"/><path d="M74,15.32q1,.12,1.977.254a.536.536,0,0,0,.068,0,.5.5,0,0,0,.066-1q-.987-.135-1.992-.256a.514.514,0,0,0-.556.437A.5.5,0,0,0,74,15.32Z"/><path d="M66.063,14.585q1,.066,1.99.144h.04a.5.5,0,0,0,.038-1q-1-.078-2-.145a.481.481,0,0,0-.532.466A.5.5,0,0,0,66.063,14.585Z"/><path d="M50.1,14.291h.014q1-.027,2-.042a.5.5,0,0,0-.008-1H52.1q-1.006.015-2.01.042a.5.5,0,0,0,.014,1Z"/><path d="M70.038,14.9q1,.091,1.984.2l.054,0a.5.5,0,0,0,.052-1q-.995-.105-2-.2a.506.506,0,0,0-.544.453A.5.5,0,0,0,70.038,14.9Z"/><path d="M22.359,17.741a.5.5,0,0,0,.122-.015q.954-.24,1.935-.464a.5.5,0,0,0-.223-.975q-.992.226-1.956.469a.5.5,0,0,0,.122.985Z"/><path d="M11.04,21.67a.5.5,0,0,0,.214-.048q.879-.417,1.806-.809a.5.5,0,1,0-.389-.921q-.948.4-1.845.826a.5.5,0,0,0,.214.952Z"/><path d="M77.951,15.859q.992.152,1.967.318a.5.5,0,1,0,.168-.985q-.983-.168-1.982-.321a.5.5,0,0,0-.152.988Z"/><path d="M14.723,20.109a.493.493,0,0,0,.178-.033q.911-.346,1.865-.671a.5.5,0,1,0-.322-.946q-.97.33-1.9.683a.5.5,0,0,0,.178.967Z"/><path d="M18.507,18.815a.491.491,0,0,0,.146-.022q.939-.289,1.907-.559a.5.5,0,1,0-.268-.963q-.983.273-1.933.565a.5.5,0,0,0,.146.978Z"/><path d="M34.149,15.525a.52.52,0,0,0,.067,0c.653-.087,1.313-.17,1.977-.249a.5.5,0,0,0-.117-.993q-1,.119-1.992.25a.5.5,0,0,0,.065,1Z"/><path d="M46.1,14.447h.025q.995-.051,1.993-.089a.5.5,0,0,0-.02-1h-.02q-1,.039-2,.089a.5.5,0,0,0,.025,1Z"/><path d="M42.105,14.7h.039q.992-.075,1.989-.138a.5.5,0,1,0-.062-1q-1,.063-2,.139a.5.5,0,0,0,.037,1Z"/><path d="M30.192,16.119a.476.476,0,0,0,.083-.007q.976-.163,1.968-.312a.5.5,0,0,0,.42-.569.508.508,0,0,0-.568-.42q-1,.15-1.983.314a.5.5,0,0,0,.081.993Z"/><path d="M26.259,16.851a.512.512,0,0,0,.1-.01q.967-.2,1.954-.382a.5.5,0,0,0-.184-.983q-1,.185-1.972.386a.5.5,0,0,0,.1.99Z"/><path d="M38.121,15.057l.053,0q.986-.1,1.984-.191a.5.5,0,0,0,.453-.542.508.508,0,0,0-.543-.454q-1,.089-2,.192a.5.5,0,0,0,.051,1Z"/><path d="M97.105,20.967q.924.4,1.8.824a.5.5,0,1,0,.438-.9q-.894-.434-1.839-.842a.5.5,0,1,0-.4.918Z"/><path d="M93.41,19.533q.951.33,1.861.684a.5.5,0,0,0,.361-.933q-.927-.359-1.895-.7a.5.5,0,1,0-.328.944Z"/><path d="M81.878,16.531q.986.187,1.952.39a.5.5,0,0,0,.205-.979q-.974-.205-1.972-.394a.5.5,0,1,0-.186.982Z"/><path d="M89.623,18.342q.968.275,1.9.568a.5.5,0,0,0,.3-.954q-.948-.3-1.931-.576a.5.5,0,1,0-.271.962Z"/><path d="M22.418,38.307q-.964.324-1.9.663a.5.5,0,0,0,.17.97.5.5,0,0,0,.17-.03q.926-.334,1.879-.655a.5.5,0,0,0-.318-.948Z"/><path d="M34.067,35.2q-.99.2-1.966.418a.5.5,0,0,0,.108.988.519.519,0,0,0,.108-.012q.967-.215,1.948-.414a.5.5,0,0,0-.2-.98Z"/><path d="M58.055,33.158q-1-.031-2.008-.042a.513.513,0,0,0-.506.495.5.5,0,0,0,.494.505q1,.011,1.988.042h.016a.5.5,0,0,0,.016-1Z"/><path d="M66.064,33.712q-.993-.107-2-.2a.509.509,0,0,0-.542.454.5.5,0,0,0,.454.542q.995.088,1.979.194l.055,0a.5.5,0,0,0,.053-1Z"/><path d="M46,33.494q-1,.086-2,.191a.5.5,0,0,0,.052,1l.054,0q.986-.1,1.983-.189a.5.5,0,0,0-.086-1Z"/><path d="M42,33.914q-1,.125-1.993.267a.5.5,0,0,0,.07,1,.513.513,0,0,0,.072,0q.981-.142,1.974-.265A.5.5,0,1,0,42,33.914Z"/><path d="M38.021,34.483q-1,.162-1.98.342a.5.5,0,0,0,.089.992.476.476,0,0,0,.091-.008q.974-.177,1.961-.338a.5.5,0,0,0-.16-.987Z"/><path d="M50.014,33.226Q49,33.274,48,33.341a.5.5,0,0,0,.032,1h.034q.992-.067,1.989-.114a.5.5,0,0,0,.476-.523A.492.492,0,0,0,50.014,33.226Z"/><path d="M54.039,33.114h0q-1.009.009-2.012.037a.5.5,0,0,0,.014,1h.014q.995-.028,1.992-.037a.5.5,0,0,0,0-1Z"/><path d="M62.064,33.359q-1-.069-2-.12a.474.474,0,0,0-.524.474.5.5,0,0,0,.474.525q1,.05,1.986.119h.035a.5.5,0,0,0,.033-1Z"/><path d="M70.052,34.217q-.99-.144-1.991-.271a.5.5,0,0,0-.127.992q.992.126,1.974.269a.462.462,0,0,0,.073.005.5.5,0,0,0,.071-.995Z"/><path d="M85.72,37.764q-.951-.3-1.927-.582a.5.5,0,1,0-.277.961q.964.278,1.9.575a.5.5,0,0,0,.3-.954Z"/><path d="M26.257,37.111q-.974.281-1.926.576a.5.5,0,0,0,.148.978.51.51,0,0,0,.148-.022q.94-.292,1.906-.57a.5.5,0,0,0-.277-.961Z"/><path d="M89.529,39.058q-.935-.341-1.9-.669a.5.5,0,0,0-.322.947q.954.323,1.876.661a.506.506,0,0,0,.172.03.5.5,0,0,0,.172-.97Z"/><path d="M30.144,36.079q-.984.24-1.948.5a.5.5,0,0,0,.128.983.506.506,0,0,0,.128-.017q.955-.252,1.929-.49a.5.5,0,0,0-.236-.972Z"/><path d="M74.017,34.872q-.983-.182-1.979-.347a.5.5,0,0,0-.164.986q.987.163,1.962.344a.486.486,0,0,0,.092.008.5.5,0,0,0,.09-.992Z"/><path d="M77.954,35.679q-.974-.219-1.965-.423a.5.5,0,0,0-.2.979q.981.2,1.947.419a.491.491,0,0,0,.109.012.5.5,0,0,0,.109-.988Z"/><path d="M81.858,36.641q-.964-.259-1.948-.5a.5.5,0,1,0-.238.971q.974.24,1.927.5a.5.5,0,1,0,.26-.966Z"/><path d="M54.9,65.719a2.545,2.545,0,0,0,0,5.091.5.5,0,0,0,0-1,1.545,1.545,0,1,1,1.545-1.545.5.5,0,0,0,1,0A2.548,2.548,0,0,0,54.9,65.719Z"/><path d="M103.3,20.469a.508.508,0,0,0-.019-.1.943.943,0,0,0-.1-.162.5.5,0,0,0-.073-.061.482.482,0,0,0-.078-.053.494.494,0,0,0-.1-.029.485.485,0,0,0-.071-.022c-.008,0-.016,0-.024,0s-.016-.005-.025-.005a.452.452,0,0,0-.045.009C93.024,13.982,75.592,10.5,54.9,10.5c-20.751,0-38.226,3.5-47.958,9.6l0,0-.024.014c-.015.01-.024.025-.038.036a.493.493,0,0,0-.065.055c-.01.011-.02.021-.029.033a.46.46,0,0,0-.034.06.483.483,0,0,0-.035.069c-.005.014-.01.027-.014.041a.893.893,0,0,1-.02.129V45.88C6.683,65.2,28.357,80.924,55,80.924S103.317,65.2,103.317,45.88V20.544A.481.481,0,0,0,103.3,20.469Zm-1.034.446c-.054.492-.112.981-.182,1.461-.315-.186-.62-.376-.947-.556a.5.5,0,1,0-.48.877c.433.237.841.486,1.25.734a32.492,32.492,0,0,1-8.526,17.179.479.479,0,0,0-.108-.074q-.914-.389-1.862-.763a.5.5,0,0,0-.367.931c.549.216,1.086.438,1.617.662q-.722.735-1.5,1.455a.487.487,0,0,0-.1-.07,97.991,97.991,0,0,0-72.3,0q-.767-.712-1.478-1.439.845-.355,1.718-.7a.5.5,0,1,0-.363-.932q-.951.371-1.865.756a.488.488,0,0,0-.183.14A32.5,32.5,0,0,1,8.073,23.321c.461-.275.928-.548,1.417-.81a.5.5,0,0,0-.473-.882c-.386.207-.748.424-1.117.639q-.1-.72-.182-1.458C17.343,14.893,34.5,11.5,54.9,11.5,75.427,11.5,92.677,14.932,102.268,20.915ZM55,55.826c-12.015,0-23.514-3.363-31.548-9.227-1.391-1.015-2.672-2.051-3.868-3.108a97.04,97.04,0,0,1,70.771.054c-1.178,1.038-2.44,2.056-3.808,3.054C78.514,52.463,67.015,55.826,55,55.826ZM43.6,66.654v9.9c-.453-.087-.907-.172-1.355-.27a.5.5,0,1,0-.213.977c.518.114,1.043.214,1.568.313v1.349a58.28,58.28,0,0,1-13.291-4.011l.977-1.12c.372.163.744.326,1.12.482a.492.492,0,0,0,.191.038.5.5,0,0,0,.191-.962c-.274-.113-.542-.233-.813-.35l12.741-14.6c.569.082,1.141.161,1.721.229a.407.407,0,0,0,.06,0,.5.5,0,0,0,.058-1c-.354-.042-.7-.093-1.05-.14l1.065-1.22c1.227.161,2.465.293,3.715.383A10.843,10.843,0,0,0,43.6,66.654ZM7.884,48.949a.5.5,0,0,0,.291.1A.519.519,0,0,0,8.3,49.03a.5.5,0,0,0,.354-.612c-.171-.642-.319-1.286-.44-1.914a.5.5,0,0,0-.527-.4c0-.077-.008-.152-.008-.229v-.84a.5.5,0,0,0,.224-.476c-.082-.649-.142-1.307-.178-1.956a.517.517,0,0,0-.046-.185V31.515c.151.515.3,1.029.476,1.526a.5.5,0,0,0,.945-.326q-.318-.92-.586-1.88a.5.5,0,0,0-.616-.347.485.485,0,0,0-.219.14V29.509a.5.5,0,0,0,.362-.588c-.137-.621-.256-1.255-.362-1.9v-.653c2.1,8.373,6.932,15.02,15.18,21.039,6.014,4.389,13.919,7.4,22.525,8.7L30.857,72.755a.489.489,0,0,0-.2.211c0,.006,0,.012,0,.017l-1.3,1.487C17.456,68.925,9.219,59.644,7.884,48.949ZM44.6,79.085V66.654a9.839,9.839,0,0,1,9.827-9.828.459.459,0,0,0,.046-.009c.176,0,.352.009.528.009a64.73,64.73,0,0,0,8.43-.557L78.024,72.992c-.4.172-.792.346-1.2.509a.5.5,0,0,0,.188.964.508.508,0,0,0,.188-.036c.512-.207,1.014-.425,1.514-.645l.979,1.121A61.325,61.325,0,0,1,55,79.924,65,65,0,0,1,44.6,79.085Zm36.043-4.616L64.612,56.1c8.606-1.3,16.511-4.306,22.525-8.7,8.248-6.019,13.082-12.666,15.18-21.039v.7c0,.013-.011.023-.014.037q-.164.987-.375,1.936a.5.5,0,0,0,.38.6h.009v1.146a.488.488,0,0,0-.25-.178.5.5,0,0,0-.617.344q-.274.959-.594,1.877a.5.5,0,0,0,.307.637.489.489,0,0,0,.165.028.5.5,0,0,0,.472-.334c.188-.535.355-1.084.518-1.638v9.457c0,.656-.022,1.316-.066,1.964a.485.485,0,0,0,.066.266v1.325a.487.487,0,0,0-.267.364c-.089.644-.2,1.3-.333,1.938a.5.5,0,0,0,.388.591.522.522,0,0,0,.1.01.477.477,0,0,0,.055-.01c-.025.4-.068.791-.111,1.185a.494.494,0,0,0-.283-.215.5.5,0,0,0-.615.348c-.176.629-.374,1.26-.591,1.875a.5.5,0,0,0,.306.638.507.507,0,0,0,.166.028.5.5,0,0,0,.472-.334c.155-.439.287-.89.422-1.339C100.441,60.028,92.3,69.039,80.641,74.469Z"/><path d="M30.849,68.257,29.51,69.742a.5.5,0,1,0,.742.67l1.339-1.485a.5.5,0,0,0-.742-.67Z"/><path d="M32.56,67.607a.5.5,0,0,0,.371-.165l1.34-1.485a.5.5,0,1,0-.742-.67l-1.34,1.485a.5.5,0,0,0,.371.835Z"/><path d="M25.31,52.257q.873.478,1.8.93a.5.5,0,1,0,.439-.9q-.9-.441-1.756-.908a.5.5,0,0,0-.48.877Z"/><path d="M28.941,54.035q.913.4,1.865.773a.5.5,0,1,0,.365-.931q-.935-.366-1.83-.758a.5.5,0,1,0-.4.916Z"/><path d="M32.7,55.509q.94.33,1.915.632a.5.5,0,0,0,.148.023.5.5,0,0,0,.148-.978q-.957-.3-1.882-.621a.5.5,0,1,0-.33.943Z"/><path d="M40.426,57.642l-.2.221a.5.5,0,1,0,.742.67l.785-.87a.5.5,0,0,0-.274-.825l-.808-.163a.5.5,0,0,0-.246.968Z"/><path d="M37.548,60.832a.5.5,0,1,0,.742.67l1.34-1.485a.5.5,0,0,0-.742-.67Z"/><path d="M36.55,56.709q.962.264,1.95.5a.5.5,0,1,0,.236-.971q-.973-.237-1.921-.5a.5.5,0,1,0-.266.964Z"/><path d="M36.208,62.317,34.868,63.8a.5.5,0,1,0,.742.67l1.34-1.484a.5.5,0,0,0-.742-.67Z"/><path d="M20.575,66.118a.5.5,0,0,0-.635.771q.778.64,1.593,1.249a.5.5,0,0,0,.7-.1.5.5,0,0,0-.1-.7Q21.335,66.743,20.575,66.118Z"/><path d="M12.668,57.364a.5.5,0,1,0-.84.543q.548.848,1.148,1.671a.5.5,0,1,0,.809-.59Q13.2,58.188,12.668,57.364Z"/><path d="M14.992,60.549a.5.5,0,1,0-.775.631q.637.782,1.322,1.536a.5.5,0,1,0,.74-.672Q15.613,61.31,14.992,60.549Z"/><path d="M17.646,63.471a.5.5,0,0,0-.707.707q.712.71,1.47,1.394a.5.5,0,0,0,.67-.742Q18.34,64.164,17.646,63.471Z"/><path d="M20.214,48.972a.5.5,0,0,0,.6-.8q-.8-.594-1.558-1.215a.5.5,0,0,0-.635.773Q19.4,48.364,20.214,48.972Z"/><path d="M25.4,69.568q-.845-.526-1.659-1.08a.5.5,0,1,0-.562.826q.831.565,1.692,1.1a.5.5,0,1,0,.529-.85Z"/><path d="M23.82,51.316a.5.5,0,0,0,.262-.926q-.333-.2-.653-.41-.51-.33-1.007-.666a.5.5,0,1,0-.561.827q.505.344,1.025.679.331.213.672.422A.5.5,0,0,0,23.82,51.316Z"/><path d="M28.876,71.19a.5.5,0,0,0-.667,0c-.374-.2-.743-.4-1.11-.609a.5.5,0,0,0-.49.871q.728.412,1.476.8a.507.507,0,0,0,.232.057.5.5,0,0,0,.371-.165l.225-.249A.5.5,0,0,0,28.876,71.19Z"/><path d="M14.243,43.515A.5.5,0,1,0,15,42.856q-.65-.742-1.25-1.52a.5.5,0,1,0-.791.61Q13.572,42.75,14.243,43.515Z"/><path d="M10.687,38.577c.341.586.7,1.166,1.079,1.723a.5.5,0,0,0,.829-.56c-.362-.538-.714-1.1-1.043-1.666a.5.5,0,0,0-.865.5Z"/><path d="M17.085,46.405a.5.5,0,0,0,.672-.741Q17.021,45,16.335,44.3a.5.5,0,1,0-.713.7Q16.33,45.72,17.085,46.405Z"/><path d="M9.726,36.788a.5.5,0,1,0,.895-.445q-.435-.875-.815-1.789a.5.5,0,0,0-.924.385C9.144,35.568,9.428,36.19,9.726,36.788Z"/><path d="M10.727,53.937a.5.5,0,1,0-.9.438q.442.91.947,1.8a.5.5,0,1,0,.869-.493Q11.158,54.82,10.727,53.937Z"/><path d="M9.918,52.141q-.375-.91-.69-1.841a.5.5,0,0,0-.947.32c.214.634.454,1.274.714,1.9a.5.5,0,0,0,.462.309.493.493,0,0,0,.19-.038A.5.5,0,0,0,9.918,52.141Z"/><path d="M40.312,75.828q-.965-.245-1.913-.521a.5.5,0,1,0-.279.961q.965.28,1.948.528a.481.481,0,0,0,.122.016.5.5,0,0,0,.122-.984Z"/><path d="M36.5,74.722q-.946-.312-1.871-.654a.5.5,0,0,0-.348.938q.942.349,1.906.666a.485.485,0,0,0,.156.025.5.5,0,0,0,.156-.975Z"/><path d="M51.585,77.535q-.995-.056-1.979-.143a.52.52,0,0,0-.542.454.5.5,0,0,0,.454.542q1,.089,2.012.145h.027a.5.5,0,0,0,.027-1Z"/><path d="M55.556,77.626h0l-.551,0q-.719,0-1.434-.017h-.011a.5.5,0,0,0-.011,1q.724.016,1.455.017l.561,0a.5.5,0,0,0,0-1Z"/><path d="M63.652,57.542q-.979.125-1.973.222a.5.5,0,0,0,.048,1l.05,0q1.008-.1,2-.226a.5.5,0,0,0-.127-.992Z"/><path d="M59.513,77.464q-.983.073-1.979.113a.5.5,0,0,0,.021,1h.021q1.014-.042,2.013-.115a.5.5,0,0,0,.462-.536A.509.509,0,0,0,59.513,77.464Z"/><path d="M63.455,77.045q-.976.136-1.967.242a.5.5,0,0,0,.052,1,.482.482,0,0,0,.054,0q1.008-.107,2-.246a.5.5,0,0,0,.426-.564A.506.506,0,0,0,63.455,77.045Z"/><path d="M57.74,59.047h.021q1.011-.045,2.01-.116a.5.5,0,0,0,.464-.534.506.506,0,0,0-.534-.464q-.986.07-1.982.114a.5.5,0,0,0,.021,1Z"/><path d="M71.207,75.421q-.948.27-1.915.507a.5.5,0,1,0,.238.971q.984-.242,1.95-.515a.5.5,0,0,0-.273-.963Z"/><path d="M67.36,76.365q-.965.2-1.947.373a.5.5,0,0,0,.085.992.436.436,0,0,0,.087-.008q1-.174,1.98-.379a.5.5,0,1,0-.205-.979Z"/><path d="M74.979,74.21q-.927.334-1.875.64a.5.5,0,0,0,.153.976.493.493,0,0,0,.153-.024q.965-.309,1.908-.651a.5.5,0,0,0-.34-.939Z"/><path d="M47.1,63.315a.5.5,0,0,0,.677-.206,7.612,7.612,0,0,1,1.079-1.529.5.5,0,1,0-.74-.672,8.586,8.586,0,0,0-1.222,1.73A.5.5,0,0,0,47.1,63.315Z"/><path d="M50,60.447a.5.5,0,0,0,.276-.083,7.4,7.4,0,0,1,1.674-.828.5.5,0,0,0-.326-.945,8.439,8.439,0,0,0-1.9.939.5.5,0,0,0,.276.917Z"/><path d="M47.635,77.187c-.248-.03-.494-.062-.74-.095v-.374a.5.5,0,0,0-1,0v.811a.5.5,0,0,0,.431.5q.593.083,1.188.155a.434.434,0,0,0,.062,0,.5.5,0,0,0,.06-1Z"/><path d="M53.741,59.149l.042,0c.646-.054,1.312-.026,1.966-.038a.5.5,0,0,0,.491-.509.521.521,0,0,0-.509-.491c-.675.013-1.361-.013-2.03.042a.5.5,0,0,0,.04,1Z"/><path d="M46.394,71.218a.5.5,0,0,0,.5-.5v-2a.5.5,0,0,0-1,0v2A.5.5,0,0,0,46.394,71.218Z"/><path d="M46.395,72.218a.5.5,0,0,0-.5.5v2a.5.5,0,0,0,1,0v-2A.5.5,0,0,0,46.395,72.218Z"/><path d="M46.394,67.186a.527.527,0,0,0,.5-.531,7.562,7.562,0,0,1,.216-1.8.5.5,0,1,0-.971-.238,8.544,8.544,0,0,0-.245,2.037v.063A.473.473,0,0,0,46.394,67.186Z"/><path d="M80.4,69.105a.5.5,0,0,0-.762.648l1.3,1.523a.5.5,0,1,0,.762-.648Z"/><path d="M93.5,62.288q-.667.721-1.377,1.417a.5.5,0,1,0,.7.713q.727-.712,1.41-1.45a.5.5,0,1,0-.734-.68Z"/><path d="M90.674,65.051q-.734.653-1.508,1.278a.5.5,0,1,0,.629.777q.791-.64,1.543-1.308a.5.5,0,0,0-.664-.748Z"/><path d="M89.39,49.145a.494.494,0,0,0,.3-.1q.82-.606,1.6-1.24a.5.5,0,1,0-.631-.775q-.762.62-1.562,1.211a.5.5,0,0,0,.3.9Z"/><path d="M93.58,44.386q-.69.7-1.427,1.361a.5.5,0,1,0,.67.742q.757-.683,1.468-1.4a.5.5,0,0,0-.711-.7Z"/><path d="M87.6,67.537q-.791.584-1.617,1.139a.5.5,0,0,0,.278.915.493.493,0,0,0,.278-.085q.847-.567,1.654-1.164a.5.5,0,0,0-.594-.8Z"/><path d="M98.872,55.788a.5.5,0,0,0-.684.182q-.492.85-1.036,1.674a.5.5,0,0,0,.142.692.5.5,0,0,0,.692-.142q.561-.848,1.067-1.723A.5.5,0,0,0,98.872,55.788Z"/><path d="M86.334,51.307q.4-.24.779-.487.466-.3.922-.607a.5.5,0,1,0-.559-.829q-.447.3-.9.6c-.249.16-.5.317-.759.474a.5.5,0,0,0,.52.854Z"/><path d="M96.019,59.257q-.586.788-1.221,1.55a.5.5,0,0,0,.77.639q.65-.782,1.254-1.591a.5.5,0,0,0-.8-.6Z"/><path d="M100.607,52.188a.5.5,0,0,0-.656.264q-.385.9-.827,1.786a.5.5,0,0,0,.895.447q.456-.909.853-1.841A.5.5,0,0,0,100.607,52.188Z"/><path d="M96.182,41.431q-.6.776-1.256,1.516a.5.5,0,1,0,.75.661q.672-.763,1.295-1.563a.5.5,0,1,0-.789-.614Z"/><path d="M70.03,56.921a.5.5,0,1,0-.762.648l1.3,1.523a.5.5,0,0,0,.762-.648Z"/><path d="M75.093,56.142a.507.507,0,0,0,.146-.022q.977-.3,1.92-.619a.5.5,0,1,0-.324-.946q-.926.316-1.887.609a.5.5,0,0,0,.146.979Z"/><path d="M71.231,57.185a.47.47,0,0,0,.115-.014q.99-.234,1.954-.5a.5.5,0,1,0-.262-.965q-.949.257-1.923.488a.5.5,0,0,0,.115.986Z"/><path d="M84.317,69.744q-.838.514-1.709,1a.5.5,0,0,0,.486.875q.889-.5,1.746-1.021a.5.5,0,0,0-.523-.852Z"/><path d="M97.751,40.621a.5.5,0,0,0,.414-.219q.568-.838,1.084-1.716a.5.5,0,1,0-.861-.507q-.5.85-1.051,1.662a.5.5,0,0,0,.414.781Z"/><path d="M99.548,37.122a.5.5,0,0,0,.672-.223q.453-.9.852-1.845a.5.5,0,0,0-.922-.39q-.385.914-.824,1.786A.5.5,0,0,0,99.548,37.122Z"/><path d="M78.876,54.847a.5.5,0,0,0,.179-.033q.957-.365,1.872-.756a.5.5,0,0,0-.393-.92q-.9.383-1.837.742a.5.5,0,0,0,.179.967Z"/><path d="M77.808,66.06a.5.5,0,0,0-.762.648l1.3,1.523a.5.5,0,1,0,.762-.648Z"/><path d="M82.769,53.225q.929-.445,1.8-.915a.5.5,0,0,0-.473-.881q-.855.458-1.764.893a.5.5,0,0,0,.432.9Z"/><path d="M72.623,59.967a.5.5,0,1,0-.762.648l1.3,1.523a.5.5,0,0,0,.762-.648Z"/><path d="M75.216,63.014a.5.5,0,1,0-.762.648l1.3,1.522a.5.5,0,1,0,.762-.648Z"/></g></g></g></svg>