<svg xmlns="http://www.w3.org/2000/svg" width="110" height="110" viewBox="0 0 110 110"><defs><style>.cls-1{fill:#fff;}</style></defs><title>Воротник - Укороченный стандартный</title><g id="Воротник"><g id="Укороченный_стандартный" data-name="Укороченный стандартный"><g id="Цвет"><path class="cls-1" d="M55,33.08a77.9,77.9,0,0,1,31.167,6.087c7.317-5.629,10.413-12.351,10.5-19.849C86,13.333,70.652,11,55,11s-31,2.333-41.671,8.317c.092,7.5,3.188,14.22,10.5,19.849A77.9,77.9,0,0,1,55,33.08Z"/><path class="cls-1" d="M75.17,69.2,65.5,50.5c8.9-3.068,15.486-6.76,20.667-11.333A77.113,77.113,0,0,0,55,33.08a77.113,77.113,0,0,0-31.167,6.087C29.014,43.74,35.6,47.432,44.5,50.5L35.027,69.282A88.587,88.587,0,0,0,75.17,69.2Z"/><path class="cls-1" d="M.512,51.125a16.426,16.426,0,0,1,1.824-7.964l11-23.843c-.418,11.588,9.571,23.2,31.171,31.183l-16,31C18.137,75.625,8.012,66.875,2.762,58.875A15.06,15.06,0,0,1,.512,51.125Z"/><path class="cls-1" d="M109.488,51.125a16.426,16.426,0,0,0-1.824-7.964l-11-23.843c.418,11.588-9.571,23.2-31.171,31.183l16,31c10.373-5.875,20.5-14.625,25.748-22.625A15.06,15.06,0,0,0,109.488,51.125Z"/></g><g id="Контур"><path d="M23.162,74.569a.5.5,0,0,0-.573.82q.823.576,1.661,1.135a.5.5,0,0,0,.555-.832Q23.977,75.14,23.162,74.569Z"/><path d="M13.165,29.061a16.906,16.906,0,0,1-.652-1.827.5.5,0,0,0-.96.28,17.889,17.889,0,0,0,.69,1.935.5.5,0,0,0,.461.306.506.506,0,0,0,.194-.039A.5.5,0,0,0,13.165,29.061Z"/><path d="M19.955,72.216a.5.5,0,1,0-.609.793q.8.611,1.608,1.208a.5.5,0,0,0,.592-.807Q20.742,72.821,19.955,72.216Z"/><path d="M38.955,55.815a.5.5,0,0,0-.674.215l-.917,1.777a.5.5,0,0,0,.889.459l.917-1.777A.5.5,0,0,0,38.955,55.815Z"/><path d="M27.946,77.142a.5.5,0,0,0-.64.158q-.418-.258-.834-.522a.5.5,0,1,0-.536.844q.649.413,1.3.812a.5.5,0,0,0,.26.073.488.488,0,0,0,.135-.019.5.5,0,0,0,.31-.252l.217-.42A.5.5,0,0,0,27.946,77.142Z"/><path d="M13.879,67.084a.5.5,0,1,0-.682.732q.731.68,1.491,1.352a.5.5,0,0,0,.706-.043.5.5,0,0,0-.043-.705Q14.6,67.755,13.879,67.084Z"/><path d="M16.857,69.722a.5.5,0,0,0-.646.764q.764.646,1.553,1.279a.5.5,0,0,0,.627-.779Q17.613,70.36,16.857,69.722Z"/><path d="M11.042,64.3a.5.5,0,0,0-.72.7q.691.715,1.418,1.43a.5.5,0,0,0,.7-.715Q11.723,65.01,11.042,64.3Z"/><path d="M40.789,52.261a.5.5,0,0,0-.674.215L39.2,54.253a.5.5,0,0,0,.889.459L41,52.935A.5.5,0,0,0,40.789,52.261Z"/><path d="M35.285,62.924a.5.5,0,0,0-.674.215l-.917,1.777a.5.5,0,0,0,.889.459L35.5,63.6A.5.5,0,0,0,35.285,62.924Z"/><path d="M29.781,73.587a.5.5,0,0,0-.674.215l-.917,1.777a.5.5,0,0,0,.889.459L30,74.261A.5.5,0,0,0,29.781,73.587Z"/><path d="M37.12,59.369a.5.5,0,0,0-.674.215l-.917,1.777a.5.5,0,0,0,.889.459l.917-1.777A.5.5,0,0,0,37.12,59.369Z"/><path d="M31.615,70.032a.5.5,0,0,0-.674.215l-.917,1.777a.5.5,0,0,0,.889.459l.917-1.777A.5.5,0,0,0,31.615,70.032Z"/><path d="M33.45,66.479a.5.5,0,0,0-.674.215l-.917,1.777a.5.5,0,0,0,.889.459l.917-1.777A.5.5,0,0,0,33.45,66.479Z"/><path d="M8.381,61.36a.5.5,0,0,0-.764.646q.639.756,1.329,1.518a.5.5,0,1,0,.741-.672Q9.01,62.105,8.381,61.36Z"/><path d="M34.393,49.383q.9.454,1.807.886a.5.5,0,1,0,.429-.9q-.9-.426-1.784-.875a.5.5,0,1,0-.451.893Z"/><path d="M19.447,39.2a.5.5,0,0,0,.687-.728q-.729-.688-1.407-1.389a.5.5,0,1,0-.72.694Q18.7,38.493,19.447,39.2Z"/><path d="M25.738,44.252a.5.5,0,0,0,.57-.821q-.822-.571-1.612-1.158a.5.5,0,1,0-.6.8Q24.9,43.672,25.738,44.252Z"/><path d="M5.956,58.235a.5.5,0,0,0-.817.576q.569.807,1.207,1.625a.5.5,0,1,0,.789-.613Q6.512,59.023,5.956,58.235Z"/><path d="M27.412,45.376q.84.546,1.7,1.073a.5.5,0,1,0,.521-.854q-.852-.52-1.681-1.059a.5.5,0,1,0-.545.839Z"/><path d="M30.852,47.475q.869.5,1.758.977a.5.5,0,0,0,.474-.881q-.876-.471-1.734-.963a.5.5,0,0,0-.5.867Z"/><path d="M38.028,51.111q.921.411,1.851.8a.5.5,0,1,0,.384-.923q-.917-.382-1.827-.787a.5.5,0,1,0-.407.913Z"/><path d="M22.5,41.843a.5.5,0,0,0,.625-.78q-.782-.626-1.524-1.267a.5.5,0,1,0-.654.756Q21.7,41.206,22.5,41.843Z"/><path d="M16.639,36.279a.5.5,0,1,0,.756-.654q-.656-.757-1.243-1.527a.5.5,0,0,0-.795.606Q15.962,35.5,16.639,36.279Z"/><path d="M3.367,53.04a15.312,15.312,0,0,1-.429-1.887.5.5,0,1,0-.987.158,16.371,16.371,0,0,0,.457,2.01.5.5,0,1,0,.96-.281Z"/><path d="M4.02,54.867a.5.5,0,0,0-.92.391A16.809,16.809,0,0,0,4.018,57.1a.5.5,0,1,0,.865-.5A15.99,15.99,0,0,1,4.02,54.867Z"/><path d="M2.265,49.743a.5.5,0,0,0,.468-.53c-.032-.5-.049-1.019-.049-1.548l0-.411a.5.5,0,0,0-.491-.509.506.506,0,0,0-.509.491l0,.428c0,.551.019,1.09.051,1.611a.5.5,0,0,0,.5.469Z"/><path d="M13.131,31.293c.315.583.668,1.171,1.048,1.75a.5.5,0,1,0,.836-.549c-.365-.556-.7-1.12-1.005-1.678a.5.5,0,0,0-.879.477Z"/><path d="M31.894,15.786a.483.483,0,0,0,.091-.008q.97-.178,1.961-.338a.5.5,0,1,0-.16-.987q-1,.163-1.981.342a.5.5,0,0,0,.09.992Z"/><path d="M24.1,17.6a.5.5,0,0,0,.14-.02q.94-.274,1.914-.527a.5.5,0,0,0-.252-.968q-.987.256-1.942.535a.5.5,0,0,0,.14.98Z"/><path d="M27.976,16.6a.5.5,0,0,0,.113-.013q.958-.223,1.942-.425a.5.5,0,1,0-.2-.979q-1,.206-1.966.43a.5.5,0,0,0,.112.987Z"/><path d="M20.305,18.851a.491.491,0,0,0,.173-.031q.913-.338,1.871-.651a.5.5,0,0,0-.312-.95q-.975.319-1.906.664a.5.5,0,0,0,.173.969Z"/><path d="M16.617,20.4a.5.5,0,0,0,.215-.049q.874-.417,1.8-.8a.5.5,0,1,0-.386-.923q-.953.4-1.849.825a.5.5,0,0,0,.216.951Z"/><path d="M87.244,18.092q.959.309,1.875.642a.5.5,0,0,0,.342-.939q-.934-.34-1.91-.654a.5.5,0,0,0-.307.952Z"/><path d="M47.79,14.041h.023q.992-.046,1.992-.08a.5.5,0,0,0,.483-.516.512.512,0,0,0-.516-.483q-1.006.034-2,.08a.5.5,0,0,0,.022,1Z"/><path d="M59.777,13.953q1,.032,1.989.077h.023a.5.5,0,0,0,.022-1q-1-.045-2-.077a.523.523,0,0,0-.516.483A.5.5,0,0,0,59.777,13.953Z"/><path d="M55.793,13.879q1,.007,1.993.024H57.8a.5.5,0,0,0,.009-1q-1-.018-2-.024h0a.5.5,0,0,0,0,1Z"/><path d="M51.792,13.907h.01q1-.019,2-.027a.5.5,0,0,0,0-1h0q-1.006.007-2.009.027a.5.5,0,0,0,.01,1Z"/><path d="M35.842,15.144a.5.5,0,0,0,.071,0q.979-.139,1.975-.264a.5.5,0,0,0-.124-.992q-1,.125-1.991.266a.5.5,0,0,0,.07,1Z"/><path d="M39.813,14.649l.054,0q.985-.1,1.983-.2a.5.5,0,0,0-.091-1q-1.006.092-2,.2a.5.5,0,0,0,.053,1Z"/><path d="M43.8,14.286h.039q.989-.075,1.988-.136a.5.5,0,1,0-.062-1q-1.006.062-2,.137a.5.5,0,0,0,.038,1Z"/><path d="M75.638,15.4q.991.158,1.962.334a.506.506,0,0,0,.089.008.5.5,0,0,0,.088-.992q-.981-.177-1.982-.337a.5.5,0,1,0-.157.987Z"/><path d="M83.429,16.994q.975.25,1.917.52a.5.5,0,0,0,.138.02.5.5,0,0,0,.138-.98q-.956-.275-1.945-.528a.5.5,0,0,0-.248.969Z"/><path d="M90.964,19.448q.932.384,1.809.794a.5.5,0,0,0,.425-.905q-.9-.421-1.853-.814a.5.5,0,1,0-.381.925Z"/><path d="M63.757,14.133q1,.059,1.989.132h.037a.5.5,0,0,0,.036-1q-1-.074-2-.133a.507.507,0,0,0-.528.47A.5.5,0,0,0,63.757,14.133Z"/><path d="M71.694,14.845q1,.122,1.975.259a.484.484,0,0,0,.07,0,.5.5,0,0,0,.069-1q-.988-.138-1.992-.261a.492.492,0,0,0-.557.436A.5.5,0,0,0,71.694,14.845Z"/><path d="M67.732,14.428q1,.089,1.983.192l.053,0a.5.5,0,0,0,.052-1q-.992-.1-2-.194a.5.5,0,1,0-.089,1Z"/><path d="M79.554,16.108q.984.2,1.943.418a.488.488,0,0,0,.112.013.5.5,0,0,0,.111-.987q-.97-.222-1.968-.424a.5.5,0,0,0-.2.98Z"/><path d="M82.41,35.512q.955.313,1.879.644a.5.5,0,1,0,.337-.941q-.937-.335-1.9-.653a.5.5,0,1,0-.312.95Z"/><path d="M58.995,31.3q1,.046,1.985.113h.034a.5.5,0,0,0,.033-1q-1-.067-2.006-.114a.5.5,0,0,0-.046,1Z"/><path d="M51.018,31.29h.022q.99-.044,1.989-.065a.5.5,0,0,0-.021-1Q52,30.245,51,30.29a.5.5,0,0,0,.021,1Z"/><path d="M55.019,31.2q1,0,1.989.025h.012a.5.5,0,0,0,.012-1q-1-.023-2.01-.025h0a.5.5,0,0,0,0,1Z"/><path d="M62.961,31.567q.994.089,1.978.2l.056,0a.5.5,0,0,0,.055-1q-.995-.111-2-.2a.5.5,0,1,0-.089,1Z"/><path d="M66.914,32.009q.99.133,1.968.285a.529.529,0,0,0,.078.006.5.5,0,0,0,.077-.994q-.989-.154-1.99-.288a.5.5,0,1,0-.133.991Z"/><path d="M74.744,33.407q.979.219,1.936.458a.516.516,0,0,0,.121.015.5.5,0,0,0,.12-.985q-.968-.241-1.958-.463a.5.5,0,1,0-.219.976Z"/><path d="M78.6,34.368q.968.264,1.911.548a.512.512,0,0,0,.144.021.5.5,0,0,0,.144-.979q-.954-.286-1.935-.555a.5.5,0,0,0-.264.965Z"/><path d="M70.845,32.622q.985.176,1.954.371a.491.491,0,0,0,.1.01.5.5,0,0,0,.1-.99q-.979-.2-1.976-.375a.494.494,0,0,0-.58.4A.5.5,0,0,0,70.845,32.622Z"/><path d="M23.683,36.813a.5.5,0,0,0,.18-.034q.914-.352,1.863-.69a.5.5,0,1,0-.335-.942q-.961.341-1.889.7a.5.5,0,0,0,.18.966Z"/><path d="M27.453,35.475a.5.5,0,0,0,.154-.024q.935-.3,1.9-.591a.5.5,0,1,0-.285-.958q-.975.29-1.922.6a.5.5,0,0,0,.154.976Z"/><path d="M43.047,31.987a.509.509,0,0,0,.066,0q.98-.129,1.974-.238a.5.5,0,1,0-.108-.994q-1,.11-2,.241a.5.5,0,0,0,.065,1Z"/><path d="M39.094,32.595a.526.526,0,0,0,.087-.007q.973-.171,1.963-.324a.5.5,0,1,0-.152-.988q-1,.154-1.983.327a.5.5,0,0,0,.086.993Z"/><path d="M31.286,34.333a.489.489,0,0,0,.131-.018q.951-.258,1.925-.5a.5.5,0,1,0-.239-.971q-.985.243-1.947.5a.5.5,0,0,0,.13.982Z"/><path d="M35.17,33.375a.52.52,0,0,0,.109-.012q.964-.215,1.946-.41a.5.5,0,0,0-.2-.98q-.993.2-1.968.414a.5.5,0,0,0,.108.988Z"/><path d="M47.024,31.551l.044,0q.988-.086,1.984-.152a.5.5,0,0,0,.466-.532.51.51,0,0,0-.532-.466q-1.007.067-2.006.154a.5.5,0,0,0,.043,1Z"/><path d="M58.929,61.4h1.333a.5.5,0,0,0,0-1H58.929a4.042,4.042,0,0,0-8.028,0H49.568a.5.5,0,0,0,0,1H50.9a4.042,4.042,0,0,0,8.028,0Zm-4.014,2.564A3.064,3.064,0,1,1,57.979,60.9,3.068,3.068,0,0,1,54.915,63.968Z"/><path d="M54.915,58.621a2.282,2.282,0,0,0,0,4.564.5.5,0,0,0,0-1A1.282,1.282,0,1,1,56.2,60.9a.5.5,0,0,0,1,0A2.285,2.285,0,0,0,54.915,58.621Z"/><path d="M41.606,68q-.986-.148-1.964-.316a.5.5,0,0,0-.17.986q.989.17,1.986.318a.48.48,0,0,0,.074.006A.5.5,0,0,0,41.606,68Z"/><path d="M47.5,64.383a.5.5,0,0,0,.5-.5v-2a.5.5,0,0,0-1,0v2A.5.5,0,0,0,47.5,64.383Z"/><path d="M48.165,56.478a.491.491,0,0,0,.247.065.5.5,0,0,0,.435-.253,6.534,6.534,0,0,1,1.135-1.463.5.5,0,0,0-.7-.719A7.526,7.526,0,0,0,47.978,55.8.5.5,0,0,0,48.165,56.478Z"/><path d="M47.5,60.383a.5.5,0,0,0,.5-.5V59.5a6.531,6.531,0,0,1,.171-1.487.5.5,0,0,0-.373-.6.5.5,0,0,0-.6.372A7.532,7.532,0,0,0,47,59.5v.383A.5.5,0,0,0,47.5,60.383Z"/><path d="M48,67.883v-2a.5.5,0,0,0-1,0v2a.5.5,0,0,0,1,0Z"/><path d="M58.171,68.938q-.992.037-1.988.052a.5.5,0,0,0,.007,1H56.2q1.008-.015,2.011-.052a.5.5,0,0,0,.481-.519A.514.514,0,0,0,58.171,68.938Z"/><path d="M65.617,52.5a.5.5,0,0,0-.5-.5h-2a.5.5,0,0,0,0,1h2A.5.5,0,0,0,65.617,52.5Z"/><path d="M62.141,68.7q-.99.081-1.983.141a.5.5,0,0,0,.029,1h.03q1.006-.06,2.006-.143a.5.5,0,1,0-.082-1Z"/><path d="M70.031,67.709q-.977.167-1.964.313a.5.5,0,0,0,.073.994.637.637,0,0,0,.074,0q1-.148,1.985-.315a.5.5,0,1,0-.168-.986Z"/><path d="M51.248,53.8a.5.5,0,0,0,.232-.058,6.457,6.457,0,0,1,1.743-.617.5.5,0,1,0-.194-.98,7.411,7.411,0,0,0-2.014.712.5.5,0,0,0,.233.942Z"/><path d="M66.1,68.292q-.984.125-1.976.228a.5.5,0,0,0,.051,1l.052,0q1-.1,2-.229a.5.5,0,0,0,.434-.559A.494.494,0,0,0,66.1,68.292Z"/><path d="M54.2,69q-1-.009-1.988-.041a.551.551,0,0,0-.516.483.5.5,0,0,0,.483.517q1,.032,2.012.041h0a.5.5,0,0,0,0-1Z"/><path d="M59.117,53h2a.5.5,0,0,0,0-1h-2a.5.5,0,0,0,0,1Z"/><path d="M55.117,53h2a.5.5,0,0,0,0-1h-2a.5.5,0,0,0,0,1Z"/><path d="M50.22,68.87q-.995-.054-1.984-.131a.5.5,0,0,0-.076,1q1,.076,2.007.131h.027a.5.5,0,0,0,.026-1Z"/><path d="M108.118,42.951l-9.093-19.7,0-.011-1.907-4.132a.493.493,0,0,0-.465-.283c-8.508-5.29-23.7-8.325-41.733-8.325-18.111,0-33.366,3.06-41.852,8.394a.475.475,0,0,0-.066.063l-.017.017a.494.494,0,0,0-.133.223L10.98,23.24l0,.011-9.093,19.7a16.877,16.877,0,0,0-1.87,8.193,15.458,15.458,0,0,0,2.332,8.005c5.143,7.837,15.317,16.78,25.919,22.786a.5.5,0,0,0,.691-.206l6.153-11.92A92.079,92.079,0,0,0,54.915,72a92.062,92.062,0,0,0,19.959-2.227l6.172,11.956a.5.5,0,0,0,.3.25.5.5,0,0,0,.389-.044c10.6-6.006,20.777-14.949,25.919-22.786a15.458,15.458,0,0,0,2.332-8.005A16.877,16.877,0,0,0,108.118,42.951ZM96.162,19.7q.01.6-.018,1.195c-.368-.219-.744-.435-1.134-.645a.5.5,0,1,0-.475.88c.531.286,1.036.585,1.522.885-.553,5.155-3.236,10.1-7.824,14.607-.563-.238-1.134-.472-1.719-.7a.5.5,0,1,0-.363.932c.44.172.865.349,1.292.526-.409.379-.833.755-1.269,1.127a85.415,85.415,0,0,0-62.4-.045c-.506-.434-.99-.873-1.459-1.316a.486.486,0,0,0-.024-.276.494.494,0,0,0-.56-.284c-4.594-4.523-7.268-9.489-7.8-14.664.374-.228.749-.455,1.146-.672a.5.5,0,1,0-.481-.877c-.257.141-.5.292-.744.437-.017-.4-.022-.8-.013-1.208,8.377-5.148,23.314-8.1,41.076-8.1C72.793,11.5,87.817,14.488,96.162,19.7ZM65.4,50H44.6A70.451,70.451,0,0,1,24.651,39.192a84.4,84.4,0,0,1,60.643.045A70.564,70.564,0,0,1,65.4,50ZM28.3,80.808C17.994,74.879,8.169,66.2,3.18,58.6a14.479,14.479,0,0,1-2.168-7.495A14.155,14.155,0,0,1,1.9,45.525a.492.492,0,0,0,.356.221l.054,0a.5.5,0,0,0,.5-.446,17.7,17.7,0,0,1,.312-1.919.492.492,0,0,0-.13-.444l8.1-17.552c.005.038.007.076.013.113a.5.5,0,1,0,.988-.151,13.274,13.274,0,0,1-.149-1.809l.9-1.948a.5.5,0,0,0,.065.366c.007.012.021.016.029.027C13.553,28.144,17.061,34,23.1,39.186a.479.479,0,0,0,.016.078.492.492,0,0,0,.417.293c5.1,4.269,11.925,8.076,20.276,11.214Zm7.732-12.8c.485.1.97.2,1.459.3a.537.537,0,0,0,.1.009.5.5,0,0,0,.095-.991c-.393-.076-.782-.158-1.172-.239L43.784,53H44.5a.5.5,0,0,0,0-1h-.2l.516-1h5.466a9.509,9.509,0,0,0-1.633,1.03A.489.489,0,0,0,48.5,52h-2a.5.5,0,0,0,0,1h1.091A9.456,9.456,0,0,0,45,59.5v8.938c-.475-.053-.95-.105-1.423-.167a.5.5,0,0,0-.128.992c.515.066,1.033.124,1.551.181v1a92.719,92.719,0,0,1-9.417-1.555ZM54.915,71a89.027,89.027,0,0,1-8.923-.46c0-.014.008-.026.008-.04v-11A8.51,8.51,0,0,1,54.5,51H65.184l8.287,16.054c-.493.1-.985.206-1.482.3a.5.5,0,0,0,.094.991.522.522,0,0,0,.095-.009c.593-.114,1.183-.235,1.77-.36l.451.874A91.023,91.023,0,0,1,54.915,71Zm54.074-19.894A14.479,14.479,0,0,1,106.82,58.6C101.831,66.2,92.006,74.879,81.7,80.808L75.659,69.113c0-.008,0-.016,0-.024a.5.5,0,0,0-.129-.227l-9.338-18.09C85.136,43.653,96.241,33.095,97.116,21.5l.942,2.041a13.274,13.274,0,0,1-.149,1.809.5.5,0,0,0,.418.57.5.5,0,0,0,.57-.418c.006-.038.008-.076.013-.113l8.1,17.552a.492.492,0,0,0-.13.444,17.7,17.7,0,0,1,.312,1.919.5.5,0,0,0,.5.446l.054,0a.492.492,0,0,0,.356-.221A14.155,14.155,0,0,1,108.989,51.106Z"/><path d="M72.637,57.808l-.917-1.777a.5.5,0,1,0-.889.459l.917,1.777a.5.5,0,0,0,.445.271.5.5,0,0,0,.229-.056A.5.5,0,0,0,72.637,57.808Z"/><path d="M93.143,69.722q-.755.637-1.534,1.264a.5.5,0,0,0,.627.779q.787-.634,1.553-1.279a.5.5,0,0,0-.646-.764Z"/><path d="M96.121,67.084q-.721.671-1.472,1.336a.5.5,0,0,0,.331.874.493.493,0,0,0,.331-.126q.76-.671,1.491-1.352a.5.5,0,1,0-.682-.732Z"/><path d="M97.757,29.449a17.889,17.889,0,0,0,.69-1.935.5.5,0,0,0-.96-.28,16.906,16.906,0,0,1-.652,1.827.5.5,0,0,0,.267.655.506.506,0,0,0,.194.039A.5.5,0,0,0,97.757,29.449Z"/><path d="M90.045,72.216q-.787.6-1.59,1.194a.5.5,0,0,0,.592.807q.812-.6,1.608-1.208a.5.5,0,0,0-.609-.793Z"/><path d="M86.838,74.569q-.814.57-1.642,1.123a.5.5,0,1,0,.555.832q.837-.558,1.661-1.135a.5.5,0,0,0-.573-.82Z"/><path d="M83.528,76.777q-.416.264-.834.522a.5.5,0,0,0-.854.516l.217.42a.5.5,0,0,0,.31.252.488.488,0,0,0,.135.019.5.5,0,0,0,.26-.073q.655-.4,1.3-.812a.5.5,0,1,0-.536-.844Z"/><path d="M107.635,50.738a.5.5,0,0,0-.573.415,15.312,15.312,0,0,1-.429,1.887.5.5,0,0,0,.96.281,16.371,16.371,0,0,0,.457-2.01A.5.5,0,0,0,107.635,50.738Z"/><path d="M106.635,54.6a.5.5,0,0,0-.655.265,15.99,15.99,0,0,1-.863,1.735.5.5,0,1,0,.865.5,16.809,16.809,0,0,0,.918-1.844A.5.5,0,0,0,106.635,54.6Z"/><path d="M81.811,75.579,80.893,73.8a.5.5,0,1,0-.889.459l.917,1.777a.5.5,0,0,0,.889-.459Z"/><path d="M107.8,46.745a.5.5,0,0,0-.491.509l0,.411c0,.529-.018,1.047-.049,1.548a.5.5,0,0,0,.468.53h.032a.5.5,0,0,0,.5-.469c.033-.521.051-1.06.051-1.611l0-.428A.488.488,0,0,0,107.8,46.745Z"/><path d="M101.619,61.36q-.629.744-1.306,1.492a.5.5,0,0,0,.741.672q.688-.762,1.329-1.518a.5.5,0,0,0-.764-.646Z"/><path d="M95.128,33.188a.5.5,0,0,0,.692-.144c.38-.579.733-1.168,1.048-1.75a.5.5,0,0,0-.879-.477c-.3.558-.641,1.123-1.005,1.678A.5.5,0,0,0,95.128,33.188Z"/><path d="M104.044,58.235q-.556.787-1.178,1.588a.5.5,0,1,0,.789.613q.636-.817,1.207-1.625a.5.5,0,0,0-.817-.576Z"/><path d="M98.958,64.3q-.68.706-1.4,1.41a.5.5,0,0,0,.7.715q.728-.715,1.418-1.43a.5.5,0,0,0-.72-.7Z"/><path d="M79.976,72.024l-.917-1.777a.5.5,0,1,0-.889.459l.917,1.777a.5.5,0,0,0,.889-.459Z"/><path d="M80.623,46.522a.5.5,0,0,0,.26-.073q.864-.527,1.7-1.073a.5.5,0,1,0-.545-.839q-.828.538-1.681,1.059a.5.5,0,0,0,.261.927Z"/><path d="M87.186,41.953a.5.5,0,0,0,.312-.11q.8-.638,1.553-1.292A.5.5,0,0,0,88.4,39.8q-.741.641-1.524,1.267a.5.5,0,0,0,.313.89Z"/><path d="M92.983,36.452a.5.5,0,0,0,.378-.173q.676-.781,1.282-1.575a.5.5,0,0,0-.795-.606q-.587.769-1.243,1.527a.5.5,0,0,0,.378.827Z"/><path d="M77.154,48.511a.5.5,0,0,0,.236-.06q.888-.477,1.758-.977a.5.5,0,0,0-.5-.867q-.858.491-1.734.963a.5.5,0,0,0,.237.94Z"/><path d="M90.209,39.333a.5.5,0,0,0,.343-.136q.746-.7,1.44-1.422a.5.5,0,1,0-.72-.694q-.677.7-1.407,1.389a.5.5,0,0,0,.343.864Z"/><path d="M83.977,44.341a.5.5,0,0,0,.285-.089q.835-.579,1.638-1.176a.5.5,0,1,0-.6-.8q-.79.587-1.612,1.158a.5.5,0,0,0,.286.911Z"/><path d="M74.472,61.361l-.917-1.777a.5.5,0,0,0-.889.459l.917,1.777a.5.5,0,0,0,.445.271.5.5,0,0,0,.229-.056A.5.5,0,0,0,74.472,61.361Z"/><path d="M76.306,64.916l-.917-1.777a.5.5,0,0,0-.889.459l.917,1.777a.5.5,0,0,0,.445.271.5.5,0,0,0,.229-.056A.5.5,0,0,0,76.306,64.916Z"/><path d="M78.141,68.471l-.917-1.777a.5.5,0,1,0-.889.459l.917,1.777a.5.5,0,0,0,.445.271.5.5,0,0,0,.229-.056A.5.5,0,0,0,78.141,68.471Z"/><path d="M69.929,51.946a.5.5,0,0,0,.192-.038q.929-.387,1.851-.8a.5.5,0,1,0-.407-.913q-.91.405-1.827.787a.5.5,0,0,0,.192.961Z"/><path d="M73.587,50.318a.5.5,0,0,0,.214-.048q.91-.432,1.807-.886a.5.5,0,0,0-.451-.893q-.886.448-1.784.875a.5.5,0,0,0,.215.952Z"/><path d="M70.8,54.253l-.917-1.777a.5.5,0,0,0-.889.459l.917,1.777a.5.5,0,0,0,.889-.459Z"/></g></g></g></svg>