<svg xmlns="http://www.w3.org/2000/svg" width="110" height="110" viewBox="0 0 110 110"><defs><style>.cls-1{fill:#fff;}</style></defs><title>Воротник - Double</title><g id="Воротник"><g id="Double"><g id="Цвет-4" data-name="Цвет"><path class="cls-1" d="M54.915,71.5A76.427,76.427,0,0,0,79.58,67.875l-14-17.5a68.8,68.8,0,0,0,20.375-11.25,80.212,80.212,0,0,0-31.04-6.045,80.212,80.212,0,0,0-31.04,6.045A68.8,68.8,0,0,0,44.25,50.375l-14,17.5A76.427,76.427,0,0,0,54.915,71.5Z"/><path class="cls-1" d="M55,33.08a77.9,77.9,0,0,1,31.167,6.087c7.317-5.629,10.413-12.351,10.5-19.849C86,13.333,70.652,11,55,11s-31,2.333-41.671,8.317c.092,7.5,3.188,14.22,10.5,19.849A77.9,77.9,0,0,1,55,33.08Z"/><path class="cls-1" d="M.5,51.668a19.593,19.593,0,0,1,1.821-8.507l11-23.843C12.911,30.906,22.9,42.518,44.5,50.5L20.5,97S7.667,71.167,3,62A22.748,22.748,0,0,1,.5,51.668Z"/><path class="cls-1" d="M109.5,51.668a19.593,19.593,0,0,0-1.821-8.507l-11-23.843C97.091,30.906,87.1,42.518,65.5,50.5L89.5,97S102.335,71.167,107,62A22.748,22.748,0,0,0,109.5,51.668Z"/><path class="cls-1" d="M20.5,87S35,60.167,39.833,51.25a2.472,2.472,0,0,1,3.25-1.167c-16-6.333-29.976-16.545-29.754-30.766,0,0-6.162,13.516-8.412,18.266C2.112,43.5,1.6,49.963,4.5,55.833,8.417,63.75,20.5,87,20.5,87Z"/><path class="cls-1" d="M89.583,87S75.083,60.167,70.25,51.25A2.472,2.472,0,0,0,67,50.083C83,43.75,96.976,33.538,96.754,19.317c0,0,6.162,13.516,8.412,18.266,2.8,5.92,3.321,12.38.417,18.25C101.667,63.75,89.583,87,89.583,87Z"/></g><g id="Контур-4" data-name="Контур"><circle class="cls-1" cx="20.667" cy="72.167" r="2.5"/><circle class="cls-1" cx="89.335" cy="72.167" r="2.5"/><path d="M19.836,18.524a.5.5,0,0,1,.3-.642q.931-.345,1.906-.664a.5.5,0,0,1,.312.95q-.957.313-1.871.651a.491.491,0,0,1-.173.031A.5.5,0,0,1,19.836,18.524ZM24.1,17.6a.5.5,0,0,0,.14-.02q.94-.274,1.914-.527a.5.5,0,0,0-.252-.968q-.987.256-1.942.535a.5.5,0,0,0,.14.98ZM27.976,16.6a.5.5,0,0,0,.113-.013q.958-.223,1.942-.425a.5.5,0,1,0-.2-.979q-1,.206-1.966.43a.5.5,0,0,0,.112.987ZM16.617,20.4a.5.5,0,0,0,.215-.049q.874-.417,1.8-.8a.5.5,0,1,0-.386-.923q-.953.4-1.849.825a.5.5,0,0,0,.216.951Zm43.16-6.444q1,.032,1.989.077h.023a.5.5,0,0,0,.022-1q-1-.045-2-.077a.523.523,0,0,0-.516.483A.5.5,0,0,0,59.777,13.953ZM43.8,14.286h.039q.989-.075,1.988-.136a.5.5,0,1,0-.062-1q-1.006.062-2,.137a.5.5,0,0,0,.038,1Zm3.994-.245h.023q.992-.046,1.992-.08a.5.5,0,0,0,.483-.516.512.512,0,0,0-.516-.483q-1.006.034-2,.08a.5.5,0,0,0,.022,1Zm-15.9,1.745a.483.483,0,0,0,.091-.008q.97-.178,1.961-.338a.5.5,0,1,0-.16-.987q-1,.163-1.981.342a.5.5,0,0,0,.09.992Zm7.919-1.136.054,0q.985-.1,1.983-.2a.5.5,0,0,0-.091-1q-1.006.092-2,.2a.5.5,0,0,0,.053,1Zm-3.97.495a.5.5,0,0,0,.071,0q.979-.139,1.975-.264a.5.5,0,0,0-.124-.992q-1,.125-1.991.266a.5.5,0,0,0,.07,1Zm19.951-1.265q1,.007,1.993.024H57.8a.5.5,0,0,0,.009-1q-1-.018-2-.024h0a.5.5,0,0,0,0,1Zm-4,.028h.01q1-.019,2-.027a.5.5,0,0,0,0-1h0q-1.006.007-2.009.027a.5.5,0,0,0,.01,1Zm27.763,2.2q.984.2,1.943.418a.488.488,0,0,0,.112.013.5.5,0,0,0,.111-.987q-.97-.222-1.968-.424a.5.5,0,0,0-.2.98Zm-15.8-1.975q1,.059,1.989.132h.037a.5.5,0,0,0,.036-1q-1-.074-2-.133a.507.507,0,0,0-.528.47A.5.5,0,0,0,63.757,14.133Zm23.487,3.959q.959.309,1.875.642a.5.5,0,0,0,.342-.939q-.934-.34-1.91-.654a.5.5,0,0,0-.307.952Zm3.721,1.355q.932.384,1.809.794a.5.5,0,0,0,.425-.905q-.9-.421-1.853-.814a.5.5,0,1,0-.381.925ZM75.638,15.4q.991.158,1.962.334a.506.506,0,0,0,.089.008.5.5,0,0,0,.088-.992q-.981-.177-1.982-.337a.5.5,0,1,0-.157.987Zm7.791,1.595q.975.25,1.917.52a.5.5,0,0,0,.138.02.5.5,0,0,0,.138-.98q-.956-.275-1.945-.528a.5.5,0,0,0-.248.969ZM71.694,14.845q1,.122,1.975.259a.484.484,0,0,0,.07,0,.5.5,0,0,0,.069-1q-.988-.138-1.992-.261a.492.492,0,0,0-.557.436A.5.5,0,0,0,71.694,14.845Zm-3.962-.417q1,.089,1.983.192l.053,0a.5.5,0,0,0,.052-1q-.992-.1-2-.194a.5.5,0,1,0-.089,1ZM55.019,31.2q1,0,1.989.025h.012a.5.5,0,0,0,.012-1q-1-.023-2.01-.025h0a.5.5,0,0,0,0,1Zm-4,.086h.022q.99-.044,1.989-.065a.5.5,0,0,0-.021-1Q52,30.245,51,30.29a.5.5,0,0,0,.021,1Zm15.9.719q.99.133,1.968.285a.529.529,0,0,0,.078.006.5.5,0,0,0,.077-.994q-.989-.154-1.99-.288a.5.5,0,1,0-.133.991Zm7.83,1.4q.979.219,1.936.458a.516.516,0,0,0,.121.015.5.5,0,0,0,.12-.985q-.968-.241-1.958-.463a.5.5,0,1,0-.219.976Zm-11.783-1.84q.994.089,1.978.2l.056,0a.5.5,0,0,0,.055-1q-.995-.111-2-.2a.5.5,0,1,0-.089,1ZM58.995,31.3q1,.046,1.985.113h.034a.5.5,0,0,0,.033-1q-1-.067-2.006-.114a.5.5,0,0,0-.046,1ZM82.41,35.512q.955.313,1.879.644a.5.5,0,1,0,.337-.941q-.937-.335-1.9-.653a.5.5,0,1,0-.312.95ZM78.6,34.368q.968.264,1.911.548a.512.512,0,0,0,.144.021.5.5,0,0,0,.144-.979q-.954-.286-1.935-.555a.5.5,0,0,0-.264.965Zm-7.758-1.747q.985.176,1.954.371a.491.491,0,0,0,.1.01.5.5,0,0,0,.1-.99q-.979-.2-1.976-.375a.494.494,0,0,0-.58.4A.5.5,0,0,0,70.845,32.622Zm-31.751-.027a.526.526,0,0,0,.087-.007q.973-.171,1.963-.324a.5.5,0,1,0-.152-.988q-1,.154-1.983.327a.5.5,0,0,0,.086.993Zm-11.641,2.88a.5.5,0,0,0,.154-.024q.935-.3,1.9-.591a.5.5,0,1,0-.285-.958q-.975.29-1.922.6a.5.5,0,0,0,.154.976Zm-3.77,1.338a.5.5,0,0,0,.18-.034q.914-.352,1.863-.69a.5.5,0,1,0-.335-.942q-.961.341-1.889.7a.5.5,0,0,0,.18.966Zm23.341-5.262.044,0q.988-.086,1.984-.152a.5.5,0,0,0,.466-.532.51.51,0,0,0-.532-.466q-1.007.067-2.006.154a.5.5,0,0,0,.043,1Zm-3.977.436a.509.509,0,0,0,.066,0q.98-.129,1.974-.238a.5.5,0,1,0-.108-.994q-1,.11-2,.241a.5.5,0,0,0,.065,1ZM31.286,34.333a.489.489,0,0,0,.131-.018q.951-.258,1.925-.5a.5.5,0,1,0-.239-.971q-.985.243-1.947.5a.5.5,0,0,0,.13.982Zm3.884-.958a.52.52,0,0,0,.109-.012q.964-.215,1.946-.41a.5.5,0,0,0-.2-.98q-.993.2-1.968.414a.5.5,0,0,0,.108.988ZM54.915,64.968A4.056,4.056,0,0,1,50.9,61.4H49.568a.5.5,0,0,1,0-1H50.9a4.042,4.042,0,0,1,8.028,0h1.333a.5.5,0,0,1,0,1H58.929A4.056,4.056,0,0,1,54.915,64.968ZM57.979,60.9a3.064,3.064,0,1,0-3.064,3.064A3.068,3.068,0,0,0,57.979,60.9Zm-3.064-2.282a2.282,2.282,0,0,0,0,4.564.5.5,0,0,0,0-1A1.282,1.282,0,1,1,56.2,60.9a.5.5,0,0,0,1,0A2.285,2.285,0,0,0,54.915,58.621ZM41.606,68q-.986-.148-1.964-.316a.5.5,0,0,0-.17.986q.989.17,1.986.318a.48.48,0,0,0,.074.006A.5.5,0,0,0,41.606,68Zm16.565.939q-.992.037-1.988.052a.5.5,0,0,0,.007,1H56.2q1.008-.015,2.011-.052a.5.5,0,0,0,.481-.519A.514.514,0,0,0,58.171,68.938Zm3.969-.235q-.99.081-1.983.141a.5.5,0,0,0,.029,1h.03q1.006-.06,2.006-.143a.5.5,0,1,0-.082-1Zm3.476-16.2a.5.5,0,0,0-.5-.5h-2a.5.5,0,0,0,0,1h2A.5.5,0,0,0,65.617,52.5Zm4.415,15.209q-.977.167-1.964.313a.5.5,0,0,0,.073.994.637.637,0,0,0,.074,0q1-.148,1.985-.315a.5.5,0,1,0-.168-.986Zm-3.934.583q-.984.125-1.976.228a.5.5,0,0,0,.051,1l.052,0q1-.1,2-.229a.5.5,0,0,0,.434-.559A.494.494,0,0,0,66.1,68.292ZM54.2,69q-1-.009-1.988-.041a.551.551,0,0,0-.516.483.5.5,0,0,0,.483.517q1,.032,2.012.041h0a.5.5,0,0,0,0-1ZM51.248,53.8a.5.5,0,0,0,.232-.058,6.457,6.457,0,0,1,1.743-.617.5.5,0,1,0-.194-.98,7.411,7.411,0,0,0-2.014.712.5.5,0,0,0,.233.942ZM50.22,68.87q-.995-.054-1.984-.131a.5.5,0,0,0-.076,1q1,.076,2.007.131h.027a.5.5,0,0,0,.026-1ZM59.117,53h2a.5.5,0,0,0,0-1h-2a.5.5,0,0,0,0,1ZM48.165,56.478a.491.491,0,0,0,.247.065.5.5,0,0,0,.435-.253,6.534,6.534,0,0,1,1.135-1.463.5.5,0,0,0-.7-.719A7.526,7.526,0,0,0,47.978,55.8.5.5,0,0,0,48.165,56.478ZM55.117,53h2a.5.5,0,0,0,0-1h-2a.5.5,0,0,0,0,1ZM47.5,64.383a.5.5,0,0,0,.5-.5v-2a.5.5,0,0,0-1,0v2A.5.5,0,0,0,47.5,64.383Zm.5,3.5v-2a.5.5,0,0,0-1,0v2a.5.5,0,0,0,1,0Zm-.5-7.5a.5.5,0,0,0,.5-.5V59.5a6.531,6.531,0,0,1,.171-1.487.5.5,0,0,0-.373-.6.5.5,0,0,0-.6.372A7.532,7.532,0,0,0,47,59.5v.383A.5.5,0,0,0,47.5,60.383Zm-17.9,4.5a.507.507,0,0,0,.237.06.5.5,0,0,0,.44-.263l.95-1.76a.5.5,0,1,0-.88-.475l-.95,1.76A.5.5,0,0,0,29.6,64.887Zm1.9-3.521a.5.5,0,0,0,.677-.2l.95-1.76a.5.5,0,1,0-.88-.475l-.95,1.76A.5.5,0,0,0,31.5,61.366Zm-3.8,7.041a.5.5,0,0,0,.677-.2l.95-1.761a.5.5,0,1,0-.88-.475l-.95,1.761A.5.5,0,0,0,27.7,68.407Zm5.7-10.561a.5.5,0,0,0,.677-.2l.95-1.76a.5.5,0,0,0-.88-.475l-.95,1.76A.5.5,0,0,0,33.4,57.847Zm-11.874,22a.5.5,0,0,0-.677.2l-.484.9a.534.534,0,0,0-.253.057.5.5,0,0,0-.213.674l.158.3a.5.5,0,0,0,.44.27h0a.5.5,0,0,0,.44-.263l.79-1.463A.5.5,0,0,0,21.527,79.847ZM35.3,54.326a.493.493,0,0,0,.237.06.5.5,0,0,0,.44-.263l.95-1.76a.5.5,0,0,0-.88-.475l-.95,1.76A.5.5,0,0,0,35.3,54.326ZM19.858,79.433l-.924-1.778a.5.5,0,0,0-.888.461l.925,1.78a.5.5,0,0,0,.887-.463ZM25.8,71.927a.507.507,0,0,0,.237.06.5.5,0,0,0,.44-.263l.95-1.76a.5.5,0,1,0-.88-.475l-.95,1.76A.5.5,0,0,0,25.8,71.927Zm-2.374,4.4a.5.5,0,0,0-.678.2l-.95,1.76a.5.5,0,0,0,.2.678.507.507,0,0,0,.237.06.5.5,0,0,0,.44-.263l.95-1.76A.5.5,0,0,0,23.427,76.326ZM5.295,53.091q.124.273.255.544l.626,1.275a.5.5,0,0,0,.9-.443L6.449,53.2q-.125-.257-.242-.518a.5.5,0,0,0-.912.411ZM7.07,56.707l.9,1.792a.5.5,0,0,0,.893-.451l-.9-1.788a.5.5,0,1,0-.895.447Zm1.807,3.581.908,1.788a.5.5,0,0,0,.446.273.494.494,0,0,0,.226-.055.5.5,0,0,0,.219-.672l-.908-1.786a.5.5,0,1,0-.892.451ZM5.495,50.866c-.207-.615-.384-1.246-.528-1.876a.5.5,0,0,0-.975.222c.151.663.337,1.327.554,1.973a.5.5,0,1,0,.948-.318ZM4.2,47.628a.5.5,0,0,0,.434-.559c-.08-.638-.131-1.292-.151-1.946a.532.532,0,0,0-.515-.485.5.5,0,0,0-.485.515c.021.686.075,1.372.159,2.041a.5.5,0,0,0,.5.438A.559.559,0,0,0,4.2,47.628Zm6.5,16.233.914,1.783.445-.228.42-.276-.888-1.734a.5.5,0,1,0-.891.455Zm3.664,7.133.919,1.781a.5.5,0,0,0,.445.271.5.5,0,0,0,.229-.056.5.5,0,0,0,.215-.674l-.919-1.781a.5.5,0,0,0-.889.459Zm1.84,3.561.922,1.781a.5.5,0,0,0,.444.27.488.488,0,0,0,.23-.057.5.5,0,0,0,.213-.674L17.09,74.1a.5.5,0,1,0-.888.459Zm7.7.893a.5.5,0,0,0,.677-.2l.95-1.76a.5.5,0,1,0-.88-.475l-.95,1.76A.5.5,0,0,0,23.9,75.447ZM12.526,67.429l.917,1.781a.5.5,0,0,0,.445.271.493.493,0,0,0,.229-.056.5.5,0,0,0,.215-.673l-.916-1.781a.5.5,0,0,0-.89.457Zm5.141,4.738a3,3,0,0,1,2.5-2.949v-.926a.5.5,0,0,1,1,0v.926a2.99,2.99,0,0,1,0,5.9v.926a.5.5,0,0,1-1,0v-.926A3,3,0,0,1,17.667,72.167Zm1,0a2,2,0,1,0,2-2A2,2,0,0,0,18.667,72.167Zm2,1.5a.5.5,0,1,0,0-1,.5.5,0,1,1,.5-.5.5.5,0,0,0,1,0,1.5,1.5,0,1,0-1.5,1.5ZM110,51.673a23.318,23.318,0,0,1-2.551,10.553c-4.612,9.061-17.37,34.737-17.5,35a.546.546,0,0,1-.448.277.5.5,0,0,1-.444-.271L74.885,69.771A92.064,92.064,0,0,1,54.915,72,92.084,92.084,0,0,1,35.1,69.808L20.944,97.229a.5.5,0,0,1-.444.271.514.514,0,0,1-.448-.277c-.128-.259-12.886-25.936-17.5-35A23.318,23.318,0,0,1,0,51.673,20.113,20.113,0,0,1,1.87,42.951L3.237,39.99c.013-.045.021-.089.034-.134a.492.492,0,0,1,.117-.194l9.487-20.554a.466.466,0,0,1,.028-.04.48.48,0,0,1,.043-.063.488.488,0,0,1,.085-.081c.012-.009.019-.022.032-.03C21.549,13.56,36.8,10.5,54.915,10.5c18.032,0,33.226,3.034,41.734,8.325a.492.492,0,0,1,.478.282l9.487,20.554a.493.493,0,0,1,.117.194c.013.045.021.089.034.134l1.367,2.962A20.113,20.113,0,0,1,110,51.673Zm-38.652-3A3.307,3.307,0,0,1,73,50.123a.5.5,0,0,1-.874.486A2.313,2.313,0,0,0,70.9,49.563.493.493,0,0,1,70.6,49q-.77.334-1.561.659a3.3,3.3,0,0,1,1.633,1.482L89.494,86.1c2.193-4.233,12.04-23.263,15.392-30.148a20.34,20.34,0,0,0,1.6-12.769.493.493,0,0,1-.459.459h-.03a.5.5,0,0,1-.5-.47c-.038-.642-.1-1.3-.2-1.947a.5.5,0,0,1,.423-.566.461.461,0,0,1,.189.007c-.031-.109-.053-.217-.085-.327l-.306-.662a.489.489,0,0,1-.578-.381c-.141-.626-.309-1.265-.5-1.9a.463.463,0,0,1-.007-.07L97.13,21.5C96.338,32,87.151,41.655,71.347,48.671ZM85.3,39.241A84.4,84.4,0,0,0,24.643,39.2,70.46,70.46,0,0,0,44.593,50H65.409A70.575,70.575,0,0,0,85.3,39.241ZM5.116,55.948c3.353,6.886,13.2,25.915,15.392,30.148L39.333,51.136a3.3,3.3,0,0,1,1.634-1.481q-.791-.325-1.561-.659a.494.494,0,0,1-.309.568,2.307,2.307,0,0,0-1.223,1.045A.5.5,0,1,1,37,50.123a3.305,3.305,0,0,1,1.655-1.452,64.014,64.014,0,0,1-15.141-9.118.489.489,0,0,1-.4-.288A.471.471,0,0,1,23.1,39.2C17.05,34,13.536,28.141,12.921,21.974c0-.006-.011-.008-.015-.014a.49.49,0,0,1-.033-.449V21.5l-7.3,15.824a.463.463,0,0,1-.007.07c-.19.634-.359,1.272-.5,1.9a.489.489,0,0,1-.578.381l-.306.662c-.032.11-.054.219-.085.329a.471.471,0,0,1,.189-.009.5.5,0,0,1,.423.566c-.094.65-.161,1.305-.2,1.947a.5.5,0,0,1-.5.47h-.03a.493.493,0,0,1-.459-.459A20.34,20.34,0,0,0,5.116,55.948ZM54.915,11.5c-17.77,0-32.713,2.954-41.088,8.106-.009.4,0,.806.014,1.208.252-.148.494-.3.756-.444a.5.5,0,1,1,.481.877c-.4.219-.779.449-1.157.679.53,5.174,3.2,10.138,7.8,14.659a.494.494,0,0,1,.57.282.486.486,0,0,1,.022.286c.467.441.949.878,1.453,1.31a85.416,85.416,0,0,1,62.419.045c.436-.372.861-.748,1.269-1.127-.43-.178-.859-.357-1.3-.53a.5.5,0,1,1,.363-.932c.589.23,1.163.465,1.729.7,4.589-4.5,7.273-9.449,7.827-14.6-.489-.3-1-.6-1.535-.893a.5.5,0,1,1,.475-.88c.394.212.775.432,1.147.653q.028-.6.019-1.195C87.833,14.491,72.8,11.5,54.915,11.5ZM43.8,50.771c-.192-.072-.378-.147-.568-.219a.492.492,0,0,1-.207-.025,2.3,2.3,0,0,0-2.807,1.082L20.94,87.4a.5.5,0,0,1-.44.263h0a.5.5,0,0,1-.44-.27c-.12-.232-12.07-23.271-15.839-31.012a21.31,21.31,0,0,1-1.9-11.918A19.085,19.085,0,0,0,1,51.662,22.334,22.334,0,0,0,3.446,61.773c4.126,8.106,14.768,29.5,17.062,34.12ZM35.574,68.885A92.724,92.724,0,0,0,45,70.442v-1c-.518-.057-1.035-.115-1.551-.181a.5.5,0,0,1,.128-.992c.473.061.948.114,1.423.167V59.5A9.456,9.456,0,0,1,47.591,53H46.5a.5.5,0,0,1,0-1h2a.489.489,0,0,1,.15.03A9.509,9.509,0,0,1,50.283,51H44.8l-.516,1H44.5a.5.5,0,0,1,0,1h-.728L36.5,67.083c.393.082.786.164,1.182.241a.5.5,0,0,1-.095.991.537.537,0,0,1-.1-.009c-.492-.1-.98-.2-1.468-.3ZM74.41,68.85l-.451-.874c-.591.125-1.185.247-1.782.362a.522.522,0,0,1-.095.009.5.5,0,0,1-.094-.991c.5-.1,1-.2,1.493-.3L65.2,51H54.5A8.51,8.51,0,0,0,46,59.5v11c0,.014-.007.026-.008.04a89.027,89.027,0,0,0,8.923.46A91.025,91.025,0,0,0,74.41,68.85ZM109,51.662a19.085,19.085,0,0,0-1.311-7.194,21.31,21.31,0,0,1-1.9,11.918c-3.769,7.74-15.719,30.779-15.839,31.012a.514.514,0,0,1-.444.27.5.5,0,0,1-.44-.263L69.788,51.609a2.3,2.3,0,0,0-2.808-1.082.5.5,0,0,1-.208.025c-.19.073-.376.147-.567.219l9.349,18.114a.5.5,0,0,1,.1.19L89.494,95.894c2.294-4.616,12.936-26.014,17.062-34.12A22.334,22.334,0,0,0,109,51.662ZM84.4,71.249l-.95-1.76a.5.5,0,1,0-.88.475l.95,1.76a.5.5,0,0,0,.44.263.507.507,0,0,0,.237-.06A.5.5,0,0,0,84.4,71.249Zm1.9,3.521-.95-1.76a.5.5,0,1,0-.88.475l.95,1.76a.5.5,0,1,0,.88-.475Zm19.5-27.141a.559.559,0,0,0,.063,0,.5.5,0,0,0,.5-.437c.084-.669.137-1.355.159-2.041a.5.5,0,0,0-.485-.515.55.55,0,0,0-.515.485c-.02.654-.071,1.308-.151,1.946A.5.5,0,0,0,105.807,47.628ZM91.742,77.441a.5.5,0,0,0-.674.213l-.924,1.778a.5.5,0,0,0,.887.463l.925-1.78A.5.5,0,0,0,91.742,77.441Zm-3.54.848-.95-1.76a.5.5,0,1,0-.88.475l.95,1.76a.5.5,0,0,0,.44.263.507.507,0,0,0,.237-.06A.5.5,0,0,0,88.2,78.289ZM74.9,53.649l-.95-1.76a.5.5,0,0,0-.88.475l.95,1.76a.5.5,0,0,0,.44.263.493.493,0,0,0,.237-.06A.5.5,0,0,0,74.9,53.649Zm7.6,14.081-.95-1.761a.5.5,0,1,0-.88.475l.95,1.761a.5.5,0,1,0,.88-.475ZM76.8,57.169l-.95-1.76a.5.5,0,1,0-.88.475l.95,1.76a.5.5,0,1,0,.88-.475Zm1.9,3.52-.95-1.76a.5.5,0,1,0-.88.475l.95,1.76a.5.5,0,1,0,.88-.475Zm1.9,3.521-.95-1.76a.5.5,0,1,0-.88.475l.95,1.76a.5.5,0,0,0,.44.263.507.507,0,0,0,.237-.06A.5.5,0,0,0,80.6,64.209ZM89.89,81a.527.527,0,0,0-.253-.057l-.484-.9a.5.5,0,1,0-.88.475l.79,1.463a.5.5,0,0,0,.44.263h0a.5.5,0,0,0,.44-.27l.158-.3A.5.5,0,0,0,89.89,81Zm14.932-29.5a.5.5,0,0,0,.633-.315c.217-.646.4-1.31.554-1.973a.5.5,0,1,0-.975-.222c-.144.63-.321,1.261-.528,1.876A.5.5,0,0,0,104.822,51.5ZM95.886,69.426a.493.493,0,0,0,.229.056.5.5,0,0,0,.445-.271l.917-1.781a.5.5,0,0,0-.89-.457l-.916,1.781A.5.5,0,0,0,95.886,69.426ZM94.047,72.99a.5.5,0,0,0,.229.056.5.5,0,0,0,.445-.271l.919-1.781a.5.5,0,0,0-.889-.459l-.919,1.781A.5.5,0,0,0,94.047,72.99ZM92.2,76.549a.488.488,0,0,0,.23.057.5.5,0,0,0,.444-.27l.922-1.781a.5.5,0,1,0-.888-.459l-.921,1.779A.5.5,0,0,0,92.2,76.549Zm5.527-10.711a.462.462,0,0,0,.211.05.545.545,0,0,0,.475-.291l.888-1.735a.5.5,0,1,0-.891-.455L97.5,65.189A.477.477,0,0,0,97.731,65.838Zm5.425-10.7a.5.5,0,0,0,.67-.227l.625-1.274q.133-.272.256-.545a.5.5,0,0,0-.912-.411q-.116.26-.243.518l-.623,1.269A.5.5,0,0,0,103.156,55.137Zm-3.612,7.158a.494.494,0,0,0,.226.055.5.5,0,0,0,.446-.273l.908-1.788a.5.5,0,1,0-.892-.451l-.908,1.786A.5.5,0,0,0,99.544,62.295Zm1.814-3.575a.5.5,0,0,0,.672-.221l.9-1.792a.5.5,0,1,0-.895-.447l-.9,1.788A.5.5,0,0,0,101.358,58.72ZM89.335,67.792a.5.5,0,0,1,.5.5v.926a2.99,2.99,0,0,1,0,5.9v.926a.5.5,0,0,1-1,0v-.926a2.99,2.99,0,0,1,0-5.9v-.926A.5.5,0,0,1,89.335,67.792Zm0,2.375a2,2,0,1,0,2,2A2,2,0,0,0,89.335,70.167Zm-1.5,2a.5.5,0,0,0,1,0,.5.5,0,1,1,.5.5.5.5,0,0,0,0,1,1.5,1.5,0,1,0-1.5-1.5Z"/></g></g></g></svg>