<svg xmlns="http://www.w3.org/2000/svg" width="110" height="110" viewBox="0 0 110 110"><defs><style>.cls-1{fill:#fff;}</style></defs><title>Манжет - Прямой</title><g id="Манжет"><g id="Прямой"><g id="Цвет-11" data-name="Цвет"><path class="cls-1" d="M.5,94.75V15c0-3.769,10.839-7.031,25.352-8.923,15.242-1.987,37.232-3.16,51.482-2.41a3.585,3.585,0,0,1,2.792,1.958c14.792,1.958,29.4,4.452,29.375,9.5-.083,19.875,0,59.25,0,79.75,0,7.517-31.875,10.87-56.625,10.625C27,105.245.5,101.5.5,94.75Z"/></g><g id="Контур-11" data-name="Контур"><path d="M80.477,5.214a4.444,4.444,0,0,0-3.657-2.1A341.017,341.017,0,0,0,27.5,5.337C21.051,6.066,0,8.92,0,15V95c0,6.886,27.964,11,55,11s55-4.114,55-11V15C110,8.733,87.627,5.943,80.477,5.214ZM27.616,6.331A348.353,348.353,0,0,1,67.323,3.978q4.724,0,9.468.138a3.472,3.472,0,0,1,3.376,3.5v72a3.492,3.492,0,0,1-3.578,3.5A341.536,341.536,0,0,0,27.5,85.337C21.9,85.972,5.255,88.21,1,92.778V19.762a12.759,12.759,0,0,1,2.848-2.287.5.5,0,1,0-.52-.854A14.964,14.964,0,0,0,1,18.351V15C1,12.183,9.23,8.41,27.616,6.331ZM55,105C22.7,105,1,99.829,1,95a1.683,1.683,0,0,1,.051-.369c.013-.053.024-.106.043-.159.008-.025.022-.05.031-.075a3.443,3.443,0,0,1,.967-1.256A16.534,16.534,0,0,0,5.378,94.89a.488.488,0,0,0,.191.038.5.5,0,0,0,.191-.962,16.6,16.6,0,0,1-2.836-1.461A17.693,17.693,0,0,1,6.04,90.914C14.24,87.643,31.908,85,55,85c26.721,0,46.172,3.539,52.1,7.5a14.659,14.659,0,0,1-1.986,1.089.5.5,0,0,0,.42.908,14.673,14.673,0,0,0,2.4-1.366A2.631,2.631,0,0,1,109,95C109,99.829,87.3,105,55,105Zm52.446-87.251A3.082,3.082,0,0,1,109,20V87.795a7.052,7.052,0,0,0-1.053-.92.5.5,0,1,0-.585.811C108.449,88.469,109,89.247,109,90v2.827c-4.775-5.136-26.222-8.306-48.4-8.766,5.326-.111,10.621-.1,15.964.048a4.46,4.46,0,0,0,4.287-2.849c1.264.132,2.5.27,3.705.421a.452.452,0,0,0,.063,0,.5.5,0,0,0,.062-1c-1.161-.145-2.357-.28-3.577-.408a4.537,4.537,0,0,0,.066-.668V11.295c1.19.126,2.363.257,3.5.4a.464.464,0,0,0,.063,0,.5.5,0,0,0,.062-1c-1.175-.147-2.385-.286-3.621-.415V7.613a4.528,4.528,0,0,0-.222-1.345C100.312,8.3,109,12.1,109,15v2.794a6.941,6.941,0,0,0-.959-.85.5.5,0,0,0-.595.8ZM47.486,100.4a.5.5,0,0,1-.5.485h-.015q-2.028-.059-4.006-.144a.5.5,0,0,1-.478-.521.507.507,0,0,1,.521-.479q1.969.085,3.992.144A.5.5,0,0,1,47.486,100.4ZM33.5,99.652a.5.5,0,0,1-.5.458l-.043,0q-2.041-.173-3.993-.378a.5.5,0,0,1-.445-.549.488.488,0,0,1,.549-.445q1.94.2,3.973.376A.5.5,0,0,1,33.5,99.652Zm6.986.472a.5.5,0,0,1-.5.473h-.028q-2.033-.113-4-.253a.5.5,0,0,1,.071-1q1.958.141,3.985.253A.5.5,0,0,1,40.489,100.124ZM19.6,97.984a.5.5,0,0,1-.493.417.486.486,0,0,1-.083-.007c-1.367-.23-2.7-.479-3.951-.737a.5.5,0,1,1,.2-.979c1.243.256,2.561.5,3.915.729A.5.5,0,0,1,19.6,97.984Zm-6.869-1.354a.5.5,0,0,1-.485.382A.553.553,0,0,1,12.128,97c-1.405-.342-2.714-.7-3.889-1.077a.5.5,0,1,1,.3-.953c1.153.366,2.439.722,3.822,1.058A.5.5,0,0,1,12.732,96.631Zm13.8,2.325a.5.5,0,0,1-.5.44.414.414,0,0,1-.06,0q-2.053-.246-3.979-.529a.5.5,0,0,1,.146-.99q1.912.281,3.953.527A.5.5,0,0,1,26.536,98.956Zm69.731-2.1a.5.5,0,0,1-.383.595c-1.242.271-2.569.53-3.946.773a.444.444,0,0,1-.087.008.5.5,0,0,1-.086-.992c1.364-.241,2.678-.5,3.908-.766A.5.5,0,0,1,96.268,96.86Zm-41.78,3.64a.5.5,0,0,1-.5.5h0q-2.024-.007-4.008-.042a.5.5,0,0,1-.491-.509A.481.481,0,0,1,50,99.956q1.978.035,3.995.042A.5.5,0,0,1,54.488,100.5Zm34.9-2.352a.5.5,0,0,1-.418.57q-1.919.294-3.975.555a.466.466,0,0,1-.063,0,.5.5,0,0,1-.062-1q2.041-.258,3.95-.551A.5.5,0,0,1,89.385,98.148Zm13.624-3.17a.5.5,0,0,1-.311.635c-1.154.4-2.458.782-3.874,1.147a.5.5,0,1,1-.25-.969c1.392-.358,2.669-.737,3.8-1.124A.5.5,0,0,1,103.009,94.979Zm-20.564,4.1a.5.5,0,0,1-.443.552q-1.947.212-3.991.4l-.045,0a.5.5,0,0,1-.044-1q2.033-.183,3.972-.395A.5.5,0,0,1,82.445,99.075Zm-13.958,1.1a.5.5,0,0,1-.476.522q-1.976.1-4.006.159h-.017a.5.5,0,0,1-.016-1q2.021-.064,3.99-.157A.5.5,0,0,1,68.486,100.177Zm-7,.249a.5.5,0,0,1-.489.511q-1.984.042-4.008.057h0a.5.5,0,0,1,0-1q2.016-.015,3.994-.057A.505.505,0,0,1,61.489,100.426Zm13.985-.691a.5.5,0,0,1-.461.537q-1.963.148-4,.269h-.03a.5.5,0,0,1-.029-1q2.027-.12,3.983-.269A.5.5,0,0,1,75.474,99.734ZM55.5,32.938a9.573,9.573,0,0,0-9.3,7.393q-1.436.092-2.882.193a2.5,2.5,0,0,0,.177,4.994c.058,0,.116,0,.181-.006q1.354-.1,2.695-.182a9.558,9.558,0,0,0,18.442-.672q1.31-.01,2.622-.012h.236a2.5,2.5,0,0,0,0-5q-1.518,0-3.036.015A9.58,9.58,0,0,0,55.5,32.938ZM43.605,44.515l-.115,0a1.5,1.5,0,0,1-.105-3c.881-.063,1.756-.121,2.629-.177a9.585,9.585,0,0,0-.069,1.006q-1.244.081-2.489.169a.5.5,0,0,0,.035,1h.036q1.226-.088,2.453-.167a9.529,9.529,0,0,0,.139.993Q44.865,44.425,43.605,44.515ZM55.5,50.938A8.438,8.438,0,1,1,63.938,42.5,8.447,8.447,0,0,1,55.5,50.938ZM67.667,40.646a1.5,1.5,0,1,1,0,3H67.43c-.816,0-1.63.005-2.444.011a9.59,9.59,0,0,0,.069-1c.87-.006,1.743-.009,2.611-.011h0a.5.5,0,0,0,0-1q-1.327,0-2.647.011a9.529,9.529,0,0,0-.139-1C65.81,40.653,66.738,40.646,67.667,40.646ZM62,42.5a.5.5,0,0,1-1,0A5.5,5.5,0,1,0,55.5,48a.5.5,0,0,1,0,1A6.5,6.5,0,1,1,62,42.5Zm-7-2a1.5,1.5,0,1,0-2,1.408v1.184a1.5,1.5,0,1,0,1,0V41.908A1.5,1.5,0,0,0,55,40.5ZM53.5,40a.5.5,0,1,1-.5.5A.5.5,0,0,1,53.5,40Zm0,5a.5.5,0,1,1,.5-.5A.5.5,0,0,1,53.5,45ZM59,40.5a1.5,1.5,0,1,0-2,1.408v1.184a1.5,1.5,0,1,0,1,0V41.908A1.5,1.5,0,0,0,59,40.5ZM57.5,40a.5.5,0,1,1-.5.5A.5.5,0,0,1,57.5,40Zm0,5a.5.5,0,1,1,.5-.5A.5.5,0,0,1,57.5,45ZM76.167,71.479v4a.5.5,0,0,1-1,0v-4a.5.5,0,0,1,1,0Zm0-14v4a.5.5,0,0,1-1,0v-4a.5.5,0,1,1,1,0Zm0,7v4a.5.5,0,0,1-1,0v-4a.5.5,0,1,1,1,0Zm0-28v4a.5.5,0,0,1-1,0v-4a.5.5,0,1,1,1,0Zm0,7v4a.5.5,0,0,1-1,0v-4a.5.5,0,1,1,1,0Zm0,7v4a.5.5,0,0,1-1,0v-4a.5.5,0,1,1,1,0ZM41.309,79.5a.5.5,0,0,1-.459.537q-1.979.155-3.979.332l-.044,0a.5.5,0,0,1-.043-1q2-.177,3.988-.332A.488.488,0,0,1,41.309,79.5Zm-13.93,1.32a.5.5,0,0,1-.44.554c-1.274.145-2.6.314-3.955.511a.612.612,0,0,1-.072,0,.5.5,0,0,1-.071-1c1.363-.2,2.7-.368,3.985-.515A.5.5,0,0,1,27.379,80.821Zm-6.939.948a.5.5,0,0,1-.411.576c-1.35.227-2.669.47-3.92.724a.5.5,0,0,1-.589-.391.5.5,0,0,1,.391-.59c1.262-.256,2.592-.5,3.954-.729A.5.5,0,0,1,20.44,81.77ZM6.827,85.013a.5.5,0,0,1-.294.643,22.331,22.331,0,0,0-3.551,1.633.5.5,0,0,1-.51-.861,23.523,23.523,0,0,1,3.712-1.709A.5.5,0,0,1,6.827,85.013ZM34.338,80.1a.5.5,0,0,1-.45.546q-1.974.189-3.971.4l-.054,0a.5.5,0,0,1-.053-1q2-.214,3.981-.4A.508.508,0,0,1,34.338,80.1ZM13.564,83.105a.5.5,0,0,1-.372.6c-1.377.325-2.67.667-3.841,1.016a.516.516,0,0,1-.143.021.5.5,0,0,1-.143-.979c1.19-.354,2.5-.7,3.9-1.029A.5.5,0,0,1,13.564,83.105Zm34.725-4.072a.5.5,0,0,1-.47.528q-1.983.116-3.983.256H43.8a.5.5,0,0,1-.035-1q2.007-.141,4-.256A.484.484,0,0,1,48.289,79.033Zm13.985-.514a.5.5,0,0,1-.491.509q-1.991.035-3.992.094h-.015a.5.5,0,0,1-.014-1q2.008-.059,4-.094A.534.534,0,0,1,62.273,78.52Zm7-.035a.5.5,0,0,1-.5.5h0l-1.327,0q-1.332,0-2.667.011h0a.5.5,0,0,1,0-1q1.339-.01,2.674-.011l1.332,0A.5.5,0,0,1,69.272,78.484Zm6.895-.006v.1a.5.5,0,0,1-.5.5h-.013c-1.29-.032-2.588-.058-3.889-.074a.5.5,0,0,1-.494-.507.473.473,0,0,1,.506-.493q1.8.023,3.593.066A.524.524,0,0,1,76.167,78.479ZM55.278,78.7a.5.5,0,0,1-.48.52q-1.987.076-3.988.176h-.026a.5.5,0,0,1-.025-1q2.009-.1,4-.178A.5.5,0,0,1,55.278,78.7ZM76.167,29.479v4a.5.5,0,0,1-1,0v-4a.5.5,0,0,1,1,0Zm-8.106-21a.5.5,0,0,1,.5-.5h0q2,.007,4.006.04a.5.5,0,0,1-.008,1h-.008q-2-.032-3.994-.04A.5.5,0,0,1,68.06,8.479Zm-14,.281a.5.5,0,0,1,.479-.521q2.009-.081,4-.136a.525.525,0,0,1,.514.486.5.5,0,0,1-.486.514q-1.99.056-3.993.136h-.021A.5.5,0,0,1,54.062,8.761Zm7-.218a.5.5,0,0,1,.491-.509Q63.559,8,65.557,7.985h0a.5.5,0,0,1,0,1Q63.57,9,61.569,9.034H61.56A.5.5,0,0,1,61.06,8.543Zm-13.991.581a.5.5,0,0,1,.468-.529q2.01-.123,4-.221a.488.488,0,0,1,.524.475.5.5,0,0,1-.475.523q-1.986.1-3.989.221h-.031A.5.5,0,0,1,47.069,9.124ZM33.11,10.269a.5.5,0,0,1,.448-.547q2.007-.2,3.989-.376a.5.5,0,0,1,.089,1q-1.978.176-3.979.374l-.05,0A.5.5,0,0,1,33.11,10.269Zm6.974-.639a.5.5,0,0,1,.458-.538q2.009-.163,4-.3a.5.5,0,0,1,.069,1q-1.982.138-3.985.3l-.041,0A.5.5,0,0,1,40.084,9.63ZM19.228,12.069a.5.5,0,0,1,.407-.577q1.9-.33,3.967-.621a.5.5,0,0,1,.14.99q-2.049.289-3.936.615a.43.43,0,0,1-.086.008A.5.5,0,0,1,19.228,12.069Zm-6.836,1.5a.5.5,0,0,1,.358-.609c1.224-.319,2.544-.624,3.923-.906a.5.5,0,0,1,.2.98c-1.361.278-2.664.579-3.871.893a.469.469,0,0,1-.126.017A.5.5,0,0,1,12.392,13.564ZM75.167,8.893a.5.5,0,0,1-.107-.323.507.507,0,0,1,.514-.486l.107,0a.5.5,0,0,1,.486.5v3.893a.5.5,0,1,1-1,0Zm1,6.586v4a.5.5,0,1,1-1,0v-4a.5.5,0,0,1,1,0Zm0,7v4a.5.5,0,1,1-1,0v-4a.5.5,0,0,1,1,0ZM26.151,11.035a.5.5,0,0,1,.437-.556l1.478-.174q1.258-.142,2.5-.275a.5.5,0,0,1,.106.994q-1.244.133-2.5.275l-1.47.172a.425.425,0,0,1-.061,0A.5.5,0,0,1,26.151,11.035ZM5.794,15.876a.5.5,0,0,1,.254-.659,37.629,37.629,0,0,1,3.794-1.423.5.5,0,1,1,.3.953,36.462,36.462,0,0,0-3.692,1.384.5.5,0,0,1-.66-.255Zm86.348-3.561a.5.5,0,0,1-.492.414.434.434,0,0,1-.086-.008q-1.89-.33-3.937-.626a.5.5,0,0,1,.144-.99q2.06.3,3.965.632A.5.5,0,0,1,92.142,12.315ZM98.983,13.8a.5.5,0,0,1-.608.36c-1.192-.3-2.5-.6-3.876-.882a.5.5,0,0,1,.2-.98c1.4.284,2.717.585,3.925.894A.5.5,0,0,1,98.983,13.8Zm6.608,2.284a.5.5,0,0,1-.662.251,32.834,32.834,0,0,0-3.691-1.369.5.5,0,0,1,.3-.955,33.96,33.96,0,0,1,3.806,1.412A.5.5,0,0,1,105.592,16.082ZM92.033,82.3a.5.5,0,0,1-.492.414.43.43,0,0,1-.086-.008q-1.89-.328-3.937-.623a.5.5,0,0,1-.424-.566.507.507,0,0,1,.566-.424q2.06.3,3.965.629A.5.5,0,0,1,92.033,82.3Zm6.843,1.474a.5.5,0,0,1-.484.377.486.486,0,0,1-.123-.016c-1.206-.3-2.51-.6-3.878-.877a.5.5,0,1,1,.2-.98c1.384.281,2.7.579,3.925.889A.5.5,0,0,1,98.876,83.77Zm6.615,2.265a.5.5,0,0,1-.66.254,33.359,33.359,0,0,0-3.7-1.358.5.5,0,1,1,.295-.955,34.437,34.437,0,0,1,3.809,1.4A.5.5,0,0,1,105.491,86.034Z"/></g></g></g></svg>