<?xml version="1.0" encoding="utf-8"?>
<!-- Generator: Adobe Illustrator 23.0.3, SVG Export Plug-In . SVG Version: 6.00 Build 0)  -->
<svg version="1.1"  xmlns="http://www.w3.org/2000/svg" xmlns:xlink="http://www.w3.org/1999/xlink" x="0px" y="0px"
	 viewBox="0 0 40 40" enable-background="new 0 0 40 40" xml:space="preserve" width="38px" height="38px">
<g>
	<path d="M18.1665649,15.7608643c0,0.3487549,0,1.9053345,0,1.9053345h-1.395874v2.3297729h1.395874v6.9233398
		h2.8674316v-6.9231567h1.9241943c0,0,0.1801758-1.1171265,0.2675171-2.338562c-0.2504272,0-2.1808472,0-2.1808472,0
		s0-1.3554077,0-1.5929565c0-0.2380981,0.3126221-0.5583496,0.621582-0.5583496c0.3084717,0,0.9594116,0,1.5623169,0
		c0-0.3171997,0-1.413208,0-2.4254761c-0.8048706,0-1.7205811,0-2.1242065,0
		C18.0957031,13.0806885,18.1665649,15.4127808,18.1665649,15.7608643z"/>
	<path  d="M19.9992676,0.8828125C9.458252,0.8828125,0.8825684,9.4589844,0.8825684,20
		S9.458252,39.1171875,19.9992676,39.1171875c10.5419922,0,19.1181641-8.5761719,19.1181641-19.1171875
		S30.5412598,0.8828125,19.9992676,0.8828125z M19.9992676,38.1171875c-9.9897461,0-18.1166992-8.1274414-18.1166992-18.1171875
		S10.0095215,1.8828125,19.9992676,1.8828125c9.9902344,0,18.1181641,8.1274414,18.1181641,18.1171875
		S29.989502,38.1171875,19.9992676,38.1171875z"/>
</g>
</svg>
