<?xml version="1.0" encoding="utf-8"?>
<!-- Generator: Adobe Illustrator 23.0.3, SVG Export Plug-In . SVG Version: 6.00 Build 0)  -->
<svg version="1.1" xmlns="http://www.w3.org/2000/svg" xmlns:xlink="http://www.w3.org/1999/xlink" x="0px" y="0px"
	 viewBox="0 0 388.680542 279.8406067" enable-background="new 0 0 388.680542 279.8406067" xml:space="preserve" width="374px" height="264px">
<g>
	<g>
		<path d="M18.7569542,264.3248901c-3.4830322,1.5354614-6.9123535,3.1365356-10.1925049,4.7597046
			c-0.6733398,0.3340454-0.9493408,1.1500854-0.6158447,1.8234863c0.2370605,0.4802246,0.7194824,0.7575073,1.2205811,0.7575073
			c0.2028809,0,0.4088135-0.045166,0.6029053-0.1408691c3.2437744-1.6054688,6.6359863-3.1896973,10.0825195-4.708313
			c0.6876221-0.3039551,0.9995117-1.1066895,0.6965332-1.7942505
			C20.2480431,264.3345947,19.4461632,264.0245361,18.7569542,264.3248901z"/>
		<path d="M64.1772385,248.4446259c-13.6235313,3.7248535-26.5342979,8.0628204-38.37463,12.8934479
			c-0.6955566,0.2835083-1.029541,1.0783081-0.7456055,1.7738037c0.215332,0.5280762,0.723877,0.8470459,1.2602539,0.8470459
			c0.1715088,0,0.3457031-0.0318604,0.513916-0.1009521c11.7390137-4.789917,24.5456543-9.091568,38.0637169-12.7871857
			c0.7253418-0.1984863,1.1523438-0.9471436,0.9538574-1.671936
			C65.6507492,248.6732025,64.9019699,248.2479095,64.1772385,248.4446259z"/>
		<path  d="M313.1298828,245.5402069c-36.270874-8.7929077-77.3656006-13.44104-118.8414307-13.44104
			c-41.6015625,0-82.8054276,4.6746826-119.1560135,13.5181274c-0.7304688,0.1771851-1.1783447,0.9135132-1.0007324,1.6435547
			c0.1516113,0.6220093,0.7080078,1.0393677,1.3215332,1.0393677c0.1063232,0,0.2144775-0.0124512,0.3225098-0.0390015
			c36.1433105-8.7920532,77.1246414-13.4401245,118.5127029-13.4401245c41.2631836,0,82.1359863,4.62146,118.1999512,13.3648071
			c0.7336426,0.1745605,1.4667969-0.2711182,1.6435547-1.0020752
			C314.3087158,246.4528046,313.8604736,245.717392,313.1298828,245.5402069z"/>
		<path  d="M349.1867676,256.1752319c-8.940918-3.1622467-18.4382324-6.0737457-28.227417-8.6547394
			c-0.7275391-0.1931763-1.4709473,0.2418823-1.6627197,0.9684448c-0.1917725,0.727417,0.2418213,1.4716797,0.9688721,1.6630249
			c9.7175293,2.5623779,19.1425781,5.4526367,28.013916,8.5891876c0.1501465,0.0531616,0.3029785,0.0779419,0.4536133,0.0779419
			c0.5605469,0,1.0854492-0.3482056,1.282959-0.9072876C350.2667236,257.2030029,349.8956299,256.4259644,349.1867676,256.1752319z"
			/>
		<path  d="M380.1165771,269.1369019c-6.7797852-3.3607178-14.0878906-6.5716553-21.7209473-9.5443115
			c-0.6989746-0.2755127-1.4897461,0.0735474-1.762207,0.7744141c-0.2724609,0.6999512,0.0739746,1.4885254,0.774292,1.7614136
			c7.5587158,2.9442749,14.7922363,6.1224365,21.5003662,9.4468384c0.1940918,0.0965576,0.4000244,0.1417236,0.6032715,0.1417236
			c0.5007324,0,0.982666-0.2772827,1.2202148-0.7566528C381.0655518,270.2869263,380.789917,269.4709473,380.1165771,269.1369019z"
			/>
	</g>
	<g opacity="0.3" enable-background="new    ">
		<rect x="182.6785889" y="199.5726776"  width="4" height="15.1972656"/>
	</g>
	<g opacity="0.3" enable-background="new    ">
		<circle  cx="194.2772827" cy="158.8394928" r="7.5660381"/>
	</g>
	<g>
		<path  d="M194.2772217,168.4056854c-5.2753906,0-9.5664063-4.2910156-9.5664063-9.5664063
			c0-5.2744141,4.2910156-9.5654297,9.5664063-9.5654297s9.5664063,4.2910156,9.5664063,9.5654297
			C203.8436279,164.1146698,199.5526123,168.4056854,194.2772217,168.4056854z M194.2772217,153.2738495
			c-3.0693359,0-5.5664063,2.4970703-5.5664063,5.5654297c0,3.0693359,2.4970703,5.5664063,5.5664063,5.5664063
			s5.5664063-2.4970703,5.5664063-5.5664063C199.8436279,155.7709198,197.3465576,153.2738495,194.2772217,153.2738495z"/>
	</g>
	<path  d="M223.8924561,185.6263885l-11.0058594-11.0058594
		c-0.1390381-0.1390381-0.296875-0.2444458-0.4611816-0.3339844c0.6168213-4.4345703,1.0471191-9.4312744,1.0471191-14.7587891
		c0-17.7578125-9.3457031-30.2705078-18.0917969-36.0595627c-0.6679688-0.4433594-1.5390625-0.4433594-2.2070313,0
		c-2.6777344,1.7724609-5.1728516,3.9736328-7.4150391,6.5439377c-0.7265625,0.8320313-0.640625,2.0957031,0.1923828,2.8212891
		c0.8320313,0.7275391,2.0947266,0.640625,2.8212891-0.1923828c1.6923828-1.9394531,3.5390625-3.6396484,5.5029297-5.0693283
		c7.5429688,5.5126877,15.1972656,16.5351486,15.1972656,31.9560471c0,14.6835938-3.4882813,27.0605469-4.7353516,31.0146484
		h-20.9199219c-1.2480469-3.9472656-4.7353516-16.3017578-4.7353516-31.0146484c0-3.8369141,0.4833984-7.5976563,1.4375-11.1787109
		c0.2841797-1.0673828-0.3505859-2.1630859-1.4179688-2.4472656c-1.0664063-0.2851563-2.1630859,0.3515625-2.4472656,1.4179688
		c-1.0429688,3.9160156-1.5722656,8.0234375-1.5722656,12.2080078c0,5.3275146,0.4304199,10.3241577,1.0473633,14.758728
		c-0.1643066,0.0895996-0.3222656,0.1949463-0.4614258,0.3340454l-11.0048828,11.0058594
		c-0.375,0.375-0.5859375,0.8837891-0.5859375,1.4140625v16.5078125c0,1.1044922,0.8955078,2,2,2h5.5019531
		c0.7578125,0,1.4501953-0.4277344,1.7890625-1.1054688l3.7871094-7.5742188l5.8131104-2.3261719h22.6179199l5.8131104,2.3261719
		l3.7871094,7.5742188c0.3388672,0.6777344,1.03125,1.1054688,1.7890625,1.1054688h5.5029297c1.1044922,0,2-0.8955078,2-2
		V187.040451C224.4783936,186.5101776,224.2674561,186.0013885,223.8924561,185.6263885z M174.9627686,193.437912
		c-0.4541016,0.1816406-0.8271484,0.5244141-1.0458984,0.9619141l-3.5742188,7.1484375h-2.265625V187.868576l8.8175049-8.8182983
		c1.0462646,5.7415771,2.2926025,10.1199341,3.012085,12.4094849L174.9627686,193.437912z M220.4783936,201.5482635h-2.2666016
		l-3.5742188-7.1484375c-0.21875-0.4375-0.5917969-0.7802734-1.0458984-0.9619141l-4.9431152-1.9778442
		c0.7193604-2.2894897,1.9655762-6.6679077,3.0117188-12.409668l8.8181152,8.8181763V201.5482635z"/>
	<g opacity="0.3" enable-background="new    ">
		<rect x="201.8768311" y="199.5726776"  width="4" height="15.1972656"/>
	</g>
	<g opacity="0.3" enable-background="new    ">
		<rect x="192.2772217" y="199.5726776"  width="4" height="24.0576172"/>
	</g>
	<path  d="M258.4881592,200.384201c-2.3720703-1.9375-5.3671875-3.0039063-8.4335938-3.0039063
		c-6.6845703,0-12.2200928,4.9472656-13.1784668,11.3693237c-6.4289551,0.260437-11.6879883,5.0806274-12.6314697,11.3132935
		h-5.6529541c-1.1044922,0-2,0.8955078-2,2s0.8955078,2,2,2h7.4863281c1.1044922,0,2-0.8955078,2-2
		c0-5.1503906,4.1904297-9.3408203,9.3408203-9.3408203c3.6533203,0,6.9921875,2.1484375,8.5068359,5.4746094
		c0.4580078,1.0048828,1.6435547,1.4462891,2.6494141,0.9912109c1.0048828-0.4580078,1.4492188-1.6435547,0.9912109-2.6494141
		c-1.675293-3.6774902-4.9157715-6.3396606-8.7144775-7.3566284c0.737793-4.4193726,4.5780029-7.8015747,9.2027588-7.8015747
		c2.1787109,0,4.2197266,0.7265625,5.9042969,2.1015625c0.8544922,0.6992188,2.1142578,0.5722656,2.8134766-0.2841797
		C259.4715576,202.3422089,259.3436279,201.0824432,258.4881592,200.384201z"/>
	<path  d="M169.9627686,220.062912h-5.6529541c-0.9434814-6.232666-6.2025146-11.0528564-12.6314697-11.3132935
		c-0.958374-6.4220581-6.4938965-11.3693237-13.1784668-11.3693237c-3.0664063,0-6.0615234,1.0664063-8.4335938,3.0039063
		c-0.8554688,0.6982422-0.9833984,1.9580078-0.2841797,2.8134766c0.6982422,0.8554688,1.9589844,0.9824219,2.8134766,0.2841797
		c1.6845703-1.375,3.7255859-2.1015625,5.9042969-2.1015625c4.6247559,0,8.4650879,3.3823242,9.2027588,7.8016968
		c-3.7982178,1.0170898-7.0384521,3.6791992-8.7144775,7.3565063c-0.4580078,1.0048828-0.0136719,2.1914063,0.9912109,2.6494141
		c1.0039063,0.4570313,2.1904297,0.0146484,2.6494141-0.9912109c1.5146484-3.3251953,4.8544922-5.4746094,8.5068359-5.4746094
		c5.1503906,0,9.3408203,4.1904297,9.3408203,9.3408203c0,1.1044922,0.8955078,2,2,2h7.4863281c1.1044922,0,2-0.8955078,2-2
		S171.0672607,220.062912,169.9627686,220.062912z"/>
	<g opacity="0.3" enable-background="new    ">
		<path  d="M223.750412,60.0256996l-1.8226929,1.8226967l-1.8227081-1.8226967
			c-0.4644318-0.4644356-1.2177734-0.4647102-1.6824799,0c-0.4647064,0.4647141-0.4644318,1.2180519,0,1.6824913
			l1.8226929,1.8226929l-1.8226929,1.8227005c-0.4647064,0.4647064-0.4644318,1.2180481,0,1.6824875
			c0.4644318,0.4644318,1.2177734,0.4647064,1.6824799,0l1.8227081-1.8227005l1.8226929,1.8227005
			c0.4644318,0.4644318,1.2177734,0.4647064,1.6824799,0c0.4647217-0.4647141,0.464447-1.2180557,0-1.6824875l-1.8226929-1.8227005
			l1.8226929-1.8226929c0.4647217-0.4647102,0.464447-1.2180519,0-1.6824913
			C224.9684601,59.561264,224.2151184,59.5609894,223.750412,60.0256996z"/>
	</g>
	<g opacity="0.3" enable-background="new    ">
		<path  d="M278.4765625,132.9939117l-1.8226929,1.8226929l-1.8226929-1.8226929
			c-0.464447-0.464447-1.2177734-0.4647217-1.6824951,0c-0.4647217,0.4647064-0.464447,1.2180481,0,1.6824799l1.8226929,1.8226929
			l-1.8226929,1.8227081c-0.4647217,0.4647064-0.464447,1.2180481,0,1.6824799s1.2177734,0.4647064,1.6824951,0l1.8226929-1.8226929
			l1.8226929,1.8226929c0.464447,0.4644318,1.2177734,0.4647064,1.6824951,0c0.4646912-0.4647064,0.4644165-1.2180481,0-1.6824799
			l-1.8226929-1.8227081l1.8226929-1.8226929c0.4646912-0.4647064,0.4644165-1.2180481,0-1.6824799
			C279.6946106,132.5294647,278.9412842,132.5291901,278.4765625,132.9939117z"/>
	</g>
	<g opacity="0.3" enable-background="new    ">
		<path  d="M287.2010193,75.8883514l-1.8226929,1.8227005l-1.8226929-1.8227005
			c-0.464447-0.4644318-1.2177734-0.4647064-1.6824951,0c-0.4647217,0.4647141-0.464447,1.2180557,0,1.6824951l1.8226929,1.8226929
			l-1.8226929,1.8226929c-0.4647217,0.4647141-0.464447,1.2180557,0,1.6824875c0.464447,0.4644394,1.2177734,0.4647141,1.6824951,0
			l1.8226929-1.8226929l1.8226929,1.8226929c0.464447,0.4644394,1.2177734,0.4647141,1.6824951,0
			c0.4646912-0.4647064,0.464447-1.2180481,0-1.6824875l-1.8226929-1.8226929l1.8226929-1.8226929
			c0.4646912-0.4647141,0.464447-1.2180557,0-1.6824951C288.4190674,75.4239197,287.665741,75.423645,287.2010193,75.8883514z"/>
	</g>
	<g opacity="0.3" enable-background="new    ">
		<path  d="M246.7512512,20.3690681l-1.8226929,1.8226967l-1.8226929-1.8226967
			c-0.4644318-0.4644375-1.2177734-0.4647102-1.6824951,0c-0.4647064,0.4647102-0.4644318,1.2180519,0,1.6824894
			l1.8227081,1.8226948l-1.8227081,1.8226967c-0.4647064,0.4647102-0.4644318,1.21805,0,1.6824875
			c0.464447,0.4644375,1.2177887,0.4647102,1.6824951,0l1.8226929-1.8226948l1.8226929,1.8226948
			c0.464447,0.4644375,1.2177887,0.4647102,1.6824951,0s0.4644318-1.2180519,0-1.6824875l-1.8226929-1.8226967l1.8226929-1.8226948
			c0.4647064-0.4647121,0.4644318-1.2180519,0-1.6824894S247.2159729,19.9043579,246.7512512,20.3690681z"/>
	</g>
	<g opacity="0.3" enable-background="new    ">
		<path d="M173.7830505,8.4720783l-1.8226929,1.8226957l-1.8226929-1.8226957
			c-0.464447-0.4644365-1.2177887-0.4647112-1.6824951,0s-0.4644318,1.2180519,0,1.6824884l1.8226929,1.8226957
			l-1.8226929,1.8226957c-0.4647064,0.4647112-0.4644318,1.2180519,0,1.6824884
			c0.4644318,0.4644375,1.2177734,0.4647112,1.6824951,0l1.8226929-1.8226957l1.8226929,1.8226957
			c0.4644318,0.4644375,1.2177734,0.4647112,1.6824951,0c0.4647064-0.4647102,0.4644318-1.218051,0-1.6824884l-1.8227081-1.8226957
			l1.8227081-1.8226957c0.4647064-0.4647112,0.4644318-1.2180519,0-1.6824884
			C175.0010986,8.0076418,174.247757,8.0073671,173.7830505,8.4720783z"/>
	</g>
	<g opacity="0.3" enable-background="new    ">
		<path  d="M111.9187012,43.369915l-1.8226929,1.8226967l-1.8226929-1.8226967
			c-0.4644394-0.4644356-1.2177811-0.4647102-1.6824951,0c-0.4647064,0.4647102-0.4644318,1.2180519,0,1.6824875
			l1.8227005,1.8226967l-1.8227005,1.8226967c-0.4647064,0.4647102-0.4644318,1.2180519,0,1.6824875
			c0.4644394,0.4644356,1.2177811,0.4647102,1.6824951,0l1.8226929-1.8226967l1.8226929,1.8226967
			c0.4644394,0.4644356,1.2177811,0.4647102,1.6824875,0c0.4647141-0.4647102,0.4644394-1.2180519,0-1.6824875l-1.8226929-1.8226967
			l1.8226929-1.8226967c0.4647141-0.4647102,0.4644394-1.2180519,0-1.6824875
			C113.1367569,42.9054794,112.3834152,42.9052048,111.9187012,43.369915z"/>
	</g>
	<g opacity="0.3" enable-background="new    ">
		<path  d="M102.4011154,118.7175217l-1.8227005,1.8226929l-1.8226929-1.8226929
			c-0.4644394-0.4644394-1.2177811-0.4647141-1.6824875,0c-0.4647141,0.4647064-0.4644394,1.2180481,0,1.6824875
			l1.8226929,1.8226929l-1.8226929,1.8226929c-0.4647141,0.4647141-0.4644394,1.2180557,0,1.6824951
			c0.4644318,0.4644318,1.2177734,0.4647064,1.6824875,0l1.8226929-1.8227005l1.8227005,1.8227005
			c0.4644318,0.4644318,1.2177734,0.4647064,1.6824875,0c0.4647064-0.4647141,0.4644318-1.2180557,0-1.6824951l-1.8227005-1.8226929
			l1.8227005-1.8226929c0.4647064-0.4647141,0.4644318-1.2180557,0-1.6824875
			C103.6191635,118.2530823,102.8658218,118.2528076,102.4011154,118.7175217z"/>
	</g>
	<g opacity="0.3" enable-background="new    ">
		<path  d="M159.5066681,83.8196793l-1.8226929,1.8227005l-1.8227081-1.8227005
			c-0.4644318-0.4644318-1.2177734-0.4647064-1.6824799,0c-0.4647217,0.4647141-0.464447,1.2180557,0,1.6824875l1.8226929,1.8227005
			l-1.8226929,1.8226929c-0.4647217,0.4647141-0.464447,1.2180557,0,1.6824875c0.4644318,0.4644394,1.2177734,0.4647141,1.6824799,0
			l1.8227081-1.8226929l1.8226929,1.8226929c0.4644318,0.4644394,1.2177734,0.4647141,1.6824799,0
			c0.4647217-0.4647064,0.464447-1.2180481,0-1.6824875l-1.8226929-1.8226929l1.8226929-1.8227005
			c0.4647217-0.4647064,0.464447-1.2180481,0-1.6824875C160.7247162,83.3552475,159.9713745,83.3549728,159.5066681,83.8196793z"/>
	</g>
</g>
</svg>
