<?xml version="1.0" encoding="utf-8"?>
<!-- Generator: Adobe Illustrator 23.0.3, SVG Export Plug-In . SVG Version: 6.00 Build 0)  -->
<svg version="1.1"  xmlns="http://www.w3.org/2000/svg" xmlns:xlink="http://www.w3.org/1999/xlink" x="0px" y="0px"
	 viewBox="0 0 67 53" enable-background="new 0 0 67 53" xml:space="preserve" width="65px" height="51px">
<g>
	<path d="M58.0649986,1h-48.75c-4.4797645,0-8.125,3.6011558-8.125,8.0277777v34.9444427
		C1.1900001,48.3988457,4.8352351,52,9.3149996,52h48.75c4.4797668,0,8.1250038-3.6011543,8.1250038-8.0277786V9.0277777
		C66.1900024,4.6011558,62.5447655,1,58.0649986,1z M58.0649986,49.1666679h-48.75
		c-2.8984513,0-5.2573524-2.3302155-5.2573524-5.1944466V9.0277777c0-2.8642306,2.358901-5.1944447,5.2573524-5.1944447h48.75
		c2.8984528,0,5.2573547,2.3302138,5.2573547,5.1944447v5.1944447H13.1385298c-0.7915907,0-1.4338236,0.6340876-1.4338236,1.416667
		s0.6422329,1.416666,1.4338236,1.416666h50.1838226v26.916666C63.3223534,46.8364525,60.9634514,49.1666679,58.0649986,49.1666679z
		"/>
	<path d="M25.6228752,27.8594837c-0.5600872-0.5533848-1.4674282-0.5533848-2.0275154,0l-4.7794113,4.7222233
		c-0.5600872,0.5529213-0.5600872,1.4503288,0,2.0032539l4.7794113,4.7222214
		c0.2800426,0.2766953,0.6469002,0.4150391,1.0137577,0.4150391s0.7337151-0.1383438,1.0137577-0.4150391
		c0.5600872-0.5529251,0.5600872-1.4503288,0-2.0032539l-3.7656536-3.7205963l3.7656536-3.7205925
		C26.1829624,29.3098145,26.1829624,28.4124069,25.6228752,27.8594837z"/>
	<path d="M43.7846413,27.8594837c-0.5600891-0.5533848-1.4674301-0.5533848-2.0275154,0
		c-0.5600891,0.5529232-0.5600891,1.4503307,0,2.0032558l3.7656517,3.7205925l-3.7656517,3.7205963
		c-0.5600891,0.5529251-0.5600891,1.4503288,0,2.0032539c0.2800407,0.2766953,0.6469002,0.4150391,1.0137558,0.4150391
		c0.3668594,0,0.7337151-0.1383438,1.0137596-0.4150391l4.7794113-4.7222214c0.5600853-0.5529251,0.5600853-1.4503326,0-2.0032539
		L43.7846413,27.8594837z"/>
	<path d="M37.5555344,23.7630482c-0.7355804-0.2831497-1.5682411,0.0765514-1.8566895,0.8070202l-6.6911755,17
		c-0.2865772,0.729084,0.0793457,1.549942,0.8167953,1.8335495c0.170826,0.0654831,0.3463192,0.0968437,0.5199471,0.0968437
		c0.5740891,0,1.1155071-0.3430977,1.3367424-0.903862l6.6911755-17.0000019
		C38.6589088,24.8675137,38.292984,24.0466576,37.5555344,23.7630482z"/>
</g>
</svg>
