<?xml version="1.0" encoding="utf-8"?>
<!-- Generator: Adobe Illustrator 23.0.3, SVG Export Plug-In . SVG Version: 6.00 Build 0)  -->
<svg version="1.1" xmlns="http://www.w3.org/2000/svg" xmlns:xlink="http://www.w3.org/1999/xlink" x="0px" y="0px"
	 viewBox="0 0 56.1599998 70.462883" enable-background="new 0 0 56.1599998 70.462883" xml:space="preserve" width="54px" height="70px">
<path d="M54.8839569,36.1578674c0-12.4105225-8.6729126-23.2758179-20.6951294-26.0844727
	c-0.5249023-0.6481323-1.0895386-1.2151489-1.6329956-1.7587891c-1.6625996-1.6625981-2.9755878-2.9755864-2.9755878-6.2568359
	c0-0.5766603-0.3305664-1.1020509-0.8500977-1.3520509c-0.5200195-0.2490234-1.1367188-0.1796875-1.5869141,0.1806641
	c-3.2901001,2.6322632-5.4550781,5.7891846-6.5487671,9.5484009C9.1893749,13.7471619,1.276045,24.2123108,1.276045,36.1578674
	c0,13.6604614,10.3757935,25.1436157,23.8242188,26.6352539c0.8087158,3.3823242,1.4626465,5.7537231,1.534668,6.0131836
	c0.1801758,0.6494141,0.7714844,1.0986328,1.4453125,1.0986328s1.2651367-0.4492188,1.4453125-1.0986328
	c0.0720215-0.2594604,0.7259521-2.6308594,1.534668-6.0131226C44.5068207,61.3018494,54.8839569,49.8141174,54.8839569,36.1578674z
	 M26.9576855,5.131988c0.6743164,2.5014648,2.1411133,3.9682622,3.4765625,5.3037114
	c1.6625996,1.6625977,2.9755878,2.9760742,2.9755878,6.2573242c0,2.9394531-2.3906269,5.3300781-5.3295918,5.3300781
	s-5.3300781-2.390625-5.3300781-5.3300781C22.7501659,11.9498596,24.0983105,8.2130432,26.9576855,5.131988z M4.2760448,36.1578674
	c0-10.0752563,6.3341064-18.9727783,15.6454468-22.3627319c-0.1097412,0.9344482-0.1713257,1.8973389-0.1713257,2.8978882
	c0,3.2471313,1.8720703,6.0592651,4.5899048,7.4327393c-0.8149414,2.5369263-2.6382446,9.0875244-2.6382446,16.9598389
	c0,5.3128662,1.3771973,12.7476196,2.6772461,18.585022C12.9529247,57.8809509,4.2760448,47.9298401,4.2760448,36.1578674z
	 M27.823164,61.2420959c-0.0132446-0.1246338-0.0408325-0.2445679-0.0831299-0.3587646
	c-1.3738403-5.911438-3.038208-14.2211914-3.038208-19.7977295c0-7.4033203,1.7578125-13.7177734,2.5039063-16.0625h1.7490234
	c0.7456055,2.3447266,2.5039063,8.6591797,2.5039063,16.0625c0,6.0429688-1.9575195,15.3105469-3.378418,21.2421875
	C27.9963207,61.9776917,27.9102612,61.6141052,27.823164,61.2420959z M31.7814159,59.6705017
	c1.3000507-5.8373413,2.677248-13.2720337,2.677248-18.5848999c0-7.8722534-1.8235474-14.4228516-2.6386738-16.9597778
	c2.7176533-1.3734131,4.5898457-4.1856689,4.5898457-7.4328003c0-1.1217041-0.1264648-2.0903931-0.3433228-2.9416504
	c9.3227539,3.3329468,15.8174438,12.2885132,15.8174438,22.4064941
	C51.8839569,47.9269714,43.2059174,57.8802185,31.7814159,59.6705017z"/>
</svg>
