<?xml version="1.0" encoding="utf-8"?>
<!-- Generator: Adobe Illustrator 23.0.3, SVG Export Plug-In . SVG Version: 6.00 Build 0)  -->
<svg version="1.1"  xmlns="http://www.w3.org/2000/svg" xmlns:xlink="http://www.w3.org/1999/xlink" x="0px" y="0px"
	 viewBox="0 0 72 72" enable-background="new 0 0 72 72" xml:space="preserve" width="66px" height="68px">
<path d="M68.0761642,40.7055397c-0.7851563-0.6162109-3.4296875-2.6772461-4.8076172-3.5566406v-3.2954102
	c1.3837891-0.8828125,4.0234375-2.940918,4.8076172-3.5571289c0.9433594-0.7412109,1.3291016-2.0068359,0.9589844-3.1513672
	l-1.3984375-4.2998047c-0.3701172-1.1430664-1.4257813-1.9414063-2.6279297-1.9873047
	c-0.9970703-0.0366211-4.34375-0.1489258-5.9814453-0.0522461l-1.9365234-2.6650391
	c0.6005859-1.5288086,1.5263672-4.7441397,1.7978516-5.7016592c0.3291016-1.1567383-0.1035156-2.4086914-1.0751953-3.1142578
	l-3.6601563-2.659668c-0.9716797-0.7050781-2.2949219-0.7290039-3.2919922-0.0610352
	c-0.8271484,0.5546875-3.5986328,2.4277344-4.8691406,3.4731445l-3.1328125-1.0175781
	c-0.4140625-1.5922852-1.5546875-4.7373047-1.8974609-5.6728516c-0.4150391-1.1279297-1.5-1.8857422-2.7001953-1.8857422h-4.5234375
	c-1.2001953,0-2.2851563,0.7578125-2.7001953,1.8867188c-0.3427734,0.933594-1.4814453,4.0727539-1.8974609,5.671875
	l-3.1328125,1.0170898c-1.2197266-1.0029297-3.8037109-2.7578125-4.8681641-3.472168
	c-0.9990234-0.6699219-2.3222656-0.6459961-3.2939453,0.0610352L14.1874924,9.324193
	c-0.9726563,0.7060547-1.4052734,1.9580078-1.0761719,3.1147461c0.3505859,1.2348633,1.2226563,4.2392569,1.7978516,5.7016592
	l-1.9365234,2.6650391c-1.5664063-0.0927734-4.6953125,0.0048828-5.9794927,0.0522461
	c-1.2011719,0.0439453-2.2578125,0.8413086-2.6308594,1.9858398l-1.3974607,4.3012695
	c-0.3710938,1.1420898,0.0136719,2.4086914,0.9599609,3.1518555c0.785156,0.6166992,3.4296873,2.6772461,4.8066406,3.5571289
	v3.2944336c-1.3867192,0.8847656-4.0244145,2.9418945-4.8076172,3.5576172
	c-0.9433594,0.7416992-1.3291016,2.0073242-0.9589844,3.1503906l1.3974607,4.3032227
	c0.3720703,1.1411133,1.4277344,1.9384766,2.6289063,1.984375c0.9931641,0.0375977,4.3320317,0.1494141,5.9814458,0.0527344
	l1.9365234,2.6650391c-0.6005859,1.5273438-1.5263672,4.7436523-1.7978516,5.7016602
	c-0.3291016,1.1567383,0.1035156,2.4082031,1.0751953,3.1137695l3.6601563,2.6596718
	c0.9716797,0.7055664,2.2958984,0.7285156,3.2929688,0.0610352c0.828125-0.5561562,3.6025391-2.4331093,4.8681641-3.4736366
	l0.3887939,0.1263428l-0.3946533,7.8731728c-0.0419922,0.8276367,0.5957031,1.5317383,1.4228516,1.5732422
	c0.8173828,0.0424805,1.5322266-0.5952148,1.5732422-1.4228516l0.4331665-8.6373329
	c0.0747681-0.2419434,0.0804443-0.4869385,0.0361328-0.7200317l0.5307007-10.581604
	c0.0283203-0.5717773-0.2705078-1.1098633-0.7705078-1.387207c-4.4580078-2.4707031-7.2275391-7.1645508-7.2275391-12.2490234
	c0-5.0083008,2.7392578-9.6308594,7-12.105957v9.605957c0,2.4814453,2.0185547,4.5,4.5,4.5h5c2.4814453,0,4.5-2.0185547,4.5-4.5
	v-9.605957c4.2607422,2.4746094,7,7.097168,7,12.105957c0,5.0849609-2.7695313,9.7788086-7.2275391,12.2490234
	c-0.5,0.2773438-0.7988281,0.8154297-0.7705078,1.387207l0.5307007,10.5811768
	c-0.0444336,0.2333984-0.0387573,0.4788208,0.0361328,0.7210693l0.4331665,8.6367226
	c0.0400391,0.8017578,0.703125,1.4248047,1.4970703,1.4248047c0.0253906,0,0.0507813-0.0004883,0.0761719-0.0019531
	c0.8271484-0.0415039,1.4648438-0.7456055,1.4228516-1.5732422l-0.3946533-7.873539l0.3887939-0.1264648
	c1.2207031,1.0058594,3.8046875,2.7597656,4.8681641,3.4741249c0.4833984,0.3242188,1.0429688,0.4858398,1.6025391,0.4858398
	c0.5947266-0.0004883,1.1894531-0.1831055,1.6914063-0.5473633l3.6582031-2.6586952
	c0.9726563-0.7060547,1.4052734-1.9575195,1.0761719-3.1142578c-0.3505859-1.2348633-1.2226563-4.2382813-1.7978516-5.7016602
	l1.9365234-2.6650391c1.578125,0.0947266,4.7001953-0.0048828,5.9794922-0.0527344
	c1.2021484-0.0439453,2.2597656-0.8422852,2.6298828-1.9848633l1.3984375-4.3017578
	C69.4062424,42.7153053,69.0214767,41.4487038,68.0761642,40.7055397z M64.8105392,47.1493874
	c-2.0009766,0.0727539-4.5068359,0.1235352-5.6455078,0.050293c-0.9814453-0.065918-1.9375,0.3759766-2.5292969,1.1845703
	l-2.0068359,2.762207c-0.5859375,0.8076172-0.7158203,1.8432617-0.3466797,2.7700195
	c0.5224609,1.3120117,1.4033203,4.3520508,1.6972656,5.3847656L52.4609299,61.85886
	c-1.6582031-1.1147461-3.7148438-2.5463867-4.5976563-3.2802734c-0.6809692-0.5646362-1.5598145-0.7589111-2.413269-0.588501
	l-0.4060669-8.1004639c4.9306641-3.1020508,7.9560547-8.5317383,7.9560547-14.390625
	c0-7.003418-4.4072266-13.3847656-10.9667969-15.8789063c-0.4609375-0.1757813-0.9785156-0.1132813-1.3847656,0.1669922
	c-0.40625,0.2797852-0.6484375,0.7416992-0.6484375,1.2348633v11.9770508c0,0.8271484-0.6728516,1.5-1.5,1.5h-5
	c-0.8271484,0-1.5-0.6728516-1.5-1.5V21.021946c0-0.4931641-0.2421875-0.9550781-0.6484375-1.2348633
	c-0.40625-0.2802734-0.9238281-0.3427734-1.3847656-0.1669922c-6.5595703,2.4941406-10.9667969,8.8754883-10.9667969,15.8789063
	c0,5.8579102,3.0253906,11.2875977,7.9560547,14.390625l-0.4060669,8.1005249
	c-0.8531494-0.171814-1.734436,0.0235596-2.413269,0.5889282c-0.8876953,0.7368164-2.9433594,2.1679688-4.5976563,3.2797852
	l-3.5185547-2.5576172c0.5449219-1.9155273,1.2695313-4.3110352,1.6982422-5.387207
	c0.3691406-0.9301758,0.2373047-1.9663086-0.3476563-2.7675781l-2.0068359-2.7612305
	c-0.5859375-0.809082-1.5371094-1.2480469-2.5273438-1.1860352c-1.1630859,0.0751953-3.6621094,0.0239258-5.648438-0.0498047
	l-1.34375-4.1376953c1.5644531-1.2285156,3.5576177-2.7397461,4.5400395-3.359375
	c0.8427734-0.5336914,1.3466797-1.4477539,1.3466797-2.4443359v-3.4140625c0-0.9975586-0.5039063-1.9111328-1.3476563-2.4448242
	c-0.9726563-0.6147461-2.969727-2.1279297-4.539063-3.3583984l1.3447266-4.1381836
	c1.0732427-0.0380859,4.2392583-0.1401367,5.6474614-0.0493164c0.9892578,0.0605469,1.9365234-0.3774414,2.5273438-1.1850586
	l2.0068359-2.7631836c0.5849609-0.8061523,0.7148438-1.8408203,0.3466797-2.7685547
	c-0.5234375-1.3144522-1.4033203-4.3535147-1.6972656-5.3857412l3.5185547-2.5571289
	c1.6591797,1.1152344,3.7167969,2.5473633,4.5957031,3.2768555c0.7666016,0.6381836,1.7900391,0.8364258,2.7431641,0.5283203
	l3.2460938-1.0546875c0.9375-0.3041992,1.6689453-1.0864258,1.9082031-2.0366211
	c0.2871094-1.125,1.109375-3.4892578,1.7929688-5.3564453h4.3496094c0.6845703,1.8676758,1.5058594,4.2314453,1.7919922,5.3540039
	c0.2451172,0.9667969,0.9580078,1.7285156,1.9082031,2.0390625l3.2470703,1.0546875
	c0.9482422,0.3076172,1.9746094,0.1103516,2.7412109-0.5268555c0.8925781-0.7412109,2.9462891-2.1699219,4.5976563-3.2783203
	l3.5185547,2.5571289c-0.5439453,1.9150391-1.2695313,4.3100576-1.6972656,5.3842764
	c-0.3701172,0.9296875-0.2402344,1.9663086,0.3466797,2.7709961l2.0068359,2.762207
	c0.5859375,0.8061523,1.5371094,1.2441406,2.5273438,1.1850586c1.1542969-0.0771484,3.6582031-0.0244141,5.6464844,0.0493164
	l1.3457031,4.1381836c-1.5673828,1.2299805-3.5615234,2.7416992-4.5410156,3.359375
	c-0.8427734,0.5336914-1.3457031,1.4472656-1.3457031,2.4438477v3.4140625c0,0.9956055,0.5029297,1.9091797,1.3476563,2.4458008
	c0.9765625,0.6162109,2.9716797,2.128418,4.5390625,3.3579102L64.8105392,47.1493874z"/>
</svg>
