<?xml version="1.0" encoding="utf-8"?>
<!-- Generator: Adobe Illustrator 23.0.3, SVG Export Plug-In . SVG Version: 6.00 Build 0)  -->
<svg version="1.1"  xmlns="http://www.w3.org/2000/svg" xmlns:xlink="http://www.w3.org/1999/xlink" x="0px" y="0px"
	 viewBox="0 0 72 72" enable-background="new 0 0 72 72" xml:space="preserve" width="63px" height="62px">
<g>
	<path d="M18.9998245,42.999855h-13c-0.8286133,0-1.5,0.6713867-1.5,1.5v21c0,0.8286133,0.6713867,1.5,1.5,1.5h13
		c0.8286133,0,1.5-0.6713867,1.5-1.5v-21C20.4998245,43.6712418,19.8284378,42.999855,18.9998245,42.999855z M17.4998245,63.999855
		h-10v-18h10V63.999855z"/>
	<path  d="M39.9998245,32.999855h-13c-0.828125,0-1.5,0.6713867-1.5,1.5v31c0,0.8286133,0.671875,1.5,1.5,1.5h13
		c0.828125,0,1.5-0.6713867,1.5-1.5v-31C41.4998245,33.6712418,40.8279495,32.999855,39.9998245,32.999855z M38.4998245,63.999855
		h-10v-28h10V63.999855z"/>
	<path  d="M60.9998245,22.999855h-13c-0.828125,0-1.5,0.6713867-1.5,1.5v41c0,0.8286133,0.671875,1.5,1.5,1.5h13
		c0.828125,0,1.5-0.6713867,1.5-1.5v-41C62.4998245,23.6712418,61.8279495,22.999855,60.9998245,22.999855z M59.4998245,63.999855
		h-10v-38h10V63.999855z"/>
	<path  d="M67.3416214,5.8289561c-0.3701172-0.7412109-1.2695313-1.0395508-2.0126953-0.6708984l-7.2754517,3.6376948
		c0.000061,0.000061,0.0001221,0.0001221,0.0001831,0.0001831c-1.0064697-1.1005244-2.4487915-1.7960811-4.053833-1.7960811
		c-2.7816772,0-5.0824585,2.0783076-5.4446411,4.7627559c0-0.0001221,0-0.0001831,0-0.0003052L38.021553,13.2672491
		c-0.8582153-1.9223022-2.7845459-3.267395-5.0217285-3.267395c-3.0322266,0-5.5,2.4672852-5.5,5.5
		c0,0.7100229,0.1398315,1.3868418,0.3859253,2.010438l-12.5930176,9.5947266
		c-0.9193115-0.6906128-2.0571899-1.1051636-3.2929077-1.1051636c-3.0327148,0-5.5000005,2.4672852-5.5000005,5.5
		s2.4672856,5.5,5.5000005,5.5s5.5-2.4672852,5.5-5.5c0-0.710022-0.1397705-1.3868408-0.3858643-2.010498l12.5930176-9.5947876
		l-0.000061-0.000061c0.9193726,0.6906738,2.057312,1.1053467,3.2929077,1.1053467
		c2.7816162,0,5.0823364-2.078125,5.4446411-4.7626343L48.978035,14.732398v-0.000061
		c0.8582153,1.9224253,2.7845459,3.267518,5.0217896,3.267518c3.0322266,0,5.5-2.4672861,5.5-5.500001
		c0-0.3499756-0.0363159-0.6912231-0.0991211-1.0231934l7.2700195-3.6350093
		C67.4119339,7.471046,67.7117386,6.5701671,67.3416214,5.8289561z M11.9998245,33.999855c-1.378418,0-2.5-1.121582-2.5-2.5
		s1.121582-2.5,2.5-2.5s2.5,1.121582,2.5,2.5S13.3782425,33.999855,11.9998245,33.999855z M32.9998245,17.999855
		c-1.3789063,0-2.5-1.121582-2.5-2.500001s1.1210938-2.5,2.5-2.5s2.5,1.121582,2.5,2.5S34.3787308,17.999855,32.9998245,17.999855z
		 M53.9998245,14.9998541c-1.3789063,0-2.5-1.121582-2.5-2.5s1.1210938-2.5,2.5-2.5s2.5,1.121582,2.5,2.5
		S55.3787308,14.9998541,53.9998245,14.9998541z"/>
</g>
</svg>
