<?xml version="1.0" encoding="utf-8"?>
<!-- Generator: Adobe Illustrator 23.0.3, SVG Export Plug-In . SVG Version: 6.00 Build 0)  -->
<svg version="1.1"  xmlns="http://www.w3.org/2000/svg" xmlns:xlink="http://www.w3.org/1999/xlink" x="0px" y="0px"
	 viewBox="0 0 43.7999992 61.2599983" enable-background="new 0 0 43.7999992 61.2599983" xml:space="preserve" width="43px" height="60px">
<g>
	<path d="M42.8731461,26.0159855L23.0748043,1.084834c-0.5693359-0.7167969-1.7802734-0.7167969-2.3496094,0
		L0.9268554,26.0159855c-0.3579102,0.4506836-0.4262695,1.0664063-0.1757813,1.5849609
		c0.25,0.5180664,0.7749023,0.8476563,1.3505861,0.8476563h5.8325195v8.7656269c0,0.8286133,0.6713862,1.5,1.4999995,1.5h24.9311543
		c0.8286133,0,1.5-0.6713867,1.5-1.5v-8.7656269h5.8330078c0.5756836,0,1.1005859-0.3295898,1.3505859-0.8476563
		C43.2994156,27.0823917,43.2310562,26.4666691,42.8731461,26.0159855z M34.3653336,25.4486027c-0.8286133,0-1.5,0.6713867-1.5,1.5
		v8.7656269H10.9341793v-8.7656269c0-0.8286133-0.6713867-1.5-1.5-1.5H5.2081056l16.6918945-21.019043l16.6918964,21.019043
		H34.3653336z"/>
	<path fill="#FFFFFF" d="M34.3653336,43.0467491H9.4341793c-0.8286133,0-1.4999995,0.671875-1.4999995,1.5v7.3330078
		c0,0.828125,0.6713862,1.5,1.4999995,1.5h24.9311543c0.8286133,0,1.5-0.671875,1.5-1.5v-7.3330078
		C35.8653336,43.7186241,35.1939468,43.0467491,34.3653336,43.0467491z M32.8653336,50.3797569H10.9341793v-4.3330078h21.9311543
		V50.3797569z"/>
	<path fill="#FFFFFF" d="M34.3653336,57.7127647H9.4341793c-0.8286133,0-1.4999995,0.671875-1.4999995,1.5
		s0.6713862,1.5,1.4999995,1.5h24.9311543c0.8286133,0,1.5-0.671875,1.5-1.5S35.1939468,57.7127647,34.3653336,57.7127647z"/>
</g>
</svg>
