<?xml version="1.0" encoding="utf-8"?>
<!-- Generator: Adobe Illustrator 23.0.3, SVG Export Plug-In . SVG Version: 6.00 Build 0)  -->
<svg version="1.1"  xmlns="http://www.w3.org/2000/svg" xmlns:xlink="http://www.w3.org/1999/xlink" x="0px" y="0px"
	 viewBox="0 0 40 40" enable-background="new 0 0 40 40" xml:space="preserve" width="38px" height="38px">
<g>
	<path d="M23.1000977,13.0808105h-6.2006226c-2.1057129,0-3.8188477,1.7131958-3.8188477,3.8189087v6.2006836
		c0,2.1057739,1.7131348,3.8189087,3.8188477,3.8189087h6.2006226c2.105835,0,3.8189697-1.7132568,3.8189697-3.8189087v-6.2006836
		C26.9191895,14.7940063,25.2059326,13.0808105,23.1000977,13.0808105z M23.1001587,25.6914673h-6.2006836
		c-1.4287109,0.0001221-2.5910645-1.1623535-2.5910645-2.5910645v-6.2006836c0-1.4286499,1.1623535-2.5910645,2.5910645-2.5910645
		h6.2006226c1.428772,0,2.5911865,1.1624146,2.5911865,2.5910645v6.2006836h0.000061
		C25.6913452,24.5291138,24.5289307,25.6914673,23.1001587,25.6914673z"/>
	<path  d="M19.9998779,16.4343872c-1.9662476,0-3.5658569,1.5996094-3.5658569,3.5658569
		c0,1.9661255,1.5996094,3.5656128,3.5658569,3.5656128c1.9661865,0,3.5657959-1.5994873,3.5657959-3.5656128
		C23.5656738,18.0339966,21.9660645,16.4343872,19.9998779,16.4343872z M19.9998779,22.3380127
		c-1.2891235,0-2.3380127-1.0487671-2.3380127-2.3378906c0-1.2891846,1.0487671-2.3380127,2.3380127-2.3380127
		c1.2891846,0,2.3379517,1.0488281,2.3379517,2.3380127C22.3378296,21.2892456,21.2890015,22.3380127,19.9998779,22.3380127z"/>
	<path  d="M23.71521,15.3933105c-0.2365723,0-0.4689331,0.0957642-0.6359863,0.2635498
		c-0.1679077,0.1669922-0.2644043,0.3994751-0.2644043,0.6368408c0,0.2366333,0.0966187,0.4689941,0.2644043,0.6368408
		c0.1669922,0.1669312,0.3994141,0.2635498,0.6359863,0.2635498c0.2373657,0,0.4690552-0.0966187,0.6368408-0.2635498
		c0.1677856-0.1678467,0.2635498-0.4002686,0.2635498-0.6368408c0-0.2373657-0.0957642-0.4698486-0.2635498-0.6368408
		C24.1850586,15.4890747,23.9525757,15.3933105,23.71521,15.3933105z"/>
	<path   d="M19.9995117,0.8828125C9.4584961,0.8828125,0.8823242,9.4589844,0.8823242,20
		s8.5761719,19.1171875,19.1171875,19.1171875c10.5419922,0,19.1181641-8.5761719,19.1181641-19.1171875
		S30.5415039,0.8828125,19.9995117,0.8828125z M19.9995117,38.1171875c-9.9902344,0-18.1171875-8.1274414-18.1171875-18.1171875
		S10.0092773,1.8828125,19.9995117,1.8828125S38.1176758,10.0102539,38.1176758,20S29.9897461,38.1171875,19.9995117,38.1171875z"/>
</g>
</svg>
