<?xml version="1.0" encoding="utf-8"?>
<!-- Generator: Adobe Illustrator 23.0.3, SVG Export Plug-In . SVG Version: 6.00 Build 0)  -->
<svg version="1.1"  xmlns="http://www.w3.org/2000/svg" xmlns:xlink="http://www.w3.org/1999/xlink" x="0px" y="0px"
	 viewBox="0 0 192.8057556 93.525177" enable-background="new 0 0 192.8057556 93.525177" xml:space="preserve">
<g>
	<g>
		<g>
			<path fill="#FFFFFF" d="M34.5774078,69.1403503c-17.8141651,0-32.3069954-14.4929962-32.3069954-32.3071632
				S16.7632427,4.5261917,34.5774078,4.5261917S66.8845749,19.019022,66.8845749,36.8331871
				c0,8.6295395-3.3605347,16.7425041-9.462429,22.844738c-0.6135483,0.6132088-1.6078339,0.6132088-2.2213821,0
				c-0.6133728-0.6133766-0.6133728-1.6078339,0-2.2213783c5.5086327-5.5088005,8.54245-12.8330154,8.54245-20.6233597
				c0-16.0819168-13.0837173-29.1656342-29.1658058-29.1656342c-16.0819168,0-29.1656361,13.0837183-29.1656361,29.1656342
				c0,16.0820885,13.0837193,29.1658058,29.1656361,29.1658058c0.8674889,0,1.5706787,0.7031937,1.5706787,1.5706787
				C36.1480865,68.4371643,35.4448967,69.1403503,34.5774078,69.1403503z"/>
		</g>
		<g>
			<path fill="#FFFFFF" d="M56.3106041,60.1370621c-0.4020424,0-0.8039169-0.1533852-1.1106911-0.4599876L36.1480865,40.6250763
				v15.3178825c0,0.8674889-0.7031898,1.5706787-1.5706787,1.5706787s-1.5706787-0.7031898-1.5706787-1.5706787V36.8331871
				c0-0.6353607,0.3826141-1.208004,0.969574-1.4510384c0.5872993-0.2435455,1.2628822-0.1087341,1.7117958,0.3403473
				l21.7331963,21.7331963c0.6133766,0.6133766,0.6133766,1.6080055,0,2.2213821
				C57.114521,59.9836769,56.7126465,60.1370621,56.3106041,60.1370621z"/>
		</g>
		<g>
			<path fill="#FFFFFF" d="M34.5772362,85.1828995c-0.1591797,0-0.3200645-0.0243683-0.4777145-0.074646
				c-0.6508713-0.2079239-1.0927925-0.8127823-1.0927925-1.4962006V67.5696716c0-0.867485,0.7031898-1.5706787,1.5706787-1.5706787
				s1.5706787,0.7031937,1.5706787,1.5706787v11.7403946c2.5452003-2.7110291,6.6924362-6.4545135,12.0439262-8.9576187
				c5.4181328-2.5341187,11.2429085-2.7560196,15.1914253-2.4918518l-8.1826744-8.1826706
				c-0.6133728-0.6133766-0.6133728-1.6080017,0-2.2213783c0.6135483-0.6132088,1.6078339-0.6132088,2.2213821,0
				l11.4627647,11.4627571c0.4959488,0.4959564,0.6029739,1.2606735,0.262291,1.8737106
				c-0.3406906,0.6130295-1.0471191,0.9259415-1.7296906,0.7665863c-0.0949326-0.0219803-9.7288132-2.1806488-17.8944397,1.6383438
				C41.2105331,77.0859604,35.909996,84.4485168,35.8573341,84.522316
				C35.557209,84.9444733,35.0760841,85.1828995,34.5772362,85.1828995z"/>
		</g>
	</g>
	<radialGradient id="SVGID_1_" cx="34.3863525" cy="11.3412361" r="50.9399071" gradientUnits="userSpaceOnUse">
		<stop  offset="0" style="stop-color:#FFFFFF;stop-opacity:0.7"/>
		<stop  offset="0.6823536" style="stop-color:#FFFFFF;stop-opacity:0.1029406"/>
		<stop  offset="0.8" style="stop-color:#FFFFFF;stop-opacity:0"/>
	</radialGradient>
	<path opacity="0.45" fill="url(#SVGID_1_)" d="M33.2058716,56.0709496
		c-1.7276306-1.1853256-3.5663567-4.4721947-4.6668034-9.4223976h4.6668034v-3.8871841h-5.3203812
		c-0.2207069-1.8276329-0.3513737-3.8026619-0.3513737-5.9308968s0.1306667-4.1032639,0.3513737-5.9308949h13.3839607
		c0.2207069,1.827631,0.3514328,3.80266,0.3514328,5.9308949s-0.1307259,4.1032639-0.3514328,5.9308968h-1.3394814
		l4.5895767,4.0482216c0.0111504-0.05439,0.024971-0.1064682,0.0359421-0.1610374h9.3530617
		c-0.9723892,1.9106712-2.2246819,3.6525383-3.6941185,5.1841965l2.9130173,2.5694084
		c4.3459129-4.5854836,7.0203094-10.7702408,7.0203094-17.5716248c0-14.0995216-11.4707375-25.5703182-25.5702591-25.5703182
		c-14.0994606,0-25.5702572,11.4707966-25.5702572,25.5703182c0,13.6392441,10.7344761,24.8172112,24.1986294,25.5325356V56.0709496
		z M55.4050331,30.8027763c0.5531616,1.9144096,0.8555412,3.9352264,0.8555412,6.0277557s-0.3023796,4.1132851-0.8554802,6.0276375
		c-0.1832199-0.0572395-0.3742104-0.0968018-0.5762329-0.0968018h-9.6633911
		c0.2256317-1.9545059,0.342598-3.9529037,0.342598-5.9308968s-0.1169662-3.9763908-0.342598-5.9308949h9.6633911
		C55.0308838,30.8995762,55.2218132,30.860014,55.4050331,30.8027763z M53.9084892,27.012392h-9.3530006
		c-0.9363861-4.6510239-2.5529213-8.7420692-4.8076134-11.2397099C45.9385681,17.287672,51.082489,21.4595623,53.9084892,27.012392z
		 M34.5772629,17.0908699c2.0407486,0,4.6379776,3.6217537,6.0385513,9.9215221h-12.076746
		C29.9395237,20.7126236,32.5365143,17.0908699,34.5772629,17.0908699z M29.4066505,15.7728004
		c-2.2545738,2.4976406-3.8709316,6.5886269-4.8072586,11.2395916h-9.3528814
		C18.0724525,21.4596806,23.2161369,17.2879105,29.4066505,15.7728004z M13.7499065,42.8581696
		c-0.5530996-1.9143524-0.8554811-3.9351082-0.8554811-6.0276375s0.3023815-4.1133461,0.8555412-6.0277557
		c0.1832199,0.0572376,0.3741503,0.0967999,0.5761728,0.0967999h9.6633301
		c-0.2255707,1.954504-0.3425369,3.9529018-0.3425369,5.9308949s0.1169662,3.9763908,0.3425369,5.9308968h-9.6633301
		C14.1241169,42.7613678,13.9331274,42.80093,13.7499065,42.8581696z M15.2464514,46.6485519h9.3529406
		c0.936327,4.6510239,2.5527439,8.7420692,4.8073177,11.2397118C23.2161961,56.3732109,18.0723934,52.2013245,15.2464514,46.6485519
		z"/>
	<g>
		<path fill="#FFFFFF" d="M84.7471466,65.2919464c0.0805511-0.0403061,0.2819977-0.1208954,0.5641174-0.1208954
			c0.8057861,0,1.4102478,0.6849594,1.4102478,1.4102478c0,1.9743042-4.3516235,2.6189804-6.5274353,2.6189804
			c-4.552948,0-7.1719894-2.9010391-7.1719894-6.6885147v-7.5346336c0-3.8680534,2.5787048-6.8094025,7.373436-6.8094025
			c4.4725113,0,6.6885376,2.5787048,6.6885376,6.5676193c0,3.7068863-2.0145798,5.963253-6.8093109,5.963253
			c-1.2088013,0-2.6995926-0.1208611-4.1098404-0.3626137v2.3772545c0,2.2563705,1.490799,3.7068863,4.3918381,3.7068863
			C82.2489929,66.4201279,83.3368988,65.9366226,84.7471466,65.2919464z M80.3149643,51.0284615
			c-2.6189194,0-4.1500549,1.410244-4.1500549,3.6666107v3.0622101c1.490799,0.2014465,3.4248276,0.2820625,4.2306137,0.2820625
			c3.0622711,0,3.5860519-1.6520004,3.5860519-3.303997C83.981575,52.1163673,82.6520081,51.0284615,80.3149643,51.0284615z"/>
		<path fill="#FFFFFF" d="M105.7018127,51.2702446l-9.9522629,14.7066536h8.9045715
			c0.8462448,0,1.490921,0.6446762,1.490921,1.4505234c0,0.8058395-0.6446762,1.4505157-1.490921,1.4505157H93.493187
			c-0.8461227,0-1.6116867-0.7252579-1.6116867-1.6922684c0-0.3223419,0.0806732-0.6849823,0.2821198-1.0073242
			l9.9924774-14.7469292h-8.4211273c-0.8057785,0-1.4504547-0.6446762-1.4504547-1.4505196
			c0-0.8461533,0.6446762-1.4505234,1.4504547-1.4505234h10.6774902c0.8863373,0,1.6519089,0.6043701,1.6519089,1.6116905
			C106.0643692,50.5046768,105.9434738,50.9076004,105.7018127,51.2702446z"/>
		<path fill="#FFFFFF" d="M129.4766083,67.387146c-0.3625641,1.2087326-0.8461304,1.8131332-2.0145874,1.8131332
			c-0.8461227,0-1.6116867-0.4835052-1.8534698-1.3699341l-3.6262741-14.1425629l-3.5860519,14.1425629
			c-0.2820053,0.9670105-0.8863373,1.3699341-1.893692,1.3699341c-1.0879059,0-1.6922455-0.6849518-2.0145798-1.8131332
			l-4.6739655-17.3659744c-0.0402145-0.0805855-0.0402145-0.1611671-0.0402145-0.2417526
			c0-0.7655373,0.6848907-1.4908295,1.5713501-1.4908295c0.6446762,0,1.2490158,0.4029541,1.4504623,1.1281815l3.7874985,14.8275452
			c1.2491379-4.8753433,2.4175949-9.6298294,3.6263962-14.5454826c0.2014465-0.8058434,0.8461227-1.410244,1.8131332-1.410244
			c0.9266815,0,1.5310135,0.6044006,1.73246,1.410244c1.1685867,4.9156532,2.4175949,9.6701393,3.6666107,14.5454826
			l3.7472916-14.8275452c0.1611023-0.6446724,0.7654419-1.1281815,1.4504547-1.1281815
			c0.8057861,0,1.5311279,0.6849823,1.5311279,1.5714149c0,0.0805817-0.040329,0.2014427-0.040329,0.2820587L129.4766083,67.387146z
			"/>
		<path fill="#FFFFFF" d="M150.6348114,65.2919464c0.0805511-0.0403061,0.2819977-0.1208954,0.5641174-0.1208954
			c0.8057861,0,1.4102478,0.6849594,1.4102478,1.4102478c0,1.9743042-4.3516235,2.6189804-6.5274353,2.6189804
			c-4.552948,0-7.1719818-2.9010391-7.1719818-6.6885147v-7.5346336c0-3.8680534,2.5787048-6.8094025,7.3735504-6.8094025
			c4.4723969,0,6.6884155,2.5787048,6.6884155,6.5676193c0,3.7068863-2.0145721,5.963253-6.8093109,5.963253
			c-1.2088013,0-2.699585-0.1208611-4.1098328-0.3626137v2.3772545c0,2.2563705,1.490799,3.7068863,4.3918304,3.7068863
			C148.1366577,66.4201279,149.2245636,65.9366226,150.6348114,65.2919464z M146.2026367,51.0284615
			c-2.618927,0-4.1500549,1.410244-4.1500549,3.6666107v3.0622101c1.490799,0.2014465,3.4248199,0.2820625,4.2307281,0.2820625
			c3.062149,0,3.5859375-1.6520004,3.5859375-3.303997C149.8692474,52.1163673,148.5395508,51.0284615,146.2026367,51.0284615z"/>
		<path fill="#FFFFFF" d="M159.0592499,41.197155c0-0.8058434,0.5641327-1.5310745,1.5714874-1.5310745
			c1.0072174,0,1.5713501,0.7252312,1.5713501,1.5310745v8.62257c1.490799-1.0476265,3.1830292-1.6519966,5.3588409-1.6519966
			c4.5932922,0,6.2453156,2.739872,6.2453156,6.2855911v7.5749397c0,4.0292206-2.4578094,7.17202-7.3734283,7.17202
			c-4.6739655,0-7.3735657-2.8204575-7.3735657-6.3661766V41.197155z M162.2020874,62.8341026
			c0,2.1757851,1.6116791,3.4651375,4.2307281,3.4651375c2.9010468,0,4.2306061-1.6116943,4.2306061-4.2709808v-7.5749397
			c0-2.2160606-1.168457-3.5457191-3.8680573-3.5457191c-2.0145721,0-3.4651642,0.7655373-4.593277,2.0146141V62.8341026z"/>
	</g>
	<g opacity="0.45">
		
			<linearGradient id="SVGID_2_" gradientUnits="userSpaceOnUse" x1="134.0721283" y1="87.7957764" x2="136.4562836" y2="87.7957764">
			<stop  offset="0" style="stop-color:#FFFFFF;stop-opacity:0.7"/>
			<stop  offset="0.8529419" style="stop-color:#FFFFFF;stop-opacity:0.7"/>
			<stop  offset="1" style="stop-color:#FFFFFF;stop-opacity:0.7"/>
		</linearGradient>
		<path fill="url(#SVGID_2_)" d="M135.2753601,88.9989853c-0.6684723,0-1.2032318-0.5570297-1.2032318-1.2254639
			c0-0.6461945,0.5347595-1.180954,1.2032318-1.180954c0.6461639,0,1.1809235,0.5347595,1.1809235,1.180954
			C136.4562836,88.4419556,135.921524,88.9989853,135.2753601,88.9989853z"/>
		
			<linearGradient id="SVGID_3_" gradientUnits="userSpaceOnUse" x1="138.8850861" y1="83.1389236" x2="145.9038086" y2="83.1389236">
			<stop  offset="0" style="stop-color:#FFFFFF;stop-opacity:0.7"/>
			<stop  offset="0.8529419" style="stop-color:#FFFFFF;stop-opacity:0.7"/>
			<stop  offset="1" style="stop-color:#FFFFFF;stop-opacity:0.7"/>
		</linearGradient>
		<path fill="url(#SVGID_3_)" d="M142.6284027,77.32341c1.1586761,0,2.9635162,0.3119583,2.9635162,1.2477722
			c0,0.4233551-0.334259,0.8021393-0.8021698,0.8021393c-0.1559448,0-0.2673492-0.044548-0.401062-0.1114044
			c-0.4678955-0.2228012-0.8912659-0.4010544-1.6934357-0.4010544c-1.3591614,0-1.983017,0.5347595-1.983017,1.5597
			c0,0.6907425,0.2896423,1.0472488,1.0472107,1.4260254c1.5374298,0.7575912,4.1443634,0.9581223,4.1443634,3.8547134
			c0,2.0053635-1.2700043,3.2531357-3.7433167,3.2531357c-1.1363678,0-3.2754059-0.2673798-3.2754059-1.2923508
			c0-0.3787766,0.2897186-0.8021393,0.8244171-0.8021393c0.1336975,0,0.1560059,0.0223083,0.2228546,0.0445786
			c0.6238556,0.2451096,1.3368683,0.5124893,2.2281342,0.5124893c1.2255402,0,2.049942-0.4902115,2.049942-1.6488571
			c0-0.8021393-0.3787994-1.1363754-0.8244019-1.3814468c-1.4037933-0.7575912-4.3672333-0.9135666-4.3672333-3.854744
			C139.0187988,78.6157608,140.266571,77.32341,142.6284027,77.32341z"/>
		
			<linearGradient id="SVGID_4_" gradientUnits="userSpaceOnUse" x1="148.1768646" y1="81.4789352" x2="153.3239594" y2="81.4789352">
			<stop  offset="0" style="stop-color:#FFFFFF;stop-opacity:0.7"/>
			<stop  offset="0.8529419" style="stop-color:#FFFFFF;stop-opacity:0.7"/>
			<stop  offset="1" style="stop-color:#FFFFFF;stop-opacity:0.7"/>
		</linearGradient>
		<path fill="url(#SVGID_4_)" d="M148.1768646,74.9392929c0-0.4679337,0.3119507-0.8467331,0.8690186-0.8467331
			c0.5570068,0,0.8689575,0.3787994,0.8689575,0.8467331v3.074852h2.3172913c0.4456635,0,0.8021698,0.3565063,0.8021698,0.8244171
			c0,0.4679337-0.3565063,0.82444-0.8021698,0.82444h-2.3172913v4.434021c0,2.2950211,0.2228088,3.1417389,1.8270874,3.1417389
			c0.1336975,0,0.2896423-0.0223083,0.4233551-0.0223083c0.5125122,0,1.1586761,0.0891266,1.1586761,0.8021393
			c0,0.7575912-0.6461639,0.8467178-1.2700806,0.8467178c-3.1194611,0-3.8770142-1.5374222-3.8770142-4.6123047V74.9392929z"/>
		<linearGradient id="SVGID_5_" gradientUnits="userSpaceOnUse" x1="155.1738281" y1="83.172348" x2="163.6631165" y2="83.172348">
			<stop  offset="0" style="stop-color:#FFFFFF;stop-opacity:0.7"/>
			<stop  offset="0.8529419" style="stop-color:#FFFFFF;stop-opacity:0.7"/>
			<stop  offset="1" style="stop-color:#FFFFFF;stop-opacity:0.7"/>
		</linearGradient>
		<path fill="url(#SVGID_5_)" d="M161.3681335,78.2369766c0-0.4679337,0.2896576-0.8467178,0.8689575-0.8467178
			c0.5793762,0,0.8690338,0.3787842,0.8690338,0.8467178v7.7985611c0,1.2254944,0.2227936,1.2254944,0.4010468,1.5597305
			c0.0445557,0.0891266,0.1559448,0.2450714,0.1559448,0.4456329c0,0.4233246-0.3565063,0.7798309-0.8244019,0.7798309
			c-0.4233704,0-0.7130127-0.2673798-0.9581299-0.6684341c-0.9803619,0.5570374-2.1167297,0.8021393-3.1639404,0.8021393
			c-2.3618927,0-3.5428162-1.6934052-3.5428162-4.2112198v-6.5062408c0-0.4679337,0.3119507-0.8467178,0.8690186-0.8467178
			c0.5570068,0,0.8689575,0.3787842,0.8689575,0.8467178v6.5062408c0,1.6934052,0.7130127,2.6514893,2.049881,2.6514893
			c0.8690186,0,1.715744-0.2673798,2.451004-0.7352829c-0.0222473-0.2228012-0.0445557-0.4456329-0.0445557-0.6238861V78.2369766z"
			/>
		
			<linearGradient id="SVGID_6_" gradientUnits="userSpaceOnUse" x1="165.8692017" y1="80.7882156" x2="174.5367432" y2="80.7882156">
			<stop  offset="0" style="stop-color:#FFFFFF;stop-opacity:0.7"/>
			<stop  offset="0.8529419" style="stop-color:#FFFFFF;stop-opacity:0.7"/>
			<stop  offset="1" style="stop-color:#FFFFFF;stop-opacity:0.7"/>
		</linearGradient>
		<path fill="url(#SVGID_6_)" d="M172.0635071,77.8358917v-4.367218c0-0.4679031,0.3119507-0.8466873,0.8689575-0.8466873
			c0.5570679,0,0.8690186,0.3787842,0.8690186,0.8466873v12.7673874c0,0.6238861,0.1336517,1.0027008,0.5793152,1.3368988
			c0.0890961,0.1337051,0.1559448,0.2451096,0.1559448,0.4456329c0,0.4679413-0.4010468,0.7798691-0.7798615,0.7798691
			c-0.5124512,0-0.9135132-0.2896576-1.1809235-0.7130127c-0.9803619,0.4902115-2.049881,0.868988-3.1640015,0.868988
			c-2.3395386,0-3.5427551-1.7156754-3.5427551-4.2112198v-2.8297729c0-2.6515274,0.8912659-4.5009079,3.7210693-4.5009079
			C170.3255157,77.4125366,171.2613373,77.568512,172.0635071,77.8358917z M172.0635071,79.3956223
			c-0.735321-0.3119583-1.715683-0.4679337-2.2504425-0.4679337c-1.6265717,0-2.2058868,0.9135666-2.2058868,2.9857559v2.8297729
			c0,1.7379532,0.6907043,2.6514893,2.1612854,2.6514893c0.7130127,0,1.5820313-0.2450714,2.3395844-0.6461563
			c-0.0445404-0.1782532-0.0445404-0.3565063-0.0445404-0.5124893V79.3956223z"/>
		
			<linearGradient id="SVGID_7_" gradientUnits="userSpaceOnUse" x1="177.3890381" y1="80.8884811" x2="179.5280762" y2="80.8884811">
			<stop  offset="0" style="stop-color:#FFFFFF;stop-opacity:0.7"/>
			<stop  offset="0.8529419" style="stop-color:#FFFFFF;stop-opacity:0.7"/>
			<stop  offset="1" style="stop-color:#FFFFFF;stop-opacity:0.7"/>
		</linearGradient>
		<path fill="url(#SVGID_7_)" d="M178.4585571,74.9615707c-0.6016083,0-1.069519-0.4902115-1.069519-1.0695343
			c0-0.6016159,0.4679108-1.069519,1.069519-1.069519s1.069519,0.4679031,1.069519,1.069519
			C179.5280762,74.4713593,179.0601654,74.9615707,178.4585571,74.9615707z M178.4585571,88.9544373
			c-0.4902039,0-0.8689575-0.3787766-0.8689575-0.868988v-9.8261948c0-0.4679108,0.3787537-0.8689957,0.8689575-0.8689957
			s0.8690186,0.4010849,0.8690186,0.8689957v9.8261948C179.3275757,88.5756607,178.948761,88.9544373,178.4585571,88.9544373z"/>
		
			<linearGradient id="SVGID_8_" gradientUnits="userSpaceOnUse" x1="182.2019958" y1="83.1277847" x2="190.5353394" y2="83.1277847">
			<stop  offset="0" style="stop-color:#FFFFFF;stop-opacity:0.7"/>
			<stop  offset="0.8529419" style="stop-color:#FFFFFF;stop-opacity:0.7"/>
			<stop  offset="1" style="stop-color:#FFFFFF;stop-opacity:0.7"/>
		</linearGradient>
		<path fill="url(#SVGID_8_)" d="M182.2019958,84.9882889v-3.7210083c0-2.2281647,1.4483337-3.9661484,4.1666718-3.9661484
			c2.7183533,0,4.1666718,1.7379837,4.1666718,3.9661484v3.7210083c0,2.2281647-1.4483185,3.9661484-4.1666718,3.9661484
			C183.6503296,88.9544373,182.2019958,87.2164536,182.2019958,84.9882889z M188.7973633,84.9882889v-3.743309
			c0-1.4483032-0.8244171-2.3395691-2.4286957-2.3395691s-2.4286957,0.8912659-2.4286957,2.3395691v3.743309
			c0,1.4706039,0.8244171,2.3618698,2.4286957,2.3618698S188.7973633,86.4588928,188.7973633,84.9882889z"/>
	</g>
</g>
</svg>
