<?xml version="1.0" encoding="utf-8"?>
<!-- Generator: Adobe Illustrator 23.0.3, SVG Export Plug-In . SVG Version: 6.00 Build 0)  -->
<svg version="1.1" xmlns="http://www.w3.org/2000/svg" xmlns:xlink="http://www.w3.org/1999/xlink" x="0px" y="0px"
	 viewBox="0 0 22 20" enable-background="new 0 0 22 20" xml:space="preserve" width="20px" height="15px">
<path d="M20.6010742,3.5861816c-0.3359375-0.3359375-0.7451172-0.5058594-1.2167969-0.5058594H2.6157227
	c-0.4716797,0-0.8808594,0.1699219-1.2167969,0.5058594S0.8930664,4.3312988,0.8930664,4.8024902v12.3945313
	c0,0.4780273,0.1650391,0.8759766,0.5058594,1.2163086c0.3359375,0.3359375,0.7451172,0.5063477,1.2167969,0.5063477h16.7685547
	c0.4711914,0,0.8803711-0.1704102,1.2167969-0.5063477c0.3354492-0.3354492,0.5058594-0.7451172,0.5058594-1.2163086V4.8024902
	C21.1069336,4.3308105,20.9365234,3.9216309,20.6010742,3.5861816z M19.8486328,17.1965332
	c0,0.1264648-0.0463867,0.2363281-0.1381836,0.3271484c-0.090332,0.0908203-0.2001953,0.137207-0.3261719,0.137207H2.6157227
	c-0.1264648,0-0.2363281-0.0463867-0.3271484-0.137207c-0.0913086-0.0908203-0.1376953-0.2006836-0.1376953-0.3271484V8.1848145
	l0.1748047,0.1967773c0.237793,0.2675781,0.4985352,0.5170898,0.7744141,0.7407227
	c2.0273438,1.5581055,3.6611328,2.8544922,4.8540039,3.8510742c0.3833008,0.3232422,0.699707,0.5786133,0.9414063,0.7597656
	c0.2353516,0.1767578,0.5605469,0.359375,0.9663086,0.5415039c0.3984375,0.1791992,0.7773438,0.2700195,1.1264648,0.2700195
	c0.3720703,0,0.7509766-0.0908203,1.1494141-0.2700195c0.40625-0.1821289,0.7314453-0.3647461,0.9667969-0.5415039
	c0.2412109-0.1806641,0.5581055-0.4365234,0.940918-0.7597656c1.1953125-0.9980469,2.8291016-2.2944336,4.8564453-3.8525391
	c0.2749023-0.2231445,0.5351563-0.4726563,0.7719727-0.7392578l0.1748047-0.1967773V17.1965332z M19.8486328,5.223877
	c0,0.4658203-0.1835938,0.9882813-0.5454102,1.5522461c-0.3574219,0.5566406-0.7495117,1.0078125-1.1665039,1.3398438
	c-1.4663086,1.1547852-2.9887695,2.3583984-4.5688477,3.6113281c-0.0322266,0.0273438-0.1162109,0.0976563-0.2495117,0.2099609
	l-0.1469727,0.1240234c-0.2182617,0.1850586-0.3959961,0.3300781-0.5273438,0.4306641
	c-0.1313477,0.1000977-0.3037109,0.2216797-0.5117188,0.3623047c-0.2148438,0.144043-0.4150391,0.2524414-0.5947266,0.3232422
	c-0.1855469,0.0722656-0.3623047,0.109375-0.5263672,0.109375c-0.1865234,0-0.3632813-0.0371094-0.5488281-0.109375
	c-0.1801758-0.0708008-0.3803711-0.1791992-0.5947266-0.3232422c-0.2104492-0.1416016-0.3828125-0.2636719-0.5117188-0.3623047
	c-0.1308594-0.1000977-0.3085938-0.2451172-0.527832-0.4311523l-0.1113281-0.09375
	c-0.1538086-0.1293945-0.2495117-0.2099609-0.2866211-0.2407227c-1.578125-1.2519531-3.1005859-2.4555664-4.5664063-3.6098633
	C2.7275391,7.2199707,2.1513672,6.1047363,2.1513672,4.8024902c0-0.1254883,0.0458984-0.2358398,0.137207-0.3271484
	c0.0917969-0.0908203,0.2016602-0.137207,0.3271484-0.137207h16.7944336l0.0229492,0.0126953
	c-0.0029297-0.003418,0.0092773-0.0024414,0.0229492-0.0019531c0.105957,0.0073242,0.387207,0.0258789,0.387207,0.4482422
	c0,0.0654297,0,0.1132813,0,0.1479492h0.0053711V5.223877z"/>
</svg>
