<?xml version="1.0" encoding="utf-8"?>
<!-- Generator: Adobe Illustrator 23.0.3, SVG Export Plug-In . SVG Version: 6.00 Build 0)  -->
<svg version="1.1"  xmlns="http://www.w3.org/2000/svg" xmlns:xlink="http://www.w3.org/1999/xlink" x="0px" y="0px"
	 viewBox="0 0 22 22" enable-background="new 0 0 22 22" xml:space="preserve" width="21px" height="21px">
<g>
	<path d="M16.9350433,13.442275c-0.4185181-0.435791-0.9233398-0.6687622-1.458375-0.6687622
		c-0.5307007,0-1.039856,0.2286377-1.475647,0.6644287l-1.3634644,1.3591919
		c-0.1121826-0.0604248-0.2243652-0.1165161-0.3322144-0.1726074c-0.1553345-0.0776978-0.302063-0.151001-0.4271851-0.2286987
		c-1.2771606-0.8111572-2.4378052-1.8682861-3.5510254-3.2360229c-0.5393062-0.6817627-0.901794-1.2556152-1.1649776-1.8380737
		C7.5159755,8.9981222,7.8439174,8.6615744,8.1631918,8.337966C8.2839804,8.2171164,8.40483,8.0919943,8.5256186,7.9712062
		c0.9061279-0.9061279,0.9061279-2.0797119,0-2.9858398l-1.177917-1.1779175
		C7.2139125,3.6737208,7.075851,3.5356593,6.9464564,3.3975978C6.6875453,3.1300807,6.4156947,2.8538966,6.1352382,2.5950465
		C5.7167201,2.1808009,5.2162318,1.9607692,4.6898036,1.9607692c-0.5263672,0-1.0355227,0.2200317-1.4669802,0.6342773
		C3.2184899,2.599319,3.2184899,2.599319,3.2141564,2.6036525l-1.46698,1.4799805
		C1.1948693,4.635879,0.8799279,5.3089747,0.8108972,6.0899806c-0.1035767,1.2598877,0.267517,2.4334712,0.552246,3.2015376
		c0.6989746,1.885498,1.7431641,3.6329956,3.3007815,5.5056152c1.8898926,2.2565928,4.1637568,4.0385752,6.76123,5.2941294
		c0.9923706,0.4703369,2.3170166,1.0269165,3.796936,1.1218872c0.0906372,0.0042725,0.1855469,0.008606,0.2718506,0.008606
		c0.9967051,0,1.8337412-0.3581543,2.4895639-1.0700684c0.0043335-0.008606,0.0129395-0.0129395,0.0172729-0.0215454
		c0.2243652-0.2718506,0.4832764-0.5177612,0.7550659-0.7810059c0.1855469-0.1768799,0.3754272-0.3624268,0.5609131-0.5565796
		c0.4271851-0.444397,0.6515503-0.9621582,0.6515503-1.4929199c0-0.5350342-0.2286987-1.0484619-0.6644897-1.4799204
		L16.9350433,13.442275z M18.4797211,17.985672c-0.1682739,0.1812744-0.3408813,0.3452148-0.5263672,0.5264282
		c-0.2804565,0.2675171-0.5652466,0.5479736-0.8327637,0.862915c-0.435791,0.4660034-0.9492188,0.6860962-1.6223764,0.6860962
		c-0.0646973,0-0.133728,0-0.1984253-0.0043335c-1.2814941-0.0819702-2.4723511-0.5825195-3.3655396-1.0096436
		c-2.4421387-1.182251-4.5865474-2.8606567-6.3685298-4.987855c-1.4713135-1.7733765-2.4550784-3.4129639-3.1066287-5.1733398
		C2.0578454,7.8115382,1.9111168,6.9745021,1.9758751,6.1848903C2.019027,5.6800685,2.2131798,5.2615504,2.5712731,4.9033961
		l1.4713137-1.4713135c0.2114258-0.1984863,0.435791-0.3063354,0.6558838-0.3063354
		c0.2717896,0,0.4918823,0.1639404,0.6299438,0.302002c0.0043335,0.0043335,0.008606,0.008667,0.0129395,0.0129395
		c0.2631836,0.2459717,0.5134277,0.5005493,0.7766724,0.7723389C6.2517543,4.35115,6.3898158,4.4892116,6.5278773,4.6316066
		l1.1779175,1.1779175c0.457397,0.4573364,0.457397,0.880188,0,1.3375244
		C7.5806727,7.2722316,7.4598842,7.3973536,7.3347621,7.5181422C6.9723353,7.889236,6.6271205,8.2343893,6.2517543,8.5709372
		c-0.008606,0.008606-0.0172729,0.0129395-0.0215454,0.0215454c-0.3710938,0.3710938-0.302063,0.7335205-0.2243652,0.9794922
		c0.0042725,0.0129395,0.008606,0.0258789,0.0129395,0.0388184c0.3063354,0.7421265,0.737793,1.4411011,1.3936157,2.2738647
		l0.0043335,0.0043335c1.1908565,1.46698,2.4464717,2.6104126,3.8314815,3.4862671
		c0.1769409,0.1121826,0.3581543,0.2028198,0.5307007,0.2891235c0.1553345,0.0776367,0.302063,0.151001,0.4271851,0.2286377
		c0.0172729,0.008667,0.0344849,0.0216064,0.0517578,0.0302124c0.1467285,0.0733643,0.28479,0.1079111,0.4271851,0.1079111
		c0.3580933,0,0.5824585-0.2243662,0.6558228-0.2977304l1.475647-1.475647
		c0.1467285-0.1467285,0.3796997-0.3236084,0.6515503-0.3236084c0.2675171,0,0.4875488,0.1682739,0.6212778,0.3150024
		c0.0043335,0.0042725,0.0043335,0.0042725,0.008667,0.008606l2.3773804,2.3774424
		C18.9198456,17.0752716,18.9198456,17.5283356,18.4797211,17.985672z"/>
	<path  d="M14.8035727,7.1859279c0.8198242,0.8197627,1.3505259,1.8466792,1.5446787,2.9771724
		c0.0474854,0.284729,0.293396,0.4832153,0.5738525,0.4832153c0.0345459,0,0.0646973-0.0043335,0.0992432-0.008606
		c0.3192749-0.0518188,0.5307007-0.3538208,0.4789429-0.6730957c-0.2330322-1.3677979-0.880188-2.6147456-1.8682871-3.6028438
		c-0.9880981-0.9880371-2.2350464-1.6352539-3.6027832-1.8682861c-0.3193359-0.0517578-0.6170654,0.159668-0.6731567,0.4746704
		c-0.0560913,0.3149414,0.151062,0.6212769,0.4703369,0.6730957C12.9568319,5.8310695,13.9837484,6.3661036,14.8035727,7.1859279z"
		/>
	<path  d="M18.1216278,3.8635402c-1.6309814-1.6309814-3.6804819-2.6923828-5.9328012-3.076416
		c-0.3149414-0.0560913-0.6126709,0.159668-0.6687622,0.4746705c-0.0518188,0.3192749,0.1596069,0.6170044,0.4789429,0.6730957
		c2.0106201,0.3408203,3.8444214,1.2943726,5.3027964,2.7484741c1.458374,1.458374,2.4075928,3.2921143,2.7484741,5.3027949
		c0.0474854,0.28479,0.293396,0.4832764,0.5738525,0.4832764c0.0345459,0,0.0647583-0.0043335,0.0992432-0.008667
		c0.3150024-0.0474243,0.5307007-0.3494873,0.4746094-0.6644287C20.8140106,7.5440211,19.7525482,5.4945216,18.1216278,3.8635402z"
		/>
</g>
</svg>
