<?xml version="1.0" encoding="utf-8"?>
<!-- Generator: Adobe Illustrator 23.0.3, SVG Export Plug-In . SVG Version: 6.00 Build 0)  -->
<svg version="1.1" xmlns="http://www.w3.org/2000/svg" xmlns:xlink="http://www.w3.org/1999/xlink" x="0px" y="0px"
	 viewBox="0 0 62.9099998 56.6100006" enable-background="new 0 0 62.9099998 56.6100006" xml:space="preserve" width="55px" height="55px">
<g>
	<path d="M58.7909584,13.2112503c-0.2822266-0.3862305-0.7324219-0.6147461-1.2109375-0.6147461H23.6640034
		c-0.828125,0-1.5,0.6713867-1.5,1.5s0.671875,1.5,1.5,1.5h31.8642597l-5.4980469,17.2836914l-30.6201191,3.4023438
		L14.1434956,4.6834178c-0.1201172-0.7231443-0.7460938-1.2534177-1.4794922-1.2534177H5.330019
		c-0.828125,0-1.5,0.6713865-1.5,1.4999998s0.671875,1.5,1.5,1.5h6.0634766l5.2851563,31.7112427
		c0.000061,0.0002441-0.000061,0.0004272,0,0.0006714l0.9160156,6.4169922
		c0.0469971,0.3270874,0.2087402,0.602478,0.4230957,0.8222656c-0.2814941,0.6691895-0.4377441,1.4035034-0.4377441,2.1738281
		c0,3.1015625,2.5234375,5.625,5.625,5.625s5.625-2.5234375,5.625-5.625c0-0.59552-0.0946045-1.1688843-0.2669067-1.7080078
		h6.7008076c-0.1723022,0.5391235-0.2669067,1.1124878-0.2669067,1.7080078c0,3.1015625,2.5234375,5.625,5.625,5.625
		s5.625-2.5234375,5.625-5.625s-2.5234375-5.625-5.625-5.625c-1.1404419,0-2.2011719,0.3433838-3.088562,0.9290161
		c-0.0401001-0.0032349-0.0785522-0.0120239-0.1194458-0.0120239H26.4140034c-0.0411987,0-0.079895,0.0089111-0.1202393,0.012146
		c-0.8874512-0.5856934-1.9482422-0.9291382-3.0887451-0.9291382c-1.0378418,0-2.0076294,0.2875366-2.8431396,0.7797852
		l-0.4937744-3.4594727l31.461916-3.4960938c0.5888672-0.0654297,1.0839844-0.4711914,1.2636719-1.0361328l6.4160156-20.1669922
		C59.1542397,14.0950394,59.073185,13.5974808,58.7909584,13.2112503z M43.2470131,47.5550003
		c0,1.4472656-1.1777344,2.625-2.625,2.625s-2.625-1.1777344-2.625-2.625s1.1777344-2.625,2.625-2.625
		S43.2470131,46.1077347,43.2470131,47.5550003z M23.205019,44.9300003c1.4472656,0,2.625,1.1777344,2.625,2.625
		s-1.1777344,2.625-2.625,2.625s-2.625-1.1777344-2.625-2.625S21.7577534,44.9300003,23.205019,44.9300003z"/>
	<g opacity="0.3" enable-background="new    ">
		<path  d="M50.2470131,22.9300003H22.7470112c-0.828125,0-1.5-0.6713867-1.5-1.5s0.671875-1.5,1.5-1.5h27.5000019
			c0.828125,0,1.5,0.6713867,1.5,1.5S51.0751381,22.9300003,50.2470131,22.9300003z"/>
	</g>
	<g opacity="0.3" enable-background="new    ">
		<path d="M47.4970131,30.2634964H21.830019c-0.828125,0-1.5-0.6713867-1.5-1.5s0.671875-1.5,1.5-1.5h25.6669941
			c0.828125,0,1.5,0.6713867,1.5,1.5S48.3251381,30.2634964,47.4970131,30.2634964z"/>
	</g>
</g>
</svg>
