<?xml version="1.0" encoding="utf-8"?>
<!-- Generator: Adobe Illustrator 23.0.3, SVG Export Plug-In . SVG Version: 6.00 Build 0)  -->
<svg version="1.1" xmlns="http://www.w3.org/2000/svg" xmlns:xlink="http://www.w3.org/1999/xlink" x="0px" y="0px"
	 viewBox="0 0 62.9099998 56.6100006" enable-background="new 0 0 62.9099998 56.6100006" xml:space="preserve" width="55px" height="46px">
<g>
	<path  d="M52.0800018,5.2632518h-41.25c-3.859375,0-7,3.1401372-7,7.0000005v32.0834961c0,3.859375,3.140625,7,7,7
		h41.25c3.859375,0,7-3.140625,7-7c0-0.828125-0.671875-1.5-1.5-1.5s-1.5,0.671875-1.5,1.5c0,2.2060547-1.7939453,4-4,4h-41.25
		c-2.2060547,0-4-1.7939453-4-4v-23.25h49.25v12.25c0,0.828125,0.671875,1.5,1.5,1.5s1.5-0.671875,1.5-1.5V12.2632523
		C59.0800018,8.403389,55.9393768,5.2632518,52.0800018,5.2632518z M6.8299999,18.0967484v-5.8334961c0-2.2055664,1.7939453-4,4-4
		h41.25c2.2060547,0,4,1.7944336,4,4v5.8334961H6.8299999z"/>
	<g opacity="0.3" enable-background="new    ">
		<circle  cx="51.1628456" cy="13.1796875" r="2.2916667"/>
	</g>
	<g opacity="0.3" enable-background="new    ">
		<circle  cx="44.7461815" cy="13.1796875" r="2.2916667"/>
	</g>
	<g opacity="0.3" enable-background="new    ">
		<circle  cx="38.3295135" cy="13.1796875" r="2.2916667"/>
	</g>
	<g opacity="0.3" enable-background="new    ">
		<path  d="M21.3711796,43.8880196h-7.333333c-1.0129261,0-1.833333-0.8204117-1.833333-1.8333321v-3.6666679
			c0-1.0129204,0.8204069-1.8333321,1.833333-1.8333321h7.333333c1.012928,0,1.833334,0.8204117,1.833334,1.8333321v3.6666679
			C23.2045135,43.0676079,22.3841076,43.8880196,21.3711796,43.8880196z"/>
	</g>
	<g opacity="0.3" enable-background="new    ">
		<path  d="M35.1211815,43.8880196h-7.333334c-1.012928,0-1.833334-0.8204117-1.833334-1.8333321v-3.6666679
			c0-1.0129204,0.820406-1.8333321,1.833334-1.8333321h7.333334c1.0129242,0,1.8333321,0.8204117,1.8333321,1.8333321v3.6666679
			C36.9545135,43.0676079,36.1341057,43.8880196,35.1211815,43.8880196z"/>
	</g>
	<g opacity="0.3" enable-background="new    ">
		<path d="M35.1211815,32.8880196h-7.333334c-1.012928,0-1.833334-0.8204117-1.833334-1.8333321v-3.666666
			c0-1.0129204,0.820406-1.833334,1.833334-1.833334h7.333334c1.0129242,0,1.8333321,0.8204136,1.8333321,1.833334v3.666666
			C36.9545135,32.0676079,36.1341057,32.8880196,35.1211815,32.8880196z"/>
	</g>
	<g opacity="0.3" enable-background="new    ">
		<path  d="M48.8711815,43.8880196h-7.3333359c-1.0129242,0-1.8333321-0.8204117-1.8333321-1.8333321v-3.6666679
			c0-1.0129204,0.8204079-1.8333321,1.8333321-1.8333321h7.3333359c1.0129242,0,1.8333321,0.8204117,1.8333321,1.8333321v3.6666679
			C50.7045135,43.0676079,49.8841057,43.8880196,48.8711815,43.8880196z"/>
	</g>
	<g opacity="0.3" enable-background="new    ">
		<path  d="M21.3711796,32.8880196h-7.333333c-1.0129261,0-1.833333-0.8204117-1.833333-1.8333321v-3.666666
			c0-1.0129204,0.8204069-1.833334,1.833333-1.833334h7.333333c1.012928,0,1.833334,0.8204136,1.833334,1.833334v3.666666
			C23.2045135,32.0676079,22.3841076,32.8880196,21.3711796,32.8880196z"/>
	</g>
	<g opacity="0.3" enable-background="new    ">
		<path  d="M48.8711815,32.8880196h-7.3333359c-1.0129242,0-1.8333321-0.8204117-1.8333321-1.8333321v-3.666666
			c0-1.0129204,0.8204079-1.833334,1.8333321-1.833334h7.3333359c1.0129242,0,1.8333321,0.8204136,1.8333321,1.833334v3.666666
			C50.7045135,32.0676079,49.8841057,32.8880196,48.8711815,32.8880196z"/>
	</g>
</g>
</svg>
