<?xml version="1.0" encoding="utf-8"?>
<!-- Generator: Adobe Illustrator 23.0.3, SVG Export Plug-In . SVG Version: 6.00 Build 0)  -->
<svg version="1.1" xmlns="http://www.w3.org/2000/svg" xmlns:xlink="http://www.w3.org/1999/xlink" x="0px" y="0px"
	 viewBox="0 0 57.7799988 43.4700012" enable-background="new 0 0 57.7799988 43.4700012" xml:space="preserve" width="55px" height="40px">
<g>
	<path d="M54.8867569,25.0502739c0.828125,0,1.5-0.671875,1.5-1.5V7.9667773c0-3.8598633-3.140625-7-7-7H8.1372461
		c-3.8598633,0-7,3.1401367-7,7v26.5834961c0,3.859375,3.1401367,7,7,7h41.2495117c3.859375,0,7-3.140625,7-7
		c0-0.828125-0.671875-1.5-1.5-1.5s-1.5,0.671875-1.5,1.5c0,2.2060547-1.7939453,4-4,4H8.1372461c-2.2055664,0-4-1.7939453-4-4
		V7.9667773c0-2.2055664,1.7944336-4,4-4h41.2495117c2.2060547,0,4,1.7944336,4,4v15.5834961
		C53.3867569,24.3783989,54.0586319,25.0502739,54.8867569,25.0502739z"/>
	<path d="M48.1367569,13.4667778c0-0.8286133-0.671875-1.5-1.5-1.5h-13.75c-0.828125,0-1.5,0.6713867-1.5,1.5
		s0.671875,1.5,1.5,1.5h13.75C47.4648819,14.9667778,48.1367569,14.2953911,48.1367569,13.4667778z"/>
	<path d="M43.8867569,20.2162895h-11c-0.828125,0-1.5,0.671875-1.5,1.5s0.671875,1.5,1.5,1.5h11
		c0.828125,0,1.5-0.671875,1.5-1.5S44.7148819,20.2162895,43.8867569,20.2162895z"/>
	<path d="M43.8867569,26.6332817h-11c-0.828125,0-1.5,0.671875-1.5,1.5s0.671875,1.5,1.5,1.5h11
		c0.828125,0,1.5-0.671875,1.5-1.5S44.7148819,26.6332817,43.8867569,26.6332817z"/>
	<path d="M8.4707422,29.9662895v1.8339844c0,0.828125,0.6713867,1.5,1.5,1.5h15.5830069
		c0.828125,0,1.5-0.671875,1.5-1.5v-1.8339844c0-3.3632202-2.1118774-6.2354126-5.0762329-7.380249
		c1.4205933-1.2008667,2.3262329-2.9928589,2.3262329-4.9942627v-1.8334961c0-3.6069336-2.9345703-6.5415039-6.5419922-6.5415039
		c-3.6069326,0-6.5410147,2.9345703-6.5410147,6.5415039v1.8334961c0,2.0013428,0.9054565,3.793335,2.3258057,4.9942017
		C10.5824976,23.7307549,8.4707422,26.6030083,8.4707422,29.9662895z M14.2207422,15.7582817
		c0-1.9526367,1.5888672-3.5415039,3.5410147-3.5415039c1.953125,0,3.5419922,1.5888672,3.5419922,3.5415039v1.8334961
		c0,1.9526367-1.5888672,3.5415039-3.5419922,3.5415039c-1.9521475,0-3.5410147-1.5888672-3.5410147-3.5415039V15.7582817z
		 M11.4707422,29.9662895c0-2.7109375,2.2050781-4.9160156,4.9160147-4.9160156h2.75
		c2.7109375,0,4.9169922,2.2050781,4.9169922,4.9160156v0.3339844H11.4707422V29.9662895z"/>
</g>
</svg>
