<?xml version="1.0" encoding="utf-8"?>
<!-- Generator: Adobe Illustrator 23.0.3, SVG Export Plug-In . SVG Version: 6.00 Build 0)  -->
<svg version="1.1" id="Слой_1" xmlns="http://www.w3.org/2000/svg" xmlns:xlink="http://www.w3.org/1999/xlink" x="0px" y="0px"
	 viewBox="0 0 62.9099998 56.6100006" enable-background="new 0 0 62.9099998 56.6100006" xml:space="preserve" width="55px" height="55px">
<g>
	<path  d="M57.1215057,6.6382518h-4V2.638252c0-0.8286134-0.671875-1.5000001-1.5-1.5000001
		s-1.5,0.6713867-1.5,1.5000001V7.517158l-1.5830078,1.5830083V6.3047557c0-0.8286133-0.671875-1.5-1.5-1.5s-1.5,0.6713867-1.5,1.5
		v5.7954106L32.5986176,25.0400467c-0.9998798-0.6206055-2.1743793-0.9852905-3.4351215-0.9852905
		c-3.6074219,0-6.5419922,2.9345703-6.5419922,6.5415039s2.9345703,6.5415039,6.5419922,6.5415039
		c3.6064472,0,6.5410175-2.9345703,6.5410175-6.5415039c0-1.2606812-0.364624-2.4351196-0.9849854-3.4349365l4.4229126-4.4229126
		c1.7642822,2.2324829,2.7290649,4.9709473,2.7290649,7.8578491c0,7.0073242-5.7011719,12.7084961-12.7080097,12.7084961
		c-7.0078125,0-12.7089844-5.7011719-12.7089844-12.7084961s5.7011719-12.7080078,12.7089844-12.7080078
		c1.4033203,0,2.7832031,0.2270508,4.0996113,0.6748047c0.7841797,0.2680664,1.6367188-0.152832,1.9033203-0.9370117
		s-0.1523438-1.6362305-0.9365234-1.902832c-1.6289063-0.5541992-3.3330097-0.8349609-5.0664082-0.8349609
		c-8.6621094,0-15.7089844,7.0463867-15.7089844,15.7080078s7.046875,15.7084961,15.7089844,15.7084961
		c8.6611347,0,15.7080097-7.046875,15.7080097-15.7084961c0-3.6893921-1.2688599-7.1853638-3.5935669-9.9933472l4.3616943-4.3616943
		c3.479187,3.9841309,5.3988647,9.0188599,5.3988647,14.3550415c0,12.0620117-9.8134766,21.8754883-21.8750019,21.8754883
		s-21.875-9.8134766-21.875-21.8754883s9.8134766-21.875,21.875-21.875c2.6582031,0,5.2558613,0.4716797,7.720705,1.4013672
		c0.7724609,0.2944336,1.640625-0.0986328,1.9326172-0.8740234c0.2929688-0.7749023-0.0986328-1.6401372-0.8740234-1.9326177
		c-2.8046875-1.0581055-5.7578125-1.5947266-8.7792988-1.5947266c-13.7158203,0-24.875,11.1586914-24.875,24.875
		s11.1591797,24.8754883,24.875,24.8754883s24.8750019-11.1591797,24.8750019-24.8754883
		c0-6.0860596-2.1789551-11.8386841-6.1577759-16.375h5.5737915c0.828125,0,1.5-0.6713867,1.5-1.5s-0.671875-1.5-1.5-1.5h-2.7949219
		l1.5830078-1.5830078h4.8789063c0.828125,0,1.5-0.6713867,1.5-1.5S57.9496307,6.6382518,57.1215057,6.6382518z
		 M33.1453094,30.5963821c0,2.1992188-1.7828388,3.9820557-3.9820576,3.9820557s-3.9820557-1.7828369-3.9820557-3.9820557
		s1.7828369-3.9820557,3.9820557-3.9820557c0.5493164,0,1.0725708,0.1113281,1.548584,0.3125l-2.1508789,2.1508789
		c-0.5859375,0.5854492-0.5859375,1.5356445,0,2.1210938c0.2929688,0.2929688,0.6767578,0.4394531,1.0605469,0.4394531
		s0.7675781-0.1464844,1.0605469-0.4394531l2.1508198-2.1508179C33.0339813,29.5239944,33.1453094,30.0471878,33.1453094,30.5963821
		z"/>
</g>
</svg>
