<?xml version="1.0" encoding="utf-8"?>
<!-- Generator: Adobe Illustrator 23.0.3, SVG Export Plug-In . SVG Version: 6.00 Build 0)  -->
<svg version="1.1"  xmlns="http://www.w3.org/2000/svg" xmlns:xlink="http://www.w3.org/1999/xlink" x="0px" y="0px"
	 viewBox="0 0 26.5786705 56.6100006" enable-background="new 0 0 26.5786705 56.6100006" xml:space="preserve" width="25px" height="40px">
<g>
	<g opacity="0.3" enable-background="new    ">
		<path d="M18.3296452,45.8469925c-0.7109375,0-1.3417969-0.5068359-1.4736328-1.2314453L13.1890202,24.448555
			c-0.1484375-0.8154297,0.3925781-1.5961914,1.2070313-1.7441406c0.8154297-0.1494141,1.5957031,0.3920898,1.7441406,1.2070313
			l3.6669922,20.1669922c0.1484375,0.8154297-0.3925781,1.5957031-1.2070313,1.7441406
			C18.5093327,45.83918,18.4185123,45.8469925,18.3296452,45.8469925z"/>
	</g>
	<path d="M25.8931217,45.0139847l-5.0803223-27.9432983l3.4436035-6.8862915
		c0.1035156-0.2084961,0.1582031-0.4379883,0.1582031-0.6708984V4.9299998c0-2.3432615-1.90625-4.25-4.25-4.25h-13.75
		c-2.34375,0-4.25,1.9067383-4.25,4.25v4.5834966c0,0.8286133,0.671875,1.5,1.5,1.5s1.5-0.6713867,1.5-1.5V4.9299998
		c0-0.6894531,0.5605469-1.2499998,1.25-1.2499998h13.75c0.6894531,0,1.25,0.5605466,1.25,1.2499998v4.2294927l-3.0941772,6.1870117
		H7.3315978c-0.7246094,0-1.3457031,0.5185547-1.4755859,1.2314453L0.6851134,45.0149612
		c-0.3095703,1.703125,0.4326172,3.40625,1.890625,4.3388672l9.9052734,6.3398438
		c0.2460938,0.1572266,0.5273438,0.2363281,0.8085938,0.2363281s0.5625-0.0791016,0.8085938-0.2363281l9.9052734-6.3398438
		C25.4624577,48.4192581,26.2036686,46.7161331,25.8931217,45.0139847z M22.3862858,46.8264847l-9.0966797,5.8222656
		l-9.0966797-5.8222656c-0.4287109-0.2744141-0.6474609-0.7753906-0.5566406-1.2753906l4.9472661-27.2045898h9.4121094
		l4.9462891,27.2055664C23.0327702,46.0520706,22.8149967,46.5520706,22.3862858,46.8264847z"/>
</g>
</svg>
