<?xml version="1.0" encoding="utf-8"?>
<!-- Generator: Adobe Illustrator 23.0.3, SVG Export Plug-In . SVG Version: 6.00 Build 0)  -->
<svg version="1.1"  xmlns="http://www.w3.org/2000/svg" xmlns:xlink="http://www.w3.org/1999/xlink" x="0px" y="0px"
	 viewBox="0 0 40 40" enable-background="new 0 0 40 40" xml:space="preserve" width="38px" height="38px">
<g>
	<path d="M26.4383545,14.6690674c-0.541626,0.3201904-1.1395264,0.5527344-1.7766113,0.678772
		c-0.5101318-0.5441895-1.2357178-0.8831787-2.0405884-0.8831787c-1.5440063,0-2.7959595,1.2519531-2.7959595,2.795166
		c0,0.2188721,0.0246582,0.4326172,0.0723877,0.6370239c-2.3233643-0.1166382-4.3834839-1.2297974-5.7623291-2.9212036
		c-0.2410278,0.4122314-0.3781738,0.8925171-0.3781738,1.4052734c0,0.9700317,0.4939575,1.8259277,1.2434692,2.3267212
		c-0.4581909-0.0153198-0.8891602-0.1413574-1.2664185-0.3508911v0.0349121c0,1.354126,0.9640503,2.484314,2.2424316,2.7415161
		c-0.2342529,0.0630493-0.4812012,0.0979614-0.7366943,0.0979614c-0.180542,0-0.3551636-0.0178833-0.5263672-0.052002
		c0.3560181,1.1114502,1.3882446,1.9196777,2.6112061,1.9418335c-0.9564209,0.7494507-2.1623535,1.1948853-3.472229,1.1948853
		c-0.225647,0-0.447937-0.0136108-0.6668091-0.0383301c1.2374268,0.7946167,2.706604,1.2579346,4.2855835,1.2579346
		c5.1431274,0,7.9545288-4.2600708,7.9545288-7.9545288l-0.0093994-0.3619995
		c0.5493164-0.3917847,1.0245361-0.8840332,1.3984375-1.444397c-0.5016479,0.222229-1.039917,0.3729858-1.6054077,0.4403076
		C25.7868652,15.8690796,26.2288818,15.3206177,26.4383545,14.6690674z"/>
	<path  d="M20,0.8828125C9.4589844,0.8828125,0.8828125,9.4589844,0.8828125,20S9.4589844,39.1171875,20,39.1171875
		S39.1171875,30.5410156,39.1171875,20S30.5410156,0.8828125,20,0.8828125z M20,38.1171875
		c-9.9902344,0-18.1171875-8.1274414-18.1171875-18.1171875S10.0097656,1.8828125,20,1.8828125S38.1171875,10.0102539,38.1171875,20
		S29.9902344,38.1171875,20,38.1171875z"/>
</g>
</svg>
