<?xml version="1.0" encoding="utf-8"?>
<!-- Generator: Adobe Illustrator 23.0.3, SVG Export Plug-In . SVG Version: 6.00 Build 0)  -->
<svg version="1.1" id="Слой_1" xmlns="http://www.w3.org/2000/svg" xmlns:xlink="http://www.w3.org/1999/xlink" x="0px" y="0px"
	 viewBox="0 0 40 40" enable-background="new 0 0 40 40" xml:space="preserve" width="38px" height="38px">
<g>
	<path  d="M28.4865112,17.8192139c0.4835815-0.6700439,0.9782104-1.3369751,1.2324219-2.1372681
		c0.1613159-0.5100708,0.0181885-0.7347412-0.5042114-0.8237915c-0.0889893-0.0152588-0.1820068-0.0166016-0.2739258-0.0166016
		l-3.0999146-0.0027466c-0.382019-0.0073853-0.5934448,0.1594849-0.7281494,0.4985962
		c-0.1818237,0.4569702-0.3694458,0.9143677-0.5876465,1.3547974c-0.4916992,1.0015869-1.0421143,1.9688721-1.8132935,2.7873535
		c-0.1708374,0.180542-0.3585205,0.4083252-0.6432495,0.3152466c-0.3557739-0.1307373-0.4599609-0.7168579-0.4544067-0.9143677
		l-0.0028076-3.5777588c-0.069397-0.5101929-0.1820068-0.7379761-0.6890869-0.8380737H17.701355
		c-0.4295044,0-0.6449585,0.1669312-0.8740234,0.4350586c-0.131897,0.1555176-0.1724243,0.2568359,0.0999756,0.3084717
		c0.5337524,0.1012573,0.835083,0.4475708,0.9144287,0.9825439c0.1292114,0.8571777,0.1194458,1.7158813,0.0458374,2.5760498
		c-0.0222778,0.250061-0.0654297,0.5014648-0.1641235,0.7349243c-0.1554565,0.3681641-0.4071045,0.4431763-0.7376099,0.2168579
		c-0.2987671-0.2044067-0.5085449-0.494751-0.7142944-0.7851563c-0.772583-1.0907593-1.3881226-2.2675171-1.8911133-3.5043945
		c-0.145874-0.3569336-0.3960571-0.5736694-0.7739258-0.5792236c-0.9308472-0.0155029-1.8604736-0.0167847-2.7902222,0.0012817
		c-0.5598755,0.0096436-0.7266235,0.2820435-0.4986572,0.7894897c1.0128784,2.2523193,2.1398315,4.4432983,3.6113892,6.4371948
		c0.7557983,1.0239868,1.6242065,1.9284668,2.7440186,2.5691528c1.2701416,0.7267456,2.6373901,0.9447021,4.078064,0.87677
		c0.6741333-0.0307007,0.8769531-0.2071533,0.9074707-0.8782349c0.0222778-0.4599609,0.0736084-0.9169922,0.3000488-1.3297119
		c0.2223511-0.4057617,0.5600586-0.4830933,0.9490967-0.2305298c0.194519,0.1262817,0.3572998,0.2860718,0.5128784,0.4558716
		c0.3793945,0.4155273,0.744812,0.8432617,1.1394043,1.2451782c0.493042,0.5025635,1.0794067,0.7984619,1.8144531,0.7374878
		l2.8499756,0.0012817c0.4584961-0.0305176,0.6974487-0.5932007,0.4335938-1.1044922
		c-0.1862183-0.3596802-0.4296265-0.6795044-0.6867065-0.9894409c-0.5820313-0.6974487-1.2669067-1.2935791-1.9158325-1.927124
		c-0.585144-0.5706787-0.6224976-0.9019165-0.1514893-1.559021C27.416626,19.2253418,27.9695435,18.5344849,28.4865112,17.8192139z"
		/>
	<path  d="M20,0.8828125C9.4589844,0.8828125,0.8828125,9.4589844,0.8828125,20S9.4589844,39.1171875,20,39.1171875
		S39.1171875,30.5410156,39.1171875,20S30.5410156,0.8828125,20,0.8828125z M20,38.1171875
		c-9.9902344,0-18.1171875-8.1274414-18.1171875-18.1171875S10.0097656,1.8828125,20,1.8828125S38.1171875,10.0102539,38.1171875,20
		S29.9902344,38.1171875,20,38.1171875z"/>
</g>
</svg>
