# 3ds Max Wavefront OBJ Exporter v0.97b - (c)2007 guruware
# File Created: 06.02.2019 05:09:36

mtllib Buttonholes_2.mtl

#
# object Buttonholes_2
#

v  0.9006 3.4265 -0.0585
v  0.8908 3.4249 -0.0682
v  0.8983 3.4474 -0.0583
v  0.8886 3.4453 -0.0693
v  0.8983 3.4475 -0.0582
v  0.9018 3.4200 -0.0581
v  0.8930 3.4180 -0.0669
v  0.8730 3.4143 -0.0793
v  0.8699 3.4137 -0.0813
v  0.8716 3.4165 -0.0800
v  0.8708 3.4419 -0.0824
v  0.8764 3.4430 -0.0788
v  0.8751 3.4147 -0.0779
v  0.8518 3.4108 -0.0939
v  0.8395 3.4093 -0.1020
v  0.8385 3.4163 -0.1025
v  0.8460 3.4213 -0.0975
v  0.8582 3.4117 -0.0896
v  0.8565 3.4296 -0.0903
v  0.8478 3.4386 -0.0972
v  0.8555 3.4396 -0.0920
v  0.8417 3.4377 -0.1016
v  0.8641 3.4409 -0.0864
v  0.8383 3.4372 -0.1040
v  0.9288 3.3658 -0.0302
v  0.9281 3.3674 -0.0333
v  0.9285 3.3678 -0.0305
v  0.9329 3.3445 -0.0263
v  0.9325 3.3441 -0.0291
v  0.9231 3.3413 -0.0406
v  0.9144 3.3441 -0.0509
v  0.9127 3.3666 -0.0522
v  0.9226 3.3695 -0.0399
v  0.9148 3.3388 -0.0512
v  0.8974 3.3548 -0.0639
v  0.9052 3.3648 -0.0579
v  0.9273 3.3710 -0.0334
v  0.9276 3.3713 -0.0308
v  0.8961 3.3627 -0.0653
v  0.8957 3.3343 -0.0673
v  0.8917 3.3332 -0.0708
v  0.8910 3.3390 -0.0706
v  0.8804 3.3597 -0.0779
v  0.8872 3.3610 -0.0720
v  0.8848 3.3317 -0.0765
v  0.8752 3.3464 -0.0827
v  0.8729 3.3583 -0.0839
v  0.8794 3.3307 -0.0810
# 48 vertices

vn 0.6948 0.0843 -0.7143
vn 0.6233 0.0088 -0.7819
vn 0.6952 0.0842 -0.7139
vn 0.6804 0.0344 -0.7320
vn 0.7458 0.0458 -0.6646
vn 0.6949 0.0837 -0.7142
vn 0.5748 0.0242 -0.8179
vn 0.5422 0.0626 -0.8379
vn 0.5696 0.0322 -0.8213
vn 0.5417 -0.0341 -0.8399
vn 0.5380 -0.0607 -0.8408
vn 0.5915 -0.0021 -0.8063
vn 0.5263 0.0082 -0.8503
vn 0.5480 0.0175 -0.8363
vn 0.5458 0.0158 -0.8378
vn 0.5597 -0.0144 -0.8286
vn 0.5686 -0.0159 -0.8224
vn 0.5660 0.0237 -0.8240
vn 0.5621 -0.0276 -0.8266
vn 0.5750 -0.0662 -0.8155
vn 0.5563 -0.0849 -0.8266
vn 0.5874 -0.0458 -0.8080
vn 0.5291 -0.0659 -0.8460
vn 0.5757 -0.0510 -0.8161
vn 0.9797 0.1664 -0.1116
vn 0.8083 0.0493 -0.5867
vn 0.9703 0.2108 -0.1186
vn 0.9797 0.1667 -0.1113
vn 0.7927 0.0408 -0.6083
vn 0.7718 0.0560 -0.6334
vn 0.7088 0.0352 -0.7045
vn 0.7166 0.0166 -0.6973
vn 0.7743 0.0303 -0.6321
vn 0.6611 0.0797 -0.7461
vn 0.6304 0.0394 -0.7753
vn 0.6122 -0.0023 -0.7907
vn 0.8796 0.1829 -0.4391
vn 0.9672 0.2241 -0.1199
vn 0.6211 -0.0335 -0.7830
vn 0.6343 0.0814 -0.7688
vn 0.6303 0.0947 -0.7705
vn 0.6318 0.0667 -0.7723
vn 0.6364 0.0569 -0.7693
vn 0.6250 0.0079 -0.7806
vn 0.6286 0.0861 -0.7730
vn 0.6254 0.0679 -0.7774
vn 0.6188 0.0426 -0.7844
vn 0.6295 0.0849 -0.7724
# 48 vertex normals

vt -0.0000 0.2390 0.0000
vt 0.1749 0.2609 0.0000
vt -0.0000 0.9940 0.0000
vt 0.1916 1.0000 0.0000
vt -0.0000 1.0000 0.0000
vt -0.0000 0.0000 0.0000
vt 0.1569 0.0000 0.0000
vt 0.4498 0.0000 0.0000
vt 0.4997 0.0000 0.0000
vt 0.4636 0.0893 0.0000
vt 0.4730 1.0000 0.0000
vt 0.3891 1.0000 0.0000
vt 0.4168 0.0000 0.0000
vt 0.8065 0.0000 0.0000
vt 1.0000 0.0000 0.0000
vt 1.0000 0.2541 0.0000
vt 0.8746 0.3991 0.0000
vt 0.7046 0.0000 0.0000
vt 0.6919 0.6386 0.0000
vt 0.8380 1.0000 0.0000
vt 0.7128 1.0000 0.0000
vt 0.9437 1.0000 0.0000
vt 0.5740 1.0000 0.0000
vt 1.0000 1.0000 0.0000
vt 0.0000 0.7960 0.0000
vt 0.0290 0.8694 0.0000
vt 0.0000 0.8700 0.0000
vt 0.0000 0.0000 0.0000
vt 0.0290 0.0000 0.0000
vt 0.2100 0.0000 0.0000
vt 0.3571 0.1940 0.0000
vt 0.3303 1.0000 0.0000
vt 0.1294 1.0000 0.0000
vt 0.3808 0.0000 0.0000
vt 0.5815 0.7141 0.0000
vt 0.4432 1.0000 0.0000
vt 0.0290 1.0000 0.0000
vt 0.0000 1.0000 0.0000
vt 0.5934 1.0000 0.0000
vt 0.7153 0.0000 0.0000
vt 0.7852 0.0000 0.0000
vt 0.7634 0.2087 0.0000
vt 0.8728 1.0000 0.0000
vt 0.7419 1.0000 0.0000
vt 0.9025 0.0000 0.0000
vt 1.0000 0.5689 0.0000
# 46 texture coords

o Buttonholes_2
g Buttonholes_2
usemtl Unwrap_Texture_Checker_Material
s 1
f 1/1/1 2/2/2 3/3/3 
f 2/2/2 4/4/4 5/5/5 
f 2/2/2 5/5/5 3/3/3 
f 6/6/6 7/7/7 2/2/2 
f 6/6/6 2/2/2 1/1/1 
f 8/8/8 9/9/9 10/10/10 
f 2/2/2 10/10/10 11/11/11 
f 2/2/2 11/11/11 12/12/12 
f 2/2/2 12/12/12 4/4/4 
f 7/7/7 13/13/13 10/10/10 
f 7/7/7 10/10/10 2/2/2 
f 13/13/13 8/8/8 10/10/10 
f 14/14/14 15/15/15 16/16/16 
f 14/14/14 16/16/16 17/17/17 
f 18/18/18 14/14/14 17/17/17 
f 18/18/18 17/17/17 19/19/19 
f 10/10/10 9/9/9 18/18/18 
f 10/10/10 18/18/18 19/19/19 
f 19/19/19 20/20/20 21/21/21 
f 19/19/19 17/17/17 22/22/22 
f 19/19/19 22/22/22 20/20/20 
f 10/10/10 19/19/19 23/23/23 
f 10/10/10 23/23/23 11/11/11 
f 19/19/19 21/21/21 23/23/23 
f 17/17/17 16/16/16 24/24/24 
f 17/17/17 24/24/24 22/22/22 
f 25/25/25 26/26/26 27/27/27 
f 28/28/28 29/29/29 26/26/26 
f 28/28/28 26/26/26 25/25/25 
f 29/29/29 30/30/30 31/31/31 
f 29/29/29 31/31/31 26/26/26 
f 31/31/31 32/32/32 33/33/33 
f 31/31/31 33/33/33 26/26/26 
f 30/30/30 34/34/34 31/31/31 
f 31/31/31 35/35/35 36/36/36 
f 31/31/31 36/36/36 32/32/32 
f 27/27/27 26/26/26 37/37/37 
f 27/27/27 37/37/37 38/38/38 
f 26/26/26 33/33/33 37/37/37 
f 35/35/35 39/39/39 36/36/36 
f 40/40/40 41/41/41 42/42/42 
f 42/42/42 35/35/35 31/31/31 
f 34/34/34 40/40/40 42/42/42 
f 34/34/34 42/42/42 31/31/31 
f 35/35/35 42/42/42 43/43/43 
f 35/35/35 43/43/43 44/44/44 
f 35/35/35 44/44/44 39/39/39 
f 41/41/41 45/45/45 42/42/42 
f 42/42/42 46/46/46 47/24/47 
f 42/42/42 47/24/47 43/43/43 
f 45/45/45 48/15/48 46/46/46 
f 45/45/45 46/46/46 42/42/42 
# 0 polygons - 52 triangles

