<svg xmlns="http://www.w3.org/2000/svg" width="55" height="55" viewBox="0 0 55 55"><defs><style>.cls-1{fill:#fff;}.cls-2{fill:#bb1a23;}</style></defs><title>Нити</title><g id="Нити"><path class="cls-1" d="M38.5,5.5h-5V.5h-13v5h-5a2,2,0,0,0-2,2v40a2,2,0,0,0,2,2h5v5h13v-5h5a2,2,0,0,0,2-2V7.5A2,2,0,0,0,38.5,5.5Z"/><path class="cls-2" d="M15.058,13.395a.5.5,0,0,0,.463.312.491.491,0,0,0,.188-.037L29.715,7.963a.5.5,0,0,0-.377-.926L15.332,12.743A.5.5,0,0,0,15.058,13.395Z"/><path class="cls-2" d="M15.5,11.322a.5.5,0,0,0,.188-.037l8.155-3.322a.5.5,0,0,0-.377-.926l-8.155,3.322a.5.5,0,0,0,.188.963Z"/><path class="cls-2" d="M15.521,8.9a.5.5,0,0,0,.188-.037l2.218-.9a.5.5,0,1,0-.377-.926l-2.218.9a.5.5,0,0,0,.188.963Z"/><path class="cls-2" d="M48.395,42.146a44.858,44.858,0,0,0-5.635,1.778c-.585.213-1.172.42-1.76.625v-.967a.5.5,0,0,0-1,0v.543L26.114,38.469l1.633-.665c.906.37,1.817.77,2.734,1.175,3.562,1.568,7.244,3.19,11.187,3.221h.076c3.553,0,6.463-1.951,8.2-5.5a14.424,14.424,0,0,0,.291-11.324,2.948,2.948,0,0,0-.723-1.208,2.291,2.291,0,0,0-3.058.236,4.808,4.808,0,0,0-1.2,2.623,17.363,17.363,0,0,0,2.081,11.768A7.527,7.527,0,0,1,41.675,41.2c-.226,0-.45-.026-.675-.039V27.507h0v-.012h0V7.5A2.5,2.5,0,0,0,38.5,5h-23A2.5,2.5,0,0,0,13,7.5V42.809A23.818,23.818,0,0,1,2.283,31.5,12.238,12.238,0,0,1,1.6,22.614c.15-.405.309-.634.483-.7.219-.077.551.068.991.438a20.439,20.439,0,0,1,6.521,10.26.5.5,0,0,0,.967-.258A21.455,21.455,0,0,0,3.715,21.59a2.053,2.053,0,0,0-1.977-.612,2,2,0,0,0-1.079,1.29c-1.3,3.514-.333,7.17.7,9.618A24.954,24.954,0,0,0,13,43.955V47.5A2.5,2.5,0,0,0,15.5,50h23A2.5,2.5,0,0,0,41,47.5V45.611c.7-.242,1.4-.492,2.1-.747a44.134,44.134,0,0,1,5.507-1.741.5.5,0,1,0-.215-.977Zm-2.161-14.93a3.936,3.936,0,0,1,.916-2.1,1.592,1.592,0,0,1,1.059-.437.918.918,0,0,1,.63.224,2.08,2.08,0,0,1,.458.817,13.42,13.42,0,0,1-.252,10.535,11.087,11.087,0,0,1-1.027,1.709A16.321,16.321,0,0,1,46.233,27.217ZM40,46.519,20.3,38.494l1.612-.657L40,45.206Zm0-10.034-3.545,1.445-1.55-.632L40,35.222Zm0,1.079v1.81l-2.22-.9Zm0-20.19-2.22-.9,2.22-.9Zm0-2.889-3.545,1.445-1.55-.632L40,13.222Zm-6.42,1.353L40,18.453v1.263l-7.97-3.247ZM40,12.143l-9.295,3.786-1.633-.665L40,10.812ZM27.747,15.8,40,20.8v1.331L26.114,16.469ZM40,9.732l-15.211,6.2L23.238,15.3,40,8.468ZM21.914,15.838,40,23.206v1.313L20.3,16.494ZM40,29.389,18.979,37.954h0l-1.408-.573L40,28.243ZM23.238,37.3,40,30.468v1.264l-15.211,6.2ZM40,32.812v1.331l-9.355,3.811-.006,0c-.533-.235-1.062-.458-1.592-.684Zm-8.084,5.7,1.664-.678L40,40.453v.624A29.878,29.878,0,0,1,31.916,38.516ZM14,47.5V7.5A1.5,1.5,0,0,1,15.5,6h23a1.5,1.5,0,0,1,1.489,1.393L18.979,15.954h0l-1.407-.573L35.779,7.963a.5.5,0,0,0-.377-.926L15.312,15.223a.5.5,0,0,0,.188.963.491.491,0,0,0,.188-.037l.558-.227L40,25.6v1.158l-24.291-9.9a.5.5,0,0,0-.377.926l21.118,8.6-1.386.565h0L15.688,19.061a.5.5,0,0,0-.377.926L30.8,26.3l-1.55.632L15.688,21.4a.5.5,0,0,0-.377.926l9.658,3.935-1.634.666-7.627-3.108a.5.5,0,0,0-.377.926L19.137,26.3l-1.551.632-1.9-.773a.5.5,0,0,0-.377.926l.95.387-.95.387a.5.5,0,0,0,.188.963.491.491,0,0,0,.188-.037l4.773-1.945,1.55.632-6.7,2.73a.5.5,0,1,0,.377.926L26.295,26.8l1.634.666-12.617,5.14a.5.5,0,0,0,.188.963.491.491,0,0,0,.188-.037l16.44-6.7,1.611.656-18.407,7.5a.5.5,0,0,0,.188.963.491.491,0,0,0,.188-.037l22.066-8.99,1.4.571L15.332,37.214a.5.5,0,0,0,.188.963.491.491,0,0,0,.188-.037l.537-.219L39.99,47.594a1.492,1.492,0,0,1-.444.977l-23.858-9.72a.5.5,0,0,0-.377.926L37.949,49h-3.49l0,0L15.688,41.352a.5.5,0,0,0-.377.926L31.813,49h-3.1L15.688,43.694a.5.5,0,0,0-.377.926L26.063,49H22.743a.476.476,0,0,0-.082-.055L15.688,46.1a.5.5,0,0,0-.377.926L20.145,49H17.056l-1.339-.647a.5.5,0,0,0-.668.232.491.491,0,0,0-.03.329A1.5,1.5,0,0,1,14,47.5Z"/><path class="cls-2" d="M53.7,42.543a4.053,4.053,0,0,0-2.771-.778c-.106.008-.211.017-.315.026-.132-.183-.263-.368-.4-.558-.247-.353-.5-.7-.758-1.046a.5.5,0,1,0-.793.607c.253.331.493.673.733,1.015a18.175,18.175,0,0,0,1.418,1.84,6.2,6.2,0,0,0,1.462,1.223,3.585,3.585,0,0,0,1.678.593,1.156,1.156,0,0,0,.448-.083.809.809,0,0,0,.5-.655C55.016,43.9,53.928,42.72,53.7,42.543Zm-.918,1.464a5.239,5.239,0,0,1-1.226-1.032c-.066-.072-.132-.146-.2-.22a3.075,3.075,0,0,1,1.731.582,3.659,3.659,0,0,1,.8,1.125A3.182,3.182,0,0,1,52.778,44.007Z"/><path d="M33.5,0h-13a.5.5,0,0,0-.5.5v3a.5.5,0,0,0,1,0V1h9v.5a.5.5,0,0,0,1,0V1h2V3.5a.5.5,0,0,0,1,0V.5A.5.5,0,0,0,33.5,0Z"/><path d="M33.5,51a.5.5,0,0,0-.5.5V54H31v-.5a.5.5,0,0,0-1,0V54H21V51.5a.5.5,0,0,0-1,0v3a.5.5,0,0,0,.5.5h13a.5.5,0,0,0,.5-.5v-3A.5.5,0,0,0,33.5,51Z"/></g></svg>