<svg xmlns="http://www.w3.org/2000/svg" width="55" height="55" viewBox="0 0 55 55"><defs><style>.cls-1{fill:#fff;}.cls-2{fill:#bb1a23;}</style></defs><title>Контрасты</title><g id="Контрасты"><path class="cls-1" d="M28.729,54.688c6.354,0,8.438-2.979,12.021-2.979-.82-10.207-1.18-19.8-.313-27.771A18.307,18.307,0,0,1,44,31L42.5,50.5,48,51l3-13a26.56,26.56,0,0,0-1.5-16,77.381,77.381,0,0,0-6-13L34.094,5.063l-.052-.312L32.5,1.5a11.179,11.179,0,0,0-5-1,11.179,11.179,0,0,0-5,1L21.042,4.75l-.083.312L11.5,9a77.381,77.381,0,0,0-6,13A26.56,26.56,0,0,0,4,38L7,51l5.5-.5L11,31c.708-2.625,2.125-5.688,3.563-7.063a180.021,180.021,0,0,1-.229,27.813c3.5,0,5.833,2.979,11.771,2.979Z"/><path d="M28,7a.5.5,0,1,1-.5-.5A.5.5,0,0,1,28,7Zm-.609,4a.5.5,0,1,0,.5.5A.5.5,0,0,0,27.391,11Zm0,6a.5.5,0,1,0,.5.5A.5.5,0,0,0,27.391,17Zm0,24a.5.5,0,1,0,.5.5A.5.5,0,0,0,27.391,41ZM25.5,40a.5.5,0,0,0-.5.5V53.993a14.374,14.374,0,0,1-6.18-1.539,10.866,10.866,0,0,0-4.025-1.187,178.931,178.931,0,0,0,.663-19.61.477.477,0,0,0-.512-.488.5.5,0,0,0-.488.512,178.253,178.253,0,0,1-.706,20.025.5.5,0,0,0,.5.545,9.338,9.338,0,0,1,4.159,1.116A15.272,15.272,0,0,0,25.5,55a.5.5,0,0,0,.5-.5v-14A.5.5,0,0,0,25.5,40ZM33.863,7.51C33.17,8.6,32.175,10.021,31.2,11.4a.5.5,0,0,1-.408.212.552.552,0,0,1-.069,0,.5.5,0,0,1-.4-.33L29.613,9.24H26V18.5a.5.5,0,0,1-1,0V10.347l-.324.926a.5.5,0,0,1-.4.33.552.552,0,0,1-.069,0A.5.5,0,0,1,23.8,11.4c-.859-1.216-1.725-2.456-2.4-3.483l-8.314,3.667c1.088,3.48,1.8,8.626,2.2,15.832a.5.5,0,0,1-.471.527H14.79a.5.5,0,0,1-.5-.472c-.043-.764-.09-1.5-.141-2.217A19.749,19.749,0,0,0,11.5,31.043L13,50.462a.5.5,0,0,1-.453.536l-5.5.5L7,51.5a.5.5,0,0,1-.487-.388l-2.9-12.573A27.363,27.363,0,0,1,4.4,23.461,81.181,81.181,0,0,1,11.069,8.746a.461.461,0,0,1,.038-.043.482.482,0,0,1,.061-.068A72.785,72.785,0,0,1,11.3,8.54l9.248-3.928a2.842,2.842,0,0,1,.16-.454L22.036,1.29a.452.452,0,0,1,.028-.04.464.464,0,0,1,.125-.139c.013-.01.021-.024.035-.033s.033-.016.048-.025h0A11.13,11.13,0,0,1,27.49,0a11.212,11.212,0,0,1,5.187,1.035.49.49,0,0,1,.288.255l1.323,2.867A3.456,3.456,0,0,1,33.863,7.51ZM27.49,1a10.5,10.5,0,0,0-4.475.784,2.563,2.563,0,0,0,.822,1.522,11.151,11.151,0,0,1,7.321.005,2.573,2.573,0,0,0,.826-1.517A10.439,10.439,0,0,0,27.49,1ZM30.2,4.04a10.631,10.631,0,0,0-5.4,0,8.855,8.855,0,0,0,1.455.713h2.5A8.871,8.871,0,0,0,30.2,4.04ZM11.964,50.047l-.225-2.92-4.989.57.638,2.767Zm2.068-26.375c-.518-6.367-1.363-10.842-2.562-13.581a80.978,80.978,0,0,0-6.126,13.7,26.36,26.36,0,0,0-.758,14.527l1.939,8.4,5.138-.587L10.5,31.038a.508.508,0,0,1,.013-.158A20.913,20.913,0,0,1,14.031,23.671ZM12.768,10.628l8.11-3.577a3.936,3.936,0,0,1-.405-1.319L12.189,9.25Q12.493,9.879,12.768,10.628ZM25.609,5.575a8.146,8.146,0,0,1-2.2-1.321.489.489,0,0,1-.053-.05,4.428,4.428,0,0,1-1-1.205l-.728,1.578a2.524,2.524,0,0,0,.359,2.4l.052.08c.005.01.014.016.019.026v0c.543.845,1.257,1.883,2,2.942ZM29.27,8.26l-.878-2.51H26.607L25.73,8.26Zm4.109-3.683L32.651,3a6.262,6.262,0,0,1-3.26,2.576l1.556,4.449c.775-1.1,1.523-2.188,2.073-3.052A2.524,2.524,0,0,0,33.379,4.577Z"/><path class="cls-2" d="M50.6,23.461A81.181,81.181,0,0,0,43.931,8.746a.47.47,0,0,0-.038-.043.446.446,0,0,0-.155-.134A.489.489,0,0,0,43.7,8.54l-7.766-3.3a.5.5,0,1,0-.391.92L42.811,9.25q-.3.629-.578,1.378l-7.143-3.15a.5.5,0,1,0-.4.914l7.227,3.188c-1.088,3.48-1.8,8.625-2.2,15.831a.5.5,0,0,0,.471.527h.028a.5.5,0,0,0,.5-.472c.043-.764.09-1.5.141-2.216A19.751,19.751,0,0,1,43.5,31.043L42,50.462a.5.5,0,0,0,.453.536l5.5.5.046,0a.5.5,0,0,0,.487-.388l2.9-12.573A27.363,27.363,0,0,0,50.6,23.461Zm-2.991,27-4.575-.416.225-2.92,4.989.57Zm2.8-12.148-1.939,8.4-5.138-.587L44.5,31.038a.508.508,0,0,0-.013-.158,20.913,20.913,0,0,0-3.517-7.209c.518-6.367,1.363-10.842,2.562-13.581a80.978,80.978,0,0,1,6.126,13.7A26.36,26.36,0,0,1,50.415,38.314ZM29,18.5v-7a.5.5,0,0,1,1,0v7a.5.5,0,0,1-1,0ZM41.248,51.705a.5.5,0,0,1-.5.545,9.338,9.338,0,0,0-4.159,1.116A15.272,15.272,0,0,1,29.5,55h-2a.5.5,0,0,1,0-1H29V40.5a.5.5,0,0,1,1,0V53.993a14.374,14.374,0,0,0,6.18-1.539,10.866,10.866,0,0,1,4.025-1.187,178.834,178.834,0,0,1-.661-19.7.486.486,0,0,1,.513-.487.5.5,0,0,1,.487.513A178.173,178.173,0,0,0,41.248,51.705ZM27.5,39A9.5,9.5,0,1,0,18,29.5,9.511,9.511,0,0,0,27.5,39Zm0-18A8.5,8.5,0,1,1,19,29.5,8.51,8.51,0,0,1,27.5,21Zm0,16a7.5,7.5,0,0,0,0-15,.5.5,0,0,0-.5.5v14A.5.5,0,0,0,27.5,37Zm.5-1.667h2.365A6.452,6.452,0,0,1,28,35.981Zm2.486-11.6a6.526,6.526,0,0,1,1.355.933H28v-.933Zm2.253,1.933a6.5,6.5,0,0,1,.574.933H28v-.933Zm.975,1.933a6.454,6.454,0,0,1,.207.933H28V27.6ZM34,29.533a6.5,6.5,0,0,1-.078.933H28v-.933Zm-.307,1.933a6.458,6.458,0,0,1-.378.933H28v-.933Zm-1,1.933a6.549,6.549,0,0,1-.852.933H28V33.4ZM17,29.5a.5.5,0,0,1-.5.5h-3a.5.5,0,0,1,0-1h3A.5.5,0,0,1,17,29.5Zm25,0a.5.5,0,0,1-.5.5h-3a.5.5,0,0,1,0-1h3A.5.5,0,0,1,42,29.5ZM22.433,39.276l-1.5,2.6a.5.5,0,0,1-.434.25.493.493,0,0,1-.25-.067.5.5,0,0,1-.183-.683l1.5-2.6a.5.5,0,0,1,.866.5ZM32.567,19.724l1.5-2.6a.5.5,0,0,1,.866.5l-1.5,2.6a.5.5,0,0,1-.434.25.493.493,0,0,1-.25-.067A.5.5,0,0,1,32.567,19.724Zm-12.5-2.1a.5.5,0,0,1,.866-.5l1.5,2.6a.5.5,0,0,1-.183.683.493.493,0,0,1-.25.067.5.5,0,0,1-.434-.25Zm13.366,21.15,1.5,2.6a.5.5,0,0,1-.183.683.493.493,0,0,1-.25.067.5.5,0,0,1-.434-.25l-1.5-2.6a.5.5,0,0,1,.866-.5Z"/></g></svg>