<svg xmlns="http://www.w3.org/2000/svg" width="55" height="55" viewBox="0 0 55 55"><defs><style>.cls-1{fill:#fff;}.cls-2{fill:#bb1a23;}</style></defs><title>Монограмма</title><g id="Монограмма"><path class="cls-1" d="M18.7,28.285,25.278,12.3h9.869v.662H34.36a3.392,3.392,0,0,0-1.716.375,1.746,1.746,0,0,0-.715.84,7.262,7.262,0,0,0-.2,2.235V32.4a7.965,7.965,0,0,0,.2,2.324,1.782,1.782,0,0,0,.8.813,3.265,3.265,0,0,0,1.627.349h.787v.661H22.489v-.661h.787a3.394,3.394,0,0,0,1.716-.376,1.738,1.738,0,0,0,.715-.858,7.362,7.362,0,0,0,.2-2.252V16.875l-7.716,19.67H16.178L7.867,17.75V31.664a15.01,15.01,0,0,0,.089,2.2,2.546,2.546,0,0,0,1.01,1.457,4.205,4.205,0,0,0,2.44.563v.661H1.983v-.661h.25a3.785,3.785,0,0,0,1.5-.26,2.414,2.414,0,0,0,1.055-.742,3.411,3.411,0,0,0,.554-1.3q.035-.2.036-1.823V16.414a7.776,7.776,0,0,0-.2-2.3,1.8,1.8,0,0,0-.8-.8,3.263,3.263,0,0,0-1.626-.349H1.983V12.3h9.9Zm29.07-8.259H53.4v1.966H50.2a6.074,6.074,0,0,1,1.216,1.591,4.917,4.917,0,0,1,.429,2.02,5,5,0,0,1-.992,3.1,6.592,6.592,0,0,1-2.7,2.057c-1.546.671-3.3.625-4.838,1.3-.6.263-1.559.974-1.4,1.77.079.4.7.7,1.058.761a18.6,18.6,0,0,0,3.3.035q3.754,0,5.167.822a3.779,3.779,0,0,1,2.02,3.522,4.5,4.5,0,0,1-.93,2.762,5.455,5.455,0,0,1-2.449,1.833,14.917,14.917,0,0,1-5.31.876,17.948,17.948,0,0,1-4.112-.438,5.72,5.72,0,0,1-2.664-1.216,2.275,2.275,0,0,1-.8-1.636,2.091,2.091,0,0,1,.617-1.475,4.967,4.967,0,0,1,2.3-1.1A3.511,3.511,0,0,1,37.775,35.4a3.76,3.76,0,0,1,.947-2.4,7.549,7.549,0,0,1,3-2.02,7.354,7.354,0,0,1-3.468-2.307,5.363,5.363,0,0,1-1.073-3.308,5.532,5.532,0,0,1,2-4.246,7.417,7.417,0,0,1,5.149-1.8A9.34,9.34,0,0,1,47.769,20.025ZM43.887,39.011a5.32,5.32,0,0,0-2.045.253,1.389,1.389,0,0,0-.864,1.246,1.71,1.71,0,0,0,.894,1.373,6.4,6.4,0,0,0,3.363.616,8.134,8.134,0,0,0,3.31-.55,1.707,1.707,0,0,0,1.2-1.544.9.9,0,0,0-.227-.623,2.2,2.2,0,0,0-1.235-.608A32.941,32.941,0,0,0,43.887,39.011Zm.789-17.762a2.183,2.183,0,0,0-1.752.876q-.715.876-.715,3.633a4.884,4.884,0,0,0,.706,3.064,2.132,2.132,0,0,0,1.671.831,2.271,2.271,0,0,0,1.788-.824,5.118,5.118,0,0,0,.715-3.206,5.991,5.991,0,0,0-.8-3.655A1.94,1.94,0,0,0,44.676,21.25Z"/><line class="cls-1" x1="18.699" y1="28.285" x2="16.5" y2="33.208"/><path class="cls-2" d="M35.146,11.8H25.278a.5.5,0,0,0-.462.31l-6.125,14.88L12.347,12.105a.5.5,0,0,0-.46-.3h-9.9a.5.5,0,0,0-.5.5v.662a.5.5,0,0,0,.5.5h.769a2.8,2.8,0,0,1,1.378.282,1.336,1.336,0,0,1,.594.569,7.03,7.03,0,0,1,.156,2.1v15.34c0,1.428-.022,1.692-.022,1.709a2.948,2.948,0,0,1-.464,1.114,1.94,1.94,0,0,1-.844.582,3.106,3.106,0,0,1-1.316.225h-.25a.5.5,0,0,0-.5.5v.661a.5.5,0,0,0,.5.5h9.423a.5.5,0,0,0,.5-.5v-.661a.5.5,0,0,0-.5-.5,3.771,3.771,0,0,1-2.147-.469,2.034,2.034,0,0,1-.814-1.158,13.884,13.884,0,0,1-.078-2.093V20.117l7.354,16.63a.5.5,0,0,0,.458.3h2.009a.5.5,0,0,0,.465-.317L25.4,19.519V32.4a6.587,6.587,0,0,1-.154,2.051,1.276,1.276,0,0,1-.51.628,2.932,2.932,0,0,1-1.464.308h-.787a.5.5,0,0,0-.5.5v.661a.5.5,0,0,0,.5.5H35.146a.5.5,0,0,0,.5-.5v-.661a.5.5,0,0,0-.5-.5H34.36a2.8,2.8,0,0,1-1.378-.282,1.32,1.32,0,0,1-.592-.574,7.225,7.225,0,0,1-.157-2.13V16.414a6.567,6.567,0,0,1,.152-2.027,1.28,1.28,0,0,1,.511-.616,2.945,2.945,0,0,1,1.465-.307h.787a.5.5,0,0,0,.5-.5V12.3A.5.5,0,0,0,35.146,11.8ZM32.484,35.969c.046.026.094.052.143.076H25.044c.066-.031.13-.065.192-.1a2.228,2.228,0,0,0,.925-1.086A6.5,6.5,0,0,0,26.4,32.4V16.875A.5.5,0,0,0,26,16.384a.48.48,0,0,0-.1,0l-.492-.216a.5.5,0,0,0-.4.916l.237.1-.194.5-.225-.1a.5.5,0,1,0-.4.916l.26.114-.194.5L24.242,19a.5.5,0,0,0-.4.916l.284.124-.194.5-.271-.119a.5.5,0,0,0-.4.916l.307.135-.194.5-.3-.129a.5.5,0,1,0-.4.916l.331.144-.194.5-.319-.14a.5.5,0,0,0-.4.916l.355.155-.194.5-.342-.15a.5.5,0,0,0-.4.916l.378.166-.194.5-.366-.16a.5.5,0,0,0-.4.916l.4.175-.194.5-.39-.171a.5.5,0,0,0-.4.916l.426.186-.194.5-.413-.181a.5.5,0,0,0-.4.916l.449.2-.214.546-.458-.2a.5.5,0,0,0-.4.916l.494.216-.192.49-.6-.282a.5.5,0,0,0-.428.9l.657.311-.2.5-.668-.3a.5.5,0,1,0-.41.912l.713.321-.2.5-1.079-.447a.5.5,0,1,0-.382.924l1.1.453-.1.255H16.5l-8.18-18.5a.6.6,0,0,0-.245-.247.871.871,0,0,0-.18-.044c-.011,0-.021-.007-.033-.007H6.937a.5.5,0,0,0,0,1h.429v.5H6.937a.5.5,0,0,0,0,1h.429v.5H6.937a.5.5,0,0,0,0,1h.429v.5H6.937a.5.5,0,0,0,0,1h.429v.5H6.937a.5.5,0,0,0,0,1h.429v.5H6.937a.5.5,0,0,0,0,1h.429v.5H6.937a.5.5,0,0,0,0,1h.429v.5H6.937a.5.5,0,0,0,0,1h.429v.5H6.937a.5.5,0,0,0,0,1h.429v.5H6.937a.5.5,0,0,0,0,1h.43c0,.179,0,.349,0,.5H6.937a.5.5,0,0,0,0,1H7.4c.011.22.024.383.038.5h-.5a.5.5,0,0,0,0,1h.857a2.983,2.983,0,0,0,.361.5H5.937a.5.5,0,0,0-.5.5.489.489,0,0,0,.107.295H4.025a2.845,2.845,0,0,0,1.161-.858,3.883,3.883,0,0,0,.65-1.521,14.807,14.807,0,0,0,.043-1.911V16.414a6.887,6.887,0,0,0-.238-2.5,2.283,2.283,0,0,0-1.015-1.04c-.047-.027-.1-.053-.145-.077h7.075l.064.151-4.6.552a.5.5,0,0,0,.059,1,.418.418,0,0,0,.06,0l4.886-.586.072.168L6.834,15.433a.5.5,0,0,0,.249.969L12.5,15.009l.122.286L9.3,16.75a.5.5,0,0,0,.4.916l3.311-1.451.267.625L9.966,18.292a.5.5,0,0,0,.4.916l3.3-1.447.267.625-3.3,1.448a.5.5,0,0,0,.4.916l3.294-1.444.266.625-3.3,1.444a.5.5,0,0,0,.4.916l3.286-1.44.267.625-3.288,1.441a.5.5,0,0,0,.4.916L15.646,22.4l.267.625-3.279,1.437a.5.5,0,0,0,.4.916l3.27-1.433.266.625L13.3,26a.5.5,0,0,0,.4.916l3.262-1.429.267.625-3.263,1.43a.5.5,0,0,0,.4.916l3.254-1.426.267.625-3.255,1.426a.5.5,0,1,0,.4.916l1.727-.757-1.392,1.642a.5.5,0,1,0,.763.646l1.2-1.419L16.043,33a.5.5,0,0,0,.252.66.489.489,0,0,0,.2.044.5.5,0,0,0,.457-.3l2.2-4.923,0-.009,0,0L25.613,12.8h6.978c-.066.031-.13.065-.192.1a1.956,1.956,0,0,0-.27.223H26.167a.5.5,0,0,0,0,1h5.25a3.294,3.294,0,0,0-.116.625H25.667a.5.5,0,0,0,0,1H31.24c0,.188-.008.394-.008.625H27.417a.5.5,0,0,0,0,1h3.815V18H27.417a.5.5,0,0,0,0,1h3.815v.625H27.417a.5.5,0,0,0,0,1h3.815v.625H27.417a.5.5,0,0,0,0,1h3.815v.625H27.417a.5.5,0,0,0,0,1h3.815V24.5H27.417a.5.5,0,0,0,0,1h3.815v.625H27.417a.5.5,0,0,0,0,1h3.815v.625H27.417a.5.5,0,0,0,0,1h3.815v.625H27.417a.5.5,0,0,0,0,1h3.815V31H27.417a.5.5,0,0,0,0,1h3.815v.4c0,.083,0,.15,0,.228H27.417a.5.5,0,0,0,0,1h3.845q.021.376.053.625h-3.9a.5.5,0,0,0,0,1h4.243A2.533,2.533,0,0,0,32.484,35.969Z"/><path class="cls-2" d="M48.753,42.405a2.167,2.167,0,0,0,1.5-2,1.394,1.394,0,0,0-.359-.962,2.043,2.043,0,0,0-.176-.157l1.224-2.257a.5.5,0,1,0-.879-.477l-1.1,2.033.645-2.063a.5.5,0,1,0-.954-.3l-.749,2.4-.107-.011.368-2.28a.5.5,0,0,0-.414-.573.493.493,0,0,0-.573.413l-.384,2.383-.33-.01V36.25a.5.5,0,0,0-1,0v2.272l-.6-.006.218-2.217a.5.5,0,1,0-1-.1l-.227,2.311c-.254,0-.485.006-.7.017l.534-2.2a.5.5,0,1,0-.972-.236L42.1,38.661a2.259,2.259,0,0,0-.492.162,2.2,2.2,0,0,0-.862.763L40.06,39.5a.5.5,0,1,0-.119.992L40,40.5l-1.208.213a.5.5,0,0,0,.086.992.444.444,0,0,0,.087-.008l1.242-.219-.564.467a.5.5,0,1,0,.638.77l.909-.753a3.487,3.487,0,0,0,.4.331,6.744,6.744,0,0,0,3.646.7A8.652,8.652,0,0,0,48.753,42.405Zm-7.275-1.9c0-.209.062-.519.59-.8a4.675,4.675,0,0,1,1.819-.2,30.681,30.681,0,0,1,4.3.153,1.742,1.742,0,0,1,.96.452.4.4,0,0,1,.1.289c0,.289-.095.716-.912,1.089a7.7,7.7,0,0,1-3.1.5,5.785,5.785,0,0,1-3.08-.527C41.478,41,41.478,40.632,41.478,40.51Z"/><path class="cls-2" d="M51.685,35.021c-1.03-.6-2.8-.89-5.424-.89-.3,0-.608.016-.919.029a11.251,11.251,0,0,1-2.284-.057,1.116,1.116,0,0,1-.654-.365c-.086-.436.591-.986,1.113-1.216A10.661,10.661,0,0,1,45.84,31.9a11.742,11.742,0,0,0,2.512-.679,7.114,7.114,0,0,0,2.9-2.215,5.511,5.511,0,0,0,1.093-3.4,5.452,5.452,0,0,0-.478-2.235,4.869,4.869,0,0,0-.552-.876H53.4a.5.5,0,0,0,.5-.5V20.025a.5.5,0,0,0-.5-.5H47.862a9.829,9.829,0,0,0-3.526-.7,7.931,7.931,0,0,0-5.483,1.925,6.036,6.036,0,0,0-2.168,4.618,5.874,5.874,0,0,0,1.173,3.607A7,7,0,0,0,40.5,31.012a6.964,6.964,0,0,0-2.161,1.678,4.26,4.26,0,0,0-1.06,2.711A3.644,3.644,0,0,0,38.9,38.444a3.971,3.971,0,0,0-1.46.895,2.584,2.584,0,0,0-.753,1.818,2.763,2.763,0,0,0,.957,2,6.12,6.12,0,0,0,2.9,1.343,18.532,18.532,0,0,0,4.227.452,15.478,15.478,0,0,0,5.491-.91,5.969,5.969,0,0,0,2.668-2,5.012,5.012,0,0,0,1.029-3.062A4.263,4.263,0,0,0,51.685,35.021Zm-7.32,8.905a.493.493,0,0,0-.369-.5.5.5,0,0,0-.606.363l-.02.081c-.152-.01-.313-.01-.462-.023l.005-.041a.5.5,0,0,0-.434-.558.5.5,0,0,0-.558.435l0,.026c-.17-.026-.338-.053-.5-.084l.1-.305a.5.5,0,1,0-.948-.316l-.14.42a4.877,4.877,0,0,1-2.091-.995,1.789,1.789,0,0,1-.652-1.276,1.592,1.592,0,0,1,.48-1.131,4.393,4.393,0,0,1,2.063-.96l.012-.007c.007.005.01.013.018.018a.5.5,0,0,0,.7-.125l1.042-1.5a.5.5,0,0,0-.821-.57l-.866,1.246A3.026,3.026,0,0,1,38.275,35.4a3.249,3.249,0,0,1,.834-2.079,7.1,7.1,0,0,1,2.809-1.874.5.5,0,0,0-.021-.932,6.906,6.906,0,0,1-3.24-2.137,4.835,4.835,0,0,1-.973-3.008A5.011,5.011,0,0,1,39.521,21.5a6.966,6.966,0,0,1,4.815-1.669c.246,0,.5.015.747.039l-.022.078a.5.5,0,0,0,.343.618.482.482,0,0,0,.138.02.5.5,0,0,0,.48-.362l.054-.19c.17.038.342.081.513.129l-.121.241a.5.5,0,0,0,.224.671.494.494,0,0,0,.223.053.5.5,0,0,0,.448-.276l.185-.371.036.013a.49.49,0,0,0,.183.035H52.9v.967h-.358v-.034a.5.5,0,1,0-1,0v.034h-.375v-.034a.5.5,0,1,0-1,0v.034h-.375v-.034a.5.5,0,1,0-1,0v.034h-.375v-.034a.5.5,0,1,0-1,0v.375a.766.766,0,0,0,.542.659h2.026c.2.2.371.4.516.586l-2.013.217a.5.5,0,0,0,.053,1l.054,0,2.441-.263a4.418,4.418,0,0,1,.239.912l-2.63-.105a.5.5,0,0,0-.04,1l2.716.109a4.89,4.89,0,0,1-.145.944l-2.581-.5a.5.5,0,0,0-.19.982l2.409.468a4.379,4.379,0,0,1-.36.569c-.051.068-.114.128-.169.194l-1.923-.616a.5.5,0,0,0-.3.953l1.421.455a6.385,6.385,0,0,1-.867.582L47.7,29.34a.5.5,0,1,0-.571.82l.421.293a8.306,8.306,0,0,1-.812.237l-.067-.168a.5.5,0,0,0-.929.371l0,.005-.094.018-.328.064-.01-.035a.5.5,0,0,0-.964.247c-.124.031-.247.07-.37.106l-.074-.149a.5.5,0,0,0-.895.447l.024.048c-.049.023-.1.048-.153.076a.494.494,0,0,0-.8.579c-.039.037-.08.073-.117.113l-.491-.144a.5.5,0,0,0-.282.959l.26.076c-.006.023-.012.046-.016.069H39.667a.5.5,0,0,0,0,1h.993l-1.543.573a.5.5,0,0,0,.349.938l1.445-.537-1.151.978a.5.5,0,1,0,.647.762l2.379-2.022c.033.008.069.018.1.023a11.909,11.909,0,0,0,2.5.07c.3-.013.6-.025.883-.028,2.4,0,4.055.254,4.92.758a3.377,3.377,0,0,1,1.369,1.352l-1.989,1.253a.5.5,0,0,0,.267.923.494.494,0,0,0,.266-.077l1.783-1.123a4.3,4.3,0,0,1,.071.76,4.228,4.228,0,0,1-.048.624l-1.81.109a.5.5,0,0,0,.029,1h.03l1.441-.086a4.268,4.268,0,0,1-.472.818c-.035.047-.078.087-.114.132l-.952-.476a.5.5,0,0,0-.447.895l.653.326a4.978,4.978,0,0,1-.676.461l-.267-.365a.5.5,0,0,0-.807.592l.132.18c-.19.067-.386.128-.584.186l-.056-.14a.5.5,0,0,0-.928.373l0,.009c-.191.04-.374.089-.571.121l-.016-.1a.5.5,0,0,0-.988.152l.011.069c-.185.018-.369.037-.558.049v-.027a.5.5,0,0,0-1,0v.065c-.066,0-.127.007-.193.007C44.626,43.947,44.5,43.93,44.365,43.927Z"/><path class="cls-2" d="M42.745,29.354l-.354.472a.5.5,0,1,0,.8.6l.37-.494a2.492,2.492,0,0,0,1.024.222,2.76,2.76,0,0,0,2.166-1,5.475,5.475,0,0,0,.837-3.533c0-1.925-.3-3.225-.913-3.967a2.426,2.426,0,0,0-2-.907c-.054,0-.1.014-.156.017l-.08-.28a.5.5,0,0,0-.962.275l.068.239a2.648,2.648,0,0,0-.379.234l-.582-.524a.5.5,0,0,0-.669.744l.534.481a2.378,2.378,0,0,0-.147.236l-1.63-.6a.5.5,0,0,0-.345.939l1.633.6c-.024.1-.047.2-.068.307l-2.461-.492a.5.5,0,0,0-.2.98l2.524.5c0,.041,0,.088-.008.13H38.875a.5.5,0,0,0,0,1h2.837c0,.065,0,.126,0,.193l-2.687.568a.5.5,0,0,0,.1.989.545.545,0,0,0,.1-.011l2.525-.533c.008.09.017.176.027.262l-2.01.819a.5.5,0,0,0,.188.963.493.493,0,0,0,.188-.037l1.832-.746c.029.1.063.193.1.285l-.883.687a.5.5,0,1,0,.614.789l.76-.591C42.624,29.244,42.686,29.295,42.745,29.354ZM45.9,22.287c.315.381.69,1.27.69,3.337,0,1.814-.322,2.566-.592,2.877a1.775,1.775,0,0,1-1.411.652A1.641,1.641,0,0,1,43.3,28.5a4.32,4.32,0,0,1-.587-2.74c0-2.131.328-2.98.6-3.316a1.694,1.694,0,0,1,1.365-.692A1.457,1.457,0,0,1,45.9,22.287Z"/></g></svg>