<?xml version="1.0" encoding="utf-8"?>
<!-- Generator: Adobe Illustrator 23.0.3, SVG Export Plug-In . SVG Version: 6.00 Build 0)  -->
<svg version="1.1" id="Слой_1" xmlns="http://www.w3.org/2000/svg" xmlns:xlink="http://www.w3.org/1999/xlink" x="0px" y="0px"
	 viewBox="0 0 55 55" width="55" height="55"  style="enable-background:new 0 0 55 55;" xml:space="preserve">
<style type="text/css">
	.st0{fill:#FFFFFF;}
	.st1{fill:#AF9C94;}
	.st2{fill:#020203;}
</style>
<path class="st0" d="M28.6398487,51.4099808c5.4250317,0,7.3007526-2.7584152,10.5552425-2.7584152
	C38.471283,39.641922,38.153511,31.3913918,38.918808,24.3589783c1.4901886,1.8241043,2.5635872,3.9519291,3.1450348,6.2344589
	l-1.3240395,17.2125092l4.8548088,0.441349l2.6480789-11.4750099c1.027607-4.731472,0.5650864-9.6650543-1.3240395-14.1230831
	c-1.4069595-3.9804573-3.1799355-7.8218994-5.2961578-11.4750061l-8.3026047-3.4751616L33.2739906,7.423635l-1.3611164-2.8696346
	c-1.3835125-0.6302974-2.8939533-0.9323859-4.4134636-0.8826931c-1.5195103-0.0496929-3.0299511,0.2523956-4.4134636,0.8826931
	l-1.2869663,2.8687515l-0.0732632,0.2753997l-8.3493919,3.4760447c-2.1162224,3.6531057-3.8891945,7.4945488-5.2961569,11.4750061
	c-1.8891239,4.4580288-2.3516474,9.3916111-1.324039,14.1230831l2.6480784,11.4750099l4.8548107-0.441349l-1.3240395-17.2125092
	c0.6249466-2.3170681,1.8757219-5.0207558,3.1450338-6.2344589c0.5655403,8.1028137,0.4976616,16.2374153-0.2030182,24.3296623
	c3.2915611,0,5.0022202,2.7584152,10.4449043,2.7584152L28.6398487,51.4099808z"/>
<g>
	<path class="st1" d="M28.8208313,46.6448936l-2.3170776,0.0495796c-5.0014038,0-7.5217896-3.5197983-10.0891113-3.7217903
		c-0.0665283,1.3188744-0.1416626,2.6371727-0.2269287,3.9545746c2.6480713,0,5.1672974,3.7409859,10.31604,3.7409859
		l2.3170776-0.0496597c5.7153931,0,7.5178833-3.7409859,10.680542-3.7409859
		c-0.0800781-1.3339005-0.1530151-2.6499138-0.222229-3.9575996C36.2532654,43.091198,34.3989563,46.6448936,28.8208313,46.6448936z
		"/>
</g>
<path class="st0" d="M20.7176819,9.5518074c0.632988,1.1989584,1.3771267,2.3358517,2.22262,3.3957186l0.5640411,0.7705908
	l1.4705658,2.0222492l0.8465023-2.352376l0.4360485-1.2128191l2.5492172,0.021184l0.4245777,1.1889877l0.8588581,2.4044552
	l1.4696827-2.0875692c0.3221855-0.4572344,0.6320076-0.8826923,0.9215317-1.2746086
	c0.7122498-0.8911352,1.330204-1.8537073,1.8439445-2.872282l5.5848007,2.3373699
	c-1.3476486,3.9872837-2.1253357,8.1449394-2.310009,12.3497562c-0.6452446,5.9493484-0.5931702,13.1521244,0.1765404,23.214819
	c-0.9864655,0.244278-1.9420547,0.5996246-2.8484497,1.0592308c-1.9859848,1.04216-4.1955452,1.5859184-6.4383621,1.5844345
	l-2.295002,0.03619c-2.2038097-0.0496635-4.3667393-0.6050415-6.321846-1.6232719
	c-0.8311729-0.4055862-1.6966553-0.7367172-2.5862904-0.9894981c0.6336231-7.7368469,0.6719856-15.5109367,0.1147499-23.2536583
	c-0.1781425-4.2136555-0.9584084-8.3801289-2.3170662-12.3727064l5.6342278-2.345314 M33.3198891,7.6990342
	c0.2480354,1.324039-1.1307297,2.8131423-2.8413887,5.2405477l-0.7352829-2.0593224l-4.4134636-0.0370731l-0.7547035,2.0963955
	c-1.7653866-2.4274054-3.1997623-4.192791-2.8502159-5.2405472l-8.3485088,3.4751616
	c1.6233482,4.2154074,2.536952,8.670681,2.7036877,13.184782c0.5658226,8.0966072,0.4982376,16.2250481-0.202136,24.3111267
	c2.648078,0,5.1672831,2.7954865,10.3160315,2.7954865l2.3170681-0.0370712c5.7189655,0,7.5214252-2.7954903,10.6805859-2.7954903
	c-0.7238083-9.0096436-1.0415802-17.2416382-0.2762833-24.2740517c0.3451309-5.0278187,1.1360245-9.547205,2.7072144-13.184782
	C41.6224937,11.1741962,33.3198891,7.6990347,33.3198891,7.6990342z M21.7257175,7.6990342"/>
<path class="st2" d="M27.0580635,9.4088106c0-0.2437487,0.1975975-0.4413462,0.4413471-0.4413462
	c0.2437477,0,0.4413471,0.1975975,0.4413471,0.4413462s-0.1975994,0.4413462-0.4413471,0.4413462
	C27.255661,9.8501568,27.0580635,9.6525593,27.0580635,9.4088106z M27.4031982,13.8222742
	c0.2437477,0,0.4413452-0.1975975,0.4413452-0.4413462s-0.1975975-0.4413462-0.4413452-0.4413462
	c-0.2437496,0-0.4413471,0.1975975-0.4413471,0.4413462S27.1594486,13.8222742,27.4031982,13.8222742z M27.4031982,18.2357388
	c-0.2437496,0-0.4413471,0.1975975-0.4413471,0.4413471c0,0.2437477,0.1975975,0.4413452,0.4413471,0.4413452
	c0.2437477,0,0.4413452-0.1975975,0.4413452-0.4413452C27.8445435,18.4333363,27.646946,18.2357388,27.4031982,18.2357388z
	 M27.4031982,23.5318947c-0.2437496,0-0.4413471,0.1975975-0.4413471,0.4413471
	c0,0.2437477,0.1975975,0.4413471,0.4413471,0.4413471c0.2437477,0,0.4413452-0.1975994,0.4413452-0.4413471
	C27.8445435,23.7294922,27.646946,23.5318947,27.4031982,23.5318947z M27.4031982,28.8280525
	c-0.2437496,0-0.4413471,0.1975975-0.4413471,0.4413452c0,0.2437496,0.1975975,0.4413471,0.4413471,0.4413471
	c0.2437477,0,0.4413452-0.1975975,0.4413452-0.4413471C27.8445435,29.02565,27.646946,28.8280525,27.4031982,28.8280525z
	 M27.4031982,34.1242104c-0.2437496,0-0.4413471,0.1975975-0.4413471,0.4413452s0.1975975,0.4413452,0.4413471,0.4413452
	c0.2437477,0,0.4413452-0.1975975,0.4413452-0.4413452S27.646946,34.1242104,27.4031982,34.1242104z M27.4031982,39.4203644
	c-0.2437496,0-0.4413471,0.1975975-0.4413471,0.441349c0,0.2437477,0.1975975,0.4413452,0.4413471,0.4413452
	c0.2437477,0,0.4413452-0.1975975,0.4413452-0.4413452C27.8445435,39.6179619,27.646946,39.4203644,27.4031982,39.4203644z
	 M48.587822,37.2480583l-2.5598106,11.0989838c-0.0466919,0.2012787-0.2267799,0.3432198-0.4333992,0.3415985h-0.0406036
	l-4.8548126-0.4413452c-0.2412605-0.0215111-0.420105-0.233448-0.4007416-0.4748878l1.3240395-17.1410141
	c-0.506176-1.8535461-1.3143692-3.6109982-2.3920937-5.2017097c-0.044136,0.6311264-0.0882683,1.2746086-0.1235771,1.941925
	c-0.3494644,7.0978851-0.1913528,14.2116699,0.4731216,21.2870178c0.0219383,0.2427597-0.157074,0.4573441-0.3998299,0.4792786
	c-0.0138054,0.0012512-0.0276566,0.0018463-0.0415154,0.0017891c-1.296299,0.047718-2.5608406,0.4142532-3.6817131,1.0671768
	c-1.9254456,1.0501366-4.0872498,1.5909653-6.2803593,1.5711937h-0.0097103h-3.6675892
	c-0.0105915,0-0.0203018-0.0052948-0.0308933-0.0061798c-2.1044312,0.0037842-4.1743565-0.5345993-6.0102558-1.5632477
	c-1.0875492-0.6567955-2.3254032-1.0236282-3.5952072-1.0654106c-0.2437468,0.000988-0.4421444-0.1958046-0.4431343-0.4395523
	c-0.0000563-0.0138588,0.0005398-0.02771,0.0017881-0.0415154c0.6644659-7.0753517,0.8225756-14.1891327,0.4731236-21.2870178
	c-0.0370731-0.6708469-0.079443-1.3143291-0.1235781-1.941925c-1.0777378,1.5907021-1.8859358,3.3481579-2.3920975,5.2017097
	l1.3213921,17.1374817c0.0188742,0.240799-0.1593237,0.4520378-0.3998594,0.4740028l-4.8548107,0.441349l-0.0414867,0.0008812
	c-0.2055635-0.0001221-0.3838253-0.1421432-0.4298716-0.3424873L6.4145279,37.2471733
	c-1.0210514-4.4134865-0.7803278-9.0251617,0.6946793-13.3083553c1.5254698-4.5142899,3.4974585-8.8651438,5.8866787-12.9879436
	c0.0629959-0.1067104,0.1687384-0.1812763,0.2904062-0.2047844l8.0775213-3.4310274
	c0.036047-0.1422496,0.084486-0.2810683,0.1447601-0.4148655L22.6763763,4.3704
	c0.0076294-0.0121846,0.0158787-0.0239692,0.0247154-0.0353079c0.0114098-0.0195637,0.0244007-0.0381618,0.0388393-0.0556097
	c0.0218315-0.026391,0.0467205-0.0500956,0.0741463-0.0706153c0.0105915-0.0079441,0.0167694-0.0194192,0.0282459-0.0264807
	c0.0114746-0.0070615,0.0238323-0.0114751,0.0344238-0.0176539L22.890871,4.157671
	c1.436018-0.6755567,3.0141029-0.9938383,4.5997124-0.9277101c1.5771866-0.0648632,3.1470184,0.2483768,4.5785275,0.9135871
	c0.1113358,0.0378051,0.2026863,0.1189709,0.2533302,0.2250867l1.1678009,2.5297976
	c0.0602722,0.1337972,0.1087151,0.2726159,0.1447639,0.4148655l8.0757561,3.4327931
	c0.1212997,0.0238476,0.2266388,0.0983562,0.2895241,0.2047844c2.3901329,4.122695,4.3630142,8.4735518,5.889328,12.9879427
	c1.4757614,4.2833004,1.7170982,8.8953114,0.6964455,13.3092403H48.587822z M40.9428215,11.3772154l-7.2380829-3.0761843
	c-0.0498505,0.4015732-0.1693306,0.7913809-0.3530769,1.1519136l7.0924377,3.1282635
	C40.6000404,12.1451578,40.7662811,11.7438269,40.9428215,11.3772154z M32.6887627,7.2691636l-0.642601-1.3911242
	c-0.6724586,1.063343-1.6875591,1.865459-2.8775787,2.2738171l1.3734703,3.9270992
	c0.656723-0.9347715,1.2878494-1.8536549,1.7653847-2.5968819l0,0c0-0.007061,0.0088234-0.0105925,0.0123558-0.0167713
	l0.050312-0.0776768C32.830986,8.7821636,32.9511337,7.9834151,32.6887627,7.2691636z M29.8826828,6.7960401
	c-1.5623341-0.4104919-3.2042084-0.4104919-4.7665424,0c0.4085522,0.2486663,0.8390503,0.4593353,1.2860851,0.6293597h2.2014351
	C29.0482559,7.2549548,29.4763737,7.0442948,29.8826828,6.7960401z M25.9370441,10.5201206h3.124733l-0.7741222-2.2146759
	h-1.5764885L25.9370441,10.5201206z M26.087101,50.8953705h2.6295433V11.3869257H26.087101V50.8953705z M27.4905834,4.1126537
	c-1.3514271-0.0606399-2.699728,0.1755762-3.9500504,0.6920314c0.0789185,0.5181012,0.3353996,0.9926863,0.7255745,1.3425756
	c2.0929909-0.7269354,4.3701973-0.7253804,6.4621944,0.0044136c0.3899517-0.3487287,0.6475029-0.8214278,0.729105-1.3381624
	C30.2031059,4.2898474,28.8483868,4.0504961,27.4905834,4.1126537z M22.6269455,9.3849783l0.0494308,0.0759115
	c0,0.007061,0.0097103,0.0114746,0.0132408,0.0185366l0,0c0.4793015,0.7458754,1.1095448,1.6621103,1.7653847,2.5968809
	l1.3734703-3.9271002c-0.7047272-0.2831125-1.360157-0.6760726-1.941925-1.1642714
	c-0.0173683-0.0139952-0.0336018-0.0293431-0.0485477-0.0458999c-0.3546753-0.2979798-0.6535568-0.6566367-0.8826942-1.0592313
	l-0.642601,1.3920064C22.0510368,7.9837804,22.1694336,8.7799549,22.6269455,9.3849783z M14.0559998,11.3772154
	c0.1765394,0.3666115,0.3451328,0.7679424,0.5057831,1.2039928l7.0924358-3.1282625
	c-0.1837444-0.3605337-0.3032246-0.7503405-0.3530769-1.1519146L14.0559998,11.3772154z M13.7858963,47.4060898
	l-0.1986065-2.5783501l-4.4028721,0.5031357l0.563158,2.4424095L13.7858963,47.4060898z M15.6713276,24.0438576
	c-0.1924953-3.5841026-0.7782955-7.1361961-1.7468491-10.5923138c-0.0211849-0.0273638-0.0520792-0.0450172-0.0670853-0.0776777
	c-0.0286465-0.0691767-0.0386887-0.1446466-0.029129-0.2189074c-0.1377001-0.3989773-0.2824612-0.7617645-0.432519-1.0998354
	c-2.1935177,3.8781261-4.0192385,7.9530478-5.4532762,12.1714525c-1.4213424,4.1269283-1.6531992,8.5704403-0.6690812,12.8228779
	l1.7115412,7.4146233l4.5352755-0.5181427l-1.0265713-13.3180714c-0.003561-0.0470963,0.0003109-0.0944576,0.0114746-0.1403484
	C13.1293831,28.1533928,14.2050629,25.9642487,15.6713276,24.0438576z M19.8561726,49.4195099
	c1.6329384,0.9266624,3.4710693,1.4317741,5.3482361,1.4696846V12.6103373l-0.1994877,0.5693369
	c-0.0542126,0.1553078-0.1902981,0.2675781-0.3530769,0.2912884c-0.0202751,0.001482-0.0406303,0.001482-0.0609055,0
	c-0.1407814,0.0009851-0.2735882-0.0652533-0.3574924-0.1783037c-0.7582321-1.0733547-1.522644-2.1678944-2.1184616-3.074419
	l-7.2716236,3.2068224c0.9559565,3.0567646,1.5817852,7.5761528,1.9339809,13.9041767
	c0.3455391,6.9851151,0.2007179,13.9858627-0.433403,20.9507141c1.2378922,0.1245079,2.4346752,0.5130997,3.5095863,1.1395569
	H19.8561726z M38.6575279,48.2764244c-0.634922-6.9642029-0.7806282-13.9643593-0.4360466-20.9489498
	c0.3530769-6.3271427,0.9780235-10.8474121,1.9339752-13.9032955l-7.2716217-3.2094698
	c-0.592289,0.9056425-1.3558159,2.0001812-2.1184616,3.074419c-0.0827389,0.1168127-0.2169914,0.1862421-0.3601379,0.1862488
	c-0.0202751,0.001482-0.0406303,0.001482-0.0609055,0c-0.1627808-0.0237103-0.2988663-0.1359806-0.3530769-0.2912893
	l-0.3901501-1.1166067v38.8217125c1.9159069-0.0455971,3.7928104-0.5508499,5.4726963-1.4732132
	c1.1030846-0.6210365,2.3219566-1.0088997,3.5810852-1.1395569H38.6575279z M45.8144035,45.3344078l-4.4028702-0.5031357
	l-0.1986046,2.5783501l4.0383186,0.3671989L45.8144035,45.3344078z M47.0563545,24.2301064
	c-1.4333687-4.2189465-3.258503-8.2944613-5.4515152-12.1732178c-0.1500549,0.3371887-0.2948189,0.699976-0.432518,1.0998363
	c0.0095596,0.0742607-0.0004845,0.1497307-0.029129,0.2189074c-0.015007,0.0335426-0.0458984,0.0503139-0.0670853,0.0776777
	c-0.9685555,3.4561176-1.5543556,7.0082111-1.7468491,10.5923138c1.4647179,1.9207363,2.538887,4.1098614,3.1618042,6.4436569
	c0.0111618,0.0458908,0.0150375,0.0932522,0.0114746,0.1403484l-1.0248032,13.3198338l4.5352745,0.5181427l1.7115402-7.4146194
	c0.9850807-4.2534828,0.7535248-8.6983128-0.6681976-12.8264103L47.0563545,24.2301064z"/>
</svg>
