<svg xmlns="http://www.w3.org/2000/svg" width="55" height="55" viewBox="0 0 55 55"><defs><style>.cls-1{fill:#fff;}.cls-2{fill:#af9c94;}</style></defs><title>Рукав</title><g id="Рукав"><path class="cls-1" d="M28.792,54.583c6.146,0,8.271-3.125,11.958-3.125-.82-10.207-1.18-19.554-.313-27.521A18.307,18.307,0,0,1,44,31L42.5,50.5,48,51l3-13a26.56,26.56,0,0,0-1.5-16,77.381,77.381,0,0,0-6-13L34.094,5.063l-.052-.312L32.5,1.5a11.179,11.179,0,0,0-5-1,11.179,11.179,0,0,0-5,1L21.042,4.75l-.083.312L11.5,9a77.381,77.381,0,0,0-6,13A26.56,26.56,0,0,0,4,38L7,51l5.5-.5L11,31c.708-2.625,2.125-5.688,3.563-7.063A176.811,176.811,0,0,1,14.333,51.5c3.729,0,5.667,3.125,11.833,3.125Z"/><path class="cls-2" d="M11.5,9a77.381,77.381,0,0,0-6,13A26.56,26.56,0,0,0,4,38L7,51l5.5-.5L11,31c.708-2.625,2.125-5.688,3.562-7.063C14.225,18.2,13.375,13.031,11.5,9Z"/><path class="cls-1" d="M11.258,12.578a47.946,47.946,0,0,1,1.767,10.809A20.4,20.4,0,0,0,9.552,30.61a1.5,1.5,0,0,0-.047.506L10.891,49.14l-2.724.248-2.7-11.7A25.206,25.206,0,0,1,6.888,22.569q.017-.042.032-.085a69.757,69.757,0,0,1,4.338-9.906M11.5,9a77.38,77.38,0,0,0-6,13A26.56,26.56,0,0,0,4,38L7,51l5.5-.5L11,31c.708-2.625,2.125-5.688,3.562-7.063C14.225,18.2,13.375,13.031,11.5,9Z"/><path class="cls-2" d="M40.437,23.938A18.307,18.307,0,0,1,44,31L42.5,50.5,48,51l3-13a26.56,26.56,0,0,0-1.5-16,77.381,77.381,0,0,0-6-13C41.689,12.758,40.838,18,40.437,23.938Z"/><path class="cls-1" d="M43.737,12.569a69.779,69.779,0,0,1,4.343,9.915q.015.043.032.085a25.191,25.191,0,0,1,1.427,15.094L46.833,49.388l-2.724-.248L45.5,31.115a1.5,1.5,0,0,0-.033-.45,19.821,19.821,0,0,0-3.487-7.21,51.379,51.379,0,0,1,1.762-10.887M43.5,9c-1.811,3.758-2.662,9-3.063,14.937A18.307,18.307,0,0,1,44,31L42.5,50.5,48,51l3-13a26.56,26.56,0,0,0-1.5-16,77.38,77.38,0,0,0-6-13Z"/><path d="M27,7a.5.5,0,1,1,.5.5A.5.5,0,0,1,27,7Zm.391,5a.5.5,0,1,0-.5-.5A.5.5,0,0,0,27.391,12Zm0,5a.5.5,0,1,0,.5.5A.5.5,0,0,0,27.391,17Zm0,6a.5.5,0,1,0,.5.5A.5.5,0,0,0,27.391,23Zm0,6a.5.5,0,1,0,.5.5A.5.5,0,0,0,27.391,29Zm0,6a.5.5,0,1,0,.5.5A.5.5,0,0,0,27.391,35Zm0,6a.5.5,0,1,0,.5.5A.5.5,0,0,0,27.391,41Zm24-2.461-2.9,12.574A.5.5,0,0,1,48,51.5l-.045,0-5.5-.5A.5.5,0,0,1,42,50.462L43.5,31.043a19.8,19.8,0,0,0-2.711-5.893c-.05.715-.1,1.444-.14,2.2a169.254,169.254,0,0,0,.537,24.116.5.5,0,0,1-.5.545,8.938,8.938,0,0,0-4.172,1.21A14.579,14.579,0,0,1,29.4,55l-.011,0H25.233c-.012,0-.023-.006-.035-.007a13.879,13.879,0,0,1-6.809-1.771,8.409,8.409,0,0,0-4.073-1.207.5.5,0,0,1-.5-.545,169.256,169.256,0,0,0,.537-24.116c-.042-.76-.09-1.489-.14-2.2A19.8,19.8,0,0,0,11.5,31.043L13,50.462a.5.5,0,0,1-.453.537l-5.5.5L7,51.5a.5.5,0,0,1-.487-.388l-2.9-12.574A27.358,27.358,0,0,1,4.4,23.461,81.181,81.181,0,0,1,11.069,8.747a.491.491,0,0,1,.325-.231l9.154-3.888a2.846,2.846,0,0,1,.164-.47l1.323-2.866a.478.478,0,0,1,.029-.042A.475.475,0,0,1,22.2,1.1c.01-.008.016-.019.028-.026s.022-.011.033-.017l.023-.012A11.156,11.156,0,0,1,27.49,0a11.218,11.218,0,0,1,5.183,1.034.49.49,0,0,1,.29.257l1.323,2.866a2.846,2.846,0,0,1,.164.47L43.6,8.515a.491.491,0,0,1,.326.232A81.181,81.181,0,0,1,50.6,23.461,27.358,27.358,0,0,1,51.389,38.539ZM42.73,9.23l-8.2-3.484a3.943,3.943,0,0,1-.4,1.3l8.035,3.544Q42.43,9.853,42.73,9.23ZM33.379,4.576,32.651,3a6.264,6.264,0,0,1-3.261,2.576l1.557,4.449c.744-1.06,1.459-2.1,2-2.943v0l.009-.012.062-.095A2.525,2.525,0,0,0,33.379,4.576ZM30.2,4.04a10.624,10.624,0,0,0-5.4,0,8.854,8.854,0,0,0,1.457.713h2.494A8.863,8.863,0,0,0,30.2,4.04ZM25.73,8.259H29.27L28.393,5.75H26.607ZM25.9,54h2.98V9.241H25.9ZM27.49,1a10.5,10.5,0,0,0-4.475.784,2.559,2.559,0,0,0,.822,1.521,11.143,11.143,0,0,1,7.321.006,2.57,2.57,0,0,0,.826-1.517A10.427,10.427,0,0,0,27.49,1ZM21.98,6.973l.061.094.009.013v0c.543.846,1.258,1.883,2,2.943l1.557-4.449a8.155,8.155,0,0,1-2.2-1.316A.483.483,0,0,1,23.35,4.2a4.432,4.432,0,0,1-1-1.2l-.728,1.577A2.525,2.525,0,0,0,21.98,6.973ZM12.27,9.23q.3.623.573,1.364l8.035-3.544a3.943,3.943,0,0,1-.4-1.3Zm-.306,40.817-.225-2.922L6.75,47.7l.638,2.767ZM14.1,23.578a55.466,55.466,0,0,0-1.98-12c-.024-.031-.058-.05-.074-.087a.484.484,0,0,1-.033-.248c-.156-.452-.32-.863-.49-1.246A80.9,80.9,0,0,0,5.344,23.787a26.36,26.36,0,0,0-.758,14.527l1.938,8.4,5.138-.588L10.5,31.039a.482.482,0,0,1,.013-.159A20.975,20.975,0,0,1,14.1,23.578Zm4.74,28.749A12.788,12.788,0,0,0,24.9,53.993V10.627l-.226.645a.5.5,0,0,1-.4.33.473.473,0,0,1-.069,0A.5.5,0,0,1,23.8,11.4c-.859-1.216-1.724-2.456-2.4-3.482l-8.239,3.634c1.083,3.462,1.792,8.583,2.192,15.752a169.528,169.528,0,0,1-.492,23.735A9.855,9.855,0,0,1,18.838,52.328Zm21.3-1.295A169.527,169.527,0,0,1,39.646,27.3c.4-7.169,1.109-12.289,2.192-15.751L33.6,7.913c-.671,1.026-1.536,2.266-2.4,3.482a.5.5,0,0,1-.408.211.473.473,0,0,1-.069,0,.5.5,0,0,1-.4-.33l-.442-1.265V53.993a13.557,13.557,0,0,0,6.2-1.668A10.473,10.473,0,0,1,40.139,51.033ZM48.25,47.7l-4.989-.57-.225,2.922,4.575.416Zm1.407-23.909A80.9,80.9,0,0,0,43.481,10c-.17.383-.334.793-.49,1.246a.484.484,0,0,1-.033.248c-.016.037-.051.056-.074.087a55.471,55.471,0,0,0-1.98,12,20.972,20.972,0,0,1,3.583,7.3.482.482,0,0,1,.013.159L43.338,46.129l5.138.588,1.938-8.4A26.36,26.36,0,0,0,49.656,23.787Z"/></g></svg>