<?xml version="1.0" encoding="utf-8"?>
<!-- Generator: Adobe Illustrator 23.0.3, SVG Export Plug-In . SVG Version: 6.00 Build 0)  -->
<svg version="1.0" id="Слой_1" xmlns="http://www.w3.org/2000/svg" xmlns:xlink="http://www.w3.org/1999/xlink" x="0px" y="0px"
	 viewBox="0 0 48 48" enable-background="new 0 0 48 48" xml:space="preserve" width="48px">
<path fill="#B1B2B3" d="M-34.59-27.7c0-2.47-2.02-4.48-4.5-4.48s-4.5,2.01-4.5,4.48s2.02,4.48,4.5,4.48S-34.59-25.23-34.59-27.7
	 M-30.21-34.81c0,0.45-0.18,0.9-0.51,1.22c-0.32,0.32-0.77,0.5-1.22,0.5c-0.45,0-0.9-0.19-1.22-0.5c-0.32-0.32-0.51-0.77-0.51-1.22
	c0-0.46,0.19-0.9,0.51-1.22c0.32-0.32,0.77-0.5,1.22-0.5c0.46,0,0.9,0.18,1.22,0.5C-30.39-35.71-30.21-35.27-30.21-34.81
	 M-32.23-27.7c0,3.77-3.08,6.84-6.86,6.84c-3.78,0-6.86-3.07-6.86-6.84c0-3.77,3.08-6.84,6.86-6.84
	C-35.3-34.54-32.23-31.47-32.23-27.7 M-28.14-21.76L-28.14-21.76l0-11.89c0-2.74-2.24-4.97-4.98-4.97h-11.93
	c-2.75,0-4.98,2.23-4.98,4.97v11.89c0,2.74,2.24,4.97,4.98,4.97h11.93C-30.37-16.79-28.14-19.02-28.14-21.76 M-25.78-21.76
	c0,4.04-3.29,7.32-7.35,7.32h-11.93c-4.05,0-7.35-3.29-7.35-7.32v-11.89c0-4.03,3.3-7.32,7.35-7.32h11.93
	c4.05,0,7.35,3.29,7.35,7.32V-21.76z M-16.27-27.7c0-12.57-10.22-22.75-22.82-22.75c-12.6,0-22.82,10.18-22.82,22.75
	c0,12.56,10.22,22.75,22.82,22.75C-26.48-4.95-16.27-15.14-16.27-27.7"/>
<g>
	<path fill="#B1B2B3" d="M30.06,15.37h-2.93c-0.48,0-1.15,0.24-1.15,1.26v2.72h4.07l-0.48,4.63h-3.59v13.16h-5.44V23.98h-2.59v-4.63
		h2.59v-2.99c0-2.14,1.02-5.49,5.49-5.49l4.03,0.02V15.37z M46.75,24C46.75,11.44,36.56,1.25,24,1.25C11.44,1.25,1.25,11.44,1.25,24
		c0,12.57,10.18,22.75,22.75,22.75C36.56,46.75,46.75,36.57,46.75,24"/>
</g>
</svg>
