<?xml version="1.0" encoding="utf-8"?>
<!-- Generator: Adobe Illustrator 23.0.3, SVG Export Plug-In . SVG Version: 6.00 Build 0)  -->
<svg version="1.1" id="logo" xmlns="http://www.w3.org/2000/svg" xmlns:xlink="http://www.w3.org/1999/xlink" x="0px" y="0px"
	 viewBox="0 0 358 66.4" style="enable-background:new 0 0 358 66.4;" xml:space="preserve" width="358px">
<style type="text/css">
	.st0{fill:#C6A97E;}
	.st1{fill:#A7A9AC;}
</style>
<path class="st0" d="M45,30.3c0,11.7-9.5,21.2-21.3,21.2c-5.2,0-9.9-1.8-13.6-4.9V30.3H7.7v13.8c-3.2-3.7-5.2-8.5-5.2-13.8
	C2.5,18.6,12,9.1,23.7,9.1C35.5,9.1,45,18.6,45,30.3 M47.5,30.3c0-13-10.6-23.7-23.7-23.7C10.6,6.6,0,17.2,0,30.3
	c0,6.9,3,13,7.7,17.3v18.8h2.5V49.7c3.9,2.7,8.5,4.3,13.6,4.3C36.8,54,47.5,43.3,47.5,30.3 M90.1,15.1h3.4
	c-4.4-5.1-10.9-8.4-18.1-8.4s-13.8,3.3-18.1,8.4h3.4c3.8-3.7,9-5.9,14.7-5.9C81.1,9.1,86.3,11.4,90.1,15.1 M99.1,30.3
	c0-3-0.6-5.8-1.6-8.4h-2.7c1.1,2.6,1.8,5.4,1.8,8.4c0,11.7-9.5,21.2-21.3,21.2S54.1,42,54.1,30.3c0-3,0.6-5.8,1.8-8.4h-2.7
	c-1,2.6-1.6,5.4-1.6,8.4c0,13,10.6,23.7,23.7,23.7S99.1,43.3,99.1,30.3 M109.1,48.2c0,1-0.8,1.7-1.7,1.7s-1.7-0.8-1.7-1.7
	s0.8-1.7,1.7-1.7S109.1,47.3,109.1,48.2 M111.6,48.2c0-2.3-1.9-4.2-4.2-4.2s-4.2,1.9-4.2,4.2s1.9,4.2,4.2,4.2S111.6,50.5,111.6,48.2
	 M154.1,15.1h3.4c-4.5-5.3-11.1-8.4-18.1-8.4c-13.1,0-23.7,10.6-23.7,23.7S126.3,54,139.4,54c7.1,0,13.7-3.1,18.3-8.6l0,0h-3.3
	c-4,3.9-9.3,6.1-14.9,6.1c-11.7,0-21.3-9.5-21.3-21.2s9.5-21.2,21.3-21.2C144.9,9.1,150.2,11.3,154.1,15.1 M194.2,15.1h3.4
	c-4.4-5.1-10.9-8.4-18.1-8.4s-13.8,3.3-18.1,8.4h3.4c3.8-3.7,9-5.9,14.7-5.9C185.2,9.1,190.4,11.4,194.2,15.1 M203.2,30.3
	c0-3-0.6-5.8-1.6-8.4H199c1.1,2.6,1.8,5.4,1.8,8.4c0,11.7-9.5,21.2-21.3,21.2s-21.3-9.5-21.3-21.2c0-3,0.6-5.8,1.8-8.4h-2.7
	c-1,2.6-1.6,5.4-1.6,8.4c0,13,10.6,23.7,23.7,23.7C192.6,54,203.2,43.3,203.2,30.3"/>
<path class="st1" d="M234.9,24.7c-0.7,1.5-1.5,3.1-2.5,4.6s-2.2,3-3.6,4.3c-0.1,0.3-0.2,0.6-0.3,0.9c-0.1,0.3-0.2,0.7-0.3,1.1
	c-0.2,0.9-0.3,1.6-0.1,2.1c0.1,0.5,0.4,0.8,0.7,1c0.4,0.2,0.7,0.1,1.2-0.1s0.9-0.6,1.3-1.2c0.2-0.4,0.5-0.7,0.7-1.1s0.4-0.7,0.6-1
	s0.4-0.7,0.5-0.9c0.1-0.3,0.3-0.5,0.4-0.7c0.1-0.3,0.3-0.4,0.4-0.3s0.1,0.2,0,0.5c-0.2,0.4-0.4,0.9-0.7,1.5
	c-0.3,0.6-0.7,1.3-1.1,1.8s-0.9,1.1-1.5,1.5c-0.6,0.4-1.2,0.7-2,0.7c-0.6,0-1-0.1-1.3-0.3c-0.3-0.2-0.5-0.5-0.6-0.8
	c-0.1-0.3-0.2-0.7-0.2-1.1c0-0.4,0.1-0.8,0.1-1.3s0.2-0.9,0.3-1.3c0.1-0.4,0.2-0.8,0.3-1.1c0.2-0.8,0.5-1.7,0.9-2.6
	c0.3-0.9,0.7-1.9,1.1-2.8c0.4-0.9,0.8-1.8,1.3-2.7s0.9-1.7,1.3-2.4c0.5-0.9,1.1-1.5,1.7-1.9c0.6-0.4,1.1-0.5,1.5-0.4
	c0.4,0.1,0.6,0.5,0.7,1.2C235.7,22.6,235.5,23.5,234.9,24.7z M234.5,24.2c0.1-0.3,0.3-0.7,0.4-1.1s0.1-0.7,0.1-0.9
	c0-0.2-0.1-0.3-0.3-0.3s-0.5,0.4-0.9,1c-0.4,0.5-0.8,1.2-1.2,2c-0.5,0.9-0.9,1.8-1.3,2.7s-0.8,1.9-1.2,2.8s-0.7,1.7-0.9,2.3
	c0.5-0.5,1.1-1.1,1.6-1.8s1-1.4,1.5-2.1c0.5-0.7,0.9-1.5,1.3-2.3C233.8,25.7,234.2,24.9,234.5,24.2z M233.9,36.8
	c-0.1,0.5-0.2,0.9-0.1,1.3c0.1,0.4,0.3,0.6,0.7,0.6c0.2,0,0.5,0,0.7-0.1c0.3-0.1,0.5-0.3,0.6-0.4c0.5-0.5,1-1.2,1.5-2
	s0.9-1.7,1.3-2.5c0.1-0.3,0.3-0.4,0.4-0.3s0.1,0.3,0,0.6c-0.2,0.4-0.4,0.9-0.7,1.5c-0.3,0.6-0.6,1.2-1.1,1.8
	c-0.4,0.6-0.9,1.1-1.3,1.5c-0.5,0.4-1,0.6-1.6,0.6s-1-0.1-1.3-0.4s-0.5-0.6-0.6-1s-0.1-0.8-0.1-1.3s0.2-0.9,0.3-1.3l1.9-4.9
	c0.1-0.3,0.1-0.5,0-0.8c-0.1-0.2-0.2-0.4-0.3-0.5l1.6,0c0.5,0,0.7,0.1,0.8,0.3c0.1,0.2,0,0.4-0.2,0.8l-2.4,5.6
	c0,0.1-0.1,0.3-0.1,0.4c0,0.1-0.1,0.2-0.1,0.3C233.9,36.7,233.9,36.8,233.9,36.8z M238.1,26.9c-0.1,0.3-0.2,0.6-0.5,0.9
	c-0.3,0.2-0.6,0.4-0.9,0.4c-0.3,0-0.6-0.1-0.8-0.4c-0.2-0.2-0.3-0.5-0.2-0.9c0.1-0.3,0.2-0.6,0.5-0.9c0.3-0.2,0.6-0.4,0.9-0.4
	c0.3,0,0.6,0.1,0.8,0.4C238.1,26.3,238.1,26.6,238.1,26.9z M238.4,27.3c0.1-0.3,0.2-0.4,0.4-0.4s0.3,0.1,0.3,0.4
	c0,0.3,0.1,0.5,0.3,0.6c0.2,0.1,0.4,0.3,0.6,0.3s0.5,0.1,0.7,0.1c0.3,0,0.5,0,0.8,0c0.5-0.9,1.1-2,1.8-3.2c0.7-1.2,1.4-2.4,2.3-3.6
	c0.8-1.2,1.7-2.3,2.6-3.4c0.9-1.1,1.9-1.9,3-2.6c1-0.6,1.9-1,2.8-1.1c0.9-0.1,1.6,0,2.2,0.3c0.5,0.4,0.8,0.9,0.8,1.8
	c0,0.8-0.4,1.9-1.2,3.2c-0.7,1.2-1.5,2.2-2.4,3.1c-0.9,0.9-1.9,1.7-2.9,2.4c-1.1,0.7-2.2,1.4-3.5,1.9c-1.3,0.6-2.7,1.1-4.2,1.7
	c-0.3,0.5-0.7,1.4-1.1,2.5c-0.4,1.1-0.9,2.3-1.3,3.7s-0.8,2.7-1.2,4.2c-0.4,1.4-0.6,2.8-0.8,4c-0.2,1.2-0.2,2.2-0.1,3
	s0.4,1.3,0.8,1.3c0.4,0.1,0.8,0,1.2-0.4s0.8-0.8,1.1-1.4s0.7-1.2,0.9-1.9s0.5-1.4,0.6-2c0.2-1,0.4-1.9,0.5-2.9s0.1-1.9-0.1-2.8
	c-0.2-1-0.6-1.8-1.1-2.3s-1.4-0.6-2.3-0.4c-0.2,0-0.2,0-0.1-0.2c0.1-0.1,0.3-0.2,0.6-0.2c0.5,0,1,0,1.4,0.1c0.4,0.1,0.8,0.3,1.1,0.5
	s0.6,0.5,0.8,0.8c0.2,0.3,0.4,0.6,0.5,0.9c0.2,0.5,0.3,1,0.4,1.5s0.1,1.1,0.1,1.7c0,0.6-0.1,1.2-0.1,1.7c-0.1,0.6-0.2,1.2-0.3,1.7
	c-0.2,0.8-0.5,1.6-0.8,2.4c-0.3,0.8-0.7,1.5-1.2,2s-0.9,1.1-1.5,1.4c-0.6,0.4-1.2,0.5-1.8,0.5c-0.6,0-1.1-0.2-1.4-0.7
	c-0.3-0.5-0.6-1.1-0.6-1.9s-0.1-1.7,0-2.7s0.3-2.1,0.6-3.3s0.6-2.3,1-3.5s0.8-2.4,1.3-3.5c-0.7,1.3-1.3,2.4-1.8,3.3
	s-0.9,1.5-1.2,1.8c-0.1,0.1-0.2,0.1-0.3,0c-0.1-0.1-0.1-0.2,0-0.4c0.3-0.4,0.6-0.9,1-1.5c0.4-0.6,0.7-1.3,1.1-2
	c0.4-0.7,0.8-1.5,1.2-2.4c0.4-0.8,0.9-1.7,1.3-2.5c-0.4,0-0.9,0-1.2-0.1c-0.4-0.1-0.7-0.3-1-0.6c-0.1-0.2-0.3-0.3-0.3-0.5
	C238.3,27.7,238.3,27.5,238.4,27.3z M243.2,28.1c1.1-0.3,2.2-0.7,3.3-1.3s2.2-1.2,3.3-1.9c1.1-0.7,2-1.6,2.9-2.5s1.7-1.9,2.3-3
	c0.6-1.1,1-2,1-2.6c0-0.6-0.2-1-0.6-1.2s-1-0.2-1.7,0c-0.7,0.2-1.4,0.5-2.1,1c-0.9,0.6-1.7,1.4-2.5,2.3c-0.8,0.9-1.6,1.9-2.3,3
	c-0.7,1-1.4,2.1-2,3.2C244.2,26.2,243.7,27.2,243.2,28.1z M256,33.8c-0.3,0.6-0.6,1.2-0.9,1.9c-0.3,0.7-0.7,1.3-1.1,1.8
	s-0.9,1-1.5,1.4c-0.6,0.4-1.3,0.5-2.1,0.5c-0.8,0-1.4-0.2-2-0.7c-0.6-0.5-0.9-1.2-0.9-2.1c0-0.4,0.1-0.9,0.2-1.4s0.3-1,0.5-1.5
	c0.2-0.5,0.4-1,0.7-1.4c0.3-0.5,0.6-0.9,0.9-1.3c0.4-0.4,0.8-0.8,1.3-1.2s0.9-0.6,1.4-0.8c0.5-0.2,0.9-0.3,1.3-0.3
	c0.4,0,0.8,0.1,1.1,0.4c0.3,0.2,0.4,0.5,0.5,0.8c0.1,0.3,0,0.7-0.2,1.1c-0.2,0.4-0.4,0.8-0.7,1.2c-0.3,0.4-0.7,0.8-1.2,1.2
	c-0.2,0.2-0.5,0.3-0.9,0.5s-0.7,0.3-1,0.4s-0.7,0.2-1,0.3c-0.3,0.1-0.6,0.1-0.8,0.1c-0.1,0.3-0.2,0.7-0.3,1.1
	c-0.1,0.5-0.1,0.9-0.1,1.3s0.1,0.8,0.4,1.2s0.6,0.5,1.1,0.5c0.6,0,1.3-0.2,1.8-0.6c0.5-0.4,1-0.8,1.4-1.4c0.4-0.5,0.8-1.1,1-1.7
	c0.3-0.6,0.5-1.1,0.7-1.5c0.1-0.1,0.1-0.2,0.2-0.3s0.2-0.1,0.2-0.1s0.1,0,0.1,0.1C256.1,33.5,256.1,33.7,256,33.8z M252.9,33
	c0.4-0.3,0.7-0.7,1-1.1s0.4-0.8,0.6-1.2s0.1-0.6,0.1-0.9s-0.2-0.4-0.4-0.3c-0.2,0-0.6,0.2-1,0.5c-0.4,0.3-0.9,0.8-1.6,1.6
	c-0.4,0.5-0.8,1-1.1,1.5c-0.3,0.6-0.6,1-0.7,1.3c0.1,0,0.3,0,0.6-0.1s0.5-0.1,0.8-0.2c0.3-0.1,0.6-0.3,0.9-0.4
	C252.3,33.4,252.6,33.2,252.9,33z M276.5,29.3c0,0-0.1,0.1-0.1,0.1c-0.1,0.3-0.3,0.8-0.5,1.5c-0.2,0.7-0.5,1.4-0.7,2.2
	c-0.3,0.8-0.6,1.6-1,2.4c-0.4,0.8-0.8,1.5-1.3,2.1c-0.5,0.6-1,1.1-1.7,1.4c-0.6,0.3-1.3,0.4-2,0.3c-0.4-0.1-0.7-0.3-0.9-0.6
	s-0.3-0.7-0.4-1.1s0-0.8,0-1.2s0.1-0.8,0.2-1.1c-0.2,0.3-0.4,0.7-0.7,1.2c-0.3,0.5-0.6,0.9-0.9,1.3c-0.4,0.4-0.7,0.8-1.1,1.1
	s-0.8,0.5-1.2,0.5s-0.8-0.1-1.2-0.4c-0.4-0.2-0.6-0.6-0.7-1c-0.1-0.3-0.1-0.6,0-0.9c0-0.3,0.1-0.6,0.2-0.9c0.1-0.3,0.2-0.6,0.4-0.8
	c0.1-0.3,0.3-0.5,0.4-0.8c-0.1,0-0.2,0-0.3-0.1s-0.1-0.2,0-0.4c0.1-0.2,0.2-0.3,0.3-0.5c0.1-0.2,0.2-0.4,0.3-0.5
	c0.3-0.6,0.6-1.1,0.9-1.7c0.3-0.6,0.6-1.1,0.8-1.5c0.1-0.2,0.3-0.4,0.5-0.5s0.4-0.1,0.7-0.1h1.8c-0.2,0.1-0.3,0.2-0.5,0.4
	c-0.1,0.1-0.3,0.3-0.4,0.5c-0.1,0.2-0.3,0.4-0.5,0.6c-0.2,0.3-0.3,0.6-0.5,1c-0.3,0.5-0.5,1-0.7,1.5c-0.2,0.4-0.4,0.8-0.6,1.3
	s-0.4,0.8-0.5,1.1c-0.3,0.7-0.5,1.3-0.6,1.8s0,0.9,0.1,1.1s0.3,0.4,0.6,0.3s0.6-0.2,1-0.6c0.5-0.4,0.9-1,1.4-1.8
	c0.5-0.8,1-1.6,1.4-2.5c0.5-0.8,0.8-1.6,1.2-2.4c0.4-0.8,0.6-1.3,0.8-1.7c0.1-0.2,0.2-0.4,0.4-0.5s0.4-0.1,0.7-0.1h1.8
	c-0.1,0.1-0.3,0.3-0.5,0.4s-0.5,0.4-0.6,0.7c-0.2,0.3-0.3,0.5-0.4,0.7c-0.1,0.2-0.2,0.4-0.4,0.6s-0.2,0.5-0.4,0.7
	c-0.1,0.3-0.3,0.6-0.5,1c-0.1,0.1-0.2,0.3-0.3,0.7c-0.1,0.3-0.3,0.7-0.5,1.1s-0.3,0.8-0.4,1.3c-0.1,0.4-0.2,0.8-0.2,1.2
	c0,0.4,0,0.7,0.1,0.9s0.3,0.4,0.6,0.4c0.4,0,0.8-0.1,1.2-0.3s0.8-0.6,1.2-1.1s0.7-1,1.1-1.7s0.6-1.3,0.9-2c-0.2-0.5-0.3-1-0.4-1.5
	s0-1,0.1-1.4c0.2-0.6,0.5-1.2,0.8-1.5c0.3-0.4,0.6-0.6,0.9-0.6s0.5,0,0.7,0.1C276.6,28.8,276.6,29,276.5,29.3z M277.8,36.8
	c-0.1,0.5-0.2,0.9-0.1,1.3s0.3,0.6,0.7,0.6c0.2,0,0.5,0,0.7-0.1c0.3-0.1,0.5-0.3,0.6-0.4c0.5-0.5,1-1.2,1.5-2s0.9-1.7,1.3-2.5
	c0.1-0.3,0.3-0.4,0.4-0.3s0.1,0.3,0,0.6c-0.2,0.4-0.5,0.9-0.7,1.5c-0.3,0.6-0.6,1.2-1.1,1.8c-0.4,0.6-0.9,1.1-1.3,1.5
	c-0.5,0.4-1,0.6-1.5,0.6s-1-0.1-1.3-0.4s-0.5-0.6-0.6-1s-0.1-0.8-0.1-1.3s0.2-0.9,0.3-1.3l1.9-4.9c0.1-0.3,0.1-0.5,0-0.8
	c-0.1-0.2-0.2-0.4-0.3-0.5l1.6,0c0.5,0,0.7,0.1,0.8,0.3c0,0.2,0,0.4-0.2,0.8l-2.4,5.6c0,0.1-0.1,0.3-0.1,0.4c0,0.1-0.1,0.2-0.1,0.3
	C277.9,36.7,277.8,36.8,277.8,36.8z M282,26.9c-0.1,0.3-0.2,0.6-0.5,0.9c-0.3,0.2-0.6,0.4-0.9,0.4c-0.3,0-0.6-0.1-0.8-0.4
	c-0.2-0.2-0.3-0.5-0.2-0.9c0.1-0.3,0.2-0.6,0.5-0.9c0.3-0.2,0.6-0.4,0.9-0.4c0.3,0,0.6,0.1,0.8,0.4C282,26.3,282.1,26.6,282,26.9z
	 M299.6,33.9c-0.2,0.4-0.5,0.9-0.8,1.6c-0.3,0.6-0.7,1.3-1.1,1.8c-0.4,0.6-0.9,1.1-1.4,1.5c-0.5,0.4-1,0.6-1.6,0.6
	c-0.3,0-0.5,0-0.8-0.2c-0.3-0.1-0.5-0.3-0.7-0.5s-0.3-0.6-0.3-1.1c0-0.5,0-1,0.3-1.7c0.1-0.4,0.3-0.8,0.6-1.3c0.3-0.5,0.6-1.1,1-1.8
	c0.2-0.3,0.3-0.6,0.3-0.8c0-0.2,0-0.4-0.2-0.4c-0.2,0-0.4,0-0.8,0.2c-0.4,0.2-0.8,0.6-1.4,1.1c-0.5,0.5-1.1,1.1-1.8,2
	c-0.7,0.9-1.5,2.2-2.3,3.8c-0.1,0.2-0.2,0.3-0.4,0.4s-0.4,0.1-0.7,0.1c-0.2,0-0.4,0-0.5,0s-0.3,0-0.5,0.2c0.8-1.7,1.7-3.5,2.6-5.3
	c0.9-1.9,1.8-3.7,2.8-5.6c-0.6,0-1.1,0.1-1.7,0.1c-0.6,0-1.2,0-1.9,0c-0.5,0.9-1.1,1.7-1.7,2.5c-0.6,0.8-1.4,1.6-2.3,2.4
	c-0.1,0.2-0.1,0.4-0.2,0.7c-0.1,0.3-0.1,0.6-0.2,0.9c-0.1,0.3-0.1,0.6-0.2,0.9c0,0.3-0.1,0.5-0.1,0.5c-0.1,0.8-0.1,1.5-0.1,2.2
	c0.1,0.7,0.2,1.2,0.4,1.6s0.5,0.7,0.8,0.8c0.3,0.1,0.7,0,1.1-0.4c0.2-0.2,0.4-0.2,0.5-0.1s0,0.3-0.2,0.5c-0.7,0.5-1.3,0.7-1.9,0.7
	c-0.6,0-1.1-0.2-1.5-0.6c-0.4-0.4-0.7-1-0.8-1.9c-0.2-0.8-0.1-1.9,0-3.1c0.1-0.5,0.2-1.1,0.4-1.7c0.2-0.6,0.3-1.3,0.5-2
	c0.2-0.7,0.4-1.4,0.7-2c0.3-0.7,0.5-1.3,0.7-1.9h-1.5c-0.1,0-0.1,0-0.2-0.1c0-0.1,0-0.1,0-0.2c0-0.1,0-0.1,0.1-0.2s0.1-0.1,0.2-0.1
	h1.8c0.3-0.8,0.7-1.5,1.1-2.2c0.4-0.7,0.7-1.4,1.1-2c0.5-0.8,1-1.4,1.5-1.8c0.5-0.4,1-0.5,1.4-0.5c0.8,0.2,1.1,0.8,1,1.9
	c-0.1,1-0.8,2.6-2.1,4.7c0.4,0,0.7,0,1,0c0.3,0,0.6,0,0.9,0s0.5,0,0.8,0s0.6,0,0.9,0c0.3-0.5,0.7-1.3,1.2-2.2s1-1.9,1.6-2.9
	s1.2-2,1.8-3c0.6-1,1.3-1.8,1.9-2.5c0.4-0.5,1-0.9,1.6-1.2c0.6-0.3,1.2-0.4,1.7-0.4c0.5,0,1,0.2,1.3,0.6c0.3,0.4,0.4,1.1,0.3,2
	c-0.1,0.9-0.5,1.9-1.1,3s-1.3,2.1-2.1,3.1c-0.9,1-1.9,1.8-3,2.6c-1.1,0.7-2.3,1.3-3.5,1.5c-0.6,1.1-1.2,2.2-1.7,3.3s-1,2.1-1.5,3.1
	c0.4-0.5,0.8-1,1.2-1.5s0.8-0.8,1.2-1.2c0.4-0.3,0.8-0.7,1.3-1c0.5-0.4,1.1-0.7,1.6-1c0.5-0.3,1-0.5,1.5-0.7
	c0.5-0.2,0.8-0.2,1.1-0.1c-0.6,1.1-1.1,2.1-1.6,3.1c-0.2,0.4-0.4,0.8-0.6,1.3c-0.2,0.4-0.4,0.9-0.6,1.3s-0.3,0.8-0.5,1.2
	s-0.2,0.7-0.3,0.9c-0.1,0.6-0.1,1,0,1.2c0.1,0.2,0.3,0.3,0.5,0.3c0.3,0,0.7-0.2,1.1-0.6s0.8-0.9,1.2-1.5c0.4-0.6,0.7-1.2,1-1.8
	c0.3-0.6,0.5-1,0.7-1.4c0.1-0.3,0.3-0.4,0.4-0.3C299.8,33.4,299.7,33.6,299.6,33.9z M286.1,28.7c-0.3,0.7-0.6,1.5-0.9,2.1
	c-0.3,0.7-0.5,1.3-0.7,1.8c0.6-0.6,1.1-1.2,1.6-1.9c0.5-0.7,1-1.4,1.4-2.1H286.1z M287.9,28c0.6-1,1-2,1.5-3
	c0.1-0.3,0.3-0.7,0.4-1.1c0.1-0.4,0.1-0.8,0.1-1s-0.1-0.3-0.3-0.3c-0.2,0.1-0.5,0.4-1,1.1c-0.4,0.5-0.7,1.2-1,1.9s-0.7,1.6-1.1,2.4
	L287.9,28L287.9,28z M294.1,27.7c1-0.2,1.9-0.7,2.8-1.3s1.7-1.4,2.4-2.2s1.4-1.7,1.9-2.7c0.5-1,0.9-1.9,1.1-2.7
	c0.1-0.5,0.2-0.9,0.1-1.2s-0.2-0.5-0.4-0.5c-0.2-0.1-0.4-0.1-0.7,0c-0.3,0.1-0.5,0.3-0.8,0.5c-0.6,0.6-1.2,1.3-1.7,2.1
	c-0.6,0.8-1.2,1.6-1.7,2.5c-0.6,0.9-1.1,1.8-1.6,2.8C295,26,294.5,26.9,294.1,27.7z M315,33.8c-0.3,0.6-0.6,1.3-1,2
	c-0.4,0.7-0.8,1.4-1.3,2c-0.6,0.7-1.3,1.2-2.1,1.5s-1.6,0.4-2.5,0.4c-0.3,0-0.6,0-0.9-0.1c-0.3,0-0.6-0.1-0.8-0.2
	c-0.3-0.1-0.5-0.2-0.7-0.3c-0.2-0.1-0.4-0.3-0.5-0.5c-0.2-0.3-0.3-0.7-0.3-1.1s0-0.7,0.1-1.1c0.1-0.3,0.2-0.6,0.4-0.8
	c0.2-0.2,0.4-0.3,0.6-0.3c0.4-0.8,0.8-1.6,1.3-2.5c0.4-0.9,0.9-1.8,1.3-2.6c0.3-0.6,0.6-1.1,0.9-1.6c0.3-0.5,0.7-0.9,1-1.3
	c0.4-0.4,0.8-0.6,1.1-0.8c0.4-0.1,0.7-0.2,1-0.2c0.3,0,0.5,0.1,0.6,0.3s0.3,0.3,0.3,0.5s0,0.4-0.1,0.6s-0.4,0.3-0.7,0.4
	c-0.2,0-0.4,0-0.6,0c-0.2-0.1-0.4-0.1-0.5-0.3c-0.2-0.1-0.4-0.2-0.6-0.1c-0.2,0-0.4,0.1-0.5,0.2c-0.1,0.1-0.3,0.3-0.4,0.5
	c-0.1,0.2-0.2,0.4-0.2,0.6c-0.1,0.5-0.1,1.1,0,1.7s0.2,1.1,0.4,1.4c0.2,0.6,0.5,1.1,0.7,1.7c0.3,0.6,0.4,1.2,0.3,1.8
	c0,0.3-0.1,0.6-0.2,1c-0.1,0.4-0.3,0.7-0.5,1.1c-0.2,0.4-0.5,0.7-0.8,0.9s-0.6,0.4-1,0.5c0.6,0.1,1.2-0.1,1.8-0.4
	c0.6-0.3,1.1-0.7,1.5-1.2c0.2-0.2,0.4-0.5,0.5-0.8s0.4-0.7,0.6-1c0.2-0.4,0.4-0.7,0.6-1.1c0.2-0.4,0.4-0.7,0.5-1
	c0.1-0.2,0.2-0.2,0.3-0.2C315,33.5,315.1,33.6,315,33.8z M307.3,39c0.3,0,0.6-0.1,0.9-0.2s0.4-0.3,0.6-0.5c0.2-0.3,0.4-0.6,0.6-1.1
	c0.2-0.5,0.3-1,0.3-1.6c0-0.5,0-1-0.1-1.5s-0.1-1-0.2-1.5c-0.1-0.5-0.1-1-0.2-1.4c0-0.5,0-0.9,0-1.2c-0.2,0.4-0.4,0.9-0.7,1.4
	c-0.3,0.5-0.5,1-0.8,1.5s-0.5,1-0.7,1.5c-0.2,0.5-0.5,0.9-0.6,1.2c0.1,0,0.1,0,0.2,0c0.2,0.1,0.3,0.2,0.4,0.4c0,0.1,0.1,0.2,0.1,0.3
	s0,0.3,0,0.5c-0.1-0.1-0.2-0.1-0.3,0s-0.2,0.1-0.3,0.3s-0.2,0.2-0.2,0.4s-0.1,0.3-0.1,0.3c-0.1,0.4,0,0.7,0.2,1
	C306.6,38.8,306.9,39,307.3,39z M332.7,33.9c-0.5,1-1,1.9-1.4,2.6c-0.4,0.7-0.8,1.3-1.3,1.8c-0.5,0.5-1.1,1-1.8,1.3
	c-0.7,0.4-1.6,0.8-2.6,1.2c-0.5,0.8-1,1.7-1.6,2.7c-0.6,0.9-1.3,1.8-2,2.6s-1.6,1.4-2.5,1.9c-0.9,0.5-1.9,0.8-3,0.8
	c-0.8,0-1.3-0.1-1.8-0.3s-0.7-0.5-0.9-0.9c-0.2-0.4-0.2-0.8-0.2-1.2s0.2-0.8,0.4-1.3c0.3-0.6,0.7-1,1.2-1.4c0.5-0.4,1-0.7,1.6-1
	c1-0.5,2.2-0.9,3.5-1.2s2.5-0.6,3.8-1c0.3-0.5,0.5-1,0.8-1.7c0.3-0.6,0.5-1.2,0.7-1.8c0.2-0.6,0.4-1.2,0.6-1.8
	c0.2-0.6,0.3-1,0.5-1.4c-0.3,0.5-0.6,1-0.9,1.6c-0.4,0.6-0.8,1.2-1.2,1.8c-0.5,0.6-0.9,1-1.5,1.5s-1.1,0.6-1.6,0.6
	c-0.2,0-0.3,0-0.5,0c-0.2,0-0.4-0.1-0.5-0.2s-0.3-0.2-0.5-0.4c-0.1-0.2-0.3-0.4-0.3-0.7c-0.1-0.3-0.1-0.6,0-0.9
	c0-0.3,0.1-0.6,0.2-0.9c0.1-0.3,0.2-0.6,0.4-0.8c0.1-0.3,0.3-0.5,0.4-0.8c-0.1,0-0.2,0-0.3-0.1s-0.1-0.2,0-0.4
	c0.1-0.2,0.2-0.3,0.3-0.5c0.1-0.2,0.2-0.4,0.3-0.5c0.3-0.6,0.6-1.1,0.9-1.7c0.3-0.6,0.6-1.1,0.8-1.5c0.1-0.2,0.3-0.4,0.5-0.5
	s0.4-0.1,0.7-0.1h1.8c-0.1,0.1-0.3,0.3-0.5,0.4s-0.4,0.4-0.6,0.7c-0.5,0.9-1,1.8-1.4,2.6c-0.4,0.9-0.9,1.8-1.3,2.7
	c-0.4,0.8-0.6,1.4-0.6,1.9c0,0.5,0,0.9,0.2,1.1s0.5,0.2,0.9,0.1s0.8-0.5,1.3-1.1c0.4-0.5,0.8-1,1.3-1.7c0.4-0.7,0.9-1.3,1.3-2
	c0.4-0.7,0.8-1.4,1.2-2.1c0.4-0.7,0.7-1.3,1-1.9c0.1-0.2,0.3-0.4,0.5-0.5s0.4-0.1,0.7-0.1h1.6c-0.3,0.2-0.5,0.4-0.7,0.7
	c-0.2,0.3-0.4,0.5-0.6,0.9s-0.4,0.7-0.5,1.1c-0.2,0.4-0.3,0.9-0.5,1.4c-0.4,1-0.8,2.1-1.1,3.3c-0.4,1.2-0.8,2.3-1.2,3.5
	c0.3-0.1,0.7-0.2,1.1-0.4c0.4-0.2,0.8-0.4,1.1-0.6c0.4-0.2,0.7-0.5,1.1-0.8s0.7-0.7,1-1.1c0.5-0.7,0.8-1.3,1.2-1.9s0.6-1.1,0.7-1.3
	c0.1-0.3,0.3-0.3,0.4-0.3C332.9,33.5,332.9,33.6,332.7,33.9z M321.9,28c0.1,0,0.1,0,0.2,0.1s0,0.1,0,0.2s0,0.1-0.1,0.2
	s-0.1,0.1-0.2,0.1h-1.7c-0.5,0.9-1.1,1.7-1.7,2.5c-0.6,0.8-1.4,1.6-2.3,2.4c-0.1,0.2-0.1,0.5-0.2,0.8c-0.1,0.3-0.1,0.7-0.2,1
	c-0.1,0.4-0.2,0.8-0.2,1.2c-0.1,0.5-0.1,0.9,0,1.2s0.3,0.5,0.5,0.6s0.4,0.2,0.7,0.1c0.3,0,0.5-0.2,0.8-0.3c0.7-0.5,1.3-1.2,1.8-2
	c0.5-0.8,1-1.7,1.4-2.5c0.1-0.3,0.3-0.4,0.4-0.3s0.1,0.2,0,0.5c-0.3,0.7-0.6,1.3-0.9,1.7c-0.2,0.5-0.5,0.9-0.7,1.2
	c-0.2,0.3-0.4,0.7-0.6,0.9s-0.5,0.5-0.7,0.8c-0.4,0.4-0.9,0.7-1.4,0.8c-0.5,0.1-1,0.1-1.4-0.1c-0.4-0.2-0.8-0.5-1.1-1
	c-0.3-0.5-0.3-1.1-0.2-2c0.1-0.5,0.2-1.1,0.3-1.7c0.2-0.6,0.4-1.3,0.6-2c0.2-0.7,0.4-1.4,0.7-2c0.3-0.7,0.5-1.3,0.7-1.9h-1.5
	c-0.1,0-0.1,0-0.2-0.1c0-0.1,0-0.1,0-0.2c0-0.1,0-0.1,0.1-0.2s0.1-0.1,0.2-0.1h1.8c0.3-0.8,0.7-1.5,1.1-2.2c0.4-0.7,0.7-1.4,1.1-2
	c0.5-0.9,1.1-1.5,1.6-1.9c0.6-0.4,1.1-0.5,1.5-0.4c0.4,0.1,0.6,0.5,0.7,1.2c0.1,0.7-0.2,1.6-0.7,2.8c-0.4,0.9-0.8,1.7-1.3,2.6
	L321.9,28L321.9,28z M323.5,41.5c-0.5,0.1-1,0.3-1.5,0.4c-0.5,0.1-1.1,0.3-1.6,0.5c-0.6,0.2-1.1,0.3-1.6,0.5c-0.5,0.2-1,0.3-1.4,0.5
	c-0.8,0.3-1.4,0.8-1.9,1.3s-0.8,1.1-1,1.6c-0.2,0.5-0.1,1,0,1.3c0.2,0.4,0.6,0.6,1.3,0.6c0.6,0,1.3-0.2,2-0.6s1.4-0.9,2-1.5
	c0.6-0.6,1.2-1.2,1.8-1.8c0.5-0.6,1-1.2,1.3-1.7c0.1-0.2,0.2-0.3,0.3-0.5C323.3,41.9,323.4,41.7,323.5,41.5z M318,28.7
	c-0.3,0.7-0.6,1.5-0.9,2.1c-0.3,0.7-0.5,1.3-0.7,1.8c0.6-0.6,1.1-1.2,1.6-1.9c0.5-0.7,1-1.4,1.4-2.1H318z M319.8,28c0.6-1,1-2,1.5-3
	c0.1-0.3,0.3-0.7,0.4-1.1c0.1-0.4,0.1-0.8,0.1-1s-0.1-0.3-0.3-0.3c-0.2,0.1-0.5,0.4-1,1.1c-0.4,0.5-0.7,1.2-1,1.9s-0.7,1.6-1.1,2.4
	L319.8,28L319.8,28z M340.1,24.7c-0.7,1.5-1.5,3.1-2.5,4.6s-2.2,3-3.6,4.3c-0.1,0.3-0.2,0.6-0.3,0.9c-0.1,0.3-0.2,0.7-0.3,1.1
	c-0.2,0.9-0.3,1.6-0.1,2.1c0.1,0.5,0.4,0.8,0.7,1s0.7,0.1,1.2-0.1s0.9-0.6,1.3-1.2c0.2-0.4,0.5-0.7,0.7-1.1s0.4-0.7,0.6-1
	s0.4-0.7,0.5-0.9c0.1-0.3,0.3-0.5,0.4-0.7c0.1-0.3,0.3-0.4,0.4-0.3s0.1,0.2,0,0.5c-0.2,0.4-0.4,0.9-0.7,1.5
	c-0.3,0.6-0.7,1.3-1.1,1.8s-0.9,1.1-1.5,1.5c-0.6,0.4-1.2,0.7-2,0.7c-0.6,0-1-0.1-1.3-0.3c-0.3-0.2-0.5-0.5-0.6-0.8
	c-0.1-0.3-0.2-0.7-0.2-1.1c0-0.4,0-0.8,0.1-1.3c0.1-0.4,0.2-0.9,0.3-1.3s0.2-0.8,0.3-1.1c0.2-0.8,0.5-1.7,0.9-2.6
	c0.3-0.9,0.7-1.9,1.1-2.8s0.8-1.8,1.3-2.7s0.9-1.7,1.3-2.4c0.5-0.9,1.1-1.5,1.7-1.9s1.1-0.5,1.5-0.4c0.4,0.1,0.6,0.5,0.7,1.2
	C340.9,22.6,340.6,23.5,340.1,24.7z M339.6,24.2c0.1-0.3,0.3-0.7,0.4-1.1c0.1-0.4,0.1-0.7,0.1-0.9c0-0.2-0.1-0.3-0.3-0.3
	s-0.5,0.4-0.9,1c-0.4,0.5-0.8,1.2-1.2,2c-0.5,0.9-0.9,1.8-1.3,2.7s-0.8,1.9-1.2,2.8s-0.7,1.7-0.9,2.3c0.5-0.5,1.1-1.1,1.6-1.8
	s1-1.4,1.5-2.1c0.5-0.7,0.9-1.5,1.3-2.3C339,25.7,339.4,24.9,339.6,24.2z M346.4,33.8c-0.3,0.6-0.6,1.2-0.9,1.9
	c-0.3,0.7-0.7,1.3-1.1,1.8s-1,1-1.5,1.4c-0.6,0.4-1.3,0.5-2.1,0.5c-0.8,0-1.4-0.2-2-0.7s-0.9-1.2-0.9-2.1c0-0.4,0-0.9,0.2-1.4
	c0.1-0.5,0.3-1,0.5-1.5c0.2-0.5,0.5-1,0.7-1.4c0.3-0.5,0.6-0.9,0.9-1.3c0.4-0.4,0.8-0.8,1.3-1.2s0.9-0.6,1.4-0.8s0.9-0.3,1.3-0.3
	c0.4,0,0.8,0.1,1.1,0.4c0.3,0.2,0.4,0.5,0.5,0.8c0,0.3,0,0.7-0.2,1.1c-0.2,0.4-0.4,0.8-0.7,1.2c-0.3,0.4-0.7,0.8-1.2,1.2
	c-0.2,0.2-0.5,0.3-0.9,0.5c-0.3,0.2-0.7,0.3-1,0.4s-0.7,0.2-1,0.3s-0.6,0.1-0.8,0.1c-0.1,0.3-0.2,0.7-0.3,1.1
	c-0.1,0.5-0.1,0.9-0.1,1.3s0.1,0.8,0.4,1.2s0.6,0.5,1.1,0.5c0.6,0,1.3-0.2,1.8-0.6c0.5-0.4,1-0.8,1.4-1.4c0.4-0.5,0.8-1.1,1-1.7
	c0.3-0.6,0.5-1.1,0.7-1.5c0.1-0.1,0.1-0.2,0.2-0.3s0.2-0.1,0.2-0.1c0.1,0,0.1,0,0.1,0.1C346.5,33.5,346.5,33.7,346.4,33.8z
	 M343.3,33c0.4-0.3,0.7-0.7,1-1.1s0.5-0.8,0.5-1.2c0.1-0.4,0.1-0.6,0.1-0.9s-0.2-0.4-0.5-0.3c-0.2,0-0.6,0.2-1,0.5
	c-0.4,0.3-0.9,0.8-1.5,1.6c-0.4,0.5-0.8,1-1.1,1.5c-0.3,0.6-0.6,1-0.7,1.3c0.1,0,0.3,0,0.6-0.1c0.2,0,0.5-0.1,0.8-0.2
	c0.3-0.1,0.6-0.3,0.9-0.4C342.8,33.4,343.1,33.2,343.3,33z"/>
</svg>
