<?xml version="1.0" encoding="utf-8"?>
<!-- Generator: Adobe Illustrator 23.0.3, SVG Export Plug-In . SVG Version: 6.00 Build 0)  -->
<svg version="1.0" id="logo" xmlns="http://www.w3.org/2000/svg" xmlns:xlink="http://www.w3.org/1999/xlink" x="0px" y="0px"
	 viewBox="0 0 358 66.44" enable-background="new 0 0 358 66.44" xml:space="preserve" width="358px">
<path fill="#C6A97E" d="M44.99,30.29c0,11.68-9.54,21.18-21.25,21.18c-5.17,0-9.91-1.85-13.6-4.92V30.31H7.66V44.1
	c-3.21-3.71-5.18-8.54-5.18-13.81c0-11.68,9.54-21.18,21.26-21.18C35.46,9.11,44.99,18.61,44.99,30.29 M47.48,30.29
	c0-13.04-10.65-23.66-23.74-23.66C10.65,6.63,0,17.24,0,30.29c0,6.86,2.96,13.03,7.66,17.35v18.8h2.48V49.65
	c3.86,2.7,8.54,4.29,13.6,4.29C36.83,53.95,47.48,43.33,47.48,30.29 M90.1,15.05h3.4c-4.36-5.14-10.86-8.42-18.13-8.42
	c-7.27,0-13.77,3.28-18.13,8.42h3.4c3.82-3.67,9.01-5.95,14.73-5.95C81.09,9.11,86.27,11.38,90.1,15.05 M99.11,30.29
	c0-2.96-0.57-5.78-1.57-8.4h-2.66c1.12,2.58,1.75,5.41,1.75,8.4c0,11.68-9.53,21.18-21.25,21.18c-11.72,0-21.26-9.5-21.26-21.18
	c0-2.98,0.63-5.82,1.75-8.4H53.2c-1,2.61-1.57,5.44-1.57,8.4c0,13.05,10.65,23.66,23.74,23.66S99.11,43.33,99.11,30.29
	 M109.08,48.23c0,0.95-0.77,1.72-1.72,1.72s-1.72-0.77-1.72-1.72s0.77-1.72,1.72-1.72S109.08,47.28,109.08,48.23 M111.56,48.23
	c0-2.31-1.89-4.19-4.21-4.19s-4.21,1.88-4.21,4.19s1.89,4.19,4.21,4.19S111.56,50.54,111.56,48.23 M154.11,15.05h3.38
	c-4.53-5.35-11.11-8.42-18.14-8.42c-13.09,0-23.74,10.61-23.74,23.66c0,13.05,10.65,23.66,23.74,23.66c7.08,0,13.74-3.12,18.27-8.56
	l-0.04-0.03h-3.32c-3.96,3.9-9.29,6.11-14.92,6.11c-11.72,0-21.25-9.5-21.25-21.18s9.54-21.18,21.25-21.18
	C144.91,9.11,150.16,11.25,154.11,15.05 M194.21,15.05h3.4c-4.36-5.14-10.86-8.42-18.13-8.42c-7.27,0-13.77,3.28-18.13,8.42h3.4
	c3.82-3.67,9.01-5.95,14.73-5.95C185.2,9.11,190.39,11.38,194.21,15.05 M203.22,30.29c0-2.96-0.57-5.78-1.57-8.4h-2.66
	c1.12,2.58,1.75,5.41,1.75,8.4c0,11.68-9.53,21.18-21.25,21.18c-11.72,0-21.26-9.5-21.26-21.18c0-2.98,0.63-5.82,1.75-8.4h-2.66
	c-1,2.61-1.57,5.44-1.57,8.4c0,13.05,10.65,23.66,23.74,23.66C192.57,53.95,203.22,43.33,203.22,30.29"/>
<path fill="#FFFFFF" d="M234.93,24.68c-0.69,1.55-1.52,3.09-2.47,4.63c-0.95,1.54-2.16,2.97-3.63,4.3c-0.08,0.26-0.18,0.56-0.3,0.89
	c-0.12,0.34-0.23,0.69-0.33,1.07c-0.22,0.89-0.26,1.6-0.12,2.11c0.14,0.52,0.38,0.85,0.73,1c0.35,0.15,0.74,0.12,1.19-0.09
	s0.87-0.59,1.27-1.15c0.24-0.36,0.47-0.71,0.7-1.07c0.23-0.36,0.44-0.7,0.63-1.04c0.19-0.34,0.36-0.65,0.51-0.94
	c0.15-0.29,0.27-0.53,0.37-0.73c0.14-0.26,0.28-0.37,0.43-0.34c0.15,0.03,0.15,0.19,0.01,0.49c-0.18,0.4-0.42,0.91-0.71,1.55
	c-0.3,0.64-0.66,1.25-1.09,1.85c-0.43,0.6-0.93,1.11-1.5,1.55c-0.58,0.44-1.24,0.65-1.99,0.65c-0.56,0-0.99-0.1-1.29-0.31
	c-0.31-0.21-0.53-0.48-0.65-0.82c-0.13-0.34-0.19-0.71-0.18-1.13c0.01-0.42,0.05-0.84,0.13-1.28c0.08-0.44,0.18-0.86,0.3-1.27
	c0.12-0.41,0.22-0.76,0.3-1.06c0.24-0.83,0.53-1.72,0.86-2.65c0.34-0.93,0.7-1.86,1.1-2.78c0.4-0.92,0.81-1.82,1.25-2.69
	c0.44-0.87,0.87-1.67,1.31-2.38c0.54-0.89,1.1-1.53,1.7-1.92c0.6-0.39,1.09-0.52,1.49-0.39c0.4,0.13,0.63,0.52,0.7,1.18
	C235.7,22.57,235.47,23.49,234.93,24.68z M234.49,24.24c0.14-0.34,0.26-0.7,0.36-1.1c0.1-0.4,0.13-0.71,0.1-0.94
	c-0.03-0.23-0.13-0.31-0.31-0.25c-0.18,0.06-0.47,0.38-0.86,0.95c-0.36,0.52-0.76,1.2-1.22,2.05c-0.46,0.85-0.9,1.75-1.34,2.69
	c-0.44,0.94-0.84,1.87-1.22,2.77c-0.38,0.9-0.68,1.65-0.92,2.25c0.54-0.54,1.06-1.15,1.58-1.83c0.52-0.68,1.01-1.4,1.49-2.14
	c0.48-0.74,0.91-1.5,1.31-2.26C233.84,25.66,234.19,24.93,234.49,24.24z M233.89,36.83c-0.14,0.5-0.17,0.92-0.1,1.28
	c0.07,0.36,0.31,0.56,0.73,0.6c0.22,0.04,0.46,0,0.71-0.13c0.26-0.13,0.47-0.27,0.63-0.43c0.5-0.5,0.98-1.16,1.46-1.99
	s0.92-1.67,1.34-2.5c0.12-0.28,0.25-0.38,0.39-0.3c0.14,0.08,0.14,0.27,0,0.57c-0.2,0.42-0.45,0.93-0.74,1.55
	c-0.3,0.62-0.65,1.22-1.06,1.8c-0.41,0.59-0.85,1.08-1.32,1.49c-0.48,0.41-0.99,0.61-1.55,0.61c-0.56,0-0.98-0.13-1.28-0.39
	c-0.3-0.26-0.5-0.58-0.6-0.97c-0.1-0.39-0.12-0.8-0.06-1.25c0.06-0.45,0.17-0.87,0.33-1.27l1.91-4.85c0.12-0.28,0.11-0.54-0.01-0.77
	c-0.13-0.24-0.22-0.4-0.28-0.48l1.64-0.03c0.48,0,0.74,0.08,0.79,0.25c0.05,0.17-0.01,0.43-0.16,0.79l-2.38,5.57
	c-0.04,0.14-0.09,0.26-0.15,0.36c-0.04,0.1-0.08,0.2-0.12,0.3C233.94,36.72,233.91,36.79,233.89,36.83z M238.09,26.91
	c-0.06,0.34-0.23,0.63-0.51,0.86c-0.28,0.24-0.59,0.36-0.92,0.36c-0.34,0-0.61-0.12-0.8-0.36c-0.2-0.24-0.28-0.53-0.24-0.86
	c0.06-0.34,0.23-0.63,0.51-0.86c0.28-0.24,0.59-0.36,0.92-0.36c0.34,0,0.61,0.12,0.82,0.36C238.07,26.29,238.15,26.58,238.09,26.91z
	 M238.35,27.33c0.06-0.28,0.18-0.41,0.37-0.4c0.19,0.01,0.27,0.15,0.25,0.43c0.04,0.26,0.14,0.46,0.3,0.61
	c0.16,0.15,0.35,0.26,0.58,0.34c0.23,0.08,0.48,0.13,0.74,0.15c0.27,0.02,0.54,0.01,0.82-0.03c0.5-0.91,1.08-1.96,1.76-3.16
	c0.67-1.19,1.42-2.38,2.25-3.57c0.82-1.19,1.71-2.32,2.65-3.38c0.94-1.06,1.93-1.93,2.96-2.6c0.97-0.63,1.91-1.02,2.83-1.15
	c0.91-0.13,1.64-0.02,2.17,0.33c0.54,0.35,0.81,0.93,0.83,1.76c0.02,0.82-0.37,1.88-1.16,3.17c-0.73,1.19-1.54,2.23-2.43,3.13
	c-0.88,0.89-1.86,1.7-2.93,2.41c-1.07,0.71-2.24,1.36-3.51,1.93c-1.27,0.58-2.66,1.14-4.17,1.7c-0.3,0.54-0.66,1.35-1.09,2.46
	c-0.43,1.1-0.85,2.33-1.28,3.68c-0.43,1.35-0.82,2.74-1.19,4.17c-0.37,1.43-0.64,2.75-0.8,3.96c-0.17,1.21-0.21,2.22-0.13,3.02
	c0.08,0.8,0.36,1.25,0.83,1.35c0.42,0.1,0.83-0.03,1.24-0.39c0.41-0.36,0.78-0.82,1.13-1.4c0.35-0.58,0.66-1.22,0.94-1.93
	c0.28-0.71,0.5-1.4,0.65-2.05c0.22-0.95,0.37-1.93,0.46-2.93s0.05-1.92-0.1-2.75c-0.18-1.01-0.56-1.76-1.15-2.25
	c-0.59-0.49-1.35-0.63-2.31-0.43c-0.18,0.04-0.21-0.01-0.1-0.15c0.11-0.14,0.3-0.22,0.58-0.24c0.54-0.04,1.01,0.01,1.43,0.13
	c0.42,0.13,0.78,0.31,1.1,0.54c0.32,0.23,0.59,0.5,0.8,0.8c0.22,0.31,0.39,0.61,0.51,0.91c0.2,0.46,0.34,0.95,0.42,1.49
	c0.08,0.54,0.11,1.09,0.1,1.67c-0.01,0.58-0.06,1.16-0.15,1.74c-0.09,0.59-0.2,1.16-0.34,1.71c-0.2,0.81-0.47,1.61-0.8,2.38
	c-0.34,0.77-0.73,1.46-1.18,2.05s-0.95,1.08-1.52,1.44c-0.57,0.37-1.17,0.55-1.8,0.55c-0.62,0-1.09-0.23-1.43-0.68
	c-0.34-0.46-0.55-1.08-0.64-1.86c-0.09-0.78-0.08-1.7,0.03-2.74c0.11-1.04,0.3-2.14,0.57-3.3c0.27-1.16,0.59-2.34,0.97-3.54
	c0.38-1.2,0.79-2.37,1.25-3.5c-0.69,1.31-1.3,2.42-1.82,3.32c-0.52,0.9-0.92,1.49-1.22,1.77c-0.12,0.1-0.21,0.09-0.28-0.01
	c-0.07-0.11-0.05-0.23,0.04-0.37c0.3-0.4,0.62-0.9,0.97-1.52c0.35-0.61,0.71-1.29,1.1-2.04c0.39-0.74,0.79-1.54,1.22-2.38
	c0.43-0.84,0.86-1.68,1.29-2.52c-0.44,0.04-0.85,0.01-1.24-0.07c-0.39-0.09-0.72-0.3-1-0.64c-0.14-0.16-0.25-0.33-0.33-0.52
	C238.33,27.72,238.31,27.53,238.35,27.33z M243.21,28.08c1.07-0.3,2.17-0.71,3.3-1.25c1.13-0.54,2.22-1.17,3.27-1.91
	c1.05-0.73,2.03-1.56,2.93-2.47c0.9-0.91,1.66-1.89,2.28-2.95c0.65-1.13,0.98-2,0.97-2.62c-0.01-0.61-0.22-1.02-0.64-1.22
	c-0.42-0.2-0.97-0.2-1.67-0.01c-0.69,0.19-1.39,0.53-2.08,1.03c-0.85,0.6-1.68,1.35-2.49,2.28c-0.8,0.92-1.57,1.91-2.29,2.96
	c-0.72,1.05-1.39,2.11-1.99,3.18C244.19,26.17,243.66,27.16,243.21,28.08z M256.01,33.82c-0.28,0.6-0.58,1.23-0.89,1.89
	c-0.32,0.67-0.69,1.28-1.13,1.85c-0.44,0.57-0.95,1.03-1.53,1.38c-0.59,0.36-1.29,0.54-2.13,0.54c-0.75,0-1.41-0.23-1.98-0.7
	c-0.57-0.47-0.86-1.18-0.88-2.13c0-0.44,0.05-0.9,0.16-1.4c0.11-0.5,0.27-0.99,0.48-1.47c0.21-0.49,0.45-0.96,0.73-1.41
	c0.28-0.46,0.59-0.88,0.92-1.28c0.38-0.44,0.79-0.83,1.25-1.19c0.46-0.36,0.91-0.63,1.37-0.82c0.46-0.19,0.9-0.28,1.32-0.28
	c0.43,0,0.81,0.12,1.15,0.36c0.28,0.22,0.44,0.5,0.49,0.83c0.05,0.34-0.01,0.71-0.16,1.12c-0.16,0.41-0.41,0.82-0.74,1.24
	c-0.34,0.42-0.74,0.8-1.22,1.16c-0.24,0.18-0.52,0.35-0.85,0.51c-0.33,0.16-0.67,0.3-1.03,0.42c-0.36,0.12-0.69,0.21-1.01,0.28
	c-0.32,0.07-0.58,0.1-0.77,0.1c-0.12,0.28-0.22,0.65-0.31,1.1c-0.09,0.46-0.12,0.9-0.09,1.34c0.03,0.44,0.15,0.82,0.36,1.15
	s0.56,0.49,1.06,0.49c0.65,0,1.25-0.19,1.77-0.58c0.53-0.39,0.99-0.85,1.4-1.38c0.41-0.54,0.75-1.09,1.04-1.67
	c0.29-0.58,0.52-1.06,0.7-1.46c0.06-0.14,0.13-0.24,0.22-0.31c0.09-0.07,0.17-0.1,0.24-0.1c0.07,0,0.12,0.03,0.15,0.1
	C256.11,33.55,256.08,33.66,256.01,33.82z M252.91,32.96c0.4-0.34,0.73-0.71,1-1.13c0.27-0.42,0.45-0.8,0.55-1.16
	c0.1-0.36,0.12-0.65,0.06-0.89c-0.06-0.24-0.21-0.35-0.45-0.34c-0.24,0.01-0.57,0.17-0.98,0.48c-0.42,0.31-0.93,0.83-1.55,1.56
	c-0.4,0.48-0.76,0.99-1.09,1.55c-0.33,0.56-0.56,0.97-0.7,1.25c0.14,0,0.33-0.02,0.57-0.07c0.24-0.05,0.51-0.13,0.8-0.24
	c0.3-0.11,0.6-0.25,0.91-0.42C252.34,33.37,252.63,33.18,252.91,32.96z M276.45,29.33c-0.04,0.04-0.06,0.09-0.06,0.15
	c-0.1,0.34-0.25,0.84-0.45,1.52c-0.2,0.67-0.45,1.4-0.74,2.19c-0.3,0.78-0.65,1.57-1.04,2.37c-0.4,0.79-0.84,1.5-1.34,2.11
	c-0.5,0.62-1.05,1.09-1.67,1.43c-0.62,0.34-1.28,0.43-1.99,0.27c-0.4-0.08-0.69-0.28-0.89-0.6c-0.2-0.32-0.32-0.67-0.37-1.07
	c-0.05-0.4-0.05-0.81,0-1.24c0.05-0.43,0.12-0.8,0.22-1.12c-0.18,0.32-0.41,0.7-0.68,1.16c-0.28,0.46-0.59,0.9-0.94,1.32
	c-0.35,0.43-0.72,0.79-1.12,1.09c-0.4,0.3-0.8,0.45-1.22,0.45c-0.42,0-0.8-0.12-1.16-0.36c-0.36-0.24-0.59-0.58-0.68-1.01
	c-0.06-0.32-0.07-0.63-0.03-0.92c0.04-0.3,0.11-0.59,0.22-0.88c0.11-0.29,0.24-0.57,0.39-0.83c0.15-0.27,0.29-0.54,0.43-0.82
	c-0.1,0-0.19-0.03-0.28-0.09c-0.09-0.06-0.08-0.19,0.01-0.39c0.1-0.16,0.19-0.33,0.27-0.51c0.08-0.18,0.17-0.36,0.27-0.54
	c0.3-0.58,0.6-1.15,0.89-1.73c0.3-0.58,0.56-1.09,0.77-1.55c0.12-0.24,0.27-0.4,0.46-0.49c0.19-0.09,0.42-0.13,0.7-0.13h1.82
	c-0.18,0.12-0.34,0.24-0.48,0.37c-0.14,0.13-0.28,0.28-0.43,0.46c-0.15,0.18-0.3,0.4-0.46,0.65c-0.16,0.26-0.34,0.6-0.54,1.01
	c-0.28,0.52-0.53,1.01-0.74,1.49c-0.22,0.42-0.43,0.84-0.63,1.28c-0.2,0.44-0.37,0.79-0.51,1.07c-0.32,0.69-0.51,1.29-0.57,1.79
	c-0.06,0.5-0.03,0.87,0.1,1.12c0.13,0.25,0.34,0.36,0.63,0.33c0.29-0.03,0.62-0.22,1-0.58c0.46-0.44,0.93-1.05,1.43-1.85
	c0.5-0.79,0.97-1.61,1.41-2.46c0.45-0.84,0.84-1.64,1.19-2.4c0.35-0.75,0.61-1.31,0.79-1.67c0.1-0.24,0.24-0.4,0.43-0.49
	c0.19-0.09,0.42-0.13,0.7-0.13h1.82c-0.12,0.12-0.3,0.25-0.55,0.4c-0.25,0.15-0.46,0.38-0.64,0.7c-0.16,0.26-0.3,0.49-0.42,0.7
	c-0.12,0.21-0.24,0.42-0.36,0.64c-0.12,0.22-0.24,0.47-0.37,0.74c-0.13,0.28-0.29,0.63-0.49,1.04c-0.06,0.12-0.16,0.34-0.3,0.65
	c-0.14,0.32-0.29,0.67-0.45,1.07c-0.16,0.4-0.3,0.81-0.42,1.25c-0.12,0.44-0.19,0.83-0.22,1.19c-0.03,0.36,0.01,0.66,0.12,0.91
	c0.11,0.25,0.32,0.38,0.64,0.4c0.42,0.04,0.83-0.07,1.24-0.34c0.41-0.27,0.79-0.64,1.16-1.12c0.37-0.48,0.72-1.04,1.06-1.68
	c0.34-0.64,0.64-1.32,0.92-2.04c-0.22-0.46-0.34-0.97-0.37-1.53s0.01-1.05,0.13-1.44c0.2-0.65,0.46-1.16,0.77-1.5
	c0.32-0.35,0.62-0.56,0.91-0.64c0.29-0.08,0.51-0.04,0.67,0.1C276.58,28.77,276.59,29.01,276.45,29.33z M277.82,36.83
	c-0.14,0.5-0.17,0.92-0.1,1.28c0.07,0.36,0.31,0.56,0.73,0.6c0.22,0.04,0.46,0,0.71-0.13c0.26-0.13,0.47-0.27,0.63-0.43
	c0.5-0.5,0.98-1.16,1.46-1.99s0.92-1.67,1.34-2.5c0.12-0.28,0.25-0.38,0.39-0.3c0.14,0.08,0.14,0.27,0,0.57
	c-0.2,0.42-0.45,0.93-0.74,1.55c-0.3,0.62-0.65,1.22-1.06,1.8c-0.41,0.59-0.85,1.08-1.32,1.49c-0.48,0.41-0.99,0.61-1.55,0.61
	c-0.56,0-0.98-0.13-1.28-0.39c-0.3-0.26-0.5-0.58-0.6-0.97c-0.1-0.39-0.12-0.8-0.06-1.25c0.06-0.45,0.17-0.87,0.33-1.27l1.9-4.85
	c0.12-0.28,0.11-0.54-0.01-0.77c-0.13-0.24-0.22-0.4-0.28-0.48l1.64-0.03c0.48,0,0.74,0.08,0.79,0.25c0.05,0.17-0.01,0.43-0.16,0.79
	l-2.38,5.57c-0.04,0.14-0.09,0.26-0.15,0.36c-0.04,0.1-0.08,0.2-0.12,0.3C277.87,36.72,277.84,36.79,277.82,36.83z M282.02,26.91
	c-0.06,0.34-0.23,0.63-0.51,0.86c-0.28,0.24-0.59,0.36-0.92,0.36c-0.34,0-0.61-0.12-0.8-0.36c-0.2-0.24-0.28-0.53-0.24-0.86
	c0.06-0.34,0.23-0.63,0.51-0.86c0.28-0.24,0.59-0.36,0.92-0.36c0.34,0,0.61,0.12,0.82,0.36C282.01,26.29,282.08,26.58,282.02,26.91z
	 M299.58,33.94c-0.2,0.42-0.45,0.94-0.76,1.58c-0.31,0.64-0.67,1.25-1.07,1.85c-0.41,0.6-0.86,1.1-1.35,1.5
	c-0.5,0.41-1.04,0.61-1.64,0.61c-0.26,0-0.53-0.05-0.8-0.15c-0.28-0.1-0.51-0.28-0.7-0.55c-0.19-0.27-0.3-0.63-0.34-1.07
	c-0.04-0.45,0.05-1.02,0.27-1.71c0.12-0.4,0.32-0.85,0.6-1.35c0.28-0.51,0.63-1.1,1.04-1.77c0.18-0.3,0.28-0.56,0.3-0.77
	c0.02-0.22-0.05-0.35-0.22-0.39c-0.17-0.04-0.43,0.04-0.79,0.24c-0.36,0.2-0.82,0.57-1.4,1.1c-0.52,0.46-1.13,1.14-1.83,2.05
	c-0.7,0.91-1.48,2.19-2.34,3.84c-0.1,0.22-0.23,0.35-0.39,0.39c-0.16,0.04-0.4,0.06-0.71,0.06c-0.22,0.02-0.4,0.03-0.55,0.03
	s-0.3,0.05-0.46,0.15c0.81-1.69,1.67-3.46,2.57-5.33c0.9-1.87,1.83-3.74,2.78-5.63c-0.58,0.04-1.15,0.07-1.73,0.09
	c-0.58,0.02-1.21,0.02-1.9,0c-0.52,0.87-1.08,1.71-1.7,2.5c-0.62,0.79-1.37,1.6-2.26,2.41c-0.06,0.16-0.12,0.39-0.19,0.68
	c-0.07,0.3-0.14,0.61-0.21,0.92c-0.07,0.32-0.13,0.62-0.18,0.89c-0.05,0.28-0.08,0.46-0.1,0.54c-0.12,0.77-0.14,1.5-0.07,2.17
	c0.07,0.67,0.21,1.22,0.43,1.64c0.22,0.42,0.5,0.67,0.83,0.77c0.34,0.1,0.71-0.03,1.13-0.39c0.2-0.18,0.35-0.21,0.46-0.09
	c0.11,0.12,0.03,0.27-0.22,0.45c-0.67,0.46-1.3,0.68-1.88,0.68c-0.58,0-1.06-0.21-1.46-0.63c-0.4-0.42-0.67-1.04-0.83-1.88
	c-0.16-0.83-0.15-1.87,0.03-3.1c0.08-0.5,0.2-1.07,0.36-1.71c0.16-0.64,0.34-1.3,0.55-1.98c0.21-0.67,0.44-1.35,0.68-2.02
	c0.25-0.67,0.49-1.3,0.73-1.88h-1.55c-0.08,0-0.14-0.03-0.18-0.1c-0.04-0.07-0.05-0.14-0.04-0.22c0.01-0.08,0.04-0.15,0.09-0.22
	c0.05-0.07,0.11-0.1,0.19-0.1h1.79c0.34-0.75,0.69-1.49,1.06-2.2c0.37-0.71,0.74-1.39,1.12-2.02c0.48-0.83,0.98-1.43,1.52-1.8
	c0.54-0.37,1-0.55,1.4-0.55c0.79,0.2,1.13,0.82,1,1.88c-0.13,1.05-0.83,2.62-2.1,4.7c0.38,0,0.71,0.01,1.01,0.01
	c0.3,0.01,0.58,0.01,0.85,0.01s0.53,0,0.79-0.01c0.26-0.01,0.56-0.02,0.89-0.04c0.3-0.54,0.68-1.26,1.16-2.17
	c0.48-0.91,1-1.88,1.58-2.89c0.58-1.01,1.18-2.01,1.82-2.99c0.63-0.98,1.26-1.82,1.88-2.52c0.44-0.5,0.96-0.89,1.58-1.19
	c0.61-0.3,1.19-0.44,1.71-0.42c0.53,0.02,0.95,0.23,1.27,0.64c0.32,0.41,0.41,1.06,0.27,1.95c-0.14,0.93-0.49,1.94-1.06,3.02
	c-0.57,1.08-1.28,2.11-2.14,3.08c-0.86,0.97-1.85,1.83-2.96,2.58c-1.11,0.74-2.29,1.25-3.54,1.5c-0.62,1.11-1.19,2.21-1.73,3.28
	c-0.54,1.07-1.05,2.12-1.55,3.13c0.4-0.52,0.8-1,1.21-1.45c0.41-0.45,0.81-0.84,1.21-1.18c0.36-0.32,0.8-0.66,1.32-1.03
	c0.53-0.37,1.06-0.7,1.59-0.99c0.54-0.29,1.04-0.51,1.5-0.67c0.47-0.16,0.83-0.2,1.09-0.12c-0.6,1.07-1.14,2.1-1.64,3.07
	c-0.22,0.42-0.43,0.85-0.64,1.28c-0.21,0.44-0.4,0.86-0.58,1.27c-0.18,0.41-0.33,0.79-0.46,1.15c-0.13,0.36-0.21,0.67-0.25,0.93
	c-0.12,0.62-0.12,1.03-0.01,1.24c0.11,0.21,0.26,0.32,0.46,0.34c0.34,0.02,0.71-0.18,1.12-0.6c0.41-0.42,0.8-0.92,1.18-1.5
	c0.38-0.59,0.72-1.18,1.03-1.77c0.31-0.6,0.54-1.05,0.7-1.37c0.14-0.28,0.28-0.38,0.43-0.3C299.75,33.42,299.74,33.62,299.58,33.94z
	 M286.07,28.7c-0.32,0.73-0.61,1.45-0.88,2.14c-0.27,0.69-0.51,1.3-0.73,1.82c0.58-0.58,1.11-1.2,1.61-1.88
	c0.5-0.67,0.96-1.37,1.4-2.08H286.07z M287.85,28.05c0.56-0.99,1.05-2,1.49-3.04c0.14-0.32,0.26-0.68,0.36-1.1
	c0.1-0.42,0.13-0.75,0.1-1c-0.03-0.25-0.14-0.34-0.34-0.28c-0.2,0.06-0.53,0.42-0.98,1.07c-0.36,0.52-0.7,1.16-1.04,1.92
	c-0.34,0.76-0.69,1.57-1.07,2.43H287.85L287.85,28.05z M294.14,27.72c0.97-0.24,1.9-0.67,2.8-1.29s1.71-1.36,2.44-2.2
	c0.73-0.84,1.36-1.74,1.88-2.69c0.52-0.95,0.89-1.87,1.13-2.74c0.14-0.52,0.17-0.91,0.1-1.19c-0.07-0.28-0.2-0.46-0.39-0.54
	c-0.19-0.08-0.42-0.06-0.68,0.04c-0.27,0.11-0.53,0.29-0.79,0.55c-0.58,0.6-1.16,1.29-1.74,2.08c-0.59,0.79-1.16,1.64-1.73,2.53
	c-0.57,0.89-1.11,1.81-1.62,2.75C295.02,25.97,294.55,26.86,294.14,27.72z M315,33.76c-0.28,0.62-0.6,1.29-0.95,2.02
	c-0.36,0.73-0.79,1.4-1.31,1.99c-0.62,0.73-1.31,1.24-2.08,1.52c-0.77,0.28-1.62,0.42-2.53,0.42c-0.3,0-0.6-0.02-0.89-0.06
	c-0.3-0.04-0.58-0.1-0.83-0.19c-0.26-0.09-0.49-0.2-0.7-0.35c-0.21-0.14-0.36-0.33-0.46-0.54c-0.16-0.34-0.25-0.69-0.28-1.07
	c-0.03-0.38,0-0.73,0.07-1.06c0.08-0.33,0.21-0.6,0.39-0.82c0.18-0.22,0.39-0.33,0.63-0.33c0.4-0.75,0.81-1.59,1.25-2.52
	c0.44-0.92,0.87-1.8,1.31-2.63c0.28-0.56,0.59-1.09,0.92-1.59c0.34-0.51,0.68-0.94,1.04-1.29c0.38-0.38,0.75-0.63,1.12-0.77
	c0.37-0.14,0.7-0.2,1-0.18c0.26,0.02,0.47,0.11,0.64,0.27c0.17,0.16,0.27,0.33,0.3,0.52c0.03,0.19-0.02,0.38-0.15,0.57
	c-0.13,0.19-0.35,0.31-0.67,0.37c-0.2,0.04-0.39,0.03-0.57-0.04c-0.18-0.07-0.35-0.15-0.51-0.25c-0.22-0.12-0.42-0.17-0.61-0.15
	c-0.19,0.02-0.35,0.09-0.49,0.21c-0.14,0.12-0.26,0.27-0.36,0.46c-0.1,0.19-0.16,0.39-0.18,0.61c-0.08,0.52-0.07,1.08,0.03,1.7
	c0.1,0.62,0.22,1.09,0.36,1.43c0.24,0.58,0.49,1.14,0.74,1.7c0.26,0.56,0.37,1.16,0.33,1.82c-0.02,0.3-0.09,0.64-0.21,1.01
	c-0.12,0.38-0.29,0.74-0.51,1.1c-0.22,0.36-0.48,0.67-0.79,0.94c-0.31,0.27-0.65,0.43-1.03,0.49c0.58,0.06,1.17-0.07,1.79-0.39
	c0.61-0.32,1.12-0.71,1.52-1.19c0.18-0.2,0.36-0.46,0.55-0.79c0.19-0.33,0.38-0.67,0.58-1.03c0.2-0.36,0.39-0.72,0.58-1.09
	c0.19-0.37,0.36-0.7,0.52-1c0.08-0.16,0.19-0.21,0.34-0.15C315.05,33.49,315.08,33.6,315,33.76z M307.32,39
	c0.34,0,0.62-0.07,0.85-0.22c0.23-0.15,0.44-0.33,0.64-0.55c0.24-0.28,0.44-0.64,0.61-1.09c0.17-0.45,0.27-0.99,0.31-1.62
	c0.02-0.48,0-0.97-0.06-1.49c-0.06-0.52-0.12-1.03-0.19-1.53c-0.07-0.51-0.12-0.99-0.16-1.44c-0.04-0.46-0.03-0.85,0.03-1.19
	c-0.2,0.4-0.42,0.85-0.67,1.35c-0.25,0.51-0.5,1.01-0.76,1.52c-0.26,0.51-0.51,0.99-0.74,1.46c-0.24,0.47-0.45,0.86-0.63,1.18
	c0.06-0.02,0.13-0.01,0.21,0.03c0.16,0.08,0.28,0.21,0.36,0.39c0.04,0.06,0.07,0.16,0.09,0.31c0.02,0.15,0.01,0.3-0.03,0.46
	c-0.1-0.06-0.2-0.06-0.31,0c-0.11,0.06-0.21,0.14-0.3,0.25c-0.09,0.11-0.16,0.23-0.22,0.37c-0.06,0.14-0.1,0.25-0.12,0.33
	c-0.1,0.4-0.04,0.74,0.16,1.04C306.59,38.85,306.91,39,307.32,39z M332.74,33.94c-0.52,1.03-0.97,1.9-1.37,2.6
	c-0.4,0.7-0.84,1.31-1.32,1.82c-0.49,0.51-1.07,0.95-1.76,1.34c-0.68,0.39-1.56,0.77-2.63,1.15c-0.48,0.83-1.02,1.72-1.62,2.65
	c-0.61,0.93-1.29,1.79-2.04,2.57c-0.75,0.78-1.6,1.43-2.53,1.93c-0.93,0.51-1.94,0.76-3.04,0.76c-0.75,0-1.34-0.11-1.76-0.33
	c-0.42-0.22-0.71-0.51-0.88-0.86c-0.17-0.36-0.22-0.75-0.16-1.18c0.06-0.43,0.2-0.85,0.42-1.27c0.28-0.56,0.67-1.03,1.18-1.43
	c0.51-0.4,1.05-0.73,1.62-1.01c1.01-0.48,2.17-0.87,3.47-1.18c1.3-0.31,2.55-0.63,3.77-0.97c0.28-0.5,0.55-1.05,0.8-1.67
	c0.26-0.61,0.5-1.23,0.71-1.85c0.22-0.61,0.42-1.2,0.6-1.76c0.18-0.56,0.33-1.03,0.45-1.43c-0.26,0.46-0.57,1-0.92,1.62
	c-0.36,0.63-0.76,1.22-1.21,1.79c-0.45,0.57-0.93,1.05-1.46,1.46c-0.53,0.41-1.08,0.61-1.65,0.61c-0.16,0-0.33-0.01-0.52-0.04
	c-0.19-0.03-0.37-0.09-0.55-0.19c-0.18-0.1-0.34-0.24-0.49-0.42c-0.15-0.18-0.25-0.41-0.31-0.68c-0.06-0.32-0.07-0.63-0.03-0.92
	c0.04-0.3,0.11-0.59,0.22-0.88c0.11-0.29,0.24-0.57,0.39-0.83c0.15-0.27,0.29-0.54,0.43-0.82c-0.1,0-0.19-0.03-0.28-0.09
	c-0.09-0.06-0.08-0.19,0.01-0.39c0.1-0.16,0.19-0.33,0.27-0.51c0.08-0.18,0.17-0.36,0.27-0.54c0.3-0.58,0.6-1.15,0.89-1.73
	c0.3-0.58,0.56-1.09,0.77-1.55c0.12-0.24,0.27-0.4,0.46-0.49c0.19-0.09,0.42-0.13,0.7-0.13h1.82c-0.14,0.12-0.31,0.25-0.52,0.39
	c-0.21,0.14-0.4,0.37-0.58,0.68c-0.52,0.87-0.99,1.75-1.41,2.62c-0.43,0.87-0.85,1.76-1.27,2.65c-0.36,0.77-0.56,1.42-0.6,1.93
	c-0.04,0.52,0.03,0.88,0.22,1.09c0.19,0.21,0.47,0.24,0.85,0.09c0.38-0.15,0.8-0.5,1.28-1.06c0.42-0.48,0.84-1.04,1.28-1.7
	c0.44-0.65,0.86-1.33,1.27-2.04c0.41-0.7,0.79-1.4,1.16-2.1c0.37-0.69,0.69-1.34,0.97-1.93c0.12-0.24,0.27-0.4,0.46-0.49
	c0.19-0.09,0.42-0.13,0.7-0.13h1.61c-0.28,0.2-0.52,0.42-0.73,0.67c-0.21,0.25-0.4,0.53-0.58,0.85c-0.18,0.32-0.35,0.68-0.51,1.09
	c-0.16,0.41-0.33,0.86-0.51,1.35c-0.38,1.01-0.76,2.1-1.15,3.27c-0.39,1.17-0.8,2.35-1.24,3.54c0.32-0.1,0.67-0.23,1.06-0.39
	c0.39-0.16,0.77-0.36,1.15-0.6c0.38-0.24,0.74-0.52,1.1-0.85s0.68-0.7,0.98-1.12c0.46-0.67,0.84-1.32,1.16-1.93
	c0.32-0.61,0.56-1.06,0.71-1.34c0.14-0.26,0.28-0.35,0.42-0.28C332.88,33.46,332.88,33.64,332.74,33.94z M321.85,28.05
	c0.08,0,0.13,0.03,0.16,0.1c0.03,0.07,0.04,0.14,0.03,0.22c-0.01,0.08-0.03,0.15-0.07,0.22c-0.04,0.07-0.1,0.1-0.18,0.1h-1.73
	c-0.52,0.87-1.08,1.71-1.7,2.5c-0.62,0.79-1.37,1.6-2.26,2.41c-0.08,0.2-0.15,0.47-0.22,0.8c-0.07,0.34-0.14,0.67-0.22,1.01
	c-0.08,0.38-0.16,0.78-0.24,1.22c-0.12,0.5-0.13,0.89-0.03,1.18c0.1,0.29,0.25,0.49,0.45,0.61c0.2,0.12,0.44,0.15,0.71,0.1
	c0.28-0.05,0.54-0.16,0.77-0.34c0.69-0.52,1.29-1.19,1.8-2.02c0.51-0.83,0.96-1.66,1.35-2.47c0.12-0.28,0.25-0.39,0.4-0.34
	c0.15,0.05,0.14,0.22-0.01,0.52c-0.34,0.69-0.63,1.27-0.86,1.73c-0.24,0.46-0.46,0.86-0.67,1.21c-0.21,0.35-0.42,0.65-0.64,0.91
	c-0.22,0.26-0.47,0.53-0.74,0.8c-0.4,0.4-0.86,0.65-1.38,0.77c-0.53,0.12-1.01,0.09-1.44-0.07c-0.44-0.17-0.79-0.5-1.06-0.98
	c-0.27-0.49-0.34-1.14-0.22-1.95c0.06-0.5,0.17-1.07,0.34-1.71c0.17-0.64,0.36-1.3,0.57-1.98c0.21-0.67,0.44-1.35,0.68-2.02
	c0.25-0.67,0.49-1.3,0.73-1.88h-1.55c-0.08,0-0.14-0.03-0.18-0.1c-0.04-0.07-0.05-0.14-0.04-0.22c0.01-0.08,0.04-0.15,0.09-0.22
	c0.05-0.07,0.11-0.1,0.19-0.1h1.79c0.34-0.75,0.69-1.49,1.06-2.2c0.37-0.71,0.74-1.39,1.12-2.02c0.52-0.89,1.07-1.53,1.65-1.92
	c0.59-0.39,1.08-0.52,1.47-0.39c0.4,0.13,0.63,0.53,0.68,1.19c0.06,0.67-0.19,1.59-0.74,2.78c-0.42,0.87-0.84,1.73-1.28,2.56H321.85
	z M323.54,41.5c-0.48,0.12-0.99,0.25-1.53,0.39c-0.55,0.14-1.1,0.29-1.65,0.45c-0.56,0.16-1.09,0.32-1.61,0.49
	c-0.52,0.17-0.98,0.34-1.4,0.52c-0.75,0.34-1.38,0.77-1.89,1.31s-0.84,1.07-1.01,1.59c-0.17,0.53-0.15,0.98,0.04,1.35
	c0.2,0.38,0.62,0.57,1.25,0.57c0.65,0,1.33-0.2,2.02-0.61c0.69-0.41,1.36-0.9,2.01-1.47c0.64-0.58,1.24-1.18,1.79-1.82
	c0.55-0.64,0.99-1.19,1.32-1.67c0.1-0.16,0.2-0.33,0.31-0.52C323.31,41.89,323.43,41.7,323.54,41.5z M317.98,28.7
	c-0.32,0.73-0.61,1.45-0.88,2.14c-0.27,0.69-0.51,1.3-0.73,1.82c0.58-0.58,1.11-1.2,1.61-1.88c0.5-0.67,0.96-1.37,1.4-2.08H317.98z
	 M319.76,28.05c0.56-0.99,1.05-2,1.49-3.04c0.14-0.32,0.26-0.68,0.36-1.1c0.1-0.42,0.13-0.75,0.1-1c-0.03-0.25-0.14-0.34-0.34-0.28
	c-0.2,0.06-0.53,0.42-0.98,1.07c-0.36,0.52-0.7,1.16-1.04,1.92c-0.34,0.76-0.69,1.57-1.07,2.43H319.76L319.76,28.05z M340.09,24.68
	c-0.69,1.55-1.52,3.09-2.47,4.63c-0.95,1.54-2.16,2.97-3.63,4.3c-0.08,0.26-0.18,0.56-0.3,0.89c-0.12,0.34-0.23,0.69-0.33,1.07
	c-0.22,0.89-0.26,1.6-0.12,2.11c0.14,0.52,0.38,0.85,0.73,1c0.35,0.15,0.74,0.12,1.19-0.09c0.45-0.21,0.87-0.59,1.27-1.15
	c0.24-0.36,0.47-0.71,0.7-1.07c0.23-0.36,0.44-0.7,0.63-1.04c0.19-0.34,0.36-0.65,0.51-0.94c0.15-0.29,0.27-0.53,0.37-0.73
	c0.14-0.26,0.28-0.37,0.43-0.34s0.15,0.19,0.01,0.49c-0.18,0.4-0.42,0.91-0.71,1.55c-0.3,0.64-0.66,1.25-1.09,1.85
	c-0.43,0.6-0.93,1.11-1.5,1.55c-0.58,0.44-1.24,0.65-1.99,0.65c-0.56,0-0.99-0.1-1.29-0.31c-0.31-0.21-0.53-0.48-0.65-0.82
	c-0.13-0.34-0.19-0.71-0.18-1.13c0.01-0.42,0.05-0.84,0.13-1.28c0.08-0.44,0.18-0.86,0.3-1.27c0.12-0.41,0.22-0.76,0.3-1.06
	c0.24-0.83,0.53-1.72,0.86-2.65c0.34-0.93,0.7-1.86,1.1-2.78c0.4-0.92,0.81-1.82,1.25-2.69c0.44-0.87,0.87-1.67,1.31-2.38
	c0.54-0.89,1.1-1.53,1.7-1.92s1.09-0.52,1.49-0.39c0.4,0.13,0.63,0.52,0.7,1.18C340.86,22.57,340.63,23.49,340.09,24.68z
	 M339.65,24.24c0.14-0.34,0.26-0.7,0.36-1.1c0.1-0.4,0.13-0.71,0.1-0.94c-0.03-0.23-0.13-0.31-0.31-0.25s-0.47,0.38-0.86,0.95
	c-0.36,0.52-0.76,1.2-1.22,2.05c-0.46,0.85-0.9,1.75-1.34,2.69c-0.44,0.94-0.84,1.87-1.22,2.77c-0.38,0.9-0.68,1.65-0.92,2.25
	c0.54-0.54,1.06-1.15,1.58-1.83c0.52-0.68,1.01-1.4,1.49-2.14c0.48-0.74,0.91-1.5,1.31-2.26C339,25.66,339.35,24.93,339.65,24.24z
	 M346.43,33.82c-0.28,0.6-0.58,1.23-0.89,1.89c-0.32,0.67-0.69,1.28-1.13,1.85c-0.44,0.57-0.95,1.03-1.53,1.38
	c-0.59,0.36-1.29,0.54-2.13,0.54c-0.75,0-1.41-0.23-1.98-0.7c-0.57-0.47-0.86-1.18-0.88-2.13c0-0.44,0.05-0.9,0.16-1.4
	c0.11-0.5,0.27-0.99,0.48-1.47c0.21-0.49,0.45-0.96,0.73-1.41c0.28-0.46,0.59-0.88,0.92-1.28c0.38-0.44,0.79-0.83,1.25-1.19
	c0.46-0.36,0.91-0.63,1.37-0.82c0.46-0.19,0.9-0.28,1.32-0.28c0.43,0,0.81,0.12,1.15,0.36c0.28,0.22,0.44,0.5,0.49,0.83
	c0.05,0.34-0.01,0.71-0.16,1.12c-0.16,0.41-0.41,0.82-0.74,1.24c-0.34,0.42-0.74,0.8-1.22,1.16c-0.24,0.18-0.52,0.35-0.85,0.51
	c-0.33,0.16-0.67,0.3-1.03,0.42c-0.36,0.12-0.69,0.21-1.01,0.28c-0.32,0.07-0.58,0.1-0.77,0.1c-0.12,0.28-0.22,0.65-0.31,1.1
	c-0.09,0.46-0.12,0.9-0.09,1.34c0.03,0.44,0.15,0.82,0.36,1.15c0.21,0.33,0.56,0.49,1.06,0.49c0.65,0,1.25-0.19,1.77-0.58
	c0.53-0.39,0.99-0.85,1.4-1.38c0.41-0.54,0.75-1.09,1.04-1.67c0.29-0.58,0.52-1.06,0.7-1.46c0.06-0.14,0.13-0.24,0.22-0.31
	c0.09-0.07,0.17-0.1,0.24-0.1c0.07,0,0.12,0.03,0.15,0.1C346.54,33.55,346.51,33.66,346.43,33.82z M343.34,32.96
	c0.4-0.34,0.73-0.71,1-1.13c0.27-0.42,0.45-0.8,0.55-1.16c0.1-0.36,0.12-0.65,0.06-0.89c-0.06-0.24-0.21-0.35-0.45-0.34
	c-0.24,0.01-0.57,0.17-0.98,0.48c-0.42,0.31-0.93,0.83-1.55,1.56c-0.4,0.48-0.76,0.99-1.09,1.55c-0.33,0.56-0.56,0.97-0.7,1.25
	c0.14,0,0.33-0.02,0.57-0.07c0.24-0.05,0.51-0.13,0.8-0.24c0.3-0.11,0.6-0.25,0.91-0.42C342.77,33.37,343.06,33.18,343.34,32.96z"/>
</svg>
