<svg width="130" height="130" viewBox="0 0 130 130" fill="none" xmlns="http://www.w3.org/2000/svg">
<path d="M63.5 2.02073C64.4282 1.48483 65.5718 1.48483 66.5 2.02073L118.792 32.2113C119.72 32.7472 120.292 33.7376 120.292 34.8094V95.1906C120.292 96.2624 119.72 97.2528 118.792 97.7887L66.5 127.979C65.5718 128.515 64.4282 128.515 63.5 127.979L11.2083 97.7887C10.2801 97.2528 9.70835 96.2624 9.70835 95.1906V34.8094C9.70835 33.7376 10.2801 32.7472 11.2083 32.2113L63.5 2.02073Z" stroke="#475A73" stroke-width="2"/>
<path d="M63.5 44C63.5 42.3433 64.8438 41 66.5 41C68.1562 41 69.5 42.3433 69.5 44V47H67.5V44C67.5 43.4478 67.0527 43 66.5 43C65.9473 43 65.5 43.4478 65.5 44V47H63.5V44Z" fill="#0F213A"/>
<path d="M63.5 59V82C63.5 83.6567 64.8438 85 66.5 85C68.1562 85 69.5 83.6567 69.5 82V59H67.5V82C67.5 82.5522 67.0527 83 66.5 83C65.9473 83 65.5 82.5522 65.5 82V59H63.5Z" fill="#0F213A"/>
<path fill-rule="evenodd" clip-rule="evenodd" d="M66.5 60C70.3652 60 73.5 56.866 73.5 53C73.5 49.134 70.3652 46 66.5 46C62.6348 46 59.5 49.134 59.5 53C59.5 56.866 62.6348 60 66.5 60ZM66.5 58C69.2617 58 71.5 55.7615 71.5 53C71.5 50.2385 69.2617 48 66.5 48C63.7383 48 61.5 50.2385 61.5 53C61.5 55.7615 63.7383 58 66.5 58Z" fill="#0F213A"/>
<path d="M83.5 82C83.5 83.6567 84.8438 85 86.5 85C88.1562 85 89.5 83.6567 89.5 82V79H87.5V82C87.5 82.5522 87.0527 83 86.5 83C85.9473 83 85.5 82.5522 85.5 82V79H83.5V82Z" fill="#0F213A"/>
<path d="M83.5 67V44C83.5 42.3433 84.8438 41 86.5 41C88.1562 41 89.5 42.3433 89.5 44V67H87.5V44C87.5 43.4478 87.0527 43 86.5 43C85.9473 43 85.5 43.4478 85.5 44V67H83.5Z" fill="#0F213A"/>
<path fill-rule="evenodd" clip-rule="evenodd" d="M86.5 66C90.3652 66 93.5 69.134 93.5 73C93.5 76.866 90.3652 80 86.5 80C82.6348 80 79.5 76.866 79.5 73C79.5 69.134 82.6348 66 86.5 66ZM86.5 68C89.2617 68 91.5 70.2385 91.5 73C91.5 75.7615 89.2617 78 86.5 78C83.7383 78 81.5 75.7615 81.5 73C81.5 70.2385 83.7383 68 86.5 68Z" fill="#0F213A"/>
<path d="M43 82C43 83.6567 44.3438 85 46 85C47.6562 85 49 83.6567 49 82V79H47V82C47 82.5522 46.5527 83 46 83C45.4473 83 45 82.5522 45 82V79H43V82Z" fill="#0F213A"/>
<path d="M43 67V44C43 42.3433 44.3438 41 46 41C47.6562 41 49 42.3433 49 44V67H47V44C47 43.4478 46.5527 43 46 43C45.4473 43 45 43.4478 45 44V67H43Z" fill="#0F213A"/>
<path fill-rule="evenodd" clip-rule="evenodd" d="M46 66C49.8652 66 53 69.134 53 73C53 76.866 49.8652 80 46 80C42.1348 80 39 76.866 39 73C39 69.134 42.1348 66 46 66ZM46 68C48.7617 68 51 70.2385 51 73C51 75.7615 48.7617 78 46 78C43.2383 78 41 75.7615 41 73C41 70.2385 43.2383 68 46 68Z" fill="#0F213A"/>
</svg>
