<svg width="130" height="130" viewBox="0 0 130 130" fill="none" xmlns="http://www.w3.org/2000/svg">
<path d="M63.5 2.02073C64.4282 1.48483 65.5718 1.48483 66.5 2.02073L118.792 32.2113C119.72 32.7472 120.292 33.7376 120.292 34.8094V95.1906C120.292 96.2624 119.72 97.2528 118.792 97.7887L66.5 127.979C65.5718 128.515 64.4282 128.515 63.5 127.979L11.2083 97.7887C10.2801 97.2528 9.70835 96.2624 9.70835 95.1906V34.8094C9.70835 33.7376 10.2801 32.7472 11.2083 32.2113L63.5 2.02073Z" stroke="#475A73" stroke-width="2"/>
<path fill-rule="evenodd" clip-rule="evenodd" d="M47 61.8316L32 55.2083V71.0001H31H30V53.4437C29.8086 52.5743 30.1895 51.5921 31.1426 51.1705L64.6914 36.3568C65.207 36.1295 65.793 36.1295 66.3086 36.3568L99.8574 51.1705C101.445 51.8724 101.445 54.1277 99.8574 54.8297L84 61.8316V81.9214C78.4258 83.252 72.1445 84.0001 65.5 84.0001C58.8555 84.0001 52.5742 83.252 47 81.9214V61.8316ZM65.5 38.1863L99.0488 53.0001L65.5 67.8138L32 53.0001L65.5 38.1863ZM49 62.7147V80.3233C54.0254 81.3985 59.6094 82.0001 65.5 82.0001C71.3906 82.0001 76.9746 81.3985 82 80.3233V62.7147L66.3086 69.6434C65.793 69.8707 65.207 69.8707 64.6914 69.6434L49 62.7147Z" fill="#0F213A"/>
<path fill-rule="evenodd" clip-rule="evenodd" d="M31 71.0001C33.209 71.0001 35 72.7911 35 75.0001C35 77.209 33.209 79.0001 31 79.0001C28.791 79.0001 27 77.209 27 75.0001C27 72.7911 28.791 71.0001 31 71.0001ZM33 75.0001C33 76.1046 32.1055 77.0001 31 77.0001C29.8945 77.0001 29 76.1046 29 75.0001C29 73.8956 29.8945 73.0001 31 73.0001C32.1055 73.0001 33 73.8956 33 75.0001Z" fill="#0F213A"/>
</svg>
