<svg width="130" height="130" viewBox="0 0 130 130" fill="none" xmlns="http://www.w3.org/2000/svg">
<path d="M66.5 2.02073L118.792 32.2113C119.72 32.7472 120.292 33.7376 120.292 34.8094V95.1906C120.292 96.2624 119.72 97.2528 118.792 97.7887L66.5 127.979C65.5718 128.515 64.4282 128.515 63.5 127.979L11.2083 97.7887C10.2801 97.2528 9.70835 96.2624 9.70835 95.1906V34.8094C9.70835 33.7376 10.2801 32.7472 11.2083 32.2113L63.5 2.02073C64.4282 1.48483 65.5718 1.48483 66.5 2.02073Z" stroke="#475A73" stroke-width="2"/>
<path fill-rule="evenodd" clip-rule="evenodd" d="M65 44C68.3135 44 71 41.3137 71 38C71 34.6863 68.3135 32 65 32C61.6865 32 59 34.6863 59 38C59 41.3137 61.6865 44 65 44ZM65 42C67.209 42 69 40.2092 69 38C69 35.7908 67.209 34 65 34C62.791 34 61 35.7908 61 38C61 40.2092 62.791 42 65 42Z" fill="#0F213A"/>
<path fill-rule="evenodd" clip-rule="evenodd" d="M84 52C87.3135 52 90 49.3137 90 46C90 42.6863 87.3135 40 84 40C80.6865 40 78 42.6863 78 46C78 49.3137 80.6865 52 84 52ZM84 50C86.209 50 88 48.2092 88 46C88 43.7908 86.209 42 84 42C81.791 42 80 43.7908 80 46C80 48.2092 81.791 50 84 50Z" fill="#0F213A"/>
<path fill-rule="evenodd" clip-rule="evenodd" d="M84 90C87.3135 90 90 87.3137 90 84C90 80.6863 87.3135 78 84 78C80.6865 78 78 80.6863 78 84C78 87.3137 80.6865 90 84 90ZM84 88C86.209 88 88 86.2092 88 84C88 81.7908 86.209 80 84 80C81.791 80 80 81.7908 80 84C80 86.2092 81.791 88 84 88Z" fill="#0F213A"/>
<path fill-rule="evenodd" clip-rule="evenodd" d="M46 90C49.3135 90 52 87.3137 52 84C52 80.6863 49.3135 78 46 78C42.6865 78 40 80.6863 40 84C40 87.3137 42.6865 90 46 90ZM46 88C48.209 88 50 86.2092 50 84C50 81.7908 48.209 80 46 80C43.791 80 42 81.7908 42 84C42 86.2092 43.791 88 46 88Z" fill="#0F213A"/>
<path fill-rule="evenodd" clip-rule="evenodd" d="M46 52C49.3135 52 52 49.3137 52 46C52 42.6863 49.3135 40 46 40C42.6865 40 40 42.6863 40 46C40 49.3137 42.6865 52 46 52ZM46 50C48.209 50 50 48.2092 50 46C50 43.7908 48.209 42 46 42C43.791 42 42 43.7908 42 46C42 48.2092 43.791 50 46 50Z" fill="#0F213A"/>
<path fill-rule="evenodd" clip-rule="evenodd" d="M65 98C68.3135 98 71 95.3137 71 92C71 88.6863 68.3135 86 65 86C61.6865 86 59 88.6863 59 92C59 95.3137 61.6865 98 65 98ZM65 96C67.209 96 69 94.2092 69 92C69 89.7908 67.209 88 65 88C62.791 88 61 89.7908 61 92C61 94.2092 62.791 96 65 96Z" fill="#0F213A"/>
<path fill-rule="evenodd" clip-rule="evenodd" d="M86 65C86 68.3135 88.6863 71 92 71C95.3137 71 98 68.3135 98 65C98 61.6865 95.3137 59 92 59C88.6863 59 86 61.6865 86 65ZM88 65C88 67.209 89.7908 69 92 69C94.2092 69 96 67.209 96 65C96 62.791 94.2092 61 92 61C89.7908 61 88 62.791 88 65Z" fill="#0F213A"/>
<path fill-rule="evenodd" clip-rule="evenodd" d="M32 65C32 68.3135 34.6863 71 38 71C41.3137 71 44 68.3135 44 65C44 61.6865 41.3137 59 38 59C34.6863 59 32 61.6865 32 65ZM34 65C34 67.209 35.7908 69 38 69C40.2092 69 42 67.209 42 65C42 62.791 40.2092 61 38 61C35.7908 61 34 62.791 34 65Z" fill="#0F213A"/>
<rect x="43" y="64" width="44" height="2" fill="#0F213A"/>
<rect x="64" y="87" width="44" height="2" transform="rotate(-90 64 87)" fill="#0F213A"/>
<rect x="79.8492" y="81.2635" width="44" height="2" transform="rotate(-135 79.8492 81.2635)" fill="#0F213A"/>
<rect x="81.2638" y="50.1507" width="44" height="2" transform="rotate(135 81.2638 50.1507)" fill="#0F213A"/>
<path d="M54.7417 59.0774L65 53.1547L75.2583 59.0774V70.9226L65 76.8453L54.7417 70.9226V59.0774Z" fill="#F7F7F7" stroke="#0F213A" stroke-width="2"/>
</svg>
