<?xml version="1.0" encoding="UTF-8"?>
<svg width="113px" height="85px" viewBox="0 0 113 85" version="1.1" xmlns="http://www.w3.org/2000/svg" xmlns:xlink="http://www.w3.org/1999/xlink">
    <!-- Generator: Sketch 49.2 (51160) - http://www.bohemiancoding.com/sketch -->
    <title>Group 8</title>
    <desc>Created with Sketch.</desc>
    <defs></defs>
    <g id="Page-2" stroke="none" stroke-width="1" fill="none" fill-rule="evenodd" stroke-linecap="round" stroke-linejoin="round">
        <g id="ДУ" transform="translate(-124.000000, -4647.000000)">
            <g id="Group-8" transform="translate(125.000000, 4648.000000)">
                <polygon id="Stroke-1" stroke="#586CCB" points="34 83 0 83 4.85714286 64 29.1428571 64"></polygon>
                <polygon id="Stroke-3" stroke="#656CD3" points="111 83 77 83 81.8571429 64 106.142857 64"></polygon>
                <polygon id="Stroke-5" stroke="#586CCB" points="72 83 38 83 42.8571429 64 67.1428571 64"></polygon>
                <polygon id="Stroke-8" stroke="#586CCB" points="91 60 57 60 61.8571429 41 86.1428571 41"></polygon>
                <polygon id="Stroke-9" stroke="#586CCB" points="72 36 38 36 42.8571429 17 67.1428571 17"></polygon>
                <polygon id="Stroke-10" stroke="#586CCB" points="53 60 19 60 23.8571429 41 48.1428571 41"></polygon>
                <path d="M55,0 L55,10" id="Stroke-11" stroke="#586CCB"></path>
                <path d="M94,4 L87,11" id="Stroke-13" stroke="#586CCB"></path>
                <path d="M23,11 L16,4" id="Stroke-14" stroke="#586CCB"></path>
                <path d="M76,4 L72,13" id="Stroke-15" stroke="#586CCB"></path>
                <path d="M13,26 L4,22" id="Stroke-16" stroke="#586CCB"></path>
                <path d="M106,22 L97,26" id="Stroke-17" stroke="#586CCB"></path>
                <path d="M38,13 L34,4" id="Stroke-18" stroke="#586CCB"></path>
            </g>
        </g>
    </g>
</svg>