<svg xmlns="http://www.w3.org/2000/svg" width="55" height="55" viewBox="0 0 55 55"><defs><style>.cls-1{fill:#fff;}.cls-2{fill:#bb1a23;}</style></defs><title>Детали</title><g id="Детали"><path class="cls-1" d="M27.5,54.417A22.049,22.049,0,0,0,40.667,50l.083-26.208A21.85,21.85,0,0,1,44,31L42.5,50.5,48,51l3-13a26.56,26.56,0,0,0-1.5-16,77.381,77.381,0,0,0-6-13L34.031,5.047l-.073-.3L32.5,1.5a11.179,11.179,0,0,0-5-1,11.179,11.179,0,0,0-5,1L21.042,4.75l-.073.3L11.5,9a77.381,77.381,0,0,0-6,13A26.56,26.56,0,0,0,4,38L7,51l5.5-.5L11,31a21.85,21.85,0,0,1,3.25-7.208L14.333,50A22.049,22.049,0,0,0,27.5,54.417Z"/><path class="cls-2" d="M5.242,36.223c-.061,0-.121,0-.183-.006a2.376,2.376,0,0,1-2.036-1.408.5.5,0,0,1,.934-.359,1.394,1.394,0,0,0,1.178.77,1.245,1.245,0,0,0,.994-.331,1.678,1.678,0,0,0,.35-1.218l-.027-.491c-.039-.691-.079-1.405-.059-2.107a8.415,8.415,0,0,1,.255-1.652c.065-.288.132-.579.18-.888a1.118,1.118,0,0,0-.205-.825,1.368,1.368,0,0,0-1.18-.516,1.276,1.276,0,0,0-1.058.634.5.5,0,1,1-.871-.492,2.291,2.291,0,0,1,1.864-1.14,2.366,2.366,0,0,1,2.045.915,2.111,2.111,0,0,1,.393,1.578c-.052.331-.122.645-.192.954a7.452,7.452,0,0,0-.23,1.461c-.02.659.02,1.352.057,2.021l.027.5a2.585,2.585,0,0,1-.63,1.965A2.243,2.243,0,0,1,5.242,36.223Z"/><path class="cls-2" d="M49.812,36.223a2.236,2.236,0,0,1-1.6-.638,2.587,2.587,0,0,1-.632-1.965l.027-.5c.038-.668.077-1.358.058-2.017a7.494,7.494,0,0,0-.231-1.464c-.07-.309-.141-.621-.192-.951a2.114,2.114,0,0,1,.394-1.577,2.364,2.364,0,0,1,2.043-.916,2.291,2.291,0,0,1,1.865,1.14.5.5,0,1,1-.871.492,1.276,1.276,0,0,0-1.058-.634,1.374,1.374,0,0,0-1.179.517,1.122,1.122,0,0,0-.206.825c.048.306.114.6.18.884a8.506,8.506,0,0,1,.256,1.655c.02.7-.021,1.414-.06,2.1l-.027.5a1.682,1.682,0,0,0,.351,1.218,1.256,1.256,0,0,0,.994.331,1.393,1.393,0,0,0,1.177-.77.5.5,0,0,1,.934.359A2.376,2.376,0,0,1,50,36.217C49.934,36.221,49.873,36.223,49.812,36.223Z"/><path class="cls-2" d="M31,13.5a.5.5,0,0,0-1,0V15H29V13.5a.5.5,0,0,0-1,0V15H27V13.5a.5.5,0,0,0-1,0V15H25V13.5a.5.5,0,0,0-1,0v2a.473.473,0,0,0,.013.065.454.454,0,0,0,.013.062.5.5,0,0,0,.122.227l2,2A.5.5,0,0,0,26.5,18h2a.5.5,0,0,0,.354-.146l2-2a.5.5,0,0,0,.122-.227.454.454,0,0,0,.013-.062A.473.473,0,0,0,31,15.5ZM28.293,17H26.707l-1-1h3.586Z"/><path class="cls-2" d="M16.5,52a.5.5,0,0,1-.5-.5V47.707l-1.854-1.854a.5.5,0,0,1,.707-.707l2,2A.5.5,0,0,1,17,47.5v4A.5.5,0,0,1,16.5,52Z"/><path class="cls-2" d="M38.5,52a.5.5,0,0,1-.5-.5v-4a.5.5,0,0,1,.146-.354l2-2a.5.5,0,0,1,.707.707L39,47.707V51.5A.5.5,0,0,1,38.5,52Z"/><circle cx="8" cy="49.063" r="0.5"/><circle cx="6.625" cy="42.875" r="0.5"/><path d="M51.477,38.084A27.345,27.345,0,0,0,50.6,23.461,81.171,81.171,0,0,0,43.931,8.746a.473.473,0,0,0-.039-.043.486.486,0,0,0-.064-.071.474.474,0,0,0-.089-.062.486.486,0,0,0-.044-.03L34.419,4.591a3.274,3.274,0,0,0-.142-.434L32.954,1.29a.5.5,0,0,0-.188-.213A11.012,11.012,0,0,0,27.5,0a11.012,11.012,0,0,0-5.266,1.077.5.5,0,0,0-.188.213L20.723,4.158a3.245,3.245,0,0,0-.142.433L11.3,8.54a.487.487,0,0,0-.045.032.476.476,0,0,0-.086.06.486.486,0,0,0-.064.072.451.451,0,0,0-.038.043A81.171,81.171,0,0,0,4.4,23.461a27.358,27.358,0,0,0-.787,15.078l2.9,12.573A.5.5,0,0,0,7,51.5l.045,0,5.5-.5A.5.5,0,0,0,13,50.462L11.5,31.042a24.59,24.59,0,0,1,2.245-5.6V50a.5.5,0,0,0,.2.4A23.993,23.993,0,0,0,27.5,54.917,23.993,23.993,0,0,0,41.055,50.4a.5.5,0,0,0,.2-.4V25.444a24.59,24.59,0,0,1,2.245,5.6L42,50.462a.5.5,0,0,0,.453.536l5.5.5.045,0a.5.5,0,0,0,.487-.388l2.9-12.573c.016-.072.026-.144.042-.216A.489.489,0,0,0,51.477,38.084Zm-3,8.632-1.86-.212,1.243-6.11a2.086,2.086,0,0,1,1.844-1.65l.626-.056ZM22.889,1.85A10.122,10.122,0,0,1,27.5,1a10.122,10.122,0,0,1,4.611.85l1.206,2.614H21.683Zm-1.8,3.614H33.916l8.9,3.79A23.726,23.726,0,0,0,41.376,13H13.624a23.726,23.726,0,0,0-1.443-3.746ZM4.671,38.682l.669.06a2.083,2.083,0,0,1,1.843,1.65L8.425,46.5l-1.9.217ZM6.75,47.7l1.875-.214L9.2,50.3l-1.809.165Zm3.45,2.511-.578-2.839,2.116-.242.225,2.92Zm.314-19.327a.48.48,0,0,0-.013.158l1.161,15.09-2.24.256-1.26-6.191A3.091,3.091,0,0,0,5.43,37.746l-.971-.088a26.343,26.343,0,0,1,.885-13.871,80.984,80.984,0,0,1,6.125-13.7C12.7,12.765,13.75,16.215,13.75,22.25v1.2A26.38,26.38,0,0,0,10.515,30.88ZM40.25,49.752A23.006,23.006,0,0,1,27.5,53.917a23.006,23.006,0,0,1-12.75-4.165V22.25A34.637,34.637,0,0,0,13.888,14H41.112a34.637,34.637,0,0,0-.862,8.25ZM44.485,30.88a26.38,26.38,0,0,0-3.235-7.434v-1.2c0-6.035,1.05-9.485,2.281-12.158a80.985,80.985,0,0,1,6.125,13.7,26.343,26.343,0,0,1,.884,13.875l-.928.084a3.093,3.093,0,0,0-2.734,2.447l-1.26,6.2-2.28-.26L44.5,31.038A.48.48,0,0,0,44.485,30.88ZM43.261,47.127l2.157.246-.577,2.838-1.8-.164Zm4.351,3.336L45.843,50.3l.573-2.815,1.834.209Z"/><circle cx="47.042" cy="49.063" r="0.5"/><circle cx="48.417" cy="42.875" r="0.5"/></g></svg>