<svg xmlns="http://www.w3.org/2000/svg" width="110" height="110" viewBox="0 0 110 110">
<style type="text/css">
	.st0{fill:#FFFFFF;}
	.st1{fill:#AF9C94;}
	.st2{fill:#020203;}
</style>
<g>
	<polygon class="st0" points="92.6738358,97.3345947 84.1035233,96.5553131 84.5250168,91.0834122 93.868988,92.1511917 	"/>
	<g>
		<path class="st0" d="M68.1692886,13.5571899l15.3610001,6.5284309c-0.3746567,0.7780476-0.7274704,1.6297531-1.0584183,2.5551739
			L67.41996,16.0018368C67.809906,15.2367058,68.0634766,14.4094267,68.1692886,13.5571899z"/>
		<path class="st0" d="M66.0131226,11.3673067c0.5568237,1.5158272,0.3018494,3.2109756-0.6762543,4.4959135l-0.1067886,0.1648483
			c-0.0074844,0.0131054-0.026207,0.020607-0.026207,0.0355949c-1.0134583,1.5773106-2.3528519,3.5274124-3.7465897,5.5112305
			l-2.9148407-8.3342943c2.5255051-0.8666353,4.6797943-2.5689249,6.1069183-4.8255911L66.0131226,11.3673067z"/>
		<polygon class="st0" points="53.3271942,13.5665531 56.6728935,13.5665531 58.3157692,18.2666512 51.6843147,18.2666512 		"/>
		<path class="st0" d="M49.9421577,10.3632326c3.3156509-0.8711748,6.8001175-0.8711748,10.1157722,0
			c-0.8622856,0.5268526-1.7708588,0.9739313-2.7144012,1.3356504h-4.6719856
			C51.7228165,11.3380566,50.8091888,10.8909588,49.9421577,10.3632326z"/>
		<path class="st0" d="M54.9813156,4.6684241c2.8815842-0.1319127,5.7566338,0.3760414,8.4185715,1.4873934
			c-0.1731682,1.096632-0.7197762,2.0998139-1.5473404,2.839911c-4.4397278-1.5488005-9.2725372-1.5521054-13.7143745-0.0093641
			c-0.8280373-0.742547-1.372364-1.7497368-1.5398521-2.8492746C49.2518044,5.0410466,52.1132355,4.5397215,54.9813156,4.6684241z"
			/>
		<path class="st0" d="M43.9925652,11.3729286l1.3637619-2.9541779c0.4862823,0.8544025,1.1205826,1.6155643,1.873291,2.2479467
			c0.0317192,0.0351391,0.0661774,0.0677137,0.1030235,0.0974197c1.2346611,1.0360794,2.6256409,1.8700447,4.1212578,2.4708595
			l-2.9148407,8.3342962c-1.3918533-1.9838181-2.7294044-3.928299-3.7466049-5.5112324
			c-0.0074844-0.014986-0.0280914-0.0243511-0.0280914-0.0393372l-0.1049042-0.1611061
			C43.6885109,14.5735912,43.4372406,12.883913,43.9925652,11.3729286z"/>
		<path class="st0" d="M41.8457794,13.5571899c0.1057968,0.8522367,0.3593636,1.6795158,0.7493095,2.4446468l-15.0519066,6.638958
			c-0.3409405-0.9254208-0.6987286-1.7771263-1.0733833-2.5551739L41.8457794,13.5571899z"/>
		<polygon class="st0" points="25.8965626,96.5478058 17.3262501,97.3270874 16.1310959,92.143692 25.475069,91.0759125 		"/>
		<path class="st0" d="M23.178421,60.6424026c-0.0237026,0.0974007-0.031908,0.1978989-0.0243492,0.297863l2.1786385,28.2642326
			l-9.6249886,1.0996323l-3.6323175-15.7356644c-2.0885305-9.0247269-1.5964746-18.4549675,1.4199657-27.2133217
			c3.0433741-8.9524918,6.9180155-17.6004887,11.5731916-25.8308296c0.3184719,0.7174549,0.625679,1.4873924,0.9179192,2.3341217
			c-0.0202866,0.1575928,0.0010242,0.3177681,0.0618248,0.464571c0.0318527,0.0693092,0.0974007,0.1067848,0.1423588,0.1648483
			c2.055521,7.3347416,3.298727,14.8731556,3.7072487,22.4795094C26.7861423,51.0429039,24.5032845,55.6888123,23.178421,60.6424026
			z"/>
		<path class="st0" d="M33.1160126,99.9855881c-0.842514-0.747673-1.343668-1.5095367-1.5292187-2.2643738
			c-0.1437073-0.5846329-0.0444469-1.2318726-0.0176258-1.5557709c1.1559677-13.96035,1.3674278-28.2477875,0.6759911-42.2256851
			c-0.7474461-13.4296341-2.0756149-23.0208912-4.1043911-29.5081043l15.4321842-6.8056679
			c1.2644806,1.9238739,2.8867493,4.2467518,4.4959106,6.5246716c0.178051,0.2399311,0.4598999,0.3805046,0.7586746,0.3784161
			c0.0430412,0.0031338,0.0862312,0.0031338,0.1292534,0c0.3454628-0.0503159,0.6342621-0.2885933,0.7493286-0.6181946
			l0.4233551-1.2082787v82.4640732c-4.5509186-0.3500214-8.7251701-1.187767-12.0712318-2.443718
			C35.9522743,101.9325027,34.2432785,100.9859238,33.1160126,99.9855881z"/>
		<path class="st0" d="M52.0027657,105.2821503V20.1062298h5.5805435v85.1957474
			c-0.8436928,0.0331268-1.6971054,0.0500336-2.5577774,0.0500336
			C54.0064163,105.3520126,52.9973831,105.3284225,52.0027657,105.2821503z"/>
		<path class="st0" d="M77.754921,53.9360199c-0.7000351,14.1898499-0.4456711,28.4098969,0.7593384,42.5643768
			c0.0180664,0.2120895,0.1123734,0.6361847-0.0468521,1.2071228c-0.2098465,0.7523499-0.6847305,1.5258942-1.5323334,2.2780685
			c-1.1272888,1.0003357-2.8362885,1.9469147-4.942215,2.7373657c-3.4588242,1.2982712-7.8024826,2.1498413-12.5325165,2.477562
			v-83.649971l0.8279991,2.3696976c0.1150475,0.3296013,0.4038696,0.5678806,0.7493095,0.6181946
			c0.0430412,0.0031528,0.086235,0.0031528,0.1292725,0c0.303791-0.0000191,0.5886993-0.1473541,0.7642975-0.3952637
			c1.6185265-2.2797985,3.2389145-4.6026764,4.4958954-6.5246696l15.4321823,6.8112888
			C79.8305435,30.9151268,78.5042343,40.5082626,77.754921,53.9360199z"/>
		<path class="st0" d="M97.9227982,74.5759659L94.2904816,90.311615l-9.6249847-1.0996323l2.1748962-28.2679749
			c0.0075607-0.0999451-0.0006638-0.2004623-0.024353-0.297863c-1.321991-4.9528885-3.6016388-9.5987587-6.710144-13.6750374
			c0.4085388-7.6063347,1.6517487-15.1447678,3.7072449-22.4795094c0.0449829-0.0580635,0.110527-0.0936584,0.1423798-0.1648483
			c0.0607986-0.1468029,0.0821152-0.3069611,0.0618286-0.464571c0.2922211-0.8486099,0.5994415-1.6185284,0.9179153-2.3341236
			c4.6540909,8.2316723,8.5274811,16.8809261,11.5694504,25.8345737v-0.0074844
			C99.5219498,56.1159859,100.013382,65.5490189,97.9227982,74.5759659z"/>
	</g>
</g>
<path class="st1" d="M54.7945671,98.1773834c-8.6946297,0-16.4145317-1.1883621-21.2672615-3.025856
	c-0.221508,0.3957062-0.3371239,0.8031006-0.3371239,1.2191086c0,3.8053284,9.6726036,6.8901596,21.6043854,6.8901596
	s21.6043816-3.0848312,21.6043816-6.8901596c0-0.416008-0.1156158-0.8234024-0.3371201-1.2191086
	C71.2090912,96.9890213,63.489193,98.1773834,54.7945671,98.1773834z"/>
<path class="st0" d="M42.7455406,12.2426224"/>
<circle class="st2" cx="54.7945671" cy="24.3010063" r="0.9366462"/>
<circle class="st2" cx="54.7945671" cy="80.4997787" r="0.9366462"/>
<circle class="st2" cx="54.9987488" cy="15.871191" r="0.9366462"/>
<circle class="st2" cx="54.7945671" cy="69.260025" r="0.9366462"/>
<circle class="st2" cx="54.7945671" cy="35.54076" r="0.9366462"/>
<circle class="st2" cx="54.7945671" cy="46.7805176" r="0.9366462"/>
<circle class="st2" cx="54.7945671" cy="58.0202713" r="0.9366462"/>
<path class="st2" d="M55.0244141,106.7597656c-6.5942383,0-12.800293-0.9667969-17.4750977-2.7207031
	c-2.3032227-0.8642578-4.1176758-1.8769531-5.3935547-3.0097656c-0.9130859-0.8095703-1.5454102-1.703125-1.8798828-2.6552734
	c-0.1757813-0.5009766-0.2011719-0.9052734-0.1225586-1.9667969c1.1171875-15.1181641,1.3583984-29.3945313,0.7167969-42.4316406
	c-0.0791016-1.4291992-0.1689453-2.7973633-0.2631836-4.1318359l-0.1010742-1.4428711l-0.8115234,1.1977539
	c-2.3232422,3.4291992-4.0541992,7.1933594-5.1450195,11.1875l-0.0229492,0.0839844l2.8110352,36.4560547
	c0.0185547,0.2382813-0.1586914,0.4482422-0.3950195,0.4697266l-10.3037109,0.9365234
	c-0.246582,0-0.4213867-0.1396484-0.4672852-0.3388672l-5.4326172-23.5546875
	c-2.1484375-9.2861328-1.6435547-18.9570313,1.4594727-27.96875c3.2207031-9.5307617,7.4101563-18.7739258,12.453125-27.4755859
	c0.059082-0.0996094,0.1616211-0.171875,0.2792969-0.1948242l0.0512695-0.0097656l17.4189453-7.3989258l0.0610352-0.2402344
	c0.0698242-0.2749023,0.1635742-0.5429688,0.2783203-0.7978516l2.4770508-5.3652344l0.0649414-0.0820313
	c0.0219727-0.0263672,0.046875-0.0507813,0.074707-0.0712891l0.0512695-0.0429688
	c2.7460938-1.2866211,5.7333984-1.9511719,8.7001953-1.9511719c0.2832031,0,0.5668945,0.0058594,0.8505859,0.0175781
	C55.2817383,3.2460938,55.5625,3.2407227,55.84375,3.2407227c2.9658203,0,5.9541016,0.6601563,8.6416016,1.909668
	c0.1582031,0.0566406,0.2490234,0.1367188,0.2978516,0.2397461l2.4755859,5.362793
	c0.1132813,0.2524414,0.2070313,0.5205078,0.2763672,0.793457l0.0605469,0.2407227l17.4160156,7.4023438L85.0625,19.199707
	c0.1171875,0.0229492,0.2197266,0.0957031,0.2802734,0.1992188c5.0419922,8.6958008,9.2333984,17.9389648,12.4550781,27.46875
	c3.1054688,9.0151367,3.6123047,18.6870117,1.4648438,27.9731445l-0.1416016,0.6123047H99.125l-5.2910156,22.9423828
	c-0.0458984,0.1982422-0.2207031,0.3369141-0.4238281,0.3369141l-10.3535156-0.9345703
	c-0.2382813-0.0214844-0.4160156-0.2324219-0.3974609-0.4697266l2.8173828-36.4648438l-0.0224609-0.0839844
	c-1.0908203-3.9941406-2.8222656-7.7583008-5.1455078-11.1879883l-0.8115234-1.1982422l-0.1015625,1.4438477
	c-0.09375,1.3417969-0.1875,2.7104492-0.2617188,4.1293945c-0.6894531,13.9799805-0.4453125,28.1401367,0.7246094,42.0893555
	l0.0224609,0.2099609c0.046875,0.3935547,0.1328125,1.1259766,0.0068359,1.6757813
	c-0.2519531,1.0976563-0.9228516,2.1367188-1.9951172,3.0878906c-1.2753906,1.1328125-3.0908203,2.1455078-5.3935547,3.0097656
	C67.8251953,105.7929688,61.6191406,106.7597656,55.0244141,106.7597656z M51.5014648,105.7226563l0.4770508,0.0214844
	c1.0185547,0.0478516,2.043457,0.0712891,3.0458984,0.0712891c0.8671875,0,1.7265625-0.0175781,2.5771484-0.0507813
	l0.4804688-0.0195313V19.5693359h-6.5805664V105.7226563z M58.9589844,21.5136719v84.1855469l0.5341797-0.0371094
	c4.8076172-0.3330078,9.1904297-1.2001953,12.6738281-2.5087891c2.1630859-0.8115234,3.9267578-1.7900391,5.0986328-2.8310547
	c0.8632813-0.7666016,1.4296875-1.6132813,1.6816406-2.5166016c0.1621094-0.5800781,0.1044922-1.0419922,0.0742188-1.2910156
	c-1.2099609-14.1787109-1.4648438-28.4775391-0.7685547-42.5913086c0.7460938-13.3754883,2.0820313-22.9873047,4.0830078-29.3813477
	l0.1328125-0.4262695l-16.2294922-7.1630859l-0.2324219,0.3554688c-1.0722656,1.640625-2.5400391,3.7695313-4.484375,6.5083008
	c-0.0830078,0.1162109-0.2158203,0.1850586-0.3564453,0.1850586c-0.21875-0.0180664-0.3525391-0.1289063-0.4072266-0.2832031
	l-0.828125-2.3696289L58.9589844,21.5136719z M27.5292969,24.1171875l0.1333008,0.4267578
	c2.0029297,6.4047852,3.3378906,16.0170898,4.0820313,29.3867188c0.6982422,14.1240234,0.4711914,28.3085938-0.675293,42.1572266
	c-0.015625,0.1884766-0.0585938,0.8242188-0.0585938,0.8242188l0.0854492,0.9042969l0.0336914,0.0742188
	c0.0297852,0.0664063,0.7412109,1.6230469,1.6533203,2.4316406c1.171875,1.0410156,2.9350586,2.0195313,5.0981445,2.8310547
	c3.3613281,1.2626953,7.5830078,2.1191406,12.2084961,2.4746094l0.5385742,0.0419922V22.6655273L49.6567383,22.5
	l-0.4238281,1.2084961c-0.0541992,0.1552734-0.1879883,0.2651367-0.3496094,0.2890625
	c-0.2011719-0.0053711-0.3325195-0.0712891-0.4145508-0.1821289c-1.3808594-1.9550781-3.1450195-4.4707031-4.4790039-6.5009766
	l-0.2324219-0.3540039L27.5292969,24.1171875z M83.5664063,96.9716797L93.0625,97.8349609l1.4189453-6.1542969
	l-10.4169922-1.1894531L83.5664063,96.9716797z M15.5170898,91.6728516l1.4189453,6.1542969l9.4960938-0.8632813l-0.5-6.4804688
	L15.5170898,91.6728516z M84.4765625,21.2880859c-0.3427734,0.7695313-0.6474609,1.5458984-0.9335938,2.3740234
	l-0.0380859,0.1108398l0.0146484,0.1166992c0.0097656,0.0703125,0,0.1425781-0.0273438,0.2089844l-0.1621094,0.2211914
	c-2.0625,7.3623047-3.3154297,14.9619141-3.7246094,22.5874023l-0.0097656,0.1835938l0.1113281,0.1464844
	c3.0849609,4.0454102,5.3134766,8.5878906,6.6240234,13.5009766c0.0097656,0.0371094,0.0126953,0.0820313,0.0097656,0.1298828
	l-2.2119141,28.7490234l10.546875,1.2050781l3.7333984-16.1708984c2.1132813-9.1289063,1.6181641-18.6367188-1.4326172-27.4956055
	h-0.0019531c-3.0439453-8.956543-6.9482422-17.6738281-11.6054688-25.9106445l-0.4892578-0.8637695L84.4765625,21.2880859z
	 M24.6323242,21.2412109c-4.6586914,8.2368164-8.5654297,16.9560547-11.6118164,25.9160156
	c-3.0498047,8.8554688-3.5458984,18.3603516-1.4335938,27.4863281l3.7329102,16.171875l10.5473633-1.2050781l-2.2158203-28.7451172
	c-0.0039063-0.0478516,0-0.0947266,0.0117188-0.140625c1.3115234-4.9042969,3.543457-9.4472656,6.6308594-13.4912109
	l0.1118164-0.1459961l-0.0097656-0.184082c-0.409668-7.6298828-1.6630859-15.2294922-3.7250977-22.5874023l-0.0263672-0.09375
	l-0.0834961-0.1079102l-0.0869141-0.0883789c0.0004883,0,0.0004883,0,0.0004883,0
	c0.0068359,0-0.0024414-0.0708008,0.0063477-0.1401367l0.0151367-0.1166992l-0.0380859-0.1108398
	c-0.2832031-0.8203125-0.5888672-1.5966797-0.9335938-2.3735352l-0.4033203-0.9082031L24.6323242,21.2412109z M67.671875,13.4584961
	c-0.0986328,0.7958984-0.3339844,1.5629883-0.6982422,2.2792969l-0.2402344,0.4711914l16.0273438,7.0693359l0.1806641-0.5058594
	c0.3242188-0.9072266,0.6738281-1.7504883,1.0380859-2.5063477l0.2275391-0.472168L67.7529297,12.800293L67.671875,13.4584961z
	 M25.7910156,19.793457l0.2270508,0.472168c0.3671875,0.7617188,0.7216797,1.6069336,1.0546875,2.5112305l0.184082,0.4995117
	l16.0224609-7.0673828l-0.2402344-0.4711914c-0.3647461-0.715332-0.5996094-1.4819336-0.6982422-2.2792969l-0.0810547-0.6577148
	L25.7910156,19.793457z M64.2255859,8.1108398c-1.3613281,2.1523438-3.4384766,3.7929688-5.8466797,4.6196289l-0.4755859,0.1635742
	l3.4023438,9.7280273l0.5595703-0.7963867c1.6142578-2.2988281,2.8369141-4.0966797,3.7353516-5.4941406l0.0166016-0.0151367
	l0.0546875-0.0947266l0.0830078-0.1225586c1.0654297-1.3979492,1.3447266-3.2563477,0.7265625-4.9414063l-1.7646484-3.8237305
	L64.2255859,8.1108398z M44.4042969,16.3374023c0.9165039,1.4272461,2.09375,3.1582031,3.7241211,5.4819336l0.5595703,0.7978516
	l3.3945313-9.7055664l-0.4433594-0.1777344c-1.4492188-0.5820313-2.7905273-1.3862305-3.9863281-2.3896484l-0.1025391-0.097168
	c-0.7099609-0.5961914-1.3022461-1.3066406-1.7607422-2.112793l-0.480957-0.8447266l-1.7714844,3.8369141
	c-0.6318359,1.7158203-0.3564453,3.5698242,0.722168,4.9960938l0.0039063,0.0058594v0.0634766L44.4042969,16.3374023z
	 M50.9785156,18.7294922h8.0400391l-1.9921875-5.699707h-4.0556641L50.9785156,18.7294922z M54.9990234,9.1728516
	c-1.7495117,0-3.4936523,0.2250977-5.1850586,0.6699219l-1.1381836,0.2988281l1.0053711,0.6118164
	c0.8911133,0.5424805,1.8374023,1.0053711,2.8115234,1.3759766l0.0859375,0.0327148h4.855957l0.0859375-0.0332031
	c0.96875-0.3710938,1.9091797-0.8339844,2.796875-1.3759766l1.0019531-0.6123047l-1.1357422-0.2978516
	C58.4921875,9.3979492,56.7480469,9.1728516,54.9990234,9.1728516z M54.9799805,8.2949219
	c2.2885742,0,4.5454102,0.3823242,6.706543,1.1362305l0.2783203,0.097168l0.2197266-0.1967773
	c0.9111328-0.8149414,1.5175781-1.9287109,1.7080078-3.1352539l0.0605469-0.3876953l-0.3623047-0.1513672
	c-2.4580078-1.0258789-5.0546875-1.5463867-7.7177734-1.5463867c-0.3046875,0-0.6103516,0.0068359-0.9160156,0.0209961
	c-0.2558594-0.0136719-0.5561523-0.0200195-0.8569336-0.0200195c-2.6538086,0-5.2421875,0.5131836-7.6938477,1.5263672
	l-0.3623047,0.1494141l0.059082,0.3876953c0.184082,1.2114258,0.7880859,2.3286133,1.699707,3.1459961l0.2197266,0.1967773
	l0.2783203-0.0966797C50.4536133,8.6738281,52.7006836,8.2949219,54.9799805,8.2949219z"/>
</svg>
