<?xml version="1.0" encoding="utf-8"?>
<!-- Generator: Adobe Illustrator 23.0.3, SVG Export Plug-In . SVG Version: 6.00 Build 0)  -->
<svg version="1.1" id="Слой_1" xmlns="http://www.w3.org/2000/svg" xmlns:xlink="http://www.w3.org/1999/xlink" x="0px" y="0px"
	 viewBox="0 0 55 55" width="55" height="55"  style="enable-background:new 0 0 55 55;" xml:space="preserve">
<style type="text/css">
	.st0{fill:#FFFFFF;}
	.st1{fill:#AF9C94;}
	.st2{fill:#020203;}
</style>
<g id="Спина_1_">
	<path class="st0" d="M27.5033226,53.3660393c4.5567856-0.0149117,8.9869118-1.5010414,12.6308479-4.2371445l0.0796204-25.1408195
		c1.4510651,2.0960579,2.507576,4.4392452,3.1176605,6.9144936l-1.4389229,18.7059669l5.2760429,0.479641l2.8778419-12.4706459
		c1.1167679-5.1420021,0.6141129-10.5036526-1.4389191-15.3484859c-1.5290375-4.3258266-3.4558449-8.5005741-5.7556839-12.4706459
		L33.768383,6.0063634l-0.0700302-0.2877846l-1.3986282-3.114783c-1.5035534-0.6849856-3.1450481-1.013285-4.796402-0.9592805
		c-1.6513519-0.0540047-3.2928467,0.2742949-4.796402,0.9592805L21.3082905,5.721457l-0.0700283,0.2877846L12.1548367,9.798399
		c-2.2998381,3.9700708-4.2266445,8.1448193-5.7556829,12.4706459C4.346118,27.1138783,3.8434634,32.4755287,4.9602332,37.6175308
		l2.8778415,12.4706459l5.276042-0.479641l-1.43892-18.7059669c0.6100807-2.4752483,1.6665955-4.8184357,3.1176615-6.9144936
		l0.0796204,25.1408195C18.5164127,51.8649979,22.9465389,53.3511276,27.5033226,53.3660393z"/>
	<path class="st1" d="M13.9534874,14.1755953l27.2790565-0.1199102c-0.7668533,3.2529488-1.1092873,6.5914993-1.0187531,9.9323902
		c0.0796204,6.2746525-0.0796204,25.1408195-0.0796204,25.1408195c-3.5890465,2.8389702-8.0558128,4.3373909-12.6308479,4.2371445
		c-4.56534,0.0379181-9.0119438-1.4537392-12.6308441-4.2371445c0,0-0.1602001-18.7855873-0.0796204-25.1408195
		C14.9479856,20.6945267,14.6657362,17.3949471,13.9534874,14.1755953z"/>
	<path class="st0" d="M39.4425278,15.5022802c-0.5084953,2.8049765-0.7334633,5.6540003-0.6714973,8.5040216
		c0.0700302,5.5072308-0.0470047,20.9506836-0.073864,24.4156036c-3.2466202,2.3629684-7.179348,3.5944481-11.1938438,3.5052109
		h-0.0671482c-3.9904633,0.0311089-7.8874474-1.2075272-11.1276531-3.5368652
		c-0.0278206-3.5186424-0.1438923-18.8249207-0.073864-24.3839512c0.0996094-2.8091908-0.0664444-5.6215096-0.4959488-8.3994589
		l23.7076569-0.1045618 M41.2363853,14.0556841l-27.2790604,0.1199102c0.7122488,3.2193527,0.9944992,6.5189323,0.8393707,9.8124809
		c-0.0834599,6.3552322,0.0757818,25.1408195,0.0757818,25.1408195c3.6014633,2.7698898,8.0231972,4.2607918,12.5665741,4.2371445
		h0.0671482c4.5740528,0.099575,9.03969-1.3988113,12.6279697-4.2371445c0,0,0.1601982-18.8661671,0.0796204-25.1408195
		c-0.0905342-3.3408909,0.2518997-6.6794415,1.0187531-9.9323902L41.2363853,14.0556841z"/>
	<path class="st2" d="M9.2769957,48.2300491c0,0.2649002-0.2147427,0.479641-0.479641,0.479641s-0.47964-0.2147408-0.47964-0.479641
		c0-0.2648964,0.2147417-0.4796371,0.47964-0.4796371S9.2769957,47.9651527,9.2769957,48.2300491z M7.4783444,41.8143845
		c-0.2648983,0-0.4796405,0.2147408-0.4796405,0.479641c0,0.2648964,0.2147422,0.4796371,0.4796405,0.4796371
		s0.47964-0.2147408,0.47964-0.4796371C7.9579844,42.0291252,7.7432427,41.8143845,7.4783444,41.8143845z M50.4598618,37.9273758
		c-0.0153465,0.0690689-0.023983,0.1381378-0.040287,0.2072067l-2.7819176,12.0619926
		c-0.0505829,0.2180443-0.2452507,0.3721085-0.4690857,0.3712425h-0.0431633l-5.2760429-0.479641
		c-0.2625809-0.0228806-0.4575005-0.2533569-0.4364738-0.5160904l1.4389191-18.6282692
		c-0.4947281-1.8722382-1.2180252-3.6764603-2.1535835-5.3719711v23.5570488c0,0.1509743-0.0710793,0.2931328-0.1918564,0.3837166
		c-3.793766,2.7312813-8.3292465,4.2426605-13.0030479,4.333065c-4.6737976-0.0904045-9.2092781-1.6017876-13.003046-4.333065
		c-0.1207762-0.0905838-0.1918564-0.2327423-0.1918554-0.3837166v-23.55513
		c-0.9355574,1.6955128-1.6588573,3.4997349-2.1535845,5.3719711l1.43892,18.6263504
		c0.0205126,0.261692-0.1731472,0.4912605-0.4345541,0.5151329l-5.276042,0.479641l-0.0450859,0.0009575
		c-0.2234001-0.0001335-0.4171286-0.1544762-0.4671698-0.3722L4.5889916,38.1336212
		c-1.1099036-4.796402-0.8482897-9.8082867,0.7549539-14.463068c1.6578755-4.9059544,3.8009634-9.6343107,6.3974409-14.1148529
		c0.0115843-0.0145283,0.0240803-0.028306,0.0374117-0.0412493c0.0181723-0.0246696,0.0387363-0.0474825,0.0613947-0.0681086
		c0.0255709-0.0222559,0.053566-0.041563,0.083457-0.0575571c0.0138149-0.0107212,0.0282278-0.0206499,0.0431681-0.0297384
		l8.8992462-3.788198c0.0352879-0.1415715,0.0808144-0.2803926,0.1362171-0.4153686l1.2691288-2.750257
		c0.0392151-0.0842865,0.1018105-0.1555388,0.1803436-0.2052858c1.572567-0.7568227,3.3080807-1.1124282,5.051569-1.0350626
		c1.74333-0.077962,3.4788361,0.2769829,5.0515709,1.033145c0.0785332,0.049747,0.1411247,0.1209996,0.1803436,0.205286
		l1.2691307,2.750257c0.0553818,0.1353121,0.1009026,0.2744503,0.1362152,0.416328l8.9030838,3.7881985
		c0.0149193,0.0091181,0.0293312,0.0190458,0.0431671,0.0297375c0.0298729,0.0160217,0.0578651,0.035327,0.0834579,0.0575581
		c0.0227127,0.0209188,0.0432816,0.0440569,0.0613937,0.069067c0.0133247,0.0129519,0.0258217,0.0267296,0.0374146,0.0412493
		c2.59515,4.4806938,4.7369537,9.2090445,6.3936005,14.114852c1.5506783,4.5124054,1.8412132,9.362299,0.8403282,14.0275593
		C50.5081787,37.776947,50.4933281,37.8558121,50.4598618,37.9273758z M49.4046555,38.2755966l-0.6005096,0.0546761
		c-0.872818,0.0828743-1.5899239,0.7245331-1.7689133,1.5828133l-1.1943016,5.8583298l1.7842598,0.2043266L49.4046555,38.2755966z
		 M21.9231892,5.447103h11.1602688l-1.1568928-2.5065999c-1.39011-0.6148484-2.9052372-0.8944783-4.4232426-0.8163476
		c-1.5179291-0.0784318-3.0330524,0.2008688-4.4232407,0.8153884L21.9231892,5.447103z M12.8100252,10.0420561
		c0.5613632,1.1566629,1.0237894,2.358778,1.3823223,3.5934649h26.6219482
		c0.3588448-1.2347174,0.8215942-2.4368334,1.3832855-3.5934649l-8.5375977-3.635673H21.3485794L12.8100252,10.0420561z
		 M7.3814573,45.9786186l1.8226328-0.2081604l-1.1904669-5.8573685c-0.1777511-0.8586197-0.8949766-1.5007362-1.7679539-1.5828133
		L5.6039104,38.271759L7.3814573,45.9786186z M8.2102757,49.5730438l1.7382154-0.1563644L9.3988237,46.714386l-1.8005695,0.208168
		L8.2102757,49.5730438z M12.5989828,49.1739845l-0.2158384-2.8030205l-2.0298376,0.2321472l0.5544643,2.7243576
		L12.5989828,49.1739845z M14.3122578,23.6571236v-1.1482582c0-5.789257-1.0072451-9.0987749-2.1881189-11.6629324
		c-2.3604317,4.1879377-4.3270764,8.5859156-5.8746328,13.1373472c-1.4692688,4.279707-1.7624636,8.8754158-0.8489633,13.3071365
		l0.9314613,0.0844193c1.2941995,0.122654,2.3573279,1.0745277,2.6217141,2.3473587l1.2086935,5.9389038l2.1487875-0.245575
		l-1.1156435-14.475544c-0.004344-0.0511818-0.0001297-0.1027298,0.0124702-0.1525249
		c0.6617708-2.5230789,1.7091751-4.9288425,3.1051912-7.1322498L14.3122578,23.6571236z M39.7331886,22.5107841
		c-0.0421181-2.6622963,0.2358246-5.3200073,0.827858-7.9159832h-26.115448
		c0.5915565,2.5953903,0.8691797,5.2524471,0.8269005,7.9140644v26.3802109
		c3.5892096,2.5180931,7.84727,3.909729,12.2308245,3.9973221c4.3833523-0.0870323,8.6413994-1.477993,12.2308273-3.9954033
		L39.7331886,22.5107841z M43.8110924,30.9399796l-1.1146851,14.475544l2.1871605,0.2503738l1.2086906-5.9475403
		c0.2653389-1.2726517,1.3284988-2.224205,2.622673-2.3473587l0.890213-0.0805779
		c0.9143372-4.43256,0.6214676-9.0293312-0.8480034-13.3100147c-1.547863-4.5514679-3.5148277-8.9494438-5.8755913-13.1373463
		c-1.1808777,2.5670309-2.1881218,5.8765488-2.1881218,11.6658058v1.1463394
		c1.3953476,2.2035255,2.4421005,4.6092815,3.1032753,7.1322498C43.8099442,30.8371429,43.8148079,30.8886929,43.8110924,30.9399796
		z M42.4067039,49.1739845l1.7267036,0.1573219l0.5535049-2.7233963l-2.0691681-0.2369461L42.4067039,49.1739845z
		 M47.4083939,46.922554l-1.7593231-0.2014503l-0.5496674,2.6955757l1.6960106,0.1544456L47.4083939,46.922554z
		 M46.2495804,47.7532921c-0.2648964,0-0.479641,0.2147408-0.479641,0.4796371c0,0.2649002,0.2147446,0.479641,0.479641,0.479641
		c0.2649002,0,0.479641-0.2147408,0.479641-0.479641c0.0015907-0.2648926-0.2118568-0.4809189-0.4767532-0.4825134
		c-0.0009613,0-0.0019226-0.0000038-0.0028877-0.0000038V47.7532921z M47.5685921,41.818222
		c-0.2648964,0-0.479641,0.2147408-0.479641,0.479641c0,0.2648964,0.2147446,0.479641,0.479641,0.479641
		s0.479641-0.2147446,0.479641-0.479641c0.0021172-0.2648926-0.2108955-0.4813423-0.4757881-0.4834633
		c-0.0012856-0.0000114-0.0025673-0.0000153-0.0038528-0.0000153V41.818222z"/>
</g>
</svg>
