<svg xmlns="http://www.w3.org/2000/svg" width="55" height="55" viewBox="0 0 55 55"><defs><style>.cls-1{fill:#fff;}.cls-2{fill:#af9c94;}</style></defs><title>Силуэт</title><g id="Силуэт"><path class="cls-1" d="M28.792,54.583c6.146,0,8.271-3.125,11.958-3.125-.82-10.207-1.18-19.554-.313-27.521A18.307,18.307,0,0,1,44,31L42.5,50.5,48,51l3-13a26.56,26.56,0,0,0-1.5-16,77.381,77.381,0,0,0-6-13L34.094,5.063l-.052-.312L32.5,1.5a11.179,11.179,0,0,0-5-1,11.179,11.179,0,0,0-5,1L21.042,4.75l-.083.312L11.5,9a77.381,77.381,0,0,0-6,13A26.56,26.56,0,0,0,4,38L7,51l5.5-.5L11,31c.708-2.625,2.125-5.688,3.563-7.063A176.811,176.811,0,0,1,14.333,51.5c3.729,0,5.667,3.125,11.833,3.125Z"/><path class="cls-2" d="M34.094,5.063,43.5,9c-1.78,4.12-2.676,9.241-3.063,14.937-.868,7.967-.507,17.293.313,27.5-3.583,0-5.625,3.167-12.1,3.167l-2.625.042c-5.833,0-8.687-3.167-11.687-3.167a176.545,176.545,0,0,0,.229-27.541A46.322,46.322,0,0,0,11.5,9l9.458-3.938C20.562,6.25,22.187,8.25,24.187,11l.854-2.375,5,.042L30.875,11C32.812,8.25,34.375,6.563,34.094,5.063Z"/><path class="cls-1" d="M19.817,7.162a24.544,24.544,0,0,0,2.518,3.847l.639.873,1.666,2.291.959-2.665.494-1.374,2.888.024.481,1.347.973,2.724L32.1,11.864c.365-.518.716-1,1.044-1.444a18.7,18.7,0,0,0,2.089-3.254L41.56,9.814a50.634,50.634,0,0,0-2.617,13.991c-.731,6.74-.672,14.9.2,26.3a15.23,15.23,0,0,0-3.227,1.2A15.675,15.675,0,0,1,28.622,53.1l-2.6.041a16.3,16.3,0,0,1-7.162-1.839,17.734,17.734,0,0,0-2.93-1.121,171.726,171.726,0,0,0,.13-26.344A50.076,50.076,0,0,0,13.435,9.82l6.383-2.657m14.276-2.1c.281,1.5-1.281,3.187-3.219,5.937l-.833-2.333-5-.042L24.187,11c-2-2.75-3.625-4.75-3.229-5.937L11.5,9a46.322,46.322,0,0,1,3.063,14.937,176.545,176.545,0,0,1-.229,27.542c3,0,5.854,3.167,11.687,3.167l2.625-.042c6.479,0,8.521-3.167,12.1-3.167-.82-10.207-1.18-19.533-.313-27.5C40.824,18.241,41.72,13.121,43.5,9L34.094,5.063Zm-13.135,0h0Z"/><path d="M27,7a.5.5,0,1,1,.5.5A.5.5,0,0,1,27,7Zm.391,5a.5.5,0,1,0-.5-.5A.5.5,0,0,0,27.391,12Zm0,5a.5.5,0,1,0,.5.5A.5.5,0,0,0,27.391,17Zm0,6a.5.5,0,1,0,.5.5A.5.5,0,0,0,27.391,23Zm0,6a.5.5,0,1,0,.5.5A.5.5,0,0,0,27.391,29Zm0,6a.5.5,0,1,0,.5.5A.5.5,0,0,0,27.391,35Zm0,6a.5.5,0,1,0,.5.5A.5.5,0,0,0,27.391,41Zm24-2.461-2.9,12.574A.5.5,0,0,1,48,51.5l-.046,0-5.5-.5A.5.5,0,0,1,42,50.462L43.5,31.043a19.811,19.811,0,0,0-2.71-5.893c-.05.715-.1,1.444-.14,2.2a169.024,169.024,0,0,0,.536,24.116.5.5,0,0,1-.5.545,8.94,8.94,0,0,0-4.171,1.209A14.585,14.585,0,0,1,29.4,55l-.011,0H25.234c-.012,0-.023-.006-.035-.007a13.879,13.879,0,0,1-6.809-1.771,8.414,8.414,0,0,0-4.073-1.207.5.5,0,0,1-.5-.545,169.027,169.027,0,0,0,.536-24.116c-.042-.76-.09-1.489-.14-2.2a19.81,19.81,0,0,0-2.71,5.893L13,50.462a.5.5,0,0,1-.453.537l-5.5.5L7,51.5a.5.5,0,0,1-.487-.388l-2.9-12.574A27.363,27.363,0,0,1,4.4,23.461,81.173,81.173,0,0,1,11.069,8.747a.49.49,0,0,1,.329-.232l9.151-3.887a2.847,2.847,0,0,1,.164-.47l1.323-2.866a.476.476,0,0,1,.028-.04.471.471,0,0,1,.044-.063.49.49,0,0,1,.084-.08c.012-.009.019-.022.032-.03s.027-.013.039-.02l.016-.008A11.15,11.15,0,0,1,27.49,0a11.215,11.215,0,0,1,5.187,1.035.494.494,0,0,1,.287.255l1.323,2.866a2.847,2.847,0,0,1,.164.47L43.6,8.515a.491.491,0,0,1,.328.232A81.173,81.173,0,0,1,50.6,23.461,27.363,27.363,0,0,1,51.389,38.539ZM42.73,9.23l-8.2-3.485a3.944,3.944,0,0,1-.4,1.305l8.035,3.544Q42.43,9.853,42.73,9.23ZM33.379,4.576,32.651,3a6.262,6.262,0,0,1-3.26,2.576l1.556,4.449c.744-1.059,1.459-2.1,2-2.942v0c0-.008.01-.012.014-.019l.057-.088A2.525,2.525,0,0,0,33.379,4.576ZM30.2,4.04a10.625,10.625,0,0,0-5.4,0,8.861,8.861,0,0,0,1.457.713h2.494A8.867,8.867,0,0,0,30.2,4.04ZM25.73,8.259h3.54L28.393,5.75H26.607ZM25.9,54h2.979V9.241H25.9ZM27.49,1a10.49,10.49,0,0,0-4.475.784,2.561,2.561,0,0,0,.822,1.521,11.135,11.135,0,0,1,7.321.005,2.572,2.572,0,0,0,.826-1.516A10.427,10.427,0,0,0,27.49,1ZM21.98,6.973l.056.086c0,.008.011.013.015.021v0c.543.845,1.257,1.883,2,2.942l1.556-4.449a8.147,8.147,0,0,1-2.2-1.319.479.479,0,0,1-.055-.052,4.428,4.428,0,0,1-1-1.2l-.728,1.577A2.525,2.525,0,0,0,21.98,6.973ZM12.27,9.23q.3.623.573,1.364l8.035-3.544a3.944,3.944,0,0,1-.4-1.305Zm-.306,40.817-.225-2.921-4.988.57.638,2.767ZM14.1,23.58a55.5,55.5,0,0,0-1.979-12c-.024-.031-.059-.051-.076-.088a.486.486,0,0,1-.033-.248c-.156-.452-.32-.863-.49-1.246A80.893,80.893,0,0,0,5.344,23.787a26.36,26.36,0,0,0-.758,14.527l1.939,8.4,5.138-.587L10.5,31.039a.51.51,0,0,1,.013-.159A20.948,20.948,0,0,1,14.1,23.58Zm4.741,28.748A12.8,12.8,0,0,0,24.9,53.993V10.627l-.226.645a.5.5,0,0,1-.4.33.473.473,0,0,1-.069,0A.5.5,0,0,1,23.8,11.4c-.859-1.216-1.725-2.456-2.4-3.483l-8.238,3.633c1.083,3.463,1.792,8.583,2.191,15.752a169.441,169.441,0,0,1-.491,23.735A9.855,9.855,0,0,1,18.838,52.328Zm21.3-1.295A169.44,169.44,0,0,1,39.647,27.3c.4-7.168,1.108-12.289,2.191-15.751L33.6,7.913c-.671,1.026-1.536,2.266-2.4,3.483a.5.5,0,0,1-.408.211.473.473,0,0,1-.069,0,.5.5,0,0,1-.4-.33l-.442-1.265V53.993a13.552,13.552,0,0,0,6.2-1.669A10.473,10.473,0,0,1,40.138,51.033ZM48.249,47.7l-4.988-.57-.225,2.921,4.575.416Zm1.407-23.909A80.893,80.893,0,0,0,43.48,10c-.17.382-.334.793-.49,1.246a.486.486,0,0,1-.033.248c-.017.038-.052.057-.076.088a55.5,55.5,0,0,0-1.979,12,20.947,20.947,0,0,1,3.582,7.3.51.51,0,0,1,.013.159l-1.161,15.09,5.138.587,1.939-8.4A26.36,26.36,0,0,0,49.656,23.787Z"/></g></svg>