<svg xmlns="http://www.w3.org/2000/svg" width="110" height="110" viewBox="0 0 110 110">
<style type="text/css">
	.st0{fill:#FFFFFF;}
	.st1{fill:#020203;}
	.st2{fill:none;stroke:#020203;stroke-width:0.986;stroke-linecap:round;stroke-linejoin:round;stroke-miterlimit:10;}
</style>
<path class="st0" d="M55.0067635,107.6536331c9.2759209-0.0303574,18.2940102-3.0555649,25.7117043-8.6252441l0.1620789-51.1773605
	c2.9538269,4.2667923,5.1044998,9.0366516,6.3463974,14.0753365l-2.9291077,38.0783882l10.7400589,0.9763718l5.8582153-25.3855972
	c2.2733231-10.4672012,1.2501068-21.3815269-2.9291077-31.2438087c-3.1125488-8.8057709-7.0348129-17.3040047-11.7164307-25.3855934
	l-18.4904785-7.7191734L67.6175385,10.66113L64.7704544,4.32059c-3.0606766-1.394376-6.4021492-2.0626714-9.7636909-1.9527383
	C51.6452255,2.2579184,48.3037529,2.926214,45.2430763,4.32059l-2.8470955,6.3463984l-0.1425476,0.5858221l-18.4904766,7.713315
	c-4.6816158,8.0815868-8.6038761,16.5798225-11.7164297,25.3855934c-4.1792173,9.8622818-5.202435,20.7766075-2.9291067,31.2438087
	l5.8582144,25.3855972l10.7400599-0.9763718l-2.9291077-38.0783882c1.2418976-5.0386848,3.3925705-9.8085442,6.3463993-14.0753365
	l0.162077,51.1773605C36.7127571,104.5980682,45.7308464,107.6232758,55.0067635,107.6536331z"/>
<path class="st0" d="M79.3105392,30.5771065c-1.0351028,5.7098885-1.4930496,11.5094414-1.3669128,17.3110237
	c0.1425476,11.2106705-0.0956879,42.6478043-0.1503601,49.701088c-6.6089096,4.8101196-14.6144829,7.3169632-22.7865028,7.1353073
	h-0.1366882c-8.1231003,0.063324-16.0559082-2.4580765-22.6517639-7.1997452
	c-0.0566292-7.1626434-0.2929096-38.3205376-0.1503601-49.6366539c0.2027702-5.7184677-0.1352558-11.4433022-1.0095654-17.0981731
	l48.2599716-0.2128487 M82.9621658,27.6323738l-55.530014,0.2440929c1.449873,6.5534039,2.0244293,13.2701206,1.7086468,19.9745617
	C28.9709072,60.7879181,29.295063,99.028389,29.295063,99.028389c7.3312416,5.6384583,16.3322449,8.673378,25.5808716,8.6252441
	h0.1366882c9.3110695,0.2026978,18.4014473-2.8474579,25.7058449-8.6252441c0,0,0.3261032-38.4045029,0.1620789-51.1773605
	c-0.1842957-6.8008118,0.5127716-13.596859,2.0738068-20.2186527L82.9621658,27.6323738z"/>
<path class="st1" d="M55.0068359,108.1298828c-9.4511719-0.1845703-18.503418-3.2021484-26.1772461-8.7265625
	c-0.1113281-0.0830078-0.1826172-0.2255859-0.1826172-0.375V51.0791016l-0.9379883-0.2416992
	c-1.9223633,3.4833984-3.4125977,7.2006836-4.4291992,11.0493164L23.2583008,61.96875l2.9350586,38
	c0.0205078,0.2597656-0.1733398,0.4892578-0.4316406,0.5126953l-10.7397461,0.9755859
	c-0.2695313,0-0.4604492-0.1513672-0.5102539-0.3691406L8.8491211,76.5341797
	c-2.2412109-9.6845703-1.7148438-19.7695313,1.5219727-29.1669922c3.3583984-9.9370117,7.7260742-19.5732422,12.9829102-28.6445313
	l0.0981445-0.097168l0.0390625-0.0209961l0.1113281-0.0795898l18.3178711-7.8022461l0.0605469-0.2412109
	c0.065918-0.2646484,0.1508789-0.5244141,0.2543945-0.7768555l2.5751953-5.5786133
	c0.0385742-0.0834961,0.1015625-0.1547852,0.1806641-0.2050781c2.7749023-1.331543,5.9257813-2.050293,9.0610352-2.050293
	c0.3105469,0,0.6210938,0.0068359,0.9326172,0.0205078c0.3574219-0.0141602,0.6704102-0.0209961,0.9838867-0.0209961
	c3.1337891,0,6.2822266,0.7177734,9.1044922,2.0751953c0.0283203,0.0214844,0.0908203,0.0927734,0.1308594,0.1782227
	l2.5820313,5.5966797c0.0957031,0.2333984,0.1806641,0.4931641,0.2460938,0.7583008l0.0595703,0.2421875l18.3544922,7.809082
	L86.5625,18.6181641l0.0273438,0.0375977l0.0869141,0.0922852c5.2460938,9.0483398,9.6113281,18.6845703,12.9648438,28.6166992
	c3.1279297,9.1020508,3.7128906,18.8842773,1.6943359,28.2905273l-0.0146484,0.0683594l0.0048828,0.0693359
	c0.0048828,0.0761719-0.0087891,0.1523438-0.0410156,0.2207031l-0.0244141,0.0507813c0,0-0.0761719,0.4033203-0.0917969,0.46875
	l-5.6630859,24.5566406c-0.0498047,0.2158203-0.2412109,0.3671875-0.4638672,0.3671875l-10.7871094-0.9736328
	c-0.2617188-0.0224609-0.4560547-0.2529297-0.4355469-0.5126953l2.9365234-38.0058594l-0.0214844-0.0820313
	c-1.0185547-3.8515625-2.5087891-7.5688477-4.4306641-11.0493164l-0.9375,0.2416992v47.953125
	c0,0.1494141-0.0712891,0.2919922-0.1904297,0.3818359C73.5107422,104.9277344,64.4589844,107.9453125,55.0068359,108.1298828z
	 M27.9389648,28.8413086c1.1933594,5.237793,1.7558594,10.6176758,1.6704102,15.9907227v53.9677734l0.2128906,0.1494141
	c7.4140625,5.2021484,16.1191406,8.046875,25.1743164,8.2285156c9.0756836-0.1806641,17.7807617-3.0244141,25.1948242-8.2246094
	l0.2128906-0.1494141L80.4023438,44.84375c-0.0849609-5.3837891,0.4775391-10.7651367,1.6728516-16.0024414l0.1396484-0.6113281
	H27.7993164L27.9389648,28.8413086z M13.8745117,94.1044922l1.4697266,6.3652344l4.5283203-0.4072266l-1.3212891-6.4990234
	L13.8745117,94.1044922z M90.2246094,100.0615234l4.4423828,0.4042969l1.4726563-6.3613281l-4.59375-0.5263672
	L90.2246094,100.0615234z M84.8095703,99.5732422l4.4501953,0.40625l1.3251953-6.5175781l-5.2705078-0.6035156
	L84.8095703,99.5732422z M19.4970703,93.4521484l1.3266602,6.5185547l4.3798828-0.3974609l-0.5175781-6.7148438
	L19.4970703,93.4521484z M13.6591797,93.1630859l4.6958008-0.5371094l-2.5322266-12.4570313
	c-0.4091797-1.9775391-2.0332031-3.4306641-4.0419922-3.6201172l-1.9956055-0.1816406L13.6591797,93.1630859z
	 M98.3222656,76.5488281c-2.0087891,0.1904297-3.6337891,1.6435547-4.0449219,3.6171875l-2.5410156,12.4619141l4.6181641,0.5292969
	L100.2324219,76.375L98.3222656,76.5488281z M85.8574219,20.8837891
	c-2.2255859,4.8374023-4.5009766,11.4663086-4.5009766,23.9560547v2.4785156l0.0771484,0.1225586
	c2.8173828,4.4477539,4.921875,9.2856445,6.2568359,14.378418c0.0126953,0.0488281,0.0175781,0.0986328,0.0136719,0.1464844
	l-2.3046875,29.9462891l5.3857422,0.6162109l2.5517578-12.5566406c0.4970703-2.3876953,2.4648438-4.1484375,4.8964844-4.3798828
	l2.1796875-0.1972656l0.0742188-0.3642578c1.8789063-9.1044922,1.2753906-18.5644531-1.7431641-27.3569336
	c-3.1513672-9.2695313-7.1884766-18.2954102-11.9970703-26.8261719l-0.4804688-0.8525391L85.8574219,20.8837891z
	 M23.2651367,20.8530273c-4.8081055,8.5297852-8.8442383,17.5561523-11.9970703,26.8271484
	C8.2509766,56.46875,7.6474609,65.9267578,9.5239258,75.0302734l0.0751953,0.3642578l2.265625,0.2050781
	c2.4287109,0.2304688,4.3959961,1.9912109,4.8920898,4.3818359l2.5517578,12.5371094l5.3081055-0.6064453l-2.3081055-29.9472656
	c-0.0043945-0.0527344-0.0004883-0.1025391,0.0117188-0.1503906c1.3339844-5.0869141,3.4394531-9.9228516,6.2568359-14.3706055
	l0.0776367-0.1225586v-2.4814453c0-12.4946289-2.2749023-19.1186523-4.5-23.9501953l-0.4091797-0.8886719L23.2651367,20.8530273z
	 M24.4174805,19.2075195l0.2294922,0.4726563c1.1274414,2.3237305,2.0639648,4.7583008,2.7836914,7.2363281l0.1044922,0.3603516
	h54.9423828l0.1054688-0.3603516c0.7197266-2.4785156,1.6572266-4.9130859,2.7861328-7.2363281l0.2294922-0.4726563
	L67.640625,11.5610352H42.3759766L24.4174805,19.2075195z M53.9873047,2.8178711
	c-2.8374023,0-5.5917969,0.581543-8.1865234,1.7285156l-0.1728516,0.0766602l-2.7617188,5.9853516h24.28125L64.3857422,4.625
	l-0.1728516-0.0766602c-2.5966797-1.1479492-5.3525391-1.7304688-8.1904297-1.7304688
	c-0.3466797,0-0.6938477,0.0092773-1.0415039,0.0268555C54.684082,2.8266602,54.3354492,2.8178711,53.9873047,2.8178711z
	 M93.1669922,97.6806641c-0.2626953,0-0.4765625-0.2138672-0.4765625-0.4765625s0.2138672-0.4755859,0.4765625-0.4755859h0.0742188
	c0.1005859,0.015625,0.1923828,0.0625,0.2646484,0.1357422c0.0898438,0.0898438,0.1386719,0.2099609,0.1376953,0.3369141
	C93.6435547,97.4667969,93.4296875,97.6806641,93.1669922,97.6806641z M16.9282227,97.6748047
	c-0.2626953,0-0.4760742-0.2138672-0.4760742-0.4765625s0.2133789-0.4755859,0.4760742-0.4755859
	s0.4765625,0.2128906,0.4765625,0.4755859S17.190918,97.6748047,16.9282227,97.6748047z M95.8525391,85.5996094
	c-0.2626953,0-0.4765625-0.2138672-0.4765625-0.4765625s0.2138672-0.4765625,0.4765625-0.4765625h0.0839844
	c0.0976563,0.0175781,0.1855469,0.0634766,0.2548828,0.1347656c0.0898438,0.0908203,0.1376953,0.2099609,0.1367188,0.3369141
	C96.328125,85.3857422,96.1152344,85.5996094,95.8525391,85.5996094z M14.2431641,85.5917969
	c-0.2626953,0-0.4760742-0.2138672-0.4760742-0.4765625s0.2133789-0.4765625,0.4760742-0.4765625
	s0.4765625,0.2138672,0.4765625,0.4765625S14.5058594,85.5917969,14.2431641,85.5917969z"/>
<path class="st2" d="M60.9680862,52.3511581c-1.530941,8.1946526-1.9902229,16.3892899-1.3778458,24.5839462"/>
<path class="st2" d="M49.4859772,76.9351044c0.6123924-8.1946564,0.1531105-16.3892937-1.3778458-24.5839462"/>
</svg>
