<svg xmlns="http://www.w3.org/2000/svg" width="55" height="55" viewBox="0 0 55 55"><defs><style>.cls-1{fill:#fff;}.cls-2{fill:#010101;}</style></defs><title>Карманы</title><g id="Карманы"><polygon class="cls-1" points="48.5 45.682 27.5 54.273 6.5 45.682 6.5 6.5 10.5 2.5 44.5 2.5 48.5 6.5 48.5 45.682"/><path class="cls-2" d="M48.854,6.146l-4-4A.5.5,0,0,0,44.5,2h-34a.5.5,0,0,0-.354.146l-4,4A.5.5,0,0,0,6,6.5V45.682a.5.5,0,0,0,.311.463l21,8.591a.5.5,0,0,0,.379,0l21-8.591A.5.5,0,0,0,49,45.682V6.5A.5.5,0,0,0,48.854,6.146ZM48,45.346,27.5,53.733,7,45.346V6.707L10.707,3H44.293L48,6.707ZM46.5,10a.5.5,0,0,1,0,1H46v.5a.5.5,0,0,1-1,0V11H10v.5a.5.5,0,0,1-1,0V11H8.5a.5.5,0,0,1,0-1ZM46,30.1v2.067a.5.5,0,0,1-1,0V30.1a.5.5,0,0,1,1,0Zm0,4.133V36.3a.5.5,0,0,1-1,0V34.233a.5.5,0,0,1,1,0Zm0,4.133v2.067a.5.5,0,0,1-1,0V38.367a.5.5,0,0,1,1,0Zm0-24.8v2.067a.5.5,0,0,1-1,0V13.567a.5.5,0,1,1,1,0Zm0,12.4v2.067a.5.5,0,1,1-1,0V25.967a.5.5,0,0,1,1,0ZM46,17.7v2.067a.5.5,0,0,1-1,0V17.7a.5.5,0,1,1,1,0Zm0,4.133V23.9a.5.5,0,1,1-1,0V21.833a.5.5,0,1,1,1,0ZM46,42.5v1a.5.5,0,0,1-.312.463l-.926.377a.493.493,0,0,1-.188.037.5.5,0,0,1-.188-.963l.615-.25V42.5a.5.5,0,0,1,1,0ZM21.673,48.459a.5.5,0,0,1-.463.312.493.493,0,0,1-.188-.037L19.224,48a.5.5,0,0,1,.377-.926l1.8.732A.5.5,0,0,1,21.673,48.459ZM18.078,47a.5.5,0,0,1-.652.274l-1.8-.732a.5.5,0,0,1,.378-.926l1.8.732A.5.5,0,0,1,18.078,47ZM14.484,45.53a.5.5,0,0,1-.463.312.493.493,0,0,1-.188-.037l-1.8-.732a.5.5,0,0,1,.377-.926l1.8.732A.5.5,0,0,1,14.484,45.53Zm10.783,4.394a.5.5,0,0,1-.652.274l-1.8-.732a.5.5,0,1,1,.378-.926l1.8.732A.5.5,0,0,1,25.267,49.924Zm17.973-5.5a.5.5,0,0,1-.274.651l-1.8.732a.493.493,0,0,1-.188.037.5.5,0,0,1-.188-.963l1.8-.732A.5.5,0,0,1,43.24,44.421ZM28.862,50.279a.5.5,0,0,1-.274.651l-.9.366a.5.5,0,0,1-.377,0l-.9-.366A.5.5,0,0,1,26.791,50l.709.289L28.21,50A.5.5,0,0,1,28.862,50.279Zm7.189-2.929a.5.5,0,0,1-.274.651l-1.8.732a.493.493,0,0,1-.188.037.5.5,0,0,1-.188-.963l1.8-.732A.5.5,0,0,1,36.051,47.35Zm3.594-1.465a.5.5,0,0,1-.274.652l-1.8.732a.5.5,0,1,1-.378-.926l1.8-.732A.5.5,0,0,1,39.645,45.885Zm-7.189,2.93a.5.5,0,0,1-.274.651l-1.8.732a.493.493,0,0,1-.188.037.5.5,0,0,1-.188-.963l1.8-.732A.5.5,0,0,1,32.456,48.814ZM10.889,44.066a.5.5,0,0,1-.463.312.493.493,0,0,1-.188-.037l-.926-.377A.5.5,0,0,1,9,43.5v-1a.5.5,0,0,1,1,0v.664l.615.25A.5.5,0,0,1,10.889,44.066ZM9,15.633V13.566a.5.5,0,0,1,1,0v2.067a.5.5,0,0,1-1,0ZM9,17.7a.5.5,0,0,1,1,0v2.067a.5.5,0,0,1-1,0ZM9,38.366a.5.5,0,0,1,1,0v2.067a.5.5,0,0,1-1,0Zm0-12.4a.5.5,0,1,1,1,0v2.067a.5.5,0,1,1-1,0ZM9,30.1a.5.5,0,0,1,1,0v2.067a.5.5,0,0,1-1,0Zm0,4.133a.5.5,0,0,1,1,0V36.3a.5.5,0,0,1-1,0Zm0-12.4a.5.5,0,0,1,1,0V23.9a.5.5,0,0,1-1,0Z"/></g></svg>