<svg xmlns="http://www.w3.org/2000/svg" xmlns:xlink="http://www.w3.org/1999/xlink" width="55" height="55" viewBox="0 0 55 55"><defs><style>.cls-1{fill:url(#Безымянный_градиент_415);}.cls-2{fill:url(#Безымянный_градиент_125);}.cls-3{fill:#fff;}</style><radialGradient id="Безымянный_градиент_415" cx="27.667" cy="0.542" r="52.637" gradientUnits="userSpaceOnUse"><stop offset="0.681" stop-color="#fff"/><stop offset="1" stop-color="#fff" stop-opacity="0"/></radialGradient><linearGradient id="Безымянный_градиент_125" x1="27.5" y1="22" x2="27.5" y2="54.266" gradientUnits="userSpaceOnUse"><stop offset="0.651" stop-color="#af9c94"/><stop offset="1" stop-color="#fff"/></linearGradient></defs><title>Планка</title><g id="Планка"><path class="cls-1" d="M27.5,53.084a49.4,49.4,0,0,0,22.625-5.625V14.271l-6.25-2.625-.5-1.437L40,2.959A27.92,27.92,0,0,0,27.5.334c-4.812,0-9.438.978-12.5,2.625l-3.375,7.25-.5,1.438-6.25,2.625V47.459A49.4,49.4,0,0,0,27.5,53.084Z"/><rect class="cls-2" x="24.5" y="18.5" width="6" height="36"/><path class="cls-3" d="M29,20V54.5H26V20h3m1.5-1.5h-6v36h6v-36Z"/><circle class="cls-3" cx="27.5" cy="23" r="1"/><circle class="cls-3" cx="27.5" cy="39.25" r="1"/><path d="M28,21.592V21.5a.5.5,0,0,0-1,0v.092a1.491,1.491,0,0,0,0,2.816V24.5a.5.5,0,0,0,1,0v-.092a1.491,1.491,0,0,0,0-2.816ZM27.5,23.5A.5.5,0,1,1,28,23,.5.5,0,0,1,27.5,23.5ZM29,15h-.092a1.491,1.491,0,0,0-2.816,0H26a.5.5,0,0,0,0,1h.092a1.491,1.491,0,0,0,2.816,0H29a.5.5,0,0,0,0-1Zm-1.5,1a.5.5,0,1,1,.5-.5A.5.5,0,0,1,27.5,16ZM28,37.842V37.75a.5.5,0,0,0-1,0v.092a1.491,1.491,0,0,0,0,2.816v.092a.5.5,0,0,0,1,0v-.092a1.491,1.491,0,0,0,0-2.816Zm-.5,1.908a.5.5,0,1,1,.5-.5A.5.5,0,0,1,27.5,39.75ZM50.636,20.6l-7.522-3.331A8.914,8.914,0,0,0,44.449,12.5l5.789,2.459a.493.493,0,0,0,.2.04.5.5,0,0,0,.2-.96L44.3,11.353a6.361,6.361,0,0,0-.43-1.343L40.548,2.8A.494.494,0,0,0,40.2,2.53C37.559.923,32.94,0,27.475,0,21.97,0,17.319.935,14.692,2.562l-.013.007c-.012.007-.027.014-.039.021s-.018.02-.03.028a.476.476,0,0,0-.13.145.468.468,0,0,0-.028.041L11.127,10.01a6.361,6.361,0,0,0-.43,1.343L4.371,14.04a.5.5,0,0,0,.2.96.493.493,0,0,0,.2-.04l5.789-2.46a8.9,8.9,0,0,0,1.326,4.749L4.363,20.6a.5.5,0,0,0,.2.957.489.489,0,0,0,.2-.043l7.63-3.4c1.728,2.681,4.091,6.061,6.408,9.34a.5.5,0,0,0,.408.211.473.473,0,0,0,.069,0,.5.5,0,0,0,.4-.33L22.6,19H24V54.75a.5.5,0,0,0,1,0V19h5.05V54.75a.5.5,0,0,0,1,0V19H32.4l2.911,8.327a.5.5,0,0,0,.4.33.473.473,0,0,0,.069,0,.5.5,0,0,0,.408-.211c2.312-3.271,4.67-6.644,6.4-9.323l7.642,3.384a.492.492,0,0,0,.2.043.5.5,0,0,0,.2-.957ZM39.586,3.334a7.134,7.134,0,0,1-2.682,5.1,26.152,26.152,0,0,0-18.824-.014,7.111,7.111,0,0,1-2.668-5.112C17.919,1.842,22.279,1,27.475,1,32.7,1,37.088,1.852,39.586,3.334ZM30.64,12l-.015,0h-6.25l-.015,0a21.428,21.428,0,0,1-5.4-2.852,25.266,25.266,0,0,1,17.066.013A21.47,21.47,0,0,1,30.64,12ZM24.7,13h.084c-.051.056-.1.116-.145.176ZM19.064,26.08c-2.241-3.177-4.479-6.393-6.078-8.9-.881-1.382-2.175-4.1-.951-6.748l2.573-5.576c.813,3.172,4.011,6,9.091,7.971ZM24,14.99V18H22.948ZM25,18V15a2,2,0,0,1,2-2h3.3l1.748,5Zm10.936,8.08L31.3,12.824c5.08-1.97,8.277-4.8,9.091-7.971l2.573,5.576c1.224,2.65-.07,5.365-.951,6.748C40.414,19.687,38.177,22.9,35.936,26.08Z"/></g></svg>