<svg xmlns="http://www.w3.org/2000/svg" width="55" height="55" viewBox="0 0 55 55"><defs><style>.cls-1{fill:#fff;}.cls-2{fill:#af9c94;}</style></defs><title>Спина</title><g id="Спина"><path class="cls-1" d="M27.5,54.417A22.049,22.049,0,0,0,40.667,50l.083-26.208A21.85,21.85,0,0,1,44,31L42.5,50.5,48,51l3-13a26.56,26.56,0,0,0-1.5-16,77.381,77.381,0,0,0-6-13L34.031,5.047l-.073-.3L32.5,1.5a11.179,11.179,0,0,0-5-1,11.179,11.179,0,0,0-5,1L21.042,4.75l-.073.3L11.5,9a77.381,77.381,0,0,0-6,13A26.56,26.56,0,0,0,4,38L7,51l5.5-.5L11,31a21.85,21.85,0,0,1,3.25-7.208L14.333,50A22.049,22.049,0,0,0,27.5,54.417Z"/><path class="cls-2" d="M13.375,13.563l28.437-.125A40.36,40.36,0,0,0,40.75,23.792C40.833,30.333,40.667,50,40.667,50A20.5,20.5,0,0,1,27.5,54.417,21.307,21.307,0,0,1,14.333,50s-.167-19.583-.083-26.208A38.884,38.884,0,0,0,13.375,13.563Z"/><path class="cls-1" d="M39.946,14.946a44.3,44.3,0,0,0-.7,8.865c.073,5.741-.049,21.84-.077,25.452A19.108,19.108,0,0,1,27.5,52.917H27.43a19.611,19.611,0,0,1-11.6-3.687c-.029-3.668-.15-19.624-.077-25.419a46.517,46.517,0,0,0-.517-8.756l24.714-.109m1.866-1.508-28.437.125a38.884,38.884,0,0,1,.875,10.229C14.167,30.417,14.333,50,14.333,50a21.306,21.306,0,0,0,13.1,4.417h.07A20.5,20.5,0,0,0,40.667,50s.167-19.667.083-26.208a40.36,40.36,0,0,1,1.062-10.354Z"/><path d="M8.5,49.063a.5.5,0,1,1-.5-.5A.5.5,0,0,1,8.5,49.063ZM6.625,42.375a.5.5,0,1,0,.5.5A.5.5,0,0,0,6.625,42.375Zm44.806-4.052c-.016.072-.025.144-.042.216l-2.9,12.574A.5.5,0,0,1,48,51.5l-.045,0-5.5-.5A.5.5,0,0,1,42,50.462L43.5,31.043a24.6,24.6,0,0,0-2.245-5.6V50a.5.5,0,0,1-.2.4A23.994,23.994,0,0,1,27.5,54.917,23.994,23.994,0,0,1,13.945,50.4a.5.5,0,0,1-.2-.4V25.445a24.6,24.6,0,0,0-2.245,5.6L13,50.462a.5.5,0,0,1-.453.537l-5.5.5L7,51.5a.5.5,0,0,1-.487-.388l-2.9-12.574A27.358,27.358,0,0,1,4.4,23.461,81.181,81.181,0,0,1,11.069,8.747a.457.457,0,0,1,.039-.043.485.485,0,0,1,.064-.071.471.471,0,0,1,.087-.06.482.482,0,0,1,.045-.031l9.277-3.949a3.141,3.141,0,0,1,.142-.433l1.323-2.867a.506.506,0,0,1,.188-.214A11.017,11.017,0,0,1,27.5,0a11.017,11.017,0,0,1,5.266,1.077.506.506,0,0,1,.188.214l1.323,2.867a3.162,3.162,0,0,1,.142.434L43.7,8.541a.5.5,0,0,1,.045.031.475.475,0,0,1,.087.06.483.483,0,0,1,.064.072.462.462,0,0,1,.039.043A81.181,81.181,0,0,1,50.6,23.461a27.345,27.345,0,0,1,.876,14.623A.489.489,0,0,1,51.431,38.323Zm-1.1.363-.626.057a2.085,2.085,0,0,0-1.844,1.65L46.616,46.5l1.86.213ZM21.683,4.464H33.317L32.111,1.851A10.114,10.114,0,0,0,27.5,1a10.114,10.114,0,0,0-4.611.85Zm-9.5,4.79A23.745,23.745,0,0,1,13.624,13H41.376a23.745,23.745,0,0,1,1.442-3.746l-8.9-3.79H21.084ZM6.524,46.716l1.9-.217L7.183,40.393a2.081,2.081,0,0,0-1.843-1.65l-.669-.061Zm.864,3.747L9.2,50.3l-.573-2.817L6.75,47.7Zm4.575-.416-.225-2.922-2.116.242.578,2.84Zm1.786-26.6V22.25c0-6.035-1.05-9.485-2.281-12.158A80.992,80.992,0,0,0,5.344,23.787a26.343,26.343,0,0,0-.885,13.872l.971.088a3.089,3.089,0,0,1,2.733,2.447l1.26,6.191,2.24-.256L10.5,31.039a.482.482,0,0,1,.013-.159A26.413,26.413,0,0,1,13.75,23.445Zm26.5-1.195A34.648,34.648,0,0,1,41.112,14H13.888a34.648,34.648,0,0,1,.862,8.25v27.5A23,23,0,0,0,27.5,53.917a23,23,0,0,0,12.75-4.165ZM44.5,31.039,43.338,46.129l2.28.261,1.26-6.2a3.092,3.092,0,0,1,2.734-2.447l.928-.084a26.343,26.343,0,0,0-.884-13.875,80.992,80.992,0,0,0-6.125-13.695C42.3,12.765,41.25,16.215,41.25,22.25v1.195a26.413,26.413,0,0,1,3.235,7.435A.482.482,0,0,1,44.5,31.039ZM43.036,50.047l1.8.164.577-2.839-2.157-.247ZM48.25,47.7l-1.834-.21L45.843,50.3l1.768.161Zm-1.208.866a.5.5,0,1,0,.5.5A.5.5,0,0,0,47.042,48.563Zm1.375-6.187a.5.5,0,1,0,.5.5A.5.5,0,0,0,48.417,42.375ZM20.445,27a.5.5,0,0,0-.442.552,134.118,134.118,0,0,1,.284,19.922.5.5,0,0,0,.479.521h.021a.5.5,0,0,0,.5-.479A135.171,135.171,0,0,0,21,27.445.5.5,0,0,0,20.445,27Zm14.109,0a.5.5,0,0,0-.552.442,135.192,135.192,0,0,0-.29,20.076.5.5,0,0,0,.5.479h.021a.5.5,0,0,0,.479-.521A134.137,134.137,0,0,1,35,27.555.5.5,0,0,0,34.555,27Z"/></g></svg>