<svg xmlns="http://www.w3.org/2000/svg" xmlns:xlink="http://www.w3.org/1999/xlink" width="115" height="91" viewBox="0 0 115 91">
    <defs>
        <path id="a" d="M.176 20.502l15.193 11.911 15.395-19.641L15.469.784z"/>
        <path id="c" d="M.765 15.98C1.326 17.134 2.56 17.939 4 17.939c1.967 0 3.561-1.494 3.561-3.337 0-.52-.138-1.007-.365-1.446.642.873 1.714 1.446 2.931 1.446 1.967 0 3.56-1.493 3.56-3.337 0-.646-.205-1.247-.546-1.759a3.64 3.64 0 0 0 2.702 1.186c1.966 0 3.56-1.494 3.56-3.337 0-.63-.197-1.212-.521-1.714l.088-.055a3.676 3.676 0 0 0 2.487.953c1.968 0 3.561-1.494 3.561-3.337a3.16 3.16 0 0 0-.512-1.699c-.002-.006.005-.018 0-.023l-.034-.037a3.43 3.43 0 0 0-.709-.765L.765 15.98z"/>
        <path id="e" d="M3.387 4.581a5.704 5.704 0 0 1-.423-.912C2.541 2.411 1.741 1.177.455.762l2.932 3.819zm1.051 1.421l.143.134-1.194-1.555c.306.544.702 1.095 1.051 1.421z"/>
        <path id="g" d="M17.031.312s-3.916 1.224-5.752 1.713c-1.529.408-3.271 1.751-3.81 2.187a4.992 4.992 0 0 1-.363.268c-.969.635-5.239 3.436-6.105 4.032-.98.672 0 2.14 0 2.14s2.112 2.97 6.946 1.571a4.16 4.16 0 0 0 .993-.447c.621-.37 1.831-1.104 3.501-2.163 1.118-.709 2.417-1.054 3.514-1.217 1.406-.21 2.826.263 3.859 1.238 1.492 1.406 3.712 3.467 4.497 4.015 1.224.858 10.891 7.833 11.747 8.445.535.382 1.045.887 1.547 1.419l.288.05c1.53-4.038 6.15-8.115 6.15-8.115L32.664.586s-1.363.681-3.709.93c-2.233.236-3.359.388-6.235-.836-1.198-.51-2.386-.659-3.364-.659-1.369 0-2.325.291-2.325.291z"/>
        <path id="i" d="M8.529 1.268L1.446 6.999a2.882 2.882 0 0 0-.427 4.054l.263.325a2.882 2.882 0 0 0 4.053.427l7.083-5.73a2.884 2.884 0 0 0 .428-4.055l-.263-.324a2.88 2.88 0 0 0-4.054-.428z"/>
        <path id="k" d="M11.63 1.414L1.969 9.233a2.881 2.881 0 0 0-.428 4.053l.262.325a2.884 2.884 0 0 0 4.054.428l9.661-7.818a2.882 2.882 0 0 0 .429-4.054l-.263-.323a2.876 2.876 0 0 0-2.243-1.07c-.637 0-1.277.209-1.811.64z"/>
        <path id="m" d="M11.546.666L1.884 8.483a2.884 2.884 0 0 0-.428 4.055l.262.324a2.884 2.884 0 0 0 4.055.427l9.661-7.817a2.883 2.883 0 0 0 .428-4.055l-.263-.324a2.88 2.88 0 0 0-4.053-.427z"/>
        <path id="o" d="M9.47 1.422L1.641 6.779a2.884 2.884 0 0 0-.751 4.008l.236.344a2.882 2.882 0 0 0 4.006.75l7.83-5.357a2.882 2.882 0 0 0 .751-4.006l-.236-.344a2.881 2.881 0 0 0-4.007-.752z"/>
        <path id="q" d="M5.51 2.439a7.66 7.66 0 0 1 1.639.023L.02.97s2.599 1.79 5.49 1.469z"/>
        <path id="s" d="M.235 17.281l2.152 1.686 13.475-17.19L13.71.089z"/>
        <path id="u" d="M1.458.257a1.47 1.47 0 1 0 .784 2.832A1.47 1.47 0 0 0 1.458.257z"/>
        <path id="w" d="M1.526.061a1.468 1.468 0 1 0 .783 2.83 1.469 1.469 0 1 0-.783-2.83z"/>
        <path id="y" d="M.705 2.364l13.476 17.19 2.152-1.686L2.858.677z"/>
        <path id="A" d="M.092 11.722l15.395 19.64L30.68 19.451 15.216.041z"/>
        <path id="C" d="M.303 1.869a1.467 1.467 0 0 0 1.024 1.806 1.466 1.466 0 0 0 1.806-1.024A1.466 1.466 0 0 0 1.718.791c-.644 0-1.234.428-1.415 1.078z"/>
        <path id="E" d="M.235 1.672a1.468 1.468 0 1 0 2.83.784 1.468 1.468 0 0 0-2.83-.784z"/>
        <path id="G" d="M1.479 1.193L.918.343l.561.85z"/>
    </defs>
    <g fill="none" fill-rule="evenodd">
        <path stroke="#5968AE" stroke-linecap="round" stroke-width="2" d="M64.187 2.237l47.291.342c.845.006 1.525.778 1.52 1.724l-.286 39.342c-.006.946-.697 1.71-1.543 1.703l-60.504-.436c-.846-.006-1.525-.779-1.519-1.726l.284-39.342c.007-.946.698-1.709 1.544-1.702l9.702.07 3.511.025z"/>
        <path fill="#E5EFF7" d="M82.924 28.989h4.966V14.201h-4.966z"/>
        <path stroke="#5967AD" stroke-linecap="round" stroke-linejoin="round" stroke-width="2" d="M82.924 28.989h4.966V14.201h-4.966zM85.407 10.814v3.387M101.92 28.427v5.305M85.407 29.216v7.936"/>
        <path fill="#E5EFF7" d="M67.121 31.019h4.966V18.377h-4.966z"/>
        <path stroke="#5967AD" stroke-linecap="round" stroke-linejoin="round" stroke-width="2" d="M67.121 31.019h4.966V18.377h-4.966zM69.604 15.715v2.663M69.604 31.02v5.246"/>
        <path fill="#E5EFF7" d="M75.418 40.468h4.966V28.152h-4.966z"/>
        <path stroke="#5967AD" stroke-linecap="round" stroke-linejoin="round" stroke-width="2" d="M75.418 40.468h4.966V28.152h-4.966zM77.9 25.49v2.661"/>
        <path fill="#E5EFF7" d="M90.825 14.059h4.966V7.023h-4.966z"/>
        <path stroke="#5967AD" stroke-linecap="round" stroke-linejoin="round" stroke-width="2" d="M90.825 14.059h4.966V7.023h-4.966zM93.309 14.06v3.172"/>
        <path fill="#E5EFF7" d="M57.739 29.238h4.967v-6.373h-4.967z"/>
        <path stroke="#5967AD" stroke-linecap="round" stroke-linejoin="round" stroke-width="2" d="M57.739 29.238h4.967v-6.373h-4.967zM60.223 16.003v6.862M60.223 29.238v3.172"/>
        <path fill="#E5EFF7" d="M99.438 28.308h4.966V16.171h-4.966z"/>
        <path stroke="#5967AD" stroke-linecap="round" stroke-linejoin="round" stroke-width="2" d="M99.438 28.308h4.966V16.171h-4.966zM101.92 10.624v5.548"/>
        <g transform="translate(3 30.77)">
            <mask id="b" fill="#fff">
                <use xlink:href="#a"/>
            </mask>
            <path fill="#E4EEF6" d="M-3.916 36.503h38.77V-3.308h-38.77z" mask="url(#b)"/>
        </g>
        <g transform="translate(46 71.77)">
            <mask id="d" fill="#fff">
                <use xlink:href="#c"/>
            </mask>
            <path fill="#FEFEFE" d="M-3.325 22.03h32.434V-3.412H-3.325z" mask="url(#d)"/>
        </g>
        <path stroke="#5A67AE" stroke-linecap="round" stroke-linejoin="round" stroke-width="2" d="M46.765 87.75c.561 1.153 1.794 1.959 3.235 1.959 1.967 0 3.561-1.494 3.561-3.337 0-.52-.138-1.007-.365-1.446.642.873 1.714 1.446 2.931 1.446 1.967 0 3.561-1.493 3.561-3.337 0-.646-.206-1.247-.547-1.76a3.64 3.64 0 0 0 2.702 1.187c1.966 0 3.561-1.493 3.561-3.337 0-.63-.198-1.212-.521-1.714.029-.02.058-.038.087-.056a3.677 3.677 0 0 0 2.487.954c1.968 0 3.561-1.494 3.561-3.337 0-.623-.194-1.2-.511-1.7-.003-.004.004-.016 0-.022a.292.292 0 0 1-.034-.037 3.48 3.48 0 0 0-.71-.765"/>
        <g transform="translate(23 63.77)">
            <mask id="f" fill="#fff">
                <use xlink:href="#e"/>
            </mask>
            <path fill="#FEFEFE" d="M-3.635 10.227H8.672V-3.329H-3.635z" mask="url(#f)"/>
        </g>
        <path stroke="#5A67AE" stroke-linecap="round" stroke-linejoin="round" stroke-width="2" d="M23.456 64.532c1.285.414 2.085 1.648 2.508 2.906.244.723.918 1.813 1.474 2.334l.143.134"/>
        <g transform="translate(32 48.77)">
            <mask id="h" fill="#fff">
                <use xlink:href="#g"/>
            </mask>
            <path fill="#FEFEFE" d="M-3.525 27.653h51.659V-4.07H-3.525z" mask="url(#h)"/>
        </g>
        <path stroke="#5A67AE" stroke-linecap="round" stroke-linejoin="round" stroke-width="2" d="M64.664 49.356s-1.363.681-3.709.93c-2.233.236-3.359.387-6.234-.836-2.876-1.225-5.69-.368-5.69-.368s-3.916 1.224-5.752 1.712c-1.529.41-3.271 1.751-3.81 2.188a4.783 4.783 0 0 1-.363.268c-.969.634-5.239 3.435-6.106 4.032-.979.672 0 2.14 0 2.14s2.113 2.97 6.946 1.571c.352-.102.68-.258.994-.447.621-.37 1.831-1.104 3.502-2.164 1.117-.709 2.416-1.053 3.513-1.216 1.406-.21 2.826.262 3.859 1.237 1.492 1.407 3.712 3.468 4.497 4.016 1.224.858 10.891 7.833 11.748 8.445.534.382 1.044.887 1.546 1.418l.289.051c1.53-4.039 6.149-8.116 6.149-8.116"/>
        <g transform="translate(40 76.77)">
            <mask id="j" fill="#fff">
                <use xlink:href="#i"/>
            </mask>
            <path fill="#FEFEFE" d="M-3.713 16.538h21.292V-3.464H-3.713z" mask="url(#j)"/>
        </g>
        <path stroke="#5A67AE" stroke-linecap="round" stroke-linejoin="round" stroke-width="2" d="M52.418 82.845l-7.083 5.73a2.882 2.882 0 0 1-4.053-.427l-.263-.324a2.882 2.882 0 0 1 .428-4.054l7.082-5.732a2.882 2.882 0 0 1 4.054.429l.263.323a2.884 2.884 0 0 1-.428 4.055z"/>
        <g transform="translate(33 71.77)">
            <mask id="l" fill="#fff">
                <use xlink:href="#k"/>
            </mask>
            <path fill="#FEFEFE" d="M-3.191 18.771H20.68V-3.318H-3.191z" mask="url(#l)"/>
        </g>
        <path stroke="#5A67AE" stroke-linecap="round" stroke-linejoin="round" stroke-width="2" d="M48.519 77.991l-9.662 7.817a2.883 2.883 0 0 1-4.054-.427l-.262-.325a2.881 2.881 0 0 1 .428-4.053l9.66-7.819a2.883 2.883 0 0 1 4.055.43l.263.322a2.884 2.884 0 0 1-.428 4.055z"/>
        <g transform="translate(28 68.77)">
            <mask id="n" fill="#fff">
                <use xlink:href="#m"/>
            </mask>
            <path fill="#FEFEFE" d="M-3.276 18.022h23.871V-4.067H-3.276z" mask="url(#n)"/>
        </g>
        <path stroke="#5A67AE" stroke-linecap="round" stroke-linejoin="round" stroke-width="2" d="M43.434 74.242l-9.661 7.817a2.883 2.883 0 0 1-4.055-.427l-.262-.325a2.883 2.883 0 0 1 .428-4.054l9.663-7.818a2.882 2.882 0 0 1 4.053.428l.262.324a2.884 2.884 0 0 1-.428 4.055z"/>
        <g transform="translate(25 63.77)">
            <mask id="p" fill="#fff">
                <use xlink:href="#o"/>
            </mask>
            <path fill="#FEFEFE" d="M-3.705 16.476h22.012V-3.172H-3.705z" mask="url(#p)"/>
        </g>
        <path stroke="#5A67AE" stroke-linecap="round" stroke-linejoin="round" stroke-width="2" d="M37.961 70.295l-7.83 5.356a2.88 2.88 0 0 1-4.006-.751l-.235-.343a2.883 2.883 0 0 1 .751-4.008l7.83-5.357a2.883 2.883 0 0 1 4.006.752l.236.344a2.884 2.884 0 0 1-.752 4.007z"/>
        <g transform="translate(35 48.77)">
            <mask id="r" fill="#fff">
                <use xlink:href="#q"/>
            </mask>
            <path fill="#FEFEFE" d="M-4.071 6.568H11.24V-3.12H-4.071z" mask="url(#r)"/>
        </g>
        <path stroke="#5A67AE" stroke-linecap="round" stroke-linejoin="round" stroke-width="2" d="M35.02 49.74s2.6 1.79 5.49 1.47a7.685 7.685 0 0 1 1.639.021"/>
        <g transform="translate(20 46.77)">
            <mask id="t" fill="#fff">
                <use xlink:href="#s"/>
            </mask>
            <path fill="#FEFEFE" d="M-3.856 23.058h23.808v-27.06H-3.856z" mask="url(#t)"/>
        </g>
        <g stroke="#5A67AE" stroke-linecap="round" stroke-linejoin="round" stroke-width="2">
            <path d="M33.71 46.86l2.152 1.686-13.475 17.191-2.152-1.687z"/>
            <path d="M23.456 37.267l11.02 8.638L19.08 65.544 3.887 53.633"/>
        </g>
        <g transform="translate(16 57.77)">
            <mask id="v" fill="#fff">
                <use xlink:href="#u"/>
            </mask>
            <path fill="#FEFEFE" d="M-3.711 7.232H7.408V-3.886H-3.711z" mask="url(#v)"/>
        </g>
        <path stroke="#5A67AE" stroke-linecap="round" stroke-linejoin="round" stroke-width="2" d="M17.457 58.027a1.469 1.469 0 1 1 .784 2.831 1.469 1.469 0 0 1-.784-2.83z"/>
        <g transform="translate(12 54.77)">
            <mask id="x" fill="#fff">
                <use xlink:href="#w"/>
            </mask>
            <path fill="#FEFEFE" d="M-3.642 7.036H7.477V-4.083H-3.642z" mask="url(#x)"/>
        </g>
        <path stroke="#5A67AE" stroke-linecap="round" stroke-linejoin="round" stroke-width="2" d="M13.526 54.83a1.467 1.467 0 1 1 .783 2.83 1.468 1.468 0 1 1-.783-2.83z"/>
        <g transform="translate(63 45.77)">
            <mask id="z" fill="#fff">
                <use xlink:href="#y"/>
            </mask>
            <path fill="#FEFEFE" d="M-3.386 23.645h23.809V-3.414H-3.386z" mask="url(#z)"/>
        </g>
        <path stroke="#5A67AE" stroke-linecap="round" stroke-linejoin="round" stroke-width="2" d="M65.858 46.447l-2.153 1.687 13.476 17.19 2.152-1.687z"/>
        <g transform="translate(65 33.77)">
            <mask id="B" fill="#fff">
                <use xlink:href="#A"/>
            </mask>
            <path fill="#FEFEFE" d="M-3.999 35.453h38.77V-4.049h-38.77z" mask="url(#B)"/>
        </g>
        <path stroke="#5A67AE" stroke-linecap="round" stroke-linejoin="round" stroke-width="2" d="M80.216 33.811L65.092 45.492l15.395 19.64 15.194-11.91"/>
        <g transform="translate(80 56.77)">
            <mask id="D" fill="#fff">
                <use xlink:href="#C"/>
            </mask>
            <path fill="#FEFEFE" d="M-3.841 7.82H7.278V-3.299H-3.841z" mask="url(#D)"/>
        </g>
        <path stroke="#5A67AE" stroke-linecap="round" stroke-linejoin="round" stroke-width="2" d="M82.11 57.615a1.468 1.468 0 1 0-.784 2.829 1.468 1.468 0 0 0 .784-2.829z"/>
        <g transform="translate(84 53.77)">
            <mask id="F" fill="#fff">
                <use xlink:href="#E"/>
            </mask>
            <path fill="#FEFEFE" d="M-3.909 7.622H7.21V-3.497H-3.909z" mask="url(#F)"/>
        </g>
        <path stroke="#5A67AE" stroke-linecap="round" stroke-linejoin="round" stroke-width="2" d="M86.042 54.418a1.468 1.468 0 1 0-.785 2.829 1.468 1.468 0 0 0 .785-2.83z"/>
        <g transform="translate(30 74.77)">
            <mask id="H" fill="#fff">
                <use xlink:href="#G"/>
            </mask>
            <path fill="#FEFEFE" d="M-3.173 5.284h8.742v-9.031h-8.742z" mask="url(#H)"/>
        </g>
    </g>
</svg>
