<svg xmlns="http://www.w3.org/2000/svg" xmlns:xlink="http://www.w3.org/1999/xlink" width="115" height="91" viewBox="0 0 115 91">
    <defs>
        <path id="a" d="M0 85.474h110.829V.02H0z"/>
    </defs>
    <g fill="none" fill-rule="evenodd">
        <path stroke="#5967AD" stroke-linecap="round" stroke-linejoin="round" stroke-width="2" d="M31.152 15.236l-6.849 12.173"/>
        <g stroke="#5967AD" stroke-linecap="round" stroke-linejoin="round" stroke-width="2">
            <path d="M26.193 16.127a1.558 1.558 0 0 1-1.604 1.51 1.558 1.558 0 0 1-1.514-1.6 1.557 1.557 0 0 1 1.604-1.51c.861.025 1.54.741 1.514 1.6zM32.173 26.081a1.559 1.559 0 1 1-3.118-.09 1.558 1.558 0 0 1 1.605-1.51c.86.026 1.538.742 1.513 1.6zM14.205 19.084v6.035M11.178 22.102h6.054"/>
        </g>
        <path stroke="#5968AE" stroke-linecap="round" stroke-linejoin="round" stroke-width="2" d="M103.962 20.7L51.035 36.257l8.1 27.387 52.929-15.558z"/>
        <path stroke="#5968AE" stroke-linecap="round" stroke-linejoin="round" stroke-width="1.604" d="M101.395 25.258l-45.723 13.44 6.03 20.388 45.723-13.44z"/>
        <g transform="translate(2 2.742)">
            <path fill="#E5EFF7" d="M89.122 36.377c-1.22-4.126-5.566-6.485-9.705-5.268-4.138 1.216-6.504 5.548-5.284 9.674 1.22 4.127 5.565 6.485 9.704 5.268 4.14-1.216 6.505-5.548 5.285-9.674"/>
            <path stroke="#5968AE" stroke-linecap="round" stroke-linejoin="round" stroke-width="2" d="M87.957 37.375c-1.22-4.127-5.566-6.486-9.705-5.268-4.138 1.216-6.504 5.547-5.284 9.673 1.22 4.127 5.565 6.486 9.704 5.27 4.14-1.218 6.505-5.55 5.285-9.675z"/>
            <path fill="#FEFEFE" d="M87.896.785l-47.661 27.72 14.433 24.664 47.662-27.722z"/>
            <path stroke="#5968AE" stroke-linecap="round" stroke-linejoin="round" stroke-width="2" d="M87.896.785l-47.661 27.72 14.433 24.664 47.662-27.722z"/>
            <path stroke="#5968AE" stroke-linecap="round" stroke-linejoin="round" stroke-width="1.604" d="M86.497 5.823L45.323 29.77 56.067 48.13l41.175-23.947z"/>
            <path fill="#E5EFF7" d="M79.845 21.73c-2.175-3.716-6.958-4.97-10.686-2.803-3.728 2.168-4.986 6.938-2.811 10.653 2.174 3.716 6.958 4.97 10.685 2.804 3.728-2.169 4.986-6.938 2.812-10.654"/>
            <path stroke="#5968AE" stroke-linecap="round" stroke-linejoin="round" stroke-width="2" d="M78.953 22.976c-2.175-3.715-6.959-4.97-10.686-2.802-3.727 2.167-4.987 6.937-2.812 10.653 2.174 3.715 6.959 4.97 10.686 2.803 3.727-2.169 4.987-6.938 2.812-10.654z"/>
            <path fill="#FEFEFE" d="M92.744 69.86H36.68V29.322h56.064v11.501l2.593.593v15.312l-2.593.404z"/>
            <path stroke="#5967AD" stroke-linecap="round" stroke-linejoin="round" stroke-width="2" d="M92.744 56.729v12.204a.928.928 0 0 1-.929.926H37.61a.929.929 0 0 1-.93-.926V26.614"/>
            <path stroke="#5967AD" stroke-linecap="round" stroke-linejoin="round" stroke-width="2" d="M48.358 23.526h-7.462c-3.13 0-4.216 1.217-4.216 2.72 0 1.5 1.008 2.717 4.216 2.717h50.919c.513 0 .93.415.93.926v10.935"/>
            <path stroke="#5967AD" stroke-linecap="round" stroke-linejoin="round" stroke-width="2" d="M94.024 56.729h-23.38a3.344 3.344 0 0 1-3.35-3.34v-9.226c0-1.844 1.5-3.339 3.35-3.339h23.38a1.53 1.53 0 0 1 1.531 1.527v12.851a1.53 1.53 0 0 1-1.53 1.527z"/>
            <path stroke="#5967AD" stroke-linecap="round" stroke-linejoin="round" stroke-width="2" d="M76.993 48.776a2.45 2.45 0 0 1-2.453 2.446 2.45 2.45 0 0 1-2.453-2.446 2.45 2.45 0 0 1 2.453-2.445 2.449 2.449 0 0 1 2.453 2.445z"/>
            <mask id="b" fill="#fff">
                <use xlink:href="#a"/>
            </mask>
            <path fill="#FEFEFE" d="M.815 84.662h57.616V45.47H.815z" mask="url(#b)"/>
            <path stroke="#5967AD" stroke-linecap="round" stroke-linejoin="round" stroke-width="2.129" d="M.815 84.662h57.616V45.47H.815z" mask="url(#b)"/>
            <path stroke="#5967AD" stroke-linecap="round" stroke-linejoin="round" stroke-width="2" d="M10.638 70.553l13.423-9.939 5.197 4.355 19.089-14.093" mask="url(#b)"/>
            <path stroke="#5967AD" stroke-linecap="round" stroke-linejoin="round" stroke-width="2" d="M41.975 50.405l6.633.104-1.322 7.14" mask="url(#b)"/>
            <path fill="#E5EFF7" d="M21.101 79.451l-7.893-.124.087-5.476 7.893.124z" mask="url(#b)"/>
            <path stroke="#5967AD" stroke-linecap="round" stroke-linejoin="round" stroke-width="2" d="M21.101 79.451l-7.893-.124.087-5.476 7.893.124z" mask="url(#b)"/>
            <path fill="#E5EFF7" d="M34.495 79.66l-7.893-.123.163-10.344 7.893.124z" mask="url(#b)"/>
            <path stroke="#5967AD" stroke-linecap="round" stroke-linejoin="round" stroke-width="2" d="M34.495 79.66l-7.893-.123.163-10.344 7.893.124z" mask="url(#b)"/>
            <path fill="#E5EFF7" d="M47.891 79.726l-7.893-.124.212-13.438 7.893.124z" mask="url(#b)"/>
            <path stroke="#5967AD" stroke-linecap="round" stroke-linejoin="round" stroke-width="2" d="M47.891 79.726l-7.893-.124.212-13.438 7.893.124z" mask="url(#b)"/>
            <path stroke="#5968AE" stroke-linecap="round" stroke-width=".5" d="M23.428 55.753v-1.145" mask="url(#b)"/>
            <path stroke="#5968AE" stroke-dasharray="3.301,3.301" stroke-linecap="round" stroke-width=".5" d="M23.428 52.09V33.192" mask="url(#b)"/>
            <path stroke="#5968AE" stroke-linecap="round" stroke-width=".5" d="M23.428 31.933V30.79" mask="url(#b)"/>
        </g>
    </g>
</svg>
