<svg xmlns="http://www.w3.org/2000/svg" xmlns:xlink="http://www.w3.org/1999/xlink" width="110" height="110" viewBox="0 0 110 110"><defs><style>.cls-1{fill:url(#Безымянный_градиент_415);}.cls-2{fill:#af9c94;}</style><radialGradient id="Безымянный_градиент_415" cx="55.5" cy="0.688" r="109.404" gradientUnits="userSpaceOnUse"><stop offset="0.681" stop-color="#fff"/><stop offset="1" stop-color="#fff" stop-opacity="0"/></radialGradient></defs><title>Детали - Бейка внутренней части воротника</title><g id="Детали"><g id="Бейка_внутренней_части_воротника" data-name="Бейка внутренней части воротника"><g id="Цвет-46" data-name="Цвет"><path class="cls-1" d="M55,110c18.8,0,38.833-5,53.375-14.5V35.625L100.75,32.25,99.262,28,90,7.938c-8-5-21.954-7-35-7s-27,2-35,7L10.738,28,9.25,32.25,1.625,35.625V95.5C16.167,105,36.2,110,55,110Z"/><path class="cls-2" d="M76.375,28.375a55.379,55.379,0,0,0-22.02-4.289,54.02,54.02,0,0,0-21.23,4.039l-4.542-3.458A63.746,63.746,0,0,1,54.312,19.5c9.8-.064,19.5,1.6,27.188,5.167Z"/></g><g id="Контур-46" data-name="Контур"><path d="M48.5,67.249a.5.5,0,0,0-.5.5v2a.5.5,0,0,0,1,0v-2A.5.5,0,0,0,48.5,67.249Z"/><path d="M48.5,63.249a.5.5,0,0,0-.5.5v2a.5.5,0,0,0,1,0v-2A.5.5,0,0,0,48.5,63.249Z"/><path d="M48.5,55.249a.5.5,0,0,0-.5.5v2a.5.5,0,0,0,1,0v-2A.5.5,0,0,0,48.5,55.249Z"/><path d="M48.5,75.249a.5.5,0,0,0-.5.5v2a.5.5,0,0,0,1,0v-2A.5.5,0,0,0,48.5,75.249Z"/><path d="M48.5,59.249a.5.5,0,0,0-.5.5v2a.5.5,0,0,0,1,0v-2A.5.5,0,0,0,48.5,59.249Z"/><path d="M48.5,71.249a.5.5,0,0,0-.5.5v2a.5.5,0,0,0,1,0v-2A.5.5,0,0,0,48.5,71.249Z"/><path d="M48.5,95.249a.5.5,0,0,0-.5.5v2a.5.5,0,0,0,1,0v-2A.5.5,0,0,0,48.5,95.249Z"/><path d="M48.5,99.249a.5.5,0,0,0-.5.5v2a.5.5,0,0,0,1,0v-2A.5.5,0,0,0,48.5,99.249Z"/><path d="M48.5,107.249a.5.5,0,0,0-.5.5V108a.5.5,0,0,0,1,0v-.251A.5.5,0,0,0,48.5,107.249Z"/><path d="M48.5,91.249a.5.5,0,0,0-.5.5v2a.5.5,0,0,0,1,0v-2A.5.5,0,0,0,48.5,91.249Z"/><path d="M48.5,103.249a.5.5,0,0,0-.5.5v2a.5.5,0,0,0,1,0v-2A.5.5,0,0,0,48.5,103.249Z"/><path d="M48.5,83.249a.5.5,0,0,0-.5.5v2a.5.5,0,0,0,1,0v-2A.5.5,0,0,0,48.5,83.249Z"/><path d="M48.5,79.249a.5.5,0,0,0-.5.5v2a.5.5,0,0,0,1,0v-2A.5.5,0,0,0,48.5,79.249Z"/><path d="M48.5,87.249a.5.5,0,0,0-.5.5v2a.5.5,0,0,0,1,0v-2A.5.5,0,0,0,48.5,87.249Z"/><path d="M61.5,75.249a.5.5,0,0,0-.5.5v2a.5.5,0,0,0,1,0v-2A.5.5,0,0,0,61.5,75.249Z"/><path d="M61.5,67.249a.5.5,0,0,0-.5.5v2a.5.5,0,0,0,1,0v-2A.5.5,0,0,0,61.5,67.249Z"/><path d="M61.5,79.249a.5.5,0,0,0-.5.5v2a.5.5,0,0,0,1,0v-2A.5.5,0,0,0,61.5,79.249Z"/><path d="M61.5,71.249a.5.5,0,0,0-.5.5v2a.5.5,0,0,0,1,0v-2A.5.5,0,0,0,61.5,71.249Z"/><path d="M61.5,55.249a.5.5,0,0,0-.5.5v2a.5.5,0,0,0,1,0v-2A.5.5,0,0,0,61.5,55.249Z"/><path d="M61.5,63.249a.5.5,0,0,0-.5.5v2a.5.5,0,0,0,1,0v-2A.5.5,0,0,0,61.5,63.249Z"/><path d="M61.5,59.249a.5.5,0,0,0-.5.5v2a.5.5,0,0,0,1,0v-2A.5.5,0,0,0,61.5,59.249Z"/><path d="M61.5,99.249a.5.5,0,0,0-.5.5v2a.5.5,0,0,0,1,0v-2A.5.5,0,0,0,61.5,99.249Z"/><path d="M61.5,103.249a.5.5,0,0,0-.5.5v2a.5.5,0,0,0,1,0v-2A.5.5,0,0,0,61.5,103.249Z"/><path d="M61.5,95.249a.5.5,0,0,0-.5.5v2a.5.5,0,0,0,1,0v-2A.5.5,0,0,0,61.5,95.249Z"/><path d="M61.5,83.249a.5.5,0,0,0-.5.5v2a.5.5,0,0,0,1,0v-2A.5.5,0,0,0,61.5,83.249Z"/><path d="M61.5,107.249a.5.5,0,0,0-.5.5V108a.5.5,0,0,0,1,0v-.251A.5.5,0,0,0,61.5,107.249Z"/><path d="M61.5,87.249a.5.5,0,0,0-.5.5v2a.5.5,0,0,0,1,0v-2A.5.5,0,0,0,61.5,87.249Z"/><path d="M61.5,91.249a.5.5,0,0,0-.5.5v2a.5.5,0,0,0,1,0v-2A.5.5,0,0,0,61.5,91.249Z"/><path d="M14.124,44.136a.5.5,0,1,0-.907.42c.3.64.607,1.25.924,1.816a.5.5,0,1,0,.872-.488C14.708,45.34,14.41,44.751,14.124,44.136Z"/><path d="M16.046,47.563a.5.5,0,0,0-.842.541q.529.823,1.088,1.682a.5.5,0,0,0,.838-.547Q16.573,48.384,16.046,47.563Z"/><path d="M20.445,54.232a.5.5,0,1,0-.829.559l1.122,1.659a.5.5,0,0,0,.827-.562Z"/><path d="M22.378,21.029a.5.5,0,0,0,.121-.7c-.385-.547-.742-1.1-1.06-1.645a.5.5,0,0,0-.863.506c.332.567.7,1.145,1.105,1.715a.5.5,0,0,0,.7.121Z"/><path d="M30.445,29.272a.5.5,0,1,0,.571-.82q-.821-.571-1.6-1.164a.5.5,0,1,0-.605.795Q29.605,28.689,30.445,29.272Z"/><path d="M24.955,60.835a.5.5,0,1,0-.822.568l1.14,1.645a.5.5,0,1,0,.821-.57Z"/><path d="M27.235,64.12a.5.5,0,1,0-.82.572l1.146,1.641a.5.5,0,1,0,.819-.574Z"/><path d="M22.69,57.541a.5.5,0,0,0-.825.564L23,59.755a.5.5,0,0,0,.824-.566Z"/><path d="M42.883,35.876l.208.083-.272.777a.5.5,0,0,0,.307.637.489.489,0,0,0,.165.028.5.5,0,0,0,.472-.335l.43-1.229a.5.5,0,0,0-.29-.631l-.642-.257a.5.5,0,0,0-.378.926Z"/><path d="M18.226,50.908a.5.5,0,0,0-.834.553L18.5,53.128a.5.5,0,0,0,.832-.555Z"/><path d="M39.2,34.263q.907.426,1.835.831a.5.5,0,1,0,.4-.916q-.915-.4-1.809-.819a.5.5,0,1,0-.425.9Z"/><path d="M13.358,42.323c-.229-.6-.448-1.218-.651-1.858a.5.5,0,1,0-.953.3c.209.662.435,1.3.672,1.917a.5.5,0,1,0,.933-.359Z"/><path d="M32.125,30.393q.843.538,1.72,1.055a.5.5,0,1,0,.508-.861q-.861-.508-1.69-1.037a.5.5,0,0,0-.538.844Z"/><path d="M27.229,26.819a.5.5,0,1,0,.643-.766q-.764-.642-1.477-1.309a.5.5,0,0,0-.684.73Q26.444,26.16,27.229,26.819Z"/><path d="M29.527,67.4a.5.5,0,0,0-.818.574l1.15,1.638a.5.5,0,1,0,.817-.576Z"/><path d="M41.806,41.148a.489.489,0,0,0,.165.028.5.5,0,0,0,.472-.335l.66-1.888a.5.5,0,0,0-.944-.33l-.66,1.888A.5.5,0,0,0,41.806,41.148Z"/><path d="M35.6,32.442q.88.48,1.786.938a.5.5,0,0,0,.45-.893q-.891-.45-1.756-.922a.5.5,0,1,0-.479.877Z"/><path d="M11.032,35.254a.5.5,0,0,0,.443-.551c-.072-.659-.117-1.317-.136-1.956a.533.533,0,0,0-.515-.485.5.5,0,0,0-.485.515c.02.665.067,1.35.142,2.034a.5.5,0,0,0,.5.446Z"/><path d="M12.17,38.57c-.157-.629-.3-1.271-.414-1.923a.5.5,0,0,0-.984.178c.122.673.266,1.337.427,1.987a.5.5,0,0,0,.485.379.516.516,0,0,0,.121-.015A.5.5,0,0,0,12.17,38.57Z"/><path d="M19.628,17.38a.5.5,0,1,0,.908-.418,18.786,18.786,0,0,1-.723-1.808.5.5,0,0,0-.947.322A19.7,19.7,0,0,0,19.628,17.38Z"/><path d="M24.271,24.045A.5.5,0,0,0,25,23.357c-.456-.48-.894-.975-1.3-1.47a.5.5,0,0,0-.771.637C23.346,23.038,23.8,23.549,24.271,24.045Z"/><path d="M41.476,42.094a.5.5,0,0,0-.637.307l-.66,1.888a.5.5,0,0,0,.307.637.489.489,0,0,0,.165.028.5.5,0,0,0,.472-.335l.66-1.888A.5.5,0,0,0,41.476,42.094Z"/><path d="M36.194,57.2a.5.5,0,0,0-.637.307l-.66,1.888a.5.5,0,0,0,.307.637.489.489,0,0,0,.165.028.5.5,0,0,0,.472-.335l.66-1.888A.5.5,0,0,0,36.194,57.2Z"/><path d="M38.835,49.645a.5.5,0,0,0-.637.307l-.66,1.889a.5.5,0,0,0,.307.637.489.489,0,0,0,.165.028.5.5,0,0,0,.472-.335l.66-1.889A.5.5,0,0,0,38.835,49.645Z"/><path d="M40.155,45.869a.5.5,0,0,0-.637.307l-.66,1.888a.5.5,0,0,0,.307.637.489.489,0,0,0,.165.028.5.5,0,0,0,.472-.335l.66-1.888A.5.5,0,0,0,40.155,45.869Z"/><path d="M37.515,53.421a.5.5,0,0,0-.637.307l-.66,1.888a.5.5,0,0,0,.307.637.489.489,0,0,0,.165.028.5.5,0,0,0,.472-.335l.66-1.888A.5.5,0,0,0,37.515,53.421Z"/><path d="M33.554,64.748a.5.5,0,0,0-.637.307l-.66,1.888a.5.5,0,0,0,.307.637.489.489,0,0,0,.165.028.5.5,0,0,0,.472-.335l.66-1.888A.5.5,0,0,0,33.554,64.748Z"/><path d="M34.874,60.973a.5.5,0,0,0-.637.307l-.66,1.888a.5.5,0,0,0,.307.637.489.489,0,0,0,.165.028.5.5,0,0,0,.472-.335l.66-1.888A.5.5,0,0,0,34.874,60.973Z"/><path d="M32.233,68.524a.5.5,0,0,0-.637.307l-.66,1.888a.5.5,0,0,0,.307.637.489.489,0,0,0,.165.028.5.5,0,0,0,.472-.335l.66-1.888A.5.5,0,0,0,32.233,68.524Z"/><path d="M55,46.5a3.5,3.5,0,0,0,3.449-3H59.5a.5.5,0,0,0,0-1H58.449a3.483,3.483,0,0,0-6.9,0H50.5a.5.5,0,0,0,0,1h1.051A3.5,3.5,0,0,0,55,46.5Zm0-6A2.5,2.5,0,1,1,52.5,43,2.5,2.5,0,0,1,55,40.5Z"/><path d="M55.5,60.551V59.5a.5.5,0,0,0-1,0v1.052a3.483,3.483,0,0,0,0,6.9V68.5a.5.5,0,0,0,1,0v-1.05a3.483,3.483,0,0,0,0-6.9ZM55,66.5H55a2.5,2.5,0,1,1,.006,0Z"/><path d="M109.48,53.713,97.187,48.291c.191-.3.374-.608.553-.913l.92.405a.506.506,0,0,0,.2.042.5.5,0,0,0,.2-.957l-.831-.367a22.8,22.8,0,0,0,3.075-13.367l7.776,3.3a.493.493,0,0,0,.2.04.5.5,0,0,0,.2-.96l-8.195-3.481a.482.482,0,0,0-.133-.028,16.856,16.856,0,0,0-1.287-4.151L90.6,7.79a.492.492,0,0,0-.451-.282C82.97,3.054,70.176.5,55,.5,39.743.5,26.889,3.079,19.734,7.577c-.014.009-.021.022-.034.032a.481.481,0,0,0-.083.079.475.475,0,0,0-.043.061.49.49,0,0,0-.028.041l-7.82,16.944c-.005.011-.015.018-.02.029-.011.027-.021.056-.032.083l-1.389,3.01A16.861,16.861,0,0,0,9,32.014a.483.483,0,0,0-.275.024L.89,35.365a.5.5,0,0,0,.2.96.493.493,0,0,0,.2-.04l7.562-3.213a22.749,22.749,0,0,0,3.041,13.379l-1.665.734a.5.5,0,0,0,.2.958.508.508,0,0,0,.2-.042l1.752-.772q.267.457.553.913L.883,53.554a.5.5,0,0,0,.2.957.491.491,0,0,0,.2-.043L13.469,49.1c4.822,7.518,11.541,17.131,18.123,26.443A.5.5,0,0,0,32,75.75a.552.552,0,0,0,.069,0,.5.5,0,0,0,.4-.33l8.192-23.426H46V110a.5.5,0,0,0,1,0V51.989h1v1.76a.5.5,0,0,0,1,0v-1.76H61v1.76a.5.5,0,0,0,1,0v-1.76h1V110a.5.5,0,0,0,1,0V51.989h5.479l8.192,23.426a.5.5,0,0,0,.4.33.552.552,0,0,0,.069,0,.5.5,0,0,0,.408-.212c6.568-9.293,13.272-18.884,18.092-26.4l12.433,5.484a.491.491,0,0,0,.2.043.5.5,0,0,0,.2-.957ZM89.646,8.372c0,.282,0,.563-.009.844C89.262,9,88.9,8.771,88.5,8.563a.5.5,0,1,0-.465.885c.531.279,1.036.574,1.522.874-.461,4.311-2.649,8.442-6.392,12.206q-.9-.381-1.839-.743a.5.5,0,1,0-.358.934c.483.185.948.378,1.413.57q-.447.42-.92.834a71.985,71.985,0,0,0-52.819-.039q-.474-.416-.921-.838c.252-.1.5-.209.758-.311a.5.5,0,1,0-.368-.93c-.4.158-.786.318-1.171.48-3.764-3.8-5.948-7.972-6.369-12.326a.494.494,0,0,0,0-.509.463.463,0,0,0-.042-.046q-.041-.656-.029-1.317C27.542,3.974,40.084,1.5,55,1.5,70.014,1.5,82.629,4,89.646,8.372ZM48.432,36H46.5a.487.487,0,0,0-.278.1l.383-1.1h3.188A7.517,7.517,0,0,0,48.432,36Zm15.352-1.994c-.012,0-.022-.007-.034-.007H46.341A58.476,58.476,0,0,1,29.509,24.82a70.956,70.956,0,0,1,51.08.038A58.589,58.589,0,0,1,63.784,34.006ZM31.848,74.169C25.271,64.856,18.6,55.3,13.9,47.921c-3.888-6.1-5.088-12.251-3.489-17.57-.01.129-.034.252-.042.382a.5.5,0,0,0,.469.529h.03a.5.5,0,0,0,.5-.47c.04-.662.111-1.313.212-1.937a.5.5,0,0,0-.393-.566l.006-.013.461-1A.479.479,0,0,0,12,26.96a15.443,15.443,0,0,1,.608-1.744L18.23,13.027c.029.156.053.314.087.469a.5.5,0,0,0,.978-.211A16.354,16.354,0,0,1,19,11.37v0l.548-1.187a.482.482,0,0,0,.03.078c.947,9.773,10.268,18.606,26.042,24.538L40.637,49.035a.5.5,0,0,0-.325.465.487.487,0,0,0,.075.248ZM41.359,50H42.5a.5.5,0,0,0,0-1h-.791l4.32-12.354A.494.494,0,0,0,46.5,37h1.025a7.441,7.441,0,0,0-1.516,4.5V49H44.5a.5.5,0,0,0,0,1h1.509v1.009h-5Zm5.631,1.009V49.546a.119.119,0,0,0,0-.092V41.5A6.512,6.512,0,0,1,53.307,35H63.538l4.9,14H67.313a.5.5,0,0,0,0,1h1.471l.353,1.009Zm31.3,23.16L70.362,51.485a.477.477,0,0,0-.09-.258l-.523-1.5a.487.487,0,0,0,.064-.231.5.5,0,0,0-.305-.461L64.527,34.8C80.359,28.843,89.7,19.966,90.584,10.149l.536,1.161a12.535,12.535,0,0,1-.1,1.459.5.5,0,0,0,.431.562.5.5,0,0,0,.492-.242L97.713,25.6a.493.493,0,0,0,.033.219,15.761,15.761,0,0,1,.624,1.834.5.5,0,0,0,.457.36l.124.268c.107.232.2.469.294.7a.432.432,0,0,0-.053,0,.5.5,0,0,0-.419.569,18.65,18.65,0,0,1,.189,1.938.5.5,0,0,0,.5.478h.023a.5.5,0,0,0,.477-.521c-.006-.124-.028-.243-.036-.366,1.287,5.149.031,11.019-3.682,16.847l-.047.073a.493.493,0,0,0-.309.269.487.487,0,0,0-.031.257C91.179,55.814,84.7,65.1,78.294,74.169Z"/><path d="M3.1,51.372a.508.508,0,0,0,.2-.042l1.83-.807a.5.5,0,0,0-.4-.916l-1.83.807a.5.5,0,0,0,.2.958Z"/><path d="M6.76,49.758a.508.508,0,0,0,.2-.042l1.83-.807a.5.5,0,0,0-.4-.916l-1.83.807a.5.5,0,0,0,.2.958Z"/><path d="M104.553,49.289a.5.5,0,0,0-.4.916l1.83.807a.508.508,0,0,0,.2.042.5.5,0,0,0,.2-.958Z"/><path d="M100.893,47.675a.5.5,0,0,0-.4.916l1.83.807a.506.506,0,0,0,.2.042.5.5,0,0,0,.2-.958Z"/><path d="M25.54,7.811a.512.512,0,0,0,.177-.032q.905-.344,1.864-.658a.5.5,0,1,0-.312-.949q-.98.321-1.907.672a.5.5,0,0,0,.177.968Z"/><path d="M33.218,5.589a.5.5,0,0,0,.106-.012q.959-.208,1.947-.4a.5.5,0,1,0-.187-.982q-1,.19-1.973.4a.5.5,0,0,0,.105.988Z"/><path d="M29.338,6.56a.481.481,0,0,0,.138-.02q.939-.268,1.916-.512a.5.5,0,0,0-.242-.971q-.994.249-1.949.521a.5.5,0,0,0,.138.98Z"/><path d="M61.06,3.643q1,.047,1.989.111h.033a.5.5,0,0,0,.032-1q-1-.064-2.006-.111a.478.478,0,0,0-.523.476A.5.5,0,0,0,61.06,3.643Z"/><path d="M45.091,3.888l.041,0q.987-.079,1.986-.143a.5.5,0,0,0,.468-.53.5.5,0,0,0-.53-.468q-1.008.063-2,.145a.5.5,0,0,0,.04,1Z"/><path d="M37.148,4.843a.458.458,0,0,0,.081-.007q.972-.158,1.967-.3a.5.5,0,0,0-.14-.99q-1,.142-1.988.3a.5.5,0,0,0,.08.993Z"/><path d="M49.083,3.635h.023Q50.1,3.59,51.1,3.559a.5.5,0,0,0,.485-.516.513.513,0,0,0-.515-.484q-1.008.031-2.009.077a.5.5,0,0,0,.022,1Z"/><path d="M53.086,3.514h.007Q54.045,3.5,55,3.5h.088a.464.464,0,0,0,.456-.5A.54.54,0,0,0,55,2.5q-.962,0-1.92.014a.5.5,0,0,0,.007,1Z"/><path d="M41.109,4.284a.411.411,0,0,0,.06,0q.981-.116,1.979-.216a.5.5,0,1,0-.1-.994q-1.008.1-2,.218a.5.5,0,0,0,.059,1Z"/><path d="M21.883,9.428a.493.493,0,0,0,.229-.056q.854-.439,1.778-.847a.5.5,0,0,0-.4-.916q-.951.42-1.833.874a.5.5,0,0,0,.229.944Z"/><path d="M57.081,3.518q1,.016,1.99.047h.016a.5.5,0,0,0,.015-1q-1-.031-2.006-.047a.478.478,0,0,0-.508.492A.5.5,0,0,0,57.081,3.518Z"/><path d="M80.685,6.586q.968.28,1.892.586a.49.49,0,0,0,.157.025.5.5,0,0,0,.157-.975q-.941-.312-1.929-.6a.5.5,0,0,0-.277.961Z"/><path d="M72.935,4.863q.992.164,1.957.35a.522.522,0,0,0,.095.009.5.5,0,0,0,.094-.991Q74.1,4.043,73.1,3.877a.5.5,0,0,0-.164.986Z"/><path d="M69,4.3q1,.122,1.973.261a.59.59,0,0,0,.071,0,.5.5,0,0,0,.07-1q-.987-.141-1.994-.263a.492.492,0,0,0-.557.436A.5.5,0,0,0,69,4.3Z"/><path d="M65.034,3.9q1,.083,1.984.182l.051,0a.5.5,0,0,0,.05-1q-.993-.1-2-.184a.5.5,0,0,0-.083,1Z"/><path d="M76.838,5.612q.982.215,1.931.455a.486.486,0,0,0,.123.016.5.5,0,0,0,.122-.984q-.963-.245-1.962-.463a.5.5,0,0,0-.214.977Z"/><path d="M84.438,7.837q.942.362,1.824.755a.5.5,0,0,0,.407-.914q-.9-.4-1.873-.774a.5.5,0,0,0-.358.934Z"/><path d="M76.89,20.791a.5.5,0,0,0,.328.627q.959.3,1.885.62a.5.5,0,0,0,.327-.945q-.939-.325-1.914-.63A.5.5,0,0,0,76.89,20.791Z"/><path d="M49.2,17.8a.5.5,0,0,0,.5.465h.036q.987-.07,1.984-.113a.5.5,0,0,0,.478-.521.514.514,0,0,0-.521-.479q-1.01.045-2.011.115A.5.5,0,0,0,49.2,17.8Z"/><path d="M57.2,17.612a.5.5,0,0,0,.481.519q1,.037,1.985.1H59.7a.5.5,0,0,0,.03-1q-1-.062-2.01-.1A.523.523,0,0,0,57.2,17.612Z"/><path d="M61.193,17.837a.5.5,0,0,0,.454.542q1,.088,1.977.2l.057,0a.5.5,0,0,0,.056-1q-.995-.113-2-.2A.508.508,0,0,0,61.193,17.837Z"/><path d="M73.031,19.737a.5.5,0,0,0,.362.606q.975.246,1.921.511a.5.5,0,0,0,.27-.963q-.958-.268-1.945-.517A.494.494,0,0,0,73.031,19.737Z"/><path d="M65.17,18.266a.5.5,0,0,0,.426.564q.99.138,1.964.3a.48.48,0,0,0,.083.007.5.5,0,0,0,.082-.993q-.987-.166-1.99-.306A.5.5,0,0,0,65.17,18.266Z"/><path d="M69.12,18.9a.5.5,0,0,0,.4.587q.984.192,1.946.4a.519.519,0,0,0,.108.012.5.5,0,0,0,.107-.988q-.974-.215-1.971-.41A.5.5,0,0,0,69.12,18.9Z"/><path d="M53.69,17.095a.5.5,0,0,0,.009,1h.009q.645-.012,1.291-.012l.7,0h0a.5.5,0,0,0,0-1l-.7,0Q54.344,17.083,53.69,17.095Z"/><path d="M29.695,21.933a.5.5,0,0,0,.471.332.483.483,0,0,0,.168-.029q.921-.328,1.879-.638a.5.5,0,1,0-.307-.951q-.973.312-1.909.647A.5.5,0,0,0,29.695,21.933Z"/><path d="M33.493,20.679a.5.5,0,0,0,.48.36.539.539,0,0,0,.14-.02q.942-.275,1.914-.526a.5.5,0,0,0-.251-.969q-.986.256-1.943.534A.5.5,0,0,0,33.493,20.679Z"/><path d="M37.357,19.647a.5.5,0,0,0,.6.374q.959-.223,1.942-.421a.5.5,0,0,0-.2-.98q-1,.2-1.968.427A.5.5,0,0,0,37.357,19.647Z"/><path d="M41.272,18.828a.5.5,0,0,0,.492.413.444.444,0,0,0,.087-.008q.972-.171,1.961-.318a.5.5,0,1,0-.146-.988q-1,.148-1.988.322A.5.5,0,0,0,41.272,18.828Z"/><path d="M45.225,18.215a.5.5,0,0,0,.5.438.438.438,0,0,0,.062,0q.981-.12,1.975-.216a.5.5,0,0,0,.45-.546.509.509,0,0,0-.545-.45q-1.007.1-2,.22A.5.5,0,0,0,45.225,18.215Z"/><path d="M48.5,42.813a.5.5,0,0,0,.5-.5V41.5a4.514,4.514,0,0,1,.125-1.058.5.5,0,0,0-.369-.6.506.506,0,0,0-.6.369A5.514,5.514,0,0,0,48,41.5v.813A.5.5,0,0,0,48.5,42.813Z"/><path d="M48.5,46.813a.5.5,0,0,0,.5-.5v-2a.5.5,0,0,0-1,0v2A.5.5,0,0,0,48.5,46.813Z"/><path d="M52.832,37.044a.389.389,0,0,0,.067,0A4.522,4.522,0,0,1,53.5,37h1.33a.5.5,0,1,0,0-1H53.5a5.51,5.51,0,0,0-.734.049.5.5,0,0,0,.066,1Z"/><path d="M60.83,37h2a.5.5,0,1,0,0-1h-2a.5.5,0,0,0,0,1Z"/><path d="M56.83,37h2a.5.5,0,1,0,0-1h-2a.5.5,0,0,0,0,1Z"/><path d="M51.211,37.623a.5.5,0,1,0-.511-.859,5.5,5.5,0,0,0-1.621,1.463.5.5,0,0,0,.8.6A4.5,4.5,0,0,1,51.211,37.623Z"/><path d="M49.313,49H49v-.687a.5.5,0,0,0-1,0V49.5a.5.5,0,0,0,.5.5h.813a.5.5,0,0,0,0-1Z"/><path d="M65.313,49h-2a.5.5,0,0,0,0,1h2a.5.5,0,0,0,0-1Z"/><path d="M61.313,49h-2a.5.5,0,0,0,0,1h2a.5.5,0,0,0,0-1Z"/><path d="M53.313,49h-2a.5.5,0,0,0,0,1h2a.5.5,0,0,0,0-1Z"/><path d="M57.313,49h-2a.5.5,0,0,0,0,1h2a.5.5,0,0,0,0-1Z"/><path d="M55,45a.5.5,0,0,0,0-1,1,1,0,1,1,1-1,.5.5,0,0,0,1,0,2,2,0,1,0-2,2Z"/><path d="M55,62a2,2,0,0,0,0,4,.5.5,0,0,0,0-1,1,1,0,1,1,1-1,.5.5,0,0,0,1,0A2,2,0,0,0,55,62Z"/><path d="M72.4,51.241l-.66-1.889a.5.5,0,0,0-.944.33l.66,1.889a.5.5,0,0,0,.472.335.489.489,0,0,0,.165-.028A.5.5,0,0,0,72.4,51.241Z"/><path d="M82.544,64.64,81.4,66.277a.5.5,0,0,0,.819.574l1.146-1.64a.5.5,0,1,0-.82-.572Z"/><path d="M84.827,61.356,83.688,63a.5.5,0,1,0,.821.57l1.14-1.644a.5.5,0,0,0-.822-.57Z"/><path d="M80.252,67.916,79.1,69.551a.5.5,0,0,0,.121.7.492.492,0,0,0,.288.092.5.5,0,0,0,.409-.212l1.15-1.637a.5.5,0,1,0-.818-.574Z"/><path d="M78.337,68.232a.5.5,0,0,0-.944.33l.66,1.888a.5.5,0,0,0,.472.335.489.489,0,0,0,.165-.028A.5.5,0,0,0,79,70.12Z"/><path d="M87.094,58.064l-1.131,1.646a.5.5,0,0,0,.127.7.494.494,0,0,0,.284.089.5.5,0,0,0,.412-.216l1.133-1.65a.5.5,0,1,0-.825-.564Z"/><path d="M76.357,62.568l-.66-1.888a.5.5,0,0,0-.944.33l.66,1.888a.5.5,0,0,0,.472.335.489.489,0,0,0,.165-.028A.5.5,0,0,0,76.357,62.568Z"/><path d="M77.677,66.344l-.66-1.888a.5.5,0,0,0-.944.33l.66,1.888a.5.5,0,0,0,.472.335.489.489,0,0,0,.165-.028A.5.5,0,0,0,77.677,66.344Z"/><path d="M90.908,16.869a16.26,16.26,0,0,0,.685-1.944.5.5,0,1,0-.963-.27,15.22,15.22,0,0,1-.643,1.823.5.5,0,0,0,.265.655.494.494,0,0,0,.2.04A.5.5,0,0,0,90.908,16.869Z"/><path d="M99.2,35.948a.4.4,0,0,0,.067,0,.5.5,0,0,0,.5-.433c.093-.687.156-1.372.189-2.035a.5.5,0,0,0-.475-.523.474.474,0,0,0-.524.475c-.031.634-.092,1.29-.182,1.949A.5.5,0,0,0,99.2,35.948Z"/><path d="M96.451,44.487a.5.5,0,0,0-.673.218c-.306.6-.628,1.174-.957,1.715a.5.5,0,0,0,.854.52c.341-.562.675-1.16.992-1.779A.5.5,0,0,0,96.451,44.487Z"/><path d="M91.567,51.438,90.458,53.1a.5.5,0,0,0,.831.557l1.11-1.666a.5.5,0,1,0-.833-.553Z"/><path d="M94.445,47.948a.5.5,0,0,0-.691.148q-.53.822-1.088,1.674a.5.5,0,0,0,.144.692.5.5,0,0,0,.692-.144q.56-.854,1.093-1.68A.5.5,0,0,0,94.445,47.948Z"/><path d="M89.343,54.76l-1.122,1.653a.5.5,0,1,0,.826.563l1.125-1.657a.5.5,0,0,0-.829-.559Z"/><path d="M75.037,58.793l-.66-1.889a.5.5,0,0,0-.944.33l.66,1.889a.5.5,0,0,0,.472.335.489.489,0,0,0,.165-.028A.5.5,0,0,0,75.037,58.793Z"/><path d="M88.505,20.661a.5.5,0,0,0,.412-.216c.4-.575.761-1.159,1.084-1.735a.5.5,0,1,0-.873-.488c-.307.549-.655,1.106-1.034,1.655a.5.5,0,0,0,.128.7A.492.492,0,0,0,88.505,20.661Z"/><path d="M85.987,23.764a.5.5,0,0,0,.365-.158c.471-.5.921-1.018,1.339-1.529a.5.5,0,1,0-.774-.633c-.4.494-.839.991-1.3,1.479a.5.5,0,0,0,.365.842Z"/><path d="M83.088,26.518a.5.5,0,0,0,.324-.119q.782-.668,1.508-1.356a.5.5,0,0,0-.689-.725q-.706.672-1.467,1.319a.5.5,0,0,0,.324.881Z"/><path d="M79.93,28.972a.5.5,0,0,0,.289-.093q.833-.592,1.623-1.2a.5.5,0,0,0-.612-.791q-.774.6-1.59,1.181a.5.5,0,0,0,.29.907Z"/><path d="M96.878,43.584a.493.493,0,0,0,.2.041.5.5,0,0,0,.459-.3c.262-.6.514-1.235.75-1.889a.5.5,0,1,0-.94-.34c-.229.634-.473,1.245-.727,1.83A.5.5,0,0,0,96.878,43.584Z"/><path d="M98.295,39.843a.488.488,0,0,0,.139.02.5.5,0,0,0,.48-.361c.19-.658.357-1.321.5-1.972a.5.5,0,0,0-.384-.595.507.507,0,0,0-.594.384c-.135.629-.3,1.27-.48,1.905A.5.5,0,0,0,98.295,39.843Z"/><path d="M76.584,31.165a.5.5,0,0,0,.258-.072q.87-.526,1.708-1.076A.5.5,0,0,0,78,29.181q-.823.541-1.677,1.057a.5.5,0,0,0,.259.928Z"/><path d="M69.495,34.874a.492.492,0,0,0,.2-.044q.921-.415,1.827-.854a.5.5,0,0,0-.437-.9q-.892.434-1.8.842a.5.5,0,0,0,.206.956Z"/><path d="M69.755,43.689,69.1,41.8a.5.5,0,0,0-.944.33l.66,1.888a.5.5,0,0,0,.472.335.489.489,0,0,0,.165-.028A.5.5,0,0,0,69.755,43.689Z"/><path d="M68.435,39.913l-.66-1.888a.5.5,0,0,0-.944.33l.66,1.888a.5.5,0,0,0,.472.335.489.489,0,0,0,.165-.028A.5.5,0,0,0,68.435,39.913Z"/><path d="M71.076,47.465l-.66-1.888a.5.5,0,0,0-.944.33l.66,1.888a.5.5,0,0,0,.472.335.489.489,0,0,0,.165-.028A.5.5,0,0,0,71.076,47.465Z"/><path d="M67.115,36.138l-.062-.179q.4-.161.8-.328a.5.5,0,0,0-.387-.922c-.407.171-.816.336-1.226.5a.5.5,0,0,0-.288.63l.22.63a.5.5,0,0,0,.472.335.489.489,0,0,0,.165-.028A.5.5,0,0,0,67.115,36.138Z"/><path d="M73.1,33.127a.5.5,0,0,0,.23-.057q.9-.469,1.774-.961a.5.5,0,0,0-.491-.871q-.861.485-1.745.945a.5.5,0,0,0,.231.943Z"/><path d="M73.716,55.017l-.66-1.888a.5.5,0,0,0-.944.33l.66,1.888a.5.5,0,0,0,.472.335.489.489,0,0,0,.165-.028A.5.5,0,0,0,73.716,55.017Z"/></g></g></g></svg>