<svg xmlns="http://www.w3.org/2000/svg" xmlns:xlink="http://www.w3.org/1999/xlink" width="110" height="110" viewBox="0 0 110 110"><defs><style>.cls-1{fill:url(#Безымянный_градиент_449);}.cls-2{fill:#af9c94;}</style><radialGradient id="Безымянный_градиент_449" cx="55.5" cy="1.501" r="108.333" gradientUnits="userSpaceOnUse"><stop offset="0.637" stop-color="#fff"/><stop offset="1" stop-color="#fff" stop-opacity="0"/></radialGradient></defs><title>Детали - Петля на кокетке</title><g id="Детали"><g id="Петля_на_кокетке" data-name="Петля на кокетке"><g id="Цвет-49" data-name="Цвет"><path class="cls-1" d="M55,110c16.833,0,38-3.833,53.375-14l.067-62.114-14.333-6.1L93.5,25.5,85,7C76.5,2.5,65.971,1,55,1S33.5,2.5,25,7L16.5,25.5l-.609,2.285-14.333,6.1L1.625,96C17,106.167,38.167,110,55,110Z"/></g><g id="Контур-49" data-name="Контур"><polygon class="cls-2" points="66.5 83.5 59.5 90.5 50.5 90.5 43.5 83.5 66.5 83.5"/><rect class="cls-2" x="43.5" y="80.5" width="7" height="3"/><rect class="cls-2" x="59.5" y="80.5" width="7" height="3"/><path d="M.5,34.836a.5.5,0,0,0,.2-.04l15.3-6.511H94.007L109.3,34.8a.5.5,0,1,0,.392-.92L94.529,27.421a16.662,16.662,0,0,0-.534-1.895c0-.009.005-.017.005-.026a.5.5,0,0,0-.157-.361c-.144-.385-.278-.774-.45-1.147l-7.938-17.2a.493.493,0,0,0-.188-.213C79.122,2.716,68.091.5,55,.5S30.878,2.716,24.734,6.578a.493.493,0,0,0-.188.213l-7.938,17.2c-.172.373-.306.762-.45,1.147A.5.5,0,0,0,16,25.5c0,.009,0,.017.005.026a16.662,16.662,0,0,0-.534,1.895L.3,33.876a.5.5,0,0,0,.2.96ZM24.087,10.172c.009-.005.02,0,.028-.009q.234-.16.475-.314a.493.493,0,0,0,.025-.822l.776-1.68C31.405,3.63,42.182,1.5,55,1.5S78.595,3.63,84.609,7.347l.544,1.18c-.148-.087-.293-.176-.445-.261a.5.5,0,0,0-.487.873c.585.326,1.145.671,1.664,1.024.009.006.019,0,.028.009l6.572,14.24c.089.192.157.393.238.588H92.5a.5.5,0,0,0,0,1h.607c.142.424.274.851.379,1.285H16.514c.105-.434.237-.862.379-1.285H18.5a.5.5,0,0,0,0-1H17.278c.081-.2.149-.4.238-.588ZM109.5,80H.5a.5.5,0,0,0,0,1H43v2.5a.46.46,0,0,0,.013.064.448.448,0,0,0,.013.064.5.5,0,0,0,.121.226L50,90.707V109.5a.5.5,0,1,0,1,0V91h8v18.5a.5.5,0,1,0,1,0V90.707l6.853-6.853a.5.5,0,0,0,.121-.226.448.448,0,0,0,.013-.064A.46.46,0,0,0,67,83.5V81h42.5a.5.5,0,0,0,0-1ZM50,83H44V81h6Zm9.293,7H50.707l-6-6H65.293ZM66,83H60V81h6Zm-7,0H51V81h8Zm15.5-5a.5.5,0,0,1,0,1h-2a.5.5,0,0,1,0-1Zm4,0a.5.5,0,0,1,0,1h-2a.5.5,0,0,1,0-1Zm4,0a.5.5,0,0,1,0,1h-2a.5.5,0,0,1,0-1Zm-20,0a.5.5,0,0,1,0,1h-2a.5.5,0,0,1,0-1Zm4,0a.5.5,0,0,1,0,1h-2a.5.5,0,0,1,0-1Zm4,0a.5.5,0,0,1,0,1h-2a.5.5,0,0,1,0-1Zm24,0a.5.5,0,0,1,0,1h-2a.5.5,0,0,1,0-1Zm4,0a.5.5,0,0,1,0,1h-2a.5.5,0,0,1,0-1Zm4,0a.5.5,0,0,1,0,1h-2a.5.5,0,0,1,0-1Zm-16,0a.5.5,0,0,1,0,1h-2a.5.5,0,0,1,0-1Zm20,0a.5.5,0,0,1,0,1h-2a.5.5,0,0,1,0-1Zm-48,0a.5.5,0,0,1,0,1h-2a.5.5,0,0,1,0-1Zm32,0a.5.5,0,0,1,0,1h-2a.5.5,0,0,1,0-1Zm-48,0a.5.5,0,0,1,0,1h-2a.5.5,0,0,1,0-1Zm-28,0a.5.5,0,0,1,0,1h-2a.5.5,0,0,1,0-1Zm-8,0a.5.5,0,0,1,0,1h-2a.5.5,0,0,1,0-1Zm12,0a.5.5,0,0,1,0,1h-2a.5.5,0,0,1,0-1Zm36,0a.5.5,0,0,1,0,1h-2a.5.5,0,0,1,0-1Zm-32,0a.5.5,0,0,1,0,1h-2a.5.5,0,0,1,0-1Zm-20,0a.5.5,0,0,1,0,1H.5a.5.5,0,0,1,0-1Zm107.5.5a.5.5,0,0,1-.5.5h-1a.5.5,0,0,1,0-1h1A.5.5,0,0,1,110,78.5ZM10.5,78a.5.5,0,0,1,0,1h-2a.5.5,0,0,1,0-1Zm28,0a.5.5,0,0,1,0,1h-2a.5.5,0,0,1,0-1Zm8,0a.5.5,0,0,1,0,1h-2a.5.5,0,0,1,0-1Zm-20,0a.5.5,0,0,1,0,1h-2a.5.5,0,0,1,0-1Zm24,0a.5.5,0,0,1,0,1h-2a.5.5,0,0,1,0-1Zm-20,0a.5.5,0,0,1,0,1h-2a.5.5,0,0,1,0-1Zm4,0a.5.5,0,0,1,0,1h-2a.5.5,0,0,1,0-1ZM64,25.5a.5.5,0,0,1,.5-.5h2a.5.5,0,0,1,0,1h-2A.5.5,0,0,1,64,25.5Zm4,0a.5.5,0,0,1,.5-.5h2a.5.5,0,0,1,0,1h-2A.5.5,0,0,1,68,25.5Zm-20,0a.5.5,0,0,1,.5-.5h2a.5.5,0,0,1,0,1h-2A.5.5,0,0,1,48,25.5Zm4,0a.5.5,0,0,1,.5-.5h2a.5.5,0,0,1,0,1h-2A.5.5,0,0,1,52,25.5Zm4,0a.5.5,0,0,1,.5-.5h2a.5.5,0,0,1,0,1h-2A.5.5,0,0,1,56,25.5Zm4,0a.5.5,0,0,1,.5-.5h2a.5.5,0,0,1,0,1h-2A.5.5,0,0,1,60,25.5Zm16,0a.5.5,0,0,1,.5-.5h2a.5.5,0,0,1,0,1h-2A.5.5,0,0,1,76,25.5Zm-32,0a.5.5,0,0,1,.5-.5h2a.5.5,0,0,1,0,1h-2A.5.5,0,0,1,44,25.5Zm44,0a.5.5,0,0,1,.5-.5h2a.5.5,0,0,1,0,1h-2A.5.5,0,0,1,88,25.5Zm-8,0a.5.5,0,0,1,.5-.5h2a.5.5,0,0,1,0,1h-2A.5.5,0,0,1,80,25.5Zm4,0a.5.5,0,0,1,.5-.5h2a.5.5,0,0,1,0,1h-2A.5.5,0,0,1,84,25.5Zm-12,0a.5.5,0,0,1,.5-.5h2a.5.5,0,0,1,0,1h-2A.5.5,0,0,1,72,25.5ZM28.5,25h2a.5.5,0,0,1,0,1h-2a.5.5,0,0,1,0-1Zm7.5.5a.5.5,0,0,1,.5-.5h2a.5.5,0,0,1,0,1h-2A.5.5,0,0,1,36,25.5Zm-4,0a.5.5,0,0,1,.5-.5h2a.5.5,0,0,1,0,1h-2A.5.5,0,0,1,32,25.5Zm-8,0a.5.5,0,0,1,.5-.5h2a.5.5,0,0,1,0,1h-2A.5.5,0,0,1,24,25.5Zm16,0a.5.5,0,0,1,.5-.5h2a.5.5,0,0,1,0,1h-2A.5.5,0,0,1,40,25.5Zm-20,0a.5.5,0,0,1,.5-.5h2a.5.5,0,0,1,0,1h-2A.5.5,0,0,1,20,25.5ZM29.23,6.967a.5.5,0,0,1,.291-.645q.929-.352,1.911-.669a.5.5,0,0,1,.308.951q-.958.311-1.864.653a.514.514,0,0,1-.177.032A.5.5,0,0,1,29.23,6.967Zm51.152-.15a.5.5,0,0,1,.649-.28q.965.382,1.865.8a.5.5,0,0,1-.212.953.5.5,0,0,1-.211-.047q-.872-.409-1.809-.779A.5.5,0,0,1,80.382,6.816Zm-7.69-2.179a.507.507,0,0,1,.593-.385q1,.212,1.966.454a.5.5,0,0,1-.121.985.52.52,0,0,1-.122-.015q-.948-.237-1.932-.446A.5.5,0,0,1,72.691,4.638ZM25.607,8.656a.5.5,0,0,1,.208-.676c.58-.308,1.2-.606,1.83-.889a.5.5,0,1,1,.406.914c-.613.272-1.208.562-1.768.857a.49.49,0,0,1-.233.059A.5.5,0,0,1,25.607,8.656ZM76.581,5.573a.5.5,0,0,1,.62-.341q.987.287,1.929.606a.5.5,0,0,1-.16.974.507.507,0,0,1-.16-.026q-.921-.312-1.888-.593A.5.5,0,0,1,76.581,5.573ZM68.752,3.948a.5.5,0,0,1,.569-.419q1.006.154,1.987.332a.5.5,0,0,1-.089.992.563.563,0,0,1-.09-.008q-.967-.176-1.958-.328A.5.5,0,0,1,68.752,3.948Zm-27.914.061a.5.5,0,0,1,.422-.567q.987-.144,1.995-.266a.5.5,0,1,1,.12.992q-.995.122-1.97.264a.614.614,0,0,1-.073,0A.5.5,0,0,1,40.838,4.009Zm7.956-.826a.5.5,0,0,1,.471-.527q1-.056,2.01-.091a.5.5,0,0,1,.035,1c-.666.023-1.33.052-1.989.089h-.028A.5.5,0,0,1,48.794,3.183Zm4-.16a.5.5,0,0,1,.492-.508Q54.14,2.5,55,2.5h.295a.5.5,0,0,1,0,1H55q-.851,0-1.7.014h-.008A.5.5,0,0,1,52.793,3.022ZM44.806,3.5a.5.5,0,0,1,.45-.546q.995-.1,2-.173a.5.5,0,0,1,.076,1q-1,.075-1.983.171l-.048,0A.5.5,0,0,1,44.806,3.5ZM36.9,4.722a.5.5,0,0,1,.39-.59q.976-.2,1.98-.373a.493.493,0,0,1,.578.407.5.5,0,0,1-.407.577q-.99.173-1.951.369a.505.505,0,0,1-.1.01A.5.5,0,0,1,36.9,4.722ZM64.781,3.46a.5.5,0,0,1,.549-.444q1.008.105,2,.231a.5.5,0,0,1-.063,1,.473.473,0,0,1-.064,0c-.652-.084-1.312-.159-1.976-.229A.5.5,0,0,1,64.781,3.46ZM33.02,5.688a.5.5,0,0,1,.347-.616q.958-.268,1.955-.5a.5.5,0,1,1,.232.973q-.978.233-1.919.5a.493.493,0,0,1-.135.019A.5.5,0,0,1,33.02,5.688ZM60.792,3.157a.489.489,0,0,1,.53-.469q1.008.062,2,.143a.5.5,0,0,1-.04,1l-.041,0q-.986-.079-1.985-.141A.5.5,0,0,1,60.792,3.157Zm-4-.142a.53.53,0,0,1,.51-.49q1.007.021,2.008.062a.5.5,0,0,1-.02,1h-.021q-.99-.041-1.988-.062A.5.5,0,0,1,56.795,3.016Z"/></g></g></g></svg>