<svg xmlns="http://www.w3.org/2000/svg" xmlns:xlink="http://www.w3.org/1999/xlink" width="110" height="89.5" viewBox="0 0 110 89.5"><defs><style>.cls-1{fill:url(#Безымянный_градиент_962);}.cls-2{fill:#af9c94;}</style><radialGradient id="Безымянный_градиент_962" cx="54.333" cy="-1.286" r="91.791" gradientTransform="translate(53.544 -55.619) rotate(90) scale(1 0.614)" gradientUnits="userSpaceOnUse"><stop offset="0.619" stop-color="#fff"/><stop offset="0.62" stop-color="#fff" stop-opacity="0.992"/><stop offset="0.684" stop-color="#fff" stop-opacity="0.733"/><stop offset="0.746" stop-color="#fff" stop-opacity="0.51"/><stop offset="0.806" stop-color="#fff" stop-opacity="0.327"/><stop offset="0.863" stop-color="#fff" stop-opacity="0.185"/><stop offset="0.915" stop-color="#fff" stop-opacity="0.083"/><stop offset="0.963" stop-color="#fff" stop-opacity="0.022"/><stop offset="1" stop-color="#fff" stop-opacity="0"/></radialGradient></defs><title>Детали - Петля на воротнике</title><g id="Детали"><g id="Петля_на_воротнике" data-name="Петля на воротнике"><g id="Цвет-50" data-name="Цвет"><rect class="cls-1" y="-3.5" width="110" height="93"/></g><g id="Контур-50" data-name="Контур"><rect class="cls-2" x="42.5" y="32" width="25" height="6"/><path d="M109.5,22.5H.5a.5.5,0,0,0,0,1H42v2H40.5a.5.5,0,0,0,0,1H42v20H.5a.5.5,0,0,0,0,1h109a.5.5,0,0,0,0-1H68v-23h41.5a.5.5,0,0,0,0-1ZM67,37.5H43v-5H67Zm-24,9v-8H67v8ZM67,26v5.5H43v-8H67Zm31.5-.5a.5.5,0,0,1,0,1h-2a.5.5,0,0,1,0-1Zm8,0a.5.5,0,0,1,0,1h-2a.5.5,0,0,1,0-1ZM44,26a.5.5,0,0,1,.5-.5h2a.5.5,0,0,1,0,1h-2A.5.5,0,0,1,44,26Zm58.5-.5a.5.5,0,0,1,0,1h-2a.5.5,0,0,1,0-1ZM52,26a.5.5,0,0,1,.5-.5h2a.5.5,0,0,1,0,1h-2A.5.5,0,0,1,52,26Zm15,0a.5.5,0,0,1-.5.5h-2a.5.5,0,0,1,0-1h2A.5.5,0,0,1,67,26Zm-7,0a.5.5,0,0,1,.5-.5h2a.5.5,0,0,1,0,1h-2A.5.5,0,0,1,60,26Zm8,0a.5.5,0,0,1,.5-.5h2a.5.5,0,0,1,0,1h-2A.5.5,0,0,1,68,26ZM56,26a.5.5,0,0,1,.5-.5h2a.5.5,0,0,1,0,1h-2A.5.5,0,0,1,56,26Zm38.5-.5a.5.5,0,0,1,0,1h-2a.5.5,0,0,1,0-1ZM48,26a.5.5,0,0,1,.5-.5h2a.5.5,0,0,1,0,1h-2A.5.5,0,0,1,48,26Zm62,0a.5.5,0,0,1-.5.5h-1a.5.5,0,0,1,0-1h1A.5.5,0,0,1,110,26Zm-81.5.5a.5.5,0,0,1,0-1h2a.5.5,0,0,1,0,1Zm-8,0a.5.5,0,0,1,0-1h2a.5.5,0,0,1,0,1Zm-4,0a.5.5,0,0,1,0-1h2a.5.5,0,0,1,0,1Zm16,0a.5.5,0,0,1,0-1h2a.5.5,0,0,1,0,1Zm-20,0a.5.5,0,0,1,0-1h2a.5.5,0,0,1,0,1Zm78-1a.5.5,0,0,1,0,1h-2a.5.5,0,0,1,0-1Zm-54,1a.5.5,0,0,1,0-1h2a.5.5,0,0,1,0,1Zm-12,0a.5.5,0,0,1,0-1h2a.5.5,0,0,1,0,1Zm58-1a.5.5,0,0,1,0,1h-2a.5.5,0,0,1,0-1Zm-8,0a.5.5,0,0,1,0,1h-2a.5.5,0,0,1,0-1Zm-66,1a.5.5,0,0,1,0-1h2a.5.5,0,0,1,0,1Zm78-1a.5.5,0,0,1,0,1h-2a.5.5,0,0,1,0-1Zm-8,0a.5.5,0,0,1,0,1h-2a.5.5,0,0,1,0-1Zm-74,1a.5.5,0,0,1,0-1h2a.5.5,0,0,1,0,1ZM0,26a.5.5,0,0,1,.5-.5h2a.5.5,0,0,1,0,1H.5A.5.5,0,0,1,0,26ZM58.5-.5A.5.5,0,0,1,59,0a.5.5,0,0,1-.5.5h-2A.5.5,0,0,1,56,0a.5.5,0,0,1,.5-.5Zm-4,0A.5.5,0,0,1,55,0a.5.5,0,0,1-.5.5h-2A.5.5,0,0,1,52,0a.5.5,0,0,1,.5-.5Zm24,0A.5.5,0,0,1,79,0a.5.5,0,0,1-.5.5h-2A.5.5,0,0,1,76,0a.5.5,0,0,1,.5-.5Zm-8,0A.5.5,0,0,1,71,0a.5.5,0,0,1-.5.5h-2A.5.5,0,0,1,68,0a.5.5,0,0,1,.5-.5Zm-8,0A.5.5,0,0,1,63,0a.5.5,0,0,1-.5.5h-2A.5.5,0,0,1,60,0a.5.5,0,0,1,.5-.5Zm4,0A.5.5,0,0,1,67,0a.5.5,0,0,1-.5.5h-2A.5.5,0,0,1,64,0a.5.5,0,0,1,.5-.5Zm8,0A.5.5,0,0,1,75,0a.5.5,0,0,1-.5.5h-2A.5.5,0,0,1,72,0a.5.5,0,0,1,.5-.5Zm28,0a.5.5,0,0,1,.5.5.5.5,0,0,1-.5.5h-2A.5.5,0,0,1,100,0a.5.5,0,0,1,.5-.5Zm-4,0A.5.5,0,0,1,99,0a.5.5,0,0,1-.5.5h-2A.5.5,0,0,1,96,0a.5.5,0,0,1,.5-.5Zm8,0a.5.5,0,0,1,.5.5.5.5,0,0,1-.5.5h-2A.5.5,0,0,1,104,0a.5.5,0,0,1,.5-.5Zm-12,0A.5.5,0,0,1,95,0a.5.5,0,0,1-.5.5h-2A.5.5,0,0,1,92,0a.5.5,0,0,1,.5-.5Zm-4,0A.5.5,0,0,1,91,0a.5.5,0,0,1-.5.5h-2A.5.5,0,0,1,88,0a.5.5,0,0,1,.5-.5Zm-4,0A.5.5,0,0,1,87,0a.5.5,0,0,1-.5.5h-2A.5.5,0,0,1,84,0a.5.5,0,0,1,.5-.5Zm-4,0A.5.5,0,0,1,83,0a.5.5,0,0,1-.5.5h-2A.5.5,0,0,1,80,0a.5.5,0,0,1,.5-.5Zm-68,0A.5.5,0,0,1,15,0a.5.5,0,0,1-.5.5h-2A.5.5,0,0,1,12,0a.5.5,0,0,1,.5-.5Zm4,0A.5.5,0,0,1,19,0a.5.5,0,0,1-.5.5h-2A.5.5,0,0,1,16,0a.5.5,0,0,1,.5-.5Zm-8,0A.5.5,0,0,1,11,0a.5.5,0,0,1-.5.5h-2A.5.5,0,0,1,8,0a.5.5,0,0,1,.5-.5Zm40,0A.5.5,0,0,1,51,0a.5.5,0,0,1-.5.5h-2A.5.5,0,0,1,48,0a.5.5,0,0,1,.5-.5ZM110,0a.5.5,0,0,1-.5.5h-1A.5.5,0,0,1,108,0a.5.5,0,0,1,.5-.5h1A.5.5,0,0,1,110,0ZM0,0A.5.5,0,0,1,.5-.5h2A.5.5,0,0,1,3,0a.5.5,0,0,1-.5.5H.5A.5.5,0,0,1,0,0ZM22.5-.5A.5.5,0,0,1,23,0a.5.5,0,0,1-.5.5h-2A.5.5,0,0,1,20,0a.5.5,0,0,1,.5-.5Zm-16,0A.5.5,0,0,1,7,0a.5.5,0,0,1-.5.5h-2A.5.5,0,0,1,4,0a.5.5,0,0,1,.5-.5Zm20,0A.5.5,0,0,1,27,0a.5.5,0,0,1-.5.5h-2A.5.5,0,0,1,24,0a.5.5,0,0,1,.5-.5Zm20,0A.5.5,0,0,1,47,0a.5.5,0,0,1-.5.5h-2A.5.5,0,0,1,44,0a.5.5,0,0,1,.5-.5Zm-8,0A.5.5,0,0,1,39,0a.5.5,0,0,1-.5.5h-2A.5.5,0,0,1,36,0a.5.5,0,0,1,.5-.5Zm4,0A.5.5,0,0,1,43,0a.5.5,0,0,1-.5.5h-2A.5.5,0,0,1,40,0a.5.5,0,0,1,.5-.5Zm-12,0A.5.5,0,0,1,31,0a.5.5,0,0,1-.5.5h-2A.5.5,0,0,1,28,0a.5.5,0,0,1,.5-.5Zm4,0A.5.5,0,0,1,35,0a.5.5,0,0,1-.5.5h-2A.5.5,0,0,1,32,0a.5.5,0,0,1,.5-.5ZM0-3a.5.5,0,0,1,.5-.5h109a.5.5,0,0,1,.5.5.5.5,0,0,1-.5.5H.5A.5.5,0,0,1,0-3Z"/></g></g></g></svg>