<svg xmlns="http://www.w3.org/2000/svg" xmlns:xlink="http://www.w3.org/1999/xlink" width="110" height="110" viewBox="0 0 110 110"><defs><style>.cls-1{fill:url(#Безымянный_градиент_1646);}.cls-2{fill:url(#Безымянный_градиент_1646-2);}.cls-3{fill:#af9c94;}.cls-4{fill:#fff;}</style><radialGradient id="Безымянный_градиент_1646" cx="55" cy="87" r="50.5" gradientTransform="translate(110 197.257) rotate(180) scale(1 1.267)" gradientUnits="userSpaceOnUse"><stop offset="0.446" stop-color="#fff"/><stop offset="0.501" stop-color="#fff" stop-opacity="0.932"/><stop offset="0.612" stop-color="#fff" stop-opacity="0.756"/><stop offset="0.767" stop-color="#fff" stop-opacity="0.471"/><stop offset="0.96" stop-color="#fff" stop-opacity="0.084"/><stop offset="1" stop-color="#fff" stop-opacity="0"/></radialGradient><radialGradient id="Безымянный_градиент_1646-2" cy="87" r="50.5" gradientTransform="matrix(1, 0, 0, -1.267, 0, 197.257)" xlink:href="#Безымянный_градиент_1646"/></defs><title>Детали - Треугольная декоративная деталь</title><g id="Детали"><g id="Треугольная_декоративная_деталь" data-name="Треугольная декоративная деталь"><g id="Цвет-53" data-name="Цвет"><path class="cls-1" d="M4.5,87.5C22.167,87.667,45.167,77.833,55,51V23H4.5Z"/><path class="cls-2" d="M105.5,87.5C87.833,87.667,64.833,77.833,55,51V23h50.5Z"/><polygon class="cls-3" points="71.5 66.5 55 38.5 38.5 66.5 71.5 66.5"/><path class="cls-4" d="M55,43.424,67.125,64H42.875L55,43.424M55,38.5l-16.5,28h33L55,38.5Z"/></g><g id="Контур-53" data-name="Контур"><path d="M36.107,70.628a.5.5,0,0,1,.04-.706c.979-.875,1.935-1.8,2.838-2.757a.5.5,0,0,1,.727.688c-.923.974-1.9,1.921-2.9,2.815a.5.5,0,0,1-.706-.04Zm-5.165,4.438a.492.492,0,0,0,.275-.083c1.124-.743,2.226-1.539,3.274-2.367a.5.5,0,0,0-.619-.785c-1.027.811-2.106,1.591-3.206,2.318a.5.5,0,0,0,.275.917ZM18.308,80.984a.492.492,0,0,0,.144-.021c1.281-.384,2.565-.828,3.819-1.322a.5.5,0,1,0-.367-.93c-1.227.482-2.485.918-3.739,1.295a.5.5,0,0,0,.144.979Zm6.535-2.5a.5.5,0,0,0,.212-.047c1.219-.571,2.425-1.2,3.584-1.866a.5.5,0,0,0-.5-.867c-1.136.653-2.316,1.269-3.51,1.827a.5.5,0,0,0,.212.953ZM11.476,82.5a.615.615,0,0,0,.073,0c1.328-.193,2.664-.445,3.973-.749a.5.5,0,0,0-.227-.975c-1.281.3-2.59.545-3.891.733a.5.5,0,0,0,.071,1ZM4.5,83c1.342,0,2.7-.056,4.036-.166a.5.5,0,0,0,.457-.539.507.507,0,0,0-.539-.457C7.145,81.945,5.814,82,4.5,82a.5.5,0,0,0,0,1Zm48-59.254a.5.5,0,0,0,.5-.5V21.5a.5.5,0,0,0-1,0v1.746A.5.5,0,0,0,52.5,23.746Zm0,7a.5.5,0,0,0,.5-.5v-4a.5.5,0,0,0-1,0v4A.5.5,0,0,0,52.5,30.746Zm-.105,7h.028a.5.5,0,0,0,.5-.472c.052-.925.078-1.857.078-2.771V33.246a.5.5,0,0,0-1,0V34.5c0,.9-.025,1.809-.076,2.715A.5.5,0,0,0,52.395,37.742ZM110,87.5a.5.5,0,0,1-.5.5h-4A53.136,53.136,0,0,1,63.041,67H46.96A53.139,53.139,0,0,1,4.5,88H.5a.5.5,0,0,1,0-1h4A52.12,52.12,0,0,0,45.673,67H38.5a.5.5,0,0,1-.431-.754l12.964-22a.494.494,0,0,1,0-.168c.262-1.277.475-2.592.633-3.906a.5.5,0,0,1,.556-.437.5.5,0,0,1,.437.556c-.063.526-.142,1.05-.221,1.573l2.133-3.619a.52.52,0,0,1,.861,0l2.136,3.625c-.066-.432-.136-.863-.19-1.3a.5.5,0,0,1,.992-.125c.163,1.306.383,2.613.651,3.888l12.91,21.908A.5.5,0,0,1,71.5,67H64.327A52.114,52.114,0,0,0,105.5,87h4A.5.5,0,0,1,110,87.5ZM39.375,66h31.25L60.018,48H56.833a.5.5,0,0,1,0-1h2.6L55,39.484,50.571,47h3.262a.5.5,0,0,1,0,1H49.982ZM87.729,79.641c1.254.494,2.538.938,3.819,1.322a.487.487,0,0,0,.144.021.5.5,0,0,0,.144-.979c-1.254-.377-2.513-.812-3.739-1.295a.5.5,0,0,0-.367.93Zm-8.947-4.657a.492.492,0,0,0,.275.083.5.5,0,0,0,.275-.917c-1.1-.728-2.179-1.508-3.206-2.318a.5.5,0,1,0-.619.785C76.557,73.444,77.658,74.24,78.782,74.983Zm15.7,6.76c1.309.3,2.645.556,3.973.749a.615.615,0,0,0,.073,0,.5.5,0,0,0,.071-1c-1.3-.188-2.609-.436-3.891-.733a.5.5,0,1,0-.227.975Zm6.985,1.091c1.337.11,2.694.166,4.036.166a.5.5,0,0,0,0-1c-1.314,0-2.645-.055-3.954-.162a.526.526,0,0,0-.539.457A.5.5,0,0,0,101.464,82.834Zm-20.1-6.259c1.159.667,2.365,1.295,3.584,1.866a.5.5,0,0,0,.212.047.5.5,0,0,0,.212-.953c-1.193-.559-2.374-1.174-3.51-1.827a.5.5,0,1,0-.5.867ZM70.307,67.147a.5.5,0,0,0-.019.706c.924.976,1.9,1.922,2.9,2.814a.5.5,0,0,0,.666-.746c-.978-.874-1.933-1.8-2.839-2.756A.5.5,0,0,0,70.307,67.147ZM57.594,38.026h.031a.5.5,0,0,0,.468-.53c-.062-.986-.093-1.993-.093-3v-.971a.5.5,0,0,0-1,0V34.5c0,1.022.032,2.051.095,3.058A.5.5,0,0,0,57.594,38.026Zm-.094-14a.5.5,0,0,0,.5-.5V21.5a.5.5,0,0,0-1,0v2.029A.5.5,0,0,0,57.5,24.029Zm0,7a.5.5,0,0,0,.5-.5v-4a.5.5,0,0,0-1,0v4A.5.5,0,0,0,57.5,31.029Z"/></g></g></g></svg>