<svg xmlns="http://www.w3.org/2000/svg" xmlns:xlink="http://www.w3.org/1999/xlink" width="110" height="110" viewBox="0 0 110 110"><defs><style>.cls-1{fill:url(#Безымянный_градиент_415);}.cls-2{fill:#af9c94;}</style><radialGradient id="Безымянный_градиент_415" cx="55.5" cy="0.688" r="109.404" gradientUnits="userSpaceOnUse"><stop offset="0.681" stop-color="#fff"/><stop offset="1" stop-color="#fff" stop-opacity="0"/></radialGradient></defs><title>Контрасты - Бейка внутренней части воротника</title><g id="Контрасты"><g id="Бейка_внутренней_части_воротника-2" data-name="Бейка внутренней части воротника"><g id="Цвет-74" data-name="Цвет"><path class="cls-1" d="M55,110c18.8,0,38.833-5,53.375-14.5V35.625L100.75,32.25,99.262,28,90,7.938c-8-5-21.954-7-35-7s-27,2-35,7L10.738,28,9.25,32.25,1.625,35.625V95.5C16.167,105,36.2,110,55,110Z"/><path class="cls-2" d="M76.375,28.375a55.379,55.379,0,0,0-22.02-4.289,54.02,54.02,0,0,0-21.23,4.039l-4.542-3.458A63.746,63.746,0,0,1,54.312,19.5c9.8-.064,19.5,1.6,27.188,5.167Z"/></g><g id="Контур-74" data-name="Контур"><path d="M49,59.749v2a.5.5,0,0,1-1,0v-2a.5.5,0,0,1,1,0Zm-.5,3.5a.5.5,0,0,0-.5.5v2a.5.5,0,0,0,1,0v-2A.5.5,0,0,0,48.5,63.249Zm0-8a.5.5,0,0,0-.5.5v2a.5.5,0,0,0,1,0v-2A.5.5,0,0,0,48.5,55.249Zm0,20a.5.5,0,0,0-.5.5v2a.5.5,0,0,0,1,0v-2A.5.5,0,0,0,48.5,75.249Zm0,20a.5.5,0,0,0-.5.5v2a.5.5,0,0,0,1,0v-2A.5.5,0,0,0,48.5,95.249Zm0,8a.5.5,0,0,0-.5.5v2a.5.5,0,0,0,1,0v-2A.5.5,0,0,0,48.5,103.249Zm0-4a.5.5,0,0,0-.5.5v2a.5.5,0,0,0,1,0v-2A.5.5,0,0,0,48.5,99.249Zm0,8a.5.5,0,0,0-.5.5V108a.5.5,0,0,0,1,0v-.251A.5.5,0,0,0,48.5,107.249Zm0-40a.5.5,0,0,0-.5.5v2a.5.5,0,0,0,1,0v-2A.5.5,0,0,0,48.5,67.249Zm0,4a.5.5,0,0,0-.5.5v2a.5.5,0,0,0,1,0v-2A.5.5,0,0,0,48.5,71.249Zm0,8a.5.5,0,0,0-.5.5v2a.5.5,0,0,0,1,0v-2A.5.5,0,0,0,48.5,79.249Zm0,12a.5.5,0,0,0-.5.5v2a.5.5,0,0,0,1,0v-2A.5.5,0,0,0,48.5,91.249Zm0-8a.5.5,0,0,0-.5.5v2a.5.5,0,0,0,1,0v-2A.5.5,0,0,0,48.5,83.249Zm0,4a.5.5,0,0,0-.5.5v2a.5.5,0,0,0,1,0v-2A.5.5,0,0,0,48.5,87.249Zm13-8a.5.5,0,0,0-.5.5v2a.5.5,0,0,0,1,0v-2A.5.5,0,0,0,61.5,79.249Zm0,4a.5.5,0,0,0-.5.5v2a.5.5,0,0,0,1,0v-2A.5.5,0,0,0,61.5,83.249Zm0,4a.5.5,0,0,0-.5.5v2a.5.5,0,0,0,1,0v-2A.5.5,0,0,0,61.5,87.249Zm0,4a.5.5,0,0,0-.5.5v2a.5.5,0,0,0,1,0v-2A.5.5,0,0,0,61.5,91.249Zm0-16a.5.5,0,0,0-.5.5v2a.5.5,0,0,0,1,0v-2A.5.5,0,0,0,61.5,75.249Zm0-4a.5.5,0,0,0-.5.5v2a.5.5,0,0,0,1,0v-2A.5.5,0,0,0,61.5,71.249Zm0-12a.5.5,0,0,0-.5.5v2a.5.5,0,0,0,1,0v-2A.5.5,0,0,0,61.5,59.249Zm0,36a.5.5,0,0,0-.5.5v2a.5.5,0,0,0,1,0v-2A.5.5,0,0,0,61.5,95.249Zm0-40a.5.5,0,0,0-.5.5v2a.5.5,0,0,0,1,0v-2A.5.5,0,0,0,61.5,55.249Zm0,12a.5.5,0,0,0-.5.5v2a.5.5,0,0,0,1,0v-2A.5.5,0,0,0,61.5,67.249Zm0-4a.5.5,0,0,0-.5.5v2a.5.5,0,0,0,1,0v-2A.5.5,0,0,0,61.5,63.249Zm0,36a.5.5,0,0,0-.5.5v2a.5.5,0,0,0,1,0v-2A.5.5,0,0,0,61.5,99.249Zm0,8a.5.5,0,0,0-.5.5V108a.5.5,0,0,0,1,0v-.251A.5.5,0,0,0,61.5,107.249Zm0-4a.5.5,0,0,0-.5.5v2a.5.5,0,0,0,1,0v-2A.5.5,0,0,0,61.5,103.249ZM30.444,29.272a.5.5,0,1,0,.57-.82q-.822-.571-1.6-1.164a.5.5,0,1,0-.605.795Q29.6,28.689,30.444,29.272ZM24.955,60.835a.5.5,0,1,0-.822.568l1.141,1.645a.5.5,0,0,0,.82-.57Zm2.279,3.285a.5.5,0,1,0-.82.572l1.146,1.641a.5.5,0,1,0,.818-.574Zm8.96-6.924a.5.5,0,0,0-.637.307l-.66,1.888a.5.5,0,0,0,.307.637.489.489,0,0,0,.165.028.5.5,0,0,0,.472-.335l.66-1.888A.5.5,0,0,0,36.194,57.2Zm-13.5.345a.5.5,0,1,0-.824.564L23,59.755a.5.5,0,0,0,.824-.566Zm9.544,10.983a.5.5,0,0,0-.637.307l-.66,1.888a.5.5,0,0,0,.307.637.489.489,0,0,0,.165.028.5.5,0,0,0,.472-.335l.66-1.888A.5.5,0,0,0,32.233,68.524Zm-21.2-33.271a.5.5,0,0,0,.443-.551c-.071-.657-.116-1.315-.135-1.956a.524.524,0,0,0-.515-.485.5.5,0,0,0-.485.515c.02.667.067,1.352.141,2.034a.5.5,0,0,0,.5.446ZM33.554,64.748a.5.5,0,0,0-.637.307l-.66,1.888a.5.5,0,0,0,.307.637.489.489,0,0,0,.165.028.5.5,0,0,0,.472-.335l.66-1.888A.5.5,0,0,0,33.554,64.748ZM29.525,67.4a.5.5,0,0,0-.818.574l1.15,1.637a.5.5,0,0,0,.818-.574Zm-11.3-16.488a.5.5,0,0,0-.834.551L18.5,53.128a.5.5,0,0,0,.832-.555Zm-2.182-3.347a.5.5,0,0,0-.842.541q.53.823,1.089,1.682a.5.5,0,0,0,.838-.547Q16.572,48.384,16.045,47.563Zm6.334-26.534a.5.5,0,0,0,.12-.7c-.382-.542-.739-1.095-1.06-1.644a.5.5,0,0,0-.863.5c.335.574.707,1.151,1.106,1.716a.5.5,0,0,0,.408.212A.49.49,0,0,0,22.379,21.028ZM20.445,54.234a.5.5,0,1,0-.83.557q.551.822,1.122,1.66a.5.5,0,0,0,.826-.562Q21,55.054,20.445,54.234ZM13.358,42.323c-.23-.6-.449-1.218-.652-1.858a.5.5,0,0,0-.953.3c.209.662.436,1.3.672,1.917a.5.5,0,0,0,.934-.359ZM12.171,38.57c-.157-.629-.3-1.271-.414-1.923a.515.515,0,0,0-.581-.4.5.5,0,0,0-.4.581c.122.673.267,1.337.428,1.987a.5.5,0,0,0,.485.379.52.52,0,0,0,.121-.015A.5.5,0,0,0,12.171,38.57ZM37.515,53.421a.5.5,0,0,0-.637.307l-.66,1.888a.5.5,0,0,0,.307.637.489.489,0,0,0,.165.028.5.5,0,0,0,.472-.335l.66-1.888A.5.5,0,0,0,37.515,53.421Zm-23.39-9.285a.5.5,0,1,0-.908.42c.295.638.605,1.249.924,1.816a.5.5,0,1,0,.873-.488C14.707,45.338,14.408,44.75,14.125,44.136ZM34.874,60.973a.5.5,0,0,0-.637.307l-.66,1.888a.5.5,0,0,0,.307.637.489.489,0,0,0,.165.028.5.5,0,0,0,.472-.335l.66-1.888A.5.5,0,0,0,34.874,60.973Zm6.932-19.824a.489.489,0,0,0,.165.028.5.5,0,0,0,.472-.335l.66-1.888a.5.5,0,1,0-.943-.33l-.66,1.888A.5.5,0,0,0,41.806,41.148ZM39.2,34.263q.908.426,1.834.831a.5.5,0,1,0,.4-.916q-.914-.4-1.809-.819a.5.5,0,1,0-.426.9Zm3.689,1.613.206.083-.271.777a.5.5,0,0,0,.307.637.489.489,0,0,0,.165.028.5.5,0,0,0,.472-.335l.43-1.229a.5.5,0,0,0-.288-.63l-.643-.258a.5.5,0,1,0-.377.926Zm-4.05,13.769a.5.5,0,0,0-.637.307l-.66,1.889a.5.5,0,0,0,.307.637.489.489,0,0,0,.165.028.5.5,0,0,0,.472-.335l.66-1.889A.5.5,0,0,0,38.835,49.645Zm2.641-7.551a.5.5,0,0,0-.637.307l-.66,1.888a.5.5,0,0,0,.307.637.489.489,0,0,0,.165.028.5.5,0,0,0,.472-.335l.66-1.888A.5.5,0,0,0,41.476,42.094ZM35.6,32.443q.88.479,1.786.937a.5.5,0,1,0,.449-.893q-.891-.45-1.757-.923a.5.5,0,0,0-.479.879Zm4.555,13.426a.5.5,0,0,0-.637.307l-.66,1.888a.5.5,0,0,0,.307.637.489.489,0,0,0,.165.028.5.5,0,0,0,.472-.335l.66-1.888A.5.5,0,0,0,40.155,45.869ZM32.126,30.393q.844.538,1.72,1.055a.5.5,0,0,0,.508-.861q-.861-.508-1.69-1.037a.5.5,0,0,0-.537.844Zm-12.5-13.012a.5.5,0,0,0,.908-.42,18.433,18.433,0,0,1-.724-1.807.5.5,0,1,0-.947.322A19.6,19.6,0,0,0,19.629,17.381Zm4.643,6.665A.5.5,0,0,0,25,23.356c-.453-.477-.892-.971-1.3-1.469a.5.5,0,0,0-.771.637C23.349,23.04,23.8,23.552,24.271,24.046Zm2.958,2.773a.5.5,0,1,0,.643-.766q-.766-.642-1.477-1.309a.5.5,0,0,0-.684.73Q26.443,26.16,27.229,26.819ZM51.551,43.5H50.5a.5.5,0,0,1,0-1h1.051a3.483,3.483,0,0,1,6.9,0H59.5a.5.5,0,0,1,0,1H58.449a3.483,3.483,0,0,1-6.9,0ZM52.5,43A2.5,2.5,0,1,0,55,40.5,2.5,2.5,0,0,0,52.5,43Zm6,21a3.5,3.5,0,0,1-3,3.449V68.5a.5.5,0,0,1-1,0v-1.05a3.483,3.483,0,0,1,0-6.9V59.5a.5.5,0,0,1,1,0v1.052A3.5,3.5,0,0,1,58.5,64Zm-1,0A2.5,2.5,0,1,0,55,66.5H55A2.5,2.5,0,0,0,57.5,64Zm52.235-9.628a.5.5,0,0,1-.659.255L96.643,49.143c-4.819,7.511-11.524,17.1-18.091,26.4a.5.5,0,0,1-.408.212.552.552,0,0,1-.069,0,.5.5,0,0,1-.4-.33L69.48,51.989H64V110a.5.5,0,0,1-1,0V51.989H62v1.76a.5.5,0,0,1-1,0v-1.76H49v1.76a.5.5,0,0,1-1,0v-1.76H47V110a.5.5,0,0,1-1,0V51.989H40.663L32.472,75.415a.5.5,0,0,1-.4.33.552.552,0,0,1-.069,0,.5.5,0,0,1-.408-.212c-6.58-9.312-13.3-18.923-18.123-26.443L1.287,54.468a.5.5,0,1,1-.4-.914l12.043-5.311q-.286-.456-.553-.913l-1.752.772a.5.5,0,0,1-.4-.916l1.666-.734A22.753,22.753,0,0,1,8.842,33.073L1.28,36.285a.493.493,0,0,1-.2.04.5.5,0,0,1-.2-.96l7.832-3.327A.481.481,0,0,1,9,32.014a16.86,16.86,0,0,1,1.288-4.156l1.392-3.016c.01-.025.019-.052.03-.077s.013-.017.018-.027L19.546,7.79a27.608,27.608,0,0,0,.067-.1.479.479,0,0,1,.1-.091c.01-.007.015-.017.025-.024l.043-.025h0C26.942,3.07,39.773.5,55,.5,70.176.5,82.969,3.053,90.146,7.507a.494.494,0,0,1,.452.283l9.262,20.067a16.866,16.866,0,0,1,1.286,4.151.476.476,0,0,1,.133.028l8.2,3.481a.5.5,0,0,1-.2.96.493.493,0,0,1-.2-.04l-7.776-3.3A22.806,22.806,0,0,1,98.233,46.5l.831.366a.5.5,0,0,1-.2.958.506.506,0,0,1-.2-.042l-.921-.406c-.179.3-.362.609-.553.913l12.293,5.422A.5.5,0,0,1,109.735,54.372ZM55,1.5c-14.915,0-27.458,2.474-34.5,6.787q-.013.661.029,1.317a.47.47,0,0,1,.042.046.5.5,0,0,1,0,.507c.421,4.355,2.605,8.527,6.369,12.328q.578-.244,1.171-.48a.5.5,0,0,1,.369.93c-.258.1-.507.207-.759.311q.448.422.921.838a71.981,71.981,0,0,1,52.819.039q.473-.413.92-.834c-.465-.193-.93-.385-1.413-.57a.5.5,0,0,1,.357-.934q.943.361,1.84.743c3.744-3.765,5.932-7.9,6.392-12.211-.484-.3-.992-.591-1.523-.87a.5.5,0,1,1,.465-.885c.393.206.771.42,1.14.637.01-.276.011-.552.008-.828C82.629,4,70.014,1.5,55,1.5ZM49.793,35H46.6l-.384,1.1A.488.488,0,0,1,46.5,36h1.932A7.519,7.519,0,0,1,49.793,35Zm30.8-10.141a70.96,70.96,0,0,0-51.08-.038A58.474,58.474,0,0,0,46.341,34H63.75c.012,0,.022.006.034.007A58.581,58.581,0,0,0,80.589,24.858Zm-40.2,24.891a.486.486,0,0,1-.075-.248.5.5,0,0,1,.325-.465L45.616,34.8C29.842,28.865,20.52,20.03,19.574,10.256a.462.462,0,0,1-.03-.076L19,11.366v0a16.24,16.24,0,0,0,.3,1.915.5.5,0,0,1-.383.594.492.492,0,0,1-.105.012.5.5,0,0,1-.488-.395c-.034-.155-.058-.312-.087-.469L12.594,25.239a15.2,15.2,0,0,0-.6,1.719.48.48,0,0,1-.344.319l-.461,1,0,.012a.5.5,0,0,1,.394.567,19.19,19.19,0,0,0-.213,1.937.5.5,0,0,1-.5.47h-.03a.5.5,0,0,1-.469-.529c.008-.132.032-.254.042-.385-1.6,5.319-.4,11.47,3.488,17.573C18.6,55.3,25.271,64.856,31.849,74.169Zm.618,1.26h5V50H44.5a.5.5,0,0,1,0-1h1.51V41.5A7.441,7.441,0,0,1,47.526,37H46.5a.494.494,0,0,1-.471-.355L41.708,49H42.5a.5.5,0,0,1,0,1H41.359Zm28.131,0L68.785,50H67.313a.5.5,0,0,1,0-1h1.123l-4.9-14H53.307a6.513,6.513,0,0,0-6.317,6.5v7.953a.125.125,0,0,1,0,.1v1.46ZM95.855,48.52a.484.484,0,0,1,.032-.257.491.491,0,0,1,.309-.271l.046-.071c3.715-5.83,4.97-11.7,3.68-16.855.008.126.031.248.037.375a.5.5,0,0,1-.477.521H99.46a.5.5,0,0,1-.5-.478,18.649,18.649,0,0,0-.189-1.937.5.5,0,0,1,.419-.569.471.471,0,0,1,.054,0c-.1-.236-.187-.473-.293-.7l-.124-.269a.5.5,0,0,1-.457-.36,15.813,15.813,0,0,0-.624-1.833.487.487,0,0,1-.033-.22L91.942,13.09a.5.5,0,0,1-.427.247.5.5,0,0,1-.5-.565,12.71,12.71,0,0,0,.1-1.462l-.536-1.16C89.7,19.965,80.359,28.843,64.527,34.8l4.98,14.243a.5.5,0,0,1,.3.46.489.489,0,0,1-.063.23l.524,1.5a.476.476,0,0,1,.088.253l7.933,22.687C84.7,65.1,91.18,55.813,95.855,48.52ZM6.761,49.758a.506.506,0,0,0,.2-.042l1.831-.807a.5.5,0,0,0-.4-.916L6.559,48.8a.5.5,0,0,0,.2.958ZM3.1,51.372a.514.514,0,0,0,.2-.042l1.83-.807a.5.5,0,1,0-.4-.916l-1.83.807a.5.5,0,0,0,.2.958Zm97.793-3.7a.5.5,0,1,0-.4.916l1.83.807a.514.514,0,0,0,.2.042.5.5,0,0,0,.2-.958Zm3.66,1.614a.5.5,0,1,0-.4.916l1.831.807a.5.5,0,0,0,.4-.916ZM61.061,3.643q1,.047,1.988.111h.033a.5.5,0,0,0,.031-1q-1-.064-2.006-.111a.489.489,0,0,0-.522.476A.5.5,0,0,0,61.061,3.643ZM33.22,5.589a.507.507,0,0,0,.106-.012q.958-.208,1.947-.4a.5.5,0,1,0-.187-.982q-1,.19-1.973.4a.5.5,0,0,0,.106.988ZM21.883,9.427a.5.5,0,0,0,.229-.056q.853-.439,1.776-.847a.5.5,0,0,0-.4-.916q-.952.42-1.833.874a.5.5,0,0,0,.229.944ZM29.337,6.56a.484.484,0,0,0,.138-.02q.938-.268,1.916-.512a.5.5,0,0,0-.242-.971q-.995.249-1.949.521a.5.5,0,0,0,.138.98Zm-3.8,1.251a.513.513,0,0,0,.177-.032q.908-.343,1.866-.658a.5.5,0,1,0-.312-.949q-.979.321-1.907.672a.5.5,0,0,0,.177.968ZM37.147,4.843a.465.465,0,0,0,.082-.007q.971-.158,1.966-.3a.5.5,0,0,0,.426-.564.509.509,0,0,0-.564-.426q-1.006.142-1.989.3a.5.5,0,0,0,.08.993ZM49.085,3.635h.022Q50.1,3.59,51.1,3.559a.5.5,0,0,0-.016-1H51.07q-1.008.031-2.008.077a.5.5,0,0,0,.022,1Zm-4,.253.041,0q.987-.079,1.986-.143a.5.5,0,0,0,.468-.53.494.494,0,0,0-.53-.468q-1.008.063-2,.145a.5.5,0,0,0,.039,1Zm27.845.976q.993.164,1.958.35a.518.518,0,0,0,.095.009.5.5,0,0,0,.093-.991Q74.1,4.043,73.1,3.877a.5.5,0,0,0-.164.986ZM57.081,3.518q1,.016,1.99.047h.016a.5.5,0,0,0,.016-1q-1-.031-2.006-.047a.485.485,0,0,0-.508.492A.5.5,0,0,0,57.081,3.518Zm-15.972.767a.4.4,0,0,0,.06,0q.981-.116,1.979-.216a.5.5,0,0,0,.447-.547.493.493,0,0,0-.547-.447q-1.006.1-2,.218a.5.5,0,0,0,.058,1ZM65.036,3.9q1,.083,1.983.182a.43.43,0,0,0,.051,0,.5.5,0,0,0,.049-1q-.993-.1-2-.184a.525.525,0,0,0-.539.457A.5.5,0,0,0,65.036,3.9Zm19.4,3.938q.942.362,1.823.755a.5.5,0,0,0,.408-.914q-.907-.4-1.874-.774a.5.5,0,0,0-.357.934ZM80.686,6.586q.968.28,1.892.586a.49.49,0,0,0,.157.025.5.5,0,0,0,.157-.975q-.94-.312-1.929-.6a.5.5,0,1,0-.277.961Zm-3.848-.974q.981.215,1.932.455a.481.481,0,0,0,.122.016.5.5,0,0,0,.122-.984q-.964-.245-1.961-.463a.5.5,0,0,0-.6.381A.5.5,0,0,0,76.838,5.612Zm-23.751-2.1h.007Q54.046,3.5,55,3.5h.089a.463.463,0,0,0,.455-.5A.539.539,0,0,0,55,2.5q-.961,0-1.92.014a.5.5,0,0,0,.007,1ZM69,4.3q1,.122,1.972.261a.6.6,0,0,0,.072,0,.5.5,0,0,0,.07-1q-.987-.141-1.993-.263A.5.5,0,0,0,69,4.3Zm4.035,15.438a.5.5,0,0,0,.362.606q.973.246,1.92.511a.5.5,0,0,0,.27-.963q-.958-.268-1.945-.517A.5.5,0,0,0,73.032,19.737ZM65.17,18.266a.5.5,0,0,0,.426.564q.99.138,1.963.3a.5.5,0,0,0,.576-.41.5.5,0,0,0-.41-.576q-.987-.166-1.99-.306A.512.512,0,0,0,65.17,18.266ZM53.69,17.095a.5.5,0,0,0,.009,1h.009q.645-.012,1.29-.012l.7,0h0a.5.5,0,0,0,0-1l-.7,0Q54.344,17.083,53.69,17.095Zm15.43,1.8a.5.5,0,0,0,.395.586q.983.193,1.946.405a.509.509,0,0,0,.107.012.5.5,0,0,0,.107-.988q-.974-.215-1.97-.409A.5.5,0,0,0,69.12,18.9Zm7.77,1.894a.5.5,0,0,0,.328.627q.959.3,1.886.62a.5.5,0,0,0,.326-.945q-.937-.325-1.913-.63A.5.5,0,0,0,76.89,20.791Zm-15.7-2.954a.5.5,0,0,0,.454.542q.995.088,1.977.2l.058,0a.5.5,0,0,0,.056-1q-.995-.113-2-.2A.507.507,0,0,0,61.193,17.837ZM57.7,17.131a.5.5,0,0,0-.019,1q1,.037,1.984.1H59.7a.5.5,0,0,0,.031-1q-1-.062-2.01-.1Zm-16.428,1.7a.5.5,0,0,0,.491.413.446.446,0,0,0,.088-.008q.971-.171,1.961-.318a.5.5,0,0,0-.146-.988q-1,.148-1.988.322A.5.5,0,0,0,41.272,18.828Zm-7.78,1.851a.5.5,0,0,0,.48.36.529.529,0,0,0,.14-.02q.942-.275,1.914-.526a.5.5,0,0,0-.25-.969q-.986.256-1.943.534A.5.5,0,0,0,33.492,20.679Zm3.863-1.031a.5.5,0,0,0,.6.374q.958-.223,1.941-.421a.5.5,0,0,0-.2-.98q-1,.2-1.969.427A.5.5,0,0,0,37.355,19.647ZM49.2,17.8a.5.5,0,0,0,.5.465h.036q.987-.07,1.983-.113a.5.5,0,0,0,.479-.521.533.533,0,0,0-.521-.479q-1.011.045-2.011.115A.5.5,0,0,0,49.2,17.8ZM29.7,21.933a.5.5,0,0,0,.471.332.507.507,0,0,0,.168-.029q.92-.328,1.879-.638a.5.5,0,0,0-.307-.951q-.973.312-1.908.647A.5.5,0,0,0,29.7,21.933Zm15.529-3.718a.5.5,0,0,0,.5.438.457.457,0,0,0,.063,0q.98-.12,1.975-.216a.5.5,0,0,0,.45-.546.524.524,0,0,0-.546-.45q-1.008.1-2,.22A.5.5,0,0,0,45.225,18.215Zm7.606,18.829a.391.391,0,0,0,.067,0A4.532,4.532,0,0,1,53.5,37h1.33a.5.5,0,1,0,0-1H53.5a5.521,5.521,0,0,0-.734.049.5.5,0,0,0,.065,1ZM48.5,42.813a.5.5,0,0,0,.5-.5V41.5a4.5,4.5,0,0,1,.125-1.058.5.5,0,0,0-.369-.6.508.508,0,0,0-.6.369A5.54,5.54,0,0,0,48,41.5v.813A.5.5,0,0,0,48.5,42.813ZM49.313,49H49v-.687a.5.5,0,0,0-1,0V49.5a.5.5,0,0,0,.5.5h.813a.5.5,0,0,0,0-1Zm1.9-11.376a.5.5,0,1,0-.51-.859,5.473,5.473,0,0,0-1.621,1.462.5.5,0,1,0,.8.6A4.5,4.5,0,0,1,51.211,37.624ZM48.5,46.813a.5.5,0,0,0,.5-.5v-2a.5.5,0,0,0-1,0v2A.5.5,0,0,0,48.5,46.813ZM60.83,37h2a.5.5,0,1,0,0-1h-2a.5.5,0,0,0,0,1Zm-4,0h2a.5.5,0,1,0,0-1h-2a.5.5,0,0,0,0,1Zm.482,12h-2a.5.5,0,0,0,0,1h2a.5.5,0,0,0,0-1Zm4,0h-2a.5.5,0,0,0,0,1h2a.5.5,0,0,0,0-1Zm4,0h-2a.5.5,0,0,0,0,1h2a.5.5,0,0,0,0-1Zm-12,0h-2a.5.5,0,0,0,0,1h2a.5.5,0,0,0,0-1ZM55,45a.5.5,0,0,0,0-1,1,1,0,1,1,1-1,.5.5,0,0,0,1,0,2,2,0,1,0-2,2Zm0,17a2,2,0,0,0,0,4,.5.5,0,0,0,0-1,1,1,0,1,1,1-1,.5.5,0,0,0,1,0A2,2,0,0,0,55,62Zm34.344-7.24-1.121,1.653a.5.5,0,1,0,.826.563l1.123-1.657a.5.5,0,1,0-.828-.559Zm-2.248,3.3L85.963,59.71a.5.5,0,0,0,.824.568l1.133-1.65a.5.5,0,0,0-.824-.564Zm-2.27,3.294L83.687,63a.5.5,0,0,0,.82.572l1.142-1.646a.5.5,0,1,0-.822-.568ZM82.545,64.64,81.4,66.276a.5.5,0,0,0,.818.576l1.147-1.641a.5.5,0,0,0-.82-.572Zm8.361-47.77a16,16,0,0,0,.686-1.944.5.5,0,1,0-.963-.27,15.289,15.289,0,0,1-.643,1.823.5.5,0,0,0,.265.655.493.493,0,0,0,.2.04A.5.5,0,0,0,90.906,16.87Zm-2.4,3.793a.5.5,0,0,0,.411-.216c.394-.57.759-1.153,1.085-1.735a.5.5,0,0,0-.873-.488c-.311.554-.658,1.111-1.034,1.655a.5.5,0,0,0,.127.7A.494.494,0,0,0,88.506,20.663Zm7.945,23.823a.5.5,0,0,0-.674.217c-.307.6-.629,1.176-.957,1.716a.5.5,0,0,0,.855.52c.34-.561.674-1.159.992-1.778A.5.5,0,0,0,96.451,44.486ZM69.493,34.874a.491.491,0,0,0,.205-.044q.921-.415,1.828-.854a.5.5,0,0,0-.437-.9q-.892.434-1.8.842a.5.5,0,0,0,.205.956ZM92.26,51.3a.5.5,0,0,0-.692.14L90.458,53.1a.5.5,0,0,0,.832.557L92.4,51.991A.5.5,0,0,0,92.26,51.3ZM68.435,39.914l-.66-1.888a.5.5,0,1,0-.943.33l.66,1.888a.5.5,0,0,0,.472.335.489.489,0,0,0,.165-.028A.5.5,0,0,0,68.435,39.914ZM73.1,33.127a.506.506,0,0,0,.231-.057q.9-.469,1.773-.961a.5.5,0,0,0-.492-.871q-.86.485-1.744.945a.5.5,0,0,0,.231.943Zm21.35,14.82a.5.5,0,0,0-.691.148q-.532.822-1.089,1.675a.5.5,0,0,0,.145.691.492.492,0,0,0,.273.082.5.5,0,0,0,.418-.227q.56-.853,1.093-1.679A.5.5,0,0,0,94.445,47.947ZM76.583,31.166a.5.5,0,0,0,.259-.072q.869-.526,1.709-1.076A.5.5,0,1,0,78,29.182q-.823.539-1.678,1.057a.5.5,0,0,0,.259.928Zm-9.469,4.973-.062-.179q.4-.161.8-.328a.5.5,0,0,0-.387-.922c-.407.17-.814.336-1.225.5a.5.5,0,0,0-.288.63l.221.631a.5.5,0,0,0,.472.335.489.489,0,0,0,.165-.028A.5.5,0,0,0,67.114,36.139Zm7.922,22.654-.66-1.888a.5.5,0,1,0-.943.33l.66,1.888a.5.5,0,0,0,.472.335.489.489,0,0,0,.165-.028A.5.5,0,0,0,75.036,58.793Zm1.32,3.776-.66-1.889a.5.5,0,0,0-.943.33l.66,1.889a.5.5,0,0,0,.472.335.489.489,0,0,0,.165-.028A.5.5,0,0,0,76.356,62.569Zm-2.641-7.552-.66-1.888a.5.5,0,0,0-.943.33l.66,1.888a.5.5,0,0,0,.472.335.489.489,0,0,0,.165-.028A.5.5,0,0,0,73.716,55.018ZM69.755,43.689l-.66-1.888a.5.5,0,0,0-.943.33l.66,1.888a.5.5,0,0,0,.472.335.489.489,0,0,0,.165-.028A.5.5,0,0,0,69.755,43.689ZM72.4,51.241l-.66-1.888a.5.5,0,1,0-.943.33l.66,1.888a.5.5,0,0,0,.472.335.489.489,0,0,0,.165-.028A.5.5,0,0,0,72.4,51.241Zm5.941,16.991a.5.5,0,1,0-.943.33l.66,1.888a.5.5,0,0,0,.472.335.489.489,0,0,0,.165-.028A.5.5,0,0,0,79,70.12Zm-.66-1.888-.66-1.888a.5.5,0,0,0-.943.33l.66,1.888a.5.5,0,0,0,.472.335.489.489,0,0,0,.165-.028A.5.5,0,0,0,77.677,66.345Zm19.2-22.761a.5.5,0,0,0,.658-.26c.262-.6.514-1.235.75-1.889a.5.5,0,0,0-.941-.34c-.229.634-.473,1.245-.727,1.83A.5.5,0,0,0,96.878,43.584ZM83.087,26.519a.5.5,0,0,0,.324-.119q.782-.667,1.509-1.356a.5.5,0,1,0-.689-.725q-.706.672-1.468,1.319a.5.5,0,0,0,.324.881Zm2.9-2.755a.5.5,0,0,0,.365-.158q.706-.756,1.339-1.529a.5.5,0,1,0-.773-.633q-.612.747-1.3,1.479a.5.5,0,0,0,.365.842Zm-6.058,5.208a.5.5,0,0,0,.29-.093q.832-.592,1.623-1.2a.5.5,0,0,0-.613-.791q-.773.6-1.59,1.181a.5.5,0,0,0,.29.907ZM71.075,47.466l-.66-1.888a.5.5,0,0,0-.943.33l.66,1.888a.5.5,0,0,0,.472.335.489.489,0,0,0,.165-.028A.5.5,0,0,0,71.075,47.466ZM99.2,35.948a.41.41,0,0,0,.068,0,.5.5,0,0,0,.494-.433c.093-.687.157-1.372.189-2.035a.5.5,0,1,0-1-.049c-.032.634-.093,1.29-.182,1.949A.5.5,0,0,0,99.2,35.948Zm-.907,3.894a.5.5,0,0,0,.62-.341c.188-.649.355-1.313.5-1.973a.5.5,0,0,0-.979-.211c-.137.637-.3,1.277-.48,1.9A.5.5,0,0,0,98.295,39.842ZM80.252,67.915,79.1,69.55a.5.5,0,0,0,.818.576l1.15-1.637a.5.5,0,0,0-.818-.574Z"/></g></g></g></svg>