<svg xmlns="http://www.w3.org/2000/svg" xmlns:xlink="http://www.w3.org/1999/xlink" width="110" height="110" viewBox="0 0 110 110"><defs><style>.cls-1{fill:url(#Безымянный_градиент_449);}.cls-2{fill:#af9c94;}</style><radialGradient id="Безымянный_градиент_449" cx="55.5" cy="1.501" r="108.333" gradientUnits="userSpaceOnUse"><stop offset="0.637" stop-color="#fff"/><stop offset="1" stop-color="#fff" stop-opacity="0"/></radialGradient></defs><title>Контрасты - Петля на кокетке</title><g id="Контрасты"><g id="Петля_на_кокетке-2" data-name="Петля на кокетке"><g id="Цвет-72" data-name="Цвет"><path class="cls-1" d="M55,110c16.833,0,38-3.833,53.375-14l.067-62.114-14.333-6.1L93.5,25.5,85,7C76.5,2.5,65.971,1,55,1S33.5,2.5,25,7L16.5,25.5l-.609,2.285-14.333,6.1L1.625,96C17,106.167,38.167,110,55,110Z"/></g><g id="Контур-72" data-name="Контур"><polygon class="cls-2" points="66.5 83.5 59.5 90.5 50.5 90.5 43.5 83.5 66.5 83.5"/><rect class="cls-2" x="43.5" y="80.5" width="7" height="3"/><rect class="cls-2" x="59.5" y="80.5" width="7" height="3"/><path d="M.5,34.836a.5.5,0,0,0,.2-.04l15.3-6.511H94.006L109.3,34.8a.5.5,0,0,0,.393-.92L94.529,27.421a16.637,16.637,0,0,0-.534-1.894c0-.009.005-.017.005-.026a.5.5,0,0,0-.157-.361c-.144-.385-.278-.774-.45-1.147l-7.938-17.2a.5.5,0,0,0-.188-.213C79.122,2.716,68.091.5,55,.5S30.878,2.716,24.734,6.578a.5.5,0,0,0-.188.213l-7.938,17.2c-.172.373-.306.762-.45,1.147A.5.5,0,0,0,16,25.5c0,.009,0,.017.005.026a16.637,16.637,0,0,0-.534,1.894L.3,33.876a.5.5,0,0,0,.2.96ZM24.088,10.172c.008,0,.018,0,.026-.008q.236-.16.479-.316a.5.5,0,0,0,.148-.691.492.492,0,0,0-.125-.129l.776-1.681C31.405,3.63,42.183,1.5,55,1.5S78.595,3.63,84.608,7.347l.544,1.18c-.149-.087-.294-.176-.446-.261a.5.5,0,1,0-.486.873c.584.325,1.144.67,1.665,1.024.008.005.018,0,.026.008l6.573,14.241c.089.192.157.392.238.588H92.5a.5.5,0,0,0,0,1h.607c.142.424.273.851.378,1.285H16.515c.1-.434.236-.861.378-1.285H18.5a.5.5,0,0,0,0-1H17.278c.081-.2.149-.4.238-.588ZM109.5,80H.5a.5.5,0,0,0,0,1H43v2.5a.45.45,0,0,0,.013.065.41.41,0,0,0,.012.062.5.5,0,0,0,.121.227L50,90.707V109.5a.5.5,0,1,0,1,0V91h8v18.5a.5.5,0,1,0,1,0V90.707l6.853-6.853a.5.5,0,0,0,.121-.227.41.41,0,0,0,.012-.062A.45.45,0,0,0,67,83.5V81h42.5a.5.5,0,0,0,0-1ZM50,83H44V81h6Zm9.293,7H50.707l-6-6H65.293ZM66,83H60V81h6Zm-7,0H51V81h8Zm15.5-5a.5.5,0,0,1,0,1h-2a.5.5,0,0,1,0-1Zm-4,0a.5.5,0,0,1,0,1h-2a.5.5,0,0,1,0-1Zm8,0a.5.5,0,0,1,0,1h-2a.5.5,0,0,1,0-1Zm-16,0a.5.5,0,0,1,0,1h-2a.5.5,0,0,1,0-1Zm-4,0a.5.5,0,0,1,0,1h-2a.5.5,0,0,1,0-1Zm24,0a.5.5,0,0,1,0,1h-2a.5.5,0,0,1,0-1Zm-16,0a.5.5,0,0,1,0,1h-2a.5.5,0,0,1,0-1Zm20,0a.5.5,0,0,1,0,1h-2a.5.5,0,0,1,0-1Zm16,0a.5.5,0,0,1,0,1h-2a.5.5,0,0,1,0-1Zm-4,0a.5.5,0,0,1,0,1h-2a.5.5,0,0,1,0-1Zm-8,0a.5.5,0,0,1,0,1h-2a.5.5,0,0,1,0-1Zm4,0a.5.5,0,0,1,0,1h-2a.5.5,0,0,1,0-1Zm12,0a.5.5,0,0,1,0,1h-2a.5.5,0,0,1,0-1ZM6.5,78a.5.5,0,0,1,0,1h-2a.5.5,0,0,1,0-1Zm16,0a.5.5,0,0,1,0,1h-2a.5.5,0,0,1,0-1Zm-4,0a.5.5,0,0,1,0,1h-2a.5.5,0,0,1,0-1Zm-4,0a.5.5,0,0,1,0,1h-2a.5.5,0,0,1,0-1Zm-12,0a.5.5,0,0,1,0,1H.5a.5.5,0,0,1,0-1Zm52,0a.5.5,0,0,1,0,1h-2a.5.5,0,0,1,0-1Zm55.5.5a.5.5,0,0,1-.5.5h-1a.5.5,0,0,1,0-1h1A.5.5,0,0,1,110,78.5ZM10.5,78a.5.5,0,0,1,0,1h-2a.5.5,0,0,1,0-1Zm36,0a.5.5,0,0,1,0,1h-2a.5.5,0,0,1,0-1Zm-4,0a.5.5,0,0,1,0,1h-2a.5.5,0,0,1,0-1Zm-4,0a.5.5,0,0,1,0,1h-2a.5.5,0,0,1,0-1Zm-12,0a.5.5,0,0,1,0,1h-2a.5.5,0,0,1,0-1Zm24,0a.5.5,0,0,1,0,1h-2a.5.5,0,0,1,0-1Zm-20,0a.5.5,0,0,1,0,1h-2a.5.5,0,0,1,0-1Zm4,0a.5.5,0,0,1,0,1h-2a.5.5,0,0,1,0-1ZM48,25.5a.5.5,0,0,1,.5-.5h2a.5.5,0,0,1,0,1h-2A.5.5,0,0,1,48,25.5Zm4,0a.5.5,0,0,1,.5-.5h2a.5.5,0,0,1,0,1h-2A.5.5,0,0,1,52,25.5Zm24,0a.5.5,0,0,1,.5-.5h2a.5.5,0,0,1,0,1h-2A.5.5,0,0,1,76,25.5Zm-32,0a.5.5,0,0,1,.5-.5h2a.5.5,0,0,1,0,1h-2A.5.5,0,0,1,44,25.5Zm12,0a.5.5,0,0,1,.5-.5h2a.5.5,0,0,1,0,1h-2A.5.5,0,0,1,56,25.5Zm4,0a.5.5,0,0,1,.5-.5h2a.5.5,0,0,1,0,1h-2A.5.5,0,0,1,60,25.5Zm4,0a.5.5,0,0,1,.5-.5h2a.5.5,0,0,1,0,1h-2A.5.5,0,0,1,64,25.5Zm8,0a.5.5,0,0,1,.5-.5h2a.5.5,0,0,1,0,1h-2A.5.5,0,0,1,72,25.5Zm-32,0a.5.5,0,0,1,.5-.5h2a.5.5,0,0,1,0,1h-2A.5.5,0,0,1,40,25.5Zm40,0a.5.5,0,0,1,.5-.5h2a.5.5,0,0,1,0,1h-2A.5.5,0,0,1,80,25.5Zm8,0a.5.5,0,0,1,.5-.5h2a.5.5,0,0,1,0,1h-2A.5.5,0,0,1,88,25.5ZM28.5,25h2a.5.5,0,0,1,0,1h-2a.5.5,0,0,1,0-1Zm-4.5.5a.5.5,0,0,1,.5-.5h2a.5.5,0,0,1,0,1h-2A.5.5,0,0,1,24,25.5Zm60,0a.5.5,0,0,1,.5-.5h2a.5.5,0,0,1,0,1h-2A.5.5,0,0,1,84,25.5Zm-64,0a.5.5,0,0,1,.5-.5h2a.5.5,0,0,1,0,1h-2A.5.5,0,0,1,20,25.5Zm16,0a.5.5,0,0,1,.5-.5h2a.5.5,0,0,1,0,1h-2A.5.5,0,0,1,36,25.5Zm32,0a.5.5,0,0,1,.5-.5h2a.5.5,0,0,1,0,1h-2A.5.5,0,0,1,68,25.5Zm-36,0a.5.5,0,0,1,.5-.5h2a.5.5,0,0,1,0,1h-2A.5.5,0,0,1,32,25.5ZM68.753,3.948a.5.5,0,0,1,.569-.419q1,.154,1.987.332a.5.5,0,0,1-.089.992.57.57,0,0,1-.091-.008q-.967-.176-1.958-.328A.5.5,0,0,1,68.753,3.948Zm7.828,1.625a.5.5,0,0,1,.62-.341q.987.287,1.929.606a.5.5,0,0,1-.16.974.509.509,0,0,1-.16-.026q-.92-.312-1.888-.593A.5.5,0,0,1,76.581,5.573Zm-3.89-.935a.506.506,0,0,1,.594-.385q1,.212,1.966.454a.5.5,0,0,1-.121.985.52.52,0,0,1-.121-.015q-.948-.237-1.933-.446A.5.5,0,0,1,72.691,4.639Zm7.69,2.178a.5.5,0,0,1,.649-.28c.642.255,1.265.522,1.864.8a.5.5,0,0,1-.212.953.5.5,0,0,1-.212-.047q-.873-.409-1.81-.779A.5.5,0,0,1,80.382,6.816Zm-23.587-3.8a.5.5,0,0,1,.51-.49q1.009.021,2.009.062a.5.5,0,0,1-.021,1h-.021q-.99-.041-1.987-.062A.5.5,0,0,1,56.795,3.015Zm-15.957.993a.5.5,0,0,1,.423-.567q.986-.144,1.994-.266a.5.5,0,1,1,.121.992q-1,.122-1.971.264a.615.615,0,0,1-.073,0A.5.5,0,0,1,40.838,4.008ZM36.9,4.722a.5.5,0,0,1,.391-.59q.977-.2,1.979-.373a.489.489,0,0,1,.578.406.5.5,0,0,1-.406.578q-.989.173-1.952.369a.5.5,0,0,1-.59-.391Zm-3.882.967a.5.5,0,0,1,.347-.616q.958-.268,1.956-.5a.5.5,0,1,1,.232.973q-.979.233-1.919.5a.5.5,0,0,1-.616-.347ZM29.229,6.967a.5.5,0,0,1,.291-.645q.93-.352,1.912-.669a.5.5,0,1,1,.307.951q-.957.311-1.865.653a.513.513,0,0,1-.177.032A.5.5,0,0,1,29.229,6.967ZM25.607,8.656a.5.5,0,0,1,.207-.676c.577-.307,1.192-.605,1.83-.889a.5.5,0,1,1,.406.914c-.616.273-1.211.563-1.768.857a.493.493,0,0,1-.234.059A.5.5,0,0,1,25.607,8.656ZM48.794,3.183a.5.5,0,0,1,.471-.527q1-.056,2.011-.091a.483.483,0,0,1,.518.482.5.5,0,0,1-.482.518c-.667.023-1.33.052-1.989.089h-.028A.5.5,0,0,1,48.794,3.183Zm-3.987.32a.5.5,0,0,1,.45-.546c.661-.063,1.33-.121,2-.173a.5.5,0,1,1,.076,1q-1,.075-1.982.171l-.049,0A.5.5,0,0,1,44.807,3.5Zm15.985-.346a.481.481,0,0,1,.529-.469q1.009.062,2,.143a.5.5,0,0,1-.039,1l-.041,0q-.987-.079-1.985-.141A.5.5,0,0,1,60.792,3.157Zm-8-.135a.5.5,0,0,1,.492-.508Q54.141,2.5,55,2.5h.295a.5.5,0,0,1,0,1H55c-.567,0-1.135,0-1.7.014h-.008A.5.5,0,0,1,52.793,3.022Zm11.988.438a.491.491,0,0,1,.55-.444q1.006.105,2,.231a.5.5,0,0,1-.062,1,.476.476,0,0,1-.064,0c-.652-.084-1.312-.159-1.977-.229A.5.5,0,0,1,64.781,3.461Z"/></g></g></g></svg>