<svg xmlns="http://www.w3.org/2000/svg" width="110" height="110" viewBox="0 0 110 110"><defs><style>.cls-1{fill:#fff;}</style></defs><title>Контрасты - Платочек</title><g id="Контрасты"><g id="Платочек-2" data-name="Платочек"><g id="Цвет-73" data-name="Цвет"><path class="cls-1" d="M101.563,109.5l-.062-5.062,5-.25-.125-2.25,2-.187L101.5,10.875V8.438l-.25-5.125h-.437L100.563,1,5.75,8.375A5.55,5.55,0,0,0,.563,13.938L.438,106.125a3.418,3.418,0,0,0,3.313,3.438Z"/></g><g id="Контур-73" data-name="Контур"><path d="M102.73,22.195l-1-18.9a.5.5,0,0,0-.165-.346.47.47,0,0,0-.347-.125l-.141-1.806a.5.5,0,0,0-.537-.459L9.111,7.7l-3.4.18a5.9,5.9,0,0,0-4.025,1.89A5.9,5.9,0,0,0,0,13.875V106.25A3.755,3.755,0,0,0,3.75,110H101.5a.5.5,0,0,0,.5-.5v-4.578l4.6-.244a.5.5,0,0,0,.473-.525l-.095-1.788,1.507-.118a.5.5,0,0,0,.459-.537ZM95.875,4.1l4.675-.248a.446.446,0,0,0,.21.046l.217,4.1H96.043a.49.49,0,0,0,.15-.395ZM102,27.3l3.75,70.8-3.688.209a.485.485,0,0,0-.062.016Zm-1.781-24.43L94.8,3.161l-.1-1.144,5.425-.424ZM93.7,2.094l.1,1.119L48.97,5.588ZM96,109v-2.5a.5.5,0,0,0-1,0V109H3.75A2.753,2.753,0,0,1,1,106.25v-3.233A3.354,3.354,0,0,0,3.375,104H3.5a.5.5,0,0,0,0-1H3.375a2.39,2.39,0,0,1-2.316-1.848A.492.492,0,0,0,1,101.019V18.136a.479.479,0,0,0,.3-.269,4.529,4.529,0,0,1,2.443-2.513.5.5,0,1,0-.389-.922A5.529,5.529,0,0,0,1,16.367V13.875a4.915,4.915,0,0,1,1.414-3.419A4.912,4.912,0,0,1,5.766,8.877l2.459-.13a.467.467,0,0,0,.083.016.275.275,0,0,0,.04,0L9.165,8.7l85.711-4.54L95.2,7.7a.494.494,0,0,0,.146.3H28.5a.5.5,0,0,0,0,1H95v3.5a.5.5,0,0,0,1,0V9h5v5H97.5a.5.5,0,0,0,0,1H101v88H97.5a.5.5,0,0,0,0,1H101v5Zm6-5.08V99.292a.473.473,0,0,0,.09.017h.028L105.8,99.1l.244,4.606Zm4.924-2.554L104.84,62.032l3.067,39.257ZM60,14.5a.5.5,0,0,1-.5.5h-4a.5.5,0,0,1,0-1h4A.5.5,0,0,1,60,14.5Zm-7,0a.5.5,0,0,1-.5.5h-4a.5.5,0,0,1,0-1h4A.5.5,0,0,1,53,14.5Zm-7,0a.5.5,0,0,1-.5.5h-4a.5.5,0,0,1,0-1h4A.5.5,0,0,1,46,14.5Zm21,0a.5.5,0,0,1-.5.5h-4a.5.5,0,0,1,0-1h4A.5.5,0,0,1,67,14.5Zm7,0a.5.5,0,0,1-.5.5h-4a.5.5,0,0,1,0-1h4A.5.5,0,0,1,74,14.5Zm-49,0a.5.5,0,0,1-.5.5h-4a.5.5,0,0,1,0-1h4A.5.5,0,0,1,25,14.5Zm14,0a.5.5,0,0,1-.5.5h-4a.5.5,0,0,1,0-1h4A.5.5,0,0,1,39,14.5Zm-21,0a.5.5,0,0,1-.5.5h-4a.5.5,0,0,1,0-1h4A.5.5,0,0,1,18,14.5Zm-7,0a.5.5,0,0,1-.5.5h-4a.5.5,0,0,1,0-1h4A.5.5,0,0,1,11,14.5Zm79,0a.5.5,0,0,1,.5-.5h4a.5.5,0,0,1,0,1h-4A.5.5,0,0,1,90,14.5Zm-9,0a.5.5,0,0,1-.5.5h-4a.5.5,0,0,1,0-1h4A.5.5,0,0,1,81,14.5Zm-49,0a.5.5,0,0,1-.5.5h-4a.5.5,0,0,1,0-1h4A.5.5,0,0,1,32,14.5Zm56,0a.5.5,0,0,1-.5.5h-4a.5.5,0,0,1,0-1h4A.5.5,0,0,1,88,14.5Zm-56,89a.5.5,0,0,1-.5.5h-4a.5.5,0,0,1,0-1h4A.5.5,0,0,1,32,103.5Zm14,0a.5.5,0,0,1-.5.5h-4a.5.5,0,0,1,0-1h4A.5.5,0,0,1,46,103.5Zm-21,0a.5.5,0,0,1-.5.5h-4a.5.5,0,0,1,0-1h4A.5.5,0,0,1,25,103.5Zm14,0a.5.5,0,0,1-.5.5h-4a.5.5,0,0,1,0-1h4A.5.5,0,0,1,39,103.5Zm-28,0a.5.5,0,0,1-.5.5h-4a.5.5,0,0,1,0-1h4A.5.5,0,0,1,11,103.5Zm7,0a.5.5,0,0,1-.5.5h-4a.5.5,0,0,1,0-1h4A.5.5,0,0,1,18,103.5Zm35,0a.5.5,0,0,1-.5.5h-4a.5.5,0,0,1,0-1h4A.5.5,0,0,1,53,103.5Zm42,0a.5.5,0,0,1-.5.5h-4a.5.5,0,0,1,0-1h4A.5.5,0,0,1,95,103.5Zm-7,0a.5.5,0,0,1-.5.5h-4a.5.5,0,0,1,0-1h4A.5.5,0,0,1,88,103.5Zm-21,0a.5.5,0,0,1-.5.5h-4a.5.5,0,0,1,0-1h4A.5.5,0,0,1,67,103.5Zm-7,0a.5.5,0,0,1-.5.5h-4a.5.5,0,0,1,0-1h4A.5.5,0,0,1,60,103.5Zm14,0a.5.5,0,0,1-.5.5h-4a.5.5,0,0,1,0-1h4A.5.5,0,0,1,74,103.5Zm7,0a.5.5,0,0,1-.5.5h-4a.5.5,0,0,1,0-1h4A.5.5,0,0,1,81,103.5Zm15-60v4a.5.5,0,0,1-1,0v-4a.5.5,0,0,1,1,0Zm0,7v4a.5.5,0,0,1-1,0v-4a.5.5,0,0,1,1,0Zm0-14v4a.5.5,0,0,1-1,0v-4a.5.5,0,0,1,1,0Zm0-21v4a.5.5,0,0,1-1,0v-4a.5.5,0,0,1,1,0Zm0,7v4a.5.5,0,0,1-1,0v-4a.5.5,0,0,1,1,0Zm0,7v4a.5.5,0,0,1-1,0v-4a.5.5,0,0,1,1,0Zm0,70v4a.5.5,0,0,1-1,0v-4a.5.5,0,0,1,1,0Zm0-21v4a.5.5,0,0,1-1,0v-4a.5.5,0,0,1,1,0Zm0,7v4a.5.5,0,0,1-1,0v-4a.5.5,0,0,1,1,0Zm0,7v4a.5.5,0,0,1-1,0v-4a.5.5,0,0,1,1,0Zm0-21v4a.5.5,0,0,1-1,0v-4a.5.5,0,0,1,1,0Zm0-14v4a.5.5,0,0,1-1,0v-4a.5.5,0,0,1,1,0Zm0,7v4a.5.5,0,0,1-1,0v-4a.5.5,0,0,1,1,0Z"/></g></g></g></svg>