<svg width="50" height="50" viewBox="0 0 50 50" fill="none" xmlns="http://www.w3.org/2000/svg">
<g clip-path="url(#clip0)">
<path d="M42.2007 11.6552V10.6977C42.2007 7.97783 39.9939 5.76514 37.2813 5.76514H31.8463C31.2637 4.39336 29.9147 3.42441 28.3413 3.40166C27.72 1.43193 25.8799 0 23.7126 0C21.5454 0 19.7053 1.43193 19.084 3.40166C17.5105 3.42441 16.1616 4.39346 15.579 5.76514H10.1438C7.43135 5.76514 5.22461 7.97783 5.22461 10.6977V45.0675C5.22471 47.7873 7.43145 50 10.1439 50H37.2813C39.9939 50 42.2007 47.7873 42.2007 45.0675V43.323L43.9921 40.3086L43.9922 40.3085C44.5047 39.446 44.7755 38.4595 44.7755 37.4558V15.4286C44.7755 13.7137 43.7062 12.2443 42.2007 11.6552ZM41.4735 38.8119L40.7357 40.0533L39.998 38.812C39.775 38.4368 39.6483 38.0122 39.6285 37.577H41.8429C41.823 38.0121 41.6964 38.4368 41.4735 38.8119ZM39.6258 34.6472V19.3694H41.8458V34.6472H39.6258ZM39.6258 16.4397V15.4286C39.6258 14.8114 40.1238 14.3093 40.7358 14.3093C41.3479 14.3093 41.8458 14.8114 41.8458 15.4286V16.4397H39.6258ZM19.1407 6.33096H20.3244C21.1334 6.33096 21.7893 5.6751 21.7893 4.86611C21.7893 3.79834 22.6521 2.92969 23.7127 2.92969C24.7733 2.92969 25.6361 3.79844 25.6361 4.86611C25.6361 5.6751 26.292 6.33096 27.101 6.33096H28.2847C28.8025 6.33096 29.2238 6.75635 29.2238 7.27939C29.2238 7.80225 28.8025 8.22773 28.2847 8.22773H19.1407C18.6229 8.22773 18.2016 7.80234 18.2016 7.27939C18.2016 6.75645 18.6229 6.33096 19.1407 6.33096ZM37.2813 47.0703H10.1439C9.04688 47.0703 8.15439 46.1719 8.15439 45.0675V10.6977C8.15439 9.59326 9.04688 8.69482 10.1439 8.69482H15.5387C16.104 10.1353 17.5055 11.1574 19.1407 11.1574H28.2846C29.9198 11.1574 31.3213 10.1353 31.8866 8.69482H37.2813C38.3784 8.69482 39.271 9.59326 39.271 10.6977V11.6551C37.7654 12.2441 36.6961 13.7136 36.6961 15.4286V37.4558C36.6961 38.4595 36.9669 39.446 37.4795 40.3086L39.271 43.323V45.0675C39.271 46.1719 38.3784 47.0703 37.2813 47.0703Z" fill="#FE3D32"/>
<path d="M32.623 15.2092H14.2705C13.4615 15.2092 12.8057 15.8651 12.8057 16.6741C12.8057 17.4831 13.4615 18.1389 14.2705 18.1389H32.623C33.432 18.1389 34.0879 17.4831 34.0879 16.6741C34.0879 15.8651 33.432 15.2092 32.623 15.2092Z" fill="#FE3D32"/>
<path d="M14.2705 23.0212H28.732C29.541 23.0212 30.1969 22.3654 30.1969 21.5564C30.1969 20.7474 29.541 20.0916 28.732 20.0916H14.2705C13.4615 20.0916 12.8057 20.7474 12.8057 21.5564C12.8057 22.3654 13.4615 23.0212 14.2705 23.0212Z" fill="#FE3D32"/>
<path d="M14.2705 27.9037H30.4202C31.2292 27.9037 31.8851 27.2478 31.8851 26.4388C31.8851 25.6299 31.2292 24.974 30.4202 24.974H14.2705C13.4615 24.974 12.8057 25.6299 12.8057 26.4388C12.8057 27.2478 13.4615 27.9037 14.2705 27.9037Z" fill="#FE3D32"/>
<path d="M14.2705 32.7861H19.5818C20.3908 32.7861 21.0467 32.1303 21.0467 31.3213C21.0467 30.5123 20.3908 29.8564 19.5818 29.8564H14.2705C13.4615 29.8564 12.8057 30.5123 12.8057 31.3213C12.8057 32.1303 13.4615 32.7861 14.2705 32.7861Z" fill="#FE3D32"/>
<path d="M32.623 34.7389H14.2705C13.4615 34.7389 12.8057 35.3948 12.8057 36.2037C12.8057 37.0127 13.4615 37.6686 14.2705 37.6686H32.623C33.432 37.6686 34.0879 37.0127 34.0879 36.2037C34.0879 35.3948 33.432 34.7389 32.623 34.7389Z" fill="#FE3D32"/>
<path d="M28.732 39.6212H14.2705C13.4615 39.6212 12.8057 40.2771 12.8057 41.0861C12.8057 41.895 13.4615 42.5509 14.2705 42.5509H28.732C29.541 42.5509 30.1969 41.895 30.1969 41.0861C30.1969 40.2771 29.541 39.6212 28.732 39.6212Z" fill="#FE3D32"/>
</g>
<defs>
<clipPath id="clip0">
<rect width="50" height="50" fill="white"/>
</clipPath>
</defs>
</svg>
