<svg width="50" height="50" viewBox="0 0 50 50" fill="none" xmlns="http://www.w3.org/2000/svg">
<path d="M42.6777 7.32227C37.9558 2.60049 31.6777 0 25 0C18.3223 0 12.0442 2.60049 7.32227 7.32227C2.60049 12.0442 0 18.3223 0 25C0 31.6777 2.60049 37.9558 7.32227 42.6777C12.0442 47.3995 18.3223 50 25 50C31.6777 50 37.9558 47.3995 42.6777 42.6777C47.3995 37.9558 50 31.6777 50 25C50 18.3223 47.3995 12.0442 42.6777 7.32227ZM25 47.0703C12.8304 47.0703 2.92969 37.1696 2.92969 25C2.92969 12.8304 12.8304 2.92969 25 2.92969C37.1696 2.92969 47.0703 12.8304 47.0703 25C47.0703 37.1696 37.1696 47.0703 25 47.0703Z" fill="#FE3D32"/>
<path d="M41.0415 19.6087C40.8692 19.0784 40.4108 18.6919 39.8591 18.6117L30.4993 17.2516L26.3136 8.7703C26.0668 8.2703 25.5575 7.9538 25 7.9538C24.4425 7.9538 23.9332 8.2704 23.6864 8.7703L19.5007 17.2516L10.1409 18.6117C9.58915 18.6919 9.13075 19.0784 8.95849 19.6087C8.78612 20.139 8.92987 20.7211 9.32909 21.1102L16.1018 27.7121L14.503 37.034C14.4088 37.5835 14.6347 38.139 15.0857 38.4667C15.5369 38.7944 16.1349 38.8377 16.6284 38.5782L24.9999 34.177L33.3715 38.5782C33.5857 38.6909 33.8198 38.7465 34.053 38.7465C34.3567 38.7465 34.659 38.6521 34.9141 38.4667C35.3652 38.139 35.5912 37.5836 35.4969 37.034L33.898 27.7121L40.6708 21.1102C41.0701 20.7212 41.2138 20.1391 41.0415 19.6087ZM31.3016 26.1518C30.9564 26.4883 30.7989 26.9731 30.8804 27.4483L32.1076 34.6038L25.6815 31.2256C25.4682 31.1134 25.234 31.0573 24.9999 31.0573C24.7658 31.0573 24.5316 31.1134 24.3182 31.2256L17.8922 34.6039L19.1194 27.4484C19.2009 26.9732 19.0433 26.4884 18.6981 26.1518L13.4993 21.0843L20.6839 20.0403C21.1609 19.971 21.5734 19.6713 21.7868 19.239L24.9999 12.7285L28.2129 19.2389C28.4263 19.6712 28.8388 19.9709 29.3158 20.0402L36.5004 21.0842L31.3016 26.1518Z" fill="#FE3D32"/>
</svg>
