<svg width="53" height="53" viewBox="0 0 53 53" fill="none" xmlns="http://www.w3.org/2000/svg">
<path d="M15.1026 34.8956C15.4058 35.1988 15.8032 35.3504 16.2005 35.3504C16.5978 35.3504 16.9953 35.1989 17.2984 34.8956L18.5498 33.6442C19.4089 34.1234 20.3663 34.3645 21.3242 34.3645C22.2821 34.3645 23.2394 34.1234 24.0986 33.6442L25.35 34.8956C25.6532 35.1988 26.0506 35.3504 26.4479 35.3504C26.8452 35.3504 27.2427 35.1989 27.5458 34.8956C28.1522 34.2892 28.1522 33.3061 27.5458 32.6997L26.2944 31.4483C27.2527 29.7298 27.2527 27.6179 26.2944 25.8994L27.5458 24.648C28.1522 24.0417 28.1522 23.0586 27.5458 22.4522C26.9395 21.8458 25.9563 21.8458 25.3499 22.4522L24.0985 23.7036C22.38 22.7452 20.2681 22.7452 18.5497 23.7036L17.2983 22.4522C16.692 21.8458 15.7088 21.8458 15.1024 22.4522C14.496 23.0586 14.496 24.0417 15.1024 24.648L16.3538 25.8994C15.3954 27.6179 15.3954 29.7298 16.3538 31.4483L15.1024 32.6997C14.4962 33.3061 14.4962 34.2892 15.1026 34.8956ZM23.1542 26.8439C24.1633 27.853 24.1633 29.4948 23.1542 30.5037C22.1452 31.5127 20.5035 31.5127 19.4944 30.5037C18.4854 29.4947 18.4854 27.8529 19.4944 26.8439C19.999 26.3394 20.6617 26.0871 21.3244 26.0871C21.9871 26.0871 22.6497 26.3395 23.1542 26.8439Z" fill="#FE3D32"/>
<path d="M44.3896 10.9839L39.6319 15.7416L37.8019 13.9117C37.1956 13.3054 36.2124 13.3054 35.606 13.9117C34.9996 14.5181 34.9996 15.5012 35.606 16.1076L38.5339 19.0355C38.8371 19.3387 39.2345 19.4903 39.6318 19.4903C40.029 19.4903 40.4266 19.3388 40.7296 19.0355L46.5853 13.1798C47.1917 12.5734 47.1917 11.5903 46.5853 10.9839C45.9791 10.3775 44.9959 10.3775 44.3896 10.9839Z" fill="#FE3D32"/>
<path d="M51.4473 4.14062C49.4851 4.14062 47.7211 3.0504 46.8437 1.2956L46.6252 0.858455C46.3622 0.332285 45.8245 0 45.2363 0H36.9551C36.3669 0 35.8292 0.332285 35.5662 0.858352L35.3477 1.29539C34.4703 3.0504 32.7063 4.14062 30.7441 4.14062C29.8866 4.14062 29.1914 4.83584 29.1914 5.69336V8.48828H1.55273C0.695211 8.48828 0 9.18349 0 10.041V47.3066C0 48.1642 0.695211 48.8594 1.55273 48.8594H3.10547V51.4473C3.10547 52.3048 3.80068 53 4.6582 53H8.79883C9.387 53 9.92456 52.6677 10.1877 52.1416L11.8288 48.8594H30.8197L32.4608 52.1416C32.7239 52.6677 33.2614 53 33.8496 53H37.9902C38.8478 53 39.543 52.3048 39.543 51.4473V48.8594H41.0957C41.9532 48.8594 42.6484 48.1642 42.6484 47.3066V29.5779C45.5121 28.4912 47.9755 26.6323 49.8212 24.1515C51.9008 21.3565 53 18.0377 53 14.554V5.69336C53 4.83584 52.3048 4.14062 51.4473 4.14062ZM32.3702 24.1515C32.6742 24.5602 32.9955 24.9514 33.332 25.3257V39.543H9.31641V17.8047H29.5191C29.9869 20.0884 30.9496 22.2422 32.3702 24.1515ZM37.9902 45.7539C37.1327 45.7539 36.4375 46.4491 36.4375 47.3066V49.8945H34.8093L33.1682 46.6123C32.905 46.0862 32.3675 45.7539 31.7793 45.7539H10.8691C10.281 45.7539 9.74341 46.0862 9.48027 46.6123L7.83913 49.8945H6.21094V47.3066C6.21094 46.4491 5.51573 45.7539 4.6582 45.7539H3.10547V11.5938H29.1914V14.554C29.1914 14.6024 29.1924 14.6508 29.1929 14.6992H7.76367C6.90615 14.6992 6.21094 15.3944 6.21094 16.252V41.0957C6.21094 41.9532 6.90615 42.6484 7.76367 42.6484H34.8848C35.7423 42.6484 36.4375 41.9532 36.4375 41.0957V27.9953C37.4056 28.6308 38.4448 29.1612 39.543 29.5779V45.7539H37.9902ZM49.8945 14.554C49.8945 20.1703 46.378 25.0489 41.0957 26.8371C35.8134 25.0489 32.2969 20.1703 32.2969 14.554V7.10148C34.6468 6.65792 36.6898 5.2175 37.8997 3.10547H44.2917C45.5016 5.21739 47.5446 6.65792 49.8945 7.10148V14.554Z" fill="#FE3D32"/>
</svg>
