<svg width="50" height="50" viewBox="0 0 50 50" fill="none" xmlns="http://www.w3.org/2000/svg">
<path d="M48.5352 47.0703H46.7773V21.0938C46.7773 18.9937 45.0688 17.2852 42.9688 17.2852H38.2812C36.1812 17.2852 34.4727 18.9937 34.4727 21.0938V47.0703H31.1523V26.8181C31.1523 25.0617 29.7234 23.6328 27.9671 23.6328H22.0329C20.2766 23.6328 18.8477 25.0617 18.8477 26.8181V47.0703H15.5273V33.2011C15.5273 31.3714 14.0388 29.8828 12.2091 29.8828H6.54092C4.71123 29.8828 3.22266 31.3714 3.22266 33.2011V47.0703H1.46484C0.655859 47.0703 0 47.7262 0 48.5352C0 49.3441 0.655859 50 1.46484 50H48.5352C49.3441 50 50 49.3441 50 48.5352C50 47.7262 49.3441 47.0703 48.5352 47.0703ZM6.15234 47.0703V33.2011C6.15234 32.9868 6.32666 32.8125 6.54092 32.8125H12.2092C12.4234 32.8125 12.5978 32.9868 12.5978 33.2011V47.0703H6.15234ZM21.7773 47.0703V26.8181C21.7773 26.6771 21.892 26.5625 22.0329 26.5625H27.9671C28.108 26.5625 28.2227 26.6771 28.2227 26.8181V47.0703H21.7773ZM37.4023 47.0703V21.0938C37.4023 20.6092 37.7967 20.2148 38.2812 20.2148H42.9688C43.4533 20.2148 43.8477 20.6092 43.8477 21.0938V47.0703H37.4023Z" fill="#FE3D32"/>
<path d="M1.46777 18.75H4.27793C4.91855 20.5139 6.61113 21.7773 8.59356 21.7773C11.2046 21.7773 13.3076 19.5874 13.1775 16.9584L21.486 13.6909C24.32 17.0624 29.8056 14.8646 29.5836 10.5062L37.1159 7.54424C39.4314 10.2898 43.8332 9.43057 44.9735 6.05469H48.5328C49.3418 6.05469 49.9977 5.39883 49.9977 4.58984C49.9977 3.78086 49.3418 3.125 48.5328 3.125H44.9735C44.3606 1.31055 42.6435 0 40.6248 0C38.0138 0 35.9109 2.18975 36.0408 4.81895L28.5042 7.78262C25.6869 4.45195 20.2061 6.57822 20.4156 10.9638L12.1023 14.2331C9.7458 11.4388 5.2833 12.393 4.21172 15.8203H1.46777C0.658789 15.8203 0.00292969 16.4762 0.00292969 17.2852C0.00292969 18.0941 0.658789 18.75 1.46777 18.75ZM40.6248 2.92969C41.5402 2.92969 42.285 3.67441 42.285 4.58984C42.285 5.50527 41.5402 6.25 40.6248 6.25C39.7094 6.25 38.9646 5.50527 38.9646 4.58984C38.9646 3.67441 39.7094 2.92969 40.6248 2.92969ZM24.9998 9.08203C25.9152 9.08203 26.66 9.82676 26.66 10.7422C26.66 11.6576 25.9152 12.4023 24.9998 12.4023C24.0844 12.4023 23.3397 11.6576 23.3397 10.7422C23.3397 9.82676 24.0844 9.08203 24.9998 9.08203ZM8.59356 15.5273C9.50899 15.5273 10.2537 16.2721 10.2537 17.1875C10.2537 18.1029 9.50899 18.8477 8.59356 18.8477C7.67813 18.8477 6.9334 18.1029 6.9334 17.1875C6.9334 16.2721 7.67813 15.5273 8.59356 15.5273Z" fill="#FE3D32"/>
</svg>
