<svg width="52" height="53" viewBox="0 0 52 53" fill="none" xmlns="http://www.w3.org/2000/svg">
<g clip-path="url(#clip0)">
<path d="M6.38019 38.0225H0.0810547V53H14.9917V40.8963H8.0972L6.38019 38.0225ZM11.993 49.9047H3.07965V41.118H4.7064L6.42351 43.9917H11.993V49.9047Z" fill="#FE3D32"/>
<path d="M24.5157 38.0225H18.2166V53H33.1272V40.8963H26.2328L24.5157 38.0225ZM30.1286 49.9047H21.2152V41.118H22.842L24.5591 43.9917H30.1286V49.9047Z" fill="#FE3D32"/>
<path d="M44.3682 40.8963L42.6512 38.0226H36.3521V53H51.2627V40.8963H44.3682ZM48.2641 49.9047H39.3507V41.118H40.9775L42.6945 43.9917H48.2641V49.9047Z" fill="#FE3D32"/>
<path d="M9.03556 30.3257H24.1724V34.701H27.171V30.3257H42.3079V34.701H45.3065V27.2304H27.171V20.548H35.1984C38.384 20.548 40.9758 17.8642 40.9758 14.5655C40.9758 11.7752 39.1098 9.42634 36.5982 8.77864C36.1494 6.48556 34.1822 4.75375 31.8304 4.75375C31.6331 4.75375 31.4376 4.76576 31.2445 4.78967C30.7603 2.06855 28.4456 0 25.6717 0C22.8979 0 20.5831 2.06855 20.0989 4.78956C19.9059 4.76576 19.7102 4.75364 19.513 4.75364C17.1612 4.75364 15.194 6.48546 14.7452 8.77854C12.2338 9.42613 10.3677 11.7751 10.3677 14.5654C10.3677 17.8641 12.9593 20.5479 16.1451 20.5479H24.1724V27.2303H6.03687V34.7009H9.03546V30.3257H9.03556ZM16.1451 17.4525C14.6129 17.4525 13.3664 16.1574 13.3664 14.5654C13.3664 12.9838 14.6129 11.697 16.1451 11.697H17.7466C17.6243 11.3741 17.5564 11.023 17.5564 10.6553C17.5564 9.07501 18.7974 7.794 20.3283 7.794C21.6092 7.794 22.6866 8.69107 23.0045 9.90965V5.84853C23.0045 4.33047 24.201 3.09543 25.6716 3.09543C27.1423 3.09543 28.3388 4.33047 28.3388 5.84853V9.90976C28.6567 8.69117 29.7341 7.79411 31.015 7.79411C32.5459 7.79411 33.787 9.07511 33.787 10.6554C33.787 11.0231 33.7191 11.3741 33.5967 11.6971H35.1984C36.7306 11.6971 37.9771 12.9839 37.9771 14.5655C37.9771 16.1574 36.7306 17.4526 35.1984 17.4526H16.1451V17.4525Z" fill="#FE3D32"/>
</g>
<defs>
<clipPath id="clip0">
<rect width="51.3438" height="53" fill="white"/>
</clipPath>
</defs>
</svg>
