<?xml version="1.0" encoding="utf-8"?>
<!-- Generator: Adobe Illustrator 23.1.0, SVG Export Plug-In . SVG Version: 6.00 Build 0)  -->
<svg version="1.1" id="Слой_1" xmlns="http://www.w3.org/2000/svg" xmlns:xlink="http://www.w3.org/1999/xlink" x="0px" y="0px"
	 viewBox="0 0 382.8 76.4" style="enable-background:new 0 0 382.8 76.4;" xml:space="preserve">
<style type="text/css">
	.st0{fill:#D72D24;}
</style>
<title>logo</title>
<path class="st0" d="M31.8,47.1l-4-3c0,0.1,0,0.3,0,0.4c0,3.4,2.8,6.1,6.1,6.1s6.1-2.8,6.1-6.1c0-3.4-2.7-6.1-6.1-6.1
	c-0.6,0-1.2,0.1-1.8,0.3l3.9,3c1.5,1.2,1.8,3.3,0.7,4.8C35.5,48,33.3,48.3,31.8,47.1L31.8,47.1z"/>
<path class="st0" d="M36.3,1.7C16.2,1.7,0,18,0,38c0,3.8,0.6,7.6,1.8,11.3l18.8-19.4l9,6.8c2.4-1.4,5.3-1.5,7.8-0.5L49,24.7
	l-3.8-3.8l17.3-4.6l-4.7,17.3l-4-4L42.2,41.2c0.4,1,0.6,2.1,0.6,3.3c0,4.9-4,8.9-8.9,8.9s-8.9-4-8.9-8.9c0-0.8,0.1-1.5,0.3-2.3
	l-4.1-3.1l-16.4,17c10,17.4,32.2,23.3,49.5,13.3s23.3-32.2,13.3-49.5C61.2,8.6,49.2,1.7,36.3,1.7z"/>
<path d="M92.9,16.2h19.7c6.1,0,10.7,0.8,13.8,2.5c3.1,1.7,4.6,4.4,4.6,8.4c0,6-3.6,9.6-10.9,10.8V38c8.8,1.1,13.2,4.9,13.2,11.5
	c0,4.8-1.8,8.2-5.4,10.1c-3.6,1.9-8.8,2.9-15.6,2.9H92.9v-1.3h4.3V17.4h-4.3V16.2z M110.1,17.4v20.3h1.7c2.3,0,3.9-0.7,4.8-2.1
	c0.9-1.4,1.4-3.5,1.4-6.4v-3.1c0-3.3-0.4-5.5-1.2-6.8c-0.8-1.3-2.3-1.9-4.6-1.9H110.1z M110.1,39v22.1h3.1c2.4,0,4.1-0.8,5.1-2.5
	c1-1.7,1.5-4.1,1.5-7.4v-3.5c0-2.9-0.6-5.1-1.8-6.5c-1.2-1.5-3.3-2.2-6.3-2.2H110.1z"/>
<path d="M140.5,58.8c-2.8-2.8-4.2-6.9-4.2-12.1c0-5.3,1.5-9.3,4.5-12.2c3-2.8,7.3-4.3,12.7-4.3c5.5,0,9.5,1.3,12.2,3.9
	c2.7,2.6,4,6.6,4,12c0,11.2-5.6,16.8-16.8,16.8C147.5,63.1,143.4,61.7,140.5,58.8z M157.1,49.4v-5.6c0-4.3-0.2-7.4-0.7-9.3
	s-1.5-2.9-3.2-2.9c-1,0-1.8,0.3-2.3,0.8c-0.6,0.6-1,1.5-1.3,2.7c-0.4,2-0.6,5-0.6,9v5.2c0,4.8,0.1,7.7,0.4,8.7
	c0.3,1,0.6,1.8,0.9,2.4c0.5,1.1,1.4,1.6,2.8,1.6c1.7,0,2.8-1,3.4-3C156.9,57.5,157.1,54.3,157.1,49.4z"/>
<path d="M176.4,53V32.2h-3.6V31h3.6v-8.5l12.3-3V31h8.6v1.2h-8.6v22.3c0,2.1,0.2,3.6,0.6,4.6c0.4,1,1.3,1.5,2.6,1.5s2.5-0.7,3.5-2
	c1-1.3,1.6-3.1,1.9-5.4l1.1,0.1c-0.4,3-1.3,5.4-2.9,7.2c-1.6,1.8-4.2,2.7-7.9,2.7c-3.7,0-6.5-0.7-8.4-2.2
	C177.4,59.4,176.4,56.8,176.4,53z"/>
<path d="M201.5,31h16.2v30.2h3.7v1.2h-19.6v-1.2h3.6V32.2h-3.9V31z M211.5,26.4c-2.3,0-4-0.6-5-1.8S205,22,205,20.2
	c0-1.8,0.5-3.2,1.6-4.4c1.1-1.1,2.7-1.7,4.9-1.7c2.2,0,3.9,0.5,5,1.6c1.1,1,1.7,2.5,1.7,4.4s-0.6,3.4-1.7,4.6
	C215.5,25.9,213.8,26.4,211.5,26.4z"/>
<path d="M224.4,31h15.9v6.1c0.7-2,1.8-3.7,3.2-4.9c1.5-1.2,3.7-1.8,6.6-1.8c6.8,0,10.2,3.7,10.2,11v19.9h3.7v1.2h-18.7v-1.2h2.7
	V39.8c0-2.6-0.2-4.3-0.5-5.1c-0.4-0.8-1-1.2-1.9-1.2c-1.4,0-2.7,0.9-3.7,2.8c-1.1,1.8-1.6,4.1-1.6,6.7v18.2h2.8v1.2h-18.8v-1.2h3.6
	V32.2h-3.6V31z"/>
<path d="M288.8,62.4l-0.7-4.6c-1.5,3.5-4.5,5.3-9.1,5.3c-3.8,0-6.7-1.4-8.8-4.1c-2.1-2.7-3.1-6.8-3.1-12.2c0-11,4.4-16.4,13.1-16.4
	c3.9,0,6.4,1.1,7.7,3.2V14.1h-4v-1.2h16.5v48.3h3.2v1.2H288.8z M280.5,58c0.5,1.5,1.4,2.3,2.7,2.3c1.3,0,2.4-0.6,3.4-1.7
	c0.9-1.1,1.4-2.8,1.4-5.1V39c0-1.9-0.4-3.5-1.1-4.8c-0.7-1.3-1.8-2-3.3-2c-1.5,0-2.4,1-3,2.9s-0.8,5.3-0.8,10.2v3.4
	C279.8,53.4,280,56.4,280.5,58z"/>
<path d="M310.8,58.7c-2.8-2.9-4.3-7-4.3-12.2s1.6-9.2,4.8-12c3.2-2.8,7.3-4.2,12.2-4.2c10,0,14.8,5,14.4,15.1h-18.6V48
	c0,4.3,0.5,7.6,1.7,9.8c1.1,2.2,3,3.3,5.7,3.3c5.1,0,8.5-2.7,10-8.2l1.2,0.2c-0.8,3.2-2.3,5.6-4.5,7.4c-2.2,1.8-5.4,2.6-9.8,2.6
	C317.9,63.1,313.6,61.6,310.8,58.7z M319.3,44.1h6.8v-3.2c0-3.6-0.2-6-0.6-7.3c-0.4-1.3-1.3-1.9-2.5-1.9c-1.3,0-2.2,0.7-2.8,2.1
	c-0.6,1.4-0.9,3.8-0.9,7.2V44.1z"/>
<path d="M365.1,42.9l7.8-10.8h-4.8V31h9.8v1.2h-3.4L366,44.3l10.8,16.9h3.4v1.2h-22.1v-1.2h4.7l-7.3-11.9L348,61.2h4.4v1.2H342v-1.2
	h4.4l8.4-13.2l-10-15.8h-3.8V31h22.3v1.2h-4.6L365.1,42.9z"/>
</svg>
