<svg width="22" height="22" viewBox="0 0 22 22" fill="none" xmlns="http://www.w3.org/2000/svg">
<path fill-rule="evenodd" clip-rule="evenodd" d="M14.4375 11C14.4375 11.1823 14.3651 11.3572 14.2361 11.4861C14.1072 11.6151 13.9323 11.6875 13.75 11.6875L6.875 11.6875C6.69266 11.6875 6.51779 11.6151 6.38886 11.4861C6.25993 11.3572 6.1875 11.1823 6.1875 11C6.1875 10.8177 6.25993 10.6428 6.38886 10.5139C6.51779 10.3849 6.69266 10.3125 6.875 10.3125L13.75 10.3125C13.9323 10.3125 14.1072 10.3849 14.2361 10.5139C14.3651 10.6428 14.4375 10.8177 14.4375 11Z" fill="#D72D24"/>
<path fill-rule="evenodd" clip-rule="evenodd" d="M15.6117 10.5131C15.6758 10.577 15.7266 10.6529 15.7612 10.7364C15.7959 10.8199 15.8137 10.9095 15.8137 10.9999C15.8137 11.0903 15.7959 11.1799 15.7612 11.2634C15.7266 11.3469 15.6758 11.4228 15.6117 11.4866L11.4867 15.6116C11.3576 15.7407 11.1826 15.8133 11 15.8133C10.8174 15.8133 10.6423 15.7407 10.5132 15.6116C10.3841 15.4825 10.3116 15.3075 10.3116 15.1249C10.3116 14.9423 10.3841 14.7672 10.5132 14.6381L14.1529 10.9999L10.5132 7.36164C10.4493 7.29772 10.3986 7.22184 10.364 7.13832C10.3294 7.0548 10.3116 6.96529 10.3116 6.87489C10.3116 6.78449 10.3294 6.69498 10.364 6.61146C10.3986 6.52795 10.4493 6.45206 10.5132 6.38814C10.5772 6.32422 10.653 6.27352 10.7366 6.23892C10.8201 6.20433 10.9096 6.18652 11 6.18652C11.0904 6.18652 11.1799 6.20433 11.2634 6.23892C11.3469 6.27352 11.4228 6.32422 11.4867 6.38814L15.6117 10.5131Z" fill="#D72D24"/>
</svg>
