<svg width="62" height="68" viewBox="0 0 62 68" fill="none" xmlns="http://www.w3.org/2000/svg">
<path d="M0 3C0 1.34314 1.34315 0 3 0H39L54 15V65C54 66.6569 52.6569 68 51 68H3C1.34315 68 0 66.6569 0 65V3Z" fill="#F2F2F2"/>
<rect x="21" y="30" width="41" height="26" rx="6" fill="#D72D24"/>
<path d="M31.5332 44.4932V48H29.4824V38.0469H33.3652C34.1126 38.0469 34.7689 38.1836 35.334 38.457C35.9036 38.7305 36.3411 39.1201 36.6465 39.626C36.9518 40.1273 37.1045 40.6992 37.1045 41.3418C37.1045 42.3171 36.7695 43.0872 36.0996 43.6523C35.4342 44.2129 34.5114 44.4932 33.3311 44.4932H31.5332ZM31.5332 42.832H33.3652C33.9076 42.832 34.32 42.7044 34.6025 42.4492C34.8896 42.194 35.0332 41.8294 35.0332 41.3555C35.0332 40.8678 34.8896 40.4736 34.6025 40.1729C34.3154 39.8721 33.9189 39.7171 33.4131 39.708H31.5332V42.832ZM38.5195 48V38.0469H41.582C42.457 38.0469 43.2386 38.2451 43.9268 38.6416C44.6195 39.0335 45.1595 39.5941 45.5469 40.3232C45.9342 41.0479 46.1279 41.8727 46.1279 42.7979V43.2559C46.1279 44.181 45.9365 45.0036 45.5537 45.7236C45.1755 46.4437 44.64 47.002 43.9473 47.3984C43.2546 47.7949 42.473 47.9954 41.6025 48H38.5195ZM40.5703 39.708V46.3525H41.5615C42.3636 46.3525 42.9766 46.0905 43.4004 45.5664C43.8242 45.0423 44.0407 44.2926 44.0498 43.3174V42.791C44.0498 41.7793 43.8402 41.0137 43.4209 40.4941C43.0016 39.9701 42.3887 39.708 41.582 39.708H40.5703ZM53.6133 43.9326H49.6758V48H47.625V38.0469H54.1055V39.708H49.6758V42.2783H53.6133V43.9326Z" fill="white"/>
<path d="M39 15V0L54 15H39Z" fill="#CFCFCF"/>
</svg>
