<svg width="60" height="60" viewBox="0 0 60 60" fill="none" xmlns="http://www.w3.org/2000/svg">
<path d="M58.8165 28.8408C58.1693 28.8408 57.6447 29.3654 57.6447 30.0125C57.6442 37.2123 54.8891 44.0307 49.8867 49.2118C44.7571 54.5249 37.8656 57.5222 30.4815 57.6518C30.3147 57.6548 30.1495 57.6563 29.9831 57.6562C22.7838 57.6559 15.9849 54.9121 10.792 49.8982C1.01183 40.4555 -0.413642 25.0648 7.43817 14.017C8.0936 14.3406 8.83059 14.5233 9.60966 14.5233C12.3235 14.5233 14.5314 12.3155 14.5314 9.60158C14.5314 6.88763 12.3236 4.67981 9.60966 4.67981C6.89571 4.67981 4.68789 6.88763 4.68789 9.60158C4.68789 10.686 5.04121 11.689 5.6377 12.5033C1.46652 18.2932 -0.495673 25.4163 0.112765 32.5635C0.727766 39.7875 3.94222 46.5427 9.16411 51.5843C14.7977 57.0235 22.1718 59.9999 29.982 59.9999C30.162 59.9999 30.3423 59.9983 30.5226 59.9951C38.5326 59.8545 46.0083 56.6031 51.5728 50.8397C56.9993 45.2193 59.988 37.8228 59.9884 30.0126C59.9883 29.3655 59.4638 28.8408 58.8165 28.8408ZM9.60977 7.02356C11.0314 7.02356 12.1878 8.18009 12.1878 9.60158C12.1878 11.0232 11.0313 12.1796 9.60977 12.1796C8.18817 12.1796 7.03176 11.0231 7.03176 9.60158C7.03176 8.18009 8.18817 7.02356 9.60977 7.02356Z" fill="white"/>
<path d="M51.2759 28.8756H31.1202V8.71985C31.1202 8.07274 30.5955 7.54797 29.9483 7.54797C17.5421 7.54809 7.44897 17.6414 7.44897 30.0474C7.44897 35.1978 9.23386 40.2319 12.4749 44.2225C15.6691 48.1553 20.137 50.922 25.0557 52.013C25.6877 52.1533 26.3134 51.7546 26.4535 51.1226C26.5937 50.4907 26.195 49.865 25.5633 49.7248C16.4251 47.698 9.79261 39.4224 9.79261 30.0474C9.79261 19.3271 18.206 10.5345 28.7764 9.92536V30.0474C28.7764 30.6945 29.3011 31.2193 29.9483 31.2193H50.0703C49.5398 40.4232 42.7995 48.1651 33.6526 49.8638C33.0163 49.982 32.5962 50.5936 32.7144 51.2299C32.8192 51.794 33.3116 52.1881 33.8653 52.1881C33.9362 52.1881 34.0083 52.1815 34.0806 52.1681C44.7232 50.1918 52.4477 40.8887 52.4477 30.0474C52.4477 29.4003 51.923 28.8756 51.2759 28.8756Z" fill="white"/>
<path d="M29.9977 50.2031H29.9482C29.301 50.2031 28.7764 50.7279 28.7764 51.375C28.7764 52.0221 29.301 52.5469 29.9482 52.5469H29.9977C30.6449 52.5469 31.1696 52.0221 31.1696 51.375C31.1696 50.7279 30.6449 50.2031 29.9977 50.2031Z" fill="white"/>
<path d="M55.7776 10.99C56.7315 10.0917 57.3289 8.81896 57.3289 7.40837C57.3289 4.69454 55.1211 2.48661 52.4071 2.48661C49.6932 2.48661 47.4854 4.69442 47.4854 7.40837C47.4854 10.1223 49.6932 12.3301 52.4071 12.3301C52.866 12.3301 53.3098 12.2657 53.7316 12.1477C56.0793 15.5721 57.4116 19.5188 57.6226 23.6699H36.3258V21.3263H44.1772C44.8244 21.3263 45.349 20.8015 45.349 20.1544C45.349 19.5073 44.8244 18.9825 44.1772 18.9825H36.3258V2.37352C38.5653 2.48813 40.7568 2.93157 42.8554 3.69598C43.4638 3.91782 44.136 3.60411 44.3576 2.99602C44.5791 2.38793 44.2658 1.71528 43.6577 1.49379C40.9363 0.502618 38.0753 0 35.1541 0C34.5068 0 33.9822 0.524767 33.9822 1.17188V24.8418C33.9822 25.489 34.5068 26.0137 35.1541 26.0137H58.824C59.4712 26.0137 59.9959 25.4889 59.9959 24.8418C59.9957 19.8531 58.5405 15.0894 55.7776 10.99ZM52.407 9.98662C50.9854 9.98662 49.829 8.8301 49.829 7.40861C49.829 5.987 50.9855 4.8306 52.407 4.8306C53.8285 4.8306 54.985 5.98712 54.985 7.40861C54.9851 8.8301 53.8286 9.98662 52.407 9.98662Z" fill="white"/>
<path d="M49.3415 19.326C49.1235 19.1081 48.8211 18.9827 48.5129 18.9827C48.2047 18.9827 47.9024 19.1079 47.6844 19.326C47.4665 19.544 47.3411 19.8463 47.3411 20.1545C47.3411 20.4627 47.4665 20.7651 47.6844 20.9829C47.9024 21.2009 48.2047 21.3264 48.5129 21.3264C48.8211 21.3263 49.1235 21.2009 49.3415 20.9829C49.5594 20.7651 49.6848 20.4627 49.6848 20.1545C49.6848 19.8463 49.5594 19.544 49.3415 19.326Z" fill="white"/>
</svg>
