<?xml version="1.0" encoding="utf-8"?>
<!-- Generator: Adobe Illustrator 21.0.2, SVG Export Plug-In . SVG Version: 6.00 Build 0)  -->
<svg version="1.1" id="Слой_1" xmlns="http://www.w3.org/2000/svg" xmlns:xlink="http://www.w3.org/1999/xlink" x="0px" y="0px"
	 viewBox="0 0 19 25" style="enable-background:new 0 0 19 25;" xml:space="preserve">
<style type="text/css">
	.st0{fill:#FFFFFF;stroke:#FFFFFF;stroke-width:0.5;stroke-miterlimit:10;}
</style>
<g>
	<g>
		<path class="st0" d="M9.5,23.9l-0.4-0.6C8.8,22.9,1.8,12.8,1.8,8.7c0-4.2,3.4-7.7,7.7-7.7s7.7,3.4,7.7,7.7c0,4.1-7,14.2-7.3,14.6
			L9.5,23.9z M9.5,2C5.8,2,2.8,5,2.8,8.7C2.8,12,8,20,9.5,22.2C11,20,16.2,12,16.2,8.7C16.2,5,13.2,2,9.5,2z"/>
	</g>
	<g>
		<path class="st0" d="M9.5,12.1c-1.9,0-3.3-1.5-3.3-3.3s1.5-3.3,3.3-3.3s3.3,1.5,3.3,3.3S11.4,12.1,9.5,12.1z M9.5,6.3
			c-1.3,0-2.4,1.1-2.4,2.4c0,1.3,1.1,2.4,2.4,2.4s2.4-1.1,2.4-2.4S10.8,6.3,9.5,6.3z"/>
	</g>
</g>
</svg>
