<?xml version="1.0" encoding="utf-8"?>
<!-- Generator: Adobe Illustrator 23.0.3, SVG Export Plug-In . SVG Version: 6.00 Build 0)  -->
<svg version="1.0" id="Слой_1" xmlns="http://www.w3.org/2000/svg" xmlns:xlink="http://www.w3.org/1999/xlink" x="0px" y="0px"
	 viewBox="0 0 48 48" enable-background="new 0 0 48 48" xml:space="preserve" width="48px">
<g>
	<path fill="#B1B2B3" d="M28.5,24c0-2.47-2.02-4.48-4.5-4.48s-4.5,2.01-4.5,4.48c0,2.47,2.02,4.48,4.5,4.48S28.5,26.48,28.5,24
		 M32.88,16.89c0,0.45-0.18,0.9-0.51,1.22c-0.32,0.32-0.77,0.5-1.22,0.5c-0.45,0-0.9-0.19-1.22-0.5c-0.32-0.32-0.51-0.77-0.51-1.22
		c0-0.46,0.18-0.9,0.51-1.22c0.32-0.32,0.77-0.5,1.22-0.5c0.46,0,0.9,0.18,1.22,0.5C32.7,15.99,32.88,16.44,32.88,16.89 M30.86,24
		c0,3.77-3.08,6.84-6.86,6.84c-3.78,0-6.86-3.07-6.86-6.84c0-3.77,3.08-6.84,6.86-6.84C27.78,17.16,30.86,20.23,30.86,24
		 M34.95,29.95L34.95,29.95l0-11.89c0-2.74-2.24-4.97-4.98-4.97H18.04c-2.75,0-4.98,2.23-4.98,4.97v11.89
		c0,2.74,2.24,4.97,4.98,4.97h11.93C32.71,34.92,34.95,32.69,34.95,29.95 M37.31,29.95c0,4.04-3.29,7.32-7.35,7.32H18.04
		c-4.05,0-7.35-3.29-7.35-7.32V18.05c0-4.03,3.3-7.32,7.35-7.32h11.93c4.05,0,7.35,3.29,7.35,7.32V29.95z M46.82,24
		C46.82,11.44,36.6,1.25,24,1.25C11.4,1.25,1.18,11.44,1.18,24C1.18,36.56,11.4,46.75,24,46.75C36.6,46.75,46.82,36.56,46.82,24"/>
</g>
</svg>
