<?xml version="1.0" encoding="utf-8"?>
<!-- Generator: Adobe Illustrator 23.0.3, SVG Export Plug-In . SVG Version: 6.00 Build 0)  -->
<svg version="1.0" id="Слой_1" xmlns="http://www.w3.org/2000/svg" xmlns:xlink="http://www.w3.org/1999/xlink" x="0px" y="0px"
	 viewBox="0 0 48 48" enable-background="new 0 0 48 48" xml:space="preserve" width="48px">
<path fill="#B1B2B3" d="M32.55,27.02c0.3,0.42,1.29,1.26,1.95,2.05c1.22,1.38,2.14,2.53,2.39,3.33c0.23,0.8-0.17,1.2-0.98,1.2h-2.84
	c-1.08,0-1.4-0.86-3.32-2.78c-1.68-1.63-2.4-1.84-2.82-1.84c-0.57,0-0.74,0.17-0.74,0.98v2.53c0,0.7-0.22,1.11-2.03,1.11
	c-3.01,0-6.31-1.83-8.65-5.19C12,23.47,11.03,19.75,11.03,19c0-0.42,0.16-0.81,0.97-0.81h2.84c0.73,0,1,0.33,1.27,1.11
	c1.39,4.05,3.73,7.58,4.69,7.58c0.36,0,0.53-0.17,0.53-1.08v-4.19c-0.1-1.92-1.13-2.08-1.13-2.77c0-0.31,0.27-0.66,0.72-0.66h4.46
	c0.6,0,0.81,0.33,0.81,1.05v5.63c0,0.59,0.26,0.81,0.44,0.81c0.36,0,0.66-0.22,1.32-0.88C30,22.52,31.44,19,31.44,19
	c0.18-0.42,0.51-0.81,1.23-0.81h2.84c0.86,0,1.04,0.45,0.86,1.05c-0.36,1.66-3.82,6.53-3.82,6.53
	C32.25,26.23,32.13,26.48,32.55,27.02 M46.75,24C46.75,11.44,36.56,1.25,24,1.25S1.25,11.44,1.25,24S11.44,46.75,24,46.75
	S46.75,36.56,46.75,24"/>
</svg>
