<?xml version="1.0" encoding="utf-8"?>
<!-- Generator: Adobe Illustrator 23.0.3, SVG Export Plug-In . SVG Version: 6.00 Build 0)  -->
<svg version="1.1" id="Capa_1" xmlns="http://www.w3.org/2000/svg" xmlns:xlink="http://www.w3.org/1999/xlink" x="0px" y="0px"
	 viewBox="0 0 219.151001 219.151001" style="enable-background:new 0 0 219.151001 219.151001;" xml:space="preserve">
<g>
	<path d="M109.5759964,219.151001c60.4189987,0,109.5729904-49.1560059,109.5729904-109.5759964
		C219.1490021,49.1559982,169.9949951,0,109.5759964,0S0.002,49.1559982,0.002,109.5749969
		C0.002,169.9949951,49.1570015,219.151001,109.5759964,219.151001z M109.5759964,15
		c52.1480026,0,94.5729904,42.4259987,94.5739975,94.5749969c0,52.1490021-42.4250031,94.5749969-94.5739975,94.576004
		c-52.1479988-0.0010071-94.572998-42.427002-94.572998-94.5770035C15.0030003,57.4269981,57.4280014,15,109.5759964,15z"/>
	<path d="M94.8610001,156.5070038c2.9290009,2.9279938,7.6780014,2.927002,10.6060028,0
		c2.9300003-2.9299927,2.9300003-7.6779938-0.0009995-10.6080017l-28.8199997-28.8190002l83.4569931-0.0080032
		c4.1419983-0.0009995,7.4989929-3.3580017,7.4989929-7.5019989c-0.0010071-4.1419983-3.3580017-7.4980011-7.5-7.4980011
		l-83.4599991,0.0080032l28.8270035-28.8249969c2.9290009-2.9290009,2.9290009-7.6790009,0-10.6070023
		c-1.4649963-1.4640007-3.3840027-2.1969986-5.3040009-2.1969986c-1.9189987,0-3.8379974,0.7330017-5.3030014,2.1959991
		l-41.6290016,41.6279984c-1.4070015,1.4059982-2.1969986,3.3130035-2.1969986,5.3030014
		c0.0009995,1.9899979,0.7910004,3.8959961,2.1980019,5.3050003L94.8610001,156.5070038z"/>
</g>
</svg>
