<?xml version="1.0" encoding="utf-8"?>
<!-- Generator: Adobe Illustrator 23.0.3, SVG Export Plug-In . SVG Version: 6.00 Build 0)  -->
<svg version="1.1" id="Capa_1" xmlns="http://www.w3.org/2000/svg" xmlns:xlink="http://www.w3.org/1999/xlink" x="0px" y="0px"
	 viewBox="0 0 512 512" style="enable-background:new 0 0 512 512;" xml:space="preserve">
<g>
	<g>
		<g>
			<circle cx="386" cy="210" r="20"/>
			<path d="M432,40h-26V20c0-11.0459995-8.95401-20-20-20s-20,8.9540005-20,20v20h-91V20c0-11.0459995-8.95401-20-20-20
				c-11.0460052,0-20,8.9540005-20,20v20h-90V20c0-11.0459995-8.9539948-20-20-20s-20,8.9540005-20,20v20H80
				C35.8880005,40,0,75.8880005,0,120v312c0,44.1119995,35.8880005,80,80,80h153c11.0460052,0,20-8.95401,20-20s-8.9539948-20-20-20
				H80c-22.0559998,0-40-17.9440002-40-40V120c0-22.0559998,17.9440002-40,40-40h25v20c0,11.0459976,8.9540024,20,20,20
				s20-8.9540024,20-20V80h90v20c0,11.0459976,8.9539948,20,20,20c11.0460205,0,20-8.9540024,20-20V80h91v20
				c0,11.0459976,8.95401,20,20,20s20-8.9540024,20-20V80h26c22.0559998,0,40,17.9440002,40,40v114c0,11.0460052,8.95401,20,20,20
				s20-8.9539948,20-20V120C512,75.8880005,476.1119995,40,432,40z"/>
			<path d="M391,270c-66.7200012,0-121,54.2799988-121,121s54.2799988,121,121,121s121-54.2799988,121-121S457.7200012,270,391,270z
				 M391,472c-44.6629944,0-81-36.3359985-81-81s36.3370056-81,81-81s81,36.3359985,81,81S435.6629944,472,391,472z"/>
			<path d="M420,371h-9v-21c0-11.04599-8.95401-20-20-20s-20,8.95401-20,20v41c0,11.04599,8.95401,20,20,20h29
				c11.04599,0,20-8.95401,20-20S431.04599,371,420,371z"/>
			<circle cx="299" cy="210" r="20"/>
			<circle cx="212" cy="297" r="20"/>
			<circle cx="125" cy="210" r="20"/>
			<circle cx="125" cy="297" r="20"/>
			<circle cx="125" cy="384" r="20"/>
			<circle cx="212" cy="384" r="20"/>
			<circle cx="212" cy="210" r="20"/>
		</g>
	</g>
</g>
</svg>
