<?xml version="1.0" encoding="utf-8"?>
<!-- Generator: Adobe Illustrator 23.0.3, SVG Export Plug-In . SVG Version: 6.00 Build 0)  -->
<svg version="1.1" id="Capa_1" xmlns="http://www.w3.org/2000/svg" xmlns:xlink="http://www.w3.org/1999/xlink" x="0px" y="0px"
	 viewBox="0 0 511.6260071 511.6270142" style="enable-background:new 0 0 511.6260071 511.6270142;" xml:space="preserve">
<g>
	<path d="M477.3640137,127.4810028C454.5250244,99.4090042,423.5,77.2330017,384.2920227,60.9589996
		S302.256012,36.5489998,255.8130188,36.5489998c-46.4420013,0-89.2689972,8.1359978-128.4779968,24.4099998
		s-70.2330017,38.4459991-93.0739975,66.5220032C11.4189997,155.5549927,0,186.1499939,0,219.2689972
		c0,28.548996,8.6099997,55.298996,25.8369999,80.2320099C43.0639992,324.4349976,66.6149979,345.375,96.5009995,362.3139954
		c-2.0960007,7.6109924-4.5699997,14.8420105-7.4260025,21.7000122c-2.8550034,6.8510132-5.423996,12.4670105-7.7080002,16.8470154
		c-2.2860031,4.3739929-5.3759995,9.230011-9.2809982,14.5549927c-3.8990021,5.3320007-6.848999,9.0929871-8.8479996,11.2829895
		c-1.9970016,2.1900024-5.2799988,5.8009949-9.8509979,10.8479919c-4.5649986,5.0409851-7.5169983,8.3299866-8.8479996,9.8529968
		c-0.1930008,0.0969849-0.9529991,0.947998-2.2849998,2.5740051c-1.3310013,1.6149902-1.9990005,2.4190063-1.9990005,2.4190063
		l-1.7130013,2.5700073c-0.9529991,1.4200134-1.3810005,2.3269958-1.2869987,2.7030029
		c0.0960007,0.3840027-0.0940018,1.3349915-0.5699997,2.8540039c-0.4770012,1.526001-0.4280014,2.6690063,0.1419983,3.4289856
		v0.2869873c0.762001,3.2340088,2.2830009,5.8529968,4.5670013,7.8510132
		c2.2840004,1.9920044,4.8579979,2.9909973,7.7099991,2.9909973h1.4290009
		c12.375-1.526001,23.2229958-3.6130066,32.5480003-6.2789917c49.8700027-12.7510071,93.6490097-35.7820129,131.3340149-69.0939941
		c14.2740021,1.5230103,28.0740051,2.2829895,41.3959961,2.2829895c46.4419861,0,89.2709961-8.1350098,128.4790039-24.4140015
		c39.2080078-16.276001,70.2330017-38.4440002,93.071991-66.5169983
		C500.2049866,282.9850159,511.625,252.3870087,511.625,219.2680054
		C511.6260071,186.154007,500.2070007,155.5549927,477.3640137,127.4810028z M445.243988,292.0750122
		c-19.8959961,22.4559937-46.7330017,40.303009-80.5169983,53.5289917
		c-33.7839966,13.2229919-70.0930176,19.8420105-108.92099,19.8420105c-11.6089935,0-23.9799957-0.7600098-37.1130066-2.2860107
		l-16.2740021-1.7080078l-12.2769928,10.8519897c-23.4080048,20.5580139-49.5820007,36.82901-78.5130005,48.8210144
		c8.7539978-15.4140015,15.4160004-31.7850037,19.9859924-49.1019897l7.7080078-27.4119873l-24.8379974-14.269989
		c-24.7440033-14.0929871-43.9179993-30.7929993-57.5299988-50.1139832
		c-13.6100006-19.3150024-20.4120026-39.6380005-20.4120026-60.9539948c0-26.0769958,9.9449997-50.3430023,29.8339996-72.8029938
		c19.8950043-22.4580002,46.7290039-40.3030014,80.5149994-53.5309982
		c33.7859955-13.2289963,70.0889893-19.848999,108.9199982-19.848999c38.8279877,0,75.1299896,6.6169968,108.9140167,19.8450012
		c33.7829895,13.2289963,60.6199951,31.072998,80.5169983,53.5309982
		c19.8899841,22.4599915,29.8340149,46.727005,29.8340149,72.802002S465.1329956,269.6149902,445.243988,292.0750122z"/>
</g>
</svg>
