<?xml version="1.0" encoding="utf-8"?>
<!-- Generator: Adobe Illustrator 23.0.3, SVG Export Plug-In . SVG Version: 6.00 Build 0)  -->
<svg version="1.1" id="face" xmlns="http://www.w3.org/2000/svg" xmlns:xlink="http://www.w3.org/1999/xlink" x="0px" y="0px"
	 viewBox="0 0 8 12" style="enable-background:new 0 0 8 12;" xml:space="preserve" width="8" height='12' fill='#3C509E'>
<g>
	<path class="st0" d="M7,0.1l-1.5,0C3.7,0.1,2.6,1.2,2.6,3v1.3H1c-0.1,0-0.2,0.1-0.2,0.2v1.9c0,0.1,0.1,0.2,0.2,0.2h1.5v4.9
		c0,0.1,0.1,0.2,0.2,0.2h2c0.1,0,0.2-0.1,0.2-0.2V6.8h1.8c0.1,0,0.2-0.1,0.2-0.2l0-1.9c0-0.1,0-0.1-0.1-0.2c0,0-0.1-0.1-0.2-0.1H5.1
		V3.2c0-0.5,0.1-0.8,0.8-0.8l1,0c0.1,0,0.2-0.1,0.2-0.2V0.3C7.2,0.2,7.1,0.1,7,0.1z"/>
</g>
</svg>
