<?xml version="1.0" encoding="utf-8"?>
<!-- Generator: Adobe Illustrator 23.0.3, SVG Export Plug-In . SVG Version: 6.00 Build 0)  -->
<svg version="1.1" id="plus" xmlns="http://www.w3.org/2000/svg" xmlns:xlink="http://www.w3.org/1999/xlink" x="0px" y="0px"
	 viewBox="0 0 15 10" style="enable-background:new 0 0 15 10;" xml:space="preserve" width="15" height="10" fill="#00aef0">
<path d="M4.9909091,2.0727272c0.9665008,0,1.8407621,0.4959376,2.3418183,1.1792946L8.520298,2.0559564
	C7.8100424,1.1323627,6.4430017,0.4,4.9909091,0.4C2.4483855,0.4,0.3630303,2.4574764,0.3630303,5
	s2.0853553,4.6000004,4.6278787,4.6000004c2.1076798,0,3.8807054-1.4134331,4.4243417-3.3454547
	C9.53232,5.8530254,9.590909,5.4348435,9.590909,5V4.5818181H5.409091v1.6724005h2.2163634
	c-0.46,0.9869747-1.4720216,1.6730542-2.6345453,1.6730542C3.3767707,7.9272728,2.0357575,6.6141381,2.0357575,5
	S3.3767707,2.0727272,4.9909091,2.0727272z"/>
<path d="M13.3545456,2.909091H11.681818v1.2545452h-1.2545452v1.6727276h1.2545452V7.090909h1.6727276V5.8363638h1.282424V4.1636362
	h-1.282424V2.909091z"/>
</svg>
