<?xml version="1.0" encoding="utf-8"?>
<!-- Generator: Adobe Illustrator 23.0.3, SVG Export Plug-In . SVG Version: 6.00 Build 0)  -->
<svg version="1.1" id="Слой_1" xmlns="http://www.w3.org/2000/svg" xmlns:xlink="http://www.w3.org/1999/xlink" x="0px" y="0px"
	 viewBox="0 0 512.0009766 512" style="enable-background:new 0 0 512.0009766 512;" xml:space="preserve">
<path d="M256,483.515625c-7.2890625,0-14.3164063-2.640625-19.7929688-7.4375
	c-20.6835938-18.0859375-40.625-35.0820313-58.21875-50.0742188l-0.0898438-0.078125
	c-51.5820313-43.9570313-96.125-81.9179688-127.1171875-119.3125C16.1367188,264.8085938,0,225.171875,0,181.8710938
	c0-42.0703125,14.4257813-80.8828125,40.6171875-109.2929688C67.1210938,43.8320313,103.4882813,28,143.03125,28
	c29.5546875,0,56.6210938,9.34375,80.4453125,27.7695313C235.5,65.0703125,246.3984375,76.453125,256,89.7304688
	c9.6054688-13.2773438,20.5-24.6601563,32.5273438-33.9609375C312.3515625,37.34375,339.4179688,28,368.9726563,28
	c39.5390625,0,75.9101563,15.8320313,102.4140625,44.578125C497.578125,100.9882813,512,139.8007813,512,181.8710938
	c0,43.3007813-16.1328125,82.9375-50.7773438,124.7382813c-30.9921875,37.3984375-75.53125,75.3554688-127.1054688,119.3085938
	c-17.625,15.015625-37.5976563,32.0390625-58.328125,50.1679688C270.3164063,480.875,263.2851563,483.515625,256,483.515625z
	 M143.03125,57.9921875c-31.0664063,0-59.6054688,12.3984375-80.3671875,34.9140625
	c-21.0703125,22.8554688-32.6757813,54.4492188-32.6757813,88.9648438c0,36.4179688,13.5351563,68.9882813,43.8828125,105.6054688
	c29.3320313,35.3945313,72.9609375,72.5742188,123.4765625,115.625l0.09375,0.078125
	c17.6601563,15.0507813,37.6796875,32.1132813,58.515625,50.3320313
	c20.9609375-18.2539063,41.0117188-35.34375,58.7070313-50.4179688
	c50.5117188-43.0507813,94.1367188-80.2226563,123.46875-115.6171875
	c30.34375-36.6171875,43.8789063-69.1875,43.8789063-105.6054688c0-34.515625-11.6054688-66.109375-32.6757813-88.9648438
	c-20.7578125-22.515625-49.3007813-34.9140625-80.3632813-34.9140625c-22.7578125,0-43.6523438,7.234375-62.1015625,21.5
	c-16.4414063,12.71875-27.8945313,28.796875-34.609375,40.046875c-3.453125,5.7851563-9.53125,9.2382813-16.2617188,9.2382813
	s-12.8085938-3.453125-16.2617188-9.2382813c-6.7109375-11.25-18.1640625-27.328125-34.609375-40.046875
	C186.6796875,65.2265625,165.7851563,57.9921875,143.03125,57.9921875z"/>
</svg>
