<?xml version="1.0" encoding="utf-8"?>
<!-- Generator: Adobe Illustrator 23.0.3, SVG Export Plug-In . SVG Version: 6.00 Build 0)  -->
<svg version="1.1" id="Capa_1" xmlns="http://www.w3.org/2000/svg" xmlns:xlink="http://www.w3.org/1999/xlink" x="0px" y="0px"
	 viewBox="0 0 219.151001 219.151001" style="enable-background:new 0 0 219.151001 219.151001;" xml:space="preserve">
<g>
	<path d="M219.1489868,109.5749969C219.1489868,49.1559982,169.993988,0,109.5749893,0
		C49.1559906,0,0.0019847,49.1559982,0.002,109.5750046c0,60.4199905,49.1539917,109.5759964,109.5729904,109.5759964
		S219.1489868,169.9949951,219.1489868,109.5749969z M204.147995,109.5739975
		c0,52.1500015-42.4250031,94.5759964-94.5730057,94.5770035c-52.1489944-0.0010071-94.5739975-42.427002-94.5739975-94.576004
		C15.0019999,57.4259987,57.4269867,15,109.5749893,15S204.1479797,57.4269981,204.147995,109.5739975z"/>
	<path d="M165.9169922,114.8830032c1.4069977-1.4090042,2.1970062-3.3150024,2.197998-5.3050003
		c0-1.9899979-0.7899933-3.8970032-2.196991-5.3030014l-41.6290054-41.6279984
		c-1.465004-1.4629974-3.3840027-2.1959991-5.3030014-2.1959991c-1.9199982,0-3.8390045,0.7329979-5.3040009,2.1969986
		c-2.9290009,2.9280014-2.9290009,7.6780014,0,10.6070023l28.8270111,28.8249969l-83.4600067-0.0080032
		c-4.1419983,0-7.4989929,3.3560028-7.5,7.4980011c0,4.1439972,3.3569946,7.5009995,7.4989929,7.5019989l83.4570007,0.0080032
		l-28.8200073,28.8190002c-2.9309998,2.9300079-2.9309998,7.678009-0.0009995,10.6080017
		c2.9280014,2.927002,7.677002,2.9279938,10.6060028,0L165.9169922,114.8830032z"/>
</g>
</svg>
