<?xml version="1.0" encoding="utf-8"?>
<!-- Generator: Adobe Illustrator 23.0.3, SVG Export Plug-In . SVG Version: 6.00 Build 0)  -->
<svg version="1.1" id="pin" xmlns="http://www.w3.org/2000/svg" xmlns:xlink="http://www.w3.org/1999/xlink" x="0px" y="0px"
	 viewBox="0 0 9 11" style="enable-background:new 0 0 9 11;" xml:space="preserve" width="9" height="11" fill="#9d0005">
<g>
	<g>
		<path d="M4.645731,0.1400276c-2.9380679,0-4.5005708,1.8827755-4.5005708,3.9357381
			c0,0.9521084,0.5320014,2.1393962,1.3836055,2.5159507c0.1293153,0.0582924,0.199668,0.0335016,0.2284791-0.0864334
			c0.0254612-0.0911231,0.1373556-0.5299911,0.1916279-0.7370296C1.9656237,5.7019205,1.9569134,5.6442981,1.9033113,5.581986
			C1.6205599,5.2550125,1.3961009,4.659359,1.3961009,4.1005564c0-1.4318476,1.1383756-2.8221531,3.0754232-2.8221531
			c1.6750674,0,2.8469443,1.0881237,2.8469443,2.6445961c0,1.7588205-0.9306674,2.9755893-2.1400661,2.9755893
			c-0.6693568,0-1.1678572-0.5253015-1.0097303-1.1752267c0.1909575-0.773881,0.5655022-1.6060548,0.5655022-2.164187
			c0-0.5005105-0.2827511-0.9145868-0.8603141-0.9145868c-0.6814172,0-1.2341897,0.6747169-1.2341897,1.5805933
			c0,0.5755534,0.2036881,0.964169,0.2036881,0.964169s-0.674047,2.7229891-0.7993419,3.2315392
			c-0.2117285,0.8609848,0.0288112,2.255311,0.049582,2.3752451c0.0127304,0.0663328,0.0871034,0.0871038,0.1286449,0.0328312
			c0.0663328-0.0871029,0.8810854-1.2495995,1.1095648-2.0898142C3.4148917,8.43295,3.7559352,7.1913905,3.7559352,7.1913905
			C3.9803941,7.5967565,4.6283102,7.93646,5.3184376,7.93646c2.0529628,0,3.5364017-1.8043818,3.5364017-4.043612
			C8.8474693,1.7460821,7.0102558,0.1400276,4.645731,0.1400276z"/>
	</g>
</g>
</svg>
