<?xml version="1.0" encoding="utf-8"?>
<!-- Generator: Adobe Illustrator 23.0.3, SVG Export Plug-In . SVG Version: 6.00 Build 0)  -->
<svg version="1.1" id="quote" xmlns="http://www.w3.org/2000/svg" xmlns:xlink="http://www.w3.org/1999/xlink" x="0px" y="0px"
	 viewBox="0 0 30 28" style="enable-background:new 0 0 30 28;" xml:space="preserve" width="30" height="28" fill="#00aef0">
<g>
	<path d="M13,1.5v4.9c0,0.7-0.5,1.2-1.2,1.2c-2.4,0-3.7,2.4-3.9,7.3h3.9c0.7,0,1.2,0.5,1.2,1.2v10.4c0,0.7-0.5,1.2-1.2,1.2H1.5
		c-0.7,0-1.2-0.5-1.2-1.2V16.1c0-2.3,0.2-4.4,0.7-6.3c0.5-1.9,1.2-3.6,2.1-5c1-1.4,2.2-2.6,3.6-3.3c1.4-0.8,3.1-1.2,5-1.2
		C12.4,0.3,13,0.8,13,1.5z M28.5,7.6c0.7,0,1.2-0.5,1.2-1.2V1.5c0-0.7-0.5-1.2-1.2-1.2c-1.9,0-3.6,0.4-5,1.2
		c-1.4,0.8-2.7,1.9-3.6,3.3c-1,1.4-1.7,3.1-2.1,5c-0.5,1.9-0.7,4-0.7,6.3v10.4c0,0.7,0.5,1.2,1.2,1.2h10.3c0.7,0,1.2-0.5,1.2-1.2
		V16.1c0-0.7-0.5-1.2-1.2-1.2h-3.8C24.9,10.1,26.2,7.6,28.5,7.6z"/>
</g>
</svg>
