<?xml version="1.0" encoding="utf-8"?>
<!-- Generator: Adobe Illustrator 23.0.3, SVG Export Plug-In . SVG Version: 6.00 Build 0)  -->
<svg version="1.1" id="twit" xmlns="http://www.w3.org/2000/svg" xmlns:xlink="http://www.w3.org/1999/xlink" x="0px" y="0px"
	 viewBox="0 0 13 11" style="enable-background:new 0 0 13 11;" xml:space="preserve" width="13" height="11" fill="#39b0dd">
<g>
	<path d="M12.8084831,1.5870234c-0.4642639,0.2058632-0.9630775,0.3450191-1.486681,0.4075863
		c0.5343971-0.320352,0.9448423-0.827617,1.1381369-1.4320967c-0.5002174,0.2966706-1.0541306,0.5120704-1.643775,0.6281364
		C10.3440142,0.6875736,9.6712513,0.373259,8.9267282,0.373259c-1.429534,0-2.5884938,1.1589104-2.5884938,2.5884194
		c0,0.2028813,0.022893,0.40044,0.0670276,0.5899158C4.2539749,3.4436109,2.3466237,2.4131126,1.0699469,0.8470101
		C0.8471298,1.2293133,0.7194571,1.6739619,0.7194571,2.1483538c0,0.8980699,0.4569699,1.6903746,1.1515424,2.1545646
		C1.4466809,4.2894635,1.047547,4.173028,0.6985851,3.9791412C0.6983387,3.9899347,0.6983387,4.0007772,0.6983387,4.011694
		c0,1.2541533,0.892279,2.3003244,2.0763986,2.5381732c-0.2171741,0.0591168-0.4458809,0.090857-0.6819556,0.090857
		c-0.1668048,0-0.3289523-0.016264-0.4870337-0.046525c0.3294206,1.0283303,1.2853507,1.7768202,2.418066,1.7976427
		c-0.8858962,0.6943264-2.0020273,1.108098-3.2148061,1.108098c-0.2089434,0-0.4149791-0.0122223-0.6174908-0.0362492
		c1.1455295,0.7345181,2.5061631,1.1630507,3.9679537,1.1630507c4.7611957,0,7.3648438-3.9443216,7.3648438-7.3649426
		c0-0.1122217-0.0025635-0.2238522-0.0075159-0.3348908C12.0226097,2.5619776,12.4614677,2.1060922,12.8084831,1.5870234z"/>
</g>
</svg>
