<?xml version="1.0" encoding="utf-8"?>
<!-- Generator: Adobe Illustrator 23.0.3, SVG Export Plug-In . SVG Version: 6.00 Build 0)  -->
<svg version="1.1" id="tube" xmlns="http://www.w3.org/2000/svg" xmlns:xlink="http://www.w3.org/1999/xlink" x="0px" y="0px"
	 viewBox="0 0 14 10" style="enable-background:new 0 0 14 10;" xml:space="preserve" width="14" height="10" fill="#e53a13">
<g id="XMLID_822_">
	<path id="XMLID_823_" d="M13.2926588,1.0216563c-0.4926977-0.5856893-1.4023609-0.8245969-3.1396151-0.8245969H3.8468239
		c-1.7770133,0-2.7020869,0.2543183-3.1929352,0.8778734c-0.478564,0.6079688-0.478564,1.5037626-0.478564,2.7435637V6.181551
		c0,2.4018888,0.567813,3.6213932,3.6714993,3.6213932h6.3062639c1.5065365,0,2.3413477-0.2108154,2.881423-0.7276869
		c0.5538549-0.530035,0.7901649-1.3954473,0.7901649-2.8937058V3.8184972
		C13.8246756,2.5110207,13.7876453,1.6099433,13.2926588,1.0216563z M8.9382515,5.3262653L6.0746183,6.8228946
		c-0.0640197,0.033463-0.1340284,0.0500622-0.203948,0.0500622c-0.0791659,0-0.1581564-0.0213103-0.2281203-0.0636678
		C5.5108118,6.7294621,5.4303684,6.5866728,5.4303684,6.4326549V3.4489951c0-0.1537533,0.0802231-0.2964113,0.2116971-0.3762817
		c0.1315184-0.0798709,0.2950902-0.0853307,0.4315395-0.014442L8.9372387,4.545258
		c0.1456957,0.075644,0.2371902,0.2260513,0.2374105,0.390151C9.1748257,5.0996423,9.0837269,5.2502694,8.9382515,5.3262653z"/>
</g>
</svg>
