# 3ds Max Wavefront OBJ Exporter v0.97b - (c)2007 guruware
# File Created: 20.01.2020 23:32:14

mtllib Buttonhole.mtl

#
# object L_Buttonhole
#

v  0.8763 3.3717 -0.0749
v  0.8578 3.3682 -0.0814
v  0.8417 3.3764 -0.0871
v  0.8702 3.3851 -0.0771
v  0.8467 3.3661 -0.0862
v  0.8853 3.3734 -0.0699
v  0.8801 3.3888 -0.0714
v  0.8695 3.3874 -0.0776
v  0.8713 3.3877 -0.0766
v  0.8800 3.3893 -0.0715
v  0.8407 3.3820 -0.0881
v  0.8672 3.3870 -0.0785
v  0.8425 3.3651 -0.0879
v  0.8382 3.3753 -0.0885
v  0.8376 3.3796 -0.0889
v  0.8373 3.3814 -0.0893
# 16 vertices

vn 0.4183 0.0431 -0.9073
vn 0.3405 0.0171 -0.9401
vn 0.3593 -0.0094 -0.9332
vn 0.4172 -0.0157 -0.9087
vn 0.3657 0.0938 -0.9260
vn 0.4761 0.0751 -0.8762
vn 0.4957 0.0105 -0.8684
vn 0.4277 -0.0547 -0.9023
vn 0.5031 -0.0405 -0.8633
vn 0.5119 -0.0511 -0.8575
vn 0.3491 -0.1070 -0.9310
vn 0.3617 -0.0986 -0.9270
vn 0.3520 0.0863 -0.9320
vn 0.3717 0.0253 -0.9280
vn 0.3535 -0.0915 -0.9309
vn 0.3414 -0.1089 -0.9336
# 16 vertex normals

vt 0.2214 0.0000 0.0000
vt 0.6340 0.0000 0.0000
vt 0.9153 0.6620 0.0000
vt 0.2604 0.8551 0.0000
vt 0.9021 0.0000 0.0000
vt -0.0000 0.0000 0.0000
vt -0.0000 0.9591 0.0000
vt 0.2663 1.0000 0.0000
vt 0.2238 1.0000 0.0000
vt -0.0000 1.0000 0.0000
vt 0.9218 1.0000 0.0000
vt 0.3185 1.0000 0.0000
vt 1.0000 0.0000 0.0000
vt 1.0000 0.6410 0.0000
vt 1.0000 0.8918 0.0000
vt 1.0000 1.0000 0.0000
# 16 texture coords

o L_Buttonhole
g L_Buttonhole
usemtl Material4412
s 1
f 1/1/1 2/2/2 3/3/3 
f 1/1/1 3/3/3 4/4/4 
f 2/2/2 5/5/5 3/3/3 
f 6/6/6 1/1/1 4/4/4 
f 6/6/6 4/4/4 7/7/7 
f 4/4/4 8/8/8 9/9/9 
f 4/4/4 9/9/9 10/10/10 
f 4/4/4 10/10/10 7/7/7 
f 4/4/4 3/3/3 11/11/11 
f 4/4/4 11/11/11 12/12/12 
f 4/4/4 12/12/12 8/8/8 
f 5/5/5 13/13/13 14/14/14 
f 5/5/5 14/14/14 3/3/3 
f 3/3/3 15/15/15 16/16/16 
f 3/3/3 16/16/16 11/11/11 
f 3/3/3 14/14/14 15/15/15 
# 0 polygons - 16 triangles

