<svg xmlns="http://www.w3.org/2000/svg" xmlns:xlink="http://www.w3.org/1999/xlink" width="110" height="110" viewBox="0 0 110 110"><defs><style>.cls-1{fill:url(#Безымянный_градиент_315);}.cls-2{fill:url(#Безымянный_градиент_92);}.cls-3{fill:#fff;}</style><radialGradient id="Безымянный_градиент_315" cx="55.5" cy="1.742" r="104.759" gradientUnits="userSpaceOnUse"><stop offset="0.622" stop-color="#fff"/><stop offset="1" stop-color="#fff" stop-opacity="0"/></radialGradient><linearGradient id="Безымянный_градиент_92" x1="55" y1="40.5" x2="55" y2="106.5" gradientUnits="userSpaceOnUse"><stop offset="0.53" stop-color="#af9c94"/><stop offset="1" stop-color="#fff"/></linearGradient></defs><title>Планка - С планкой</title><g id="Планка"><g id="С_планкой" data-name="С планкой"><g id="Цвет-23" data-name="Цвет"><path class="cls-1" d="M55,106.5a98.8,98.8,0,0,0,45.25-11.25V28.875l-12.5-5.25-1-2.875L80,6.25C73.736,2.25,65.116.812,55,1,45.021.935,36.32,2.28,30,6.25l-6.75,14.5-1,2.875-12.5,5.25V95.25A98.8,98.8,0,0,0,55,106.5Z"/><rect class="cls-2" x="51" y="40" width="8" height="67"/><circle class="cls-3" cx="55" cy="46.001" r="2"/><circle class="cls-3" cx="55" cy="78.501" r="2"/></g><g id="Контур-23" data-name="Контур"><path d="M55.5,43.552V43a.5.5,0,0,0-1,0v.551a2.5,2.5,0,0,0,0,4.9V49a.5.5,0,0,0,1,0V48.45a2.5,2.5,0,0,0,0-4.9ZM55,47.5A1.5,1.5,0,1,1,56.5,46,1.5,1.5,0,0,1,55,47.5Zm.5,28.551V75.5a.5.5,0,0,0-1,0v.551a2.5,2.5,0,0,0,0,4.9V81.5a.5.5,0,0,0,1,0V80.95a2.5,2.5,0,0,0,0-4.9ZM55,80a1.5,1.5,0,1,1,1.5-1.5A1.5,1.5,0,0,1,55,80Zm46.069-38.348L85.381,34.734c.148-.239.3-.478.434-.717l1.676.74a.5.5,0,0,0,.2.043.5.5,0,0,0,.2-.957l-1.6-.707a16.332,16.332,0,0,0,2-8.932l12.373,5.257a.493.493,0,0,0,.2.04.5.5,0,0,0,.2-.96L88.142,23.052a12.187,12.187,0,0,0-.917-2.928L86.083,17.65c-.045-.105-.082-.217-.13-.319a.475.475,0,0,0-.047-.064L80.609,5.79a.487.487,0,0,0-.291-.256C75.168,2.336,65.988.5,55.1.5S35.043,2.335,29.893,5.533a.488.488,0,0,0-.3.257L23.941,18.045c-.006.013-.018.022-.023.035s-.012.039-.02.057l-.917,1.986A12.189,12.189,0,0,0,22.073,23a.489.489,0,0,0-.185.038l-12.951,5.5a.5.5,0,0,0,.2.96.493.493,0,0,0,.2-.04l12.589-5.348a16.253,16.253,0,0,0,1.967,8.97.489.489,0,0,0-.111.024l-1.83.807a.5.5,0,0,0,.2.958.508.508,0,0,0,.2-.042l1.83-.807a.5.5,0,0,0,.157-.111c.142.25.295.5.449.751L8.931,41.653a.5.5,0,0,0,.2.957.491.491,0,0,0,.2-.043l15.986-7.051c3.439,5.355,8.214,12.187,12.894,18.809a.5.5,0,0,0,.408.212.575.575,0,0,0,.071,0,.5.5,0,0,0,.4-.333L44.65,38H48v71.5a.5.5,0,0,0,1,0V38h1v1.5a.5.5,0,0,0,1,0V38h8v1.5a.5.5,0,0,0,1,0V38h1v71.5a.5.5,0,0,0,1,0V38h3.58l5.53,16.2a.5.5,0,0,0,.4.334.59.59,0,0,0,.071,0,.5.5,0,0,0,.408-.212c4.66-6.593,9.413-13.393,12.848-18.738l15.826,6.98a.491.491,0,0,0,.2.043.5.5,0,0,0,.2-.957ZM79.649,6.3c0,.3,0,.6-.021.9-.371-.213-.754-.421-1.156-.618a.5.5,0,0,0-.439.9c.516.252,1,.522,1.459.8A13.846,13.846,0,0,1,75.711,15.4c-.571-.219-1.157-.433-1.765-.638a.5.5,0,0,0-.32.947c.455.154.887.316,1.321.477q-.443.426-.925.844a.479.479,0,0,0-.1-.061,57.6,57.6,0,0,0-37.8-.016c-.314-.273-.62-.548-.909-.827.441-.162.88-.325,1.341-.478a.5.5,0,1,0-.315-.949c-.615.205-1.209.419-1.787.638a12.984,12.984,0,0,1-3.9-9.035C35.578,3.251,44.5,1.5,55.1,1.5S74.628,3.251,79.649,6.3ZM61.407,24H48.843a43.29,43.29,0,0,1-11.811-6.3,56.6,56.6,0,0,1,36.1.055A43.188,43.188,0,0,1,61.407,24ZM49.261,26h-.5l.343-1h1.24A5.546,5.546,0,0,0,49.261,26ZM38.467,52.95c-4.646-6.581-9.339-13.312-12.652-18.511-2.58-4.05-3.489-8.126-2.664-11.716.009.489.028.987.085,1.5a.5.5,0,0,0,.5.445l.055,0a.5.5,0,0,0,.443-.552,15.383,15.383,0,0,1-.095-1.672l0-.263a.5.5,0,0,0-.492-.508h-.008a.493.493,0,0,0-.2.046c.116-.35.246-.7.4-1.035h0a.5.5,0,0,0,.491-.409,9.524,9.524,0,0,1,.5-1.749l3.545-7.681c.055.2.1.391.168.584a.5.5,0,1,0,.948-.316,10.848,10.848,0,0,1-.427-1.761l.6-1.3c.9,6.665,7.355,12.543,18.466,16.742ZM48.422,27h.186A5.459,5.459,0,0,0,48,29.5V35H46.5a.5.5,0,0,0,0,1H48v1H44.993ZM49,37V29.5A4.5,4.5,0,0,1,53.5,25h7.643l.341,1h-.317a.5.5,0,0,0,0,1h.659l2.731,8h-.348a.5.5,0,0,0,0,1H64.9l.341,1ZM71.74,52.948,62.13,24.8C73.217,20.608,79.655,14.73,80.554,8.058l.663,1.437a.5.5,0,0,0-.3.393,8.184,8.184,0,0,1-.447,1.825.5.5,0,0,0,.939.344,9.5,9.5,0,0,0,.372-1.347l3.4,7.377a9.951,9.951,0,0,1,.492,1.46.5.5,0,0,0,.346.357l.3.641c.055.119.1.241.151.361-.012,0-.023-.005-.035,0a.5.5,0,0,0-.46.537c.026.346.039.693.039,1.041q0,.445-.026.89a.5.5,0,0,0,.47.528h.03a.5.5,0,0,0,.5-.471c.017-.295.025-.591.026-.887.9,3.632.007,7.774-2.613,11.89a.494.494,0,0,0-.322.272.486.486,0,0,0-.029.271C80.756,40.1,76.231,46.587,71.74,52.948ZM18.027,36.188a.5.5,0,0,1,.256-.659l1.83-.807a.5.5,0,1,1,.4.914l-1.83.807a.491.491,0,0,1-.2.043A.5.5,0,0,1,18.027,36.188Zm-7.32,3.229a.5.5,0,0,1,.256-.66l1.83-.807a.5.5,0,0,1,.4.916l-1.83.807a.508.508,0,0,1-.2.042A.5.5,0,0,1,10.707,39.416Zm3.66-1.614a.5.5,0,0,1,.256-.66l1.83-.807a.5.5,0,0,1,.4.916l-1.83.807a.508.508,0,0,1-.2.042A.5.5,0,0,1,14.367,37.8Zm77.188-2.345a.5.5,0,0,1-.2.957.491.491,0,0,1-.2-.043l-1.83-.808a.5.5,0,1,1,.4-.914Zm7.319,3.229a.5.5,0,0,1-.2.957.491.491,0,0,1-.2-.043l-1.83-.808a.5.5,0,1,1,.4-.914Zm-3.66-1.614a.5.5,0,0,1-.2.957.491.491,0,0,1-.2-.043l-1.83-.808a.5.5,0,1,1,.4-.914ZM51,45.5v2a.5.5,0,0,1-1,0v-2a.5.5,0,0,1,1,0Zm0,4v2a.5.5,0,0,1-1,0v-2a.5.5,0,0,1,1,0Zm0-8v2a.5.5,0,0,1-1,0v-2a.5.5,0,0,1,1,0Zm0,36v2a.5.5,0,0,1-1,0v-2a.5.5,0,0,1,1,0Zm0,4v2a.5.5,0,0,1-1,0v-2a.5.5,0,0,1,1,0Zm0-8v2a.5.5,0,0,1-1,0v-2a.5.5,0,0,1,1,0Zm0,20v2a.5.5,0,0,1-1,0v-2a.5.5,0,0,1,1,0Zm0-4v2a.5.5,0,0,1-1,0v-2a.5.5,0,0,1,1,0Zm0-36v2a.5.5,0,0,1-1,0v-2a.5.5,0,0,1,1,0Zm0,32v2a.5.5,0,0,1-1,0v-2a.5.5,0,0,1,1,0Zm0,12v2a.5.5,0,0,1-1,0v-2a.5.5,0,0,1,1,0Zm0,4v2a.5.5,0,0,1-1,0v-2a.5.5,0,0,1,1,0Zm0-32v2a.5.5,0,0,1-1,0v-2a.5.5,0,0,1,1,0Zm0-4v2a.5.5,0,0,1-1,0v-2a.5.5,0,0,1,1,0Zm0-8v2a.5.5,0,0,1-1,0v-2a.5.5,0,0,1,1,0Zm0,4v2a.5.5,0,0,1-1,0v-2a.5.5,0,0,1,1,0Zm0,44v2a.5.5,0,0,1-1,0v-2a.5.5,0,0,1,1,0Zm9-32v2a.5.5,0,0,1-1,0v-2a.5.5,0,0,1,1,0Zm0-4v2a.5.5,0,0,1-1,0v-2a.5.5,0,0,1,1,0Zm0-20v2a.5.5,0,0,1-1,0v-2a.5.5,0,0,1,1,0Zm0,16v2a.5.5,0,0,1-1,0v-2a.5.5,0,0,1,1,0Zm0-24v2a.5.5,0,0,1-1,0v-2a.5.5,0,0,1,1,0Zm0,36v2a.5.5,0,0,1-1,0v-2a.5.5,0,0,1,1,0Zm0-24v2a.5.5,0,0,1-1,0v-2a.5.5,0,0,1,1,0Zm0,32v2a.5.5,0,0,1-1,0v-2a.5.5,0,0,1,1,0Zm0-28v2a.5.5,0,0,1-1,0v-2a.5.5,0,0,1,1,0Zm0,4v2a.5.5,0,0,1-1,0v-2a.5.5,0,0,1,1,0Zm0-16v2a.5.5,0,0,1-1,0v-2a.5.5,0,0,1,1,0Zm0,36v2a.5.5,0,0,1-1,0v-2a.5.5,0,0,1,1,0Zm0,8v2a.5.5,0,0,1-1,0v-2a.5.5,0,0,1,1,0Zm0,16v2a.5.5,0,0,1-1,0v-2a.5.5,0,0,1,1,0Zm0-4v2a.5.5,0,0,1-1,0v-2a.5.5,0,0,1,1,0Zm0-4v2a.5.5,0,0,1-1,0v-2a.5.5,0,0,1,1,0Zm0-4v2a.5.5,0,0,1-1,0v-2a.5.5,0,0,1,1,0Zm-5-60a2.5,2.5,0,0,0,2.449-2H58a.5.5,0,0,0,0-1h-.551a2.5,2.5,0,0,0-4.9,0H52a.5.5,0,0,0,0,1h.551A2.5,2.5,0,0,0,55,33.5Zm0-4A1.5,1.5,0,1,1,53.5,31,1.5,1.5,0,0,1,55,29.5Zm4.262,6a.5.5,0,0,1-.5.5H56.947a.5.5,0,0,1,0-1h1.815A.5.5,0,0,1,59.262,35.5Zm-3.631,0a.5.5,0,0,1-.5.5H53.316a.5.5,0,0,1,0-1h1.815A.5.5,0,0,1,55.631,35.5Zm7.262,0a.5.5,0,0,1-.5.5H60.578a.5.5,0,0,1,0-1h1.815A.5.5,0,0,1,62.893,35.5ZM52,35.5a.5.5,0,0,1-.5.5h-1a.5.5,0,0,1-.5-.5v-1a.5.5,0,0,1,1,0V35h.5A.5.5,0,0,1,52,35.5Zm.969-9a.473.473,0,0,1,.468-.5v.5l.04-.5h1.891a.5.5,0,0,1,0,1H53.5A.527.527,0,0,1,52.969,26.5Zm6.759,0a.5.5,0,0,1-.5.5H57.3a.5.5,0,0,1,0-1h1.93A.5.5,0,0,1,59.728,26.5ZM50.12,28.589a3.528,3.528,0,0,1,1.222-1.845.5.5,0,0,1,.617.787,2.52,2.52,0,0,0-.874,1.317.5.5,0,0,1-.966-.26ZM50,32.569V30.639a.5.5,0,0,1,1,0v1.931a.5.5,0,0,1-1,0ZM58.275,3.057a.489.489,0,0,1,.52-.479q1.011.042,2.009.106a.5.5,0,0,1-.032,1H60.74q-.986-.064-1.985-.1A.5.5,0,0,1,58.275,3.057Zm-4-.057a.5.5,0,0,1,.5-.5H55q.9,0,1.786.018a.5.5,0,0,1-.009,1h-.009Q55.886,3.5,55,3.5h-.223A.5.5,0,0,1,54.276,3Zm7.993.292a.507.507,0,0,1,.542-.454q1.012.089,2,.205a.5.5,0,0,1-.057,1l-.058,0q-.977-.114-1.977-.2A.5.5,0,0,1,62.269,3.292ZM74.063,5.4a.5.5,0,0,1,.629-.322q.995.319,1.914.684a.5.5,0,0,1-.184.965.489.489,0,0,1-.184-.035q-.888-.352-1.853-.662A.5.5,0,0,1,74.063,5.4ZM50.276,3.118a.5.5,0,0,1,.477-.521q1-.047,2.011-.07a.522.522,0,0,1,.512.488.5.5,0,0,1-.488.512q-1,.023-1.988.068h-.023A.5.5,0,0,1,50.276,3.118Zm15.969.61a.505.505,0,0,1,.567-.422q1.012.149,1.991.326a.5.5,0,0,1-.089.992.568.568,0,0,1-.09-.008q-.962-.174-1.958-.32A.5.5,0,0,1,66.245,3.729Zm3.942.682a.5.5,0,0,1,.6-.381q1.006.223,1.964.477a.5.5,0,0,1-.128.983.487.487,0,0,1-.129-.017q-.937-.249-1.923-.467A.5.5,0,0,1,70.187,4.41ZM38.4,4.729a.5.5,0,0,1,.375-.6q.967-.221,1.977-.413a.5.5,0,1,1,.186.982q-.99.188-1.939.405a.492.492,0,0,1-.112.013A.5.5,0,0,1,38.4,4.729ZM34.562,5.853a.5.5,0,0,1,.313-.634q.937-.316,1.938-.594a.5.5,0,1,1,.268.963q-.973.271-1.885.578a.509.509,0,0,1-.16.026A.5.5,0,0,1,34.562,5.853Zm7.76-1.907a.5.5,0,0,1,.418-.57q.983-.151,2-.276a.5.5,0,0,1,.123.992q-1,.125-1.967.272a.505.505,0,0,1-.076.006A.5.5,0,0,1,42.321,3.945Zm3.966-.522a.5.5,0,0,1,.45-.545q.994-.094,2.006-.165a.494.494,0,0,1,.534.464.5.5,0,0,1-.464.534q-1,.069-1.981.163l-.048,0A.5.5,0,0,1,46.288,3.423ZM31.117,6.788c.575-.3,1.2-.585,1.853-.856a.5.5,0,1,1,.383.924c-.629.261-1.227.537-1.777.821a.5.5,0,0,1-.229.056.5.5,0,0,1-.23-.944Zm6.71,7.934a.5.5,0,0,1,.342-.618q.953-.274,1.949-.522a.5.5,0,1,1,.242.971q-.979.243-1.915.513a.488.488,0,0,1-.139.02A.5.5,0,0,1,37.827,14.722Zm31.635-.729a.5.5,0,0,1,.606-.363q1,.25,1.949.53a.5.5,0,1,1-.28.959q-.934-.272-1.912-.519A.5.5,0,0,1,69.462,13.992Zm-3.916-.813a.5.5,0,0,1,.581-.4q1,.182,1.978.393a.5.5,0,0,1-.1.988.493.493,0,0,1-.106-.012q-.957-.205-1.945-.385A.5.5,0,0,1,65.546,13.179ZM49.6,12.51a.5.5,0,0,1,.459-.537q1-.079,2.013-.128a.492.492,0,0,1,.523.475.5.5,0,0,1-.476.523q-1,.048-1.982.126l-.04,0A.5.5,0,0,1,49.6,12.51Zm-3.972.478a.5.5,0,0,1,.424-.566q.988-.142,2-.256a.5.5,0,0,1,.111.994q-.995.111-1.969.252a.59.59,0,0,1-.071,0A.5.5,0,0,1,45.631,12.987Zm7.968-.7a.5.5,0,0,1,.492-.508c.672-.011,1.348-.01,2.019,0a.5.5,0,0,1-.009,1h-.009c-.66-.012-1.323-.014-1.983,0H54.1A.5.5,0,0,1,53.6,12.289ZM41.7,13.721a.5.5,0,0,1,.385-.593q.973-.207,1.979-.386a.505.505,0,0,1,.58.4.5.5,0,0,1-.4.58q-.988.176-1.946.38a.55.55,0,0,1-.1.011A.5.5,0,0,1,41.7,13.721Zm15.9-1.392a.476.476,0,0,1,.524-.475q1.012.05,2.011.134a.5.5,0,0,1-.041,1l-.042,0q-.981-.081-1.978-.132A.5.5,0,0,1,57.6,12.329Zm3.985.3a.514.514,0,0,1,.554-.439q1.011.117,2,.264a.5.5,0,0,1-.073.994.474.474,0,0,1-.074-.006q-.972-.144-1.967-.258A.5.5,0,0,1,61.584,12.626ZM39.278,47.5l-.649,1.892a.5.5,0,0,1-.946-.324l.649-1.892a.5.5,0,0,1,.946.324Zm-1.743.65a.5.5,0,1,1-.818.574l-1.148-1.639a.5.5,0,0,1,.819-.574Zm3.04-4.435-.648,1.892a.5.5,0,0,1-.946-.324l.648-1.892a.5.5,0,0,1,.946.324Zm1.3-3.783-.648,1.892a.5.5,0,0,1-.946-.324l.648-1.892a.5.5,0,0,1,.946.324ZM37.729,21.263a.5.5,0,0,1,.691-.148c.548.354,1.111.7,1.686,1.031a.5.5,0,0,1-.5.865q-.883-.513-1.727-1.057A.5.5,0,0,1,37.729,21.263ZM43.17,36.15l-.648,1.892a.5.5,0,0,1-.946-.324l.648-1.892a.5.5,0,0,1,.946.324Zm2.595-7.567-.649,1.892a.5.5,0,0,1-.946-.324l.649-1.892a.5.5,0,0,1,.946.324Zm.942-2.749-.294.856a.5.5,0,0,1-.946-.324l.141-.409c-.194-.08-.387-.162-.581-.244a.5.5,0,0,1,.394-.92q.5.214,1,.415A.5.5,0,0,1,46.707,25.834Zm-2.24,6.532-.648,1.893a.5.5,0,0,1-.473.338.5.5,0,0,1-.473-.662l.648-1.893a.5.5,0,0,1,.946.324ZM32.973,41.582a.5.5,0,0,1-.824.566q-.573-.836-1.129-1.655a.5.5,0,1,1,.827-.561Q32.4,40.749,32.973,41.582ZM24.717,28.554a.491.491,0,0,1-.148.022.5.5,0,0,1-.478-.352c-.206-.664-.382-1.329-.522-1.977a.5.5,0,0,1,.978-.211c.134.618.3,1.255.5,1.891A.5.5,0,0,1,24.717,28.554Zm1.557,3.685a.5.5,0,0,1-.67-.227c-.3-.6-.576-1.228-.831-1.864a.5.5,0,1,1,.929-.371c.245.612.513,1.216.8,1.792A.5.5,0,0,1,26.273,32.238ZM34.6,19.563a.5.5,0,0,1,.639-.77q.746.62,1.555,1.207a.5.5,0,1,1-.588.809Q35.372,20.2,34.6,19.563Zm6.565,3.747a.5.5,0,0,1,.674-.212q.874.457,1.773.881a.5.5,0,1,1-.427.9q-.916-.432-1.809-.9A.5.5,0,0,1,41.165,23.311ZM30.728,38.277a.5.5,0,0,1-.83.559q-.57-.848-1.112-1.668a.5.5,0,1,1,.834-.551Q30.159,37.433,30.728,38.277Zm2.7-19.933a.5.5,0,0,1-.347-.14c-.5-.479-.973-.978-1.409-1.479a.5.5,0,1,1,.755-.656c.417.48.87.956,1.347,1.415a.5.5,0,0,1-.347.86Zm-4.9,16.6a.5.5,0,0,1-.838.547q-.532-.817-1.026-1.593l-.063-.1a.5.5,0,1,1,.85-.527l.056.089Q27.994,34.138,28.523,34.948Zm6.722,9.924a.5.5,0,1,1-.821.57L33.284,43.8a.5.5,0,1,1,.822-.568ZM31.106,15.231a.5.5,0,0,1-.7-.125,15.783,15.783,0,0,1-1.067-1.766.5.5,0,0,1,.889-.459,14.805,14.805,0,0,0,1,1.654A.5.5,0,0,1,31.106,15.231ZM75.1,19.245a.5.5,0,0,1-.081.7q-.784.623-1.625,1.215a.493.493,0,0,1-.288.092.5.5,0,0,1-.289-.908q.815-.577,1.581-1.182A.5.5,0,0,1,75.1,19.245Zm-.15,26.519a.5.5,0,0,1,.124.7L73.928,48.1a.5.5,0,0,1-.819-.574l1.145-1.638A.5.5,0,0,1,74.95,45.764Zm-5.074-2.918a.518.518,0,0,1-.162.026.5.5,0,0,1-.473-.338l-.646-1.893a.5.5,0,1,1,.946-.324l.646,1.893A.5.5,0,0,1,69.876,42.846Zm-1.292-3.785a.518.518,0,0,1-.162.026.5.5,0,0,1-.473-.339L67.3,36.854a.5.5,0,1,1,.946-.322l.646,1.894A.5.5,0,0,1,68.583,39.061Zm2.584,7.57a.518.518,0,0,1-.162.026.5.5,0,0,1-.473-.339l-.646-1.893a.5.5,0,1,1,.946-.322L71.479,46A.5.5,0,0,1,71.168,46.631ZM81.839,36.536q-.538.817-1.108,1.668a.5.5,0,1,1-.831-.555q.566-.848,1.1-1.664a.5.5,0,1,1,.835.551Zm-4.614,5.94a.5.5,0,0,1,.128.7l-1.137,1.646a.5.5,0,0,1-.822-.57l1.136-1.643A.5.5,0,0,1,77.226,42.477Zm6.783-9.344c-.157.277-.311.535-.46.77l-.612.954a.5.5,0,0,1-.42.229.492.492,0,0,1-.271-.08.5.5,0,0,1-.149-.691l.609-.948c.14-.221.286-.463.434-.725a.5.5,0,1,1,.87.492Zm-4.529,6.039a.5.5,0,0,1,.134.694l-1.127,1.656a.5.5,0,1,1-.825-.564l1.124-1.652A.5.5,0,0,1,79.479,39.172Zm-6.821,9.871a.5.5,0,0,1,.121.7l-.163.23a.5.5,0,0,1-.407.209.614.614,0,0,1-.073,0,.5.5,0,0,1-.4-.334l-.556-1.629a.5.5,0,1,1,.946-.322l.368,1.078A.5.5,0,0,1,72.658,49.043ZM75.864,18.6a.5.5,0,0,1,.034-.706c.5-.453.971-.914,1.4-1.371a.5.5,0,0,1,.728.686c-.449.477-.939.956-1.458,1.426a.5.5,0,0,1-.706-.034Zm8.154,12.294c.266-.587.513-1.2.735-1.816a.5.5,0,0,1,.941.338c-.231.644-.489,1.279-.765,1.891a.5.5,0,0,1-.911-.412ZM67.292,35.274a.518.518,0,0,1-.162.026.5.5,0,0,1-.473-.338L66.01,33.07a.5.5,0,1,1,.946-.324l.646,1.893A.5.5,0,0,1,67.292,35.274ZM85.34,27.209c.173-.646.314-1.287.42-1.907a.5.5,0,1,1,.985.168c-.111.651-.259,1.323-.44,2a.5.5,0,0,1-.482.37.541.541,0,0,1-.13-.017A.5.5,0,0,1,85.34,27.209ZM78.659,15.742a.5.5,0,0,1-.092-.7,14.92,14.92,0,0,0,1.082-1.6.5.5,0,0,1,.865.5A15.9,15.9,0,0,1,79.36,15.65a.5.5,0,0,1-.7.092ZM64.707,27.7a.518.518,0,0,1-.162.026.5.5,0,0,1-.473-.338l-.532-1.557a.5.5,0,0,1,.287-.626l.321-.132a.5.5,0,0,1,.486.866l.384,1.124A.5.5,0,0,1,64.707,27.7ZM66,31.489a.518.518,0,0,1-.162.026.5.5,0,0,1-.473-.339l-.646-1.893a.5.5,0,1,1,.946-.322l.646,1.893A.5.5,0,0,1,66,31.489Zm-.279-6.544a.5.5,0,0,1,.243-.663q.894-.415,1.777-.871a.5.5,0,0,1,.459.889q-.9.464-1.815.889a.49.49,0,0,1-.21.047A.5.5,0,0,1,65.72,24.945Zm3.574-1.8a.5.5,0,0,1,.186-.683q.861-.492,1.693-1.02a.5.5,0,1,1,.536.844q-.85.541-1.733,1.045a.5.5,0,0,1-.682-.187Z"/></g></g></g></svg>