<svg xmlns="http://www.w3.org/2000/svg" width="110" height="110" viewBox="0 0 110 110"><defs><style>.cls-1{fill:#fff;}.cls-2{fill:#af9c94;}</style></defs><title>Низ - Прямая</title><g id="Низ"><g id="Прямая"><g id="Цвет-30" data-name="Цвет"><path class="cls-1" d="M55,105.334c9.5,0,18.333-.667,26.333-2.917L81.5,47.584c2.5,3,5.083,9.167,6.5,14.417l-3,39,11,1,6-26a53.12,53.12,0,0,0-3-32A154.762,154.762,0,0,0,87,18L68.062,10.094,67.917,9.5,65,3A22.358,22.358,0,0,0,55,1,22.358,22.358,0,0,0,45,3L42.083,9.5l-.146.593L23,18A154.762,154.762,0,0,0,11,44,53.12,53.12,0,0,0,8,76l6,26,11-1L22,62c1.417-5.25,4-11.417,6.5-14.417l.167,54.833C36.667,104.667,45.5,105.334,55,105.334Z"/><path class="cls-2" d="M28.5,94.542c8.25,2.25,17.12,3,26.5,3s18.25-.75,26.5-3v7.834c-8.25,2.25-17.12,3-26.5,3s-18.25-.75-26.5-3Z"/><path class="cls-1" d="M54.792,3.5h.415a20.661,20.661,0,0,1,7.9,1.391l2.435,5.427.092.373.3,1.225L67.1,12.4l18.143,7.575a150.044,150.044,0,0,1,11.391,24.83l.024.072.029.07a50.879,50.879,0,0,1,2.878,30.49l-5.51,23.875-6.373-.579,2.811-36.542.033-.428-.112-.415c-1.385-5.134-4.085-11.876-6.993-15.366l-4.4-5.28L79,47.577l-.161,52.913c-6.468,1.6-14.111,2.344-23.839,2.344s-17.371-.748-23.839-2.344L31,47.577,30.979,40.7l-4.4,5.28c-2.908,3.49-5.608,10.232-6.993,15.366l-.112.415.033.428,2.811,36.542-6.373.579-5.5-23.84a50.9,50.9,0,0,1,2.87-30.526l.029-.07.024-.072a150.044,150.044,0,0,1,11.391-24.83L42.9,12.4l1.164-.486.3-1.224.092-.373,2.435-5.427a20.657,20.657,0,0,1,7.9-1.391M55.208,1h-.415A22.21,22.21,0,0,0,45,3L42.083,9.5l-.146.593L23,18A154.762,154.762,0,0,0,11,44,53.12,53.12,0,0,0,8,76l6,26,11-1L22,62c1.417-5.25,4-11.417,6.5-14.417l.167,54.833c8,2.25,16.83,2.917,26.333,2.917s18.333-.667,26.333-2.917L81.5,47.584c2.5,3,5.083,9.167,6.5,14.417l-3,39,11,1,6-26a53.12,53.12,0,0,0-3-32A154.763,154.763,0,0,0,87,18L68.062,10.094,67.917,9.5,65,3a22.212,22.212,0,0,0-9.792-2Z"/></g><g id="Контур-30" data-name="Контур"><path d="M16.5,98.126a1,1,0,1,1-1-1A1,1,0,0,1,16.5,98.126ZM12.75,84.751a1,1,0,1,0,1,1A1,1,0,0,0,12.75,84.751Zm89.541-7.785-5.8,25.147A.5.5,0,0,1,96,102.5l-.046,0-11-1a.5.5,0,0,1-.453-.536L87.5,62.043A50.679,50.679,0,0,0,82,48.968v53.408a.5.5,0,0,1-.369.482c-7.548,2.059-16.011,3.018-26.631,3.018s-19.083-.959-26.631-3.018a.5.5,0,0,1-.369-.482V48.968a50.679,50.679,0,0,0-5.5,13.075l2.994,38.92a.5.5,0,0,1-.453.536l-11,1-.046,0a.5.5,0,0,1-.487-.388l-5.8-25.147a54.215,54.215,0,0,1,1.56-29.88,161.859,161.859,0,0,1,13.3-29.339.466.466,0,0,1,.039-.044.478.478,0,0,1,.062-.069,53.677,53.677,0,0,1,.134-.093L41.544,9.564A5.92,5.92,0,0,1,41.9,8.525l2.646-5.734a.493.493,0,0,1,.188-.213C46.833,1.258,50.575.5,55,.5s8.167.757,10.266,2.077a.493.493,0,0,1,.188.213L68.1,8.524a5.951,5.951,0,0,1,.356,1.04L87.2,17.541a.488.488,0,0,1,.042.029.436.436,0,0,1,.153.133.457.457,0,0,1,.039.044,161.859,161.859,0,0,1,13.3,29.339A54.215,54.215,0,0,1,102.291,76.966ZM42.615,9.429H67.385a5.02,5.02,0,0,0-.193-.485l-2.583-5.6C62.64,2.173,59.153,1.5,55,1.5s-7.64.672-9.609,1.847l-2.583,5.6A4.905,4.905,0,0,0,42.615,9.429ZM23.683,18.254A47.094,47.094,0,0,1,27.01,27H82.99a47.094,47.094,0,0,1,3.327-8.747L67.934,10.429H42.066ZM12.662,93.979l3.7-.423L13.454,79.584a3.267,3.267,0,0,0-2.9-2.6L8.7,76.808Zm1.727,7.485,3.551-.323-1.374-6.6-3.678.42Zm10.075-.916-.527-6.85-6.372.728,1.379,6.624ZM28,47.06V44.5c0-12.855-2.369-19.9-5.034-25.431A161.756,161.756,0,0,0,10.215,47.412,53.2,53.2,0,0,0,8.48,75.782l2.164.206a4.265,4.265,0,0,1,3.789,3.393L17.36,93.442l6.5-.743L21.5,62.039a.508.508,0,0,1,.013-.158A52.3,52.3,0,0,1,27.952,47.11.47.47,0,0,1,28,47.06ZM81,44.5A68.571,68.571,0,0,1,82.738,28H27.262A68.571,68.571,0,0,1,29,44.5v57.492c7.368,1.966,15.644,2.883,26,2.883s18.632-.917,26-2.883Zm7.5,17.538L86.14,92.7l6.5.743,2.927-14.061a4.265,4.265,0,0,1,3.789-3.393l2.164-.206a53.2,53.2,0,0,0-1.735-28.37A161.756,161.756,0,0,0,87.034,19.07C84.369,24.6,82,31.646,82,44.5v2.558a.461.461,0,0,1,.048.051,52.3,52.3,0,0,1,6.437,14.771A.508.508,0,0,1,88.5,62.039Zm12.8,14.769-1.85.176a3.267,3.267,0,0,0-2.9,2.6L93.638,93.556l3.7.423Zm-15.764,23.74,5.521.5,1.379-6.624L86.063,93.7ZM97.112,94.96l-3.678-.42-1.374,6.6,3.551.323ZM94.5,97.126a1,1,0,1,0,1,1A1,1,0,0,0,94.5,97.126Zm2.75-12.375a1,1,0,1,0,1,1A1,1,0,0,0,97.25,84.751Z"/></g></g></g></svg>