<svg id="Сгруппировать_339" data-name="Сгруппировать 339" xmlns="http://www.w3.org/2000/svg" width="61.21" height="61.21" viewBox="0 0 61.21 61.21">
  <path id="Контур_339" data-name="Контур 339" d="M1825.387,1962.4a30.652,30.652,0,1,0-9.589,11.194l9.8,5.5Z" transform="translate(-1767.448 -1918.083)" fill="#fd9578"/>
  <path id="Path_25" data-name="Path 25" d="M1774.893,1925.816a4.706,4.706,0,0,0-4.646,4.742,4.756,4.756,0,0,0,4.646,4.739,4.7,4.7,0,0,0,4.646-4.739A4.756,4.756,0,0,0,1774.893,1925.816Z" transform="translate(-1760.885 -1899.952)" fill="#fff"/>
  <path id="Path_25-2" data-name="Path 25" d="M1779.921,1925.816a4.748,4.748,0,0,0-4.739,4.742,4.8,4.8,0,0,0,4.739,4.739,4.748,4.748,0,0,0,4.74-4.739A4.806,4.806,0,0,0,1779.921,1925.816Z" transform="translate(-1749.314 -1899.952)" fill="#fff"/>
  <path id="Path_25-3" data-name="Path 25" d="M1784.821,1925.816a4.706,4.706,0,0,0-4.649,4.742,4.758,4.758,0,0,0,4.649,4.739,4.7,4.7,0,0,0,4.646-4.739A4.76,4.76,0,0,0,1784.821,1925.816Z" transform="translate(-1737.615 -1899.952)" fill="#fff"/>
</svg>
