<svg id="Сгруппировать_15" data-name="Сгруппировать 15" xmlns="http://www.w3.org/2000/svg" xmlns:xlink="http://www.w3.org/1999/xlink" width="28.435" height="61.212" viewBox="0 0 28.435 61.212">
  <defs>
    <clipPath id="clip-path">
      <path id="Контур_13" data-name="Контур 13" d="M0,51.428H28.435V-9.784H0Z" transform="translate(0 9.784)" fill="#fd9578"/>
    </clipPath>
  </defs>
  <g id="Сгруппировать_14" data-name="Сгруппировать 14" transform="translate(0 0)" clip-path="url(#clip-path)">
    <g id="Сгруппировать_13" data-name="Сгруппировать 13" transform="translate(0.003 0.004)">
      <path id="Контур_12" data-name="Контур 12" d="M5.262,25.914V55.507a.769.769,0,0,0,.77.77H17.024a.769.769,0,0,0,.77-.77V25.432h7.964a.77.77,0,0,0,.77-.707l.77-9.059a.775.775,0,0,0-.77-.838H17.793V8.4a2.731,2.731,0,0,1,2.728-2.734h6.144a.769.769,0,0,0,.77-.77V-4.16a.769.769,0,0,0-.77-.77H16.285A11.025,11.025,0,0,0,5.262,6.094v8.734H-.231A.769.769,0,0,0-1,15.6v9.065a.769.769,0,0,0,.77.77H5.262Z" transform="translate(1.001 4.93)" fill="#fd9578"/>
    </g>
  </g>
</svg>
