<svg id="Сгруппировать_16" data-name="Сгруппировать 16" xmlns="http://www.w3.org/2000/svg" xmlns:xlink="http://www.w3.org/1999/xlink" width="61.212" height="61.212" viewBox="0 0 61.212 61.212">
  <defs>
    <clipPath id="clip-path">
      <path id="Контур_11" data-name="Контур 11" d="M0,50.978H61.212V-10.234H0Z" transform="translate(0 10.234)" fill="#fd9578"/>
    </clipPath>
  </defs>
  <g id="Сгруппировать_10" data-name="Сгруппировать 10" transform="translate(0)">
    <g id="Сгруппировать_9" data-name="Сгруппировать 9" clip-path="url(#clip-path)">
      <g id="Сгруппировать_6" data-name="Сгруппировать 6" transform="translate(43.222 10.93)">
        <path id="Контур_8" data-name="Контур 8" d="M2.989,0A3.589,3.589,0,1,0,6.578,3.589,3.592,3.592,0,0,0,2.989,0" transform="translate(0.6 0)" fill="#fd9578"/>
      </g>
      <g id="Сгруппировать_7" data-name="Сгруппировать 7" transform="translate(15.785 15.532)">
        <path id="Контур_9" data-name="Контур 9" d="M12.553,0A15.076,15.076,0,1,0,27.626,15.073,15.09,15.09,0,0,0,12.553,0m0,24.733a9.657,9.657,0,1,1,9.654-9.66,9.666,9.666,0,0,1-9.654,9.66" transform="translate(2.52)" fill="#fd9578"/>
      </g>
      <g id="Сгруппировать_8" data-name="Сгруппировать 8" transform="translate(-0.001)">
        <path id="Контур_10" data-name="Контур 10" d="M35.666,50.978H11.226A18.407,18.407,0,0,1-7.16,32.592V8.152A18.407,18.407,0,0,1,11.226-10.234H35.666A18.407,18.407,0,0,1,54.052,8.152V32.592A18.407,18.407,0,0,1,35.666,50.978M11.226-4.474A12.641,12.641,0,0,0-1.4,8.152V32.592A12.641,12.641,0,0,0,11.226,45.218H35.666A12.641,12.641,0,0,0,48.292,32.592V8.152A12.641,12.641,0,0,0,35.666-4.474Z" transform="translate(7.16 10.234)" fill="#fd9578"/>
      </g>
    </g>
  </g>
</svg>
