<svg xmlns="http://www.w3.org/2000/svg" width="60.541" height="60.541" viewBox="0 0 60.541 60.541">
  <path id="Icon_awesome-phone" data-name="Icon awesome-phone" d="M58.341,2.909,46.044.071a2.856,2.856,0,0,0-3.252,1.644L37.116,14.958a2.831,2.831,0,0,0,.816,3.311L45.1,24.134A43.822,43.822,0,0,1,24.145,45.086L18.281,37.92A2.835,2.835,0,0,0,14.97,37.1L1.727,42.78A2.872,2.872,0,0,0,.071,46.044l2.838,12.3a2.837,2.837,0,0,0,2.767,2.2A54.858,54.858,0,0,0,60.54,5.676,2.834,2.834,0,0,0,58.341,2.909Z" transform="translate(0.001 0.001)" fill="#fd9578"/>
</svg>
