<svg width="180" height="80" viewBox="0 0 180 80" fill="none" xmlns="http://www.w3.org/2000/svg">
<g clip-path="url(#clip0)">
<path d="M88.979 0H90.0047V7.68701H88.979V0Z" fill="black"/>
<path d="M88.979 47.147H90.0047V54.8341H88.979V47.147Z" fill="black"/>
<path fill-rule="evenodd" clip-rule="evenodd" d="M170.412 57.4169C170.412 57.41 170.412 57.4031 170.412 57.3962C170.412 57.7996 170.059 58.2493 169.488 58.7027C167.559 60.2317 163.136 61.8052 161.328 61.8052C161.328 62.2726 161.336 62.7277 161.351 63.1707C161.846 78.0552 170.412 79.4412 170.412 79.4412V79.4411V72.3552H169.227V69.206H166.068V66.8441H169.227V63.6947H170.412V57.4169Z" fill="#FE3D32"/>
<path fill-rule="evenodd" clip-rule="evenodd" d="M170.412 57.4102C170.412 57.406 170.412 57.4017 170.412 57.3975C170.412 57.801 170.764 58.2505 171.337 58.7039C173.265 60.2329 177.688 61.8065 179.496 61.8065C179.496 62.2738 179.488 62.7289 179.473 63.1721C178.978 78.0565 170.412 79.4424 170.412 79.4424V72.3566H171.597V69.2072H174.757V66.8453H171.597V63.696H170.412V57.4102Z" fill="#D72D24"/>
<path d="M0 22.4609H20.4601L20.8536 30.2316H20.1453C19.0437 27.5891 17.8895 25.7838 16.6828 24.8157C15.4762 23.8215 13.7057 23.3245 11.3711 23.3245H9.99399V35.4514H11.3318C12.5646 35.4514 13.6007 34.9936 14.4401 34.0778C15.2796 33.1359 15.8697 31.88 16.2108 30.3102H16.8009V41.9271H16.132C15.6598 39.9647 15.0173 38.5649 14.2041 37.7278C13.4171 36.8905 12.3285 36.4718 10.9383 36.4718H9.99399V49.0699H11.4892C13.9024 49.0699 15.9485 48.3503 17.6273 46.9113C19.3321 45.4722 20.4995 43.6277 21.129 41.3776H21.9159L21.6012 49.9332H0V49.0699H2.32144V23.3245H0V22.4609Z" fill="black"/>
<path d="M32.1077 41.8092C32.1077 44.5042 32.2388 46.3225 32.5011 47.2644C32.7633 48.1802 33.275 48.638 34.0356 48.638C34.7963 48.638 35.4783 48.167 36.0816 47.2251C36.6849 46.2832 36.9866 44.9882 36.9866 43.3399V36.0401C36.9866 34.915 36.7505 33.9601 36.2783 33.1751C35.8325 32.3901 35.2029 31.9977 34.3898 31.9977C33.4716 31.9977 32.8553 32.5863 32.5404 33.7637C32.2518 34.915 32.1077 36.9165 32.1077 39.7684V41.8092ZM36.9866 74.1138V46.9505C35.9898 49.2005 34.2848 50.3256 31.8716 50.3256C26.9664 50.3256 24.5138 47.0682 24.5138 40.5534C24.5138 37.2305 25.1826 34.7842 26.5205 33.2144C27.8844 31.6444 29.9174 30.8596 32.6192 30.8596C34.7963 30.8596 36.3308 31.6837 37.2227 33.332L37.4981 31.252H46.4691V31.9585H44.3051V74.1138V74.8202H36.9866V74.1138Z" fill="black"/>
<path d="M70.2694 49.9331H61.2985L60.8656 47.0681C60.4459 48.1147 59.8163 48.9257 58.9769 49.5014C58.1638 50.0508 56.9441 50.3255 55.3178 50.3255C51.2519 50.3255 49.2191 48.1409 49.2191 43.7715V31.9584H47.0156V31.252H56.5375V44.7134C56.5375 46.2832 56.6425 47.3166 56.8523 47.8138C57.0883 48.3109 57.5342 48.5595 58.19 48.5595C58.8721 48.5595 59.4754 48.1539 59.9999 47.3429C60.5246 46.5318 60.787 45.4067 60.787 43.9677V31.9584H58.9769V31.252H68.1053V49.2267H70.2694V49.9331Z" fill="black"/>
<path d="M76.8587 28.5441C75.4685 28.5441 74.4716 28.1909 73.8683 27.4844C73.2913 26.778 73.0027 25.9014 73.0027 24.8549C73.0027 23.8084 73.3175 22.945 73.9471 22.2647C74.6029 21.5845 75.5864 21.2444 76.898 21.2444C78.2096 21.2444 79.2064 21.5583 79.8884 22.1863C80.5703 22.7879 80.9114 23.6645 80.9114 24.8156C80.9114 25.9407 80.5835 26.8434 79.9277 27.5237C79.2719 28.2039 78.2489 28.5441 76.8587 28.5441ZM70.9174 31.252H80.5573V49.2268H82.7606V49.9332H71.0747V49.2268H73.2388V31.9585H70.9174V31.252Z" fill="black"/>
<path d="M85.7267 5.12476H93.045V49.2269V49.9333H85.7267V49.2269V5.83118V5.12476Z" fill="black"/>
<path d="M101.796 28.5441C100.406 28.5441 99.4089 28.1909 98.8056 27.4844C98.2285 26.778 97.9399 25.9014 97.9399 24.8549C97.9399 23.8084 98.2548 22.945 98.8843 22.2647C99.5401 21.5845 100.524 21.2444 101.835 21.2444C103.147 21.2444 104.144 21.5583 104.826 22.1863C105.508 22.7879 105.849 23.6645 105.849 24.8156C105.849 25.9407 105.521 26.8434 104.865 27.5237C104.209 28.2039 103.186 28.5441 101.796 28.5441ZM95.8546 31.252H105.495V49.2268H107.698V49.9332H96.012V49.2268H98.176V31.9585H95.8546V31.252Z" fill="black"/>
<path d="M122.861 39.3759C122.861 36.6809 122.73 34.8756 122.468 33.9599C122.206 33.018 121.694 32.5471 120.933 32.5471C120.173 32.5471 119.491 33.018 118.887 33.9599C118.284 34.9018 117.982 36.1969 117.982 37.8452V45.145C117.982 46.2701 118.205 47.225 118.651 48.01C119.123 48.7949 119.779 49.1873 120.619 49.1873C121.484 49.1873 122.074 48.6118 122.389 47.4605C122.704 46.3093 122.861 44.2947 122.861 41.4166V39.3759ZM117.982 20.4985V34.2345C118.979 31.9846 120.684 30.8595 123.097 30.8595C128.003 30.8595 130.455 34.1169 130.455 40.6317C130.455 43.9546 129.773 46.4009 128.409 47.9707C127.071 49.5406 125.052 50.3255 122.35 50.3255C120.986 50.3255 119.936 50.1162 119.202 49.6976C118.494 49.2789 118.009 48.5855 117.746 47.6176L117.471 49.933H108.5V49.2266H110.664V21.205H108.5V20.4985H117.982Z" fill="black"/>
<path d="M144.773 32.3509C143.802 32.3509 142.95 32.9789 142.215 34.2347C141.481 35.4906 141.114 36.982 141.114 38.7087V49.2268H143.907V49.9332H131.631V49.2268H133.795V31.9585H131.631V31.252H141.114V35.0196C141.455 33.6853 142.111 32.6649 143.081 31.9585C144.052 31.2259 145.153 30.8596 146.386 30.8596C147.619 30.8596 148.616 31.2128 149.377 31.9192C150.164 32.5995 150.557 33.5807 150.557 34.8627C150.557 36.1185 150.269 37.0866 149.691 37.7668C149.114 38.4472 148.222 38.7873 147.016 38.7873C145.835 38.7873 144.957 38.3949 144.38 37.6099C143.829 36.8249 143.763 35.7391 144.183 34.3525H145.599C146.255 33.0182 145.98 32.3509 144.773 32.3509Z" fill="black"/>
<path d="M156.897 28.5441C155.506 28.5441 154.509 28.1909 153.906 27.4844C153.328 26.778 153.04 25.9014 153.04 24.8549C153.04 23.8084 153.355 22.945 153.984 22.2647C154.641 21.5845 155.623 21.2444 156.936 21.2444C158.247 21.2444 159.244 21.5583 159.925 22.1863C160.608 22.7879 160.948 23.6645 160.948 24.8156C160.948 25.9407 160.621 26.8434 159.966 27.5237C159.309 28.2039 158.286 28.5441 156.897 28.5441ZM150.955 31.252H160.594V49.2268H162.798V49.9332H151.113V49.2268H153.276V31.9585H150.955V31.252Z" fill="black"/>
<path d="M164.505 50.3255V43.3005H164.978C165.66 45.5767 166.578 47.1728 167.732 48.0886C168.887 49.0042 170.328 49.4622 172.061 49.4622C174.735 49.4622 176.073 48.6118 176.073 46.9112C176.073 46.1785 175.744 45.629 175.089 45.2629C174.066 44.6871 172.755 44.2424 171.154 43.9284C169.371 43.4574 167.876 42.8296 166.67 42.0446C165.227 41.1027 164.505 39.6114 164.505 37.5705C164.505 35.5298 165.135 33.9077 166.394 32.7041C167.654 31.4744 169.332 30.8595 171.431 30.8595C172.716 30.8595 174.04 31.1604 175.404 31.7622C175.902 31.9714 176.283 32.0762 176.545 32.0762C176.808 32.0762 177.03 31.9846 177.214 31.8015C177.397 31.6183 177.621 31.2782 177.883 30.781H178.315V36.7857H177.843C176.506 33.3843 174.434 31.6836 171.627 31.6836C170.394 31.6836 169.476 31.9061 168.873 32.3508C168.27 32.7694 167.967 33.3059 167.967 33.96C167.967 34.3524 168.06 34.6664 168.243 34.9019C168.428 35.1112 168.572 35.2681 168.677 35.3729C168.782 35.4775 168.951 35.5951 169.188 35.726C169.424 35.8306 169.62 35.9222 169.778 36.0007C169.935 36.0531 170.171 36.1316 170.486 36.2362C170.828 36.3408 171.077 36.4063 171.234 36.4324C173.018 36.8773 174.303 37.2697 175.089 37.6098C175.876 37.9238 176.624 38.3162 177.332 38.7872C178.775 39.7814 179.496 41.3905 179.496 43.6145C179.496 45.8122 178.84 47.4868 177.529 48.6379C176.217 49.763 174.42 50.3255 172.139 50.3255C170.513 50.3255 168.939 49.9461 167.417 49.1874C167.102 48.9782 166.853 48.8734 166.67 48.8734C166.092 48.8734 165.528 49.3575 164.978 50.3255H164.505Z" fill="black"/>
<path d="M56.6546 63.6968L59.5206 72.6594L62.3868 63.6968H64.1669V74.6813H62.7866V70.4036L62.9148 66.1185L60.0411 74.6813H58.9851L56.1266 66.1487L56.2548 70.4036V74.6813H54.8745V63.6968H56.6546Z" fill="#FE3D32"/>
<path d="M70.5627 74.6812C70.4823 74.5051 70.4246 74.2083 70.3893 73.7909C69.9167 74.485 69.3132 74.832 68.5791 74.832C67.8399 74.832 67.2617 74.6257 66.8444 74.2134C66.4321 73.7959 66.226 73.21 66.226 72.4556C66.226 71.6257 66.5075 70.9668 67.0706 70.4791C67.6338 69.9912 68.4057 69.7422 69.3861 69.7321H70.3667V68.8646C70.3667 68.3767 70.2585 68.0297 70.0424 67.8235C69.8262 67.6172 69.4968 67.5141 69.0543 67.5141C68.6521 67.5141 68.3252 67.6349 68.0738 67.8762C67.8224 68.1126 67.6967 68.4145 67.6967 68.7816H66.3617C66.3617 68.3641 66.4849 67.9668 66.7313 67.5896C66.9776 67.2073 67.3095 66.9081 67.7268 66.6918C68.1441 66.4755 68.6093 66.3674 69.1222 66.3674C69.9569 66.3674 70.5905 66.5761 71.0229 66.9935C71.4603 67.406 71.6841 68.0095 71.6942 68.8042V72.9233C71.6991 73.5521 71.7846 74.0977 71.9507 74.5604V74.6812H70.5627ZM68.7829 73.6174C69.1097 73.6174 69.4214 73.5269 69.7181 73.3458C70.0148 73.1648 70.2309 72.9384 70.3667 72.6668V70.7204H69.6125C68.9789 70.7304 68.4786 70.8739 68.1116 71.1504C67.7444 71.422 67.5609 71.8042 67.5609 72.2972C67.5609 72.7599 67.654 73.0969 67.84 73.3081C68.0261 73.5143 68.3404 73.6174 68.7829 73.6174Z" fill="#FE3D32"/>
<path d="M75.028 66.5182L75.0656 67.4009C75.5836 66.7119 76.2448 66.3674 77.0494 66.3674C78.4925 66.3674 79.2241 67.3305 79.2442 69.2568V74.6812H77.9167V69.3173C77.9167 68.6784 77.8087 68.2258 77.5924 67.9593C77.3812 67.6877 77.062 67.5519 76.6345 67.5519C76.3027 67.5519 76.0034 67.6625 75.737 67.8837C75.4754 68.1051 75.2642 68.3942 75.1034 68.7514V74.6812H73.7684V66.5182H75.028Z" fill="#FE3D32"/>
<path d="M85.4516 74.6812C85.3712 74.5051 85.3133 74.2083 85.278 73.7909C84.8054 74.485 84.2021 74.832 83.4678 74.832C82.7288 74.832 82.1505 74.6257 81.7331 74.2134C81.3209 73.7959 81.1146 73.21 81.1146 72.4556C81.1146 71.6257 81.3962 70.9668 81.9594 70.4791C82.5225 69.9912 83.2944 69.7422 84.275 69.7321H85.2555V68.8646C85.2555 68.3767 85.1474 68.0297 84.9311 67.8235C84.7149 67.6172 84.3855 67.5141 83.943 67.5141C83.5409 67.5141 83.214 67.6349 82.9626 67.8762C82.7111 68.1126 82.5854 68.4145 82.5854 68.7816H81.2504C81.2504 68.3641 81.3737 67.9668 81.62 67.5896C81.8664 67.2073 82.1982 66.9081 82.6157 66.6918C83.033 66.4755 83.4981 66.3674 84.011 66.3674C84.8456 66.3674 85.4792 66.5761 85.9116 66.9935C86.3492 67.406 86.5728 68.0095 86.5829 68.8042V72.9233C86.588 73.5521 86.6735 74.0977 86.8394 74.5604V74.6812H85.4516ZM83.6715 73.6174C83.9984 73.6174 84.3101 73.5269 84.6068 73.3458C84.9035 73.1648 85.1196 72.9384 85.2555 72.6668V70.7204H84.5012C83.8676 70.7304 83.3673 70.8739 83.0003 71.1504C82.6332 71.422 82.4496 71.8042 82.4496 72.2972C82.4496 72.7599 82.5426 73.0969 82.7288 73.3081C82.9148 73.5143 83.229 73.6174 83.6715 73.6174Z" fill="#FE3D32"/>
<path d="M88.3931 70.2301C88.3931 68.9575 88.6244 67.9969 89.087 67.3482C89.5496 66.6943 90.2259 66.3674 91.1159 66.3674C91.9455 66.3674 92.5766 66.7219 93.009 67.4312L93.077 66.5182H94.2837V74.7566C94.2837 75.7674 94.0248 76.5421 93.5069 77.0802C92.9889 77.6234 92.2674 77.895 91.3422 77.895C90.9399 77.895 90.4874 77.7944 89.9846 77.5932C89.4867 77.397 89.1122 77.1532 88.8608 76.8613L89.4038 75.941C89.957 76.4842 90.5678 76.7558 91.2366 76.7558C92.3478 76.7558 92.9186 76.1498 92.9487 74.9377V73.8739C92.5163 74.5126 91.9029 74.832 91.1084 74.832C90.2636 74.832 89.6049 74.5151 89.1323 73.8814C88.6596 73.2427 88.4132 72.3273 88.3931 71.1354V70.2301ZM89.7281 70.992C89.7281 71.9073 89.8614 72.5814 90.1278 73.0138C90.3993 73.4413 90.8418 73.6551 91.4553 73.6551C92.1191 73.6551 92.6169 73.3156 92.9487 72.6367V68.5552C92.6018 67.8863 92.109 67.5519 91.4705 67.5519C90.857 67.5519 90.4145 67.7682 90.143 68.2006C89.8715 68.6282 89.7332 69.287 89.7281 70.1772V70.992Z" fill="#FE3D32"/>
<path d="M99.1939 74.832C98.1782 74.832 97.3988 74.5303 96.8558 73.9267C96.3127 73.3181 96.0362 72.4279 96.026 71.2561V70.2677C96.026 69.0506 96.29 68.0976 96.818 67.4086C97.3511 66.7144 98.0927 66.3674 99.0431 66.3674C99.9985 66.3674 100.712 66.6717 101.185 67.2803C101.658 67.8888 101.899 68.8369 101.909 70.1244V70.9996H97.3535V71.1882C97.3535 72.0632 97.517 72.6995 97.8439 73.0969C98.1757 73.4942 98.6508 73.6928 99.2693 73.6928C99.6615 73.6928 100.006 73.62 100.303 73.474C100.604 73.3232 100.886 73.0868 101.147 72.7649L101.841 73.6098C101.263 74.4246 100.381 74.832 99.1939 74.832ZM99.0431 67.5141C98.4899 67.5141 98.0801 67.7052 97.8137 68.0874C97.5471 68.4647 97.3962 69.0532 97.3611 69.8528H100.574V69.6717C100.539 68.8973 100.398 68.344 100.152 68.012C99.9104 67.6802 99.5408 67.5141 99.0431 67.5141Z" fill="#FE3D32"/>
<path d="M104.775 66.5182L104.806 67.2728C105.303 66.6692 105.959 66.3674 106.774 66.3674C107.684 66.3674 108.32 66.7622 108.682 67.5519C109.195 66.7622 109.909 66.3674 110.824 66.3674C112.328 66.3674 113.097 67.3054 113.132 69.1815V74.6812H111.805V69.3096C111.805 68.7162 111.699 68.2761 111.488 67.9894C111.277 67.6977 110.92 67.5519 110.417 67.5519C110.015 67.5519 109.688 67.7077 109.436 68.0195C109.185 68.3314 109.039 68.7288 108.999 69.2116V74.6812H107.657V69.2494C107.641 68.1177 107.181 67.5519 106.276 67.5519C105.602 67.5519 105.127 67.8888 104.851 68.5627V74.6812H103.523V66.5182H104.775Z" fill="#FE3D32"/>
<path d="M118.065 74.832C117.049 74.832 116.27 74.5303 115.727 73.9267C115.184 73.3181 114.907 72.4279 114.897 71.2561V70.2677C114.897 69.0506 115.161 68.0976 115.689 67.4086C116.222 66.7144 116.964 66.3674 117.914 66.3674C118.87 66.3674 119.584 66.6717 120.056 67.2803C120.529 67.8888 120.77 68.8369 120.78 70.1244V70.9996H116.225V71.1882C116.225 72.0632 116.388 72.6995 116.715 73.0969C117.047 73.4942 117.522 73.6928 118.141 73.6928C118.533 73.6928 118.877 73.62 119.174 73.474C119.476 73.3232 119.757 73.0868 120.019 72.7649L120.712 73.6098C120.134 74.4246 119.252 74.832 118.065 74.832ZM117.914 67.5141C117.361 67.5141 116.951 67.7052 116.685 68.0874C116.418 68.4647 116.267 69.0532 116.232 69.8528H119.445V69.6717C119.41 68.8973 119.269 68.344 119.023 68.012C118.782 67.6802 118.412 67.5141 117.914 67.5141Z" fill="#FE3D32"/>
<path d="M123.646 66.5182L123.684 67.4009C124.202 66.7119 124.863 66.3674 125.668 66.3674C127.111 66.3674 127.842 67.3305 127.863 69.2568V74.6812H126.535V69.3173C126.535 68.6784 126.427 68.2258 126.211 67.9593C126 67.6877 125.68 67.5519 125.253 67.5519C124.921 67.5519 124.622 67.6625 124.355 67.8837C124.094 68.1051 123.883 68.3942 123.722 68.7514V74.6812H122.387V66.5182H123.646Z" fill="#FE3D32"/>
<path d="M131.619 64.5417V66.5183H132.848V67.5972H131.619V72.6594C131.619 72.9813 131.672 73.2251 131.777 73.3912C131.883 73.5571 132.064 73.6402 132.32 73.6402C132.496 73.6402 132.675 73.6099 132.856 73.5496L132.841 74.6813C132.539 74.7819 132.23 74.8321 131.913 74.8321C131.385 74.8321 130.983 74.6435 130.706 74.2663C130.43 73.8891 130.291 73.356 130.291 72.6669V67.5972H129.047V66.5183H130.291V64.5417H131.619Z" fill="#FE3D32"/>
<path d="M143.294 71.8143H139.584L138.731 74.6813H137.313L140.851 63.6968H142.035L145.58 74.6813H144.162L143.294 71.8143ZM139.946 70.6224H142.94L141.439 65.6281L139.946 70.6224Z" fill="#FE3D32"/>
<path d="M153.854 73.3155L153.612 73.6174C152.919 74.4271 151.904 74.832 150.566 74.832C149.379 74.832 148.446 74.4397 147.767 73.655C147.093 72.8654 146.749 71.7514 146.734 70.3129V68.1553C146.734 66.6164 147.041 65.4646 147.654 64.7C148.272 63.9307 149.195 63.5459 150.422 63.5459C151.469 63.5459 152.285 63.8376 152.874 64.4209C153.467 65.0043 153.794 65.8368 153.854 66.9181H152.474C152.418 66.2342 152.228 65.701 151.901 65.3188C151.578 64.9315 151.089 64.7378 150.429 64.7378C149.64 64.7378 149.062 64.9968 148.695 65.5148C148.328 66.0279 148.137 66.8502 148.122 67.9819V70.2224C148.122 71.3289 148.333 72.1789 148.755 72.7725C149.178 73.3608 149.783 73.655 150.573 73.655C151.317 73.655 151.883 73.474 152.27 73.112L152.474 72.9233V70.3885H150.468V69.2116H153.854V73.3155Z" fill="#FE3D32"/>
</g>
<defs>
<clipPath id="clip0">
<rect width="180" height="79.4413" fill="white"/>
</clipPath>
</defs>
</svg>
