<svg width="61" height="60" viewBox="0 0 61 60" fill="none" xmlns="http://www.w3.org/2000/svg">
<g clip-path="url(#clip0)">
<path d="M59.8791 54.4535H57.4127V32.0508C57.4127 31.5653 57.0142 31.1719 56.5225 31.1719C56.0308 31.1719 55.6323 31.5653 55.6323 32.0508V54.4535H50.2189V23.3027H55.6322V27.9492C55.6322 28.4347 56.0307 28.8281 56.5224 28.8281C57.0141 28.8281 57.4126 28.4347 57.4126 27.9492V22.4238C57.4126 21.9383 57.0141 21.5449 56.5224 21.5449H49.3287C48.837 21.5449 48.4385 21.9383 48.4385 22.4238V54.4535H44.9429V37.5762C44.9429 37.0907 44.5444 36.6973 44.0527 36.6973H36.859C36.3673 36.6973 35.9689 37.0907 35.9689 37.5762V54.4535H32.4738V30.4736C32.4738 29.988 32.0754 29.5946 31.5836 29.5946H24.3899C23.8982 29.5946 23.4998 29.988 23.4998 30.4736V54.4535H20.0047V45.8626C20.0047 45.3771 19.6063 44.9837 19.1145 44.9837H11.9207C11.429 44.9837 11.0306 45.3771 11.0306 45.8626V54.4535H5.61759V49.5827H7.60434C8.09608 49.5827 8.49452 49.1893 8.49452 48.7038C8.49452 48.2183 8.09608 47.8249 7.60434 47.8249H5.61759V36.4427H7.60434C8.09608 36.4427 8.49452 36.0493 8.49452 35.5638C8.49452 35.0783 8.09608 34.6849 7.60434 34.6849H5.61759V23.3027H7.60434C8.09608 23.3027 8.49452 22.9093 8.49452 22.4238C8.49452 21.9383 8.09608 21.5449 7.60434 21.5449H5.61759V10.1627H7.60434C8.09608 10.1627 8.49452 9.76934 8.49452 9.28383C8.49452 8.79832 8.09608 8.40492 7.60434 8.40492H5.61759V0.878906C5.61759 0.393398 5.21915 0 4.72742 0H0.890174C0.398442 0 0 0.393398 0 0.878906V15.7031C0 16.1886 0.398442 16.582 0.890174 16.582C1.38191 16.582 1.78035 16.1886 1.78035 15.7031V1.75781H3.83724V55.3324C3.83724 55.8179 4.23569 56.2113 4.72742 56.2113H58.9889V58.2422H2.8082C2.24146 58.2422 1.78035 57.7869 1.78035 57.2273V19.8047C1.78035 19.3192 1.38191 18.9258 0.890174 18.9258C0.398442 18.9258 0 19.3192 0 19.8047V57.2273C0 58.7562 1.25977 60 2.8082 60H59.8791C60.3708 60 60.7692 59.6066 60.7692 59.1211V55.3324C60.7692 54.8469 60.3708 54.4535 59.8791 54.4535ZM37.7492 38.4551H43.1625V54.4535H37.7492V38.4551ZM25.28 31.3525H30.6933V54.4535H25.28V31.3525ZM12.8108 46.7415H18.2242V54.4535H12.8108V46.7415Z" fill="#D72D24"/>
<path d="M15.5187 26.38C16.1439 26.38 16.7358 26.181 17.2292 25.8051L28.2098 17.4659L39.053 23.6422C40.2067 24.2989 41.6828 24.0594 42.563 23.0729L50.5292 14.1489C50.9248 15.2112 51.9547 15.9585 53.1634 15.9585C53.2026 15.9585 53.2421 15.9582 53.2777 15.9567C54.8253 15.8949 56.0335 14.6019 55.9709 13.0745L55.7311 7.15986C55.7008 6.41982 55.3806 5.73556 54.8293 5.2333C54.2778 4.73092 53.5599 4.47228 52.812 4.50064L46.8225 4.73736C45.2763 4.799 44.0675 6.0917 44.1282 7.61982C44.1835 8.96959 45.2136 10.0586 46.5213 10.2509L39.8678 17.7043L36.5073 15.7903C36.0814 15.5478 35.537 15.6918 35.2914 16.1125C35.0458 16.533 35.1918 17.0704 35.6176 17.313L39.6092 19.5863C39.9763 19.7951 40.4415 19.7201 40.7219 19.4061L49.188 9.92209C49.4235 9.65818 49.4772 9.28084 49.3241 8.96314C49.171 8.64556 48.8416 8.45045 48.4846 8.46263L46.9767 8.5224C46.4088 8.54701 45.93 8.10744 45.9072 7.54974C45.8849 6.99006 46.328 6.51627 46.8941 6.49365L52.8836 6.25693C53.1587 6.24556 53.4202 6.34107 53.6221 6.52506C53.8238 6.70892 53.9411 6.95947 53.9521 7.23029L54.192 13.1451C54.2149 13.7042 53.7726 14.1776 53.2023 14.2004C53.1897 14.201 53.1765 14.2007 53.1634 14.2006C52.6103 14.2006 52.1596 13.7723 52.1372 13.2255L52.0886 12.0337C52.0739 11.6749 51.8396 11.3609 51.4969 11.2407C51.154 11.1207 50.772 11.2185 50.5313 11.4878L41.227 21.9106C40.9048 22.2718 40.3642 22.3593 39.9423 22.1193L28.5837 15.6494C28.2716 15.4714 27.8817 15.4969 27.5962 15.7141L16.1428 24.4124C15.9626 24.5495 15.7468 24.6221 15.5186 24.6221C15.1958 24.6221 14.8983 24.4779 14.7028 24.2272C14.3569 23.7828 14.441 23.1438 14.8897 22.8028L27.3593 13.3328C27.6908 13.0815 28.1384 13.0518 28.4999 13.2578L32.0203 15.2629C32.446 15.5056 32.9904 15.3613 33.2361 14.9409C33.4818 14.5204 33.3358 13.9829 32.91 13.7404L29.39 11.7356C28.4025 11.1721 27.1793 11.2522 26.274 11.9395L13.8042 21.4094C12.5777 22.3413 12.3475 24.0857 13.2916 25.2987C13.8275 25.986 14.6392 26.38 15.5187 26.38Z" fill="#D72D24"/>
</g>
<defs>
<clipPath id="clip0">
<rect width="60.7692" height="60" fill="white"/>
</clipPath>
</defs>
</svg>
