<svg width="22" height="22" viewBox="0 0 22 22" fill="none" xmlns="http://www.w3.org/2000/svg">
<path fill-rule="evenodd" clip-rule="evenodd" d="M6.46535 0.0665814C7.6387 0.0131848 8.01362 0.00012207 11.0011 0.00012207H10.9976C13.986 0.00012207 14.3596 0.0131848 15.5329 0.0665814C16.704 0.120207 17.5038 0.305606 18.205 0.577631C18.9292 0.858364 19.5411 1.2342 20.153 1.84609C20.7649 2.45751 21.1407 3.07123 21.4226 3.79472C21.693 4.49415 21.8786 5.29349 21.9336 6.46455C21.9864 7.6379 22.0001 8.01283 22.0001 11.0003C22.0001 13.9877 21.9864 14.3618 21.9336 15.5351C21.8786 16.7057 21.693 17.5053 21.4226 18.2049C21.1407 18.9282 20.7649 19.5419 20.153 20.1533C19.5418 20.7652 18.929 21.142 18.2057 21.4229C17.5058 21.695 16.7056 21.8804 15.5345 21.934C14.3612 21.9874 13.9874 22.0005 10.9997 22.0005C8.01248 22.0005 7.63778 21.9874 6.46443 21.934C5.2936 21.8804 4.49403 21.695 3.79414 21.4229C3.07111 21.142 2.45739 20.7652 1.84619 20.1533C1.23454 19.5419 0.8587 18.9282 0.577509 18.2047C0.305713 17.5053 0.120314 16.7059 0.0664593 15.5349C0.0132919 14.3615 0 13.9877 0 11.0003C0 8.01283 0.0137502 7.63768 0.0662302 6.46432C0.118939 5.29372 0.304567 4.49415 0.57728 3.79449C0.859159 3.07123 1.235 2.45751 1.84688 1.84609C2.45831 1.23443 3.07203 0.858593 3.79552 0.577631C4.49494 0.305606 5.29429 0.120207 6.46535 0.0665814ZM10.6345 1.98236H10.6342H10.6341C10.4118 1.98226 10.2058 1.98217 10.0143 1.98247V1.97972C7.96417 1.98201 7.57091 1.99576 6.55615 2.04159C5.48363 2.09086 4.90131 2.26962 4.51355 2.42087C4.00021 2.6207 3.63354 2.85904 3.24853 3.24405C2.86353 3.62905 2.62473 3.99572 2.42535 4.50907C2.27479 4.89682 2.09558 5.47891 2.04654 6.55143C1.99383 7.71103 1.98329 8.05754 1.98329 10.995C1.98329 13.9325 1.99383 14.2809 2.04654 15.4405C2.09535 16.513 2.27479 17.0951 2.42535 17.4824C2.62519 17.996 2.86353 18.3617 3.24853 18.7467C3.63354 19.1317 4.00021 19.3701 4.51355 19.5694C4.90154 19.72 5.48363 19.8992 6.55615 19.9487C7.71575 20.0014 8.06386 20.0129 11.0011 20.0129C13.9382 20.0129 14.2865 20.0014 15.4461 19.9487C16.5186 19.8997 17.1012 19.7209 17.4885 19.5697C18.002 19.3703 18.3676 19.132 18.7526 18.7469C19.1376 18.3622 19.3764 17.9966 19.5758 17.4833C19.7263 17.096 19.9055 16.5139 19.9546 15.4414C20.0073 14.2818 20.0187 13.9335 20.0187 10.9978C20.0187 8.06212 20.0073 7.71378 19.9546 6.55418C19.9058 5.48166 19.7263 4.89957 19.5758 4.51227C19.3759 3.99893 19.1376 3.63226 18.7526 3.24726C18.3678 2.86225 18.0018 2.62391 17.4885 2.42453C17.1007 2.27397 16.5186 2.09476 15.4461 2.04572C14.2863 1.99301 13.9382 1.98247 11.0011 1.98247L10.6345 1.98236ZM5.35232 11.0001C5.35232 7.88045 7.88167 5.3511 11.0014 5.3511C14.121 5.35122 16.6495 7.88052 16.6495 11.0001C16.6495 14.1198 14.1211 16.648 11.0014 16.648C7.88167 16.648 5.35232 14.1198 5.35232 11.0001ZM14.6678 11.0003C14.6678 8.97516 13.026 7.33362 11.0011 7.33362C8.97593 7.33362 7.33438 8.97516 7.33438 11.0003C7.33438 13.0253 8.97593 14.6671 11.0011 14.6671C13.026 14.6671 14.6678 13.0253 14.6678 11.0003ZM15.5527 5.1286C15.5527 4.39961 16.144 3.80904 16.8728 3.80904V3.80858C17.6015 3.80858 18.1928 4.39984 18.1928 5.1286C18.1928 5.85736 17.6015 6.44862 16.8728 6.44862C16.144 6.44862 15.5527 5.85736 15.5527 5.1286Z" fill="#F2F2F2"/>
</svg>
