<svg xmlns="http://www.w3.org/2000/svg" width="102.234" height="50" viewBox="0 0 102.234 50">
  <g id="Group_8" data-name="Group 8" transform="translate(-1799 762)">
    <g id="Asset_1" data-name="Asset 1" transform="translate(1799 -762)">
      <g id="Group_2" data-name="Group 2" transform="translate(0 0)">
        <g id="Group_1" data-name="Group 1">
          <path id="Path_1" data-name="Path 1" d="M1336.63,1209.958l8.667-8.641a4.531,4.531,0,0,1,6.388,0l8.667,8.641a4.505,4.505,0,0,1,0,6.368l-8.667,8.641a4.54,4.54,0,0,1-6.388,0l-8.667-8.641A4.505,4.505,0,0,1,1336.63,1209.958Zm1.267,1.264,8.667-8.64a2.736,2.736,0,0,1,3.854,0l8.667,8.64a2.715,2.715,0,0,1,0,3.84l0,0-8.667,8.64a2.736,2.736,0,0,1-3.854,0l-8.667-8.64a2.715,2.715,0,0,1,0-3.839Z" transform="translate(-1329.641 -1200)" fill="#174998" fill-rule="evenodd"/>
          <path id="Path_2" data-name="Path 2" d="M1560.29,1217.43l7.553,7.538a4.544,4.544,0,0,0,6.392,0l8.667-8.641a4.506,4.506,0,0,0,0-6.368l-8.664-8.641a4.536,4.536,0,0,0-6.392,0l-7.553,7.538,1.106,1.1c.053.054.106.106.156.165l7.565-7.542a2.736,2.736,0,0,1,3.854,0l8.667,8.64a2.722,2.722,0,0,1,0,3.842l-8.67,8.641a2.736,2.736,0,0,1-3.854,0l-7.565-7.542c-.049.057-.106.106-.156.164Z" transform="translate(-1530.685 -1200)" fill="#545c6b" fill-rule="evenodd"/>
          <path id="Path_3" data-name="Path 3" d="M1762.44,1217.448l7.561,7.538a4.537,4.537,0,0,0,6.383,0l8.669-8.642a4.5,4.5,0,0,0,.009-6.359l-.009-.009-8.665-8.64a4.53,4.53,0,0,0-6.383,0l-7.565,7.538,1.111,1.1c.053.054.106.106.155.165l7.562-7.542a2.735,2.735,0,0,1,3.853,0l8.667,8.641a2.715,2.715,0,0,1,0,3.839l0,0-8.667,8.64a2.735,2.735,0,0,1-3.853,0l-7.562-7.542c-.053.057-.106.106-.155.164Z" transform="translate(-1711.329 -1200.019)" fill="#174998" fill-rule="evenodd"/>
          <path id="Path_4" data-name="Path 4" d="M1829.435,1279.858v2.668c0,1.143.014,1.895.044,2.26a1.629,1.629,0,0,0,.277,1,3.176,3.176,0,0,0,1.838.334,2.55,2.55,0,0,0,1.78-.426,1.56,1.56,0,0,0,.393-.907c.022-.151.075-.227.169-.227s.12.084.12.253a6.576,6.576,0,0,1-.228,1.744.494.494,0,0,1-.365.382,3.573,3.573,0,0,1-.594.026c-.812,0-1.668-.013-2.569-.045s-1.517-.044-1.851-.044c-.094,0-.38.009-.862.021s-.834.022-1.057.022c-.2,0-.3-.049-.3-.151,0-.071.106-.115.334-.137.152-.018.3-.036.455-.045.232-.049.379-.329.441-.832q.074-.594.075-3.229v-2.669c0-1.808-.009-2.872-.031-3.211a.9.9,0,0,0-.335-.761,1.66,1.66,0,0,0-.82-.151c-.17,0-.258-.045-.258-.133s.106-.138.334-.138c.263,0,.651.01,1.155.022s.816.022.928.022.419-.009.95-.022.906-.022,1.12-.022.319.045.319.138-.092.132-.275.132a3.866,3.866,0,0,0-.593.045q-.516.093-.562.867c-.022.334-.032,1.4-.032,3.211Z" transform="translate(-1768.208 -1267.436)" fill="#174998"/>
          <path id="Path_5" data-name="Path 5" d="M1623.844,1282.736v-2.665c0-1.808-.014-2.872-.031-3.211a.834.834,0,0,0-.656-.866,2.848,2.848,0,0,0-.593-.049c-.17,0-.254-.045-.254-.133s.106-.138.334-.138c.3,0,.714.01,1.235.022s.839.022.951.022c.2,0,.562,0,1.07-.022s.893-.022,1.133-.022a4,4,0,0,1,2.828.863,2.364,2.364,0,0,1,.763,1.808,3.526,3.526,0,0,1-1.057,2.637,3.679,3.679,0,0,1-2.686,1.028,2.117,2.117,0,0,1-.319-.014c-.125-.018-.183-.067-.183-.137,0-.112.142-.165.425-.165a1.82,1.82,0,0,0,1.338-.667,2.6,2.6,0,0,0,.7-1.832,2.906,2.906,0,0,0-.9-2.278,2.209,2.209,0,0,0-1.521-.589,2.164,2.164,0,0,0-.571.049c-.094.035-.143.137-.143.3v6.064q0,2.575.075,3.243c.063.5.259.769.594.818a6,6,0,0,0,.776.062c.161,0,.241.04.241.12,0,.106-.093.151-.29.151-.383,0-.851,0-1.405-.022s-.869-.022-.95-.022-.375.01-.851.022-.834.022-1.057.022c-.2,0-.3-.049-.3-.151q0-.107.335-.133c.151-.022.3-.036.455-.049.232-.049.379-.33.441-.832q.074-.593.076-3.229Z" transform="translate(-1586.107 -1267.624)" fill="#545c6b"/>
          <path id="Path_6" data-name="Path 6" d="M1413.247,1282.66v1.667c0,.293-.067.476-.2.547a9.6,9.6,0,0,1-8.56-.729,5.312,5.312,0,0,1-2.115-4.532,5.957,5.957,0,0,1,.811-3.076,5.229,5.229,0,0,1,1.838-1.878,7.824,7.824,0,0,1,4.09-.986,14.229,14.229,0,0,1,2.688.248,9.884,9.884,0,0,0,1.2.165c.142.014.213.071.213.182a3.405,3.405,0,0,0-.053.592q-.053.728-.053,1.895c0,.213-.055.319-.166.319-.08,0-.133-.067-.151-.2a2.209,2.209,0,0,0-.518-1.254,3.475,3.475,0,0,0-1.217-.773,5.635,5.635,0,0,0-2.172-.409,4.054,4.054,0,0,0-4.407,4.643,5.841,5.841,0,0,0,1.458,4.087,4.943,4.943,0,0,0,3.831,1.606q1.257,0,1.472-.319a.638.638,0,0,0,.106-.4v-1.425c0-.867,0-1.463-.013-1.783a.8.8,0,0,0-.656-.863,2.975,2.975,0,0,0-.593-.044c-.152,0-.227-.04-.227-.125s.106-.151.319-.151c.289,0,.7.008,1.231.022s.851.027.972.027c.152,0,.442-.009.874-.027s.732-.022.9-.022c.205,0,.307.053.307.151s-.062.125-.178.125a2.578,2.578,0,0,0-.437.044c-.37.072-.567.361-.589.863-.009.319-.013.93-.013,1.819Z" transform="translate(-1389.569 -1265.836)" fill="#174998"/>
          <path id="Path_7" data-name="Path 7" d="M1985.969,1211.244a2.722,2.722,0,0,1,0,3.842l-8.667,8.641a2.736,2.736,0,0,1-3.854,0l-7.565-7.542c-.049.057-.106.106-.156.164l-1.106,1.1,7.561,7.538a4.54,4.54,0,0,0,6.383,0l8.667-8.641a4.506,4.506,0,0,0,0-6.368l-8.662-8.641a4.531,4.531,0,0,0-6.383,0l-7.566,7.538,1.1,1.1c.054.054.106.106.156.165l7.567-7.542a2.736,2.736,0,0,1,3.854,0Z" transform="translate(-1892.001 -1200.022)" fill="#545c6b" fill-rule="evenodd"/>
          <path id="Path_8" data-name="Path 8" d="M2019.766,1282.66v1.667q0,.44-.2.547a9.6,9.6,0,0,1-8.561-.729,5.325,5.325,0,0,1-2.109-4.532,5.915,5.915,0,0,1,.807-3.076,5.2,5.2,0,0,1,1.838-1.878,7.811,7.811,0,0,1,4.091-.986,14.239,14.239,0,0,1,2.689.248,9.7,9.7,0,0,0,1.2.165c.143.014.213.071.213.182a3.407,3.407,0,0,0-.053.592q-.053.728-.053,1.895c0,.213-.054.319-.166.319-.084,0-.133-.067-.155-.2a2.179,2.179,0,0,0-.514-1.254,3.516,3.516,0,0,0-1.217-.773,5.634,5.634,0,0,0-2.172-.409,4.059,4.059,0,0,0-4.412,4.643,5.823,5.823,0,0,0,1.463,4.087,4.944,4.944,0,0,0,3.83,1.605c.843,0,1.333-.106,1.476-.319a.638.638,0,0,0,.106-.4v-1.423c0-.867,0-1.463-.017-1.783a.79.79,0,0,0-.652-.863,2.974,2.974,0,0,0-.592-.044c-.152,0-.228-.04-.228-.125s.106-.151.319-.151c.294,0,.7.008,1.231.022s.851.027.972.027c.156,0,.446-.009.875-.027s.736-.022.905-.022c.205,0,.3.053.3.151s-.057.125-.173.125a2.592,2.592,0,0,0-.443.044c-.37.072-.562.361-.584.863-.009.319-.013.93-.013,1.819Z" transform="translate(-1931.564 -1265.836)" fill="#545c6b"/>
          <path id="Path_9" data-name="Path 9" d="M2131.47,1493.954v-3.749l-1.369.041c-.482.009-.781.1-.889.262a.97.97,0,0,0-.156.319c-.017.076-.053.112-.106.112s-.08-.049-.08-.147a5.8,5.8,0,0,1,.192-1.055c.031-.116.067-.173.106-.173a.55.55,0,0,1,.142.053.824.824,0,0,0,.25.058c.33.031.638.044.918.044h3.632a4.5,4.5,0,0,0,.633-.039,2.069,2.069,0,0,0,.246-.04c.049,0,.072.063.072.192,0,.057,0,.226-.014.506s-.013.463-.023.557-.031.133-.071.133c-.058,0-.09-.057-.107-.182l-.009-.1c-.031-.325-.393-.494-1.08-.516l-1.154-.027v3.749c0,1.036.013,1.689.043,1.956.036.3.157.463.357.494a3.2,3.2,0,0,0,.468.036c.1,0,.148.026.148.075s-.059.089-.175.089q-.348,0-.851-.013c-.335-.01-.532-.014-.584-.014s-.227,0-.518.014-.5.013-.638.013-.183-.027-.183-.089c0-.044.067-.071.2-.085l.277-.027c.138-.031.228-.2.264-.5.031-.267.049-.916.049-1.948Z" transform="translate(-2038.778 -1458.759)" fill="#174998"/>
          <path id="Path_10" data-name="Path 10" d="M2068.066,1493.116h1.686c.04,0,.057-.018.045-.053l-.825-2.26c-.014-.053-.027-.084-.045-.084s-.044.031-.057.084l-.844,2.251C2068.017,1493.094,2068.025,1493.116,2068.066,1493.116Zm1.859.458h-2.047c-.036,0-.063.022-.081.072l-.5,1.307a1.7,1.7,0,0,0-.138.56c0,.187.125.281.366.281h.138c.094,0,.138.027.138.075s-.054.088-.156.088-.264,0-.49-.013-.388-.014-.482-.014l-.4.014c-.268.008-.5.013-.683.013-.12,0-.179-.026-.179-.088s.041-.075.112-.075a2.118,2.118,0,0,0,.286-.018.7.7,0,0,0,.477-.253,2.226,2.226,0,0,0,.3-.569l2.3-5.745c.1-.245.183-.365.254-.365s.142.1.232.293q.842,2.12,2.27,5.621c.259.6.532.934.807,1a1.7,1.7,0,0,0,.388.036c.08,0,.116.027.116.076s-.027.062-.089.071a1.934,1.934,0,0,1-.33.017c-.759,0-1.339,0-1.735-.017-.183-.005-.272-.032-.272-.071s.04-.076.124-.085c.1-.031.13-.1.085-.213l-.736-1.939a.1.1,0,0,0-.09-.062Z" transform="translate(-1982.077 -1458.116)" fill="#174998"/>
          <path id="Path_11" data-name="Path 11" d="M2015.246,1496.143a2.073,2.073,0,0,0-.887-1.818,1.5,1.5,0,0,0-.763-.219c-.117,0-.25-.01-.392-.01-.041,0-.058.022-.058.067v2.166a2,2,0,0,0,.058.622.4.4,0,0,0,.263.253,1.724,1.724,0,0,0,.669.106,1.065,1.065,0,0,0,1.111-1.17Zm-2.1-4.8v2.254a.091.091,0,0,0,.067.106,2.235,2.235,0,0,0,.425.027,1.028,1.028,0,0,0,.661-.173,1.2,1.2,0,0,0,.379-.969,1.674,1.674,0,0,0-.277-.943,1.017,1.017,0,0,0-.869-.477.763.763,0,0,0-.352.04.2.2,0,0,0-.036.138Zm-1.1,3.708v-1.613c0-1.089-.01-1.735-.022-1.935a.5.5,0,0,0-.393-.525,1.844,1.844,0,0,0-.357-.026c-.106,0-.156-.027-.156-.08s.067-.085.2-.085c.191,0,.437,0,.745.014l.509.013c.156,0,.361,0,.606-.013s.42-.014.514-.014a2.182,2.182,0,0,1,1.6.5,1.17,1.17,0,0,1,.357.871,2.09,2.09,0,0,1-.932,1.6,2.809,2.809,0,0,1,1.115.689,1.763,1.763,0,0,1,.553,1.285,1.808,1.808,0,0,1-.6,1.366,2.65,2.65,0,0,1-1.862.628c-.067,0-.281-.01-.638-.032s-.588-.027-.687-.027c-.053,0-.228,0-.517.014s-.5.013-.638.013-.183-.027-.183-.088c0-.045.067-.071.2-.085l.277-.027c.138-.031.228-.2.263-.5.032-.236.05-.885.05-1.948Z" transform="translate(-1933.554 -1459.849)" fill="#174998"/>
          <path id="Path_12" data-name="Path 12" d="M1934.52,1496.285a1.848,1.848,0,0,0,1.3-.485,3.168,3.168,0,0,0,.825-2.468,3.671,3.671,0,0,0-.776-2.428,2.4,2.4,0,0,0-1.915-.889,2.052,2.052,0,0,0-1.521.577,3.106,3.106,0,0,0-.735,2.286,3.727,3.727,0,0,0,.753,2.411,2.482,2.482,0,0,0,2.061,1Zm-.383.458a3.491,3.491,0,0,1-3.694-3.585,3.5,3.5,0,0,1,.861-2.375,3.646,3.646,0,0,1,2.927-1.21,3.832,3.832,0,0,1,2.7.926,3.235,3.235,0,0,1,1,2.495,3.642,3.642,0,0,1-1.025,2.66,3.679,3.679,0,0,1-2.766,1.085Z" transform="translate(-1861.459 -1458.768)" fill="#174998"/>
          <path id="Path_13" data-name="Path 13" d="M1863.862,1491.38v2.78c0,.089.027.147.081.165a2.129,2.129,0,0,0,.7.088,1.074,1.074,0,0,0,.651-.155,1.578,1.578,0,0,0,.545-1.369,1.713,1.713,0,0,0-.5-1.325,1.333,1.333,0,0,0-.91-.347,1.36,1.36,0,0,0-.522.053.112.112,0,0,0-.045.106Zm-1.084,3.665v-1.61c0-1.089,0-1.735-.017-1.935a.507.507,0,0,0-.393-.525,1.888,1.888,0,0,0-.361-.026c-.106,0-.156-.027-.156-.08s.067-.085.205-.085c.187,0,.437,0,.745.014l.513.013c.106,0,.326,0,.656-.013s.548-.014.638-.014a2.98,2.98,0,0,1,1.686.4,1.3,1.3,0,0,1,.406.463,1.5,1.5,0,0,1,.218.787,2.7,2.7,0,0,1-1.208,2.05c.665.84,1.031,1.3,1.1,1.37a13.2,13.2,0,0,0,.887,1.031,1.953,1.953,0,0,0,1.026.624c.076.008.144.013.213.017.106.014.151.041.151.085,0,.062-.058.089-.173.089h-.87a2.129,2.129,0,0,1-.981-.174,4.793,4.793,0,0,1-1.259-1.342q-.388-.554-.905-1.263a.213.213,0,0,0-.165-.063h-.8a.063.063,0,0,0-.071.055.069.069,0,0,0,0,.016v.129q0,1.541.045,1.944c.036.306.156.476.357.5a3.211,3.211,0,0,0,.45.036c.071,0,.112.027.112.075s-.063.089-.187.089c-.205,0-.482,0-.822-.013l-.526-.014c-.041,0-.205,0-.486.014s-.491.013-.638.013c-.12,0-.183-.027-.183-.089,0-.045.067-.071.2-.085l.277-.026c.142-.031.232-.2.267-.5.032-.236.045-.885.045-1.948Z" transform="translate(-1800.164 -1459.849)" fill="#174998"/>
          <path id="Path_14" data-name="Path 14" d="M1693.17,1493.116h1.69c.041,0,.058-.018.045-.053l-.826-2.26c-.013-.053-.026-.084-.045-.084s-.045.031-.057.084l-.845,2.254c-.013.039,0,.062.036.062Zm1.865.458h-2.048c-.036,0-.063.022-.081.072l-.495,1.307a1.708,1.708,0,0,0-.138.56c0,.187.12.281.366.281h.139c.093,0,.138.027.138.075s-.053.088-.156.088-.263,0-.49-.013-.388-.014-.482-.014l-.4.014c-.268.008-.5.013-.687.013-.116,0-.173-.026-.173-.088s.039-.075.106-.075a2.042,2.042,0,0,0,.286-.018.7.7,0,0,0,.476-.253,2.084,2.084,0,0,0,.3-.569l2.3-5.745c.1-.245.187-.365.259-.365s.142.1.227.293q.851,2.12,2.275,5.621c.26.6.527.934.807,1a1.7,1.7,0,0,0,.388.036c.076,0,.116.027.116.076s-.031.062-.089.071a1.959,1.959,0,0,1-.33.017c-.759,0-1.339,0-1.735-.017-.183-.005-.276-.032-.276-.071s.044-.076.13-.085c.1-.031.125-.1.084-.213l-.736-1.939a.1.1,0,0,0-.088-.062Z" transform="translate(-1647.069 -1458.116)" fill="#174998"/>
          <path id="Path_15" data-name="Path 15" d="M1661.933,1495.045v-1.61c0-1.089,0-1.735-.018-1.935-.018-.294-.12-.467-.312-.516a1.535,1.535,0,0,0-.313-.035c-.106,0-.161-.031-.161-.089s.071-.075.219-.075q.18,0,.629.014c.3.009.487.013.562.013s.241,0,.513-.013.478-.014.608-.014.191.027.191.075-.045.089-.13.089a1.64,1.64,0,0,0-.285.026c-.205.041-.319.213-.334.525q-.021.3-.022,1.935v1.61q0,1.64.039,2c.023.271.144.418.362.449a3.118,3.118,0,0,0,.464.036c.1,0,.147.027.147.075s-.057.089-.173.089c-.236,0-.517,0-.851-.013s-.527-.014-.58-.014-.228,0-.517.014-.5.013-.638.013-.183-.027-.183-.089c0-.045.067-.071.2-.085l.276-.026c.143-.031.232-.182.263-.453s.045-.934.045-2Z" transform="translate(-1620.797 -1459.849)" fill="#174998"/>
          <path id="Path_16" data-name="Path 16" d="M1585.039,1494.972v1c0,.174-.04.284-.12.329a4.86,4.86,0,0,1-2.209.409,4.809,4.809,0,0,1-2.957-.851,3.206,3.206,0,0,1-1.276-2.735,3.554,3.554,0,0,1,.486-1.854,3.181,3.181,0,0,1,1.106-1.134,4.742,4.742,0,0,1,2.467-.6,8.477,8.477,0,0,1,1.634.156,5.733,5.733,0,0,0,.727.107c.085,0,.125.044.125.106a2.072,2.072,0,0,0-.032.355c-.022.294-.031.671-.031,1.143,0,.13-.035.192-.106.192-.049,0-.076-.04-.089-.121a1.328,1.328,0,0,0-.313-.755,2.023,2.023,0,0,0-.736-.467,3.414,3.414,0,0,0-1.311-.249,2.448,2.448,0,0,0-2.658,2.8,3.517,3.517,0,0,0,.883,2.468,2.97,2.97,0,0,0,2.311.965c.5,0,.8-.062.887-.191a.37.37,0,0,0,.067-.243v-.859c0-.521,0-.881-.013-1.077a.467.467,0,0,0-.393-.516,1.842,1.842,0,0,0-.357-.031c-.094,0-.138-.023-.138-.072s.063-.094.191-.094c.179,0,.426.005.745.018s.513.014.584.014c.094,0,.268-.006.532-.014s.442-.018.544-.018c.121,0,.183.032.183.094s-.035.072-.106.072a1.745,1.745,0,0,0-.264.031c-.222.041-.342.213-.352.52-.009.2-.009.56-.009,1.1Z" transform="translate(-1546.936 -1458.741)" fill="#174998"/>
          <path id="Path_17" data-name="Path 17" d="M1512.817,1491.38v2.78c0,.089.026.147.081.165a2.154,2.154,0,0,0,.7.088,1.082,1.082,0,0,0,.651-.155,1.577,1.577,0,0,0,.539-1.369,1.712,1.712,0,0,0-.495-1.325,1.333,1.333,0,0,0-.91-.347,1.392,1.392,0,0,0-.522.053.112.112,0,0,0-.045.106Zm-1.084,3.665v-1.61c0-1.089,0-1.735-.018-1.935a.5.5,0,0,0-.392-.525,1.825,1.825,0,0,0-.356-.026c-.106,0-.156-.027-.156-.08s.067-.085.2-.085c.191,0,.437,0,.745.014l.513.013c.106,0,.319,0,.656-.013s.544-.014.638-.014a3.01,3.01,0,0,1,1.686.4,1.34,1.34,0,0,1,.4.463,1.505,1.505,0,0,1,.222.787,2.708,2.708,0,0,1-1.213,2.05c.669.84,1.035,1.3,1.1,1.37a13.119,13.119,0,0,0,.887,1.031,1.96,1.96,0,0,0,1.031.624c.071.008.143.013.213.017.107.014.155.041.155.085,0,.062-.057.089-.173.089H1517a2.139,2.139,0,0,1-.981-.174,4.755,4.755,0,0,1-1.255-1.342q-.394-.554-.909-1.263a.213.213,0,0,0-.165-.063h-.8a.064.064,0,0,0-.071.055.069.069,0,0,0,0,.016v.129q0,1.541.045,1.944c.036.306.156.476.357.5a3.244,3.244,0,0,0,.45.036c.076,0,.112.027.112.075s-.063.089-.183.089c-.213,0-.482,0-.821-.013l-.526-.014c-.045,0-.205,0-.486.014s-.5.013-.638.013-.183-.027-.183-.089c0-.045.067-.071.2-.085l.277-.026c.138-.031.227-.2.263-.5.032-.236.045-.885.045-1.948Z" transform="translate(-1486.469 -1459.849)" fill="#174998"/>
          <path id="Path_18" data-name="Path 18" d="M1433.211,1496.32a1.861,1.861,0,0,0,1.3-.485,3.2,3.2,0,0,0,.826-2.468,3.642,3.642,0,0,0-.781-2.428,2.389,2.389,0,0,0-1.9-.889,2.053,2.053,0,0,0-1.526.578,3.123,3.123,0,0,0-.732,2.286,3.753,3.753,0,0,0,.75,2.411,2.488,2.488,0,0,0,2.065,1Zm-.384.463a3.54,3.54,0,0,1-2.836-1.188,3.733,3.733,0,0,1,0-4.771,3.649,3.649,0,0,1,2.925-1.21,3.849,3.849,0,0,1,2.707.926,3.22,3.22,0,0,1,1,2.495,3.641,3.641,0,0,1-1.027,2.66A3.684,3.684,0,0,1,1432.827,1496.783Z" transform="translate(-1413.477 -1458.804)" fill="#174998"/>
          <path id="Path_19" data-name="Path 19" d="M1373.613,1494.446v-1.61c0-1.089,0-1.735-.017-1.935a.5.5,0,0,0-.392-.525,1.818,1.818,0,0,0-.357-.026c-.106,0-.156-.027-.156-.08s.067-.085.2-.085c.183,0,.433,0,.745.014s.508.013.575.013c1.45,0,2.213,0,2.294-.009a2.481,2.481,0,0,0,.393-.053c.106-.027.155-.036.147-.036.035,0,.058.028.058.081,0,.008-.013.062-.031.164-.018.125-.031.267-.04.432s-.027.365-.049.6c-.013.067-.045.1-.094.1s-.071-.031-.08-.1-.014-.133-.022-.2a.652.652,0,0,0-.036-.164c-.071-.174-.281-.285-.615-.33-.213-.022-.647-.035-1.307-.035-.045,0-.067.031-.067.094v2.317c0,.067.022.1.067.1.838,0,1.329,0,1.472-.017a1.546,1.546,0,0,0,.24-.027.425.425,0,0,0,.2-.106c.075-.08.125-.12.147-.12.045,0,.067.022.067.071,0,.01-.009.067-.031.183-.018.141-.032.3-.045.484-.022.347-.036.552-.036.614,0,.116-.026.173-.084.173s-.081-.031-.081-.093a1.936,1.936,0,0,0-.04-.319c-.049-.213-.213-.33-.513-.361-.173-.018-.606-.027-1.306-.027-.04,0-.058.031-.058.094v2.138a.785.785,0,0,0,.219.628,1.745,1.745,0,0,0,.887.143,2.512,2.512,0,0,0,.865-.106.84.84,0,0,0,.415-.676c.018-.094.049-.138.1-.138s.075.053.075.165a3.982,3.982,0,0,1-.12,1.014c-.032.106-.071.178-.13.2a1.017,1.017,0,0,1-.366.041c-.532,0-1.064-.01-1.588-.032s-.843-.027-.95-.027c-.057,0-.227,0-.521.014s-.5.013-.638.013-.187-.027-.187-.088c0-.045.071-.071.205-.085l.272-.026c.142-.031.232-.2.268-.5.031-.236.044-.885.044-1.948Z" transform="translate(-1363.042 -1459.251)" fill="#174998"/>
          <path id="Path_20" data-name="Path 20" d="M1794,1484.969v-1.881c0-1.271-.005-2.028-.022-2.259a.578.578,0,0,0-.46-.609,2,2,0,0,0-.415-.031c-.12,0-.183-.036-.183-.1s.08-.094.236-.094q.319,0,.87.013c.37.014.593.018.669.018.143,0,.4,0,.753-.018s.63-.013.8-.013a2.81,2.81,0,0,1,1.989.6,1.672,1.672,0,0,1,.532,1.277,2.459,2.459,0,0,1-.745,1.854,2.623,2.623,0,0,1-1.891.724,1.365,1.365,0,0,1-.222-.009c-.085-.014-.13-.045-.13-.1,0-.076.1-.116.3-.116a1.274,1.274,0,0,0,.941-.471,1.814,1.814,0,0,0,.495-1.289,2.029,2.029,0,0,0-.638-1.6,1.56,1.56,0,0,0-1.071-.414,1.343,1.343,0,0,0-.4.036c-.067.027-.107.094-.107.213v4.269q0,1.815.053,2.282c.045.347.183.543.419.577a4.367,4.367,0,0,0,.562.033c.116,0,.174.031.174.084,0,.071-.067.106-.206.106q-.408,0-.99-.013c-.387-.014-.61-.018-.669-.018s-.263,0-.6.018-.588.013-.745.013-.213-.035-.213-.106c0-.049.08-.08.236-.094.106-.013.213-.026.319-.031.161-.035.268-.231.307-.587q.054-.419.054-2.272Z" transform="translate(-1738.567 -1450.21)" fill="#174998"/>
          <path id="Path_21" data-name="Path 21" d="M1291.257,1484.911v1.17c0,.2-.049.333-.138.382a6.757,6.757,0,0,1-6.031-.512,3.748,3.748,0,0,1-1.489-3.192,4.224,4.224,0,0,1,.574-2.163,3.7,3.7,0,0,1,1.3-1.32,5.5,5.5,0,0,1,2.878-.694,10.121,10.121,0,0,1,1.888.169,6.328,6.328,0,0,0,.851.119c.106,0,.152.049.152.13a1.923,1.923,0,0,0-.036.413c-.022.342-.04.787-.04,1.334,0,.152-.039.222-.116.222-.058,0-.094-.043-.107-.137a1.555,1.555,0,0,0-.366-.885,2.426,2.426,0,0,0-.851-.543,3.941,3.941,0,0,0-1.53-.289,2.859,2.859,0,0,0-3.105,3.269,4.085,4.085,0,0,0,1.031,2.872,3.424,3.424,0,0,0,2.684,1.136c.592,0,.94-.075,1.039-.222a.477.477,0,0,0,.076-.29v-1c0-.61,0-1.032-.014-1.259a.549.549,0,0,0-.46-.6,2.022,2.022,0,0,0-.415-.032c-.106,0-.161-.031-.161-.084,0-.071.077-.106.223-.106.213,0,.5.005.866.014s.6.018.686.018c.106,0,.313,0,.616-.018s.517-.014.638-.014c.142,0,.213.036.213.106,0,.053-.04.084-.125.084a1.714,1.714,0,0,0-.308.032c-.263.048-.4.253-.415.609,0,.226-.009.654-.009,1.277Z" transform="translate(-1283.428 -1448.946)" fill="#174998"/>
          <path id="Path_22" data-name="Path 22" d="M2198.638,1494.446v-1.61c0-1.089,0-1.735-.017-1.935a.506.506,0,0,0-.4-.525,1.79,1.79,0,0,0-.357-.026c-.106,0-.156-.027-.156-.08s.067-.085.205-.085c.183,0,.433,0,.745.014s.5.013.575.013c1.446,0,2.213,0,2.294-.009a2.468,2.468,0,0,0,.393-.053c.106-.027.151-.036.147-.036.035,0,.053.028.053.081,0,.008-.008.062-.026.164-.018.125-.031.267-.041.432s-.027.365-.053.6c-.008.067-.04.1-.089.1s-.071-.031-.08-.1-.018-.133-.022-.2a.657.657,0,0,0-.036-.164c-.076-.174-.281-.285-.615-.33-.213-.022-.647-.035-1.312-.035-.041,0-.063.031-.063.094v2.317c0,.067.022.1.063.1.843,0,1.333,0,1.476-.017a1.4,1.4,0,0,0,.236-.027.426.426,0,0,0,.205-.106c.071-.08.12-.12.147-.12a.067.067,0,0,1,.063.07h0c0,.01-.01.067-.027.183-.018.141-.032.3-.045.484-.027.347-.036.552-.036.614,0,.116-.031.173-.084.173s-.085-.031-.085-.093a1.82,1.82,0,0,0-.036-.319c-.049-.213-.218-.33-.513-.361q-.26-.027-1.312-.027c-.035,0-.053.031-.053.094v2.138a.785.785,0,0,0,.219.628,1.745,1.745,0,0,0,.887.143,2.531,2.531,0,0,0,.865-.106.827.827,0,0,0,.41-.676c.022-.094.053-.138.107-.138s.071.053.071.165a3.987,3.987,0,0,1-.116,1.014.3.3,0,0,1-.13.2,1.037,1.037,0,0,1-.366.041c-.532,0-1.064-.01-1.587-.032s-.844-.027-.958-.027c-.053,0-.228,0-.517.014s-.5.013-.638.013-.183-.027-.183-.088c0-.045.067-.071.2-.085l.276-.026c.143-.031.228-.2.268-.5.027-.236.044-.885.044-1.948Z" transform="translate(-2100.294 -1459.251)" fill="#174998"/>
          <path id="Path_23" data-name="Path 23" d="M1584.37,1584.433l-1.525-4.559a1.187,1.187,0,0,0-.268-.511.5.5,0,0,0-.29-.062c-.076,0-.106-.022-.106-.067s.049-.067.155-.067c.148,0,.326.005.532.014s.307.009.3.009.076,0,.263-.009.366-.014.532-.014c.1,0,.152.022.152.067s-.04.057-.126.067a.563.563,0,0,0-.187.027c-.053.022-.076.075-.076.16a6.094,6.094,0,0,0,.156.659q.266,1.027.923,3.055h.023l1.4-3.753c.063-.169.12-.259.179-.259s.12.116.213.338l1.5,3.617h.022q.086-.319.958-3.216a1.448,1.448,0,0,0,.071-.418c0-.141-.116-.213-.348-.213-.08,0-.12-.022-.12-.067s.053-.067.165-.067c.156,0,.319.005.5.014s.258.009.254.009.075,0,.226-.009.277-.014.37-.014.13.022.13.058-.031.075-.1.075a.677.677,0,0,0-.254.035.435.435,0,0,0-.213.249c-.018.045-.081.213-.193.512q-.461,1.261-1.44,4.265c-.071.226-.142.337-.213.337s-.13-.115-.223-.351l-1.5-3.6h-.005q-1.058,2.817-1.405,3.571c-.12.253-.213.378-.263.378s-.106-.088-.165-.266Z" transform="translate(-1550.246 -1538.827)" fill="#545c6b"/>
          <path id="Path_24" data-name="Path 24" d="M1517.2,1582.047h1.324c.032,0,.045-.013.036-.045l-.647-1.774c-.014-.039-.022-.062-.04-.062s-.031.023-.039.062l-.665,1.77C1517.159,1582.029,1517.169,1582.047,1517.2,1582.047Zm1.463.361h-1.61c-.027,0-.049.017-.063.058l-.388,1.028a1.31,1.31,0,0,0-.112.435c0,.151.1.222.291.222h.106c.071,0,.107.018.107.059s-.039.07-.12.07-.205,0-.384-.009-.307-.013-.379-.013l-.312.013c-.213,0-.388.009-.54.009-.089,0-.138-.021-.138-.07s.032-.059.089-.059a1.847,1.847,0,0,0,.223-.013.566.566,0,0,0,.374-.2,1.733,1.733,0,0,0,.236-.445l1.808-4.514c.077-.192.144-.285.2-.285s.106.075.179.227q.663,1.668,1.788,4.42c.2.472.411.734.638.783a1.494,1.494,0,0,0,.3.029c.063,0,.094.018.094.059s-.027.049-.071.057a1.761,1.761,0,0,1-.259.013q-.9,0-1.365-.013c-.144,0-.213-.022-.213-.057s.032-.059.1-.063c.08-.026.106-.08.066-.169l-.574-1.52a.075.075,0,0,0-.072-.049Z" transform="translate(-1490.32 -1538.407)" fill="#545c6b"/>
          <path id="Path_25" data-name="Path 25" d="M2028.206,1583.512v-1.263c0-.859,0-1.365-.018-1.526a.388.388,0,0,0-.308-.408,1.442,1.442,0,0,0-.281-.022c-.081,0-.12-.022-.12-.063s.049-.066.155-.066c.144,0,.339,0,.589.013l.45.009c.093,0,.264,0,.508-.009s.426-.013.532-.013a1.885,1.885,0,0,1,1.337.409,1.123,1.123,0,0,1,.362.851,1.657,1.657,0,0,1-.5,1.249,1.728,1.728,0,0,1-1.271.489,1.2,1.2,0,0,1-.151,0c-.059-.009-.089-.031-.089-.067,0-.053.071-.08.205-.08a.851.851,0,0,0,.638-.319,1.243,1.243,0,0,0,.331-.867,1.373,1.373,0,0,0-.426-1.077,1.041,1.041,0,0,0-.722-.28.892.892,0,0,0-.268.022c-.049.018-.071.063-.071.142v2.872c0,.814.014,1.326.036,1.539q.046.346.281.386a2.963,2.963,0,0,0,.37.026c.076,0,.116.018.116.058s-.049.07-.138.07c-.183,0-.405,0-.665-.009l-.45-.013c-.045,0-.179,0-.411.013s-.392.009-.5.009-.143-.021-.143-.07c0-.032.055-.054.156-.062a1.822,1.822,0,0,1,.219-.022c.106-.027.178-.156.213-.4.022-.186.035-.7.035-1.53Z" transform="translate(-1948.174 -1539.721)" fill="#545c6b"/>
          <path id="Path_26" data-name="Path 26" d="M1951.727,1582.329v-1.049c0-.858,0-1.365-.014-1.526a.393.393,0,0,0-.307-.41,1.615,1.615,0,0,0-.281-.017c-.085,0-.125-.022-.125-.067s.053-.067.161-.067c.138,0,.334.005.584.014l.468.009.415-.009c.223-.009.379-.014.468-.014.106,0,.161.023.161.067s-.039.067-.116.067a1.344,1.344,0,0,0-.213.017c-.161.032-.25.169-.267.414q-.015.235-.014,1.521v1.01a2.216,2.216,0,0,0,.562,1.769,1.384,1.384,0,0,0,.9.294,1.348,1.348,0,0,0,.995-.386,1.424,1.424,0,0,0,.362-.76,6.867,6.867,0,0,0,.058-1.024v-.9q0-1.287-.018-1.521a.4.4,0,0,0-.308-.414,1.409,1.409,0,0,0-.258-.017c-.08,0-.125-.022-.125-.067s.053-.067.151-.067c.213,0,.492.01.83.023l.339-.009c.213-.009.37-.014.482-.014s.151.023.151.067-.045.067-.129.067a1.354,1.354,0,0,0-.213.017c-.161.032-.25.169-.268.41-.009.161-.013.667-.013,1.526v.766a4.77,4.77,0,0,1-.116,1.183,1.836,1.836,0,0,1-.567.979,2.254,2.254,0,0,1-1.5.515,2.3,2.3,0,0,1-1.6-.494,2.455,2.455,0,0,1-.638-1.9Z" transform="translate(-1879.83 -1538.854)" fill="#545c6b"/>
          <path id="Path_27" data-name="Path 27" d="M1874.746,1583.544a1.472,1.472,0,0,0,1.025-.378,2.5,2.5,0,0,0,.647-1.939,2.908,2.908,0,0,0-.611-1.915,1.9,1.9,0,0,0-1.5-.7,1.607,1.607,0,0,0-1.2.454,2.428,2.428,0,0,0-.58,1.8,2.945,2.945,0,0,0,.594,1.9,1.947,1.947,0,0,0,1.619.783Zm-.3.359a2.776,2.776,0,0,1-2.226-.933,2.931,2.931,0,0,1,0-3.749,2.876,2.876,0,0,1,2.3-.948,3.023,3.023,0,0,1,2.128.726,2.532,2.532,0,0,1,.785,1.961,2.84,2.84,0,0,1-2.985,2.941Z" transform="translate(-1808.822 -1538.032)" fill="#545c6b"/>
          <path id="Path_28" data-name="Path 28" d="M1804.1,1580.63v2.184c0,.072.022.116.063.129a1.675,1.675,0,0,0,.549.071.884.884,0,0,0,.513-.12,1.249,1.249,0,0,0,.425-1.076,1.356,1.356,0,0,0-.387-1.046,1.069,1.069,0,0,0-.714-.271,1.007,1.007,0,0,0-.411.045.091.091,0,0,0-.036.084Zm-.851,2.882v-1.263c0-.859-.005-1.365-.014-1.526a.389.389,0,0,0-.308-.408,1.491,1.491,0,0,0-.281-.022c-.085,0-.125-.022-.125-.063s.053-.066.161-.066c.147,0,.344,0,.58.013l.406.009c.08,0,.254,0,.513-.009s.433-.013.5-.013a2.371,2.371,0,0,1,1.324.311,1,1,0,0,1,.319.365,1.171,1.171,0,0,1,.174.618,2.14,2.14,0,0,1-.95,1.61c.522.658.812,1.018.861,1.077.282.351.514.618.7.814a1.535,1.535,0,0,0,.807.484c.057.005.106.014.165.018.08.009.125.031.125.063,0,.049-.049.07-.138.07h-.686a1.7,1.7,0,0,1-.768-.133,3.862,3.862,0,0,1-.99-1.059c-.2-.294-.442-.622-.713-.992a.169.169,0,0,0-.13-.049h-.624c-.041,0-.059.018-.059.057v.1c0,.81.014,1.317.036,1.526.027.245.12.373.281.4a2.9,2.9,0,0,0,.352.027c.059,0,.085.018.085.059s-.045.07-.142.07c-.161,0-.38,0-.638-.008l-.415-.013c-.035,0-.161,0-.383.013s-.388.008-.5.008-.147-.021-.147-.07c0-.032.053-.054.161-.063a1.806,1.806,0,0,1,.213-.023c.112-.026.183-.155.213-.4.026-.186.036-.7.036-1.53Z" transform="translate(-1747.146 -1539.721)" fill="#545c6b"/>
          <path id="Path_29" data-name="Path 29" d="M1723.729,1576.289v.894c0,.155-.035.253-.106.29a5.141,5.141,0,0,1-4.577-.387,2.858,2.858,0,0,1-1.128-2.423,3.21,3.21,0,0,1,.434-1.646,2.741,2.741,0,0,1,.982-1,4.177,4.177,0,0,1,2.185-.532,7.758,7.758,0,0,1,1.442.129,4.8,4.8,0,0,0,.638.089c.075.009.106.04.106.1a2.044,2.044,0,0,0-.026.319c-.022.262-.031.6-.031,1.014,0,.107-.027.169-.089.169-.041,0-.067-.036-.081-.106a1.179,1.179,0,0,0-.275-.677,1.878,1.878,0,0,0-.652-.414,3.124,3.124,0,0,0-1.16-.213,2.17,2.17,0,0,0-2.355,2.485,3.12,3.12,0,0,0,.781,2.184,2.632,2.632,0,0,0,2.048.859c.446,0,.709-.059.785-.174a.34.34,0,0,0,.057-.218v-.756c0-.463,0-.783-.008-.958a.415.415,0,0,0-.348-.458,1.459,1.459,0,0,0-.319-.027c-.081,0-.12-.018-.12-.063s.053-.08.169-.08c.156,0,.375,0,.656.009s.455.014.522.014.236,0,.468-.014.388-.009.482-.009.161.026.161.08-.031.063-.094.063a1.254,1.254,0,0,0-.232.027c-.2.035-.3.191-.313.463-.009.174-.009.494-.009.969Z" transform="translate(-1671.544 -1531.964)" fill="#545c6b"/>
          <path id="Path_30" data-name="Path 30" d="M1462.2,1575.77v1.426c0,.61.01,1.01.028,1.205q.033.44.147.532a1.68,1.68,0,0,0,.981.178,1.363,1.363,0,0,0,.951-.226.8.8,0,0,0,.213-.485c.013-.079.045-.12.089-.12s.066.045.066.138a3.541,3.541,0,0,1-.12.93.264.264,0,0,1-.2.2,2.146,2.146,0,0,1-.319.013c-.433,0-.893-.008-1.373-.021s-.813-.027-.99-.027c-.049,0-.2,0-.46.013s-.446.014-.567.014-.161-.027-.161-.081.059-.062.179-.075c.081-.009.161-.017.246-.022.125-.026.2-.178.232-.445.031-.213.045-.787.045-1.725v-1.424c0-.965-.01-1.539-.018-1.717a.469.469,0,0,0-.179-.4.874.874,0,0,0-.437-.085c-.094,0-.138-.022-.138-.071s.058-.071.179-.071c.138,0,.344.005.616.009s.437.013.495.013.223,0,.509-.013.482-.009.6-.009.169.022.169.071-.049.071-.147.071a1.827,1.827,0,0,0-.319.027c-.183.032-.281.187-.3.463-.009.178-.018.752-.018,1.717Z" transform="translate(-1441.439 -1533.695)" fill="#545c6b"/>
          <path id="Path_31" data-name="Path 31" d="M1297.6,1595.624l-15.6.587,15.6.587Z" transform="translate(-1282 -1553.536)" fill="#545c6b" fill-rule="evenodd"/>
          <path id="Path_32" data-name="Path 32" d="M2096.24,1595.624l15.6.587-15.6.587Z" transform="translate(-2009.618 -1553.536)" fill="#545c6b" fill-rule="evenodd"/>
          <path id="Path_33" data-name="Path 33" d="M1756.417,1648.173v-1.05a.149.149,0,0,0-.116-.156.662.662,0,0,0-.106-.01c-.031,0-.045-.008-.045-.021s.018-.028.063-.028.13.006.218.006h.339c.077,0,.125-.006.152-.006a.634.634,0,0,1,.476.152.331.331,0,0,1,.112.257.615.615,0,0,1-.281.471.855.855,0,0,1,.334.2.521.521,0,0,1,.166.383.532.532,0,0,1-.179.4.79.79,0,0,1-.558.187l-.193-.009c-.106-.009-.178-.009-.213-.009h-.151c-.084,0-.152.005-.193.005s-.057-.01-.057-.028.022-.021.063-.026a.471.471,0,0,0,.08-.009c.045-.008.071-.057.081-.147.009-.071.013-.263.013-.578Zm.331-1.1v.665a.028.028,0,0,0,.021.031.625.625,0,0,0,.13.01.3.3,0,0,0,.2-.053.348.348,0,0,0,.116-.285.5.5,0,0,0-.085-.28.308.308,0,0,0-.263-.143c-.063,0-.095,0-.106.014a.044.044,0,0,0-.013.039Zm.638,1.424a.613.613,0,0,0-.268-.538.442.442,0,0,0-.228-.067h-.12a.016.016,0,0,0-.017.015.031.031,0,0,0,0,0v.638a.791.791,0,0,0,.017.187.153.153,0,0,0,.081.076.524.524,0,0,0,.2.031.343.343,0,0,0,.213-.067.332.332,0,0,0,.12-.28Zm3.617-.325v-1.05a.148.148,0,0,0-.116-.156.649.649,0,0,0-.106-.01c-.032,0-.049-.008-.049-.021s.022-.028.062-.028.13.006.219.006h.339c.077,0,.125-.006.151-.006a.655.655,0,0,1,.482.152.348.348,0,0,1,.107.257.617.617,0,0,1-.282.471.86.86,0,0,1,.335.2.519.519,0,0,1,.16.383.544.544,0,0,1-.175.4.809.809,0,0,1-.562.187l-.192-.009c-.106-.009-.179-.009-.213-.009h-.152c-.085,0-.151.005-.192.005s-.058-.01-.058-.028.022-.021.063-.026a.488.488,0,0,0,.081-.009c.045-.008.071-.057.08-.147.009-.071.014-.263.014-.578Zm.334-1.1v.665c0,.018,0,.027.018.031a.613.613,0,0,0,.129.01.3.3,0,0,0,.2-.053.348.348,0,0,0,.116-.285.457.457,0,0,0-.085-.28.305.305,0,0,0-.259-.143c-.063,0-.1,0-.106.014a.055.055,0,0,0-.01.039Zm.629,1.424a.615.615,0,0,0-.267-.538.451.451,0,0,0-.228-.067h-.124c-.01,0-.014,0-.014.018v.638a.789.789,0,0,0,.014.187.146.146,0,0,0,.08.076.529.529,0,0,0,.2.031.336.336,0,0,0,.213-.067.329.329,0,0,0,.12-.28Zm9.894-.8v.477a4.025,4.025,0,0,0,.01.4.26.26,0,0,0,.049.177.575.575,0,0,0,.334.059c.178,0,.272-.022.319-.075a.279.279,0,0,0,.071-.161c0-.027.014-.041.032-.041s.022.014.022.045a1.185,1.185,0,0,1-.04.312.089.089,0,0,1-.067.067.462.462,0,0,1-.106.009c-.147,0-.3,0-.468-.009s-.277-.009-.334-.009h-.156c-.084,0-.152.005-.193.005s-.053-.01-.053-.028.018-.021.058-.026a.524.524,0,0,0,.084-.009c.026-.008.067-.057.081-.147.009-.071.013-.263.013-.578v-1.046a.173.173,0,0,0-.063-.137.3.3,0,0,0-.147-.028c-.031,0-.049-.008-.049-.021s.023-.028.063-.028.116.006.213.006h.338c.1,0,.166-.006.2-.006s.058.01.058.028-.014.021-.049.021a.813.813,0,0,0-.106.01c-.063.009-.1.062-.106.156v.573Zm5.888,1.064a.169.169,0,0,1,.067-.129.22.22,0,0,1,.138-.057c.018,0,.04.027.075.08a.245.245,0,0,1,.054.129.383.383,0,0,1-.036.13,1.469,1.469,0,0,1-.218.36.163.163,0,0,1-.045.031c-.018,0-.022-.009-.022-.027a.326.326,0,0,1,.022-.044.5.5,0,0,0,.08-.236.277.277,0,0,0-.057-.165.64.64,0,0,1-.059-.071Zm2.128-1.064v.477a3.989,3.989,0,0,0,.01.4.32.32,0,0,0,.049.177.6.6,0,0,0,.334.059c.173,0,.276-.022.319-.075a.257.257,0,0,0,.075-.161c0-.027.014-.041.028-.041s.022.014.022.045a1.2,1.2,0,0,1-.04.312.078.078,0,0,1-.067.067.465.465,0,0,1-.106.009c-.147,0-.3,0-.464-.009s-.277-.009-.338-.009h-.156c-.089,0-.148.005-.192.005s-.054-.01-.054-.028.023-.021.063-.026a.475.475,0,0,0,.08-.009c.045-.008.071-.057.081-.147.009-.071.013-.263.013-.578v-1.046a.163.163,0,0,0-.062-.137.287.287,0,0,0-.148-.028c-.031,0-.045-.008-.045-.021s.018-.028.059-.028.12.006.213.006h.338c.094,0,.166-.006.206-.006s.058.01.058.028-.018.021-.049.021a.819.819,0,0,0-.106.01c-.063.009-.1.062-.106.156,0,.057-.01.249-.01.573Zm1.879,0v.881a.279.279,0,0,0,.053.177.567.567,0,0,0,.33.059c.173,0,.276-.022.326-.075a.287.287,0,0,0,.072-.161c0-.027.012-.041.027-.041s.022.014.022.045a1.191,1.191,0,0,1-.041.312.076.076,0,0,1-.067.067.466.466,0,0,1-.106.009c-.147,0-.3,0-.464-.009s-.277-.009-.338-.009h-.152c-.085,0-.151.005-.192.005s-.059-.01-.059-.028.022-.021.063-.026a.47.47,0,0,0,.08-.009c.045-.008.072-.057.081-.147.009-.071.014-.263.014-.578v-1.046a.174.174,0,0,0-.058-.137.317.317,0,0,0-.152-.028c-.031,0-.045-.008-.045-.021s.018-.028.058-.028.12.006.213.006h.344c.1,0,.161-.006.2-.006s.059.01.059.028-.018.021-.049.021a.821.821,0,0,0-.107.01c-.063.009-.1.062-.106.156v.573Zm2.515,1.3a1.4,1.4,0,0,1-.945-.293,1,1,0,0,1-.344-.8.94.94,0,0,1,.319-.738,1.246,1.246,0,0,1,.873-.289,3.166,3.166,0,0,1,.4.026c.067.014.155.027.276.045.027,0,.045.013.045.031a.107.107,0,0,1-.01.049.76.76,0,0,0-.009.107c0,.081-.01.179-.014.294,0,.04-.013.063-.031.063s-.027-.022-.027-.063a.39.39,0,0,0-.106-.249.535.535,0,0,0-.213-.12,1.23,1.23,0,0,0-.344-.045.757.757,0,0,0-.518.165.9.9,0,0,0-.254.7.956.956,0,0,0,.295.724.836.836,0,0,0,.576.24,1.418,1.418,0,0,0,.272-.022.45.45,0,0,0,.232-.129.394.394,0,0,0,.093-.179c.009-.039.018-.058.035-.058s.028.014.028.045a1.546,1.546,0,0,1-.022.155,1.219,1.219,0,0,1-.041.2.105.105,0,0,1-.071.08,1.382,1.382,0,0,1-.5.063Zm-25.487-.453v-.2a.537.537,0,0,0-.059-.245c-.008-.018-.071-.12-.187-.307s-.191-.311-.232-.374a.555.555,0,0,0-.165-.169.194.194,0,0,0-.106-.031c-.022,0-.035-.009-.035-.022s.018-.022.045-.022h.138c.081,0,.138.005.165.005a.942.942,0,0,0,.106-.005,1.419,1.419,0,0,1,.148,0c.036,0,.04.01.04.022s-.018.018-.054.026a.041.041,0,0,0-.035.045.193.193,0,0,0,.031.08c0,.014.142.245.406.7.106-.192.227-.409.356-.65a.309.309,0,0,0,.036-.119.054.054,0,0,0-.05-.059h0c-.031-.009-.044-.017-.044-.026s.013-.022.039-.022h.116a1.031,1.031,0,0,0,.112.005c.018,0,.059,0,.13-.005a.921.921,0,0,1,.125,0c.013,0,.045.01.045.022s-.018.022-.049.022a.234.234,0,0,0-.106.026.583.583,0,0,0-.129.116,3.445,3.445,0,0,0-.242.369,3.671,3.671,0,0,0-.218.382.548.548,0,0,0-.036.232v.2c0,.137.005.227.01.266a.112.112,0,0,0,.1.1,1.108,1.108,0,0,0,.12.01c.022,0,.036,0,.036.017s-.014.022-.049.022h-.663c-.036,0-.053,0-.053-.022s.017-.017.053-.021a.36.36,0,0,1,.067,0c.045-.009.071-.053.076-.129s.01-.147.01-.235Zm4.317-.271v-.912a.129.129,0,0,0-.106-.134.306.306,0,0,0-.094-.009c-.032,0-.045-.009-.045-.022s.018-.022.053-.022h.2c.081,0,.125.005.133.005.028,0,.085,0,.17-.005a1.546,1.546,0,0,1,.165,0,.794.794,0,0,1,.442.107.367.367,0,0,1,.106.12.413.413,0,0,1,.058.205.694.694,0,0,1-.319.525c.175.213.268.333.286.355.094.112.169.2.232.263a.535.535,0,0,0,.268.163.235.235,0,0,0,.059,0c.027,0,.041.013.041.021s-.014.022-.045.022h-.228a.569.569,0,0,1-.252-.044,1.283,1.283,0,0,1-.326-.343c-.072-.1-.148-.205-.237-.325a.055.055,0,0,0-.045-.018h-.213c-.013,0-.017,0-.017.018v.029a4.391,4.391,0,0,0,.013.5c.013.077.041.12.094.129a1.082,1.082,0,0,0,.116.01c.018,0,.026,0,.026.017s-.013.023-.045.023h-.644c-.031,0-.045,0-.045-.023s.014-.017.05-.021a.365.365,0,0,1,.071,0c.04-.009.062-.053.071-.129s.013-.231.013-.5Zm.282-.942v.716c0,.022.009.035.021.04a.492.492,0,0,0,.183.026.3.3,0,0,0,.17-.039.416.416,0,0,0,.138-.356.438.438,0,0,0-.13-.343.357.357,0,0,0-.236-.088.376.376,0,0,0-.134.013A.043.043,0,0,0,1763.381,1647.328Zm2.408,1.658a.925.925,0,0,1-.745-.307.891.891,0,0,1-.223-.618.875.875,0,0,1,.223-.609.958.958,0,0,1,.763-.312,1.02,1.02,0,0,1,.709.236.827.827,0,0,1,.26.645.933.933,0,0,1-.268.684.962.962,0,0,1-.722.281Zm.1-.12a.49.49,0,0,0,.344-.125.807.807,0,0,0,.213-.632.922.922,0,0,0-.205-.627.624.624,0,0,0-.495-.231.541.541,0,0,0-.4.151.779.779,0,0,0-.193.586.948.948,0,0,0,.2.623.646.646,0,0,0,.532.253Zm1.6-.6v-.912a.129.129,0,0,0-.106-.134.284.284,0,0,0-.094-.009c-.027,0-.039-.009-.039-.022s.017-.022.053-.022h.191c.08,0,.134.005.152.005.379,0,.576,0,.6-.005a.35.35,0,0,0,.106-.013l.04-.008c.009,0,.013.008.013.021a.277.277,0,0,0-.009.04.879.879,0,0,0-.009.112c0,.044-.01.1-.014.155a.025.025,0,0,1-.023.027h0c-.014,0-.018-.009-.018-.027a.183.183,0,0,1,0-.049.257.257,0,0,0-.014-.04c-.017-.049-.071-.076-.161-.084a2.768,2.768,0,0,0-.338-.014c-.014,0-.018.01-.018.027v.6c0,.017,0,.021.018.021h.383a.269.269,0,0,0,.063,0,.151.151,0,0,0,.053-.031c.018-.018.032-.026.04-.026s.014,0,.014.017a.273.273,0,0,1,0,.045c-.005.041-.01.081-.014.125,0,.093-.008.142-.008.161s-.01.045-.023.045-.022-.01-.022-.027-.005-.04-.01-.081-.057-.084-.134-.088a2.628,2.628,0,0,0-.342-.01c-.01,0-.014.01-.014.022v.552a.18.18,0,0,0,.059.16.432.432,0,0,0,.232.036.615.615,0,0,0,.223-.028.218.218,0,0,0,.106-.173c0-.021.014-.035.023-.035s.022.014.022.045a1.193,1.193,0,0,1-.031.257c-.01.031-.022.049-.036.053a.294.294,0,0,1-.093.01c-.138,0-.277,0-.415-.01a2.083,2.083,0,0,0-.25,0h-.3c-.035,0-.049,0-.049-.022s.018-.017.054-.021a.408.408,0,0,1,.071,0c.028,0,.057-.053.067-.129s.013-.231.013-.5Zm1.989-.414v.414a2.979,2.979,0,0,0,.01.351.267.267,0,0,0,.044.155.5.5,0,0,0,.29.049.454.454,0,0,0,.281-.062.253.253,0,0,0,.058-.143c0-.022.013-.035.027-.035s.022.013.022.039a1.1,1.1,0,0,1-.036.271.085.085,0,0,1-.057.058.46.46,0,0,1-.094,0c-.13,0-.264,0-.406-.01a2.789,2.789,0,0,0-.289,0h-.3c-.031,0-.049,0-.049-.022s.018-.017.054-.021a.41.41,0,0,1,.071,0c.022,0,.062-.053.071-.129s.009-.231.009-.5v-.912a.141.141,0,0,0-.049-.12.3.3,0,0,0-.13-.022c-.031,0-.045-.009-.045-.022s.018-.022.054-.022h.183c.077,0,.129.005.147.005s.067,0,.147-.005.144,0,.179,0,.049.009.049.022-.013.022-.045.022a.337.337,0,0,0-.094.009c-.053.01-.08.054-.084.134-.005.049-.01.213-.01.5Zm4.483.481h-.532c-.013,0-.018.009-.022.021l-.127.337a.359.359,0,0,0-.036.147c0,.044.031.071.094.071h.036c.027,0,.035,0,.035.017s-.013.022-.04.022h-.54c-.031,0-.045,0-.045-.022s.009-.017.028-.017a.433.433,0,0,0,.075,0,.2.2,0,0,0,.125-.067.767.767,0,0,0,.077-.147l.6-1.48c.026-.062.049-.094.066-.094s.04.022.063.075c.148.365.344.851.594,1.446.067.155.134.24.213.257a.537.537,0,0,0,.1.01c.022,0,.032,0,.032.017s0,.018-.022.018a.432.432,0,0,1-.085,0h-.455c-.045,0-.071,0-.071-.018s.014-.017.036-.021.031-.022.023-.054l-.193-.5a.029.029,0,0,0-.027-.017Zm-.481-.112h.441c.014,0,.014,0,.014-.014l-.223-.58c0-.014,0-.022-.009-.022s-.014.008-.014.022l-.222.578c0,.014,0,.018.009.018Zm2.007.676-.509-1.489a.344.344,0,0,0-.089-.165.184.184,0,0,0-.1-.022c-.022,0-.036-.009-.036-.022s.018-.022.054-.022h.173a.911.911,0,0,1,.106.005s.027,0,.088-.005.121,0,.179,0c.032,0,.049.01.049.022s-.013.022-.039.022a.14.14,0,0,0-.063.008.056.056,0,0,0-.027.054,1.87,1.87,0,0,0,.053.213c.058.227.161.561.3,1h.01l.464-1.228c.022-.057.039-.084.057-.084s.04.035.071.106l.5,1.187h0c.022-.071.125-.425.319-1.053a.579.579,0,0,0,.022-.138c0-.049-.041-.071-.116-.071-.027,0-.041-.009-.041-.023s.018-.022.053-.022h.166a.388.388,0,0,1,.084.005s.027,0,.077-.005a.959.959,0,0,1,.124,0c.031,0,.045.01.045.022s-.014.023-.036.023a.214.214,0,0,0-.084.014.124.124,0,0,0-.067.079,1.282,1.282,0,0,0-.067.169c-.106.276-.264.745-.478,1.4-.027.076-.049.107-.071.107s-.04-.041-.071-.116l-.5-1.179h0c-.232.614-.388,1.005-.468,1.17-.041.084-.067.125-.085.125s-.035-.031-.053-.09Z" transform="translate(-1705.709 -1599.334)" fill="#545c6b"/>
        </g>
      </g>
    </g>
    <rect id="Rectangle_20" data-name="Rectangle 20" width="102.234" height="50" transform="translate(1799 -762)" fill="rgba(255,255,255,0)"/>
  </g>
</svg>
