<svg xmlns="http://www.w3.org/2000/svg" width="149.074" height="30" viewBox="0 0 149.074 30">
  <g id="Group_65" data-name="Group 65" transform="translate(-1641.321 375.211)">
    <g id="Group_64" data-name="Group 64" transform="translate(1641.321 -372.762)">
      <path id="Path_9" data-name="Path 9" d="M1735.171-366.028v-5.385l-1.966.059c-.692.014-1.122.144-1.277.376a1.405,1.405,0,0,0-.224.458c-.025.109-.076.161-.152.161s-.115-.069-.115-.21a8.244,8.244,0,0,1,.276-1.517c.044-.167.1-.248.152-.248a.81.81,0,0,1,.2.076,1.149,1.149,0,0,0,.359.083c.474.044.916.063,1.318.063h5.216a6.412,6.412,0,0,0,.909-.056,2.666,2.666,0,0,0,.353-.057c.07,0,.1.09.1.276,0,.082,0,.325-.02.727s-.019.665-.033.8-.044.191-.1.191c-.083,0-.129-.082-.154-.261l-.013-.144c-.044-.465-.564-.709-1.551-.74l-1.657-.039v5.384c0,1.488.019,2.426.062,2.809.052.431.225.665.512.709a4.771,4.771,0,0,0,.672.052c.144,0,.213.037.213.108s-.085.128-.251.128c-.333,0-.741-.007-1.222-.019s-.764-.02-.839-.02-.326,0-.744.02-.718.019-.916.019-.263-.039-.263-.128c0-.063.1-.1.287-.122l.4-.039c.2-.044.327-.287.379-.718.045-.383.07-1.315.07-2.8Z" transform="translate(-1602.022 374.016)" fill="#174998"/>
      <path id="Path_10" data-name="Path 10" d="M1728.492-366.275h2.421c.058,0,.082-.026.064-.076l-1.185-3.246c-.02-.076-.04-.121-.065-.121s-.063.045-.082.121l-1.212,3.233C1728.422-366.307,1728.433-366.275,1728.492-366.275Zm2.668.658h-2.94c-.052,0-.091.032-.116.1l-.718,1.877a2.461,2.461,0,0,0-.2.8c0,.269.179.4.525.4h.2c.135,0,.2.039.2.108s-.077.126-.224.126-.379,0-.7-.019-.557-.02-.692-.02l-.574.02c-.385.011-.718.019-.981.019-.172,0-.257-.037-.257-.126s.059-.108.161-.108a3.257,3.257,0,0,0,.411-.026,1,1,0,0,0,.685-.363,3.191,3.191,0,0,0,.431-.817l3.3-8.25c.145-.352.264-.524.365-.524s.2.144.333.421q1.211,3.044,3.26,8.072c.372.862.764,1.341,1.159,1.436a2.427,2.427,0,0,0,.557.052c.115,0,.167.039.167.109s-.039.089-.128.1a2.753,2.753,0,0,1-.474.024c-1.09,0-1.923,0-2.492-.024-.263-.007-.391-.046-.391-.1s.057-.109.178-.122c.144-.045.187-.144.122-.306l-1.057-2.785a.144.144,0,0,0-.129-.089Z" transform="translate(-1604.97 373.983)" fill="#174998"/>
      <path id="Path_11" data-name="Path 11" d="M1724.837-364.5a2.978,2.978,0,0,0-1.274-2.611,2.142,2.142,0,0,0-1.1-.315c-.168,0-.359-.014-.563-.014-.059,0-.083.03-.083.1v3.111a2.866,2.866,0,0,0,.083.892.577.577,0,0,0,.378.365,2.46,2.46,0,0,0,.96.151,1.529,1.529,0,0,0,1.6-1.453,1.676,1.676,0,0,0-.006-.227Zm-3.016-6.895v3.237a.129.129,0,0,0,.1.152,3.1,3.1,0,0,0,.61.039,1.466,1.466,0,0,0,.949-.248,1.725,1.725,0,0,0,.544-1.392,2.415,2.415,0,0,0-.4-1.354,1.464,1.464,0,0,0-1.248-.685,1.118,1.118,0,0,0-.506.057.281.281,0,0,0-.052.2Zm-1.58,5.325v-2.316c0-1.564-.014-2.492-.032-2.779a.72.72,0,0,0-.564-.754,2.677,2.677,0,0,0-.513-.037c-.152,0-.224-.039-.224-.115s.1-.122.287-.122c.274,0,.628,0,1.07.02l.731.019c.224,0,.518,0,.87-.019s.6-.02.738-.02a3.136,3.136,0,0,1,2.3.718,1.687,1.687,0,0,1,.513,1.251,3,3,0,0,1-1.338,2.3,4.045,4.045,0,0,1,1.6.99,2.541,2.541,0,0,1,.794,1.845,2.6,2.6,0,0,1-.862,1.962,3.8,3.8,0,0,1-2.674.9c-.1,0-.4-.014-.916-.046s-.844-.039-.987-.039c-.076,0-.328,0-.743.02s-.718.019-.916.019-.263-.039-.263-.126c0-.065.1-.1.287-.122l.4-.039c.2-.045.327-.286.378-.718.046-.339.072-1.271.072-2.8Z" transform="translate(-1607.485 374.07)" fill="#174998"/>
      <path id="Path_12" data-name="Path 12" d="M1716.185-362.691a2.658,2.658,0,0,0,1.867-.7,4.551,4.551,0,0,0,1.185-3.544,5.278,5.278,0,0,0-1.115-3.487,3.442,3.442,0,0,0-2.75-1.277,2.942,2.942,0,0,0-2.184.829,4.453,4.453,0,0,0-1.056,3.283,5.351,5.351,0,0,0,1.082,3.462,3.568,3.568,0,0,0,2.96,1.436Zm-.55.658a5.014,5.014,0,0,1-5.3-4.712c-.009-.145-.01-.292-.006-.437a5.02,5.02,0,0,1,1.237-3.411,5.235,5.235,0,0,1,4.2-1.738,5.5,5.5,0,0,1,3.877,1.33,4.648,4.648,0,0,1,1.436,3.583,5.231,5.231,0,0,1-1.472,3.82,5.29,5.29,0,0,1-3.972,1.558Z" transform="translate(-1611.228 374.014)" fill="#174998"/>
      <path id="Path_13" data-name="Path 13" d="M1705.92-371.345v3.992c0,.128.039.211.116.237a3.09,3.09,0,0,0,1.005.126,1.548,1.548,0,0,0,.935-.223,2.265,2.265,0,0,0,.783-1.966,2.462,2.462,0,0,0-.718-1.9,1.906,1.906,0,0,0-1.307-.5,1.917,1.917,0,0,0-.75.076.157.157,0,0,0-.065.152Zm-1.557,5.263v-2.312c0-1.564,0-2.492-.024-2.779a.727.727,0,0,0-.564-.754,2.615,2.615,0,0,0-.519-.037c-.152,0-.224-.039-.224-.115s.1-.122.294-.122c.268,0,.627,0,1.07.02l.737.019c.152,0,.468,0,.942-.019s.787-.02.916-.02a4.269,4.269,0,0,1,2.421.574,1.857,1.857,0,0,1,.583.665,2.159,2.159,0,0,1,.313,1.13,3.882,3.882,0,0,1-1.735,2.944c.955,1.206,1.481,1.867,1.58,1.967a19.44,19.44,0,0,0,1.274,1.481,2.808,2.808,0,0,0,1.473.9c.109.011.207.019.306.024.152.02.217.059.217.122,0,.089-.083.128-.248.128h-1.25a3.077,3.077,0,0,1-1.409-.25,6.879,6.879,0,0,1-1.808-1.927q-.558-.8-1.3-1.814a.307.307,0,0,0-.237-.09h-1.149a.09.09,0,0,0-.1.078h0a.072.072,0,0,0,0,.023v.185q0,2.212.065,2.792c.052.439.224.684.513.718a4.851,4.851,0,0,0,.646.052c.1,0,.161.039.161.108s-.091.128-.269.128c-.295,0-.692,0-1.181-.019l-.755-.02c-.059,0-.294,0-.7.02s-.705.019-.917.019c-.172,0-.263-.039-.263-.128,0-.065.1-.1.287-.122l.4-.037c.2-.045.333-.287.384-.718.046-.339.064-1.271.064-2.8Z" transform="translate(-1614.409 374.071)" fill="#174998"/>
      <path id="Path_14" data-name="Path 14" d="M1688.6-366.275h2.427c.059,0,.083-.026.065-.076L1689.9-369.6c-.019-.076-.037-.121-.064-.121s-.065.045-.082.121l-1.214,3.237c-.019.056,0,.089.052.089Zm2.678.658h-2.941c-.052,0-.091.032-.116.1l-.711,1.877a2.428,2.428,0,0,0-.2.8c0,.269.172.4.526.4h.2c.134,0,.2.039.2.108s-.076.126-.224.126-.378,0-.7-.019-.557-.02-.692-.02l-.574.02c-.385.011-.718.019-.987.019-.167,0-.249-.037-.249-.126s.056-.108.152-.108a3.3,3.3,0,0,0,.411-.026,1.013,1.013,0,0,0,.683-.363,2.99,2.99,0,0,0,.431-.817l3.3-8.25c.144-.352.269-.524.372-.524s.2.144.326.421q1.221,3.044,3.267,8.072c.373.862.757,1.341,1.159,1.436a2.419,2.419,0,0,0,.557.052c.109,0,.167.039.167.109s-.044.089-.128.1a2.916,2.916,0,0,1-.474.024c-1.09,0-1.923,0-2.492-.024-.263-.007-.4-.046-.4-.1s.063-.109.187-.122c.144-.045.179-.144.121-.306l-1.057-2.785a.142.142,0,0,0-.126-.089Z" transform="translate(-1622.359 373.983)" fill="#174998"/>
      <path id="Path_15" data-name="Path 15" d="M1682.832-366.084V-368.4c0-1.564,0-2.492-.026-2.779-.026-.422-.172-.671-.448-.741a2.16,2.16,0,0,0-.449-.05c-.152,0-.231-.044-.231-.128s.1-.108.314-.108c.172,0,.472.006.9.02s.7.019.807.019.346,0,.737-.019.687-.02.873-.02.274.039.274.108-.064.128-.187.128a2.3,2.3,0,0,0-.409.037c-.294.059-.458.306-.479.754q-.03.431-.032,2.779v2.312q0,2.354.056,2.872c.033.389.207.6.52.645a4.69,4.69,0,0,0,.666.052c.144,0,.211.039.211.108s-.082.128-.249.128c-.339,0-.742,0-1.222-.019s-.757-.02-.833-.02-.328,0-.742.02-.718.019-.916.019-.263-.039-.263-.128c0-.066.1-.1.287-.122l.4-.037c.205-.044.333-.261.378-.651s.065-1.341.065-2.872Z" transform="translate(-1623.722 374.074)" fill="#174998"/>
      <path id="Path_16" data-name="Path 16" d="M1682.312-364.535v1.436c0,.25-.057.408-.172.472a6.982,6.982,0,0,1-3.172.587,6.9,6.9,0,0,1-4.247-1.222,4.6,4.6,0,0,1-1.833-3.928,5.1,5.1,0,0,1,.7-2.663,4.555,4.555,0,0,1,1.588-1.629,6.8,6.8,0,0,1,3.543-.862,12.155,12.155,0,0,1,2.346.224,8.2,8.2,0,0,0,1.044.154c.122,0,.179.063.179.152a2.9,2.9,0,0,0-.046.51c-.032.422-.044.964-.044,1.641,0,.187-.05.276-.152.276-.07,0-.109-.057-.128-.174a1.909,1.909,0,0,0-.45-1.084,2.893,2.893,0,0,0-1.057-.671,4.893,4.893,0,0,0-1.883-.358,3.515,3.515,0,0,0-3.84,3.158,3.534,3.534,0,0,0,.023.863,5.047,5.047,0,0,0,1.268,3.544,4.271,4.271,0,0,0,3.319,1.386c.718,0,1.149-.089,1.274-.274a.531.531,0,0,0,.1-.349v-1.234c0-.748,0-1.265-.019-1.547a.671.671,0,0,0-.564-.741,2.562,2.562,0,0,0-.513-.044c-.135,0-.2-.033-.2-.1s.091-.135.274-.135c.257,0,.612.007,1.07.024s.737.022.839.022c.135,0,.385-.009.764-.022s.635-.024.781-.024c.174,0,.263.046.263.135s-.05.1-.152.1a2.236,2.236,0,0,0-.379.044c-.319.059-.491.306-.506.747-.013.287-.013.8-.013,1.58Z" transform="translate(-1627.558 374.011)" fill="#174998"/>
      <path id="Path_17" data-name="Path 17" d="M1668.568-371.345v3.992c0,.128.037.211.116.237a3.13,3.13,0,0,0,1.005.126,1.558,1.558,0,0,0,.935-.223,2.268,2.268,0,0,0,.774-1.966,2.46,2.46,0,0,0-.711-1.9,1.906,1.906,0,0,0-1.307-.5,1.973,1.973,0,0,0-.75.076.158.158,0,0,0-.065.152Zm-1.557,5.263v-2.312c0-1.564,0-2.492-.026-2.779a.717.717,0,0,0-.563-.754,2.546,2.546,0,0,0-.511-.037c-.152,0-.224-.039-.224-.115s.1-.122.287-.122c.274,0,.628,0,1.07.02l.737.019c.152,0,.458,0,.942-.019s.781-.02.916-.02a4.318,4.318,0,0,1,2.421.574,1.925,1.925,0,0,1,.574.665,2.161,2.161,0,0,1,.319,1.13,3.892,3.892,0,0,1-1.742,2.944c.961,1.206,1.486,1.867,1.58,1.967a18.588,18.588,0,0,0,1.274,1.481,2.814,2.814,0,0,0,1.48.9c.1.011.205.019.306.024.154.02.223.059.223.122,0,.089-.082.128-.249.128h-1.251a3.077,3.077,0,0,1-1.409-.25,6.839,6.839,0,0,1-1.8-1.927q-.567-.8-1.305-1.814a.307.307,0,0,0-.237-.09h-1.149a.091.091,0,0,0-.1.079.06.06,0,0,0,0,.023v.185q0,2.212.065,2.792c.052.439.224.684.513.718a4.855,4.855,0,0,0,.646.052c.109,0,.161.039.161.108s-.091.128-.263.128c-.306,0-.692,0-1.179-.019l-.755-.02c-.065,0-.294,0-.7.02s-.718.019-.916.019-.263-.039-.263-.128c0-.065.1-.1.287-.122l.4-.037c.2-.045.326-.287.378-.718.046-.339.065-1.271.065-2.8Z" transform="translate(-1630.695 374.071)" fill="#174998"/>
      <path id="Path_18" data-name="Path 18" d="M1662.859-362.7a2.676,2.676,0,0,0,1.867-.7,4.6,4.6,0,0,0,1.186-3.544,5.231,5.231,0,0,0-1.122-3.487,3.428,3.428,0,0,0-2.729-1.277,2.94,2.94,0,0,0-2.191.83,4.476,4.476,0,0,0-1.051,3.283,5.389,5.389,0,0,0,1.077,3.462,3.579,3.579,0,0,0,2.966,1.436Zm-.552.665a5.088,5.088,0,0,1-4.073-1.706,5.36,5.36,0,0,1,0-6.852,5.233,5.233,0,0,1,4.2-1.738,5.527,5.527,0,0,1,3.887,1.33,4.626,4.626,0,0,1,1.436,3.583,5.24,5.24,0,0,1-1.475,3.82A5.3,5.3,0,0,1,1662.308-362.03Z" transform="translate(-1634.485 374.017)" fill="#174998"/>
      <path id="Path_19" data-name="Path 19" d="M1652.318-366.054v-2.312c0-1.564,0-2.492-.024-2.779a.718.718,0,0,0-.563-.754,2.56,2.56,0,0,0-.513-.037c-.152,0-.224-.039-.224-.115s.1-.122.287-.122c.263,0,.622,0,1.07.02s.729.019.826.019c2.082,0,3.178,0,3.294-.013a3.754,3.754,0,0,0,.564-.076c.151-.039.222-.052.211-.052.05,0,.082.04.082.116,0,.011-.017.089-.044.236-.024.18-.045.383-.058.62s-.039.524-.07.862c-.017.1-.065.144-.134.144s-.1-.044-.115-.144-.02-.191-.032-.287a.95.95,0,0,0-.052-.236c-.1-.25-.4-.409-.883-.474-.306-.032-.929-.05-1.877-.05-.064,0-.1.044-.1.135v3.327c0,.1.032.144.1.144,1.2,0,1.909,0,2.114-.024a2.328,2.328,0,0,0,.345-.039.613.613,0,0,0,.287-.152c.108-.115.179-.172.211-.172.065,0,.1.032.1.1,0,.014-.013.1-.045.263-.026.2-.046.431-.066.7-.03.5-.052.793-.052.882,0,.167-.037.248-.121.248s-.116-.045-.116-.134a2.574,2.574,0,0,0-.058-.458c-.07-.306-.306-.474-.737-.518-.248-.026-.869-.039-1.875-.039-.057,0-.083.044-.083.135v3.07a1.135,1.135,0,0,0,.314.9,2.52,2.52,0,0,0,1.274.205,3.632,3.632,0,0,0,1.242-.152,1.206,1.206,0,0,0,.6-.971c.026-.135.07-.2.144-.2s.108.076.108.237a5.648,5.648,0,0,1-.172,1.456c-.046.152-.1.256-.187.287a1.442,1.442,0,0,1-.526.059c-.764,0-1.528-.014-2.281-.046s-1.211-.039-1.365-.039c-.082,0-.326,0-.748.02s-.718.019-.916.019-.269-.039-.269-.126c0-.065.1-.1.294-.122l.391-.037c.2-.044.333-.287.385-.718.045-.339.063-1.271.063-2.8Z" transform="translate(-1637.103 374.042)" fill="#174998"/>
      <path id="Path_20" data-name="Path 20" d="M1697.249-366.205v-2.7c0-1.825-.007-2.912-.031-3.244a.831.831,0,0,0-.661-.875,2.763,2.763,0,0,0-.6-.045c-.172,0-.263-.052-.263-.144s.115-.135.339-.135q.457,0,1.25.019c.531.02.852.024.961.024.205,0,.574,0,1.081-.024s.9-.019,1.149-.019a4.03,4.03,0,0,1,2.856.862,2.4,2.4,0,0,1,.764,1.834,3.537,3.537,0,0,1-1.07,2.663,3.773,3.773,0,0,1-2.716,1.04,1.963,1.963,0,0,1-.319-.013c-.122-.022-.187-.066-.187-.144,0-.111.144-.167.431-.167a1.831,1.831,0,0,0,1.352-.676,2.611,2.611,0,0,0,.711-1.851,2.913,2.913,0,0,0-.916-2.3,2.245,2.245,0,0,0-1.538-.595,1.932,1.932,0,0,0-.574.052c-.1.039-.154.135-.154.306v6.131q0,2.606.076,3.277c.065.5.263.78.6.829a6.3,6.3,0,0,0,.807.047c.167,0,.25.045.25.121,0,.1-.1.152-.3.152-.391,0-.866-.007-1.422-.019s-.876-.026-.961-.026-.377,0-.862.026-.844.019-1.07.019-.306-.05-.306-.152c0-.07.115-.115.339-.135.152-.019.306-.037.458-.045.231-.05.384-.332.441-.843q.078-.6.078-3.263Z" transform="translate(-1617.608 373.568)" fill="#174998"/>
      <path id="Path_21" data-name="Path 21" d="M1652.516-364.411v1.68c0,.287-.07.478-.2.549a9.71,9.71,0,0,1-8.661-.735,5.38,5.38,0,0,1-2.138-4.584,6.048,6.048,0,0,1,.824-3.106,5.283,5.283,0,0,1,1.867-1.9,7.9,7.9,0,0,1,4.133-1,14.438,14.438,0,0,1,2.711.243,9.189,9.189,0,0,0,1.222.171c.152,0,.219.07.219.187a2.714,2.714,0,0,0-.052.593c-.032.491-.058,1.13-.058,1.916,0,.218-.056.319-.167.319-.083,0-.135-.062-.154-.2a2.231,2.231,0,0,0-.526-1.271,3.486,3.486,0,0,0-1.222-.78,5.648,5.648,0,0,0-2.2-.415,4.1,4.1,0,0,0-4.485,3.688,4.076,4.076,0,0,0,.026,1.007,5.868,5.868,0,0,0,1.48,4.124,4.917,4.917,0,0,0,3.855,1.631c.85,0,1.35-.108,1.492-.319a.7.7,0,0,0,.109-.416v-1.436c0-.876,0-1.482-.02-1.808a.789.789,0,0,0-.661-.862,2.859,2.859,0,0,0-.6-.046c-.152,0-.231-.045-.231-.121,0-.1.111-.152.32-.152.306,0,.718.007,1.244.02s.862.026.985.026c.152,0,.449,0,.885-.026s.743-.02.916-.02c.2,0,.306.052.306.152,0,.076-.059.121-.179.121a2.4,2.4,0,0,0-.442.046c-.378.069-.574.363-.6.875,0,.325-.013.939-.013,1.834Z" transform="translate(-1641.238 373.505)" fill="#174998"/>
      <path id="Path_22" data-name="Path 22" d="M1740.094-366.054v-2.312c0-1.564,0-2.492-.024-2.779a.727.727,0,0,0-.575-.754,2.457,2.457,0,0,0-.512-.037c-.152,0-.224-.039-.224-.115s.1-.122.294-.122c.263,0,.622,0,1.07.02s.718.019.826.019c2.076,0,3.178,0,3.294-.013a3.548,3.548,0,0,0,.564-.076c.152-.039.217-.052.211-.052.05,0,.076.04.076.116,0,.011-.012.089-.037.236-.026.18-.045.383-.059.62s-.039.524-.076.862c-.012.1-.058.144-.128.144s-.1-.044-.115-.144-.026-.191-.031-.287a.939.939,0,0,0-.052-.236c-.109-.25-.4-.409-.883-.474-.306-.032-.929-.05-1.884-.05-.059,0-.09.044-.09.135v3.327c0,.1.031.144.09.144,1.211,0,1.914,0,2.12-.024a2.237,2.237,0,0,0,.339-.039.616.616,0,0,0,.294-.152q.153-.172.211-.172a.1.1,0,0,1,.09.1h0c0,.014-.014.1-.039.263-.026.2-.046.431-.065.7-.039.5-.052.793-.052.882,0,.167-.045.248-.121.248s-.122-.045-.122-.134a2.453,2.453,0,0,0-.052-.458c-.071-.306-.313-.474-.737-.518q-.372-.039-1.884-.039c-.049,0-.076.045-.076.135v3.07a1.135,1.135,0,0,0,.314.9,2.521,2.521,0,0,0,1.274.205,3.631,3.631,0,0,0,1.242-.152,1.185,1.185,0,0,0,.589-.971c.032-.135.076-.2.154-.2s.1.076.1.237a5.711,5.711,0,0,1-.167,1.456.427.427,0,0,1-.187.287,1.508,1.508,0,0,1-.525.059c-.763,0-1.527-.014-2.278-.046s-1.212-.039-1.376-.039c-.076,0-.327,0-.744.02s-.718.019-.915.019-.264-.039-.264-.126c0-.065.1-.1.287-.122l.4-.037c.205-.045.327-.287.385-.718.039-.339.063-1.271.063-2.8Z" transform="translate(-1598.829 374.042)" fill="#174998"/>
      <path id="Path_23" data-name="Path 23" d="M1657.424-355.234l-2.19-6.547a1.7,1.7,0,0,0-.385-.734.7.7,0,0,0-.417-.089c-.109,0-.152-.032-.152-.1s.07-.1.222-.1c.213,0,.468.007.764.02s.441.013.431.013.109,0,.378-.013.526-.02.764-.02c.144,0,.218.03.218.1s-.058.082-.181.1a.774.774,0,0,0-.269.039c-.076.032-.109.106-.109.23a8.355,8.355,0,0,0,.224.946q.381,1.473,1.326,4.387h.033l2.01-5.39c.09-.243.172-.372.257-.372s.172.167.306.485l2.154,5.194h.031q.123-.459,1.376-4.618a2.081,2.081,0,0,0,.1-.6c0-.2-.167-.306-.5-.306-.115,0-.172-.032-.172-.1s.076-.1.237-.1c.224,0,.458.007.718.02s.37.013.365.013.108,0,.325-.013.4-.02.531-.02.187.032.187.083-.045.108-.144.108a.948.948,0,0,0-.365.05.622.622,0,0,0-.306.358c-.026.065-.116.306-.277.735q-.664,1.809-2.068,6.125c-.1.325-.2.484-.306.484s-.187-.165-.32-.5l-2.154-5.17h-.007q-1.521,4.046-2.018,5.128c-.172.363-.306.543-.378.543s-.152-.126-.237-.382Z" transform="translate(-1635.67 378.174)" fill="#545c6b"/>
      <path id="Path_24" data-name="Path 24" d="M1650.132-358.036h1.9c.046,0,.065-.019.052-.065l-.929-2.549c-.02-.055-.032-.089-.058-.089s-.044.033-.056.089l-.955,2.543C1650.073-358.062,1650.087-358.036,1650.132-358.036Zm2.1.518h-2.312c-.039,0-.07.024-.09.083l-.557,1.475a1.892,1.892,0,0,0-.161.626c0,.217.144.319.418.319h.152c.1,0,.154.026.154.085s-.056.1-.172.1-.294,0-.552-.013-.441-.017-.544-.017l-.448.017c-.306,0-.557.013-.775.013-.128,0-.2-.03-.2-.1s.046-.085.128-.085a3,3,0,0,0,.32-.019.818.818,0,0,0,.537-.287,2.5,2.5,0,0,0,.339-.639l2.6-6.483c.111-.276.207-.409.287-.409s.152.108.257.326q.952,2.4,2.568,6.347c.287.678.59,1.054.916,1.125a2.273,2.273,0,0,0,.431.042c.091,0,.135.026.135.085s-.039.07-.1.082a2.7,2.7,0,0,1-.374.019c-.86,0-1.515-.007-1.96-.019-.207,0-.306-.032-.306-.082s.046-.085.144-.09c.115-.037.152-.115.095-.243l-.823-2.183a.11.11,0,0,0-.1-.07Z" transform="translate(-1638.781 378.152)" fill="#545c6b"/>
      <path id="Path_25" data-name="Path 25" d="M1702.694-357.884V-359.7c0-1.234,0-1.96-.026-2.191a.557.557,0,0,0-.442-.586,2,2,0,0,0-.4-.032c-.116,0-.172-.032-.172-.09s.07-.095.223-.095c.207,0,.487,0,.846.019l.646.013c.134,0,.379,0,.729-.013s.612-.019.764-.019a2.706,2.706,0,0,1,1.92.587,1.613,1.613,0,0,1,.52,1.222,2.382,2.382,0,0,1-.718,1.794,2.481,2.481,0,0,1-1.825.7,1.835,1.835,0,0,1-.217,0c-.085-.013-.128-.045-.128-.1,0-.076.1-.115.294-.115a1.227,1.227,0,0,0,.916-.458,1.785,1.785,0,0,0,.475-1.245,1.97,1.97,0,0,0-.612-1.547,1.493,1.493,0,0,0-1.037-.4,1.288,1.288,0,0,0-.385.032c-.07.026-.1.09-.1.2v4.124c0,1.169.02,1.9.052,2.21.044.33.178.516.4.554a4.394,4.394,0,0,0,.531.037c.109,0,.167.026.167.083s-.07.1-.2.1c-.263,0-.581,0-.955-.014l-.646-.017c-.064,0-.257,0-.59.017s-.563.014-.718.014-.205-.03-.205-.1c0-.046.079-.078.224-.089a2.547,2.547,0,0,1,.314-.032c.152-.039.256-.224.306-.574.031-.267.05-1.005.05-2.2Z" transform="translate(-1615.012 378.217)" fill="#545c6b"/>
      <path id="Path_26" data-name="Path 26" d="M1694.559-358.3V-359.8c0-1.232,0-1.96-.02-2.192a.565.565,0,0,0-.441-.589,2.232,2.232,0,0,0-.4-.024c-.122,0-.179-.032-.179-.1s.076-.1.231-.1c.2,0,.479.007.839.02l.672.013.6-.013c.32-.013.544-.02.672-.02.152,0,.231.032.231.1s-.056.1-.167.1a1.816,1.816,0,0,0-.306.024c-.231.046-.359.241-.383.593q-.022.338-.02,2.184v1.45a3.183,3.183,0,0,0,.807,2.542,1.992,1.992,0,0,0,1.293.421,1.931,1.931,0,0,0,1.429-.554,2.042,2.042,0,0,0,.52-1.091,9.827,9.827,0,0,0,.083-1.471V-359.8q0-1.848-.026-2.184a.575.575,0,0,0-.442-.595,2,2,0,0,0-.371-.023c-.115,0-.179-.032-.179-.1s.076-.1.217-.1c.306,0,.707.014,1.192.033l.487-.013c.306-.013.531-.02.692-.02s.217.033.217.1-.064.1-.185.1a1.978,1.978,0,0,0-.306.024q-.347.069-.385.589c-.013.231-.019.958-.019,2.191v1.1a6.828,6.828,0,0,1-.167,1.7,2.633,2.633,0,0,1-.814,1.406,3.232,3.232,0,0,1-2.154.74,3.3,3.3,0,0,1-2.3-.709,3.527,3.527,0,0,1-.916-2.729Z" transform="translate(-1618.56 378.175)" fill="#545c6b"/>
      <path id="Path_27" data-name="Path 27" d="M1689.666-355.325a2.117,2.117,0,0,0,1.472-.544,3.591,3.591,0,0,0,.929-2.783,4.19,4.19,0,0,0-.878-2.752,2.727,2.727,0,0,0-2.154-1,2.307,2.307,0,0,0-1.723.651,3.486,3.486,0,0,0-.833,2.586,4.223,4.223,0,0,0,.853,2.729,2.8,2.8,0,0,0,2.325,1.124Zm-.431.516a3.99,3.99,0,0,1-3.2-1.34,4.208,4.208,0,0,1,0-5.384,4.123,4.123,0,0,1,3.3-1.361,4.344,4.344,0,0,1,3.056,1.041,3.643,3.643,0,0,1,1.127,2.818,4.077,4.077,0,0,1-3.925,4.225c-.121.006-.241,0-.362,0Z" transform="translate(-1622.245 378.13)" fill="#545c6b"/>
      <path id="Path_28" data-name="Path 28" d="M1679.988-362.024v3.136c0,.1.031.167.091.185a2.4,2.4,0,0,0,.788.1,1.273,1.273,0,0,0,.737-.172,1.8,1.8,0,0,0,.61-1.545,1.947,1.947,0,0,0-.556-1.5,1.529,1.529,0,0,0-1.025-.389,1.416,1.416,0,0,0-.59.065.126.126,0,0,0-.052.121Zm-1.222,4.139V-359.7c0-1.234-.007-1.96-.02-2.191a.559.559,0,0,0-.442-.586,2,2,0,0,0-.4-.032c-.122,0-.179-.032-.179-.09s.076-.095.231-.095c.211,0,.494,0,.833.019l.583.013c.115,0,.365,0,.737-.013s.622-.019.718-.019a3.4,3.4,0,0,1,1.9.447,1.439,1.439,0,0,1,.458.524,1.7,1.7,0,0,1,.25.888,3.081,3.081,0,0,1-1.365,2.312c.75.945,1.166,1.462,1.237,1.547.405.5.738.887,1,1.169a2.206,2.206,0,0,0,1.159.7c.082.007.152.02.238.026.114.013.179.045.179.091,0,.07-.07.1-.2.1h-.985a2.458,2.458,0,0,1-1.1-.191,5.56,5.56,0,0,1-1.422-1.521c-.287-.422-.635-.893-1.024-1.425a.241.241,0,0,0-.187-.07h-.9c-.059,0-.085.026-.085.082v.144c0,1.163.02,1.891.052,2.191.039.352.172.536.4.574a4.234,4.234,0,0,0,.505.039c.085,0,.122.026.122.085s-.065.1-.2.1c-.231,0-.546,0-.916-.011l-.6-.019c-.05,0-.231,0-.55.019s-.557.011-.718.011-.211-.03-.211-.1c0-.046.076-.078.231-.09a2.4,2.4,0,0,1,.306-.033c.161-.037.263-.223.306-.574.037-.267.052-1.005.052-2.2Z" transform="translate(-1625.448 378.218)" fill="#545c6b"/>
      <path id="Path_29" data-name="Path 29" d="M1677.066-356.717v1.284c0,.223-.05.363-.152.416a7.387,7.387,0,0,1-6.573-.556,4.106,4.106,0,0,1-1.62-3.48,4.613,4.613,0,0,1,.623-2.364,3.921,3.921,0,0,1,1.41-1.436,5.989,5.989,0,0,1,3.138-.764,11.144,11.144,0,0,1,2.071.185,6.992,6.992,0,0,0,.916.128c.108.013.152.057.152.144a2.871,2.871,0,0,0-.037.458c-.031.376-.044.862-.044,1.456,0,.154-.039.243-.128.243-.059,0-.1-.052-.116-.152a1.694,1.694,0,0,0-.395-.972,2.7,2.7,0,0,0-.936-.595,4.474,4.474,0,0,0-1.666-.306,3.116,3.116,0,0,0-3.4,2.8,3.137,3.137,0,0,0,.021.768,4.479,4.479,0,0,0,1.122,3.136,3.785,3.785,0,0,0,2.941,1.234c.641,0,1.018-.085,1.127-.25a.493.493,0,0,0,.082-.313v-1.086c0-.665,0-1.124-.011-1.376a.6.6,0,0,0-.5-.658,2.045,2.045,0,0,0-.458-.039c-.116,0-.172-.026-.172-.091s.076-.115.242-.115c.224,0,.539,0,.942.013s.654.02.75.02.339,0,.672-.02.557-.013.692-.013.231.037.231.115-.044.091-.135.091a1.624,1.624,0,0,0-.333.039c-.287.05-.431.274-.449.665-.013.25-.013.709-.013,1.392Z" transform="translate(-1629.375 377.817)" fill="#545c6b"/>
      <path id="Path_30" data-name="Path 30" d="M1643.884-360.04v2.048c0,.876.014,1.45.04,1.731q.048.631.211.764a2.417,2.417,0,0,0,1.409.256,1.968,1.968,0,0,0,1.366-.325,1.15,1.15,0,0,0,.306-.7c.019-.113.065-.172.128-.172s.095.065.095.2a5.122,5.122,0,0,1-.172,1.336.385.385,0,0,1-.287.287,3.258,3.258,0,0,1-.458.019c-.622,0-1.282-.013-1.972-.03s-1.168-.039-1.422-.039c-.07,0-.287,0-.66.017s-.641.022-.814.022-.231-.039-.231-.118.085-.089.257-.106c.116-.014.231-.024.354-.032.179-.037.287-.256.333-.639.044-.306.065-1.13.065-2.477v-2.045c0-1.386-.014-2.21-.026-2.466a.673.673,0,0,0-.257-.574,1.249,1.249,0,0,0-.628-.122c-.135,0-.2-.032-.2-.1s.083-.1.257-.1c.2,0,.494.007.885.013s.627.019.711.019.32,0,.731-.019.692-.013.862-.013.243.032.243.1-.07.1-.211.1a2.448,2.448,0,0,0-.458.039c-.263.046-.4.268-.431.665-.013.256-.026,1.08-.026,2.466Z" transform="translate(-1641.321 377.908)" fill="#545c6b"/>
      <path id="Path_33" data-name="Path 33" d="M1715.026-357.732v-1.509a.214.214,0,0,0-.167-.224,1.071,1.071,0,0,0-.152-.014c-.044,0-.065-.012-.065-.03s.026-.039.091-.039.187.009.313.009h.487c.111,0,.179-.009.219-.009a.905.905,0,0,1,.683.218.467.467,0,0,1,.161.368.876.876,0,0,1-.4.676,1.222,1.222,0,0,1,.48.287.743.743,0,0,1,.239.55.758.758,0,0,1-.257.574,1.131,1.131,0,0,1-.8.268l-.277-.013c-.151-.013-.254-.013-.306-.013h-.217c-.121,0-.217.007-.277.007s-.082-.014-.082-.04.031-.03.091-.037a.512.512,0,0,0,.115-.013c.064-.011.1-.082.116-.211.014-.1.019-.378.019-.83Zm.475-1.58v.955a.044.044,0,0,0,.03.044,1.026,1.026,0,0,0,.187.014.442.442,0,0,0,.287-.076.5.5,0,0,0,.167-.409.7.7,0,0,0-.122-.4.441.441,0,0,0-.378-.205c-.089,0-.135,0-.151.02a.059.059,0,0,0-.019.056Zm.916,2.045a.877.877,0,0,0-.385-.773.626.626,0,0,0-.327-.1h-.172a.023.023,0,0,0-.024.021h0v.915a1.225,1.225,0,0,0,.024.27.233.233,0,0,0,.116.109.781.781,0,0,0,.287.044.494.494,0,0,0,.306-.1.477.477,0,0,0,.172-.4Zm5.194-.467v-1.508a.21.21,0,0,0-.167-.224.772.772,0,0,0-.152-.014c-.046,0-.071-.013-.071-.03s.032-.04.089-.04.187.009.314.009h.487c.112,0,.18-.009.217-.009a.937.937,0,0,1,.694.218.508.508,0,0,1,.154.368.891.891,0,0,1-.405.676,1.265,1.265,0,0,1,.481.287.749.749,0,0,1,.23.55.785.785,0,0,1-.251.574,1.156,1.156,0,0,1-.807.269l-.276-.013c-.152-.013-.257-.013-.306-.013h-.218c-.122,0-.217.007-.276.007s-.083-.014-.083-.04.031-.03.091-.037a.536.536,0,0,0,.116-.013c.065-.011.1-.082.115-.211.013-.1.02-.376.02-.83Zm.479-1.58v.955c0,.026,0,.039.026.044a.9.9,0,0,0,.185.014.442.442,0,0,0,.287-.076.5.5,0,0,0,.167-.409.659.659,0,0,0-.122-.4.433.433,0,0,0-.372-.205c-.09,0-.144,0-.152.02a.085.085,0,0,0-.014.056Zm.9,2.045a.878.878,0,0,0-.383-.773.627.627,0,0,0-.327-.1h-.178c-.014,0-.02,0-.02.026v.915a1.2,1.2,0,0,0,.02.269.216.216,0,0,0,.115.111.781.781,0,0,0,.287.044.486.486,0,0,0,.306-.1.474.474,0,0,0,.172-.4Zm14.209-1.15v.686c0,.191,0,.383.014.574a.382.382,0,0,0,.07.254.842.842,0,0,0,.48.085c.256,0,.39-.032.458-.108a.392.392,0,0,0,.1-.231c0-.039.02-.059.046-.059s.031.02.031.065a1.677,1.677,0,0,1-.057.448.127.127,0,0,1-.1.1.675.675,0,0,1-.152.013c-.211,0-.431,0-.672-.013s-.4-.013-.48-.013h-.224c-.121,0-.219.007-.277.007s-.076-.014-.076-.04.026-.03.083-.037a.823.823,0,0,0,.121-.013c.037-.012.1-.082.116-.211.013-.1.019-.378.019-.83v-1.5a.246.246,0,0,0-.091-.2.412.412,0,0,0-.211-.04c-.044,0-.07-.011-.07-.03s.033-.04.091-.04.167.009.306.009h.485c.144,0,.238-.009.287-.009s.083.014.083.04-.02.03-.07.03a1.092,1.092,0,0,0-.152.014c-.091.013-.144.089-.152.224v.823Zm8.456,1.528a.25.25,0,0,1,.1-.185.326.326,0,0,1,.2-.082c.026,0,.057.039.108.115a.355.355,0,0,1,.077.185.512.512,0,0,1-.052.187,2.054,2.054,0,0,1-.313.517.2.2,0,0,1-.064.045c-.026,0-.032-.013-.032-.039a.594.594,0,0,1,.032-.063.708.708,0,0,0,.115-.337.41.41,0,0,0-.082-.238.954.954,0,0,1-.085-.1Zm3.056-1.528v.686c0,.191,0,.383.014.574a.469.469,0,0,0,.07.254.882.882,0,0,0,.48.085c.249,0,.4-.032.458-.108a.369.369,0,0,0,.108-.231c0-.039.02-.059.04-.059s.032.02.032.065a1.7,1.7,0,0,1-.058.448.111.111,0,0,1-.1.1.674.674,0,0,1-.152.013c-.211,0-.431,0-.667-.013s-.4-.013-.485-.013h-.224c-.128,0-.213.007-.276.007s-.078-.014-.078-.04.033-.03.091-.037a.762.762,0,0,0,.115-.013c.064-.012.1-.082.116-.211.013-.1.019-.378.019-.83v-1.5a.231.231,0,0,0-.089-.2.4.4,0,0,0-.213-.04c-.044,0-.065-.011-.065-.03s.026-.04.085-.04.172.009.306.009h.485c.135,0,.239-.009.3-.009s.083.014.083.04-.026.03-.071.03a1.1,1.1,0,0,0-.152.014c-.091.013-.144.089-.152.224,0,.082-.014.358-.014.823Zm2.7,0v1.265a.408.408,0,0,0,.076.254.81.81,0,0,0,.474.085c.249,0,.4-.032.468-.108a.4.4,0,0,0,.1-.231c0-.037.017-.059.039-.059s.031.022.031.066a1.64,1.64,0,0,1-.059.448.109.109,0,0,1-.1.1.676.676,0,0,1-.152.013c-.211,0-.431,0-.666-.013s-.4-.013-.485-.013h-.218c-.122,0-.217.007-.276.007s-.085-.016-.085-.04.032-.03.091-.037a.759.759,0,0,0,.115-.013c.065-.013.1-.082.116-.211.013-.1.02-.378.02-.83v-1.5a.243.243,0,0,0-.083-.2.433.433,0,0,0-.217-.04c-.045,0-.066-.012-.066-.03s.026-.04.083-.04.172.009.306.009h.494c.144,0,.231-.009.287-.009s.085.014.085.04-.026.03-.07.03a1.132,1.132,0,0,0-.154.014c-.09.013-.144.089-.152.224v.823Zm3.612,1.868a2.018,2.018,0,0,1-1.357-.421,1.437,1.437,0,0,1-.493-1.149,1.351,1.351,0,0,1,.457-1.061,1.789,1.789,0,0,1,1.255-.414,4.285,4.285,0,0,1,.574.037c.1.02.223.039.4.065.039,0,.065.019.065.044a.177.177,0,0,1-.014.07.894.894,0,0,0-.013.154c0,.116-.014.257-.02.422,0,.057-.019.091-.045.091s-.039-.032-.039-.091a.561.561,0,0,0-.152-.358.771.771,0,0,0-.306-.172,1.744,1.744,0,0,0-.494-.066,1.088,1.088,0,0,0-.744.238,1.283,1.283,0,0,0-.365,1,1.367,1.367,0,0,0,.424,1.04,1.189,1.189,0,0,0,.827.345,1.981,1.981,0,0,0,.391-.032.638.638,0,0,0,.333-.185.563.563,0,0,0,.133-.256c.013-.056.026-.083.051-.083s.04.02.04.065c-.007.075-.017.148-.031.223a1.814,1.814,0,0,1-.059.287.155.155,0,0,1-.1.115,2,2,0,0,1-.718.089Zm-36.6-.651v-.287a.763.763,0,0,0-.085-.352c-.011-.026-.1-.172-.269-.441s-.274-.447-.333-.537a.765.765,0,0,0-.237-.243.259.259,0,0,0-.152-.045c-.031,0-.05-.013-.05-.032s.026-.032.065-.032h.2c.116,0,.2.007.237.007s.1,0,.152-.007a1.741,1.741,0,0,1,.213,0c.052,0,.057.014.057.032s-.026.026-.078.037a.059.059,0,0,0-.05.065.28.28,0,0,0,.044.115c0,.02.2.352.583,1.005.152-.276.326-.587.511-.933a.429.429,0,0,0,.052-.171.078.078,0,0,0-.069-.085h0c-.044-.013-.063-.024-.063-.037s.019-.032.056-.032h.167c.053,0,.108.007.161.007.026,0,.085,0,.187-.007a1.258,1.258,0,0,1,.179,0c.019,0,.065.014.065.032s-.026.032-.07.032a.331.331,0,0,0-.152.037.853.853,0,0,0-.185.167,4.925,4.925,0,0,0-.347.53,5.123,5.123,0,0,0-.313.549.813.813,0,0,0-.052.333v.287a3.589,3.589,0,0,0,.014.382.162.162,0,0,0,.144.142,1.387,1.387,0,0,0,.172.014c.031,0,.052,0,.052.024s-.02.032-.07.032h-.952c-.052,0-.076,0-.076-.032s.024-.024.076-.03a.539.539,0,0,1,.1,0c.066-.013.1-.076.111-.185s.014-.211.014-.337Zm6.2-.389v-1.31a.182.182,0,0,0-.152-.192.473.473,0,0,0-.135-.014c-.046,0-.064-.013-.064-.03s.026-.032.076-.032h.287c.116,0,.179.007.191.007.04,0,.122,0,.244-.007a2.163,2.163,0,0,1,.237,0,1.128,1.128,0,0,1,.635.154.5.5,0,0,1,.152.172.59.59,0,0,1,.083.294.992.992,0,0,1-.458.754c.253.306.385.478.411.51.135.161.243.287.335.376a.763.763,0,0,0,.383.234.279.279,0,0,0,.085,0c.039,0,.059.019.059.03s-.02.032-.064.032h-.327a.8.8,0,0,1-.362-.063,1.844,1.844,0,0,1-.468-.493c-.1-.144-.213-.293-.34-.465a.074.074,0,0,0-.065-.026h-.306c-.019,0-.024,0-.024.026v.042a6.363,6.363,0,0,0,.019.718c.019.111.059.172.135.185.056.007.111.011.167.014.026,0,.037,0,.037.024s-.019.033-.065.033h-.925c-.045,0-.065,0-.065-.033s.02-.024.072-.03a.408.408,0,0,1,.1,0c.058-.013.089-.076.1-.185s.019-.332.019-.718Zm.405-1.353v1.027a.059.059,0,0,0,.03.059.742.742,0,0,0,.263.037.436.436,0,0,0,.244-.056.6.6,0,0,0,.2-.511.623.623,0,0,0-.187-.493.506.506,0,0,0-.339-.126.514.514,0,0,0-.192.019.07.07,0,0,0-.019.042Zm3.458,2.38a1.329,1.329,0,0,1-1.07-.441,1.283,1.283,0,0,1-.32-.888,1.263,1.263,0,0,1,.32-.875,1.383,1.383,0,0,1,1.1-.448,1.473,1.473,0,0,1,1.018.339,1.184,1.184,0,0,1,.374.926,1.34,1.34,0,0,1-.385.982,1.375,1.375,0,0,1-1.037.4Zm.144-.172a.7.7,0,0,0,.494-.18,1.152,1.152,0,0,0,.306-.906,1.311,1.311,0,0,0-.294-.9.89.89,0,0,0-.711-.332.772.772,0,0,0-.574.217,1.119,1.119,0,0,0-.277.842,1.368,1.368,0,0,0,.287.895.93.93,0,0,0,.764.363Zm2.3-.86v-1.31a.186.186,0,0,0-.152-.194.424.424,0,0,0-.135-.013c-.039,0-.056-.013-.056-.032s.024-.03.076-.03h.274c.115,0,.192.007.218.007.544,0,.827,0,.862-.007a.54.54,0,0,0,.152-.019l.057-.011c.013,0,.019.011.019.03a.34.34,0,0,0-.013.057,1.52,1.52,0,0,0-.013.161c0,.063-.014.144-.02.223a.036.036,0,0,1-.033.039h0c-.02,0-.026-.013-.026-.039a.283.283,0,0,1,0-.07.283.283,0,0,0-.02-.057c-.024-.07-.1-.109-.231-.121a3.658,3.658,0,0,0-.485-.02c-.02,0-.026.014-.026.039v.862c0,.024,0,.03.026.03h.55a.468.468,0,0,0,.091,0,.237.237,0,0,0,.076-.044c.026-.026.046-.037.058-.037s.02,0,.02.024a.239.239,0,0,1,0,.065c-.007.059-.014.116-.02.18,0,.134-.012.2-.012.231s-.014.065-.033.065-.032-.014-.032-.039-.007-.057-.014-.116-.082-.121-.192-.126a3.49,3.49,0,0,0-.491-.014c-.014,0-.02.014-.02.032v.793a.263.263,0,0,0,.085.23.632.632,0,0,0,.333.052.9.9,0,0,0,.32-.04.314.314,0,0,0,.152-.248c0-.03.02-.05.033-.05s.031.02.031.065a1.691,1.691,0,0,1-.044.369c-.014.045-.031.07-.052.076a.465.465,0,0,1-.134.014c-.2,0-.4,0-.6-.014a3.009,3.009,0,0,0-.359,0h-.431c-.05,0-.07,0-.07-.032s.026-.024.077-.03a.594.594,0,0,1,.1,0c.04,0,.082-.076.1-.185s.019-.332.019-.718Zm2.856-.595v.595a4.479,4.479,0,0,0,.014.5.4.4,0,0,0,.063.224.709.709,0,0,0,.417.069.641.641,0,0,0,.4-.089.356.356,0,0,0,.083-.205c0-.03.019-.05.039-.05s.031.019.031.056a1.533,1.533,0,0,1-.052.389.119.119,0,0,1-.082.083.532.532,0,0,1-.135,0c-.187,0-.379,0-.583-.014a4.023,4.023,0,0,0-.415,0h-.431c-.044,0-.07,0-.07-.032s.026-.024.078-.03a.606.606,0,0,1,.1,0c.031,0,.089-.076.1-.185s.013-.332.013-.718v-1.31a.2.2,0,0,0-.07-.172.456.456,0,0,0-.187-.032c-.044,0-.065-.013-.065-.032s.026-.032.078-.032h.263c.11,0,.185.007.211.007s.1,0,.211-.007.207,0,.257,0,.07.014.07.032-.019.032-.065.032a.531.531,0,0,0-.135.013c-.076.014-.115.078-.121.192-.007.07-.014.306-.014.718Zm6.438.691h-.764c-.019,0-.026.013-.031.03l-.182.484a.53.53,0,0,0-.052.211c0,.062.045.1.135.1h.052c.039,0,.05,0,.05.024s-.017.032-.057.032h-.775c-.045,0-.065,0-.065-.032s.013-.024.04-.024a.661.661,0,0,0,.108,0,.3.3,0,0,0,.179-.1,1.093,1.093,0,0,0,.111-.211l.862-2.125c.037-.089.071-.135.095-.135s.057.032.09.108c.213.524.494,1.222.853,2.077.1.223.193.345.306.369a.973.973,0,0,0,.144.014c.032,0,.046,0,.046.024s0,.024-.032.024a.572.572,0,0,1-.122,0h-.654c-.064,0-.1,0-.1-.024s.02-.024.052-.03.045-.032.033-.078l-.277-.718a.038.038,0,0,0-.039-.024Zm-.691-.162h.633c.02,0,.02,0,.02-.02l-.32-.833c0-.02,0-.03-.013-.03s-.02.011-.02.03l-.319.83c0,.021,0,.026.013.026Zm2.882.972-.731-2.14a.482.482,0,0,0-.128-.237.275.275,0,0,0-.144-.032c-.031,0-.052-.013-.052-.03s.026-.032.078-.032h.248a1.078,1.078,0,0,1,.152.007s.039,0,.126-.007.174,0,.257,0c.046,0,.07.014.07.032s-.019.03-.056.03a.2.2,0,0,0-.091.013.079.079,0,0,0-.039.076,2.643,2.643,0,0,0,.076.306c.083.327.231.807.431,1.436h.014l.667-1.763c.031-.082.056-.121.082-.121s.057.052.1.152l.718,1.7h0c.031-.1.179-.61.458-1.512a.756.756,0,0,0,.031-.2c0-.07-.059-.1-.167-.1-.039,0-.059-.013-.059-.032s.026-.032.076-.032h.238a.482.482,0,0,1,.121.007s.039,0,.111-.007a1.223,1.223,0,0,1,.178,0c.044,0,.064.014.064.032s-.02.032-.052.032a.321.321,0,0,0-.121.022.181.181,0,0,0-.1.113,2.017,2.017,0,0,0-.1.241c-.152.4-.379,1.07-.687,2.01-.039.111-.071.155-.1.155s-.057-.059-.1-.167l-.718-1.693h0c-.333.882-.557,1.443-.672,1.68-.059.121-.1.18-.122.18s-.05-.044-.076-.129Z" transform="translate(-1609.346 379.57)" fill="#545c6b"/>
      <line id="Line_24" data-name="Line 24" x2="5.744" transform="translate(95.882 22.959)" fill="none" stroke="#545c6b" stroke-miterlimit="10" stroke-width="0.5"/>
    </g>
    <rect id="Rectangle_111" data-name="Rectangle 111" width="149.074" height="30" transform="translate(1641.321 -375.211)" fill="rgba(255,255,255,0)"/>
  </g>
</svg>
