<svg xmlns="http://www.w3.org/2000/svg" width="15" height="15" viewBox="0 0 15 15">
  <g id="Group_69" data-name="Group 69" transform="translate(-9056 -556)">
    <rect id="Rectangle_113" data-name="Rectangle 113" width="15" height="15" transform="translate(9056 556)" fill="rgba(255,255,255,0)"/>
    <g id="Group_68" data-name="Group 68" transform="translate(9055.999 556)">
      <path id="Path_86" data-name="Path 86" d="M14.325,10.926,12.1,9.035a.3.3,0,0,0-.033-.024,1.456,1.456,0,0,0-1.822.2L9.033,10.424a.292.292,0,0,1-.319.064A7.947,7.947,0,0,1,5.37,7.953a5.9,5.9,0,0,1-.912-1.621.291.291,0,0,0-.018-.06A.291.291,0,0,1,4.5,5.952L5.717,4.739a1.456,1.456,0,0,0,.2-1.822L5.908,2.9,4.3.671A1.465,1.465,0,0,0,2.034.429L1.792.672h0l-.867.867C-.11,2.573-.279,4.127.435,6.033a14.908,14.908,0,0,0,3.447,5.03,14.978,14.978,0,0,0,5.166,3.511c1.665.608,3.436.683,4.689-.57l.818-.818a1.465,1.465,0,0,0-.231-2.26ZM11.737,9.5l2.222,1.89a.288.288,0,0,0,.032.024.879.879,0,0,1,.149,1.363l-.061.061L10.29,9.995l.37-.37a.873.873,0,0,1,1.077-.13ZM3.812.993l.009.014L5.427,3.238A.873.873,0,0,1,5.3,4.325l-.358.358L2.38.912,2.449.843a.879.879,0,0,1,1.363.15ZM9.25,14.024A14.388,14.388,0,0,1,4.3,10.649,14.318,14.318,0,0,1,.984,5.827C.546,4.659.253,3.04,1.338,1.954l.62-.62L4.523,5.1l-.432.433a.875.875,0,0,0-.2.933,6.507,6.507,0,0,0,.947,1.748A8.594,8.594,0,0,0,8.49,11.029a.876.876,0,0,0,.957-.191l.424-.425,3.79,2.838-.338.338c-1.164,1.164-2.858.879-4.074.434Zm0,0" transform="translate(0 0)" fill="#f9f9f9"/>
    </g>
  </g>
</svg>
