<svg xmlns="http://www.w3.org/2000/svg" width="110" height="110" viewBox="0 0 110 110"><defs><style>.cls-1{fill:#fff;}.cls-2{fill:#af9c94;}</style></defs><title>Рукав - Длинный</title><g id="Рукав"><g id="Длинный"><g id="Цвет-4" data-name="Цвет"><path class="cls-1" d="M57.667,109.584c10.167,0,17.667-6.083,23.667-6.083L81.5,47.584C84,50.584,86.583,56.75,88,62l-3,39,11,1,6-26a53.12,53.12,0,0,0-3-32A154.762,154.762,0,0,0,87,18L68.063,10.094,67.917,9.5,65,3A22.358,22.358,0,0,0,55,1,22.358,22.358,0,0,0,45,3L42.083,9.5l-.146.593L23,18A154.762,154.762,0,0,0,11,44,53.12,53.12,0,0,0,8,76l6,26,11-1L22,62c1.417-5.25,4-11.417,6.5-14.417l.167,55.917c6,0,13.5,6.083,23.667,6.083Z"/><path class="cls-2" d="M87,18a160.64,160.64,0,0,1,13.258,29.247A53.784,53.784,0,0,1,101.8,76.853L96,102l-11-1,3-39a52.171,52.171,0,0,0-6.375-14.625C81.182,35.886,82.831,25.985,87,18Z"/><path class="cls-1" d="M87.266,23.562a164.08,164.08,0,0,1,10.628,24.5,51.218,51.218,0,0,1,1.473,28.229L94.054,99.314l-6.373-.579,2.811-36.542.031-.4-.1-.391A54.1,54.1,0,0,0,84.1,46.624c-.28-8.915.783-16.645,3.166-23.062M87,18c-4.169,7.984-5.818,17.885-5.375,29.375A52.171,52.171,0,0,1,88,62l-3,39,11,1,5.8-25.147a53.784,53.784,0,0,0-1.546-29.605A160.639,160.639,0,0,0,87,18Z"/><path class="cls-2" d="M23,18A160.64,160.64,0,0,0,9.742,47.248,53.784,53.784,0,0,0,8.2,76.853L14,102l11-1L22,62a52.171,52.171,0,0,1,6.375-14.625C29.039,36.781,27.443,26.926,23,18Z"/><path class="cls-1" d="M22.717,23.592a55.589,55.589,0,0,1,3.2,23,54.113,54.113,0,0,0-6.343,14.8l-.1.391.031.4,2.811,36.542-6.373.579L10.633,76.291a51.218,51.218,0,0,1,1.473-28.229,164.1,164.1,0,0,1,10.611-24.47M23,18A160.64,160.64,0,0,0,9.742,47.248,53.784,53.784,0,0,0,8.2,76.853L14,102l11-1L22,62a52.171,52.171,0,0,1,6.375-14.625C29.039,36.781,27.443,26.926,23,18Z"/></g><g id="Контур-4" data-name="Контур"><path d="M97.5,95l-.057,0L85.777,93.665a.5.5,0,0,1,.113-.994L97.557,94a.5.5,0,0,1-.056,1Z"/><path d="M56,13a1,1,0,1,1-1-1A1,1,0,0,1,56,13Zm-1,7a1,1,0,1,0-1-1A1,1,0,0,0,55,20Zm0,13a1,1,0,1,0-1-1A1,1,0,0,0,55,33Zm0,13a1,1,0,1,0-1-1A1,1,0,0,0,55,46Zm0,13a1,1,0,1,0-1-1A1,1,0,0,0,55,59Zm0,13a1,1,0,1,0-1-1A1,1,0,0,0,55,72Zm0,11a1,1,0,1,0,1,1A1,1,0,0,0,55,83Zm47.291-6.035-5.8,25.147A.5.5,0,0,1,96,102.5l-.046,0-11-1a.5.5,0,0,1-.453-.536L87.5,62.043A50.677,50.677,0,0,0,82,48.968V103.5a.5.5,0,0,1-.5.5c-3.478,0-6.112,1.153-9.162,2.49C68.581,108.136,64.323,110,57.5,110h-5c-6.823,0-11.081-1.865-14.838-3.51-3.05-1.337-5.685-2.49-9.162-2.49a.5.5,0,0,1-.5-.5V48.968a50.677,50.677,0,0,0-5.5,13.075l2.994,38.92a.5.5,0,0,1-.453.536l-11,1-.046,0a.5.5,0,0,1-.487-.388l-5.8-25.147A54.214,54.214,0,0,1,9.27,47.085a161.874,161.874,0,0,1,13.3-29.338.471.471,0,0,1,.04-.045.48.48,0,0,1,.061-.069,160.953,160.953,0,0,0,.135-.093l18.719-7.9a5.17,5.17,0,0,1,.355-1.116l2.646-5.733a.478.478,0,0,1,.028-.041.469.469,0,0,1,.128-.142c.012-.009.019-.022.032-.03s.031-.016.045-.024l0,0C46.869,1.249,50.586.5,54.979.5c4.363,0,8.055.739,10.17,2.025a.488.488,0,0,1,.325.265L68.12,8.524a5.17,5.17,0,0,1,.355,1.116l18.719,7.9a167.74,167.74,0,0,1,.134.093.479.479,0,0,1,.062.07.463.463,0,0,1,.04.045,161.874,161.874,0,0,1,13.3,29.338A54.214,54.214,0,0,1,102.291,76.966ZM86.316,18.255,68.6,10.779a7.309,7.309,0,0,1-1.057,3.559L84.689,21.9C85.209,20.6,85.756,19.4,86.316,18.255ZM65.28,4.758c-.755,2.429-3.248,4.585-7.127,6.107l3.59,10.267c1.7-2.409,3.374-4.824,4.607-6.746,0-.008,0-.017.005-.025a.5.5,0,0,1,.116-.163,5.506,5.506,0,0,0,.741-5.253ZM57,15.991H53V109h4Zm1.543-.98L57.141,11H52.859l-1.4,4.01h.994a.125.125,0,0,1,.1,0h4.9a.138.138,0,0,1,.107,0Zm3-7.072a19.671,19.671,0,0,0-13.109-.01,17.139,17.139,0,0,0,3.991,2.086A.466.466,0,0,1,52.5,10h5a.466.466,0,0,1,.07.014A17.162,17.162,0,0,0,61.548,7.938ZM54.979,1.5c-4.083,0-7.507.655-9.493,1.793a5.565,5.565,0,0,0,2.048,3.9,20.78,20.78,0,0,1,14.92.01,5.584,5.584,0,0,0,2.059-3.884C62.533,2.164,59.089,1.5,54.979,1.5ZM43.529,14.2a.494.494,0,0,1,.116.163c0,.008,0,.017.005.025,1.233,1.922,2.909,4.338,4.607,6.746l3.59-10.267c-3.879-1.522-6.372-3.679-7.127-6.107L42.788,8.944A5.506,5.506,0,0,0,43.529,14.2ZM23.684,18.255c.559,1.141,1.107,2.347,1.626,3.646l17.148-7.563A7.309,7.309,0,0,1,41.4,10.779Zm.78,82.293-.527-6.85L12.888,94.96l1.5,6.5ZM28,47.06V44.5c0-10.1-1.462-16.616-3.381-21.625-.024-.031-.06-.051-.077-.089a.5.5,0,0,1-.04-.207c-.49-1.252-1.007-2.411-1.536-3.509A161.77,161.77,0,0,0,10.215,47.411a53.216,53.216,0,0,0-1.531,29.33l3.978,17.238L23.86,92.7,21.5,62.039a.508.508,0,0,1,.013-.158A52.3,52.3,0,0,1,27.952,47.11.471.471,0,0,1,28,47.06Zm10.063,58.516A32.779,32.779,0,0,0,52,109V15.991h-.886l-2.233,6.388a.5.5,0,0,1-.4.33.552.552,0,0,1-.069,0A.5.5,0,0,1,48,22.5c-1.809-2.559-3.652-5.195-5.017-7.3l-17.31,7.634C27.571,27.892,29,34.457,29,44.5v58.508C32.448,103.115,35.179,104.312,38.063,105.575ZM81,44.5c0-10.044,1.429-16.609,3.326-21.668L67.016,15.2c-1.365,2.109-3.208,4.744-5.017,7.3a.5.5,0,0,1-.408.212.552.552,0,0,1-.069,0,.5.5,0,0,1-.4-.33l-2.233-6.388H58V109a32.779,32.779,0,0,0,13.937-3.422c2.884-1.264,5.615-2.46,9.063-2.566Zm18.785,2.91A161.77,161.77,0,0,0,87.034,19.07c-.529,1.1-1.046,2.257-1.536,3.509a.5.5,0,0,1-.04.207c-.017.038-.052.058-.077.089C83.462,27.885,82,34.4,82,44.5v2.558a.471.471,0,0,1,.048.051,52.3,52.3,0,0,1,6.437,14.771.508.508,0,0,1,.013.158l-2.962,38.509,10.075.916,5.705-24.723A53.216,53.216,0,0,0,99.785,47.411Z"/></g></g></g></svg>