<svg xmlns="http://www.w3.org/2000/svg" xmlns:xlink="http://www.w3.org/1999/xlink" width="110" height="110" viewBox="0 0 110 110"><defs><style>.cls-1{fill:url(#Безымянный_градиент_315);}.cls-2{fill:#af9c94;}.cls-3{fill:#fff;}</style><radialGradient id="Безымянный_градиент_315" cx="33.083" cy="0.583" r="107.754" gradientUnits="userSpaceOnUse"><stop offset="0.622" stop-color="#fff"/><stop offset="1" stop-color="#fff" stop-opacity="0"/></radialGradient></defs><title>Рукав - Короткий c патой</title><g id="Рукав"><g id="Короткий_c_патой" data-name="Короткий c патой"><g id="Цвет-8" data-name="Цвет"><path class="cls-1" d="M57.605,17.778l-.277-1.127L51.786,4.3C46.262,1.618,39.869.456,32.786.5c-7.082-.045-13.475,1.117-19,3.8L8.245,16.651l-.277,1.127L2,20.27v85.25A109.005,109.005,0,0,0,33,110,108.527,108.527,0,0,0,83,97.876l.018-9.858,3.444,7.719L109.5,64.446A337.93,337.93,0,0,0,93.586,32.8Z"/><path class="cls-2" d="M93.586,32.8a282.457,282.457,0,0,1,15.882,31.464L86.533,95.86l-3.159-7.247C82.416,67.875,85.473,49.1,93.586,32.8Z"/><path class="cls-3" d="M93.827,38.228a284.715,284.715,0,0,1,12.78,25.724l-19.529,26.9-1.227-2.815c-.817-18.867,1.865-35.594,7.976-49.811M93.586,32.8c-8.113,16.3-11.17,35.074-10.213,55.812l3.159,7.247,22.936-31.594A282.446,282.446,0,0,0,93.586,32.8Z"/></g><g id="Контур-8" data-name="Контур"><path d="M109.928,64.067a284.367,284.367,0,0,0-15.91-31.521.465.465,0,0,0-.041-.045.483.483,0,0,0-.062-.069.476.476,0,0,0-.09-.062.482.482,0,0,0-.044-.03L58.037,17.257c-.012,0-.025,0-.037-.007a9.371,9.371,0,0,0-.695-2.265L52.278,4.091a.5.5,0,0,0-.388-.284C47.95,1.388,40.989,0,32.748,0,24.424,0,17.4,1.414,13.482,3.878c-.014.009-.021.023-.034.032a.467.467,0,0,0-.126.14.467.467,0,0,0-.028.04L8.267,14.984a9.372,9.372,0,0,0-.694,2.264c-.008,0-.015,0-.023,0L.32,20.033A.5.5,0,0,0,.5,21a.506.506,0,0,0,.18-.033l6.761-2.6a13.229,13.229,0,0,0,2.152,7.681L.3,30.041A.5.5,0,0,0,.5,31a.486.486,0,0,0,.2-.041l9.427-4.052c2.614,4.063,6.208,9.2,9.731,14.188a.5.5,0,0,0,.408.212.566.566,0,0,0,.07,0,.5.5,0,0,0,.4-.331l4.524-12.98h1.754a.468.468,0,0,0-.012.061v81.6a.5.5,0,0,0,1,0v-81.6a.468.468,0,0,0-.012-.061h9.024a.466.466,0,0,0-.012.06v81.6a.5.5,0,0,0,1,0V28.05a.466.466,0,0,0-.012-.06h2.327l4.524,12.98a.5.5,0,0,0,.4.331.566.566,0,0,0,.07,0,.5.5,0,0,0,.408-.212c3.522-4.982,7.115-10.122,9.728-14.184l33.63,14.832c-3.662,9.625-6.441,22.128-6.441,41.408v24.1a.5.5,0,0,0,1,0V90.467l2.438,5.593a.5.5,0,0,0,.4.3l.054,0a.5.5,0,0,0,.4-.206L109.873,64.56A.5.5,0,0,0,109.928,64.067ZM51.317,4.628c-.005,2.883-1.528,5.653-4.383,8.108a39.334,39.334,0,0,0-28.318-.021c-2.854-2.463-4.371-5.24-4.361-8.131C18.064,2.307,24.772,1,32.748,1,40.776,1,47.522,2.323,51.317,4.628ZM37.443,18H28.13a33.023,33.023,0,0,1-8.614-4.557,38.36,38.36,0,0,1,26.515.02A33.079,33.079,0,0,1,37.443,18Zm-9.051,1h.315a4.521,4.521,0,0,0-.455.4ZM20.11,39.725c-3.4-4.818-6.817-9.722-9.295-13.59a.469.469,0,0,0-.013-.063.49.49,0,0,0-.148-.186l-.023-.036C8.283,22.164,7.767,18.455,9.175,15.4l4.218-9.14c.9,4.952,5.874,9.43,14.011,12.532ZM27,22.993V27.01H25.6Zm1,4.016V22.5A3.5,3.5,0,0,1,31.5,19h5.682l2.791,8.01ZM45.463,39.725,38.169,18.8c8.137-3.1,13.106-7.58,14.011-12.532L56.4,15.4c1.409,3.051.893,6.76-1.455,10.444l-.023.036a.489.489,0,0,0-.147.182.469.469,0,0,0-.015.069C52.28,30,48.864,34.906,45.463,39.725ZM55.977,26.052a13.241,13.241,0,0,0,2.156-7.669L92.9,33.055c-1.194,2.411-2.364,4.963-3.464,7.755ZM90.095,41.884a.424.424,0,0,0,.176-.452c1.062-2.725,2.194-5.219,3.35-7.572,3.142,5.382,6.163,11.019,9.041,16.861a.477.477,0,0,0-.058.113l-1.9,6.769a.5.5,0,0,0,.023.336l1.389,3.16c-.011.012-.025.019-.034.033L83.637,87.37V83.15C83.637,63.879,86.429,51.445,90.095,41.884ZM86.642,94.858l-2.7-6.187,18.639-26.513,2.9,6.586c.014.033.045.049.065.076ZM106.2,67.91,101.716,57.7l1.593-5.675q2.9,5.957,5.588,12.177ZM35.787,22.5h-.551a2.5,2.5,0,0,0-4.9,0h-.551a.5.5,0,1,0,0,1h.551a2.5,2.5,0,0,0,4.9,0h.551a.5.5,0,0,0,0-1Zm-3,2a1.5,1.5,0,1,1,1.5-1.5A1.5,1.5,0,0,1,32.787,24.5ZM33,32.252V31.7a.5.5,0,0,0-1,0v.551a2.5,2.5,0,0,0,0,4.9V37.7a.5.5,0,1,0,1,0v-.551a2.5,2.5,0,0,0,0-4.9ZM32.5,36.2A1.5,1.5,0,1,1,34,34.7,1.5,1.5,0,0,1,32.5,36.2ZM33,81.652V81.1a.5.5,0,0,0-1,0v.551a2.5,2.5,0,0,0,0,4.9V87.1a.5.5,0,0,0,1,0v-.551a2.5,2.5,0,0,0,0-4.9ZM32.5,85.6A1.5,1.5,0,1,1,34,84.1,1.5,1.5,0,0,1,32.5,85.6Zm.5-28.65V56.4a.5.5,0,0,0-1,0v.551a2.5,2.5,0,0,0,0,4.9V62.4a.5.5,0,0,0,1,0v-.551a2.5,2.5,0,0,0,0-4.9ZM32.5,60.9A1.5,1.5,0,1,1,34,59.4,1.5,1.5,0,0,1,32.5,60.9Z"/></g></g></g></svg>