<svg xmlns="http://www.w3.org/2000/svg" width="110" height="110" viewBox="0 0 110 110"><defs><style>.cls-1{fill:#fff;}.cls-2{fill:#af9c94;}</style></defs><title>Рукав - Сафари</title><g id="Рукав"><g id="Сафари"><g id="Цвет-5" data-name="Цвет"><path class="cls-1" d="M87,18,68.062,10.094,67.917,9.5,65,3A22.358,22.358,0,0,0,55,1,22.358,22.358,0,0,0,45,3L42.083,9.5l-.146.593L23,18A154.762,154.762,0,0,0,11,44,53.12,53.12,0,0,0,8,76l6,26,11-1L22,62c1.417-5.25,4-11.417,6.5-14.417l.167,55.917c6,0,13.5,6.083,23.667,6.083h5.333c10.167,0,17.667-6.083,23.667-6.083L81.5,47.333l7.833,17.75,16.917-6.5C101.554,45.972,93.75,29.083,87,18Z"/><path class="cls-2" d="M23,18A160.64,160.64,0,0,0,9.742,47.248,53.784,53.784,0,0,0,8.2,76.853L14,102l11-1L22,62a52.171,52.171,0,0,1,6.375-14.625C29.039,36.781,27.443,26.926,23,18Z"/><path class="cls-1" d="M22.717,23.592a55.589,55.589,0,0,1,3.2,23,54.113,54.113,0,0,0-6.343,14.8l-.1.391.031.4,2.811,36.542-6.373.579L10.633,76.291a51.218,51.218,0,0,1,1.473-28.229,164.1,164.1,0,0,1,10.611-24.47M23,18A160.64,160.64,0,0,0,9.742,47.248,53.784,53.784,0,0,0,8.2,76.853L14,102l11-1L22,62a52.171,52.171,0,0,1,6.375-14.625C29.039,36.781,27.443,26.926,23,18Z"/><path class="cls-2" d="M89.333,65.25l16.833-6.75C100.515,43.514,94.254,29.756,87,18c-4.138,8.716-5.994,18.566-5.5,29.583Z"/><path class="cls-1" d="M87.389,23.54a240.921,240.921,0,0,1,15.567,33.554L90.641,62.032,83.978,47A61.176,61.176,0,0,1,87.389,23.54M87,18c-4.138,8.716-5.994,18.566-5.5,29.583L89.333,65.25l16.833-6.75C100.515,43.514,94.254,29.756,87,18Z"/></g><g id="Контур-5" data-name="Контур"><path d="M56,13a1,1,0,1,1-1-1A1,1,0,0,1,56,13Zm-1,7a1,1,0,1,0-1-1A1,1,0,0,0,55,20Zm0,13a1,1,0,1,0-1-1A1,1,0,0,0,55,33Zm0,13a1,1,0,1,0-1-1A1,1,0,0,0,55,46Zm0,13a1,1,0,1,0-1-1A1,1,0,0,0,55,59Zm0,13a1,1,0,1,0-1-1A1,1,0,0,0,55,72Zm0,11a1,1,0,1,0,1,1A1,1,0,0,0,55,83Zm51.432-23.952L89.6,65.633a.5.5,0,0,1-.64-.266L82,49.478V103.5a.5.5,0,0,1-.5.5c-3.478,0-6.112,1.153-9.162,2.49C68.581,108.136,64.323,110,57.5,110h-5c-6.823,0-11.081-1.865-14.838-3.51-3.05-1.337-5.685-2.49-9.162-2.49a.5.5,0,0,1-.5-.5V48.968a50.677,50.677,0,0,0-5.5,13.075l2.994,38.92a.5.5,0,0,1-.453.536l-11,1-.046,0a.5.5,0,0,1-.487-.388l-5.8-25.147A54.214,54.214,0,0,1,9.27,47.085a161.874,161.874,0,0,1,13.3-29.338.471.471,0,0,1,.04-.045.48.48,0,0,1,.061-.069,160.953,160.953,0,0,0,.135-.093l18.719-7.9a5.17,5.17,0,0,1,.355-1.116l2.646-5.733a.459.459,0,0,1,.028-.041.471.471,0,0,1,.129-.143c.012-.009.018-.021.031-.029s.03-.015.043-.023l.005,0C46.87,1.249,50.586.5,54.979.5c4.363,0,8.055.739,10.171,2.026a.489.489,0,0,1,.324.265L68.12,8.524a5.17,5.17,0,0,1,.355,1.116l18.719,7.9a.546.546,0,0,1,.2.165.468.468,0,0,1,.039.044,266.061,266.061,0,0,1,19.287,40.658A.5.5,0,0,1,106.432,59.049ZM86.316,18.255,68.6,10.779a7.309,7.309,0,0,1-1.057,3.559L84.689,21.9C85.209,20.6,85.756,19.4,86.316,18.255ZM65.28,4.758c-.755,2.429-3.248,4.585-7.127,6.107l3.59,10.267c1.7-2.409,3.374-4.824,4.607-6.746,0-.008,0-.017.005-.025a.5.5,0,0,1,.116-.163,5.506,5.506,0,0,0,.741-5.253ZM57,15.991H53V109h4Zm1.543-.98L57.141,11H52.859l-1.4,4.01h.994a.125.125,0,0,1,.1,0h4.9a.138.138,0,0,1,.107,0Zm3-7.072a19.671,19.671,0,0,0-13.109-.01,17.139,17.139,0,0,0,3.991,2.086A.466.466,0,0,1,52.5,10h5a.466.466,0,0,1,.07.014A17.162,17.162,0,0,0,61.548,7.938ZM54.979,1.5c-4.083,0-7.507.655-9.493,1.793a5.565,5.565,0,0,0,2.048,3.9,20.78,20.78,0,0,1,14.92.01,5.584,5.584,0,0,0,2.059-3.884C62.533,2.164,59.089,1.5,54.979,1.5ZM43.529,14.2a.494.494,0,0,1,.116.163c0,.008,0,.017.005.025,1.233,1.922,2.909,4.338,4.607,6.746l3.59-10.267c-3.879-1.522-6.372-3.679-7.127-6.107L42.788,8.944A5.506,5.506,0,0,0,43.529,14.2ZM23.684,18.255c.559,1.141,1.107,2.347,1.626,3.646l17.148-7.563A7.309,7.309,0,0,1,41.4,10.779Zm.78,82.293-.527-6.85L12.888,94.96l1.5,6.5ZM28,47.06V44.5c0-10.1-1.462-16.616-3.381-21.625-.024-.031-.06-.051-.077-.089a.5.5,0,0,1-.04-.207c-.49-1.252-1.007-2.411-1.536-3.509A161.77,161.77,0,0,0,10.215,47.411a53.216,53.216,0,0,0-1.531,29.33l3.978,17.238L23.86,92.7,21.5,62.039a.508.508,0,0,1,.013-.158A52.3,52.3,0,0,1,27.952,47.11.471.471,0,0,1,28,47.06Zm10.063,58.516A32.779,32.779,0,0,0,52,109V15.991h-.886l-2.233,6.388a.5.5,0,0,1-.4.33.552.552,0,0,1-.069,0A.5.5,0,0,1,48,22.5c-1.809-2.559-3.652-5.195-5.017-7.3l-17.31,7.634C27.571,27.892,29,34.457,29,44.5v58.508C32.448,103.115,35.179,104.312,38.063,105.575ZM81,44.5c0-10.044,1.429-16.609,3.326-21.668L67.016,15.2c-1.365,2.109-3.208,4.744-5.017,7.3a.5.5,0,0,1-.408.212.552.552,0,0,1-.069,0,.5.5,0,0,1-.4-.33l-2.233-6.388H58V109a32.779,32.779,0,0,0,13.937-3.422c2.884-1.264,5.615-2.46,9.063-2.566Zm1.083,2.675,5.243,11.973L100.955,53.4l-.671-1.713a.5.5,0,0,1,.04-.444l1.49-2.431A263.769,263.769,0,0,0,87.034,19.07c-.529,1.1-1.046,2.257-1.536,3.509a.5.5,0,0,1-.04.207c-.017.038-.052.058-.077.089C83.462,27.885,82,34.4,82,44.5v2.556A.479.479,0,0,1,82.083,47.176Zm7.6,17.351,13.556-5.3-1.918-4.9L87.728,60.065ZM105.608,58.3c-1.057-2.8-2.173-5.583-3.322-8.346l-.98,1.6,2.863,7.311Z"/></g></g></g></svg>