<svg id="Слой_1" data-name="Слой 1" xmlns="http://www.w3.org/2000/svg" viewBox="0 0 374.09 291.98"><defs><style>.cls-1{fill:#dbeaf4;}.cls-2,.cls-5,.cls-7{fill:none;}.cls-2,.cls-3,.cls-5{stroke:#5967af;}.cls-2,.cls-3,.cls-5,.cls-7{stroke-miterlimit:10;}.cls-2,.cls-3{stroke-width:2.02px;}.cls-3,.cls-6{fill:#fff;}.cls-4{fill:#5967af;}.cls-7{stroke:#fff;}</style></defs><title>иллюстрации404</title><path class="cls-1" d="M159.22,53.91c0-13.38,11.36-24.23,25.37-24.23S210,40.53,210,53.91"/><path class="cls-2" d="M159.1,53.91c0-13.38,11.35-24.23,25.36-24.23s25.37,10.85,25.37,24.23"/><polygon class="cls-1" points="217.02 102.15 188.72 102.15 181.45 102.15 153.54 102.15 101.25 248.67 181.45 248.67 188.72 248.67 261.92 248.67 217.02 102.15"/><rect class="cls-3" x="57.68" y="84.19" width="253.82" height="10.46" rx="5.23" ry="5.23"/><polyline class="cls-3" points="252.81 71.59 239.27 68.44 184.46 68.44 184.71 68.44 129.9 68.44 62.09 84.19"/><line class="cls-3" x1="260.27" y1="73.38" x2="254.99" y2="72.09"/><line class="cls-2" x1="307.09" y1="84.19" x2="264.46" y2="74.29"/><polyline class="cls-2" points="129.9 68.64 139.87 61.27 229.36 61.27 239.27 68.44"/><polyline class="cls-2" points="171.62 53.89 216.45 53.89 222.56 61.27 146.62 61.27 153.54 53.89 163.83 53.89"/><polygon class="cls-4" points="222.56 94.75 146.62 94.75 153.54 102.13 217.05 102.13 222.56 94.75"/><path class="cls-4" d="M131,226.89h12.24v5.27H131v16.72h-5.79V232.16H78l53.05-74Zm-5.79,0v-51.6l-37,51.6Z"/><path class="cls-4" d="M193.81,135c9.27,5.23,17.5,14.8,22.58,28.36s5.18,26.18,1.63,36.22c-3.28,9.25-9.28,15-15.56,17.37s-14.59,2-23.14-2.86c-9.28-5.24-17.5-14.81-22.59-28.36s-5.17-26.18-1.63-36.23c3.66-10.5,10.31-15.25,15.61-17.24S184.15,129.48,193.81,135Zm18.94,62.9c2.85-8.52,2.87-19.35-2-32.41s-12-21.22-19.78-25.77c-4.34-2.58-11.11-5.25-18.38-2.52s-10.61,9.18-12.19,14c-2.85,8.52-2.91,19.23,2,32.42s12,21.22,19.78,25.76c8.86,5.26,15.59,3.72,18.43,2.66S209.53,207.69,212.75,197.9Z"/><path class="cls-4" d="M275.29,226.89h12.24v5.27H275.29v16.72h-5.8V232.16H222.24l53.05-74Zm-5.8,0v-51.6l-37,51.6Z"/><line class="cls-5" x1="84.09" y1="249" x2="293.09" y2="249"/><polygon class="cls-6" points="157.83 95.56 160.46 100.94 166.27 100.94 165.33 95.5 157.83 95.56"/><polygon class="cls-6" points="217.94 95.23 215.31 100.6 213.5 100.6 214.44 95.17 217.94 95.23"/><line class="cls-5" x1="299.41" y1="249" x2="316.41" y2="249"/><line class="cls-5" x1="77.75" y1="249" x2="71.41" y2="249"/><line class="cls-5" x1="135.08" y1="64.83" x2="210.91" y2="64.83"/><line class="cls-7" x1="174.33" y1="218" x2="174.33" y2="226.5"/><line class="cls-7" x1="184.33" y1="220.5" x2="184.33" y2="232"/><line class="cls-7" x1="195.33" y1="222.25" x2="195.33" y2="226.5"/><line class="cls-7" x1="207.58" y1="218" x2="207.58" y2="228.5"/><line class="cls-7" x1="171.33" y1="105" x2="171.33" y2="126.75"/><line class="cls-7" x1="180.08" y1="108.75" x2="180.08" y2="120.25"/><line class="cls-7" x1="191.83" y1="105.25" x2="191.83" y2="128"/><line class="cls-7" x1="199.58" y1="123.5" x2="199.58" y2="129.5"/><line class="cls-7" x1="160.58" y1="125.25" x2="160.58" y2="132.75"/></svg>