<svg width="37" height="36" viewBox="0 0 37 36" fill="none" xmlns="http://www.w3.org/2000/svg">
<path d="M31.4656 20.8916C30.7795 20.2142 29.923 20.2142 29.2413 20.8916C28.7213 21.4073 28.2013 21.9229 27.69 22.4473C27.5501 22.5916 27.4321 22.6222 27.2617 22.526C26.9252 22.3425 26.5669 22.1939 26.2435 21.9929C24.7359 21.0445 23.4729 19.8253 22.3542 18.4531C21.7992 17.7714 21.3054 17.0415 20.9602 16.22C20.8903 16.0539 20.9034 15.9447 21.0389 15.8092C21.5589 15.3066 22.0658 14.7909 22.5771 14.2753C23.2894 13.5586 23.2894 12.7195 22.5727 11.9985C22.1663 11.5877 21.7599 11.1856 21.3535 10.7748C20.934 10.3553 20.5188 9.9314 20.095 9.51624C19.4089 8.84762 18.5524 8.84762 17.8706 9.52061C17.3462 10.0363 16.8437 10.5651 16.3106 11.072C15.8167 11.5396 15.5677 12.1121 15.5152 12.7807C15.4322 13.8689 15.6988 14.8958 16.0746 15.8966C16.8437 17.968 18.0148 19.8078 19.4351 21.4947C21.3535 23.7759 23.6434 25.5807 26.3222 26.883C27.5283 27.4686 28.7781 27.9187 30.1372 27.993C31.0723 28.0454 31.8852 27.8095 32.5363 27.0796C32.982 26.5815 33.4846 26.127 33.9565 25.6506C34.6557 24.9427 34.6601 24.0861 33.9653 23.3869C33.135 22.5522 32.3003 21.7219 31.4656 20.8916Z" fill="#11263A"/>
<path d="M30.6312 17.4099L32.2438 17.1346C31.9903 15.6532 31.2911 14.3115 30.2292 13.2452C29.1061 12.1221 27.6859 11.4142 26.1214 11.1957L25.8942 12.817C27.1047 12.9874 28.2059 13.5337 29.0755 14.4033C29.8971 15.2249 30.4346 16.265 30.6312 17.4099Z" fill="#11263A"/>
<path d="M33.1526 10.3999C31.291 8.53827 28.9356 7.36272 26.3354 7L26.1082 8.6213C28.3544 8.93595 30.3908 9.95418 31.9989 11.558C33.524 13.0832 34.5248 15.0104 34.8875 17.1299L36.5 16.8546C36.0761 14.3986 34.9181 12.1698 33.1526 10.3999Z" fill="#11263A"/>
</svg>
