<svg width="21" height="21" viewBox="0 0 21 21" fill="none" xmlns="http://www.w3.org/2000/svg">
<g clip-path="url(#clip0_54_407)">
<path d="M15.9131 12.8096C15.5009 12.3804 15.0037 12.1509 14.4768 12.1509C13.9541 12.1509 13.4526 12.3761 13.0234 12.8053L11.6805 14.144C11.57 14.0845 11.4596 14.0292 11.3533 13.974C11.2003 13.8975 11.0558 13.8252 10.9326 13.7487C9.67473 12.9498 8.53159 11.9087 7.4352 10.5616C6.90401 9.89013 6.54704 9.32494 6.28782 8.75125C6.63628 8.43253 6.95925 8.10106 7.27372 7.78234C7.39271 7.66335 7.5117 7.54012 7.63068 7.42113C8.5231 6.52872 8.5231 5.37283 7.63068 4.48042L6.47055 3.32028C6.33881 3.18855 6.20283 3.05256 6.07534 2.91657C5.82036 2.6531 5.55264 2.38113 5.27642 2.12615C4.86421 1.71819 4.37126 1.50146 3.85281 1.50146C3.33436 1.50146 2.83291 1.71819 2.40795 2.12615C2.4037 2.1304 2.4037 2.1304 2.39945 2.13465L0.954598 3.59226C0.410652 4.1362 0.100433 4.79914 0.03244 5.56831C-0.0695499 6.80919 0.295914 7.96507 0.576386 8.7215C1.26482 10.5786 2.29322 12.2996 3.82731 14.144C5.68863 16.3665 7.92815 18.1216 10.4864 19.3582C11.4638 19.8214 12.7684 20.3696 14.226 20.4631C14.3153 20.4673 14.4088 20.4716 14.4938 20.4716C15.4754 20.4716 16.2998 20.1189 16.9458 19.4177C16.95 19.4092 16.9585 19.4049 16.9628 19.3964C17.1837 19.1287 17.4387 18.8865 17.7064 18.6273C17.8892 18.453 18.0761 18.2703 18.2589 18.0791C18.6796 17.6414 18.9006 17.1314 18.9006 16.6087C18.9006 16.0818 18.6753 15.5761 18.2461 15.1511L15.9131 12.8096ZM17.4345 17.2844C17.4302 17.2844 17.4302 17.2886 17.4345 17.2844C17.2687 17.4629 17.0987 17.6244 16.916 17.8028C16.6398 18.0663 16.3593 18.3425 16.0958 18.6528C15.6666 19.1117 15.1609 19.3284 14.498 19.3284C14.4343 19.3284 14.3663 19.3284 14.3025 19.3242C13.0404 19.2435 11.8675 18.7505 10.9879 18.3298C8.58259 17.1654 6.47055 15.5123 4.71547 13.4173C3.26637 11.6707 2.29746 10.0559 1.65578 8.32204C1.26057 7.26389 1.11608 6.43948 1.17983 5.6618C1.22232 5.1646 1.41355 4.75239 1.76627 4.39968L3.21537 2.95057C3.4236 2.75509 3.64458 2.64885 3.86131 2.64885C4.12903 2.64885 4.34576 2.81033 4.48175 2.94632C4.486 2.95057 4.49025 2.95482 4.4945 2.95907C4.75372 3.2013 5.0002 3.45202 5.25942 3.71974C5.39116 3.85573 5.52714 3.99172 5.66313 4.13195L6.82326 5.29209C7.27372 5.74254 7.27372 6.159 6.82326 6.60946C6.70003 6.7327 6.58104 6.85593 6.4578 6.97492C6.10084 7.34038 5.76087 7.68035 5.39116 8.01182C5.38266 8.02032 5.37416 8.02457 5.36991 8.03307C5.00445 8.39853 5.07244 8.75549 5.14893 8.99772C5.15318 9.01047 5.15743 9.02322 5.16168 9.03597C5.4634 9.76689 5.88836 10.4553 6.53429 11.2755L6.53854 11.2797C7.71143 12.7246 8.94805 13.8507 10.3122 14.7134C10.4864 14.8239 10.6649 14.9131 10.8349 14.9981C10.9879 15.0746 11.1323 15.1469 11.2556 15.2234C11.2726 15.2319 11.2896 15.2446 11.3066 15.2531C11.4511 15.3253 11.587 15.3593 11.7273 15.3593C12.08 15.3593 12.301 15.1384 12.3732 15.0661L13.8266 13.6128C13.9711 13.4683 14.2005 13.294 14.4683 13.294C14.7317 13.294 14.9485 13.4598 15.0802 13.6043C15.0844 13.6085 15.0844 13.6085 15.0887 13.6128L17.4302 15.9543C17.8679 16.3877 17.8679 16.8339 17.4345 17.2844Z" fill="white"/>
<path d="M10.8814 5.12684C11.9948 5.31382 13.0062 5.84077 13.8136 6.64819C14.621 7.45561 15.1437 8.46701 15.335 9.5804C15.3817 9.86087 15.6239 10.0563 15.9001 10.0563C15.9341 10.0563 15.9639 10.0521 15.9979 10.0478C16.3124 9.99685 16.5206 9.69938 16.4696 9.38492C16.2401 8.0378 15.6027 6.80967 14.6295 5.83652C13.6564 4.86336 12.4282 4.22593 11.0811 3.99645C10.7667 3.94546 10.4734 4.15368 10.4182 4.4639C10.363 4.77412 10.5669 5.07584 10.8814 5.12684Z" fill="white"/>
<path d="M20.1117 9.21878C19.7335 7.0005 18.6881 4.98195 17.0818 3.37561C15.4755 1.76927 13.4569 0.723873 11.2386 0.34566C10.9284 0.290416 10.6352 0.502895 10.5799 0.813114C10.5289 1.12758 10.7372 1.4208 11.0516 1.47605C13.0319 1.81176 14.838 2.75092 16.2744 4.18303C17.7107 5.61939 18.6456 7.42546 18.9814 9.40576C19.0281 9.68623 19.2703 9.88171 19.5466 9.88171C19.5805 9.88171 19.6103 9.87746 19.6443 9.87321C19.9545 9.82647 20.167 9.529 20.1117 9.21878Z" fill="white"/>
</g>
<defs>
<clipPath id="clip0_54_407">
<rect width="20.1348" height="20.1348" fill="white" transform="translate(0 0.336914)"/>
</clipPath>
</defs>
</svg>
