<svg width="62" height="62" viewBox="0 0 62 62" fill="none" xmlns="http://www.w3.org/2000/svg">
<path d="M17.0239 30.6345C17.35 31.239 17.9701 31.6159 18.6446 31.6159H29.147V52.3531C29.147 53.4002 29.9771 54.25 30.9999 54.25C32.0227 54.25 32.8528 53.4002 32.8528 52.3531V31.6159H43.3552C44.0322 31.6159 44.6523 31.239 44.9759 30.6345C45.3045 30.03 45.2823 29.2915 44.924 28.7072L32.5687 8.63523C32.2278 8.08386 31.6373 7.75 30.9999 7.75C30.3625 7.75 29.772 8.08386 29.4311 8.63523L17.0757 28.7072C16.888 29.0158 16.7916 29.3674 16.7916 29.7189C16.7916 30.0326 16.8707 30.3487 17.0239 30.6345Z" fill="#FF9116"/>
</svg>
