<?xml version="1.0" encoding="UTF-8"?>
<svg width="72px" height="98px" viewBox="0 0 72 98" version="1.1" xmlns="http://www.w3.org/2000/svg" xmlns:xlink="http://www.w3.org/1999/xlink">
    <!-- Generator: Sketch 49.2 (51160) - http://www.bohemiancoding.com/sketch -->
    <title>Group 9</title>
    <desc>Created with Sketch.</desc>
    <defs></defs>
    <g id="Page-2" stroke="none" stroke-width="1" fill="none" fill-rule="evenodd" stroke-linecap="round" stroke-linejoin="round">
        <g id="ДУ" transform="translate(-144.000000, -4877.000000)" stroke="#586CCB">
            <g id="Group-9" transform="translate(145.000000, 4878.000000)">
                <polygon id="Stroke-1" points="21 8 50 8 50 0 21 0"></polygon>
                <polyline id="Stroke-3" points="49.4121835 5 70 5 70 96 0 96 0 5 20.5888335 5"></polyline>
                <path d="M13,25 L58,25" id="Stroke-5"></path>
                <path d="M13,38 L58,38" id="Stroke-6"></path>
                <path d="M13,50 L58,50" id="Stroke-7"></path>
                <path d="M13,63 L58,63" id="Stroke-8"></path>
                <path d="M37,75 C39.6182573,75 39.6182573,79 42.2365145,79 C44.8589212,79 44.8589212,75 47.4813278,75 C50.1109959,75 50.1109959,79 52.7406639,79 C55.370332,79 55.370332,75 58,75" id="Stroke-9"></path>
            </g>
        </g>
    </g>
</svg>